<?xml version="1.0" encoding="UTF-8"?>
<svg xmlns="http://www.w3.org/2000/svg" xmlns:xlink="http://www.w3.org/1999/xlink" width="280" height="324" viewBox="0 0 280 324">
<path fill="none" stroke-width="11.9553" stroke-linecap="butt" stroke-linejoin="miter" stroke="rgb(0%, 0%, 0%)" stroke-opacity="1" stroke-miterlimit="10" d="M 10 361.601557 L 1099.921859 361.601557 L 1099.921859 1451.523416 L 10 1451.523416 Z M 10 361.601557 " transform="matrix(0.2, 0, 0, -0.2, 0, 324)"/>
<path fill="none" stroke-width="11.9553" stroke-linecap="butt" stroke-linejoin="miter" stroke="rgb(0%, 0%, 0%)" stroke-opacity="1" stroke-miterlimit="10" d="M 1081.015609 361.601557 L 1081.015609 1451.523416 " transform="matrix(0.2, 0, 0, -0.2, 0, 324)"/>
<path fill="none" stroke-width="11.9553" stroke-linecap="butt" stroke-linejoin="miter" stroke="rgb(0%, 0%, 0%)" stroke-opacity="1" stroke-miterlimit="10" d="M 10 1432.617166 L 1099.921859 1432.617166 " transform="matrix(0.2, 0, 0, -0.2, 0, 324)"/>
<path fill-rule="nonzero" fill="rgb(0%, 0%, 0%)" fill-opacity="1" d="M 235.234375 143.773438 C 235.359375 143.210938 235.859375 141.210938 237.390625 141.210938 C 237.515625 141.210938 238.015625 141.210938 238.484375 141.492188 C 237.890625 141.585938 237.453125 142.148438 237.453125 142.679688 C 237.453125 143.023438 237.671875 143.429688 238.265625 143.429688 C 238.765625 143.429688 239.453125 143.023438 239.453125 142.179688 C 239.453125 141.023438 238.171875 140.710938 237.421875 140.710938 C 236.140625 140.710938 235.390625 141.867188 235.140625 142.398438 C 234.578125 140.929688 233.390625 140.710938 232.765625 140.710938 C 230.515625 140.710938 229.265625 143.554688 229.265625 144.085938 C 229.265625 144.304688 229.484375 144.304688 229.515625 144.304688 C 229.703125 144.304688 229.765625 144.273438 229.796875 144.054688 C 230.546875 141.742188 231.984375 141.210938 232.734375 141.210938 C 233.140625 141.210938 233.921875 141.398438 233.921875 142.679688 C 233.921875 143.335938 233.546875 144.804688 232.734375 147.867188 C 232.390625 149.210938 231.609375 150.117188 230.671875 150.117188 C 230.515625 150.117188 230.015625 150.117188 229.578125 149.835938 C 230.109375 149.742188 230.578125 149.273438 230.578125 148.679688 C 230.578125 148.085938 230.109375 147.898438 229.796875 147.898438 C 229.140625 147.898438 228.578125 148.460938 228.578125 149.179688 C 228.578125 150.179688 229.671875 150.617188 230.640625 150.617188 C 232.078125 150.617188 232.859375 149.085938 232.921875 148.960938 C 233.203125 149.742188 233.984375 150.617188 235.296875 150.617188 C 237.515625 150.617188 238.765625 147.804688 238.765625 147.242188 C 238.765625 147.023438 238.578125 147.023438 238.515625 147.023438 C 238.328125 147.023438 238.265625 147.117188 238.234375 147.273438 C 237.515625 149.617188 236.015625 150.117188 235.328125 150.117188 C 234.484375 150.117188 234.140625 149.429688 234.140625 148.679688 C 234.140625 148.210938 234.265625 147.742188 234.484375 146.773438 Z M 235.234375 143.773438 "/>
<path fill-rule="nonzero" fill="rgb(0%, 0%, 0%)" fill-opacity="1" d="M 249.421875 144.929688 C 249.421875 144.273438 248.890625 143.773438 248.265625 143.773438 C 247.640625 143.773438 247.109375 144.273438 247.109375 144.929688 C 247.109375 145.554688 247.640625 146.054688 248.265625 146.054688 C 248.890625 146.054688 249.421875 145.554688 249.421875 144.929688 Z M 249.421875 144.929688 "/>
<path fill-rule="nonzero" fill="rgb(0%, 0%, 0%)" fill-opacity="1" d="M 267.523438 135.460938 C 267.523438 135.460938 267.523438 135.242188 267.242188 135.242188 C 266.929688 135.242188 264.835938 135.429688 264.460938 135.460938 C 264.304688 135.492188 264.179688 135.585938 264.179688 135.898438 C 264.179688 136.148438 264.367188 136.148438 264.679688 136.148438 C 265.742188 136.148438 265.773438 136.304688 265.773438 136.523438 L 265.710938 136.960938 L 264.398438 142.117188 C 264.023438 141.304688 263.398438 140.710938 262.398438 140.710938 C 259.835938 140.710938 257.148438 143.929688 257.148438 147.117188 C 257.148438 149.179688 258.335938 150.617188 260.054688 150.617188 C 260.492188 150.617188 261.585938 150.523438 262.867188 148.960938 C 263.054688 149.898438 263.835938 150.617188 264.867188 150.617188 C 265.617188 150.617188 266.117188 150.117188 266.492188 149.398438 C 266.867188 148.617188 267.148438 147.304688 267.148438 147.242188 C 267.148438 147.023438 266.929688 147.023438 266.867188 147.023438 C 266.648438 147.023438 266.648438 147.117188 266.554688 147.429688 C 266.210938 148.835938 265.804688 150.117188 264.898438 150.117188 C 264.335938 150.117188 264.242188 149.554688 264.242188 149.117188 C 264.242188 148.585938 264.304688 148.460938 264.398438 148.085938 Z M 262.992188 147.773438 C 262.867188 148.179688 262.867188 148.210938 262.554688 148.585938 C 261.585938 149.773438 260.710938 150.117188 260.085938 150.117188 C 258.992188 150.117188 258.679688 148.929688 258.679688 148.085938 C 258.679688 146.992188 259.398438 144.304688 259.898438 143.304688 C 260.585938 142.023438 261.554688 141.210938 262.429688 141.210938 C 263.835938 141.210938 264.148438 142.992188 264.148438 143.117188 C 264.148438 143.242188 264.117188 143.398438 264.085938 143.492188 Z M 262.992188 147.773438 "/>
<path fill-rule="nonzero" fill="rgb(0%, 0%, 0%)" fill-opacity="1" d="M 274.835938 143.773438 C 274.960938 143.210938 275.460938 141.210938 276.992188 141.210938 C 277.117188 141.210938 277.617188 141.210938 278.085938 141.492188 C 277.492188 141.585938 277.054688 142.148438 277.054688 142.679688 C 277.054688 143.023438 277.273438 143.429688 277.867188 143.429688 C 278.367188 143.429688 279.054688 143.023438 279.054688 142.179688 C 279.054688 141.023438 277.773438 140.710938 277.023438 140.710938 C 275.742188 140.710938 274.992188 141.867188 274.742188 142.398438 C 274.179688 140.929688 272.992188 140.710938 272.367188 140.710938 C 270.117188 140.710938 268.867188 143.554688 268.867188 144.085938 C 268.867188 144.304688 269.085938 144.304688 269.117188 144.304688 C 269.304688 144.304688 269.367188 144.273438 269.398438 144.054688 C 270.148438 141.742188 271.585938 141.210938 272.335938 141.210938 C 272.742188 141.210938 273.523438 141.398438 273.523438 142.679688 C 273.523438 143.335938 273.148438 144.804688 272.335938 147.867188 C 271.992188 149.210938 271.210938 150.117188 270.273438 150.117188 C 270.117188 150.117188 269.617188 150.117188 269.179688 149.835938 C 269.710938 149.742188 270.179688 149.273438 270.179688 148.679688 C 270.179688 148.085938 269.710938 147.898438 269.398438 147.898438 C 268.742188 147.898438 268.179688 148.460938 268.179688 149.179688 C 268.179688 150.179688 269.273438 150.617188 270.242188 150.617188 C 271.679688 150.617188 272.460938 149.085938 272.523438 148.960938 C 272.804688 149.742188 273.585938 150.617188 274.898438 150.617188 C 277.117188 150.617188 278.367188 147.804688 278.367188 147.242188 C 278.367188 147.023438 278.179688 147.023438 278.117188 147.023438 C 277.929688 147.023438 277.867188 147.117188 277.835938 147.273438 C 277.117188 149.617188 275.617188 150.117188 274.929688 150.117188 C 274.085938 150.117188 273.742188 149.429688 273.742188 148.679688 C 273.742188 148.210938 273.867188 147.742188 274.085938 146.773438 Z M 274.835938 143.773438 "/>
<path fill-rule="nonzero" fill="rgb(0%, 0%, 0%)" fill-opacity="1" d="M 92.355469 19.132812 C 92.480469 18.570312 92.980469 16.570312 94.511719 16.570312 C 94.636719 16.570312 95.136719 16.570312 95.605469 16.851562 C 95.011719 16.945312 94.574219 17.507812 94.574219 18.039062 C 94.574219 18.382812 94.792969 18.789062 95.386719 18.789062 C 95.886719 18.789062 96.574219 18.382812 96.574219 17.539062 C 96.574219 16.382812 95.292969 16.070312 94.542969 16.070312 C 93.261719 16.070312 92.511719 17.226562 92.261719 17.757812 C 91.699219 16.289062 90.511719 16.070312 89.886719 16.070312 C 87.636719 16.070312 86.386719 18.914062 86.386719 19.445312 C 86.386719 19.664062 86.605469 19.664062 86.636719 19.664062 C 86.824219 19.664062 86.886719 19.632812 86.917969 19.414062 C 87.667969 17.101562 89.105469 16.570312 89.855469 16.570312 C 90.261719 16.570312 91.042969 16.757812 91.042969 18.039062 C 91.042969 18.695312 90.667969 20.164062 89.855469 23.226562 C 89.511719 24.570312 88.730469 25.476562 87.792969 25.476562 C 87.636719 25.476562 87.136719 25.476562 86.699219 25.195312 C 87.230469 25.101562 87.699219 24.632812 87.699219 24.039062 C 87.699219 23.445312 87.230469 23.257812 86.917969 23.257812 C 86.261719 23.257812 85.699219 23.820312 85.699219 24.539062 C 85.699219 25.539062 86.792969 25.976562 87.761719 25.976562 C 89.199219 25.976562 89.980469 24.445312 90.042969 24.320312 C 90.324219 25.101562 91.105469 25.976562 92.417969 25.976562 C 94.636719 25.976562 95.886719 23.164062 95.886719 22.601562 C 95.886719 22.382812 95.699219 22.382812 95.636719 22.382812 C 95.449219 22.382812 95.386719 22.476562 95.355469 22.632812 C 94.636719 24.976562 93.136719 25.476562 92.449219 25.476562 C 91.605469 25.476562 91.261719 24.789062 91.261719 24.039062 C 91.261719 23.570312 91.386719 23.101562 91.605469 22.132812 Z M 92.355469 19.132812 "/>
<path fill-rule="nonzero" fill="rgb(0%, 0%, 0%)" fill-opacity="1" d="M 106.539062 20.289062 C 106.539062 19.632812 106.007812 19.132812 105.382812 19.132812 C 104.757812 19.132812 104.226562 19.632812 104.226562 20.289062 C 104.226562 20.914062 104.757812 21.414062 105.382812 21.414062 C 106.007812 21.414062 106.539062 20.914062 106.539062 20.289062 Z M 106.539062 20.289062 "/>
<path fill-rule="nonzero" fill="rgb(0%, 0%, 0%)" fill-opacity="1" d="M 124.402344 10.820312 C 124.402344 10.820312 124.402344 10.601562 124.121094 10.601562 C 123.808594 10.601562 121.714844 10.789062 121.339844 10.820312 C 121.183594 10.851562 121.058594 10.945312 121.058594 11.257812 C 121.058594 11.507812 121.246094 11.507812 121.558594 11.507812 C 122.621094 11.507812 122.652344 11.664062 122.652344 11.882812 L 122.589844 12.320312 L 121.277344 17.476562 C 120.902344 16.664062 120.277344 16.070312 119.277344 16.070312 C 116.714844 16.070312 114.027344 19.289062 114.027344 22.476562 C 114.027344 24.539062 115.214844 25.976562 116.933594 25.976562 C 117.371094 25.976562 118.464844 25.882812 119.746094 24.320312 C 119.933594 25.257812 120.714844 25.976562 121.746094 25.976562 C 122.496094 25.976562 122.996094 25.476562 123.371094 24.757812 C 123.746094 23.976562 124.027344 22.664062 124.027344 22.601562 C 124.027344 22.382812 123.808594 22.382812 123.746094 22.382812 C 123.527344 22.382812 123.527344 22.476562 123.433594 22.789062 C 123.089844 24.195312 122.683594 25.476562 121.777344 25.476562 C 121.214844 25.476562 121.121094 24.914062 121.121094 24.476562 C 121.121094 23.945312 121.183594 23.820312 121.277344 23.445312 Z M 119.871094 23.132812 C 119.746094 23.539062 119.746094 23.570312 119.433594 23.945312 C 118.464844 25.132812 117.589844 25.476562 116.964844 25.476562 C 115.871094 25.476562 115.558594 24.289062 115.558594 23.445312 C 115.558594 22.351562 116.277344 19.664062 116.777344 18.664062 C 117.464844 17.382812 118.433594 16.570312 119.308594 16.570312 C 120.714844 16.570312 121.027344 18.351562 121.027344 18.476562 C 121.027344 18.601562 120.996094 18.757812 120.964844 18.851562 Z M 119.871094 23.132812 "/>
<path fill-rule="nonzero" fill="rgb(0%, 0%, 0%)" fill-opacity="1" d="M 131.714844 19.132812 C 131.839844 18.570312 132.339844 16.570312 133.871094 16.570312 C 133.996094 16.570312 134.496094 16.570312 134.964844 16.851562 C 134.371094 16.945312 133.933594 17.507812 133.933594 18.039062 C 133.933594 18.382812 134.152344 18.789062 134.746094 18.789062 C 135.246094 18.789062 135.933594 18.382812 135.933594 17.539062 C 135.933594 16.382812 134.652344 16.070312 133.902344 16.070312 C 132.621094 16.070312 131.871094 17.226562 131.621094 17.757812 C 131.058594 16.289062 129.871094 16.070312 129.246094 16.070312 C 126.996094 16.070312 125.746094 18.914062 125.746094 19.445312 C 125.746094 19.664062 125.964844 19.664062 125.996094 19.664062 C 126.183594 19.664062 126.246094 19.632812 126.277344 19.414062 C 127.027344 17.101562 128.464844 16.570312 129.214844 16.570312 C 129.621094 16.570312 130.402344 16.757812 130.402344 18.039062 C 130.402344 18.695312 130.027344 20.164062 129.214844 23.226562 C 128.871094 24.570312 128.089844 25.476562 127.152344 25.476562 C 126.996094 25.476562 126.496094 25.476562 126.058594 25.195312 C 126.589844 25.101562 127.058594 24.632812 127.058594 24.039062 C 127.058594 23.445312 126.589844 23.257812 126.277344 23.257812 C 125.621094 23.257812 125.058594 23.820312 125.058594 24.539062 C 125.058594 25.539062 126.152344 25.976562 127.121094 25.976562 C 128.558594 25.976562 129.339844 24.445312 129.402344 24.320312 C 129.683594 25.101562 130.464844 25.976562 131.777344 25.976562 C 133.996094 25.976562 135.246094 23.164062 135.246094 22.601562 C 135.246094 22.382812 135.058594 22.382812 134.996094 22.382812 C 134.808594 22.382812 134.746094 22.476562 134.714844 22.632812 C 133.996094 24.976562 132.496094 25.476562 131.808594 25.476562 C 130.964844 25.476562 130.621094 24.789062 130.621094 24.039062 C 130.621094 23.570312 130.746094 23.101562 130.964844 22.132812 Z M 131.714844 19.132812 "/>
<path fill-rule="nonzero" fill="rgb(0%, 0%, 0%)" fill-opacity="1" d="M 235.171875 25.457031 C 235.171875 25.363281 235.171875 25.332031 234.796875 24.957031 C 232.078125 22.207031 231.390625 18.082031 231.390625 14.769531 C 231.390625 10.957031 232.203125 7.175781 234.890625 4.425781 C 235.171875 4.175781 235.171875 4.144531 235.171875 4.050781 C 235.171875 3.925781 235.078125 3.863281 234.953125 3.863281 C 234.734375 3.863281 232.765625 5.332031 231.484375 8.113281 C 230.359375 10.488281 230.109375 12.925781 230.109375 14.769531 C 230.109375 16.457031 230.359375 19.082031 231.546875 21.550781 C 232.859375 24.238281 234.734375 25.644531 234.953125 25.644531 C 235.078125 25.644531 235.171875 25.582031 235.171875 25.457031 Z M 235.171875 25.457031 "/>
<path fill-rule="nonzero" fill="rgb(0%, 0%, 0%)" fill-opacity="1" d="M 247.605469 5.300781 C 247.605469 5.300781 247.605469 5.082031 247.324219 5.082031 C 247.011719 5.082031 244.917969 5.269531 244.542969 5.300781 C 244.386719 5.332031 244.261719 5.425781 244.261719 5.738281 C 244.261719 5.988281 244.449219 5.988281 244.761719 5.988281 C 245.824219 5.988281 245.855469 6.144531 245.855469 6.363281 L 245.792969 6.800781 L 244.480469 11.957031 C 244.105469 11.144531 243.480469 10.550781 242.480469 10.550781 C 239.917969 10.550781 237.230469 13.769531 237.230469 16.957031 C 237.230469 19.019531 238.417969 20.457031 240.136719 20.457031 C 240.574219 20.457031 241.667969 20.363281 242.949219 18.800781 C 243.136719 19.738281 243.917969 20.457031 244.949219 20.457031 C 245.699219 20.457031 246.199219 19.957031 246.574219 19.238281 C 246.949219 18.457031 247.230469 17.144531 247.230469 17.082031 C 247.230469 16.863281 247.011719 16.863281 246.949219 16.863281 C 246.730469 16.863281 246.730469 16.957031 246.636719 17.269531 C 246.292969 18.675781 245.886719 19.957031 244.980469 19.957031 C 244.417969 19.957031 244.324219 19.394531 244.324219 18.957031 C 244.324219 18.425781 244.386719 18.300781 244.480469 17.925781 Z M 243.074219 17.613281 C 242.949219 18.019531 242.949219 18.050781 242.636719 18.425781 C 241.667969 19.613281 240.792969 19.957031 240.167969 19.957031 C 239.074219 19.957031 238.761719 18.769531 238.761719 17.925781 C 238.761719 16.832031 239.480469 14.144531 239.980469 13.144531 C 240.667969 11.863281 241.636719 11.050781 242.511719 11.050781 C 243.917969 11.050781 244.230469 12.832031 244.230469 12.957031 C 244.230469 13.082031 244.199219 13.238281 244.167969 13.332031 Z M 243.074219 17.613281 "/>
<path fill-rule="nonzero" fill="rgb(0%, 0%, 0%)" fill-opacity="1" d="M 254.914062 13.613281 C 255.039062 13.050781 255.539062 11.050781 257.070312 11.050781 C 257.195312 11.050781 257.695312 11.050781 258.164062 11.332031 C 257.570312 11.425781 257.132812 11.988281 257.132812 12.519531 C 257.132812 12.863281 257.351562 13.269531 257.945312 13.269531 C 258.445312 13.269531 259.132812 12.863281 259.132812 12.019531 C 259.132812 10.863281 257.851562 10.550781 257.101562 10.550781 C 255.820312 10.550781 255.070312 11.707031 254.820312 12.238281 C 254.257812 10.769531 253.070312 10.550781 252.445312 10.550781 C 250.195312 10.550781 248.945312 13.394531 248.945312 13.925781 C 248.945312 14.144531 249.164062 14.144531 249.195312 14.144531 C 249.382812 14.144531 249.445312 14.113281 249.476562 13.894531 C 250.226562 11.582031 251.664062 11.050781 252.414062 11.050781 C 252.820312 11.050781 253.601562 11.238281 253.601562 12.519531 C 253.601562 13.175781 253.226562 14.644531 252.414062 17.707031 C 252.070312 19.050781 251.289062 19.957031 250.351562 19.957031 C 250.195312 19.957031 249.695312 19.957031 249.257812 19.675781 C 249.789062 19.582031 250.257812 19.113281 250.257812 18.519531 C 250.257812 17.925781 249.789062 17.738281 249.476562 17.738281 C 248.820312 17.738281 248.257812 18.300781 248.257812 19.019531 C 248.257812 20.019531 249.351562 20.457031 250.320312 20.457031 C 251.757812 20.457031 252.539062 18.925781 252.601562 18.800781 C 252.882812 19.582031 253.664062 20.457031 254.976562 20.457031 C 257.195312 20.457031 258.445312 17.644531 258.445312 17.082031 C 258.445312 16.863281 258.257812 16.863281 258.195312 16.863281 C 258.007812 16.863281 257.945312 16.957031 257.914062 17.113281 C 257.195312 19.457031 255.695312 19.957031 255.007812 19.957031 C 254.164062 19.957031 253.820312 19.269531 253.820312 18.519531 C 253.820312 18.050781 253.945312 17.582031 254.164062 16.613281 Z M 254.914062 13.613281 "/>
<path fill-rule="nonzero" fill="rgb(0%, 0%, 0%)" fill-opacity="1" d="M 266.425781 14.769531 C 266.425781 13.050781 266.175781 10.425781 264.988281 7.957031 C 263.675781 5.269531 261.800781 3.863281 261.582031 3.863281 C 261.457031 3.863281 261.363281 3.925781 261.363281 4.050781 C 261.363281 4.144531 261.363281 4.175781 261.769531 4.582031 C 263.894531 6.738281 265.144531 10.207031 265.144531 14.769531 C 265.144531 18.488281 264.332031 22.332031 261.644531 25.082031 C 261.363281 25.332031 261.363281 25.363281 261.363281 25.457031 C 261.363281 25.582031 261.457031 25.644531 261.582031 25.644531 C 261.800781 25.644531 263.769531 24.175781 265.050781 21.394531 C 266.144531 19.019531 266.425781 16.582031 266.425781 14.769531 Z M 266.425781 14.769531 "/>
<path fill-rule="nonzero" fill="rgb(0%, 0%, 0%)" fill-opacity="1" d="M 276.796875 9.097656 L 276.296875 9.097656 C 276.265625 9.347656 276.109375 10.410156 275.890625 10.691406 C 275.765625 10.847656 274.546875 10.847656 274.171875 10.847656 L 270.984375 10.847656 L 272.765625 9.160156 C 275.703125 6.628906 276.796875 5.660156 276.796875 3.847656 C 276.796875 1.785156 275.109375 0.347656 272.890625 0.347656 C 270.828125 0.347656 269.421875 1.972656 269.421875 3.597656 C 269.421875 4.503906 270.203125 4.597656 270.359375 4.597656 C 270.765625 4.597656 271.296875 4.316406 271.296875 3.660156 C 271.296875 3.128906 270.921875 2.722656 270.359375 2.722656 C 270.265625 2.722656 270.234375 2.722656 270.140625 2.753906 C 270.578125 1.472656 271.734375 0.910156 272.703125 0.910156 C 274.515625 0.910156 275.140625 2.597656 275.140625 3.847656 C 275.140625 5.660156 273.765625 7.160156 272.921875 8.097656 L 269.640625 11.628906 C 269.421875 11.847656 269.421875 11.878906 269.421875 12.285156 L 276.296875 12.285156 Z M 276.796875 9.097656 "/>
<path fill-rule="nonzero" fill="rgb(0%, 0%, 0%)" fill-opacity="1" d="M 106.992188 145.933594 C 107.117188 145.371094 107.617188 143.371094 109.148438 143.371094 C 109.273438 143.371094 109.773438 143.371094 110.242188 143.652344 C 109.648438 143.746094 109.210938 144.308594 109.210938 144.839844 C 109.210938 145.183594 109.429688 145.589844 110.023438 145.589844 C 110.523438 145.589844 111.210938 145.183594 111.210938 144.339844 C 111.210938 143.183594 109.929688 142.871094 109.179688 142.871094 C 107.898438 142.871094 107.148438 144.027344 106.898438 144.558594 C 106.335938 143.089844 105.148438 142.871094 104.523438 142.871094 C 102.273438 142.871094 101.023438 145.714844 101.023438 146.246094 C 101.023438 146.464844 101.242188 146.464844 101.273438 146.464844 C 101.460938 146.464844 101.523438 146.433594 101.554688 146.214844 C 102.304688 143.902344 103.742188 143.371094 104.492188 143.371094 C 104.898438 143.371094 105.679688 143.558594 105.679688 144.839844 C 105.679688 145.496094 105.304688 146.964844 104.492188 150.027344 C 104.148438 151.371094 103.367188 152.277344 102.429688 152.277344 C 102.273438 152.277344 101.773438 152.277344 101.335938 151.996094 C 101.867188 151.902344 102.335938 151.433594 102.335938 150.839844 C 102.335938 150.246094 101.867188 150.058594 101.554688 150.058594 C 100.898438 150.058594 100.335938 150.621094 100.335938 151.339844 C 100.335938 152.339844 101.429688 152.777344 102.398438 152.777344 C 103.835938 152.777344 104.617188 151.246094 104.679688 151.121094 C 104.960938 151.902344 105.742188 152.777344 107.054688 152.777344 C 109.273438 152.777344 110.523438 149.964844 110.523438 149.402344 C 110.523438 149.183594 110.335938 149.183594 110.273438 149.183594 C 110.085938 149.183594 110.023438 149.277344 109.992188 149.433594 C 109.273438 151.777344 107.773438 152.277344 107.085938 152.277344 C 106.242188 152.277344 105.898438 151.589844 105.898438 150.839844 C 105.898438 150.371094 106.023438 149.902344 106.242188 148.933594 Z M 106.992188 145.933594 "/>
<path fill-rule="nonzero" fill="rgb(0%, 0%, 0%)" fill-opacity="1" d="M 120.472656 141.421875 L 119.972656 141.421875 C 119.941406 141.671875 119.785156 142.734375 119.566406 143.015625 C 119.441406 143.171875 118.222656 143.171875 117.847656 143.171875 L 114.660156 143.171875 L 116.441406 141.484375 C 119.378906 138.953125 120.472656 137.984375 120.472656 136.171875 C 120.472656 134.109375 118.785156 132.671875 116.566406 132.671875 C 114.503906 132.671875 113.097656 134.296875 113.097656 135.921875 C 113.097656 136.828125 113.878906 136.921875 114.035156 136.921875 C 114.441406 136.921875 114.972656 136.640625 114.972656 135.984375 C 114.972656 135.453125 114.597656 135.046875 114.035156 135.046875 C 113.941406 135.046875 113.910156 135.046875 113.816406 135.078125 C 114.253906 133.796875 115.410156 133.234375 116.378906 133.234375 C 118.191406 133.234375 118.816406 134.921875 118.816406 136.171875 C 118.816406 137.984375 117.441406 139.484375 116.597656 140.421875 L 113.316406 143.953125 C 113.097656 144.171875 113.097656 144.203125 113.097656 144.609375 L 119.972656 144.609375 Z M 120.472656 141.421875 "/>
<path fill-rule="nonzero" fill="rgb(0%, 0%, 0%)" fill-opacity="1" d="M 89.839844 316.269531 C 91.027344 315.863281 93.027344 315.269531 93.027344 313.332031 C 93.027344 311.019531 90.308594 309.957031 88.339844 309.957031 C 87.402344 309.957031 86.433594 310.175781 85.589844 310.675781 C 85.464844 310.738281 85.308594 310.925781 85.152344 310.925781 C 84.839844 310.925781 84.277344 309.957031 83.964844 309.957031 C 83.777344 309.957031 83.746094 310.175781 83.746094 310.269531 L 83.746094 313.832031 C 83.746094 313.957031 83.839844 314.113281 84.027344 314.113281 C 84.339844 314.113281 84.308594 313.488281 84.402344 313.144531 C 84.871094 311.425781 86.433594 310.675781 87.933594 310.582031 L 88.339844 310.582031 C 89.683594 310.582031 91.246094 311.457031 91.246094 313.332031 C 91.246094 315.144531 89.464844 316.082031 87.808594 316.082031 C 87.496094 316.082031 87.183594 316.082031 86.871094 316.082031 L 86.714844 316.082031 C 86.527344 316.082031 86.308594 316.082031 86.308594 316.300781 L 86.308594 316.332031 C 86.339844 316.519531 86.527344 316.550781 86.714844 316.550781 L 88.558594 316.550781 C 90.121094 316.675781 91.558594 317.707031 91.714844 319.332031 L 91.714844 319.550781 C 91.714844 321.394531 89.996094 322.550781 88.246094 322.550781 C 86.339844 322.550781 84.371094 321.925781 84.058594 319.550781 C 84.058594 319.394531 83.996094 319.207031 83.777344 319.207031 C 83.558594 319.238281 83.527344 319.394531 83.527344 319.550781 C 83.527344 322.144531 86.121094 323.175781 88.371094 323.175781 C 90.433594 323.175781 93.308594 322.207031 93.558594 319.738281 L 93.558594 319.613281 C 93.558594 317.644531 91.496094 316.675781 89.839844 316.269531 Z M 89.839844 316.269531 "/>
<path fill-rule="nonzero" fill="rgb(0%, 0%, 0%)" fill-opacity="1" d="M 101.933594 309.957031 C 98.558594 310.363281 95.871094 313.019531 95.871094 316.613281 C 95.871094 319.894531 98.464844 323.144531 102.339844 323.144531 C 105.839844 323.144531 108.808594 320.238281 108.808594 316.613281 C 108.808594 313.425781 106.308594 309.957031 102.371094 309.957031 C 102.246094 309.957031 102.089844 309.957031 101.933594 309.957031 Z M 97.746094 316.832031 L 97.746094 316.488281 C 97.746094 313.988281 98.652344 311.050781 101.808594 310.519531 C 101.996094 310.488281 102.152344 310.488281 102.339844 310.488281 C 105.152344 310.488281 106.902344 313.207031 106.902344 316.238281 C 106.902344 318.644531 106.183594 321.707031 103.214844 322.488281 C 102.933594 322.550781 102.652344 322.582031 102.371094 322.582031 L 102.183594 322.582031 C 99.589844 322.488281 98.183594 320.019531 97.839844 317.613281 Z M 97.746094 316.832031 "/>
<path fill-rule="nonzero" fill="rgb(0%, 0%, 0%)" fill-opacity="1" d="M 111.265625 310.300781 L 111.265625 310.894531 L 111.703125 310.894531 C 112.296875 310.894531 112.921875 310.988281 112.921875 311.863281 L 112.921875 321.332031 C 112.921875 322.175781 112.203125 322.207031 111.546875 322.207031 L 111.265625 322.207031 L 111.265625 322.800781 L 117.046875 322.800781 C 117.453125 322.800781 117.828125 322.832031 118.234375 322.832031 C 120.234375 322.832031 122.578125 321.894531 122.796875 319.488281 L 122.796875 319.300781 C 122.796875 316.769531 119.921875 315.738281 118.015625 315.738281 C 116.765625 315.738281 115.578125 315.863281 114.390625 315.957031 L 114.390625 311.738281 C 114.390625 311.300781 114.453125 310.894531 115.234375 310.894531 L 117.546875 310.894531 C 118.515625 310.894531 119.609375 310.957031 120.328125 311.675781 C 121.015625 312.394531 121.109375 313.613281 121.203125 314.550781 L 121.734375 314.550781 L 121.265625 310.300781 Z M 114.390625 316.582031 C 114.640625 316.582031 114.890625 316.519531 115.140625 316.488281 L 116.515625 316.425781 C 116.796875 316.394531 117.078125 316.363281 117.390625 316.363281 C 118.953125 316.363281 120.921875 317.363281 120.921875 319.207031 C 120.921875 320.957031 119.578125 322.238281 117.578125 322.238281 C 117.296875 322.238281 116.984375 322.207031 116.734375 322.207031 L 115.203125 322.207031 C 114.734375 322.207031 114.484375 322.175781 114.390625 321.550781 Z M 114.390625 316.582031 "/>
<path fill-rule="nonzero" fill="rgb(0%, 0%, 0%)" fill-opacity="1" d="M 125.148438 310.300781 L 125.148438 310.894531 L 125.617188 310.894531 C 126.210938 310.894531 126.804688 310.988281 126.804688 311.863281 L 126.804688 321.332031 C 126.804688 322.175781 126.117188 322.207031 125.429688 322.207031 L 125.148438 322.207031 L 125.148438 322.800781 L 130.054688 322.800781 L 130.054688 322.207031 L 129.617188 322.207031 C 128.992188 322.207031 128.398438 322.144531 128.398438 321.269531 L 128.398438 317.082031 L 132.117188 317.082031 C 133.898438 316.957031 136.179688 315.769531 136.179688 313.738281 C 136.179688 311.519531 133.835938 310.457031 131.929688 310.300781 Z M 128.367188 316.550781 L 128.367188 311.550781 C 128.460938 310.957031 128.710938 310.894531 129.117188 310.894531 L 130.554688 310.894531 C 132.179688 310.894531 134.304688 310.957031 134.304688 313.738281 C 134.304688 314.394531 134.210938 315.082031 133.804688 315.582031 C 133.148438 316.363281 132.054688 316.550781 131.085938 316.550781 Z M 128.367188 316.550781 "/>
<path fill-rule="nonzero" fill="rgb(0%, 0%, 0%)" fill-opacity="1" d="M 140.875 320.519531 C 140.375 320.613281 139.875 321.050781 139.875 321.644531 C 139.875 322.269531 140.40625 322.800781 141.03125 322.800781 C 141.65625 322.800781 142.21875 322.332031 142.21875 321.675781 C 142.21875 321.050781 141.6875 320.488281 141.0625 320.488281 C 141 320.488281 140.9375 320.519531 140.875 320.519531 Z M 140.875 320.519531 "/>
<path fill-rule="nonzero" fill="rgb(0%, 0%, 0%)" fill-opacity="1" d="M 156.277344 309.082031 C 156.964844 308.019531 158.339844 307.488281 159.621094 307.488281 C 161.058594 307.488281 162.214844 308.394531 162.214844 310.238281 C 162.214844 311.769531 161.464844 313.644531 159.871094 314.050781 C 159.308594 314.207031 157.808594 314.050781 157.808594 314.488281 C 157.808594 314.675781 157.996094 314.738281 158.183594 314.738281 L 159.464844 314.738281 C 161.808594 314.738281 162.683594 316.707031 162.683594 318.519531 C 162.683594 320.269531 162.058594 322.675781 159.652344 322.675781 C 158.058594 322.675781 156.527344 321.957031 155.652344 320.550781 L 155.871094 320.550781 C 156.558594 320.550781 157.152344 320.144531 157.152344 319.394531 C 157.152344 318.675781 156.621094 318.207031 155.933594 318.207031 L 155.839844 318.207031 C 155.183594 318.238281 154.746094 318.769531 154.746094 319.394531 C 154.746094 321.863281 157.308594 323.300781 159.746094 323.300781 C 162.339844 323.300781 164.902344 321.457031 164.902344 318.707031 C 164.902344 316.582031 162.871094 314.519531 160.652344 314.425781 C 162.527344 313.769531 164.214844 312.394531 164.214844 310.238281 C 164.214844 308.050781 161.808594 306.925781 159.777344 306.925781 C 157.902344 306.925781 155.433594 307.832031 155.433594 310.082031 C 155.433594 310.644531 155.683594 311.144531 156.433594 311.269531 L 156.527344 311.269531 C 157.183594 311.269531 157.652344 310.832031 157.652344 310.175781 C 157.652344 309.457031 157.089844 309.050781 156.496094 309.050781 C 156.433594 309.050781 156.371094 309.082031 156.277344 309.082031 Z M 156.277344 309.082031 "/>
<path fill-rule="nonzero" fill="rgb(0%, 0%, 0%)" fill-opacity="1" d="M 169.671875 320.519531 C 169.171875 320.613281 168.671875 321.050781 168.671875 321.644531 C 168.671875 322.269531 169.203125 322.800781 169.828125 322.800781 C 170.453125 322.800781 171.015625 322.332031 171.015625 321.675781 C 171.015625 321.050781 170.484375 320.488281 169.859375 320.488281 C 169.796875 320.488281 169.734375 320.519531 169.671875 320.519531 Z M 169.671875 320.519531 "/>
</svg>
