<?xml version="1.0" encoding="UTF-8"?>
<svg xmlns="http://www.w3.org/2000/svg" xmlns:xlink="http://www.w3.org/1999/xlink" width="394" height="274" viewBox="0 0 394 274">
<path fill="none" stroke-width="11.9553" stroke-linecap="butt" stroke-linejoin="miter" stroke="rgb(0%, 0%, 0%)" stroke-opacity="1" stroke-miterlimit="10" d="M 20 316.01562 L 1820.039035 316.01562 L 1820.039035 1355.234355 Z M 20 316.01562 " transform="matrix(0.2, 0, 0, -0.2, 0, 274)"/>
<path fill="none" stroke-width="11.9553" stroke-linecap="butt" stroke-linejoin="miter" stroke="rgb(0%, 0%, 0%)" stroke-opacity="1" stroke-miterlimit="10" d="M 1520.312477 316.01562 L 1520.312477 1182.226545 " transform="matrix(0.2, 0, 0, -0.2, 0, 274)"/>
<path fill="none" stroke-width="11.9553" stroke-linecap="butt" stroke-linejoin="miter" stroke="rgb(0%, 0%, 0%)" stroke-opacity="1" stroke-miterlimit="10" d="M 1520.312477 1182.226545 L 1820.039035 1182.226545 " transform="matrix(0.2, 0, 0, -0.2, 0, 274)"/>
<path fill-rule="nonzero" fill="rgb(0%, 0%, 0%)" fill-opacity="1" d="M 155.074219 221.535156 C 155.199219 220.972656 155.699219 218.972656 157.230469 218.972656 C 157.355469 218.972656 157.855469 218.972656 158.324219 219.253906 C 157.730469 219.347656 157.292969 219.910156 157.292969 220.441406 C 157.292969 220.785156 157.511719 221.191406 158.105469 221.191406 C 158.605469 221.191406 159.292969 220.785156 159.292969 219.941406 C 159.292969 218.785156 158.011719 218.472656 157.261719 218.472656 C 155.980469 218.472656 155.230469 219.628906 154.980469 220.160156 C 154.417969 218.691406 153.230469 218.472656 152.605469 218.472656 C 150.355469 218.472656 149.105469 221.316406 149.105469 221.847656 C 149.105469 222.066406 149.324219 222.066406 149.355469 222.066406 C 149.542969 222.066406 149.605469 222.035156 149.636719 221.816406 C 150.386719 219.503906 151.824219 218.972656 152.574219 218.972656 C 152.980469 218.972656 153.761719 219.160156 153.761719 220.441406 C 153.761719 221.097656 153.386719 222.566406 152.574219 225.628906 C 152.230469 226.972656 151.449219 227.878906 150.511719 227.878906 C 150.355469 227.878906 149.855469 227.878906 149.417969 227.597656 C 149.949219 227.503906 150.417969 227.035156 150.417969 226.441406 C 150.417969 225.847656 149.949219 225.660156 149.636719 225.660156 C 148.980469 225.660156 148.417969 226.222656 148.417969 226.941406 C 148.417969 227.941406 149.511719 228.378906 150.480469 228.378906 C 151.917969 228.378906 152.699219 226.847656 152.761719 226.722656 C 153.042969 227.503906 153.824219 228.378906 155.136719 228.378906 C 157.355469 228.378906 158.605469 225.566406 158.605469 225.003906 C 158.605469 224.785156 158.417969 224.785156 158.355469 224.785156 C 158.167969 224.785156 158.105469 224.878906 158.074219 225.035156 C 157.355469 227.378906 155.855469 227.878906 155.167969 227.878906 C 154.324219 227.878906 153.980469 227.191406 153.980469 226.441406 C 153.980469 225.972656 154.105469 225.503906 154.324219 224.535156 Z M 155.074219 221.535156 "/>
<path fill-rule="nonzero" fill="rgb(0%, 0%, 0%)" fill-opacity="1" d="M 333.285156 218.984375 C 333.285156 218.984375 333.285156 218.765625 333.003906 218.765625 C 332.691406 218.765625 330.597656 218.953125 330.222656 218.984375 C 330.066406 219.015625 329.941406 219.109375 329.941406 219.421875 C 329.941406 219.671875 330.128906 219.671875 330.441406 219.671875 C 331.503906 219.671875 331.535156 219.828125 331.535156 220.046875 L 331.472656 220.484375 L 330.160156 225.640625 C 329.785156 224.828125 329.160156 224.234375 328.160156 224.234375 C 325.597656 224.234375 322.910156 227.453125 322.910156 230.640625 C 322.910156 232.703125 324.097656 234.140625 325.816406 234.140625 C 326.253906 234.140625 327.347656 234.046875 328.628906 232.484375 C 328.816406 233.421875 329.597656 234.140625 330.628906 234.140625 C 331.378906 234.140625 331.878906 233.640625 332.253906 232.921875 C 332.628906 232.140625 332.910156 230.828125 332.910156 230.765625 C 332.910156 230.546875 332.691406 230.546875 332.628906 230.546875 C 332.410156 230.546875 332.410156 230.640625 332.316406 230.953125 C 331.972656 232.359375 331.566406 233.640625 330.660156 233.640625 C 330.097656 233.640625 330.003906 233.078125 330.003906 232.640625 C 330.003906 232.109375 330.066406 231.984375 330.160156 231.609375 Z M 328.753906 231.296875 C 328.628906 231.703125 328.628906 231.734375 328.316406 232.109375 C 327.347656 233.296875 326.472656 233.640625 325.847656 233.640625 C 324.753906 233.640625 324.441406 232.453125 324.441406 231.609375 C 324.441406 230.515625 325.160156 227.828125 325.660156 226.828125 C 326.347656 225.546875 327.316406 224.734375 328.191406 224.734375 C 329.597656 224.734375 329.910156 226.515625 329.910156 226.640625 C 329.910156 226.765625 329.878906 226.921875 329.847656 227.015625 Z M 328.753906 231.296875 "/>
<path fill-rule="nonzero" fill="rgb(0%, 0%, 0%)" fill-opacity="1" d="M 340.597656 227.296875 C 340.722656 226.734375 341.222656 224.734375 342.753906 224.734375 C 342.878906 224.734375 343.378906 224.734375 343.847656 225.015625 C 343.253906 225.109375 342.816406 225.671875 342.816406 226.203125 C 342.816406 226.546875 343.035156 226.953125 343.628906 226.953125 C 344.128906 226.953125 344.816406 226.546875 344.816406 225.703125 C 344.816406 224.546875 343.535156 224.234375 342.785156 224.234375 C 341.503906 224.234375 340.753906 225.390625 340.503906 225.921875 C 339.941406 224.453125 338.753906 224.234375 338.128906 224.234375 C 335.878906 224.234375 334.628906 227.078125 334.628906 227.609375 C 334.628906 227.828125 334.847656 227.828125 334.878906 227.828125 C 335.066406 227.828125 335.128906 227.796875 335.160156 227.578125 C 335.910156 225.265625 337.347656 224.734375 338.097656 224.734375 C 338.503906 224.734375 339.285156 224.921875 339.285156 226.203125 C 339.285156 226.859375 338.910156 228.328125 338.097656 231.390625 C 337.753906 232.734375 336.972656 233.640625 336.035156 233.640625 C 335.878906 233.640625 335.378906 233.640625 334.941406 233.359375 C 335.472656 233.265625 335.941406 232.796875 335.941406 232.203125 C 335.941406 231.609375 335.472656 231.421875 335.160156 231.421875 C 334.503906 231.421875 333.941406 231.984375 333.941406 232.703125 C 333.941406 233.703125 335.035156 234.140625 336.003906 234.140625 C 337.441406 234.140625 338.222656 232.609375 338.285156 232.484375 C 338.566406 233.265625 339.347656 234.140625 340.660156 234.140625 C 342.878906 234.140625 344.128906 231.328125 344.128906 230.765625 C 344.128906 230.546875 343.941406 230.546875 343.878906 230.546875 C 343.691406 230.546875 343.628906 230.640625 343.597656 230.796875 C 342.878906 233.140625 341.378906 233.640625 340.691406 233.640625 C 339.847656 233.640625 339.503906 232.953125 339.503906 232.203125 C 339.503906 231.734375 339.628906 231.265625 339.847656 230.296875 Z M 340.597656 227.296875 "/>
<path fill-rule="nonzero" fill="rgb(0%, 0%, 0%)" fill-opacity="1" d="M 295.167969 118.503906 C 295.261719 118.191406 295.261719 118.160156 295.261719 118.003906 C 295.261719 117.597656 294.949219 117.410156 294.636719 117.410156 C 294.417969 117.410156 294.074219 117.535156 293.855469 117.878906 C 293.824219 117.972656 293.636719 118.660156 293.574219 119.066406 C 293.417969 119.628906 293.261719 120.222656 293.136719 120.785156 L 292.136719 124.722656 C 292.042969 125.035156 291.105469 126.566406 289.667969 126.566406 C 288.574219 126.566406 288.324219 125.628906 288.324219 124.816406 C 288.324219 123.816406 288.699219 122.441406 289.449219 120.535156 C 289.792969 119.628906 289.886719 119.410156 289.886719 118.972656 C 289.886719 117.972656 289.167969 117.160156 288.074219 117.160156 C 286.011719 117.160156 285.199219 120.347656 285.199219 120.535156 C 285.199219 120.753906 285.417969 120.753906 285.480469 120.753906 C 285.699219 120.753906 285.699219 120.722656 285.824219 120.347656 C 286.417969 118.316406 287.292969 117.660156 288.011719 117.660156 C 288.199219 117.660156 288.574219 117.660156 288.574219 118.347656 C 288.574219 118.910156 288.355469 119.472656 288.199219 119.878906 C 287.324219 122.191406 286.917969 123.441406 286.917969 124.472656 C 286.917969 126.410156 288.292969 127.066406 289.605469 127.066406 C 290.449219 127.066406 291.167969 126.691406 291.792969 126.066406 C 291.511719 127.222656 291.261719 128.285156 290.386719 129.441406 C 289.824219 130.160156 288.980469 130.816406 287.980469 130.816406 C 287.667969 130.816406 286.699219 130.753906 286.324219 129.878906 C 286.667969 129.878906 286.949219 129.878906 287.261719 129.628906 C 287.480469 129.441406 287.699219 129.160156 287.699219 128.722656 C 287.699219 128.066406 287.105469 127.972656 286.886719 127.972656 C 286.386719 127.972656 285.667969 128.316406 285.667969 129.378906 C 285.667969 130.472656 286.636719 131.285156 287.980469 131.285156 C 290.230469 131.285156 292.480469 129.316406 293.074219 126.847656 Z M 295.167969 118.503906 "/>
<path fill-rule="nonzero" fill="rgb(0%, 0%, 0%)" fill-opacity="1" d="M 382.566406 118.503906 C 382.660156 118.191406 382.660156 118.160156 382.660156 118.003906 C 382.660156 117.597656 382.347656 117.410156 382.035156 117.410156 C 381.816406 117.410156 381.472656 117.535156 381.253906 117.878906 C 381.222656 117.972656 381.035156 118.660156 380.972656 119.066406 C 380.816406 119.628906 380.660156 120.222656 380.535156 120.785156 L 379.535156 124.722656 C 379.441406 125.035156 378.503906 126.566406 377.066406 126.566406 C 375.972656 126.566406 375.722656 125.628906 375.722656 124.816406 C 375.722656 123.816406 376.097656 122.441406 376.847656 120.535156 C 377.191406 119.628906 377.285156 119.410156 377.285156 118.972656 C 377.285156 117.972656 376.566406 117.160156 375.472656 117.160156 C 373.410156 117.160156 372.597656 120.347656 372.597656 120.535156 C 372.597656 120.753906 372.816406 120.753906 372.878906 120.753906 C 373.097656 120.753906 373.097656 120.722656 373.222656 120.347656 C 373.816406 118.316406 374.691406 117.660156 375.410156 117.660156 C 375.597656 117.660156 375.972656 117.660156 375.972656 118.347656 C 375.972656 118.910156 375.753906 119.472656 375.597656 119.878906 C 374.722656 122.191406 374.316406 123.441406 374.316406 124.472656 C 374.316406 126.410156 375.691406 127.066406 377.003906 127.066406 C 377.847656 127.066406 378.566406 126.691406 379.191406 126.066406 C 378.910156 127.222656 378.660156 128.285156 377.785156 129.441406 C 377.222656 130.160156 376.378906 130.816406 375.378906 130.816406 C 375.066406 130.816406 374.097656 130.753906 373.722656 129.878906 C 374.066406 129.878906 374.347656 129.878906 374.660156 129.628906 C 374.878906 129.441406 375.097656 129.160156 375.097656 128.722656 C 375.097656 128.066406 374.503906 127.972656 374.285156 127.972656 C 373.785156 127.972656 373.066406 128.316406 373.066406 129.378906 C 373.066406 130.472656 374.035156 131.285156 375.378906 131.285156 C 377.628906 131.285156 379.878906 129.316406 380.472656 126.847656 Z M 382.566406 118.503906 "/>
<path fill-rule="nonzero" fill="rgb(0%, 0%, 0%)" fill-opacity="1" d="M 383.222656 10.628906 C 383.222656 10.628906 383.222656 10.410156 382.941406 10.410156 C 382.628906 10.410156 380.535156 10.597656 380.160156 10.628906 C 380.003906 10.660156 379.878906 10.753906 379.878906 11.066406 C 379.878906 11.316406 380.066406 11.316406 380.378906 11.316406 C 381.441406 11.316406 381.472656 11.472656 381.472656 11.691406 L 381.410156 12.128906 L 380.097656 17.285156 C 379.722656 16.472656 379.097656 15.878906 378.097656 15.878906 C 375.535156 15.878906 372.847656 19.097656 372.847656 22.285156 C 372.847656 24.347656 374.035156 25.785156 375.753906 25.785156 C 376.191406 25.785156 377.285156 25.691406 378.566406 24.128906 C 378.753906 25.066406 379.535156 25.785156 380.566406 25.785156 C 381.316406 25.785156 381.816406 25.285156 382.191406 24.566406 C 382.566406 23.785156 382.847656 22.472656 382.847656 22.410156 C 382.847656 22.191406 382.628906 22.191406 382.566406 22.191406 C 382.347656 22.191406 382.347656 22.285156 382.253906 22.597656 C 381.910156 24.003906 381.503906 25.285156 380.597656 25.285156 C 380.035156 25.285156 379.941406 24.722656 379.941406 24.285156 C 379.941406 23.753906 380.003906 23.628906 380.097656 23.253906 Z M 378.691406 22.941406 C 378.566406 23.347656 378.566406 23.378906 378.253906 23.753906 C 377.285156 24.941406 376.410156 25.285156 375.785156 25.285156 C 374.691406 25.285156 374.378906 24.097656 374.378906 23.253906 C 374.378906 22.160156 375.097656 19.472656 375.597656 18.472656 C 376.285156 17.191406 377.253906 16.378906 378.128906 16.378906 C 379.535156 16.378906 379.847656 18.160156 379.847656 18.285156 C 379.847656 18.410156 379.816406 18.566406 379.785156 18.660156 Z M 378.691406 22.941406 "/>
<path fill-rule="nonzero" fill="rgb(0%, 0%, 0%)" fill-opacity="1" d="M 393.847656 17.222656 C 393.941406 16.910156 393.941406 16.878906 393.941406 16.722656 C 393.941406 16.316406 393.628906 16.128906 393.316406 16.128906 C 393.097656 16.128906 392.753906 16.253906 392.535156 16.597656 C 392.503906 16.691406 392.316406 17.378906 392.253906 17.785156 C 392.097656 18.347656 391.941406 18.941406 391.816406 19.503906 L 390.816406 23.441406 C 390.722656 23.753906 389.785156 25.285156 388.347656 25.285156 C 387.253906 25.285156 387.003906 24.347656 387.003906 23.535156 C 387.003906 22.535156 387.378906 21.160156 388.128906 19.253906 C 388.472656 18.347656 388.566406 18.128906 388.566406 17.691406 C 388.566406 16.691406 387.847656 15.878906 386.753906 15.878906 C 384.691406 15.878906 383.878906 19.066406 383.878906 19.253906 C 383.878906 19.472656 384.097656 19.472656 384.160156 19.472656 C 384.378906 19.472656 384.378906 19.441406 384.503906 19.066406 C 385.097656 17.035156 385.972656 16.378906 386.691406 16.378906 C 386.878906 16.378906 387.253906 16.378906 387.253906 17.066406 C 387.253906 17.628906 387.035156 18.191406 386.878906 18.597656 C 386.003906 20.910156 385.597656 22.160156 385.597656 23.191406 C 385.597656 25.128906 386.972656 25.785156 388.285156 25.785156 C 389.128906 25.785156 389.847656 25.410156 390.472656 24.785156 C 390.191406 25.941406 389.941406 27.003906 389.066406 28.160156 C 388.503906 28.878906 387.660156 29.535156 386.660156 29.535156 C 386.347656 29.535156 385.378906 29.472656 385.003906 28.597656 C 385.347656 28.597656 385.628906 28.597656 385.941406 28.347656 C 386.160156 28.160156 386.378906 27.878906 386.378906 27.441406 C 386.378906 26.785156 385.785156 26.691406 385.566406 26.691406 C 385.066406 26.691406 384.347656 27.035156 384.347656 28.097656 C 384.347656 29.191406 385.316406 30.003906 386.660156 30.003906 C 388.910156 30.003906 391.160156 28.035156 391.753906 25.566406 Z M 393.847656 17.222656 "/>
<path fill-rule="nonzero" fill="rgb(0%, 0%, 0%)" fill-opacity="1" d="M 144.726562 168.164062 C 146.539062 167.570312 147.789062 166.070312 147.789062 164.320312 C 147.789062 162.539062 145.882812 161.320312 143.789062 161.320312 C 141.570312 161.320312 139.914062 162.632812 139.914062 164.289062 C 139.914062 165.007812 140.414062 165.414062 141.039062 165.414062 C 141.695312 165.414062 142.132812 164.945312 142.132812 164.320312 C 142.132812 163.226562 141.132812 163.226562 140.789062 163.226562 C 141.476562 162.164062 142.914062 161.882812 143.695312 161.882812 C 144.601562 161.882812 145.789062 162.351562 145.789062 164.320312 C 145.789062 164.570312 145.757812 165.851562 145.164062 166.789062 C 144.507812 167.851562 143.789062 167.914062 143.226562 167.945312 C 143.070312 167.945312 142.539062 168.007812 142.382812 168.007812 C 142.195312 168.007812 142.070312 168.039062 142.070312 168.257812 C 142.070312 168.507812 142.195312 168.507812 142.570312 168.507812 L 143.539062 168.507812 C 145.320312 168.507812 146.132812 169.976562 146.132812 172.132812 C 146.132812 175.101562 144.632812 175.726562 143.664062 175.726562 C 142.726562 175.726562 141.101562 175.351562 140.320312 174.070312 C 141.101562 174.164062 141.757812 173.695312 141.757812 172.851562 C 141.757812 172.070312 141.195312 171.632812 140.539062 171.632812 C 140.039062 171.632812 139.320312 171.945312 139.320312 172.914062 C 139.320312 174.882812 141.351562 176.320312 143.726562 176.320312 C 146.382812 176.320312 148.382812 174.351562 148.382812 172.132812 C 148.382812 170.320312 147.007812 168.632812 144.726562 168.164062 Z M 144.726562 168.164062 "/>
<path fill-rule="nonzero" fill="rgb(0%, 0%, 0%)" fill-opacity="1" d="M 159.242188 168.882812 C 159.242188 167.132812 159.148438 165.382812 158.367188 163.757812 C 157.367188 161.664062 155.585938 161.320312 154.648438 161.320312 C 153.367188 161.320312 151.773438 161.882812 150.867188 163.914062 C 150.179688 165.414062 150.054688 167.132812 150.054688 168.882812 C 150.054688 170.507812 150.148438 172.476562 151.054688 174.132812 C 151.992188 175.882812 153.585938 176.320312 154.648438 176.320312 C 155.804688 176.320312 157.492188 175.882812 158.429688 173.789062 C 159.148438 172.289062 159.242188 170.601562 159.242188 168.882812 Z M 154.648438 175.851562 C 153.804688 175.851562 152.492188 175.320312 152.117188 173.226562 C 151.867188 171.914062 151.867188 169.882812 151.867188 168.601562 C 151.867188 167.226562 151.867188 165.789062 152.054688 164.601562 C 152.460938 162.007812 154.085938 161.789062 154.648438 161.789062 C 155.367188 161.789062 156.804688 162.195312 157.210938 164.351562 C 157.429688 165.570312 157.429688 167.226562 157.429688 168.601562 C 157.429688 170.257812 157.429688 171.726562 157.179688 173.132812 C 156.867188 175.195312 155.617188 175.851562 154.648438 175.851562 Z M 154.648438 175.851562 "/>
<path fill="none" stroke-width="7.9701" stroke-linecap="butt" stroke-linejoin="miter" stroke="rgb(0%, 0%, 0%)" stroke-opacity="1" stroke-miterlimit="10" d="M 672.148427 490.74218 L 669.648428 499.218743 " transform="matrix(0.2, 0, 0, -0.2, 0, 274)"/>
<path fill="none" stroke-width="7.9701" stroke-linecap="butt" stroke-linejoin="miter" stroke="rgb(0%, 0%, 0%)" stroke-opacity="1" stroke-miterlimit="10" d="M 664.609365 516.171867 L 662.109365 524.64843 " transform="matrix(0.2, 0, 0, -0.2, 0, 274)"/>
<path fill="none" stroke-width="7.9701" stroke-linecap="butt" stroke-linejoin="miter" stroke="rgb(0%, 0%, 0%)" stroke-opacity="1" stroke-miterlimit="10" d="M 662.109365 524.64843 L 659.140615 532.968742 " transform="matrix(0.2, 0, 0, -0.2, 0, 274)"/>
<path fill="none" stroke-width="7.9701" stroke-linecap="butt" stroke-linejoin="miter" stroke="rgb(0%, 0%, 0%)" stroke-opacity="1" stroke-miterlimit="10" d="M 653.242178 549.609367 L 650.31249 557.968742 " transform="matrix(0.2, 0, 0, -0.2, 0, 274)"/>
<path fill="none" stroke-width="7.9701" stroke-linecap="butt" stroke-linejoin="miter" stroke="rgb(0%, 0%, 0%)" stroke-opacity="1" stroke-miterlimit="10" d="M 650.31249 557.968742 L 646.914053 566.132804 " transform="matrix(0.2, 0, 0, -0.2, 0, 274)"/>
<path fill="none" stroke-width="7.9701" stroke-linecap="butt" stroke-linejoin="miter" stroke="rgb(0%, 0%, 0%)" stroke-opacity="1" stroke-miterlimit="10" d="M 640.15624 582.460929 L 636.757803 590.585929 " transform="matrix(0.2, 0, 0, -0.2, 0, 274)"/>
<path fill="none" stroke-width="7.9701" stroke-linecap="butt" stroke-linejoin="miter" stroke="rgb(0%, 0%, 0%)" stroke-opacity="1" stroke-miterlimit="10" d="M 636.757803 590.585929 L 632.968741 598.593741 " transform="matrix(0.2, 0, 0, -0.2, 0, 274)"/>
<path fill="none" stroke-width="7.9701" stroke-linecap="butt" stroke-linejoin="miter" stroke="rgb(0%, 0%, 0%)" stroke-opacity="1" stroke-miterlimit="10" d="M 625.351553 614.531241 L 621.562491 622.499991 " transform="matrix(0.2, 0, 0, -0.2, 0, 274)"/>
<path fill="none" stroke-width="7.9701" stroke-linecap="butt" stroke-linejoin="miter" stroke="rgb(0%, 0%, 0%)" stroke-opacity="1" stroke-miterlimit="10" d="M 621.562491 622.499991 L 617.343741 630.273428 " transform="matrix(0.2, 0, 0, -0.2, 0, 274)"/>
<path fill="none" stroke-width="7.9701" stroke-linecap="butt" stroke-linejoin="miter" stroke="rgb(0%, 0%, 0%)" stroke-opacity="1" stroke-miterlimit="10" d="M 608.906241 645.820303 L 604.687491 653.554678 " transform="matrix(0.2, 0, 0, -0.2, 0, 274)"/>
<path fill-rule="nonzero" fill="rgb(0%, 0%, 0%)" fill-opacity="1" d="M 121.828125 144.929688 L 128.882812 147.476562 L 120.9375 143.289062 L 120.125 152.226562 L 121.828125 144.929688 "/>
<path fill="none" stroke-width="7.9701" stroke-linecap="butt" stroke-linejoin="miter" stroke="rgb(0%, 0%, 0%)" stroke-opacity="1" stroke-miterlimit="10" d="M 609.140616 645.351553 L 644.414053 632.617178 L 604.687491 653.554678 L 600.624991 608.867178 Z M 609.140616 645.351553 " transform="matrix(0.2, 0, 0, -0.2, 0, 274)"/>
<path fill="none" stroke-width="7.9701" stroke-linecap="butt" stroke-linejoin="miter" stroke="rgb(0%, 0%, 0%)" stroke-opacity="1" stroke-miterlimit="10" d="M 672.148427 490.74218 L 674.179677 482.14843 " transform="matrix(0.2, 0, 0, -0.2, 0, 274)"/>
<path fill="none" stroke-width="7.9701" stroke-linecap="butt" stroke-linejoin="miter" stroke="rgb(0%, 0%, 0%)" stroke-opacity="1" stroke-miterlimit="10" d="M 678.320302 464.960931 L 680.390615 456.367181 " transform="matrix(0.2, 0, 0, -0.2, 0, 274)"/>
<path fill="none" stroke-width="7.9701" stroke-linecap="butt" stroke-linejoin="miter" stroke="rgb(0%, 0%, 0%)" stroke-opacity="1" stroke-miterlimit="10" d="M 680.390615 456.367181 L 681.992177 447.695306 " transform="matrix(0.2, 0, 0, -0.2, 0, 274)"/>
<path fill="none" stroke-width="7.9701" stroke-linecap="butt" stroke-linejoin="miter" stroke="rgb(0%, 0%, 0%)" stroke-opacity="1" stroke-miterlimit="10" d="M 685.234365 430.312494 L 686.835927 421.601556 " transform="matrix(0.2, 0, 0, -0.2, 0, 274)"/>
<path fill="none" stroke-width="7.9701" stroke-linecap="butt" stroke-linejoin="miter" stroke="rgb(0%, 0%, 0%)" stroke-opacity="1" stroke-miterlimit="10" d="M 686.835927 421.601556 L 687.96874 412.851556 " transform="matrix(0.2, 0, 0, -0.2, 0, 274)"/>
<path fill="none" stroke-width="7.9701" stroke-linecap="butt" stroke-linejoin="miter" stroke="rgb(0%, 0%, 0%)" stroke-opacity="1" stroke-miterlimit="10" d="M 690.31249 395.312494 L 691.445302 386.562494 " transform="matrix(0.2, 0, 0, -0.2, 0, 274)"/>
<path fill="none" stroke-width="7.9701" stroke-linecap="butt" stroke-linejoin="miter" stroke="rgb(0%, 0%, 0%)" stroke-opacity="1" stroke-miterlimit="10" d="M 691.445302 386.562494 L 692.148427 377.773432 " transform="matrix(0.2, 0, 0, -0.2, 0, 274)"/>
<path fill="none" stroke-width="7.9701" stroke-linecap="butt" stroke-linejoin="miter" stroke="rgb(0%, 0%, 0%)" stroke-opacity="1" stroke-miterlimit="10" d="M 693.515615 360.156245 L 694.21874 351.32812 " transform="matrix(0.2, 0, 0, -0.2, 0, 274)"/>
<path fill="none" stroke-width="7.9701" stroke-linecap="butt" stroke-linejoin="miter" stroke="rgb(0%, 0%, 0%)" stroke-opacity="1" stroke-miterlimit="10" d="M 694.21874 351.32812 L 694.453115 342.499995 " transform="matrix(0.2, 0, 0, -0.2, 0, 274)"/>
<path fill="none" stroke-width="7.9701" stroke-linecap="butt" stroke-linejoin="miter" stroke="rgb(0%, 0%, 0%)" stroke-opacity="1" stroke-miterlimit="10" d="M 694.921865 324.843745 L 695.15624 316.01562 " transform="matrix(0.2, 0, 0, -0.2, 0, 274)"/>
<path fill-rule="nonzero" fill="rgb(0%, 0%, 0%)" fill-opacity="1" d="M 138.976562 208.929688 L 133.851562 203.460938 L 139.03125 210.796875 L 143.8125 203.195312 L 138.976562 208.929688 "/>
<path fill="none" stroke-width="7.9701" stroke-linecap="butt" stroke-linejoin="miter" stroke="rgb(0%, 0%, 0%)" stroke-opacity="1" stroke-miterlimit="10" d="M 694.882802 325.351558 L 669.257803 352.695307 L 695.15624 316.01562 L 719.062489 354.023432 Z M 694.882802 325.351558 " transform="matrix(0.2, 0, 0, -0.2, 0, 274)"/>
<path fill-rule="nonzero" fill="rgb(0%, 0%, 0%)" fill-opacity="1" d="M 145.839844 267.417969 C 147.027344 267.011719 149.027344 266.417969 149.027344 264.480469 C 149.027344 262.167969 146.308594 261.105469 144.339844 261.105469 C 143.402344 261.105469 142.433594 261.324219 141.589844 261.824219 C 141.464844 261.886719 141.308594 262.074219 141.152344 262.074219 C 140.839844 262.074219 140.277344 261.105469 139.964844 261.105469 C 139.777344 261.105469 139.746094 261.324219 139.746094 261.417969 L 139.746094 264.980469 C 139.746094 265.105469 139.839844 265.261719 140.027344 265.261719 C 140.339844 265.261719 140.308594 264.636719 140.402344 264.292969 C 140.871094 262.574219 142.433594 261.824219 143.933594 261.730469 L 144.339844 261.730469 C 145.683594 261.730469 147.246094 262.605469 147.246094 264.480469 C 147.246094 266.292969 145.464844 267.230469 143.808594 267.230469 C 143.496094 267.230469 143.183594 267.230469 142.871094 267.230469 L 142.714844 267.230469 C 142.527344 267.230469 142.308594 267.230469 142.308594 267.449219 L 142.308594 267.480469 C 142.339844 267.667969 142.527344 267.699219 142.714844 267.699219 L 144.558594 267.699219 C 146.121094 267.824219 147.558594 268.855469 147.714844 270.480469 L 147.714844 270.699219 C 147.714844 272.542969 145.996094 273.699219 144.246094 273.699219 C 142.339844 273.699219 140.371094 273.074219 140.058594 270.699219 C 140.058594 270.542969 139.996094 270.355469 139.777344 270.355469 C 139.558594 270.386719 139.527344 270.542969 139.527344 270.699219 C 139.527344 273.292969 142.121094 274.324219 144.371094 274.324219 C 146.433594 274.324219 149.308594 273.355469 149.558594 270.886719 L 149.558594 270.761719 C 149.558594 268.792969 147.496094 267.824219 145.839844 267.417969 Z M 145.839844 267.417969 "/>
<path fill-rule="nonzero" fill="rgb(0%, 0%, 0%)" fill-opacity="1" d="M 157.933594 261.105469 C 154.558594 261.511719 151.871094 264.167969 151.871094 267.761719 C 151.871094 271.042969 154.464844 274.292969 158.339844 274.292969 C 161.839844 274.292969 164.808594 271.386719 164.808594 267.761719 C 164.808594 264.574219 162.308594 261.105469 158.371094 261.105469 C 158.246094 261.105469 158.089844 261.105469 157.933594 261.105469 Z M 153.746094 267.980469 L 153.746094 267.636719 C 153.746094 265.136719 154.652344 262.199219 157.808594 261.667969 C 157.996094 261.636719 158.152344 261.636719 158.339844 261.636719 C 161.152344 261.636719 162.902344 264.355469 162.902344 267.386719 C 162.902344 269.792969 162.183594 272.855469 159.214844 273.636719 C 158.933594 273.699219 158.652344 273.730469 158.371094 273.730469 L 158.183594 273.730469 C 155.589844 273.636719 154.183594 271.167969 153.839844 268.761719 Z M 153.746094 267.980469 "/>
<path fill-rule="nonzero" fill="rgb(0%, 0%, 0%)" fill-opacity="1" d="M 167.265625 261.449219 L 167.265625 262.042969 L 167.703125 262.042969 C 168.296875 262.042969 168.921875 262.136719 168.921875 263.011719 L 168.921875 272.480469 C 168.921875 273.324219 168.203125 273.355469 167.546875 273.355469 L 167.265625 273.355469 L 167.265625 273.949219 L 173.046875 273.949219 C 173.453125 273.949219 173.828125 273.980469 174.234375 273.980469 C 176.234375 273.980469 178.578125 273.042969 178.796875 270.636719 L 178.796875 270.449219 C 178.796875 267.917969 175.921875 266.886719 174.015625 266.886719 C 172.765625 266.886719 171.578125 267.011719 170.390625 267.105469 L 170.390625 262.886719 C 170.390625 262.449219 170.453125 262.042969 171.234375 262.042969 L 173.546875 262.042969 C 174.515625 262.042969 175.609375 262.105469 176.328125 262.824219 C 177.015625 263.542969 177.109375 264.761719 177.203125 265.699219 L 177.734375 265.699219 L 177.265625 261.449219 Z M 170.390625 267.730469 C 170.640625 267.730469 170.890625 267.667969 171.140625 267.636719 L 172.515625 267.574219 C 172.796875 267.542969 173.078125 267.511719 173.390625 267.511719 C 174.953125 267.511719 176.921875 268.511719 176.921875 270.355469 C 176.921875 272.105469 175.578125 273.386719 173.578125 273.386719 C 173.296875 273.386719 172.984375 273.355469 172.734375 273.355469 L 171.203125 273.355469 C 170.734375 273.355469 170.484375 273.324219 170.390625 272.699219 Z M 170.390625 267.730469 "/>
<path fill-rule="nonzero" fill="rgb(0%, 0%, 0%)" fill-opacity="1" d="M 181.148438 261.449219 L 181.148438 262.042969 L 181.617188 262.042969 C 182.210938 262.042969 182.804688 262.136719 182.804688 263.011719 L 182.804688 272.480469 C 182.804688 273.324219 182.117188 273.355469 181.429688 273.355469 L 181.148438 273.355469 L 181.148438 273.949219 L 186.054688 273.949219 L 186.054688 273.355469 L 185.617188 273.355469 C 184.992188 273.355469 184.398438 273.292969 184.398438 272.417969 L 184.398438 268.230469 L 188.117188 268.230469 C 189.898438 268.105469 192.179688 266.917969 192.179688 264.886719 C 192.179688 262.667969 189.835938 261.605469 187.929688 261.449219 Z M 184.367188 267.699219 L 184.367188 262.699219 C 184.460938 262.105469 184.710938 262.042969 185.117188 262.042969 L 186.554688 262.042969 C 188.179688 262.042969 190.304688 262.105469 190.304688 264.886719 C 190.304688 265.542969 190.210938 266.230469 189.804688 266.730469 C 189.148438 267.511719 188.054688 267.699219 187.085938 267.699219 Z M 184.367188 267.699219 "/>
<path fill-rule="nonzero" fill="rgb(0%, 0%, 0%)" fill-opacity="1" d="M 196.875 271.667969 C 196.375 271.761719 195.875 272.199219 195.875 272.792969 C 195.875 273.417969 196.40625 273.949219 197.03125 273.949219 C 197.65625 273.949219 198.21875 273.480469 198.21875 272.824219 C 198.21875 272.199219 197.6875 271.636719 197.0625 271.636719 C 197 271.636719 196.9375 271.667969 196.875 271.667969 Z M 196.875 271.667969 "/>
<path fill-rule="nonzero" fill="rgb(0%, 0%, 0%)" fill-opacity="1" d="M 210.433594 269.949219 L 217.027344 269.949219 L 217.027344 272.230469 C 217.027344 273.261719 216.214844 273.261719 214.652344 273.261719 L 214.652344 273.949219 L 221.089844 273.949219 L 221.089844 273.261719 C 220.808594 273.261719 220.496094 273.292969 220.183594 273.292969 C 219.371094 273.292969 218.714844 273.167969 218.714844 272.230469 L 218.714844 269.949219 L 221.246094 269.949219 L 221.246094 269.261719 L 218.714844 269.261719 L 218.714844 258.136719 L 218.621094 257.855469 L 218.152344 257.855469 L 217.839844 258.261719 L 210.433594 269.261719 Z M 211.027344 269.261719 L 217.121094 260.199219 L 217.121094 269.261719 Z M 211.027344 269.261719 "/>
<path fill-rule="nonzero" fill="rgb(0%, 0%, 0%)" fill-opacity="1" d="M 225.671875 271.667969 C 225.171875 271.761719 224.671875 272.199219 224.671875 272.792969 C 224.671875 273.417969 225.203125 273.949219 225.828125 273.949219 C 226.453125 273.949219 227.015625 273.480469 227.015625 272.824219 C 227.015625 272.199219 226.484375 271.636719 225.859375 271.636719 C 225.796875 271.636719 225.734375 271.667969 225.671875 271.667969 Z M 225.671875 271.667969 "/>
</svg>
