<?xml version="1.0" encoding="UTF-8"?>
<svg xmlns="http://www.w3.org/2000/svg" xmlns:xlink="http://www.w3.org/1999/xlink" width="364" height="356" viewBox="0 0 364 356">
<path fill="none" stroke-width="11.9553" stroke-linecap="butt" stroke-linejoin="miter" stroke="rgb(0%, 0%, 0%)" stroke-opacity="1" stroke-miterlimit="10" d="M 979.999985 1266.601544 L 1182.499982 1266.601544 " transform="matrix(0.2, 0, 0, -0.2, 0, 356)"/>
<path fill="none" stroke-width="11.9553" stroke-linecap="butt" stroke-linejoin="miter" stroke="rgb(0%, 0%, 0%)" stroke-opacity="1" stroke-miterlimit="10" d="M 1182.499982 1266.601544 L 1182.499982 1477.734353 " transform="matrix(0.2, 0, 0, -0.2, 0, 356)"/>
<path fill="none" stroke-width="7.9701" stroke-linecap="butt" stroke-linejoin="miter" stroke="rgb(0%, 0%, 0%)" stroke-opacity="1" stroke-miterlimit="10" d="M 979.999985 1266.601544 L 979.999985 1237.070294 " transform="matrix(0.2, 0, 0, -0.2, 0, 356)"/>
<path fill="none" stroke-width="7.9701" stroke-linecap="butt" stroke-linejoin="miter" stroke="rgb(0%, 0%, 0%)" stroke-opacity="1" stroke-miterlimit="10" d="M 979.999985 1178.007795 L 979.999985 1148.476545 " transform="matrix(0.2, 0, 0, -0.2, 0, 356)"/>
<path fill="none" stroke-width="7.9701" stroke-linecap="butt" stroke-linejoin="miter" stroke="rgb(0%, 0%, 0%)" stroke-opacity="1" stroke-miterlimit="10" d="M 979.999985 1148.476545 L 979.999985 1118.945296 " transform="matrix(0.2, 0, 0, -0.2, 0, 356)"/>
<path fill="none" stroke-width="7.9701" stroke-linecap="butt" stroke-linejoin="miter" stroke="rgb(0%, 0%, 0%)" stroke-opacity="1" stroke-miterlimit="10" d="M 979.999985 1059.882797 L 979.999985 1030.351547 " transform="matrix(0.2, 0, 0, -0.2, 0, 356)"/>
<path fill="none" stroke-width="7.9701" stroke-linecap="butt" stroke-linejoin="miter" stroke="rgb(0%, 0%, 0%)" stroke-opacity="1" stroke-miterlimit="10" d="M 979.999985 1030.351547 L 979.999985 1000.820298 " transform="matrix(0.2, 0, 0, -0.2, 0, 356)"/>
<path fill="none" stroke-width="7.9701" stroke-linecap="butt" stroke-linejoin="miter" stroke="rgb(0%, 0%, 0%)" stroke-opacity="1" stroke-miterlimit="10" d="M 979.999985 941.757798 L 979.999985 912.226549 " transform="matrix(0.2, 0, 0, -0.2, 0, 356)"/>
<path fill="none" stroke-width="7.9701" stroke-linecap="butt" stroke-linejoin="miter" stroke="rgb(0%, 0%, 0%)" stroke-opacity="1" stroke-miterlimit="10" d="M 979.999985 912.226549 L 979.999985 882.695299 " transform="matrix(0.2, 0, 0, -0.2, 0, 356)"/>
<path fill="none" stroke-width="7.9701" stroke-linecap="butt" stroke-linejoin="miter" stroke="rgb(0%, 0%, 0%)" stroke-opacity="1" stroke-miterlimit="10" d="M 979.999985 823.6328 L 979.999985 794.101551 " transform="matrix(0.2, 0, 0, -0.2, 0, 356)"/>
<path fill="none" stroke-width="7.9701" stroke-linecap="butt" stroke-linejoin="miter" stroke="rgb(0%, 0%, 0%)" stroke-opacity="1" stroke-miterlimit="10" d="M 979.999985 794.101551 L 979.999985 764.570301 " transform="matrix(0.2, 0, 0, -0.2, 0, 356)"/>
<path fill="none" stroke-width="7.9701" stroke-linecap="butt" stroke-linejoin="miter" stroke="rgb(0%, 0%, 0%)" stroke-opacity="1" stroke-miterlimit="10" d="M 979.999985 705.507802 L 979.999985 675.976552 " transform="matrix(0.2, 0, 0, -0.2, 0, 356)"/>
<path fill="none" stroke-width="7.9701" stroke-linecap="butt" stroke-linejoin="miter" stroke="rgb(0%, 0%, 0%)" stroke-opacity="1" stroke-miterlimit="10" d="M 979.999985 675.976552 L 979.999985 646.445303 " transform="matrix(0.2, 0, 0, -0.2, 0, 356)"/>
<path fill="none" stroke-width="7.9701" stroke-linecap="butt" stroke-linejoin="miter" stroke="rgb(0%, 0%, 0%)" stroke-opacity="1" stroke-miterlimit="10" d="M 979.999985 587.382804 L 979.999985 557.851554 " transform="matrix(0.2, 0, 0, -0.2, 0, 356)"/>
<path fill="none" stroke-width="7.9701" stroke-linecap="butt" stroke-linejoin="miter" stroke="rgb(0%, 0%, 0%)" stroke-opacity="1" stroke-miterlimit="10" d="M 979.999985 557.851554 L 979.999985 528.320305 " transform="matrix(0.2, 0, 0, -0.2, 0, 356)"/>
<path fill="none" stroke-width="7.9701" stroke-linecap="butt" stroke-linejoin="miter" stroke="rgb(0%, 0%, 0%)" stroke-opacity="1" stroke-miterlimit="10" d="M 979.999985 469.257806 L 979.999985 439.726556 " transform="matrix(0.2, 0, 0, -0.2, 0, 356)"/>
<path fill="none" stroke-width="7.9701" stroke-linecap="butt" stroke-linejoin="miter" stroke="rgb(0%, 0%, 0%)" stroke-opacity="1" stroke-miterlimit="10" d="M 979.999985 439.726556 L 979.999985 410.195306 " transform="matrix(0.2, 0, 0, -0.2, 0, 356)"/>
<path fill="none" stroke-width="7.9701" stroke-linecap="butt" stroke-linejoin="miter" stroke="rgb(0%, 0%, 0%)" stroke-opacity="1" stroke-miterlimit="10" d="M 979.999985 351.132807 L 979.999985 321.601558 " transform="matrix(0.2, 0, 0, -0.2, 0, 356)"/>
<path fill="none" stroke-width="7.9701" stroke-linecap="butt" stroke-linejoin="miter" stroke="rgb(0%, 0%, 0%)" stroke-opacity="1" stroke-miterlimit="10" d="M 1182.499982 1266.601544 L 1182.499982 1237.070294 " transform="matrix(0.2, 0, 0, -0.2, 0, 356)"/>
<path fill="none" stroke-width="7.9701" stroke-linecap="butt" stroke-linejoin="miter" stroke="rgb(0%, 0%, 0%)" stroke-opacity="1" stroke-miterlimit="10" d="M 1182.499982 1178.007795 L 1182.499982 1148.476545 " transform="matrix(0.2, 0, 0, -0.2, 0, 356)"/>
<path fill="none" stroke-width="7.9701" stroke-linecap="butt" stroke-linejoin="miter" stroke="rgb(0%, 0%, 0%)" stroke-opacity="1" stroke-miterlimit="10" d="M 1182.499982 1148.476545 L 1182.499982 1118.945296 " transform="matrix(0.2, 0, 0, -0.2, 0, 356)"/>
<path fill="none" stroke-width="7.9701" stroke-linecap="butt" stroke-linejoin="miter" stroke="rgb(0%, 0%, 0%)" stroke-opacity="1" stroke-miterlimit="10" d="M 1182.499982 1059.882797 L 1182.499982 1030.351547 " transform="matrix(0.2, 0, 0, -0.2, 0, 356)"/>
<path fill="none" stroke-width="7.9701" stroke-linecap="butt" stroke-linejoin="miter" stroke="rgb(0%, 0%, 0%)" stroke-opacity="1" stroke-miterlimit="10" d="M 1182.499982 1030.351547 L 1182.499982 1000.820298 " transform="matrix(0.2, 0, 0, -0.2, 0, 356)"/>
<path fill="none" stroke-width="7.9701" stroke-linecap="butt" stroke-linejoin="miter" stroke="rgb(0%, 0%, 0%)" stroke-opacity="1" stroke-miterlimit="10" d="M 1182.499982 941.757798 L 1182.499982 912.226549 " transform="matrix(0.2, 0, 0, -0.2, 0, 356)"/>
<path fill="none" stroke-width="7.9701" stroke-linecap="butt" stroke-linejoin="miter" stroke="rgb(0%, 0%, 0%)" stroke-opacity="1" stroke-miterlimit="10" d="M 1182.499982 912.226549 L 1182.499982 882.695299 " transform="matrix(0.2, 0, 0, -0.2, 0, 356)"/>
<path fill="none" stroke-width="7.9701" stroke-linecap="butt" stroke-linejoin="miter" stroke="rgb(0%, 0%, 0%)" stroke-opacity="1" stroke-miterlimit="10" d="M 1182.499982 823.6328 L 1182.499982 794.101551 " transform="matrix(0.2, 0, 0, -0.2, 0, 356)"/>
<path fill="none" stroke-width="7.9701" stroke-linecap="butt" stroke-linejoin="miter" stroke="rgb(0%, 0%, 0%)" stroke-opacity="1" stroke-miterlimit="10" d="M 1182.499982 794.101551 L 1182.499982 764.570301 " transform="matrix(0.2, 0, 0, -0.2, 0, 356)"/>
<path fill="none" stroke-width="7.9701" stroke-linecap="butt" stroke-linejoin="miter" stroke="rgb(0%, 0%, 0%)" stroke-opacity="1" stroke-miterlimit="10" d="M 1182.499982 705.507802 L 1182.499982 675.976552 " transform="matrix(0.2, 0, 0, -0.2, 0, 356)"/>
<path fill="none" stroke-width="7.9701" stroke-linecap="butt" stroke-linejoin="miter" stroke="rgb(0%, 0%, 0%)" stroke-opacity="1" stroke-miterlimit="10" d="M 1182.499982 675.976552 L 1182.499982 646.445303 " transform="matrix(0.2, 0, 0, -0.2, 0, 356)"/>
<path fill="none" stroke-width="7.9701" stroke-linecap="butt" stroke-linejoin="miter" stroke="rgb(0%, 0%, 0%)" stroke-opacity="1" stroke-miterlimit="10" d="M 1182.499982 587.382804 L 1182.499982 557.851554 " transform="matrix(0.2, 0, 0, -0.2, 0, 356)"/>
<path fill="none" stroke-width="7.9701" stroke-linecap="butt" stroke-linejoin="miter" stroke="rgb(0%, 0%, 0%)" stroke-opacity="1" stroke-miterlimit="10" d="M 1182.499982 557.851554 L 1182.499982 528.320305 " transform="matrix(0.2, 0, 0, -0.2, 0, 356)"/>
<path fill="none" stroke-width="7.9701" stroke-linecap="butt" stroke-linejoin="miter" stroke="rgb(0%, 0%, 0%)" stroke-opacity="1" stroke-miterlimit="10" d="M 1182.499982 469.257806 L 1182.499982 439.726556 " transform="matrix(0.2, 0, 0, -0.2, 0, 356)"/>
<path fill="none" stroke-width="7.9701" stroke-linecap="butt" stroke-linejoin="miter" stroke="rgb(0%, 0%, 0%)" stroke-opacity="1" stroke-miterlimit="10" d="M 1182.499982 439.726556 L 1182.499982 410.195306 " transform="matrix(0.2, 0, 0, -0.2, 0, 356)"/>
<path fill="none" stroke-width="7.9701" stroke-linecap="butt" stroke-linejoin="miter" stroke="rgb(0%, 0%, 0%)" stroke-opacity="1" stroke-miterlimit="10" d="M 1182.499982 351.132807 L 1182.499982 321.601558 " transform="matrix(0.2, 0, 0, -0.2, 0, 356)"/>
<path fill-rule="nonzero" fill="rgb(0%, 0%, 0%)" fill-opacity="1" d="M 215.503906 110.863281 C 215.503906 110.863281 215.503906 110.644531 215.222656 110.644531 C 214.910156 110.644531 212.816406 110.832031 212.441406 110.863281 C 212.285156 110.894531 212.160156 110.988281 212.160156 111.300781 C 212.160156 111.550781 212.347656 111.550781 212.660156 111.550781 C 213.722656 111.550781 213.753906 111.707031 213.753906 111.925781 L 213.691406 112.363281 L 212.378906 117.519531 C 212.003906 116.707031 211.378906 116.113281 210.378906 116.113281 C 207.816406 116.113281 205.128906 119.332031 205.128906 122.519531 C 205.128906 124.582031 206.316406 126.019531 208.035156 126.019531 C 208.472656 126.019531 209.566406 125.925781 210.847656 124.363281 C 211.035156 125.300781 211.816406 126.019531 212.847656 126.019531 C 213.597656 126.019531 214.097656 125.519531 214.472656 124.800781 C 214.847656 124.019531 215.128906 122.707031 215.128906 122.644531 C 215.128906 122.425781 214.910156 122.425781 214.847656 122.425781 C 214.628906 122.425781 214.628906 122.519531 214.535156 122.832031 C 214.191406 124.238281 213.785156 125.519531 212.878906 125.519531 C 212.316406 125.519531 212.222656 124.957031 212.222656 124.519531 C 212.222656 123.988281 212.285156 123.863281 212.378906 123.488281 Z M 210.972656 123.175781 C 210.847656 123.582031 210.847656 123.613281 210.535156 123.988281 C 209.566406 125.175781 208.691406 125.519531 208.066406 125.519531 C 206.972656 125.519531 206.660156 124.332031 206.660156 123.488281 C 206.660156 122.394531 207.378906 119.707031 207.878906 118.707031 C 208.566406 117.425781 209.535156 116.613281 210.410156 116.613281 C 211.816406 116.613281 212.128906 118.394531 212.128906 118.519531 C 212.128906 118.644531 212.097656 118.800781 212.066406 118.894531 Z M 210.972656 123.175781 "/>
<path fill-rule="nonzero" fill="rgb(0%, 0%, 0%)" fill-opacity="1" d="M 222.8125 119.175781 C 222.9375 118.613281 223.4375 116.613281 224.96875 116.613281 C 225.09375 116.613281 225.59375 116.613281 226.0625 116.894531 C 225.46875 116.988281 225.03125 117.550781 225.03125 118.082031 C 225.03125 118.425781 225.25 118.832031 225.84375 118.832031 C 226.34375 118.832031 227.03125 118.425781 227.03125 117.582031 C 227.03125 116.425781 225.75 116.113281 225 116.113281 C 223.71875 116.113281 222.96875 117.269531 222.71875 117.800781 C 222.15625 116.332031 220.96875 116.113281 220.34375 116.113281 C 218.09375 116.113281 216.84375 118.957031 216.84375 119.488281 C 216.84375 119.707031 217.0625 119.707031 217.09375 119.707031 C 217.28125 119.707031 217.34375 119.675781 217.375 119.457031 C 218.125 117.144531 219.5625 116.613281 220.3125 116.613281 C 220.71875 116.613281 221.5 116.800781 221.5 118.082031 C 221.5 118.738281 221.125 120.207031 220.3125 123.269531 C 219.96875 124.613281 219.1875 125.519531 218.25 125.519531 C 218.09375 125.519531 217.59375 125.519531 217.15625 125.238281 C 217.6875 125.144531 218.15625 124.675781 218.15625 124.082031 C 218.15625 123.488281 217.6875 123.300781 217.375 123.300781 C 216.71875 123.300781 216.15625 123.863281 216.15625 124.582031 C 216.15625 125.582031 217.25 126.019531 218.21875 126.019531 C 219.65625 126.019531 220.4375 124.488281 220.5 124.363281 C 220.78125 125.144531 221.5625 126.019531 222.875 126.019531 C 225.09375 126.019531 226.34375 123.207031 226.34375 122.644531 C 226.34375 122.425781 226.15625 122.425781 226.09375 122.425781 C 225.90625 122.425781 225.84375 122.519531 225.8125 122.675781 C 225.09375 125.019531 223.59375 125.519531 222.90625 125.519531 C 222.0625 125.519531 221.71875 124.832031 221.71875 124.082031 C 221.71875 123.613281 221.84375 123.144531 222.0625 122.175781 Z M 222.8125 119.175781 "/>
<path fill-rule="nonzero" fill="rgb(0%, 0%, 0%)" fill-opacity="1" d="M 255.722656 72.179688 C 255.722656 72.179688 255.722656 71.960938 255.441406 71.960938 C 255.128906 71.960938 253.035156 72.148438 252.660156 72.179688 C 252.503906 72.210938 252.378906 72.304688 252.378906 72.617188 C 252.378906 72.867188 252.566406 72.867188 252.878906 72.867188 C 253.941406 72.867188 253.972656 73.023438 253.972656 73.242188 L 253.910156 73.679688 L 252.597656 78.835938 C 252.222656 78.023438 251.597656 77.429688 250.597656 77.429688 C 248.035156 77.429688 245.347656 80.648438 245.347656 83.835938 C 245.347656 85.898438 246.535156 87.335938 248.253906 87.335938 C 248.691406 87.335938 249.785156 87.242188 251.066406 85.679688 C 251.253906 86.617188 252.035156 87.335938 253.066406 87.335938 C 253.816406 87.335938 254.316406 86.835938 254.691406 86.117188 C 255.066406 85.335938 255.347656 84.023438 255.347656 83.960938 C 255.347656 83.742188 255.128906 83.742188 255.066406 83.742188 C 254.847656 83.742188 254.847656 83.835938 254.753906 84.148438 C 254.410156 85.554688 254.003906 86.835938 253.097656 86.835938 C 252.535156 86.835938 252.441406 86.273438 252.441406 85.835938 C 252.441406 85.304688 252.503906 85.179688 252.597656 84.804688 Z M 251.191406 84.492188 C 251.066406 84.898438 251.066406 84.929688 250.753906 85.304688 C 249.785156 86.492188 248.910156 86.835938 248.285156 86.835938 C 247.191406 86.835938 246.878906 85.648438 246.878906 84.804688 C 246.878906 83.710938 247.597656 81.023438 248.097656 80.023438 C 248.785156 78.742188 249.753906 77.929688 250.628906 77.929688 C 252.035156 77.929688 252.347656 79.710938 252.347656 79.835938 C 252.347656 79.960938 252.316406 80.117188 252.285156 80.210938 Z M 251.191406 84.492188 "/>
<path fill-rule="nonzero" fill="rgb(0%, 0%, 0%)" fill-opacity="1" d="M 266.34375 78.773438 C 266.4375 78.460938 266.4375 78.429688 266.4375 78.273438 C 266.4375 77.867188 266.125 77.679688 265.8125 77.679688 C 265.59375 77.679688 265.25 77.804688 265.03125 78.148438 C 265 78.242188 264.8125 78.929688 264.75 79.335938 C 264.59375 79.898438 264.4375 80.492188 264.3125 81.054688 L 263.3125 84.992188 C 263.21875 85.304688 262.28125 86.835938 260.84375 86.835938 C 259.75 86.835938 259.5 85.898438 259.5 85.085938 C 259.5 84.085938 259.875 82.710938 260.625 80.804688 C 260.96875 79.898438 261.0625 79.679688 261.0625 79.242188 C 261.0625 78.242188 260.34375 77.429688 259.25 77.429688 C 257.1875 77.429688 256.375 80.617188 256.375 80.804688 C 256.375 81.023438 256.59375 81.023438 256.65625 81.023438 C 256.875 81.023438 256.875 80.992188 257 80.617188 C 257.59375 78.585938 258.46875 77.929688 259.1875 77.929688 C 259.375 77.929688 259.75 77.929688 259.75 78.617188 C 259.75 79.179688 259.53125 79.742188 259.375 80.148438 C 258.5 82.460938 258.09375 83.710938 258.09375 84.742188 C 258.09375 86.679688 259.46875 87.335938 260.78125 87.335938 C 261.625 87.335938 262.34375 86.960938 262.96875 86.335938 C 262.6875 87.492188 262.4375 88.554688 261.5625 89.710938 C 261 90.429688 260.15625 91.085938 259.15625 91.085938 C 258.84375 91.085938 257.875 91.023438 257.5 90.148438 C 257.84375 90.148438 258.125 90.148438 258.4375 89.898438 C 258.65625 89.710938 258.875 89.429688 258.875 88.992188 C 258.875 88.335938 258.28125 88.242188 258.0625 88.242188 C 257.5625 88.242188 256.84375 88.585938 256.84375 89.648438 C 256.84375 90.742188 257.8125 91.554688 259.15625 91.554688 C 261.40625 91.554688 263.65625 89.585938 264.25 87.117188 Z M 266.34375 78.773438 "/>
<path fill="none" stroke-width="11.9553" stroke-linecap="butt" stroke-linejoin="miter" stroke="rgb(0%, 0%, 0%)" stroke-opacity="1" stroke-miterlimit="10" d="M 271.249996 886.914049 L 326.95312 903.320299 L 382.617182 921.484361 L 438.320306 941.523423 L 493.984368 963.554673 L 549.687492 987.695298 L 605.390616 1014.101547 L 661.054678 1042.968734 L 716.757802 1074.453109 L 772.421863 1108.828108 L 828.124988 1146.289045 L 883.828112 1187.187482 L 939.531236 1231.718732 L 995.195298 1280.273418 L 1050.898422 1333.164043 L 1106.562484 1390.820292 L 1162.265608 1453.554666 L 1217.968732 1521.835915 L 1273.632794 1596.093726 L 1329.335918 1676.79685 L 1385.039042 1764.414036 " transform="matrix(0.2, 0, 0, -0.2, 0, 356)"/>
<path fill-rule="nonzero" fill="rgb(100%, 100%, 100%)" fill-opacity="1" d="M 4.695312 291.703125 L 33.976562 291.703125 L 33.976562 318.585938 L 4.695312 318.585938 Z M 4.695312 291.703125 "/>
<path fill-rule="nonzero" fill="rgb(0%, 0%, 0%)" fill-opacity="1" d="M 26.875 303.058594 C 26.875 299.527344 24.5625 297.183594 21.3125 297.183594 C 16.59375 297.183594 11.78125 302.121094 11.78125 307.214844 C 11.78125 310.839844 14.21875 313.027344 17.375 313.027344 C 22 313.027344 26.875 308.246094 26.875 303.058594 Z M 17.5 312.464844 C 15.34375 312.464844 13.8125 310.714844 13.8125 307.839844 C 13.8125 306.871094 14.125 303.683594 15.8125 301.121094 C 17.3125 298.871094 19.4375 297.714844 21.15625 297.714844 C 22.96875 297.714844 24.90625 298.933594 24.90625 302.183594 C 24.90625 303.777344 24.34375 307.183594 22.15625 309.839844 C 21.125 311.183594 19.34375 312.464844 17.5 312.464844 Z M 17.5 312.464844 "/>
<path fill-rule="nonzero" fill="rgb(100%, 100%, 100%)" fill-opacity="1" d="M 338.15625 291.703125 L 370.078125 291.703125 L 370.078125 318.585938 L 338.15625 318.585938 Z M 338.15625 291.703125 "/>
<path fill-rule="nonzero" fill="rgb(0%, 0%, 0%)" fill-opacity="1" d="M 354.773438 303.589844 L 352.929688 299.246094 C 352.867188 299.089844 352.804688 298.996094 352.804688 298.964844 C 352.804688 298.839844 353.179688 298.433594 354.117188 298.339844 C 354.335938 298.308594 354.554688 298.308594 354.554688 297.933594 C 354.554688 297.652344 354.273438 297.652344 354.210938 297.652344 C 353.304688 297.652344 352.367188 297.714844 351.460938 297.714844 C 350.929688 297.714844 349.554688 297.652344 349.023438 297.652344 C 348.898438 297.652344 348.617188 297.652344 348.617188 298.089844 C 348.617188 298.339844 348.835938 298.339844 349.117188 298.339844 C 350.429688 298.339844 350.585938 298.558594 350.773438 299.027344 L 353.335938 305.121094 L 348.742188 310.058594 L 348.460938 310.308594 C 347.398438 311.464844 346.367188 311.808594 345.242188 311.871094 C 344.960938 311.902344 344.773438 311.902344 344.773438 312.308594 C 344.773438 312.339844 344.773438 312.558594 345.054688 312.558594 C 345.710938 312.558594 346.429688 312.496094 347.117188 312.496094 C 347.898438 312.496094 348.773438 312.558594 349.554688 312.558594 C 349.679688 312.558594 349.929688 312.558594 349.929688 312.121094 C 349.929688 311.902344 349.710938 311.871094 349.679688 311.871094 C 349.492188 311.871094 348.804688 311.808594 348.804688 311.214844 C 348.804688 310.871094 349.117188 310.496094 349.398438 310.214844 L 351.617188 307.871094 L 353.585938 305.746094 L 355.773438 310.933594 C 355.867188 311.183594 355.898438 311.214844 355.898438 311.246094 C 355.898438 311.433594 355.492188 311.808594 354.617188 311.871094 C 354.398438 311.902344 354.179688 311.933594 354.179688 312.308594 C 354.179688 312.558594 354.429688 312.558594 354.523438 312.558594 C 355.117188 312.558594 356.648438 312.496094 357.273438 312.496094 C 357.804688 312.496094 359.148438 312.558594 359.679688 312.558594 C 359.835938 312.558594 360.117188 312.558594 360.117188 312.152344 C 360.117188 311.871094 359.898438 311.871094 359.710938 311.871094 C 358.242188 311.871094 358.210938 311.808594 357.835938 310.933594 C 356.992188 308.902344 355.523438 305.496094 355.023438 304.183594 C 356.492188 302.652344 358.804688 300.058594 359.492188 299.464844 C 360.117188 298.933594 360.960938 298.402344 362.273438 298.339844 C 362.554688 298.308594 362.742188 298.308594 362.742188 297.902344 C 362.742188 297.871094 362.742188 297.652344 362.460938 297.652344 C 361.804688 297.652344 361.085938 297.714844 360.398438 297.714844 C 359.585938 297.714844 358.773438 297.652344 357.992188 297.652344 C 357.867188 297.652344 357.585938 297.652344 357.585938 298.089844 C 357.585938 298.246094 357.679688 298.308594 357.835938 298.339844 C 358.023438 298.371094 358.710938 298.402344 358.710938 299.027344 C 358.710938 299.308594 358.460938 299.589844 358.304688 299.808594 Z M 354.773438 303.589844 "/>
<path fill-rule="nonzero" fill="rgb(100%, 100%, 100%)" fill-opacity="1" d="M 4.453125 -5.757812 L 33.976562 -5.757812 L 33.976562 21.125 L 4.453125 21.125 Z M 4.453125 -5.757812 "/>
<path fill-rule="nonzero" fill="rgb(0%, 0%, 0%)" fill-opacity="1" d="M 23.511719 2.695312 L 23.792969 2.382812 C 24.449219 1.726562 25.167969 0.976562 26.667969 0.882812 C 26.917969 0.851562 27.105469 0.851562 27.105469 0.476562 C 27.105469 0.289062 26.980469 0.195312 26.824219 0.195312 C 26.261719 0.195312 25.605469 0.257812 25.042969 0.257812 C 24.324219 0.257812 23.542969 0.195312 22.855469 0.195312 C 22.730469 0.195312 22.449219 0.195312 22.449219 0.632812 C 22.449219 0.851562 22.636719 0.882812 22.761719 0.882812 C 22.917969 0.882812 23.542969 0.914062 23.542969 1.382812 C 23.542969 1.757812 23.042969 2.320312 22.949219 2.414062 L 17.886719 8.257812 L 15.511719 1.789062 C 15.355469 1.476562 15.355469 1.414062 15.355469 1.414062 C 15.355469 0.882812 16.449219 0.882812 16.667969 0.882812 C 16.949219 0.882812 17.167969 0.882812 17.167969 0.445312 C 17.167969 0.195312 16.917969 0.195312 16.855469 0.195312 C 16.230469 0.195312 14.699219 0.257812 14.105469 0.257812 C 13.542969 0.257812 12.199219 0.195312 11.667969 0.195312 C 11.542969 0.195312 11.230469 0.195312 11.230469 0.632812 C 11.230469 0.882812 11.449219 0.882812 11.730469 0.882812 C 13.042969 0.882812 13.136719 1.070312 13.324219 1.632812 L 16.011719 8.789062 C 16.042969 8.851562 16.105469 9.101562 16.105469 9.164062 C 16.105469 9.226562 15.230469 12.757812 15.136719 13.132812 C 14.855469 14.351562 14.824219 14.414062 13.074219 14.414062 C 12.667969 14.414062 12.480469 14.414062 12.480469 14.851562 C 12.480469 15.101562 12.761719 15.101562 12.792969 15.101562 C 13.417969 15.101562 14.917969 15.039062 15.542969 15.039062 C 16.136719 15.039062 17.730469 15.101562 18.324219 15.101562 C 18.480469 15.101562 18.761719 15.101562 18.761719 14.664062 C 18.761719 14.414062 18.542969 14.414062 18.136719 14.414062 C 18.105469 14.414062 17.667969 14.414062 17.292969 14.382812 C 16.855469 14.351562 16.730469 14.289062 16.730469 14.039062 C 16.730469 13.882812 16.917969 13.101562 17.011719 12.664062 L 17.792969 9.570312 C 17.886719 9.164062 17.917969 9.101562 18.105469 8.914062 Z M 23.511719 2.695312 "/>
<path fill="none" stroke-width="11.9553" stroke-linecap="butt" stroke-linejoin="miter" stroke="rgb(0%, 0%, 0%)" stroke-opacity="1" stroke-miterlimit="10" d="M 8.007812 321.601558 L 1790.039036 321.601558 " transform="matrix(0.2, 0, 0, -0.2, 0, 356)"/>
<path fill="none" stroke-width="11.9553" stroke-linecap="butt" stroke-linejoin="miter" stroke="rgb(0%, 0%, 0%)" stroke-opacity="1" stroke-miterlimit="10" d="M 169.999997 177.617185 L 169.999997 1761.601536 " transform="matrix(0.2, 0, 0, -0.2, 0, 356)"/>
<path fill-rule="nonzero" fill="rgb(0%, 0%, 0%)" fill-opacity="1" d="M 157.839844 348.300781 C 159.027344 347.894531 161.027344 347.300781 161.027344 345.363281 C 161.027344 343.050781 158.308594 341.988281 156.339844 341.988281 C 155.402344 341.988281 154.433594 342.207031 153.589844 342.707031 C 153.464844 342.769531 153.308594 342.957031 153.152344 342.957031 C 152.839844 342.957031 152.277344 341.988281 151.964844 341.988281 C 151.777344 341.988281 151.746094 342.207031 151.746094 342.300781 L 151.746094 345.863281 C 151.746094 345.988281 151.839844 346.144531 152.027344 346.144531 C 152.339844 346.144531 152.308594 345.519531 152.402344 345.175781 C 152.871094 343.457031 154.433594 342.707031 155.933594 342.613281 L 156.339844 342.613281 C 157.683594 342.613281 159.246094 343.488281 159.246094 345.363281 C 159.246094 347.175781 157.464844 348.113281 155.808594 348.113281 C 155.496094 348.113281 155.183594 348.113281 154.871094 348.113281 L 154.714844 348.113281 C 154.527344 348.113281 154.308594 348.113281 154.308594 348.332031 L 154.308594 348.363281 C 154.339844 348.550781 154.527344 348.582031 154.714844 348.582031 L 156.558594 348.582031 C 158.121094 348.707031 159.558594 349.738281 159.714844 351.363281 L 159.714844 351.582031 C 159.714844 353.425781 157.996094 354.582031 156.246094 354.582031 C 154.339844 354.582031 152.371094 353.957031 152.058594 351.582031 C 152.058594 351.425781 151.996094 351.238281 151.777344 351.238281 C 151.558594 351.269531 151.527344 351.425781 151.527344 351.582031 C 151.527344 354.175781 154.121094 355.207031 156.371094 355.207031 C 158.433594 355.207031 161.308594 354.238281 161.558594 351.769531 L 161.558594 351.644531 C 161.558594 349.675781 159.496094 348.707031 157.839844 348.300781 Z M 157.839844 348.300781 "/>
<path fill-rule="nonzero" fill="rgb(0%, 0%, 0%)" fill-opacity="1" d="M 169.933594 341.988281 C 166.558594 342.394531 163.871094 345.050781 163.871094 348.644531 C 163.871094 351.925781 166.464844 355.175781 170.339844 355.175781 C 173.839844 355.175781 176.808594 352.269531 176.808594 348.644531 C 176.808594 345.457031 174.308594 341.988281 170.371094 341.988281 C 170.246094 341.988281 170.089844 341.988281 169.933594 341.988281 Z M 165.746094 348.863281 L 165.746094 348.519531 C 165.746094 346.019531 166.652344 343.082031 169.808594 342.550781 C 169.996094 342.519531 170.152344 342.519531 170.339844 342.519531 C 173.152344 342.519531 174.902344 345.238281 174.902344 348.269531 C 174.902344 350.675781 174.183594 353.738281 171.214844 354.519531 C 170.933594 354.582031 170.652344 354.613281 170.371094 354.613281 L 170.183594 354.613281 C 167.589844 354.519531 166.183594 352.050781 165.839844 349.644531 Z M 165.746094 348.863281 "/>
<path fill-rule="nonzero" fill="rgb(0%, 0%, 0%)" fill-opacity="1" d="M 179.265625 342.332031 L 179.265625 342.925781 L 179.703125 342.925781 C 180.296875 342.925781 180.921875 343.019531 180.921875 343.894531 L 180.921875 353.363281 C 180.921875 354.207031 180.203125 354.238281 179.546875 354.238281 L 179.265625 354.238281 L 179.265625 354.832031 L 185.046875 354.832031 C 185.453125 354.832031 185.828125 354.863281 186.234375 354.863281 C 188.234375 354.863281 190.578125 353.925781 190.796875 351.519531 L 190.796875 351.332031 C 190.796875 348.800781 187.921875 347.769531 186.015625 347.769531 C 184.765625 347.769531 183.578125 347.894531 182.390625 347.988281 L 182.390625 343.769531 C 182.390625 343.332031 182.453125 342.925781 183.234375 342.925781 L 185.546875 342.925781 C 186.515625 342.925781 187.609375 342.988281 188.328125 343.707031 C 189.015625 344.425781 189.109375 345.644531 189.203125 346.582031 L 189.734375 346.582031 L 189.265625 342.332031 Z M 182.390625 348.613281 C 182.640625 348.613281 182.890625 348.550781 183.140625 348.519531 L 184.515625 348.457031 C 184.796875 348.425781 185.078125 348.394531 185.390625 348.394531 C 186.953125 348.394531 188.921875 349.394531 188.921875 351.238281 C 188.921875 352.988281 187.578125 354.269531 185.578125 354.269531 C 185.296875 354.269531 184.984375 354.238281 184.734375 354.238281 L 183.203125 354.238281 C 182.734375 354.238281 182.484375 354.207031 182.390625 353.582031 Z M 182.390625 348.613281 "/>
<path fill-rule="nonzero" fill="rgb(0%, 0%, 0%)" fill-opacity="1" d="M 193.148438 342.332031 L 193.148438 342.925781 L 193.617188 342.925781 C 194.210938 342.925781 194.804688 343.019531 194.804688 343.894531 L 194.804688 353.363281 C 194.804688 354.207031 194.117188 354.238281 193.429688 354.238281 L 193.148438 354.238281 L 193.148438 354.832031 L 198.054688 354.832031 L 198.054688 354.238281 L 197.617188 354.238281 C 196.992188 354.238281 196.398438 354.175781 196.398438 353.300781 L 196.398438 349.113281 L 200.117188 349.113281 C 201.898438 348.988281 204.179688 347.800781 204.179688 345.769531 C 204.179688 343.550781 201.835938 342.488281 199.929688 342.332031 Z M 196.367188 348.582031 L 196.367188 343.582031 C 196.460938 342.988281 196.710938 342.925781 197.117188 342.925781 L 198.554688 342.925781 C 200.179688 342.925781 202.304688 342.988281 202.304688 345.769531 C 202.304688 346.425781 202.210938 347.113281 201.804688 347.613281 C 201.148438 348.394531 200.054688 348.582031 199.085938 348.582031 Z M 196.367188 348.582031 "/>
<path fill-rule="nonzero" fill="rgb(0%, 0%, 0%)" fill-opacity="1" d="M 208.875 352.550781 C 208.375 352.644531 207.875 353.082031 207.875 353.675781 C 207.875 354.300781 208.40625 354.832031 209.03125 354.832031 C 209.65625 354.832031 210.21875 354.363281 210.21875 353.707031 C 210.21875 353.082031 209.6875 352.519531 209.0625 352.519531 C 209 352.519531 208.9375 352.550781 208.875 352.550781 Z M 208.875 352.550781 "/>
<path fill-rule="nonzero" fill="rgb(0%, 0%, 0%)" fill-opacity="1" d="M 226.433594 346.769531 C 224.902344 347.707031 222.746094 348.613281 222.746094 351.238281 C 222.746094 353.738281 225.183594 355.332031 227.808594 355.332031 C 230.121094 355.332031 232.902344 353.894531 232.902344 350.957031 C 232.902344 349.957031 232.589844 349.019531 231.964844 348.269531 C 231.214844 347.363281 230.121094 346.863281 229.152344 346.207031 C 230.621094 345.550781 232.214844 344.300781 232.214844 342.457031 C 232.214844 340.175781 230.027344 339.082031 228.152344 338.957031 L 227.871094 338.957031 C 225.714844 338.957031 223.433594 340.394531 223.433594 342.863281 C 223.433594 344.613281 224.714844 345.925781 226.433594 346.769531 Z M 223.839844 351.488281 C 223.839844 351.394531 223.839844 351.300781 223.839844 351.207031 C 223.839844 349.488281 225.183594 348.113281 226.589844 347.300781 C 226.683594 347.269531 226.808594 347.175781 226.933594 347.175781 C 227.121094 347.175781 227.277344 347.300781 227.402344 347.394531 C 228.152344 347.894531 228.933594 348.394531 229.714844 348.863281 C 230.683594 349.488281 231.808594 350.238281 231.808594 351.457031 C 231.808594 353.582031 229.746094 354.707031 227.871094 354.707031 C 226.027344 354.707031 224.152344 353.582031 223.839844 351.488281 Z M 224.433594 342.207031 C 224.433594 340.394531 226.183594 339.519531 227.777344 339.519531 C 229.402344 339.519531 230.964844 340.457031 231.246094 342.269531 L 231.246094 342.488281 C 231.246094 343.925781 230.058594 345.113281 228.964844 345.707031 C 228.871094 345.769531 228.777344 345.863281 228.652344 345.863281 C 228.433594 345.863281 227.808594 345.363281 227.433594 345.144531 C 226.246094 344.332031 224.652344 343.707031 224.433594 342.207031 Z M 224.433594 342.207031 "/>
<path fill-rule="nonzero" fill="rgb(0%, 0%, 0%)" fill-opacity="1" d="M 237.671875 352.550781 C 237.171875 352.644531 236.671875 353.082031 236.671875 353.675781 C 236.671875 354.300781 237.203125 354.832031 237.828125 354.832031 C 238.453125 354.832031 239.015625 354.363281 239.015625 353.707031 C 239.015625 353.082031 238.484375 352.519531 237.859375 352.519531 C 237.796875 352.519531 237.734375 352.550781 237.671875 352.550781 Z M 237.671875 352.550781 "/>
</svg>
