<?xml version="1.0" encoding="UTF-8"?>
<svg xmlns="http://www.w3.org/2000/svg" xmlns:xlink="http://www.w3.org/1999/xlink" width="318" height="356" viewBox="0 0 318 356">
<path fill="none" stroke-width="11.9553" stroke-linecap="butt" stroke-linejoin="miter" stroke="rgb(0%, 0%, 0%)" stroke-opacity="1" stroke-miterlimit="10" d="M 87.265624 1674.414038 L 115.078123 1595.195289 L 142.890623 1519.999977 L 170.742185 1448.867166 L 198.554685 1381.835917 L 226.367184 1318.828105 L 254.179684 1259.882794 L 281.992183 1205.039045 L 309.804683 1154.218733 L 337.656245 1107.460921 L 365.468745 1064.804672 L 393.281244 1026.210922 L 421.093744 991.64061 L 448.906243 961.171861 L 476.718743 934.765611 L 504.531242 912.421861 L 532.382805 894.101549 L 560.195304 879.882799 L 588.007804 869.72655 L 615.820303 863.6328 L 643.632803 861.60155 L 671.484365 863.6328 L 699.296865 869.72655 L 727.109364 879.882799 L 754.921864 894.101549 L 782.734363 912.421861 L 810.546863 934.765611 L 838.359363 961.171861 L 866.171862 991.64061 L 894.023424 1026.210922 L 921.835924 1064.804672 L 949.648423 1107.460921 L 977.460923 1154.218733 L 1005.273423 1205.039045 L 1033.085922 1259.882794 L 1060.937484 1318.828105 L 1088.710921 1381.835917 L 1116.562483 1448.867166 L 1144.374983 1519.999977 L 1172.187483 1595.195289 L 1200.039045 1674.414038 " transform="matrix(0.2, 0, 0, -0.2, 0, 356)"/>
<path fill-rule="nonzero" fill="rgb(0%, 0%, 0%)" fill-opacity="1" d="M 77.25 299.839844 C 77.25 299.339844 77.25 299.277344 76.75 299.277344 C 75.40625 300.683594 73.46875 300.683594 72.78125 300.683594 L 72.78125 301.339844 C 73.21875 301.339844 74.5 301.339844 75.65625 300.777344 L 75.65625 312.089844 C 75.65625 312.871094 75.5625 313.121094 73.625 313.121094 L 72.90625 313.121094 L 72.90625 313.808594 C 73.6875 313.746094 75.5625 313.746094 76.4375 313.746094 C 77.3125 313.746094 79.21875 313.746094 79.96875 313.808594 L 79.96875 313.121094 L 79.28125 313.121094 C 77.3125 313.121094 77.25 312.902344 77.25 312.089844 Z M 77.25 299.839844 "/>
<path fill-rule="nonzero" fill="rgb(0%, 0%, 0%)" fill-opacity="1" d="M 125.992188 312.121094 L 128.304688 309.871094 C 131.710938 306.871094 132.992188 305.683594 132.992188 303.527344 C 132.992188 301.027344 131.054688 299.277344 128.367188 299.277344 C 125.929688 299.277344 124.304688 301.277344 124.304688 303.214844 C 124.304688 304.464844 125.398438 304.464844 125.460938 304.464844 C 125.835938 304.464844 126.585938 304.183594 126.585938 303.308594 C 126.585938 302.714844 126.210938 302.152344 125.429688 302.152344 C 125.273438 302.152344 125.210938 302.152344 125.148438 302.183594 C 125.648438 300.777344 126.835938 299.964844 128.085938 299.964844 C 130.085938 299.964844 131.023438 301.714844 131.023438 303.527344 C 131.023438 305.246094 129.929688 306.996094 128.742188 308.339844 L 124.554688 312.996094 C 124.304688 313.246094 124.304688 313.277344 124.304688 313.808594 L 132.398438 313.808594 L 132.992188 310.027344 L 132.460938 310.027344 C 132.335938 310.652344 132.210938 311.621094 131.992188 311.964844 C 131.835938 312.121094 130.398438 312.121094 129.898438 312.121094 Z M 125.992188 312.121094 "/>
<path fill-rule="nonzero" fill="rgb(0%, 0%, 0%)" fill-opacity="1" d="M 181.886719 306.121094 C 183.699219 305.527344 184.949219 304.027344 184.949219 302.277344 C 184.949219 300.496094 183.042969 299.277344 180.949219 299.277344 C 178.730469 299.277344 177.074219 300.589844 177.074219 302.246094 C 177.074219 302.964844 177.574219 303.371094 178.199219 303.371094 C 178.855469 303.371094 179.292969 302.902344 179.292969 302.277344 C 179.292969 301.183594 178.292969 301.183594 177.949219 301.183594 C 178.636719 300.121094 180.074219 299.839844 180.855469 299.839844 C 181.761719 299.839844 182.949219 300.308594 182.949219 302.277344 C 182.949219 302.527344 182.917969 303.808594 182.324219 304.746094 C 181.667969 305.808594 180.949219 305.871094 180.386719 305.902344 C 180.230469 305.902344 179.699219 305.964844 179.542969 305.964844 C 179.355469 305.964844 179.230469 305.996094 179.230469 306.214844 C 179.230469 306.464844 179.355469 306.464844 179.730469 306.464844 L 180.699219 306.464844 C 182.480469 306.464844 183.292969 307.933594 183.292969 310.089844 C 183.292969 313.058594 181.792969 313.683594 180.824219 313.683594 C 179.886719 313.683594 178.261719 313.308594 177.480469 312.027344 C 178.261719 312.121094 178.917969 311.652344 178.917969 310.808594 C 178.917969 310.027344 178.355469 309.589844 177.699219 309.589844 C 177.199219 309.589844 176.480469 309.902344 176.480469 310.871094 C 176.480469 312.839844 178.511719 314.277344 180.886719 314.277344 C 183.542969 314.277344 185.542969 312.308594 185.542969 310.089844 C 185.542969 308.277344 184.167969 306.589844 181.886719 306.121094 Z M 181.886719 306.121094 "/>
<path fill-rule="nonzero" fill="rgb(0%, 0%, 0%)" fill-opacity="1" d="M 234.34375 310.214844 L 234.34375 312.121094 C 234.34375 312.902344 234.3125 313.121094 232.6875 313.121094 L 232.25 313.121094 L 232.25 313.808594 C 233.125 313.746094 234.25 313.746094 235.1875 313.746094 C 236.09375 313.746094 237.25 313.746094 238.15625 313.808594 L 238.15625 313.121094 L 237.6875 313.121094 C 236.0625 313.121094 236.03125 312.902344 236.03125 312.121094 L 236.03125 310.214844 L 238.21875 310.214844 L 238.21875 309.527344 L 236.03125 309.527344 L 236.03125 299.621094 C 236.03125 299.183594 236.03125 299.027344 235.6875 299.027344 C 235.5 299.027344 235.40625 299.027344 235.25 299.308594 L 228.5625 309.527344 L 228.5625 310.214844 Z M 234.46875 309.527344 L 229.15625 309.527344 L 234.46875 301.402344 Z M 234.46875 309.527344 "/>
<path fill="none" stroke-width="11.9553" stroke-linecap="butt" stroke-linejoin="miter" stroke="rgb(0%, 0%, 0%)" stroke-opacity="1" stroke-miterlimit="10" d="M 119.999998 501.601555 L 119.999998 1761.601536 " transform="matrix(0.2, 0, 0, -0.2, 0, 356)"/>
<path fill-rule="nonzero" fill="rgb(0%, 0%, 0%)" fill-opacity="1" d="M 17.976562 254.984375 L 29.976562 254.984375 L 29.976562 256.1875 L 17.976562 256.1875 Z M 17.976562 254.984375 "/>
<path fill-rule="nonzero" fill="rgb(0%, 0%, 0%)" fill-opacity="1" d="M 17.976562 218.984375 L 29.976562 218.984375 L 29.976562 220.1875 L 17.976562 220.1875 Z M 17.976562 218.984375 "/>
<path fill-rule="nonzero" fill="rgb(0%, 0%, 0%)" fill-opacity="1" d="M 17.976562 182.984375 L 29.976562 182.984375 L 29.976562 184.1875 L 17.976562 184.1875 Z M 17.976562 182.984375 "/>
<path fill-rule="nonzero" fill="rgb(0%, 0%, 0%)" fill-opacity="1" d="M 17.976562 146.984375 L 29.976562 146.984375 L 29.976562 148.1875 L 17.976562 148.1875 Z M 17.976562 146.984375 "/>
<path fill-rule="nonzero" fill="rgb(0%, 0%, 0%)" fill-opacity="1" d="M 17.976562 110.984375 L 29.976562 110.984375 L 29.976562 112.1875 L 17.976562 112.1875 Z M 17.976562 110.984375 "/>
<path fill-rule="nonzero" fill="rgb(0%, 0%, 0%)" fill-opacity="1" d="M 17.976562 74.984375 L 29.976562 74.984375 L 29.976562 76.1875 L 17.976562 76.1875 Z M 17.976562 74.984375 "/>
<path fill-rule="nonzero" fill="rgb(0%, 0%, 0%)" fill-opacity="1" d="M 17.976562 38.976562 L 29.976562 38.976562 L 29.976562 40.179688 L 17.976562 40.179688 Z M 17.976562 38.976562 "/>
<path fill-rule="nonzero" fill="rgb(0%, 0%, 0%)" fill-opacity="1" d="M 17.976562 2.976562 L 29.976562 2.976562 L 29.976562 4.179688 L 17.976562 4.179688 Z M 17.976562 2.976562 "/>
<path fill-rule="nonzero" fill="rgb(0%, 0%, 0%)" fill-opacity="1" d="M 11.636719 248.671875 C 11.636719 248.171875 11.636719 248.109375 11.136719 248.109375 C 9.792969 249.515625 7.855469 249.515625 7.167969 249.515625 L 7.167969 250.171875 C 7.605469 250.171875 8.886719 250.171875 10.042969 249.609375 L 10.042969 260.921875 C 10.042969 261.703125 9.949219 261.953125 8.011719 261.953125 L 7.292969 261.953125 L 7.292969 262.640625 C 8.074219 262.578125 9.949219 262.578125 10.824219 262.578125 C 11.699219 262.578125 13.605469 262.578125 14.355469 262.640625 L 14.355469 261.953125 L 13.667969 261.953125 C 11.699219 261.953125 11.636719 261.734375 11.636719 260.921875 Z M 11.636719 248.671875 "/>
<path fill-rule="nonzero" fill="rgb(0%, 0%, 0%)" fill-opacity="1" d="M 8.011719 224.953125 L 10.324219 222.703125 C 13.730469 219.703125 15.011719 218.515625 15.011719 216.359375 C 15.011719 213.859375 13.074219 212.109375 10.386719 212.109375 C 7.949219 212.109375 6.324219 214.109375 6.324219 216.046875 C 6.324219 217.296875 7.417969 217.296875 7.480469 217.296875 C 7.855469 217.296875 8.605469 217.015625 8.605469 216.140625 C 8.605469 215.546875 8.230469 214.984375 7.449219 214.984375 C 7.292969 214.984375 7.230469 214.984375 7.167969 215.015625 C 7.667969 213.609375 8.855469 212.796875 10.105469 212.796875 C 12.105469 212.796875 13.042969 214.546875 13.042969 216.359375 C 13.042969 218.078125 11.949219 219.828125 10.761719 221.171875 L 6.574219 225.828125 C 6.324219 226.078125 6.324219 226.109375 6.324219 226.640625 L 14.417969 226.640625 L 15.011719 222.859375 L 14.480469 222.859375 C 14.355469 223.484375 14.230469 224.453125 14.011719 224.796875 C 13.855469 224.953125 12.417969 224.953125 11.917969 224.953125 Z M 8.011719 224.953125 "/>
<path fill-rule="nonzero" fill="rgb(0%, 0%, 0%)" fill-opacity="1" d="M 11.542969 182.953125 C 13.355469 182.359375 14.605469 180.859375 14.605469 179.109375 C 14.605469 177.328125 12.699219 176.109375 10.605469 176.109375 C 8.386719 176.109375 6.730469 177.421875 6.730469 179.078125 C 6.730469 179.796875 7.230469 180.203125 7.855469 180.203125 C 8.511719 180.203125 8.949219 179.734375 8.949219 179.109375 C 8.949219 178.015625 7.949219 178.015625 7.605469 178.015625 C 8.292969 176.953125 9.730469 176.671875 10.511719 176.671875 C 11.417969 176.671875 12.605469 177.140625 12.605469 179.109375 C 12.605469 179.359375 12.574219 180.640625 11.980469 181.578125 C 11.324219 182.640625 10.605469 182.703125 10.042969 182.734375 C 9.886719 182.734375 9.355469 182.796875 9.199219 182.796875 C 9.011719 182.796875 8.886719 182.828125 8.886719 183.046875 C 8.886719 183.296875 9.011719 183.296875 9.386719 183.296875 L 10.355469 183.296875 C 12.136719 183.296875 12.949219 184.765625 12.949219 186.921875 C 12.949219 189.890625 11.449219 190.515625 10.480469 190.515625 C 9.542969 190.515625 7.917969 190.140625 7.136719 188.859375 C 7.917969 188.953125 8.574219 188.484375 8.574219 187.640625 C 8.574219 186.859375 8.011719 186.421875 7.355469 186.421875 C 6.855469 186.421875 6.136719 186.734375 6.136719 187.703125 C 6.136719 189.671875 8.167969 191.109375 10.542969 191.109375 C 13.199219 191.109375 15.199219 189.140625 15.199219 186.921875 C 15.199219 185.109375 13.824219 183.421875 11.542969 182.953125 Z M 11.542969 182.953125 "/>
<path fill-rule="nonzero" fill="rgb(0%, 0%, 0%)" fill-opacity="1" d="M 11.636719 151.046875 L 11.636719 152.953125 C 11.636719 153.734375 11.605469 153.953125 9.980469 153.953125 L 9.542969 153.953125 L 9.542969 154.640625 C 10.417969 154.578125 11.542969 154.578125 12.480469 154.578125 C 13.386719 154.578125 14.542969 154.578125 15.449219 154.640625 L 15.449219 153.953125 L 14.980469 153.953125 C 13.355469 153.953125 13.324219 153.734375 13.324219 152.953125 L 13.324219 151.046875 L 15.511719 151.046875 L 15.511719 150.359375 L 13.324219 150.359375 L 13.324219 140.453125 C 13.324219 140.015625 13.324219 139.859375 12.980469 139.859375 C 12.792969 139.859375 12.699219 139.859375 12.542969 140.140625 L 5.855469 150.359375 L 5.855469 151.046875 Z M 11.761719 150.359375 L 6.449219 150.359375 L 11.761719 142.234375 Z M 11.761719 150.359375 "/>
<path fill-rule="nonzero" fill="rgb(0%, 0%, 0%)" fill-opacity="1" d="M 15.011719 114.265625 C 15.011719 111.671875 13.230469 109.484375 10.886719 109.484375 C 9.824219 109.484375 8.886719 109.828125 8.105469 110.578125 L 8.105469 106.328125 C 8.542969 106.484375 9.261719 106.609375 9.949219 106.609375 C 12.636719 106.609375 14.167969 104.640625 14.167969 104.359375 C 14.167969 104.234375 14.105469 104.109375 13.949219 104.109375 C 13.949219 104.109375 13.886719 104.109375 13.792969 104.171875 C 13.355469 104.390625 12.261719 104.796875 10.824219 104.796875 C 9.949219 104.796875 8.949219 104.671875 7.917969 104.203125 C 7.730469 104.140625 7.699219 104.140625 7.636719 104.140625 C 7.417969 104.140625 7.417969 104.296875 7.417969 104.671875 L 7.417969 111.109375 C 7.417969 111.515625 7.417969 111.671875 7.730469 111.671875 C 7.886719 111.671875 7.949219 111.609375 8.011719 111.484375 C 8.261719 111.140625 9.074219 109.953125 10.824219 109.953125 C 11.980469 109.953125 12.511719 110.953125 12.699219 111.359375 C 13.042969 112.171875 13.074219 113.015625 13.074219 114.109375 C 13.074219 114.859375 13.074219 116.171875 12.574219 117.078125 C 12.042969 117.953125 11.230469 118.515625 10.230469 118.515625 C 8.636719 118.515625 7.386719 117.359375 7.011719 116.078125 C 7.074219 116.078125 7.136719 116.109375 7.386719 116.109375 C 8.105469 116.109375 8.480469 115.578125 8.480469 115.046875 C 8.480469 114.515625 8.105469 113.984375 7.386719 113.984375 C 7.074219 113.984375 6.324219 114.140625 6.324219 115.140625 C 6.324219 117.015625 7.824219 119.109375 10.261719 119.109375 C 12.792969 119.109375 15.011719 117.015625 15.011719 114.265625 Z M 15.011719 114.265625 "/>
<path fill-rule="nonzero" fill="rgb(0%, 0%, 0%)" fill-opacity="1" d="M 8.105469 75.484375 L 8.105469 74.953125 C 8.105469 69.453125 10.824219 68.671875 11.917969 68.671875 C 12.449219 68.671875 13.355469 68.796875 13.855469 69.546875 C 13.511719 69.546875 12.636719 69.546875 12.636719 70.515625 C 12.636719 71.203125 13.167969 71.515625 13.636719 71.515625 C 14.011719 71.515625 14.667969 71.328125 14.667969 70.484375 C 14.667969 69.171875 13.699219 68.109375 11.886719 68.109375 C 9.105469 68.109375 6.136719 70.921875 6.136719 75.734375 C 6.136719 81.578125 8.667969 83.109375 10.699219 83.109375 C 13.136719 83.109375 15.199219 81.078125 15.199219 78.203125 C 15.199219 75.421875 13.261719 73.328125 10.824219 73.328125 C 9.355469 73.328125 8.542969 74.453125 8.105469 75.484375 Z M 10.699219 82.515625 C 9.324219 82.515625 8.667969 81.203125 8.542969 80.859375 C 8.167969 79.859375 8.167969 78.109375 8.167969 77.703125 C 8.167969 76.015625 8.855469 73.828125 10.824219 73.828125 C 11.167969 73.828125 12.167969 73.828125 12.855469 75.171875 C 13.230469 75.984375 13.230469 77.109375 13.230469 78.171875 C 13.230469 79.203125 13.230469 80.296875 12.855469 81.078125 C 12.199219 82.390625 11.199219 82.515625 10.699219 82.515625 Z M 10.699219 82.515625 "/>
<path fill-rule="nonzero" fill="rgb(0%, 0%, 0%)" fill-opacity="1" d="M 15.605469 33.359375 C 15.824219 33.109375 15.824219 33.046875 15.824219 32.578125 L 10.511719 32.578125 C 7.855469 32.578125 7.792969 32.296875 7.730469 31.890625 L 7.167969 31.890625 L 6.449219 36.390625 L 7.011719 36.390625 C 7.074219 36.046875 7.261719 34.671875 7.542969 34.390625 C 7.699219 34.265625 9.386719 34.265625 9.667969 34.265625 L 14.199219 34.265625 C 13.949219 34.609375 12.230469 36.984375 11.761719 37.734375 C 9.792969 40.671875 9.074219 43.703125 9.074219 45.921875 C 9.074219 46.140625 9.074219 47.109375 10.074219 47.109375 C 11.074219 47.109375 11.074219 46.140625 11.074219 45.921875 L 11.074219 44.796875 C 11.074219 43.609375 11.136719 42.421875 11.324219 41.234375 C 11.417969 40.734375 11.699219 38.859375 12.667969 37.515625 Z M 15.605469 33.359375 "/>
<path fill="none" stroke-width="7.9701" stroke-linecap="butt" stroke-linejoin="miter" stroke="rgb(0%, 0%, 0%)" stroke-opacity="1" stroke-miterlimit="10" d="M 381.796869 321.601558 L 381.796869 347.304682 " transform="matrix(0.2, 0, 0, -0.2, 0, 356)"/>
<path fill="none" stroke-width="7.9701" stroke-linecap="butt" stroke-linejoin="miter" stroke="rgb(0%, 0%, 0%)" stroke-opacity="1" stroke-miterlimit="10" d="M 381.796869 398.749994 L 381.796869 424.453119 " transform="matrix(0.2, 0, 0, -0.2, 0, 356)"/>
<path fill="none" stroke-width="7.9701" stroke-linecap="butt" stroke-linejoin="miter" stroke="rgb(0%, 0%, 0%)" stroke-opacity="1" stroke-miterlimit="10" d="M 381.796869 424.453119 L 381.796869 450.195306 " transform="matrix(0.2, 0, 0, -0.2, 0, 356)"/>
<path fill="none" stroke-width="7.9701" stroke-linecap="butt" stroke-linejoin="miter" stroke="rgb(0%, 0%, 0%)" stroke-opacity="1" stroke-miterlimit="10" d="M 381.796869 501.601555 L 381.796869 527.30468 " transform="matrix(0.2, 0, 0, -0.2, 0, 356)"/>
<path fill="none" stroke-width="7.9701" stroke-linecap="butt" stroke-linejoin="miter" stroke="rgb(0%, 0%, 0%)" stroke-opacity="1" stroke-miterlimit="10" d="M 381.796869 527.30468 L 381.796869 553.046867 " transform="matrix(0.2, 0, 0, -0.2, 0, 356)"/>
<path fill="none" stroke-width="7.9701" stroke-linecap="butt" stroke-linejoin="miter" stroke="rgb(0%, 0%, 0%)" stroke-opacity="1" stroke-miterlimit="10" d="M 381.796869 604.453116 L 381.796869 630.195303 " transform="matrix(0.2, 0, 0, -0.2, 0, 356)"/>
<path fill="none" stroke-width="7.9701" stroke-linecap="butt" stroke-linejoin="miter" stroke="rgb(0%, 0%, 0%)" stroke-opacity="1" stroke-miterlimit="10" d="M 381.796869 630.195303 L 381.796869 655.898428 " transform="matrix(0.2, 0, 0, -0.2, 0, 356)"/>
<path fill="none" stroke-width="7.9701" stroke-linecap="butt" stroke-linejoin="miter" stroke="rgb(0%, 0%, 0%)" stroke-opacity="1" stroke-miterlimit="10" d="M 381.796869 707.304677 L 381.796869 733.046864 " transform="matrix(0.2, 0, 0, -0.2, 0, 356)"/>
<path fill="none" stroke-width="7.9701" stroke-linecap="butt" stroke-linejoin="miter" stroke="rgb(0%, 0%, 0%)" stroke-opacity="1" stroke-miterlimit="10" d="M 381.796869 733.046864 L 381.796869 758.749989 " transform="matrix(0.2, 0, 0, -0.2, 0, 356)"/>
<path fill="none" stroke-width="7.9701" stroke-linecap="butt" stroke-linejoin="miter" stroke="rgb(0%, 0%, 0%)" stroke-opacity="1" stroke-miterlimit="10" d="M 381.796869 810.1953 L 381.796869 835.898425 " transform="matrix(0.2, 0, 0, -0.2, 0, 356)"/>
<path fill="none" stroke-width="7.9701" stroke-linecap="butt" stroke-linejoin="miter" stroke="rgb(0%, 0%, 0%)" stroke-opacity="1" stroke-miterlimit="10" d="M 381.796869 835.898425 L 381.796869 861.60155 " transform="matrix(0.2, 0, 0, -0.2, 0, 356)"/>
<path fill="none" stroke-width="7.9701" stroke-linecap="butt" stroke-linejoin="miter" stroke="rgb(0%, 0%, 0%)" stroke-opacity="1" stroke-miterlimit="10" d="M 381.796869 913.046861 L 381.796869 938.749986 " transform="matrix(0.2, 0, 0, -0.2, 0, 356)"/>
<path fill="none" stroke-width="7.9701" stroke-linecap="butt" stroke-linejoin="miter" stroke="rgb(0%, 0%, 0%)" stroke-opacity="1" stroke-miterlimit="10" d="M 381.796869 938.749986 L 381.796869 964.453111 " transform="matrix(0.2, 0, 0, -0.2, 0, 356)"/>
<path fill="none" stroke-width="7.9701" stroke-linecap="butt" stroke-linejoin="miter" stroke="rgb(0%, 0%, 0%)" stroke-opacity="1" stroke-miterlimit="10" d="M 381.796869 1015.898422 L 381.796869 1041.601547 " transform="matrix(0.2, 0, 0, -0.2, 0, 356)"/>
<path fill="none" stroke-width="7.9701" stroke-linecap="butt" stroke-linejoin="miter" stroke="rgb(0%, 0%, 0%)" stroke-opacity="1" stroke-miterlimit="10" d="M 643.632803 321.601558 L 643.632803 348.593745 " transform="matrix(0.2, 0, 0, -0.2, 0, 356)"/>
<path fill="none" stroke-width="7.9701" stroke-linecap="butt" stroke-linejoin="miter" stroke="rgb(0%, 0%, 0%)" stroke-opacity="1" stroke-miterlimit="10" d="M 643.632803 402.617182 L 643.632803 429.609369 " transform="matrix(0.2, 0, 0, -0.2, 0, 356)"/>
<path fill="none" stroke-width="7.9701" stroke-linecap="butt" stroke-linejoin="miter" stroke="rgb(0%, 0%, 0%)" stroke-opacity="1" stroke-miterlimit="10" d="M 643.632803 429.609369 L 643.632803 456.601556 " transform="matrix(0.2, 0, 0, -0.2, 0, 356)"/>
<path fill="none" stroke-width="7.9701" stroke-linecap="butt" stroke-linejoin="miter" stroke="rgb(0%, 0%, 0%)" stroke-opacity="1" stroke-miterlimit="10" d="M 643.632803 510.58593 L 643.632803 537.617179 " transform="matrix(0.2, 0, 0, -0.2, 0, 356)"/>
<path fill="none" stroke-width="7.9701" stroke-linecap="butt" stroke-linejoin="miter" stroke="rgb(0%, 0%, 0%)" stroke-opacity="1" stroke-miterlimit="10" d="M 643.632803 537.617179 L 643.632803 564.609367 " transform="matrix(0.2, 0, 0, -0.2, 0, 356)"/>
<path fill="none" stroke-width="7.9701" stroke-linecap="butt" stroke-linejoin="miter" stroke="rgb(0%, 0%, 0%)" stroke-opacity="1" stroke-miterlimit="10" d="M 643.632803 618.593741 L 643.632803 645.585928 " transform="matrix(0.2, 0, 0, -0.2, 0, 356)"/>
<path fill="none" stroke-width="7.9701" stroke-linecap="butt" stroke-linejoin="miter" stroke="rgb(0%, 0%, 0%)" stroke-opacity="1" stroke-miterlimit="10" d="M 643.632803 645.585928 L 643.632803 672.617177 " transform="matrix(0.2, 0, 0, -0.2, 0, 356)"/>
<path fill="none" stroke-width="7.9701" stroke-linecap="butt" stroke-linejoin="miter" stroke="rgb(0%, 0%, 0%)" stroke-opacity="1" stroke-miterlimit="10" d="M 643.632803 726.601552 L 643.632803 753.593739 " transform="matrix(0.2, 0, 0, -0.2, 0, 356)"/>
<path fill="none" stroke-width="7.9701" stroke-linecap="butt" stroke-linejoin="miter" stroke="rgb(0%, 0%, 0%)" stroke-opacity="1" stroke-miterlimit="10" d="M 643.632803 753.593739 L 643.632803 780.585926 " transform="matrix(0.2, 0, 0, -0.2, 0, 356)"/>
<path fill="none" stroke-width="7.9701" stroke-linecap="butt" stroke-linejoin="miter" stroke="rgb(0%, 0%, 0%)" stroke-opacity="1" stroke-miterlimit="10" d="M 643.632803 834.609363 L 643.632803 861.60155 " transform="matrix(0.2, 0, 0, -0.2, 0, 356)"/>
<path fill="none" stroke-width="7.9701" stroke-linecap="butt" stroke-linejoin="miter" stroke="rgb(0%, 0%, 0%)" stroke-opacity="1" stroke-miterlimit="10" d="M 643.632803 861.60155 L 617.460928 861.60155 " transform="matrix(0.2, 0, 0, -0.2, 0, 356)"/>
<path fill="none" stroke-width="7.9701" stroke-linecap="butt" stroke-linejoin="miter" stroke="rgb(0%, 0%, 0%)" stroke-opacity="1" stroke-miterlimit="10" d="M 565.078117 861.60155 L 538.906242 861.60155 " transform="matrix(0.2, 0, 0, -0.2, 0, 356)"/>
<path fill="none" stroke-width="7.9701" stroke-linecap="butt" stroke-linejoin="miter" stroke="rgb(0%, 0%, 0%)" stroke-opacity="1" stroke-miterlimit="10" d="M 538.906242 861.60155 L 512.734367 861.60155 " transform="matrix(0.2, 0, 0, -0.2, 0, 356)"/>
<path fill="none" stroke-width="7.9701" stroke-linecap="butt" stroke-linejoin="miter" stroke="rgb(0%, 0%, 0%)" stroke-opacity="1" stroke-miterlimit="10" d="M 460.351556 861.60155 L 434.179681 861.60155 " transform="matrix(0.2, 0, 0, -0.2, 0, 356)"/>
<path fill="none" stroke-width="7.9701" stroke-linecap="butt" stroke-linejoin="miter" stroke="rgb(0%, 0%, 0%)" stroke-opacity="1" stroke-miterlimit="10" d="M 434.179681 861.60155 L 408.007806 861.60155 " transform="matrix(0.2, 0, 0, -0.2, 0, 356)"/>
<path fill="none" stroke-width="7.9701" stroke-linecap="butt" stroke-linejoin="miter" stroke="rgb(0%, 0%, 0%)" stroke-opacity="1" stroke-miterlimit="10" d="M 355.624995 861.60155 L 329.45312 861.60155 " transform="matrix(0.2, 0, 0, -0.2, 0, 356)"/>
<path fill="none" stroke-width="7.9701" stroke-linecap="butt" stroke-linejoin="miter" stroke="rgb(0%, 0%, 0%)" stroke-opacity="1" stroke-miterlimit="10" d="M 329.45312 861.60155 L 303.281245 861.60155 " transform="matrix(0.2, 0, 0, -0.2, 0, 356)"/>
<path fill="none" stroke-width="7.9701" stroke-linecap="butt" stroke-linejoin="miter" stroke="rgb(0%, 0%, 0%)" stroke-opacity="1" stroke-miterlimit="10" d="M 250.898434 861.60155 L 224.726559 861.60155 " transform="matrix(0.2, 0, 0, -0.2, 0, 356)"/>
<path fill="none" stroke-width="7.9701" stroke-linecap="butt" stroke-linejoin="miter" stroke="rgb(0%, 0%, 0%)" stroke-opacity="1" stroke-miterlimit="10" d="M 224.726559 861.60155 L 198.554685 861.60155 " transform="matrix(0.2, 0, 0, -0.2, 0, 356)"/>
<path fill="none" stroke-width="7.9701" stroke-linecap="butt" stroke-linejoin="miter" stroke="rgb(0%, 0%, 0%)" stroke-opacity="1" stroke-miterlimit="10" d="M 146.171873 861.60155 L 119.999998 861.60155 " transform="matrix(0.2, 0, 0, -0.2, 0, 356)"/>
<path fill="none" stroke-width="7.9701" stroke-linecap="butt" stroke-linejoin="miter" stroke="rgb(0%, 0%, 0%)" stroke-opacity="1" stroke-miterlimit="10" d="M 905.468737 321.601558 L 905.468737 347.304682 " transform="matrix(0.2, 0, 0, -0.2, 0, 356)"/>
<path fill="none" stroke-width="7.9701" stroke-linecap="butt" stroke-linejoin="miter" stroke="rgb(0%, 0%, 0%)" stroke-opacity="1" stroke-miterlimit="10" d="M 905.468737 398.749994 L 905.468737 424.453119 " transform="matrix(0.2, 0, 0, -0.2, 0, 356)"/>
<path fill="none" stroke-width="7.9701" stroke-linecap="butt" stroke-linejoin="miter" stroke="rgb(0%, 0%, 0%)" stroke-opacity="1" stroke-miterlimit="10" d="M 905.468737 424.453119 L 905.468737 450.195306 " transform="matrix(0.2, 0, 0, -0.2, 0, 356)"/>
<path fill="none" stroke-width="7.9701" stroke-linecap="butt" stroke-linejoin="miter" stroke="rgb(0%, 0%, 0%)" stroke-opacity="1" stroke-miterlimit="10" d="M 905.468737 501.601555 L 905.468737 527.30468 " transform="matrix(0.2, 0, 0, -0.2, 0, 356)"/>
<path fill="none" stroke-width="7.9701" stroke-linecap="butt" stroke-linejoin="miter" stroke="rgb(0%, 0%, 0%)" stroke-opacity="1" stroke-miterlimit="10" d="M 905.468737 527.30468 L 905.468737 553.046867 " transform="matrix(0.2, 0, 0, -0.2, 0, 356)"/>
<path fill="none" stroke-width="7.9701" stroke-linecap="butt" stroke-linejoin="miter" stroke="rgb(0%, 0%, 0%)" stroke-opacity="1" stroke-miterlimit="10" d="M 905.468737 604.453116 L 905.468737 630.195303 " transform="matrix(0.2, 0, 0, -0.2, 0, 356)"/>
<path fill="none" stroke-width="7.9701" stroke-linecap="butt" stroke-linejoin="miter" stroke="rgb(0%, 0%, 0%)" stroke-opacity="1" stroke-miterlimit="10" d="M 905.468737 630.195303 L 905.468737 655.898428 " transform="matrix(0.2, 0, 0, -0.2, 0, 356)"/>
<path fill="none" stroke-width="7.9701" stroke-linecap="butt" stroke-linejoin="miter" stroke="rgb(0%, 0%, 0%)" stroke-opacity="1" stroke-miterlimit="10" d="M 905.468737 707.304677 L 905.468737 733.046864 " transform="matrix(0.2, 0, 0, -0.2, 0, 356)"/>
<path fill="none" stroke-width="7.9701" stroke-linecap="butt" stroke-linejoin="miter" stroke="rgb(0%, 0%, 0%)" stroke-opacity="1" stroke-miterlimit="10" d="M 905.468737 733.046864 L 905.468737 758.749989 " transform="matrix(0.2, 0, 0, -0.2, 0, 356)"/>
<path fill="none" stroke-width="7.9701" stroke-linecap="butt" stroke-linejoin="miter" stroke="rgb(0%, 0%, 0%)" stroke-opacity="1" stroke-miterlimit="10" d="M 905.468737 810.1953 L 905.468737 835.898425 " transform="matrix(0.2, 0, 0, -0.2, 0, 356)"/>
<path fill="none" stroke-width="7.9701" stroke-linecap="butt" stroke-linejoin="miter" stroke="rgb(0%, 0%, 0%)" stroke-opacity="1" stroke-miterlimit="10" d="M 905.468737 835.898425 L 905.468737 861.60155 " transform="matrix(0.2, 0, 0, -0.2, 0, 356)"/>
<path fill="none" stroke-width="7.9701" stroke-linecap="butt" stroke-linejoin="miter" stroke="rgb(0%, 0%, 0%)" stroke-opacity="1" stroke-miterlimit="10" d="M 905.468737 913.046861 L 905.468737 938.749986 " transform="matrix(0.2, 0, 0, -0.2, 0, 356)"/>
<path fill="none" stroke-width="7.9701" stroke-linecap="butt" stroke-linejoin="miter" stroke="rgb(0%, 0%, 0%)" stroke-opacity="1" stroke-miterlimit="10" d="M 905.468737 938.749986 L 905.468737 964.453111 " transform="matrix(0.2, 0, 0, -0.2, 0, 356)"/>
<path fill="none" stroke-width="7.9701" stroke-linecap="butt" stroke-linejoin="miter" stroke="rgb(0%, 0%, 0%)" stroke-opacity="1" stroke-miterlimit="10" d="M 905.468737 1015.898422 L 905.468737 1041.601547 " transform="matrix(0.2, 0, 0, -0.2, 0, 356)"/>
<path fill="none" stroke-width="7.9701" stroke-linecap="butt" stroke-linejoin="miter" stroke="rgb(0%, 0%, 0%)" stroke-opacity="1" stroke-miterlimit="10" d="M 905.468737 1041.601547 L 877.421862 1041.601547 " transform="matrix(0.2, 0, 0, -0.2, 0, 356)"/>
<path fill="none" stroke-width="7.9701" stroke-linecap="butt" stroke-linejoin="miter" stroke="rgb(0%, 0%, 0%)" stroke-opacity="1" stroke-miterlimit="10" d="M 821.328113 1041.601547 L 793.242176 1041.601547 " transform="matrix(0.2, 0, 0, -0.2, 0, 356)"/>
<path fill="none" stroke-width="7.9701" stroke-linecap="butt" stroke-linejoin="miter" stroke="rgb(0%, 0%, 0%)" stroke-opacity="1" stroke-miterlimit="10" d="M 793.242176 1041.601547 L 765.195301 1041.601547 " transform="matrix(0.2, 0, 0, -0.2, 0, 356)"/>
<path fill="none" stroke-width="7.9701" stroke-linecap="butt" stroke-linejoin="miter" stroke="rgb(0%, 0%, 0%)" stroke-opacity="1" stroke-miterlimit="10" d="M 709.101552 1041.601547 L 681.054677 1041.601547 " transform="matrix(0.2, 0, 0, -0.2, 0, 356)"/>
<path fill="none" stroke-width="7.9701" stroke-linecap="butt" stroke-linejoin="miter" stroke="rgb(0%, 0%, 0%)" stroke-opacity="1" stroke-miterlimit="10" d="M 681.054677 1041.601547 L 653.007803 1041.601547 " transform="matrix(0.2, 0, 0, -0.2, 0, 356)"/>
<path fill="none" stroke-width="7.9701" stroke-linecap="butt" stroke-linejoin="miter" stroke="rgb(0%, 0%, 0%)" stroke-opacity="1" stroke-miterlimit="10" d="M 596.874991 1041.601547 L 568.828117 1041.601547 " transform="matrix(0.2, 0, 0, -0.2, 0, 356)"/>
<path fill="none" stroke-width="7.9701" stroke-linecap="butt" stroke-linejoin="miter" stroke="rgb(0%, 0%, 0%)" stroke-opacity="1" stroke-miterlimit="10" d="M 568.828117 1041.601547 L 540.781242 1041.601547 " transform="matrix(0.2, 0, 0, -0.2, 0, 356)"/>
<path fill="none" stroke-width="7.9701" stroke-linecap="butt" stroke-linejoin="miter" stroke="rgb(0%, 0%, 0%)" stroke-opacity="1" stroke-miterlimit="10" d="M 484.687493 1041.601547 L 456.640618 1041.601547 " transform="matrix(0.2, 0, 0, -0.2, 0, 356)"/>
<path fill="none" stroke-width="7.9701" stroke-linecap="butt" stroke-linejoin="miter" stroke="rgb(0%, 0%, 0%)" stroke-opacity="1" stroke-miterlimit="10" d="M 456.640618 1041.601547 L 428.593744 1041.601547 " transform="matrix(0.2, 0, 0, -0.2, 0, 356)"/>
<path fill="none" stroke-width="7.9701" stroke-linecap="butt" stroke-linejoin="miter" stroke="rgb(0%, 0%, 0%)" stroke-opacity="1" stroke-miterlimit="10" d="M 372.460932 1041.601547 L 344.414057 1041.601547 " transform="matrix(0.2, 0, 0, -0.2, 0, 356)"/>
<path fill="none" stroke-width="7.9701" stroke-linecap="butt" stroke-linejoin="miter" stroke="rgb(0%, 0%, 0%)" stroke-opacity="1" stroke-miterlimit="10" d="M 344.414057 1041.601547 L 316.367183 1041.601547 " transform="matrix(0.2, 0, 0, -0.2, 0, 356)"/>
<path fill="none" stroke-width="7.9701" stroke-linecap="butt" stroke-linejoin="miter" stroke="rgb(0%, 0%, 0%)" stroke-opacity="1" stroke-miterlimit="10" d="M 260.273434 1041.601547 L 232.187497 1041.601547 " transform="matrix(0.2, 0, 0, -0.2, 0, 356)"/>
<path fill="none" stroke-width="7.9701" stroke-linecap="butt" stroke-linejoin="miter" stroke="rgb(0%, 0%, 0%)" stroke-opacity="1" stroke-miterlimit="10" d="M 232.187497 1041.601547 L 204.140622 1041.601547 " transform="matrix(0.2, 0, 0, -0.2, 0, 356)"/>
<path fill="none" stroke-width="7.9701" stroke-linecap="butt" stroke-linejoin="miter" stroke="rgb(0%, 0%, 0%)" stroke-opacity="1" stroke-miterlimit="10" d="M 148.046873 1041.601547 L 119.999998 1041.601547 " transform="matrix(0.2, 0, 0, -0.2, 0, 356)"/>
<path fill="none" stroke-width="7.9701" stroke-linecap="butt" stroke-linejoin="miter" stroke="rgb(0%, 0%, 0%)" stroke-opacity="1" stroke-miterlimit="10" d="M 1167.30467 321.601558 L 1167.30467 350.23437 " transform="matrix(0.2, 0, 0, -0.2, 0, 356)"/>
<path fill="none" stroke-width="7.9701" stroke-linecap="butt" stroke-linejoin="miter" stroke="rgb(0%, 0%, 0%)" stroke-opacity="1" stroke-miterlimit="10" d="M 1167.30467 407.499994 L 1167.30467 436.132806 " transform="matrix(0.2, 0, 0, -0.2, 0, 356)"/>
<path fill="none" stroke-width="7.9701" stroke-linecap="butt" stroke-linejoin="miter" stroke="rgb(0%, 0%, 0%)" stroke-opacity="1" stroke-miterlimit="10" d="M 1167.30467 436.132806 L 1167.30467 464.765618 " transform="matrix(0.2, 0, 0, -0.2, 0, 356)"/>
<path fill="none" stroke-width="7.9701" stroke-linecap="butt" stroke-linejoin="miter" stroke="rgb(0%, 0%, 0%)" stroke-opacity="1" stroke-miterlimit="10" d="M 1167.30467 522.070305 L 1167.30467 550.703117 " transform="matrix(0.2, 0, 0, -0.2, 0, 356)"/>
<path fill="none" stroke-width="7.9701" stroke-linecap="butt" stroke-linejoin="miter" stroke="rgb(0%, 0%, 0%)" stroke-opacity="1" stroke-miterlimit="10" d="M 1167.30467 550.703117 L 1167.30467 579.335929 " transform="matrix(0.2, 0, 0, -0.2, 0, 356)"/>
<path fill="none" stroke-width="7.9701" stroke-linecap="butt" stroke-linejoin="miter" stroke="rgb(0%, 0%, 0%)" stroke-opacity="1" stroke-miterlimit="10" d="M 1167.30467 636.601553 L 1167.30467 665.234365 " transform="matrix(0.2, 0, 0, -0.2, 0, 356)"/>
<path fill="none" stroke-width="7.9701" stroke-linecap="butt" stroke-linejoin="miter" stroke="rgb(0%, 0%, 0%)" stroke-opacity="1" stroke-miterlimit="10" d="M 1167.30467 665.234365 L 1167.30467 693.867177 " transform="matrix(0.2, 0, 0, -0.2, 0, 356)"/>
<path fill="none" stroke-width="7.9701" stroke-linecap="butt" stroke-linejoin="miter" stroke="rgb(0%, 0%, 0%)" stroke-opacity="1" stroke-miterlimit="10" d="M 1167.30467 751.132801 L 1167.30467 779.804676 " transform="matrix(0.2, 0, 0, -0.2, 0, 356)"/>
<path fill="none" stroke-width="7.9701" stroke-linecap="butt" stroke-linejoin="miter" stroke="rgb(0%, 0%, 0%)" stroke-opacity="1" stroke-miterlimit="10" d="M 1167.30467 779.804676 L 1167.30467 808.437488 " transform="matrix(0.2, 0, 0, -0.2, 0, 356)"/>
<path fill="none" stroke-width="7.9701" stroke-linecap="butt" stroke-linejoin="miter" stroke="rgb(0%, 0%, 0%)" stroke-opacity="1" stroke-miterlimit="10" d="M 1167.30467 865.703112 L 1167.30467 894.335924 " transform="matrix(0.2, 0, 0, -0.2, 0, 356)"/>
<path fill="none" stroke-width="7.9701" stroke-linecap="butt" stroke-linejoin="miter" stroke="rgb(0%, 0%, 0%)" stroke-opacity="1" stroke-miterlimit="10" d="M 1167.30467 894.335924 L 1167.30467 922.968736 " transform="matrix(0.2, 0, 0, -0.2, 0, 356)"/>
<path fill="none" stroke-width="7.9701" stroke-linecap="butt" stroke-linejoin="miter" stroke="rgb(0%, 0%, 0%)" stroke-opacity="1" stroke-miterlimit="10" d="M 1167.30467 980.23436 L 1167.30467 1008.867172 " transform="matrix(0.2, 0, 0, -0.2, 0, 356)"/>
<path fill="none" stroke-width="7.9701" stroke-linecap="butt" stroke-linejoin="miter" stroke="rgb(0%, 0%, 0%)" stroke-opacity="1" stroke-miterlimit="10" d="M 1167.30467 1008.867172 L 1167.30467 1037.539047 " transform="matrix(0.2, 0, 0, -0.2, 0, 356)"/>
<path fill="none" stroke-width="7.9701" stroke-linecap="butt" stroke-linejoin="miter" stroke="rgb(0%, 0%, 0%)" stroke-opacity="1" stroke-miterlimit="10" d="M 1167.30467 1094.804671 L 1167.30467 1123.437483 " transform="matrix(0.2, 0, 0, -0.2, 0, 356)"/>
<path fill="none" stroke-width="7.9701" stroke-linecap="butt" stroke-linejoin="miter" stroke="rgb(0%, 0%, 0%)" stroke-opacity="1" stroke-miterlimit="10" d="M 1167.30467 1123.437483 L 1167.30467 1152.070295 " transform="matrix(0.2, 0, 0, -0.2, 0, 356)"/>
<path fill="none" stroke-width="7.9701" stroke-linecap="butt" stroke-linejoin="miter" stroke="rgb(0%, 0%, 0%)" stroke-opacity="1" stroke-miterlimit="10" d="M 1167.30467 1209.335919 L 1167.30467 1237.968732 " transform="matrix(0.2, 0, 0, -0.2, 0, 356)"/>
<path fill="none" stroke-width="7.9701" stroke-linecap="butt" stroke-linejoin="miter" stroke="rgb(0%, 0%, 0%)" stroke-opacity="1" stroke-miterlimit="10" d="M 1167.30467 1237.968732 L 1167.30467 1266.601544 " transform="matrix(0.2, 0, 0, -0.2, 0, 356)"/>
<path fill="none" stroke-width="7.9701" stroke-linecap="butt" stroke-linejoin="miter" stroke="rgb(0%, 0%, 0%)" stroke-opacity="1" stroke-miterlimit="10" d="M 1167.30467 1323.867168 L 1167.30467 1352.539042 " transform="matrix(0.2, 0, 0, -0.2, 0, 356)"/>
<path fill="none" stroke-width="7.9701" stroke-linecap="butt" stroke-linejoin="miter" stroke="rgb(0%, 0%, 0%)" stroke-opacity="1" stroke-miterlimit="10" d="M 1167.30467 1352.539042 L 1167.30467 1381.171854 " transform="matrix(0.2, 0, 0, -0.2, 0, 356)"/>
<path fill="none" stroke-width="7.9701" stroke-linecap="butt" stroke-linejoin="miter" stroke="rgb(0%, 0%, 0%)" stroke-opacity="1" stroke-miterlimit="10" d="M 1167.30467 1438.437479 L 1167.30467 1467.070291 " transform="matrix(0.2, 0, 0, -0.2, 0, 356)"/>
<path fill="none" stroke-width="7.9701" stroke-linecap="butt" stroke-linejoin="miter" stroke="rgb(0%, 0%, 0%)" stroke-opacity="1" stroke-miterlimit="10" d="M 1167.30467 1467.070291 L 1167.30467 1495.703103 " transform="matrix(0.2, 0, 0, -0.2, 0, 356)"/>
<path fill="none" stroke-width="7.9701" stroke-linecap="butt" stroke-linejoin="miter" stroke="rgb(0%, 0%, 0%)" stroke-opacity="1" stroke-miterlimit="10" d="M 1167.30467 1552.968727 L 1167.30467 1581.601539 " transform="matrix(0.2, 0, 0, -0.2, 0, 356)"/>
<path fill="none" stroke-width="7.9701" stroke-linecap="butt" stroke-linejoin="miter" stroke="rgb(0%, 0%, 0%)" stroke-opacity="1" stroke-miterlimit="10" d="M 1167.30467 1581.601539 L 1138.203108 1581.601539 " transform="matrix(0.2, 0, 0, -0.2, 0, 356)"/>
<path fill="none" stroke-width="7.9701" stroke-linecap="butt" stroke-linejoin="miter" stroke="rgb(0%, 0%, 0%)" stroke-opacity="1" stroke-miterlimit="10" d="M 1079.999984 1581.601539 L 1050.937484 1581.601539 " transform="matrix(0.2, 0, 0, -0.2, 0, 356)"/>
<path fill="none" stroke-width="7.9701" stroke-linecap="butt" stroke-linejoin="miter" stroke="rgb(0%, 0%, 0%)" stroke-opacity="1" stroke-miterlimit="10" d="M 1050.937484 1581.601539 L 1021.835922 1581.601539 " transform="matrix(0.2, 0, 0, -0.2, 0, 356)"/>
<path fill="none" stroke-width="7.9701" stroke-linecap="butt" stroke-linejoin="miter" stroke="rgb(0%, 0%, 0%)" stroke-opacity="1" stroke-miterlimit="10" d="M 963.632798 1581.601539 L 934.570299 1581.601539 " transform="matrix(0.2, 0, 0, -0.2, 0, 356)"/>
<path fill="none" stroke-width="7.9701" stroke-linecap="butt" stroke-linejoin="miter" stroke="rgb(0%, 0%, 0%)" stroke-opacity="1" stroke-miterlimit="10" d="M 934.570299 1581.601539 L 905.468737 1581.601539 " transform="matrix(0.2, 0, 0, -0.2, 0, 356)"/>
<path fill="none" stroke-width="7.9701" stroke-linecap="butt" stroke-linejoin="miter" stroke="rgb(0%, 0%, 0%)" stroke-opacity="1" stroke-miterlimit="10" d="M 847.265612 1581.601539 L 818.203113 1581.601539 " transform="matrix(0.2, 0, 0, -0.2, 0, 356)"/>
<path fill="none" stroke-width="7.9701" stroke-linecap="butt" stroke-linejoin="miter" stroke="rgb(0%, 0%, 0%)" stroke-opacity="1" stroke-miterlimit="10" d="M 818.203113 1581.601539 L 789.101551 1581.601539 " transform="matrix(0.2, 0, 0, -0.2, 0, 356)"/>
<path fill="none" stroke-width="7.9701" stroke-linecap="butt" stroke-linejoin="miter" stroke="rgb(0%, 0%, 0%)" stroke-opacity="1" stroke-miterlimit="10" d="M 730.898427 1581.601539 L 701.835927 1581.601539 " transform="matrix(0.2, 0, 0, -0.2, 0, 356)"/>
<path fill="none" stroke-width="7.9701" stroke-linecap="butt" stroke-linejoin="miter" stroke="rgb(0%, 0%, 0%)" stroke-opacity="1" stroke-miterlimit="10" d="M 701.835927 1581.601539 L 672.734365 1581.601539 " transform="matrix(0.2, 0, 0, -0.2, 0, 356)"/>
<path fill="none" stroke-width="7.9701" stroke-linecap="butt" stroke-linejoin="miter" stroke="rgb(0%, 0%, 0%)" stroke-opacity="1" stroke-miterlimit="10" d="M 614.570303 1581.601539 L 585.468741 1581.601539 " transform="matrix(0.2, 0, 0, -0.2, 0, 356)"/>
<path fill="none" stroke-width="7.9701" stroke-linecap="butt" stroke-linejoin="miter" stroke="rgb(0%, 0%, 0%)" stroke-opacity="1" stroke-miterlimit="10" d="M 585.468741 1581.601539 L 556.367179 1581.601539 " transform="matrix(0.2, 0, 0, -0.2, 0, 356)"/>
<path fill="none" stroke-width="7.9701" stroke-linecap="butt" stroke-linejoin="miter" stroke="rgb(0%, 0%, 0%)" stroke-opacity="1" stroke-miterlimit="10" d="M 498.203118 1581.601539 L 469.101556 1581.601539 " transform="matrix(0.2, 0, 0, -0.2, 0, 356)"/>
<path fill="none" stroke-width="7.9701" stroke-linecap="butt" stroke-linejoin="miter" stroke="rgb(0%, 0%, 0%)" stroke-opacity="1" stroke-miterlimit="10" d="M 469.101556 1581.601539 L 439.999993 1581.601539 " transform="matrix(0.2, 0, 0, -0.2, 0, 356)"/>
<path fill="none" stroke-width="7.9701" stroke-linecap="butt" stroke-linejoin="miter" stroke="rgb(0%, 0%, 0%)" stroke-opacity="1" stroke-miterlimit="10" d="M 381.796869 1581.601539 L 352.73437 1581.601539 " transform="matrix(0.2, 0, 0, -0.2, 0, 356)"/>
<path fill="none" stroke-width="7.9701" stroke-linecap="butt" stroke-linejoin="miter" stroke="rgb(0%, 0%, 0%)" stroke-opacity="1" stroke-miterlimit="10" d="M 352.73437 1581.601539 L 323.632808 1581.601539 " transform="matrix(0.2, 0, 0, -0.2, 0, 356)"/>
<path fill="none" stroke-width="7.9701" stroke-linecap="butt" stroke-linejoin="miter" stroke="rgb(0%, 0%, 0%)" stroke-opacity="1" stroke-miterlimit="10" d="M 265.468746 1581.601539 L 236.367184 1581.601539 " transform="matrix(0.2, 0, 0, -0.2, 0, 356)"/>
<path fill="none" stroke-width="7.9701" stroke-linecap="butt" stroke-linejoin="miter" stroke="rgb(0%, 0%, 0%)" stroke-opacity="1" stroke-miterlimit="10" d="M 236.367184 1581.601539 L 207.265622 1581.601539 " transform="matrix(0.2, 0, 0, -0.2, 0, 356)"/>
<path fill="none" stroke-width="7.9701" stroke-linecap="butt" stroke-linejoin="miter" stroke="rgb(0%, 0%, 0%)" stroke-opacity="1" stroke-miterlimit="10" d="M 149.10156 1581.601539 L 119.999998 1581.601539 " transform="matrix(0.2, 0, 0, -0.2, 0, 356)"/>
<path fill-rule="nonzero" fill="rgb(100%, 100%, 100%)" fill-opacity="1" d="M -5.304688 291.703125 L 23.976562 291.703125 L 23.976562 318.585938 L -5.304688 318.585938 Z M -5.304688 291.703125 "/>
<path fill-rule="nonzero" fill="rgb(0%, 0%, 0%)" fill-opacity="1" d="M 16.875 303.058594 C 16.875 299.527344 14.5625 297.183594 11.3125 297.183594 C 6.59375 297.183594 1.78125 302.121094 1.78125 307.214844 C 1.78125 310.839844 4.21875 313.027344 7.375 313.027344 C 12 313.027344 16.875 308.246094 16.875 303.058594 Z M 7.5 312.464844 C 5.34375 312.464844 3.8125 310.714844 3.8125 307.839844 C 3.8125 306.871094 4.125 303.683594 5.8125 301.121094 C 7.3125 298.871094 9.4375 297.714844 11.15625 297.714844 C 12.96875 297.714844 14.90625 298.933594 14.90625 302.183594 C 14.90625 303.777344 14.34375 307.183594 12.15625 309.839844 C 11.125 311.183594 9.34375 312.464844 7.5 312.464844 Z M 7.5 312.464844 "/>
<path fill-rule="nonzero" fill="rgb(100%, 100%, 100%)" fill-opacity="1" d="M 292.15625 291.703125 L 324.078125 291.703125 L 324.078125 318.585938 L 292.15625 318.585938 Z M 292.15625 291.703125 "/>
<path fill-rule="nonzero" fill="rgb(0%, 0%, 0%)" fill-opacity="1" d="M 308.773438 303.589844 L 306.929688 299.246094 C 306.867188 299.089844 306.804688 298.996094 306.804688 298.964844 C 306.804688 298.839844 307.179688 298.433594 308.117188 298.339844 C 308.335938 298.308594 308.554688 298.308594 308.554688 297.933594 C 308.554688 297.652344 308.273438 297.652344 308.210938 297.652344 C 307.304688 297.652344 306.367188 297.714844 305.460938 297.714844 C 304.929688 297.714844 303.554688 297.652344 303.023438 297.652344 C 302.898438 297.652344 302.617188 297.652344 302.617188 298.089844 C 302.617188 298.339844 302.835938 298.339844 303.117188 298.339844 C 304.429688 298.339844 304.585938 298.558594 304.773438 299.027344 L 307.335938 305.121094 L 302.742188 310.058594 L 302.460938 310.308594 C 301.398438 311.464844 300.367188 311.808594 299.242188 311.871094 C 298.960938 311.902344 298.773438 311.902344 298.773438 312.308594 C 298.773438 312.339844 298.773438 312.558594 299.054688 312.558594 C 299.710938 312.558594 300.429688 312.496094 301.117188 312.496094 C 301.898438 312.496094 302.773438 312.558594 303.554688 312.558594 C 303.679688 312.558594 303.929688 312.558594 303.929688 312.121094 C 303.929688 311.902344 303.710938 311.871094 303.679688 311.871094 C 303.492188 311.871094 302.804688 311.808594 302.804688 311.214844 C 302.804688 310.871094 303.117188 310.496094 303.398438 310.214844 L 305.617188 307.871094 L 307.585938 305.746094 L 309.773438 310.933594 C 309.867188 311.183594 309.898438 311.214844 309.898438 311.246094 C 309.898438 311.433594 309.492188 311.808594 308.617188 311.871094 C 308.398438 311.902344 308.179688 311.933594 308.179688 312.308594 C 308.179688 312.558594 308.429688 312.558594 308.523438 312.558594 C 309.117188 312.558594 310.648438 312.496094 311.273438 312.496094 C 311.804688 312.496094 313.148438 312.558594 313.679688 312.558594 C 313.835938 312.558594 314.117188 312.558594 314.117188 312.152344 C 314.117188 311.871094 313.898438 311.871094 313.710938 311.871094 C 312.242188 311.871094 312.210938 311.808594 311.835938 310.933594 C 310.992188 308.902344 309.523438 305.496094 309.023438 304.183594 C 310.492188 302.652344 312.804688 300.058594 313.492188 299.464844 C 314.117188 298.933594 314.960938 298.402344 316.273438 298.339844 C 316.554688 298.308594 316.742188 298.308594 316.742188 297.902344 C 316.742188 297.871094 316.742188 297.652344 316.460938 297.652344 C 315.804688 297.652344 315.085938 297.714844 314.398438 297.714844 C 313.585938 297.714844 312.773438 297.652344 311.992188 297.652344 C 311.867188 297.652344 311.585938 297.652344 311.585938 298.089844 C 311.585938 298.246094 311.679688 298.308594 311.835938 298.339844 C 312.023438 298.371094 312.710938 298.402344 312.710938 299.027344 C 312.710938 299.308594 312.460938 299.589844 312.304688 299.808594 Z M 308.773438 303.589844 "/>
<path fill-rule="nonzero" fill="rgb(100%, 100%, 100%)" fill-opacity="1" d="M -5.546875 -5.757812 L 23.976562 -5.757812 L 23.976562 21.125 L -5.546875 21.125 Z M -5.546875 -5.757812 "/>
<path fill-rule="nonzero" fill="rgb(0%, 0%, 0%)" fill-opacity="1" d="M 13.511719 2.695312 L 13.792969 2.382812 C 14.449219 1.726562 15.167969 0.976562 16.667969 0.882812 C 16.917969 0.851562 17.105469 0.851562 17.105469 0.476562 C 17.105469 0.289062 16.980469 0.195312 16.824219 0.195312 C 16.261719 0.195312 15.605469 0.257812 15.042969 0.257812 C 14.324219 0.257812 13.542969 0.195312 12.855469 0.195312 C 12.730469 0.195312 12.449219 0.195312 12.449219 0.632812 C 12.449219 0.851562 12.636719 0.882812 12.761719 0.882812 C 12.917969 0.882812 13.542969 0.914062 13.542969 1.382812 C 13.542969 1.757812 13.042969 2.320312 12.949219 2.414062 L 7.886719 8.257812 L 5.511719 1.789062 C 5.355469 1.476562 5.355469 1.414062 5.355469 1.414062 C 5.355469 0.882812 6.449219 0.882812 6.667969 0.882812 C 6.949219 0.882812 7.167969 0.882812 7.167969 0.445312 C 7.167969 0.195312 6.917969 0.195312 6.855469 0.195312 C 6.230469 0.195312 4.699219 0.257812 4.105469 0.257812 C 3.542969 0.257812 2.199219 0.195312 1.667969 0.195312 C 1.542969 0.195312 1.230469 0.195312 1.230469 0.632812 C 1.230469 0.882812 1.449219 0.882812 1.730469 0.882812 C 3.042969 0.882812 3.136719 1.070312 3.324219 1.632812 L 6.011719 8.789062 C 6.042969 8.851562 6.105469 9.101562 6.105469 9.164062 C 6.105469 9.226562 5.230469 12.757812 5.136719 13.132812 C 4.855469 14.351562 4.824219 14.414062 3.074219 14.414062 C 2.667969 14.414062 2.480469 14.414062 2.480469 14.851562 C 2.480469 15.101562 2.761719 15.101562 2.792969 15.101562 C 3.417969 15.101562 4.917969 15.039062 5.542969 15.039062 C 6.136719 15.039062 7.730469 15.101562 8.324219 15.101562 C 8.480469 15.101562 8.761719 15.101562 8.761719 14.664062 C 8.761719 14.414062 8.542969 14.414062 8.136719 14.414062 C 8.105469 14.414062 7.667969 14.414062 7.292969 14.382812 C 6.855469 14.351562 6.730469 14.289062 6.730469 14.039062 C 6.730469 13.882812 6.917969 13.101562 7.011719 12.664062 L 7.792969 9.570312 C 7.886719 9.164062 7.917969 9.101562 8.105469 8.914062 Z M 13.511719 2.695312 "/>
<path fill="none" stroke-width="11.9553" stroke-linecap="butt" stroke-linejoin="miter" stroke="rgb(0%, 0%, 0%)" stroke-opacity="1" stroke-miterlimit="10" d="M 67.617186 321.601558 L 1560.039039 321.601558 " transform="matrix(0.2, 0, 0, -0.2, 0, 356)"/>
<path fill="none" stroke-width="11.9553" stroke-linecap="butt" stroke-linejoin="miter" stroke="rgb(0%, 0%, 0%)" stroke-opacity="1" stroke-miterlimit="10" d="M 119.999998 285.585933 L 119.999998 1761.601536 " transform="matrix(0.2, 0, 0, -0.2, 0, 356)"/>
<path fill-rule="nonzero" fill="rgb(0%, 0%, 0%)" fill-opacity="1" d="M 123.597656 348.300781 C 124.785156 347.894531 126.785156 347.300781 126.785156 345.363281 C 126.785156 343.050781 124.066406 341.988281 122.097656 341.988281 C 121.160156 341.988281 120.191406 342.207031 119.347656 342.707031 C 119.222656 342.769531 119.066406 342.957031 118.910156 342.957031 C 118.597656 342.957031 118.035156 341.988281 117.722656 341.988281 C 117.535156 341.988281 117.503906 342.207031 117.503906 342.300781 L 117.503906 345.863281 C 117.503906 345.988281 117.597656 346.144531 117.785156 346.144531 C 118.097656 346.144531 118.066406 345.519531 118.160156 345.175781 C 118.628906 343.457031 120.191406 342.707031 121.691406 342.613281 L 122.097656 342.613281 C 123.441406 342.613281 125.003906 343.488281 125.003906 345.363281 C 125.003906 347.175781 123.222656 348.113281 121.566406 348.113281 C 121.253906 348.113281 120.941406 348.113281 120.628906 348.113281 L 120.472656 348.113281 C 120.285156 348.113281 120.066406 348.113281 120.066406 348.332031 L 120.066406 348.363281 C 120.097656 348.550781 120.285156 348.582031 120.472656 348.582031 L 122.316406 348.582031 C 123.878906 348.707031 125.316406 349.738281 125.472656 351.363281 L 125.472656 351.582031 C 125.472656 353.425781 123.753906 354.582031 122.003906 354.582031 C 120.097656 354.582031 118.128906 353.957031 117.816406 351.582031 C 117.816406 351.425781 117.753906 351.238281 117.535156 351.238281 C 117.316406 351.269531 117.285156 351.425781 117.285156 351.582031 C 117.285156 354.175781 119.878906 355.207031 122.128906 355.207031 C 124.191406 355.207031 127.066406 354.238281 127.316406 351.769531 L 127.316406 351.644531 C 127.316406 349.675781 125.253906 348.707031 123.597656 348.300781 Z M 123.597656 348.300781 "/>
<path fill-rule="nonzero" fill="rgb(0%, 0%, 0%)" fill-opacity="1" d="M 135.695312 341.988281 C 132.320312 342.394531 129.632812 345.050781 129.632812 348.644531 C 129.632812 351.925781 132.226562 355.175781 136.101562 355.175781 C 139.601562 355.175781 142.570312 352.269531 142.570312 348.644531 C 142.570312 345.457031 140.070312 341.988281 136.132812 341.988281 C 136.007812 341.988281 135.851562 341.988281 135.695312 341.988281 Z M 131.507812 348.863281 L 131.507812 348.519531 C 131.507812 346.019531 132.414062 343.082031 135.570312 342.550781 C 135.757812 342.519531 135.914062 342.519531 136.101562 342.519531 C 138.914062 342.519531 140.664062 345.238281 140.664062 348.269531 C 140.664062 350.675781 139.945312 353.738281 136.976562 354.519531 C 136.695312 354.582031 136.414062 354.613281 136.132812 354.613281 L 135.945312 354.613281 C 133.351562 354.519531 131.945312 352.050781 131.601562 349.644531 Z M 131.507812 348.863281 "/>
<path fill-rule="nonzero" fill="rgb(0%, 0%, 0%)" fill-opacity="1" d="M 145.027344 342.332031 L 145.027344 342.925781 L 145.464844 342.925781 C 146.058594 342.925781 146.683594 343.019531 146.683594 343.894531 L 146.683594 353.363281 C 146.683594 354.207031 145.964844 354.238281 145.308594 354.238281 L 145.027344 354.238281 L 145.027344 354.832031 L 150.808594 354.832031 C 151.214844 354.832031 151.589844 354.863281 151.996094 354.863281 C 153.996094 354.863281 156.339844 353.925781 156.558594 351.519531 L 156.558594 351.332031 C 156.558594 348.800781 153.683594 347.769531 151.777344 347.769531 C 150.527344 347.769531 149.339844 347.894531 148.152344 347.988281 L 148.152344 343.769531 C 148.152344 343.332031 148.214844 342.925781 148.996094 342.925781 L 151.308594 342.925781 C 152.277344 342.925781 153.371094 342.988281 154.089844 343.707031 C 154.777344 344.425781 154.871094 345.644531 154.964844 346.582031 L 155.496094 346.582031 L 155.027344 342.332031 Z M 148.152344 348.613281 C 148.402344 348.613281 148.652344 348.550781 148.902344 348.519531 L 150.277344 348.457031 C 150.558594 348.425781 150.839844 348.394531 151.152344 348.394531 C 152.714844 348.394531 154.683594 349.394531 154.683594 351.238281 C 154.683594 352.988281 153.339844 354.269531 151.339844 354.269531 C 151.058594 354.269531 150.746094 354.238281 150.496094 354.238281 L 148.964844 354.238281 C 148.496094 354.238281 148.246094 354.207031 148.152344 353.582031 Z M 148.152344 348.613281 "/>
<path fill-rule="nonzero" fill="rgb(0%, 0%, 0%)" fill-opacity="1" d="M 158.90625 342.332031 L 158.90625 342.925781 L 159.375 342.925781 C 159.96875 342.925781 160.5625 343.019531 160.5625 343.894531 L 160.5625 353.363281 C 160.5625 354.207031 159.875 354.238281 159.1875 354.238281 L 158.90625 354.238281 L 158.90625 354.832031 L 163.8125 354.832031 L 163.8125 354.238281 L 163.375 354.238281 C 162.75 354.238281 162.15625 354.175781 162.15625 353.300781 L 162.15625 349.113281 L 165.875 349.113281 C 167.65625 348.988281 169.9375 347.800781 169.9375 345.769531 C 169.9375 343.550781 167.59375 342.488281 165.6875 342.332031 Z M 162.125 348.582031 L 162.125 343.582031 C 162.21875 342.988281 162.46875 342.925781 162.875 342.925781 L 164.3125 342.925781 C 165.9375 342.925781 168.0625 342.988281 168.0625 345.769531 C 168.0625 346.425781 167.96875 347.113281 167.5625 347.613281 C 166.90625 348.394531 165.8125 348.582031 164.84375 348.582031 Z M 162.125 348.582031 "/>
<path fill-rule="nonzero" fill="rgb(0%, 0%, 0%)" fill-opacity="1" d="M 174.632812 352.550781 C 174.132812 352.644531 173.632812 353.082031 173.632812 353.675781 C 173.632812 354.300781 174.164062 354.832031 174.789062 354.832031 C 175.414062 354.832031 175.976562 354.363281 175.976562 353.707031 C 175.976562 353.082031 175.445312 352.519531 174.820312 352.519531 C 174.757812 352.519531 174.695312 352.550781 174.632812 352.550781 Z M 174.632812 352.550781 "/>
<path fill-rule="nonzero" fill="rgb(0%, 0%, 0%)" fill-opacity="1" d="M 189.535156 342.332031 C 189.941406 340.769531 191.347656 339.644531 192.972656 339.644531 C 195.222656 339.644531 196.472656 341.613281 196.472656 343.550781 C 196.472656 345.238281 195.535156 346.738281 194.503906 347.988281 C 192.816406 350.082031 190.785156 351.957031 189.003906 353.925781 C 188.847656 354.113281 188.691406 354.269531 188.691406 354.519531 C 188.691406 354.613281 188.722656 354.738281 188.722656 354.832031 L 197.847656 354.832031 L 198.472656 350.832031 L 197.941406 350.832031 C 197.753906 351.800781 197.816406 353.082031 196.816406 353.082031 C 196.597656 353.113281 196.410156 353.113281 196.222656 353.113281 L 195.628906 353.113281 C 195.285156 353.144531 194.910156 353.144531 194.597656 353.144531 L 190.441406 353.144531 C 191.941406 351.644531 193.566406 350.175781 195.191406 348.800781 C 196.722656 347.488281 198.316406 345.957031 198.472656 343.832031 L 198.472656 343.519531 C 198.472656 340.800781 196.128906 338.957031 193.285156 338.957031 C 190.941406 338.957031 188.722656 340.863281 188.722656 343.300781 C 188.722656 344.113281 189.191406 344.582031 189.878906 344.582031 C 190.503906 344.582031 191.003906 344.113281 191.003906 343.425781 C 191.003906 342.800781 190.535156 342.300781 189.816406 342.300781 C 189.722656 342.300781 189.628906 342.300781 189.535156 342.332031 Z M 189.535156 342.332031 "/>
<path fill-rule="nonzero" fill="rgb(0%, 0%, 0%)" fill-opacity="1" d="M 203.246094 347.207031 C 203.246094 344.957031 203.339844 342.394531 205.027344 340.707031 C 205.683594 340.050781 206.527344 339.582031 207.496094 339.519531 L 207.714844 339.519531 C 208.558594 339.519531 209.433594 339.769531 209.964844 340.488281 C 209.902344 340.457031 209.839844 340.457031 209.746094 340.457031 C 209.214844 340.457031 208.746094 340.863281 208.746094 341.457031 C 208.746094 342.019531 209.152344 342.488281 209.746094 342.488281 C 210.277344 342.488281 210.777344 342.082031 210.777344 341.488281 C 210.777344 339.738281 209.246094 338.957031 207.652344 338.957031 C 203.652344 338.957031 201.277344 343.332031 201.277344 347.082031 C 201.277344 350.300781 201.933594 355.332031 206.464844 355.332031 C 208.371094 355.332031 209.839844 354.144531 210.746094 352.613281 C 211.183594 351.769531 211.339844 350.832031 211.339844 349.925781 C 211.339844 347.394531 209.527344 344.644531 206.621094 344.644531 C 205.371094 344.644531 204.371094 345.238281 203.746094 346.238281 C 203.558594 346.519531 203.339844 346.863281 203.246094 347.207031 Z M 203.277344 349.519531 L 203.277344 349.332031 C 203.277344 347.457031 204.339844 345.144531 206.496094 345.144531 C 208.214844 345.144531 209.183594 346.769531 209.339844 348.300781 C 209.371094 348.925781 209.371094 349.550781 209.371094 350.175781 C 209.371094 351.644531 209.246094 353.394531 207.871094 354.269531 C 207.433594 354.550781 206.933594 354.707031 206.402344 354.707031 C 204.121094 354.707031 203.433594 352.363281 203.308594 350.269531 C 203.308594 350.019531 203.308594 349.769531 203.277344 349.519531 Z M 203.277344 349.519531 "/>
<path fill-rule="nonzero" fill="rgb(0%, 0%, 0%)" fill-opacity="1" d="M 216.140625 352.550781 C 215.640625 352.644531 215.140625 353.082031 215.140625 353.675781 C 215.140625 354.300781 215.671875 354.832031 216.296875 354.832031 C 216.921875 354.832031 217.484375 354.363281 217.484375 353.707031 C 217.484375 353.082031 216.953125 352.519531 216.328125 352.519531 C 216.265625 352.519531 216.203125 352.550781 216.140625 352.550781 Z M 216.140625 352.550781 "/>
</svg>
