<?xml version="1.0" encoding="UTF-8"?>
<svg xmlns="http://www.w3.org/2000/svg" xmlns:xlink="http://www.w3.org/1999/xlink" width="364" height="356" viewBox="0 0 364 356">
<path fill="none" stroke-width="11.9553" stroke-linecap="butt" stroke-linejoin="miter" stroke="rgb(0%, 0%, 0%)" stroke-opacity="1" stroke-miterlimit="10" d="M 169.999997 796.796863 L 210.507809 799.765613 L 251.015621 803.203113 L 291.484371 807.187488 L 331.992183 811.7578 L 372.499994 816.953113 L 413.007806 822.812488 L 453.515618 829.296863 L 493.984368 836.562488 L 534.49218 844.531237 L 574.999991 853.3203 L 615.507803 862.968737 L 656.015615 873.437487 L 696.523427 884.804674 L 737.031239 897.109362 L 777.499988 910.390611 L 818.0078 924.687486 L 858.515612 939.999986 L 899.023424 956.406236 L 939.531236 973.906235 L 979.999985 992.539048 L 1020.507797 1012.382797 L 1061.015609 1033.437485 L 1101.523421 1055.742172 L 1142.031233 1079.335921 L 1182.499982 1104.257796 L 1223.007794 1130.507796 L 1263.515606 1158.203108 L 1304.023418 1187.30467 L 1344.53123 1217.851544 L 1385.039042 1249.921856 L 1425.507791 1283.515606 L 1466.015603 1318.671855 L 1506.523415 1355.429667 L 1547.031227 1393.867167 L 1587.539039 1433.945291 L 1628.007788 1475.742166 L 1668.5156 1519.296852 L 1709.023412 1564.648414 L 1749.531224 1611.796851 L 1790.039036 1660.820288 " transform="matrix(0.2, 0, 0, -0.2, 0, 356)"/>
<path fill="none" stroke-width="11.9553" stroke-linecap="butt" stroke-linejoin="miter" stroke="rgb(0%, 0%, 0%)" stroke-opacity="1" stroke-miterlimit="10" d="M 169.999997 796.796863 L 453.515618 796.796863 " transform="matrix(0.2, 0, 0, -0.2, 0, 356)"/>
<path fill="none" stroke-width="11.9553" stroke-linecap="butt" stroke-linejoin="miter" stroke="rgb(0%, 0%, 0%)" stroke-opacity="1" stroke-miterlimit="10" d="M 453.515618 829.296863 L 453.515618 796.796863 " transform="matrix(0.2, 0, 0, -0.2, 0, 356)"/>
<path fill="none" stroke-width="7.9701" stroke-linecap="butt" stroke-linejoin="miter" stroke="rgb(0%, 0%, 0%)" stroke-opacity="1" stroke-miterlimit="10" d="M 453.515618 796.796863 L 453.515618 767.109364 " transform="matrix(0.2, 0, 0, -0.2, 0, 356)"/>
<path fill="none" stroke-width="7.9701" stroke-linecap="butt" stroke-linejoin="miter" stroke="rgb(0%, 0%, 0%)" stroke-opacity="1" stroke-miterlimit="10" d="M 453.515618 707.695302 L 453.515618 678.007802 " transform="matrix(0.2, 0, 0, -0.2, 0, 356)"/>
<path fill="none" stroke-width="7.9701" stroke-linecap="butt" stroke-linejoin="miter" stroke="rgb(0%, 0%, 0%)" stroke-opacity="1" stroke-miterlimit="10" d="M 453.515618 678.007802 L 453.515618 648.320303 " transform="matrix(0.2, 0, 0, -0.2, 0, 356)"/>
<path fill="none" stroke-width="7.9701" stroke-linecap="butt" stroke-linejoin="miter" stroke="rgb(0%, 0%, 0%)" stroke-opacity="1" stroke-miterlimit="10" d="M 453.515618 588.906241 L 453.515618 559.218742 " transform="matrix(0.2, 0, 0, -0.2, 0, 356)"/>
<path fill="none" stroke-width="7.9701" stroke-linecap="butt" stroke-linejoin="miter" stroke="rgb(0%, 0%, 0%)" stroke-opacity="1" stroke-miterlimit="10" d="M 453.515618 559.218742 L 453.515618 529.49218 " transform="matrix(0.2, 0, 0, -0.2, 0, 356)"/>
<path fill="none" stroke-width="7.9701" stroke-linecap="butt" stroke-linejoin="miter" stroke="rgb(0%, 0%, 0%)" stroke-opacity="1" stroke-miterlimit="10" d="M 453.515618 470.11718 L 453.515618 440.390618 " transform="matrix(0.2, 0, 0, -0.2, 0, 356)"/>
<path fill="none" stroke-width="7.9701" stroke-linecap="butt" stroke-linejoin="miter" stroke="rgb(0%, 0%, 0%)" stroke-opacity="1" stroke-miterlimit="10" d="M 453.515618 440.390618 L 453.515618 410.703119 " transform="matrix(0.2, 0, 0, -0.2, 0, 356)"/>
<path fill="none" stroke-width="7.9701" stroke-linecap="butt" stroke-linejoin="miter" stroke="rgb(0%, 0%, 0%)" stroke-opacity="1" stroke-miterlimit="10" d="M 453.515618 351.289057 L 453.515618 321.601558 " transform="matrix(0.2, 0, 0, -0.2, 0, 356)"/>
<path fill="none" stroke-width="11.9553" stroke-linecap="butt" stroke-linejoin="miter" stroke="rgb(0%, 0%, 0%)" stroke-opacity="1" stroke-miterlimit="10" d="M 453.515618 829.296863 L 737.031239 829.296863 " transform="matrix(0.2, 0, 0, -0.2, 0, 356)"/>
<path fill="none" stroke-width="11.9553" stroke-linecap="butt" stroke-linejoin="miter" stroke="rgb(0%, 0%, 0%)" stroke-opacity="1" stroke-miterlimit="10" d="M 737.031239 897.109362 L 737.031239 829.296863 " transform="matrix(0.2, 0, 0, -0.2, 0, 356)"/>
<path fill="none" stroke-width="7.9701" stroke-linecap="butt" stroke-linejoin="miter" stroke="rgb(0%, 0%, 0%)" stroke-opacity="1" stroke-miterlimit="10" d="M 737.031239 829.296863 L 737.031239 803.945301 " transform="matrix(0.2, 0, 0, -0.2, 0, 356)"/>
<path fill="none" stroke-width="7.9701" stroke-linecap="butt" stroke-linejoin="miter" stroke="rgb(0%, 0%, 0%)" stroke-opacity="1" stroke-miterlimit="10" d="M 737.031239 753.164051 L 737.031239 727.773427 " transform="matrix(0.2, 0, 0, -0.2, 0, 356)"/>
<path fill="none" stroke-width="7.9701" stroke-linecap="butt" stroke-linejoin="miter" stroke="rgb(0%, 0%, 0%)" stroke-opacity="1" stroke-miterlimit="10" d="M 737.031239 727.773427 L 737.031239 702.382802 " transform="matrix(0.2, 0, 0, -0.2, 0, 356)"/>
<path fill="none" stroke-width="7.9701" stroke-linecap="butt" stroke-linejoin="miter" stroke="rgb(0%, 0%, 0%)" stroke-opacity="1" stroke-miterlimit="10" d="M 737.031239 651.601553 L 737.031239 626.210928 " transform="matrix(0.2, 0, 0, -0.2, 0, 356)"/>
<path fill="none" stroke-width="7.9701" stroke-linecap="butt" stroke-linejoin="miter" stroke="rgb(0%, 0%, 0%)" stroke-opacity="1" stroke-miterlimit="10" d="M 737.031239 626.210928 L 737.031239 600.859366 " transform="matrix(0.2, 0, 0, -0.2, 0, 356)"/>
<path fill="none" stroke-width="7.9701" stroke-linecap="butt" stroke-linejoin="miter" stroke="rgb(0%, 0%, 0%)" stroke-opacity="1" stroke-miterlimit="10" d="M 737.031239 550.078117 L 737.031239 524.687492 " transform="matrix(0.2, 0, 0, -0.2, 0, 356)"/>
<path fill="none" stroke-width="7.9701" stroke-linecap="butt" stroke-linejoin="miter" stroke="rgb(0%, 0%, 0%)" stroke-opacity="1" stroke-miterlimit="10" d="M 737.031239 524.687492 L 737.031239 499.296868 " transform="matrix(0.2, 0, 0, -0.2, 0, 356)"/>
<path fill="none" stroke-width="7.9701" stroke-linecap="butt" stroke-linejoin="miter" stroke="rgb(0%, 0%, 0%)" stroke-opacity="1" stroke-miterlimit="10" d="M 737.031239 448.515618 L 737.031239 423.124994 " transform="matrix(0.2, 0, 0, -0.2, 0, 356)"/>
<path fill="none" stroke-width="7.9701" stroke-linecap="butt" stroke-linejoin="miter" stroke="rgb(0%, 0%, 0%)" stroke-opacity="1" stroke-miterlimit="10" d="M 737.031239 423.124994 L 737.031239 397.773432 " transform="matrix(0.2, 0, 0, -0.2, 0, 356)"/>
<path fill="none" stroke-width="7.9701" stroke-linecap="butt" stroke-linejoin="miter" stroke="rgb(0%, 0%, 0%)" stroke-opacity="1" stroke-miterlimit="10" d="M 737.031239 346.992182 L 737.031239 321.601558 " transform="matrix(0.2, 0, 0, -0.2, 0, 356)"/>
<path fill="none" stroke-width="11.9553" stroke-linecap="butt" stroke-linejoin="miter" stroke="rgb(0%, 0%, 0%)" stroke-opacity="1" stroke-miterlimit="10" d="M 737.031239 897.109362 L 1020.507797 897.109362 " transform="matrix(0.2, 0, 0, -0.2, 0, 356)"/>
<path fill="none" stroke-width="11.9553" stroke-linecap="butt" stroke-linejoin="miter" stroke="rgb(0%, 0%, 0%)" stroke-opacity="1" stroke-miterlimit="10" d="M 1020.507797 1012.382797 L 1020.507797 897.109362 " transform="matrix(0.2, 0, 0, -0.2, 0, 356)"/>
<path fill="none" stroke-width="7.9701" stroke-linecap="butt" stroke-linejoin="miter" stroke="rgb(0%, 0%, 0%)" stroke-opacity="1" stroke-miterlimit="10" d="M 1020.507797 897.109362 L 1020.507797 868.359362 " transform="matrix(0.2, 0, 0, -0.2, 0, 356)"/>
<path fill="none" stroke-width="7.9701" stroke-linecap="butt" stroke-linejoin="miter" stroke="rgb(0%, 0%, 0%)" stroke-opacity="1" stroke-miterlimit="10" d="M 1020.507797 810.781238 L 1020.507797 782.031238 " transform="matrix(0.2, 0, 0, -0.2, 0, 356)"/>
<path fill="none" stroke-width="7.9701" stroke-linecap="butt" stroke-linejoin="miter" stroke="rgb(0%, 0%, 0%)" stroke-opacity="1" stroke-miterlimit="10" d="M 1020.507797 782.031238 L 1020.507797 753.242176 " transform="matrix(0.2, 0, 0, -0.2, 0, 356)"/>
<path fill="none" stroke-width="7.9701" stroke-linecap="butt" stroke-linejoin="miter" stroke="rgb(0%, 0%, 0%)" stroke-opacity="1" stroke-miterlimit="10" d="M 1020.507797 695.703115 L 1020.507797 666.914053 " transform="matrix(0.2, 0, 0, -0.2, 0, 356)"/>
<path fill="none" stroke-width="7.9701" stroke-linecap="butt" stroke-linejoin="miter" stroke="rgb(0%, 0%, 0%)" stroke-opacity="1" stroke-miterlimit="10" d="M 1020.507797 666.914053 L 1020.507797 638.12499 " transform="matrix(0.2, 0, 0, -0.2, 0, 356)"/>
<path fill="none" stroke-width="7.9701" stroke-linecap="butt" stroke-linejoin="miter" stroke="rgb(0%, 0%, 0%)" stroke-opacity="1" stroke-miterlimit="10" d="M 1020.507797 580.585929 L 1020.507797 551.796867 " transform="matrix(0.2, 0, 0, -0.2, 0, 356)"/>
<path fill="none" stroke-width="7.9701" stroke-linecap="butt" stroke-linejoin="miter" stroke="rgb(0%, 0%, 0%)" stroke-opacity="1" stroke-miterlimit="10" d="M 1020.507797 551.796867 L 1020.507797 523.046867 " transform="matrix(0.2, 0, 0, -0.2, 0, 356)"/>
<path fill="none" stroke-width="7.9701" stroke-linecap="butt" stroke-linejoin="miter" stroke="rgb(0%, 0%, 0%)" stroke-opacity="1" stroke-miterlimit="10" d="M 1020.507797 465.468743 L 1020.507797 436.718743 " transform="matrix(0.2, 0, 0, -0.2, 0, 356)"/>
<path fill="none" stroke-width="7.9701" stroke-linecap="butt" stroke-linejoin="miter" stroke="rgb(0%, 0%, 0%)" stroke-opacity="1" stroke-miterlimit="10" d="M 1020.507797 436.718743 L 1020.507797 407.929681 " transform="matrix(0.2, 0, 0, -0.2, 0, 356)"/>
<path fill="none" stroke-width="7.9701" stroke-linecap="butt" stroke-linejoin="miter" stroke="rgb(0%, 0%, 0%)" stroke-opacity="1" stroke-miterlimit="10" d="M 1020.507797 350.39062 L 1020.507797 321.601558 " transform="matrix(0.2, 0, 0, -0.2, 0, 356)"/>
<path fill="none" stroke-width="11.9553" stroke-linecap="butt" stroke-linejoin="miter" stroke="rgb(0%, 0%, 0%)" stroke-opacity="1" stroke-miterlimit="10" d="M 1020.507797 1012.382797 L 1304.023418 1012.382797 " transform="matrix(0.2, 0, 0, -0.2, 0, 356)"/>
<path fill="none" stroke-width="11.9553" stroke-linecap="butt" stroke-linejoin="miter" stroke="rgb(0%, 0%, 0%)" stroke-opacity="1" stroke-miterlimit="10" d="M 1304.023418 1187.265607 L 1304.023418 1012.382797 " transform="matrix(0.2, 0, 0, -0.2, 0, 356)"/>
<path fill="none" stroke-width="7.9701" stroke-linecap="butt" stroke-linejoin="miter" stroke="rgb(0%, 0%, 0%)" stroke-opacity="1" stroke-miterlimit="10" d="M 1304.023418 1012.382797 L 1304.023418 983.593735 " transform="matrix(0.2, 0, 0, -0.2, 0, 356)"/>
<path fill="none" stroke-width="7.9701" stroke-linecap="butt" stroke-linejoin="miter" stroke="rgb(0%, 0%, 0%)" stroke-opacity="1" stroke-miterlimit="10" d="M 1304.023418 926.054674 L 1304.023418 897.265612 " transform="matrix(0.2, 0, 0, -0.2, 0, 356)"/>
<path fill="none" stroke-width="7.9701" stroke-linecap="butt" stroke-linejoin="miter" stroke="rgb(0%, 0%, 0%)" stroke-opacity="1" stroke-miterlimit="10" d="M 1304.023418 897.265612 L 1304.023418 868.47655 " transform="matrix(0.2, 0, 0, -0.2, 0, 356)"/>
<path fill="none" stroke-width="7.9701" stroke-linecap="butt" stroke-linejoin="miter" stroke="rgb(0%, 0%, 0%)" stroke-opacity="1" stroke-miterlimit="10" d="M 1304.023418 810.898425 L 1304.023418 782.148426 " transform="matrix(0.2, 0, 0, -0.2, 0, 356)"/>
<path fill="none" stroke-width="7.9701" stroke-linecap="butt" stroke-linejoin="miter" stroke="rgb(0%, 0%, 0%)" stroke-opacity="1" stroke-miterlimit="10" d="M 1304.023418 782.148426 L 1304.023418 753.359364 " transform="matrix(0.2, 0, 0, -0.2, 0, 356)"/>
<path fill="none" stroke-width="7.9701" stroke-linecap="butt" stroke-linejoin="miter" stroke="rgb(0%, 0%, 0%)" stroke-opacity="1" stroke-miterlimit="10" d="M 1304.023418 695.78124 L 1304.023418 666.992178 " transform="matrix(0.2, 0, 0, -0.2, 0, 356)"/>
<path fill="none" stroke-width="7.9701" stroke-linecap="butt" stroke-linejoin="miter" stroke="rgb(0%, 0%, 0%)" stroke-opacity="1" stroke-miterlimit="10" d="M 1304.023418 666.992178 L 1304.023418 638.203115 " transform="matrix(0.2, 0, 0, -0.2, 0, 356)"/>
<path fill="none" stroke-width="7.9701" stroke-linecap="butt" stroke-linejoin="miter" stroke="rgb(0%, 0%, 0%)" stroke-opacity="1" stroke-miterlimit="10" d="M 1304.023418 580.664054 L 1304.023418 551.874992 " transform="matrix(0.2, 0, 0, -0.2, 0, 356)"/>
<path fill="none" stroke-width="7.9701" stroke-linecap="butt" stroke-linejoin="miter" stroke="rgb(0%, 0%, 0%)" stroke-opacity="1" stroke-miterlimit="10" d="M 1304.023418 551.874992 L 1304.023418 523.08593 " transform="matrix(0.2, 0, 0, -0.2, 0, 356)"/>
<path fill="none" stroke-width="7.9701" stroke-linecap="butt" stroke-linejoin="miter" stroke="rgb(0%, 0%, 0%)" stroke-opacity="1" stroke-miterlimit="10" d="M 1304.023418 465.507806 L 1304.023418 436.718743 " transform="matrix(0.2, 0, 0, -0.2, 0, 356)"/>
<path fill="none" stroke-width="7.9701" stroke-linecap="butt" stroke-linejoin="miter" stroke="rgb(0%, 0%, 0%)" stroke-opacity="1" stroke-miterlimit="10" d="M 1304.023418 436.718743 L 1304.023418 407.968744 " transform="matrix(0.2, 0, 0, -0.2, 0, 356)"/>
<path fill="none" stroke-width="7.9701" stroke-linecap="butt" stroke-linejoin="miter" stroke="rgb(0%, 0%, 0%)" stroke-opacity="1" stroke-miterlimit="10" d="M 1304.023418 350.39062 L 1304.023418 321.601558 " transform="matrix(0.2, 0, 0, -0.2, 0, 356)"/>
<path fill="none" stroke-width="11.9553" stroke-linecap="butt" stroke-linejoin="miter" stroke="rgb(0%, 0%, 0%)" stroke-opacity="1" stroke-miterlimit="10" d="M 1304.023418 1187.265607 L 1587.539039 1187.265607 " transform="matrix(0.2, 0, 0, -0.2, 0, 356)"/>
<path fill="none" stroke-width="11.9553" stroke-linecap="butt" stroke-linejoin="miter" stroke="rgb(0%, 0%, 0%)" stroke-opacity="1" stroke-miterlimit="10" d="M 1587.539039 1433.945291 L 1587.539039 1187.265607 " transform="matrix(0.2, 0, 0, -0.2, 0, 356)"/>
<path fill="none" stroke-width="7.9701" stroke-linecap="butt" stroke-linejoin="miter" stroke="rgb(0%, 0%, 0%)" stroke-opacity="1" stroke-miterlimit="10" d="M 1587.539039 1187.265607 L 1587.539039 1160.234358 " transform="matrix(0.2, 0, 0, -0.2, 0, 356)"/>
<path fill="none" stroke-width="7.9701" stroke-linecap="butt" stroke-linejoin="miter" stroke="rgb(0%, 0%, 0%)" stroke-opacity="1" stroke-miterlimit="10" d="M 1587.539039 1106.132796 L 1587.539039 1079.062484 " transform="matrix(0.2, 0, 0, -0.2, 0, 356)"/>
<path fill="none" stroke-width="7.9701" stroke-linecap="butt" stroke-linejoin="miter" stroke="rgb(0%, 0%, 0%)" stroke-opacity="1" stroke-miterlimit="10" d="M 1587.539039 1079.062484 L 1587.539039 1052.031234 " transform="matrix(0.2, 0, 0, -0.2, 0, 356)"/>
<path fill="none" stroke-width="7.9701" stroke-linecap="butt" stroke-linejoin="miter" stroke="rgb(0%, 0%, 0%)" stroke-opacity="1" stroke-miterlimit="10" d="M 1587.539039 997.929673 L 1587.539039 970.859361 " transform="matrix(0.2, 0, 0, -0.2, 0, 356)"/>
<path fill="none" stroke-width="7.9701" stroke-linecap="butt" stroke-linejoin="miter" stroke="rgb(0%, 0%, 0%)" stroke-opacity="1" stroke-miterlimit="10" d="M 1587.539039 970.859361 L 1587.539039 943.828111 " transform="matrix(0.2, 0, 0, -0.2, 0, 356)"/>
<path fill="none" stroke-width="7.9701" stroke-linecap="butt" stroke-linejoin="miter" stroke="rgb(0%, 0%, 0%)" stroke-opacity="1" stroke-miterlimit="10" d="M 1587.539039 889.726549 L 1587.539039 862.656237 " transform="matrix(0.2, 0, 0, -0.2, 0, 356)"/>
<path fill="none" stroke-width="7.9701" stroke-linecap="butt" stroke-linejoin="miter" stroke="rgb(0%, 0%, 0%)" stroke-opacity="1" stroke-miterlimit="10" d="M 1587.539039 862.656237 L 1587.539039 835.585925 " transform="matrix(0.2, 0, 0, -0.2, 0, 356)"/>
<path fill="none" stroke-width="7.9701" stroke-linecap="butt" stroke-linejoin="miter" stroke="rgb(0%, 0%, 0%)" stroke-opacity="1" stroke-miterlimit="10" d="M 1587.539039 781.484363 L 1587.539039 754.453114 " transform="matrix(0.2, 0, 0, -0.2, 0, 356)"/>
<path fill="none" stroke-width="7.9701" stroke-linecap="butt" stroke-linejoin="miter" stroke="rgb(0%, 0%, 0%)" stroke-opacity="1" stroke-miterlimit="10" d="M 1587.539039 754.453114 L 1587.539039 727.382802 " transform="matrix(0.2, 0, 0, -0.2, 0, 356)"/>
<path fill="none" stroke-width="7.9701" stroke-linecap="butt" stroke-linejoin="miter" stroke="rgb(0%, 0%, 0%)" stroke-opacity="1" stroke-miterlimit="10" d="M 1587.539039 673.28124 L 1587.539039 646.210928 " transform="matrix(0.2, 0, 0, -0.2, 0, 356)"/>
<path fill="none" stroke-width="7.9701" stroke-linecap="butt" stroke-linejoin="miter" stroke="rgb(0%, 0%, 0%)" stroke-opacity="1" stroke-miterlimit="10" d="M 1587.539039 646.210928 L 1587.539039 619.179678 " transform="matrix(0.2, 0, 0, -0.2, 0, 356)"/>
<path fill="none" stroke-width="7.9701" stroke-linecap="butt" stroke-linejoin="miter" stroke="rgb(0%, 0%, 0%)" stroke-opacity="1" stroke-miterlimit="10" d="M 1587.539039 565.078117 L 1587.539039 538.007804 " transform="matrix(0.2, 0, 0, -0.2, 0, 356)"/>
<path fill="none" stroke-width="7.9701" stroke-linecap="butt" stroke-linejoin="miter" stroke="rgb(0%, 0%, 0%)" stroke-opacity="1" stroke-miterlimit="10" d="M 1587.539039 538.007804 L 1587.539039 510.976555 " transform="matrix(0.2, 0, 0, -0.2, 0, 356)"/>
<path fill="none" stroke-width="7.9701" stroke-linecap="butt" stroke-linejoin="miter" stroke="rgb(0%, 0%, 0%)" stroke-opacity="1" stroke-miterlimit="10" d="M 1587.539039 456.874993 L 1587.539039 429.804681 " transform="matrix(0.2, 0, 0, -0.2, 0, 356)"/>
<path fill="none" stroke-width="7.9701" stroke-linecap="butt" stroke-linejoin="miter" stroke="rgb(0%, 0%, 0%)" stroke-opacity="1" stroke-miterlimit="10" d="M 1587.539039 429.804681 L 1587.539039 402.773431 " transform="matrix(0.2, 0, 0, -0.2, 0, 356)"/>
<path fill="none" stroke-width="7.9701" stroke-linecap="butt" stroke-linejoin="miter" stroke="rgb(0%, 0%, 0%)" stroke-opacity="1" stroke-miterlimit="10" d="M 1587.539039 348.632807 L 1587.539039 321.601558 " transform="matrix(0.2, 0, 0, -0.2, 0, 356)"/>
<path fill="none" stroke-width="7.9701" stroke-linecap="butt" stroke-linejoin="miter" stroke="rgb(0%, 0%, 0%)" stroke-opacity="1" stroke-miterlimit="10" d="M 169.999997 796.796863 L 198.94531 796.796863 " transform="matrix(0.2, 0, 0, -0.2, 0, 356)"/>
<path fill="none" stroke-width="7.9701" stroke-linecap="butt" stroke-linejoin="miter" stroke="rgb(0%, 0%, 0%)" stroke-opacity="1" stroke-miterlimit="10" d="M 256.796871 796.796863 L 285.703121 796.796863 " transform="matrix(0.2, 0, 0, -0.2, 0, 356)"/>
<path fill="none" stroke-width="7.9701" stroke-linecap="butt" stroke-linejoin="miter" stroke="rgb(0%, 0%, 0%)" stroke-opacity="1" stroke-miterlimit="10" d="M 285.703121 796.796863 L 314.648433 796.796863 " transform="matrix(0.2, 0, 0, -0.2, 0, 356)"/>
<path fill="none" stroke-width="7.9701" stroke-linecap="butt" stroke-linejoin="miter" stroke="rgb(0%, 0%, 0%)" stroke-opacity="1" stroke-miterlimit="10" d="M 372.499994 796.796863 L 401.445307 796.796863 " transform="matrix(0.2, 0, 0, -0.2, 0, 356)"/>
<path fill="none" stroke-width="7.9701" stroke-linecap="butt" stroke-linejoin="miter" stroke="rgb(0%, 0%, 0%)" stroke-opacity="1" stroke-miterlimit="10" d="M 401.445307 796.796863 L 430.351556 796.796863 " transform="matrix(0.2, 0, 0, -0.2, 0, 356)"/>
<path fill="none" stroke-width="7.9701" stroke-linecap="butt" stroke-linejoin="miter" stroke="rgb(0%, 0%, 0%)" stroke-opacity="1" stroke-miterlimit="10" d="M 488.24218 796.796863 L 517.14843 796.796863 " transform="matrix(0.2, 0, 0, -0.2, 0, 356)"/>
<path fill="none" stroke-width="7.9701" stroke-linecap="butt" stroke-linejoin="miter" stroke="rgb(0%, 0%, 0%)" stroke-opacity="1" stroke-miterlimit="10" d="M 517.14843 796.796863 L 546.093742 796.796863 " transform="matrix(0.2, 0, 0, -0.2, 0, 356)"/>
<path fill="none" stroke-width="7.9701" stroke-linecap="butt" stroke-linejoin="miter" stroke="rgb(0%, 0%, 0%)" stroke-opacity="1" stroke-miterlimit="10" d="M 603.945304 796.796863 L 632.851553 796.796863 " transform="matrix(0.2, 0, 0, -0.2, 0, 356)"/>
<path fill="none" stroke-width="7.9701" stroke-linecap="butt" stroke-linejoin="miter" stroke="rgb(0%, 0%, 0%)" stroke-opacity="1" stroke-miterlimit="10" d="M 632.851553 796.796863 L 661.796865 796.796863 " transform="matrix(0.2, 0, 0, -0.2, 0, 356)"/>
<path fill="none" stroke-width="7.9701" stroke-linecap="butt" stroke-linejoin="miter" stroke="rgb(0%, 0%, 0%)" stroke-opacity="1" stroke-miterlimit="10" d="M 719.648427 796.796863 L 748.593739 796.796863 " transform="matrix(0.2, 0, 0, -0.2, 0, 356)"/>
<path fill="none" stroke-width="7.9701" stroke-linecap="butt" stroke-linejoin="miter" stroke="rgb(0%, 0%, 0%)" stroke-opacity="1" stroke-miterlimit="10" d="M 748.593739 796.796863 L 777.499988 796.796863 " transform="matrix(0.2, 0, 0, -0.2, 0, 356)"/>
<path fill="none" stroke-width="7.9701" stroke-linecap="butt" stroke-linejoin="miter" stroke="rgb(0%, 0%, 0%)" stroke-opacity="1" stroke-miterlimit="10" d="M 835.35155 796.796863 L 864.296862 796.796863 " transform="matrix(0.2, 0, 0, -0.2, 0, 356)"/>
<path fill="none" stroke-width="7.9701" stroke-linecap="butt" stroke-linejoin="miter" stroke="rgb(0%, 0%, 0%)" stroke-opacity="1" stroke-miterlimit="10" d="M 864.296862 796.796863 L 893.203112 796.796863 " transform="matrix(0.2, 0, 0, -0.2, 0, 356)"/>
<path fill="none" stroke-width="7.9701" stroke-linecap="butt" stroke-linejoin="miter" stroke="rgb(0%, 0%, 0%)" stroke-opacity="1" stroke-miterlimit="10" d="M 951.093736 796.796863 L 979.999985 796.796863 " transform="matrix(0.2, 0, 0, -0.2, 0, 356)"/>
<path fill="none" stroke-width="7.9701" stroke-linecap="butt" stroke-linejoin="miter" stroke="rgb(0%, 0%, 0%)" stroke-opacity="1" stroke-miterlimit="10" d="M 979.999985 796.796863 L 1008.945297 796.796863 " transform="matrix(0.2, 0, 0, -0.2, 0, 356)"/>
<path fill="none" stroke-width="7.9701" stroke-linecap="butt" stroke-linejoin="miter" stroke="rgb(0%, 0%, 0%)" stroke-opacity="1" stroke-miterlimit="10" d="M 1066.796859 796.796863 L 1095.703109 796.796863 " transform="matrix(0.2, 0, 0, -0.2, 0, 356)"/>
<path fill="none" stroke-width="7.9701" stroke-linecap="butt" stroke-linejoin="miter" stroke="rgb(0%, 0%, 0%)" stroke-opacity="1" stroke-miterlimit="10" d="M 1095.703109 796.796863 L 1124.648421 796.796863 " transform="matrix(0.2, 0, 0, -0.2, 0, 356)"/>
<path fill="none" stroke-width="7.9701" stroke-linecap="butt" stroke-linejoin="miter" stroke="rgb(0%, 0%, 0%)" stroke-opacity="1" stroke-miterlimit="10" d="M 1182.499982 796.796863 L 1211.445294 796.796863 " transform="matrix(0.2, 0, 0, -0.2, 0, 356)"/>
<path fill="none" stroke-width="7.9701" stroke-linecap="butt" stroke-linejoin="miter" stroke="rgb(0%, 0%, 0%)" stroke-opacity="1" stroke-miterlimit="10" d="M 1211.445294 796.796863 L 1240.351544 796.796863 " transform="matrix(0.2, 0, 0, -0.2, 0, 356)"/>
<path fill="none" stroke-width="7.9701" stroke-linecap="butt" stroke-linejoin="miter" stroke="rgb(0%, 0%, 0%)" stroke-opacity="1" stroke-miterlimit="10" d="M 1298.203106 796.796863 L 1327.148418 796.796863 " transform="matrix(0.2, 0, 0, -0.2, 0, 356)"/>
<path fill="none" stroke-width="7.9701" stroke-linecap="butt" stroke-linejoin="miter" stroke="rgb(0%, 0%, 0%)" stroke-opacity="1" stroke-miterlimit="10" d="M 1327.148418 796.796863 L 1356.09373 796.796863 " transform="matrix(0.2, 0, 0, -0.2, 0, 356)"/>
<path fill="none" stroke-width="7.9701" stroke-linecap="butt" stroke-linejoin="miter" stroke="rgb(0%, 0%, 0%)" stroke-opacity="1" stroke-miterlimit="10" d="M 1413.945291 796.796863 L 1442.851541 796.796863 " transform="matrix(0.2, 0, 0, -0.2, 0, 356)"/>
<path fill="none" stroke-width="7.9701" stroke-linecap="butt" stroke-linejoin="miter" stroke="rgb(0%, 0%, 0%)" stroke-opacity="1" stroke-miterlimit="10" d="M 1442.851541 796.796863 L 1471.796853 796.796863 " transform="matrix(0.2, 0, 0, -0.2, 0, 356)"/>
<path fill="none" stroke-width="7.9701" stroke-linecap="butt" stroke-linejoin="miter" stroke="rgb(0%, 0%, 0%)" stroke-opacity="1" stroke-miterlimit="10" d="M 1529.648415 796.796863 L 1558.593727 796.796863 " transform="matrix(0.2, 0, 0, -0.2, 0, 356)"/>
<path fill="none" stroke-width="7.9701" stroke-linecap="butt" stroke-linejoin="miter" stroke="rgb(0%, 0%, 0%)" stroke-opacity="1" stroke-miterlimit="10" d="M 1558.593727 796.796863 L 1587.539039 796.796863 " transform="matrix(0.2, 0, 0, -0.2, 0, 356)"/>
<path fill="none" stroke-width="7.9701" stroke-linecap="butt" stroke-linejoin="miter" stroke="rgb(0%, 0%, 0%)" stroke-opacity="1" stroke-miterlimit="10" d="M 1645.351538 796.796863 L 1674.29685 796.796863 " transform="matrix(0.2, 0, 0, -0.2, 0, 356)"/>
<path fill="none" stroke-width="7.9701" stroke-linecap="butt" stroke-linejoin="miter" stroke="rgb(0%, 0%, 0%)" stroke-opacity="1" stroke-miterlimit="10" d="M 1674.29685 796.796863 L 1703.242162 796.796863 " transform="matrix(0.2, 0, 0, -0.2, 0, 356)"/>
<path fill="none" stroke-width="7.9701" stroke-linecap="butt" stroke-linejoin="miter" stroke="rgb(0%, 0%, 0%)" stroke-opacity="1" stroke-miterlimit="10" d="M 1761.093724 796.796863 L 1790.039036 796.796863 " transform="matrix(0.2, 0, 0, -0.2, 0, 356)"/>
<path fill-rule="nonzero" fill="rgb(100%, 100%, 100%)" fill-opacity="1" d="M 4.695312 291.703125 L 33.976562 291.703125 L 33.976562 318.585938 L 4.695312 318.585938 Z M 4.695312 291.703125 "/>
<path fill-rule="nonzero" fill="rgb(0%, 0%, 0%)" fill-opacity="1" d="M 26.875 303.058594 C 26.875 299.527344 24.5625 297.183594 21.3125 297.183594 C 16.59375 297.183594 11.78125 302.121094 11.78125 307.214844 C 11.78125 310.839844 14.21875 313.027344 17.375 313.027344 C 22 313.027344 26.875 308.246094 26.875 303.058594 Z M 17.5 312.464844 C 15.34375 312.464844 13.8125 310.714844 13.8125 307.839844 C 13.8125 306.871094 14.125 303.683594 15.8125 301.121094 C 17.3125 298.871094 19.4375 297.714844 21.15625 297.714844 C 22.96875 297.714844 24.90625 298.933594 24.90625 302.183594 C 24.90625 303.777344 24.34375 307.183594 22.15625 309.839844 C 21.125 311.183594 19.34375 312.464844 17.5 312.464844 Z M 17.5 312.464844 "/>
<path fill-rule="nonzero" fill="rgb(100%, 100%, 100%)" fill-opacity="1" d="M 338.15625 291.703125 L 370.078125 291.703125 L 370.078125 318.585938 L 338.15625 318.585938 Z M 338.15625 291.703125 "/>
<path fill-rule="nonzero" fill="rgb(0%, 0%, 0%)" fill-opacity="1" d="M 354.773438 303.589844 L 352.929688 299.246094 C 352.867188 299.089844 352.804688 298.996094 352.804688 298.964844 C 352.804688 298.839844 353.179688 298.433594 354.117188 298.339844 C 354.335938 298.308594 354.554688 298.308594 354.554688 297.933594 C 354.554688 297.652344 354.273438 297.652344 354.210938 297.652344 C 353.304688 297.652344 352.367188 297.714844 351.460938 297.714844 C 350.929688 297.714844 349.554688 297.652344 349.023438 297.652344 C 348.898438 297.652344 348.617188 297.652344 348.617188 298.089844 C 348.617188 298.339844 348.835938 298.339844 349.117188 298.339844 C 350.429688 298.339844 350.585938 298.558594 350.773438 299.027344 L 353.335938 305.121094 L 348.742188 310.058594 L 348.460938 310.308594 C 347.398438 311.464844 346.367188 311.808594 345.242188 311.871094 C 344.960938 311.902344 344.773438 311.902344 344.773438 312.308594 C 344.773438 312.339844 344.773438 312.558594 345.054688 312.558594 C 345.710938 312.558594 346.429688 312.496094 347.117188 312.496094 C 347.898438 312.496094 348.773438 312.558594 349.554688 312.558594 C 349.679688 312.558594 349.929688 312.558594 349.929688 312.121094 C 349.929688 311.902344 349.710938 311.871094 349.679688 311.871094 C 349.492188 311.871094 348.804688 311.808594 348.804688 311.214844 C 348.804688 310.871094 349.117188 310.496094 349.398438 310.214844 L 351.617188 307.871094 L 353.585938 305.746094 L 355.773438 310.933594 C 355.867188 311.183594 355.898438 311.214844 355.898438 311.246094 C 355.898438 311.433594 355.492188 311.808594 354.617188 311.871094 C 354.398438 311.902344 354.179688 311.933594 354.179688 312.308594 C 354.179688 312.558594 354.429688 312.558594 354.523438 312.558594 C 355.117188 312.558594 356.648438 312.496094 357.273438 312.496094 C 357.804688 312.496094 359.148438 312.558594 359.679688 312.558594 C 359.835938 312.558594 360.117188 312.558594 360.117188 312.152344 C 360.117188 311.871094 359.898438 311.871094 359.710938 311.871094 C 358.242188 311.871094 358.210938 311.808594 357.835938 310.933594 C 356.992188 308.902344 355.523438 305.496094 355.023438 304.183594 C 356.492188 302.652344 358.804688 300.058594 359.492188 299.464844 C 360.117188 298.933594 360.960938 298.402344 362.273438 298.339844 C 362.554688 298.308594 362.742188 298.308594 362.742188 297.902344 C 362.742188 297.871094 362.742188 297.652344 362.460938 297.652344 C 361.804688 297.652344 361.085938 297.714844 360.398438 297.714844 C 359.585938 297.714844 358.773438 297.652344 357.992188 297.652344 C 357.867188 297.652344 357.585938 297.652344 357.585938 298.089844 C 357.585938 298.246094 357.679688 298.308594 357.835938 298.339844 C 358.023438 298.371094 358.710938 298.402344 358.710938 299.027344 C 358.710938 299.308594 358.460938 299.589844 358.304688 299.808594 Z M 354.773438 303.589844 "/>
<path fill-rule="nonzero" fill="rgb(100%, 100%, 100%)" fill-opacity="1" d="M 4.453125 -5.757812 L 33.976562 -5.757812 L 33.976562 21.125 L 4.453125 21.125 Z M 4.453125 -5.757812 "/>
<path fill-rule="nonzero" fill="rgb(0%, 0%, 0%)" fill-opacity="1" d="M 23.511719 2.695312 L 23.792969 2.382812 C 24.449219 1.726562 25.167969 0.976562 26.667969 0.882812 C 26.917969 0.851562 27.105469 0.851562 27.105469 0.476562 C 27.105469 0.289062 26.980469 0.195312 26.824219 0.195312 C 26.261719 0.195312 25.605469 0.257812 25.042969 0.257812 C 24.324219 0.257812 23.542969 0.195312 22.855469 0.195312 C 22.730469 0.195312 22.449219 0.195312 22.449219 0.632812 C 22.449219 0.851562 22.636719 0.882812 22.761719 0.882812 C 22.917969 0.882812 23.542969 0.914062 23.542969 1.382812 C 23.542969 1.757812 23.042969 2.320312 22.949219 2.414062 L 17.886719 8.257812 L 15.511719 1.789062 C 15.355469 1.476562 15.355469 1.414062 15.355469 1.414062 C 15.355469 0.882812 16.449219 0.882812 16.667969 0.882812 C 16.949219 0.882812 17.167969 0.882812 17.167969 0.445312 C 17.167969 0.195312 16.917969 0.195312 16.855469 0.195312 C 16.230469 0.195312 14.699219 0.257812 14.105469 0.257812 C 13.542969 0.257812 12.199219 0.195312 11.667969 0.195312 C 11.542969 0.195312 11.230469 0.195312 11.230469 0.632812 C 11.230469 0.882812 11.449219 0.882812 11.730469 0.882812 C 13.042969 0.882812 13.136719 1.070312 13.324219 1.632812 L 16.011719 8.789062 C 16.042969 8.851562 16.105469 9.101562 16.105469 9.164062 C 16.105469 9.226562 15.230469 12.757812 15.136719 13.132812 C 14.855469 14.351562 14.824219 14.414062 13.074219 14.414062 C 12.667969 14.414062 12.480469 14.414062 12.480469 14.851562 C 12.480469 15.101562 12.761719 15.101562 12.792969 15.101562 C 13.417969 15.101562 14.917969 15.039062 15.542969 15.039062 C 16.136719 15.039062 17.730469 15.101562 18.324219 15.101562 C 18.480469 15.101562 18.761719 15.101562 18.761719 14.664062 C 18.761719 14.414062 18.542969 14.414062 18.136719 14.414062 C 18.105469 14.414062 17.667969 14.414062 17.292969 14.382812 C 16.855469 14.351562 16.730469 14.289062 16.730469 14.039062 C 16.730469 13.882812 16.917969 13.101562 17.011719 12.664062 L 17.792969 9.570312 C 17.886719 9.164062 17.917969 9.101562 18.105469 8.914062 Z M 23.511719 2.695312 "/>
<path fill="none" stroke-width="11.9553" stroke-linecap="butt" stroke-linejoin="miter" stroke="rgb(0%, 0%, 0%)" stroke-opacity="1" stroke-miterlimit="10" d="M 8.007812 321.601558 L 1790.039036 321.601558 " transform="matrix(0.2, 0, 0, -0.2, 0, 356)"/>
<path fill="none" stroke-width="11.9553" stroke-linecap="butt" stroke-linejoin="miter" stroke="rgb(0%, 0%, 0%)" stroke-opacity="1" stroke-miterlimit="10" d="M 169.999997 177.617185 L 169.999997 1761.601536 " transform="matrix(0.2, 0, 0, -0.2, 0, 356)"/>
<path fill-rule="nonzero" fill="rgb(0%, 0%, 0%)" fill-opacity="1" d="M 151.597656 348.300781 C 152.785156 347.894531 154.785156 347.300781 154.785156 345.363281 C 154.785156 343.050781 152.066406 341.988281 150.097656 341.988281 C 149.160156 341.988281 148.191406 342.207031 147.347656 342.707031 C 147.222656 342.769531 147.066406 342.957031 146.910156 342.957031 C 146.597656 342.957031 146.035156 341.988281 145.722656 341.988281 C 145.535156 341.988281 145.503906 342.207031 145.503906 342.300781 L 145.503906 345.863281 C 145.503906 345.988281 145.597656 346.144531 145.785156 346.144531 C 146.097656 346.144531 146.066406 345.519531 146.160156 345.175781 C 146.628906 343.457031 148.191406 342.707031 149.691406 342.613281 L 150.097656 342.613281 C 151.441406 342.613281 153.003906 343.488281 153.003906 345.363281 C 153.003906 347.175781 151.222656 348.113281 149.566406 348.113281 C 149.253906 348.113281 148.941406 348.113281 148.628906 348.113281 L 148.472656 348.113281 C 148.285156 348.113281 148.066406 348.113281 148.066406 348.332031 L 148.066406 348.363281 C 148.097656 348.550781 148.285156 348.582031 148.472656 348.582031 L 150.316406 348.582031 C 151.878906 348.707031 153.316406 349.738281 153.472656 351.363281 L 153.472656 351.582031 C 153.472656 353.425781 151.753906 354.582031 150.003906 354.582031 C 148.097656 354.582031 146.128906 353.957031 145.816406 351.582031 C 145.816406 351.425781 145.753906 351.238281 145.535156 351.238281 C 145.316406 351.269531 145.285156 351.425781 145.285156 351.582031 C 145.285156 354.175781 147.878906 355.207031 150.128906 355.207031 C 152.191406 355.207031 155.066406 354.238281 155.316406 351.769531 L 155.316406 351.644531 C 155.316406 349.675781 153.253906 348.707031 151.597656 348.300781 Z M 151.597656 348.300781 "/>
<path fill-rule="nonzero" fill="rgb(0%, 0%, 0%)" fill-opacity="1" d="M 163.695312 341.988281 C 160.320312 342.394531 157.632812 345.050781 157.632812 348.644531 C 157.632812 351.925781 160.226562 355.175781 164.101562 355.175781 C 167.601562 355.175781 170.570312 352.269531 170.570312 348.644531 C 170.570312 345.457031 168.070312 341.988281 164.132812 341.988281 C 164.007812 341.988281 163.851562 341.988281 163.695312 341.988281 Z M 159.507812 348.863281 L 159.507812 348.519531 C 159.507812 346.019531 160.414062 343.082031 163.570312 342.550781 C 163.757812 342.519531 163.914062 342.519531 164.101562 342.519531 C 166.914062 342.519531 168.664062 345.238281 168.664062 348.269531 C 168.664062 350.675781 167.945312 353.738281 164.976562 354.519531 C 164.695312 354.582031 164.414062 354.613281 164.132812 354.613281 L 163.945312 354.613281 C 161.351562 354.519531 159.945312 352.050781 159.601562 349.644531 Z M 159.507812 348.863281 "/>
<path fill-rule="nonzero" fill="rgb(0%, 0%, 0%)" fill-opacity="1" d="M 173.027344 342.332031 L 173.027344 342.925781 L 173.464844 342.925781 C 174.058594 342.925781 174.683594 343.019531 174.683594 343.894531 L 174.683594 353.363281 C 174.683594 354.207031 173.964844 354.238281 173.308594 354.238281 L 173.027344 354.238281 L 173.027344 354.832031 L 178.808594 354.832031 C 179.214844 354.832031 179.589844 354.863281 179.996094 354.863281 C 181.996094 354.863281 184.339844 353.925781 184.558594 351.519531 L 184.558594 351.332031 C 184.558594 348.800781 181.683594 347.769531 179.777344 347.769531 C 178.527344 347.769531 177.339844 347.894531 176.152344 347.988281 L 176.152344 343.769531 C 176.152344 343.332031 176.214844 342.925781 176.996094 342.925781 L 179.308594 342.925781 C 180.277344 342.925781 181.371094 342.988281 182.089844 343.707031 C 182.777344 344.425781 182.871094 345.644531 182.964844 346.582031 L 183.496094 346.582031 L 183.027344 342.332031 Z M 176.152344 348.613281 C 176.402344 348.613281 176.652344 348.550781 176.902344 348.519531 L 178.277344 348.457031 C 178.558594 348.425781 178.839844 348.394531 179.152344 348.394531 C 180.714844 348.394531 182.683594 349.394531 182.683594 351.238281 C 182.683594 352.988281 181.339844 354.269531 179.339844 354.269531 C 179.058594 354.269531 178.746094 354.238281 178.496094 354.238281 L 176.964844 354.238281 C 176.496094 354.238281 176.246094 354.207031 176.152344 353.582031 Z M 176.152344 348.613281 "/>
<path fill-rule="nonzero" fill="rgb(0%, 0%, 0%)" fill-opacity="1" d="M 186.90625 342.332031 L 186.90625 342.925781 L 187.375 342.925781 C 187.96875 342.925781 188.5625 343.019531 188.5625 343.894531 L 188.5625 353.363281 C 188.5625 354.207031 187.875 354.238281 187.1875 354.238281 L 186.90625 354.238281 L 186.90625 354.832031 L 191.8125 354.832031 L 191.8125 354.238281 L 191.375 354.238281 C 190.75 354.238281 190.15625 354.175781 190.15625 353.300781 L 190.15625 349.113281 L 193.875 349.113281 C 195.65625 348.988281 197.9375 347.800781 197.9375 345.769531 C 197.9375 343.550781 195.59375 342.488281 193.6875 342.332031 Z M 190.125 348.582031 L 190.125 343.582031 C 190.21875 342.988281 190.46875 342.925781 190.875 342.925781 L 192.3125 342.925781 C 193.9375 342.925781 196.0625 342.988281 196.0625 345.769531 C 196.0625 346.425781 195.96875 347.113281 195.5625 347.613281 C 194.90625 348.394531 193.8125 348.582031 192.84375 348.582031 Z M 190.125 348.582031 "/>
<path fill-rule="nonzero" fill="rgb(0%, 0%, 0%)" fill-opacity="1" d="M 202.632812 352.550781 C 202.132812 352.644531 201.632812 353.082031 201.632812 353.675781 C 201.632812 354.300781 202.164062 354.832031 202.789062 354.832031 C 203.414062 354.832031 203.976562 354.363281 203.976562 353.707031 C 203.976562 353.082031 203.445312 352.519531 202.820312 352.519531 C 202.757812 352.519531 202.695312 352.550781 202.632812 352.550781 Z M 202.632812 352.550781 "/>
<path fill-rule="nonzero" fill="rgb(0%, 0%, 0%)" fill-opacity="1" d="M 218.035156 341.113281 C 218.722656 340.050781 220.097656 339.519531 221.378906 339.519531 C 222.816406 339.519531 223.972656 340.425781 223.972656 342.269531 C 223.972656 343.800781 223.222656 345.675781 221.628906 346.082031 C 221.066406 346.238281 219.566406 346.082031 219.566406 346.519531 C 219.566406 346.707031 219.753906 346.769531 219.941406 346.769531 L 221.222656 346.769531 C 223.566406 346.769531 224.441406 348.738281 224.441406 350.550781 C 224.441406 352.300781 223.816406 354.707031 221.410156 354.707031 C 219.816406 354.707031 218.285156 353.988281 217.410156 352.582031 L 217.628906 352.582031 C 218.316406 352.582031 218.910156 352.175781 218.910156 351.425781 C 218.910156 350.707031 218.378906 350.238281 217.691406 350.238281 L 217.597656 350.238281 C 216.941406 350.269531 216.503906 350.800781 216.503906 351.425781 C 216.503906 353.894531 219.066406 355.332031 221.503906 355.332031 C 224.097656 355.332031 226.660156 353.488281 226.660156 350.738281 C 226.660156 348.613281 224.628906 346.550781 222.410156 346.457031 C 224.285156 345.800781 225.972656 344.425781 225.972656 342.269531 C 225.972656 340.082031 223.566406 338.957031 221.535156 338.957031 C 219.660156 338.957031 217.191406 339.863281 217.191406 342.113281 C 217.191406 342.675781 217.441406 343.175781 218.191406 343.300781 L 218.285156 343.300781 C 218.941406 343.300781 219.410156 342.863281 219.410156 342.207031 C 219.410156 341.488281 218.847656 341.082031 218.253906 341.082031 C 218.191406 341.082031 218.128906 341.113281 218.035156 341.113281 Z M 218.035156 341.113281 "/>
<path fill-rule="nonzero" fill="rgb(0%, 0%, 0%)" fill-opacity="1" d="M 230.246094 342.332031 C 230.652344 340.769531 232.058594 339.644531 233.683594 339.644531 C 235.933594 339.644531 237.183594 341.613281 237.183594 343.550781 C 237.183594 345.238281 236.246094 346.738281 235.214844 347.988281 C 233.527344 350.082031 231.496094 351.957031 229.714844 353.925781 C 229.558594 354.113281 229.402344 354.269531 229.402344 354.519531 C 229.402344 354.613281 229.433594 354.738281 229.433594 354.832031 L 238.558594 354.832031 L 239.183594 350.832031 L 238.652344 350.832031 C 238.464844 351.800781 238.527344 353.082031 237.527344 353.082031 C 237.308594 353.113281 237.121094 353.113281 236.933594 353.113281 L 236.339844 353.113281 C 235.996094 353.144531 235.621094 353.144531 235.308594 353.144531 L 231.152344 353.144531 C 232.652344 351.644531 234.277344 350.175781 235.902344 348.800781 C 237.433594 347.488281 239.027344 345.957031 239.183594 343.832031 L 239.183594 343.519531 C 239.183594 340.800781 236.839844 338.957031 233.996094 338.957031 C 231.652344 338.957031 229.433594 340.863281 229.433594 343.300781 C 229.433594 344.113281 229.902344 344.582031 230.589844 344.582031 C 231.214844 344.582031 231.714844 344.113281 231.714844 343.425781 C 231.714844 342.800781 231.246094 342.300781 230.527344 342.300781 C 230.433594 342.300781 230.339844 342.300781 230.246094 342.332031 Z M 230.246094 342.332031 "/>
<path fill-rule="nonzero" fill="rgb(0%, 0%, 0%)" fill-opacity="1" d="M 244.140625 352.550781 C 243.640625 352.644531 243.140625 353.082031 243.140625 353.675781 C 243.140625 354.300781 243.671875 354.832031 244.296875 354.832031 C 244.921875 354.832031 245.484375 354.363281 245.484375 353.707031 C 245.484375 353.082031 244.953125 352.519531 244.328125 352.519531 C 244.265625 352.519531 244.203125 352.550781 244.140625 352.550781 Z M 244.140625 352.550781 "/>
</svg>
