<?xml version="1.0" encoding="UTF-8"?>
<svg xmlns="http://www.w3.org/2000/svg" xmlns:xlink="http://www.w3.org/1999/xlink" width="364" height="356" viewBox="0 0 364 356">
<path fill="none" stroke-width="11.9553" stroke-linecap="butt" stroke-linejoin="miter" stroke="rgb(0%, 0%, 0%)" stroke-opacity="1" stroke-miterlimit="10" d="M 119.374998 632.499991 L 161.13281 723.867177 L 202.890622 803.281238 L 244.687496 872.968737 L 286.445308 934.609361 L 328.20312 989.531235 L 369.960932 1038.789047 L 411.718744 1083.203109 L 453.515618 1123.437483 L 495.27343 1160.078108 L 537.031242 1193.55467 L 578.789054 1224.296857 L 620.546866 1252.617169 L 662.34374 1278.789043 L 704.101552 1303.046856 L 745.859364 1325.585918 L 787.656238 1346.56248 L 829.41405 1366.210917 L 871.171862 1384.531229 L 912.929674 1401.796854 L 954.687486 1417.968729 L 996.445298 1433.242166 L 1038.242172 1447.617166 L 1079.999984 1461.210916 L 1121.757796 1474.062478 L 1163.515608 1486.28904 L 1205.312482 1497.85154 L 1247.070294 1508.867165 L 1288.828106 1519.335915 L 1330.585918 1529.296852 L 1372.34373 1538.828102 L 1414.140604 1547.890602 L 1455.898416 1556.601539 L 1497.656228 1564.882789 L 1539.41404 1572.851539 L 1581.171851 1580.468726 L 1622.968726 1587.812476 L 1664.726538 1594.843726 L 1706.48435 1601.601539 L 1748.242161 1608.085914 L 1790.039036 1614.335913 " transform="matrix(0.2, 0, 0, -0.2, 0, 356)"/>
<path fill="none" stroke-width="11.9553" stroke-linecap="butt" stroke-linejoin="miter" stroke="rgb(0%, 0%, 0%)" stroke-opacity="1" stroke-miterlimit="10" d="M 169.999997 741.601551 L 453.515618 741.601551 " transform="matrix(0.2, 0, 0, -0.2, 0, 356)"/>
<path fill="none" stroke-width="11.9553" stroke-linecap="butt" stroke-linejoin="miter" stroke="rgb(0%, 0%, 0%)" stroke-opacity="1" stroke-miterlimit="10" d="M 453.515618 1123.437483 L 453.515618 741.601551 " transform="matrix(0.2, 0, 0, -0.2, 0, 356)"/>
<path fill="none" stroke-width="7.9701" stroke-linecap="butt" stroke-linejoin="miter" stroke="rgb(0%, 0%, 0%)" stroke-opacity="1" stroke-miterlimit="10" d="M 453.515618 741.601551 L 453.515618 715.351552 " transform="matrix(0.2, 0, 0, -0.2, 0, 356)"/>
<path fill="none" stroke-width="7.9701" stroke-linecap="butt" stroke-linejoin="miter" stroke="rgb(0%, 0%, 0%)" stroke-opacity="1" stroke-miterlimit="10" d="M 453.515618 662.851553 L 453.515618 636.601553 " transform="matrix(0.2, 0, 0, -0.2, 0, 356)"/>
<path fill="none" stroke-width="7.9701" stroke-linecap="butt" stroke-linejoin="miter" stroke="rgb(0%, 0%, 0%)" stroke-opacity="1" stroke-miterlimit="10" d="M 453.515618 636.601553 L 453.515618 610.351553 " transform="matrix(0.2, 0, 0, -0.2, 0, 356)"/>
<path fill="none" stroke-width="7.9701" stroke-linecap="butt" stroke-linejoin="miter" stroke="rgb(0%, 0%, 0%)" stroke-opacity="1" stroke-miterlimit="10" d="M 453.515618 557.851554 L 453.515618 531.601555 " transform="matrix(0.2, 0, 0, -0.2, 0, 356)"/>
<path fill="none" stroke-width="7.9701" stroke-linecap="butt" stroke-linejoin="miter" stroke="rgb(0%, 0%, 0%)" stroke-opacity="1" stroke-miterlimit="10" d="M 453.515618 531.601555 L 453.515618 505.351555 " transform="matrix(0.2, 0, 0, -0.2, 0, 356)"/>
<path fill="none" stroke-width="7.9701" stroke-linecap="butt" stroke-linejoin="miter" stroke="rgb(0%, 0%, 0%)" stroke-opacity="1" stroke-miterlimit="10" d="M 453.515618 452.851556 L 453.515618 426.601556 " transform="matrix(0.2, 0, 0, -0.2, 0, 356)"/>
<path fill="none" stroke-width="7.9701" stroke-linecap="butt" stroke-linejoin="miter" stroke="rgb(0%, 0%, 0%)" stroke-opacity="1" stroke-miterlimit="10" d="M 453.515618 426.601556 L 453.515618 400.351557 " transform="matrix(0.2, 0, 0, -0.2, 0, 356)"/>
<path fill="none" stroke-width="7.9701" stroke-linecap="butt" stroke-linejoin="miter" stroke="rgb(0%, 0%, 0%)" stroke-opacity="1" stroke-miterlimit="10" d="M 453.515618 347.851557 L 453.515618 321.601558 " transform="matrix(0.2, 0, 0, -0.2, 0, 356)"/>
<path fill="none" stroke-width="11.9553" stroke-linecap="butt" stroke-linejoin="miter" stroke="rgb(0%, 0%, 0%)" stroke-opacity="1" stroke-miterlimit="10" d="M 453.515618 1123.437483 L 737.031239 1123.437483 " transform="matrix(0.2, 0, 0, -0.2, 0, 356)"/>
<path fill="none" stroke-width="11.9553" stroke-linecap="butt" stroke-linejoin="miter" stroke="rgb(0%, 0%, 0%)" stroke-opacity="1" stroke-miterlimit="10" d="M 737.031239 1320.93748 L 737.031239 1123.437483 " transform="matrix(0.2, 0, 0, -0.2, 0, 356)"/>
<path fill="none" stroke-width="7.9701" stroke-linecap="butt" stroke-linejoin="miter" stroke="rgb(0%, 0%, 0%)" stroke-opacity="1" stroke-miterlimit="10" d="M 737.031239 1123.437483 L 737.031239 1094.804671 " transform="matrix(0.2, 0, 0, -0.2, 0, 356)"/>
<path fill="none" stroke-width="7.9701" stroke-linecap="butt" stroke-linejoin="miter" stroke="rgb(0%, 0%, 0%)" stroke-opacity="1" stroke-miterlimit="10" d="M 737.031239 1037.539047 L 737.031239 1008.867172 " transform="matrix(0.2, 0, 0, -0.2, 0, 356)"/>
<path fill="none" stroke-width="7.9701" stroke-linecap="butt" stroke-linejoin="miter" stroke="rgb(0%, 0%, 0%)" stroke-opacity="1" stroke-miterlimit="10" d="M 737.031239 1008.867172 L 737.031239 980.23436 " transform="matrix(0.2, 0, 0, -0.2, 0, 356)"/>
<path fill="none" stroke-width="7.9701" stroke-linecap="butt" stroke-linejoin="miter" stroke="rgb(0%, 0%, 0%)" stroke-opacity="1" stroke-miterlimit="10" d="M 737.031239 922.968736 L 737.031239 894.335924 " transform="matrix(0.2, 0, 0, -0.2, 0, 356)"/>
<path fill="none" stroke-width="7.9701" stroke-linecap="butt" stroke-linejoin="miter" stroke="rgb(0%, 0%, 0%)" stroke-opacity="1" stroke-miterlimit="10" d="M 737.031239 894.335924 L 737.031239 865.703112 " transform="matrix(0.2, 0, 0, -0.2, 0, 356)"/>
<path fill="none" stroke-width="7.9701" stroke-linecap="butt" stroke-linejoin="miter" stroke="rgb(0%, 0%, 0%)" stroke-opacity="1" stroke-miterlimit="10" d="M 737.031239 808.437488 L 737.031239 779.804676 " transform="matrix(0.2, 0, 0, -0.2, 0, 356)"/>
<path fill="none" stroke-width="7.9701" stroke-linecap="butt" stroke-linejoin="miter" stroke="rgb(0%, 0%, 0%)" stroke-opacity="1" stroke-miterlimit="10" d="M 737.031239 779.804676 L 737.031239 751.132801 " transform="matrix(0.2, 0, 0, -0.2, 0, 356)"/>
<path fill="none" stroke-width="7.9701" stroke-linecap="butt" stroke-linejoin="miter" stroke="rgb(0%, 0%, 0%)" stroke-opacity="1" stroke-miterlimit="10" d="M 737.031239 693.867177 L 737.031239 665.234365 " transform="matrix(0.2, 0, 0, -0.2, 0, 356)"/>
<path fill="none" stroke-width="7.9701" stroke-linecap="butt" stroke-linejoin="miter" stroke="rgb(0%, 0%, 0%)" stroke-opacity="1" stroke-miterlimit="10" d="M 737.031239 665.234365 L 737.031239 636.601553 " transform="matrix(0.2, 0, 0, -0.2, 0, 356)"/>
<path fill="none" stroke-width="7.9701" stroke-linecap="butt" stroke-linejoin="miter" stroke="rgb(0%, 0%, 0%)" stroke-opacity="1" stroke-miterlimit="10" d="M 737.031239 579.335929 L 737.031239 550.703117 " transform="matrix(0.2, 0, 0, -0.2, 0, 356)"/>
<path fill="none" stroke-width="7.9701" stroke-linecap="butt" stroke-linejoin="miter" stroke="rgb(0%, 0%, 0%)" stroke-opacity="1" stroke-miterlimit="10" d="M 737.031239 550.703117 L 737.031239 522.070305 " transform="matrix(0.2, 0, 0, -0.2, 0, 356)"/>
<path fill="none" stroke-width="7.9701" stroke-linecap="butt" stroke-linejoin="miter" stroke="rgb(0%, 0%, 0%)" stroke-opacity="1" stroke-miterlimit="10" d="M 737.031239 464.765618 L 737.031239 436.132806 " transform="matrix(0.2, 0, 0, -0.2, 0, 356)"/>
<path fill="none" stroke-width="7.9701" stroke-linecap="butt" stroke-linejoin="miter" stroke="rgb(0%, 0%, 0%)" stroke-opacity="1" stroke-miterlimit="10" d="M 737.031239 436.132806 L 737.031239 407.499994 " transform="matrix(0.2, 0, 0, -0.2, 0, 356)"/>
<path fill="none" stroke-width="7.9701" stroke-linecap="butt" stroke-linejoin="miter" stroke="rgb(0%, 0%, 0%)" stroke-opacity="1" stroke-miterlimit="10" d="M 737.031239 350.23437 L 737.031239 321.601558 " transform="matrix(0.2, 0, 0, -0.2, 0, 356)"/>
<path fill="none" stroke-width="11.9553" stroke-linecap="butt" stroke-linejoin="miter" stroke="rgb(0%, 0%, 0%)" stroke-opacity="1" stroke-miterlimit="10" d="M 737.031239 1320.93748 L 1020.507797 1320.93748 " transform="matrix(0.2, 0, 0, -0.2, 0, 356)"/>
<path fill="none" stroke-width="11.9553" stroke-linecap="butt" stroke-linejoin="miter" stroke="rgb(0%, 0%, 0%)" stroke-opacity="1" stroke-miterlimit="10" d="M 1020.507797 1441.601541 L 1020.507797 1320.93748 " transform="matrix(0.2, 0, 0, -0.2, 0, 356)"/>
<path fill="none" stroke-width="7.9701" stroke-linecap="butt" stroke-linejoin="miter" stroke="rgb(0%, 0%, 0%)" stroke-opacity="1" stroke-miterlimit="10" d="M 1020.507797 1320.93748 L 1020.507797 1293.164043 " transform="matrix(0.2, 0, 0, -0.2, 0, 356)"/>
<path fill="none" stroke-width="7.9701" stroke-linecap="butt" stroke-linejoin="miter" stroke="rgb(0%, 0%, 0%)" stroke-opacity="1" stroke-miterlimit="10" d="M 1020.507797 1237.656232 L 1020.507797 1209.882794 " transform="matrix(0.2, 0, 0, -0.2, 0, 356)"/>
<path fill="none" stroke-width="7.9701" stroke-linecap="butt" stroke-linejoin="miter" stroke="rgb(0%, 0%, 0%)" stroke-opacity="1" stroke-miterlimit="10" d="M 1020.507797 1209.882794 L 1020.507797 1182.14842 " transform="matrix(0.2, 0, 0, -0.2, 0, 356)"/>
<path fill="none" stroke-width="7.9701" stroke-linecap="butt" stroke-linejoin="miter" stroke="rgb(0%, 0%, 0%)" stroke-opacity="1" stroke-miterlimit="10" d="M 1020.507797 1126.601546 L 1020.507797 1098.867171 " transform="matrix(0.2, 0, 0, -0.2, 0, 356)"/>
<path fill="none" stroke-width="7.9701" stroke-linecap="butt" stroke-linejoin="miter" stroke="rgb(0%, 0%, 0%)" stroke-opacity="1" stroke-miterlimit="10" d="M 1020.507797 1098.867171 L 1020.507797 1071.093734 " transform="matrix(0.2, 0, 0, -0.2, 0, 356)"/>
<path fill="none" stroke-width="7.9701" stroke-linecap="butt" stroke-linejoin="miter" stroke="rgb(0%, 0%, 0%)" stroke-opacity="1" stroke-miterlimit="10" d="M 1020.507797 1015.585922 L 1020.507797 987.812485 " transform="matrix(0.2, 0, 0, -0.2, 0, 356)"/>
<path fill="none" stroke-width="7.9701" stroke-linecap="butt" stroke-linejoin="miter" stroke="rgb(0%, 0%, 0%)" stroke-opacity="1" stroke-miterlimit="10" d="M 1020.507797 987.812485 L 1020.507797 960.078111 " transform="matrix(0.2, 0, 0, -0.2, 0, 356)"/>
<path fill="none" stroke-width="7.9701" stroke-linecap="butt" stroke-linejoin="miter" stroke="rgb(0%, 0%, 0%)" stroke-opacity="1" stroke-miterlimit="10" d="M 1020.507797 904.531237 L 1020.507797 876.757799 " transform="matrix(0.2, 0, 0, -0.2, 0, 356)"/>
<path fill="none" stroke-width="7.9701" stroke-linecap="butt" stroke-linejoin="miter" stroke="rgb(0%, 0%, 0%)" stroke-opacity="1" stroke-miterlimit="10" d="M 1020.507797 876.757799 L 1020.507797 849.023425 " transform="matrix(0.2, 0, 0, -0.2, 0, 356)"/>
<path fill="none" stroke-width="7.9701" stroke-linecap="butt" stroke-linejoin="miter" stroke="rgb(0%, 0%, 0%)" stroke-opacity="1" stroke-miterlimit="10" d="M 1020.507797 793.515613 L 1020.507797 765.742176 " transform="matrix(0.2, 0, 0, -0.2, 0, 356)"/>
<path fill="none" stroke-width="7.9701" stroke-linecap="butt" stroke-linejoin="miter" stroke="rgb(0%, 0%, 0%)" stroke-opacity="1" stroke-miterlimit="10" d="M 1020.507797 765.742176 L 1020.507797 737.968739 " transform="matrix(0.2, 0, 0, -0.2, 0, 356)"/>
<path fill="none" stroke-width="7.9701" stroke-linecap="butt" stroke-linejoin="miter" stroke="rgb(0%, 0%, 0%)" stroke-opacity="1" stroke-miterlimit="10" d="M 1020.507797 682.460927 L 1020.507797 654.726553 " transform="matrix(0.2, 0, 0, -0.2, 0, 356)"/>
<path fill="none" stroke-width="7.9701" stroke-linecap="butt" stroke-linejoin="miter" stroke="rgb(0%, 0%, 0%)" stroke-opacity="1" stroke-miterlimit="10" d="M 1020.507797 654.726553 L 1020.507797 626.953116 " transform="matrix(0.2, 0, 0, -0.2, 0, 356)"/>
<path fill="none" stroke-width="7.9701" stroke-linecap="butt" stroke-linejoin="miter" stroke="rgb(0%, 0%, 0%)" stroke-opacity="1" stroke-miterlimit="10" d="M 1020.507797 571.445304 L 1020.507797 543.671867 " transform="matrix(0.2, 0, 0, -0.2, 0, 356)"/>
<path fill="none" stroke-width="7.9701" stroke-linecap="butt" stroke-linejoin="miter" stroke="rgb(0%, 0%, 0%)" stroke-opacity="1" stroke-miterlimit="10" d="M 1020.507797 543.671867 L 1020.507797 515.937492 " transform="matrix(0.2, 0, 0, -0.2, 0, 356)"/>
<path fill="none" stroke-width="7.9701" stroke-linecap="butt" stroke-linejoin="miter" stroke="rgb(0%, 0%, 0%)" stroke-opacity="1" stroke-miterlimit="10" d="M 1020.507797 460.390618 L 1020.507797 432.656244 " transform="matrix(0.2, 0, 0, -0.2, 0, 356)"/>
<path fill="none" stroke-width="7.9701" stroke-linecap="butt" stroke-linejoin="miter" stroke="rgb(0%, 0%, 0%)" stroke-opacity="1" stroke-miterlimit="10" d="M 1020.507797 432.656244 L 1020.507797 404.882806 " transform="matrix(0.2, 0, 0, -0.2, 0, 356)"/>
<path fill="none" stroke-width="7.9701" stroke-linecap="butt" stroke-linejoin="miter" stroke="rgb(0%, 0%, 0%)" stroke-opacity="1" stroke-miterlimit="10" d="M 1020.507797 349.374995 L 1020.507797 321.601558 " transform="matrix(0.2, 0, 0, -0.2, 0, 356)"/>
<path fill="none" stroke-width="11.9553" stroke-linecap="butt" stroke-linejoin="miter" stroke="rgb(0%, 0%, 0%)" stroke-opacity="1" stroke-miterlimit="10" d="M 1020.507797 1441.601541 L 1304.023418 1441.601541 " transform="matrix(0.2, 0, 0, -0.2, 0, 356)"/>
<path fill="none" stroke-width="11.9553" stroke-linecap="butt" stroke-linejoin="miter" stroke="rgb(0%, 0%, 0%)" stroke-opacity="1" stroke-miterlimit="10" d="M 1304.023418 1523.00779 L 1304.023418 1441.601541 " transform="matrix(0.2, 0, 0, -0.2, 0, 356)"/>
<path fill="none" stroke-width="7.9701" stroke-linecap="butt" stroke-linejoin="miter" stroke="rgb(0%, 0%, 0%)" stroke-opacity="1" stroke-miterlimit="10" d="M 1304.023418 1441.601541 L 1304.023418 1413.593729 " transform="matrix(0.2, 0, 0, -0.2, 0, 356)"/>
<path fill="none" stroke-width="7.9701" stroke-linecap="butt" stroke-linejoin="miter" stroke="rgb(0%, 0%, 0%)" stroke-opacity="1" stroke-miterlimit="10" d="M 1304.023418 1357.617167 L 1304.023418 1329.609355 " transform="matrix(0.2, 0, 0, -0.2, 0, 356)"/>
<path fill="none" stroke-width="7.9701" stroke-linecap="butt" stroke-linejoin="miter" stroke="rgb(0%, 0%, 0%)" stroke-opacity="1" stroke-miterlimit="10" d="M 1304.023418 1329.609355 L 1304.023418 1301.601543 " transform="matrix(0.2, 0, 0, -0.2, 0, 356)"/>
<path fill="none" stroke-width="7.9701" stroke-linecap="butt" stroke-linejoin="miter" stroke="rgb(0%, 0%, 0%)" stroke-opacity="1" stroke-miterlimit="10" d="M 1304.023418 1245.624981 L 1304.023418 1217.617169 " transform="matrix(0.2, 0, 0, -0.2, 0, 356)"/>
<path fill="none" stroke-width="7.9701" stroke-linecap="butt" stroke-linejoin="miter" stroke="rgb(0%, 0%, 0%)" stroke-opacity="1" stroke-miterlimit="10" d="M 1304.023418 1217.617169 L 1304.023418 1189.609357 " transform="matrix(0.2, 0, 0, -0.2, 0, 356)"/>
<path fill="none" stroke-width="7.9701" stroke-linecap="butt" stroke-linejoin="miter" stroke="rgb(0%, 0%, 0%)" stroke-opacity="1" stroke-miterlimit="10" d="M 1304.023418 1133.593733 L 1304.023418 1105.624984 " transform="matrix(0.2, 0, 0, -0.2, 0, 356)"/>
<path fill="none" stroke-width="7.9701" stroke-linecap="butt" stroke-linejoin="miter" stroke="rgb(0%, 0%, 0%)" stroke-opacity="1" stroke-miterlimit="10" d="M 1304.023418 1105.624984 L 1304.023418 1077.617171 " transform="matrix(0.2, 0, 0, -0.2, 0, 356)"/>
<path fill="none" stroke-width="7.9701" stroke-linecap="butt" stroke-linejoin="miter" stroke="rgb(0%, 0%, 0%)" stroke-opacity="1" stroke-miterlimit="10" d="M 1304.023418 1021.601547 L 1304.023418 993.593735 " transform="matrix(0.2, 0, 0, -0.2, 0, 356)"/>
<path fill="none" stroke-width="7.9701" stroke-linecap="butt" stroke-linejoin="miter" stroke="rgb(0%, 0%, 0%)" stroke-opacity="1" stroke-miterlimit="10" d="M 1304.023418 993.593735 L 1304.023418 965.585923 " transform="matrix(0.2, 0, 0, -0.2, 0, 356)"/>
<path fill="none" stroke-width="7.9701" stroke-linecap="butt" stroke-linejoin="miter" stroke="rgb(0%, 0%, 0%)" stroke-opacity="1" stroke-miterlimit="10" d="M 1304.023418 909.609361 L 1304.023418 881.601549 " transform="matrix(0.2, 0, 0, -0.2, 0, 356)"/>
<path fill="none" stroke-width="7.9701" stroke-linecap="butt" stroke-linejoin="miter" stroke="rgb(0%, 0%, 0%)" stroke-opacity="1" stroke-miterlimit="10" d="M 1304.023418 881.601549 L 1304.023418 853.593737 " transform="matrix(0.2, 0, 0, -0.2, 0, 356)"/>
<path fill="none" stroke-width="7.9701" stroke-linecap="butt" stroke-linejoin="miter" stroke="rgb(0%, 0%, 0%)" stroke-opacity="1" stroke-miterlimit="10" d="M 1304.023418 797.617176 L 1304.023418 769.609364 " transform="matrix(0.2, 0, 0, -0.2, 0, 356)"/>
<path fill="none" stroke-width="7.9701" stroke-linecap="butt" stroke-linejoin="miter" stroke="rgb(0%, 0%, 0%)" stroke-opacity="1" stroke-miterlimit="10" d="M 1304.023418 769.609364 L 1304.023418 741.601551 " transform="matrix(0.2, 0, 0, -0.2, 0, 356)"/>
<path fill="none" stroke-width="7.9701" stroke-linecap="butt" stroke-linejoin="miter" stroke="rgb(0%, 0%, 0%)" stroke-opacity="1" stroke-miterlimit="10" d="M 1304.023418 685.585927 L 1304.023418 657.617178 " transform="matrix(0.2, 0, 0, -0.2, 0, 356)"/>
<path fill="none" stroke-width="7.9701" stroke-linecap="butt" stroke-linejoin="miter" stroke="rgb(0%, 0%, 0%)" stroke-opacity="1" stroke-miterlimit="10" d="M 1304.023418 657.617178 L 1304.023418 629.609366 " transform="matrix(0.2, 0, 0, -0.2, 0, 356)"/>
<path fill="none" stroke-width="7.9701" stroke-linecap="butt" stroke-linejoin="miter" stroke="rgb(0%, 0%, 0%)" stroke-opacity="1" stroke-miterlimit="10" d="M 1304.023418 573.593741 L 1304.023418 545.585929 " transform="matrix(0.2, 0, 0, -0.2, 0, 356)"/>
<path fill="none" stroke-width="7.9701" stroke-linecap="butt" stroke-linejoin="miter" stroke="rgb(0%, 0%, 0%)" stroke-opacity="1" stroke-miterlimit="10" d="M 1304.023418 545.585929 L 1304.023418 517.61718 " transform="matrix(0.2, 0, 0, -0.2, 0, 356)"/>
<path fill="none" stroke-width="7.9701" stroke-linecap="butt" stroke-linejoin="miter" stroke="rgb(0%, 0%, 0%)" stroke-opacity="1" stroke-miterlimit="10" d="M 1304.023418 461.601556 L 1304.023418 433.593744 " transform="matrix(0.2, 0, 0, -0.2, 0, 356)"/>
<path fill="none" stroke-width="7.9701" stroke-linecap="butt" stroke-linejoin="miter" stroke="rgb(0%, 0%, 0%)" stroke-opacity="1" stroke-miterlimit="10" d="M 1304.023418 433.593744 L 1304.023418 405.585931 " transform="matrix(0.2, 0, 0, -0.2, 0, 356)"/>
<path fill="none" stroke-width="7.9701" stroke-linecap="butt" stroke-linejoin="miter" stroke="rgb(0%, 0%, 0%)" stroke-opacity="1" stroke-miterlimit="10" d="M 1304.023418 349.60937 L 1304.023418 321.601558 " transform="matrix(0.2, 0, 0, -0.2, 0, 356)"/>
<path fill="none" stroke-width="11.9553" stroke-linecap="butt" stroke-linejoin="miter" stroke="rgb(0%, 0%, 0%)" stroke-opacity="1" stroke-miterlimit="10" d="M 1304.023418 1523.00779 L 1587.539039 1523.00779 " transform="matrix(0.2, 0, 0, -0.2, 0, 356)"/>
<path fill="none" stroke-width="11.9553" stroke-linecap="butt" stroke-linejoin="miter" stroke="rgb(0%, 0%, 0%)" stroke-opacity="1" stroke-miterlimit="10" d="M 1587.539039 1581.601539 L 1587.539039 1523.00779 " transform="matrix(0.2, 0, 0, -0.2, 0, 356)"/>
<path fill="none" stroke-width="7.9701" stroke-linecap="butt" stroke-linejoin="miter" stroke="rgb(0%, 0%, 0%)" stroke-opacity="1" stroke-miterlimit="10" d="M 1587.539039 1523.00779 L 1587.539039 1495.703103 " transform="matrix(0.2, 0, 0, -0.2, 0, 356)"/>
<path fill="none" stroke-width="7.9701" stroke-linecap="butt" stroke-linejoin="miter" stroke="rgb(0%, 0%, 0%)" stroke-opacity="1" stroke-miterlimit="10" d="M 1587.539039 1441.093729 L 1587.539039 1413.789041 " transform="matrix(0.2, 0, 0, -0.2, 0, 356)"/>
<path fill="none" stroke-width="7.9701" stroke-linecap="butt" stroke-linejoin="miter" stroke="rgb(0%, 0%, 0%)" stroke-opacity="1" stroke-miterlimit="10" d="M 1587.539039 1413.789041 L 1587.539039 1386.484354 " transform="matrix(0.2, 0, 0, -0.2, 0, 356)"/>
<path fill="none" stroke-width="7.9701" stroke-linecap="butt" stroke-linejoin="miter" stroke="rgb(0%, 0%, 0%)" stroke-opacity="1" stroke-miterlimit="10" d="M 1587.539039 1331.87498 L 1587.539039 1304.570293 " transform="matrix(0.2, 0, 0, -0.2, 0, 356)"/>
<path fill="none" stroke-width="7.9701" stroke-linecap="butt" stroke-linejoin="miter" stroke="rgb(0%, 0%, 0%)" stroke-opacity="1" stroke-miterlimit="10" d="M 1587.539039 1304.570293 L 1587.539039 1277.265606 " transform="matrix(0.2, 0, 0, -0.2, 0, 356)"/>
<path fill="none" stroke-width="7.9701" stroke-linecap="butt" stroke-linejoin="miter" stroke="rgb(0%, 0%, 0%)" stroke-opacity="1" stroke-miterlimit="10" d="M 1587.539039 1222.656232 L 1587.539039 1195.351545 " transform="matrix(0.2, 0, 0, -0.2, 0, 356)"/>
<path fill="none" stroke-width="7.9701" stroke-linecap="butt" stroke-linejoin="miter" stroke="rgb(0%, 0%, 0%)" stroke-opacity="1" stroke-miterlimit="10" d="M 1587.539039 1195.351545 L 1587.539039 1168.046858 " transform="matrix(0.2, 0, 0, -0.2, 0, 356)"/>
<path fill="none" stroke-width="7.9701" stroke-linecap="butt" stroke-linejoin="miter" stroke="rgb(0%, 0%, 0%)" stroke-opacity="1" stroke-miterlimit="10" d="M 1587.539039 1113.437483 L 1587.539039 1086.132796 " transform="matrix(0.2, 0, 0, -0.2, 0, 356)"/>
<path fill="none" stroke-width="7.9701" stroke-linecap="butt" stroke-linejoin="miter" stroke="rgb(0%, 0%, 0%)" stroke-opacity="1" stroke-miterlimit="10" d="M 1587.539039 1086.132796 L 1587.539039 1058.828109 " transform="matrix(0.2, 0, 0, -0.2, 0, 356)"/>
<path fill="none" stroke-width="7.9701" stroke-linecap="butt" stroke-linejoin="miter" stroke="rgb(0%, 0%, 0%)" stroke-opacity="1" stroke-miterlimit="10" d="M 1587.539039 1004.218735 L 1587.539039 976.914048 " transform="matrix(0.2, 0, 0, -0.2, 0, 356)"/>
<path fill="none" stroke-width="7.9701" stroke-linecap="butt" stroke-linejoin="miter" stroke="rgb(0%, 0%, 0%)" stroke-opacity="1" stroke-miterlimit="10" d="M 1587.539039 976.914048 L 1587.539039 949.609361 " transform="matrix(0.2, 0, 0, -0.2, 0, 356)"/>
<path fill="none" stroke-width="7.9701" stroke-linecap="butt" stroke-linejoin="miter" stroke="rgb(0%, 0%, 0%)" stroke-opacity="1" stroke-miterlimit="10" d="M 1587.539039 894.999987 L 1587.539039 867.6953 " transform="matrix(0.2, 0, 0, -0.2, 0, 356)"/>
<path fill="none" stroke-width="7.9701" stroke-linecap="butt" stroke-linejoin="miter" stroke="rgb(0%, 0%, 0%)" stroke-opacity="1" stroke-miterlimit="10" d="M 1587.539039 867.6953 L 1587.539039 840.390612 " transform="matrix(0.2, 0, 0, -0.2, 0, 356)"/>
<path fill="none" stroke-width="7.9701" stroke-linecap="butt" stroke-linejoin="miter" stroke="rgb(0%, 0%, 0%)" stroke-opacity="1" stroke-miterlimit="10" d="M 1587.539039 785.781238 L 1587.539039 758.476551 " transform="matrix(0.2, 0, 0, -0.2, 0, 356)"/>
<path fill="none" stroke-width="7.9701" stroke-linecap="butt" stroke-linejoin="miter" stroke="rgb(0%, 0%, 0%)" stroke-opacity="1" stroke-miterlimit="10" d="M 1587.539039 758.476551 L 1587.539039 731.171864 " transform="matrix(0.2, 0, 0, -0.2, 0, 356)"/>
<path fill="none" stroke-width="7.9701" stroke-linecap="butt" stroke-linejoin="miter" stroke="rgb(0%, 0%, 0%)" stroke-opacity="1" stroke-miterlimit="10" d="M 1587.539039 676.56249 L 1587.539039 649.257803 " transform="matrix(0.2, 0, 0, -0.2, 0, 356)"/>
<path fill="none" stroke-width="7.9701" stroke-linecap="butt" stroke-linejoin="miter" stroke="rgb(0%, 0%, 0%)" stroke-opacity="1" stroke-miterlimit="10" d="M 1587.539039 649.257803 L 1587.539039 621.953116 " transform="matrix(0.2, 0, 0, -0.2, 0, 356)"/>
<path fill="none" stroke-width="7.9701" stroke-linecap="butt" stroke-linejoin="miter" stroke="rgb(0%, 0%, 0%)" stroke-opacity="1" stroke-miterlimit="10" d="M 1587.539039 567.343742 L 1587.539039 540.039054 " transform="matrix(0.2, 0, 0, -0.2, 0, 356)"/>
<path fill="none" stroke-width="7.9701" stroke-linecap="butt" stroke-linejoin="miter" stroke="rgb(0%, 0%, 0%)" stroke-opacity="1" stroke-miterlimit="10" d="M 1587.539039 540.039054 L 1587.539039 512.734367 " transform="matrix(0.2, 0, 0, -0.2, 0, 356)"/>
<path fill="none" stroke-width="7.9701" stroke-linecap="butt" stroke-linejoin="miter" stroke="rgb(0%, 0%, 0%)" stroke-opacity="1" stroke-miterlimit="10" d="M 1587.539039 458.124993 L 1587.539039 430.820306 " transform="matrix(0.2, 0, 0, -0.2, 0, 356)"/>
<path fill="none" stroke-width="7.9701" stroke-linecap="butt" stroke-linejoin="miter" stroke="rgb(0%, 0%, 0%)" stroke-opacity="1" stroke-miterlimit="10" d="M 1587.539039 430.820306 L 1587.539039 403.515619 " transform="matrix(0.2, 0, 0, -0.2, 0, 356)"/>
<path fill="none" stroke-width="7.9701" stroke-linecap="butt" stroke-linejoin="miter" stroke="rgb(0%, 0%, 0%)" stroke-opacity="1" stroke-miterlimit="10" d="M 1587.539039 348.906245 L 1587.539039 321.601558 " transform="matrix(0.2, 0, 0, -0.2, 0, 356)"/>
<path fill-rule="nonzero" fill="rgb(100%, 100%, 100%)" fill-opacity="1" d="M 4.695312 291.703125 L 33.976562 291.703125 L 33.976562 318.585938 L 4.695312 318.585938 Z M 4.695312 291.703125 "/>
<path fill-rule="nonzero" fill="rgb(0%, 0%, 0%)" fill-opacity="1" d="M 26.875 303.058594 C 26.875 299.527344 24.5625 297.183594 21.3125 297.183594 C 16.59375 297.183594 11.78125 302.121094 11.78125 307.214844 C 11.78125 310.839844 14.21875 313.027344 17.375 313.027344 C 22 313.027344 26.875 308.246094 26.875 303.058594 Z M 17.5 312.464844 C 15.34375 312.464844 13.8125 310.714844 13.8125 307.839844 C 13.8125 306.871094 14.125 303.683594 15.8125 301.121094 C 17.3125 298.871094 19.4375 297.714844 21.15625 297.714844 C 22.96875 297.714844 24.90625 298.933594 24.90625 302.183594 C 24.90625 303.777344 24.34375 307.183594 22.15625 309.839844 C 21.125 311.183594 19.34375 312.464844 17.5 312.464844 Z M 17.5 312.464844 "/>
<path fill-rule="nonzero" fill="rgb(100%, 100%, 100%)" fill-opacity="1" d="M 338.15625 291.703125 L 370.078125 291.703125 L 370.078125 318.585938 L 338.15625 318.585938 Z M 338.15625 291.703125 "/>
<path fill-rule="nonzero" fill="rgb(0%, 0%, 0%)" fill-opacity="1" d="M 354.773438 303.589844 L 352.929688 299.246094 C 352.867188 299.089844 352.804688 298.996094 352.804688 298.964844 C 352.804688 298.839844 353.179688 298.433594 354.117188 298.339844 C 354.335938 298.308594 354.554688 298.308594 354.554688 297.933594 C 354.554688 297.652344 354.273438 297.652344 354.210938 297.652344 C 353.304688 297.652344 352.367188 297.714844 351.460938 297.714844 C 350.929688 297.714844 349.554688 297.652344 349.023438 297.652344 C 348.898438 297.652344 348.617188 297.652344 348.617188 298.089844 C 348.617188 298.339844 348.835938 298.339844 349.117188 298.339844 C 350.429688 298.339844 350.585938 298.558594 350.773438 299.027344 L 353.335938 305.121094 L 348.742188 310.058594 L 348.460938 310.308594 C 347.398438 311.464844 346.367188 311.808594 345.242188 311.871094 C 344.960938 311.902344 344.773438 311.902344 344.773438 312.308594 C 344.773438 312.339844 344.773438 312.558594 345.054688 312.558594 C 345.710938 312.558594 346.429688 312.496094 347.117188 312.496094 C 347.898438 312.496094 348.773438 312.558594 349.554688 312.558594 C 349.679688 312.558594 349.929688 312.558594 349.929688 312.121094 C 349.929688 311.902344 349.710938 311.871094 349.679688 311.871094 C 349.492188 311.871094 348.804688 311.808594 348.804688 311.214844 C 348.804688 310.871094 349.117188 310.496094 349.398438 310.214844 L 351.617188 307.871094 L 353.585938 305.746094 L 355.773438 310.933594 C 355.867188 311.183594 355.898438 311.214844 355.898438 311.246094 C 355.898438 311.433594 355.492188 311.808594 354.617188 311.871094 C 354.398438 311.902344 354.179688 311.933594 354.179688 312.308594 C 354.179688 312.558594 354.429688 312.558594 354.523438 312.558594 C 355.117188 312.558594 356.648438 312.496094 357.273438 312.496094 C 357.804688 312.496094 359.148438 312.558594 359.679688 312.558594 C 359.835938 312.558594 360.117188 312.558594 360.117188 312.152344 C 360.117188 311.871094 359.898438 311.871094 359.710938 311.871094 C 358.242188 311.871094 358.210938 311.808594 357.835938 310.933594 C 356.992188 308.902344 355.523438 305.496094 355.023438 304.183594 C 356.492188 302.652344 358.804688 300.058594 359.492188 299.464844 C 360.117188 298.933594 360.960938 298.402344 362.273438 298.339844 C 362.554688 298.308594 362.742188 298.308594 362.742188 297.902344 C 362.742188 297.871094 362.742188 297.652344 362.460938 297.652344 C 361.804688 297.652344 361.085938 297.714844 360.398438 297.714844 C 359.585938 297.714844 358.773438 297.652344 357.992188 297.652344 C 357.867188 297.652344 357.585938 297.652344 357.585938 298.089844 C 357.585938 298.246094 357.679688 298.308594 357.835938 298.339844 C 358.023438 298.371094 358.710938 298.402344 358.710938 299.027344 C 358.710938 299.308594 358.460938 299.589844 358.304688 299.808594 Z M 354.773438 303.589844 "/>
<path fill-rule="nonzero" fill="rgb(100%, 100%, 100%)" fill-opacity="1" d="M 4.453125 -5.757812 L 33.976562 -5.757812 L 33.976562 21.125 L 4.453125 21.125 Z M 4.453125 -5.757812 "/>
<path fill-rule="nonzero" fill="rgb(0%, 0%, 0%)" fill-opacity="1" d="M 23.511719 2.695312 L 23.792969 2.382812 C 24.449219 1.726562 25.167969 0.976562 26.667969 0.882812 C 26.917969 0.851562 27.105469 0.851562 27.105469 0.476562 C 27.105469 0.289062 26.980469 0.195312 26.824219 0.195312 C 26.261719 0.195312 25.605469 0.257812 25.042969 0.257812 C 24.324219 0.257812 23.542969 0.195312 22.855469 0.195312 C 22.730469 0.195312 22.449219 0.195312 22.449219 0.632812 C 22.449219 0.851562 22.636719 0.882812 22.761719 0.882812 C 22.917969 0.882812 23.542969 0.914062 23.542969 1.382812 C 23.542969 1.757812 23.042969 2.320312 22.949219 2.414062 L 17.886719 8.257812 L 15.511719 1.789062 C 15.355469 1.476562 15.355469 1.414062 15.355469 1.414062 C 15.355469 0.882812 16.449219 0.882812 16.667969 0.882812 C 16.949219 0.882812 17.167969 0.882812 17.167969 0.445312 C 17.167969 0.195312 16.917969 0.195312 16.855469 0.195312 C 16.230469 0.195312 14.699219 0.257812 14.105469 0.257812 C 13.542969 0.257812 12.199219 0.195312 11.667969 0.195312 C 11.542969 0.195312 11.230469 0.195312 11.230469 0.632812 C 11.230469 0.882812 11.449219 0.882812 11.730469 0.882812 C 13.042969 0.882812 13.136719 1.070312 13.324219 1.632812 L 16.011719 8.789062 C 16.042969 8.851562 16.105469 9.101562 16.105469 9.164062 C 16.105469 9.226562 15.230469 12.757812 15.136719 13.132812 C 14.855469 14.351562 14.824219 14.414062 13.074219 14.414062 C 12.667969 14.414062 12.480469 14.414062 12.480469 14.851562 C 12.480469 15.101562 12.761719 15.101562 12.792969 15.101562 C 13.417969 15.101562 14.917969 15.039062 15.542969 15.039062 C 16.136719 15.039062 17.730469 15.101562 18.324219 15.101562 C 18.480469 15.101562 18.761719 15.101562 18.761719 14.664062 C 18.761719 14.414062 18.542969 14.414062 18.136719 14.414062 C 18.105469 14.414062 17.667969 14.414062 17.292969 14.382812 C 16.855469 14.351562 16.730469 14.289062 16.730469 14.039062 C 16.730469 13.882812 16.917969 13.101562 17.011719 12.664062 L 17.792969 9.570312 C 17.886719 9.164062 17.917969 9.101562 18.105469 8.914062 Z M 23.511719 2.695312 "/>
<path fill="none" stroke-width="11.9553" stroke-linecap="butt" stroke-linejoin="miter" stroke="rgb(0%, 0%, 0%)" stroke-opacity="1" stroke-miterlimit="10" d="M 8.007812 321.601558 L 1790.039036 321.601558 " transform="matrix(0.2, 0, 0, -0.2, 0, 356)"/>
<path fill="none" stroke-width="11.9553" stroke-linecap="butt" stroke-linejoin="miter" stroke="rgb(0%, 0%, 0%)" stroke-opacity="1" stroke-miterlimit="10" d="M 169.999997 177.617185 L 169.999997 1761.601536 " transform="matrix(0.2, 0, 0, -0.2, 0, 356)"/>
<path fill-rule="nonzero" fill="rgb(0%, 0%, 0%)" fill-opacity="1" d="M 151.597656 348.300781 C 152.785156 347.894531 154.785156 347.300781 154.785156 345.363281 C 154.785156 343.050781 152.066406 341.988281 150.097656 341.988281 C 149.160156 341.988281 148.191406 342.207031 147.347656 342.707031 C 147.222656 342.769531 147.066406 342.957031 146.910156 342.957031 C 146.597656 342.957031 146.035156 341.988281 145.722656 341.988281 C 145.535156 341.988281 145.503906 342.207031 145.503906 342.300781 L 145.503906 345.863281 C 145.503906 345.988281 145.597656 346.144531 145.785156 346.144531 C 146.097656 346.144531 146.066406 345.519531 146.160156 345.175781 C 146.628906 343.457031 148.191406 342.707031 149.691406 342.613281 L 150.097656 342.613281 C 151.441406 342.613281 153.003906 343.488281 153.003906 345.363281 C 153.003906 347.175781 151.222656 348.113281 149.566406 348.113281 C 149.253906 348.113281 148.941406 348.113281 148.628906 348.113281 L 148.472656 348.113281 C 148.285156 348.113281 148.066406 348.113281 148.066406 348.332031 L 148.066406 348.363281 C 148.097656 348.550781 148.285156 348.582031 148.472656 348.582031 L 150.316406 348.582031 C 151.878906 348.707031 153.316406 349.738281 153.472656 351.363281 L 153.472656 351.582031 C 153.472656 353.425781 151.753906 354.582031 150.003906 354.582031 C 148.097656 354.582031 146.128906 353.957031 145.816406 351.582031 C 145.816406 351.425781 145.753906 351.238281 145.535156 351.238281 C 145.316406 351.269531 145.285156 351.425781 145.285156 351.582031 C 145.285156 354.175781 147.878906 355.207031 150.128906 355.207031 C 152.191406 355.207031 155.066406 354.238281 155.316406 351.769531 L 155.316406 351.644531 C 155.316406 349.675781 153.253906 348.707031 151.597656 348.300781 Z M 151.597656 348.300781 "/>
<path fill-rule="nonzero" fill="rgb(0%, 0%, 0%)" fill-opacity="1" d="M 163.695312 341.988281 C 160.320312 342.394531 157.632812 345.050781 157.632812 348.644531 C 157.632812 351.925781 160.226562 355.175781 164.101562 355.175781 C 167.601562 355.175781 170.570312 352.269531 170.570312 348.644531 C 170.570312 345.457031 168.070312 341.988281 164.132812 341.988281 C 164.007812 341.988281 163.851562 341.988281 163.695312 341.988281 Z M 159.507812 348.863281 L 159.507812 348.519531 C 159.507812 346.019531 160.414062 343.082031 163.570312 342.550781 C 163.757812 342.519531 163.914062 342.519531 164.101562 342.519531 C 166.914062 342.519531 168.664062 345.238281 168.664062 348.269531 C 168.664062 350.675781 167.945312 353.738281 164.976562 354.519531 C 164.695312 354.582031 164.414062 354.613281 164.132812 354.613281 L 163.945312 354.613281 C 161.351562 354.519531 159.945312 352.050781 159.601562 349.644531 Z M 159.507812 348.863281 "/>
<path fill-rule="nonzero" fill="rgb(0%, 0%, 0%)" fill-opacity="1" d="M 173.027344 342.332031 L 173.027344 342.925781 L 173.464844 342.925781 C 174.058594 342.925781 174.683594 343.019531 174.683594 343.894531 L 174.683594 353.363281 C 174.683594 354.207031 173.964844 354.238281 173.308594 354.238281 L 173.027344 354.238281 L 173.027344 354.832031 L 178.808594 354.832031 C 179.214844 354.832031 179.589844 354.863281 179.996094 354.863281 C 181.996094 354.863281 184.339844 353.925781 184.558594 351.519531 L 184.558594 351.332031 C 184.558594 348.800781 181.683594 347.769531 179.777344 347.769531 C 178.527344 347.769531 177.339844 347.894531 176.152344 347.988281 L 176.152344 343.769531 C 176.152344 343.332031 176.214844 342.925781 176.996094 342.925781 L 179.308594 342.925781 C 180.277344 342.925781 181.371094 342.988281 182.089844 343.707031 C 182.777344 344.425781 182.871094 345.644531 182.964844 346.582031 L 183.496094 346.582031 L 183.027344 342.332031 Z M 176.152344 348.613281 C 176.402344 348.613281 176.652344 348.550781 176.902344 348.519531 L 178.277344 348.457031 C 178.558594 348.425781 178.839844 348.394531 179.152344 348.394531 C 180.714844 348.394531 182.683594 349.394531 182.683594 351.238281 C 182.683594 352.988281 181.339844 354.269531 179.339844 354.269531 C 179.058594 354.269531 178.746094 354.238281 178.496094 354.238281 L 176.964844 354.238281 C 176.496094 354.238281 176.246094 354.207031 176.152344 353.582031 Z M 176.152344 348.613281 "/>
<path fill-rule="nonzero" fill="rgb(0%, 0%, 0%)" fill-opacity="1" d="M 186.90625 342.332031 L 186.90625 342.925781 L 187.375 342.925781 C 187.96875 342.925781 188.5625 343.019531 188.5625 343.894531 L 188.5625 353.363281 C 188.5625 354.207031 187.875 354.238281 187.1875 354.238281 L 186.90625 354.238281 L 186.90625 354.832031 L 191.8125 354.832031 L 191.8125 354.238281 L 191.375 354.238281 C 190.75 354.238281 190.15625 354.175781 190.15625 353.300781 L 190.15625 349.113281 L 193.875 349.113281 C 195.65625 348.988281 197.9375 347.800781 197.9375 345.769531 C 197.9375 343.550781 195.59375 342.488281 193.6875 342.332031 Z M 190.125 348.582031 L 190.125 343.582031 C 190.21875 342.988281 190.46875 342.925781 190.875 342.925781 L 192.3125 342.925781 C 193.9375 342.925781 196.0625 342.988281 196.0625 345.769531 C 196.0625 346.425781 195.96875 347.113281 195.5625 347.613281 C 194.90625 348.394531 193.8125 348.582031 192.84375 348.582031 Z M 190.125 348.582031 "/>
<path fill-rule="nonzero" fill="rgb(0%, 0%, 0%)" fill-opacity="1" d="M 202.632812 352.550781 C 202.132812 352.644531 201.632812 353.082031 201.632812 353.675781 C 201.632812 354.300781 202.164062 354.832031 202.789062 354.832031 C 203.414062 354.832031 203.976562 354.363281 203.976562 353.707031 C 203.976562 353.082031 203.445312 352.519531 202.820312 352.519531 C 202.757812 352.519531 202.695312 352.550781 202.632812 352.550781 Z M 202.632812 352.550781 "/>
<path fill-rule="nonzero" fill="rgb(0%, 0%, 0%)" fill-opacity="1" d="M 218.035156 341.113281 C 218.722656 340.050781 220.097656 339.519531 221.378906 339.519531 C 222.816406 339.519531 223.972656 340.425781 223.972656 342.269531 C 223.972656 343.800781 223.222656 345.675781 221.628906 346.082031 C 221.066406 346.238281 219.566406 346.082031 219.566406 346.519531 C 219.566406 346.707031 219.753906 346.769531 219.941406 346.769531 L 221.222656 346.769531 C 223.566406 346.769531 224.441406 348.738281 224.441406 350.550781 C 224.441406 352.300781 223.816406 354.707031 221.410156 354.707031 C 219.816406 354.707031 218.285156 353.988281 217.410156 352.582031 L 217.628906 352.582031 C 218.316406 352.582031 218.910156 352.175781 218.910156 351.425781 C 218.910156 350.707031 218.378906 350.238281 217.691406 350.238281 L 217.597656 350.238281 C 216.941406 350.269531 216.503906 350.800781 216.503906 351.425781 C 216.503906 353.894531 219.066406 355.332031 221.503906 355.332031 C 224.097656 355.332031 226.660156 353.488281 226.660156 350.738281 C 226.660156 348.613281 224.628906 346.550781 222.410156 346.457031 C 224.285156 345.800781 225.972656 344.425781 225.972656 342.269531 C 225.972656 340.082031 223.566406 338.957031 221.535156 338.957031 C 219.660156 338.957031 217.191406 339.863281 217.191406 342.113281 C 217.191406 342.675781 217.441406 343.175781 218.191406 343.300781 L 218.285156 343.300781 C 218.941406 343.300781 219.410156 342.863281 219.410156 342.207031 C 219.410156 341.488281 218.847656 341.082031 218.253906 341.082031 C 218.191406 341.082031 218.128906 341.113281 218.035156 341.113281 Z M 218.035156 341.113281 "/>
<path fill-rule="nonzero" fill="rgb(0%, 0%, 0%)" fill-opacity="1" d="M 230.746094 341.113281 C 231.433594 340.050781 232.808594 339.519531 234.089844 339.519531 C 235.527344 339.519531 236.683594 340.425781 236.683594 342.269531 C 236.683594 343.800781 235.933594 345.675781 234.339844 346.082031 C 233.777344 346.238281 232.277344 346.082031 232.277344 346.519531 C 232.277344 346.707031 232.464844 346.769531 232.652344 346.769531 L 233.933594 346.769531 C 236.277344 346.769531 237.152344 348.738281 237.152344 350.550781 C 237.152344 352.300781 236.527344 354.707031 234.121094 354.707031 C 232.527344 354.707031 230.996094 353.988281 230.121094 352.582031 L 230.339844 352.582031 C 231.027344 352.582031 231.621094 352.175781 231.621094 351.425781 C 231.621094 350.707031 231.089844 350.238281 230.402344 350.238281 L 230.308594 350.238281 C 229.652344 350.269531 229.214844 350.800781 229.214844 351.425781 C 229.214844 353.894531 231.777344 355.332031 234.214844 355.332031 C 236.808594 355.332031 239.371094 353.488281 239.371094 350.738281 C 239.371094 348.613281 237.339844 346.550781 235.121094 346.457031 C 236.996094 345.800781 238.683594 344.425781 238.683594 342.269531 C 238.683594 340.082031 236.277344 338.957031 234.246094 338.957031 C 232.371094 338.957031 229.902344 339.863281 229.902344 342.113281 C 229.902344 342.675781 230.152344 343.175781 230.902344 343.300781 L 230.996094 343.300781 C 231.652344 343.300781 232.121094 342.863281 232.121094 342.207031 C 232.121094 341.488281 231.558594 341.082031 230.964844 341.082031 C 230.902344 341.082031 230.839844 341.113281 230.746094 341.113281 Z M 230.746094 341.113281 "/>
<path fill-rule="nonzero" fill="rgb(0%, 0%, 0%)" fill-opacity="1" d="M 244.140625 352.550781 C 243.640625 352.644531 243.140625 353.082031 243.140625 353.675781 C 243.140625 354.300781 243.671875 354.832031 244.296875 354.832031 C 244.921875 354.832031 245.484375 354.363281 245.484375 353.707031 C 245.484375 353.082031 244.953125 352.519531 244.328125 352.519531 C 244.265625 352.519531 244.203125 352.550781 244.140625 352.550781 Z M 244.140625 352.550781 "/>
</svg>
