<?xml version="1.0" encoding="UTF-8"?>
<svg xmlns="http://www.w3.org/2000/svg" xmlns:xlink="http://www.w3.org/1999/xlink" width="364" height="356" viewBox="0 0 364 356">
<path fill="none" stroke-width="11.9553" stroke-linecap="butt" stroke-linejoin="miter" stroke="rgb(0%, 0%, 0%)" stroke-opacity="1" stroke-miterlimit="10" d="M 271.249996 1077.265609 L 306.679683 1112.851546 L 342.10937 1146.36717 L 377.578119 1177.812482 L 413.007806 1207.226545 L 448.437493 1234.531232 L 483.86718 1259.765606 L 519.296867 1282.968731 L 554.765617 1304.062481 L 590.195304 1323.12498 L 625.624991 1340.117168 L 661.054678 1355.039042 L 696.523427 1367.851542 L 731.953114 1378.632792 L 767.382801 1387.343729 L 802.812488 1393.984354 L 838.281238 1398.554667 L 873.710924 1401.093729 L 909.140611 1401.523417 L 944.570298 1399.921854 L 979.999985 1396.210917 L 1015.468735 1390.468729 L 1050.898422 1382.617167 L 1086.328109 1372.734355 L 1121.757796 1360.78123 L 1157.187483 1346.757792 L 1192.61717 1330.664043 L 1228.085919 1312.49998 L 1263.515606 1292.265606 L 1298.945293 1269.960919 L 1334.37498 1245.624981 L 1369.84373 1219.179669 L 1405.273417 1190.664045 L 1440.703104 1160.11717 L 1476.132791 1127.460921 L 1511.562477 1092.773421 L 1547.031227 1056.015609 L 1582.460914 1017.187485 L 1617.890601 976.289048 L 1653.35935 933.320299 L 1688.789037 888.281237 " transform="matrix(0.2, 0, 0, -0.2, 0, 356)"/>
<path fill="none" stroke-width="11.9553" stroke-linecap="butt" stroke-linejoin="miter" stroke="rgb(0%, 0%, 0%)" stroke-opacity="1" stroke-miterlimit="10" d="M 271.249996 1077.265609 L 676.24999 1495.50779 " transform="matrix(0.2, 0, 0, -0.2, 0, 356)"/>
<path fill-rule="nonzero" fill="rgb(0%, 0%, 0%)" fill-opacity="1" d="M 133.953125 58.242188 L 133.632812 65.726562 L 135.25 56.898438 L 126.476562 58.804688 L 133.953125 58.242188 "/>
<path fill="none" stroke-width="11.9553" stroke-linecap="butt" stroke-linejoin="miter" stroke="rgb(0%, 0%, 0%)" stroke-opacity="1" stroke-miterlimit="10" d="M 669.765615 1488.78904 L 668.164053 1451.367166 L 676.24999 1495.50779 L 632.382803 1485.97654 Z M 669.765615 1488.78904 " transform="matrix(0.2, 0, 0, -0.2, 0, 356)"/>
<path fill="none" stroke-width="11.9553" stroke-linecap="butt" stroke-linejoin="miter" stroke="rgb(0%, 0%, 0%)" stroke-opacity="1" stroke-miterlimit="10" d="M 1385.039042 1207.226545 L 1790.039036 882.929674 " transform="matrix(0.2, 0, 0, -0.2, 0, 356)"/>
<path fill-rule="nonzero" fill="rgb(0%, 0%, 0%)" fill-opacity="1" d="M 356.546875 178.242188 L 349.054688 178.632812 L 358.007812 179.414062 L 355.289062 170.851562 L 356.546875 178.242188 "/>
<path fill="none" stroke-width="11.9553" stroke-linecap="butt" stroke-linejoin="miter" stroke="rgb(0%, 0%, 0%)" stroke-opacity="1" stroke-miterlimit="10" d="M 1782.734348 888.789049 L 1745.273411 886.835924 L 1790.039036 882.929674 L 1776.445286 925.742174 Z M 1782.734348 888.789049 " transform="matrix(0.2, 0, 0, -0.2, 0, 356)"/>
<path fill-rule="nonzero" fill="rgb(0%, 0%, 0%)" fill-opacity="1" d="M 188.230469 54.488281 C 188.449219 53.707031 188.480469 53.488281 190.105469 53.488281 C 190.605469 53.488281 190.824219 53.488281 190.824219 53.050781 C 190.824219 52.800781 190.605469 52.800781 190.230469 52.800781 L 187.355469 52.800781 C 186.792969 52.800781 186.761719 52.800781 186.511719 53.238281 L 178.542969 65.644531 L 176.824219 53.300781 C 176.761719 52.800781 176.730469 52.800781 176.167969 52.800781 L 173.167969 52.800781 C 172.761719 52.800781 172.511719 52.800781 172.511719 53.238281 C 172.511719 53.488281 172.699219 53.488281 173.136719 53.488281 C 173.417969 53.488281 173.824219 53.519531 174.074219 53.519531 C 174.449219 53.582031 174.574219 53.644531 174.574219 53.863281 C 174.574219 53.957031 174.542969 54.019531 174.480469 54.300781 L 171.699219 65.394531 C 171.480469 66.269531 171.105469 66.957031 169.355469 67.019531 C 169.230469 67.019531 168.949219 67.050781 168.949219 67.457031 C 168.949219 67.644531 169.105469 67.707031 169.261719 67.707031 C 169.949219 67.707031 170.730469 67.644531 171.449219 67.644531 C 172.199219 67.644531 172.980469 67.707031 173.699219 67.707031 C 173.792969 67.707031 174.074219 67.707031 174.074219 67.269531 C 174.074219 67.019531 173.855469 67.019531 173.699219 67.019531 C 172.449219 67.019531 172.199219 66.582031 172.199219 66.082031 C 172.199219 65.925781 172.230469 65.800781 172.292969 65.582031 L 175.261719 53.675781 L 175.292969 53.675781 L 177.167969 67.207031 C 177.199219 67.457031 177.230469 67.707031 177.480469 67.707031 C 177.730469 67.707031 177.855469 67.457031 177.980469 67.300781 L 186.792969 53.519531 L 183.667969 66.019531 C 183.449219 66.863281 183.417969 67.019531 181.699219 67.019531 C 181.324219 67.019531 181.074219 67.019531 181.074219 67.457031 C 181.074219 67.707031 181.355469 67.707031 181.417969 67.707031 C 182.011719 67.707031 183.511719 67.644531 184.105469 67.644531 C 185.011719 67.644531 185.949219 67.707031 186.855469 67.707031 C 186.980469 67.707031 187.261719 67.707031 187.261719 67.269531 C 187.261719 67.019531 187.074219 67.019531 186.636719 67.019531 C 185.855469 67.019531 185.230469 67.019531 185.230469 66.644531 C 185.230469 66.550781 185.230469 66.519531 185.355469 66.113281 Z M 188.230469 54.488281 "/>
<path fill-rule="nonzero" fill="rgb(100%, 100%, 100%)" fill-opacity="1" d="M 94.640625 311.25 L 119.117188 311.25 L 119.117188 332.609375 L 94.640625 332.609375 Z M 94.640625 311.25 "/>
<path fill-rule="nonzero" fill="rgb(0%, 0%, 0%)" fill-opacity="1" d="M 107.941406 319.996094 C 108.066406 319.433594 108.566406 317.433594 110.097656 317.433594 C 110.222656 317.433594 110.722656 317.433594 111.191406 317.714844 C 110.597656 317.808594 110.160156 318.371094 110.160156 318.902344 C 110.160156 319.246094 110.378906 319.652344 110.972656 319.652344 C 111.472656 319.652344 112.160156 319.246094 112.160156 318.402344 C 112.160156 317.246094 110.878906 316.933594 110.128906 316.933594 C 108.847656 316.933594 108.097656 318.089844 107.847656 318.621094 C 107.285156 317.152344 106.097656 316.933594 105.472656 316.933594 C 103.222656 316.933594 101.972656 319.777344 101.972656 320.308594 C 101.972656 320.527344 102.191406 320.527344 102.222656 320.527344 C 102.410156 320.527344 102.472656 320.496094 102.503906 320.277344 C 103.253906 317.964844 104.691406 317.433594 105.441406 317.433594 C 105.847656 317.433594 106.628906 317.621094 106.628906 318.902344 C 106.628906 319.558594 106.253906 321.027344 105.441406 324.089844 C 105.097656 325.433594 104.316406 326.339844 103.378906 326.339844 C 103.222656 326.339844 102.722656 326.339844 102.285156 326.058594 C 102.816406 325.964844 103.285156 325.496094 103.285156 324.902344 C 103.285156 324.308594 102.816406 324.121094 102.503906 324.121094 C 101.847656 324.121094 101.285156 324.683594 101.285156 325.402344 C 101.285156 326.402344 102.378906 326.839844 103.347656 326.839844 C 104.785156 326.839844 105.566406 325.308594 105.628906 325.183594 C 105.910156 325.964844 106.691406 326.839844 108.003906 326.839844 C 110.222656 326.839844 111.472656 324.027344 111.472656 323.464844 C 111.472656 323.246094 111.285156 323.246094 111.222656 323.246094 C 111.035156 323.246094 110.972656 323.339844 110.941406 323.496094 C 110.222656 325.839844 108.722656 326.339844 108.035156 326.339844 C 107.191406 326.339844 106.847656 325.652344 106.847656 324.902344 C 106.847656 324.433594 106.972656 323.964844 107.191406 322.996094 Z M 107.941406 319.996094 "/>
<path fill-rule="nonzero" fill="rgb(0%, 0%, 0%)" fill-opacity="1" d="M 38.234375 295.445312 L 38.453125 295.90625 L 38.679688 296.351562 L 38.929688 296.78125 L 39.1875 297.1875 L 39.453125 297.585938 L 39.734375 297.96875 L 40.03125 298.328125 L 40.328125 298.679688 L 40.648438 299.015625 L 40.976562 299.335938 L 41.3125 299.640625 L 41.664062 299.929688 L 42.023438 300.210938 L 42.398438 300.476562 L 42.78125 300.726562 L 43.179688 300.96875 L 43.578125 301.195312 L 43.992188 301.40625 L 44.414062 301.609375 L 44.851562 301.804688 L 45.289062 301.984375 L 45.742188 302.15625 L 46.203125 302.3125 L 46.679688 302.460938 L 47.15625 302.601562 L 47.640625 302.726562 L 48.140625 302.84375 L 48.648438 302.953125 L 49.15625 303.054688 L 49.679688 303.148438 L 50.203125 303.234375 L 50.742188 303.304688 L 51.289062 303.375 L 51.835938 303.4375 L 52.398438 303.492188 L 52.960938 303.539062 L 53.53125 303.578125 L 54.109375 303.617188 L 54.695312 303.648438 L 55.28125 303.671875 L 55.882812 303.6875 L 56.484375 303.695312 L 57.09375 303.710938 L 58.945312 303.710938 L 60.210938 303.695312 L 61.492188 303.664062 L 62.789062 303.632812 L 64.101562 303.585938 L 66.09375 303.515625 L 66.773438 303.492188 L 67.445312 303.46875 L 70.164062 303.375 L 72.226562 303.328125 L 72.921875 303.3125 L 73.609375 303.304688 L 74.304688 303.296875 L 75.695312 303.296875 L 77.085938 303.3125 L 78.476562 303.34375 L 79.171875 303.375 L 79.867188 303.398438 L 81.257812 303.476562 L 81.945312 303.53125 L 82.640625 303.585938 L 83.328125 303.648438 L 84.015625 303.71875 L 84.703125 303.796875 L 85.390625 303.882812 L 86.078125 303.976562 L 86.757812 304.078125 L 87.4375 304.1875 L 88.117188 304.3125 L 88.789062 304.445312 L 89.460938 304.585938 L 90.125 304.734375 L 90.796875 304.890625 L 91.453125 305.0625 L 92.117188 305.242188 L 92.765625 305.4375 L 93.421875 305.648438 L 94.0625 305.859375 L 94.703125 306.09375 L 95.34375 306.335938 L 95.976562 306.585938 L 96.609375 306.859375 L 97.234375 307.140625 L 97.851562 307.429688 L 98.460938 307.742188 L 99.070312 308.0625 L 99.671875 308.40625 L 100.265625 308.757812 L 100.859375 309.125 L 101.4375 309.507812 L 102.023438 309.90625 L 102.59375 310.320312 L 103.15625 310.757812 L 103.710938 311.203125 L 104.265625 311.671875 L 104.804688 312.15625 L 105.34375 312.648438 L 105.867188 313.171875 L 106.390625 313.710938 L 106.898438 314.265625 L 107.414062 313.710938 L 107.929688 313.171875 L 108.460938 312.648438 L 108.992188 312.15625 L 109.539062 311.671875 L 110.085938 311.203125 L 110.648438 310.757812 L 111.210938 310.320312 L 111.78125 309.90625 L 112.359375 309.507812 L 112.945312 309.125 L 113.53125 308.757812 L 114.132812 308.40625 L 114.726562 308.0625 L 115.335938 307.742188 L 115.953125 307.429688 L 116.570312 307.140625 L 117.195312 306.859375 L 117.820312 306.585938 L 118.453125 306.335938 L 119.09375 306.09375 L 119.734375 305.859375 L 121.03125 305.4375 L 121.6875 305.242188 L 122.34375 305.0625 L 123.007812 304.890625 L 123.671875 304.734375 L 124.34375 304.585938 L 125.015625 304.445312 L 125.6875 304.3125 L 126.367188 304.1875 L 127.046875 304.078125 L 127.726562 303.976562 L 128.40625 303.882812 L 129.09375 303.796875 L 129.78125 303.71875 L 130.46875 303.648438 L 131.164062 303.585938 L 131.851562 303.53125 L 132.546875 303.476562 L 133.9375 303.398438 L 134.632812 303.375 L 135.328125 303.34375 L 136.71875 303.3125 L 138.109375 303.296875 L 139.492188 303.296875 L 140.882812 303.3125 L 143.632812 303.375 L 144.320312 303.398438 L 146.359375 303.46875 L 147.703125 303.515625 L 148.367188 303.539062 L 149.039062 303.5625 L 149.703125 303.585938 L 151.015625 303.632812 L 152.3125 303.664062 L 153.59375 303.695312 L 154.226562 303.703125 L 154.851562 303.710938 L 156.710938 303.710938 L 157.320312 303.695312 L 157.921875 303.6875 L 158.515625 303.671875 L 159.109375 303.648438 L 159.6875 303.617188 L 160.273438 303.578125 L 160.84375 303.539062 L 161.40625 303.492188 L 161.96875 303.4375 L 162.515625 303.375 L 163.0625 303.304688 L 163.59375 303.234375 L 164.125 303.148438 L 164.648438 303.054688 L 165.15625 302.953125 L 165.664062 302.84375 L 166.15625 302.726562 L 166.648438 302.601562 L 167.125 302.460938 L 167.59375 302.3125 L 168.054688 302.15625 L 168.507812 301.984375 L 168.953125 301.804688 L 169.382812 301.609375 L 169.804688 301.40625 L 170.226562 301.195312 L 170.625 300.96875 L 171.015625 300.726562 L 171.398438 300.476562 L 171.773438 300.210938 L 172.132812 299.929688 L 172.484375 299.640625 L 172.828125 299.335938 L 173.15625 299.015625 L 173.46875 298.679688 L 173.773438 298.328125 L 174.070312 297.96875 L 174.351562 297.585938 L 174.617188 297.1875 L 174.875 296.78125 L 175.117188 296.351562 L 175.351562 295.90625 L 175.570312 295.445312 L 175.242188 296.085938 L 174.914062 296.710938 L 174.570312 297.3125 L 174.21875 297.890625 L 173.859375 298.453125 L 173.492188 298.984375 L 173.117188 299.5 L 172.734375 299.992188 L 172.335938 300.460938 L 171.9375 300.914062 L 171.523438 301.351562 L 171.109375 301.757812 L 170.679688 302.15625 L 170.242188 302.53125 L 169.804688 302.890625 L 169.351562 303.226562 L 168.898438 303.546875 L 168.429688 303.851562 L 167.960938 304.140625 L 167.484375 304.414062 L 166.992188 304.671875 L 166.5 304.90625 L 166.007812 305.132812 L 165.5 305.34375 L 164.984375 305.539062 L 164.46875 305.71875 L 163.945312 305.882812 L 163.414062 306.039062 L 162.882812 306.179688 L 162.335938 306.304688 L 161.789062 306.421875 L 161.234375 306.523438 L 160.679688 306.617188 L 160.117188 306.695312 L 159.546875 306.765625 L 158.976562 306.828125 L 158.398438 306.882812 L 157.8125 306.921875 L 157.226562 306.945312 L 156.632812 306.96875 L 156.039062 306.984375 L 155.4375 306.992188 L 154.835938 306.984375 L 154.226562 306.976562 L 153.617188 306.960938 L 153 306.9375 L 151.765625 306.875 L 151.140625 306.835938 L 150.507812 306.789062 L 149.882812 306.734375 L 149.242188 306.679688 L 148.609375 306.617188 L 147.328125 306.492188 L 146.6875 306.421875 L 146.039062 306.351562 L 145.390625 306.273438 L 144.742188 306.203125 L 144.09375 306.125 L 143.4375 306.046875 L 142.789062 305.96875 L 141.476562 305.8125 L 140.8125 305.726562 L 140.15625 305.65625 L 139.5 305.578125 L 138.835938 305.5 L 138.179688 305.429688 L 136.851562 305.289062 L 136.195312 305.226562 L 135.53125 305.164062 L 134.867188 305.109375 L 134.210938 305.054688 L 133.546875 305.007812 L 132.890625 304.960938 L 132.226562 304.921875 L 131.570312 304.890625 L 130.257812 304.84375 L 128.945312 304.828125 L 128.296875 304.828125 L 127.648438 304.84375 L 126.992188 304.859375 L 126.34375 304.882812 L 125.703125 304.921875 L 125.054688 304.96875 L 124.421875 305.023438 L 123.78125 305.085938 L 123.140625 305.164062 L 122.507812 305.25 L 121.882812 305.351562 L 121.25 305.460938 L 120.625 305.585938 L 120.007812 305.71875 L 119.390625 305.867188 L 118.773438 306.03125 L 118.164062 306.203125 L 117.554688 306.390625 L 116.953125 306.59375 L 116.351562 306.8125 L 115.757812 307.046875 L 115.164062 307.296875 L 114.578125 307.554688 L 114 307.835938 L 113.421875 308.132812 L 112.84375 308.453125 L 112.28125 308.78125 L 111.71875 309.132812 L 111.15625 309.5 L 110.609375 309.882812 L 110.0625 310.289062 L 109.515625 310.710938 L 108.984375 311.15625 L 108.453125 311.617188 L 107.929688 312.101562 L 107.414062 312.609375 L 106.898438 313.132812 L 106.390625 312.609375 L 105.867188 312.101562 L 105.351562 311.617188 L 104.820312 311.15625 L 104.28125 310.710938 L 103.742188 310.289062 L 103.195312 309.882812 L 102.640625 309.5 L 102.085938 309.132812 L 101.523438 308.78125 L 100.953125 308.453125 L 100.382812 308.132812 L 99.804688 307.835938 L 99.21875 307.554688 L 98.632812 307.296875 L 98.046875 307.046875 L 97.445312 306.8125 L 96.851562 306.59375 L 96.25 306.390625 L 95.640625 306.203125 L 95.03125 306.03125 L 94.414062 305.867188 L 93.796875 305.71875 L 93.171875 305.585938 L 92.546875 305.460938 L 91.921875 305.351562 L 91.289062 305.25 L 90.65625 305.164062 L 90.023438 305.085938 L 89.382812 305.023438 L 88.742188 304.96875 L 88.101562 304.921875 L 87.453125 304.882812 L 86.804688 304.859375 L 85.507812 304.828125 L 84.851562 304.828125 L 84.195312 304.835938 L 83.546875 304.84375 L 82.890625 304.867188 L 82.226562 304.890625 L 81.570312 304.921875 L 80.914062 304.960938 L 80.25 305.007812 L 79.59375 305.054688 L 78.265625 305.164062 L 77.609375 305.226562 L 76.945312 305.289062 L 76.289062 305.359375 L 74.960938 305.5 L 73.648438 305.65625 L 72.984375 305.726562 L 72.328125 305.8125 L 70.359375 306.046875 L 69.710938 306.125 L 69.054688 306.203125 L 68.40625 306.273438 L 67.765625 306.351562 L 66.46875 306.492188 L 65.828125 306.554688 L 65.195312 306.617188 L 64.554688 306.679688 L 63.289062 306.789062 L 62.664062 306.835938 L 62.039062 306.875 L 61.421875 306.90625 L 60.796875 306.9375 L 60.179688 306.960938 L 59.570312 306.976562 L 58.96875 306.984375 L 58.359375 306.992188 L 57.765625 306.984375 L 57.164062 306.96875 L 56.578125 306.945312 L 55.984375 306.921875 L 55.40625 306.882812 L 54.828125 306.828125 L 54.257812 306.765625 L 53.6875 306.695312 L 53.125 306.617188 L 52.5625 306.523438 L 52.007812 306.421875 L 51.460938 306.304688 L 50.921875 306.179688 L 50.390625 306.039062 L 49.851562 305.882812 L 49.335938 305.71875 L 48.8125 305.539062 L 48.304688 305.34375 L 47.796875 305.132812 L 47.296875 304.90625 L 46.804688 304.671875 L 46.320312 304.414062 L 45.84375 304.140625 L 45.367188 303.851562 L 44.90625 303.546875 L 44.445312 303.226562 L 44 302.890625 L 43.554688 302.53125 L 43.117188 302.15625 L 42.695312 301.757812 L 42.28125 301.351562 L 41.867188 300.914062 L 41.460938 300.460938 L 41.070312 299.992188 L 40.6875 299.5 L 40.304688 298.984375 L 39.9375 298.453125 L 39.578125 297.890625 L 39.226562 297.3125 L 38.890625 296.710938 L 38.554688 296.085938 L 38.234375 295.445312 "/>
<path fill="none" stroke-width="3.985" stroke-linecap="butt" stroke-linejoin="miter" stroke="rgb(0%, 0%, 0%)" stroke-opacity="1" stroke-miterlimit="10" d="M 191.171872 302.773433 L 192.265622 300.468746 L 193.398435 298.242183 L 194.648435 296.093746 L 195.937497 294.062496 L 197.265622 292.070308 L 198.671872 290.156246 L 200.156247 288.359371 L 201.640622 286.601558 L 203.242184 284.921871 L 204.882809 283.320308 L 206.562497 281.796871 L 208.320309 280.351558 L 210.117184 278.945308 L 211.992184 277.617183 L 213.906247 276.367183 L 215.898434 275.156246 L 217.890622 274.023433 L 219.960934 272.968746 L 222.070309 271.953121 L 224.257809 270.976558 L 226.445309 270.078121 L 228.710934 269.218746 L 231.015622 268.437496 L 233.398434 267.695309 L 235.781246 266.992184 L 238.203121 266.367184 L 240.703121 265.781246 L 243.242184 265.234371 L 245.781246 264.726559 L 248.398434 264.257809 L 251.015621 263.828121 L 253.710934 263.476559 L 256.445309 263.124996 L 259.179684 262.812496 L 261.992184 262.539059 L 264.804684 262.304684 L 267.656246 262.109371 L 270.546871 261.914059 L 273.476558 261.757809 L 276.406246 261.640621 L 279.414058 261.562496 L 282.421871 261.523434 L 285.468746 261.445309 L 294.726558 261.445309 L 301.054683 261.523434 L 307.460933 261.679684 L 313.945308 261.835934 L 320.507808 262.070309 L 330.468745 262.421871 L 333.867183 262.539059 L 337.226557 262.656246 L 350.820307 263.124996 L 361.132807 263.359371 L 364.60937 263.437496 L 368.04687 263.476559 L 371.523432 263.515621 L 378.476557 263.515621 L 385.429682 263.437496 L 392.382807 263.281246 L 395.859369 263.124996 L 399.335932 263.007809 L 406.289056 262.617184 L 409.726556 262.343746 L 413.203119 262.070309 L 416.640619 261.757809 L 420.078119 261.406246 L 423.515619 261.015621 L 426.953119 260.585934 L 430.390619 260.117184 L 433.789056 259.609371 L 437.187493 259.062496 L 440.585931 258.437496 L 443.945306 257.773434 L 447.304681 257.070309 L 450.624993 256.328121 L 453.984368 255.546871 L 457.265618 254.687496 L 460.585931 253.789059 L 463.828118 252.812496 L 467.109368 251.757809 L 470.312493 250.703121 L 473.515618 249.531246 L 476.718743 248.320309 L 479.882805 247.070309 L 483.046868 245.703121 L 486.171868 244.296871 L 489.257805 242.851559 L 492.30468 241.289059 L 495.351555 239.687496 L 498.359368 237.968746 L 501.328118 236.210934 L 504.296867 234.374997 L 507.187492 232.460934 L 510.11718 230.468747 L 512.968742 228.398434 L 515.781242 226.210934 L 518.55468 223.984372 L 521.328117 221.640622 L 524.02343 219.218747 L 526.718742 216.757809 L 529.33593 214.140622 L 531.953117 211.445309 L 534.49218 208.671872 L 537.070304 211.445309 L 539.648429 214.140622 L 542.304679 216.757809 L 544.960929 219.218747 L 547.695304 221.640622 L 550.429679 223.984372 L 553.242179 226.210934 L 556.054679 228.398434 L 558.906242 230.468747 L 561.796867 232.460934 L 564.726554 234.374997 L 567.656242 236.210934 L 570.664054 237.968746 L 573.632804 239.687496 L 576.679679 241.289059 L 579.765616 242.851559 L 582.851554 244.296871 L 585.976554 245.703121 L 589.101554 247.070309 L 592.265616 248.320309 L 595.468741 249.531246 L 598.671866 250.703121 L 605.156241 252.812496 L 608.437491 253.789059 L 611.718741 254.687496 L 615.039053 255.546871 L 618.359366 256.328121 L 621.718741 257.070309 L 625.078116 257.773434 L 628.437491 258.437496 L 631.835928 259.062496 L 635.234366 259.609371 L 638.632803 260.117184 L 642.03124 260.585934 L 645.46874 261.015621 L 648.90624 261.406246 L 652.34374 261.757809 L 655.820303 262.070309 L 659.257803 262.343746 L 662.734365 262.617184 L 669.68749 263.007809 L 673.164052 263.124996 L 676.640615 263.281246 L 683.59374 263.437496 L 690.546865 263.515621 L 697.460927 263.515621 L 704.414052 263.437496 L 718.164052 263.124996 L 721.601552 263.007809 L 731.796864 262.656246 L 738.515614 262.421871 L 741.835926 262.304684 L 745.195301 262.187496 L 748.515614 262.070309 L 755.078114 261.835934 L 761.562489 261.679684 L 767.968739 261.523434 L 771.132801 261.484371 L 774.257801 261.445309 L 783.554676 261.445309 L 786.601551 261.523434 L 789.609363 261.562496 L 792.578113 261.640621 L 795.546863 261.757809 L 798.437488 261.914059 L 801.367176 262.109371 L 804.218738 262.304684 L 807.031238 262.539059 L 809.843738 262.812496 L 812.578113 263.124996 L 815.312488 263.476559 L 817.968738 263.828121 L 820.624988 264.257809 L 823.242175 264.726559 L 825.781238 265.234371 L 828.3203 265.781246 L 830.781238 266.367184 L 833.242175 266.992184 L 835.624988 267.695309 L 837.968738 268.437496 L 840.273425 269.218746 L 842.53905 270.078121 L 844.765612 270.976558 L 846.91405 271.953121 L 849.023425 272.968746 L 851.1328 274.023433 L 853.124987 275.156246 L 855.078112 276.367183 L 856.992175 277.617183 L 858.867175 278.945308 L 860.66405 280.351558 L 862.421862 281.796871 L 864.140612 283.320308 L 865.781237 284.921871 L 867.343737 286.601558 L 868.867175 288.359371 L 870.35155 290.156246 L 871.7578 292.070308 L 873.085924 294.062496 L 874.374987 296.093746 L 875.585924 298.242183 L 876.757799 300.468746 L 877.851549 302.773433 L 876.210924 299.570308 L 874.570299 296.445308 L 872.851549 293.437496 L 871.093737 290.546871 L 869.296862 287.734371 L 867.460925 285.078121 L 865.585925 282.499996 L 863.671862 280.039058 L 861.679675 277.695308 L 859.687487 275.429683 L 857.617175 273.242183 L 855.546862 271.210933 L 853.398425 269.218746 L 851.210925 267.343746 L 849.023425 265.546871 L 846.7578 263.867184 L 844.492175 262.265621 L 842.148425 260.742184 L 839.804675 259.296871 L 837.421863 257.929684 L 834.960925 256.640621 L 832.499988 255.468746 L 830.03905 254.335934 L 827.499988 253.281246 L 824.921863 252.304684 L 822.343738 251.406246 L 819.72655 250.585934 L 817.0703 249.804684 L 814.41405 249.101559 L 811.679675 248.476559 L 808.9453 247.890621 L 806.171863 247.382809 L 803.398426 246.914059 L 800.585926 246.523434 L 797.734363 246.171871 L 794.882801 245.859371 L 791.992176 245.585934 L 789.062488 245.390621 L 786.132801 245.273434 L 783.164051 245.156246 L 780.195301 245.078121 L 777.187488 245.039059 L 774.179676 245.078121 L 771.132801 245.117184 L 768.085926 245.195309 L 764.999989 245.312496 L 758.828114 245.624996 L 755.703114 245.820309 L 752.539051 246.054684 L 749.414051 246.328121 L 746.210926 246.601559 L 743.046864 246.914059 L 736.640614 247.539059 L 733.437489 247.890621 L 730.195302 248.242184 L 726.953114 248.632809 L 723.710927 248.984371 L 720.468739 249.374996 L 717.187489 249.765621 L 713.945302 250.156246 L 707.382802 250.937496 L 704.06249 251.367184 L 700.78124 251.718746 L 697.49999 252.109371 L 694.179677 252.499996 L 690.898427 252.851559 L 684.257802 253.554684 L 680.976552 253.867184 L 677.65624 254.179684 L 674.335927 254.453121 L 671.054678 254.726559 L 667.734365 254.960934 L 664.453115 255.195309 L 661.132803 255.390621 L 657.851553 255.546871 L 651.289053 255.781246 L 644.726553 255.859371 L 641.484365 255.859371 L 638.242178 255.781246 L 634.960928 255.703121 L 631.718741 255.585934 L 628.515616 255.390621 L 625.273428 255.156246 L 622.109366 254.882809 L 618.906241 254.570309 L 615.703116 254.179684 L 612.539053 253.749996 L 609.414053 253.242184 L 606.249991 252.695309 L 603.124991 252.070309 L 600.039054 251.406246 L 596.953116 250.664059 L 593.867179 249.843746 L 590.820304 248.984371 L 587.773429 248.046871 L 584.765616 247.031246 L 581.757804 245.937496 L 578.789054 244.765621 L 575.820304 243.515621 L 572.890616 242.226559 L 569.999992 240.820309 L 567.109367 239.335934 L 564.218742 237.734371 L 561.406242 236.093746 L 558.593742 234.335934 L 555.781242 232.499997 L 553.046867 230.585934 L 550.312492 228.554684 L 547.578117 226.445309 L 544.921867 224.218747 L 542.265617 221.914059 L 539.648429 219.492184 L 537.070304 216.953122 L 534.49218 214.335934 L 531.953117 216.953122 L 529.33593 219.492184 L 526.757805 221.914059 L 524.101555 224.218747 L 521.406242 226.445309 L 518.71093 228.554684 L 515.976555 230.585934 L 513.203117 232.499997 L 510.42968 234.335934 L 507.61718 236.093746 L 504.765617 237.734371 L 501.914055 239.335934 L 499.02343 240.820309 L 496.093743 242.226559 L 493.164055 243.515621 L 490.234368 244.765621 L 487.226555 245.937496 L 484.257805 247.031246 L 481.249993 248.046871 L 478.203118 248.984371 L 475.156243 249.843746 L 472.070305 250.664059 L 468.984368 251.406246 L 465.859368 252.070309 L 462.734368 252.695309 L 459.609368 253.242184 L 456.445306 253.749996 L 453.281243 254.179684 L 450.117181 254.570309 L 446.914056 254.882809 L 443.710931 255.156246 L 440.507806 255.390621 L 437.265618 255.585934 L 434.023431 255.703121 L 427.539056 255.859371 L 424.257806 255.859371 L 420.976556 255.820309 L 417.734369 255.781246 L 414.453119 255.664059 L 411.132806 255.546871 L 407.851556 255.390621 L 404.570306 255.195309 L 401.249994 254.960934 L 397.968744 254.726559 L 391.328119 254.179684 L 388.046869 253.867184 L 384.726557 253.554684 L 381.445307 253.203121 L 374.804682 252.499996 L 368.242182 251.718746 L 364.92187 251.367184 L 361.64062 250.937496 L 351.79687 249.765621 L 348.554682 249.374996 L 345.273432 248.984371 L 342.031245 248.632809 L 338.82812 248.242184 L 332.343745 247.539059 L 329.14062 247.226559 L 325.976558 246.914059 L 322.773433 246.601559 L 316.445308 246.054684 L 313.320308 245.820309 L 310.195308 245.624996 L 307.10937 245.468746 L 303.98437 245.312496 L 300.898433 245.195309 L 297.851558 245.117184 L 294.843746 245.078121 L 291.796871 245.039059 L 288.828121 245.078121 L 285.820308 245.156246 L 282.890621 245.273434 L 279.921871 245.390621 L 277.031246 245.585934 L 274.140621 245.859371 L 271.289058 246.171871 L 268.437496 246.523434 L 265.624996 246.914059 L 262.812496 247.382809 L 260.039059 247.890621 L 257.304684 248.476559 L 254.609371 249.101559 L 251.953121 249.804684 L 249.257809 250.585934 L 246.679684 251.406246 L 244.062496 252.304684 L 241.523434 253.281246 L 238.984371 254.335934 L 236.484371 255.468746 L 234.023434 256.640621 L 231.601559 257.929684 L 229.218747 259.296871 L 226.835934 260.742184 L 224.531247 262.265621 L 222.226559 263.867184 L 219.999997 265.546871 L 217.773434 267.343746 L 215.585934 269.218746 L 213.476559 271.210933 L 211.406247 273.242183 L 209.335934 275.429683 L 207.304684 277.695308 L 205.351559 280.039058 L 203.437497 282.499996 L 201.523434 285.078121 L 199.687497 287.734371 L 197.890622 290.546871 L 196.13281 293.437496 L 194.453122 296.445308 L 192.773435 299.570308 Z M 191.171872 302.773433 " transform="matrix(0.2, 0, 0, -0.2, 0, 356)"/>
<path fill-rule="nonzero" fill="rgb(100%, 100%, 100%)" fill-opacity="1" d="M 207.6875 170.265625 L 287.367188 170.265625 L 287.367188 196.90625 L 207.6875 196.90625 Z M 207.6875 170.265625 "/>
<path fill-rule="nonzero" fill="rgb(0%, 0%, 0%)" fill-opacity="1" d="M 224.300781 178.484375 C 224.394531 178.171875 224.394531 178.140625 224.394531 177.984375 C 224.394531 177.578125 224.082031 177.390625 223.769531 177.390625 C 223.550781 177.390625 223.207031 177.515625 222.988281 177.859375 C 222.957031 177.953125 222.769531 178.640625 222.707031 179.046875 C 222.550781 179.609375 222.394531 180.203125 222.269531 180.765625 L 221.269531 184.703125 C 221.175781 185.015625 220.238281 186.546875 218.800781 186.546875 C 217.707031 186.546875 217.457031 185.609375 217.457031 184.796875 C 217.457031 183.796875 217.832031 182.421875 218.582031 180.515625 C 218.925781 179.609375 219.019531 179.390625 219.019531 178.953125 C 219.019531 177.953125 218.300781 177.140625 217.207031 177.140625 C 215.144531 177.140625 214.332031 180.328125 214.332031 180.515625 C 214.332031 180.734375 214.550781 180.734375 214.613281 180.734375 C 214.832031 180.734375 214.832031 180.703125 214.957031 180.328125 C 215.550781 178.296875 216.425781 177.640625 217.144531 177.640625 C 217.332031 177.640625 217.707031 177.640625 217.707031 178.328125 C 217.707031 178.890625 217.488281 179.453125 217.332031 179.859375 C 216.457031 182.171875 216.050781 183.421875 216.050781 184.453125 C 216.050781 186.390625 217.425781 187.046875 218.738281 187.046875 C 219.582031 187.046875 220.300781 186.671875 220.925781 186.046875 C 220.644531 187.203125 220.394531 188.265625 219.519531 189.421875 C 218.957031 190.140625 218.113281 190.796875 217.113281 190.796875 C 216.800781 190.796875 215.832031 190.734375 215.457031 189.859375 C 215.800781 189.859375 216.082031 189.859375 216.394531 189.609375 C 216.613281 189.421875 216.832031 189.140625 216.832031 188.703125 C 216.832031 188.046875 216.238281 187.953125 216.019531 187.953125 C 215.519531 187.953125 214.800781 188.296875 214.800781 189.359375 C 214.800781 190.453125 215.769531 191.265625 217.113281 191.265625 C 219.363281 191.265625 221.613281 189.296875 222.207031 186.828125 Z M 224.300781 178.484375 "/>
<path fill-rule="nonzero" fill="rgb(0%, 0%, 0%)" fill-opacity="1" d="M 245.0625 178.421875 C 244.9375 176.921875 243.90625 176.265625 242.6875 176.265625 C 241.34375 176.265625 239.875 177.046875 239.25 178.203125 L 239.15625 177.796875 C 238.9375 176.859375 238.25 176.265625 237.34375 176.265625 C 235.71875 176.265625 235.21875 178.515625 234.96875 179.515625 C 234.9375 179.640625 234.875 179.765625 234.875 179.890625 C 234.875 180.046875 235.03125 180.140625 235.21875 180.140625 C 236.09375 180.140625 235.8125 176.734375 237.28125 176.734375 C 237.375 176.734375 237.5 176.765625 237.59375 176.828125 L 237.75 176.984375 C 237.875 177.171875 237.90625 177.421875 237.90625 177.671875 C 237.90625 178.171875 237.78125 178.671875 237.65625 179.171875 C 237.21875 181.015625 236.75 182.828125 236.3125 184.671875 L 236 185.828125 C 235.96875 186.015625 235.875 186.234375 235.875 186.453125 C 235.875 186.796875 236.1875 187.015625 236.53125 187.015625 L 236.5625 187.015625 C 237.21875 186.953125 237.3125 186.359375 237.46875 185.828125 L 238.75 180.609375 C 239.1875 178.859375 240.6875 176.734375 242.53125 176.734375 C 243.46875 176.734375 243.6875 177.546875 243.6875 178.265625 C 243.6875 179.234375 243.375 180.171875 243.125 181.140625 L 242 185.796875 C 241.90625 186.015625 241.84375 186.234375 241.84375 186.453125 C 241.84375 186.796875 242.15625 187.015625 242.5 187.015625 L 242.59375 187.015625 C 243.28125 186.921875 243.34375 186.203125 243.5 185.609375 L 244.75 180.484375 C 245.15625 178.796875 246.6875 176.765625 248.53125 176.734375 L 248.65625 176.734375 C 249.5 176.953125 249.625 177.609375 249.625 178.359375 L 249.625 178.546875 C 249.625 179.109375 249.4375 179.734375 249.34375 180.234375 C 249.09375 181.140625 248.8125 182.046875 248.5 182.890625 C 248.25 183.640625 247.875 184.421875 247.875 185.234375 L 247.875 185.359375 C 247.96875 186.328125 248.625 187.015625 249.59375 187.015625 C 251.21875 187.015625 252.375 184.859375 252.59375 183.453125 L 252.59375 183.390625 C 252.59375 183.203125 252.4375 183.171875 252.28125 183.171875 C 251.5625 183.171875 251.53125 186.546875 249.71875 186.546875 C 249.28125 186.546875 249.125 186.234375 249.125 185.921875 L 249.125 185.828125 C 249.125 185.328125 249.25 184.859375 249.4375 184.421875 C 249.90625 183.046875 250.40625 181.703125 250.75 180.296875 C 250.90625 179.765625 251.03125 179.203125 251.03125 178.671875 C 251.03125 177.171875 250.03125 176.265625 248.5625 176.265625 C 247.40625 176.265625 246.375 176.828125 245.625 177.671875 C 245.4375 177.890625 245.1875 178.140625 245.0625 178.421875 Z M 245.0625 178.421875 "/>
<path fill-rule="nonzero" fill="rgb(0%, 0%, 0%)" fill-opacity="1" d="M 260.300781 185.328125 C 260.519531 186.265625 261.113281 187.015625 262.175781 187.015625 C 263.457031 187.015625 263.957031 185.734375 264.269531 184.703125 L 264.582031 183.703125 C 264.582031 183.609375 264.613281 183.484375 264.613281 183.390625 C 264.613281 183.203125 264.488281 183.140625 264.300781 183.140625 C 263.363281 183.140625 263.832031 186.546875 262.207031 186.546875 C 261.769531 186.546875 261.613281 186.015625 261.613281 185.578125 L 261.613281 185.421875 C 261.675781 184.890625 261.800781 184.359375 261.925781 183.796875 L 263.363281 178.140625 C 263.425781 177.890625 263.488281 177.609375 263.519531 177.359375 L 263.519531 177.265625 C 263.519531 176.890625 263.238281 176.703125 262.925781 176.703125 C 262.332031 176.703125 262.050781 177.234375 262.019531 177.703125 C 261.519531 176.890625 261.050781 176.265625 260.019531 176.265625 C 259.238281 176.265625 258.394531 176.640625 257.769531 177.078125 L 257.269531 177.515625 C 255.675781 178.859375 254.707031 181.421875 254.707031 183.390625 C 254.707031 184.890625 255.425781 187.015625 257.425781 187.015625 C 258.613281 187.015625 259.550781 186.203125 260.300781 185.328125 Z M 261.613281 179.109375 C 261.582031 179.421875 261.488281 179.765625 261.394531 180.078125 L 260.582031 183.390625 C 260.519531 183.609375 260.488281 183.890625 260.363281 184.140625 C 259.800781 185.484375 258.269531 186.546875 257.550781 186.546875 L 257.488281 186.546875 C 256.519531 186.546875 256.175781 185.265625 256.175781 184.421875 C 256.175781 183.421875 256.457031 182.484375 256.707031 181.515625 C 257.050781 180.078125 257.488281 178.546875 258.582031 177.484375 C 258.988281 177.078125 259.488281 176.734375 260.050781 176.734375 L 260.113281 176.734375 C 261.144531 176.765625 261.644531 178.203125 261.644531 178.953125 C 261.644531 179.015625 261.613281 179.078125 261.613281 179.109375 Z M 261.613281 179.109375 "/>
<path fill-rule="nonzero" fill="rgb(0%, 0%, 0%)" fill-opacity="1" d="M 266.304688 186.234375 L 266.304688 186.203125 C 266.804688 186.046875 267.148438 185.671875 267.148438 185.140625 C 267.148438 184.796875 266.898438 184.453125 266.398438 184.453125 C 265.742188 184.484375 265.304688 185.015625 265.304688 185.640625 C 265.304688 186.734375 266.617188 187.015625 267.367188 187.015625 L 267.617188 187.015625 C 268.460938 186.890625 269.304688 186.140625 269.617188 185.359375 L 269.648438 185.359375 C 269.960938 186.328125 270.773438 187.015625 271.867188 187.015625 C 273.617188 187.015625 274.804688 185.234375 275.335938 183.796875 C 275.367188 183.703125 275.460938 183.515625 275.460938 183.390625 C 275.460938 183.203125 275.304688 183.171875 275.179688 183.171875 C 274.648438 183.171875 274.648438 183.734375 274.523438 184.109375 C 274.054688 185.203125 273.117188 186.546875 271.929688 186.546875 C 271.117188 186.546875 270.773438 185.671875 270.773438 184.953125 C 270.773438 184.390625 270.960938 183.796875 271.085938 183.234375 C 271.335938 182.234375 271.585938 181.234375 271.835938 180.234375 C 272.148438 178.921875 272.617188 176.734375 274.179688 176.734375 C 274.585938 176.734375 274.898438 176.890625 275.242188 177.046875 L 275.242188 177.078125 C 274.742188 177.203125 274.367188 177.578125 274.367188 178.203125 C 274.429688 178.609375 274.742188 178.796875 275.148438 178.796875 L 275.210938 178.796875 C 275.835938 178.765625 276.210938 178.203125 276.210938 177.640625 C 276.210938 176.671875 275.085938 176.265625 274.242188 176.265625 C 273.117188 176.265625 272.679688 176.890625 271.867188 177.890625 C 271.585938 176.859375 270.617188 176.265625 269.648438 176.265625 C 267.867188 176.265625 266.617188 178.109375 266.210938 179.515625 C 266.148438 179.640625 266.085938 179.765625 266.085938 179.890625 C 266.085938 180.046875 266.242188 180.109375 266.367188 180.109375 C 266.835938 180.109375 266.898438 179.546875 267.054688 179.109375 C 267.492188 178.046875 268.367188 176.734375 269.617188 176.734375 C 270.367188 176.734375 270.742188 177.515625 270.742188 178.203125 C 270.742188 178.828125 270.585938 179.484375 270.398438 180.109375 L 269.648438 183.171875 C 269.367188 184.390625 268.929688 186.546875 267.335938 186.546875 C 266.960938 186.546875 266.617188 186.359375 266.304688 186.234375 Z M 266.304688 186.234375 "/>
<path fill-rule="nonzero" fill="rgb(0%, 0%, 0%)" fill-opacity="1" d="M 277.96875 184.484375 C 277.46875 184.578125 277 185.015625 277 185.609375 C 277 186.234375 277.5 186.765625 278.125 186.765625 C 278.75 186.765625 279.3125 186.296875 279.3125 185.640625 C 279.3125 185.015625 278.78125 184.453125 278.15625 184.453125 C 278.09375 184.453125 278.03125 184.484375 277.96875 184.484375 Z M 277.96875 184.484375 "/>
<path fill-rule="nonzero" fill="rgb(0%, 0%, 0%)" fill-opacity="1" d="M 184.039062 287.914062 L 184.554688 287.710938 L 185.054688 287.484375 L 185.539062 287.21875 L 186 286.929688 L 186.445312 286.617188 L 186.875 286.273438 L 187.28125 285.898438 L 187.679688 285.5 L 188.054688 285.078125 L 188.414062 284.632812 L 188.757812 284.15625 L 189.085938 283.65625 L 189.398438 283.132812 L 189.695312 282.585938 L 189.984375 282.015625 L 190.25 281.421875 L 190.507812 280.8125 L 190.75 280.171875 L 190.976562 279.515625 L 191.1875 278.835938 L 191.398438 278.132812 L 191.585938 277.414062 L 191.765625 276.679688 L 191.929688 275.921875 L 192.085938 275.140625 L 192.226562 274.34375 L 192.359375 273.53125 L 192.484375 272.703125 L 192.601562 271.859375 L 192.703125 270.992188 L 192.796875 270.117188 L 192.882812 269.21875 L 192.960938 268.3125 L 193.03125 267.390625 L 193.09375 266.445312 L 193.140625 265.492188 L 193.1875 264.53125 L 193.226562 263.554688 L 193.265625 262.5625 L 193.289062 261.5625 L 193.304688 260.546875 L 193.320312 259.523438 L 193.335938 258.492188 L 193.335938 255.328125 L 193.328125 254.257812 L 193.320312 253.179688 L 193.289062 250.992188 L 193.265625 249.890625 L 193.21875 247.671875 L 193.195312 246.554688 L 193.171875 245.429688 L 193.140625 244.296875 L 193.117188 243.164062 L 193.085938 242.03125 L 193.0625 240.890625 L 193.03125 239.75 L 193.007812 238.601562 L 192.984375 237.460938 L 192.9375 235.164062 L 192.890625 231.71875 L 192.882812 230.570312 L 192.867188 228.289062 L 192.867188 227.148438 L 192.882812 224.867188 L 192.953125 221.492188 L 192.984375 220.375 L 193.078125 218.15625 L 193.132812 217.0625 L 193.195312 215.96875 L 193.265625 214.882812 L 193.34375 213.804688 L 193.429688 212.734375 L 193.632812 210.625 L 193.75 209.585938 L 193.875 208.554688 L 194.007812 207.539062 L 194.15625 206.53125 L 194.3125 205.53125 L 194.484375 204.546875 L 194.664062 203.570312 L 194.859375 202.609375 L 195.0625 201.664062 L 195.28125 200.734375 L 195.515625 199.8125 L 195.757812 198.914062 L 196.015625 198.023438 L 196.289062 197.148438 L 196.570312 196.296875 L 196.875 195.453125 L 197.1875 194.632812 L 197.523438 193.820312 L 197.875 193.03125 L 198.234375 192.265625 L 198.617188 191.515625 L 199.015625 190.78125 L 199.429688 190.070312 L 199.859375 189.382812 L 200.304688 188.710938 L 200.773438 188.0625 L 201.257812 187.429688 L 201.765625 186.828125 L 202.289062 186.242188 L 202.828125 185.679688 L 203.398438 185.148438 L 203.976562 184.632812 L 204.578125 184.140625 L 205.203125 183.679688 L 204.578125 183.210938 L 203.976562 182.726562 L 203.398438 182.210938 L 202.828125 181.671875 L 202.289062 181.117188 L 201.765625 180.53125 L 201.257812 179.929688 L 200.773438 179.296875 L 200.304688 178.648438 L 199.859375 177.976562 L 199.429688 177.28125 L 199.015625 176.570312 L 198.617188 175.84375 L 198.234375 175.09375 L 197.875 174.320312 L 197.523438 173.53125 L 197.1875 172.726562 L 196.875 171.90625 L 196.570312 171.0625 L 196.289062 170.203125 L 196.015625 169.335938 L 195.757812 168.445312 L 195.515625 167.539062 L 195.28125 166.625 L 195.0625 165.6875 L 194.859375 164.742188 L 194.664062 163.78125 L 194.484375 162.8125 L 194.3125 161.828125 L 194.15625 160.828125 L 194.007812 159.820312 L 193.875 158.804688 L 193.75 157.773438 L 193.632812 156.726562 L 193.53125 155.679688 L 193.429688 154.617188 L 193.34375 153.554688 L 193.265625 152.476562 L 193.195312 151.390625 L 193.132812 150.296875 L 193.078125 149.195312 L 193.03125 148.09375 L 192.984375 146.984375 L 192.953125 145.867188 L 192.90625 143.617188 L 192.882812 142.484375 L 192.875 141.351562 L 192.867188 140.210938 L 192.867188 139.070312 L 192.875 137.929688 L 192.890625 135.632812 L 192.90625 134.492188 L 192.9375 132.195312 L 192.984375 129.898438 L 193.007812 128.757812 L 193.03125 127.609375 L 193.0625 126.46875 L 193.085938 125.328125 L 193.117188 124.195312 L 193.140625 123.054688 L 193.171875 121.929688 L 193.195312 120.804688 L 193.242188 118.570312 L 193.289062 116.367188 L 193.304688 115.265625 L 193.320312 114.179688 L 193.328125 113.101562 L 193.335938 112.03125 L 193.335938 108.867188 L 193.304688 106.804688 L 193.289062 105.796875 L 193.265625 104.796875 L 193.226562 103.804688 L 193.1875 102.828125 L 193.140625 101.859375 L 193.09375 100.90625 L 193.03125 99.96875 L 192.960938 99.046875 L 192.882812 98.140625 L 192.796875 97.242188 L 192.703125 96.359375 L 192.601562 95.5 L 192.484375 94.65625 L 192.359375 93.820312 L 192.226562 93.007812 L 192.085938 92.210938 L 191.929688 91.4375 L 191.765625 90.679688 L 191.585938 89.9375 L 191.398438 89.21875 L 191.1875 88.523438 L 190.976562 87.84375 L 190.75 87.1875 L 190.507812 86.546875 L 190.25 85.929688 L 189.984375 85.34375 L 189.695312 84.773438 L 189.398438 84.226562 L 189.085938 83.703125 L 188.757812 83.203125 L 188.414062 82.726562 L 188.054688 82.28125 L 187.679688 81.859375 L 187.28125 81.460938 L 186.875 81.085938 L 186.445312 80.742188 L 186 80.429688 L 185.539062 80.140625 L 185.054688 79.875 L 184.554688 79.648438 L 184.039062 79.445312 L 184.765625 79.734375 L 185.46875 80.054688 L 186.140625 80.40625 L 186.796875 80.78125 L 187.421875 81.171875 L 188.023438 81.59375 L 188.601562 82.039062 L 189.15625 82.507812 L 189.6875 83.007812 L 190.195312 83.515625 L 190.679688 84.054688 L 191.140625 84.617188 L 191.585938 85.195312 L 192.007812 85.796875 L 192.414062 86.421875 L 192.789062 87.0625 L 193.15625 87.726562 L 193.5 88.40625 L 193.820312 89.109375 L 194.125 89.828125 L 194.414062 90.5625 L 194.679688 91.320312 L 194.9375 92.09375 L 195.171875 92.882812 L 195.390625 93.6875 L 195.59375 94.507812 L 195.78125 95.351562 L 195.953125 96.203125 L 196.109375 97.070312 L 196.257812 97.953125 L 196.382812 98.851562 L 196.5 99.757812 L 196.609375 100.679688 L 196.695312 101.617188 L 196.78125 102.5625 L 196.84375 103.523438 L 196.898438 104.492188 L 196.945312 105.476562 L 196.976562 106.46875 L 197.007812 107.46875 L 197.023438 108.484375 L 197.023438 110.539062 L 197.015625 111.570312 L 196.992188 112.617188 L 196.96875 113.679688 L 196.9375 114.734375 L 196.890625 115.804688 L 196.796875 117.960938 L 196.742188 119.054688 L 196.679688 120.140625 L 196.539062 122.34375 L 196.460938 123.445312 L 196.390625 124.554688 L 196.304688 125.671875 L 196.21875 126.78125 L 196.140625 127.898438 L 196.046875 129.023438 L 195.875 131.257812 L 195.78125 132.382812 L 195.695312 133.507812 L 195.523438 135.742188 L 195.4375 136.867188 L 195.265625 139.101562 L 195.1875 140.210938 L 195.117188 141.328125 L 195.039062 142.4375 L 194.96875 143.539062 L 194.914062 144.640625 L 194.851562 145.734375 L 194.796875 146.828125 L 194.75 147.90625 L 194.703125 148.992188 L 194.664062 150.0625 L 194.640625 151.132812 L 194.617188 152.195312 L 194.601562 153.25 L 194.59375 154.289062 L 194.59375 155.328125 L 194.609375 156.359375 L 194.632812 157.382812 L 194.65625 158.390625 L 194.695312 159.390625 L 194.75 160.375 L 194.8125 161.359375 L 194.890625 162.328125 L 194.976562 163.28125 L 195.070312 164.226562 L 195.179688 165.164062 L 195.304688 166.078125 L 195.445312 166.984375 L 195.59375 167.875 L 195.765625 168.757812 L 195.945312 169.617188 L 196.140625 170.46875 L 196.351562 171.304688 L 196.578125 172.117188 L 196.828125 172.921875 L 197.085938 173.703125 L 197.367188 174.476562 L 197.664062 175.226562 L 197.976562 175.960938 L 198.3125 176.679688 L 198.671875 177.367188 L 199.039062 178.046875 L 199.4375 178.703125 L 199.84375 179.34375 L 200.28125 179.960938 L 200.734375 180.5625 L 201.210938 181.132812 L 201.710938 181.6875 L 202.234375 182.21875 L 202.773438 182.726562 L 203.34375 183.210938 L 203.9375 183.679688 L 203.34375 184.140625 L 202.773438 184.625 L 202.234375 185.140625 L 201.710938 185.671875 L 201.210938 186.226562 L 200.734375 186.796875 L 200.28125 187.398438 L 199.84375 188.015625 L 199.4375 188.648438 L 199.039062 189.304688 L 198.671875 189.984375 L 198.3125 190.679688 L 197.976562 191.398438 L 197.664062 192.132812 L 197.367188 192.882812 L 197.085938 193.648438 L 196.828125 194.4375 L 196.578125 195.234375 L 196.351562 196.054688 L 196.140625 196.890625 L 195.945312 197.734375 L 195.765625 198.601562 L 195.59375 199.476562 L 195.445312 200.375 L 195.304688 201.28125 L 195.179688 202.195312 L 195.070312 203.132812 L 194.976562 204.070312 L 194.890625 205.03125 L 194.8125 206 L 194.75 206.976562 L 194.695312 207.96875 L 194.65625 208.96875 L 194.632812 209.976562 L 194.609375 211 L 194.59375 212.023438 L 194.59375 213.0625 L 194.601562 214.109375 L 194.617188 215.164062 L 194.640625 216.21875 L 194.664062 217.289062 L 194.703125 218.367188 L 194.75 219.445312 L 194.796875 220.53125 L 194.851562 221.625 L 194.914062 222.71875 L 194.96875 223.820312 L 195.039062 224.921875 L 195.117188 226.03125 L 195.1875 227.140625 L 195.265625 228.257812 L 195.523438 231.609375 L 195.609375 232.734375 L 195.695312 233.851562 L 195.78125 234.976562 L 195.875 236.09375 L 195.960938 237.21875 L 196.046875 238.335938 L 196.140625 239.453125 L 196.21875 240.570312 L 196.390625 242.804688 L 196.460938 243.90625 L 196.539062 245.015625 L 196.609375 246.117188 L 196.679688 247.210938 L 196.742188 248.304688 L 196.796875 249.390625 L 196.84375 250.476562 L 196.890625 251.554688 L 196.9375 252.617188 L 196.96875 253.679688 L 196.992188 254.734375 L 197.015625 255.78125 L 197.023438 256.820312 L 197.023438 258.875 L 197.007812 259.890625 L 196.976562 260.890625 L 196.945312 261.882812 L 196.898438 262.867188 L 196.84375 263.835938 L 196.78125 264.796875 L 196.695312 265.742188 L 196.609375 266.679688 L 196.5 267.601562 L 196.382812 268.507812 L 196.257812 269.40625 L 196.109375 270.289062 L 195.953125 271.15625 L 195.78125 272.007812 L 195.59375 272.84375 L 195.390625 273.671875 L 195.171875 274.46875 L 194.9375 275.265625 L 194.679688 276.039062 L 194.414062 276.789062 L 194.125 277.53125 L 193.820312 278.25 L 193.5 278.945312 L 193.15625 279.632812 L 192.789062 280.296875 L 192.414062 280.9375 L 192.007812 281.5625 L 191.585938 282.164062 L 191.140625 282.742188 L 190.679688 283.304688 L 190.195312 283.835938 L 189.6875 284.351562 L 189.15625 284.84375 L 188.601562 285.3125 L 188.023438 285.757812 L 187.421875 286.179688 L 186.796875 286.578125 L 186.140625 286.953125 L 185.46875 287.296875 L 184.765625 287.625 L 184.039062 287.914062 "/>
<path fill="none" stroke-width="3.985" stroke-linecap="butt" stroke-linejoin="miter" stroke="rgb(0%, 0%, 0%)" stroke-opacity="1" stroke-miterlimit="10" d="M 920.195299 340.429682 L 922.773424 341.445307 L 925.273424 342.57812 L 927.695299 343.906245 L 929.999986 345.351557 L 932.226549 346.914057 L 934.374986 348.632807 L 936.406236 350.507807 L 938.398424 352.499995 L 940.273423 354.60937 L 942.070298 356.835932 L 943.789048 359.218745 L 945.429673 361.718745 L 946.992173 364.335932 L 948.476548 367.070307 L 949.921861 369.921869 L 951.249986 372.890619 L 952.539048 375.937494 L 953.749986 379.140619 L 954.882798 382.421869 L 955.937486 385.820307 L 956.992173 389.335932 L 957.929673 392.929682 L 958.828111 396.601557 L 959.648423 400.390619 L 960.429673 404.296869 L 961.132798 408.281244 L 961.796861 412.343744 L 962.421861 416.484369 L 963.007798 420.703119 L 963.515611 425.039056 L 963.984361 429.414056 L 964.414048 433.906244 L 964.804673 438.437493 L 965.156236 443.046868 L 965.468736 447.773431 L 965.703111 452.539056 L 965.937486 457.343743 L 966.132798 462.226556 L 966.328111 467.187493 L 966.445298 472.187493 L 966.523423 477.265618 L 966.601548 482.382805 L 966.679673 487.539055 L 966.679673 503.359367 L 966.640611 508.71093 L 966.601548 514.101555 L 966.445298 525.039055 L 966.328111 530.546867 L 966.093736 541.640617 L 965.976548 547.226554 L 965.859361 552.851554 L 965.703111 558.515617 L 965.585923 564.179679 L 965.429673 569.843742 L 965.312486 575.546866 L 965.156236 581.249991 L 965.039048 586.992179 L 964.921861 592.695304 L 964.687486 604.179678 L 964.453111 621.406241 L 964.414048 627.148428 L 964.335923 638.554678 L 964.335923 644.257803 L 964.414048 655.664053 L 964.765611 672.539052 L 964.921861 678.12499 L 965.390611 689.21874 L 965.664048 694.68749 L 965.976548 700.15624 L 966.328111 705.585927 L 966.718736 710.976552 L 967.148423 716.328114 L 968.164048 726.874989 L 968.749986 732.070302 L 969.374986 737.226552 L 970.039048 742.304676 L 970.781236 747.343739 L 971.562486 752.343739 L 972.421861 757.265614 L 973.320298 762.148426 L 974.29686 766.953114 L 975.312485 771.679676 L 976.406235 776.328113 L 977.57811 780.937488 L 978.789048 785.429676 L 980.07811 789.882801 L 981.445298 794.257801 L 982.851548 798.515613 L 984.374985 802.734363 L 985.937485 806.835925 L 987.617173 810.898425 L 989.374985 814.843738 L 991.17186 818.671863 L 993.085923 822.421863 L 995.07811 826.093738 L 997.148423 829.648425 L 999.29686 833.085925 L 1001.523423 836.4453 L 1003.867173 839.687487 L 1006.289048 842.85155 L 1008.82811 845.859362 L 1011.445297 848.78905 L 1014.14061 851.60155 L 1016.992172 854.2578 L 1019.882797 856.835925 L 1022.89061 859.296862 L 1026.01561 861.60155 L 1022.89061 863.9453 L 1019.882797 866.367175 L 1016.992172 868.9453 L 1014.14061 871.640612 L 1011.445297 874.414049 L 1008.82811 877.343737 L 1006.289048 880.351549 L 1003.867173 883.515612 L 1001.523423 886.757799 L 999.29686 890.117174 L 997.148423 893.593737 L 995.07811 897.148424 L 993.085923 900.781237 L 991.17186 904.531237 L 989.374985 908.398424 L 987.617173 912.343736 L 985.937485 916.367174 L 984.374985 920.468736 L 982.851548 924.687486 L 981.445298 928.984361 L 980.07811 933.320299 L 978.789048 937.773424 L 977.57811 942.304673 L 976.406235 946.874986 L 975.312485 951.562486 L 974.29686 956.289048 L 973.320298 961.093736 L 972.421861 965.937486 L 971.562486 970.859361 L 970.781236 975.85936 L 970.039048 980.898423 L 969.374986 985.976548 L 968.749986 991.132798 L 968.164048 996.367173 L 967.656236 1001.601548 L 967.148423 1006.914047 L 966.718736 1012.226547 L 966.328111 1017.617172 L 965.976548 1023.04686 L 965.664048 1028.51561 L 965.390611 1034.023422 L 965.156236 1039.531235 L 964.921861 1045.078109 L 964.765611 1050.664047 L 964.531236 1061.914047 L 964.414048 1067.578109 L 964.374986 1073.242172 L 964.335923 1078.945296 L 964.335923 1084.648421 L 964.374986 1090.351546 L 964.453111 1101.835921 L 964.531236 1107.539046 L 964.687486 1119.023421 L 964.921861 1130.507796 L 965.039048 1136.210921 L 965.156236 1141.953108 L 965.312486 1147.656233 L 965.429673 1153.359358 L 965.585923 1159.02342 L 965.703111 1164.726545 L 965.859361 1170.351545 L 965.976548 1175.976545 L 966.210923 1187.14842 L 966.445298 1198.164045 L 966.523423 1203.671857 L 966.601548 1209.101544 L 966.640611 1214.492169 L 966.679673 1219.843732 L 966.679673 1235.664044 L 966.523423 1245.976544 L 966.445298 1251.015606 L 966.328111 1256.015606 L 966.132798 1260.976544 L 965.937486 1265.859356 L 965.703111 1270.703106 L 965.468736 1275.468731 L 965.156236 1280.156231 L 964.804673 1284.765606 L 964.414048 1289.296856 L 963.984361 1293.789043 L 963.515611 1298.203106 L 963.007798 1302.499981 L 962.421861 1306.718731 L 961.796861 1310.898418 L 961.132798 1314.960918 L 960.429673 1318.945293 L 959.648423 1322.81248 L 958.828111 1326.601543 L 957.929673 1330.31248 L 956.992173 1333.90623 L 955.937486 1337.382793 L 954.882798 1340.78123 L 953.749986 1344.06248 L 952.539048 1347.265605 L 951.249986 1350.351542 L 949.921861 1353.28123 L 948.476548 1356.132792 L 946.992173 1358.867167 L 945.429673 1361.484355 L 943.789048 1363.984355 L 942.070298 1366.367167 L 940.273423 1368.59373 L 938.398424 1370.703105 L 936.406236 1372.695292 L 934.374986 1374.570292 L 932.226549 1376.289042 L 929.999986 1377.851542 L 927.695299 1379.296854 L 925.273424 1380.624979 L 922.773424 1381.757792 L 920.195299 1382.773417 L 923.828111 1381.328104 L 927.343736 1379.726542 L 930.703111 1377.968729 L 933.984361 1376.093729 L 937.109361 1374.140605 L 940.117173 1372.03123 L 943.007798 1369.804667 L 945.781236 1367.460917 L 948.437486 1364.960917 L 950.976548 1362.421855 L 953.398423 1359.726542 L 955.703111 1356.914042 L 957.929673 1354.023417 L 960.039048 1351.015605 L 962.070298 1347.890605 L 963.945298 1344.68748 L 965.781236 1341.367168 L 967.499986 1337.96873 L 969.101548 1334.453105 L 970.624986 1330.859355 L 972.070298 1327.18748 L 973.398423 1323.398418 L 974.687485 1319.53123 L 975.85936 1315.585918 L 976.95311 1311.56248 L 977.968735 1307.460918 L 978.906235 1303.242168 L 979.76561 1298.984356 L 980.54686 1294.648418 L 981.289048 1290.234356 L 981.914048 1285.742168 L 982.499985 1281.210918 L 983.04686 1276.601543 L 983.476548 1271.914044 L 983.906235 1267.187481 L 984.218735 1262.382794 L 984.492173 1257.539044 L 984.726548 1252.617169 L 984.882798 1247.656231 L 985.039048 1242.656231 L 985.117173 1237.578107 L 985.117173 1227.304669 L 985.07811 1222.148419 L 984.960923 1216.914044 L 984.843735 1211.601544 L 984.687485 1206.328107 L 984.45311 1200.976545 L 983.98436 1190.195295 L 983.710923 1184.726545 L 983.398423 1179.296857 L 982.695298 1168.281233 L 982.304673 1162.77342 L 981.95311 1157.226545 L 981.523423 1151.640608 L 981.093735 1146.093733 L 980.70311 1140.507796 L 980.23436 1134.882796 L 979.374985 1123.710921 L 978.906235 1118.085921 L 978.476548 1112.460921 L 977.617173 1101.289046 L 977.187485 1095.664046 L 976.32811 1084.492171 L 975.937485 1078.945296 L 975.585923 1073.359359 L 975.195298 1067.812484 L 974.843735 1062.304672 L 974.570298 1056.796859 L 974.257798 1051.328109 L 973.98436 1045.859359 L 973.749985 1040.468734 L 973.51561 1035.039047 L 973.320298 1029.687485 L 973.20311 1024.335922 L 973.085923 1019.023422 L 973.007798 1013.749985 L 972.968736 1008.554672 L 972.968736 1003.35936 L 973.046861 998.20311 L 973.164048 993.085923 L 973.281235 988.04686 L 973.476548 983.04686 L 973.749985 978.124985 L 974.062485 973.20311 L 974.45311 968.359361 L 974.882798 963.593736 L 975.351548 958.867173 L 975.898423 954.179673 L 976.523423 949.609361 L 977.226548 945.078111 L 977.968735 940.624986 L 978.82811 936.210924 L 979.726548 931.914049 L 980.70311 927.656236 L 981.757798 923.476549 L 982.89061 919.414049 L 984.14061 915.390611 L 985.429673 911.484361 L 986.835923 907.617174 L 988.320298 903.867174 L 989.882798 900.195299 L 991.562485 896.601549 L 993.35936 893.164049 L 995.195298 889.765612 L 997.187485 886.484362 L 999.218735 883.281237 L 1001.406235 880.195299 L 1003.67186 877.187487 L 1006.054673 874.335924 L 1008.554672 871.562487 L 1011.17186 868.906237 L 1013.867172 866.367175 L 1016.718735 863.9453 L 1019.687485 861.60155 L 1016.718735 859.296862 L 1013.867172 856.874987 L 1011.17186 854.296862 L 1008.554672 851.640612 L 1006.054673 848.867175 L 1003.67186 846.015612 L 1001.406235 843.0078 L 999.218735 839.921862 L 997.187485 836.7578 L 995.195298 833.47655 L 993.35936 830.078113 L 991.562485 826.60155 L 989.882798 823.0078 L 988.320298 819.335925 L 986.835923 815.585925 L 985.429673 811.7578 L 984.14061 807.812488 L 982.89061 803.828113 L 981.757798 799.726551 L 980.70311 795.546863 L 979.726548 791.328113 L 978.82811 786.992176 L 977.968735 782.617176 L 977.226548 778.124988 L 976.523423 773.593738 L 975.898423 769.023426 L 975.351548 764.335926 L 974.882798 759.648426 L 974.45311 754.843739 L 974.062485 749.999989 L 973.749985 745.117176 L 973.476548 740.156239 L 973.281235 735.156239 L 973.164048 730.117177 L 973.046861 724.999989 L 972.968736 719.882802 L 972.968736 714.687489 L 973.007798 709.453114 L 973.085923 704.179677 L 973.20311 698.90624 L 973.320298 693.554677 L 973.51561 688.164052 L 973.749985 682.773427 L 973.98436 677.34374 L 974.257798 671.87499 L 974.570298 666.40624 L 974.843735 660.898428 L 975.195298 655.390615 L 975.585923 649.84374 L 975.937485 644.296865 L 976.32811 638.710928 L 977.617173 621.953116 L 978.04686 616.328116 L 978.476548 610.742178 L 978.906235 605.117178 L 979.374985 599.531241 L 979.804673 593.906241 L 980.23436 588.320304 L 980.70311 582.734366 L 981.093735 577.148429 L 981.95311 565.976554 L 982.304673 560.468742 L 982.695298 554.921867 L 983.04686 549.414054 L 983.398423 543.945304 L 983.710923 538.476554 L 983.98436 533.046867 L 984.218735 527.61718 L 984.45311 522.226555 L 984.687485 516.914055 L 984.843735 511.601555 L 984.960923 506.328117 L 985.07811 501.093743 L 985.117173 495.89843 L 985.117173 485.624993 L 985.039048 480.546868 L 984.882798 475.546868 L 984.726548 470.58593 L 984.492173 465.664056 L 984.218735 460.820306 L 983.906235 456.015618 L 983.476548 451.289056 L 983.04686 446.601556 L 982.499985 441.992181 L 981.914048 437.460931 L 981.289048 432.968744 L 980.54686 428.554681 L 979.76561 424.218744 L 978.906235 419.960931 L 977.968735 415.781244 L 976.95311 411.640619 L 975.85936 407.656244 L 974.687485 403.671869 L 973.398423 399.804682 L 972.070298 396.054682 L 970.624986 392.343744 L 969.101548 388.749994 L 967.499986 385.273432 L 965.781236 381.835932 L 963.945298 378.515619 L 962.070298 375.312494 L 960.039048 372.187494 L 957.929673 369.179682 L 955.703111 366.289057 L 953.398423 363.476557 L 950.976548 360.820307 L 948.437486 358.242182 L 945.781236 355.781245 L 943.007798 353.437495 L 940.117173 351.210932 L 937.109361 349.101557 L 933.984361 347.10937 L 930.703111 345.23437 L 927.343736 343.51562 L 923.828111 341.874995 Z M 920.195299 340.429682 " transform="matrix(0.2, 0, 0, -0.2, 0, 356)"/>
<path fill="none" stroke-width="7.9701" stroke-linecap="butt" stroke-linejoin="miter" stroke="rgb(0%, 0%, 0%)" stroke-opacity="1" stroke-miterlimit="10" d="M 899.023424 1401.601542 L 899.023424 1374.609355 " transform="matrix(0.2, 0, 0, -0.2, 0, 356)"/>
<path fill="none" stroke-width="7.9701" stroke-linecap="butt" stroke-linejoin="miter" stroke="rgb(0%, 0%, 0%)" stroke-opacity="1" stroke-miterlimit="10" d="M 899.023424 1320.62498 L 899.023424 1293.632793 " transform="matrix(0.2, 0, 0, -0.2, 0, 356)"/>
<path fill="none" stroke-width="7.9701" stroke-linecap="butt" stroke-linejoin="miter" stroke="rgb(0%, 0%, 0%)" stroke-opacity="1" stroke-miterlimit="10" d="M 899.023424 1293.632793 L 899.023424 1266.601544 " transform="matrix(0.2, 0, 0, -0.2, 0, 356)"/>
<path fill="none" stroke-width="7.9701" stroke-linecap="butt" stroke-linejoin="miter" stroke="rgb(0%, 0%, 0%)" stroke-opacity="1" stroke-miterlimit="10" d="M 899.023424 1212.617169 L 899.023424 1185.624982 " transform="matrix(0.2, 0, 0, -0.2, 0, 356)"/>
<path fill="none" stroke-width="7.9701" stroke-linecap="butt" stroke-linejoin="miter" stroke="rgb(0%, 0%, 0%)" stroke-opacity="1" stroke-miterlimit="10" d="M 899.023424 1185.624982 L 899.023424 1158.593733 " transform="matrix(0.2, 0, 0, -0.2, 0, 356)"/>
<path fill="none" stroke-width="7.9701" stroke-linecap="butt" stroke-linejoin="miter" stroke="rgb(0%, 0%, 0%)" stroke-opacity="1" stroke-miterlimit="10" d="M 899.023424 1104.609359 L 899.023424 1077.617171 " transform="matrix(0.2, 0, 0, -0.2, 0, 356)"/>
<path fill="none" stroke-width="7.9701" stroke-linecap="butt" stroke-linejoin="miter" stroke="rgb(0%, 0%, 0%)" stroke-opacity="1" stroke-miterlimit="10" d="M 899.023424 1077.617171 L 899.023424 1050.624984 " transform="matrix(0.2, 0, 0, -0.2, 0, 356)"/>
<path fill="none" stroke-width="7.9701" stroke-linecap="butt" stroke-linejoin="miter" stroke="rgb(0%, 0%, 0%)" stroke-opacity="1" stroke-miterlimit="10" d="M 899.023424 996.601548 L 899.023424 969.609361 " transform="matrix(0.2, 0, 0, -0.2, 0, 356)"/>
<path fill="none" stroke-width="7.9701" stroke-linecap="butt" stroke-linejoin="miter" stroke="rgb(0%, 0%, 0%)" stroke-opacity="1" stroke-miterlimit="10" d="M 899.023424 969.609361 L 899.023424 942.617173 " transform="matrix(0.2, 0, 0, -0.2, 0, 356)"/>
<path fill="none" stroke-width="7.9701" stroke-linecap="butt" stroke-linejoin="miter" stroke="rgb(0%, 0%, 0%)" stroke-opacity="1" stroke-miterlimit="10" d="M 899.023424 888.593737 L 899.023424 861.60155 " transform="matrix(0.2, 0, 0, -0.2, 0, 356)"/>
<path fill="none" stroke-width="7.9701" stroke-linecap="butt" stroke-linejoin="miter" stroke="rgb(0%, 0%, 0%)" stroke-opacity="1" stroke-miterlimit="10" d="M 899.023424 861.60155 L 899.023424 834.609363 " transform="matrix(0.2, 0, 0, -0.2, 0, 356)"/>
<path fill="none" stroke-width="7.9701" stroke-linecap="butt" stroke-linejoin="miter" stroke="rgb(0%, 0%, 0%)" stroke-opacity="1" stroke-miterlimit="10" d="M 899.023424 780.585926 L 899.023424 753.593739 " transform="matrix(0.2, 0, 0, -0.2, 0, 356)"/>
<path fill="none" stroke-width="7.9701" stroke-linecap="butt" stroke-linejoin="miter" stroke="rgb(0%, 0%, 0%)" stroke-opacity="1" stroke-miterlimit="10" d="M 899.023424 753.593739 L 899.023424 726.601552 " transform="matrix(0.2, 0, 0, -0.2, 0, 356)"/>
<path fill="none" stroke-width="7.9701" stroke-linecap="butt" stroke-linejoin="miter" stroke="rgb(0%, 0%, 0%)" stroke-opacity="1" stroke-miterlimit="10" d="M 899.023424 672.617177 L 899.023424 645.585928 " transform="matrix(0.2, 0, 0, -0.2, 0, 356)"/>
<path fill="none" stroke-width="7.9701" stroke-linecap="butt" stroke-linejoin="miter" stroke="rgb(0%, 0%, 0%)" stroke-opacity="1" stroke-miterlimit="10" d="M 899.023424 645.585928 L 899.023424 618.593741 " transform="matrix(0.2, 0, 0, -0.2, 0, 356)"/>
<path fill="none" stroke-width="7.9701" stroke-linecap="butt" stroke-linejoin="miter" stroke="rgb(0%, 0%, 0%)" stroke-opacity="1" stroke-miterlimit="10" d="M 899.023424 564.609367 L 899.023424 537.617179 " transform="matrix(0.2, 0, 0, -0.2, 0, 356)"/>
<path fill="none" stroke-width="7.9701" stroke-linecap="butt" stroke-linejoin="miter" stroke="rgb(0%, 0%, 0%)" stroke-opacity="1" stroke-miterlimit="10" d="M 899.023424 537.617179 L 899.023424 510.58593 " transform="matrix(0.2, 0, 0, -0.2, 0, 356)"/>
<path fill="none" stroke-width="7.9701" stroke-linecap="butt" stroke-linejoin="miter" stroke="rgb(0%, 0%, 0%)" stroke-opacity="1" stroke-miterlimit="10" d="M 899.023424 456.601556 L 899.023424 429.609369 " transform="matrix(0.2, 0, 0, -0.2, 0, 356)"/>
<path fill="none" stroke-width="7.9701" stroke-linecap="butt" stroke-linejoin="miter" stroke="rgb(0%, 0%, 0%)" stroke-opacity="1" stroke-miterlimit="10" d="M 899.023424 429.609369 L 899.023424 402.617182 " transform="matrix(0.2, 0, 0, -0.2, 0, 356)"/>
<path fill="none" stroke-width="7.9701" stroke-linecap="butt" stroke-linejoin="miter" stroke="rgb(0%, 0%, 0%)" stroke-opacity="1" stroke-miterlimit="10" d="M 899.023424 348.593745 L 899.023424 321.601558 " transform="matrix(0.2, 0, 0, -0.2, 0, 356)"/>
<path fill-rule="nonzero" fill="rgb(100%, 100%, 100%)" fill-opacity="1" d="M 4.695312 291.703125 L 33.976562 291.703125 L 33.976562 318.585938 L 4.695312 318.585938 Z M 4.695312 291.703125 "/>
<path fill-rule="nonzero" fill="rgb(0%, 0%, 0%)" fill-opacity="1" d="M 26.875 303.058594 C 26.875 299.527344 24.5625 297.183594 21.3125 297.183594 C 16.59375 297.183594 11.78125 302.121094 11.78125 307.214844 C 11.78125 310.839844 14.21875 313.027344 17.375 313.027344 C 22 313.027344 26.875 308.246094 26.875 303.058594 Z M 17.5 312.464844 C 15.34375 312.464844 13.8125 310.714844 13.8125 307.839844 C 13.8125 306.871094 14.125 303.683594 15.8125 301.121094 C 17.3125 298.871094 19.4375 297.714844 21.15625 297.714844 C 22.96875 297.714844 24.90625 298.933594 24.90625 302.183594 C 24.90625 303.777344 24.34375 307.183594 22.15625 309.839844 C 21.125 311.183594 19.34375 312.464844 17.5 312.464844 Z M 17.5 312.464844 "/>
<path fill-rule="nonzero" fill="rgb(100%, 100%, 100%)" fill-opacity="1" d="M 338.15625 291.703125 L 370.078125 291.703125 L 370.078125 318.585938 L 338.15625 318.585938 Z M 338.15625 291.703125 "/>
<path fill-rule="nonzero" fill="rgb(0%, 0%, 0%)" fill-opacity="1" d="M 354.773438 303.589844 L 352.929688 299.246094 C 352.867188 299.089844 352.804688 298.996094 352.804688 298.964844 C 352.804688 298.839844 353.179688 298.433594 354.117188 298.339844 C 354.335938 298.308594 354.554688 298.308594 354.554688 297.933594 C 354.554688 297.652344 354.273438 297.652344 354.210938 297.652344 C 353.304688 297.652344 352.367188 297.714844 351.460938 297.714844 C 350.929688 297.714844 349.554688 297.652344 349.023438 297.652344 C 348.898438 297.652344 348.617188 297.652344 348.617188 298.089844 C 348.617188 298.339844 348.835938 298.339844 349.117188 298.339844 C 350.429688 298.339844 350.585938 298.558594 350.773438 299.027344 L 353.335938 305.121094 L 348.742188 310.058594 L 348.460938 310.308594 C 347.398438 311.464844 346.367188 311.808594 345.242188 311.871094 C 344.960938 311.902344 344.773438 311.902344 344.773438 312.308594 C 344.773438 312.339844 344.773438 312.558594 345.054688 312.558594 C 345.710938 312.558594 346.429688 312.496094 347.117188 312.496094 C 347.898438 312.496094 348.773438 312.558594 349.554688 312.558594 C 349.679688 312.558594 349.929688 312.558594 349.929688 312.121094 C 349.929688 311.902344 349.710938 311.871094 349.679688 311.871094 C 349.492188 311.871094 348.804688 311.808594 348.804688 311.214844 C 348.804688 310.871094 349.117188 310.496094 349.398438 310.214844 L 351.617188 307.871094 L 353.585938 305.746094 L 355.773438 310.933594 C 355.867188 311.183594 355.898438 311.214844 355.898438 311.246094 C 355.898438 311.433594 355.492188 311.808594 354.617188 311.871094 C 354.398438 311.902344 354.179688 311.933594 354.179688 312.308594 C 354.179688 312.558594 354.429688 312.558594 354.523438 312.558594 C 355.117188 312.558594 356.648438 312.496094 357.273438 312.496094 C 357.804688 312.496094 359.148438 312.558594 359.679688 312.558594 C 359.835938 312.558594 360.117188 312.558594 360.117188 312.152344 C 360.117188 311.871094 359.898438 311.871094 359.710938 311.871094 C 358.242188 311.871094 358.210938 311.808594 357.835938 310.933594 C 356.992188 308.902344 355.523438 305.496094 355.023438 304.183594 C 356.492188 302.652344 358.804688 300.058594 359.492188 299.464844 C 360.117188 298.933594 360.960938 298.402344 362.273438 298.339844 C 362.554688 298.308594 362.742188 298.308594 362.742188 297.902344 C 362.742188 297.871094 362.742188 297.652344 362.460938 297.652344 C 361.804688 297.652344 361.085938 297.714844 360.398438 297.714844 C 359.585938 297.714844 358.773438 297.652344 357.992188 297.652344 C 357.867188 297.652344 357.585938 297.652344 357.585938 298.089844 C 357.585938 298.246094 357.679688 298.308594 357.835938 298.339844 C 358.023438 298.371094 358.710938 298.402344 358.710938 299.027344 C 358.710938 299.308594 358.460938 299.589844 358.304688 299.808594 Z M 354.773438 303.589844 "/>
<path fill-rule="nonzero" fill="rgb(100%, 100%, 100%)" fill-opacity="1" d="M 4.453125 -5.757812 L 33.976562 -5.757812 L 33.976562 21.125 L 4.453125 21.125 Z M 4.453125 -5.757812 "/>
<path fill-rule="nonzero" fill="rgb(0%, 0%, 0%)" fill-opacity="1" d="M 23.511719 2.695312 L 23.792969 2.382812 C 24.449219 1.726562 25.167969 0.976562 26.667969 0.882812 C 26.917969 0.851562 27.105469 0.851562 27.105469 0.476562 C 27.105469 0.289062 26.980469 0.195312 26.824219 0.195312 C 26.261719 0.195312 25.605469 0.257812 25.042969 0.257812 C 24.324219 0.257812 23.542969 0.195312 22.855469 0.195312 C 22.730469 0.195312 22.449219 0.195312 22.449219 0.632812 C 22.449219 0.851562 22.636719 0.882812 22.761719 0.882812 C 22.917969 0.882812 23.542969 0.914062 23.542969 1.382812 C 23.542969 1.757812 23.042969 2.320312 22.949219 2.414062 L 17.886719 8.257812 L 15.511719 1.789062 C 15.355469 1.476562 15.355469 1.414062 15.355469 1.414062 C 15.355469 0.882812 16.449219 0.882812 16.667969 0.882812 C 16.949219 0.882812 17.167969 0.882812 17.167969 0.445312 C 17.167969 0.195312 16.917969 0.195312 16.855469 0.195312 C 16.230469 0.195312 14.699219 0.257812 14.105469 0.257812 C 13.542969 0.257812 12.199219 0.195312 11.667969 0.195312 C 11.542969 0.195312 11.230469 0.195312 11.230469 0.632812 C 11.230469 0.882812 11.449219 0.882812 11.730469 0.882812 C 13.042969 0.882812 13.136719 1.070312 13.324219 1.632812 L 16.011719 8.789062 C 16.042969 8.851562 16.105469 9.101562 16.105469 9.164062 C 16.105469 9.226562 15.230469 12.757812 15.136719 13.132812 C 14.855469 14.351562 14.824219 14.414062 13.074219 14.414062 C 12.667969 14.414062 12.480469 14.414062 12.480469 14.851562 C 12.480469 15.101562 12.761719 15.101562 12.792969 15.101562 C 13.417969 15.101562 14.917969 15.039062 15.542969 15.039062 C 16.136719 15.039062 17.730469 15.101562 18.324219 15.101562 C 18.480469 15.101562 18.761719 15.101562 18.761719 14.664062 C 18.761719 14.414062 18.542969 14.414062 18.136719 14.414062 C 18.105469 14.414062 17.667969 14.414062 17.292969 14.382812 C 16.855469 14.351562 16.730469 14.289062 16.730469 14.039062 C 16.730469 13.882812 16.917969 13.101562 17.011719 12.664062 L 17.792969 9.570312 C 17.886719 9.164062 17.917969 9.101562 18.105469 8.914062 Z M 23.511719 2.695312 "/>
<path fill="none" stroke-width="11.9553" stroke-linecap="butt" stroke-linejoin="miter" stroke="rgb(0%, 0%, 0%)" stroke-opacity="1" stroke-miterlimit="10" d="M 8.007812 321.601558 L 1790.039036 321.601558 " transform="matrix(0.2, 0, 0, -0.2, 0, 356)"/>
<path fill="none" stroke-width="11.9553" stroke-linecap="butt" stroke-linejoin="miter" stroke="rgb(0%, 0%, 0%)" stroke-opacity="1" stroke-miterlimit="10" d="M 169.999997 177.617185 L 169.999997 1761.601536 " transform="matrix(0.2, 0, 0, -0.2, 0, 356)"/>
<path fill-rule="nonzero" fill="rgb(0%, 0%, 0%)" fill-opacity="1" d="M 151.597656 348.300781 C 152.785156 347.894531 154.785156 347.300781 154.785156 345.363281 C 154.785156 343.050781 152.066406 341.988281 150.097656 341.988281 C 149.160156 341.988281 148.191406 342.207031 147.347656 342.707031 C 147.222656 342.769531 147.066406 342.957031 146.910156 342.957031 C 146.597656 342.957031 146.035156 341.988281 145.722656 341.988281 C 145.535156 341.988281 145.503906 342.207031 145.503906 342.300781 L 145.503906 345.863281 C 145.503906 345.988281 145.597656 346.144531 145.785156 346.144531 C 146.097656 346.144531 146.066406 345.519531 146.160156 345.175781 C 146.628906 343.457031 148.191406 342.707031 149.691406 342.613281 L 150.097656 342.613281 C 151.441406 342.613281 153.003906 343.488281 153.003906 345.363281 C 153.003906 347.175781 151.222656 348.113281 149.566406 348.113281 C 149.253906 348.113281 148.941406 348.113281 148.628906 348.113281 L 148.472656 348.113281 C 148.285156 348.113281 148.066406 348.113281 148.066406 348.332031 L 148.066406 348.363281 C 148.097656 348.550781 148.285156 348.582031 148.472656 348.582031 L 150.316406 348.582031 C 151.878906 348.707031 153.316406 349.738281 153.472656 351.363281 L 153.472656 351.582031 C 153.472656 353.425781 151.753906 354.582031 150.003906 354.582031 C 148.097656 354.582031 146.128906 353.957031 145.816406 351.582031 C 145.816406 351.425781 145.753906 351.238281 145.535156 351.238281 C 145.316406 351.269531 145.285156 351.425781 145.285156 351.582031 C 145.285156 354.175781 147.878906 355.207031 150.128906 355.207031 C 152.191406 355.207031 155.066406 354.238281 155.316406 351.769531 L 155.316406 351.644531 C 155.316406 349.675781 153.253906 348.707031 151.597656 348.300781 Z M 151.597656 348.300781 "/>
<path fill-rule="nonzero" fill="rgb(0%, 0%, 0%)" fill-opacity="1" d="M 163.695312 341.988281 C 160.320312 342.394531 157.632812 345.050781 157.632812 348.644531 C 157.632812 351.925781 160.226562 355.175781 164.101562 355.175781 C 167.601562 355.175781 170.570312 352.269531 170.570312 348.644531 C 170.570312 345.457031 168.070312 341.988281 164.132812 341.988281 C 164.007812 341.988281 163.851562 341.988281 163.695312 341.988281 Z M 159.507812 348.863281 L 159.507812 348.519531 C 159.507812 346.019531 160.414062 343.082031 163.570312 342.550781 C 163.757812 342.519531 163.914062 342.519531 164.101562 342.519531 C 166.914062 342.519531 168.664062 345.238281 168.664062 348.269531 C 168.664062 350.675781 167.945312 353.738281 164.976562 354.519531 C 164.695312 354.582031 164.414062 354.613281 164.132812 354.613281 L 163.945312 354.613281 C 161.351562 354.519531 159.945312 352.050781 159.601562 349.644531 Z M 159.507812 348.863281 "/>
<path fill-rule="nonzero" fill="rgb(0%, 0%, 0%)" fill-opacity="1" d="M 173.027344 342.332031 L 173.027344 342.925781 L 173.464844 342.925781 C 174.058594 342.925781 174.683594 343.019531 174.683594 343.894531 L 174.683594 353.363281 C 174.683594 354.207031 173.964844 354.238281 173.308594 354.238281 L 173.027344 354.238281 L 173.027344 354.832031 L 178.808594 354.832031 C 179.214844 354.832031 179.589844 354.863281 179.996094 354.863281 C 181.996094 354.863281 184.339844 353.925781 184.558594 351.519531 L 184.558594 351.332031 C 184.558594 348.800781 181.683594 347.769531 179.777344 347.769531 C 178.527344 347.769531 177.339844 347.894531 176.152344 347.988281 L 176.152344 343.769531 C 176.152344 343.332031 176.214844 342.925781 176.996094 342.925781 L 179.308594 342.925781 C 180.277344 342.925781 181.371094 342.988281 182.089844 343.707031 C 182.777344 344.425781 182.871094 345.644531 182.964844 346.582031 L 183.496094 346.582031 L 183.027344 342.332031 Z M 176.152344 348.613281 C 176.402344 348.613281 176.652344 348.550781 176.902344 348.519531 L 178.277344 348.457031 C 178.558594 348.425781 178.839844 348.394531 179.152344 348.394531 C 180.714844 348.394531 182.683594 349.394531 182.683594 351.238281 C 182.683594 352.988281 181.339844 354.269531 179.339844 354.269531 C 179.058594 354.269531 178.746094 354.238281 178.496094 354.238281 L 176.964844 354.238281 C 176.496094 354.238281 176.246094 354.207031 176.152344 353.582031 Z M 176.152344 348.613281 "/>
<path fill-rule="nonzero" fill="rgb(0%, 0%, 0%)" fill-opacity="1" d="M 186.90625 342.332031 L 186.90625 342.925781 L 187.375 342.925781 C 187.96875 342.925781 188.5625 343.019531 188.5625 343.894531 L 188.5625 353.363281 C 188.5625 354.207031 187.875 354.238281 187.1875 354.238281 L 186.90625 354.238281 L 186.90625 354.832031 L 191.8125 354.832031 L 191.8125 354.238281 L 191.375 354.238281 C 190.75 354.238281 190.15625 354.175781 190.15625 353.300781 L 190.15625 349.113281 L 193.875 349.113281 C 195.65625 348.988281 197.9375 347.800781 197.9375 345.769531 C 197.9375 343.550781 195.59375 342.488281 193.6875 342.332031 Z M 190.125 348.582031 L 190.125 343.582031 C 190.21875 342.988281 190.46875 342.925781 190.875 342.925781 L 192.3125 342.925781 C 193.9375 342.925781 196.0625 342.988281 196.0625 345.769531 C 196.0625 346.425781 195.96875 347.113281 195.5625 347.613281 C 194.90625 348.394531 193.8125 348.582031 192.84375 348.582031 Z M 190.125 348.582031 "/>
<path fill-rule="nonzero" fill="rgb(0%, 0%, 0%)" fill-opacity="1" d="M 202.632812 352.550781 C 202.132812 352.644531 201.632812 353.082031 201.632812 353.675781 C 201.632812 354.300781 202.164062 354.832031 202.789062 354.832031 C 203.414062 354.832031 203.976562 354.363281 203.976562 353.707031 C 203.976562 353.082031 203.445312 352.519531 202.820312 352.519531 C 202.757812 352.519531 202.695312 352.550781 202.632812 352.550781 Z M 202.632812 352.550781 "/>
<path fill-rule="nonzero" fill="rgb(0%, 0%, 0%)" fill-opacity="1" d="M 218.035156 341.113281 C 218.722656 340.050781 220.097656 339.519531 221.378906 339.519531 C 222.816406 339.519531 223.972656 340.425781 223.972656 342.269531 C 223.972656 343.800781 223.222656 345.675781 221.628906 346.082031 C 221.066406 346.238281 219.566406 346.082031 219.566406 346.519531 C 219.566406 346.707031 219.753906 346.769531 219.941406 346.769531 L 221.222656 346.769531 C 223.566406 346.769531 224.441406 348.738281 224.441406 350.550781 C 224.441406 352.300781 223.816406 354.707031 221.410156 354.707031 C 219.816406 354.707031 218.285156 353.988281 217.410156 352.582031 L 217.628906 352.582031 C 218.316406 352.582031 218.910156 352.175781 218.910156 351.425781 C 218.910156 350.707031 218.378906 350.238281 217.691406 350.238281 L 217.597656 350.238281 C 216.941406 350.269531 216.503906 350.800781 216.503906 351.425781 C 216.503906 353.894531 219.066406 355.332031 221.503906 355.332031 C 224.097656 355.332031 226.660156 353.488281 226.660156 350.738281 C 226.660156 348.613281 224.628906 346.550781 222.410156 346.457031 C 224.285156 345.800781 225.972656 344.425781 225.972656 342.269531 C 225.972656 340.082031 223.566406 338.957031 221.535156 338.957031 C 219.660156 338.957031 217.191406 339.863281 217.191406 342.113281 C 217.191406 342.675781 217.441406 343.175781 218.191406 343.300781 L 218.285156 343.300781 C 218.941406 343.300781 219.410156 342.863281 219.410156 342.207031 C 219.410156 341.488281 218.847656 341.082031 218.253906 341.082031 C 218.191406 341.082031 218.128906 341.113281 218.035156 341.113281 Z M 218.035156 341.113281 "/>
<path fill-rule="nonzero" fill="rgb(0%, 0%, 0%)" fill-opacity="1" d="M 230.121094 351.894531 C 230.214844 351.925781 230.371094 351.957031 230.527344 351.957031 C 231.183594 351.957031 231.558594 351.457031 231.558594 350.863281 C 231.558594 350.269531 231.089844 349.832031 230.527344 349.832031 C 229.933594 349.832031 229.433594 350.269531 229.433594 350.957031 C 229.433594 353.269531 231.339844 355.332031 233.902344 355.332031 C 236.808594 355.332031 239.183594 352.988281 239.183594 350.019531 C 239.183594 347.644531 237.839844 345.582031 235.433594 344.894531 C 235.183594 344.832031 234.902344 344.832031 234.621094 344.832031 C 233.371094 344.832031 232.246094 345.238281 231.371094 346.144531 L 231.371094 341.144531 C 232.121094 341.269531 232.808594 341.488281 233.589844 341.488281 C 235.183594 341.488281 236.777344 340.894531 237.964844 339.613281 C 238.089844 339.457031 238.246094 339.363281 238.246094 339.175781 L 238.246094 339.144531 C 238.214844 339.019531 238.121094 338.957031 238.027344 338.957031 C 237.964844 338.957031 237.964844 338.957031 237.902344 338.988281 C 236.746094 339.394531 235.746094 339.707031 234.527344 339.707031 C 233.464844 339.707031 232.339844 339.550781 231.371094 339.113281 C 231.246094 339.050781 231.152344 338.988281 230.996094 338.957031 L 230.933594 338.957031 C 230.839844 338.957031 230.746094 339.050781 230.746094 339.175781 L 230.746094 346.769531 C 230.746094 346.988281 230.777344 347.175781 231.027344 347.175781 C 231.308594 347.175781 231.464844 346.738281 231.652344 346.550781 C 232.402344 345.769531 233.402344 345.332031 234.496094 345.300781 C 235.652344 345.300781 236.371094 346.082031 236.808594 347.019531 C 237.246094 347.957031 237.246094 349.113281 237.246094 350.144531 C 237.246094 351.800781 236.902344 353.550781 235.183594 354.394531 C 234.746094 354.613281 234.277344 354.707031 233.839844 354.707031 C 232.121094 354.707031 230.621094 353.519531 230.121094 351.894531 Z M 230.121094 351.894531 "/>
<path fill-rule="nonzero" fill="rgb(0%, 0%, 0%)" fill-opacity="1" d="M 244.140625 352.550781 C 243.640625 352.644531 243.140625 353.082031 243.140625 353.675781 C 243.140625 354.300781 243.671875 354.832031 244.296875 354.832031 C 244.921875 354.832031 245.484375 354.363281 245.484375 353.707031 C 245.484375 353.082031 244.953125 352.519531 244.328125 352.519531 C 244.265625 352.519531 244.203125 352.550781 244.140625 352.550781 Z M 244.140625 352.550781 "/>
</svg>
