<?xml version="1.0" encoding="UTF-8"?>
<svg xmlns="http://www.w3.org/2000/svg" xmlns:xlink="http://www.w3.org/1999/xlink" width="314" height="356" viewBox="0 0 314 356">
<path fill="none" stroke-width="7.9701" stroke-linecap="butt" stroke-linejoin="miter" stroke="rgb(0%, 0%, 0%)" stroke-opacity="1" stroke-miterlimit="10" d="M 408.007806 585.390616 L 408.007806 563.398429 " transform="matrix(0.2, 0, 0, -0.2, 0, 356)"/>
<path fill="none" stroke-width="7.9701" stroke-linecap="butt" stroke-linejoin="miter" stroke="rgb(0%, 0%, 0%)" stroke-opacity="1" stroke-miterlimit="10" d="M 408.007806 519.453117 L 408.007806 497.46093 " transform="matrix(0.2, 0, 0, -0.2, 0, 356)"/>
<path fill="none" stroke-width="7.9701" stroke-linecap="butt" stroke-linejoin="miter" stroke="rgb(0%, 0%, 0%)" stroke-opacity="1" stroke-miterlimit="10" d="M 408.007806 497.46093 L 408.007806 475.468743 " transform="matrix(0.2, 0, 0, -0.2, 0, 356)"/>
<path fill="none" stroke-width="7.9701" stroke-linecap="butt" stroke-linejoin="miter" stroke="rgb(0%, 0%, 0%)" stroke-opacity="1" stroke-miterlimit="10" d="M 408.007806 431.523431 L 408.007806 409.531244 " transform="matrix(0.2, 0, 0, -0.2, 0, 356)"/>
<path fill="none" stroke-width="7.9701" stroke-linecap="butt" stroke-linejoin="miter" stroke="rgb(0%, 0%, 0%)" stroke-opacity="1" stroke-miterlimit="10" d="M 408.007806 409.531244 L 408.007806 387.539057 " transform="matrix(0.2, 0, 0, -0.2, 0, 356)"/>
<path fill="none" stroke-width="7.9701" stroke-linecap="butt" stroke-linejoin="miter" stroke="rgb(0%, 0%, 0%)" stroke-opacity="1" stroke-miterlimit="10" d="M 408.007806 343.593745 L 408.007806 321.601558 " transform="matrix(0.2, 0, 0, -0.2, 0, 356)"/>
<path fill="none" stroke-width="7.9701" stroke-linecap="butt" stroke-linejoin="miter" stroke="rgb(0%, 0%, 0%)" stroke-opacity="1" stroke-miterlimit="10" d="M 408.007806 585.390616 L 384.023432 585.390616 " transform="matrix(0.2, 0, 0, -0.2, 0, 356)"/>
<path fill="none" stroke-width="7.9701" stroke-linecap="butt" stroke-linejoin="miter" stroke="rgb(0%, 0%, 0%)" stroke-opacity="1" stroke-miterlimit="10" d="M 336.01562 585.390616 L 311.992183 585.390616 " transform="matrix(0.2, 0, 0, -0.2, 0, 356)"/>
<path fill="none" stroke-width="7.9701" stroke-linecap="butt" stroke-linejoin="miter" stroke="rgb(0%, 0%, 0%)" stroke-opacity="1" stroke-miterlimit="10" d="M 311.992183 585.390616 L 288.007808 585.390616 " transform="matrix(0.2, 0, 0, -0.2, 0, 356)"/>
<path fill="none" stroke-width="7.9701" stroke-linecap="butt" stroke-linejoin="miter" stroke="rgb(0%, 0%, 0%)" stroke-opacity="1" stroke-miterlimit="10" d="M 239.999996 585.390616 L 216.015622 585.390616 " transform="matrix(0.2, 0, 0, -0.2, 0, 356)"/>
<path fill="none" stroke-width="7.9701" stroke-linecap="butt" stroke-linejoin="miter" stroke="rgb(0%, 0%, 0%)" stroke-opacity="1" stroke-miterlimit="10" d="M 216.015622 585.390616 L 191.992185 585.390616 " transform="matrix(0.2, 0, 0, -0.2, 0, 356)"/>
<path fill="none" stroke-width="7.9701" stroke-linecap="butt" stroke-linejoin="miter" stroke="rgb(0%, 0%, 0%)" stroke-opacity="1" stroke-miterlimit="10" d="M 144.023435 585.390616 L 119.999998 585.390616 " transform="matrix(0.2, 0, 0, -0.2, 0, 356)"/>
<path fill="none" stroke-width="7.9701" stroke-linecap="butt" stroke-linejoin="miter" stroke="rgb(0%, 0%, 0%)" stroke-opacity="1" stroke-miterlimit="10" d="M 696.015615 756.523426 L 696.015615 729.335927 " transform="matrix(0.2, 0, 0, -0.2, 0, 356)"/>
<path fill="none" stroke-width="7.9701" stroke-linecap="butt" stroke-linejoin="miter" stroke="rgb(0%, 0%, 0%)" stroke-opacity="1" stroke-miterlimit="10" d="M 696.015615 674.960927 L 696.015615 647.81249 " transform="matrix(0.2, 0, 0, -0.2, 0, 356)"/>
<path fill="none" stroke-width="7.9701" stroke-linecap="butt" stroke-linejoin="miter" stroke="rgb(0%, 0%, 0%)" stroke-opacity="1" stroke-miterlimit="10" d="M 696.015615 647.81249 L 696.015615 620.624991 " transform="matrix(0.2, 0, 0, -0.2, 0, 356)"/>
<path fill="none" stroke-width="7.9701" stroke-linecap="butt" stroke-linejoin="miter" stroke="rgb(0%, 0%, 0%)" stroke-opacity="1" stroke-miterlimit="10" d="M 696.015615 566.249992 L 696.015615 539.062492 " transform="matrix(0.2, 0, 0, -0.2, 0, 356)"/>
<path fill="none" stroke-width="7.9701" stroke-linecap="butt" stroke-linejoin="miter" stroke="rgb(0%, 0%, 0%)" stroke-opacity="1" stroke-miterlimit="10" d="M 696.015615 539.062492 L 696.015615 511.874992 " transform="matrix(0.2, 0, 0, -0.2, 0, 356)"/>
<path fill="none" stroke-width="7.9701" stroke-linecap="butt" stroke-linejoin="miter" stroke="rgb(0%, 0%, 0%)" stroke-opacity="1" stroke-miterlimit="10" d="M 696.015615 457.499993 L 696.015615 430.312494 " transform="matrix(0.2, 0, 0, -0.2, 0, 356)"/>
<path fill="none" stroke-width="7.9701" stroke-linecap="butt" stroke-linejoin="miter" stroke="rgb(0%, 0%, 0%)" stroke-opacity="1" stroke-miterlimit="10" d="M 696.015615 430.312494 L 696.015615 403.164056 " transform="matrix(0.2, 0, 0, -0.2, 0, 356)"/>
<path fill="none" stroke-width="7.9701" stroke-linecap="butt" stroke-linejoin="miter" stroke="rgb(0%, 0%, 0%)" stroke-opacity="1" stroke-miterlimit="10" d="M 696.015615 348.789057 L 696.015615 321.601558 " transform="matrix(0.2, 0, 0, -0.2, 0, 356)"/>
<path fill="none" stroke-width="7.9701" stroke-linecap="butt" stroke-linejoin="miter" stroke="rgb(0%, 0%, 0%)" stroke-opacity="1" stroke-miterlimit="10" d="M 696.015615 756.523426 L 667.18749 756.523426 " transform="matrix(0.2, 0, 0, -0.2, 0, 356)"/>
<path fill="none" stroke-width="7.9701" stroke-linecap="butt" stroke-linejoin="miter" stroke="rgb(0%, 0%, 0%)" stroke-opacity="1" stroke-miterlimit="10" d="M 609.609366 756.523426 L 580.820304 756.523426 " transform="matrix(0.2, 0, 0, -0.2, 0, 356)"/>
<path fill="none" stroke-width="7.9701" stroke-linecap="butt" stroke-linejoin="miter" stroke="rgb(0%, 0%, 0%)" stroke-opacity="1" stroke-miterlimit="10" d="M 580.820304 756.523426 L 551.992179 756.523426 " transform="matrix(0.2, 0, 0, -0.2, 0, 356)"/>
<path fill="none" stroke-width="7.9701" stroke-linecap="butt" stroke-linejoin="miter" stroke="rgb(0%, 0%, 0%)" stroke-opacity="1" stroke-miterlimit="10" d="M 494.414055 756.523426 L 465.585931 756.523426 " transform="matrix(0.2, 0, 0, -0.2, 0, 356)"/>
<path fill="none" stroke-width="7.9701" stroke-linecap="butt" stroke-linejoin="miter" stroke="rgb(0%, 0%, 0%)" stroke-opacity="1" stroke-miterlimit="10" d="M 465.585931 756.523426 L 436.796868 756.523426 " transform="matrix(0.2, 0, 0, -0.2, 0, 356)"/>
<path fill="none" stroke-width="7.9701" stroke-linecap="butt" stroke-linejoin="miter" stroke="rgb(0%, 0%, 0%)" stroke-opacity="1" stroke-miterlimit="10" d="M 379.218744 756.523426 L 350.39062 756.523426 " transform="matrix(0.2, 0, 0, -0.2, 0, 356)"/>
<path fill="none" stroke-width="7.9701" stroke-linecap="butt" stroke-linejoin="miter" stroke="rgb(0%, 0%, 0%)" stroke-opacity="1" stroke-miterlimit="10" d="M 350.39062 756.523426 L 321.601558 756.523426 " transform="matrix(0.2, 0, 0, -0.2, 0, 356)"/>
<path fill="none" stroke-width="7.9701" stroke-linecap="butt" stroke-linejoin="miter" stroke="rgb(0%, 0%, 0%)" stroke-opacity="1" stroke-miterlimit="10" d="M 263.984371 756.523426 L 235.195309 756.523426 " transform="matrix(0.2, 0, 0, -0.2, 0, 356)"/>
<path fill="none" stroke-width="7.9701" stroke-linecap="butt" stroke-linejoin="miter" stroke="rgb(0%, 0%, 0%)" stroke-opacity="1" stroke-miterlimit="10" d="M 235.195309 756.523426 L 206.406247 756.523426 " transform="matrix(0.2, 0, 0, -0.2, 0, 356)"/>
<path fill="none" stroke-width="7.9701" stroke-linecap="butt" stroke-linejoin="miter" stroke="rgb(0%, 0%, 0%)" stroke-opacity="1" stroke-miterlimit="10" d="M 148.78906 756.523426 L 119.999998 756.523426 " transform="matrix(0.2, 0, 0, -0.2, 0, 356)"/>
<path fill="none" stroke-width="7.9701" stroke-linecap="butt" stroke-linejoin="miter" stroke="rgb(0%, 0%, 0%)" stroke-opacity="1" stroke-miterlimit="10" d="M 984.023423 1038.67186 L 984.023423 1008.789047 " transform="matrix(0.2, 0, 0, -0.2, 0, 356)"/>
<path fill="none" stroke-width="7.9701" stroke-linecap="butt" stroke-linejoin="miter" stroke="rgb(0%, 0%, 0%)" stroke-opacity="1" stroke-miterlimit="10" d="M 984.023423 949.062486 L 984.023423 919.179674 " transform="matrix(0.2, 0, 0, -0.2, 0, 356)"/>
<path fill="none" stroke-width="7.9701" stroke-linecap="butt" stroke-linejoin="miter" stroke="rgb(0%, 0%, 0%)" stroke-opacity="1" stroke-miterlimit="10" d="M 984.023423 919.179674 L 984.023423 889.296862 " transform="matrix(0.2, 0, 0, -0.2, 0, 356)"/>
<path fill="none" stroke-width="7.9701" stroke-linecap="butt" stroke-linejoin="miter" stroke="rgb(0%, 0%, 0%)" stroke-opacity="1" stroke-miterlimit="10" d="M 984.023423 829.531238 L 984.023423 799.648426 " transform="matrix(0.2, 0, 0, -0.2, 0, 356)"/>
<path fill="none" stroke-width="7.9701" stroke-linecap="butt" stroke-linejoin="miter" stroke="rgb(0%, 0%, 0%)" stroke-opacity="1" stroke-miterlimit="10" d="M 984.023423 799.648426 L 984.023423 769.765614 " transform="matrix(0.2, 0, 0, -0.2, 0, 356)"/>
<path fill="none" stroke-width="7.9701" stroke-linecap="butt" stroke-linejoin="miter" stroke="rgb(0%, 0%, 0%)" stroke-opacity="1" stroke-miterlimit="10" d="M 984.023423 709.999989 L 984.023423 680.15624 " transform="matrix(0.2, 0, 0, -0.2, 0, 356)"/>
<path fill="none" stroke-width="7.9701" stroke-linecap="butt" stroke-linejoin="miter" stroke="rgb(0%, 0%, 0%)" stroke-opacity="1" stroke-miterlimit="10" d="M 984.023423 680.15624 L 984.023423 650.273428 " transform="matrix(0.2, 0, 0, -0.2, 0, 356)"/>
<path fill="none" stroke-width="7.9701" stroke-linecap="butt" stroke-linejoin="miter" stroke="rgb(0%, 0%, 0%)" stroke-opacity="1" stroke-miterlimit="10" d="M 984.023423 590.507804 L 984.023423 560.624992 " transform="matrix(0.2, 0, 0, -0.2, 0, 356)"/>
<path fill="none" stroke-width="7.9701" stroke-linecap="butt" stroke-linejoin="miter" stroke="rgb(0%, 0%, 0%)" stroke-opacity="1" stroke-miterlimit="10" d="M 984.023423 560.624992 L 984.023423 530.74218 " transform="matrix(0.2, 0, 0, -0.2, 0, 356)"/>
<path fill="none" stroke-width="7.9701" stroke-linecap="butt" stroke-linejoin="miter" stroke="rgb(0%, 0%, 0%)" stroke-opacity="1" stroke-miterlimit="10" d="M 984.023423 470.976555 L 984.023423 441.093743 " transform="matrix(0.2, 0, 0, -0.2, 0, 356)"/>
<path fill="none" stroke-width="7.9701" stroke-linecap="butt" stroke-linejoin="miter" stroke="rgb(0%, 0%, 0%)" stroke-opacity="1" stroke-miterlimit="10" d="M 984.023423 441.093743 L 984.023423 411.249994 " transform="matrix(0.2, 0, 0, -0.2, 0, 356)"/>
<path fill="none" stroke-width="7.9701" stroke-linecap="butt" stroke-linejoin="miter" stroke="rgb(0%, 0%, 0%)" stroke-opacity="1" stroke-miterlimit="10" d="M 984.023423 351.48437 L 984.023423 321.601558 " transform="matrix(0.2, 0, 0, -0.2, 0, 356)"/>
<path fill="none" stroke-width="7.9701" stroke-linecap="butt" stroke-linejoin="miter" stroke="rgb(0%, 0%, 0%)" stroke-opacity="1" stroke-miterlimit="10" d="M 984.023423 1038.67186 L 957.031236 1038.67186 " transform="matrix(0.2, 0, 0, -0.2, 0, 356)"/>
<path fill="none" stroke-width="7.9701" stroke-linecap="butt" stroke-linejoin="miter" stroke="rgb(0%, 0%, 0%)" stroke-opacity="1" stroke-miterlimit="10" d="M 903.007799 1038.67186 L 876.015612 1038.67186 " transform="matrix(0.2, 0, 0, -0.2, 0, 356)"/>
<path fill="none" stroke-width="7.9701" stroke-linecap="butt" stroke-linejoin="miter" stroke="rgb(0%, 0%, 0%)" stroke-opacity="1" stroke-miterlimit="10" d="M 876.015612 1038.67186 L 849.023425 1038.67186 " transform="matrix(0.2, 0, 0, -0.2, 0, 356)"/>
<path fill="none" stroke-width="7.9701" stroke-linecap="butt" stroke-linejoin="miter" stroke="rgb(0%, 0%, 0%)" stroke-opacity="1" stroke-miterlimit="10" d="M 794.999988 1038.67186 L 768.007801 1038.67186 " transform="matrix(0.2, 0, 0, -0.2, 0, 356)"/>
<path fill="none" stroke-width="7.9701" stroke-linecap="butt" stroke-linejoin="miter" stroke="rgb(0%, 0%, 0%)" stroke-opacity="1" stroke-miterlimit="10" d="M 768.007801 1038.67186 L 741.015614 1038.67186 " transform="matrix(0.2, 0, 0, -0.2, 0, 356)"/>
<path fill="none" stroke-width="7.9701" stroke-linecap="butt" stroke-linejoin="miter" stroke="rgb(0%, 0%, 0%)" stroke-opacity="1" stroke-miterlimit="10" d="M 687.03124 1038.67186 L 659.99999 1038.67186 " transform="matrix(0.2, 0, 0, -0.2, 0, 356)"/>
<path fill="none" stroke-width="7.9701" stroke-linecap="butt" stroke-linejoin="miter" stroke="rgb(0%, 0%, 0%)" stroke-opacity="1" stroke-miterlimit="10" d="M 659.99999 1038.67186 L 633.007803 1038.67186 " transform="matrix(0.2, 0, 0, -0.2, 0, 356)"/>
<path fill="none" stroke-width="7.9701" stroke-linecap="butt" stroke-linejoin="miter" stroke="rgb(0%, 0%, 0%)" stroke-opacity="1" stroke-miterlimit="10" d="M 579.023429 1038.67186 L 551.992179 1038.67186 " transform="matrix(0.2, 0, 0, -0.2, 0, 356)"/>
<path fill="none" stroke-width="7.9701" stroke-linecap="butt" stroke-linejoin="miter" stroke="rgb(0%, 0%, 0%)" stroke-opacity="1" stroke-miterlimit="10" d="M 551.992179 1038.67186 L 524.999992 1038.67186 " transform="matrix(0.2, 0, 0, -0.2, 0, 356)"/>
<path fill="none" stroke-width="7.9701" stroke-linecap="butt" stroke-linejoin="miter" stroke="rgb(0%, 0%, 0%)" stroke-opacity="1" stroke-miterlimit="10" d="M 471.015618 1038.67186 L 443.984368 1038.67186 " transform="matrix(0.2, 0, 0, -0.2, 0, 356)"/>
<path fill="none" stroke-width="7.9701" stroke-linecap="butt" stroke-linejoin="miter" stroke="rgb(0%, 0%, 0%)" stroke-opacity="1" stroke-miterlimit="10" d="M 443.984368 1038.67186 L 416.992181 1038.67186 " transform="matrix(0.2, 0, 0, -0.2, 0, 356)"/>
<path fill="none" stroke-width="7.9701" stroke-linecap="butt" stroke-linejoin="miter" stroke="rgb(0%, 0%, 0%)" stroke-opacity="1" stroke-miterlimit="10" d="M 363.007807 1038.67186 L 336.01562 1038.67186 " transform="matrix(0.2, 0, 0, -0.2, 0, 356)"/>
<path fill="none" stroke-width="7.9701" stroke-linecap="butt" stroke-linejoin="miter" stroke="rgb(0%, 0%, 0%)" stroke-opacity="1" stroke-miterlimit="10" d="M 336.01562 1038.67186 L 308.98437 1038.67186 " transform="matrix(0.2, 0, 0, -0.2, 0, 356)"/>
<path fill="none" stroke-width="7.9701" stroke-linecap="butt" stroke-linejoin="miter" stroke="rgb(0%, 0%, 0%)" stroke-opacity="1" stroke-miterlimit="10" d="M 254.999996 1038.67186 L 228.007809 1038.67186 " transform="matrix(0.2, 0, 0, -0.2, 0, 356)"/>
<path fill="none" stroke-width="7.9701" stroke-linecap="butt" stroke-linejoin="miter" stroke="rgb(0%, 0%, 0%)" stroke-opacity="1" stroke-miterlimit="10" d="M 228.007809 1038.67186 L 201.015622 1038.67186 " transform="matrix(0.2, 0, 0, -0.2, 0, 356)"/>
<path fill="none" stroke-width="7.9701" stroke-linecap="butt" stroke-linejoin="miter" stroke="rgb(0%, 0%, 0%)" stroke-opacity="1" stroke-miterlimit="10" d="M 146.992185 1038.67186 L 119.999998 1038.67186 " transform="matrix(0.2, 0, 0, -0.2, 0, 356)"/>
<path fill="none" stroke-width="7.9701" stroke-linecap="butt" stroke-linejoin="miter" stroke="rgb(0%, 0%, 0%)" stroke-opacity="1" stroke-miterlimit="10" d="M 1272.031231 1503.867165 L 1272.031231 1474.296853 " transform="matrix(0.2, 0, 0, -0.2, 0, 356)"/>
<path fill="none" stroke-width="7.9701" stroke-linecap="butt" stroke-linejoin="miter" stroke="rgb(0%, 0%, 0%)" stroke-opacity="1" stroke-miterlimit="10" d="M 1272.031231 1415.195291 L 1272.031231 1385.624979 " transform="matrix(0.2, 0, 0, -0.2, 0, 356)"/>
<path fill="none" stroke-width="7.9701" stroke-linecap="butt" stroke-linejoin="miter" stroke="rgb(0%, 0%, 0%)" stroke-opacity="1" stroke-miterlimit="10" d="M 1272.031231 1385.624979 L 1272.031231 1356.09373 " transform="matrix(0.2, 0, 0, -0.2, 0, 356)"/>
<path fill="none" stroke-width="7.9701" stroke-linecap="butt" stroke-linejoin="miter" stroke="rgb(0%, 0%, 0%)" stroke-opacity="1" stroke-miterlimit="10" d="M 1272.031231 1296.953106 L 1272.031231 1267.421856 " transform="matrix(0.2, 0, 0, -0.2, 0, 356)"/>
<path fill="none" stroke-width="7.9701" stroke-linecap="butt" stroke-linejoin="miter" stroke="rgb(0%, 0%, 0%)" stroke-opacity="1" stroke-miterlimit="10" d="M 1272.031231 1267.421856 L 1272.031231 1237.851544 " transform="matrix(0.2, 0, 0, -0.2, 0, 356)"/>
<path fill="none" stroke-width="7.9701" stroke-linecap="butt" stroke-linejoin="miter" stroke="rgb(0%, 0%, 0%)" stroke-opacity="1" stroke-miterlimit="10" d="M 1272.031231 1178.749982 L 1272.031231 1149.17967 " transform="matrix(0.2, 0, 0, -0.2, 0, 356)"/>
<path fill="none" stroke-width="7.9701" stroke-linecap="butt" stroke-linejoin="miter" stroke="rgb(0%, 0%, 0%)" stroke-opacity="1" stroke-miterlimit="10" d="M 1272.031231 1149.17967 L 1272.031231 1119.648421 " transform="matrix(0.2, 0, 0, -0.2, 0, 356)"/>
<path fill="none" stroke-width="7.9701" stroke-linecap="butt" stroke-linejoin="miter" stroke="rgb(0%, 0%, 0%)" stroke-opacity="1" stroke-miterlimit="10" d="M 1272.031231 1060.507797 L 1272.031231 1030.976547 " transform="matrix(0.2, 0, 0, -0.2, 0, 356)"/>
<path fill="none" stroke-width="7.9701" stroke-linecap="butt" stroke-linejoin="miter" stroke="rgb(0%, 0%, 0%)" stroke-opacity="1" stroke-miterlimit="10" d="M 1272.031231 1030.976547 L 1272.031231 1001.406235 " transform="matrix(0.2, 0, 0, -0.2, 0, 356)"/>
<path fill="none" stroke-width="7.9701" stroke-linecap="butt" stroke-linejoin="miter" stroke="rgb(0%, 0%, 0%)" stroke-opacity="1" stroke-miterlimit="10" d="M 1272.031231 942.304673 L 1272.031231 912.734361 " transform="matrix(0.2, 0, 0, -0.2, 0, 356)"/>
<path fill="none" stroke-width="7.9701" stroke-linecap="butt" stroke-linejoin="miter" stroke="rgb(0%, 0%, 0%)" stroke-opacity="1" stroke-miterlimit="10" d="M 1272.031231 912.734361 L 1272.031231 883.164049 " transform="matrix(0.2, 0, 0, -0.2, 0, 356)"/>
<path fill="none" stroke-width="7.9701" stroke-linecap="butt" stroke-linejoin="miter" stroke="rgb(0%, 0%, 0%)" stroke-opacity="1" stroke-miterlimit="10" d="M 1272.031231 824.062488 L 1272.031231 794.492176 " transform="matrix(0.2, 0, 0, -0.2, 0, 356)"/>
<path fill="none" stroke-width="7.9701" stroke-linecap="butt" stroke-linejoin="miter" stroke="rgb(0%, 0%, 0%)" stroke-opacity="1" stroke-miterlimit="10" d="M 1272.031231 794.492176 L 1272.031231 764.960926 " transform="matrix(0.2, 0, 0, -0.2, 0, 356)"/>
<path fill="none" stroke-width="7.9701" stroke-linecap="butt" stroke-linejoin="miter" stroke="rgb(0%, 0%, 0%)" stroke-opacity="1" stroke-miterlimit="10" d="M 1272.031231 705.859364 L 1272.031231 676.289052 " transform="matrix(0.2, 0, 0, -0.2, 0, 356)"/>
<path fill="none" stroke-width="7.9701" stroke-linecap="butt" stroke-linejoin="miter" stroke="rgb(0%, 0%, 0%)" stroke-opacity="1" stroke-miterlimit="10" d="M 1272.031231 676.289052 L 1272.031231 646.71874 " transform="matrix(0.2, 0, 0, -0.2, 0, 356)"/>
<path fill="none" stroke-width="7.9701" stroke-linecap="butt" stroke-linejoin="miter" stroke="rgb(0%, 0%, 0%)" stroke-opacity="1" stroke-miterlimit="10" d="M 1272.031231 587.617179 L 1272.031231 558.046867 " transform="matrix(0.2, 0, 0, -0.2, 0, 356)"/>
<path fill="none" stroke-width="7.9701" stroke-linecap="butt" stroke-linejoin="miter" stroke="rgb(0%, 0%, 0%)" stroke-opacity="1" stroke-miterlimit="10" d="M 1272.031231 558.046867 L 1272.031231 528.476555 " transform="matrix(0.2, 0, 0, -0.2, 0, 356)"/>
<path fill="none" stroke-width="7.9701" stroke-linecap="butt" stroke-linejoin="miter" stroke="rgb(0%, 0%, 0%)" stroke-opacity="1" stroke-miterlimit="10" d="M 1272.031231 469.374993 L 1272.031231 439.804681 " transform="matrix(0.2, 0, 0, -0.2, 0, 356)"/>
<path fill="none" stroke-width="7.9701" stroke-linecap="butt" stroke-linejoin="miter" stroke="rgb(0%, 0%, 0%)" stroke-opacity="1" stroke-miterlimit="10" d="M 1272.031231 439.804681 L 1272.031231 410.273431 " transform="matrix(0.2, 0, 0, -0.2, 0, 356)"/>
<path fill="none" stroke-width="7.9701" stroke-linecap="butt" stroke-linejoin="miter" stroke="rgb(0%, 0%, 0%)" stroke-opacity="1" stroke-miterlimit="10" d="M 1272.031231 351.132807 L 1272.031231 321.601558 " transform="matrix(0.2, 0, 0, -0.2, 0, 356)"/>
<path fill="none" stroke-width="7.9701" stroke-linecap="butt" stroke-linejoin="miter" stroke="rgb(0%, 0%, 0%)" stroke-opacity="1" stroke-miterlimit="10" d="M 1272.031231 1503.867165 L 1243.203106 1503.867165 " transform="matrix(0.2, 0, 0, -0.2, 0, 356)"/>
<path fill="none" stroke-width="7.9701" stroke-linecap="butt" stroke-linejoin="miter" stroke="rgb(0%, 0%, 0%)" stroke-opacity="1" stroke-miterlimit="10" d="M 1185.624982 1503.867165 L 1156.83592 1503.867165 " transform="matrix(0.2, 0, 0, -0.2, 0, 356)"/>
<path fill="none" stroke-width="7.9701" stroke-linecap="butt" stroke-linejoin="miter" stroke="rgb(0%, 0%, 0%)" stroke-opacity="1" stroke-miterlimit="10" d="M 1156.83592 1503.867165 L 1128.007796 1503.867165 " transform="matrix(0.2, 0, 0, -0.2, 0, 356)"/>
<path fill="none" stroke-width="7.9701" stroke-linecap="butt" stroke-linejoin="miter" stroke="rgb(0%, 0%, 0%)" stroke-opacity="1" stroke-miterlimit="10" d="M 1070.429672 1503.867165 L 1041.601547 1503.867165 " transform="matrix(0.2, 0, 0, -0.2, 0, 356)"/>
<path fill="none" stroke-width="7.9701" stroke-linecap="butt" stroke-linejoin="miter" stroke="rgb(0%, 0%, 0%)" stroke-opacity="1" stroke-miterlimit="10" d="M 1041.601547 1503.867165 L 1012.812485 1503.867165 " transform="matrix(0.2, 0, 0, -0.2, 0, 356)"/>
<path fill="none" stroke-width="7.9701" stroke-linecap="butt" stroke-linejoin="miter" stroke="rgb(0%, 0%, 0%)" stroke-opacity="1" stroke-miterlimit="10" d="M 955.234361 1503.867165 L 926.406236 1503.867165 " transform="matrix(0.2, 0, 0, -0.2, 0, 356)"/>
<path fill="none" stroke-width="7.9701" stroke-linecap="butt" stroke-linejoin="miter" stroke="rgb(0%, 0%, 0%)" stroke-opacity="1" stroke-miterlimit="10" d="M 926.406236 1503.867165 L 897.617174 1503.867165 " transform="matrix(0.2, 0, 0, -0.2, 0, 356)"/>
<path fill="none" stroke-width="7.9701" stroke-linecap="butt" stroke-linejoin="miter" stroke="rgb(0%, 0%, 0%)" stroke-opacity="1" stroke-miterlimit="10" d="M 839.999987 1503.867165 L 811.210925 1503.867165 " transform="matrix(0.2, 0, 0, -0.2, 0, 356)"/>
<path fill="none" stroke-width="7.9701" stroke-linecap="butt" stroke-linejoin="miter" stroke="rgb(0%, 0%, 0%)" stroke-opacity="1" stroke-miterlimit="10" d="M 811.210925 1503.867165 L 782.421863 1503.867165 " transform="matrix(0.2, 0, 0, -0.2, 0, 356)"/>
<path fill="none" stroke-width="7.9701" stroke-linecap="butt" stroke-linejoin="miter" stroke="rgb(0%, 0%, 0%)" stroke-opacity="1" stroke-miterlimit="10" d="M 724.804677 1503.867165 L 696.015615 1503.867165 " transform="matrix(0.2, 0, 0, -0.2, 0, 356)"/>
<path fill="none" stroke-width="7.9701" stroke-linecap="butt" stroke-linejoin="miter" stroke="rgb(0%, 0%, 0%)" stroke-opacity="1" stroke-miterlimit="10" d="M 696.015615 1503.867165 L 667.18749 1503.867165 " transform="matrix(0.2, 0, 0, -0.2, 0, 356)"/>
<path fill="none" stroke-width="7.9701" stroke-linecap="butt" stroke-linejoin="miter" stroke="rgb(0%, 0%, 0%)" stroke-opacity="1" stroke-miterlimit="10" d="M 609.609366 1503.867165 L 580.820304 1503.867165 " transform="matrix(0.2, 0, 0, -0.2, 0, 356)"/>
<path fill="none" stroke-width="7.9701" stroke-linecap="butt" stroke-linejoin="miter" stroke="rgb(0%, 0%, 0%)" stroke-opacity="1" stroke-miterlimit="10" d="M 580.820304 1503.867165 L 551.992179 1503.867165 " transform="matrix(0.2, 0, 0, -0.2, 0, 356)"/>
<path fill="none" stroke-width="7.9701" stroke-linecap="butt" stroke-linejoin="miter" stroke="rgb(0%, 0%, 0%)" stroke-opacity="1" stroke-miterlimit="10" d="M 494.414055 1503.867165 L 465.585931 1503.867165 " transform="matrix(0.2, 0, 0, -0.2, 0, 356)"/>
<path fill="none" stroke-width="7.9701" stroke-linecap="butt" stroke-linejoin="miter" stroke="rgb(0%, 0%, 0%)" stroke-opacity="1" stroke-miterlimit="10" d="M 465.585931 1503.867165 L 436.796868 1503.867165 " transform="matrix(0.2, 0, 0, -0.2, 0, 356)"/>
<path fill="none" stroke-width="7.9701" stroke-linecap="butt" stroke-linejoin="miter" stroke="rgb(0%, 0%, 0%)" stroke-opacity="1" stroke-miterlimit="10" d="M 379.218744 1503.867165 L 350.39062 1503.867165 " transform="matrix(0.2, 0, 0, -0.2, 0, 356)"/>
<path fill="none" stroke-width="7.9701" stroke-linecap="butt" stroke-linejoin="miter" stroke="rgb(0%, 0%, 0%)" stroke-opacity="1" stroke-miterlimit="10" d="M 350.39062 1503.867165 L 321.601558 1503.867165 " transform="matrix(0.2, 0, 0, -0.2, 0, 356)"/>
<path fill="none" stroke-width="7.9701" stroke-linecap="butt" stroke-linejoin="miter" stroke="rgb(0%, 0%, 0%)" stroke-opacity="1" stroke-miterlimit="10" d="M 263.984371 1503.867165 L 235.195309 1503.867165 " transform="matrix(0.2, 0, 0, -0.2, 0, 356)"/>
<path fill="none" stroke-width="7.9701" stroke-linecap="butt" stroke-linejoin="miter" stroke="rgb(0%, 0%, 0%)" stroke-opacity="1" stroke-miterlimit="10" d="M 235.195309 1503.867165 L 206.406247 1503.867165 " transform="matrix(0.2, 0, 0, -0.2, 0, 356)"/>
<path fill="none" stroke-width="7.9701" stroke-linecap="butt" stroke-linejoin="miter" stroke="rgb(0%, 0%, 0%)" stroke-opacity="1" stroke-miterlimit="10" d="M 148.78906 1503.867165 L 119.999998 1503.867165 " transform="matrix(0.2, 0, 0, -0.2, 0, 356)"/>
<path fill-rule="nonzero" fill="rgb(0%, 0%, 0%)" fill-opacity="1" d="M 77.710938 306.839844 C 77.710938 305.089844 77.617188 303.339844 76.835938 301.714844 C 75.835938 299.621094 74.054688 299.277344 73.117188 299.277344 C 71.835938 299.277344 70.242188 299.839844 69.335938 301.871094 C 68.648438 303.371094 68.523438 305.089844 68.523438 306.839844 C 68.523438 308.464844 68.617188 310.433594 69.523438 312.089844 C 70.460938 313.839844 72.054688 314.277344 73.117188 314.277344 C 74.273438 314.277344 75.960938 313.839844 76.898438 311.746094 C 77.617188 310.246094 77.710938 308.558594 77.710938 306.839844 Z M 73.117188 313.808594 C 72.273438 313.808594 70.960938 313.277344 70.585938 311.183594 C 70.335938 309.871094 70.335938 307.839844 70.335938 306.558594 C 70.335938 305.183594 70.335938 303.746094 70.523438 302.558594 C 70.929688 299.964844 72.554688 299.746094 73.117188 299.746094 C 73.835938 299.746094 75.273438 300.152344 75.679688 302.308594 C 75.898438 303.527344 75.898438 305.183594 75.898438 306.558594 C 75.898438 308.214844 75.898438 309.683594 75.648438 311.089844 C 75.335938 313.152344 74.085938 313.808594 73.117188 313.808594 Z M 73.117188 313.808594 "/>
<path fill-rule="nonzero" fill="rgb(0%, 0%, 0%)" fill-opacity="1" d="M 82.667969 312.652344 C 82.667969 312.027344 82.136719 311.496094 81.511719 311.496094 C 80.886719 311.496094 80.355469 312.027344 80.355469 312.652344 C 80.355469 313.277344 80.886719 313.808594 81.511719 313.808594 C 82.136719 313.808594 82.667969 313.277344 82.667969 312.652344 Z M 82.667969 312.652344 "/>
<path fill-rule="nonzero" fill="rgb(0%, 0%, 0%)" fill-opacity="1" d="M 94.261719 309.433594 C 94.261719 306.839844 92.480469 304.652344 90.136719 304.652344 C 89.074219 304.652344 88.136719 304.996094 87.355469 305.746094 L 87.355469 301.496094 C 87.792969 301.652344 88.511719 301.777344 89.199219 301.777344 C 91.886719 301.777344 93.417969 299.808594 93.417969 299.527344 C 93.417969 299.402344 93.355469 299.277344 93.199219 299.277344 C 93.199219 299.277344 93.136719 299.277344 93.042969 299.339844 C 92.605469 299.558594 91.511719 299.964844 90.074219 299.964844 C 89.199219 299.964844 88.199219 299.839844 87.167969 299.371094 C 86.980469 299.308594 86.949219 299.308594 86.886719 299.308594 C 86.667969 299.308594 86.667969 299.464844 86.667969 299.839844 L 86.667969 306.277344 C 86.667969 306.683594 86.667969 306.839844 86.980469 306.839844 C 87.136719 306.839844 87.199219 306.777344 87.261719 306.652344 C 87.511719 306.308594 88.324219 305.121094 90.074219 305.121094 C 91.230469 305.121094 91.761719 306.121094 91.949219 306.527344 C 92.292969 307.339844 92.324219 308.183594 92.324219 309.277344 C 92.324219 310.027344 92.324219 311.339844 91.824219 312.246094 C 91.292969 313.121094 90.480469 313.683594 89.480469 313.683594 C 87.886719 313.683594 86.636719 312.527344 86.261719 311.246094 C 86.324219 311.246094 86.386719 311.277344 86.636719 311.277344 C 87.355469 311.277344 87.730469 310.746094 87.730469 310.214844 C 87.730469 309.683594 87.355469 309.152344 86.636719 309.152344 C 86.324219 309.152344 85.574219 309.308594 85.574219 310.308594 C 85.574219 312.183594 87.074219 314.277344 89.511719 314.277344 C 92.042969 314.277344 94.261719 312.183594 94.261719 309.433594 Z M 94.261719 309.433594 "/>
<path fill-rule="nonzero" fill="rgb(0%, 0%, 0%)" fill-opacity="1" d="M 140.089844 299.839844 C 140.089844 299.339844 140.089844 299.277344 139.589844 299.277344 C 138.246094 300.683594 136.308594 300.683594 135.621094 300.683594 L 135.621094 301.339844 C 136.058594 301.339844 137.339844 301.339844 138.496094 300.777344 L 138.496094 312.089844 C 138.496094 312.871094 138.402344 313.121094 136.464844 313.121094 L 135.746094 313.121094 L 135.746094 313.808594 C 136.527344 313.746094 138.402344 313.746094 139.277344 313.746094 C 140.152344 313.746094 142.058594 313.746094 142.808594 313.808594 L 142.808594 313.121094 L 142.121094 313.121094 C 140.152344 313.121094 140.089844 312.902344 140.089844 312.089844 Z M 140.089844 299.839844 "/>
<path fill-rule="nonzero" fill="rgb(0%, 0%, 0%)" fill-opacity="1" d="M 189.289062 299.839844 C 189.289062 299.339844 189.289062 299.277344 188.789062 299.277344 C 187.445312 300.683594 185.507812 300.683594 184.820312 300.683594 L 184.820312 301.339844 C 185.257812 301.339844 186.539062 301.339844 187.695312 300.777344 L 187.695312 312.089844 C 187.695312 312.871094 187.601562 313.121094 185.664062 313.121094 L 184.945312 313.121094 L 184.945312 313.808594 C 185.726562 313.746094 187.601562 313.746094 188.476562 313.746094 C 189.351562 313.746094 191.257812 313.746094 192.007812 313.808594 L 192.007812 313.121094 L 191.320312 313.121094 C 189.351562 313.121094 189.289062 312.902344 189.289062 312.089844 Z M 189.289062 299.839844 "/>
<path fill-rule="nonzero" fill="rgb(0%, 0%, 0%)" fill-opacity="1" d="M 197.871094 312.652344 C 197.871094 312.027344 197.339844 311.496094 196.714844 311.496094 C 196.089844 311.496094 195.558594 312.027344 195.558594 312.652344 C 195.558594 313.277344 196.089844 313.808594 196.714844 313.808594 C 197.339844 313.808594 197.871094 313.277344 197.871094 312.652344 Z M 197.871094 312.652344 "/>
<path fill-rule="nonzero" fill="rgb(0%, 0%, 0%)" fill-opacity="1" d="M 209.464844 309.433594 C 209.464844 306.839844 207.683594 304.652344 205.339844 304.652344 C 204.277344 304.652344 203.339844 304.996094 202.558594 305.746094 L 202.558594 301.496094 C 202.996094 301.652344 203.714844 301.777344 204.402344 301.777344 C 207.089844 301.777344 208.621094 299.808594 208.621094 299.527344 C 208.621094 299.402344 208.558594 299.277344 208.402344 299.277344 C 208.402344 299.277344 208.339844 299.277344 208.246094 299.339844 C 207.808594 299.558594 206.714844 299.964844 205.277344 299.964844 C 204.402344 299.964844 203.402344 299.839844 202.371094 299.371094 C 202.183594 299.308594 202.152344 299.308594 202.089844 299.308594 C 201.871094 299.308594 201.871094 299.464844 201.871094 299.839844 L 201.871094 306.277344 C 201.871094 306.683594 201.871094 306.839844 202.183594 306.839844 C 202.339844 306.839844 202.402344 306.777344 202.464844 306.652344 C 202.714844 306.308594 203.527344 305.121094 205.277344 305.121094 C 206.433594 305.121094 206.964844 306.121094 207.152344 306.527344 C 207.496094 307.339844 207.527344 308.183594 207.527344 309.277344 C 207.527344 310.027344 207.527344 311.339844 207.027344 312.246094 C 206.496094 313.121094 205.683594 313.683594 204.683594 313.683594 C 203.089844 313.683594 201.839844 312.527344 201.464844 311.246094 C 201.527344 311.246094 201.589844 311.277344 201.839844 311.277344 C 202.558594 311.277344 202.933594 310.746094 202.933594 310.214844 C 202.933594 309.683594 202.558594 309.152344 201.839844 309.152344 C 201.527344 309.152344 200.777344 309.308594 200.777344 310.308594 C 200.777344 312.183594 202.277344 314.277344 204.714844 314.277344 C 207.246094 314.277344 209.464844 312.183594 209.464844 309.433594 Z M 209.464844 309.433594 "/>
<path fill-rule="nonzero" fill="rgb(0%, 0%, 0%)" fill-opacity="1" d="M 251.664062 312.121094 L 253.976562 309.871094 C 257.382812 306.871094 258.664062 305.683594 258.664062 303.527344 C 258.664062 301.027344 256.726562 299.277344 254.039062 299.277344 C 251.601562 299.277344 249.976562 301.277344 249.976562 303.214844 C 249.976562 304.464844 251.070312 304.464844 251.132812 304.464844 C 251.507812 304.464844 252.257812 304.183594 252.257812 303.308594 C 252.257812 302.714844 251.882812 302.152344 251.101562 302.152344 C 250.945312 302.152344 250.882812 302.152344 250.820312 302.183594 C 251.320312 300.777344 252.507812 299.964844 253.757812 299.964844 C 255.757812 299.964844 256.695312 301.714844 256.695312 303.527344 C 256.695312 305.246094 255.601562 306.996094 254.414062 308.339844 L 250.226562 312.996094 C 249.976562 313.246094 249.976562 313.277344 249.976562 313.808594 L 258.070312 313.808594 L 258.664062 310.027344 L 258.132812 310.027344 C 258.007812 310.652344 257.882812 311.621094 257.664062 311.964844 C 257.507812 312.121094 256.070312 312.121094 255.570312 312.121094 Z M 251.664062 312.121094 "/>
<path fill="none" stroke-width="11.9553" stroke-linecap="butt" stroke-linejoin="miter" stroke="rgb(0%, 0%, 0%)" stroke-opacity="1" stroke-miterlimit="10" d="M 119.999998 481.601555 L 119.999998 1601.601539 " transform="matrix(0.2, 0, 0, -0.2, 0, 356)"/>
<path fill-rule="nonzero" fill="rgb(0%, 0%, 0%)" fill-opacity="1" d="M 17.976562 258.984375 L 29.976562 258.984375 L 29.976562 260.1875 L 17.976562 260.1875 Z M 17.976562 258.984375 "/>
<path fill-rule="nonzero" fill="rgb(0%, 0%, 0%)" fill-opacity="1" d="M 17.976562 226.984375 L 29.976562 226.984375 L 29.976562 228.1875 L 17.976562 228.1875 Z M 17.976562 226.984375 "/>
<path fill-rule="nonzero" fill="rgb(0%, 0%, 0%)" fill-opacity="1" d="M 17.976562 194.984375 L 29.976562 194.984375 L 29.976562 196.1875 L 17.976562 196.1875 Z M 17.976562 194.984375 "/>
<path fill-rule="nonzero" fill="rgb(0%, 0%, 0%)" fill-opacity="1" d="M 17.976562 162.984375 L 29.976562 162.984375 L 29.976562 164.1875 L 17.976562 164.1875 Z M 17.976562 162.984375 "/>
<path fill-rule="nonzero" fill="rgb(0%, 0%, 0%)" fill-opacity="1" d="M 17.976562 130.984375 L 29.976562 130.984375 L 29.976562 132.1875 L 17.976562 132.1875 Z M 17.976562 130.984375 "/>
<path fill-rule="nonzero" fill="rgb(0%, 0%, 0%)" fill-opacity="1" d="M 17.976562 98.984375 L 29.976562 98.984375 L 29.976562 100.1875 L 17.976562 100.1875 Z M 17.976562 98.984375 "/>
<path fill-rule="nonzero" fill="rgb(0%, 0%, 0%)" fill-opacity="1" d="M 17.976562 66.976562 L 29.976562 66.976562 L 29.976562 68.179688 L 17.976562 68.179688 Z M 17.976562 66.976562 "/>
<path fill-rule="nonzero" fill="rgb(0%, 0%, 0%)" fill-opacity="1" d="M 17.976562 34.976562 L 29.976562 34.976562 L 29.976562 36.179688 L 17.976562 36.179688 Z M 17.976562 34.976562 "/>
<path fill-rule="nonzero" fill="rgb(0%, 0%, 0%)" fill-opacity="1" d="M 11.636719 252.667969 C 11.636719 252.167969 11.636719 252.105469 11.136719 252.105469 C 9.792969 253.511719 7.855469 253.511719 7.167969 253.511719 L 7.167969 254.167969 C 7.605469 254.167969 8.886719 254.167969 10.042969 253.605469 L 10.042969 264.917969 C 10.042969 265.699219 9.949219 265.949219 8.011719 265.949219 L 7.292969 265.949219 L 7.292969 266.636719 C 8.074219 266.574219 9.949219 266.574219 10.824219 266.574219 C 11.699219 266.574219 13.605469 266.574219 14.355469 266.636719 L 14.355469 265.949219 L 13.667969 265.949219 C 11.699219 265.949219 11.636719 265.730469 11.636719 264.917969 Z M 11.636719 252.667969 "/>
<path fill-rule="nonzero" fill="rgb(0%, 0%, 0%)" fill-opacity="1" d="M 8.011719 232.949219 L 10.324219 230.699219 C 13.730469 227.699219 15.011719 226.511719 15.011719 224.355469 C 15.011719 221.855469 13.074219 220.105469 10.386719 220.105469 C 7.949219 220.105469 6.324219 222.105469 6.324219 224.042969 C 6.324219 225.292969 7.417969 225.292969 7.480469 225.292969 C 7.855469 225.292969 8.605469 225.011719 8.605469 224.136719 C 8.605469 223.542969 8.230469 222.980469 7.449219 222.980469 C 7.292969 222.980469 7.230469 222.980469 7.167969 223.011719 C 7.667969 221.605469 8.855469 220.792969 10.105469 220.792969 C 12.105469 220.792969 13.042969 222.542969 13.042969 224.355469 C 13.042969 226.074219 11.949219 227.824219 10.761719 229.167969 L 6.574219 233.824219 C 6.324219 234.074219 6.324219 234.105469 6.324219 234.636719 L 14.417969 234.636719 L 15.011719 230.855469 L 14.480469 230.855469 C 14.355469 231.480469 14.230469 232.449219 14.011719 232.792969 C 13.855469 232.949219 12.417969 232.949219 11.917969 232.949219 Z M 8.011719 232.949219 "/>
<path fill-rule="nonzero" fill="rgb(0%, 0%, 0%)" fill-opacity="1" d="M 11.542969 194.949219 C 13.355469 194.355469 14.605469 192.855469 14.605469 191.105469 C 14.605469 189.324219 12.699219 188.105469 10.605469 188.105469 C 8.386719 188.105469 6.730469 189.417969 6.730469 191.074219 C 6.730469 191.792969 7.230469 192.199219 7.855469 192.199219 C 8.511719 192.199219 8.949219 191.730469 8.949219 191.105469 C 8.949219 190.011719 7.949219 190.011719 7.605469 190.011719 C 8.292969 188.949219 9.730469 188.667969 10.511719 188.667969 C 11.417969 188.667969 12.605469 189.136719 12.605469 191.105469 C 12.605469 191.355469 12.574219 192.636719 11.980469 193.574219 C 11.324219 194.636719 10.605469 194.699219 10.042969 194.730469 C 9.886719 194.730469 9.355469 194.792969 9.199219 194.792969 C 9.011719 194.792969 8.886719 194.824219 8.886719 195.042969 C 8.886719 195.292969 9.011719 195.292969 9.386719 195.292969 L 10.355469 195.292969 C 12.136719 195.292969 12.949219 196.761719 12.949219 198.917969 C 12.949219 201.886719 11.449219 202.511719 10.480469 202.511719 C 9.542969 202.511719 7.917969 202.136719 7.136719 200.855469 C 7.917969 200.949219 8.574219 200.480469 8.574219 199.636719 C 8.574219 198.855469 8.011719 198.417969 7.355469 198.417969 C 6.855469 198.417969 6.136719 198.730469 6.136719 199.699219 C 6.136719 201.667969 8.167969 203.105469 10.542969 203.105469 C 13.199219 203.105469 15.199219 201.136719 15.199219 198.917969 C 15.199219 197.105469 13.824219 195.417969 11.542969 194.949219 Z M 11.542969 194.949219 "/>
<path fill-rule="nonzero" fill="rgb(0%, 0%, 0%)" fill-opacity="1" d="M 11.636719 167.042969 L 11.636719 168.949219 C 11.636719 169.730469 11.605469 169.949219 9.980469 169.949219 L 9.542969 169.949219 L 9.542969 170.636719 C 10.417969 170.574219 11.542969 170.574219 12.480469 170.574219 C 13.386719 170.574219 14.542969 170.574219 15.449219 170.636719 L 15.449219 169.949219 L 14.980469 169.949219 C 13.355469 169.949219 13.324219 169.730469 13.324219 168.949219 L 13.324219 167.042969 L 15.511719 167.042969 L 15.511719 166.355469 L 13.324219 166.355469 L 13.324219 156.449219 C 13.324219 156.011719 13.324219 155.855469 12.980469 155.855469 C 12.792969 155.855469 12.699219 155.855469 12.542969 156.136719 L 5.855469 166.355469 L 5.855469 167.042969 Z M 11.761719 166.355469 L 6.449219 166.355469 L 11.761719 158.230469 Z M 11.761719 166.355469 "/>
<path fill-rule="nonzero" fill="rgb(0%, 0%, 0%)" fill-opacity="1" d="M 15.011719 134.261719 C 15.011719 131.667969 13.230469 129.480469 10.886719 129.480469 C 9.824219 129.480469 8.886719 129.824219 8.105469 130.574219 L 8.105469 126.324219 C 8.542969 126.480469 9.261719 126.605469 9.949219 126.605469 C 12.636719 126.605469 14.167969 124.636719 14.167969 124.355469 C 14.167969 124.230469 14.105469 124.105469 13.949219 124.105469 C 13.949219 124.105469 13.886719 124.105469 13.792969 124.167969 C 13.355469 124.386719 12.261719 124.792969 10.824219 124.792969 C 9.949219 124.792969 8.949219 124.667969 7.917969 124.199219 C 7.730469 124.136719 7.699219 124.136719 7.636719 124.136719 C 7.417969 124.136719 7.417969 124.292969 7.417969 124.667969 L 7.417969 131.105469 C 7.417969 131.511719 7.417969 131.667969 7.730469 131.667969 C 7.886719 131.667969 7.949219 131.605469 8.011719 131.480469 C 8.261719 131.136719 9.074219 129.949219 10.824219 129.949219 C 11.980469 129.949219 12.511719 130.949219 12.699219 131.355469 C 13.042969 132.167969 13.074219 133.011719 13.074219 134.105469 C 13.074219 134.855469 13.074219 136.167969 12.574219 137.074219 C 12.042969 137.949219 11.230469 138.511719 10.230469 138.511719 C 8.636719 138.511719 7.386719 137.355469 7.011719 136.074219 C 7.074219 136.074219 7.136719 136.105469 7.386719 136.105469 C 8.105469 136.105469 8.480469 135.574219 8.480469 135.042969 C 8.480469 134.511719 8.105469 133.980469 7.386719 133.980469 C 7.074219 133.980469 6.324219 134.136719 6.324219 135.136719 C 6.324219 137.011719 7.824219 139.105469 10.261719 139.105469 C 12.792969 139.105469 15.011719 137.011719 15.011719 134.261719 Z M 15.011719 134.261719 "/>
<path fill-rule="nonzero" fill="rgb(0%, 0%, 0%)" fill-opacity="1" d="M 8.105469 99.480469 L 8.105469 98.949219 C 8.105469 93.449219 10.824219 92.667969 11.917969 92.667969 C 12.449219 92.667969 13.355469 92.792969 13.855469 93.542969 C 13.511719 93.542969 12.636719 93.542969 12.636719 94.511719 C 12.636719 95.199219 13.167969 95.511719 13.636719 95.511719 C 14.011719 95.511719 14.667969 95.324219 14.667969 94.480469 C 14.667969 93.167969 13.699219 92.105469 11.886719 92.105469 C 9.105469 92.105469 6.136719 94.917969 6.136719 99.730469 C 6.136719 105.574219 8.667969 107.105469 10.699219 107.105469 C 13.136719 107.105469 15.199219 105.074219 15.199219 102.199219 C 15.199219 99.417969 13.261719 97.324219 10.824219 97.324219 C 9.355469 97.324219 8.542969 98.449219 8.105469 99.480469 Z M 10.699219 106.511719 C 9.324219 106.511719 8.667969 105.199219 8.542969 104.855469 C 8.167969 103.855469 8.167969 102.105469 8.167969 101.699219 C 8.167969 100.011719 8.855469 97.824219 10.824219 97.824219 C 11.167969 97.824219 12.167969 97.824219 12.855469 99.167969 C 13.230469 99.980469 13.230469 101.105469 13.230469 102.167969 C 13.230469 103.199219 13.230469 104.292969 12.855469 105.074219 C 12.199219 106.386719 11.199219 106.511719 10.699219 106.511719 Z M 10.699219 106.511719 "/>
<path fill-rule="nonzero" fill="rgb(0%, 0%, 0%)" fill-opacity="1" d="M 15.605469 61.355469 C 15.824219 61.105469 15.824219 61.042969 15.824219 60.574219 L 10.511719 60.574219 C 7.855469 60.574219 7.792969 60.292969 7.730469 59.886719 L 7.167969 59.886719 L 6.449219 64.386719 L 7.011719 64.386719 C 7.074219 64.042969 7.261719 62.667969 7.542969 62.386719 C 7.699219 62.261719 9.386719 62.261719 9.667969 62.261719 L 14.199219 62.261719 C 13.949219 62.605469 12.230469 64.980469 11.761719 65.730469 C 9.792969 68.667969 9.074219 71.699219 9.074219 73.917969 C 9.074219 74.136719 9.074219 75.105469 10.074219 75.105469 C 11.074219 75.105469 11.074219 74.136719 11.074219 73.917969 L 11.074219 72.792969 C 11.074219 71.605469 11.136719 70.417969 11.324219 69.230469 C 11.417969 68.730469 11.699219 66.855469 12.667969 65.511719 Z M 15.605469 61.355469 "/>
<path fill-rule="nonzero" fill="rgb(0%, 0%, 0%)" fill-opacity="1" d="M 8.792969 32.664062 C 7.792969 32.007812 7.699219 31.257812 7.699219 30.882812 C 7.699219 29.570312 9.105469 28.664062 10.667969 28.664062 C 12.261719 28.664062 13.636719 29.789062 13.636719 31.351562 C 13.636719 32.601562 12.792969 33.632812 11.480469 34.414062 Z M 11.980469 34.726562 C 13.542969 33.914062 14.605469 32.789062 14.605469 31.351562 C 14.605469 29.351562 12.667969 28.101562 10.667969 28.101562 C 8.511719 28.101562 6.730469 29.726562 6.730469 31.757812 C 6.730469 32.132812 6.792969 33.132812 7.699219 34.132812 C 7.949219 34.414062 8.730469 34.945312 9.292969 35.320312 C 8.011719 35.945312 6.136719 37.195312 6.136719 39.351562 C 6.136719 41.664062 8.386719 43.101562 10.667969 43.101562 C 13.136719 43.101562 15.199219 41.289062 15.199219 38.976562 C 15.199219 38.195312 14.949219 37.195312 14.136719 36.289062 C 13.730469 35.820312 13.355469 35.601562 11.980469 34.726562 Z M 9.792969 35.664062 L 12.480469 37.351562 C 13.074219 37.757812 14.105469 38.414062 14.105469 39.757812 C 14.105469 41.382812 12.480469 42.507812 10.667969 42.507812 C 8.792969 42.507812 7.230469 41.164062 7.230469 39.351562 C 7.230469 38.070312 7.949219 36.664062 9.792969 35.664062 Z M 9.792969 35.664062 "/>
<path fill-rule="nonzero" fill="rgb(100%, 100%, 100%)" fill-opacity="1" d="M 161.539062 136.195312 L 207.453125 79.492188 L 232.257812 99.578125 L 186.34375 156.28125 Z M 161.539062 136.195312 "/>
<path fill-rule="nonzero" fill="rgb(0%, 0%, 0%)" fill-opacity="1" d="M 182.285156 131.65625 C 182.128906 131.34375 182.097656 131.34375 181.972656 131.25 C 181.660156 130.96875 181.316406 131.125 181.128906 131.375 C 180.972656 131.53125 180.847656 131.875 181.003906 132.25 C 181.035156 132.34375 181.472656 132.9375 181.722656 133.21875 C 182.066406 133.6875 182.441406 134.1875 182.785156 134.65625 L 185.222656 137.90625 C 185.410156 138.15625 186.035156 139.875 185.128906 140.96875 C 184.441406 141.84375 183.535156 141.4375 182.910156 140.9375 C 182.128906 140.3125 181.285156 139.125 180.285156 137.375 C 179.785156 136.5 179.691406 136.3125 179.347656 136.03125 C 178.566406 135.40625 177.503906 135.46875 176.785156 136.3125 C 175.503906 137.90625 177.472656 140.53125 177.628906 140.65625 C 177.785156 140.78125 177.910156 140.625 177.941406 140.5625 C 178.097656 140.40625 178.066406 140.375 177.847656 140.0625 C 176.660156 138.3125 176.691406 137.21875 177.128906 136.6875 C 177.253906 136.53125 177.503906 136.25 178.035156 136.65625 C 178.472656 137.03125 178.753906 137.53125 178.972656 137.90625 C 180.222656 140.0625 180.941406 141.15625 181.753906 141.8125 C 183.253906 143.03125 184.628906 142.375 185.441406 141.34375 C 185.972656 140.6875 186.160156 139.875 186.035156 139 C 186.785156 139.9375 187.472656 140.84375 187.785156 142.21875 C 188.003906 143.09375 187.972656 144.1875 187.347656 144.96875 C 187.128906 145.21875 186.503906 145.90625 185.566406 145.65625 C 185.785156 145.40625 185.972656 145.1875 185.972656 144.78125 C 185.972656 144.5 185.878906 144.125 185.535156 143.84375 C 185.035156 143.4375 184.597656 143.84375 184.472656 144 C 184.160156 144.40625 183.941406 145.1875 184.785156 145.875 C 185.628906 146.5625 186.878906 146.3125 187.722656 145.25 C 189.128906 143.5 189.003906 140.5 187.472656 138.53125 Z M 182.285156 131.65625 "/>
<path fill-rule="nonzero" fill="rgb(0%, 0%, 0%)" fill-opacity="1" d="M 197.03125 115.351562 C 197.21875 115.101562 197.5 114.789062 197.15625 114.507812 C 196.8125 114.226562 196.53125 114.539062 196.34375 114.789062 L 188.125 124.945312 C 187.9375 125.195312 187.6875 125.507812 188.03125 125.789062 C 188.375 126.070312 188.625 125.757812 188.84375 125.476562 Z M 200.3125 117.976562 C 200.5 117.726562 200.78125 117.414062 200.4375 117.164062 C 200.09375 116.882812 199.8125 117.195312 199.625 117.445312 L 191.4375 127.570312 C 191.21875 127.851562 190.96875 128.164062 191.3125 128.445312 C 191.65625 128.695312 191.90625 128.382812 192.09375 128.132812 Z M 200.3125 117.976562 "/>
<path fill-rule="nonzero" fill="rgb(0%, 0%, 0%)" fill-opacity="1" d="M 207.871094 105.414062 C 208.089844 105.164062 208.339844 104.851562 208.058594 104.601562 C 207.839844 104.414062 207.652344 104.632812 207.433594 104.914062 L 205.214844 107.664062 C 204.058594 106.101562 203.871094 104.320312 205.121094 102.789062 L 205.527344 102.257812 C 205.777344 101.976562 205.996094 101.695312 205.714844 101.476562 C 205.464844 101.289062 205.277344 101.507812 205.058594 101.789062 L 204.589844 102.382812 C 202.777344 104.601562 202.652344 108.226562 205.277344 110.320312 C 207.121094 111.820312 209.464844 111.664062 210.933594 109.851562 C 211.839844 108.757812 212.027344 107.101562 211.839844 106.945312 C 211.808594 106.914062 211.589844 106.757812 211.464844 106.914062 C 211.433594 106.945312 211.402344 106.976562 211.402344 107.226562 C 211.277344 108.007812 211.089844 108.882812 210.589844 109.507812 C 209.808594 110.507812 208.371094 110.789062 206.902344 109.570312 C 206.277344 109.101562 205.777344 108.414062 205.621094 108.226562 Z M 207.871094 105.414062 "/>
<path fill-rule="nonzero" fill="rgb(0%, 0%, 0%)" fill-opacity="1" d="M 206.960938 90.28125 C 206.648438 90.875 206.960938 91.375 207.179688 91.5625 C 207.429688 91.75 207.867188 91.78125 208.117188 91.4375 C 208.429688 91.03125 208.398438 90.375 207.929688 89.96875 C 207.273438 89.4375 206.398438 89.875 205.867188 90.53125 C 205.210938 91.375 205.554688 92.46875 205.710938 92.875 C 204.804688 92.59375 203.960938 92.90625 203.429688 93.59375 C 202.210938 95.0625 203.335938 97.34375 203.710938 97.625 C 203.835938 97.71875 203.929688 97.6875 204.023438 97.59375 C 204.117188 97.46875 204.085938 97.375 204.023438 97.25 C 202.960938 95.6875 203.304688 94.4375 203.742188 93.90625 C 204.085938 93.5 204.617188 93.375 205.273438 93.90625 C 205.742188 94.28125 207.523438 96.6875 208.054688 97.4375 C 208.398438 97.84375 208.898438 99 208.304688 99.75 C 208.054688 100.0625 207.742188 100.25 207.554688 100.34375 C 207.773438 99.90625 207.679688 99.34375 207.335938 99.0625 C 206.992188 98.78125 206.617188 98.90625 206.398438 99.1875 C 206.054688 99.59375 206.117188 100.25 206.585938 100.625 C 207.273438 101.1875 208.148438 100.65625 208.617188 100.0625 C 209.304688 99.25 209.023438 98.25 208.773438 97.71875 C 209.992188 98.125 210.804688 97.40625 211.085938 97.03125 C 212.304688 95.53125 211.148438 93.25 210.804688 92.96875 C 210.742188 92.9375 210.617188 92.90625 210.492188 93.03125 C 210.367188 93.1875 210.398438 93.21875 210.554688 93.46875 C 211.304688 94.59375 211.367188 95.96875 210.773438 96.6875 C 210.460938 97.09375 209.898438 97.28125 209.210938 96.71875 C 208.898438 96.46875 208.304688 95.65625 207.867188 95.125 C 207.679688 94.84375 206.492188 93.25 206.398438 93.15625 C 206.054688 92.5625 205.617188 91.59375 206.210938 90.84375 C 206.429688 90.625 206.648438 90.34375 206.960938 90.28125 Z M 206.960938 90.28125 "/>
<path fill="none" stroke-width="11.9553" stroke-linecap="butt" stroke-linejoin="miter" stroke="rgb(0%, 0%, 0%)" stroke-opacity="1" stroke-miterlimit="10" d="M 119.999998 481.601555 L 150.585935 490.312493 L 181.210935 499.531243 L 211.796872 509.257805 L 242.382809 519.49218 L 273.007808 530.27343 L 303.593745 541.679679 L 334.218745 553.671867 L 364.804682 566.328117 L 395.390619 579.687491 L 426.015619 593.789054 L 456.601556 608.632803 L 487.187493 624.296866 L 517.812492 640.820303 L 548.398429 658.203115 L 579.023429 676.56249 L 609.609366 695.93749 L 640.195303 716.367177 L 670.820303 737.890614 L 701.40624 760.624989 L 732.031239 784.570301 L 762.617176 809.843738 L 793.203113 836.484363 L 823.78905 864.5703 L 854.41405 894.218737 L 884.999987 925.429674 L 915.585924 958.398423 L 946.210923 993.124985 L 976.79686 1029.76561 L 1007.42186 1068.398422 L 1038.007797 1109.140608 L 1068.632797 1152.14842 L 1099.218734 1197.421857 L 1129.804671 1245.234356 L 1160.42967 1295.624981 L 1191.015607 1348.789042 L 1221.601544 1404.804667 L 1252.226544 1463.906228 L 1282.812481 1526.249977 L 1313.398418 1591.953101 L 1344.023417 1661.289038 " transform="matrix(0.2, 0, 0, -0.2, 0, 356)"/>
<path fill-rule="nonzero" fill="rgb(100%, 100%, 100%)" fill-opacity="1" d="M -5.304688 291.703125 L 23.976562 291.703125 L 23.976562 318.585938 L -5.304688 318.585938 Z M -5.304688 291.703125 "/>
<path fill-rule="nonzero" fill="rgb(0%, 0%, 0%)" fill-opacity="1" d="M 16.875 303.058594 C 16.875 299.527344 14.5625 297.183594 11.3125 297.183594 C 6.59375 297.183594 1.78125 302.121094 1.78125 307.214844 C 1.78125 310.839844 4.21875 313.027344 7.375 313.027344 C 12 313.027344 16.875 308.246094 16.875 303.058594 Z M 7.5 312.464844 C 5.34375 312.464844 3.8125 310.714844 3.8125 307.839844 C 3.8125 306.871094 4.125 303.683594 5.8125 301.121094 C 7.3125 298.871094 9.4375 297.714844 11.15625 297.714844 C 12.96875 297.714844 14.90625 298.933594 14.90625 302.183594 C 14.90625 303.777344 14.34375 307.183594 12.15625 309.839844 C 11.125 311.183594 9.34375 312.464844 7.5 312.464844 Z M 7.5 312.464844 "/>
<path fill-rule="nonzero" fill="rgb(100%, 100%, 100%)" fill-opacity="1" d="M 295.757812 291.703125 L 320.234375 291.703125 L 320.234375 313.0625 L 295.757812 313.0625 Z M 295.757812 291.703125 "/>
<path fill-rule="nonzero" fill="rgb(0%, 0%, 0%)" fill-opacity="1" d="M 309.0625 300.445312 C 309.1875 299.882812 309.6875 297.882812 311.21875 297.882812 C 311.34375 297.882812 311.84375 297.882812 312.3125 298.164062 C 311.71875 298.257812 311.28125 298.820312 311.28125 299.351562 C 311.28125 299.695312 311.5 300.101562 312.09375 300.101562 C 312.59375 300.101562 313.28125 299.695312 313.28125 298.851562 C 313.28125 297.695312 312 297.382812 311.25 297.382812 C 309.96875 297.382812 309.21875 298.539062 308.96875 299.070312 C 308.40625 297.601562 307.21875 297.382812 306.59375 297.382812 C 304.34375 297.382812 303.09375 300.226562 303.09375 300.757812 C 303.09375 300.976562 303.3125 300.976562 303.34375 300.976562 C 303.53125 300.976562 303.59375 300.945312 303.625 300.726562 C 304.375 298.414062 305.8125 297.882812 306.5625 297.882812 C 306.96875 297.882812 307.75 298.070312 307.75 299.351562 C 307.75 300.007812 307.375 301.476562 306.5625 304.539062 C 306.21875 305.882812 305.4375 306.789062 304.5 306.789062 C 304.34375 306.789062 303.84375 306.789062 303.40625 306.507812 C 303.9375 306.414062 304.40625 305.945312 304.40625 305.351562 C 304.40625 304.757812 303.9375 304.570312 303.625 304.570312 C 302.96875 304.570312 302.40625 305.132812 302.40625 305.851562 C 302.40625 306.851562 303.5 307.289062 304.46875 307.289062 C 305.90625 307.289062 306.6875 305.757812 306.75 305.632812 C 307.03125 306.414062 307.8125 307.289062 309.125 307.289062 C 311.34375 307.289062 312.59375 304.476562 312.59375 303.914062 C 312.59375 303.695312 312.40625 303.695312 312.34375 303.695312 C 312.15625 303.695312 312.09375 303.789062 312.0625 303.945312 C 311.34375 306.289062 309.84375 306.789062 309.15625 306.789062 C 308.3125 306.789062 307.96875 306.101562 307.96875 305.351562 C 307.96875 304.882812 308.09375 304.414062 308.3125 303.445312 Z M 309.0625 300.445312 "/>
<path fill-rule="nonzero" fill="rgb(100%, 100%, 100%)" fill-opacity="1" d="M 0.453125 -5.273438 L 23.976562 -5.273438 L 23.976562 20.40625 L 0.453125 20.40625 Z M 0.453125 -5.273438 "/>
<path fill-rule="nonzero" fill="rgb(0%, 0%, 0%)" fill-opacity="1" d="M 17.074219 1.988281 C 17.167969 1.675781 17.167969 1.644531 17.167969 1.488281 C 17.167969 1.082031 16.855469 0.894531 16.542969 0.894531 C 16.324219 0.894531 15.980469 1.019531 15.761719 1.363281 C 15.730469 1.457031 15.542969 2.144531 15.480469 2.550781 C 15.324219 3.113281 15.167969 3.707031 15.042969 4.269531 L 14.042969 8.207031 C 13.949219 8.519531 13.011719 10.050781 11.574219 10.050781 C 10.480469 10.050781 10.230469 9.113281 10.230469 8.300781 C 10.230469 7.300781 10.605469 5.925781 11.355469 4.019531 C 11.699219 3.113281 11.792969 2.894531 11.792969 2.457031 C 11.792969 1.457031 11.074219 0.644531 9.980469 0.644531 C 7.917969 0.644531 7.105469 3.832031 7.105469 4.019531 C 7.105469 4.238281 7.324219 4.238281 7.386719 4.238281 C 7.605469 4.238281 7.605469 4.207031 7.730469 3.832031 C 8.324219 1.800781 9.199219 1.144531 9.917969 1.144531 C 10.105469 1.144531 10.480469 1.144531 10.480469 1.832031 C 10.480469 2.394531 10.261719 2.957031 10.105469 3.363281 C 9.230469 5.675781 8.824219 6.925781 8.824219 7.957031 C 8.824219 9.894531 10.199219 10.550781 11.511719 10.550781 C 12.355469 10.550781 13.074219 10.175781 13.699219 9.550781 C 13.417969 10.707031 13.167969 11.769531 12.292969 12.925781 C 11.730469 13.644531 10.886719 14.300781 9.886719 14.300781 C 9.574219 14.300781 8.605469 14.238281 8.230469 13.363281 C 8.574219 13.363281 8.855469 13.363281 9.167969 13.113281 C 9.386719 12.925781 9.605469 12.644531 9.605469 12.207031 C 9.605469 11.550781 9.011719 11.457031 8.792969 11.457031 C 8.292969 11.457031 7.574219 11.800781 7.574219 12.863281 C 7.574219 13.957031 8.542969 14.769531 9.886719 14.769531 C 12.136719 14.769531 14.386719 12.800781 14.980469 10.332031 Z M 17.074219 1.988281 "/>
<path fill="none" stroke-width="11.9553" stroke-linecap="butt" stroke-linejoin="miter" stroke="rgb(0%, 0%, 0%)" stroke-opacity="1" stroke-miterlimit="10" d="M 4.804687 321.601558 L 1560.039039 321.601558 " transform="matrix(0.2, 0, 0, -0.2, 0, 356)"/>
<path fill="none" stroke-width="11.9553" stroke-linecap="butt" stroke-linejoin="miter" stroke="rgb(0%, 0%, 0%)" stroke-opacity="1" stroke-miterlimit="10" d="M 119.999998 289.609371 L 119.999998 1761.601536 " transform="matrix(0.2, 0, 0, -0.2, 0, 356)"/>
<path fill-rule="nonzero" fill="rgb(0%, 0%, 0%)" fill-opacity="1" d="M 123.597656 348.300781 C 124.785156 347.894531 126.785156 347.300781 126.785156 345.363281 C 126.785156 343.050781 124.066406 341.988281 122.097656 341.988281 C 121.160156 341.988281 120.191406 342.207031 119.347656 342.707031 C 119.222656 342.769531 119.066406 342.957031 118.910156 342.957031 C 118.597656 342.957031 118.035156 341.988281 117.722656 341.988281 C 117.535156 341.988281 117.503906 342.207031 117.503906 342.300781 L 117.503906 345.863281 C 117.503906 345.988281 117.597656 346.144531 117.785156 346.144531 C 118.097656 346.144531 118.066406 345.519531 118.160156 345.175781 C 118.628906 343.457031 120.191406 342.707031 121.691406 342.613281 L 122.097656 342.613281 C 123.441406 342.613281 125.003906 343.488281 125.003906 345.363281 C 125.003906 347.175781 123.222656 348.113281 121.566406 348.113281 C 121.253906 348.113281 120.941406 348.113281 120.628906 348.113281 L 120.472656 348.113281 C 120.285156 348.113281 120.066406 348.113281 120.066406 348.332031 L 120.066406 348.363281 C 120.097656 348.550781 120.285156 348.582031 120.472656 348.582031 L 122.316406 348.582031 C 123.878906 348.707031 125.316406 349.738281 125.472656 351.363281 L 125.472656 351.582031 C 125.472656 353.425781 123.753906 354.582031 122.003906 354.582031 C 120.097656 354.582031 118.128906 353.957031 117.816406 351.582031 C 117.816406 351.425781 117.753906 351.238281 117.535156 351.238281 C 117.316406 351.269531 117.285156 351.425781 117.285156 351.582031 C 117.285156 354.175781 119.878906 355.207031 122.128906 355.207031 C 124.191406 355.207031 127.066406 354.238281 127.316406 351.769531 L 127.316406 351.644531 C 127.316406 349.675781 125.253906 348.707031 123.597656 348.300781 Z M 123.597656 348.300781 "/>
<path fill-rule="nonzero" fill="rgb(0%, 0%, 0%)" fill-opacity="1" d="M 135.695312 341.988281 C 132.320312 342.394531 129.632812 345.050781 129.632812 348.644531 C 129.632812 351.925781 132.226562 355.175781 136.101562 355.175781 C 139.601562 355.175781 142.570312 352.269531 142.570312 348.644531 C 142.570312 345.457031 140.070312 341.988281 136.132812 341.988281 C 136.007812 341.988281 135.851562 341.988281 135.695312 341.988281 Z M 131.507812 348.863281 L 131.507812 348.519531 C 131.507812 346.019531 132.414062 343.082031 135.570312 342.550781 C 135.757812 342.519531 135.914062 342.519531 136.101562 342.519531 C 138.914062 342.519531 140.664062 345.238281 140.664062 348.269531 C 140.664062 350.675781 139.945312 353.738281 136.976562 354.519531 C 136.695312 354.582031 136.414062 354.613281 136.132812 354.613281 L 135.945312 354.613281 C 133.351562 354.519531 131.945312 352.050781 131.601562 349.644531 Z M 131.507812 348.863281 "/>
<path fill-rule="nonzero" fill="rgb(0%, 0%, 0%)" fill-opacity="1" d="M 145.027344 342.332031 L 145.027344 342.925781 L 145.464844 342.925781 C 146.058594 342.925781 146.683594 343.019531 146.683594 343.894531 L 146.683594 353.363281 C 146.683594 354.207031 145.964844 354.238281 145.308594 354.238281 L 145.027344 354.238281 L 145.027344 354.832031 L 150.808594 354.832031 C 151.214844 354.832031 151.589844 354.863281 151.996094 354.863281 C 153.996094 354.863281 156.339844 353.925781 156.558594 351.519531 L 156.558594 351.332031 C 156.558594 348.800781 153.683594 347.769531 151.777344 347.769531 C 150.527344 347.769531 149.339844 347.894531 148.152344 347.988281 L 148.152344 343.769531 C 148.152344 343.332031 148.214844 342.925781 148.996094 342.925781 L 151.308594 342.925781 C 152.277344 342.925781 153.371094 342.988281 154.089844 343.707031 C 154.777344 344.425781 154.871094 345.644531 154.964844 346.582031 L 155.496094 346.582031 L 155.027344 342.332031 Z M 148.152344 348.613281 C 148.402344 348.613281 148.652344 348.550781 148.902344 348.519531 L 150.277344 348.457031 C 150.558594 348.425781 150.839844 348.394531 151.152344 348.394531 C 152.714844 348.394531 154.683594 349.394531 154.683594 351.238281 C 154.683594 352.988281 153.339844 354.269531 151.339844 354.269531 C 151.058594 354.269531 150.746094 354.238281 150.496094 354.238281 L 148.964844 354.238281 C 148.496094 354.238281 148.246094 354.207031 148.152344 353.582031 Z M 148.152344 348.613281 "/>
<path fill-rule="nonzero" fill="rgb(0%, 0%, 0%)" fill-opacity="1" d="M 158.90625 342.332031 L 158.90625 342.925781 L 159.375 342.925781 C 159.96875 342.925781 160.5625 343.019531 160.5625 343.894531 L 160.5625 353.363281 C 160.5625 354.207031 159.875 354.238281 159.1875 354.238281 L 158.90625 354.238281 L 158.90625 354.832031 L 163.8125 354.832031 L 163.8125 354.238281 L 163.375 354.238281 C 162.75 354.238281 162.15625 354.175781 162.15625 353.300781 L 162.15625 349.113281 L 165.875 349.113281 C 167.65625 348.988281 169.9375 347.800781 169.9375 345.769531 C 169.9375 343.550781 167.59375 342.488281 165.6875 342.332031 Z M 162.125 348.582031 L 162.125 343.582031 C 162.21875 342.988281 162.46875 342.925781 162.875 342.925781 L 164.3125 342.925781 C 165.9375 342.925781 168.0625 342.988281 168.0625 345.769531 C 168.0625 346.425781 167.96875 347.113281 167.5625 347.613281 C 166.90625 348.394531 165.8125 348.582031 164.84375 348.582031 Z M 162.125 348.582031 "/>
<path fill-rule="nonzero" fill="rgb(0%, 0%, 0%)" fill-opacity="1" d="M 174.632812 352.550781 C 174.132812 352.644531 173.632812 353.082031 173.632812 353.675781 C 173.632812 354.300781 174.164062 354.832031 174.789062 354.832031 C 175.414062 354.832031 175.976562 354.363281 175.976562 353.707031 C 175.976562 353.082031 175.445312 352.519531 174.820312 352.519531 C 174.757812 352.519531 174.695312 352.550781 174.632812 352.550781 Z M 174.632812 352.550781 "/>
<path fill-rule="nonzero" fill="rgb(0%, 0%, 0%)" fill-opacity="1" d="M 190.035156 341.113281 C 190.722656 340.050781 192.097656 339.519531 193.378906 339.519531 C 194.816406 339.519531 195.972656 340.425781 195.972656 342.269531 C 195.972656 343.800781 195.222656 345.675781 193.628906 346.082031 C 193.066406 346.238281 191.566406 346.082031 191.566406 346.519531 C 191.566406 346.707031 191.753906 346.769531 191.941406 346.769531 L 193.222656 346.769531 C 195.566406 346.769531 196.441406 348.738281 196.441406 350.550781 C 196.441406 352.300781 195.816406 354.707031 193.410156 354.707031 C 191.816406 354.707031 190.285156 353.988281 189.410156 352.582031 L 189.628906 352.582031 C 190.316406 352.582031 190.910156 352.175781 190.910156 351.425781 C 190.910156 350.707031 190.378906 350.238281 189.691406 350.238281 L 189.597656 350.238281 C 188.941406 350.269531 188.503906 350.800781 188.503906 351.425781 C 188.503906 353.894531 191.066406 355.332031 193.503906 355.332031 C 196.097656 355.332031 198.660156 353.488281 198.660156 350.738281 C 198.660156 348.613281 196.628906 346.550781 194.410156 346.457031 C 196.285156 345.800781 197.972656 344.425781 197.972656 342.269531 C 197.972656 340.082031 195.566406 338.957031 193.535156 338.957031 C 191.660156 338.957031 189.191406 339.863281 189.191406 342.113281 C 189.191406 342.675781 189.441406 343.175781 190.191406 343.300781 L 190.285156 343.300781 C 190.941406 343.300781 191.410156 342.863281 191.410156 342.207031 C 191.410156 341.488281 190.847656 341.082031 190.253906 341.082031 C 190.191406 341.082031 190.128906 341.113281 190.035156 341.113281 Z M 190.035156 341.113281 "/>
<path fill-rule="nonzero" fill="rgb(0%, 0%, 0%)" fill-opacity="1" d="M 204.902344 346.769531 C 203.371094 347.707031 201.214844 348.613281 201.214844 351.238281 C 201.214844 353.738281 203.652344 355.332031 206.277344 355.332031 C 208.589844 355.332031 211.371094 353.894531 211.371094 350.957031 C 211.371094 349.957031 211.058594 349.019531 210.433594 348.269531 C 209.683594 347.363281 208.589844 346.863281 207.621094 346.207031 C 209.089844 345.550781 210.683594 344.300781 210.683594 342.457031 C 210.683594 340.175781 208.496094 339.082031 206.621094 338.957031 L 206.339844 338.957031 C 204.183594 338.957031 201.902344 340.394531 201.902344 342.863281 C 201.902344 344.613281 203.183594 345.925781 204.902344 346.769531 Z M 202.308594 351.488281 C 202.308594 351.394531 202.308594 351.300781 202.308594 351.207031 C 202.308594 349.488281 203.652344 348.113281 205.058594 347.300781 C 205.152344 347.269531 205.277344 347.175781 205.402344 347.175781 C 205.589844 347.175781 205.746094 347.300781 205.871094 347.394531 C 206.621094 347.894531 207.402344 348.394531 208.183594 348.863281 C 209.152344 349.488281 210.277344 350.238281 210.277344 351.457031 C 210.277344 353.582031 208.214844 354.707031 206.339844 354.707031 C 204.496094 354.707031 202.621094 353.582031 202.308594 351.488281 Z M 202.902344 342.207031 C 202.902344 340.394531 204.652344 339.519531 206.246094 339.519531 C 207.871094 339.519531 209.433594 340.457031 209.714844 342.269531 L 209.714844 342.488281 C 209.714844 343.925781 208.527344 345.113281 207.433594 345.707031 C 207.339844 345.769531 207.246094 345.863281 207.121094 345.863281 C 206.902344 345.863281 206.277344 345.363281 205.902344 345.144531 C 204.714844 344.332031 203.121094 343.707031 202.902344 342.207031 Z M 202.902344 342.207031 "/>
<path fill-rule="nonzero" fill="rgb(0%, 0%, 0%)" fill-opacity="1" d="M 216.140625 352.550781 C 215.640625 352.644531 215.140625 353.082031 215.140625 353.675781 C 215.140625 354.300781 215.671875 354.832031 216.296875 354.832031 C 216.921875 354.832031 217.484375 354.363281 217.484375 353.707031 C 217.484375 353.082031 216.953125 352.519531 216.328125 352.519531 C 216.265625 352.519531 216.203125 352.550781 216.140625 352.550781 Z M 216.140625 352.550781 "/>
</svg>
