<?xml version="1.0" encoding="UTF-8"?>
<svg xmlns="http://www.w3.org/2000/svg" xmlns:xlink="http://www.w3.org/1999/xlink" width="96" height="64" viewBox="0 0 96 64">
<path fill="none" stroke-width="11.9553" stroke-linecap="butt" stroke-linejoin="miter" stroke="rgb(0%, 0%, 0%)" stroke-opacity="1" stroke-miterlimit="10" d="M 30 121.601561 L 328.867183 121.601561 L 328.867183 300.937496 Z M 30 121.601561 " transform="matrix(0.2, 0, 0, -0.2, 0, 64)"/>
<path fill-rule="nonzero" fill="rgb(0%, 0%, 0%)" fill-opacity="1" d="M 35.136719 47.863281 C 35.136719 47.863281 35.136719 47.644531 34.855469 47.644531 C 34.542969 47.644531 32.449219 47.832031 32.074219 47.863281 C 31.917969 47.894531 31.792969 47.988281 31.792969 48.300781 C 31.792969 48.550781 31.980469 48.550781 32.292969 48.550781 C 33.355469 48.550781 33.386719 48.707031 33.386719 48.925781 L 33.324219 49.363281 L 32.011719 54.519531 C 31.636719 53.707031 31.011719 53.113281 30.011719 53.113281 C 27.449219 53.113281 24.761719 56.332031 24.761719 59.519531 C 24.761719 61.582031 25.949219 63.019531 27.667969 63.019531 C 28.105469 63.019531 29.199219 62.925781 30.480469 61.363281 C 30.667969 62.300781 31.449219 63.019531 32.480469 63.019531 C 33.230469 63.019531 33.730469 62.519531 34.105469 61.800781 C 34.480469 61.019531 34.761719 59.707031 34.761719 59.644531 C 34.761719 59.425781 34.542969 59.425781 34.480469 59.425781 C 34.261719 59.425781 34.261719 59.519531 34.167969 59.832031 C 33.824219 61.238281 33.417969 62.519531 32.511719 62.519531 C 31.949219 62.519531 31.855469 61.957031 31.855469 61.519531 C 31.855469 60.988281 31.917969 60.863281 32.011719 60.488281 Z M 30.605469 60.175781 C 30.480469 60.582031 30.480469 60.613281 30.167969 60.988281 C 29.199219 62.175781 28.324219 62.519531 27.699219 62.519531 C 26.605469 62.519531 26.292969 61.332031 26.292969 60.488281 C 26.292969 59.394531 27.011719 56.707031 27.511719 55.707031 C 28.199219 54.425781 29.167969 53.613281 30.042969 53.613281 C 31.449219 53.613281 31.761719 55.394531 31.761719 55.519531 C 31.761719 55.644531 31.730469 55.800781 31.699219 55.894531 Z M 30.605469 60.175781 "/>
<path fill-rule="nonzero" fill="rgb(0%, 0%, 0%)" fill-opacity="1" d="M 42.449219 56.175781 C 42.574219 55.613281 43.074219 53.613281 44.605469 53.613281 C 44.730469 53.613281 45.230469 53.613281 45.699219 53.894531 C 45.105469 53.988281 44.667969 54.550781 44.667969 55.082031 C 44.667969 55.425781 44.886719 55.832031 45.480469 55.832031 C 45.980469 55.832031 46.667969 55.425781 46.667969 54.582031 C 46.667969 53.425781 45.386719 53.113281 44.636719 53.113281 C 43.355469 53.113281 42.605469 54.269531 42.355469 54.800781 C 41.792969 53.332031 40.605469 53.113281 39.980469 53.113281 C 37.730469 53.113281 36.480469 55.957031 36.480469 56.488281 C 36.480469 56.707031 36.699219 56.707031 36.730469 56.707031 C 36.917969 56.707031 36.980469 56.675781 37.011719 56.457031 C 37.761719 54.144531 39.199219 53.613281 39.949219 53.613281 C 40.355469 53.613281 41.136719 53.800781 41.136719 55.082031 C 41.136719 55.738281 40.761719 57.207031 39.949219 60.269531 C 39.605469 61.613281 38.824219 62.519531 37.886719 62.519531 C 37.730469 62.519531 37.230469 62.519531 36.792969 62.238281 C 37.324219 62.144531 37.792969 61.675781 37.792969 61.082031 C 37.792969 60.488281 37.324219 60.300781 37.011719 60.300781 C 36.355469 60.300781 35.792969 60.863281 35.792969 61.582031 C 35.792969 62.582031 36.886719 63.019531 37.855469 63.019531 C 39.292969 63.019531 40.074219 61.488281 40.136719 61.363281 C 40.417969 62.144531 41.199219 63.019531 42.511719 63.019531 C 44.730469 63.019531 45.980469 60.207031 45.980469 59.644531 C 45.980469 59.425781 45.792969 59.425781 45.730469 59.425781 C 45.542969 59.425781 45.480469 59.519531 45.449219 59.675781 C 44.730469 62.019531 43.230469 62.519531 42.542969 62.519531 C 41.699219 62.519531 41.355469 61.832031 41.355469 61.082031 C 41.355469 60.613281 41.480469 60.144531 41.699219 59.175781 Z M 42.449219 56.175781 "/>
<path fill-rule="nonzero" fill="rgb(0%, 0%, 0%)" fill-opacity="1" d="M 84.996094 12.121094 C 84.996094 12.121094 84.996094 11.902344 84.714844 11.902344 C 84.402344 11.902344 82.308594 12.089844 81.933594 12.121094 C 81.777344 12.152344 81.652344 12.246094 81.652344 12.558594 C 81.652344 12.808594 81.839844 12.808594 82.152344 12.808594 C 83.214844 12.808594 83.246094 12.964844 83.246094 13.183594 L 83.183594 13.621094 L 81.871094 18.777344 C 81.496094 17.964844 80.871094 17.371094 79.871094 17.371094 C 77.308594 17.371094 74.621094 20.589844 74.621094 23.777344 C 74.621094 25.839844 75.808594 27.277344 77.527344 27.277344 C 77.964844 27.277344 79.058594 27.183594 80.339844 25.621094 C 80.527344 26.558594 81.308594 27.277344 82.339844 27.277344 C 83.089844 27.277344 83.589844 26.777344 83.964844 26.058594 C 84.339844 25.277344 84.621094 23.964844 84.621094 23.902344 C 84.621094 23.683594 84.402344 23.683594 84.339844 23.683594 C 84.121094 23.683594 84.121094 23.777344 84.027344 24.089844 C 83.683594 25.496094 83.277344 26.777344 82.371094 26.777344 C 81.808594 26.777344 81.714844 26.214844 81.714844 25.777344 C 81.714844 25.246094 81.777344 25.121094 81.871094 24.746094 Z M 80.464844 24.433594 C 80.339844 24.839844 80.339844 24.871094 80.027344 25.246094 C 79.058594 26.433594 78.183594 26.777344 77.558594 26.777344 C 76.464844 26.777344 76.152344 25.589844 76.152344 24.746094 C 76.152344 23.652344 76.871094 20.964844 77.371094 19.964844 C 78.058594 18.683594 79.027344 17.871094 79.902344 17.871094 C 81.308594 17.871094 81.621094 19.652344 81.621094 19.777344 C 81.621094 19.902344 81.589844 20.058594 81.558594 20.152344 Z M 80.464844 24.433594 "/>
<path fill-rule="nonzero" fill="rgb(0%, 0%, 0%)" fill-opacity="1" d="M 95.621094 18.714844 C 95.714844 18.402344 95.714844 18.371094 95.714844 18.214844 C 95.714844 17.808594 95.402344 17.621094 95.089844 17.621094 C 94.871094 17.621094 94.527344 17.746094 94.308594 18.089844 C 94.277344 18.183594 94.089844 18.871094 94.027344 19.277344 C 93.871094 19.839844 93.714844 20.433594 93.589844 20.996094 L 92.589844 24.933594 C 92.496094 25.246094 91.558594 26.777344 90.121094 26.777344 C 89.027344 26.777344 88.777344 25.839844 88.777344 25.027344 C 88.777344 24.027344 89.152344 22.652344 89.902344 20.746094 C 90.246094 19.839844 90.339844 19.621094 90.339844 19.183594 C 90.339844 18.183594 89.621094 17.371094 88.527344 17.371094 C 86.464844 17.371094 85.652344 20.558594 85.652344 20.746094 C 85.652344 20.964844 85.871094 20.964844 85.933594 20.964844 C 86.152344 20.964844 86.152344 20.933594 86.277344 20.558594 C 86.871094 18.527344 87.746094 17.871094 88.464844 17.871094 C 88.652344 17.871094 89.027344 17.871094 89.027344 18.558594 C 89.027344 19.121094 88.808594 19.683594 88.652344 20.089844 C 87.777344 22.402344 87.371094 23.652344 87.371094 24.683594 C 87.371094 26.621094 88.746094 27.277344 90.058594 27.277344 C 90.902344 27.277344 91.621094 26.902344 92.246094 26.277344 C 91.964844 27.433594 91.714844 28.496094 90.839844 29.652344 C 90.277344 30.371094 89.433594 31.027344 88.433594 31.027344 C 88.121094 31.027344 87.152344 30.964844 86.777344 30.089844 C 87.121094 30.089844 87.402344 30.089844 87.714844 29.839844 C 87.933594 29.652344 88.152344 29.371094 88.152344 28.933594 C 88.152344 28.277344 87.558594 28.183594 87.339844 28.183594 C 86.839844 28.183594 86.121094 28.527344 86.121094 29.589844 C 86.121094 30.683594 87.089844 31.496094 88.433594 31.496094 C 90.683594 31.496094 92.933594 29.527344 93.527344 27.058594 Z M 95.621094 18.714844 "/>
</svg>
