<?xml version="1.0" encoding="UTF-8"?>
<svg xmlns="http://www.w3.org/2000/svg" xmlns:xlink="http://www.w3.org/1999/xlink" width="574" height="34" viewBox="0 0 574 34">
<path fill="none" stroke-width="11.9553" stroke-linecap="butt" stroke-linejoin="miter" stroke="rgb(0%, 0%, 0%)" stroke-opacity="1" stroke-miterlimit="10" d="M 30 7.617187 L 269.999996 7.617187 L 269.999996 151.60156 Z M 30 7.617187 " transform="matrix(0.2, 0, 0, -0.2, 0, 34)"/>
<path fill="none" stroke-width="11.9553" stroke-linecap="butt" stroke-linejoin="miter" stroke="rgb(0%, 0%, 0%)" stroke-opacity="1" stroke-miterlimit="10" d="M 318.007808 7.617187 L 558.007804 7.617187 L 558.007804 151.60156 Z M 318.007808 7.617187 " transform="matrix(0.2, 0, 0, -0.2, 0, 34)"/>
<path fill="none" stroke-width="11.9553" stroke-linecap="butt" stroke-linejoin="miter" stroke="rgb(0%, 0%, 0%)" stroke-opacity="1" stroke-miterlimit="10" d="M 606.015616 7.617187 L 846.015612 7.617187 L 846.015612 151.60156 Z M 606.015616 7.617187 " transform="matrix(0.2, 0, 0, -0.2, 0, 34)"/>
<path fill="none" stroke-width="11.9553" stroke-linecap="butt" stroke-linejoin="miter" stroke="rgb(0%, 0%, 0%)" stroke-opacity="1" stroke-miterlimit="10" d="M 894.023424 7.617187 L 1134.023421 7.617187 L 1134.023421 151.60156 Z M 894.023424 7.617187 " transform="matrix(0.2, 0, 0, -0.2, 0, 34)"/>
<path fill="none" stroke-width="11.9553" stroke-linecap="butt" stroke-linejoin="miter" stroke="rgb(0%, 0%, 0%)" stroke-opacity="1" stroke-miterlimit="10" d="M 1182.031232 7.617187 L 1422.031229 7.617187 L 1422.031229 151.60156 Z M 1182.031232 7.617187 " transform="matrix(0.2, 0, 0, -0.2, 0, 34)"/>
<path fill="none" stroke-width="11.9553" stroke-linecap="butt" stroke-linejoin="miter" stroke="rgb(0%, 0%, 0%)" stroke-opacity="1" stroke-miterlimit="10" d="M 1470.039041 7.617187 L 1710.039037 7.617187 L 1710.039037 151.60156 Z M 1470.039041 7.617187 " transform="matrix(0.2, 0, 0, -0.2, 0, 34)"/>
<path fill="none" stroke-width="11.9553" stroke-linecap="butt" stroke-linejoin="miter" stroke="rgb(0%, 0%, 0%)" stroke-opacity="1" stroke-miterlimit="10" d="M 1758.007786 7.617187 L 1998.046845 7.617187 L 1998.046845 151.60156 Z M 1758.007786 7.617187 " transform="matrix(0.2, 0, 0, -0.2, 0, 34)"/>
<path fill="none" stroke-width="11.9553" stroke-linecap="butt" stroke-linejoin="miter" stroke="rgb(0%, 0%, 0%)" stroke-opacity="1" stroke-miterlimit="10" d="M 2046.015595 7.617187 L 2286.015591 7.617187 L 2286.015591 151.60156 Z M 2046.015595 7.617187 " transform="matrix(0.2, 0, 0, -0.2, 0, 34)"/>
<path fill="none" stroke-width="11.9553" stroke-linecap="butt" stroke-linejoin="miter" stroke="rgb(0%, 0%, 0%)" stroke-opacity="1" stroke-miterlimit="10" d="M 2334.023403 7.617187 L 2574.023399 7.617187 L 2574.023399 151.60156 Z M 2334.023403 7.617187 " transform="matrix(0.2, 0, 0, -0.2, 0, 34)"/>
<path fill="none" stroke-width="11.9553" stroke-linecap="butt" stroke-linejoin="miter" stroke="rgb(0%, 0%, 0%)" stroke-opacity="1" stroke-miterlimit="10" d="M 2622.031211 7.617187 L 2862.031207 7.617187 L 2862.031207 151.60156 Z M 2622.031211 7.617187 " transform="matrix(0.2, 0, 0, -0.2, 0, 34)"/>
</svg>
