<?xml version="1.0" encoding="UTF-8"?>
<svg xmlns="http://www.w3.org/2000/svg" xmlns:xlink="http://www.w3.org/1999/xlink" width="462" height="326" viewBox="0 0 462 326">
<path fill="none" stroke-width="11.9553" stroke-linecap="butt" stroke-linejoin="miter" stroke="rgb(0%, 0%, 0%)" stroke-opacity="1" stroke-miterlimit="10" d="M 30 321.601558 L 119.999998 321.601558 " transform="matrix(0.2, 0, 0, -0.2, 0, 326)"/>
<path fill-rule="nonzero" fill="rgb(0%, 0%, 0%)" fill-opacity="1" d="M 5.492188 255.703125 L 6.695312 255.703125 L 6.695312 267.703125 L 5.492188 267.703125 Z M 5.492188 255.703125 "/>
<path fill-rule="nonzero" fill="rgb(0%, 0%, 0%)" fill-opacity="1" d="M 41.5 255.703125 L 42.703125 255.703125 L 42.703125 267.703125 L 41.5 267.703125 Z M 41.5 255.703125 "/>
<path fill="none" stroke-width="11.9553" stroke-linecap="butt" stroke-linejoin="miter" stroke="rgb(0%, 0%, 0%)" stroke-opacity="1" stroke-miterlimit="10" d="M 209.999997 321.601558 L 389.999994 321.601558 L 389.999994 357.617182 Z M 209.999997 321.601558 " transform="matrix(0.2, 0, 0, -0.2, 0, 326)"/>
<path fill="none" stroke-width="7.9701" stroke-linecap="butt" stroke-linejoin="miter" stroke="rgb(0%, 0%, 0%)" stroke-opacity="1" stroke-miterlimit="10" d="M 299.999996 321.601558 L 299.999996 348.593745 " transform="matrix(0.2, 0, 0, -0.2, 0, 326)"/>
<path fill="none" stroke-width="7.9701" stroke-linecap="butt" stroke-linejoin="miter" stroke="rgb(0%, 0%, 0%)" stroke-opacity="1" stroke-miterlimit="10" d="M 299.999996 402.617182 L 299.999996 429.609369 " transform="matrix(0.2, 0, 0, -0.2, 0, 326)"/>
<path fill="none" stroke-width="11.9553" stroke-linecap="butt" stroke-linejoin="miter" stroke="rgb(0%, 0%, 0%)" stroke-opacity="1" stroke-miterlimit="10" d="M 389.999994 357.617182 L 569.999992 357.617182 L 569.999992 408.007806 Z M 389.999994 357.617182 " transform="matrix(0.2, 0, 0, -0.2, 0, 326)"/>
<path fill="none" stroke-width="7.9701" stroke-linecap="butt" stroke-linejoin="miter" stroke="rgb(0%, 0%, 0%)" stroke-opacity="1" stroke-miterlimit="10" d="M 479.999993 321.601558 L 479.999993 340.507807 " transform="matrix(0.2, 0, 0, -0.2, 0, 326)"/>
<path fill="none" stroke-width="7.9701" stroke-linecap="butt" stroke-linejoin="miter" stroke="rgb(0%, 0%, 0%)" stroke-opacity="1" stroke-miterlimit="10" d="M 479.999993 378.320307 L 479.999993 397.187494 " transform="matrix(0.2, 0, 0, -0.2, 0, 326)"/>
<path fill="none" stroke-width="7.9701" stroke-linecap="butt" stroke-linejoin="miter" stroke="rgb(0%, 0%, 0%)" stroke-opacity="1" stroke-miterlimit="10" d="M 479.999993 397.187494 L 479.999993 416.093744 " transform="matrix(0.2, 0, 0, -0.2, 0, 326)"/>
<path fill="none" stroke-width="7.9701" stroke-linecap="butt" stroke-linejoin="miter" stroke="rgb(0%, 0%, 0%)" stroke-opacity="1" stroke-miterlimit="10" d="M 479.999993 453.906243 L 479.999993 472.812493 " transform="matrix(0.2, 0, 0, -0.2, 0, 326)"/>
<path fill="none" stroke-width="11.9553" stroke-linecap="butt" stroke-linejoin="miter" stroke="rgb(0%, 0%, 0%)" stroke-opacity="1" stroke-miterlimit="10" d="M 569.999992 408.007806 L 749.999989 408.007806 L 749.999989 472.812493 Z M 569.999992 408.007806 " transform="matrix(0.2, 0, 0, -0.2, 0, 326)"/>
<path fill="none" stroke-width="7.9701" stroke-linecap="butt" stroke-linejoin="miter" stroke="rgb(0%, 0%, 0%)" stroke-opacity="1" stroke-miterlimit="10" d="M 659.99999 321.601558 L 659.99999 347.695307 " transform="matrix(0.2, 0, 0, -0.2, 0, 326)"/>
<path fill="none" stroke-width="7.9701" stroke-linecap="butt" stroke-linejoin="miter" stroke="rgb(0%, 0%, 0%)" stroke-opacity="1" stroke-miterlimit="10" d="M 659.99999 399.882807 L 659.99999 426.015619 " transform="matrix(0.2, 0, 0, -0.2, 0, 326)"/>
<path fill="none" stroke-width="7.9701" stroke-linecap="butt" stroke-linejoin="miter" stroke="rgb(0%, 0%, 0%)" stroke-opacity="1" stroke-miterlimit="10" d="M 659.99999 426.015619 L 659.99999 452.109368 " transform="matrix(0.2, 0, 0, -0.2, 0, 326)"/>
<path fill="none" stroke-width="7.9701" stroke-linecap="butt" stroke-linejoin="miter" stroke="rgb(0%, 0%, 0%)" stroke-opacity="1" stroke-miterlimit="10" d="M 659.99999 504.296867 L 659.99999 530.390617 " transform="matrix(0.2, 0, 0, -0.2, 0, 326)"/>
<path fill="none" stroke-width="11.9553" stroke-linecap="butt" stroke-linejoin="miter" stroke="rgb(0%, 0%, 0%)" stroke-opacity="1" stroke-miterlimit="10" d="M 749.999989 472.812493 L 929.999986 472.812493 L 929.999986 551.992179 Z M 749.999989 472.812493 " transform="matrix(0.2, 0, 0, -0.2, 0, 326)"/>
<path fill="none" stroke-width="7.9701" stroke-linecap="butt" stroke-linejoin="miter" stroke="rgb(0%, 0%, 0%)" stroke-opacity="1" stroke-miterlimit="10" d="M 839.999987 321.601558 L 839.999987 344.999995 " transform="matrix(0.2, 0, 0, -0.2, 0, 326)"/>
<path fill="none" stroke-width="7.9701" stroke-linecap="butt" stroke-linejoin="miter" stroke="rgb(0%, 0%, 0%)" stroke-opacity="1" stroke-miterlimit="10" d="M 839.999987 391.796869 L 839.999987 415.195306 " transform="matrix(0.2, 0, 0, -0.2, 0, 326)"/>
<path fill="none" stroke-width="7.9701" stroke-linecap="butt" stroke-linejoin="miter" stroke="rgb(0%, 0%, 0%)" stroke-opacity="1" stroke-miterlimit="10" d="M 839.999987 415.195306 L 839.999987 438.593743 " transform="matrix(0.2, 0, 0, -0.2, 0, 326)"/>
<path fill="none" stroke-width="7.9701" stroke-linecap="butt" stroke-linejoin="miter" stroke="rgb(0%, 0%, 0%)" stroke-opacity="1" stroke-miterlimit="10" d="M 839.999987 485.390618 L 839.999987 508.789055 " transform="matrix(0.2, 0, 0, -0.2, 0, 326)"/>
<path fill="none" stroke-width="7.9701" stroke-linecap="butt" stroke-linejoin="miter" stroke="rgb(0%, 0%, 0%)" stroke-opacity="1" stroke-miterlimit="10" d="M 839.999987 508.789055 L 839.999987 532.187492 " transform="matrix(0.2, 0, 0, -0.2, 0, 326)"/>
<path fill="none" stroke-width="7.9701" stroke-linecap="butt" stroke-linejoin="miter" stroke="rgb(0%, 0%, 0%)" stroke-opacity="1" stroke-miterlimit="10" d="M 839.999987 578.984366 L 839.999987 602.382804 " transform="matrix(0.2, 0, 0, -0.2, 0, 326)"/>
<path fill="none" stroke-width="11.9553" stroke-linecap="butt" stroke-linejoin="miter" stroke="rgb(0%, 0%, 0%)" stroke-opacity="1" stroke-miterlimit="10" d="M 929.999986 551.992179 L 1109.999983 551.992179 L 1109.999983 645.585928 Z M 929.999986 551.992179 " transform="matrix(0.2, 0, 0, -0.2, 0, 326)"/>
<path fill="none" stroke-width="7.9701" stroke-linecap="butt" stroke-linejoin="miter" stroke="rgb(0%, 0%, 0%)" stroke-opacity="1" stroke-miterlimit="10" d="M 1019.999985 321.601558 L 1019.999985 344.570307 " transform="matrix(0.2, 0, 0, -0.2, 0, 326)"/>
<path fill="none" stroke-width="7.9701" stroke-linecap="butt" stroke-linejoin="miter" stroke="rgb(0%, 0%, 0%)" stroke-opacity="1" stroke-miterlimit="10" d="M 1019.999985 390.468744 L 1019.999985 413.398431 " transform="matrix(0.2, 0, 0, -0.2, 0, 326)"/>
<path fill="none" stroke-width="7.9701" stroke-linecap="butt" stroke-linejoin="miter" stroke="rgb(0%, 0%, 0%)" stroke-opacity="1" stroke-miterlimit="10" d="M 1019.999985 413.398431 L 1019.999985 436.367181 " transform="matrix(0.2, 0, 0, -0.2, 0, 326)"/>
<path fill="none" stroke-width="7.9701" stroke-linecap="butt" stroke-linejoin="miter" stroke="rgb(0%, 0%, 0%)" stroke-opacity="1" stroke-miterlimit="10" d="M 1019.999985 482.265618 L 1019.999985 505.195305 " transform="matrix(0.2, 0, 0, -0.2, 0, 326)"/>
<path fill="none" stroke-width="7.9701" stroke-linecap="butt" stroke-linejoin="miter" stroke="rgb(0%, 0%, 0%)" stroke-opacity="1" stroke-miterlimit="10" d="M 1019.999985 505.195305 L 1019.999985 528.164055 " transform="matrix(0.2, 0, 0, -0.2, 0, 326)"/>
<path fill="none" stroke-width="7.9701" stroke-linecap="butt" stroke-linejoin="miter" stroke="rgb(0%, 0%, 0%)" stroke-opacity="1" stroke-miterlimit="10" d="M 1019.999985 574.062491 L 1019.999985 596.992179 " transform="matrix(0.2, 0, 0, -0.2, 0, 326)"/>
<path fill="none" stroke-width="7.9701" stroke-linecap="butt" stroke-linejoin="miter" stroke="rgb(0%, 0%, 0%)" stroke-opacity="1" stroke-miterlimit="10" d="M 1019.999985 596.992179 L 1019.999985 619.960928 " transform="matrix(0.2, 0, 0, -0.2, 0, 326)"/>
<path fill="none" stroke-width="7.9701" stroke-linecap="butt" stroke-linejoin="miter" stroke="rgb(0%, 0%, 0%)" stroke-opacity="1" stroke-miterlimit="10" d="M 1019.999985 665.859365 L 1019.999985 688.789052 " transform="matrix(0.2, 0, 0, -0.2, 0, 326)"/>
<path fill="none" stroke-width="11.9553" stroke-linecap="butt" stroke-linejoin="miter" stroke="rgb(0%, 0%, 0%)" stroke-opacity="1" stroke-miterlimit="10" d="M 1109.999983 645.585928 L 1290.039043 645.585928 L 1290.039043 753.593739 Z M 1109.999983 645.585928 " transform="matrix(0.2, 0, 0, -0.2, 0, 326)"/>
<path fill="none" stroke-width="7.9701" stroke-linecap="butt" stroke-linejoin="miter" stroke="rgb(0%, 0%, 0%)" stroke-opacity="1" stroke-miterlimit="10" d="M 1200.039045 321.601558 L 1200.039045 350.85937 " transform="matrix(0.2, 0, 0, -0.2, 0, 326)"/>
<path fill="none" stroke-width="7.9701" stroke-linecap="butt" stroke-linejoin="miter" stroke="rgb(0%, 0%, 0%)" stroke-opacity="1" stroke-miterlimit="10" d="M 1200.039045 409.335931 L 1200.039045 438.593743 " transform="matrix(0.2, 0, 0, -0.2, 0, 326)"/>
<path fill="none" stroke-width="7.9701" stroke-linecap="butt" stroke-linejoin="miter" stroke="rgb(0%, 0%, 0%)" stroke-opacity="1" stroke-miterlimit="10" d="M 1200.039045 438.593743 L 1200.039045 467.851556 " transform="matrix(0.2, 0, 0, -0.2, 0, 326)"/>
<path fill="none" stroke-width="7.9701" stroke-linecap="butt" stroke-linejoin="miter" stroke="rgb(0%, 0%, 0%)" stroke-opacity="1" stroke-miterlimit="10" d="M 1200.039045 526.36718 L 1200.039045 555.585929 " transform="matrix(0.2, 0, 0, -0.2, 0, 326)"/>
<path fill="none" stroke-width="7.9701" stroke-linecap="butt" stroke-linejoin="miter" stroke="rgb(0%, 0%, 0%)" stroke-opacity="1" stroke-miterlimit="10" d="M 1200.039045 555.585929 L 1200.039045 584.843741 " transform="matrix(0.2, 0, 0, -0.2, 0, 326)"/>
<path fill="none" stroke-width="7.9701" stroke-linecap="butt" stroke-linejoin="miter" stroke="rgb(0%, 0%, 0%)" stroke-opacity="1" stroke-miterlimit="10" d="M 1200.039045 643.359365 L 1200.039045 672.617177 " transform="matrix(0.2, 0, 0, -0.2, 0, 326)"/>
<path fill="none" stroke-width="7.9701" stroke-linecap="butt" stroke-linejoin="miter" stroke="rgb(0%, 0%, 0%)" stroke-opacity="1" stroke-miterlimit="10" d="M 1200.039045 672.617177 L 1200.039045 701.835927 " transform="matrix(0.2, 0, 0, -0.2, 0, 326)"/>
<path fill="none" stroke-width="7.9701" stroke-linecap="butt" stroke-linejoin="miter" stroke="rgb(0%, 0%, 0%)" stroke-opacity="1" stroke-miterlimit="10" d="M 1200.039045 760.351551 L 1200.039045 789.609363 " transform="matrix(0.2, 0, 0, -0.2, 0, 326)"/>
<path fill="none" stroke-width="11.9553" stroke-linecap="butt" stroke-linejoin="miter" stroke="rgb(0%, 0%, 0%)" stroke-opacity="1" stroke-miterlimit="10" d="M 1290.039043 753.593739 L 1470.039041 753.593739 L 1470.039041 876.015612 Z M 1290.039043 753.593739 " transform="matrix(0.2, 0, 0, -0.2, 0, 326)"/>
<path fill="none" stroke-width="7.9701" stroke-linecap="butt" stroke-linejoin="miter" stroke="rgb(0%, 0%, 0%)" stroke-opacity="1" stroke-miterlimit="10" d="M 1380.039042 321.601558 L 1380.039042 350.742182 " transform="matrix(0.2, 0, 0, -0.2, 0, 326)"/>
<path fill="none" stroke-width="7.9701" stroke-linecap="butt" stroke-linejoin="miter" stroke="rgb(0%, 0%, 0%)" stroke-opacity="1" stroke-miterlimit="10" d="M 1380.039042 409.101556 L 1380.039042 438.242181 " transform="matrix(0.2, 0, 0, -0.2, 0, 326)"/>
<path fill="none" stroke-width="7.9701" stroke-linecap="butt" stroke-linejoin="miter" stroke="rgb(0%, 0%, 0%)" stroke-opacity="1" stroke-miterlimit="10" d="M 1380.039042 438.242181 L 1380.039042 467.382806 " transform="matrix(0.2, 0, 0, -0.2, 0, 326)"/>
<path fill="none" stroke-width="7.9701" stroke-linecap="butt" stroke-linejoin="miter" stroke="rgb(0%, 0%, 0%)" stroke-opacity="1" stroke-miterlimit="10" d="M 1380.039042 525.703117 L 1380.039042 554.882804 " transform="matrix(0.2, 0, 0, -0.2, 0, 326)"/>
<path fill="none" stroke-width="7.9701" stroke-linecap="butt" stroke-linejoin="miter" stroke="rgb(0%, 0%, 0%)" stroke-opacity="1" stroke-miterlimit="10" d="M 1380.039042 554.882804 L 1380.039042 584.062491 " transform="matrix(0.2, 0, 0, -0.2, 0, 326)"/>
<path fill="none" stroke-width="7.9701" stroke-linecap="butt" stroke-linejoin="miter" stroke="rgb(0%, 0%, 0%)" stroke-opacity="1" stroke-miterlimit="10" d="M 1380.039042 642.34374 L 1380.039042 671.523427 " transform="matrix(0.2, 0, 0, -0.2, 0, 326)"/>
<path fill="none" stroke-width="7.9701" stroke-linecap="butt" stroke-linejoin="miter" stroke="rgb(0%, 0%, 0%)" stroke-opacity="1" stroke-miterlimit="10" d="M 1380.039042 671.523427 L 1380.039042 700.703115 " transform="matrix(0.2, 0, 0, -0.2, 0, 326)"/>
<path fill="none" stroke-width="7.9701" stroke-linecap="butt" stroke-linejoin="miter" stroke="rgb(0%, 0%, 0%)" stroke-opacity="1" stroke-miterlimit="10" d="M 1380.039042 759.023426 L 1380.039042 788.164051 " transform="matrix(0.2, 0, 0, -0.2, 0, 326)"/>
<path fill="none" stroke-width="7.9701" stroke-linecap="butt" stroke-linejoin="miter" stroke="rgb(0%, 0%, 0%)" stroke-opacity="1" stroke-miterlimit="10" d="M 1380.039042 788.164051 L 1380.039042 817.343738 " transform="matrix(0.2, 0, 0, -0.2, 0, 326)"/>
<path fill="none" stroke-width="7.9701" stroke-linecap="butt" stroke-linejoin="miter" stroke="rgb(0%, 0%, 0%)" stroke-opacity="1" stroke-miterlimit="10" d="M 1380.039042 875.664049 L 1380.039042 904.804674 " transform="matrix(0.2, 0, 0, -0.2, 0, 326)"/>
<path fill="none" stroke-width="11.9553" stroke-linecap="butt" stroke-linejoin="miter" stroke="rgb(0%, 0%, 0%)" stroke-opacity="1" stroke-miterlimit="10" d="M 1470.039041 876.015612 L 1650.039038 876.015612 L 1650.039038 1012.812485 Z M 1470.039041 876.015612 " transform="matrix(0.2, 0, 0, -0.2, 0, 326)"/>
<path fill="none" stroke-width="7.9701" stroke-linecap="butt" stroke-linejoin="miter" stroke="rgb(0%, 0%, 0%)" stroke-opacity="1" stroke-miterlimit="10" d="M 1560.039039 321.601558 L 1560.039039 351.289057 " transform="matrix(0.2, 0, 0, -0.2, 0, 326)"/>
<path fill="none" stroke-width="7.9701" stroke-linecap="butt" stroke-linejoin="miter" stroke="rgb(0%, 0%, 0%)" stroke-opacity="1" stroke-miterlimit="10" d="M 1560.039039 410.703119 L 1560.039039 440.390618 " transform="matrix(0.2, 0, 0, -0.2, 0, 326)"/>
<path fill="none" stroke-width="7.9701" stroke-linecap="butt" stroke-linejoin="miter" stroke="rgb(0%, 0%, 0%)" stroke-opacity="1" stroke-miterlimit="10" d="M 1560.039039 440.390618 L 1560.039039 470.11718 " transform="matrix(0.2, 0, 0, -0.2, 0, 326)"/>
<path fill="none" stroke-width="7.9701" stroke-linecap="butt" stroke-linejoin="miter" stroke="rgb(0%, 0%, 0%)" stroke-opacity="1" stroke-miterlimit="10" d="M 1560.039039 529.49218 L 1560.039039 559.218742 " transform="matrix(0.2, 0, 0, -0.2, 0, 326)"/>
<path fill="none" stroke-width="7.9701" stroke-linecap="butt" stroke-linejoin="miter" stroke="rgb(0%, 0%, 0%)" stroke-opacity="1" stroke-miterlimit="10" d="M 1560.039039 559.218742 L 1560.039039 588.906241 " transform="matrix(0.2, 0, 0, -0.2, 0, 326)"/>
<path fill="none" stroke-width="7.9701" stroke-linecap="butt" stroke-linejoin="miter" stroke="rgb(0%, 0%, 0%)" stroke-opacity="1" stroke-miterlimit="10" d="M 1560.039039 648.320303 L 1560.039039 678.007802 " transform="matrix(0.2, 0, 0, -0.2, 0, 326)"/>
<path fill="none" stroke-width="7.9701" stroke-linecap="butt" stroke-linejoin="miter" stroke="rgb(0%, 0%, 0%)" stroke-opacity="1" stroke-miterlimit="10" d="M 1560.039039 678.007802 L 1560.039039 707.695302 " transform="matrix(0.2, 0, 0, -0.2, 0, 326)"/>
<path fill="none" stroke-width="7.9701" stroke-linecap="butt" stroke-linejoin="miter" stroke="rgb(0%, 0%, 0%)" stroke-opacity="1" stroke-miterlimit="10" d="M 1560.039039 767.109364 L 1560.039039 796.796863 " transform="matrix(0.2, 0, 0, -0.2, 0, 326)"/>
<path fill="none" stroke-width="7.9701" stroke-linecap="butt" stroke-linejoin="miter" stroke="rgb(0%, 0%, 0%)" stroke-opacity="1" stroke-miterlimit="10" d="M 1560.039039 796.796863 L 1560.039039 826.523425 " transform="matrix(0.2, 0, 0, -0.2, 0, 326)"/>
<path fill="none" stroke-width="7.9701" stroke-linecap="butt" stroke-linejoin="miter" stroke="rgb(0%, 0%, 0%)" stroke-opacity="1" stroke-miterlimit="10" d="M 1560.039039 885.898424 L 1560.039039 915.585924 " transform="matrix(0.2, 0, 0, -0.2, 0, 326)"/>
<path fill="none" stroke-width="7.9701" stroke-linecap="butt" stroke-linejoin="miter" stroke="rgb(0%, 0%, 0%)" stroke-opacity="1" stroke-miterlimit="10" d="M 1560.039039 915.585924 L 1560.039039 945.312486 " transform="matrix(0.2, 0, 0, -0.2, 0, 326)"/>
<path fill="none" stroke-width="7.9701" stroke-linecap="butt" stroke-linejoin="miter" stroke="rgb(0%, 0%, 0%)" stroke-opacity="1" stroke-miterlimit="10" d="M 1560.039039 1004.726548 L 1560.039039 1034.414047 " transform="matrix(0.2, 0, 0, -0.2, 0, 326)"/>
<path fill="none" stroke-width="11.9553" stroke-linecap="butt" stroke-linejoin="miter" stroke="rgb(0%, 0%, 0%)" stroke-opacity="1" stroke-miterlimit="10" d="M 1650.039038 1012.812485 L 1830.039035 1012.812485 L 1830.039035 1164.02342 Z M 1650.039038 1012.812485 " transform="matrix(0.2, 0, 0, -0.2, 0, 326)"/>
<path fill="none" stroke-width="7.9701" stroke-linecap="butt" stroke-linejoin="miter" stroke="rgb(0%, 0%, 0%)" stroke-opacity="1" stroke-miterlimit="10" d="M 1740.039037 321.601558 L 1740.039037 348.35937 " transform="matrix(0.2, 0, 0, -0.2, 0, 326)"/>
<path fill="none" stroke-width="7.9701" stroke-linecap="butt" stroke-linejoin="miter" stroke="rgb(0%, 0%, 0%)" stroke-opacity="1" stroke-miterlimit="10" d="M 1740.039037 401.914057 L 1740.039037 428.710931 " transform="matrix(0.2, 0, 0, -0.2, 0, 326)"/>
<path fill="none" stroke-width="7.9701" stroke-linecap="butt" stroke-linejoin="miter" stroke="rgb(0%, 0%, 0%)" stroke-opacity="1" stroke-miterlimit="10" d="M 1740.039037 428.710931 L 1740.039037 455.468743 " transform="matrix(0.2, 0, 0, -0.2, 0, 326)"/>
<path fill="none" stroke-width="7.9701" stroke-linecap="butt" stroke-linejoin="miter" stroke="rgb(0%, 0%, 0%)" stroke-opacity="1" stroke-miterlimit="10" d="M 1740.039037 509.02343 L 1740.039037 535.820305 " transform="matrix(0.2, 0, 0, -0.2, 0, 326)"/>
<path fill="none" stroke-width="7.9701" stroke-linecap="butt" stroke-linejoin="miter" stroke="rgb(0%, 0%, 0%)" stroke-opacity="1" stroke-miterlimit="10" d="M 1740.039037 535.820305 L 1740.039037 562.578117 " transform="matrix(0.2, 0, 0, -0.2, 0, 326)"/>
<path fill="none" stroke-width="7.9701" stroke-linecap="butt" stroke-linejoin="miter" stroke="rgb(0%, 0%, 0%)" stroke-opacity="1" stroke-miterlimit="10" d="M 1740.039037 616.132803 L 1740.039037 642.890615 " transform="matrix(0.2, 0, 0, -0.2, 0, 326)"/>
<path fill="none" stroke-width="7.9701" stroke-linecap="butt" stroke-linejoin="miter" stroke="rgb(0%, 0%, 0%)" stroke-opacity="1" stroke-miterlimit="10" d="M 1740.039037 642.890615 L 1740.039037 669.68749 " transform="matrix(0.2, 0, 0, -0.2, 0, 326)"/>
<path fill="none" stroke-width="7.9701" stroke-linecap="butt" stroke-linejoin="miter" stroke="rgb(0%, 0%, 0%)" stroke-opacity="1" stroke-miterlimit="10" d="M 1740.039037 723.242177 L 1740.039037 749.999989 " transform="matrix(0.2, 0, 0, -0.2, 0, 326)"/>
<path fill="none" stroke-width="7.9701" stroke-linecap="butt" stroke-linejoin="miter" stroke="rgb(0%, 0%, 0%)" stroke-opacity="1" stroke-miterlimit="10" d="M 1740.039037 749.999989 L 1740.039037 776.796863 " transform="matrix(0.2, 0, 0, -0.2, 0, 326)"/>
<path fill="none" stroke-width="7.9701" stroke-linecap="butt" stroke-linejoin="miter" stroke="rgb(0%, 0%, 0%)" stroke-opacity="1" stroke-miterlimit="10" d="M 1740.039037 830.312488 L 1740.039037 857.109362 " transform="matrix(0.2, 0, 0, -0.2, 0, 326)"/>
<path fill="none" stroke-width="7.9701" stroke-linecap="butt" stroke-linejoin="miter" stroke="rgb(0%, 0%, 0%)" stroke-opacity="1" stroke-miterlimit="10" d="M 1740.039037 857.109362 L 1740.039037 883.867174 " transform="matrix(0.2, 0, 0, -0.2, 0, 326)"/>
<path fill="none" stroke-width="7.9701" stroke-linecap="butt" stroke-linejoin="miter" stroke="rgb(0%, 0%, 0%)" stroke-opacity="1" stroke-miterlimit="10" d="M 1740.039037 937.421861 L 1740.039037 964.218736 " transform="matrix(0.2, 0, 0, -0.2, 0, 326)"/>
<path fill="none" stroke-width="7.9701" stroke-linecap="butt" stroke-linejoin="miter" stroke="rgb(0%, 0%, 0%)" stroke-opacity="1" stroke-miterlimit="10" d="M 1740.039037 964.218736 L 1740.039037 990.976548 " transform="matrix(0.2, 0, 0, -0.2, 0, 326)"/>
<path fill="none" stroke-width="7.9701" stroke-linecap="butt" stroke-linejoin="miter" stroke="rgb(0%, 0%, 0%)" stroke-opacity="1" stroke-miterlimit="10" d="M 1740.039037 1044.531234 L 1740.039037 1071.289047 " transform="matrix(0.2, 0, 0, -0.2, 0, 326)"/>
<path fill="none" stroke-width="7.9701" stroke-linecap="butt" stroke-linejoin="miter" stroke="rgb(0%, 0%, 0%)" stroke-opacity="1" stroke-miterlimit="10" d="M 1740.039037 1071.289047 L 1740.039037 1098.085921 " transform="matrix(0.2, 0, 0, -0.2, 0, 326)"/>
<path fill="none" stroke-width="7.9701" stroke-linecap="butt" stroke-linejoin="miter" stroke="rgb(0%, 0%, 0%)" stroke-opacity="1" stroke-miterlimit="10" d="M 1740.039037 1151.640608 L 1740.039037 1178.39842 " transform="matrix(0.2, 0, 0, -0.2, 0, 326)"/>
<path fill="none" stroke-width="11.9553" stroke-linecap="butt" stroke-linejoin="miter" stroke="rgb(0%, 0%, 0%)" stroke-opacity="1" stroke-miterlimit="10" d="M 1830.039035 1164.02342 L 2010.039033 1164.02342 L 2010.039033 1329.609355 Z M 1830.039035 1164.02342 " transform="matrix(0.2, 0, 0, -0.2, 0, 326)"/>
<path fill="none" stroke-width="7.9701" stroke-linecap="butt" stroke-linejoin="miter" stroke="rgb(0%, 0%, 0%)" stroke-opacity="1" stroke-miterlimit="10" d="M 1920.039034 321.601558 L 1920.039034 349.804682 " transform="matrix(0.2, 0, 0, -0.2, 0, 326)"/>
<path fill="none" stroke-width="7.9701" stroke-linecap="butt" stroke-linejoin="miter" stroke="rgb(0%, 0%, 0%)" stroke-opacity="1" stroke-miterlimit="10" d="M 1920.039034 406.210931 L 1920.039034 434.414056 " transform="matrix(0.2, 0, 0, -0.2, 0, 326)"/>
<path fill="none" stroke-width="7.9701" stroke-linecap="butt" stroke-linejoin="miter" stroke="rgb(0%, 0%, 0%)" stroke-opacity="1" stroke-miterlimit="10" d="M 1920.039034 434.414056 L 1920.039034 462.617181 " transform="matrix(0.2, 0, 0, -0.2, 0, 326)"/>
<path fill="none" stroke-width="7.9701" stroke-linecap="butt" stroke-linejoin="miter" stroke="rgb(0%, 0%, 0%)" stroke-opacity="1" stroke-miterlimit="10" d="M 1920.039034 519.02343 L 1920.039034 547.187492 " transform="matrix(0.2, 0, 0, -0.2, 0, 326)"/>
<path fill="none" stroke-width="7.9701" stroke-linecap="butt" stroke-linejoin="miter" stroke="rgb(0%, 0%, 0%)" stroke-opacity="1" stroke-miterlimit="10" d="M 1920.039034 547.187492 L 1920.039034 575.390616 " transform="matrix(0.2, 0, 0, -0.2, 0, 326)"/>
<path fill="none" stroke-width="7.9701" stroke-linecap="butt" stroke-linejoin="miter" stroke="rgb(0%, 0%, 0%)" stroke-opacity="1" stroke-miterlimit="10" d="M 1920.039034 631.796866 L 1920.039034 659.99999 " transform="matrix(0.2, 0, 0, -0.2, 0, 326)"/>
<path fill="none" stroke-width="7.9701" stroke-linecap="butt" stroke-linejoin="miter" stroke="rgb(0%, 0%, 0%)" stroke-opacity="1" stroke-miterlimit="10" d="M 1920.039034 659.99999 L 1920.039034 688.203115 " transform="matrix(0.2, 0, 0, -0.2, 0, 326)"/>
<path fill="none" stroke-width="7.9701" stroke-linecap="butt" stroke-linejoin="miter" stroke="rgb(0%, 0%, 0%)" stroke-opacity="1" stroke-miterlimit="10" d="M 1920.039034 744.609364 L 1920.039034 772.812488 " transform="matrix(0.2, 0, 0, -0.2, 0, 326)"/>
<path fill="none" stroke-width="7.9701" stroke-linecap="butt" stroke-linejoin="miter" stroke="rgb(0%, 0%, 0%)" stroke-opacity="1" stroke-miterlimit="10" d="M 1920.039034 772.812488 L 1920.039034 801.015613 " transform="matrix(0.2, 0, 0, -0.2, 0, 326)"/>
<path fill="none" stroke-width="7.9701" stroke-linecap="butt" stroke-linejoin="miter" stroke="rgb(0%, 0%, 0%)" stroke-opacity="1" stroke-miterlimit="10" d="M 1920.039034 857.421862 L 1920.039034 885.624987 " transform="matrix(0.2, 0, 0, -0.2, 0, 326)"/>
<path fill="none" stroke-width="7.9701" stroke-linecap="butt" stroke-linejoin="miter" stroke="rgb(0%, 0%, 0%)" stroke-opacity="1" stroke-miterlimit="10" d="M 1920.039034 885.624987 L 1920.039034 913.789049 " transform="matrix(0.2, 0, 0, -0.2, 0, 326)"/>
<path fill="none" stroke-width="7.9701" stroke-linecap="butt" stroke-linejoin="miter" stroke="rgb(0%, 0%, 0%)" stroke-opacity="1" stroke-miterlimit="10" d="M 1920.039034 970.195298 L 1920.039034 998.398423 " transform="matrix(0.2, 0, 0, -0.2, 0, 326)"/>
<path fill="none" stroke-width="7.9701" stroke-linecap="butt" stroke-linejoin="miter" stroke="rgb(0%, 0%, 0%)" stroke-opacity="1" stroke-miterlimit="10" d="M 1920.039034 998.398423 L 1920.039034 1026.601547 " transform="matrix(0.2, 0, 0, -0.2, 0, 326)"/>
<path fill="none" stroke-width="7.9701" stroke-linecap="butt" stroke-linejoin="miter" stroke="rgb(0%, 0%, 0%)" stroke-opacity="1" stroke-miterlimit="10" d="M 1920.039034 1083.007796 L 1920.039034 1111.210921 " transform="matrix(0.2, 0, 0, -0.2, 0, 326)"/>
<path fill="none" stroke-width="7.9701" stroke-linecap="butt" stroke-linejoin="miter" stroke="rgb(0%, 0%, 0%)" stroke-opacity="1" stroke-miterlimit="10" d="M 1920.039034 1111.210921 L 1920.039034 1139.414046 " transform="matrix(0.2, 0, 0, -0.2, 0, 326)"/>
<path fill="none" stroke-width="7.9701" stroke-linecap="butt" stroke-linejoin="miter" stroke="rgb(0%, 0%, 0%)" stroke-opacity="1" stroke-miterlimit="10" d="M 1920.039034 1195.820295 L 1920.039034 1224.023419 " transform="matrix(0.2, 0, 0, -0.2, 0, 326)"/>
<path fill="none" stroke-width="7.9701" stroke-linecap="butt" stroke-linejoin="miter" stroke="rgb(0%, 0%, 0%)" stroke-opacity="1" stroke-miterlimit="10" d="M 1920.039034 1224.023419 L 1920.039034 1252.226544 " transform="matrix(0.2, 0, 0, -0.2, 0, 326)"/>
<path fill="none" stroke-width="7.9701" stroke-linecap="butt" stroke-linejoin="miter" stroke="rgb(0%, 0%, 0%)" stroke-opacity="1" stroke-miterlimit="10" d="M 1920.039034 1308.593731 L 1920.039034 1336.835918 " transform="matrix(0.2, 0, 0, -0.2, 0, 326)"/>
<path fill="none" stroke-width="11.9553" stroke-linecap="butt" stroke-linejoin="miter" stroke="rgb(0%, 0%, 0%)" stroke-opacity="1" stroke-miterlimit="10" d="M 2010.039033 1329.609355 L 2190.03903 1329.609355 L 2190.03903 1509.609353 Z M 2010.039033 1329.609355 " transform="matrix(0.2, 0, 0, -0.2, 0, 326)"/>
<path fill="none" stroke-width="7.9701" stroke-linecap="butt" stroke-linejoin="miter" stroke="rgb(0%, 0%, 0%)" stroke-opacity="1" stroke-miterlimit="10" d="M 2100.039031 321.601558 L 2100.039031 351.289057 " transform="matrix(0.2, 0, 0, -0.2, 0, 326)"/>
<path fill="none" stroke-width="7.9701" stroke-linecap="butt" stroke-linejoin="miter" stroke="rgb(0%, 0%, 0%)" stroke-opacity="1" stroke-miterlimit="10" d="M 2100.039031 410.703119 L 2100.039031 440.390618 " transform="matrix(0.2, 0, 0, -0.2, 0, 326)"/>
<path fill="none" stroke-width="7.9701" stroke-linecap="butt" stroke-linejoin="miter" stroke="rgb(0%, 0%, 0%)" stroke-opacity="1" stroke-miterlimit="10" d="M 2100.039031 440.390618 L 2100.039031 470.11718 " transform="matrix(0.2, 0, 0, -0.2, 0, 326)"/>
<path fill="none" stroke-width="7.9701" stroke-linecap="butt" stroke-linejoin="miter" stroke="rgb(0%, 0%, 0%)" stroke-opacity="1" stroke-miterlimit="10" d="M 2100.039031 529.49218 L 2100.039031 559.218742 " transform="matrix(0.2, 0, 0, -0.2, 0, 326)"/>
<path fill="none" stroke-width="7.9701" stroke-linecap="butt" stroke-linejoin="miter" stroke="rgb(0%, 0%, 0%)" stroke-opacity="1" stroke-miterlimit="10" d="M 2100.039031 559.218742 L 2100.039031 588.906241 " transform="matrix(0.2, 0, 0, -0.2, 0, 326)"/>
<path fill="none" stroke-width="7.9701" stroke-linecap="butt" stroke-linejoin="miter" stroke="rgb(0%, 0%, 0%)" stroke-opacity="1" stroke-miterlimit="10" d="M 2100.039031 648.320303 L 2100.039031 678.007802 " transform="matrix(0.2, 0, 0, -0.2, 0, 326)"/>
<path fill="none" stroke-width="7.9701" stroke-linecap="butt" stroke-linejoin="miter" stroke="rgb(0%, 0%, 0%)" stroke-opacity="1" stroke-miterlimit="10" d="M 2100.039031 678.007802 L 2100.039031 707.695302 " transform="matrix(0.2, 0, 0, -0.2, 0, 326)"/>
<path fill="none" stroke-width="7.9701" stroke-linecap="butt" stroke-linejoin="miter" stroke="rgb(0%, 0%, 0%)" stroke-opacity="1" stroke-miterlimit="10" d="M 2100.039031 767.109364 L 2100.039031 796.796863 " transform="matrix(0.2, 0, 0, -0.2, 0, 326)"/>
<path fill="none" stroke-width="7.9701" stroke-linecap="butt" stroke-linejoin="miter" stroke="rgb(0%, 0%, 0%)" stroke-opacity="1" stroke-miterlimit="10" d="M 2100.039031 796.796863 L 2100.039031 826.523425 " transform="matrix(0.2, 0, 0, -0.2, 0, 326)"/>
<path fill="none" stroke-width="7.9701" stroke-linecap="butt" stroke-linejoin="miter" stroke="rgb(0%, 0%, 0%)" stroke-opacity="1" stroke-miterlimit="10" d="M 2100.039031 885.898424 L 2100.039031 915.585924 " transform="matrix(0.2, 0, 0, -0.2, 0, 326)"/>
<path fill="none" stroke-width="7.9701" stroke-linecap="butt" stroke-linejoin="miter" stroke="rgb(0%, 0%, 0%)" stroke-opacity="1" stroke-miterlimit="10" d="M 2100.039031 915.585924 L 2100.039031 945.312486 " transform="matrix(0.2, 0, 0, -0.2, 0, 326)"/>
<path fill="none" stroke-width="7.9701" stroke-linecap="butt" stroke-linejoin="miter" stroke="rgb(0%, 0%, 0%)" stroke-opacity="1" stroke-miterlimit="10" d="M 2100.039031 1004.726548 L 2100.039031 1034.414047 " transform="matrix(0.2, 0, 0, -0.2, 0, 326)"/>
<path fill="none" stroke-width="7.9701" stroke-linecap="butt" stroke-linejoin="miter" stroke="rgb(0%, 0%, 0%)" stroke-opacity="1" stroke-miterlimit="10" d="M 2100.039031 1034.414047 L 2100.039031 1064.101547 " transform="matrix(0.2, 0, 0, -0.2, 0, 326)"/>
<path fill="none" stroke-width="7.9701" stroke-linecap="butt" stroke-linejoin="miter" stroke="rgb(0%, 0%, 0%)" stroke-opacity="1" stroke-miterlimit="10" d="M 2100.039031 1123.515608 L 2100.039031 1153.203108 " transform="matrix(0.2, 0, 0, -0.2, 0, 326)"/>
<path fill="none" stroke-width="7.9701" stroke-linecap="butt" stroke-linejoin="miter" stroke="rgb(0%, 0%, 0%)" stroke-opacity="1" stroke-miterlimit="10" d="M 2100.039031 1153.203108 L 2100.039031 1182.890607 " transform="matrix(0.2, 0, 0, -0.2, 0, 326)"/>
<path fill="none" stroke-width="7.9701" stroke-linecap="butt" stroke-linejoin="miter" stroke="rgb(0%, 0%, 0%)" stroke-opacity="1" stroke-miterlimit="10" d="M 2100.039031 1242.304669 L 2100.039031 1272.031231 " transform="matrix(0.2, 0, 0, -0.2, 0, 326)"/>
<path fill="none" stroke-width="7.9701" stroke-linecap="butt" stroke-linejoin="miter" stroke="rgb(0%, 0%, 0%)" stroke-opacity="1" stroke-miterlimit="10" d="M 2100.039031 1272.031231 L 2100.039031 1301.718731 " transform="matrix(0.2, 0, 0, -0.2, 0, 326)"/>
<path fill="none" stroke-width="7.9701" stroke-linecap="butt" stroke-linejoin="miter" stroke="rgb(0%, 0%, 0%)" stroke-opacity="1" stroke-miterlimit="10" d="M 2100.039031 1361.132792 L 2100.039031 1390.820292 " transform="matrix(0.2, 0, 0, -0.2, 0, 326)"/>
<path fill="none" stroke-width="7.9701" stroke-linecap="butt" stroke-linejoin="miter" stroke="rgb(0%, 0%, 0%)" stroke-opacity="1" stroke-miterlimit="10" d="M 2100.039031 1390.820292 L 2100.039031 1420.507791 " transform="matrix(0.2, 0, 0, -0.2, 0, 326)"/>
<path fill="none" stroke-width="7.9701" stroke-linecap="butt" stroke-linejoin="miter" stroke="rgb(0%, 0%, 0%)" stroke-opacity="1" stroke-miterlimit="10" d="M 2100.039031 1479.921853 L 2100.039031 1509.609353 " transform="matrix(0.2, 0, 0, -0.2, 0, 326)"/>
<path fill-rule="nonzero" fill="rgb(0%, 0%, 0%)" fill-opacity="1" d="M 96.886719 269.839844 C 96.886719 269.339844 96.886719 269.277344 96.386719 269.277344 C 95.042969 270.683594 93.105469 270.683594 92.417969 270.683594 L 92.417969 271.339844 C 92.855469 271.339844 94.136719 271.339844 95.292969 270.777344 L 95.292969 282.089844 C 95.292969 282.871094 95.199219 283.121094 93.261719 283.121094 L 92.542969 283.121094 L 92.542969 283.808594 C 93.324219 283.746094 95.199219 283.746094 96.074219 283.746094 C 96.949219 283.746094 98.855469 283.746094 99.605469 283.808594 L 99.605469 283.121094 L 98.917969 283.121094 C 96.949219 283.121094 96.886719 282.902344 96.886719 282.089844 Z M 96.886719 269.839844 "/>
<path fill-rule="nonzero" fill="rgb(0%, 0%, 0%)" fill-opacity="1" d="M 165.261719 282.121094 L 167.574219 279.871094 C 170.980469 276.871094 172.261719 275.683594 172.261719 273.527344 C 172.261719 271.027344 170.324219 269.277344 167.636719 269.277344 C 165.199219 269.277344 163.574219 271.277344 163.574219 273.214844 C 163.574219 274.464844 164.667969 274.464844 164.730469 274.464844 C 165.105469 274.464844 165.855469 274.183594 165.855469 273.308594 C 165.855469 272.714844 165.480469 272.152344 164.699219 272.152344 C 164.542969 272.152344 164.480469 272.152344 164.417969 272.183594 C 164.917969 270.777344 166.105469 269.964844 167.355469 269.964844 C 169.355469 269.964844 170.292969 271.714844 170.292969 273.527344 C 170.292969 275.246094 169.199219 276.996094 168.011719 278.339844 L 163.824219 282.996094 C 163.574219 283.246094 163.574219 283.277344 163.574219 283.808594 L 171.667969 283.808594 L 172.261719 280.027344 L 171.730469 280.027344 C 171.605469 280.652344 171.480469 281.621094 171.261719 281.964844 C 171.105469 282.121094 169.667969 282.121094 169.167969 282.121094 Z M 165.261719 282.121094 "/>
<path fill-rule="nonzero" fill="rgb(0%, 0%, 0%)" fill-opacity="1" d="M 240.796875 276.121094 C 242.609375 275.527344 243.859375 274.027344 243.859375 272.277344 C 243.859375 270.496094 241.953125 269.277344 239.859375 269.277344 C 237.640625 269.277344 235.984375 270.589844 235.984375 272.246094 C 235.984375 272.964844 236.484375 273.371094 237.109375 273.371094 C 237.765625 273.371094 238.203125 272.902344 238.203125 272.277344 C 238.203125 271.183594 237.203125 271.183594 236.859375 271.183594 C 237.546875 270.121094 238.984375 269.839844 239.765625 269.839844 C 240.671875 269.839844 241.859375 270.308594 241.859375 272.277344 C 241.859375 272.527344 241.828125 273.808594 241.234375 274.746094 C 240.578125 275.808594 239.859375 275.871094 239.296875 275.902344 C 239.140625 275.902344 238.609375 275.964844 238.453125 275.964844 C 238.265625 275.964844 238.140625 275.996094 238.140625 276.214844 C 238.140625 276.464844 238.265625 276.464844 238.640625 276.464844 L 239.609375 276.464844 C 241.390625 276.464844 242.203125 277.933594 242.203125 280.089844 C 242.203125 283.058594 240.703125 283.683594 239.734375 283.683594 C 238.796875 283.683594 237.171875 283.308594 236.390625 282.027344 C 237.171875 282.121094 237.828125 281.652344 237.828125 280.808594 C 237.828125 280.027344 237.265625 279.589844 236.609375 279.589844 C 236.109375 279.589844 235.390625 279.902344 235.390625 280.871094 C 235.390625 282.839844 237.421875 284.277344 239.796875 284.277344 C 242.453125 284.277344 244.453125 282.308594 244.453125 280.089844 C 244.453125 278.277344 243.078125 276.589844 240.796875 276.121094 Z M 240.796875 276.121094 "/>
<path fill-rule="nonzero" fill="rgb(0%, 0%, 0%)" fill-opacity="1" d="M 312.890625 280.214844 L 312.890625 282.121094 C 312.890625 282.902344 312.859375 283.121094 311.234375 283.121094 L 310.796875 283.121094 L 310.796875 283.808594 C 311.671875 283.746094 312.796875 283.746094 313.734375 283.746094 C 314.640625 283.746094 315.796875 283.746094 316.703125 283.808594 L 316.703125 283.121094 L 316.234375 283.121094 C 314.609375 283.121094 314.578125 282.902344 314.578125 282.121094 L 314.578125 280.214844 L 316.765625 280.214844 L 316.765625 279.527344 L 314.578125 279.527344 L 314.578125 269.621094 C 314.578125 269.183594 314.578125 269.027344 314.234375 269.027344 C 314.046875 269.027344 313.953125 269.027344 313.796875 269.308594 L 307.109375 279.527344 L 307.109375 280.214844 Z M 313.015625 279.527344 L 307.703125 279.527344 L 313.015625 271.402344 Z M 313.015625 279.527344 "/>
<path fill-rule="nonzero" fill="rgb(0%, 0%, 0%)" fill-opacity="1" d="M 388.265625 279.433594 C 388.265625 276.839844 386.484375 274.652344 384.140625 274.652344 C 383.078125 274.652344 382.140625 274.996094 381.359375 275.746094 L 381.359375 271.496094 C 381.796875 271.652344 382.515625 271.777344 383.203125 271.777344 C 385.890625 271.777344 387.421875 269.808594 387.421875 269.527344 C 387.421875 269.402344 387.359375 269.277344 387.203125 269.277344 C 387.203125 269.277344 387.140625 269.277344 387.046875 269.339844 C 386.609375 269.558594 385.515625 269.964844 384.078125 269.964844 C 383.203125 269.964844 382.203125 269.839844 381.171875 269.371094 C 380.984375 269.308594 380.953125 269.308594 380.890625 269.308594 C 380.671875 269.308594 380.671875 269.464844 380.671875 269.839844 L 380.671875 276.277344 C 380.671875 276.683594 380.671875 276.839844 380.984375 276.839844 C 381.140625 276.839844 381.203125 276.777344 381.265625 276.652344 C 381.515625 276.308594 382.328125 275.121094 384.078125 275.121094 C 385.234375 275.121094 385.765625 276.121094 385.953125 276.527344 C 386.296875 277.339844 386.328125 278.183594 386.328125 279.277344 C 386.328125 280.027344 386.328125 281.339844 385.828125 282.246094 C 385.296875 283.121094 384.484375 283.683594 383.484375 283.683594 C 381.890625 283.683594 380.640625 282.527344 380.265625 281.246094 C 380.328125 281.246094 380.390625 281.277344 380.640625 281.277344 C 381.359375 281.277344 381.734375 280.746094 381.734375 280.214844 C 381.734375 279.683594 381.359375 279.152344 380.640625 279.152344 C 380.328125 279.152344 379.578125 279.308594 379.578125 280.308594 C 379.578125 282.183594 381.078125 284.277344 383.515625 284.277344 C 386.046875 284.277344 388.265625 282.183594 388.265625 279.433594 Z M 388.265625 279.433594 "/>
<path fill-rule="nonzero" fill="rgb(0%, 0%, 0%)" fill-opacity="1" d="M 436.199219 9.199219 L 439.917969 9.199219 C 443.011719 9.199219 446.042969 6.949219 446.042969 4.511719 C 446.042969 2.824219 444.605469 1.199219 441.761719 1.199219 L 434.699219 1.199219 C 434.261719 1.199219 434.042969 1.199219 434.042969 1.636719 C 434.042969 1.886719 434.230469 1.886719 434.667969 1.886719 C 434.949219 1.886719 435.355469 1.917969 435.605469 1.917969 C 435.949219 1.980469 436.074219 2.042969 436.074219 2.261719 C 436.074219 2.355469 436.074219 2.417969 436.011719 2.699219 L 433.074219 14.417969 C 432.855469 15.261719 432.824219 15.417969 431.074219 15.417969 C 430.730469 15.417969 430.480469 15.417969 430.480469 15.855469 C 430.480469 16.105469 430.730469 16.105469 430.792969 16.105469 C 431.417969 16.105469 432.949219 16.042969 433.574219 16.042969 C 434.042969 16.042969 434.511719 16.074219 434.980469 16.074219 C 435.449219 16.074219 435.917969 16.105469 436.386719 16.105469 C 436.542969 16.105469 436.824219 16.105469 436.824219 15.667969 C 436.824219 15.417969 436.636719 15.417969 436.199219 15.417969 C 435.417969 15.417969 434.792969 15.417969 434.792969 15.042969 C 434.792969 14.917969 434.855469 14.792969 434.855469 14.667969 Z M 437.792969 2.699219 C 437.980469 1.949219 438.011719 1.886719 438.949219 1.886719 L 441.042969 1.886719 C 442.855469 1.886719 444.011719 2.480469 444.011719 3.980469 C 444.011719 4.824219 443.574219 6.699219 442.730469 7.480469 C 441.636719 8.480469 440.324219 8.636719 439.386719 8.636719 L 436.292969 8.636719 Z M 437.792969 2.699219 "/>
<path fill-rule="nonzero" fill="rgb(100%, 100%, 100%)" fill-opacity="1" d="M -5.304688 261.703125 L 23.976562 261.703125 L 23.976562 288.585938 L -5.304688 288.585938 Z M -5.304688 261.703125 "/>
<path fill-rule="nonzero" fill="rgb(0%, 0%, 0%)" fill-opacity="1" d="M 16.875 273.058594 C 16.875 269.527344 14.5625 267.183594 11.3125 267.183594 C 6.59375 267.183594 1.78125 272.121094 1.78125 277.214844 C 1.78125 280.839844 4.21875 283.027344 7.375 283.027344 C 12 283.027344 16.875 278.246094 16.875 273.058594 Z M 7.5 282.464844 C 5.34375 282.464844 3.8125 280.714844 3.8125 277.839844 C 3.8125 276.871094 4.125 273.683594 5.8125 271.121094 C 7.3125 268.871094 9.4375 267.714844 11.15625 267.714844 C 12.96875 267.714844 14.90625 268.933594 14.90625 272.183594 C 14.90625 273.777344 14.34375 277.183594 12.15625 279.839844 C 11.125 281.183594 9.34375 282.464844 7.5 282.464844 Z M 7.5 282.464844 "/>
<path fill-rule="nonzero" fill="rgb(100%, 100%, 100%)" fill-opacity="1" d="M 436.15625 261.703125 L 468.078125 261.703125 L 468.078125 288.585938 L 436.15625 288.585938 Z M 436.15625 261.703125 "/>
<path fill-rule="nonzero" fill="rgb(0%, 0%, 0%)" fill-opacity="1" d="M 452.777344 273.589844 L 450.933594 269.246094 C 450.871094 269.089844 450.808594 268.996094 450.808594 268.964844 C 450.808594 268.839844 451.183594 268.433594 452.121094 268.339844 C 452.339844 268.308594 452.558594 268.308594 452.558594 267.933594 C 452.558594 267.652344 452.277344 267.652344 452.214844 267.652344 C 451.308594 267.652344 450.371094 267.714844 449.464844 267.714844 C 448.933594 267.714844 447.558594 267.652344 447.027344 267.652344 C 446.902344 267.652344 446.621094 267.652344 446.621094 268.089844 C 446.621094 268.339844 446.839844 268.339844 447.121094 268.339844 C 448.433594 268.339844 448.589844 268.558594 448.777344 269.027344 L 451.339844 275.121094 L 446.746094 280.058594 L 446.464844 280.308594 C 445.402344 281.464844 444.371094 281.808594 443.246094 281.871094 C 442.964844 281.902344 442.777344 281.902344 442.777344 282.308594 C 442.777344 282.339844 442.777344 282.558594 443.058594 282.558594 C 443.714844 282.558594 444.433594 282.496094 445.121094 282.496094 C 445.902344 282.496094 446.777344 282.558594 447.558594 282.558594 C 447.683594 282.558594 447.933594 282.558594 447.933594 282.121094 C 447.933594 281.902344 447.714844 281.871094 447.683594 281.871094 C 447.496094 281.871094 446.808594 281.808594 446.808594 281.214844 C 446.808594 280.871094 447.121094 280.496094 447.402344 280.214844 L 449.621094 277.871094 L 451.589844 275.746094 L 453.777344 280.933594 C 453.871094 281.183594 453.902344 281.214844 453.902344 281.246094 C 453.902344 281.433594 453.496094 281.808594 452.621094 281.871094 C 452.402344 281.902344 452.183594 281.933594 452.183594 282.308594 C 452.183594 282.558594 452.433594 282.558594 452.527344 282.558594 C 453.121094 282.558594 454.652344 282.496094 455.277344 282.496094 C 455.808594 282.496094 457.152344 282.558594 457.683594 282.558594 C 457.839844 282.558594 458.121094 282.558594 458.121094 282.152344 C 458.121094 281.871094 457.902344 281.871094 457.714844 281.871094 C 456.246094 281.871094 456.214844 281.808594 455.839844 280.933594 C 454.996094 278.902344 453.527344 275.496094 453.027344 274.183594 C 454.496094 272.652344 456.808594 270.058594 457.496094 269.464844 C 458.121094 268.933594 458.964844 268.402344 460.277344 268.339844 C 460.558594 268.308594 460.746094 268.308594 460.746094 267.902344 C 460.746094 267.871094 460.746094 267.652344 460.464844 267.652344 C 459.808594 267.652344 459.089844 267.714844 458.402344 267.714844 C 457.589844 267.714844 456.777344 267.652344 455.996094 267.652344 C 455.871094 267.652344 455.589844 267.652344 455.589844 268.089844 C 455.589844 268.246094 455.683594 268.308594 455.839844 268.339844 C 456.027344 268.371094 456.714844 268.402344 456.714844 269.027344 C 456.714844 269.308594 456.464844 269.589844 456.308594 269.808594 Z M 452.777344 273.589844 "/>
<path fill-rule="nonzero" fill="rgb(100%, 100%, 100%)" fill-opacity="1" d="M -5.546875 0.242188 L 23.976562 0.242188 L 23.976562 27.125 L -5.546875 27.125 Z M -5.546875 0.242188 "/>
<path fill-rule="nonzero" fill="rgb(0%, 0%, 0%)" fill-opacity="1" d="M 13.511719 8.695312 L 13.792969 8.382812 C 14.449219 7.726562 15.167969 6.976562 16.667969 6.882812 C 16.917969 6.851562 17.105469 6.851562 17.105469 6.476562 C 17.105469 6.289062 16.980469 6.195312 16.824219 6.195312 C 16.261719 6.195312 15.605469 6.257812 15.042969 6.257812 C 14.324219 6.257812 13.542969 6.195312 12.855469 6.195312 C 12.730469 6.195312 12.449219 6.195312 12.449219 6.632812 C 12.449219 6.851562 12.636719 6.882812 12.761719 6.882812 C 12.917969 6.882812 13.542969 6.914062 13.542969 7.382812 C 13.542969 7.757812 13.042969 8.320312 12.949219 8.414062 L 7.886719 14.257812 L 5.511719 7.789062 C 5.355469 7.476562 5.355469 7.414062 5.355469 7.414062 C 5.355469 6.882812 6.449219 6.882812 6.667969 6.882812 C 6.949219 6.882812 7.167969 6.882812 7.167969 6.445312 C 7.167969 6.195312 6.917969 6.195312 6.855469 6.195312 C 6.230469 6.195312 4.699219 6.257812 4.105469 6.257812 C 3.542969 6.257812 2.199219 6.195312 1.667969 6.195312 C 1.542969 6.195312 1.230469 6.195312 1.230469 6.632812 C 1.230469 6.882812 1.449219 6.882812 1.730469 6.882812 C 3.042969 6.882812 3.136719 7.070312 3.324219 7.632812 L 6.011719 14.789062 C 6.042969 14.851562 6.105469 15.101562 6.105469 15.164062 C 6.105469 15.226562 5.230469 18.757812 5.136719 19.132812 C 4.855469 20.351562 4.824219 20.414062 3.074219 20.414062 C 2.667969 20.414062 2.480469 20.414062 2.480469 20.851562 C 2.480469 21.101562 2.761719 21.101562 2.792969 21.101562 C 3.417969 21.101562 4.917969 21.039062 5.542969 21.039062 C 6.136719 21.039062 7.730469 21.101562 8.324219 21.101562 C 8.480469 21.101562 8.761719 21.101562 8.761719 20.664062 C 8.761719 20.414062 8.542969 20.414062 8.136719 20.414062 C 8.105469 20.414062 7.667969 20.414062 7.292969 20.382812 C 6.855469 20.351562 6.730469 20.289062 6.730469 20.039062 C 6.730469 19.882812 6.917969 19.101562 7.011719 18.664062 L 7.792969 15.570312 C 7.886719 15.164062 7.917969 15.101562 8.105469 14.914062 Z M 13.511719 8.695312 "/>
<path fill="none" stroke-width="11.9553" stroke-linecap="butt" stroke-linejoin="miter" stroke="rgb(0%, 0%, 0%)" stroke-opacity="1" stroke-miterlimit="10" d="M 48.007812 321.601558 L 2280.039029 321.601558 " transform="matrix(0.2, 0, 0, -0.2, 0, 326)"/>
<path fill="none" stroke-width="11.9553" stroke-linecap="butt" stroke-linejoin="miter" stroke="rgb(0%, 0%, 0%)" stroke-opacity="1" stroke-miterlimit="10" d="M 119.999998 249.609371 L 119.999998 1581.601539 " transform="matrix(0.2, 0, 0, -0.2, 0, 326)"/>
<path fill-rule="nonzero" fill="rgb(0%, 0%, 0%)" fill-opacity="1" d="M 195.601562 318.300781 C 196.789062 317.894531 198.789062 317.300781 198.789062 315.363281 C 198.789062 313.050781 196.070312 311.988281 194.101562 311.988281 C 193.164062 311.988281 192.195312 312.207031 191.351562 312.707031 C 191.226562 312.769531 191.070312 312.957031 190.914062 312.957031 C 190.601562 312.957031 190.039062 311.988281 189.726562 311.988281 C 189.539062 311.988281 189.507812 312.207031 189.507812 312.300781 L 189.507812 315.863281 C 189.507812 315.988281 189.601562 316.144531 189.789062 316.144531 C 190.101562 316.144531 190.070312 315.519531 190.164062 315.175781 C 190.632812 313.457031 192.195312 312.707031 193.695312 312.613281 L 194.101562 312.613281 C 195.445312 312.613281 197.007812 313.488281 197.007812 315.363281 C 197.007812 317.175781 195.226562 318.113281 193.570312 318.113281 C 193.257812 318.113281 192.945312 318.113281 192.632812 318.113281 L 192.476562 318.113281 C 192.289062 318.113281 192.070312 318.113281 192.070312 318.332031 L 192.070312 318.363281 C 192.101562 318.550781 192.289062 318.582031 192.476562 318.582031 L 194.320312 318.582031 C 195.882812 318.707031 197.320312 319.738281 197.476562 321.363281 L 197.476562 321.582031 C 197.476562 323.425781 195.757812 324.582031 194.007812 324.582031 C 192.101562 324.582031 190.132812 323.957031 189.820312 321.582031 C 189.820312 321.425781 189.757812 321.238281 189.539062 321.238281 C 189.320312 321.269531 189.289062 321.425781 189.289062 321.582031 C 189.289062 324.175781 191.882812 325.207031 194.132812 325.207031 C 196.195312 325.207031 199.070312 324.238281 199.320312 321.769531 L 199.320312 321.644531 C 199.320312 319.675781 197.257812 318.707031 195.601562 318.300781 Z M 195.601562 318.300781 "/>
<path fill-rule="nonzero" fill="rgb(0%, 0%, 0%)" fill-opacity="1" d="M 207.695312 311.988281 C 204.320312 312.394531 201.632812 315.050781 201.632812 318.644531 C 201.632812 321.925781 204.226562 325.175781 208.101562 325.175781 C 211.601562 325.175781 214.570312 322.269531 214.570312 318.644531 C 214.570312 315.457031 212.070312 311.988281 208.132812 311.988281 C 208.007812 311.988281 207.851562 311.988281 207.695312 311.988281 Z M 203.507812 318.863281 L 203.507812 318.519531 C 203.507812 316.019531 204.414062 313.082031 207.570312 312.550781 C 207.757812 312.519531 207.914062 312.519531 208.101562 312.519531 C 210.914062 312.519531 212.664062 315.238281 212.664062 318.269531 C 212.664062 320.675781 211.945312 323.738281 208.976562 324.519531 C 208.695312 324.582031 208.414062 324.613281 208.132812 324.613281 L 207.945312 324.613281 C 205.351562 324.519531 203.945312 322.050781 203.601562 319.644531 Z M 203.507812 318.863281 "/>
<path fill-rule="nonzero" fill="rgb(0%, 0%, 0%)" fill-opacity="1" d="M 217.027344 312.332031 L 217.027344 312.925781 L 217.464844 312.925781 C 218.058594 312.925781 218.683594 313.019531 218.683594 313.894531 L 218.683594 323.363281 C 218.683594 324.207031 217.964844 324.238281 217.308594 324.238281 L 217.027344 324.238281 L 217.027344 324.832031 L 222.808594 324.832031 C 223.214844 324.832031 223.589844 324.863281 223.996094 324.863281 C 225.996094 324.863281 228.339844 323.925781 228.558594 321.519531 L 228.558594 321.332031 C 228.558594 318.800781 225.683594 317.769531 223.777344 317.769531 C 222.527344 317.769531 221.339844 317.894531 220.152344 317.988281 L 220.152344 313.769531 C 220.152344 313.332031 220.214844 312.925781 220.996094 312.925781 L 223.308594 312.925781 C 224.277344 312.925781 225.371094 312.988281 226.089844 313.707031 C 226.777344 314.425781 226.871094 315.644531 226.964844 316.582031 L 227.496094 316.582031 L 227.027344 312.332031 Z M 220.152344 318.613281 C 220.402344 318.613281 220.652344 318.550781 220.902344 318.519531 L 222.277344 318.457031 C 222.558594 318.425781 222.839844 318.394531 223.152344 318.394531 C 224.714844 318.394531 226.683594 319.394531 226.683594 321.238281 C 226.683594 322.988281 225.339844 324.269531 223.339844 324.269531 C 223.058594 324.269531 222.746094 324.238281 222.496094 324.238281 L 220.964844 324.238281 C 220.496094 324.238281 220.246094 324.207031 220.152344 323.582031 Z M 220.152344 318.613281 "/>
<path fill-rule="nonzero" fill="rgb(0%, 0%, 0%)" fill-opacity="1" d="M 230.90625 312.332031 L 230.90625 312.925781 L 231.375 312.925781 C 231.96875 312.925781 232.5625 313.019531 232.5625 313.894531 L 232.5625 323.363281 C 232.5625 324.207031 231.875 324.238281 231.1875 324.238281 L 230.90625 324.238281 L 230.90625 324.832031 L 235.8125 324.832031 L 235.8125 324.238281 L 235.375 324.238281 C 234.75 324.238281 234.15625 324.175781 234.15625 323.300781 L 234.15625 319.113281 L 237.875 319.113281 C 239.65625 318.988281 241.9375 317.800781 241.9375 315.769531 C 241.9375 313.550781 239.59375 312.488281 237.6875 312.332031 Z M 234.125 318.582031 L 234.125 313.582031 C 234.21875 312.988281 234.46875 312.925781 234.875 312.925781 L 236.3125 312.925781 C 237.9375 312.925781 240.0625 312.988281 240.0625 315.769531 C 240.0625 316.425781 239.96875 317.113281 239.5625 317.613281 C 238.90625 318.394531 237.8125 318.582031 236.84375 318.582031 Z M 234.125 318.582031 "/>
<path fill-rule="nonzero" fill="rgb(0%, 0%, 0%)" fill-opacity="1" d="M 246.636719 322.550781 C 246.136719 322.644531 245.636719 323.082031 245.636719 323.675781 C 245.636719 324.300781 246.167969 324.832031 246.792969 324.832031 C 247.417969 324.832031 247.980469 324.363281 247.980469 323.707031 C 247.980469 323.082031 247.449219 322.519531 246.824219 322.519531 C 246.761719 322.519531 246.699219 322.550781 246.636719 322.550781 Z M 246.636719 322.550781 "/>
<path fill-rule="nonzero" fill="rgb(0%, 0%, 0%)" fill-opacity="1" d="M 261.410156 321.894531 C 261.503906 321.925781 261.660156 321.957031 261.816406 321.957031 C 262.472656 321.957031 262.847656 321.457031 262.847656 320.863281 C 262.847656 320.269531 262.378906 319.832031 261.816406 319.832031 C 261.222656 319.832031 260.722656 320.269531 260.722656 320.957031 C 260.722656 323.269531 262.628906 325.332031 265.191406 325.332031 C 268.097656 325.332031 270.472656 322.988281 270.472656 320.019531 C 270.472656 317.644531 269.128906 315.582031 266.722656 314.894531 C 266.472656 314.832031 266.191406 314.832031 265.910156 314.832031 C 264.660156 314.832031 263.535156 315.238281 262.660156 316.144531 L 262.660156 311.144531 C 263.410156 311.269531 264.097656 311.488281 264.878906 311.488281 C 266.472656 311.488281 268.066406 310.894531 269.253906 309.613281 C 269.378906 309.457031 269.535156 309.363281 269.535156 309.175781 L 269.535156 309.144531 C 269.503906 309.019531 269.410156 308.957031 269.316406 308.957031 C 269.253906 308.957031 269.253906 308.957031 269.191406 308.988281 C 268.035156 309.394531 267.035156 309.707031 265.816406 309.707031 C 264.753906 309.707031 263.628906 309.550781 262.660156 309.113281 C 262.535156 309.050781 262.441406 308.988281 262.285156 308.957031 L 262.222656 308.957031 C 262.128906 308.957031 262.035156 309.050781 262.035156 309.175781 L 262.035156 316.769531 C 262.035156 316.988281 262.066406 317.175781 262.316406 317.175781 C 262.597656 317.175781 262.753906 316.738281 262.941406 316.550781 C 263.691406 315.769531 264.691406 315.332031 265.785156 315.300781 C 266.941406 315.300781 267.660156 316.082031 268.097656 317.019531 C 268.535156 317.957031 268.535156 319.113281 268.535156 320.144531 C 268.535156 321.800781 268.191406 323.550781 266.472656 324.394531 C 266.035156 324.613281 265.566406 324.707031 265.128906 324.707031 C 263.410156 324.707031 261.910156 323.519531 261.410156 321.894531 Z M 261.410156 321.894531 "/>
<path fill-rule="nonzero" fill="rgb(0%, 0%, 0%)" fill-opacity="1" d="M 277.996094 308.957031 C 273.433594 309.363281 273.277344 314.832031 273.277344 317.269531 C 273.277344 319.519531 273.496094 322.175781 274.964844 323.894531 C 275.777344 324.800781 277.027344 325.363281 278.246094 325.363281 C 283.121094 325.363281 283.339844 319.519531 283.339844 317.082031 C 283.339844 314.832031 283.152344 312.144531 281.652344 310.457031 C 280.839844 309.519531 279.621094 308.925781 278.339844 308.925781 C 278.214844 308.925781 278.089844 308.957031 277.996094 308.957031 Z M 275.121094 318.582031 C 275.089844 318.394531 275.089844 318.175781 275.089844 317.957031 L 275.089844 316.925781 C 275.089844 315.738281 275.121094 314.550781 275.246094 313.363281 C 275.339844 312.457031 275.464844 311.488281 275.996094 310.707031 C 276.527344 309.925781 277.371094 309.425781 278.308594 309.425781 C 280.433594 309.425781 281.183594 311.488281 281.371094 313.207031 C 281.496094 314.300781 281.496094 315.394531 281.496094 316.488281 C 281.496094 317.488281 281.496094 318.519531 281.433594 319.519531 C 281.371094 321.457031 281.246094 324.269531 278.777344 324.800781 C 278.621094 324.832031 278.464844 324.863281 278.308594 324.863281 C 275.277344 324.863281 275.339844 320.988281 275.121094 318.582031 Z M 275.121094 318.582031 "/>
<path fill-rule="nonzero" fill="rgb(0%, 0%, 0%)" fill-opacity="1" d="M 288.144531 322.550781 C 287.644531 322.644531 287.144531 323.082031 287.144531 323.675781 C 287.144531 324.300781 287.675781 324.832031 288.300781 324.832031 C 288.925781 324.832031 289.488281 324.363281 289.488281 323.707031 C 289.488281 323.082031 288.957031 322.519531 288.332031 322.519531 C 288.269531 322.519531 288.207031 322.550781 288.144531 322.550781 Z M 288.144531 322.550781 "/>
</svg>
