<?xml version="1.0" encoding="UTF-8"?>
<svg xmlns="http://www.w3.org/2000/svg" xmlns:xlink="http://www.w3.org/1999/xlink" width="380" height="404" viewBox="0 0 380 404">
<path fill="none" stroke-width="11.9553" stroke-linecap="butt" stroke-linejoin="miter" stroke="rgb(0%, 0%, 0%)" stroke-opacity="1" stroke-miterlimit="10" d="M 199.999997 921.601549 L 237.812496 922.265611 L 275.585933 924.257799 L 313.398433 927.578111 L 351.210932 932.187486 L 388.984369 938.124986 L 426.796869 945.429673 L 464.609368 954.023423 L 502.382805 963.945298 L 540.195304 975.195298 L 578.007804 987.773423 L 615.820303 1001.64061 L 653.59374 1016.874985 L 691.40624 1033.398422 L 729.218739 1051.249984 L 767.031239 1070.468734 L 804.804676 1090.937484 L 842.617175 1112.773421 L 880.429674 1135.937483 L 918.203111 1160.390608 L 956.015611 1186.21092 L 993.789048 1213.320294 L 1031.601547 1241.757794 L 1069.414047 1271.562481 L 1107.226546 1302.656231 L 1144.999983 1335.039043 L 1182.812482 1368.789042 L 1220.624982 1403.867167 L 1258.398419 1440.234354 L 1296.210918 1477.929665 L 1334.023418 1516.953102 L 1371.835917 1557.304664 L 1409.609354 1598.984351 L 1447.421853 1641.992163 L 1485.234353 1686.3281 L 1523.00779 1731.953099 L 1560.820289 1778.945286 L 1598.632789 1827.226535 L 1636.406226 1876.83591 L 1674.218725 1927.773409 L 1712.031224 1980.039033 " transform="matrix(0.2, 0, 0, -0.2, 0, 404)"/>
<path fill="none" stroke-width="7.9701" stroke-linecap="butt" stroke-linejoin="miter" stroke="rgb(0%, 0%, 0%)" stroke-opacity="1" stroke-miterlimit="10" d="M 199.999997 921.601549 L 229.062497 921.601549 " transform="matrix(0.2, 0, 0, -0.2, 0, 404)"/>
<path fill="none" stroke-width="7.9701" stroke-linecap="butt" stroke-linejoin="miter" stroke="rgb(0%, 0%, 0%)" stroke-opacity="1" stroke-miterlimit="10" d="M 287.226558 921.601549 L 316.32812 921.601549 " transform="matrix(0.2, 0, 0, -0.2, 0, 404)"/>
<path fill="none" stroke-width="7.9701" stroke-linecap="butt" stroke-linejoin="miter" stroke="rgb(0%, 0%, 0%)" stroke-opacity="1" stroke-miterlimit="10" d="M 316.32812 921.601549 L 345.39062 921.601549 " transform="matrix(0.2, 0, 0, -0.2, 0, 404)"/>
<path fill="none" stroke-width="7.9701" stroke-linecap="butt" stroke-linejoin="miter" stroke="rgb(0%, 0%, 0%)" stroke-opacity="1" stroke-miterlimit="10" d="M 403.554681 921.601549 L 432.617181 921.601549 " transform="matrix(0.2, 0, 0, -0.2, 0, 404)"/>
<path fill="none" stroke-width="7.9701" stroke-linecap="butt" stroke-linejoin="miter" stroke="rgb(0%, 0%, 0%)" stroke-opacity="1" stroke-miterlimit="10" d="M 432.617181 921.601549 L 461.679681 921.601549 " transform="matrix(0.2, 0, 0, -0.2, 0, 404)"/>
<path fill="none" stroke-width="7.9701" stroke-linecap="butt" stroke-linejoin="miter" stroke="rgb(0%, 0%, 0%)" stroke-opacity="1" stroke-miterlimit="10" d="M 519.843742 921.601549 L 548.945304 921.601549 " transform="matrix(0.2, 0, 0, -0.2, 0, 404)"/>
<path fill="none" stroke-width="7.9701" stroke-linecap="butt" stroke-linejoin="miter" stroke="rgb(0%, 0%, 0%)" stroke-opacity="1" stroke-miterlimit="10" d="M 548.945304 921.601549 L 578.007804 921.601549 " transform="matrix(0.2, 0, 0, -0.2, 0, 404)"/>
<path fill="none" stroke-width="7.9701" stroke-linecap="butt" stroke-linejoin="miter" stroke="rgb(0%, 0%, 0%)" stroke-opacity="1" stroke-miterlimit="10" d="M 636.171866 921.601549 L 665.234365 921.601549 " transform="matrix(0.2, 0, 0, -0.2, 0, 404)"/>
<path fill="none" stroke-width="7.9701" stroke-linecap="butt" stroke-linejoin="miter" stroke="rgb(0%, 0%, 0%)" stroke-opacity="1" stroke-miterlimit="10" d="M 665.234365 921.601549 L 694.296865 921.601549 " transform="matrix(0.2, 0, 0, -0.2, 0, 404)"/>
<path fill="none" stroke-width="7.9701" stroke-linecap="butt" stroke-linejoin="miter" stroke="rgb(0%, 0%, 0%)" stroke-opacity="1" stroke-miterlimit="10" d="M 752.460926 921.601549 L 781.562488 921.601549 " transform="matrix(0.2, 0, 0, -0.2, 0, 404)"/>
<path fill="none" stroke-width="7.9701" stroke-linecap="butt" stroke-linejoin="miter" stroke="rgb(0%, 0%, 0%)" stroke-opacity="1" stroke-miterlimit="10" d="M 781.562488 921.601549 L 810.624988 921.601549 " transform="matrix(0.2, 0, 0, -0.2, 0, 404)"/>
<path fill="none" stroke-width="7.9701" stroke-linecap="butt" stroke-linejoin="miter" stroke="rgb(0%, 0%, 0%)" stroke-opacity="1" stroke-miterlimit="10" d="M 868.78905 921.601549 L 897.851549 921.601549 " transform="matrix(0.2, 0, 0, -0.2, 0, 404)"/>
<path fill="none" stroke-width="7.9701" stroke-linecap="butt" stroke-linejoin="miter" stroke="rgb(0%, 0%, 0%)" stroke-opacity="1" stroke-miterlimit="10" d="M 897.851549 921.601549 L 926.914049 921.601549 " transform="matrix(0.2, 0, 0, -0.2, 0, 404)"/>
<path fill="none" stroke-width="7.9701" stroke-linecap="butt" stroke-linejoin="miter" stroke="rgb(0%, 0%, 0%)" stroke-opacity="1" stroke-miterlimit="10" d="M 985.07811 921.601549 L 1014.14061 921.601549 " transform="matrix(0.2, 0, 0, -0.2, 0, 404)"/>
<path fill="none" stroke-width="7.9701" stroke-linecap="butt" stroke-linejoin="miter" stroke="rgb(0%, 0%, 0%)" stroke-opacity="1" stroke-miterlimit="10" d="M 1014.14061 921.601549 L 1043.242172 921.601549 " transform="matrix(0.2, 0, 0, -0.2, 0, 404)"/>
<path fill="none" stroke-width="7.9701" stroke-linecap="butt" stroke-linejoin="miter" stroke="rgb(0%, 0%, 0%)" stroke-opacity="1" stroke-miterlimit="10" d="M 1101.406234 921.601549 L 1130.468733 921.601549 " transform="matrix(0.2, 0, 0, -0.2, 0, 404)"/>
<path fill="none" stroke-width="7.9701" stroke-linecap="butt" stroke-linejoin="miter" stroke="rgb(0%, 0%, 0%)" stroke-opacity="1" stroke-miterlimit="10" d="M 1130.468733 921.601549 L 1159.531233 921.601549 " transform="matrix(0.2, 0, 0, -0.2, 0, 404)"/>
<path fill="none" stroke-width="7.9701" stroke-linecap="butt" stroke-linejoin="miter" stroke="rgb(0%, 0%, 0%)" stroke-opacity="1" stroke-miterlimit="10" d="M 1217.695294 921.601549 L 1246.796856 921.601549 " transform="matrix(0.2, 0, 0, -0.2, 0, 404)"/>
<path fill="none" stroke-width="7.9701" stroke-linecap="butt" stroke-linejoin="miter" stroke="rgb(0%, 0%, 0%)" stroke-opacity="1" stroke-miterlimit="10" d="M 1246.796856 921.601549 L 1275.859356 921.601549 " transform="matrix(0.2, 0, 0, -0.2, 0, 404)"/>
<path fill="none" stroke-width="7.9701" stroke-linecap="butt" stroke-linejoin="miter" stroke="rgb(0%, 0%, 0%)" stroke-opacity="1" stroke-miterlimit="10" d="M 1334.023418 921.601549 L 1363.085917 921.601549 " transform="matrix(0.2, 0, 0, -0.2, 0, 404)"/>
<path fill="none" stroke-width="7.9701" stroke-linecap="butt" stroke-linejoin="miter" stroke="rgb(0%, 0%, 0%)" stroke-opacity="1" stroke-miterlimit="10" d="M 1363.085917 921.601549 L 1392.187479 921.601549 " transform="matrix(0.2, 0, 0, -0.2, 0, 404)"/>
<path fill="none" stroke-width="7.9701" stroke-linecap="butt" stroke-linejoin="miter" stroke="rgb(0%, 0%, 0%)" stroke-opacity="1" stroke-miterlimit="10" d="M 1450.312478 921.601549 L 1479.374978 921.601549 " transform="matrix(0.2, 0, 0, -0.2, 0, 404)"/>
<path fill="none" stroke-width="7.9701" stroke-linecap="butt" stroke-linejoin="miter" stroke="rgb(0%, 0%, 0%)" stroke-opacity="1" stroke-miterlimit="10" d="M 1479.374978 921.601549 L 1508.47654 921.601549 " transform="matrix(0.2, 0, 0, -0.2, 0, 404)"/>
<path fill="none" stroke-width="7.9701" stroke-linecap="butt" stroke-linejoin="miter" stroke="rgb(0%, 0%, 0%)" stroke-opacity="1" stroke-miterlimit="10" d="M 1566.640602 921.601549 L 1595.703101 921.601549 " transform="matrix(0.2, 0, 0, -0.2, 0, 404)"/>
<path fill="none" stroke-width="7.9701" stroke-linecap="butt" stroke-linejoin="miter" stroke="rgb(0%, 0%, 0%)" stroke-opacity="1" stroke-miterlimit="10" d="M 1595.703101 921.601549 L 1624.804663 921.601549 " transform="matrix(0.2, 0, 0, -0.2, 0, 404)"/>
<path fill="none" stroke-width="7.9701" stroke-linecap="butt" stroke-linejoin="miter" stroke="rgb(0%, 0%, 0%)" stroke-opacity="1" stroke-miterlimit="10" d="M 1682.929662 921.601549 L 1712.031224 921.601549 " transform="matrix(0.2, 0, 0, -0.2, 0, 404)"/>
<path fill="none" stroke-width="7.9701" stroke-linecap="butt" stroke-linejoin="miter" stroke="rgb(0%, 0%, 0%)" stroke-opacity="1" stroke-miterlimit="10" d="M 1712.031224 381.601557 L 1712.031224 410.156244 " transform="matrix(0.2, 0, 0, -0.2, 0, 404)"/>
<path fill="none" stroke-width="7.9701" stroke-linecap="butt" stroke-linejoin="miter" stroke="rgb(0%, 0%, 0%)" stroke-opacity="1" stroke-miterlimit="10" d="M 1712.031224 467.226556 L 1712.031224 495.781243 " transform="matrix(0.2, 0, 0, -0.2, 0, 404)"/>
<path fill="none" stroke-width="7.9701" stroke-linecap="butt" stroke-linejoin="miter" stroke="rgb(0%, 0%, 0%)" stroke-opacity="1" stroke-miterlimit="10" d="M 1712.031224 495.781243 L 1712.031224 524.296867 " transform="matrix(0.2, 0, 0, -0.2, 0, 404)"/>
<path fill="none" stroke-width="7.9701" stroke-linecap="butt" stroke-linejoin="miter" stroke="rgb(0%, 0%, 0%)" stroke-opacity="1" stroke-miterlimit="10" d="M 1712.031224 581.406241 L 1712.031224 609.921866 " transform="matrix(0.2, 0, 0, -0.2, 0, 404)"/>
<path fill="none" stroke-width="7.9701" stroke-linecap="butt" stroke-linejoin="miter" stroke="rgb(0%, 0%, 0%)" stroke-opacity="1" stroke-miterlimit="10" d="M 1712.031224 609.921866 L 1712.031224 638.476553 " transform="matrix(0.2, 0, 0, -0.2, 0, 404)"/>
<path fill="none" stroke-width="7.9701" stroke-linecap="butt" stroke-linejoin="miter" stroke="rgb(0%, 0%, 0%)" stroke-opacity="1" stroke-miterlimit="10" d="M 1712.031224 695.585927 L 1712.031224 724.101552 " transform="matrix(0.2, 0, 0, -0.2, 0, 404)"/>
<path fill="none" stroke-width="7.9701" stroke-linecap="butt" stroke-linejoin="miter" stroke="rgb(0%, 0%, 0%)" stroke-opacity="1" stroke-miterlimit="10" d="M 1712.031224 724.101552 L 1712.031224 752.656239 " transform="matrix(0.2, 0, 0, -0.2, 0, 404)"/>
<path fill="none" stroke-width="7.9701" stroke-linecap="butt" stroke-linejoin="miter" stroke="rgb(0%, 0%, 0%)" stroke-opacity="1" stroke-miterlimit="10" d="M 1712.031224 809.765613 L 1712.031224 838.281238 " transform="matrix(0.2, 0, 0, -0.2, 0, 404)"/>
<path fill="none" stroke-width="7.9701" stroke-linecap="butt" stroke-linejoin="miter" stroke="rgb(0%, 0%, 0%)" stroke-opacity="1" stroke-miterlimit="10" d="M 1712.031224 838.281238 L 1712.031224 866.835925 " transform="matrix(0.2, 0, 0, -0.2, 0, 404)"/>
<path fill="none" stroke-width="7.9701" stroke-linecap="butt" stroke-linejoin="miter" stroke="rgb(0%, 0%, 0%)" stroke-opacity="1" stroke-miterlimit="10" d="M 1712.031224 923.945299 L 1712.031224 952.460923 " transform="matrix(0.2, 0, 0, -0.2, 0, 404)"/>
<path fill="none" stroke-width="7.9701" stroke-linecap="butt" stroke-linejoin="miter" stroke="rgb(0%, 0%, 0%)" stroke-opacity="1" stroke-miterlimit="10" d="M 1712.031224 952.460923 L 1712.031224 981.01561 " transform="matrix(0.2, 0, 0, -0.2, 0, 404)"/>
<path fill="none" stroke-width="7.9701" stroke-linecap="butt" stroke-linejoin="miter" stroke="rgb(0%, 0%, 0%)" stroke-opacity="1" stroke-miterlimit="10" d="M 1712.031224 1038.085922 L 1712.031224 1066.640609 " transform="matrix(0.2, 0, 0, -0.2, 0, 404)"/>
<path fill="none" stroke-width="7.9701" stroke-linecap="butt" stroke-linejoin="miter" stroke="rgb(0%, 0%, 0%)" stroke-opacity="1" stroke-miterlimit="10" d="M 1712.031224 1066.640609 L 1712.031224 1095.195296 " transform="matrix(0.2, 0, 0, -0.2, 0, 404)"/>
<path fill="none" stroke-width="7.9701" stroke-linecap="butt" stroke-linejoin="miter" stroke="rgb(0%, 0%, 0%)" stroke-opacity="1" stroke-miterlimit="10" d="M 1712.031224 1152.265608 L 1712.031224 1180.820295 " transform="matrix(0.2, 0, 0, -0.2, 0, 404)"/>
<path fill="none" stroke-width="7.9701" stroke-linecap="butt" stroke-linejoin="miter" stroke="rgb(0%, 0%, 0%)" stroke-opacity="1" stroke-miterlimit="10" d="M 1712.031224 1180.820295 L 1712.031224 1209.335919 " transform="matrix(0.2, 0, 0, -0.2, 0, 404)"/>
<path fill="none" stroke-width="7.9701" stroke-linecap="butt" stroke-linejoin="miter" stroke="rgb(0%, 0%, 0%)" stroke-opacity="1" stroke-miterlimit="10" d="M 1712.031224 1266.445294 L 1712.031224 1294.960918 " transform="matrix(0.2, 0, 0, -0.2, 0, 404)"/>
<path fill="none" stroke-width="7.9701" stroke-linecap="butt" stroke-linejoin="miter" stroke="rgb(0%, 0%, 0%)" stroke-opacity="1" stroke-miterlimit="10" d="M 1712.031224 1294.960918 L 1712.031224 1323.515605 " transform="matrix(0.2, 0, 0, -0.2, 0, 404)"/>
<path fill="none" stroke-width="7.9701" stroke-linecap="butt" stroke-linejoin="miter" stroke="rgb(0%, 0%, 0%)" stroke-opacity="1" stroke-miterlimit="10" d="M 1712.031224 1380.624979 L 1712.031224 1409.140604 " transform="matrix(0.2, 0, 0, -0.2, 0, 404)"/>
<path fill="none" stroke-width="7.9701" stroke-linecap="butt" stroke-linejoin="miter" stroke="rgb(0%, 0%, 0%)" stroke-opacity="1" stroke-miterlimit="10" d="M 1712.031224 1409.140604 L 1712.031224 1437.695291 " transform="matrix(0.2, 0, 0, -0.2, 0, 404)"/>
<path fill="none" stroke-width="7.9701" stroke-linecap="butt" stroke-linejoin="miter" stroke="rgb(0%, 0%, 0%)" stroke-opacity="1" stroke-miterlimit="10" d="M 1712.031224 1494.765603 L 1712.031224 1523.32029 " transform="matrix(0.2, 0, 0, -0.2, 0, 404)"/>
<path fill="none" stroke-width="7.9701" stroke-linecap="butt" stroke-linejoin="miter" stroke="rgb(0%, 0%, 0%)" stroke-opacity="1" stroke-miterlimit="10" d="M 1712.031224 1523.32029 L 1712.031224 1551.874977 " transform="matrix(0.2, 0, 0, -0.2, 0, 404)"/>
<path fill="none" stroke-width="7.9701" stroke-linecap="butt" stroke-linejoin="miter" stroke="rgb(0%, 0%, 0%)" stroke-opacity="1" stroke-miterlimit="10" d="M 1712.031224 1608.945289 L 1712.031224 1637.499976 " transform="matrix(0.2, 0, 0, -0.2, 0, 404)"/>
<path fill="none" stroke-width="7.9701" stroke-linecap="butt" stroke-linejoin="miter" stroke="rgb(0%, 0%, 0%)" stroke-opacity="1" stroke-miterlimit="10" d="M 1712.031224 1637.499976 L 1712.031224 1666.054663 " transform="matrix(0.2, 0, 0, -0.2, 0, 404)"/>
<path fill="none" stroke-width="7.9701" stroke-linecap="butt" stroke-linejoin="miter" stroke="rgb(0%, 0%, 0%)" stroke-opacity="1" stroke-miterlimit="10" d="M 1712.031224 1723.124974 L 1712.031224 1751.679661 " transform="matrix(0.2, 0, 0, -0.2, 0, 404)"/>
<path fill="none" stroke-width="7.9701" stroke-linecap="butt" stroke-linejoin="miter" stroke="rgb(0%, 0%, 0%)" stroke-opacity="1" stroke-miterlimit="10" d="M 1712.031224 1751.679661 L 1712.031224 1780.234348 " transform="matrix(0.2, 0, 0, -0.2, 0, 404)"/>
<path fill="none" stroke-width="7.9701" stroke-linecap="butt" stroke-linejoin="miter" stroke="rgb(0%, 0%, 0%)" stroke-opacity="1" stroke-miterlimit="10" d="M 1712.031224 1837.30466 L 1712.031224 1865.859347 " transform="matrix(0.2, 0, 0, -0.2, 0, 404)"/>
<path fill="none" stroke-width="7.9701" stroke-linecap="butt" stroke-linejoin="miter" stroke="rgb(0%, 0%, 0%)" stroke-opacity="1" stroke-miterlimit="10" d="M 1712.031224 1865.859347 L 1712.031224 1894.374972 " transform="matrix(0.2, 0, 0, -0.2, 0, 404)"/>
<path fill="none" stroke-width="7.9701" stroke-linecap="butt" stroke-linejoin="miter" stroke="rgb(0%, 0%, 0%)" stroke-opacity="1" stroke-miterlimit="10" d="M 1712.031224 1951.484346 L 1712.031224 1980.039033 " transform="matrix(0.2, 0, 0, -0.2, 0, 404)"/>
<path fill-rule="nonzero" fill="rgb(100%, 100%, 100%)" fill-opacity="1" d="M -6.546875 260.265625 L 22.734375 260.265625 L 22.734375 287.148438 L -6.546875 287.148438 Z M -6.546875 260.265625 "/>
<path fill-rule="nonzero" fill="rgb(0%, 0%, 0%)" fill-opacity="1" d="M 16.042969 265.964844 C 16.042969 265.902344 16.011719 265.746094 15.824219 265.746094 C 15.761719 265.746094 15.730469 265.777344 15.480469 265.996094 L 13.949219 267.683594 C 13.761719 267.371094 12.761719 265.746094 10.355469 265.746094 C 5.480469 265.746094 0.574219 270.558594 0.574219 275.621094 C 0.574219 279.214844 3.136719 281.589844 6.480469 281.589844 C 8.386719 281.589844 10.042969 280.714844 11.199219 279.714844 C 13.230469 277.933594 13.605469 275.964844 13.605469 275.871094 C 13.605469 275.683594 13.386719 275.683594 13.324219 275.683594 C 13.199219 275.683594 13.105469 275.714844 13.042969 275.871094 C 12.855469 276.527344 12.355469 278.058594 10.855469 279.339844 C 9.324219 280.558594 7.980469 280.933594 6.824219 280.933594 C 4.855469 280.933594 2.542969 279.777344 2.542969 276.402344 C 2.542969 275.152344 3.011719 271.621094 5.199219 269.058594 C 6.511719 267.496094 8.574219 266.433594 10.511719 266.433594 C 12.730469 266.433594 14.042969 268.089844 14.042969 270.621094 C 14.042969 271.496094 13.949219 271.527344 13.949219 271.746094 C 13.949219 271.964844 14.199219 271.964844 14.292969 271.964844 C 14.574219 271.964844 14.574219 271.902344 14.699219 271.527344 Z M 16.042969 265.964844 "/>
<path fill-rule="nonzero" fill="rgb(0%, 0%, 0%)" fill-opacity="1" d="M 36.015625 223.664062 L 35.523438 223.867188 L 35.054688 224.078125 L 34.601562 224.289062 L 34.164062 224.507812 L 33.75 224.734375 L 33.34375 224.96875 L 32.960938 225.203125 L 32.585938 225.453125 L 32.234375 225.703125 L 31.898438 225.953125 L 31.570312 226.21875 L 31.265625 226.484375 L 30.96875 226.757812 L 30.6875 227.03125 L 30.421875 227.3125 L 30.164062 227.601562 L 29.695312 228.195312 L 29.484375 228.5 L 29.28125 228.8125 L 29.09375 229.117188 L 28.914062 229.4375 L 28.742188 229.765625 L 28.585938 230.085938 L 28.4375 230.421875 L 28.304688 230.757812 L 28.179688 231.101562 L 28.0625 231.445312 L 27.953125 231.796875 L 27.859375 232.148438 L 27.773438 232.507812 L 27.6875 232.875 L 27.546875 233.609375 L 27.492188 233.984375 L 27.398438 234.75 L 27.359375 235.140625 L 27.335938 235.53125 L 27.304688 235.921875 L 27.273438 236.71875 L 27.265625 237.125 L 27.257812 237.539062 L 27.257812 237.945312 L 27.265625 238.359375 L 27.265625 238.78125 L 27.296875 239.625 L 27.328125 240.484375 L 27.34375 240.921875 L 27.390625 241.796875 L 27.421875 242.234375 L 27.445312 242.6875 L 27.492188 243.578125 L 27.523438 244.03125 L 27.546875 244.484375 L 27.617188 245.867188 L 27.632812 246.328125 L 27.65625 246.796875 L 27.671875 247.257812 L 27.679688 247.734375 L 27.695312 248.203125 L 27.695312 248.679688 L 27.703125 249.148438 L 27.695312 249.625 L 27.695312 250.109375 L 27.6875 250.585938 L 27.671875 251.070312 L 27.648438 251.546875 L 27.617188 252.03125 L 27.585938 252.523438 L 27.507812 253.492188 L 27.453125 253.984375 L 27.398438 254.46875 L 27.328125 254.960938 L 27.171875 255.945312 L 27.078125 256.4375 L 26.984375 256.9375 L 26.875 257.429688 L 26.757812 257.921875 L 26.625 258.421875 L 26.492188 258.914062 L 26.335938 259.414062 L 26.179688 259.90625 L 26.007812 260.40625 L 25.828125 260.90625 L 25.632812 261.398438 L 25.429688 261.898438 L 25.210938 262.390625 L 24.984375 262.890625 L 24.742188 263.390625 L 24.484375 263.882812 L 24.210938 264.382812 L 23.929688 264.882812 L 23.632812 265.375 L 23.320312 265.867188 L 22.992188 266.367188 L 22.648438 266.859375 L 22.289062 267.351562 L 21.921875 267.84375 L 21.53125 268.335938 L 21.125 268.828125 L 20.703125 269.320312 L 20.265625 269.804688 L 19.804688 270.296875 L 19.328125 270.78125 L 18.835938 271.265625 L 18.320312 271.757812 L 17.796875 272.234375 L 17.242188 272.71875 L 16.679688 273.203125 L 16.085938 273.679688 L 16.679688 274.15625 L 17.242188 274.640625 L 17.796875 275.117188 L 18.320312 275.601562 L 18.835938 276.085938 L 19.328125 276.578125 L 19.804688 277.0625 L 20.265625 277.554688 L 20.703125 278.039062 L 21.125 278.53125 L 21.53125 279.023438 L 21.921875 279.515625 L 22.289062 280.007812 L 22.648438 280.5 L 22.992188 280.992188 L 23.320312 281.484375 L 23.632812 281.984375 L 23.929688 282.476562 L 24.210938 282.976562 L 24.484375 283.46875 L 24.742188 283.96875 L 24.984375 284.46875 L 25.210938 284.960938 L 25.429688 285.460938 L 25.632812 285.960938 L 25.828125 286.453125 L 26.007812 286.953125 L 26.179688 287.453125 L 26.335938 287.945312 L 26.492188 288.445312 L 26.625 288.9375 L 26.757812 289.4375 L 26.875 289.929688 L 26.984375 290.421875 L 27.078125 290.921875 L 27.171875 291.414062 L 27.328125 292.398438 L 27.398438 292.882812 L 27.507812 293.867188 L 27.585938 294.835938 L 27.617188 295.328125 L 27.648438 295.8125 L 27.671875 296.289062 L 27.6875 296.773438 L 27.695312 297.25 L 27.695312 297.734375 L 27.703125 298.210938 L 27.695312 298.679688 L 27.695312 299.15625 L 27.679688 299.625 L 27.671875 300.09375 L 27.65625 300.5625 L 27.632812 301.03125 L 27.617188 301.492188 L 27.546875 302.875 L 27.523438 303.328125 L 27.492188 303.78125 L 27.421875 305.117188 L 27.390625 305.5625 L 27.34375 306.4375 L 27.328125 306.875 L 27.3125 307.304688 L 27.296875 307.726562 L 27.28125 308.15625 L 27.265625 308.578125 L 27.265625 308.992188 L 27.257812 309.414062 L 27.257812 309.820312 L 27.265625 310.234375 L 27.273438 310.632812 L 27.289062 311.039062 L 27.304688 311.4375 L 27.335938 311.828125 L 27.359375 312.21875 L 27.398438 312.609375 L 27.445312 312.992188 L 27.492188 313.367188 L 27.546875 313.75 L 27.6875 314.484375 L 27.773438 314.84375 L 27.859375 315.210938 L 27.953125 315.5625 L 28.0625 315.914062 L 28.179688 316.257812 L 28.304688 316.601562 L 28.4375 316.9375 L 28.585938 317.273438 L 28.742188 317.59375 L 28.914062 317.921875 L 29.09375 318.234375 L 29.28125 318.546875 L 29.484375 318.859375 L 29.695312 319.164062 L 30.164062 319.757812 L 30.421875 320.039062 L 30.6875 320.328125 L 30.96875 320.601562 L 31.265625 320.875 L 31.570312 321.140625 L 31.898438 321.40625 L 32.234375 321.65625 L 32.585938 321.90625 L 32.960938 322.148438 L 33.34375 322.390625 L 33.75 322.625 L 34.164062 322.851562 L 34.601562 323.070312 L 35.054688 323.28125 L 35.523438 323.492188 L 36.015625 323.695312 L 35.328125 323.398438 L 34.671875 323.09375 L 34.03125 322.78125 L 33.421875 322.476562 L 32.828125 322.164062 L 32.265625 321.851562 L 31.71875 321.53125 L 31.203125 321.210938 L 30.695312 320.890625 L 30.21875 320.5625 L 29.765625 320.234375 L 29.328125 319.90625 L 28.90625 319.570312 L 28.507812 319.234375 L 28.132812 318.898438 L 27.773438 318.554688 L 27.4375 318.210938 L 27.109375 317.867188 L 26.804688 317.515625 L 26.523438 317.171875 L 26.25 316.8125 L 25.992188 316.460938 L 25.757812 316.101562 L 25.539062 315.734375 L 25.328125 315.375 L 25.140625 315.007812 L 24.960938 314.640625 L 24.796875 314.273438 L 24.648438 313.898438 L 24.515625 313.53125 L 24.390625 313.148438 L 24.28125 312.773438 L 24.1875 312.390625 L 24.101562 312.007812 L 24.023438 311.625 L 23.960938 311.234375 L 23.90625 310.84375 L 23.828125 310.0625 L 23.804688 309.664062 L 23.789062 308.867188 L 23.789062 308.46875 L 23.804688 308.0625 L 23.820312 307.664062 L 23.84375 307.25 L 23.875 306.84375 L 23.914062 306.4375 L 24.007812 305.609375 L 24.0625 305.195312 L 24.117188 304.773438 L 24.179688 304.351562 L 24.25 303.9375 L 24.320312 303.515625 L 24.390625 303.085938 L 24.46875 302.664062 L 24.703125 301.375 L 24.875 300.515625 L 24.953125 300.078125 L 25.125 299.203125 L 25.203125 298.765625 L 25.289062 298.328125 L 25.445312 297.4375 L 25.515625 297 L 25.585938 296.554688 L 25.65625 296.101562 L 25.78125 295.210938 L 25.890625 294.304688 L 25.9375 293.851562 L 25.976562 293.40625 L 26.007812 292.945312 L 26.039062 292.492188 L 26.054688 292.039062 L 26.070312 291.578125 L 26.078125 291.117188 L 26.078125 290.65625 L 26.046875 289.734375 L 26.015625 289.273438 L 25.976562 288.8125 L 25.929688 288.351562 L 25.804688 287.414062 L 25.71875 286.953125 L 25.632812 286.484375 L 25.523438 286.015625 L 25.40625 285.546875 L 25.28125 285.078125 L 25.132812 284.609375 L 24.976562 284.140625 L 24.804688 283.671875 L 24.625 283.195312 L 24.421875 282.726562 L 24.210938 282.25 L 23.976562 281.78125 L 23.734375 281.304688 L 23.46875 280.828125 L 23.1875 280.351562 L 22.890625 279.882812 L 22.578125 279.40625 L 22.242188 278.929688 L 21.890625 278.453125 L 21.523438 277.976562 L 21.132812 277.5 L 20.726562 277.023438 L 20.296875 276.546875 L 19.851562 276.070312 L 19.375 275.59375 L 18.890625 275.117188 L 18.375 274.632812 L 17.84375 274.15625 L 17.28125 273.679688 L 17.84375 273.203125 L 18.375 272.726562 L 18.890625 272.242188 L 19.375 271.765625 L 19.851562 271.289062 L 20.296875 270.8125 L 20.726562 270.335938 L 21.132812 269.859375 L 21.523438 269.382812 L 21.890625 268.90625 L 22.242188 268.429688 L 22.578125 267.953125 L 22.890625 267.476562 L 23.1875 267.007812 L 23.46875 266.53125 L 23.734375 266.054688 L 23.976562 265.578125 L 24.210938 265.109375 L 24.421875 264.632812 L 24.625 264.164062 L 24.804688 263.6875 L 24.976562 263.21875 L 25.132812 262.75 L 25.28125 262.28125 L 25.40625 261.8125 L 25.523438 261.34375 L 25.632812 260.875 L 25.71875 260.40625 L 25.804688 259.945312 L 25.929688 259.007812 L 25.976562 258.546875 L 26.015625 258.085938 L 26.046875 257.625 L 26.078125 256.703125 L 26.078125 256.242188 L 26.070312 255.78125 L 26.054688 255.320312 L 26.039062 254.867188 L 26.007812 254.414062 L 25.976562 253.953125 L 25.9375 253.507812 L 25.890625 253.054688 L 25.78125 252.148438 L 25.65625 251.257812 L 25.585938 250.804688 L 25.515625 250.359375 L 25.445312 249.921875 L 25.289062 249.03125 L 25.203125 248.59375 L 25.125 248.15625 L 24.953125 247.28125 L 24.875 246.84375 L 24.703125 245.984375 L 24.46875 244.695312 L 24.390625 244.273438 L 24.320312 243.84375 L 24.179688 243 L 24.117188 242.585938 L 24.0625 242.164062 L 24.007812 241.75 L 23.914062 240.921875 L 23.875 240.515625 L 23.84375 240.109375 L 23.820312 239.695312 L 23.804688 239.296875 L 23.789062 238.890625 L 23.789062 238.492188 L 23.796875 238.085938 L 23.804688 237.695312 L 23.828125 237.296875 L 23.90625 236.515625 L 23.960938 236.125 L 24.023438 235.734375 L 24.101562 235.351562 L 24.1875 234.96875 L 24.28125 234.585938 L 24.390625 234.210938 L 24.515625 233.828125 L 24.648438 233.460938 L 24.796875 233.085938 L 24.960938 232.710938 L 25.140625 232.351562 L 25.328125 231.984375 L 25.539062 231.617188 L 25.757812 231.257812 L 25.992188 230.898438 L 26.25 230.546875 L 26.523438 230.1875 L 26.804688 229.84375 L 27.109375 229.492188 L 27.4375 229.148438 L 27.773438 228.804688 L 28.132812 228.460938 L 28.507812 228.125 L 28.90625 227.789062 L 29.328125 227.453125 L 29.765625 227.125 L 30.21875 226.796875 L 30.695312 226.46875 L 31.203125 226.148438 L 31.71875 225.828125 L 32.265625 225.507812 L 32.828125 225.195312 L 33.421875 224.882812 L 34.03125 224.570312 L 34.671875 224.265625 L 35.328125 223.960938 L 36.015625 223.664062 "/>
<path fill="none" stroke-width="3.985" stroke-linecap="butt" stroke-linejoin="miter" stroke="rgb(0%, 0%, 0%)" stroke-opacity="1" stroke-miterlimit="10" d="M 180.078122 901.679674 L 177.617185 900.664049 L 175.273435 899.609362 L 173.00781 898.554674 L 170.82031 897.460924 L 168.749997 896.328112 L 166.718748 895.156237 L 164.804685 893.984362 L 162.929685 892.734362 L 161.171873 891.484362 L 159.492185 890.234362 L 157.85156 888.906237 L 156.328123 887.578112 L 154.843748 886.210924 L 153.437498 884.843737 L 152.109373 883.437487 L 150.82031 881.992174 L 148.47656 879.023424 L 147.421873 877.499987 L 146.406248 875.937487 L 145.468748 874.414049 L 144.57031 872.812487 L 143.710935 871.171862 L 142.929685 869.5703 L 142.187498 867.890612 L 141.523435 866.210925 L 140.898435 864.492175 L 140.312498 862.773425 L 139.765623 861.015612 L 139.296873 859.2578 L 138.867185 857.460925 L 138.437498 855.624987 L 137.734373 851.953112 L 137.460935 850.078112 L 136.992185 846.249987 L 136.796873 844.296862 L 136.679685 842.343737 L 136.523435 840.390612 L 136.367185 836.406238 L 136.328123 834.374988 L 136.28906 832.304675 L 136.28906 830.273425 L 136.328123 828.203113 L 136.328123 826.093738 L 136.484373 821.874988 L 136.640623 817.578113 L 136.718748 815.390613 L 136.953123 811.015613 L 137.109373 808.828113 L 137.22656 806.562488 L 137.460935 802.109363 L 137.617185 799.843738 L 137.734373 797.578113 L 138.085935 790.664051 L 138.16406 788.359363 L 138.281248 786.015613 L 138.359373 783.710926 L 138.398435 781.328113 L 138.47656 778.984363 L 138.47656 776.601551 L 138.515623 774.257801 L 138.47656 771.874988 L 138.47656 769.453114 L 138.437498 767.070301 L 138.359373 764.648426 L 138.242185 762.265614 L 138.085935 759.843739 L 137.929685 757.382801 L 137.53906 752.539051 L 137.265623 750.078114 L 136.992185 747.656239 L 136.640623 745.195301 L 135.859373 740.273426 L 135.390623 737.812489 L 134.921873 735.312489 L 134.374998 732.851552 L 133.789061 730.390614 L 133.124998 727.890614 L 132.460936 725.429677 L 131.679686 722.929677 L 130.898436 720.468739 L 130.039061 717.968739 L 129.140623 715.468739 L 128.164061 713.007802 L 127.148436 710.507802 L 126.054686 708.046864 L 124.921873 705.546864 L 123.710936 703.046865 L 122.421873 700.585927 L 121.054686 698.085927 L 119.648436 695.585927 L 118.164061 693.12499 L 116.601561 690.664052 L 114.960936 688.164052 L 113.242186 685.703115 L 111.445311 683.242177 L 109.609373 680.78124 L 107.656248 678.320302 L 105.624998 675.859365 L 103.515623 673.398427 L 101.328123 670.976553 L 99.023436 668.515615 L 96.640624 666.09374 L 94.179686 663.671865 L 91.601561 661.210928 L 88.984374 658.828115 L 86.210936 656.40624 L 83.398436 653.984365 L 80.429686 651.601553 L 83.398436 649.21874 L 86.210936 646.796865 L 88.984374 644.414053 L 91.601561 641.992178 L 94.179686 639.570303 L 96.640624 637.109366 L 99.023436 634.687491 L 101.328123 632.226553 L 103.515623 629.804678 L 105.624998 627.343741 L 107.656248 624.882803 L 109.609373 622.421866 L 111.445311 619.960928 L 113.242186 617.499991 L 114.960936 615.039053 L 116.601561 612.578116 L 118.164061 610.078116 L 119.648436 607.617178 L 121.054686 605.117178 L 122.421873 602.656241 L 123.710936 600.156241 L 124.921873 597.656241 L 126.054686 595.195304 L 127.148436 592.695304 L 128.164061 590.195304 L 129.140623 587.734366 L 130.039061 585.234366 L 130.898436 582.734366 L 131.679686 580.273429 L 132.460936 577.773429 L 133.124998 575.312491 L 133.789061 572.812491 L 134.374998 570.351554 L 134.921873 567.890617 L 135.390623 565.390617 L 135.859373 562.929679 L 136.640623 558.007804 L 136.992185 555.585929 L 137.53906 550.664054 L 137.929685 545.820304 L 138.085935 543.359367 L 138.242185 540.937492 L 138.359373 538.554679 L 138.437498 536.132805 L 138.47656 533.749992 L 138.47656 531.328117 L 138.515623 528.945305 L 138.47656 526.601555 L 138.47656 524.218742 L 138.398435 521.874992 L 138.359373 519.531242 L 138.281248 517.187492 L 138.16406 514.843742 L 138.085935 512.539055 L 137.734373 505.624992 L 137.617185 503.359367 L 137.460935 501.093743 L 137.109373 494.414055 L 136.953123 492.187493 L 136.718748 487.812493 L 136.640623 485.624993 L 136.562498 483.476555 L 136.484373 481.36718 L 136.406248 479.218743 L 136.328123 477.109368 L 136.328123 475.039055 L 136.28906 472.92968 L 136.28906 470.89843 L 136.328123 468.828118 L 136.367185 466.835931 L 136.44531 464.804681 L 136.523435 462.812493 L 136.679685 460.859368 L 136.796873 458.906243 L 136.992185 456.953118 L 137.22656 455.039056 L 137.460935 453.164056 L 137.734373 451.249993 L 138.437498 447.578118 L 138.867185 445.781243 L 139.296873 443.945306 L 139.765623 442.187493 L 140.312498 440.429681 L 140.898435 438.710931 L 141.523435 436.992181 L 142.187498 435.312494 L 142.929685 433.632806 L 143.710935 432.031244 L 144.57031 430.390619 L 145.468748 428.828119 L 146.406248 427.265619 L 147.421873 425.703119 L 148.47656 424.179681 L 150.82031 421.210931 L 152.109373 419.804681 L 153.437498 418.359369 L 154.843748 416.992181 L 156.328123 415.624994 L 157.85156 414.296869 L 159.492185 412.968744 L 161.171873 411.718744 L 162.929685 410.468744 L 164.804685 409.257806 L 166.718748 408.046869 L 168.749997 406.874994 L 170.82031 405.742181 L 173.00781 404.648431 L 175.273435 403.593744 L 177.617185 402.539057 L 180.078122 401.523432 L 176.640622 403.007806 L 173.359372 404.531244 L 170.156247 406.093744 L 167.109373 407.617181 L 164.140623 409.179681 L 161.328123 410.742181 L 158.593748 412.343744 L 156.015623 413.945306 L 153.47656 415.546869 L 151.093748 417.187494 L 148.828123 418.828119 L 146.640623 420.468744 L 144.531248 422.148431 L 142.53906 423.828119 L 140.66406 425.507806 L 138.867185 427.226556 L 137.187498 428.945306 L 135.546873 430.664056 L 134.023436 432.421869 L 132.617186 434.140619 L 131.249998 435.937494 L 129.960936 437.695306 L 128.789061 439.492181 L 127.695311 441.328118 L 126.640623 443.124993 L 125.703123 444.960931 L 124.804686 446.796868 L 123.984373 448.632806 L 123.242186 450.507806 L 122.578123 452.343743 L 121.953123 454.257806 L 121.406248 456.132806 L 120.937498 458.046868 L 120.507811 459.960931 L 120.117186 461.874993 L 119.804686 463.828118 L 119.531248 465.781243 L 119.140623 469.687493 L 119.023436 471.67968 L 118.945311 475.664055 L 118.945311 477.656243 L 119.023436 479.687493 L 119.101561 481.67968 L 119.218748 483.749993 L 119.374998 485.781243 L 119.570311 487.812493 L 120.039061 491.953118 L 120.312498 494.02343 L 120.585936 496.132805 L 120.898436 498.24218 L 121.249998 500.312493 L 121.601561 502.421868 L 121.953123 504.570305 L 122.343748 506.67968 L 123.515623 513.124992 L 124.374998 517.421867 L 124.765623 519.609367 L 125.624998 523.984367 L 126.015623 526.171867 L 126.445311 528.359367 L 127.226561 532.812492 L 127.578123 534.999992 L 127.929686 537.226554 L 128.281248 539.492179 L 128.906248 543.945304 L 129.453123 548.476554 L 129.687498 550.742179 L 129.882811 552.968742 L 130.039061 555.273429 L 130.195311 557.539054 L 130.273436 559.804679 L 130.351561 562.109367 L 130.390623 564.414054 L 130.390623 566.718742 L 130.234373 571.328116 L 130.078123 573.632804 L 129.882811 575.937491 L 129.648436 578.242179 L 129.023436 582.929679 L 128.593748 585.234366 L 128.164061 587.578116 L 127.617186 589.921866 L 127.031248 592.265616 L 126.406248 594.609366 L 125.664061 596.953116 L 124.882811 599.296866 L 124.023436 601.640616 L 123.124998 604.023428 L 122.109373 606.367178 L 121.054686 608.749991 L 119.882811 611.093741 L 118.671873 613.476553 L 117.343748 615.859366 L 115.937498 618.242178 L 114.453123 620.585928 L 112.890623 622.968741 L 111.210936 625.351553 L 109.453123 627.734366 L 107.617186 630.117178 L 105.664061 632.499991 L 103.632811 634.882803 L 101.484373 637.265616 L 99.257811 639.648428 L 96.874999 642.03124 L 94.453124 644.414053 L 91.874999 646.835928 L 89.218749 649.21874 L 86.406249 651.601553 L 89.218749 653.984365 L 91.874999 656.367178 L 94.453124 658.789053 L 96.874999 661.171865 L 99.257811 663.554678 L 101.484373 665.93749 L 103.632811 668.320303 L 105.664061 670.703115 L 107.617186 673.085927 L 109.453123 675.46874 L 111.210936 677.851552 L 112.890623 680.234365 L 114.453123 682.617177 L 115.937498 684.960927 L 117.343748 687.34374 L 118.671873 689.726552 L 119.882811 692.109365 L 121.054686 694.453115 L 122.109373 696.835927 L 123.124998 699.179677 L 124.023436 701.56249 L 124.882811 703.90624 L 125.664061 706.249989 L 126.406248 708.593739 L 127.031248 710.937489 L 127.617186 713.281239 L 128.164061 715.624989 L 128.593748 717.968739 L 129.023436 720.273427 L 129.648436 724.960927 L 129.882811 727.265614 L 130.078123 729.570302 L 130.234373 731.874989 L 130.390623 736.484364 L 130.390623 738.789051 L 130.351561 741.093739 L 130.273436 743.398426 L 130.195311 745.664051 L 130.039061 747.929676 L 129.882811 750.234364 L 129.687498 752.460926 L 129.453123 754.726551 L 128.906248 759.257801 L 128.281248 763.710926 L 127.929686 765.976551 L 127.578123 768.203114 L 127.226561 770.390614 L 126.445311 774.843738 L 126.015623 777.031238 L 125.624998 779.218738 L 124.765623 783.593738 L 124.374998 785.781238 L 123.515623 790.078113 L 122.343748 796.523426 L 121.953123 798.632801 L 121.601561 800.781238 L 120.898436 804.999988 L 120.585936 807.0703 L 120.312498 809.179675 L 120.039061 811.249988 L 119.570311 815.390613 L 119.374998 817.421863 L 119.218748 819.453113 L 119.101561 821.523425 L 119.023436 823.515613 L 118.945311 825.546863 L 118.945311 827.53905 L 118.984373 829.5703 L 119.023436 831.523425 L 119.140623 833.515613 L 119.531248 837.421863 L 119.804686 839.374987 L 120.117186 841.328112 L 120.507811 843.242175 L 120.937498 845.156237 L 121.406248 847.0703 L 121.953123 848.9453 L 122.578123 850.859362 L 123.242186 852.6953 L 123.984373 854.5703 L 124.804686 856.4453 L 125.703123 858.242175 L 126.640623 860.078112 L 127.695311 861.91405 L 128.789061 863.710925 L 129.960936 865.5078 L 131.249998 867.265612 L 132.617186 869.062487 L 134.023436 870.781237 L 135.546873 872.539049 L 137.187498 874.257799 L 138.867185 875.976549 L 140.66406 877.695299 L 142.53906 879.374987 L 144.531248 881.054674 L 146.640623 882.734362 L 148.828123 884.374987 L 151.093748 886.015612 L 153.47656 887.656237 L 156.015623 889.257799 L 158.593748 890.859362 L 161.328123 892.460924 L 164.140623 894.023424 L 167.109373 895.585924 L 170.156247 897.148424 L 173.359372 898.671862 L 176.640622 900.195299 Z M 180.078122 901.679674 " transform="matrix(0.2, 0, 0, -0.2, 0, 404)"/>
<path fill-rule="nonzero" fill="rgb(100%, 100%, 100%)" fill-opacity="1" d="M 178.9375 353.007812 L 203.414062 353.007812 L 203.414062 374.367188 L 178.9375 374.367188 Z M 178.9375 353.007812 "/>
<path fill-rule="nonzero" fill="rgb(0%, 0%, 0%)" fill-opacity="1" d="M 192.242188 361.753906 C 192.367188 361.191406 192.867188 359.191406 194.398438 359.191406 C 194.523438 359.191406 195.023438 359.191406 195.492188 359.472656 C 194.898438 359.566406 194.460938 360.128906 194.460938 360.660156 C 194.460938 361.003906 194.679688 361.410156 195.273438 361.410156 C 195.773438 361.410156 196.460938 361.003906 196.460938 360.160156 C 196.460938 359.003906 195.179688 358.691406 194.429688 358.691406 C 193.148438 358.691406 192.398438 359.847656 192.148438 360.378906 C 191.585938 358.910156 190.398438 358.691406 189.773438 358.691406 C 187.523438 358.691406 186.273438 361.535156 186.273438 362.066406 C 186.273438 362.285156 186.492188 362.285156 186.523438 362.285156 C 186.710938 362.285156 186.773438 362.253906 186.804688 362.035156 C 187.554688 359.722656 188.992188 359.191406 189.742188 359.191406 C 190.148438 359.191406 190.929688 359.378906 190.929688 360.660156 C 190.929688 361.316406 190.554688 362.785156 189.742188 365.847656 C 189.398438 367.191406 188.617188 368.097656 187.679688 368.097656 C 187.523438 368.097656 187.023438 368.097656 186.585938 367.816406 C 187.117188 367.722656 187.585938 367.253906 187.585938 366.660156 C 187.585938 366.066406 187.117188 365.878906 186.804688 365.878906 C 186.148438 365.878906 185.585938 366.441406 185.585938 367.160156 C 185.585938 368.160156 186.679688 368.597656 187.648438 368.597656 C 189.085938 368.597656 189.867188 367.066406 189.929688 366.941406 C 190.210938 367.722656 190.992188 368.597656 192.304688 368.597656 C 194.523438 368.597656 195.773438 365.785156 195.773438 365.222656 C 195.773438 365.003906 195.585938 365.003906 195.523438 365.003906 C 195.335938 365.003906 195.273438 365.097656 195.242188 365.253906 C 194.523438 367.597656 193.023438 368.097656 192.335938 368.097656 C 191.492188 368.097656 191.148438 367.410156 191.148438 366.660156 C 191.148438 366.191406 191.273438 365.722656 191.492188 364.753906 Z M 192.242188 361.753906 "/>
<path fill-rule="nonzero" fill="rgb(0%, 0%, 0%)" fill-opacity="1" d="M 43.984375 331.664062 L 44.210938 332.15625 L 44.476562 332.625 L 44.789062 333.078125 L 45.148438 333.515625 L 45.546875 333.9375 L 45.992188 334.335938 L 46.484375 334.71875 L 47.015625 335.09375 L 47.578125 335.445312 L 48.1875 335.789062 L 48.835938 336.109375 L 49.53125 336.421875 L 50.25 336.710938 L 51.015625 336.992188 L 51.8125 337.265625 L 52.648438 337.515625 L 53.515625 337.757812 L 54.421875 337.976562 L 55.359375 338.195312 L 56.328125 338.398438 L 57.328125 338.585938 L 58.359375 338.773438 L 59.429688 338.9375 L 60.523438 339.09375 L 61.640625 339.242188 L 62.789062 339.375 L 63.96875 339.5 L 65.171875 339.617188 L 66.40625 339.726562 L 67.65625 339.820312 L 68.9375 339.914062 L 70.242188 339.992188 L 71.570312 340.0625 L 72.921875 340.132812 L 74.289062 340.1875 L 75.6875 340.234375 L 77.09375 340.28125 L 78.53125 340.3125 L 79.976562 340.34375 L 81.445312 340.375 L 82.929688 340.390625 L 84.429688 340.40625 L 85.945312 340.414062 L 87.476562 340.421875 L 90.585938 340.421875 L 92.15625 340.414062 L 93.742188 340.398438 L 95.335938 340.390625 L 96.9375 340.375 L 98.554688 340.351562 L 100.179688 340.328125 L 101.8125 340.3125 L 103.453125 340.289062 L 105.101562 340.265625 L 106.75 340.234375 L 108.414062 340.210938 L 110.070312 340.1875 L 111.742188 340.15625 L 113.40625 340.132812 L 115.078125 340.109375 L 116.757812 340.085938 L 118.429688 340.0625 L 120.101562 340.046875 L 121.773438 340.023438 L 123.445312 340.007812 L 125.117188 340 L 126.789062 339.984375 L 128.453125 339.984375 L 130.109375 339.976562 L 131.765625 339.976562 L 133.414062 339.984375 L 135.054688 339.992188 L 136.6875 340.007812 L 138.320312 340.03125 L 139.9375 340.0625 L 141.546875 340.09375 L 143.140625 340.132812 L 144.726562 340.171875 L 146.304688 340.226562 L 147.867188 340.28125 L 149.414062 340.351562 L 150.953125 340.429688 L 152.46875 340.507812 L 153.976562 340.601562 L 155.46875 340.695312 L 156.945312 340.804688 L 158.398438 340.921875 L 159.835938 341.054688 L 161.25 341.1875 L 162.648438 341.34375 L 164.023438 341.5 L 165.382812 341.671875 L 166.710938 341.851562 L 168.023438 342.046875 L 169.3125 342.25 L 170.570312 342.46875 L 171.8125 342.695312 L 173.023438 342.9375 L 174.210938 343.195312 L 175.367188 343.46875 L 176.492188 343.75 L 177.601562 344.046875 L 178.671875 344.359375 L 179.710938 344.6875 L 180.71875 345.03125 L 181.703125 345.390625 L 182.648438 345.765625 L 183.5625 346.148438 L 184.4375 346.554688 L 185.28125 346.976562 L 186.09375 347.421875 L 186.867188 347.875 L 187.601562 348.351562 L 188.296875 348.84375 L 188.960938 349.359375 L 189.585938 349.882812 L 190.164062 350.4375 L 190.703125 351 L 191.203125 351.59375 L 191.703125 351 L 192.242188 350.4375 L 192.820312 349.882812 L 193.445312 349.359375 L 194.101562 348.84375 L 194.804688 348.351562 L 195.539062 347.875 L 196.3125 347.421875 L 197.117188 346.976562 L 197.960938 346.554688 L 198.84375 346.148438 L 199.757812 345.765625 L 200.703125 345.390625 L 201.6875 345.03125 L 202.695312 344.6875 L 203.734375 344.359375 L 204.804688 344.046875 L 205.90625 343.75 L 207.039062 343.46875 L 208.195312 343.195312 L 209.382812 342.9375 L 210.59375 342.695312 L 211.828125 342.46875 L 213.09375 342.25 L 214.382812 342.046875 L 215.695312 341.851562 L 217.023438 341.671875 L 218.375 341.5 L 219.757812 341.34375 L 221.15625 341.1875 L 222.570312 341.054688 L 224.007812 340.921875 L 225.460938 340.804688 L 226.9375 340.695312 L 228.421875 340.601562 L 229.929688 340.507812 L 231.453125 340.429688 L 232.984375 340.351562 L 234.539062 340.28125 L 236.101562 340.226562 L 237.679688 340.171875 L 239.265625 340.132812 L 240.859375 340.09375 L 242.46875 340.0625 L 244.085938 340.03125 L 245.710938 340.007812 L 247.351562 339.992188 L 248.992188 339.984375 L 250.640625 339.976562 L 252.296875 339.976562 L 253.953125 339.984375 L 255.617188 339.984375 L 257.28125 340 L 258.953125 340.007812 L 260.625 340.023438 L 262.296875 340.046875 L 263.976562 340.0625 L 270.664062 340.15625 L 272.328125 340.1875 L 273.992188 340.210938 L 275.648438 340.234375 L 277.304688 340.265625 L 278.953125 340.289062 L 280.59375 340.3125 L 282.21875 340.328125 L 283.851562 340.351562 L 285.460938 340.375 L 287.070312 340.390625 L 288.664062 340.398438 L 290.25 340.414062 L 291.820312 340.421875 L 294.929688 340.421875 L 296.460938 340.414062 L 297.976562 340.40625 L 299.476562 340.390625 L 300.960938 340.375 L 302.429688 340.34375 L 303.875 340.3125 L 305.3125 340.28125 L 306.71875 340.234375 L 308.117188 340.1875 L 309.484375 340.132812 L 310.828125 340.0625 L 312.15625 339.992188 L 313.460938 339.914062 L 314.742188 339.820312 L 316 339.726562 L 317.226562 339.617188 L 318.4375 339.5 L 319.609375 339.375 L 320.765625 339.242188 L 321.882812 339.09375 L 322.976562 338.9375 L 324.039062 338.773438 L 325.070312 338.585938 L 326.070312 338.398438 L 327.046875 338.195312 L 327.984375 337.976562 L 328.882812 337.757812 L 329.757812 337.515625 L 330.59375 337.265625 L 331.390625 336.992188 L 332.148438 336.710938 L 332.875 336.421875 L 333.5625 336.109375 L 334.210938 335.789062 L 334.820312 335.445312 L 335.390625 335.09375 L 335.921875 334.71875 L 336.40625 334.335938 L 336.851562 333.9375 L 337.257812 333.515625 L 337.617188 333.078125 L 337.929688 332.625 L 338.195312 332.15625 L 338.421875 331.664062 L 338.101562 332.351562 L 337.734375 333.007812 L 337.328125 333.648438 L 336.882812 334.257812 L 336.398438 334.851562 L 335.867188 335.414062 L 335.304688 335.960938 L 334.695312 336.476562 L 334.054688 336.984375 L 333.375 337.460938 L 332.65625 337.914062 L 331.90625 338.351562 L 331.125 338.773438 L 330.296875 339.171875 L 329.445312 339.546875 L 328.554688 339.90625 L 327.640625 340.242188 L 326.6875 340.570312 L 325.703125 340.875 L 324.695312 341.164062 L 323.648438 341.429688 L 322.578125 341.6875 L 321.476562 341.921875 L 320.351562 342.148438 L 319.203125 342.351562 L 318.023438 342.539062 L 316.820312 342.71875 L 315.59375 342.882812 L 314.34375 343.03125 L 313.0625 343.164062 L 311.765625 343.289062 L 310.445312 343.398438 L 309.101562 343.492188 L 307.742188 343.578125 L 306.359375 343.65625 L 304.960938 343.71875 L 303.546875 343.773438 L 302.109375 343.8125 L 300.65625 343.84375 L 299.1875 343.875 L 297.703125 343.882812 L 296.203125 343.890625 L 294.695312 343.890625 L 293.171875 343.875 L 291.632812 343.859375 L 290.078125 343.835938 L 288.515625 343.804688 L 286.945312 343.765625 L 283.773438 343.671875 L 282.171875 343.617188 L 280.5625 343.5625 L 278.945312 343.5 L 275.695312 343.359375 L 274.0625 343.289062 L 272.429688 343.210938 L 270.789062 343.132812 L 269.140625 343.054688 L 267.5 342.976562 L 265.851562 342.890625 L 264.210938 342.804688 L 262.5625 342.71875 L 260.914062 342.640625 L 259.265625 342.554688 L 257.625 342.476562 L 255.984375 342.390625 L 254.34375 342.3125 L 252.710938 342.234375 L 251.078125 342.164062 L 247.84375 342.023438 L 246.234375 341.960938 L 244.632812 341.898438 L 243.03125 341.84375 L 241.453125 341.789062 L 239.875 341.742188 L 238.3125 341.703125 L 236.757812 341.671875 L 235.210938 341.640625 L 232.164062 341.609375 L 230.664062 341.601562 L 229.179688 341.601562 L 227.703125 341.617188 L 226.242188 341.632812 L 224.804688 341.664062 L 223.382812 341.703125 L 221.976562 341.75 L 220.59375 341.8125 L 219.226562 341.882812 L 217.882812 341.960938 L 216.554688 342.046875 L 215.25 342.15625 L 213.96875 342.273438 L 212.710938 342.398438 L 211.476562 342.546875 L 210.265625 342.703125 L 209.078125 342.875 L 207.921875 343.054688 L 206.78125 343.257812 L 205.679688 343.46875 L 204.601562 343.703125 L 203.546875 343.945312 L 202.53125 344.210938 L 201.539062 344.492188 L 200.578125 344.789062 L 199.648438 345.101562 L 198.75 345.4375 L 197.890625 345.789062 L 197.054688 346.15625 L 196.257812 346.546875 L 195.5 346.953125 L 194.773438 347.382812 L 194.085938 347.828125 L 193.429688 348.304688 L 192.8125 348.789062 L 192.242188 349.304688 L 191.703125 349.835938 L 191.203125 350.398438 L 190.703125 349.835938 L 190.164062 349.304688 L 189.585938 348.789062 L 188.96875 348.304688 L 188.320312 347.828125 L 187.632812 347.382812 L 186.90625 346.953125 L 186.140625 346.546875 L 185.34375 346.15625 L 184.515625 345.789062 L 183.648438 345.4375 L 182.757812 345.101562 L 181.828125 344.789062 L 180.867188 344.492188 L 179.875 344.210938 L 178.851562 343.945312 L 177.804688 343.703125 L 176.726562 343.46875 L 175.617188 343.257812 L 174.484375 343.054688 L 173.328125 342.875 L 172.140625 342.703125 L 170.929688 342.546875 L 169.695312 342.398438 L 168.4375 342.273438 L 167.15625 342.15625 L 165.851562 342.046875 L 164.523438 341.960938 L 163.179688 341.882812 L 161.8125 341.8125 L 160.421875 341.75 L 159.023438 341.703125 L 157.59375 341.664062 L 156.15625 341.632812 L 154.703125 341.617188 L 153.226562 341.601562 L 151.742188 341.601562 L 150.234375 341.609375 L 148.71875 341.625 L 147.1875 341.640625 L 145.648438 341.671875 L 144.09375 341.703125 L 142.53125 341.742188 L 140.953125 341.789062 L 139.367188 341.84375 L 137.773438 341.898438 L 136.171875 341.960938 L 134.5625 342.023438 L 132.945312 342.09375 L 129.695312 342.234375 L 128.0625 342.3125 L 126.421875 342.390625 L 124.78125 342.476562 L 123.140625 342.554688 L 121.492188 342.640625 L 119.84375 342.71875 L 116.546875 342.890625 L 114.90625 342.976562 L 113.257812 343.054688 L 108.335938 343.289062 L 106.710938 343.359375 L 105.078125 343.429688 L 103.460938 343.5 L 101.84375 343.5625 L 100.234375 343.617188 L 98.632812 343.671875 L 95.460938 343.765625 L 93.890625 343.804688 L 92.328125 343.835938 L 90.773438 343.859375 L 89.234375 343.875 L 87.710938 343.890625 L 86.195312 343.890625 L 84.695312 343.882812 L 83.210938 343.875 L 81.742188 343.84375 L 80.296875 343.8125 L 78.859375 343.773438 L 77.445312 343.71875 L 76.039062 343.65625 L 74.664062 343.578125 L 73.296875 343.492188 L 71.960938 343.398438 L 70.640625 343.289062 L 69.34375 343.164062 L 68.0625 343.03125 L 66.8125 342.882812 L 65.585938 342.71875 L 64.382812 342.539062 L 63.203125 342.351562 L 62.046875 342.148438 L 60.921875 341.921875 L 59.828125 341.6875 L 58.757812 341.429688 L 57.710938 341.164062 L 56.695312 340.875 L 55.71875 340.570312 L 54.765625 340.242188 L 53.84375 339.90625 L 52.960938 339.546875 L 52.101562 339.171875 L 51.28125 338.773438 L 50.492188 338.351562 L 49.742188 337.914062 L 49.03125 337.460938 L 48.34375 336.984375 L 47.703125 336.476562 L 47.101562 335.960938 L 46.53125 335.414062 L 46.007812 334.851562 L 45.523438 334.257812 L 45.070312 333.648438 L 44.671875 333.007812 L 44.304688 332.351562 L 43.984375 331.664062 "/>
<path fill="none" stroke-width="3.985" stroke-linecap="butt" stroke-linejoin="miter" stroke="rgb(0%, 0%, 0%)" stroke-opacity="1" stroke-miterlimit="10" d="M 219.921872 361.679682 L 221.054684 359.218745 L 222.382809 356.874995 L 223.945309 354.60937 L 225.742184 352.42187 L 227.734372 350.312495 L 229.960934 348.320307 L 232.421872 346.406245 L 235.078121 344.531245 L 237.890621 342.773432 L 240.937496 341.054682 L 244.179684 339.45312 L 247.656246 337.89062 L 251.249996 336.445307 L 255.078121 335.039058 L 259.062496 333.67187 L 263.242184 332.42187 L 267.578121 331.210933 L 272.109371 330.117183 L 276.796871 329.023433 L 281.640621 328.007808 L 286.640621 327.070308 L 291.796871 326.132808 L 297.148433 325.312495 L 302.617183 324.531245 L 308.20312 323.789058 L 313.945308 323.124995 L 319.843745 322.499995 L 325.85937 321.914058 L 332.031245 321.367183 L 338.281245 320.898433 L 344.687495 320.429683 L 351.210932 320.039058 L 357.851557 319.687495 L 364.60937 319.335933 L 371.445307 319.062495 L 378.437494 318.82812 L 385.468744 318.593745 L 392.656244 318.437495 L 399.882807 318.281245 L 407.226556 318.124995 L 414.648431 318.04687 L 422.148431 317.968745 L 429.726556 317.929683 L 437.382806 317.89062 L 452.929681 317.89062 L 460.781243 317.929683 L 468.710931 318.007808 L 476.67968 318.04687 L 484.687493 318.124995 L 492.77343 318.242183 L 500.89843 318.35937 L 509.062492 318.437495 L 517.265617 318.554683 L 525.507805 318.67187 L 533.749992 318.82812 L 542.070304 318.945308 L 550.351554 319.062495 L 558.710929 319.218745 L 567.031242 319.335933 L 575.390616 319.45312 L 583.789054 319.570308 L 592.148429 319.687495 L 600.507804 319.76562 L 608.867178 319.882808 L 617.226553 319.960933 L 625.585928 319.999995 L 633.945303 320.07812 L 642.265615 320.07812 L 650.546865 320.117183 L 658.828115 320.117183 L 667.070303 320.07812 L 675.273427 320.039058 L 683.43749 319.960933 L 691.601552 319.843745 L 699.68749 319.687495 L 707.734364 319.531245 L 715.703114 319.335933 L 723.632802 319.14062 L 731.523427 318.867183 L 739.335926 318.593745 L 747.070301 318.242183 L 754.765614 317.851558 L 762.343739 317.460933 L 769.882801 316.992183 L 777.343738 316.523433 L 784.726551 315.976558 L 791.992176 315.39062 L 799.179676 314.726558 L 806.249988 314.062495 L 813.242175 313.281245 L 820.117175 312.499995 L 826.91405 311.64062 L 833.554675 310.742183 L 840.117175 309.76562 L 846.562487 308.749995 L 852.85155 307.656245 L 859.062487 306.523433 L 865.117175 305.312495 L 871.054675 304.023433 L 876.835924 302.656245 L 882.460924 301.249996 L 888.007799 299.765621 L 893.359362 298.203121 L 898.554674 296.562496 L 903.593737 294.843746 L 908.515611 293.046871 L 913.242174 291.171871 L 917.812486 289.257808 L 922.187486 287.226558 L 926.406236 285.117183 L 930.468736 282.890621 L 934.335924 280.624996 L 938.007799 278.242183 L 941.484361 275.781246 L 944.804673 273.203121 L 947.929673 270.585933 L 950.820298 267.812496 L 953.515611 264.999996 L 956.015611 262.031246 L 958.515611 264.999996 L 961.210923 267.812496 L 964.101548 270.585933 L 967.226548 273.203121 L 970.507798 275.781246 L 974.023423 278.242183 L 977.695298 280.624996 L 981.562485 282.890621 L 985.585923 285.117183 L 989.804673 287.226558 L 994.218735 289.257808 L 998.789048 291.171871 L 1003.51561 293.046871 L 1008.437485 294.843746 L 1013.476547 296.562496 L 1018.67186 298.203121 L 1024.023422 299.765621 L 1029.531235 301.249996 L 1035.195297 302.656245 L 1040.976547 304.023433 L 1046.914047 305.312495 L 1052.968734 306.523433 L 1059.140609 307.656245 L 1065.468734 308.749995 L 1071.914047 309.76562 L 1078.476546 310.742183 L 1085.117171 311.64062 L 1091.874984 312.499995 L 1098.789046 313.281245 L 1105.781234 314.062495 L 1112.851546 314.726558 L 1120.039046 315.39062 L 1127.304671 315.976558 L 1134.687483 316.523433 L 1142.109358 316.992183 L 1149.64842 317.460933 L 1157.265608 317.851558 L 1164.921858 318.242183 L 1172.695295 318.593745 L 1180.507795 318.867183 L 1188.39842 319.14062 L 1196.328107 319.335933 L 1204.296857 319.531245 L 1212.343732 319.687495 L 1220.429669 319.843745 L 1228.554669 319.960933 L 1236.757794 320.039058 L 1244.960919 320.07812 L 1253.203106 320.117183 L 1261.484356 320.117183 L 1269.765606 320.07812 L 1278.085918 320.07812 L 1286.406231 319.999995 L 1294.765606 319.960933 L 1303.124981 319.882808 L 1311.484355 319.76562 L 1319.882793 319.687495 L 1353.320292 319.218745 L 1361.640605 319.062495 L 1369.960917 318.945308 L 1378.242167 318.82812 L 1386.523417 318.67187 L 1394.765604 318.554683 L 1402.968729 318.437495 L 1411.093729 318.35937 L 1419.257791 318.242183 L 1427.304666 318.124995 L 1435.351541 318.04687 L 1443.320291 318.007808 L 1451.249978 317.929683 L 1459.101541 317.89062 L 1474.648416 317.89062 L 1482.304665 317.929683 L 1489.88279 317.968745 L 1497.38279 318.04687 L 1504.804665 318.124995 L 1512.148415 318.281245 L 1519.374977 318.437495 L 1526.562477 318.593745 L 1533.593727 318.82812 L 1540.585915 319.062495 L 1547.421852 319.335933 L 1554.140602 319.687495 L 1560.781227 320.039058 L 1567.304664 320.429683 L 1573.710914 320.898433 L 1579.999976 321.367183 L 1586.132789 321.914058 L 1592.187476 322.499995 L 1598.046851 323.124995 L 1603.828101 323.789058 L 1609.414039 324.531245 L 1614.882788 325.312495 L 1620.195288 326.132808 L 1625.351538 327.070308 L 1630.351538 328.007808 L 1635.234351 329.023433 L 1639.921851 330.117183 L 1644.414038 331.210933 L 1648.789038 332.42187 L 1652.968725 333.67187 L 1656.9531 335.039058 L 1660.742163 336.445307 L 1664.374975 337.89062 L 1667.812475 339.45312 L 1671.054663 341.054682 L 1674.101538 342.773432 L 1676.9531 344.531245 L 1679.60935 346.406245 L 1682.031225 348.320307 L 1684.257787 350.312495 L 1686.289037 352.42187 L 1688.085912 354.60937 L 1689.648412 356.874995 L 1690.976537 359.218745 L 1692.10935 361.679682 L 1690.507787 358.242182 L 1688.67185 354.960932 L 1686.6406 351.757807 L 1684.414037 348.710932 L 1681.992162 345.742182 L 1679.335912 342.929682 L 1676.523413 340.195307 L 1673.476538 337.617182 L 1670.273413 335.07812 L 1666.874975 332.695308 L 1663.281225 330.429683 L 1659.531225 328.242183 L 1655.624975 326.132808 L 1651.48435 324.14062 L 1647.226538 322.26562 L 1642.773413 320.468745 L 1638.203101 318.789058 L 1633.437476 317.148433 L 1628.515601 315.624995 L 1623.476538 314.179683 L 1618.242163 312.851558 L 1612.890601 311.562495 L 1607.382789 310.39062 L 1601.757789 309.257808 L 1596.015601 308.242183 L 1590.117164 307.304683 L 1584.101539 306.406245 L 1577.968726 305.585933 L 1571.718727 304.843745 L 1565.312477 304.179683 L 1558.828102 303.554683 L 1552.226539 303.007808 L 1545.507789 302.539058 L 1538.710915 302.10937 L 1531.796852 301.718746 L 1524.804665 301.406246 L 1517.734352 301.132808 L 1510.546852 300.937496 L 1503.281228 300.781246 L 1495.937478 300.624996 L 1488.515603 300.585933 L 1481.015603 300.546871 L 1473.476541 300.546871 L 1465.859353 300.624996 L 1458.164041 300.703121 L 1450.390603 300.820308 L 1442.578104 300.976558 L 1434.726541 301.171871 L 1418.867166 301.640621 L 1410.859354 301.914058 L 1402.812479 302.187495 L 1394.726542 302.499995 L 1378.476542 303.20312 L 1370.31248 303.554683 L 1362.148417 303.945308 L 1353.945292 304.335933 L 1345.703105 304.726558 L 1337.49998 305.117183 L 1329.257793 305.54687 L 1321.054668 305.976558 L 1312.81248 306.406245 L 1304.570293 306.79687 L 1296.328106 307.226558 L 1288.124981 307.617183 L 1279.921856 308.04687 L 1271.718731 308.437495 L 1263.554669 308.82812 L 1255.390606 309.179683 L 1239.218732 309.882808 L 1231.171857 310.195308 L 1223.164044 310.507808 L 1215.156232 310.781245 L 1207.265607 311.054683 L 1199.374982 311.289058 L 1191.562482 311.48437 L 1183.789045 311.64062 L 1176.05467 311.79687 L 1160.820295 311.95312 L 1153.320295 311.992183 L 1145.89842 311.992183 L 1138.515608 311.914058 L 1131.210921 311.835933 L 1124.023421 311.679683 L 1116.914046 311.48437 L 1109.882796 311.249995 L 1102.968734 310.937495 L 1096.132796 310.585933 L 1089.414046 310.195308 L 1082.773421 309.76562 L 1076.249984 309.218745 L 1069.843734 308.632808 L 1063.554672 308.007808 L 1057.382797 307.26562 L 1051.328109 306.48437 L 1045.390609 305.624995 L 1039.60936 304.726558 L 1033.906235 303.710933 L 1028.398422 302.656245 L 1023.007797 301.484371 L 1017.73436 300.273433 L 1012.656235 298.945308 L 1007.695297 297.539058 L 1002.89061 296.054683 L 998.242173 294.492183 L 993.749985 292.812496 L 989.45311 291.054683 L 985.273423 289.218746 L 981.289048 287.265621 L 977.499985 285.234371 L 973.867173 283.085933 L 970.429673 280.859371 L 967.148423 278.476558 L 964.062486 276.054683 L 961.210923 273.476558 L 958.515611 270.820308 L 956.015611 268.007809 L 953.515611 270.820308 L 950.820298 273.476558 L 947.929673 276.054683 L 944.843736 278.476558 L 941.601548 280.859371 L 938.164049 283.085933 L 934.531236 285.234371 L 930.703111 287.265621 L 926.718736 289.218746 L 922.578111 291.054683 L 918.242174 292.812496 L 913.789049 294.492183 L 909.140611 296.054683 L 904.335924 297.539058 L 899.374987 298.945308 L 894.257799 300.273433 L 889.023424 301.484371 L 883.632799 302.656245 L 878.085924 303.710933 L 872.421862 304.726558 L 866.640612 305.624995 L 860.703112 306.48437 L 854.648425 307.26562 L 848.47655 308.007808 L 842.187487 308.632808 L 835.781238 309.218745 L 829.2578 309.76562 L 822.617175 310.195308 L 815.898425 310.585933 L 809.062488 310.937495 L 802.109363 311.249995 L 795.117176 311.48437 L 787.968738 311.679683 L 780.781238 311.835933 L 773.515613 311.914058 L 766.132801 311.992183 L 758.710926 311.992183 L 751.171864 311.95312 L 743.593739 311.874995 L 735.937489 311.79687 L 728.242177 311.64062 L 720.468739 311.48437 L 712.656239 311.289058 L 704.765614 311.054683 L 696.835927 310.781245 L 688.867177 310.507808 L 680.859365 310.195308 L 672.81249 309.882808 L 664.726553 309.531245 L 648.476553 308.82812 L 640.31249 308.437495 L 632.109366 308.04687 L 623.906241 307.617183 L 615.703116 307.226558 L 607.460928 306.79687 L 599.218741 306.406245 L 582.734366 305.54687 L 574.531241 305.117183 L 566.289054 304.726558 L 541.679679 303.554683 L 533.55468 303.20312 L 525.390617 302.851558 L 517.30468 302.499995 L 509.218742 302.187495 L 501.171868 301.914058 L 493.164055 301.640621 L 477.30468 301.171871 L 469.453118 300.976558 L 461.640618 300.820308 L 453.867181 300.703121 L 446.171868 300.624996 L 438.554681 300.546871 L 430.976556 300.546871 L 423.476556 300.585933 L 416.054681 300.624996 L 408.710931 300.781246 L 401.484369 300.937496 L 394.296869 301.132808 L 387.226557 301.406246 L 380.195307 301.718746 L 373.320307 302.10937 L 366.48437 302.539058 L 359.804682 303.007808 L 353.20312 303.554683 L 346.718745 304.179683 L 340.312495 304.843745 L 334.062495 305.585933 L 327.929683 306.406245 L 321.914058 307.304683 L 316.01562 308.242183 L 310.23437 309.257808 L 304.60937 310.39062 L 299.140621 311.562495 L 293.789058 312.851558 L 288.554683 314.179683 L 283.476558 315.624995 L 278.593746 317.148433 L 273.828121 318.789058 L 269.218746 320.468745 L 264.804684 322.26562 L 260.507809 324.14062 L 256.406246 326.132808 L 252.460934 328.242183 L 248.710934 330.429683 L 245.156246 332.695308 L 241.718746 335.07812 L 238.515621 337.617182 L 235.507809 340.195307 L 232.656247 342.929682 L 230.039059 345.742182 L 227.617184 348.710932 L 225.351559 351.757807 L 223.359372 354.960932 L 221.523434 358.242182 Z M 219.921872 361.679682 " transform="matrix(0.2, 0, 0, -0.2, 0, 404)"/>
<path fill-rule="nonzero" fill="rgb(100%, 100%, 100%)" fill-opacity="1" d="M 362.5 154.898438 L 386.023438 154.898438 L 386.023438 180.578125 L 362.5 180.578125 Z M 362.5 154.898438 "/>
<path fill-rule="nonzero" fill="rgb(0%, 0%, 0%)" fill-opacity="1" d="M 379.121094 162.164062 C 379.214844 161.851562 379.214844 161.820312 379.214844 161.664062 C 379.214844 161.257812 378.902344 161.070312 378.589844 161.070312 C 378.371094 161.070312 378.027344 161.195312 377.808594 161.539062 C 377.777344 161.632812 377.589844 162.320312 377.527344 162.726562 C 377.371094 163.289062 377.214844 163.882812 377.089844 164.445312 L 376.089844 168.382812 C 375.996094 168.695312 375.058594 170.226562 373.621094 170.226562 C 372.527344 170.226562 372.277344 169.289062 372.277344 168.476562 C 372.277344 167.476562 372.652344 166.101562 373.402344 164.195312 C 373.746094 163.289062 373.839844 163.070312 373.839844 162.632812 C 373.839844 161.632812 373.121094 160.820312 372.027344 160.820312 C 369.964844 160.820312 369.152344 164.007812 369.152344 164.195312 C 369.152344 164.414062 369.371094 164.414062 369.433594 164.414062 C 369.652344 164.414062 369.652344 164.382812 369.777344 164.007812 C 370.371094 161.976562 371.246094 161.320312 371.964844 161.320312 C 372.152344 161.320312 372.527344 161.320312 372.527344 162.007812 C 372.527344 162.570312 372.308594 163.132812 372.152344 163.539062 C 371.277344 165.851562 370.871094 167.101562 370.871094 168.132812 C 370.871094 170.070312 372.246094 170.726562 373.558594 170.726562 C 374.402344 170.726562 375.121094 170.351562 375.746094 169.726562 C 375.464844 170.882812 375.214844 171.945312 374.339844 173.101562 C 373.777344 173.820312 372.933594 174.476562 371.933594 174.476562 C 371.621094 174.476562 370.652344 174.414062 370.277344 173.539062 C 370.621094 173.539062 370.902344 173.539062 371.214844 173.289062 C 371.433594 173.101562 371.652344 172.820312 371.652344 172.382812 C 371.652344 171.726562 371.058594 171.632812 370.839844 171.632812 C 370.339844 171.632812 369.621094 171.976562 369.621094 173.039062 C 369.621094 174.132812 370.589844 174.945312 371.933594 174.945312 C 374.183594 174.945312 376.433594 172.976562 377.027344 170.507812 Z M 379.121094 162.164062 "/>
<path fill-rule="nonzero" fill="rgb(0%, 0%, 0%)" fill-opacity="1" d="M 346.390625 323.695312 L 346.875 323.46875 L 347.351562 323.195312 L 347.804688 322.875 L 348.234375 322.5 L 348.65625 322.085938 L 349.0625 321.625 L 349.445312 321.109375 L 349.8125 320.5625 L 350.171875 319.960938 L 350.507812 319.320312 L 350.835938 318.632812 L 351.140625 317.914062 L 351.4375 317.140625 L 351.71875 316.335938 L 351.984375 315.492188 L 352.242188 314.609375 L 352.476562 313.6875 L 352.703125 312.734375 L 352.921875 311.734375 L 353.125 310.710938 L 353.3125 309.648438 L 353.492188 308.554688 L 353.664062 307.421875 L 353.820312 306.257812 L 353.960938 305.070312 L 354.101562 303.84375 L 354.226562 302.59375 L 354.34375 301.3125 L 354.445312 300.007812 L 354.546875 298.671875 L 354.632812 297.304688 L 354.71875 295.921875 L 354.789062 294.507812 L 354.851562 293.070312 L 354.90625 291.609375 L 354.960938 290.132812 L 355.007812 288.625 L 355.039062 287.101562 L 355.070312 285.5625 L 355.101562 283.992188 L 355.117188 282.414062 L 355.132812 280.8125 L 355.140625 279.203125 L 355.140625 274.265625 L 355.132812 272.585938 L 355.125 270.898438 L 355.09375 267.492188 L 355.078125 265.765625 L 355.054688 264.039062 L 355.007812 260.554688 L 354.960938 257.039062 L 354.9375 255.273438 L 354.90625 253.507812 L 354.882812 251.726562 L 354.859375 249.953125 L 354.828125 248.171875 L 354.8125 246.390625 L 354.765625 242.828125 L 354.71875 237.484375 L 354.710938 235.710938 L 354.703125 233.945312 L 354.703125 230.421875 L 354.71875 226.921875 L 354.734375 225.1875 L 354.757812 223.453125 L 354.78125 221.734375 L 354.8125 220.03125 L 354.851562 218.328125 L 354.898438 216.648438 L 354.953125 214.976562 L 355.007812 213.320312 L 355.070312 211.671875 L 355.148438 210.046875 L 355.234375 208.429688 L 355.320312 206.835938 L 355.421875 205.257812 L 355.53125 203.703125 L 355.648438 202.15625 L 355.78125 200.640625 L 355.914062 199.140625 L 356.0625 197.664062 L 356.226562 196.210938 L 356.390625 194.773438 L 356.578125 193.367188 L 356.765625 191.984375 L 356.976562 190.625 L 357.1875 189.296875 L 357.421875 187.992188 L 357.664062 186.71875 L 357.921875 185.46875 L 358.1875 184.257812 L 358.476562 183.070312 L 358.773438 181.914062 L 359.085938 180.789062 L 359.40625 179.703125 L 359.75 178.640625 L 360.109375 177.625 L 360.484375 176.632812 L 360.875 175.6875 L 361.28125 174.773438 L 361.703125 173.890625 L 362.140625 173.054688 L 362.601562 172.257812 L 363.078125 171.5 L 363.570312 170.78125 L 364.078125 170.109375 L 364.609375 169.476562 L 365.15625 168.882812 L 365.726562 168.34375 L 366.3125 167.835938 L 365.726562 167.335938 L 365.15625 166.789062 L 364.609375 166.203125 L 364.078125 165.570312 L 363.570312 164.890625 L 363.078125 164.171875 L 362.601562 163.421875 L 362.140625 162.617188 L 361.703125 161.78125 L 361.28125 160.90625 L 360.875 159.992188 L 360.484375 159.039062 L 360.109375 158.054688 L 359.75 157.03125 L 359.40625 155.976562 L 359.085938 154.882812 L 358.773438 153.765625 L 358.476562 152.609375 L 358.1875 151.421875 L 357.921875 150.203125 L 357.664062 148.960938 L 357.421875 147.6875 L 357.1875 146.375 L 356.976562 145.046875 L 356.765625 143.695312 L 356.578125 142.304688 L 356.390625 140.898438 L 356.226562 139.46875 L 356.0625 138.015625 L 355.914062 136.539062 L 355.78125 135.039062 L 355.648438 133.515625 L 355.53125 131.976562 L 355.421875 130.421875 L 355.320312 128.84375 L 355.234375 127.242188 L 355.148438 125.632812 L 355.070312 124 L 355.007812 122.359375 L 354.953125 120.703125 L 354.898438 119.03125 L 354.851562 117.34375 L 354.8125 115.648438 L 354.78125 113.9375 L 354.757812 112.21875 L 354.734375 110.492188 L 354.71875 108.757812 L 354.703125 105.257812 L 354.703125 101.726562 L 354.710938 99.960938 L 354.71875 98.1875 L 354.734375 96.414062 L 354.765625 92.851562 L 354.8125 89.289062 L 354.828125 87.507812 L 354.859375 85.726562 L 354.882812 83.945312 L 354.90625 82.171875 L 354.9375 80.40625 L 354.960938 78.632812 L 354.984375 76.875 L 355.03125 73.375 L 355.078125 69.90625 L 355.09375 68.1875 L 355.109375 66.476562 L 355.125 64.78125 L 355.132812 63.085938 L 355.140625 61.414062 L 355.140625 56.476562 L 355.132812 54.859375 L 355.117188 53.265625 L 355.101562 51.679688 L 355.070312 50.117188 L 355.039062 48.570312 L 355.007812 47.046875 L 354.960938 45.546875 L 354.90625 44.0625 L 354.851562 42.601562 L 354.789062 41.171875 L 354.71875 39.757812 L 354.632812 38.367188 L 354.546875 37.007812 L 354.445312 35.671875 L 354.34375 34.359375 L 354.226562 33.078125 L 354.101562 31.828125 L 353.960938 30.609375 L 353.820312 29.414062 L 353.664062 28.25 L 353.492188 27.125 L 353.3125 26.023438 L 353.125 24.96875 L 352.921875 23.9375 L 352.703125 22.945312 L 352.476562 21.984375 L 352.242188 21.0625 L 351.984375 20.179688 L 351.71875 19.335938 L 351.4375 18.53125 L 351.140625 17.765625 L 350.835938 17.039062 L 350.507812 16.359375 L 350.171875 15.710938 L 349.8125 15.117188 L 349.445312 14.5625 L 349.0625 14.054688 L 348.65625 13.59375 L 348.234375 13.171875 L 347.804688 12.804688 L 347.351562 12.476562 L 346.875 12.203125 L 346.390625 11.976562 L 347.070312 12.304688 L 347.734375 12.671875 L 348.367188 13.085938 L 348.984375 13.546875 L 349.570312 14.046875 L 350.140625 14.59375 L 350.679688 15.179688 L 351.203125 15.8125 L 351.703125 16.484375 L 352.1875 17.195312 L 352.640625 17.945312 L 353.078125 18.734375 L 353.492188 19.5625 L 353.890625 20.421875 L 354.273438 21.328125 L 354.632812 22.265625 L 354.96875 23.234375 L 355.296875 24.242188 L 355.601562 25.28125 L 355.882812 26.351562 L 356.15625 27.453125 L 356.40625 28.585938 L 356.648438 29.75 L 356.867188 30.945312 L 357.070312 32.171875 L 357.265625 33.421875 L 357.445312 34.695312 L 357.609375 36 L 357.757812 37.328125 L 357.890625 38.6875 L 358.015625 40.070312 L 358.125 41.46875 L 358.21875 42.898438 L 358.304688 44.34375 L 358.375 45.8125 L 358.445312 47.304688 L 358.492188 48.8125 L 358.539062 50.34375 L 358.570312 51.882812 L 358.59375 53.453125 L 358.609375 55.03125 L 358.617188 56.625 L 358.609375 58.242188 L 358.601562 59.867188 L 358.585938 61.507812 L 358.5625 63.15625 L 358.53125 64.820312 L 358.492188 66.5 L 358.445312 68.1875 L 358.398438 69.882812 L 358.34375 71.585938 L 358.289062 73.304688 L 358.21875 75.023438 L 358.15625 76.75 L 358.085938 78.484375 L 358.015625 80.226562 L 357.859375 83.710938 L 357.78125 85.46875 L 357.695312 87.21875 L 357.617188 88.976562 L 357.53125 90.726562 L 357.445312 92.484375 L 357.367188 94.242188 L 357.28125 95.992188 L 357.203125 97.742188 L 357.117188 99.492188 L 356.960938 102.976562 L 356.882812 104.710938 L 356.8125 106.4375 L 356.742188 108.15625 L 356.679688 109.867188 L 356.625 111.570312 L 356.5625 113.273438 L 356.46875 116.632812 L 356.429688 118.296875 L 356.390625 119.945312 L 356.367188 121.585938 L 356.34375 123.210938 L 356.328125 124.820312 L 356.328125 127.992188 L 356.34375 129.554688 L 356.359375 131.101562 L 356.382812 132.632812 L 356.429688 134.140625 L 356.46875 135.632812 L 356.53125 137.09375 L 356.601562 138.546875 L 356.679688 139.96875 L 356.773438 141.375 L 356.882812 142.75 L 356.992188 144.101562 L 357.125 145.429688 L 357.273438 146.734375 L 357.429688 148.007812 L 357.59375 149.257812 L 357.78125 150.484375 L 357.984375 151.671875 L 358.195312 152.835938 L 358.429688 153.96875 L 358.671875 155.070312 L 358.9375 156.140625 L 359.21875 157.179688 L 359.515625 158.179688 L 359.828125 159.148438 L 360.15625 160.085938 L 360.515625 160.984375 L 360.882812 161.84375 L 361.265625 162.671875 L 361.679688 163.453125 L 362.109375 164.203125 L 362.554688 164.90625 L 363.023438 165.578125 L 363.515625 166.210938 L 364.03125 166.796875 L 364.5625 167.34375 L 365.117188 167.835938 L 364.5625 168.335938 L 364.03125 168.882812 L 363.515625 169.46875 L 363.023438 170.09375 L 362.554688 170.765625 L 362.109375 171.46875 L 361.679688 172.21875 L 361.265625 173.007812 L 360.882812 173.828125 L 360.515625 174.695312 L 360.15625 175.59375 L 359.828125 176.523438 L 359.515625 177.492188 L 359.21875 178.5 L 358.9375 179.539062 L 358.671875 180.609375 L 358.429688 181.710938 L 358.195312 182.84375 L 357.984375 184 L 357.78125 185.195312 L 357.59375 186.414062 L 357.429688 187.664062 L 357.273438 188.9375 L 357.125 190.242188 L 356.992188 191.570312 L 356.882812 192.929688 L 356.773438 194.304688 L 356.679688 195.710938 L 356.601562 197.132812 L 356.53125 198.578125 L 356.46875 200.046875 L 356.429688 201.539062 L 356.382812 203.039062 L 356.359375 204.570312 L 356.34375 206.117188 L 356.328125 207.679688 L 356.328125 210.851562 L 356.34375 212.460938 L 356.390625 215.726562 L 356.429688 217.382812 L 356.46875 219.046875 L 356.515625 220.71875 L 356.5625 222.40625 L 356.625 224.101562 L 356.679688 225.804688 L 356.742188 227.523438 L 356.8125 229.242188 L 356.882812 230.96875 L 356.960938 232.703125 L 357.117188 236.1875 L 357.203125 237.9375 L 357.28125 239.679688 L 357.367188 241.4375 L 357.445312 243.195312 L 357.53125 244.945312 L 357.617188 246.703125 L 357.695312 248.453125 L 357.78125 250.210938 L 357.9375 253.710938 L 358.015625 255.453125 L 358.085938 257.1875 L 358.15625 258.929688 L 358.21875 260.65625 L 358.289062 262.375 L 358.398438 265.796875 L 358.445312 267.492188 L 358.492188 269.179688 L 358.53125 270.851562 L 358.5625 272.515625 L 358.585938 274.171875 L 358.601562 275.8125 L 358.609375 277.4375 L 358.617188 279.046875 L 358.609375 280.648438 L 358.59375 282.226562 L 358.570312 283.789062 L 358.539062 285.335938 L 358.492188 286.859375 L 358.445312 288.375 L 358.375 289.859375 L 358.304688 291.328125 L 358.21875 292.78125 L 358.125 294.203125 L 358.015625 295.609375 L 357.890625 296.984375 L 357.757812 298.34375 L 357.609375 299.679688 L 357.445312 300.976562 L 357.265625 302.257812 L 357.070312 303.507812 L 356.867188 304.734375 L 356.648438 305.921875 L 356.40625 307.085938 L 356.15625 308.21875 L 355.882812 309.328125 L 355.601562 310.398438 L 355.296875 311.4375 L 354.96875 312.4375 L 354.632812 313.414062 L 354.273438 314.351562 L 353.890625 315.25 L 353.492188 316.117188 L 353.078125 316.945312 L 352.640625 317.726562 L 352.1875 318.484375 L 351.703125 319.195312 L 351.203125 319.867188 L 350.679688 320.492188 L 350.140625 321.085938 L 349.570312 321.632812 L 348.984375 322.132812 L 348.367188 322.59375 L 347.734375 323.007812 L 347.070312 323.375 L 346.390625 323.695312 "/>
<path fill="none" stroke-width="3.985" stroke-linecap="butt" stroke-linejoin="miter" stroke="rgb(0%, 0%, 0%)" stroke-opacity="1" stroke-miterlimit="10" d="M 1731.953099 401.523432 L 1734.374974 402.656244 L 1736.757787 404.023431 L 1739.023412 405.624994 L 1741.171849 407.499994 L 1743.281224 409.570306 L 1745.312474 411.874994 L 1747.226536 414.453119 L 1749.062474 417.187494 L 1750.859349 420.195306 L 1752.539036 423.398431 L 1754.179661 426.835931 L 1755.703099 430.429681 L 1757.187474 434.296869 L 1758.593724 438.320306 L 1759.921849 442.539056 L 1761.210911 446.953118 L 1762.382786 451.562493 L 1763.515599 456.328118 L 1764.609349 461.328118 L 1765.624974 466.445306 L 1766.562474 471.757805 L 1767.460911 477.226555 L 1768.320286 482.890618 L 1769.101536 488.71093 L 1769.804661 494.64843 L 1770.507786 500.781243 L 1771.132786 507.031242 L 1771.718724 513.437492 L 1772.226536 519.96093 L 1772.734349 526.640617 L 1773.164036 533.476555 L 1773.593724 540.390617 L 1773.945286 547.460929 L 1774.257786 554.648429 L 1774.531224 561.953117 L 1774.804661 569.335929 L 1775.039036 576.874991 L 1775.195286 584.492179 L 1775.351536 592.187491 L 1775.507786 600.039054 L 1775.585911 607.929678 L 1775.664036 615.937491 L 1775.703099 623.984366 L 1775.703099 648.671865 L 1775.664036 657.070303 L 1775.624974 665.507803 L 1775.468724 682.539052 L 1775.390599 691.171865 L 1775.273411 699.804677 L 1775.039036 717.226552 L 1774.804661 734.804677 L 1774.687474 743.632801 L 1774.531224 752.460926 L 1774.414036 761.367176 L 1774.296849 770.234364 L 1774.140599 779.140613 L 1774.062474 788.046863 L 1773.828099 805.859363 L 1773.593724 832.578113 L 1773.554661 841.4453 L 1773.515599 850.273425 L 1773.515599 867.890612 L 1773.593724 885.390612 L 1773.671849 894.062487 L 1773.789036 902.734362 L 1773.906224 911.328111 L 1774.062474 919.843736 L 1774.257786 928.359361 L 1774.492161 936.757799 L 1774.765599 945.117173 L 1775.039036 953.398423 L 1775.351536 961.640611 L 1775.742161 969.765611 L 1776.171849 977.851548 L 1776.601536 985.820298 L 1777.109349 993.710923 L 1777.656224 1001.48436 L 1778.242161 1009.218735 L 1778.906223 1016.79686 L 1779.570286 1024.29686 L 1780.312473 1031.679672 L 1781.132786 1038.945297 L 1781.953098 1046.132797 L 1782.890598 1053.164047 L 1783.828098 1060.078109 L 1784.882786 1066.874984 L 1785.937473 1073.515609 L 1787.109348 1080.039046 L 1788.320286 1086.406234 L 1789.609348 1092.656234 L 1790.937473 1098.710921 L 1792.382786 1104.648421 L 1793.867161 1110.429671 L 1795.429661 1116.054671 L 1797.031223 1121.484358 L 1798.749973 1126.796858 L 1800.546848 1131.874983 L 1802.421848 1136.835921 L 1804.374973 1141.562483 L 1806.406223 1146.132795 L 1808.515598 1150.546858 L 1810.703098 1154.726545 L 1813.007785 1158.71092 L 1815.390598 1162.499983 L 1817.851535 1166.093733 L 1820.390598 1169.453108 L 1823.046848 1172.61717 L 1825.781223 1175.58592 L 1828.632785 1178.281232 L 1831.562473 1180.820295 L 1828.632785 1183.320295 L 1825.781223 1186.05467 L 1823.046848 1188.984357 L 1820.390598 1192.14842 L 1817.851535 1195.546857 L 1815.390598 1199.140607 L 1813.007785 1202.890607 L 1810.703098 1206.914045 L 1808.515598 1211.093732 L 1806.406223 1215.468732 L 1804.374973 1220.039044 L 1802.421848 1224.804669 L 1800.546848 1229.726544 L 1798.749973 1234.843732 L 1797.031223 1240.117169 L 1795.429661 1245.585919 L 1793.867161 1251.171856 L 1792.382786 1256.953106 L 1790.937473 1262.890606 L 1789.609348 1268.984356 L 1788.320286 1275.195293 L 1787.109348 1281.562481 L 1785.937473 1288.124981 L 1784.882786 1294.765606 L 1783.828098 1301.523418 L 1782.890598 1308.476543 L 1781.953098 1315.507793 L 1781.132786 1322.65623 L 1780.312473 1329.921855 L 1779.570286 1337.304668 L 1778.906223 1344.804667 L 1778.242161 1352.421855 L 1777.656224 1360.117167 L 1777.109349 1367.890605 L 1776.601536 1375.781229 L 1776.171849 1383.789042 L 1775.742161 1391.835917 L 1775.351536 1399.999979 L 1775.039036 1408.203104 L 1774.765599 1416.484354 L 1774.492161 1424.843729 L 1774.257786 1433.281229 L 1774.062474 1441.757791 L 1773.906224 1450.312478 L 1773.789036 1458.906228 L 1773.671849 1467.539041 L 1773.593724 1476.210916 L 1773.515599 1493.710915 L 1773.515599 1511.367165 L 1773.554661 1520.19529 L 1773.593724 1529.062477 L 1773.671849 1537.929665 L 1773.828099 1555.742164 L 1774.062474 1573.554664 L 1774.140599 1582.460914 L 1774.296849 1591.367164 L 1774.414036 1600.273414 L 1774.531224 1609.140601 L 1774.687474 1617.968726 L 1774.804661 1626.835913 L 1774.921849 1635.624976 L 1775.156224 1653.124975 L 1775.390599 1670.468725 L 1775.468724 1679.062475 L 1775.546849 1687.617162 L 1775.624974 1696.093725 L 1775.664036 1704.570287 L 1775.703099 1712.929662 L 1775.703099 1737.617162 L 1775.664036 1745.703099 L 1775.585911 1753.671849 L 1775.507786 1761.601536 L 1775.351536 1769.414036 L 1775.195286 1777.148411 L 1775.039036 1784.765598 L 1774.804661 1792.265598 L 1774.531224 1799.687473 L 1774.257786 1806.992161 L 1773.945286 1814.140598 L 1773.593724 1821.21091 L 1773.164036 1828.164035 L 1772.734349 1834.96091 L 1772.226536 1841.640598 L 1771.718724 1848.203097 L 1771.132786 1854.609347 L 1770.507786 1860.859347 L 1769.804661 1866.953097 L 1769.101536 1872.92966 L 1768.320286 1878.749972 L 1767.460911 1884.374972 L 1766.562474 1889.882784 L 1765.624974 1895.156222 L 1764.609349 1900.312472 L 1763.515599 1905.273409 L 1762.382786 1910.078097 L 1761.210911 1914.687471 L 1759.921849 1919.101534 L 1758.593724 1923.320284 L 1757.187474 1927.343721 L 1755.703099 1931.171846 L 1754.179661 1934.804659 L 1752.539036 1938.203096 L 1750.859349 1941.445284 L 1749.062474 1944.414034 L 1747.226536 1947.187471 L 1745.312474 1949.726533 L 1743.281224 1952.031221 L 1741.171849 1954.140596 L 1739.023412 1955.976533 L 1736.757787 1957.617158 L 1734.374974 1958.984346 L 1731.953099 1960.117158 L 1735.351537 1958.476533 L 1738.671849 1956.640596 L 1741.835912 1954.570283 L 1744.921849 1952.265596 L 1747.851536 1949.765596 L 1750.703099 1947.031221 L 1753.398411 1944.101534 L 1756.015599 1940.937471 L 1758.515599 1937.578096 L 1760.937474 1934.023409 L 1763.203099 1930.273409 L 1765.390599 1926.328096 L 1767.460911 1922.187471 L 1769.453099 1917.890596 L 1771.367161 1913.359346 L 1773.164036 1908.671847 L 1774.843724 1903.828097 L 1776.484349 1898.789034 L 1778.007786 1893.593722 L 1779.414036 1888.242159 L 1780.781223 1882.734347 L 1782.031223 1877.070285 L 1783.242161 1871.249972 L 1784.335911 1865.27341 L 1785.351536 1859.140597 L 1786.328098 1852.890597 L 1787.226536 1846.52341 L 1788.046848 1839.999973 L 1788.789036 1833.359348 L 1789.453098 1826.562473 L 1790.078098 1819.64841 L 1790.624973 1812.656223 L 1791.093723 1805.507786 L 1791.523411 1798.281223 L 1791.874973 1790.937473 L 1792.226536 1783.476536 L 1792.460911 1775.937474 L 1792.695286 1768.281224 L 1792.851536 1760.585911 L 1792.968723 1752.734349 L 1793.046848 1744.843724 L 1793.085911 1736.874974 L 1793.046848 1728.789037 L 1793.007786 1720.664037 L 1792.929661 1712.460912 L 1792.812473 1704.218725 L 1792.656223 1695.898412 L 1792.460911 1687.499975 L 1792.226536 1679.062475 L 1791.992161 1670.585913 L 1791.718723 1662.070288 L 1791.445286 1653.476538 L 1791.093723 1644.882788 L 1790.781223 1636.249976 L 1790.429661 1627.578101 L 1790.078098 1618.867163 L 1789.296848 1601.445289 L 1788.906223 1592.656226 L 1788.476536 1583.906226 L 1788.085911 1575.117164 L 1787.656223 1566.367164 L 1787.226536 1557.578102 L 1786.835911 1548.789039 L 1786.406223 1540.03904 L 1786.015598 1531.28904 L 1785.585911 1522.53904 L 1784.804661 1505.117165 L 1784.414036 1496.44529 L 1784.062473 1487.812478 L 1783.710911 1479.218728 L 1783.398411 1470.664041 L 1783.124973 1462.148416 L 1782.812473 1453.632791 L 1782.343723 1436.835916 L 1782.148411 1428.515604 L 1781.953098 1420.273416 L 1781.835911 1412.070291 L 1781.718723 1403.945292 L 1781.640598 1395.898417 L 1781.640598 1380.039042 L 1781.718723 1372.226542 L 1781.796848 1364.492167 L 1781.914036 1356.835917 L 1782.148411 1349.296855 L 1782.343723 1341.835918 L 1782.656223 1334.53123 L 1783.007786 1327.265605 L 1783.398411 1320.15623 L 1783.867161 1313.12498 L 1784.414036 1306.249981 L 1784.960911 1299.492168 L 1785.624973 1292.851543 L 1786.367161 1286.328106 L 1787.148411 1279.960918 L 1787.968723 1273.710919 L 1788.906223 1267.578106 L 1789.921848 1261.640606 L 1790.976536 1255.820294 L 1792.148411 1250.156231 L 1793.359348 1244.648419 L 1794.687473 1239.296857 L 1796.093723 1234.101544 L 1797.578098 1229.101544 L 1799.140598 1224.257794 L 1800.781223 1219.570294 L 1802.578098 1215.078107 L 1804.414036 1210.781232 L 1806.328098 1206.640607 L 1808.398411 1202.734357 L 1810.546848 1198.984357 L 1812.77341 1195.468732 L 1815.11716 1192.109357 L 1817.578098 1188.945295 L 1820.156223 1186.015607 L 1822.812473 1183.281232 L 1825.58591 1180.820295 L 1822.812473 1178.320295 L 1820.156223 1175.58592 L 1817.578098 1172.656233 L 1815.11716 1169.531233 L 1812.77341 1166.171858 L 1810.546848 1162.656233 L 1808.398411 1158.906233 L 1806.328098 1154.96092 L 1804.414036 1150.859358 L 1802.578098 1146.52342 L 1800.781223 1142.031233 L 1799.140598 1137.382796 L 1797.578098 1132.539046 L 1796.093723 1127.499983 L 1794.687473 1122.304671 L 1793.359348 1116.953108 L 1792.148411 1111.445296 L 1790.976536 1105.781234 L 1789.921848 1099.999984 L 1788.906223 1094.023421 L 1787.968723 1087.929671 L 1787.148411 1081.679671 L 1786.367161 1075.312484 L 1785.624973 1068.789047 L 1784.960911 1062.148422 L 1784.414036 1055.351547 L 1783.867161 1048.476547 L 1783.398411 1041.445297 L 1783.007786 1034.335922 L 1782.656223 1027.10936 L 1782.343723 1019.76561 L 1782.148411 1012.304672 L 1781.914036 1004.804673 L 1781.796848 997.148423 L 1781.718723 989.414048 L 1781.640598 981.601548 L 1781.640598 965.742173 L 1781.718723 957.695298 L 1781.953098 941.367173 L 1782.148411 933.085924 L 1782.343723 924.765611 L 1782.578098 916.406236 L 1782.812473 907.968736 L 1783.124973 899.492174 L 1783.398411 890.976549 L 1783.710911 882.382799 L 1784.062473 873.789049 L 1784.414036 865.156237 L 1784.804661 856.484362 L 1785.585911 839.062487 L 1786.015598 830.312488 L 1786.406223 821.60155 L 1786.835911 812.812488 L 1787.226536 804.023426 L 1787.656223 795.273426 L 1788.085911 786.484363 L 1788.476536 777.734363 L 1788.906223 768.945301 L 1789.687473 751.445301 L 1790.078098 742.734364 L 1790.429661 734.062489 L 1790.781223 725.351552 L 1791.093723 716.718739 L 1791.445286 708.124989 L 1791.992161 691.015615 L 1792.226536 682.539052 L 1792.460911 674.101552 L 1792.656223 665.742178 L 1792.812473 657.421865 L 1792.929661 649.140615 L 1793.007786 640.93749 L 1793.046848 632.812491 L 1793.085911 624.765616 L 1793.046848 616.757803 L 1792.968723 608.867178 L 1792.851536 601.054679 L 1792.695286 593.320304 L 1792.460911 585.703116 L 1792.226536 578.124991 L 1791.874973 570.703116 L 1791.523411 563.359367 L 1791.093723 556.093742 L 1790.624973 548.984367 L 1790.078098 541.953117 L 1789.453098 535.078117 L 1788.789036 528.281242 L 1788.046848 521.601555 L 1787.226536 515.11718 L 1786.328098 508.71093 L 1785.351536 502.46093 L 1784.335911 496.328118 L 1783.242161 490.390618 L 1782.031223 484.570305 L 1780.781223 478.906243 L 1779.414036 473.359368 L 1778.007786 468.007806 L 1776.484349 462.812493 L 1774.843724 457.812493 L 1773.164036 452.929681 L 1771.367161 448.242181 L 1769.453099 443.749993 L 1767.460911 439.414056 L 1765.390599 435.273431 L 1763.203099 431.367181 L 1760.937474 427.578119 L 1758.515599 424.023431 L 1756.015599 420.664056 L 1753.398411 417.539056 L 1750.703099 414.570306 L 1747.851536 411.835931 L 1744.921849 409.335931 L 1741.835912 407.031244 L 1738.671849 404.960931 L 1735.351537 403.124994 Z M 1731.953099 401.523432 " transform="matrix(0.2, 0, 0, -0.2, 0, 404)"/>
<path fill-rule="nonzero" fill="rgb(100%, 100%, 100%)" fill-opacity="1" d="M 10.453125 -5.757812 L 39.976562 -5.757812 L 39.976562 21.125 L 10.453125 21.125 Z M 10.453125 -5.757812 "/>
<path fill-rule="nonzero" fill="rgb(0%, 0%, 0%)" fill-opacity="1" d="M 29.511719 2.695312 L 29.792969 2.382812 C 30.449219 1.726562 31.167969 0.976562 32.667969 0.882812 C 32.917969 0.851562 33.105469 0.851562 33.105469 0.476562 C 33.105469 0.289062 32.980469 0.195312 32.824219 0.195312 C 32.261719 0.195312 31.605469 0.257812 31.042969 0.257812 C 30.324219 0.257812 29.542969 0.195312 28.855469 0.195312 C 28.730469 0.195312 28.449219 0.195312 28.449219 0.632812 C 28.449219 0.851562 28.636719 0.882812 28.761719 0.882812 C 28.917969 0.882812 29.542969 0.914062 29.542969 1.382812 C 29.542969 1.757812 29.042969 2.320312 28.949219 2.414062 L 23.886719 8.257812 L 21.511719 1.789062 C 21.355469 1.476562 21.355469 1.414062 21.355469 1.414062 C 21.355469 0.882812 22.449219 0.882812 22.667969 0.882812 C 22.949219 0.882812 23.167969 0.882812 23.167969 0.445312 C 23.167969 0.195312 22.917969 0.195312 22.855469 0.195312 C 22.230469 0.195312 20.699219 0.257812 20.105469 0.257812 C 19.542969 0.257812 18.199219 0.195312 17.667969 0.195312 C 17.542969 0.195312 17.230469 0.195312 17.230469 0.632812 C 17.230469 0.882812 17.449219 0.882812 17.730469 0.882812 C 19.042969 0.882812 19.136719 1.070312 19.324219 1.632812 L 22.011719 8.789062 C 22.042969 8.851562 22.105469 9.101562 22.105469 9.164062 C 22.105469 9.226562 21.230469 12.757812 21.136719 13.132812 C 20.855469 14.351562 20.824219 14.414062 19.074219 14.414062 C 18.667969 14.414062 18.480469 14.414062 18.480469 14.851562 C 18.480469 15.101562 18.761719 15.101562 18.792969 15.101562 C 19.417969 15.101562 20.917969 15.039062 21.542969 15.039062 C 22.136719 15.039062 23.730469 15.101562 24.324219 15.101562 C 24.480469 15.101562 24.761719 15.101562 24.761719 14.664062 C 24.761719 14.414062 24.542969 14.414062 24.136719 14.414062 C 24.105469 14.414062 23.667969 14.414062 23.292969 14.382812 C 22.855469 14.351562 22.730469 14.289062 22.730469 14.039062 C 22.730469 13.882812 22.917969 13.101562 23.011719 12.664062 L 23.792969 9.570312 C 23.886719 9.164062 23.917969 9.101562 24.105469 8.914062 Z M 29.511719 2.695312 "/>
<path fill="none" stroke-width="11.9553" stroke-linecap="butt" stroke-linejoin="miter" stroke="rgb(0%, 0%, 0%)" stroke-opacity="1" stroke-miterlimit="10" d="M 156.796873 381.601557 L 1820.039035 381.601557 " transform="matrix(0.2, 0, 0, -0.2, 0, 404)"/>
<path fill="none" stroke-width="11.9553" stroke-linecap="butt" stroke-linejoin="miter" stroke="rgb(0%, 0%, 0%)" stroke-opacity="1" stroke-miterlimit="10" d="M 199.999997 338.398432 L 199.999997 2001.601533 " transform="matrix(0.2, 0, 0, -0.2, 0, 404)"/>
<path fill-rule="nonzero" fill="rgb(0%, 0%, 0%)" fill-opacity="1" d="M 157.597656 396.253906 C 158.785156 395.847656 160.785156 395.253906 160.785156 393.316406 C 160.785156 391.003906 158.066406 389.941406 156.097656 389.941406 C 155.160156 389.941406 154.191406 390.160156 153.347656 390.660156 C 153.222656 390.722656 153.066406 390.910156 152.910156 390.910156 C 152.597656 390.910156 152.035156 389.941406 151.722656 389.941406 C 151.535156 389.941406 151.503906 390.160156 151.503906 390.253906 L 151.503906 393.816406 C 151.503906 393.941406 151.597656 394.097656 151.785156 394.097656 C 152.097656 394.097656 152.066406 393.472656 152.160156 393.128906 C 152.628906 391.410156 154.191406 390.660156 155.691406 390.566406 L 156.097656 390.566406 C 157.441406 390.566406 159.003906 391.441406 159.003906 393.316406 C 159.003906 395.128906 157.222656 396.066406 155.566406 396.066406 C 155.253906 396.066406 154.941406 396.066406 154.628906 396.066406 L 154.472656 396.066406 C 154.285156 396.066406 154.066406 396.066406 154.066406 396.285156 L 154.066406 396.316406 C 154.097656 396.503906 154.285156 396.535156 154.472656 396.535156 L 156.316406 396.535156 C 157.878906 396.660156 159.316406 397.691406 159.472656 399.316406 L 159.472656 399.535156 C 159.472656 401.378906 157.753906 402.535156 156.003906 402.535156 C 154.097656 402.535156 152.128906 401.910156 151.816406 399.535156 C 151.816406 399.378906 151.753906 399.191406 151.535156 399.191406 C 151.316406 399.222656 151.285156 399.378906 151.285156 399.535156 C 151.285156 402.128906 153.878906 403.160156 156.128906 403.160156 C 158.191406 403.160156 161.066406 402.191406 161.316406 399.722656 L 161.316406 399.597656 C 161.316406 397.628906 159.253906 396.660156 157.597656 396.253906 Z M 157.597656 396.253906 "/>
<path fill-rule="nonzero" fill="rgb(0%, 0%, 0%)" fill-opacity="1" d="M 169.695312 389.941406 C 166.320312 390.347656 163.632812 393.003906 163.632812 396.597656 C 163.632812 399.878906 166.226562 403.128906 170.101562 403.128906 C 173.601562 403.128906 176.570312 400.222656 176.570312 396.597656 C 176.570312 393.410156 174.070312 389.941406 170.132812 389.941406 C 170.007812 389.941406 169.851562 389.941406 169.695312 389.941406 Z M 165.507812 396.816406 L 165.507812 396.472656 C 165.507812 393.972656 166.414062 391.035156 169.570312 390.503906 C 169.757812 390.472656 169.914062 390.472656 170.101562 390.472656 C 172.914062 390.472656 174.664062 393.191406 174.664062 396.222656 C 174.664062 398.628906 173.945312 401.691406 170.976562 402.472656 C 170.695312 402.535156 170.414062 402.566406 170.132812 402.566406 L 169.945312 402.566406 C 167.351562 402.472656 165.945312 400.003906 165.601562 397.597656 Z M 165.507812 396.816406 "/>
<path fill-rule="nonzero" fill="rgb(0%, 0%, 0%)" fill-opacity="1" d="M 179.027344 390.285156 L 179.027344 390.878906 L 179.464844 390.878906 C 180.058594 390.878906 180.683594 390.972656 180.683594 391.847656 L 180.683594 401.316406 C 180.683594 402.160156 179.964844 402.191406 179.308594 402.191406 L 179.027344 402.191406 L 179.027344 402.785156 L 184.808594 402.785156 C 185.214844 402.785156 185.589844 402.816406 185.996094 402.816406 C 187.996094 402.816406 190.339844 401.878906 190.558594 399.472656 L 190.558594 399.285156 C 190.558594 396.753906 187.683594 395.722656 185.777344 395.722656 C 184.527344 395.722656 183.339844 395.847656 182.152344 395.941406 L 182.152344 391.722656 C 182.152344 391.285156 182.214844 390.878906 182.996094 390.878906 L 185.308594 390.878906 C 186.277344 390.878906 187.371094 390.941406 188.089844 391.660156 C 188.777344 392.378906 188.871094 393.597656 188.964844 394.535156 L 189.496094 394.535156 L 189.027344 390.285156 Z M 182.152344 396.566406 C 182.402344 396.566406 182.652344 396.503906 182.902344 396.472656 L 184.277344 396.410156 C 184.558594 396.378906 184.839844 396.347656 185.152344 396.347656 C 186.714844 396.347656 188.683594 397.347656 188.683594 399.191406 C 188.683594 400.941406 187.339844 402.222656 185.339844 402.222656 C 185.058594 402.222656 184.746094 402.191406 184.496094 402.191406 L 182.964844 402.191406 C 182.496094 402.191406 182.246094 402.160156 182.152344 401.535156 Z M 182.152344 396.566406 "/>
<path fill-rule="nonzero" fill="rgb(0%, 0%, 0%)" fill-opacity="1" d="M 192.90625 390.285156 L 192.90625 390.878906 L 193.375 390.878906 C 193.96875 390.878906 194.5625 390.972656 194.5625 391.847656 L 194.5625 401.316406 C 194.5625 402.160156 193.875 402.191406 193.1875 402.191406 L 192.90625 402.191406 L 192.90625 402.785156 L 197.8125 402.785156 L 197.8125 402.191406 L 197.375 402.191406 C 196.75 402.191406 196.15625 402.128906 196.15625 401.253906 L 196.15625 397.066406 L 199.875 397.066406 C 201.65625 396.941406 203.9375 395.753906 203.9375 393.722656 C 203.9375 391.503906 201.59375 390.441406 199.6875 390.285156 Z M 196.125 396.535156 L 196.125 391.535156 C 196.21875 390.941406 196.46875 390.878906 196.875 390.878906 L 198.3125 390.878906 C 199.9375 390.878906 202.0625 390.941406 202.0625 393.722656 C 202.0625 394.378906 201.96875 395.066406 201.5625 395.566406 C 200.90625 396.347656 199.8125 396.535156 198.84375 396.535156 Z M 196.125 396.535156 "/>
<path fill-rule="nonzero" fill="rgb(0%, 0%, 0%)" fill-opacity="1" d="M 208.632812 400.503906 C 208.132812 400.597656 207.632812 401.035156 207.632812 401.628906 C 207.632812 402.253906 208.164062 402.785156 208.789062 402.785156 C 209.414062 402.785156 209.976562 402.316406 209.976562 401.660156 C 209.976562 401.035156 209.445312 400.472656 208.820312 400.472656 C 208.757812 400.472656 208.695312 400.503906 208.632812 400.503906 Z M 208.632812 400.503906 "/>
<path fill-rule="nonzero" fill="rgb(0%, 0%, 0%)" fill-opacity="1" d="M 223.410156 399.847656 C 223.503906 399.878906 223.660156 399.910156 223.816406 399.910156 C 224.472656 399.910156 224.847656 399.410156 224.847656 398.816406 C 224.847656 398.222656 224.378906 397.785156 223.816406 397.785156 C 223.222656 397.785156 222.722656 398.222656 222.722656 398.910156 C 222.722656 401.222656 224.628906 403.285156 227.191406 403.285156 C 230.097656 403.285156 232.472656 400.941406 232.472656 397.972656 C 232.472656 395.597656 231.128906 393.535156 228.722656 392.847656 C 228.472656 392.785156 228.191406 392.785156 227.910156 392.785156 C 226.660156 392.785156 225.535156 393.191406 224.660156 394.097656 L 224.660156 389.097656 C 225.410156 389.222656 226.097656 389.441406 226.878906 389.441406 C 228.472656 389.441406 230.066406 388.847656 231.253906 387.566406 C 231.378906 387.410156 231.535156 387.316406 231.535156 387.128906 L 231.535156 387.097656 C 231.503906 386.972656 231.410156 386.910156 231.316406 386.910156 C 231.253906 386.910156 231.253906 386.910156 231.191406 386.941406 C 230.035156 387.347656 229.035156 387.660156 227.816406 387.660156 C 226.753906 387.660156 225.628906 387.503906 224.660156 387.066406 C 224.535156 387.003906 224.441406 386.941406 224.285156 386.910156 L 224.222656 386.910156 C 224.128906 386.910156 224.035156 387.003906 224.035156 387.128906 L 224.035156 394.722656 C 224.035156 394.941406 224.066406 395.128906 224.316406 395.128906 C 224.597656 395.128906 224.753906 394.691406 224.941406 394.503906 C 225.691406 393.722656 226.691406 393.285156 227.785156 393.253906 C 228.941406 393.253906 229.660156 394.035156 230.097656 394.972656 C 230.535156 395.910156 230.535156 397.066406 230.535156 398.097656 C 230.535156 399.753906 230.191406 401.503906 228.472656 402.347656 C 228.035156 402.566406 227.566406 402.660156 227.128906 402.660156 C 225.410156 402.660156 223.910156 401.472656 223.410156 399.847656 Z M 223.410156 399.847656 "/>
<path fill-rule="nonzero" fill="rgb(0%, 0%, 0%)" fill-opacity="1" d="M 236.527344 388.410156 L 236.527344 389.128906 C 237.621094 389.128906 238.652344 388.941406 239.683594 388.472656 L 239.683594 401.035156 C 239.683594 401.972656 238.777344 402.128906 237.808594 402.128906 C 237.402344 402.128906 236.996094 402.097656 236.652344 402.097656 L 236.652344 402.785156 L 244.371094 402.785156 L 244.371094 402.097656 C 243.996094 402.097656 243.558594 402.128906 243.152344 402.128906 C 242.214844 402.128906 241.339844 401.972656 241.339844 401.066406 L 241.339844 387.253906 C 241.339844 387.097656 241.308594 386.910156 241.058594 386.910156 C 240.746094 386.910156 240.402344 387.347656 240.089844 387.535156 C 239.027344 388.222656 237.746094 388.410156 236.527344 388.410156 Z M 236.527344 388.410156 "/>
<path fill-rule="nonzero" fill="rgb(0%, 0%, 0%)" fill-opacity="1" d="M 250.140625 400.503906 C 249.640625 400.597656 249.140625 401.035156 249.140625 401.628906 C 249.140625 402.253906 249.671875 402.785156 250.296875 402.785156 C 250.921875 402.785156 251.484375 402.316406 251.484375 401.660156 C 251.484375 401.035156 250.953125 400.472656 250.328125 400.472656 C 250.265625 400.472656 250.203125 400.503906 250.140625 400.503906 Z M 250.140625 400.503906 "/>
</svg>
