<?xml version="1.0" encoding="UTF-8"?>
<svg xmlns="http://www.w3.org/2000/svg" xmlns:xlink="http://www.w3.org/1999/xlink" width="470" height="298" viewBox="0 0 470 298">
<path fill-rule="nonzero" fill="rgb(94.901961%, 94.901961%, 94.901961%)" fill-opacity="1" d="M 166 205.28125 L 252.398438 205.28125 L 252.398438 176.476562 L 166 176.476562 L 166 205.28125 "/>
<path fill="none" stroke-width="11.9553" stroke-linecap="butt" stroke-linejoin="miter" stroke="rgb(0%, 0%, 0%)" stroke-opacity="1" stroke-miterlimit="10" d="M 829.999988 463.593743 L 1261.992169 463.593743 L 1261.992169 607.617178 L 829.999988 607.617178 Z M 829.999988 463.593743 " transform="matrix(0.2, 0, 0, -0.2, 0, 298)"/>
<path fill-rule="nonzero" fill="rgb(94.901961%, 94.901961%, 94.901961%)" fill-opacity="1" d="M 252.398438 205.28125 L 338.804688 205.28125 L 338.804688 147.679688 L 252.398438 147.679688 L 252.398438 205.28125 "/>
<path fill="none" stroke-width="11.9553" stroke-linecap="butt" stroke-linejoin="miter" stroke="rgb(0%, 0%, 0%)" stroke-opacity="1" stroke-miterlimit="10" d="M 1261.992169 463.593743 L 1694.023412 463.593743 L 1694.023412 751.601551 L 1261.992169 751.601551 Z M 1261.992169 463.593743 " transform="matrix(0.2, 0, 0, -0.2, 0, 298)"/>
<path fill-rule="nonzero" fill="rgb(94.901961%, 94.901961%, 94.901961%)" fill-opacity="1" d="M 338.804688 205.28125 L 425.203125 205.28125 L 425.203125 118.875 L 338.804688 118.875 L 338.804688 205.28125 "/>
<path fill="none" stroke-width="11.9553" stroke-linecap="butt" stroke-linejoin="miter" stroke="rgb(0%, 0%, 0%)" stroke-opacity="1" stroke-miterlimit="10" d="M 1694.023412 463.593743 L 2126.015593 463.593743 L 2126.015593 895.624987 L 1694.023412 895.624987 Z M 1694.023412 463.593743 " transform="matrix(0.2, 0, 0, -0.2, 0, 298)"/>
<path fill-rule="nonzero" fill="rgb(0%, 0%, 0%)" fill-opacity="1" d="M 166.796875 219.722656 C 168.609375 219.128906 169.859375 217.628906 169.859375 215.878906 C 169.859375 214.097656 167.953125 212.878906 165.859375 212.878906 C 163.640625 212.878906 161.984375 214.191406 161.984375 215.847656 C 161.984375 216.566406 162.484375 216.972656 163.109375 216.972656 C 163.765625 216.972656 164.203125 216.503906 164.203125 215.878906 C 164.203125 214.785156 163.203125 214.785156 162.859375 214.785156 C 163.546875 213.722656 164.984375 213.441406 165.765625 213.441406 C 166.671875 213.441406 167.859375 213.910156 167.859375 215.878906 C 167.859375 216.128906 167.828125 217.410156 167.234375 218.347656 C 166.578125 219.410156 165.859375 219.472656 165.296875 219.503906 C 165.140625 219.503906 164.609375 219.566406 164.453125 219.566406 C 164.265625 219.566406 164.140625 219.597656 164.140625 219.816406 C 164.140625 220.066406 164.265625 220.066406 164.640625 220.066406 L 165.609375 220.066406 C 167.390625 220.066406 168.203125 221.535156 168.203125 223.691406 C 168.203125 226.660156 166.703125 227.285156 165.734375 227.285156 C 164.796875 227.285156 163.171875 226.910156 162.390625 225.628906 C 163.171875 225.722656 163.828125 225.253906 163.828125 224.410156 C 163.828125 223.628906 163.265625 223.191406 162.609375 223.191406 C 162.109375 223.191406 161.390625 223.503906 161.390625 224.472656 C 161.390625 226.441406 163.421875 227.878906 165.796875 227.878906 C 168.453125 227.878906 170.453125 225.910156 170.453125 223.691406 C 170.453125 221.878906 169.078125 220.191406 166.796875 219.722656 Z M 166.796875 219.722656 "/>
<path fill-rule="nonzero" fill="rgb(0%, 0%, 0%)" fill-opacity="1" d="M 249.757812 220.253906 L 249.757812 219.722656 C 249.757812 214.222656 252.476562 213.441406 253.570312 213.441406 C 254.101562 213.441406 255.007812 213.566406 255.507812 214.316406 C 255.164062 214.316406 254.289062 214.316406 254.289062 215.285156 C 254.289062 215.972656 254.820312 216.285156 255.289062 216.285156 C 255.664062 216.285156 256.320312 216.097656 256.320312 215.253906 C 256.320312 213.941406 255.351562 212.878906 253.539062 212.878906 C 250.757812 212.878906 247.789062 215.691406 247.789062 220.503906 C 247.789062 226.347656 250.320312 227.878906 252.351562 227.878906 C 254.789062 227.878906 256.851562 225.847656 256.851562 222.972656 C 256.851562 220.191406 254.914062 218.097656 252.476562 218.097656 C 251.007812 218.097656 250.195312 219.222656 249.757812 220.253906 Z M 252.351562 227.285156 C 250.976562 227.285156 250.320312 225.972656 250.195312 225.628906 C 249.820312 224.628906 249.820312 222.878906 249.820312 222.472656 C 249.820312 220.785156 250.507812 218.597656 252.476562 218.597656 C 252.820312 218.597656 253.820312 218.597656 254.507812 219.941406 C 254.882812 220.753906 254.882812 221.878906 254.882812 222.941406 C 254.882812 223.972656 254.882812 225.066406 254.507812 225.847656 C 253.851562 227.160156 252.851562 227.285156 252.351562 227.285156 Z M 252.351562 227.285156 "/>
<path fill-rule="nonzero" fill="rgb(0%, 0%, 0%)" fill-opacity="1" d="M 341.285156 220.472656 L 341.285156 221.160156 C 341.285156 226.285156 339.035156 227.285156 337.753906 227.285156 C 337.378906 227.285156 336.222656 227.222656 335.628906 226.503906 C 336.566406 226.503906 336.753906 225.847656 336.753906 225.503906 C 336.753906 224.816406 336.222656 224.472656 335.753906 224.472656 C 335.410156 224.472656 334.753906 224.691406 334.753906 225.535156 C 334.753906 227.003906 335.910156 227.878906 337.785156 227.878906 C 340.597656 227.878906 343.253906 224.910156 343.253906 220.222656 C 343.253906 214.378906 340.753906 212.878906 338.816406 212.878906 C 337.597656 212.878906 336.535156 213.285156 335.597656 214.253906 C 334.691406 215.253906 334.191406 216.160156 334.191406 217.785156 C 334.191406 220.503906 336.128906 222.660156 338.566406 222.660156 C 339.878906 222.660156 340.785156 221.753906 341.285156 220.472656 Z M 338.597656 222.160156 C 338.222656 222.160156 337.222656 222.160156 336.566406 220.785156 C 336.160156 219.972656 336.160156 218.878906 336.160156 217.816406 C 336.160156 216.628906 336.160156 215.597656 336.628906 214.816406 C 337.222656 213.722656 338.035156 213.441406 338.816406 213.441406 C 339.816406 213.441406 340.535156 214.160156 340.910156 215.160156 C 341.160156 215.847656 341.253906 217.222656 341.253906 218.222656 C 341.253906 220.035156 340.503906 222.160156 338.597656 222.160156 Z M 338.597656 222.160156 "/>
<path fill-rule="nonzero" fill="rgb(0%, 0%, 0%)" fill-opacity="1" d="M 420.8125 213.441406 C 420.8125 212.941406 420.8125 212.878906 420.3125 212.878906 C 418.96875 214.285156 417.03125 214.285156 416.34375 214.285156 L 416.34375 214.941406 C 416.78125 214.941406 418.0625 214.941406 419.21875 214.378906 L 419.21875 225.691406 C 419.21875 226.472656 419.125 226.722656 417.1875 226.722656 L 416.46875 226.722656 L 416.46875 227.410156 C 417.25 227.347656 419.125 227.347656 420 227.347656 C 420.875 227.347656 422.78125 227.347656 423.53125 227.410156 L 423.53125 226.722656 L 422.84375 226.722656 C 420.875 226.722656 420.8125 226.503906 420.8125 225.691406 Z M 420.8125 213.441406 "/>
<path fill-rule="nonzero" fill="rgb(0%, 0%, 0%)" fill-opacity="1" d="M 427.984375 225.722656 L 430.296875 223.472656 C 433.703125 220.472656 434.984375 219.285156 434.984375 217.128906 C 434.984375 214.628906 433.046875 212.878906 430.359375 212.878906 C 427.921875 212.878906 426.296875 214.878906 426.296875 216.816406 C 426.296875 218.066406 427.390625 218.066406 427.453125 218.066406 C 427.828125 218.066406 428.578125 217.785156 428.578125 216.910156 C 428.578125 216.316406 428.203125 215.753906 427.421875 215.753906 C 427.265625 215.753906 427.203125 215.753906 427.140625 215.785156 C 427.640625 214.378906 428.828125 213.566406 430.078125 213.566406 C 432.078125 213.566406 433.015625 215.316406 433.015625 217.128906 C 433.015625 218.847656 431.921875 220.597656 430.734375 221.941406 L 426.546875 226.597656 C 426.296875 226.847656 426.296875 226.878906 426.296875 227.410156 L 434.390625 227.410156 L 434.984375 223.628906 L 434.453125 223.628906 C 434.328125 224.253906 434.203125 225.222656 433.984375 225.566406 C 433.828125 225.722656 432.390625 225.722656 431.890625 225.722656 Z M 427.984375 225.722656 "/>
<path fill-rule="nonzero" fill="rgb(0%, 0%, 0%)" fill-opacity="1" d="M 67.238281 169.472656 C 67.238281 168.972656 67.238281 168.910156 66.738281 168.910156 C 65.394531 170.316406 63.457031 170.316406 62.769531 170.316406 L 62.769531 170.972656 C 63.207031 170.972656 64.488281 170.972656 65.644531 170.410156 L 65.644531 181.722656 C 65.644531 182.503906 65.550781 182.753906 63.613281 182.753906 L 62.894531 182.753906 L 62.894531 183.441406 C 63.675781 183.378906 65.550781 183.378906 66.425781 183.378906 C 67.300781 183.378906 69.207031 183.378906 69.957031 183.441406 L 69.957031 182.753906 L 69.269531 182.753906 C 67.300781 182.753906 67.238281 182.535156 67.238281 181.722656 Z M 67.238281 169.472656 "/>
<path fill-rule="nonzero" fill="rgb(0%, 0%, 0%)" fill-opacity="1" d="M 63.613281 152.949219 L 65.925781 150.699219 C 69.332031 147.699219 70.613281 146.511719 70.613281 144.355469 C 70.613281 141.855469 68.675781 140.105469 65.988281 140.105469 C 63.550781 140.105469 61.925781 142.105469 61.925781 144.042969 C 61.925781 145.292969 63.019531 145.292969 63.082031 145.292969 C 63.457031 145.292969 64.207031 145.011719 64.207031 144.136719 C 64.207031 143.542969 63.832031 142.980469 63.050781 142.980469 C 62.894531 142.980469 62.832031 142.980469 62.769531 143.011719 C 63.269531 141.605469 64.457031 140.792969 65.707031 140.792969 C 67.707031 140.792969 68.644531 142.542969 68.644531 144.355469 C 68.644531 146.074219 67.550781 147.824219 66.363281 149.167969 L 62.175781 153.824219 C 61.925781 154.074219 61.925781 154.105469 61.925781 154.636719 L 70.019531 154.636719 L 70.613281 150.855469 L 70.082031 150.855469 C 69.957031 151.480469 69.832031 152.449219 69.613281 152.792969 C 69.457031 152.949219 68.019531 152.949219 67.519531 152.949219 Z M 63.613281 152.949219 "/>
<path fill-rule="nonzero" fill="rgb(0%, 0%, 0%)" fill-opacity="1" d="M 67.144531 118.152344 C 68.957031 117.558594 70.207031 116.058594 70.207031 114.308594 C 70.207031 112.527344 68.300781 111.308594 66.207031 111.308594 C 63.988281 111.308594 62.332031 112.621094 62.332031 114.277344 C 62.332031 114.996094 62.832031 115.402344 63.457031 115.402344 C 64.113281 115.402344 64.550781 114.933594 64.550781 114.308594 C 64.550781 113.214844 63.550781 113.214844 63.207031 113.214844 C 63.894531 112.152344 65.332031 111.871094 66.113281 111.871094 C 67.019531 111.871094 68.207031 112.339844 68.207031 114.308594 C 68.207031 114.558594 68.175781 115.839844 67.582031 116.777344 C 66.925781 117.839844 66.207031 117.902344 65.644531 117.933594 C 65.488281 117.933594 64.957031 117.996094 64.800781 117.996094 C 64.613281 117.996094 64.488281 118.027344 64.488281 118.246094 C 64.488281 118.496094 64.613281 118.496094 64.988281 118.496094 L 65.957031 118.496094 C 67.738281 118.496094 68.550781 119.964844 68.550781 122.121094 C 68.550781 125.089844 67.050781 125.714844 66.082031 125.714844 C 65.144531 125.714844 63.519531 125.339844 62.738281 124.058594 C 63.519531 124.152344 64.175781 123.683594 64.175781 122.839844 C 64.175781 122.058594 63.613281 121.621094 62.957031 121.621094 C 62.457031 121.621094 61.738281 121.933594 61.738281 122.902344 C 61.738281 124.871094 63.769531 126.308594 66.144531 126.308594 C 68.800781 126.308594 70.800781 124.339844 70.800781 122.121094 C 70.800781 120.308594 69.425781 118.621094 67.144531 118.152344 Z M 67.144531 118.152344 "/>
<path fill-rule="nonzero" fill="rgb(0%, 0%, 0%)" fill-opacity="1" d="M 67.238281 93.445312 L 67.238281 95.351562 C 67.238281 96.132812 67.207031 96.351562 65.582031 96.351562 L 65.144531 96.351562 L 65.144531 97.039062 C 66.019531 96.976562 67.144531 96.976562 68.082031 96.976562 C 68.988281 96.976562 70.144531 96.976562 71.050781 97.039062 L 71.050781 96.351562 L 70.582031 96.351562 C 68.957031 96.351562 68.925781 96.132812 68.925781 95.351562 L 68.925781 93.445312 L 71.113281 93.445312 L 71.113281 92.757812 L 68.925781 92.757812 L 68.925781 82.851562 C 68.925781 82.414062 68.925781 82.257812 68.582031 82.257812 C 68.394531 82.257812 68.300781 82.257812 68.144531 82.539062 L 61.457031 92.757812 L 61.457031 93.445312 Z M 67.363281 92.757812 L 62.050781 92.757812 L 67.363281 84.632812 Z M 67.363281 92.757812 "/>
<path fill-rule="nonzero" fill="rgb(0%, 0%, 0%)" fill-opacity="1" d="M 70.613281 63.863281 C 70.613281 61.269531 68.832031 59.082031 66.488281 59.082031 C 65.425781 59.082031 64.488281 59.425781 63.707031 60.175781 L 63.707031 55.925781 C 64.144531 56.082031 64.863281 56.207031 65.550781 56.207031 C 68.238281 56.207031 69.769531 54.238281 69.769531 53.957031 C 69.769531 53.832031 69.707031 53.707031 69.550781 53.707031 C 69.550781 53.707031 69.488281 53.707031 69.394531 53.769531 C 68.957031 53.988281 67.863281 54.394531 66.425781 54.394531 C 65.550781 54.394531 64.550781 54.269531 63.519531 53.800781 C 63.332031 53.738281 63.300781 53.738281 63.238281 53.738281 C 63.019531 53.738281 63.019531 53.894531 63.019531 54.269531 L 63.019531 60.707031 C 63.019531 61.113281 63.019531 61.269531 63.332031 61.269531 C 63.488281 61.269531 63.550781 61.207031 63.613281 61.082031 C 63.863281 60.738281 64.675781 59.550781 66.425781 59.550781 C 67.582031 59.550781 68.113281 60.550781 68.300781 60.957031 C 68.644531 61.769531 68.675781 62.613281 68.675781 63.707031 C 68.675781 64.457031 68.675781 65.769531 68.175781 66.675781 C 67.644531 67.550781 66.832031 68.113281 65.832031 68.113281 C 64.238281 68.113281 62.988281 66.957031 62.613281 65.675781 C 62.675781 65.675781 62.738281 65.707031 62.988281 65.707031 C 63.707031 65.707031 64.082031 65.175781 64.082031 64.644531 C 64.082031 64.113281 63.707031 63.582031 62.988281 63.582031 C 62.675781 63.582031 61.925781 63.738281 61.925781 64.738281 C 61.925781 66.613281 63.425781 68.707031 65.863281 68.707031 C 68.394531 68.707031 70.613281 66.613281 70.613281 63.863281 Z M 70.613281 63.863281 "/>
<path fill="none" stroke-width="3.985" stroke-linecap="butt" stroke-linejoin="miter" stroke="rgb(0%, 0%, 0%)" stroke-opacity="1" stroke-miterlimit="10" d="M 398.007807 463.593743 L 2198.046842 463.593743 " transform="matrix(0.2, 0, 0, -0.2, 0, 298)"/>
<path fill="none" stroke-width="3.985" stroke-linecap="butt" stroke-linejoin="miter" stroke="rgb(0%, 0%, 0%)" stroke-opacity="1" stroke-miterlimit="10" d="M 398.007807 1255.624981 L 398.007807 463.593743 " transform="matrix(0.2, 0, 0, -0.2, 0, 298)"/>
<path fill="none" stroke-width="3.985" stroke-linecap="butt" stroke-linejoin="miter" stroke="rgb(0%, 0%, 0%)" stroke-opacity="1" stroke-miterlimit="10" d="M 541.992179 463.593743 L 541.992179 1255.624981 " transform="matrix(0.2, 0, 0, -0.2, 0, 298)"/>
<path fill="none" stroke-width="3.985" stroke-linecap="butt" stroke-linejoin="miter" stroke="rgb(0%, 0%, 0%)" stroke-opacity="1" stroke-miterlimit="10" d="M 686.015615 463.593743 L 686.015615 1255.624981 " transform="matrix(0.2, 0, 0, -0.2, 0, 298)"/>
<path fill="none" stroke-width="3.985" stroke-linecap="butt" stroke-linejoin="miter" stroke="rgb(0%, 0%, 0%)" stroke-opacity="1" stroke-miterlimit="10" d="M 829.999988 463.593743 L 829.999988 1255.624981 " transform="matrix(0.2, 0, 0, -0.2, 0, 298)"/>
<path fill="none" stroke-width="3.985" stroke-linecap="butt" stroke-linejoin="miter" stroke="rgb(0%, 0%, 0%)" stroke-opacity="1" stroke-miterlimit="10" d="M 974.023423 463.593743 L 974.023423 1255.624981 " transform="matrix(0.2, 0, 0, -0.2, 0, 298)"/>
<path fill="none" stroke-width="3.985" stroke-linecap="butt" stroke-linejoin="miter" stroke="rgb(0%, 0%, 0%)" stroke-opacity="1" stroke-miterlimit="10" d="M 1118.007796 463.593743 L 1118.007796 1255.624981 " transform="matrix(0.2, 0, 0, -0.2, 0, 298)"/>
<path fill="none" stroke-width="3.985" stroke-linecap="butt" stroke-linejoin="miter" stroke="rgb(0%, 0%, 0%)" stroke-opacity="1" stroke-miterlimit="10" d="M 1261.992169 463.593743 L 1261.992169 1255.624981 " transform="matrix(0.2, 0, 0, -0.2, 0, 298)"/>
<path fill="none" stroke-width="3.985" stroke-linecap="butt" stroke-linejoin="miter" stroke="rgb(0%, 0%, 0%)" stroke-opacity="1" stroke-miterlimit="10" d="M 1406.015604 463.593743 L 1406.015604 1255.624981 " transform="matrix(0.2, 0, 0, -0.2, 0, 298)"/>
<path fill="none" stroke-width="3.985" stroke-linecap="butt" stroke-linejoin="miter" stroke="rgb(0%, 0%, 0%)" stroke-opacity="1" stroke-miterlimit="10" d="M 1550.039039 463.593743 L 1550.039039 1255.624981 " transform="matrix(0.2, 0, 0, -0.2, 0, 298)"/>
<path fill="none" stroke-width="3.985" stroke-linecap="butt" stroke-linejoin="miter" stroke="rgb(0%, 0%, 0%)" stroke-opacity="1" stroke-miterlimit="10" d="M 1694.023412 463.593743 L 1694.023412 1255.624981 " transform="matrix(0.2, 0, 0, -0.2, 0, 298)"/>
<path fill="none" stroke-width="3.985" stroke-linecap="butt" stroke-linejoin="miter" stroke="rgb(0%, 0%, 0%)" stroke-opacity="1" stroke-miterlimit="10" d="M 1838.007785 463.593743 L 1838.007785 1255.624981 " transform="matrix(0.2, 0, 0, -0.2, 0, 298)"/>
<path fill="none" stroke-width="3.985" stroke-linecap="butt" stroke-linejoin="miter" stroke="rgb(0%, 0%, 0%)" stroke-opacity="1" stroke-miterlimit="10" d="M 1982.03122 463.593743 L 1982.03122 1255.624981 " transform="matrix(0.2, 0, 0, -0.2, 0, 298)"/>
<path fill="none" stroke-width="3.985" stroke-linecap="butt" stroke-linejoin="miter" stroke="rgb(0%, 0%, 0%)" stroke-opacity="1" stroke-miterlimit="10" d="M 2126.015593 463.593743 L 2126.015593 1255.624981 " transform="matrix(0.2, 0, 0, -0.2, 0, 298)"/>
<path fill="none" stroke-width="3.985" stroke-linecap="butt" stroke-linejoin="miter" stroke="rgb(0%, 0%, 0%)" stroke-opacity="1" stroke-miterlimit="10" d="M 398.007807 607.617178 L 2198.046842 607.617178 " transform="matrix(0.2, 0, 0, -0.2, 0, 298)"/>
<path fill="none" stroke-width="3.985" stroke-linecap="butt" stroke-linejoin="miter" stroke="rgb(0%, 0%, 0%)" stroke-opacity="1" stroke-miterlimit="10" d="M 398.007807 751.601551 L 2198.046842 751.601551 " transform="matrix(0.2, 0, 0, -0.2, 0, 298)"/>
<path fill="none" stroke-width="3.985" stroke-linecap="butt" stroke-linejoin="miter" stroke="rgb(0%, 0%, 0%)" stroke-opacity="1" stroke-miterlimit="10" d="M 398.007807 895.624987 L 2198.046842 895.624987 " transform="matrix(0.2, 0, 0, -0.2, 0, 298)"/>
<path fill="none" stroke-width="3.985" stroke-linecap="butt" stroke-linejoin="miter" stroke="rgb(0%, 0%, 0%)" stroke-opacity="1" stroke-miterlimit="10" d="M 398.007807 1039.60936 L 2198.046842 1039.60936 " transform="matrix(0.2, 0, 0, -0.2, 0, 298)"/>
<path fill="none" stroke-width="3.985" stroke-linecap="butt" stroke-linejoin="miter" stroke="rgb(0%, 0%, 0%)" stroke-opacity="1" stroke-miterlimit="10" d="M 398.007807 1183.593732 L 2198.046842 1183.593732 " transform="matrix(0.2, 0, 0, -0.2, 0, 298)"/>
<path fill="none" stroke-width="19.925501" stroke-linecap="butt" stroke-linejoin="miter" stroke="rgb(100%, 100%, 100%)" stroke-opacity="1" stroke-miterlimit="10" d="M 398.007807 1255.624981 L 2198.046842 1255.624981 " transform="matrix(0.2, 0, 0, -0.2, 0, 298)"/>
<path fill="none" stroke-width="19.925501" stroke-linecap="butt" stroke-linejoin="miter" stroke="rgb(100%, 100%, 100%)" stroke-opacity="1" stroke-miterlimit="10" d="M 2198.046842 463.593743 L 2198.046842 1255.624981 " transform="matrix(0.2, 0, 0, -0.2, 0, 298)"/>
<path fill-rule="nonzero" fill="rgb(100%, 100%, 100%)" fill-opacity="1" d="M 452.15625 205.304688 L 476.632812 205.304688 L 476.632812 226.664062 L 452.15625 226.664062 Z M 452.15625 205.304688 "/>
<path fill-rule="nonzero" fill="rgb(0%, 0%, 0%)" fill-opacity="1" d="M 465.464844 214.046875 C 465.589844 213.484375 466.089844 211.484375 467.621094 211.484375 C 467.746094 211.484375 468.246094 211.484375 468.714844 211.765625 C 468.121094 211.859375 467.683594 212.421875 467.683594 212.953125 C 467.683594 213.296875 467.902344 213.703125 468.496094 213.703125 C 468.996094 213.703125 469.683594 213.296875 469.683594 212.453125 C 469.683594 211.296875 468.402344 210.984375 467.652344 210.984375 C 466.371094 210.984375 465.621094 212.140625 465.371094 212.671875 C 464.808594 211.203125 463.621094 210.984375 462.996094 210.984375 C 460.746094 210.984375 459.496094 213.828125 459.496094 214.359375 C 459.496094 214.578125 459.714844 214.578125 459.746094 214.578125 C 459.933594 214.578125 459.996094 214.546875 460.027344 214.328125 C 460.777344 212.015625 462.214844 211.484375 462.964844 211.484375 C 463.371094 211.484375 464.152344 211.671875 464.152344 212.953125 C 464.152344 213.609375 463.777344 215.078125 462.964844 218.140625 C 462.621094 219.484375 461.839844 220.390625 460.902344 220.390625 C 460.746094 220.390625 460.246094 220.390625 459.808594 220.109375 C 460.339844 220.015625 460.808594 219.546875 460.808594 218.953125 C 460.808594 218.359375 460.339844 218.171875 460.027344 218.171875 C 459.371094 218.171875 458.808594 218.734375 458.808594 219.453125 C 458.808594 220.453125 459.902344 220.890625 460.871094 220.890625 C 462.308594 220.890625 463.089844 219.359375 463.152344 219.234375 C 463.433594 220.015625 464.214844 220.890625 465.527344 220.890625 C 467.746094 220.890625 468.996094 218.078125 468.996094 217.515625 C 468.996094 217.296875 468.808594 217.296875 468.746094 217.296875 C 468.558594 217.296875 468.496094 217.390625 468.464844 217.546875 C 467.746094 219.890625 466.246094 220.390625 465.558594 220.390625 C 464.714844 220.390625 464.371094 219.703125 464.371094 218.953125 C 464.371094 218.484375 464.496094 218.015625 464.714844 217.046875 Z M 465.464844 214.046875 "/>
<path fill-rule="nonzero" fill="rgb(100%, 100%, 100%)" fill-opacity="1" d="M 56.054688 -5.03125 L 79.578125 -5.03125 L 79.578125 20.648438 L 56.054688 20.648438 Z M 56.054688 -5.03125 "/>
<path fill-rule="nonzero" fill="rgb(0%, 0%, 0%)" fill-opacity="1" d="M 72.675781 1.988281 C 72.769531 1.675781 72.769531 1.644531 72.769531 1.488281 C 72.769531 1.082031 72.457031 0.894531 72.144531 0.894531 C 71.925781 0.894531 71.582031 1.019531 71.363281 1.363281 C 71.332031 1.457031 71.144531 2.144531 71.082031 2.550781 C 70.925781 3.113281 70.769531 3.707031 70.644531 4.269531 L 69.644531 8.207031 C 69.550781 8.519531 68.613281 10.050781 67.175781 10.050781 C 66.082031 10.050781 65.832031 9.113281 65.832031 8.300781 C 65.832031 7.300781 66.207031 5.925781 66.957031 4.019531 C 67.300781 3.113281 67.394531 2.894531 67.394531 2.457031 C 67.394531 1.457031 66.675781 0.644531 65.582031 0.644531 C 63.519531 0.644531 62.707031 3.832031 62.707031 4.019531 C 62.707031 4.238281 62.925781 4.238281 62.988281 4.238281 C 63.207031 4.238281 63.207031 4.207031 63.332031 3.832031 C 63.925781 1.800781 64.800781 1.144531 65.519531 1.144531 C 65.707031 1.144531 66.082031 1.144531 66.082031 1.832031 C 66.082031 2.394531 65.863281 2.957031 65.707031 3.363281 C 64.832031 5.675781 64.425781 6.925781 64.425781 7.957031 C 64.425781 9.894531 65.800781 10.550781 67.113281 10.550781 C 67.957031 10.550781 68.675781 10.175781 69.300781 9.550781 C 69.019531 10.707031 68.769531 11.769531 67.894531 12.925781 C 67.332031 13.644531 66.488281 14.300781 65.488281 14.300781 C 65.175781 14.300781 64.207031 14.238281 63.832031 13.363281 C 64.175781 13.363281 64.457031 13.363281 64.769531 13.113281 C 64.988281 12.925781 65.207031 12.644531 65.207031 12.207031 C 65.207031 11.550781 64.613281 11.457031 64.394531 11.457031 C 63.894531 11.457031 63.175781 11.800781 63.175781 12.863281 C 63.175781 13.957031 64.144531 14.769531 65.488281 14.769531 C 67.738281 14.769531 69.988281 12.800781 70.582031 10.332031 Z M 72.675781 1.988281 "/>
<path fill-rule="nonzero" fill="rgb(0%, 0%, 0%)" fill-opacity="1" d="M 74.492188 222.617188 C 74.492188 219.085938 72.179688 216.742188 68.929688 216.742188 C 64.210938 216.742188 59.398438 221.679688 59.398438 226.773438 C 59.398438 230.398438 61.835938 232.585938 64.992188 232.585938 C 69.617188 232.585938 74.492188 227.804688 74.492188 222.617188 Z M 65.117188 232.023438 C 62.960938 232.023438 61.429688 230.273438 61.429688 227.398438 C 61.429688 226.429688 61.742188 223.242188 63.429688 220.679688 C 64.929688 218.429688 67.054688 217.273438 68.773438 217.273438 C 70.585938 217.273438 72.523438 218.492188 72.523438 221.742188 C 72.523438 223.335938 71.960938 226.742188 69.773438 229.398438 C 68.742188 230.742188 66.960938 232.023438 65.117188 232.023438 Z M 65.117188 232.023438 "/>
<path fill="none" stroke-width="11.9553" stroke-linecap="butt" stroke-linejoin="miter" stroke="rgb(0%, 0%, 0%)" stroke-opacity="1" stroke-miterlimit="10" d="M 9.21875 463.593743 L 2342.031215 463.593743 " transform="matrix(0.2, 0, 0, -0.2, 0, 298)"/>
<path fill="none" stroke-width="11.9553" stroke-linecap="butt" stroke-linejoin="miter" stroke="rgb(0%, 0%, 0%)" stroke-opacity="1" stroke-miterlimit="10" d="M 398.007807 290.820308 L 398.007807 1471.601541 " transform="matrix(0.2, 0, 0, -0.2, 0, 298)"/>
<path fill="none" stroke-width="11.9553" stroke-linecap="butt" stroke-linejoin="miter" stroke="rgb(0%, 0%, 0%)" stroke-opacity="1" stroke-miterlimit="10" d="M 38.007812 343.593745 L 2126.015593 1039.60936 " transform="matrix(0.2, 0, 0, -0.2, 0, 298)"/>
<path fill-rule="nonzero" fill="rgb(0%, 0%, 0%)" fill-opacity="1" d="M 193.601562 290.699219 C 194.789062 290.292969 196.789062 289.699219 196.789062 287.761719 C 196.789062 285.449219 194.070312 284.386719 192.101562 284.386719 C 191.164062 284.386719 190.195312 284.605469 189.351562 285.105469 C 189.226562 285.167969 189.070312 285.355469 188.914062 285.355469 C 188.601562 285.355469 188.039062 284.386719 187.726562 284.386719 C 187.539062 284.386719 187.507812 284.605469 187.507812 284.699219 L 187.507812 288.261719 C 187.507812 288.386719 187.601562 288.542969 187.789062 288.542969 C 188.101562 288.542969 188.070312 287.917969 188.164062 287.574219 C 188.632812 285.855469 190.195312 285.105469 191.695312 285.011719 L 192.101562 285.011719 C 193.445312 285.011719 195.007812 285.886719 195.007812 287.761719 C 195.007812 289.574219 193.226562 290.511719 191.570312 290.511719 C 191.257812 290.511719 190.945312 290.511719 190.632812 290.511719 L 190.476562 290.511719 C 190.289062 290.511719 190.070312 290.511719 190.070312 290.730469 L 190.070312 290.761719 C 190.101562 290.949219 190.289062 290.980469 190.476562 290.980469 L 192.320312 290.980469 C 193.882812 291.105469 195.320312 292.136719 195.476562 293.761719 L 195.476562 293.980469 C 195.476562 295.824219 193.757812 296.980469 192.007812 296.980469 C 190.101562 296.980469 188.132812 296.355469 187.820312 293.980469 C 187.820312 293.824219 187.757812 293.636719 187.539062 293.636719 C 187.320312 293.667969 187.289062 293.824219 187.289062 293.980469 C 187.289062 296.574219 189.882812 297.605469 192.132812 297.605469 C 194.195312 297.605469 197.070312 296.636719 197.320312 294.167969 L 197.320312 294.042969 C 197.320312 292.074219 195.257812 291.105469 193.601562 290.699219 Z M 193.601562 290.699219 "/>
<path fill-rule="nonzero" fill="rgb(0%, 0%, 0%)" fill-opacity="1" d="M 205.695312 284.386719 C 202.320312 284.792969 199.632812 287.449219 199.632812 291.042969 C 199.632812 294.324219 202.226562 297.574219 206.101562 297.574219 C 209.601562 297.574219 212.570312 294.667969 212.570312 291.042969 C 212.570312 287.855469 210.070312 284.386719 206.132812 284.386719 C 206.007812 284.386719 205.851562 284.386719 205.695312 284.386719 Z M 201.507812 291.261719 L 201.507812 290.917969 C 201.507812 288.417969 202.414062 285.480469 205.570312 284.949219 C 205.757812 284.917969 205.914062 284.917969 206.101562 284.917969 C 208.914062 284.917969 210.664062 287.636719 210.664062 290.667969 C 210.664062 293.074219 209.945312 296.136719 206.976562 296.917969 C 206.695312 296.980469 206.414062 297.011719 206.132812 297.011719 L 205.945312 297.011719 C 203.351562 296.917969 201.945312 294.449219 201.601562 292.042969 Z M 201.507812 291.261719 "/>
<path fill-rule="nonzero" fill="rgb(0%, 0%, 0%)" fill-opacity="1" d="M 215.027344 284.730469 L 215.027344 285.324219 L 215.464844 285.324219 C 216.058594 285.324219 216.683594 285.417969 216.683594 286.292969 L 216.683594 295.761719 C 216.683594 296.605469 215.964844 296.636719 215.308594 296.636719 L 215.027344 296.636719 L 215.027344 297.230469 L 220.808594 297.230469 C 221.214844 297.230469 221.589844 297.261719 221.996094 297.261719 C 223.996094 297.261719 226.339844 296.324219 226.558594 293.917969 L 226.558594 293.730469 C 226.558594 291.199219 223.683594 290.167969 221.777344 290.167969 C 220.527344 290.167969 219.339844 290.292969 218.152344 290.386719 L 218.152344 286.167969 C 218.152344 285.730469 218.214844 285.324219 218.996094 285.324219 L 221.308594 285.324219 C 222.277344 285.324219 223.371094 285.386719 224.089844 286.105469 C 224.777344 286.824219 224.871094 288.042969 224.964844 288.980469 L 225.496094 288.980469 L 225.027344 284.730469 Z M 218.152344 291.011719 C 218.402344 291.011719 218.652344 290.949219 218.902344 290.917969 L 220.277344 290.855469 C 220.558594 290.824219 220.839844 290.792969 221.152344 290.792969 C 222.714844 290.792969 224.683594 291.792969 224.683594 293.636719 C 224.683594 295.386719 223.339844 296.667969 221.339844 296.667969 C 221.058594 296.667969 220.746094 296.636719 220.496094 296.636719 L 218.964844 296.636719 C 218.496094 296.636719 218.246094 296.605469 218.152344 295.980469 Z M 218.152344 291.011719 "/>
<path fill-rule="nonzero" fill="rgb(0%, 0%, 0%)" fill-opacity="1" d="M 228.910156 284.730469 L 228.910156 285.324219 L 229.378906 285.324219 C 229.972656 285.324219 230.566406 285.417969 230.566406 286.292969 L 230.566406 295.761719 C 230.566406 296.605469 229.878906 296.636719 229.191406 296.636719 L 228.910156 296.636719 L 228.910156 297.230469 L 233.816406 297.230469 L 233.816406 296.636719 L 233.378906 296.636719 C 232.753906 296.636719 232.160156 296.574219 232.160156 295.699219 L 232.160156 291.511719 L 235.878906 291.511719 C 237.660156 291.386719 239.941406 290.199219 239.941406 288.167969 C 239.941406 285.949219 237.597656 284.886719 235.691406 284.730469 Z M 232.128906 290.980469 L 232.128906 285.980469 C 232.222656 285.386719 232.472656 285.324219 232.878906 285.324219 L 234.316406 285.324219 C 235.941406 285.324219 238.066406 285.386719 238.066406 288.167969 C 238.066406 288.824219 237.972656 289.511719 237.566406 290.011719 C 236.910156 290.792969 235.816406 290.980469 234.847656 290.980469 Z M 232.128906 290.980469 "/>
<path fill-rule="nonzero" fill="rgb(0%, 0%, 0%)" fill-opacity="1" d="M 244.636719 294.949219 C 244.136719 295.042969 243.636719 295.480469 243.636719 296.074219 C 243.636719 296.699219 244.167969 297.230469 244.792969 297.230469 C 245.417969 297.230469 245.980469 296.761719 245.980469 296.105469 C 245.980469 295.480469 245.449219 294.917969 244.824219 294.917969 C 244.761719 294.917969 244.699219 294.949219 244.636719 294.949219 Z M 244.636719 294.949219 "/>
<path fill-rule="nonzero" fill="rgb(0%, 0%, 0%)" fill-opacity="1" d="M 259.414062 294.292969 C 259.507812 294.324219 259.664062 294.355469 259.820312 294.355469 C 260.476562 294.355469 260.851562 293.855469 260.851562 293.261719 C 260.851562 292.667969 260.382812 292.230469 259.820312 292.230469 C 259.226562 292.230469 258.726562 292.667969 258.726562 293.355469 C 258.726562 295.667969 260.632812 297.730469 263.195312 297.730469 C 266.101562 297.730469 268.476562 295.386719 268.476562 292.417969 C 268.476562 290.042969 267.132812 287.980469 264.726562 287.292969 C 264.476562 287.230469 264.195312 287.230469 263.914062 287.230469 C 262.664062 287.230469 261.539062 287.636719 260.664062 288.542969 L 260.664062 283.542969 C 261.414062 283.667969 262.101562 283.886719 262.882812 283.886719 C 264.476562 283.886719 266.070312 283.292969 267.257812 282.011719 C 267.382812 281.855469 267.539062 281.761719 267.539062 281.574219 L 267.539062 281.542969 C 267.507812 281.417969 267.414062 281.355469 267.320312 281.355469 C 267.257812 281.355469 267.257812 281.355469 267.195312 281.386719 C 266.039062 281.792969 265.039062 282.105469 263.820312 282.105469 C 262.757812 282.105469 261.632812 281.949219 260.664062 281.511719 C 260.539062 281.449219 260.445312 281.386719 260.289062 281.355469 L 260.226562 281.355469 C 260.132812 281.355469 260.039062 281.449219 260.039062 281.574219 L 260.039062 289.167969 C 260.039062 289.386719 260.070312 289.574219 260.320312 289.574219 C 260.601562 289.574219 260.757812 289.136719 260.945312 288.949219 C 261.695312 288.167969 262.695312 287.730469 263.789062 287.699219 C 264.945312 287.699219 265.664062 288.480469 266.101562 289.417969 C 266.539062 290.355469 266.539062 291.511719 266.539062 292.542969 C 266.539062 294.199219 266.195312 295.949219 264.476562 296.792969 C 264.039062 297.011719 263.570312 297.105469 263.132812 297.105469 C 261.414062 297.105469 259.914062 295.917969 259.414062 294.292969 Z M 259.414062 294.292969 "/>
<path fill-rule="nonzero" fill="rgb(0%, 0%, 0%)" fill-opacity="1" d="M 270.902344 293.230469 L 277.496094 293.230469 L 277.496094 295.511719 C 277.496094 296.542969 276.683594 296.542969 275.121094 296.542969 L 275.121094 297.230469 L 281.558594 297.230469 L 281.558594 296.542969 C 281.277344 296.542969 280.964844 296.574219 280.652344 296.574219 C 279.839844 296.574219 279.183594 296.449219 279.183594 295.511719 L 279.183594 293.230469 L 281.714844 293.230469 L 281.714844 292.542969 L 279.183594 292.542969 L 279.183594 281.417969 L 279.089844 281.136719 L 278.621094 281.136719 L 278.308594 281.542969 L 270.902344 292.542969 Z M 271.496094 292.542969 L 277.589844 283.480469 L 277.589844 292.542969 Z M 271.496094 292.542969 "/>
<path fill-rule="nonzero" fill="rgb(0%, 0%, 0%)" fill-opacity="1" d="M 286.144531 294.949219 C 285.644531 295.042969 285.144531 295.480469 285.144531 296.074219 C 285.144531 296.699219 285.675781 297.230469 286.300781 297.230469 C 286.925781 297.230469 287.488281 296.761719 287.488281 296.105469 C 287.488281 295.480469 286.957031 294.917969 286.332031 294.917969 C 286.269531 294.917969 286.207031 294.949219 286.144531 294.949219 Z M 286.144531 294.949219 "/>
</svg>
