<?xml version="1.0" encoding="UTF-8"?>
<svg xmlns="http://www.w3.org/2000/svg" xmlns:xlink="http://www.w3.org/1999/xlink" width="220" height="258" viewBox="0 0 220 258">
<path fill="none" stroke-width="11.9553" stroke-linecap="butt" stroke-linejoin="miter" stroke="rgb(0%, 0%, 0%)" stroke-opacity="1" stroke-miterlimit="10" d="M 909.999986 741.601551 L 909.531236 760.429676 L 908.046861 779.218738 L 905.585924 797.929676 L 902.148424 816.4453 L 897.734362 834.765613 L 892.382799 852.85155 L 886.093737 870.624987 L 878.906237 888.046862 L 870.781237 905.039049 L 861.796862 921.601549 L 851.953112 937.695299 L 841.249987 953.203111 L 829.765613 968.164048 L 817.53905 982.499985 L 804.570301 996.17186 L 790.898426 1009.14061 L 776.562488 1021.367172 L 761.601551 1032.851547 L 746.093739 1043.554672 L 729.999989 1053.398422 L 713.437489 1062.382797 L 696.445302 1070.507797 L 679.023427 1077.695296 L 661.24999 1083.984359 L 643.203115 1089.335921 L 624.843741 1093.749984 L 606.328116 1097.187484 L 587.656241 1099.648421 L 568.867179 1101.132796 L 549.999992 1101.601546 L 531.171867 1101.132796 L 512.382805 1099.648421 L 493.671868 1097.187484 L 475.156243 1093.749984 L 456.835931 1089.335921 L 438.749993 1083.984359 L 420.976556 1077.695296 L 403.593744 1070.507797 L 386.562494 1062.382797 L 369.999994 1053.398422 L 353.945307 1043.554672 L 338.398432 1032.851547 L 323.437495 1021.367172 L 309.101558 1009.14061 L 295.429683 996.17186 L 282.460933 982.499985 L 270.234371 968.164048 L 258.749996 953.203111 L 248.085934 937.695299 L 238.242184 921.601549 L 229.257809 905.039049 L 221.132809 888.046862 L 213.906247 870.624987 L 207.617184 852.85155 L 202.265622 834.765613 L 197.85156 816.4453 L 194.41406 797.929676 L 191.992185 779.218738 L 190.50781 760.429676 L 189.999997 741.601551 L 190.50781 722.773427 L 191.992185 703.984365 L 194.41406 685.273427 L 197.85156 666.757803 L 202.265622 648.43749 L 207.617184 630.351553 L 213.906247 612.578116 L 221.132809 595.195304 L 229.257809 578.164054 L 238.242184 561.601554 L 248.085934 545.546867 L 258.749996 529.999992 L 270.234371 515.039055 L 282.460933 500.703118 L 295.429683 487.070305 L 309.101558 474.062493 L 323.437495 461.835931 L 338.398432 450.351556 L 353.945307 439.687493 L 369.999994 429.843744 L 386.562494 420.859369 L 403.593744 412.734369 L 420.976556 405.507806 L 438.749993 399.218744 L 456.835931 393.867182 L 475.156243 389.453119 L 493.671868 386.015619 L 512.382805 383.593744 L 531.171867 382.109369 L 549.999992 381.601557 L 568.867179 382.109369 L 587.656241 383.593744 L 606.328116 386.015619 L 624.843741 389.453119 L 643.203115 393.867182 L 661.24999 399.218744 L 679.023427 405.507806 L 696.445302 412.734369 L 713.437489 420.859369 L 729.999989 429.843744 L 746.093739 439.687493 L 761.601551 450.351556 L 776.562488 461.835931 L 790.898426 474.062493 L 804.570301 487.070305 L 817.53905 500.703118 L 829.765613 515.039055 L 841.249987 529.999992 L 851.953112 545.546867 L 861.796862 561.601554 L 870.781237 578.164054 L 878.906237 595.195304 L 886.093737 612.578116 L 892.382799 630.351553 L 897.734362 648.43749 L 902.148424 666.757803 L 905.585924 685.273427 L 908.046861 703.984365 L 909.531236 722.773427 Z M 909.999986 741.601551 " transform="matrix(0.2, 0, 0, -0.2, 0, 258)"/>
<path fill="none" stroke-width="11.9553" stroke-linecap="butt" stroke-linejoin="miter" stroke="rgb(0%, 0%, 0%)" stroke-opacity="1" stroke-miterlimit="10" d="M 1090.039046 741.601551 L 1089.257796 769.843739 L 1087.070296 798.046863 L 1083.359359 826.093738 L 1078.203109 853.867175 L 1071.601547 881.367174 L 1063.593734 908.476549 L 1054.140609 935.117174 L 1043.320297 961.249986 L 1031.132797 986.757798 L 1017.656235 1011.601547 L 1002.89061 1035.70311 L 986.874985 1059.023422 L 969.687486 1081.445296 L 951.328111 1102.929671 L 931.835924 1123.437483 L 911.328111 1142.890608 L 889.843737 1161.289045 L 867.421862 1178.476545 L 844.10155 1194.49217 L 819.999988 1209.257794 L 795.156238 1222.734357 L 769.648426 1234.921857 L 743.515614 1245.742169 L 716.874989 1255.195294 L 689.765615 1263.203106 L 662.265615 1269.804669 L 634.492178 1274.960919 L 606.445303 1278.671856 L 578.281241 1280.859356 L 549.999992 1281.601543 L 521.757805 1280.859356 L 493.55468 1278.671856 L 465.546868 1274.960919 L 437.734368 1269.804669 L 410.234369 1263.203106 L 383.124994 1255.195294 L 356.48437 1245.742169 L 330.351558 1234.921857 L 304.843745 1222.734357 L 279.999996 1209.257794 L 255.898434 1194.49217 L 232.617184 1178.476545 L 210.156247 1161.289045 L 188.671872 1142.890608 L 168.16406 1123.437483 L 148.710935 1102.929671 L 130.351561 1081.445296 L 113.124998 1059.023422 L 97.109374 1035.70311 L 82.343749 1011.601547 L 68.867186 986.757798 L 56.679687 961.249986 L 45.859374 935.117174 L 36.445312 908.476549 L 28.398437 881.367174 L 21.796875 853.867175 L 16.640625 826.093738 L 12.96875 798.046863 L 10.742187 769.843739 L 10 741.601551 L 10.742187 713.359364 L 12.96875 685.15624 L 16.640625 657.148428 L 21.796875 629.335928 L 28.398437 601.835929 L 36.445312 574.726554 L 45.859374 548.085929 L 56.679687 521.953117 L 68.867186 496.445305 L 82.343749 471.601555 L 97.109374 447.499993 L 113.124998 424.179681 L 130.351561 401.757807 L 148.710935 380.273432 L 168.16406 359.76562 L 188.671872 340.312495 L 210.156247 321.95312 L 232.617184 304.726558 L 255.898434 288.710933 L 279.999996 273.945308 L 304.843745 260.468746 L 330.351558 248.281246 L 356.48437 237.460934 L 383.124994 228.046872 L 410.234369 219.999997 L 437.734368 213.398434 L 465.546868 208.242184 L 493.55468 204.570309 L 521.757805 202.343747 L 549.999992 201.601559 L 578.281241 202.343747 L 606.445303 204.570309 L 634.492178 208.242184 L 662.265615 213.398434 L 689.765615 219.999997 L 716.874989 228.046872 L 743.515614 237.460934 L 769.648426 248.281246 L 795.156238 260.468746 L 819.999988 273.945308 L 844.10155 288.710933 L 867.421862 304.726558 L 889.843737 321.95312 L 911.328111 340.312495 L 931.835924 359.76562 L 951.328111 380.273432 L 969.687486 401.757807 L 986.874985 424.179681 L 1002.89061 447.499993 L 1017.656235 471.601555 L 1031.132797 496.445305 L 1043.320297 521.953117 L 1054.140609 548.085929 L 1063.593734 574.726554 L 1071.601547 601.835929 L 1078.203109 629.335928 L 1083.359359 657.148428 L 1087.070296 685.15624 L 1089.257796 713.359364 Z M 1090.039046 741.601551 " transform="matrix(0.2, 0, 0, -0.2, 0, 258)"/>
<path fill="none" stroke-width="11.9553" stroke-linecap="butt" stroke-linejoin="miter" stroke="rgb(0%, 0%, 0%)" stroke-opacity="1" stroke-miterlimit="10" d="M 549.999992 741.601551 L 909.999986 741.601551 " transform="matrix(0.2, 0, 0, -0.2, 0, 258)"/>
<path fill-rule="nonzero" fill="rgb(0%, 0%, 0%)" fill-opacity="1" d="M 180.132812 109.679688 L 174.53125 114.664062 L 182 109.679688 L 174.53125 104.695312 L 180.132812 109.679688 "/>
<path fill="none" stroke-width="11.9553" stroke-linecap="butt" stroke-linejoin="miter" stroke="rgb(0%, 0%, 0%)" stroke-opacity="1" stroke-miterlimit="10" d="M 900.664049 741.601551 L 872.656237 716.679677 L 909.999986 741.601551 L 872.656237 766.523426 Z M 900.664049 741.601551 " transform="matrix(0.2, 0, 0, -0.2, 0, 258)"/>
<path fill="none" stroke-width="11.9553" stroke-linecap="butt" stroke-linejoin="miter" stroke="rgb(0%, 0%, 0%)" stroke-opacity="1" stroke-miterlimit="10" d="M 549.999992 741.601551 L 963.671861 1088.710921 " transform="matrix(0.2, 0, 0, -0.2, 0, 258)"/>
<path fill-rule="nonzero" fill="rgb(0%, 0%, 0%)" fill-opacity="1" d="M 191.304688 41.460938 L 190.210938 48.875 L 192.734375 40.257812 L 183.8125 41.242188 L 191.304688 41.460938 "/>
<path fill="none" stroke-width="11.9553" stroke-linecap="butt" stroke-linejoin="miter" stroke="rgb(0%, 0%, 0%)" stroke-opacity="1" stroke-miterlimit="10" d="M 956.523423 1082.695296 L 951.054673 1045.624984 L 963.671861 1088.710921 L 919.062486 1083.789046 Z M 956.523423 1082.695296 " transform="matrix(0.2, 0, 0, -0.2, 0, 258)"/>
<path fill-rule="nonzero" fill="rgb(0%, 0%, 0%)" fill-opacity="1" d="M 137.828125 125.726562 C 137.765625 126.039062 137.640625 126.539062 137.640625 126.664062 C 137.640625 127.039062 137.953125 127.257812 138.265625 127.257812 C 138.546875 127.257812 138.921875 127.070312 139.078125 126.632812 C 139.140625 126.539062 139.859375 123.570312 139.953125 123.195312 C 140.140625 122.476562 140.515625 120.945312 140.640625 120.351562 C 140.734375 120.070312 141.359375 119.039062 141.890625 118.570312 C 142.046875 118.414062 142.671875 117.851562 143.609375 117.851562 C 144.203125 117.851562 144.515625 118.101562 144.546875 118.101562 C 143.890625 118.226562 143.390625 118.726562 143.390625 119.320312 C 143.390625 119.664062 143.640625 120.070312 144.234375 120.070312 C 144.828125 120.070312 145.421875 119.570312 145.421875 118.789062 C 145.421875 118.007812 144.734375 117.351562 143.609375 117.351562 C 142.203125 117.351562 141.234375 118.445312 140.828125 119.039062 C 140.640625 118.070312 139.859375 117.351562 138.859375 117.351562 C 137.828125 117.351562 137.421875 118.226562 137.234375 118.601562 C 136.828125 119.351562 136.546875 120.664062 136.546875 120.726562 C 136.546875 120.945312 136.765625 120.945312 136.828125 120.945312 C 137.046875 120.945312 137.046875 120.914062 137.171875 120.445312 C 137.546875 118.882812 137.984375 117.851562 138.765625 117.851562 C 139.140625 117.851562 139.453125 118.007812 139.453125 118.851562 C 139.453125 119.320312 139.390625 119.539062 139.109375 120.695312 Z M 137.828125 125.726562 "/>
<path fill-rule="nonzero" fill="rgb(0%, 0%, 0%)" fill-opacity="1" d="M 151.199219 119.621094 C 151.199219 119.183594 151.199219 119.152344 150.761719 119.152344 C 149.636719 120.277344 147.980469 120.277344 147.417969 120.277344 L 147.417969 120.839844 C 147.761719 120.839844 148.855469 120.839844 149.824219 120.371094 L 149.824219 129.652344 C 149.824219 130.308594 149.792969 130.527344 148.105469 130.527344 L 147.542969 130.527344 L 147.542969 131.089844 C 148.167969 131.027344 149.792969 131.027344 150.511719 131.027344 C 151.261719 131.027344 152.855469 131.027344 153.511719 131.089844 L 153.511719 130.527344 L 152.949219 130.527344 C 151.261719 130.527344 151.199219 130.308594 151.199219 129.652344 Z M 151.199219 119.621094 "/>
<path fill-rule="nonzero" fill="rgb(0%, 0%, 0%)" fill-opacity="1" d="M 142.039062 69.660156 C 142.164062 69.910156 142.382812 70.410156 142.476562 70.503906 C 142.726562 70.785156 143.101562 70.722656 143.320312 70.535156 C 143.539062 70.347656 143.726562 69.972656 143.539062 69.535156 C 143.539062 69.441406 142.195312 66.691406 142.039062 66.347656 C 141.695312 65.660156 141.007812 64.253906 140.726562 63.722656 C 140.601562 63.441406 140.414062 62.253906 140.507812 61.535156 C 140.539062 61.316406 140.664062 60.503906 141.382812 59.910156 C 141.851562 59.535156 142.257812 59.503906 142.257812 59.503906 C 141.820312 60.003906 141.789062 60.691406 142.164062 61.160156 C 142.382812 61.410156 142.820312 61.566406 143.289062 61.191406 C 143.726562 60.816406 143.882812 60.066406 143.382812 59.472656 C 142.882812 58.847656 141.914062 58.785156 141.039062 59.503906 C 139.976562 60.410156 139.945312 61.878906 140.007812 62.597656 C 139.257812 61.972656 138.195312 61.910156 137.414062 62.566406 C 136.632812 63.222656 136.882812 64.160156 136.976562 64.566406 C 137.164062 65.378906 137.789062 66.566406 137.820312 66.628906 C 137.945312 66.785156 138.132812 66.660156 138.164062 66.597656 C 138.351562 66.472656 138.351562 66.472656 138.132812 66.003906 C 137.414062 64.597656 137.101562 63.535156 137.695312 63.035156 C 137.976562 62.785156 138.320312 62.660156 138.851562 63.316406 C 139.164062 63.691406 139.226562 63.910156 139.757812 64.941406 Z M 142.039062 69.660156 "/>
<path fill-rule="nonzero" fill="rgb(0%, 0%, 0%)" fill-opacity="1" d="M 155.824219 60.898438 L 155.449219 61.210938 C 155.605469 61.429688 156.136719 62.335938 156.167969 62.679688 C 156.167969 62.898438 155.230469 63.679688 154.949219 63.929688 L 152.511719 65.960938 L 152.792969 63.523438 C 153.417969 59.679688 153.636719 58.273438 152.449219 56.867188 C 151.136719 55.304688 148.917969 55.242188 147.199219 56.679688 C 145.636719 57.992188 145.605469 60.148438 146.636719 61.398438 C 147.230469 62.085938 147.886719 61.679688 148.011719 61.585938 C 148.324219 61.335938 148.542969 60.773438 148.136719 60.273438 C 147.792969 59.867188 147.230469 59.804688 146.792969 60.148438 C 146.730469 60.210938 146.699219 60.242188 146.667969 60.304688 C 146.199219 59.054688 146.699219 57.867188 147.449219 57.242188 C 148.824219 56.085938 150.386719 56.992188 151.167969 57.929688 C 152.355469 59.335938 152.292969 61.335938 152.230469 62.585938 L 152.011719 67.429688 C 151.949219 67.710938 151.980469 67.742188 152.230469 68.054688 L 157.511719 63.648438 Z M 155.824219 60.898438 "/>
<path fill-rule="nonzero" fill="rgb(0%, 0%, 0%)" fill-opacity="1" d="M 65.597656 250.386719 C 66.785156 249.980469 68.785156 249.386719 68.785156 247.449219 C 68.785156 245.136719 66.066406 244.074219 64.097656 244.074219 C 63.160156 244.074219 62.191406 244.292969 61.347656 244.792969 C 61.222656 244.855469 61.066406 245.042969 60.910156 245.042969 C 60.597656 245.042969 60.035156 244.074219 59.722656 244.074219 C 59.535156 244.074219 59.503906 244.292969 59.503906 244.386719 L 59.503906 247.949219 C 59.503906 248.074219 59.597656 248.230469 59.785156 248.230469 C 60.097656 248.230469 60.066406 247.605469 60.160156 247.261719 C 60.628906 245.542969 62.191406 244.792969 63.691406 244.699219 L 64.097656 244.699219 C 65.441406 244.699219 67.003906 245.574219 67.003906 247.449219 C 67.003906 249.261719 65.222656 250.199219 63.566406 250.199219 C 63.253906 250.199219 62.941406 250.199219 62.628906 250.199219 L 62.472656 250.199219 C 62.285156 250.199219 62.066406 250.199219 62.066406 250.417969 L 62.066406 250.449219 C 62.097656 250.636719 62.285156 250.667969 62.472656 250.667969 L 64.316406 250.667969 C 65.878906 250.792969 67.316406 251.824219 67.472656 253.449219 L 67.472656 253.667969 C 67.472656 255.511719 65.753906 256.667969 64.003906 256.667969 C 62.097656 256.667969 60.128906 256.042969 59.816406 253.667969 C 59.816406 253.511719 59.753906 253.324219 59.535156 253.324219 C 59.316406 253.355469 59.285156 253.511719 59.285156 253.667969 C 59.285156 256.261719 61.878906 257.292969 64.128906 257.292969 C 66.191406 257.292969 69.066406 256.324219 69.316406 253.855469 L 69.316406 253.730469 C 69.316406 251.761719 67.253906 250.792969 65.597656 250.386719 Z M 65.597656 250.386719 "/>
<path fill-rule="nonzero" fill="rgb(0%, 0%, 0%)" fill-opacity="1" d="M 77.695312 244.074219 C 74.320312 244.480469 71.632812 247.136719 71.632812 250.730469 C 71.632812 254.011719 74.226562 257.261719 78.101562 257.261719 C 81.601562 257.261719 84.570312 254.355469 84.570312 250.730469 C 84.570312 247.542969 82.070312 244.074219 78.132812 244.074219 C 78.007812 244.074219 77.851562 244.074219 77.695312 244.074219 Z M 73.507812 250.949219 L 73.507812 250.605469 C 73.507812 248.105469 74.414062 245.167969 77.570312 244.636719 C 77.757812 244.605469 77.914062 244.605469 78.101562 244.605469 C 80.914062 244.605469 82.664062 247.324219 82.664062 250.355469 C 82.664062 252.761719 81.945312 255.824219 78.976562 256.605469 C 78.695312 256.667969 78.414062 256.699219 78.132812 256.699219 L 77.945312 256.699219 C 75.351562 256.605469 73.945312 254.136719 73.601562 251.730469 Z M 73.507812 250.949219 "/>
<path fill-rule="nonzero" fill="rgb(0%, 0%, 0%)" fill-opacity="1" d="M 87.027344 244.417969 L 87.027344 245.011719 L 87.464844 245.011719 C 88.058594 245.011719 88.683594 245.105469 88.683594 245.980469 L 88.683594 255.449219 C 88.683594 256.292969 87.964844 256.324219 87.308594 256.324219 L 87.027344 256.324219 L 87.027344 256.917969 L 92.808594 256.917969 C 93.214844 256.917969 93.589844 256.949219 93.996094 256.949219 C 95.996094 256.949219 98.339844 256.011719 98.558594 253.605469 L 98.558594 253.417969 C 98.558594 250.886719 95.683594 249.855469 93.777344 249.855469 C 92.527344 249.855469 91.339844 249.980469 90.152344 250.074219 L 90.152344 245.855469 C 90.152344 245.417969 90.214844 245.011719 90.996094 245.011719 L 93.308594 245.011719 C 94.277344 245.011719 95.371094 245.074219 96.089844 245.792969 C 96.777344 246.511719 96.871094 247.730469 96.964844 248.667969 L 97.496094 248.667969 L 97.027344 244.417969 Z M 90.152344 250.699219 C 90.402344 250.699219 90.652344 250.636719 90.902344 250.605469 L 92.277344 250.542969 C 92.558594 250.511719 92.839844 250.480469 93.152344 250.480469 C 94.714844 250.480469 96.683594 251.480469 96.683594 253.324219 C 96.683594 255.074219 95.339844 256.355469 93.339844 256.355469 C 93.058594 256.355469 92.746094 256.324219 92.496094 256.324219 L 90.964844 256.324219 C 90.496094 256.324219 90.246094 256.292969 90.152344 255.667969 Z M 90.152344 250.699219 "/>
<path fill-rule="nonzero" fill="rgb(0%, 0%, 0%)" fill-opacity="1" d="M 100.90625 244.417969 L 100.90625 245.011719 L 101.375 245.011719 C 101.96875 245.011719 102.5625 245.105469 102.5625 245.980469 L 102.5625 255.449219 C 102.5625 256.292969 101.875 256.324219 101.1875 256.324219 L 100.90625 256.324219 L 100.90625 256.917969 L 105.8125 256.917969 L 105.8125 256.324219 L 105.375 256.324219 C 104.75 256.324219 104.15625 256.261719 104.15625 255.386719 L 104.15625 251.199219 L 107.875 251.199219 C 109.65625 251.074219 111.9375 249.886719 111.9375 247.855469 C 111.9375 245.636719 109.59375 244.574219 107.6875 244.417969 Z M 104.125 250.667969 L 104.125 245.667969 C 104.21875 245.074219 104.46875 245.011719 104.875 245.011719 L 106.3125 245.011719 C 107.9375 245.011719 110.0625 245.074219 110.0625 247.855469 C 110.0625 248.511719 109.96875 249.199219 109.5625 249.699219 C 108.90625 250.480469 107.8125 250.667969 106.84375 250.667969 Z M 104.125 250.667969 "/>
<path fill-rule="nonzero" fill="rgb(0%, 0%, 0%)" fill-opacity="1" d="M 116.632812 254.636719 C 116.132812 254.730469 115.632812 255.167969 115.632812 255.761719 C 115.632812 256.386719 116.164062 256.917969 116.789062 256.917969 C 117.414062 256.917969 117.976562 256.449219 117.976562 255.792969 C 117.976562 255.167969 117.445312 254.605469 116.820312 254.605469 C 116.757812 254.605469 116.695312 254.636719 116.632812 254.636719 Z M 116.632812 254.636719 "/>
<path fill-rule="nonzero" fill="rgb(0%, 0%, 0%)" fill-opacity="1" d="M 131.410156 253.980469 C 131.503906 254.011719 131.660156 254.042969 131.816406 254.042969 C 132.472656 254.042969 132.847656 253.542969 132.847656 252.949219 C 132.847656 252.355469 132.378906 251.917969 131.816406 251.917969 C 131.222656 251.917969 130.722656 252.355469 130.722656 253.042969 C 130.722656 255.355469 132.628906 257.417969 135.191406 257.417969 C 138.097656 257.417969 140.472656 255.074219 140.472656 252.105469 C 140.472656 249.730469 139.128906 247.667969 136.722656 246.980469 C 136.472656 246.917969 136.191406 246.917969 135.910156 246.917969 C 134.660156 246.917969 133.535156 247.324219 132.660156 248.230469 L 132.660156 243.230469 C 133.410156 243.355469 134.097656 243.574219 134.878906 243.574219 C 136.472656 243.574219 138.066406 242.980469 139.253906 241.699219 C 139.378906 241.542969 139.535156 241.449219 139.535156 241.261719 L 139.535156 241.230469 C 139.503906 241.105469 139.410156 241.042969 139.316406 241.042969 C 139.253906 241.042969 139.253906 241.042969 139.191406 241.074219 C 138.035156 241.480469 137.035156 241.792969 135.816406 241.792969 C 134.753906 241.792969 133.628906 241.636719 132.660156 241.199219 C 132.535156 241.136719 132.441406 241.074219 132.285156 241.042969 L 132.222656 241.042969 C 132.128906 241.042969 132.035156 241.136719 132.035156 241.261719 L 132.035156 248.855469 C 132.035156 249.074219 132.066406 249.261719 132.316406 249.261719 C 132.597656 249.261719 132.753906 248.824219 132.941406 248.636719 C 133.691406 247.855469 134.691406 247.417969 135.785156 247.386719 C 136.941406 247.386719 137.660156 248.167969 138.097656 249.105469 C 138.535156 250.042969 138.535156 251.199219 138.535156 252.230469 C 138.535156 253.886719 138.191406 255.636719 136.472656 256.480469 C 136.035156 256.699219 135.566406 256.792969 135.128906 256.792969 C 133.410156 256.792969 131.910156 255.605469 131.410156 253.980469 Z M 131.410156 253.980469 "/>
<path fill-rule="nonzero" fill="rgb(0%, 0%, 0%)" fill-opacity="1" d="M 145.246094 249.292969 C 145.246094 247.042969 145.339844 244.480469 147.027344 242.792969 C 147.683594 242.136719 148.527344 241.667969 149.496094 241.605469 L 149.714844 241.605469 C 150.558594 241.605469 151.433594 241.855469 151.964844 242.574219 C 151.902344 242.542969 151.839844 242.542969 151.746094 242.542969 C 151.214844 242.542969 150.746094 242.949219 150.746094 243.542969 C 150.746094 244.105469 151.152344 244.574219 151.746094 244.574219 C 152.277344 244.574219 152.777344 244.167969 152.777344 243.574219 C 152.777344 241.824219 151.246094 241.042969 149.652344 241.042969 C 145.652344 241.042969 143.277344 245.417969 143.277344 249.167969 C 143.277344 252.386719 143.933594 257.417969 148.464844 257.417969 C 150.371094 257.417969 151.839844 256.230469 152.746094 254.699219 C 153.183594 253.855469 153.339844 252.917969 153.339844 252.011719 C 153.339844 249.480469 151.527344 246.730469 148.621094 246.730469 C 147.371094 246.730469 146.371094 247.324219 145.746094 248.324219 C 145.558594 248.605469 145.339844 248.949219 145.246094 249.292969 Z M 145.277344 251.605469 L 145.277344 251.417969 C 145.277344 249.542969 146.339844 247.230469 148.496094 247.230469 C 150.214844 247.230469 151.183594 248.855469 151.339844 250.386719 C 151.371094 251.011719 151.371094 251.636719 151.371094 252.261719 C 151.371094 253.730469 151.246094 255.480469 149.871094 256.355469 C 149.433594 256.636719 148.933594 256.792969 148.402344 256.792969 C 146.121094 256.792969 145.433594 254.449219 145.308594 252.355469 C 145.308594 252.105469 145.308594 251.855469 145.277344 251.605469 Z M 145.277344 251.605469 "/>
<path fill-rule="nonzero" fill="rgb(0%, 0%, 0%)" fill-opacity="1" d="M 158.140625 254.636719 C 157.640625 254.730469 157.140625 255.167969 157.140625 255.761719 C 157.140625 256.386719 157.671875 256.917969 158.296875 256.917969 C 158.921875 256.917969 159.484375 256.449219 159.484375 255.792969 C 159.484375 255.167969 158.953125 254.605469 158.328125 254.605469 C 158.265625 254.605469 158.203125 254.636719 158.140625 254.636719 Z M 158.140625 254.636719 "/>
</svg>
