<?xml version="1.0" encoding="UTF-8"?>
<svg xmlns="http://www.w3.org/2000/svg" xmlns:xlink="http://www.w3.org/1999/xlink" width="238" height="298" viewBox="0 0 238 298">
<path fill="none" stroke-width="11.9553" stroke-linecap="butt" stroke-linejoin="miter" stroke="rgb(0%, 0%, 0%)" stroke-opacity="1" stroke-miterlimit="10" d="M 10 321.601558 L 1090.039046 321.601558 L 1090.039046 1401.601542 L 10 1401.601542 Z M 10 321.601558 " transform="matrix(0.2, 0, 0, -0.2, 0, 298)"/>
<path fill-rule="nonzero" fill="rgb(0%, 0%, 0%)" fill-opacity="1" d="M 233.253906 123.886719 C 233.378906 123.324219 233.878906 121.324219 235.410156 121.324219 C 235.535156 121.324219 236.035156 121.324219 236.503906 121.605469 C 235.910156 121.699219 235.472656 122.261719 235.472656 122.792969 C 235.472656 123.136719 235.691406 123.542969 236.285156 123.542969 C 236.785156 123.542969 237.472656 123.136719 237.472656 122.292969 C 237.472656 121.136719 236.191406 120.824219 235.441406 120.824219 C 234.160156 120.824219 233.410156 121.980469 233.160156 122.511719 C 232.597656 121.042969 231.410156 120.824219 230.785156 120.824219 C 228.535156 120.824219 227.285156 123.667969 227.285156 124.199219 C 227.285156 124.417969 227.503906 124.417969 227.535156 124.417969 C 227.722656 124.417969 227.785156 124.386719 227.816406 124.167969 C 228.566406 121.855469 230.003906 121.324219 230.753906 121.324219 C 231.160156 121.324219 231.941406 121.511719 231.941406 122.792969 C 231.941406 123.449219 231.566406 124.917969 230.753906 127.980469 C 230.410156 129.324219 229.628906 130.230469 228.691406 130.230469 C 228.535156 130.230469 228.035156 130.230469 227.597656 129.949219 C 228.128906 129.855469 228.597656 129.386719 228.597656 128.792969 C 228.597656 128.199219 228.128906 128.011719 227.816406 128.011719 C 227.160156 128.011719 226.597656 128.574219 226.597656 129.292969 C 226.597656 130.292969 227.691406 130.730469 228.660156 130.730469 C 230.097656 130.730469 230.878906 129.199219 230.941406 129.074219 C 231.222656 129.855469 232.003906 130.730469 233.316406 130.730469 C 235.535156 130.730469 236.785156 127.917969 236.785156 127.355469 C 236.785156 127.136719 236.597656 127.136719 236.535156 127.136719 C 236.347656 127.136719 236.285156 127.230469 236.253906 127.386719 C 235.535156 129.730469 234.035156 130.230469 233.347656 130.230469 C 232.503906 130.230469 232.160156 129.542969 232.160156 128.792969 C 232.160156 128.324219 232.285156 127.855469 232.503906 126.886719 Z M 233.253906 123.886719 "/>
<path fill-rule="nonzero" fill="rgb(0%, 0%, 0%)" fill-opacity="1" d="M 111.042969 3.113281 C 111.167969 2.550781 111.667969 0.550781 113.199219 0.550781 C 113.324219 0.550781 113.824219 0.550781 114.292969 0.832031 C 113.699219 0.925781 113.261719 1.488281 113.261719 2.019531 C 113.261719 2.363281 113.480469 2.769531 114.074219 2.769531 C 114.574219 2.769531 115.261719 2.363281 115.261719 1.519531 C 115.261719 0.363281 113.980469 0.0507812 113.230469 0.0507812 C 111.949219 0.0507812 111.199219 1.207031 110.949219 1.738281 C 110.386719 0.269531 109.199219 0.0507812 108.574219 0.0507812 C 106.324219 0.0507812 105.074219 2.894531 105.074219 3.425781 C 105.074219 3.644531 105.292969 3.644531 105.324219 3.644531 C 105.511719 3.644531 105.574219 3.613281 105.605469 3.394531 C 106.355469 1.082031 107.792969 0.550781 108.542969 0.550781 C 108.949219 0.550781 109.730469 0.738281 109.730469 2.019531 C 109.730469 2.675781 109.355469 4.144531 108.542969 7.207031 C 108.199219 8.550781 107.417969 9.457031 106.480469 9.457031 C 106.324219 9.457031 105.824219 9.457031 105.386719 9.175781 C 105.917969 9.082031 106.386719 8.613281 106.386719 8.019531 C 106.386719 7.425781 105.917969 7.238281 105.605469 7.238281 C 104.949219 7.238281 104.386719 7.800781 104.386719 8.519531 C 104.386719 9.519531 105.480469 9.957031 106.449219 9.957031 C 107.886719 9.957031 108.667969 8.425781 108.730469 8.300781 C 109.011719 9.082031 109.792969 9.957031 111.105469 9.957031 C 113.324219 9.957031 114.574219 7.144531 114.574219 6.582031 C 114.574219 6.363281 114.386719 6.363281 114.324219 6.363281 C 114.136719 6.363281 114.074219 6.457031 114.042969 6.613281 C 113.324219 8.957031 111.824219 9.457031 111.136719 9.457031 C 110.292969 9.457031 109.949219 8.769531 109.949219 8.019531 C 109.949219 7.550781 110.074219 7.082031 110.292969 6.113281 Z M 111.042969 3.113281 "/>
<path fill-rule="nonzero" fill="rgb(0%, 0%, 0%)" fill-opacity="1" d="M 71.839844 290.300781 C 73.027344 289.894531 75.027344 289.300781 75.027344 287.363281 C 75.027344 285.050781 72.308594 283.988281 70.339844 283.988281 C 69.402344 283.988281 68.433594 284.207031 67.589844 284.707031 C 67.464844 284.769531 67.308594 284.957031 67.152344 284.957031 C 66.839844 284.957031 66.277344 283.988281 65.964844 283.988281 C 65.777344 283.988281 65.746094 284.207031 65.746094 284.300781 L 65.746094 287.863281 C 65.746094 287.988281 65.839844 288.144531 66.027344 288.144531 C 66.339844 288.144531 66.308594 287.519531 66.402344 287.175781 C 66.871094 285.457031 68.433594 284.707031 69.933594 284.613281 L 70.339844 284.613281 C 71.683594 284.613281 73.246094 285.488281 73.246094 287.363281 C 73.246094 289.175781 71.464844 290.113281 69.808594 290.113281 C 69.496094 290.113281 69.183594 290.113281 68.871094 290.113281 L 68.714844 290.113281 C 68.527344 290.113281 68.308594 290.113281 68.308594 290.332031 L 68.308594 290.363281 C 68.339844 290.550781 68.527344 290.582031 68.714844 290.582031 L 70.558594 290.582031 C 72.121094 290.707031 73.558594 291.738281 73.714844 293.363281 L 73.714844 293.582031 C 73.714844 295.425781 71.996094 296.582031 70.246094 296.582031 C 68.339844 296.582031 66.371094 295.957031 66.058594 293.582031 C 66.058594 293.425781 65.996094 293.238281 65.777344 293.238281 C 65.558594 293.269531 65.527344 293.425781 65.527344 293.582031 C 65.527344 296.175781 68.121094 297.207031 70.371094 297.207031 C 72.433594 297.207031 75.308594 296.238281 75.558594 293.769531 L 75.558594 293.644531 C 75.558594 291.675781 73.496094 290.707031 71.839844 290.300781 Z M 71.839844 290.300781 "/>
<path fill-rule="nonzero" fill="rgb(0%, 0%, 0%)" fill-opacity="1" d="M 83.933594 283.988281 C 80.558594 284.394531 77.871094 287.050781 77.871094 290.644531 C 77.871094 293.925781 80.464844 297.175781 84.339844 297.175781 C 87.839844 297.175781 90.808594 294.269531 90.808594 290.644531 C 90.808594 287.457031 88.308594 283.988281 84.371094 283.988281 C 84.246094 283.988281 84.089844 283.988281 83.933594 283.988281 Z M 79.746094 290.863281 L 79.746094 290.519531 C 79.746094 288.019531 80.652344 285.082031 83.808594 284.550781 C 83.996094 284.519531 84.152344 284.519531 84.339844 284.519531 C 87.152344 284.519531 88.902344 287.238281 88.902344 290.269531 C 88.902344 292.675781 88.183594 295.738281 85.214844 296.519531 C 84.933594 296.582031 84.652344 296.613281 84.371094 296.613281 L 84.183594 296.613281 C 81.589844 296.519531 80.183594 294.050781 79.839844 291.644531 Z M 79.746094 290.863281 "/>
<path fill-rule="nonzero" fill="rgb(0%, 0%, 0%)" fill-opacity="1" d="M 93.265625 284.332031 L 93.265625 284.925781 L 93.703125 284.925781 C 94.296875 284.925781 94.921875 285.019531 94.921875 285.894531 L 94.921875 295.363281 C 94.921875 296.207031 94.203125 296.238281 93.546875 296.238281 L 93.265625 296.238281 L 93.265625 296.832031 L 99.046875 296.832031 C 99.453125 296.832031 99.828125 296.863281 100.234375 296.863281 C 102.234375 296.863281 104.578125 295.925781 104.796875 293.519531 L 104.796875 293.332031 C 104.796875 290.800781 101.921875 289.769531 100.015625 289.769531 C 98.765625 289.769531 97.578125 289.894531 96.390625 289.988281 L 96.390625 285.769531 C 96.390625 285.332031 96.453125 284.925781 97.234375 284.925781 L 99.546875 284.925781 C 100.515625 284.925781 101.609375 284.988281 102.328125 285.707031 C 103.015625 286.425781 103.109375 287.644531 103.203125 288.582031 L 103.734375 288.582031 L 103.265625 284.332031 Z M 96.390625 290.613281 C 96.640625 290.613281 96.890625 290.550781 97.140625 290.519531 L 98.515625 290.457031 C 98.796875 290.425781 99.078125 290.394531 99.390625 290.394531 C 100.953125 290.394531 102.921875 291.394531 102.921875 293.238281 C 102.921875 294.988281 101.578125 296.269531 99.578125 296.269531 C 99.296875 296.269531 98.984375 296.238281 98.734375 296.238281 L 97.203125 296.238281 C 96.734375 296.238281 96.484375 296.207031 96.390625 295.582031 Z M 96.390625 290.613281 "/>
<path fill-rule="nonzero" fill="rgb(0%, 0%, 0%)" fill-opacity="1" d="M 107.144531 284.332031 L 107.144531 284.925781 L 107.613281 284.925781 C 108.207031 284.925781 108.800781 285.019531 108.800781 285.894531 L 108.800781 295.363281 C 108.800781 296.207031 108.113281 296.238281 107.425781 296.238281 L 107.144531 296.238281 L 107.144531 296.832031 L 112.050781 296.832031 L 112.050781 296.238281 L 111.613281 296.238281 C 110.988281 296.238281 110.394531 296.175781 110.394531 295.300781 L 110.394531 291.113281 L 114.113281 291.113281 C 115.894531 290.988281 118.175781 289.800781 118.175781 287.769531 C 118.175781 285.550781 115.832031 284.488281 113.925781 284.332031 Z M 110.363281 290.582031 L 110.363281 285.582031 C 110.457031 284.988281 110.707031 284.925781 111.113281 284.925781 L 112.550781 284.925781 C 114.175781 284.925781 116.300781 284.988281 116.300781 287.769531 C 116.300781 288.425781 116.207031 289.113281 115.800781 289.613281 C 115.144531 290.394531 114.050781 290.582031 113.082031 290.582031 Z M 110.363281 290.582031 "/>
<path fill-rule="nonzero" fill="rgb(0%, 0%, 0%)" fill-opacity="1" d="M 122.875 294.550781 C 122.375 294.644531 121.875 295.082031 121.875 295.675781 C 121.875 296.300781 122.40625 296.832031 123.03125 296.832031 C 123.65625 296.832031 124.21875 296.363281 124.21875 295.707031 C 124.21875 295.082031 123.6875 294.519531 123.0625 294.519531 C 123 294.519531 122.9375 294.550781 122.875 294.550781 Z M 122.875 294.550781 "/>
<path fill-rule="nonzero" fill="rgb(0%, 0%, 0%)" fill-opacity="1" d="M 138.054688 282.457031 L 138.054688 283.175781 C 139.148438 283.175781 140.179688 282.988281 141.210938 282.519531 L 141.210938 295.082031 C 141.210938 296.019531 140.304688 296.175781 139.335938 296.175781 C 138.929688 296.175781 138.523438 296.144531 138.179688 296.144531 L 138.179688 296.832031 L 145.898438 296.832031 L 145.898438 296.144531 C 145.523438 296.144531 145.085938 296.175781 144.679688 296.175781 C 143.742188 296.175781 142.867188 296.019531 142.867188 295.113281 L 142.867188 281.300781 C 142.867188 281.144531 142.835938 280.957031 142.585938 280.957031 C 142.273438 280.957031 141.929688 281.394531 141.617188 281.582031 C 140.554688 282.269531 139.273438 282.457031 138.054688 282.457031 Z M 138.054688 282.457031 "/>
<path fill-rule="nonzero" fill="rgb(0%, 0%, 0%)" fill-opacity="1" d="M 151.671875 294.550781 C 151.171875 294.644531 150.671875 295.082031 150.671875 295.675781 C 150.671875 296.300781 151.203125 296.832031 151.828125 296.832031 C 152.453125 296.832031 153.015625 296.363281 153.015625 295.707031 C 153.015625 295.082031 152.484375 294.519531 151.859375 294.519531 C 151.796875 294.519531 151.734375 294.550781 151.671875 294.550781 Z M 151.671875 294.550781 "/>
</svg>
