<?xml version="1.0" encoding="UTF-8"?>
<svg xmlns="http://www.w3.org/2000/svg" xmlns:xlink="http://www.w3.org/1999/xlink" width="330" height="490" viewBox="0 0 330 490">
<path fill="none" stroke-width="11.9553" stroke-linecap="butt" stroke-linejoin="miter" stroke="rgb(0%, 0%, 0%)" stroke-opacity="1" stroke-miterlimit="10" d="M 189.999997 401.601557 L 1486.015603 401.601557 L 189.999997 2349.960902 Z M 189.999997 401.601557 " transform="matrix(0.2, 0, 0, -0.2, 0, 490)"/>
<path fill="none" stroke-width="11.9553" stroke-linecap="butt" stroke-linejoin="miter" stroke="rgb(0%, 0%, 0%)" stroke-opacity="1" stroke-miterlimit="10" d="M 189.999997 401.601557 L 1630.039038 401.601557 L 189.999997 2246.054654 Z M 189.999997 401.601557 " transform="matrix(0.2, 0, 0, -0.2, 0, 490)"/>
<path fill-rule="nonzero" fill="rgb(100%, 100%, 100%)" fill-opacity="1" d="M 155.335938 431.023438 L 179.8125 431.023438 L 179.8125 452.382812 L 155.335938 452.382812 Z M 155.335938 431.023438 "/>
<path fill-rule="nonzero" fill="rgb(0%, 0%, 0%)" fill-opacity="1" d="M 168.640625 439.765625 C 168.765625 439.203125 169.265625 437.203125 170.796875 437.203125 C 170.921875 437.203125 171.421875 437.203125 171.890625 437.484375 C 171.296875 437.578125 170.859375 438.140625 170.859375 438.671875 C 170.859375 439.015625 171.078125 439.421875 171.671875 439.421875 C 172.171875 439.421875 172.859375 439.015625 172.859375 438.171875 C 172.859375 437.015625 171.578125 436.703125 170.828125 436.703125 C 169.546875 436.703125 168.796875 437.859375 168.546875 438.390625 C 167.984375 436.921875 166.796875 436.703125 166.171875 436.703125 C 163.921875 436.703125 162.671875 439.546875 162.671875 440.078125 C 162.671875 440.296875 162.890625 440.296875 162.921875 440.296875 C 163.109375 440.296875 163.171875 440.265625 163.203125 440.046875 C 163.953125 437.734375 165.390625 437.203125 166.140625 437.203125 C 166.546875 437.203125 167.328125 437.390625 167.328125 438.671875 C 167.328125 439.328125 166.953125 440.796875 166.140625 443.859375 C 165.796875 445.203125 165.015625 446.109375 164.078125 446.109375 C 163.921875 446.109375 163.421875 446.109375 162.984375 445.828125 C 163.515625 445.734375 163.984375 445.265625 163.984375 444.671875 C 163.984375 444.078125 163.515625 443.890625 163.203125 443.890625 C 162.546875 443.890625 161.984375 444.453125 161.984375 445.171875 C 161.984375 446.171875 163.078125 446.609375 164.046875 446.609375 C 165.484375 446.609375 166.265625 445.078125 166.328125 444.953125 C 166.609375 445.734375 167.390625 446.609375 168.703125 446.609375 C 170.921875 446.609375 172.171875 443.796875 172.171875 443.234375 C 172.171875 443.015625 171.984375 443.015625 171.921875 443.015625 C 171.734375 443.015625 171.671875 443.109375 171.640625 443.265625 C 170.921875 445.609375 169.421875 446.109375 168.734375 446.109375 C 167.890625 446.109375 167.546875 445.421875 167.546875 444.671875 C 167.546875 444.203125 167.671875 443.734375 167.890625 442.765625 Z M 168.640625 439.765625 "/>
<path fill-rule="nonzero" fill="rgb(0%, 0%, 0%)" fill-opacity="1" d="M 41.984375 413.664062 L 42.203125 414.15625 L 42.460938 414.625 L 42.75 415.078125 L 43.078125 415.515625 L 43.4375 415.9375 L 43.835938 416.335938 L 44.273438 416.71875 L 44.734375 417.09375 L 45.234375 417.445312 L 45.765625 417.789062 L 46.328125 418.109375 L 46.921875 418.421875 L 47.546875 418.710938 L 48.203125 418.992188 L 48.882812 419.265625 L 49.601562 419.515625 L 50.335938 419.757812 L 51.109375 419.976562 L 51.90625 420.195312 L 52.726562 420.398438 L 53.578125 420.585938 L 54.453125 420.773438 L 55.351562 420.9375 L 56.273438 421.09375 L 57.21875 421.242188 L 58.1875 421.375 L 59.179688 421.5 L 60.195312 421.617188 L 61.226562 421.726562 L 62.28125 421.820312 L 63.359375 421.914062 L 64.453125 421.992188 L 65.570312 422.0625 L 66.703125 422.132812 L 67.851562 422.1875 L 69.015625 422.234375 L 70.203125 422.28125 L 71.398438 422.3125 L 72.617188 422.34375 L 73.84375 422.375 L 75.085938 422.390625 L 76.34375 422.40625 L 77.609375 422.414062 L 78.898438 422.421875 L 81.492188 422.421875 L 82.8125 422.414062 L 84.140625 422.398438 L 85.46875 422.390625 L 86.8125 422.375 L 88.164062 422.351562 L 89.523438 422.328125 L 90.890625 422.3125 L 92.265625 422.289062 L 93.648438 422.265625 L 95.03125 422.234375 L 97.8125 422.1875 L 99.210938 422.15625 L 100.609375 422.132812 L 102.015625 422.109375 L 103.414062 422.085938 L 104.820312 422.0625 L 106.226562 422.046875 L 107.632812 422.023438 L 109.03125 422.007812 L 110.4375 422 L 111.835938 421.984375 L 113.242188 421.984375 L 114.632812 421.976562 L 116.03125 421.976562 L 117.414062 421.984375 L 118.804688 421.992188 L 120.179688 422.007812 L 121.554688 422.03125 L 124.273438 422.09375 L 125.625 422.132812 L 126.96875 422.171875 L 128.304688 422.226562 L 129.632812 422.28125 L 130.945312 422.351562 L 133.539062 422.507812 L 134.820312 422.601562 L 136.085938 422.695312 L 137.34375 422.804688 L 138.585938 422.921875 L 139.8125 423.054688 L 141.023438 423.1875 L 142.21875 423.34375 L 143.40625 423.5 L 144.570312 423.671875 L 145.71875 423.851562 L 146.84375 424.046875 L 147.953125 424.25 L 149.046875 424.46875 L 150.125 424.695312 L 151.179688 424.9375 L 152.210938 425.195312 L 153.21875 425.46875 L 154.210938 425.75 L 155.171875 426.046875 L 156.117188 426.359375 L 157.039062 426.6875 L 157.9375 427.03125 L 158.804688 427.390625 L 159.648438 427.765625 L 160.46875 428.148438 L 161.265625 428.554688 L 162.03125 428.976562 L 162.765625 429.421875 L 163.476562 429.875 L 164.15625 430.351562 L 164.8125 430.84375 L 165.429688 431.359375 L 166.023438 431.882812 L 166.578125 432.4375 L 167.109375 433 L 167.601562 433.59375 L 168.09375 433 L 168.625 432.4375 L 169.179688 431.882812 L 169.773438 431.359375 L 170.390625 430.84375 L 171.046875 430.351562 L 171.726562 429.875 L 172.4375 429.421875 L 173.171875 428.976562 L 173.9375 428.554688 L 174.734375 428.148438 L 175.554688 427.765625 L 176.398438 427.390625 L 177.265625 427.03125 L 178.164062 426.6875 L 179.085938 426.359375 L 180.03125 426.046875 L 180.992188 425.75 L 181.984375 425.46875 L 182.992188 425.195312 L 184.03125 424.9375 L 185.078125 424.695312 L 186.15625 424.46875 L 187.25 424.25 L 188.359375 424.046875 L 189.484375 423.851562 L 190.632812 423.671875 L 191.796875 423.5 L 192.976562 423.34375 L 194.179688 423.1875 L 195.390625 423.054688 L 196.617188 422.921875 L 197.859375 422.804688 L 199.117188 422.695312 L 200.382812 422.601562 L 201.664062 422.507812 L 204.257812 422.351562 L 205.570312 422.28125 L 206.898438 422.226562 L 208.234375 422.171875 L 209.578125 422.132812 L 210.929688 422.09375 L 213.648438 422.03125 L 215.023438 422.007812 L 216.398438 421.992188 L 219.179688 421.976562 L 220.570312 421.976562 L 221.960938 421.984375 L 223.367188 421.984375 L 224.765625 422 L 226.171875 422.007812 L 227.570312 422.023438 L 228.976562 422.046875 L 230.382812 422.0625 L 233.195312 422.109375 L 235.992188 422.15625 L 237.390625 422.1875 L 240.171875 422.234375 L 241.554688 422.265625 L 242.9375 422.289062 L 244.3125 422.3125 L 245.679688 422.328125 L 247.039062 422.351562 L 248.390625 422.375 L 249.734375 422.390625 L 251.070312 422.398438 L 252.390625 422.414062 L 253.710938 422.421875 L 256.304688 422.421875 L 257.59375 422.414062 L 258.859375 422.40625 L 260.117188 422.390625 L 261.359375 422.375 L 262.585938 422.34375 L 263.804688 422.3125 L 265 422.28125 L 266.1875 422.234375 L 267.351562 422.1875 L 268.5 422.132812 L 269.632812 422.0625 L 270.75 421.992188 L 271.84375 421.914062 L 272.921875 421.820312 L 273.976562 421.726562 L 275.007812 421.617188 L 276.023438 421.5 L 277.015625 421.375 L 277.984375 421.242188 L 278.929688 421.09375 L 279.851562 420.9375 L 280.75 420.773438 L 281.625 420.585938 L 282.476562 420.398438 L 283.296875 420.195312 L 284.09375 419.976562 L 284.859375 419.757812 L 285.601562 419.515625 L 286.3125 419.265625 L 287 418.992188 L 287.65625 418.710938 L 288.28125 418.421875 L 288.875 418.109375 L 289.4375 417.789062 L 289.96875 417.445312 L 290.46875 417.09375 L 290.929688 416.71875 L 291.367188 416.335938 L 291.765625 415.9375 L 292.125 415.515625 L 292.453125 415.078125 L 292.742188 414.625 L 293 414.15625 L 293.21875 413.664062 L 292.898438 414.351562 L 292.554688 415.007812 L 292.171875 415.648438 L 291.75 416.257812 L 291.304688 416.851562 L 290.828125 417.414062 L 290.3125 417.960938 L 289.773438 418.476562 L 289.203125 418.984375 L 288.601562 419.460938 L 287.96875 419.914062 L 287.3125 420.351562 L 286.625 420.773438 L 285.914062 421.171875 L 285.171875 421.546875 L 284.40625 421.90625 L 283.617188 422.242188 L 282.796875 422.570312 L 281.960938 422.875 L 281.09375 423.164062 L 280.203125 423.429688 L 279.289062 423.6875 L 278.359375 423.921875 L 277.398438 424.148438 L 276.421875 424.351562 L 275.421875 424.539062 L 274.40625 424.71875 L 273.367188 424.882812 L 272.3125 425.03125 L 271.234375 425.164062 L 270.140625 425.289062 L 269.03125 425.398438 L 267.90625 425.492188 L 266.765625 425.578125 L 265.601562 425.65625 L 264.429688 425.71875 L 263.234375 425.773438 L 262.039062 425.8125 L 260.820312 425.84375 L 259.585938 425.875 L 258.34375 425.882812 L 257.09375 425.890625 L 255.828125 425.890625 L 253.265625 425.859375 L 251.96875 425.835938 L 250.65625 425.804688 L 249.34375 425.765625 L 248.023438 425.71875 L 246.695312 425.671875 L 245.359375 425.617188 L 244.015625 425.5625 L 242.664062 425.5 L 241.304688 425.429688 L 239.953125 425.359375 L 238.585938 425.289062 L 235.851562 425.132812 L 233.101562 424.976562 L 231.71875 424.890625 L 228.96875 424.71875 L 227.59375 424.640625 L 226.210938 424.554688 L 224.835938 424.476562 L 223.460938 424.390625 L 222.09375 424.3125 L 220.71875 424.234375 L 219.359375 424.164062 L 217.992188 424.09375 L 216.640625 424.023438 L 215.289062 423.960938 L 213.945312 423.898438 L 212.601562 423.84375 L 211.273438 423.789062 L 209.945312 423.742188 L 208.625 423.703125 L 207.3125 423.671875 L 206.015625 423.640625 L 204.71875 423.625 L 203.4375 423.609375 L 202.171875 423.601562 L 200.914062 423.601562 L 199.664062 423.617188 L 198.429688 423.632812 L 197.203125 423.664062 L 195.992188 423.703125 L 194.796875 423.75 L 193.617188 423.8125 L 192.453125 423.882812 L 191.304688 423.960938 L 190.164062 424.046875 L 189.046875 424.15625 L 187.945312 424.273438 L 186.859375 424.398438 L 185.796875 424.546875 L 184.75 424.703125 L 183.726562 424.875 L 182.71875 425.054688 L 181.734375 425.257812 L 180.765625 425.46875 L 179.820312 425.703125 L 178.898438 425.945312 L 178 426.210938 L 177.125 426.492188 L 176.273438 426.789062 L 175.445312 427.101562 L 174.640625 427.4375 L 173.859375 427.789062 L 173.109375 428.15625 L 172.390625 428.546875 L 171.6875 428.953125 L 171.015625 429.382812 L 170.375 429.828125 L 169.757812 430.304688 L 169.179688 430.789062 L 168.617188 431.304688 L 168.09375 431.835938 L 167.601562 432.398438 L 167.109375 431.835938 L 166.585938 431.304688 L 166.03125 430.789062 L 165.445312 430.304688 L 164.828125 429.828125 L 164.1875 429.382812 L 163.515625 428.953125 L 162.820312 428.546875 L 162.09375 428.15625 L 161.34375 427.789062 L 160.5625 427.4375 L 159.757812 427.101562 L 158.929688 426.789062 L 158.078125 426.492188 L 157.203125 426.210938 L 156.304688 425.945312 L 155.382812 425.703125 L 154.4375 425.46875 L 153.46875 425.257812 L 152.484375 425.054688 L 151.476562 424.875 L 150.453125 424.703125 L 149.40625 424.546875 L 148.335938 424.398438 L 147.257812 424.273438 L 146.15625 424.15625 L 145.039062 424.046875 L 143.90625 423.960938 L 142.75 423.882812 L 141.585938 423.8125 L 140.40625 423.75 L 139.203125 423.703125 L 138 423.664062 L 136.773438 423.632812 L 135.539062 423.617188 L 134.289062 423.601562 L 133.03125 423.601562 L 131.765625 423.609375 L 130.484375 423.625 L 129.1875 423.640625 L 127.890625 423.671875 L 126.578125 423.703125 L 125.257812 423.742188 L 123.9375 423.789062 L 121.265625 423.898438 L 118.5625 424.023438 L 117.210938 424.09375 L 115.84375 424.164062 L 114.484375 424.234375 L 113.109375 424.3125 L 111.742188 424.390625 L 110.367188 424.476562 L 108.992188 424.554688 L 107.609375 424.640625 L 106.234375 424.71875 L 104.859375 424.804688 L 103.476562 424.890625 L 102.101562 424.976562 L 99.351562 425.132812 L 96.617188 425.289062 L 92.539062 425.5 L 91.1875 425.5625 L 89.84375 425.617188 L 88.507812 425.671875 L 87.179688 425.71875 L 85.859375 425.765625 L 84.546875 425.804688 L 83.234375 425.835938 L 81.9375 425.859375 L 79.375 425.890625 L 78.109375 425.890625 L 76.859375 425.882812 L 75.617188 425.875 L 74.382812 425.84375 L 73.171875 425.8125 L 71.960938 425.773438 L 70.773438 425.71875 L 69.601562 425.65625 L 68.4375 425.578125 L 67.296875 425.492188 L 66.171875 425.398438 L 65.0625 425.289062 L 63.96875 425.164062 L 62.890625 425.03125 L 61.835938 424.882812 L 60.796875 424.71875 L 59.78125 424.539062 L 58.78125 424.351562 L 57.804688 424.148438 L 56.851562 423.921875 L 55.914062 423.6875 L 55 423.429688 L 54.109375 423.164062 L 53.25 422.875 L 52.40625 422.570312 L 51.585938 422.242188 L 50.796875 421.90625 L 50.03125 421.546875 L 49.289062 421.171875 L 48.578125 420.773438 L 47.890625 420.351562 L 47.234375 419.914062 L 46.601562 419.460938 L 46 418.984375 L 45.429688 418.476562 L 44.890625 417.960938 L 44.382812 417.414062 L 43.898438 416.851562 L 43.445312 416.257812 L 43.03125 415.648438 L 42.648438 415.007812 L 42.296875 414.351562 L 41.984375 413.664062 "/>
<path fill="none" stroke-width="3.985" stroke-linecap="butt" stroke-linejoin="miter" stroke="rgb(0%, 0%, 0%)" stroke-opacity="1" stroke-miterlimit="10" d="M 209.921872 381.679682 L 211.015622 379.218744 L 212.304684 376.874994 L 213.749997 374.609369 L 215.390622 372.421869 L 217.187497 370.312494 L 219.179684 368.320307 L 221.367184 366.406245 L 223.671872 364.531245 L 226.171872 362.773432 L 228.828122 361.054682 L 231.640622 359.45312 L 234.609372 357.89062 L 237.734371 356.445307 L 241.015621 355.039057 L 244.414059 353.67187 L 248.007809 352.42187 L 251.679684 351.210932 L 255.546871 350.117182 L 259.531246 349.023432 L 263.632809 348.007807 L 267.890621 347.070307 L 272.265621 346.132807 L 276.757808 345.312495 L 281.367183 344.531245 L 286.093746 343.789057 L 290.937496 343.124995 L 295.898433 342.499995 L 300.976558 341.914057 L 306.132808 341.367182 L 311.406245 340.898432 L 316.79687 340.429682 L 322.26562 340.039057 L 327.851558 339.687495 L 333.51562 339.335932 L 339.257807 339.062495 L 345.07812 338.82812 L 351.01562 338.593745 L 356.992182 338.437495 L 363.085932 338.281245 L 369.218744 338.124995 L 375.429682 338.04687 L 381.718744 337.968745 L 388.046869 337.929682 L 394.492182 337.89062 L 407.460931 337.89062 L 414.062494 337.929682 L 420.703119 338.007807 L 427.343744 338.04687 L 434.062494 338.124995 L 440.820306 338.242182 L 447.617181 338.35937 L 454.453118 338.437495 L 461.328118 338.554682 L 468.242181 338.67187 L 475.156243 338.82812 L 489.062493 339.062495 L 496.05468 339.218745 L 503.046868 339.335932 L 510.078117 339.45312 L 517.070305 339.570307 L 524.101555 339.687495 L 531.132805 339.76562 L 538.164054 339.882807 L 545.156242 339.960932 L 552.187492 339.999995 L 559.179679 340.07812 L 566.210929 340.07812 L 573.164054 340.117182 L 580.156241 340.117182 L 587.070304 340.07812 L 594.023429 340.039057 L 600.898429 339.960932 L 607.773428 339.843745 L 621.367178 339.531245 L 628.124991 339.335932 L 634.843741 339.14062 L 641.523428 338.867182 L 648.164053 338.593745 L 654.726553 338.242182 L 667.695303 337.460932 L 674.101552 336.992182 L 680.429677 336.523432 L 686.71874 335.976557 L 692.929677 335.39062 L 699.06249 334.726558 L 705.117177 334.062495 L 711.093739 333.281245 L 717.031239 332.499995 L 722.851552 331.64062 L 728.593739 330.742183 L 734.218739 329.76562 L 739.765614 328.749995 L 745.234364 327.656245 L 750.624989 326.523433 L 755.898426 325.312495 L 761.054676 324.023433 L 766.093739 322.656245 L 771.054676 321.249995 L 775.859363 319.76562 L 780.585926 318.20312 L 785.195301 316.562495 L 789.687488 314.843745 L 794.023426 313.04687 L 798.242176 311.17187 L 802.343738 309.257808 L 806.328113 307.226558 L 810.156238 305.117183 L 813.828113 302.89062 L 817.3828 300.624996 L 820.781238 298.242183 L 824.062488 295.781246 L 827.148425 293.203121 L 830.117175 290.585933 L 832.890613 287.812496 L 835.546863 284.999996 L 838.0078 282.031246 L 840.468737 284.999996 L 843.124987 287.812496 L 845.898425 290.585933 L 848.867175 293.203121 L 851.953112 295.781246 L 855.234362 298.242183 L 858.6328 300.624996 L 862.187487 302.89062 L 865.859362 305.117183 L 869.687487 307.226558 L 873.671862 309.257808 L 877.773424 311.17187 L 881.992174 313.04687 L 886.328112 314.843745 L 890.820299 316.562495 L 895.429674 318.20312 L 900.156237 319.76562 L 904.960924 321.249995 L 909.921861 322.656245 L 914.960924 324.023433 L 920.156236 325.312495 L 925.390611 326.523433 L 930.781236 327.656245 L 936.249986 328.749995 L 941.796861 329.76562 L 947.421861 330.742183 L 953.164048 331.64062 L 958.984361 332.499995 L 964.882798 333.281245 L 970.898423 334.062495 L 976.95311 334.726558 L 983.085923 335.39062 L 989.29686 335.976557 L 995.585923 336.523432 L 1001.914048 336.992182 L 1008.320297 337.460932 L 1021.289047 338.242182 L 1027.851547 338.593745 L 1034.492172 338.867182 L 1041.171859 339.14062 L 1047.890609 339.335932 L 1054.648422 339.531245 L 1068.242172 339.843745 L 1075.117171 339.960932 L 1081.992171 340.039057 L 1095.898421 340.117182 L 1102.851546 340.117182 L 1109.804671 340.07812 L 1116.835921 340.07812 L 1123.828108 339.999995 L 1130.859358 339.960932 L 1137.851546 339.882807 L 1144.882795 339.76562 L 1151.914045 339.687495 L 1165.976545 339.45312 L 1179.96092 339.218745 L 1186.953107 339.062495 L 1200.859357 338.82812 L 1207.77342 338.67187 L 1214.687482 338.554682 L 1221.562482 338.437495 L 1228.398419 338.35937 L 1235.195294 338.242182 L 1241.953106 338.124995 L 1248.671856 338.04687 L 1255.351544 338.007807 L 1261.953106 337.929682 L 1268.554669 337.89062 L 1281.523418 337.89062 L 1287.968731 337.929682 L 1294.296856 337.968745 L 1300.585918 338.04687 L 1306.796856 338.124995 L 1312.929668 338.281245 L 1319.023418 338.437495 L 1324.99998 338.593745 L 1330.93748 338.82812 L 1336.757793 339.062495 L 1342.49998 339.335932 L 1348.164042 339.687495 L 1353.74998 340.039057 L 1359.21873 340.429682 L 1364.609355 340.898432 L 1369.882792 341.367182 L 1375.039042 341.914057 L 1380.117167 342.499995 L 1385.078104 343.124995 L 1389.921854 343.789057 L 1394.648417 344.531245 L 1399.257792 345.312495 L 1403.749979 346.132807 L 1408.124979 347.070307 L 1412.382791 348.007807 L 1416.484354 349.023432 L 1420.468729 350.117182 L 1424.296854 351.210932 L 1428.007791 352.42187 L 1431.562479 353.67187 L 1434.999979 355.039057 L 1438.281229 356.445307 L 1441.406229 357.89062 L 1444.374978 359.45312 L 1447.187478 361.054682 L 1449.843728 362.773432 L 1452.343728 364.531245 L 1454.648416 366.406245 L 1456.835916 368.320307 L 1458.828103 370.312494 L 1460.624978 372.421869 L 1462.265603 374.609369 L 1463.710916 376.874994 L 1464.999978 379.218744 L 1466.093728 381.679682 L 1464.492166 378.242182 L 1462.773416 374.960932 L 1460.859353 371.757807 L 1458.749978 368.710932 L 1456.523416 365.742182 L 1454.140603 362.929682 L 1451.562478 360.195307 L 1448.867166 357.617182 L 1446.015603 355.07812 L 1443.007791 352.695307 L 1439.843729 350.429682 L 1436.562479 348.242182 L 1433.124979 346.132807 L 1429.570291 344.14062 L 1425.859354 342.26562 L 1422.031229 340.468745 L 1418.085916 338.789057 L 1413.984354 337.148432 L 1409.804666 335.624995 L 1405.468729 334.179683 L 1401.015604 332.851558 L 1396.445292 331.562495 L 1391.796854 330.39062 L 1386.992167 329.257808 L 1382.109354 328.242183 L 1377.109354 327.304683 L 1372.03123 326.406245 L 1366.835917 325.585933 L 1361.56248 324.843745 L 1356.171855 324.179683 L 1350.703105 323.554683 L 1345.15623 323.007808 L 1339.53123 322.539058 L 1333.828105 322.10937 L 1328.007793 321.718745 L 1322.148418 321.406245 L 1316.171855 321.132808 L 1310.195293 320.937495 L 1304.101543 320.781245 L 1297.929668 320.624995 L 1291.718731 320.585933 L 1285.468731 320.54687 L 1279.140606 320.54687 L 1266.328106 320.70312 L 1259.843731 320.820308 L 1253.281231 320.976558 L 1246.718731 321.17187 L 1240.117169 321.406245 L 1233.476544 321.64062 L 1226.796857 321.914058 L 1220.078107 322.187495 L 1213.320294 322.499995 L 1206.52342 322.851558 L 1199.765607 323.20312 L 1192.92967 323.554683 L 1179.257795 324.335933 L 1165.507795 325.117183 L 1158.593733 325.54687 L 1144.843733 326.406245 L 1137.968733 326.79687 L 1131.054671 327.226558 L 1124.179671 327.617183 L 1117.304671 328.04687 L 1110.468733 328.437495 L 1103.593734 328.82812 L 1096.796859 329.179683 L 1089.960921 329.531245 L 1083.203109 329.882808 L 1076.445296 330.195308 L 1069.726547 330.507808 L 1063.007797 330.781245 L 1056.367172 331.054683 L 1049.726547 331.289058 L 1043.124984 331.48437 L 1036.562485 331.64062 L 1030.07811 331.79687 L 1023.593735 331.874995 L 1017.187485 331.95312 L 1010.85936 331.992183 L 1004.570298 331.992183 L 998.320298 331.914058 L 992.148423 331.835933 L 986.01561 331.679683 L 979.960923 331.48437 L 973.98436 331.249995 L 968.085923 330.937495 L 962.265611 330.585933 L 956.523423 330.195308 L 950.820298 329.76562 L 945.234361 329.218745 L 939.726548 328.632808 L 934.296861 328.007808 L 928.984361 327.26562 L 923.749986 326.48437 L 918.632799 325.624995 L 913.593736 324.726558 L 908.671861 323.710933 L 903.828112 322.656245 L 899.101549 321.48437 L 894.492174 320.273433 L 889.999987 318.945308 L 885.624987 317.539058 L 881.367174 316.054683 L 877.226549 314.492183 L 873.203112 312.812495 L 869.296862 311.054683 L 865.546862 309.218745 L 861.953112 307.26562 L 858.437487 305.23437 L 855.078112 303.085933 L 851.874987 300.859371 L 848.78905 298.476558 L 845.898425 296.054683 L 843.085925 293.476558 L 840.468737 290.820308 L 838.0078 288.007808 L 835.546863 290.820308 L 832.929675 293.476558 L 830.156238 296.054683 L 827.22655 298.476558 L 824.140613 300.859371 L 820.937488 303.085933 L 817.578113 305.23437 L 814.10155 307.26562 L 810.468738 309.218745 L 806.718738 311.054683 L 802.812488 312.812495 L 798.789051 314.492183 L 794.648426 316.054683 L 790.390613 317.539058 L 786.015613 318.945308 L 781.523426 320.273433 L 776.914051 321.48437 L 772.187488 322.656245 L 767.343739 323.710933 L 762.421864 324.726558 L 757.382801 325.624995 L 752.265614 326.48437 L 747.031239 327.26562 L 741.679676 328.007808 L 736.289052 328.632808 L 730.781239 329.218745 L 725.195302 329.76562 L 719.531239 330.195308 L 713.749989 330.585933 L 707.929677 330.937495 L 702.03124 331.249995 L 696.015615 331.48437 L 689.99999 331.679683 L 683.867177 331.835933 L 677.695302 331.914058 L 671.445302 331.992183 L 665.15624 331.992183 L 658.828115 331.95312 L 652.421865 331.874995 L 645.93749 331.79687 L 639.453115 331.64062 L 632.890616 331.48437 L 626.289053 331.289058 L 619.687491 331.054683 L 606.328116 330.507808 L 592.812491 329.882808 L 586.054679 329.531245 L 579.218741 329.179683 L 572.421866 328.82812 L 565.546867 328.437495 L 558.710929 328.04687 L 551.835929 327.617183 L 544.960929 327.226558 L 538.046867 326.79687 L 531.171867 326.406245 L 524.296867 325.976558 L 517.382805 325.54687 L 510.507805 325.117183 L 496.757805 324.335933 L 483.08593 323.554683 L 462.695306 322.499995 L 455.937493 322.187495 L 449.218743 321.914058 L 442.539056 321.64062 L 435.898431 321.406245 L 429.296869 321.17187 L 422.734369 320.976558 L 416.171869 320.820308 L 409.687494 320.70312 L 396.874994 320.54687 L 390.546869 320.54687 L 384.296869 320.585933 L 378.085932 320.624995 L 371.914057 320.781245 L 365.85937 320.937495 L 359.804682 321.132808 L 353.867182 321.406245 L 348.007807 321.718745 L 342.187495 322.10937 L 336.48437 322.539058 L 330.85937 323.007808 L 325.312495 323.554683 L 319.843745 324.179683 L 314.45312 324.843745 L 309.179683 325.585933 L 303.98437 326.406245 L 298.906246 327.304683 L 293.906246 328.242183 L 289.023433 329.257808 L 284.257808 330.39062 L 279.570308 331.562495 L 274.999996 332.851558 L 270.546871 334.179683 L 266.249996 335.624995 L 262.031246 337.148432 L 257.929684 338.789057 L 253.984371 340.468745 L 250.156246 342.26562 L 246.445309 344.14062 L 242.890621 346.132807 L 239.453121 348.242182 L 236.171871 350.429682 L 233.007809 352.695307 L 229.999997 355.07812 L 227.148434 357.617182 L 224.453122 360.195307 L 221.914059 362.929682 L 219.492184 365.742182 L 217.226559 368.710932 L 215.156247 371.757807 L 213.242184 374.960932 L 211.484372 378.242182 Z M 209.921872 381.679682 " transform="matrix(0.2, 0, 0, -0.2, 0, 490)"/>
<path fill-rule="nonzero" fill="rgb(100%, 100%, 100%)" fill-opacity="1" d="M -5.664062 201.90625 L 17.859375 201.90625 L 17.859375 227.585938 L -5.664062 227.585938 Z M -5.664062 201.90625 "/>
<path fill-rule="nonzero" fill="rgb(0%, 0%, 0%)" fill-opacity="1" d="M 10.953125 209.171875 C 11.046875 208.859375 11.046875 208.828125 11.046875 208.671875 C 11.046875 208.265625 10.734375 208.078125 10.421875 208.078125 C 10.203125 208.078125 9.859375 208.203125 9.640625 208.546875 C 9.609375 208.640625 9.421875 209.328125 9.359375 209.734375 C 9.203125 210.296875 9.046875 210.890625 8.921875 211.453125 L 7.921875 215.390625 C 7.828125 215.703125 6.890625 217.234375 5.453125 217.234375 C 4.359375 217.234375 4.109375 216.296875 4.109375 215.484375 C 4.109375 214.484375 4.484375 213.109375 5.234375 211.203125 C 5.578125 210.296875 5.671875 210.078125 5.671875 209.640625 C 5.671875 208.640625 4.953125 207.828125 3.859375 207.828125 C 1.796875 207.828125 0.984375 211.015625 0.984375 211.203125 C 0.984375 211.421875 1.203125 211.421875 1.265625 211.421875 C 1.484375 211.421875 1.484375 211.390625 1.609375 211.015625 C 2.203125 208.984375 3.078125 208.328125 3.796875 208.328125 C 3.984375 208.328125 4.359375 208.328125 4.359375 209.015625 C 4.359375 209.578125 4.140625 210.140625 3.984375 210.546875 C 3.109375 212.859375 2.703125 214.109375 2.703125 215.140625 C 2.703125 217.078125 4.078125 217.734375 5.390625 217.734375 C 6.234375 217.734375 6.953125 217.359375 7.578125 216.734375 C 7.296875 217.890625 7.046875 218.953125 6.171875 220.109375 C 5.609375 220.828125 4.765625 221.484375 3.765625 221.484375 C 3.453125 221.484375 2.484375 221.421875 2.109375 220.546875 C 2.453125 220.546875 2.734375 220.546875 3.046875 220.296875 C 3.265625 220.109375 3.484375 219.828125 3.484375 219.390625 C 3.484375 218.734375 2.890625 218.640625 2.671875 218.640625 C 2.171875 218.640625 1.453125 218.984375 1.453125 220.046875 C 1.453125 221.140625 2.421875 221.953125 3.765625 221.953125 C 6.015625 221.953125 8.265625 219.984375 8.859375 217.515625 Z M 10.953125 209.171875 "/>
<path fill-rule="nonzero" fill="rgb(0%, 0%, 0%)" fill-opacity="1" d="M 34.015625 23.992188 L 33.523438 24.226562 L 33.054688 24.523438 L 32.601562 24.875 L 32.164062 25.296875 L 31.75 25.78125 L 31.34375 26.320312 L 30.960938 26.921875 L 30.585938 27.578125 L 30.234375 28.289062 L 29.898438 29.054688 L 29.570312 29.882812 L 29.265625 30.757812 L 28.96875 31.6875 L 28.6875 32.671875 L 28.421875 33.703125 L 28.164062 34.78125 L 27.929688 35.90625 L 27.695312 37.078125 L 27.484375 38.304688 L 27.28125 39.570312 L 27.09375 40.882812 L 26.914062 42.234375 L 26.742188 43.632812 L 26.585938 45.070312 L 26.4375 46.546875 L 26.304688 48.054688 L 26.179688 49.609375 L 26.0625 51.203125 L 25.953125 52.828125 L 25.859375 54.484375 L 25.773438 56.179688 L 25.6875 57.90625 L 25.617188 59.664062 L 25.546875 61.453125 L 25.492188 63.273438 L 25.445312 65.117188 L 25.398438 66.992188 L 25.359375 68.890625 L 25.335938 70.8125 L 25.304688 72.765625 L 25.289062 74.742188 L 25.273438 76.734375 L 25.265625 78.75 L 25.257812 80.78125 L 25.257812 82.84375 L 25.265625 84.914062 L 25.265625 87.007812 L 25.28125 89.109375 L 25.296875 91.226562 L 25.3125 93.359375 L 25.328125 95.507812 L 25.34375 97.671875 L 25.367188 99.835938 L 25.390625 102.015625 L 25.421875 104.203125 L 25.445312 106.398438 L 25.492188 110.804688 L 25.523438 113.023438 L 25.546875 115.234375 L 25.617188 121.890625 L 25.632812 124.109375 L 25.65625 126.320312 L 25.671875 128.539062 L 25.679688 130.742188 L 25.695312 132.953125 L 25.695312 135.148438 L 25.703125 137.34375 L 25.695312 139.523438 L 25.695312 141.695312 L 25.6875 143.859375 L 25.671875 146.015625 L 25.648438 148.15625 L 25.617188 150.28125 L 25.585938 152.390625 L 25.546875 154.492188 L 25.507812 156.570312 L 25.453125 158.632812 L 25.398438 160.679688 L 25.328125 162.703125 L 25.25 164.710938 L 25.171875 166.695312 L 25.078125 168.648438 L 24.984375 170.585938 L 24.875 172.5 L 24.757812 174.382812 L 24.625 176.242188 L 24.492188 178.070312 L 24.335938 179.875 L 24.179688 181.648438 L 24.007812 183.390625 L 23.828125 185.101562 L 23.632812 186.773438 L 23.429688 188.414062 L 23.210938 190.023438 L 22.984375 191.59375 L 22.742188 193.125 L 22.484375 194.617188 L 22.210938 196.070312 L 21.929688 197.492188 L 21.632812 198.859375 L 21.320312 200.195312 L 20.992188 201.476562 L 20.648438 202.71875 L 20.289062 203.914062 L 19.921875 205.070312 L 19.53125 206.171875 L 19.125 207.226562 L 18.703125 208.226562 L 18.265625 209.179688 L 17.804688 210.078125 L 17.328125 210.929688 L 16.835938 211.71875 L 16.320312 212.460938 L 15.796875 213.140625 L 15.242188 213.773438 L 14.679688 214.335938 L 14.085938 214.84375 L 14.679688 215.351562 L 15.242188 215.921875 L 15.796875 216.546875 L 16.320312 217.226562 L 16.835938 217.96875 L 17.328125 218.765625 L 17.804688 219.609375 L 18.265625 220.507812 L 18.703125 221.460938 L 19.125 222.46875 L 19.53125 223.515625 L 19.921875 224.625 L 20.289062 225.773438 L 20.648438 226.96875 L 20.992188 228.210938 L 21.320312 229.5 L 21.632812 230.828125 L 21.929688 232.203125 L 22.210938 233.617188 L 22.484375 235.070312 L 22.742188 236.5625 L 22.984375 238.101562 L 23.210938 239.664062 L 23.429688 241.273438 L 23.632812 242.914062 L 23.828125 244.59375 L 24.007812 246.296875 L 24.179688 248.039062 L 24.335938 249.8125 L 24.492188 251.617188 L 24.625 253.445312 L 24.757812 255.304688 L 24.875 257.1875 L 24.984375 259.101562 L 25.078125 261.039062 L 25.171875 263 L 25.25 264.976562 L 25.328125 266.984375 L 25.398438 269.007812 L 25.453125 271.054688 L 25.507812 273.117188 L 25.546875 275.203125 L 25.585938 277.296875 L 25.617188 279.40625 L 25.648438 281.539062 L 25.671875 283.679688 L 25.6875 285.828125 L 25.695312 287.992188 L 25.695312 290.164062 L 25.703125 292.351562 L 25.695312 294.539062 L 25.695312 296.742188 L 25.679688 298.945312 L 25.671875 301.148438 L 25.65625 303.367188 L 25.632812 305.578125 L 25.617188 307.796875 L 25.523438 316.671875 L 25.492188 318.882812 L 25.445312 323.289062 L 25.421875 325.484375 L 25.390625 327.671875 L 25.367188 329.851562 L 25.34375 332.023438 L 25.328125 334.179688 L 25.3125 336.328125 L 25.296875 338.460938 L 25.28125 340.578125 L 25.265625 342.6875 L 25.265625 344.773438 L 25.257812 346.851562 L 25.257812 348.90625 L 25.265625 350.9375 L 25.273438 352.953125 L 25.289062 354.953125 L 25.304688 356.921875 L 25.335938 358.875 L 25.359375 360.796875 L 25.398438 362.695312 L 25.445312 364.570312 L 25.492188 366.414062 L 25.546875 368.234375 L 25.617188 370.023438 L 25.6875 371.78125 L 25.773438 373.507812 L 25.859375 375.203125 L 25.953125 376.859375 L 26.0625 378.484375 L 26.179688 380.078125 L 26.304688 381.632812 L 26.4375 383.148438 L 26.585938 384.625 L 26.742188 386.0625 L 26.914062 387.453125 L 27.09375 388.804688 L 27.28125 390.117188 L 27.484375 391.382812 L 27.695312 392.609375 L 27.929688 393.78125 L 28.164062 394.914062 L 28.421875 395.992188 L 28.6875 397.023438 L 28.96875 398 L 29.265625 398.929688 L 29.570312 399.804688 L 29.898438 400.632812 L 30.234375 401.398438 L 30.585938 402.109375 L 30.960938 402.773438 L 31.34375 403.367188 L 31.75 403.914062 L 32.164062 404.390625 L 32.601562 404.8125 L 33.054688 405.171875 L 33.523438 405.460938 L 34.015625 405.695312 L 33.328125 405.367188 L 32.671875 404.976562 L 32.03125 404.523438 L 31.421875 404.015625 L 30.828125 403.453125 L 30.265625 402.828125 L 29.71875 402.15625 L 29.203125 401.421875 L 28.695312 400.632812 L 28.21875 399.796875 L 27.765625 398.90625 L 27.328125 397.960938 L 26.90625 396.976562 L 26.507812 395.9375 L 26.132812 394.84375 L 25.773438 393.710938 L 25.4375 392.53125 L 25.109375 391.3125 L 24.804688 390.046875 L 24.523438 388.734375 L 24.25 387.382812 L 23.992188 385.992188 L 23.757812 384.5625 L 23.539062 383.09375 L 23.328125 381.585938 L 23.140625 380.039062 L 22.960938 378.460938 L 22.796875 376.84375 L 22.648438 375.203125 L 22.515625 373.523438 L 22.390625 371.8125 L 22.28125 370.070312 L 22.1875 368.296875 L 22.101562 366.5 L 22.023438 364.671875 L 21.960938 362.8125 L 21.90625 360.9375 L 21.867188 359.03125 L 21.828125 357.101562 L 21.804688 355.15625 L 21.796875 353.179688 L 21.789062 351.1875 L 21.789062 349.179688 L 21.804688 347.148438 L 21.820312 345.101562 L 21.84375 343.03125 L 21.875 340.953125 L 21.914062 338.859375 L 21.960938 336.75 L 22.007812 334.632812 L 22.0625 332.5 L 22.117188 330.359375 L 22.179688 328.203125 L 22.25 326.046875 L 22.390625 321.703125 L 22.46875 319.523438 L 22.703125 312.960938 L 22.789062 310.765625 L 22.875 308.578125 L 22.953125 306.382812 L 23.125 302.007812 L 23.203125 299.820312 L 23.289062 297.640625 L 23.445312 293.296875 L 23.585938 288.984375 L 23.65625 286.84375 L 23.71875 284.710938 L 23.78125 282.59375 L 23.835938 280.484375 L 23.890625 278.390625 L 23.9375 276.3125 L 23.976562 274.25 L 24.007812 272.203125 L 24.039062 270.171875 L 24.054688 268.15625 L 24.070312 266.164062 L 24.078125 264.195312 L 24.078125 262.242188 L 24.0625 260.3125 L 24.046875 258.414062 L 24.015625 256.53125 L 23.976562 254.679688 L 23.929688 252.851562 L 23.867188 251.054688 L 23.804688 249.28125 L 23.71875 247.539062 L 23.632812 245.828125 L 23.523438 244.148438 L 23.40625 242.507812 L 23.28125 240.890625 L 23.132812 239.3125 L 22.976562 237.765625 L 22.804688 236.265625 L 22.625 234.789062 L 22.421875 233.359375 L 22.210938 231.96875 L 21.976562 230.625 L 21.734375 229.3125 L 21.46875 228.046875 L 21.1875 226.828125 L 20.890625 225.648438 L 20.578125 224.515625 L 20.242188 223.429688 L 19.890625 222.390625 L 19.523438 221.398438 L 19.132812 220.460938 L 18.726562 219.570312 L 18.296875 218.734375 L 17.851562 217.945312 L 17.375 217.21875 L 16.890625 216.539062 L 16.375 215.914062 L 15.84375 215.351562 L 15.28125 214.84375 L 15.84375 214.335938 L 16.375 213.773438 L 16.890625 213.148438 L 17.375 212.46875 L 17.851562 211.742188 L 18.296875 210.960938 L 18.726562 210.117188 L 19.132812 209.226562 L 19.523438 208.289062 L 19.890625 207.296875 L 20.242188 206.257812 L 20.578125 205.179688 L 20.890625 204.039062 L 21.1875 202.867188 L 21.46875 201.640625 L 21.734375 200.375 L 21.976562 199.070312 L 22.210938 197.71875 L 22.421875 196.328125 L 22.625 194.890625 L 22.804688 193.429688 L 22.976562 191.921875 L 23.132812 190.375 L 23.28125 188.796875 L 23.40625 187.1875 L 23.523438 185.539062 L 23.632812 183.859375 L 23.71875 182.148438 L 23.804688 180.40625 L 23.867188 178.632812 L 23.929688 176.835938 L 23.976562 175.007812 L 24.015625 173.15625 L 24.046875 171.273438 L 24.0625 169.375 L 24.078125 167.445312 L 24.078125 165.492188 L 24.070312 163.523438 L 24.054688 161.53125 L 24.039062 159.523438 L 24.007812 157.492188 L 23.976562 155.445312 L 23.9375 153.375 L 23.890625 151.296875 L 23.835938 149.203125 L 23.78125 147.09375 L 23.71875 144.976562 L 23.65625 142.84375 L 23.585938 140.703125 L 23.515625 138.554688 L 23.445312 136.390625 L 23.289062 132.046875 L 23.203125 129.867188 L 23.125 127.6875 L 23.039062 125.5 L 22.953125 123.304688 L 22.875 121.117188 L 22.703125 116.726562 L 22.546875 112.351562 L 22.46875 110.171875 L 22.390625 107.984375 L 22.320312 105.8125 L 22.179688 101.484375 L 22.117188 99.328125 L 22.0625 97.1875 L 22.007812 95.054688 L 21.960938 92.9375 L 21.914062 90.828125 L 21.875 88.734375 L 21.84375 86.65625 L 21.820312 84.59375 L 21.804688 82.539062 L 21.789062 80.515625 L 21.789062 78.5 L 21.796875 76.507812 L 21.804688 74.539062 L 21.828125 72.585938 L 21.867188 70.65625 L 21.90625 68.757812 L 21.960938 66.875 L 22.023438 65.023438 L 22.101562 63.195312 L 22.1875 61.390625 L 22.28125 59.625 L 22.390625 57.882812 L 22.515625 56.171875 L 22.648438 54.484375 L 22.796875 52.84375 L 22.960938 51.226562 L 23.140625 49.648438 L 23.328125 48.101562 L 23.539062 46.59375 L 23.757812 45.125 L 23.992188 43.695312 L 24.25 42.304688 L 24.523438 40.953125 L 24.804688 39.640625 L 25.109375 38.375 L 25.4375 37.15625 L 25.773438 35.976562 L 26.132812 34.84375 L 26.507812 33.757812 L 26.90625 32.71875 L 27.328125 31.726562 L 27.765625 30.789062 L 28.21875 29.898438 L 28.695312 29.054688 L 29.203125 28.273438 L 29.71875 27.539062 L 30.265625 26.859375 L 30.828125 26.234375 L 31.421875 25.671875 L 32.03125 25.164062 L 32.671875 24.710938 L 33.328125 24.320312 L 34.015625 23.992188 "/>
<path fill="none" stroke-width="3.985" stroke-linecap="butt" stroke-linejoin="miter" stroke="rgb(0%, 0%, 0%)" stroke-opacity="1" stroke-miterlimit="10" d="M 170.078122 2330.039028 L 167.617185 2328.867153 L 165.273435 2327.382778 L 163.00781 2325.624965 L 160.82031 2323.51559 L 158.749998 2321.093715 L 156.718748 2318.398403 L 154.804685 2315.39059 L 152.929685 2312.109341 L 151.171873 2308.554653 L 149.492185 2304.726528 L 147.85156 2300.585903 L 146.328123 2296.210903 L 144.843748 2291.562466 L 143.437498 2286.640591 L 142.109373 2281.484341 L 140.82031 2276.093716 L 139.648435 2270.468716 L 138.47656 2264.609341 L 137.421873 2258.476529 L 136.406248 2252.148404 L 135.468748 2245.585904 L 134.57031 2238.828092 L 133.710936 2231.835904 L 132.929686 2224.648404 L 132.187498 2217.265592 L 131.523436 2209.72653 L 130.898436 2201.953092 L 130.312498 2193.984342 L 129.765623 2185.859342 L 129.296873 2177.578093 L 128.867186 2169.10153 L 128.437498 2160.468718 L 128.085936 2151.679655 L 127.734373 2142.734343 L 127.460936 2133.632781 L 127.226561 2124.414031 L 126.992186 2115.039031 L 126.796873 2105.546844 L 126.679686 2095.937469 L 126.523436 2086.171844 L 126.445311 2076.289032 L 126.367186 2066.328094 L 126.328123 2056.249969 L 126.289061 2046.09372 L 126.289061 2035.78122 L 126.328123 2025.429657 L 126.328123 2014.960907 L 126.406248 2004.453095 L 126.484373 1993.867158 L 126.562498 1983.203095 L 126.640623 1972.460908 L 126.718748 1961.640596 L 126.835936 1950.820283 L 126.953123 1939.921846 L 127.109373 1928.984346 L 127.226561 1918.007784 L 127.460936 1895.976534 L 127.617186 1884.882784 L 127.734373 1873.828097 L 128.085936 1840.546848 L 128.164061 1829.453098 L 128.281248 1818.39841 L 128.359373 1807.304661 L 128.398436 1796.289036 L 128.476561 1785.234348 L 128.476561 1774.257786 L 128.515623 1763.281224 L 128.476561 1752.382786 L 128.476561 1741.523412 L 128.437498 1730.703099 L 128.359373 1719.921849 L 128.242186 1709.218725 L 128.085936 1698.593725 L 127.929686 1688.04685 L 127.734373 1677.539038 L 127.539061 1667.148413 L 127.265623 1656.835913 L 126.992186 1646.601538 L 126.640623 1636.484351 L 126.249998 1626.445288 L 125.859373 1616.523413 L 125.390623 1606.757789 L 124.921873 1597.070289 L 124.374998 1587.499976 L 123.789061 1578.085914 L 123.124998 1568.789039 L 122.460936 1559.648414 L 121.679686 1550.624977 L 120.898436 1541.75779 L 120.039061 1533.046852 L 119.140623 1524.492165 L 118.164061 1516.13279 L 117.148436 1507.929665 L 116.054686 1499.88279 L 114.921873 1492.031228 L 113.710936 1484.374978 L 112.421873 1476.91404 L 111.054686 1469.648416 L 109.648436 1462.539041 L 108.164061 1455.703103 L 106.601561 1449.023416 L 104.960936 1442.617166 L 103.242186 1436.406229 L 101.445311 1430.429666 L 99.609374 1424.648416 L 97.656249 1419.140604 L 95.624999 1413.867166 L 93.515624 1408.867167 L 91.328124 1404.101542 L 89.023436 1399.609354 L 86.640624 1395.351542 L 84.179686 1391.406229 L 81.601561 1387.695292 L 78.984374 1384.296854 L 76.210936 1381.132792 L 73.398436 1378.320292 L 70.429686 1375.781229 L 73.398436 1373.242167 L 76.210936 1370.390605 L 78.984374 1367.265605 L 81.601561 1363.867167 L 84.179686 1360.15623 L 86.640624 1356.171855 L 89.023436 1351.953105 L 91.328124 1347.460917 L 93.515624 1342.695292 L 95.624999 1337.65623 L 97.656249 1332.421855 L 99.609374 1326.87498 L 101.445311 1321.132793 L 103.242186 1315.15623 L 104.960936 1308.945293 L 106.601561 1302.499981 L 108.164061 1295.859356 L 109.648436 1288.984356 L 111.054686 1281.914043 L 112.421873 1274.648419 L 113.710936 1267.187481 L 114.921873 1259.492169 L 116.054686 1251.679669 L 117.148436 1243.632794 L 118.164061 1235.429669 L 119.140623 1227.031232 L 120.039061 1218.515607 L 120.898436 1209.804669 L 121.679686 1200.937482 L 122.460936 1191.914045 L 123.124998 1182.77342 L 123.789061 1173.476545 L 124.374998 1164.062483 L 124.921873 1154.49217 L 125.390623 1144.80467 L 125.859373 1134.999983 L 126.249998 1125.117171 L 126.640623 1115.078108 L 126.992186 1104.960921 L 127.265623 1094.726546 L 127.539061 1084.414046 L 127.734373 1073.984359 L 127.929686 1063.515609 L 128.085936 1052.968734 L 128.242186 1042.304672 L 128.359373 1031.601547 L 128.437498 1020.85936 L 128.476561 1010.039047 L 128.476561 999.179673 L 128.515623 988.242173 L 128.476561 977.304673 L 128.476561 966.289048 L 128.398436 955.273423 L 128.359373 944.257798 L 128.281248 933.164049 L 128.164061 922.109361 L 128.085936 911.015611 L 127.617186 866.640612 L 127.460936 855.585925 L 127.226561 833.554675 L 127.109373 822.578113 L 126.953123 811.640613 L 126.835936 800.742176 L 126.718748 789.882801 L 126.640623 779.101551 L 126.562498 768.359364 L 126.484373 757.695301 L 126.406248 747.109364 L 126.328123 736.562489 L 126.328123 726.132802 L 126.289061 715.742177 L 126.289061 705.468739 L 126.328123 695.31249 L 126.367186 685.234365 L 126.445311 675.234365 L 126.523436 665.390615 L 126.679686 655.62499 L 126.796873 646.015615 L 126.992186 636.523428 L 127.226561 627.148428 L 127.460936 617.929678 L 127.734373 608.828116 L 128.085936 599.882804 L 128.437498 591.093741 L 128.867186 582.460929 L 129.296873 573.984366 L 129.765623 565.703117 L 130.312498 557.578117 L 130.898436 549.609367 L 131.523436 541.835929 L 132.187498 534.257805 L 132.929686 526.874992 L 133.710936 519.687492 L 134.57031 512.734367 L 135.468748 505.976555 L 136.406248 499.414055 L 137.421873 493.08593 L 138.47656 486.953118 L 139.648435 481.093743 L 140.82031 475.42968 L 142.109373 470.039055 L 143.437498 464.882806 L 144.843748 459.999993 L 146.328123 455.351556 L 147.85156 450.976556 L 149.492185 446.835931 L 151.171873 443.007806 L 152.929685 439.453118 L 154.804685 436.132806 L 156.718748 433.164056 L 158.749998 430.429681 L 160.82031 428.046869 L 163.00781 425.937494 L 165.273435 424.140619 L 167.617185 422.695306 L 170.078122 421.523431 L 166.640623 423.164056 L 163.359373 425.117181 L 160.156248 427.382806 L 157.109373 429.921869 L 154.140623 432.734369 L 151.328123 435.859369 L 148.593748 439.218743 L 146.015623 442.890618 L 143.47656 446.835931 L 141.093748 451.015618 L 138.828123 455.468743 L 136.640623 460.195306 L 134.531248 465.117181 L 132.539061 470.312493 L 130.664061 475.781243 L 128.867186 481.445305 L 127.187498 487.343743 L 125.546873 493.437493 L 124.023436 499.765618 L 122.617186 506.328117 L 121.249998 513.08593 L 119.960936 520.039055 L 118.789061 527.187492 L 117.695311 534.531242 L 116.640623 542.070304 L 115.703123 549.804679 L 114.804686 557.695304 L 113.984373 565.781242 L 113.242186 573.984366 L 112.578123 582.382804 L 111.953123 590.937491 L 111.406248 599.648429 L 110.937498 608.515616 L 110.507811 617.499991 L 110.117186 626.640616 L 109.804686 635.937491 L 109.531248 645.31249 L 109.335936 654.84374 L 109.140623 664.492178 L 109.023436 674.21874 L 108.984373 684.101552 L 108.945311 694.06249 L 108.945311 704.101552 L 109.023436 714.257802 L 109.101561 724.492177 L 109.218748 734.843739 L 109.374998 745.234364 L 109.570311 755.703114 L 109.804686 766.249989 L 110.039061 776.835926 L 110.312498 787.499988 L 110.585936 798.203113 L 110.898436 808.984363 L 111.249998 819.765613 L 111.953123 841.484362 L 112.343748 852.3828 L 113.515623 885.195299 L 113.945311 896.171862 L 114.374998 907.109361 L 114.765623 918.085924 L 115.624998 939.960923 L 116.015623 950.898423 L 116.445311 961.796861 L 117.226561 983.51561 L 117.929686 1005.07811 L 118.281248 1015.781235 L 118.593748 1026.445297 L 118.906248 1037.031235 L 119.179686 1047.578109 L 119.453123 1058.046859 L 119.687498 1068.437484 L 119.882811 1078.749984 L 120.039061 1088.984359 L 120.195311 1099.140609 L 120.273436 1109.218733 L 120.351561 1119.179671 L 120.390623 1129.023421 L 120.390623 1138.789046 L 120.312498 1148.437483 L 120.234373 1157.92967 L 120.078123 1167.343733 L 119.882811 1176.601545 L 119.648436 1185.74217 L 119.335936 1194.726545 L 119.023436 1203.593732 L 118.593748 1212.304669 L 118.164061 1220.859357 L 117.617186 1229.257794 L 117.031248 1237.460919 L 116.406248 1245.546856 L 115.664061 1253.437481 L 114.882811 1261.171856 L 114.023436 1268.671856 L 113.124998 1276.054668 L 112.109373 1283.203106 L 111.054686 1290.156231 L 109.882811 1296.874981 L 108.671873 1303.437481 L 107.343748 1309.765605 L 105.937498 1315.859355 L 104.453123 1321.757793 L 102.890623 1327.421855 L 101.210936 1332.851543 L 99.453124 1338.046855 L 97.617186 1343.007792 L 95.664061 1347.695292 L 93.632811 1352.148417 L 91.484374 1356.328105 L 89.257811 1360.273417 L 86.874999 1363.90623 L 84.453124 1367.304667 L 81.874999 1370.429667 L 79.218749 1373.242167 L 76.406249 1375.781229 L 79.218749 1378.320292 L 81.874999 1381.132792 L 84.453124 1384.257792 L 86.874999 1387.656229 L 89.257811 1391.289042 L 91.484374 1395.195292 L 93.632811 1399.414042 L 95.664061 1403.867167 L 97.617186 1408.554667 L 99.453124 1413.515604 L 101.210936 1418.710916 L 102.890623 1424.101541 L 104.453123 1429.804666 L 105.937498 1435.664041 L 107.343748 1441.796854 L 108.671873 1448.124978 L 109.882811 1454.648416 L 111.054686 1461.406228 L 112.109373 1468.359353 L 113.124998 1475.546853 L 114.023436 1482.85154 L 114.882811 1490.390603 L 115.664061 1498.124978 L 116.406248 1506.015603 L 117.031248 1514.062477 L 117.617186 1522.304665 L 118.164061 1530.703102 L 118.593748 1539.25779 L 119.023436 1547.968727 L 119.335936 1556.835914 L 119.648436 1565.820289 L 119.882811 1574.960914 L 120.078123 1584.218726 L 120.234373 1593.632789 L 120.312498 1603.124976 L 120.390623 1612.773413 L 120.390623 1622.539038 L 120.351561 1632.382788 L 120.273436 1642.343726 L 120.195311 1652.382788 L 120.039061 1662.539038 L 119.882811 1672.773413 L 119.687498 1683.124975 L 119.453123 1693.5156 L 119.179686 1703.98435 L 118.906248 1714.531224 L 118.593748 1725.117162 L 118.281248 1735.781224 L 117.929686 1746.484349 L 117.578123 1757.226536 L 117.226561 1768.046849 L 116.445311 1789.765598 L 116.015623 1800.664036 L 115.624998 1811.562473 L 115.195311 1822.499973 L 114.765623 1833.476535 L 114.374998 1844.414035 L 113.515623 1866.36716 L 112.734373 1888.242159 L 112.343748 1899.140597 L 111.953123 1910.078097 L 111.601561 1920.937471 L 110.898436 1942.578096 L 110.585936 1953.359346 L 110.312498 1964.062471 L 110.039061 1974.726533 L 109.804686 1985.31247 L 109.570311 1995.859345 L 109.374998 2006.328095 L 109.218748 2016.71872 L 109.101561 2027.03122 L 109.023436 2037.304657 L 108.945311 2047.421844 L 108.945311 2057.499969 L 108.984373 2067.460907 L 109.023436 2077.304657 L 109.140623 2087.070281 L 109.335936 2096.718719 L 109.531248 2106.210906 L 109.804686 2115.624968 L 110.117186 2124.882781 L 110.507811 2134.023406 L 110.937498 2143.046843 L 111.406248 2151.874968 L 111.953123 2160.585905 L 112.578123 2169.140593 L 113.242186 2177.578093 L 113.984373 2185.781217 L 114.804686 2193.867155 L 115.703123 2201.75778 L 116.640623 2209.492155 L 117.695311 2217.031217 L 118.789061 2224.374967 L 119.960936 2231.523404 L 121.249998 2238.476529 L 122.617186 2245.234342 L 124.023436 2251.796841 L 125.546873 2258.124966 L 127.187498 2264.218716 L 128.867186 2270.117154 L 130.664061 2275.781216 L 132.539061 2281.210904 L 134.531248 2286.406216 L 136.640623 2291.367153 L 138.828123 2296.054653 L 141.093748 2300.507778 L 143.47656 2304.726528 L 146.015623 2308.632778 L 148.593748 2312.304653 L 151.328123 2315.70309 L 154.140623 2318.82809 L 157.109373 2321.64059 L 160.156248 2324.179653 L 163.359373 2326.445278 L 166.640623 2328.398403 Z M 170.078122 2330.039028 " transform="matrix(0.2, 0, 0, -0.2, 0, 490)"/>
<path fill-rule="nonzero" fill="rgb(0%, 0%, 0%)" fill-opacity="1" d="M 32.890625 423.03125 C 32.890625 419.5 30.578125 417.15625 27.328125 417.15625 C 22.609375 417.15625 17.796875 422.09375 17.796875 427.1875 C 17.796875 430.8125 20.234375 433 23.390625 433 C 28.015625 433 32.890625 428.21875 32.890625 423.03125 Z M 23.515625 432.4375 C 21.359375 432.4375 19.828125 430.6875 19.828125 427.8125 C 19.828125 426.84375 20.140625 423.65625 21.828125 421.09375 C 23.328125 418.84375 25.453125 417.6875 27.171875 417.6875 C 28.984375 417.6875 30.921875 418.90625 30.921875 422.15625 C 30.921875 423.75 30.359375 427.15625 28.171875 429.8125 C 27.140625 431.15625 25.359375 432.4375 23.515625 432.4375 Z M 23.515625 432.4375 "/>
<path fill-rule="nonzero" fill="rgb(0%, 0%, 0%)" fill-opacity="1" d="M 296.933594 430.03125 C 296.058594 431.46875 295.214844 431.78125 294.246094 431.84375 C 293.996094 431.875 293.777344 431.875 293.777344 432.28125 C 293.777344 432.4375 293.902344 432.53125 294.089844 432.53125 C 294.652344 432.53125 295.339844 432.46875 295.964844 432.46875 C 296.683594 432.46875 297.433594 432.53125 298.121094 432.53125 C 298.277344 432.53125 298.558594 432.53125 298.558594 432.125 C 298.558594 431.875 298.339844 431.84375 298.183594 431.84375 C 297.683594 431.8125 297.183594 431.625 297.183594 431.09375 C 297.183594 430.84375 297.308594 430.59375 297.464844 430.28125 L 299.121094 427.5 L 304.621094 427.5 C 304.652344 427.9375 304.964844 430.90625 304.964844 431.125 C 304.964844 431.78125 303.839844 431.84375 303.402344 431.84375 C 303.089844 431.84375 302.871094 431.84375 302.871094 432.28125 C 302.871094 432.53125 303.121094 432.53125 303.183594 432.53125 C 304.058594 432.53125 304.996094 432.46875 305.902344 432.46875 C 306.433594 432.46875 307.808594 432.53125 308.371094 432.53125 C 308.496094 432.53125 308.746094 432.53125 308.746094 432.09375 C 308.746094 431.84375 308.527344 431.84375 308.246094 431.84375 C 306.902344 431.84375 306.902344 431.6875 306.839844 431.0625 L 305.496094 417.4375 C 305.464844 417 305.464844 416.90625 305.089844 416.90625 C 304.746094 416.90625 304.652344 417.0625 304.527344 417.28125 Z M 299.558594 426.8125 L 303.839844 419.625 L 304.558594 426.8125 Z M 299.558594 426.8125 "/>
<path fill-rule="nonzero" fill="rgb(0%, 0%, 0%)" fill-opacity="1" d="M 45.484375 14.335938 C 45.265625 15.179688 45.203125 15.335938 43.484375 15.335938 C 43.109375 15.335938 42.890625 15.335938 42.890625 15.773438 C 42.890625 16.023438 43.109375 16.023438 43.484375 16.023438 L 51.265625 16.023438 C 54.734375 16.023438 57.296875 13.460938 57.296875 11.304688 C 57.296875 9.742188 56.046875 8.460938 53.921875 8.242188 C 56.171875 7.835938 58.484375 6.210938 58.484375 4.148438 C 58.484375 2.523438 57.046875 1.117188 54.421875 1.117188 L 47.078125 1.117188 C 46.671875 1.117188 46.453125 1.117188 46.453125 1.554688 C 46.453125 1.804688 46.640625 1.804688 47.078125 1.804688 C 47.109375 1.804688 47.515625 1.804688 47.890625 1.835938 C 48.296875 1.898438 48.484375 1.898438 48.484375 2.179688 C 48.484375 2.273438 48.453125 2.335938 48.390625 2.617188 Z M 48.765625 8.054688 L 50.109375 2.617188 C 50.328125 1.867188 50.359375 1.804688 51.296875 1.804688 L 54.109375 1.804688 C 56.046875 1.804688 56.484375 3.085938 56.484375 4.054688 C 56.484375 5.960938 54.609375 8.054688 51.953125 8.054688 Z M 47.796875 15.335938 C 47.484375 15.335938 47.421875 15.335938 47.296875 15.335938 C 47.078125 15.304688 47.015625 15.273438 47.015625 15.117188 C 47.015625 15.054688 47.015625 14.992188 47.140625 14.617188 L 48.640625 8.523438 L 52.765625 8.523438 C 54.859375 8.523438 55.265625 10.148438 55.265625 11.085938 C 55.265625 13.242188 53.328125 15.335938 50.765625 15.335938 Z M 47.796875 15.335938 "/>
<path fill-rule="nonzero" fill="rgb(0%, 0%, 0%)" fill-opacity="1" d="M 143.839844 482.238281 C 145.027344 481.832031 147.027344 481.238281 147.027344 479.300781 C 147.027344 476.988281 144.308594 475.925781 142.339844 475.925781 C 141.402344 475.925781 140.433594 476.144531 139.589844 476.644531 C 139.464844 476.707031 139.308594 476.894531 139.152344 476.894531 C 138.839844 476.894531 138.277344 475.925781 137.964844 475.925781 C 137.777344 475.925781 137.746094 476.144531 137.746094 476.238281 L 137.746094 479.800781 C 137.746094 479.925781 137.839844 480.082031 138.027344 480.082031 C 138.339844 480.082031 138.308594 479.457031 138.402344 479.113281 C 138.871094 477.394531 140.433594 476.644531 141.933594 476.550781 L 142.339844 476.550781 C 143.683594 476.550781 145.246094 477.425781 145.246094 479.300781 C 145.246094 481.113281 143.464844 482.050781 141.808594 482.050781 C 141.496094 482.050781 141.183594 482.050781 140.871094 482.050781 L 140.714844 482.050781 C 140.527344 482.050781 140.308594 482.050781 140.308594 482.269531 L 140.308594 482.300781 C 140.339844 482.488281 140.527344 482.519531 140.714844 482.519531 L 142.558594 482.519531 C 144.121094 482.644531 145.558594 483.675781 145.714844 485.300781 L 145.714844 485.519531 C 145.714844 487.363281 143.996094 488.519531 142.246094 488.519531 C 140.339844 488.519531 138.371094 487.894531 138.058594 485.519531 C 138.058594 485.363281 137.996094 485.175781 137.777344 485.175781 C 137.558594 485.207031 137.527344 485.363281 137.527344 485.519531 C 137.527344 488.113281 140.121094 489.144531 142.371094 489.144531 C 144.433594 489.144531 147.308594 488.175781 147.558594 485.707031 L 147.558594 485.582031 C 147.558594 483.613281 145.496094 482.644531 143.839844 482.238281 Z M 143.839844 482.238281 "/>
<path fill-rule="nonzero" fill="rgb(0%, 0%, 0%)" fill-opacity="1" d="M 155.933594 475.925781 C 152.558594 476.332031 149.871094 478.988281 149.871094 482.582031 C 149.871094 485.863281 152.464844 489.113281 156.339844 489.113281 C 159.839844 489.113281 162.808594 486.207031 162.808594 482.582031 C 162.808594 479.394531 160.308594 475.925781 156.371094 475.925781 C 156.246094 475.925781 156.089844 475.925781 155.933594 475.925781 Z M 151.746094 482.800781 L 151.746094 482.457031 C 151.746094 479.957031 152.652344 477.019531 155.808594 476.488281 C 155.996094 476.457031 156.152344 476.457031 156.339844 476.457031 C 159.152344 476.457031 160.902344 479.175781 160.902344 482.207031 C 160.902344 484.613281 160.183594 487.675781 157.214844 488.457031 C 156.933594 488.519531 156.652344 488.550781 156.371094 488.550781 L 156.183594 488.550781 C 153.589844 488.457031 152.183594 485.988281 151.839844 483.582031 Z M 151.746094 482.800781 "/>
<path fill-rule="nonzero" fill="rgb(0%, 0%, 0%)" fill-opacity="1" d="M 165.265625 476.269531 L 165.265625 476.863281 L 165.703125 476.863281 C 166.296875 476.863281 166.921875 476.957031 166.921875 477.832031 L 166.921875 487.300781 C 166.921875 488.144531 166.203125 488.175781 165.546875 488.175781 L 165.265625 488.175781 L 165.265625 488.769531 L 171.046875 488.769531 C 171.453125 488.769531 171.828125 488.800781 172.234375 488.800781 C 174.234375 488.800781 176.578125 487.863281 176.796875 485.457031 L 176.796875 485.269531 C 176.796875 482.738281 173.921875 481.707031 172.015625 481.707031 C 170.765625 481.707031 169.578125 481.832031 168.390625 481.925781 L 168.390625 477.707031 C 168.390625 477.269531 168.453125 476.863281 169.234375 476.863281 L 171.546875 476.863281 C 172.515625 476.863281 173.609375 476.925781 174.328125 477.644531 C 175.015625 478.363281 175.109375 479.582031 175.203125 480.519531 L 175.734375 480.519531 L 175.265625 476.269531 Z M 168.390625 482.550781 C 168.640625 482.550781 168.890625 482.488281 169.140625 482.457031 L 170.515625 482.394531 C 170.796875 482.363281 171.078125 482.332031 171.390625 482.332031 C 172.953125 482.332031 174.921875 483.332031 174.921875 485.175781 C 174.921875 486.925781 173.578125 488.207031 171.578125 488.207031 C 171.296875 488.207031 170.984375 488.175781 170.734375 488.175781 L 169.203125 488.175781 C 168.734375 488.175781 168.484375 488.144531 168.390625 487.519531 Z M 168.390625 482.550781 "/>
<path fill-rule="nonzero" fill="rgb(0%, 0%, 0%)" fill-opacity="1" d="M 179.148438 476.269531 L 179.148438 476.863281 L 179.617188 476.863281 C 180.210938 476.863281 180.804688 476.957031 180.804688 477.832031 L 180.804688 487.300781 C 180.804688 488.144531 180.117188 488.175781 179.429688 488.175781 L 179.148438 488.175781 L 179.148438 488.769531 L 184.054688 488.769531 L 184.054688 488.175781 L 183.617188 488.175781 C 182.992188 488.175781 182.398438 488.113281 182.398438 487.238281 L 182.398438 483.050781 L 186.117188 483.050781 C 187.898438 482.925781 190.179688 481.738281 190.179688 479.707031 C 190.179688 477.488281 187.835938 476.425781 185.929688 476.269531 Z M 182.367188 482.519531 L 182.367188 477.519531 C 182.460938 476.925781 182.710938 476.863281 183.117188 476.863281 L 184.554688 476.863281 C 186.179688 476.863281 188.304688 476.925781 188.304688 479.707031 C 188.304688 480.363281 188.210938 481.050781 187.804688 481.550781 C 187.148438 482.332031 186.054688 482.519531 185.085938 482.519531 Z M 182.367188 482.519531 "/>
<path fill-rule="nonzero" fill="rgb(0%, 0%, 0%)" fill-opacity="1" d="M 194.875 486.488281 C 194.375 486.582031 193.875 487.019531 193.875 487.613281 C 193.875 488.238281 194.40625 488.769531 195.03125 488.769531 C 195.65625 488.769531 196.21875 488.300781 196.21875 487.644531 C 196.21875 487.019531 195.6875 486.457031 195.0625 486.457031 C 195 486.457031 194.9375 486.488281 194.875 486.488281 Z M 194.875 486.488281 "/>
<path fill-rule="nonzero" fill="rgb(0%, 0%, 0%)" fill-opacity="1" d="M 209.652344 485.832031 C 209.746094 485.863281 209.902344 485.894531 210.058594 485.894531 C 210.714844 485.894531 211.089844 485.394531 211.089844 484.800781 C 211.089844 484.207031 210.621094 483.769531 210.058594 483.769531 C 209.464844 483.769531 208.964844 484.207031 208.964844 484.894531 C 208.964844 487.207031 210.871094 489.269531 213.433594 489.269531 C 216.339844 489.269531 218.714844 486.925781 218.714844 483.957031 C 218.714844 481.582031 217.371094 479.519531 214.964844 478.832031 C 214.714844 478.769531 214.433594 478.769531 214.152344 478.769531 C 212.902344 478.769531 211.777344 479.175781 210.902344 480.082031 L 210.902344 475.082031 C 211.652344 475.207031 212.339844 475.425781 213.121094 475.425781 C 214.714844 475.425781 216.308594 474.832031 217.496094 473.550781 C 217.621094 473.394531 217.777344 473.300781 217.777344 473.113281 L 217.777344 473.082031 C 217.746094 472.957031 217.652344 472.894531 217.558594 472.894531 C 217.496094 472.894531 217.496094 472.894531 217.433594 472.925781 C 216.277344 473.332031 215.277344 473.644531 214.058594 473.644531 C 212.996094 473.644531 211.871094 473.488281 210.902344 473.050781 C 210.777344 472.988281 210.683594 472.925781 210.527344 472.894531 L 210.464844 472.894531 C 210.371094 472.894531 210.277344 472.988281 210.277344 473.113281 L 210.277344 480.707031 C 210.277344 480.925781 210.308594 481.113281 210.558594 481.113281 C 210.839844 481.113281 210.996094 480.675781 211.183594 480.488281 C 211.933594 479.707031 212.933594 479.269531 214.027344 479.238281 C 215.183594 479.238281 215.902344 480.019531 216.339844 480.957031 C 216.777344 481.894531 216.777344 483.050781 216.777344 484.082031 C 216.777344 485.738281 216.433594 487.488281 214.714844 488.332031 C 214.277344 488.550781 213.808594 488.644531 213.371094 488.644531 C 211.652344 488.644531 210.152344 487.457031 209.652344 485.832031 Z M 209.652344 485.832031 "/>
<path fill-rule="nonzero" fill="rgb(0%, 0%, 0%)" fill-opacity="1" d="M 223.671875 486.488281 C 223.171875 486.582031 222.671875 487.019531 222.671875 487.613281 C 222.671875 488.238281 223.203125 488.769531 223.828125 488.769531 C 224.453125 488.769531 225.015625 488.300781 225.015625 487.644531 C 225.015625 487.019531 224.484375 486.457031 223.859375 486.457031 C 223.796875 486.457031 223.734375 486.488281 223.671875 486.488281 Z M 223.671875 486.488281 "/>
</svg>
