<?xml version="1.0" encoding="UTF-8"?>
<svg xmlns="http://www.w3.org/2000/svg" xmlns:xlink="http://www.w3.org/1999/xlink" width="402" height="356" viewBox="0 0 402 356">
<path fill="none" stroke-width="11.9553" stroke-linecap="butt" stroke-linejoin="miter" stroke="rgb(0%, 0%, 0%)" stroke-opacity="1" stroke-miterlimit="10" d="M 202.499997 968.359361 L 231.367184 938.828111 L 260.273434 911.445299 L 289.140621 886.132799 L 318.007808 862.773425 L 346.874995 841.249987 L 375.742182 821.484363 L 404.648431 803.320301 L 433.515619 786.757801 L 462.382806 771.640614 L 491.249993 757.929676 L 520.11718 745.546864 L 549.023429 734.414052 L 577.890616 724.492177 L 606.757803 715.742177 L 635.624991 708.046864 L 664.492178 701.40624 L 693.398427 695.78124 L 722.265614 691.09374 L 751.132801 687.382802 L 779.999988 684.609365 L 808.906238 682.734365 L 837.773425 681.757802 L 866.640612 681.679677 L 895.507799 682.49999 L 924.374986 684.179677 L 953.281236 686.757802 L 982.148423 690.31249 L 1011.01561 694.765615 L 1039.882797 700.234365 L 1068.749984 706.679677 L 1097.617171 714.140614 L 1126.523421 722.695302 L 1155.390608 732.421864 L 1184.257795 743.281239 L 1213.124982 755.429676 L 1242.031231 768.867176 L 1270.898419 783.671863 L 1299.765606 799.999988 L 1328.632793 817.812488 L 1357.539042 837.265613 L 1386.406229 858.437487 L 1415.273416 881.445299 L 1444.140603 906.367174 L 1473.007791 933.320299 L 1501.874978 962.421861 L 1530.781227 993.789048 L 1559.648414 1027.57811 L 1588.515601 1063.867172 L 1617.382788 1102.812484 L 1646.289038 1144.570295 L 1675.156225 1189.257795 L 1704.023412 1237.070294 L 1732.890599 1288.164043 L 1761.757786 1342.65623 L 1790.664036 1400.781229 L 1819.531223 1462.656228 L 1848.39841 1528.47654 L 1877.265597 1598.476539 L 1906.132784 1672.773413 L 1935.039034 1751.601536 " transform="matrix(0.2, 0, 0, -0.2, 0, 356)"/>
<path fill="none" stroke-width="11.9553" stroke-linecap="butt" stroke-linejoin="miter" stroke="rgb(0%, 0%, 0%)" stroke-opacity="1" stroke-miterlimit="10" d="M 359.999995 832.0703 L 539.999992 832.0703 " transform="matrix(0.2, 0, 0, -0.2, 0, 356)"/>
<path fill="none" stroke-width="11.9553" stroke-linecap="butt" stroke-linejoin="miter" stroke="rgb(0%, 0%, 0%)" stroke-opacity="1" stroke-miterlimit="10" d="M 539.999992 737.773427 L 539.999992 832.0703 " transform="matrix(0.2, 0, 0, -0.2, 0, 356)"/>
<path fill="none" stroke-width="11.9553" stroke-linecap="butt" stroke-linejoin="miter" stroke="rgb(0%, 0%, 0%)" stroke-opacity="1" stroke-miterlimit="10" d="M 1260.039044 777.929676 L 1440.039041 777.929676 " transform="matrix(0.2, 0, 0, -0.2, 0, 356)"/>
<path fill="none" stroke-width="11.9553" stroke-linecap="butt" stroke-linejoin="miter" stroke="rgb(0%, 0%, 0%)" stroke-opacity="1" stroke-miterlimit="10" d="M 1440.039041 902.695299 L 1440.039041 777.929676 " transform="matrix(0.2, 0, 0, -0.2, 0, 356)"/>
<path fill="none" stroke-width="11.9553" stroke-linecap="butt" stroke-linejoin="miter" stroke="rgb(0%, 0%, 0%)" stroke-opacity="1" stroke-miterlimit="10" d="M 1710.039037 1247.421856 L 1890.039034 1247.421856 " transform="matrix(0.2, 0, 0, -0.2, 0, 356)"/>
<path fill="none" stroke-width="11.9553" stroke-linecap="butt" stroke-linejoin="miter" stroke="rgb(0%, 0%, 0%)" stroke-opacity="1" stroke-miterlimit="10" d="M 1890.039034 1630.742163 L 1890.039034 1247.421856 " transform="matrix(0.2, 0, 0, -0.2, 0, 356)"/>
<path fill="none" stroke-width="7.9701" stroke-linecap="butt" stroke-linejoin="miter" stroke="rgb(0%, 0%, 0%)" stroke-opacity="1" stroke-miterlimit="10" d="M 359.999995 832.0703 L 359.999995 806.523425 " transform="matrix(0.2, 0, 0, -0.2, 0, 356)"/>
<path fill="none" stroke-width="7.9701" stroke-linecap="butt" stroke-linejoin="miter" stroke="rgb(0%, 0%, 0%)" stroke-opacity="1" stroke-miterlimit="10" d="M 359.999995 755.468739 L 359.999995 729.960927 " transform="matrix(0.2, 0, 0, -0.2, 0, 356)"/>
<path fill="none" stroke-width="7.9701" stroke-linecap="butt" stroke-linejoin="miter" stroke="rgb(0%, 0%, 0%)" stroke-opacity="1" stroke-miterlimit="10" d="M 359.999995 729.960927 L 359.999995 704.453115 " transform="matrix(0.2, 0, 0, -0.2, 0, 356)"/>
<path fill="none" stroke-width="7.9701" stroke-linecap="butt" stroke-linejoin="miter" stroke="rgb(0%, 0%, 0%)" stroke-opacity="1" stroke-miterlimit="10" d="M 359.999995 653.398428 L 359.999995 627.851553 " transform="matrix(0.2, 0, 0, -0.2, 0, 356)"/>
<path fill="none" stroke-width="7.9701" stroke-linecap="butt" stroke-linejoin="miter" stroke="rgb(0%, 0%, 0%)" stroke-opacity="1" stroke-miterlimit="10" d="M 359.999995 627.851553 L 359.999995 602.343741 " transform="matrix(0.2, 0, 0, -0.2, 0, 356)"/>
<path fill="none" stroke-width="7.9701" stroke-linecap="butt" stroke-linejoin="miter" stroke="rgb(0%, 0%, 0%)" stroke-opacity="1" stroke-miterlimit="10" d="M 359.999995 551.289054 L 359.999995 525.781242 " transform="matrix(0.2, 0, 0, -0.2, 0, 356)"/>
<path fill="none" stroke-width="7.9701" stroke-linecap="butt" stroke-linejoin="miter" stroke="rgb(0%, 0%, 0%)" stroke-opacity="1" stroke-miterlimit="10" d="M 359.999995 525.781242 L 359.999995 500.27343 " transform="matrix(0.2, 0, 0, -0.2, 0, 356)"/>
<path fill="none" stroke-width="7.9701" stroke-linecap="butt" stroke-linejoin="miter" stroke="rgb(0%, 0%, 0%)" stroke-opacity="1" stroke-miterlimit="10" d="M 359.999995 449.218743 L 359.999995 423.671869 " transform="matrix(0.2, 0, 0, -0.2, 0, 356)"/>
<path fill="none" stroke-width="7.9701" stroke-linecap="butt" stroke-linejoin="miter" stroke="rgb(0%, 0%, 0%)" stroke-opacity="1" stroke-miterlimit="10" d="M 359.999995 423.671869 L 359.999995 398.164057 " transform="matrix(0.2, 0, 0, -0.2, 0, 356)"/>
<path fill="none" stroke-width="7.9701" stroke-linecap="butt" stroke-linejoin="miter" stroke="rgb(0%, 0%, 0%)" stroke-opacity="1" stroke-miterlimit="10" d="M 359.999995 347.10937 L 359.999995 321.601558 " transform="matrix(0.2, 0, 0, -0.2, 0, 356)"/>
<path fill="none" stroke-width="7.9701" stroke-linecap="butt" stroke-linejoin="miter" stroke="rgb(0%, 0%, 0%)" stroke-opacity="1" stroke-miterlimit="10" d="M 539.999992 737.773427 L 539.999992 711.757802 " transform="matrix(0.2, 0, 0, -0.2, 0, 356)"/>
<path fill="none" stroke-width="7.9701" stroke-linecap="butt" stroke-linejoin="miter" stroke="rgb(0%, 0%, 0%)" stroke-opacity="1" stroke-miterlimit="10" d="M 539.999992 659.726553 L 539.999992 633.710928 " transform="matrix(0.2, 0, 0, -0.2, 0, 356)"/>
<path fill="none" stroke-width="7.9701" stroke-linecap="butt" stroke-linejoin="miter" stroke="rgb(0%, 0%, 0%)" stroke-opacity="1" stroke-miterlimit="10" d="M 539.999992 633.710928 L 539.999992 607.695303 " transform="matrix(0.2, 0, 0, -0.2, 0, 356)"/>
<path fill="none" stroke-width="7.9701" stroke-linecap="butt" stroke-linejoin="miter" stroke="rgb(0%, 0%, 0%)" stroke-opacity="1" stroke-miterlimit="10" d="M 539.999992 555.703117 L 539.999992 529.687492 " transform="matrix(0.2, 0, 0, -0.2, 0, 356)"/>
<path fill="none" stroke-width="7.9701" stroke-linecap="butt" stroke-linejoin="miter" stroke="rgb(0%, 0%, 0%)" stroke-opacity="1" stroke-miterlimit="10" d="M 539.999992 529.687492 L 539.999992 503.671867 " transform="matrix(0.2, 0, 0, -0.2, 0, 356)"/>
<path fill="none" stroke-width="7.9701" stroke-linecap="butt" stroke-linejoin="miter" stroke="rgb(0%, 0%, 0%)" stroke-opacity="1" stroke-miterlimit="10" d="M 539.999992 451.640618 L 539.999992 425.624994 " transform="matrix(0.2, 0, 0, -0.2, 0, 356)"/>
<path fill="none" stroke-width="7.9701" stroke-linecap="butt" stroke-linejoin="miter" stroke="rgb(0%, 0%, 0%)" stroke-opacity="1" stroke-miterlimit="10" d="M 539.999992 425.624994 L 539.999992 399.609369 " transform="matrix(0.2, 0, 0, -0.2, 0, 356)"/>
<path fill="none" stroke-width="7.9701" stroke-linecap="butt" stroke-linejoin="miter" stroke="rgb(0%, 0%, 0%)" stroke-opacity="1" stroke-miterlimit="10" d="M 539.999992 347.617182 L 539.999992 321.601558 " transform="matrix(0.2, 0, 0, -0.2, 0, 356)"/>
<path fill="none" stroke-width="7.9701" stroke-linecap="butt" stroke-linejoin="miter" stroke="rgb(0%, 0%, 0%)" stroke-opacity="1" stroke-miterlimit="10" d="M 1260.039044 777.929676 L 1260.039044 749.414051 " transform="matrix(0.2, 0, 0, -0.2, 0, 356)"/>
<path fill="none" stroke-width="7.9701" stroke-linecap="butt" stroke-linejoin="miter" stroke="rgb(0%, 0%, 0%)" stroke-opacity="1" stroke-miterlimit="10" d="M 1260.039044 692.382802 L 1260.039044 663.867178 " transform="matrix(0.2, 0, 0, -0.2, 0, 356)"/>
<path fill="none" stroke-width="7.9701" stroke-linecap="butt" stroke-linejoin="miter" stroke="rgb(0%, 0%, 0%)" stroke-opacity="1" stroke-miterlimit="10" d="M 1260.039044 663.867178 L 1260.039044 635.351553 " transform="matrix(0.2, 0, 0, -0.2, 0, 356)"/>
<path fill="none" stroke-width="7.9701" stroke-linecap="butt" stroke-linejoin="miter" stroke="rgb(0%, 0%, 0%)" stroke-opacity="1" stroke-miterlimit="10" d="M 1260.039044 578.320304 L 1260.039044 549.765617 " transform="matrix(0.2, 0, 0, -0.2, 0, 356)"/>
<path fill="none" stroke-width="7.9701" stroke-linecap="butt" stroke-linejoin="miter" stroke="rgb(0%, 0%, 0%)" stroke-opacity="1" stroke-miterlimit="10" d="M 1260.039044 549.765617 L 1260.039044 521.249992 " transform="matrix(0.2, 0, 0, -0.2, 0, 356)"/>
<path fill="none" stroke-width="7.9701" stroke-linecap="butt" stroke-linejoin="miter" stroke="rgb(0%, 0%, 0%)" stroke-opacity="1" stroke-miterlimit="10" d="M 1260.039044 464.218743 L 1260.039044 435.703119 " transform="matrix(0.2, 0, 0, -0.2, 0, 356)"/>
<path fill="none" stroke-width="7.9701" stroke-linecap="butt" stroke-linejoin="miter" stroke="rgb(0%, 0%, 0%)" stroke-opacity="1" stroke-miterlimit="10" d="M 1260.039044 435.703119 L 1260.039044 407.148431 " transform="matrix(0.2, 0, 0, -0.2, 0, 356)"/>
<path fill="none" stroke-width="7.9701" stroke-linecap="butt" stroke-linejoin="miter" stroke="rgb(0%, 0%, 0%)" stroke-opacity="1" stroke-miterlimit="10" d="M 1260.039044 350.117182 L 1260.039044 321.601558 " transform="matrix(0.2, 0, 0, -0.2, 0, 356)"/>
<path fill="none" stroke-width="7.9701" stroke-linecap="butt" stroke-linejoin="miter" stroke="rgb(0%, 0%, 0%)" stroke-opacity="1" stroke-miterlimit="10" d="M 1440.039041 902.695299 L 1440.039041 873.632799 " transform="matrix(0.2, 0, 0, -0.2, 0, 356)"/>
<path fill="none" stroke-width="7.9701" stroke-linecap="butt" stroke-linejoin="miter" stroke="rgb(0%, 0%, 0%)" stroke-opacity="1" stroke-miterlimit="10" d="M 1440.039041 815.5078 L 1440.039041 786.484363 " transform="matrix(0.2, 0, 0, -0.2, 0, 356)"/>
<path fill="none" stroke-width="7.9701" stroke-linecap="butt" stroke-linejoin="miter" stroke="rgb(0%, 0%, 0%)" stroke-opacity="1" stroke-miterlimit="10" d="M 1440.039041 786.484363 L 1440.039041 757.421864 " transform="matrix(0.2, 0, 0, -0.2, 0, 356)"/>
<path fill="none" stroke-width="7.9701" stroke-linecap="butt" stroke-linejoin="miter" stroke="rgb(0%, 0%, 0%)" stroke-opacity="1" stroke-miterlimit="10" d="M 1440.039041 699.296865 L 1440.039041 670.273428 " transform="matrix(0.2, 0, 0, -0.2, 0, 356)"/>
<path fill="none" stroke-width="7.9701" stroke-linecap="butt" stroke-linejoin="miter" stroke="rgb(0%, 0%, 0%)" stroke-opacity="1" stroke-miterlimit="10" d="M 1440.039041 670.273428 L 1440.039041 641.210928 " transform="matrix(0.2, 0, 0, -0.2, 0, 356)"/>
<path fill="none" stroke-width="7.9701" stroke-linecap="butt" stroke-linejoin="miter" stroke="rgb(0%, 0%, 0%)" stroke-opacity="1" stroke-miterlimit="10" d="M 1440.039041 583.085929 L 1440.039041 554.023429 " transform="matrix(0.2, 0, 0, -0.2, 0, 356)"/>
<path fill="none" stroke-width="7.9701" stroke-linecap="butt" stroke-linejoin="miter" stroke="rgb(0%, 0%, 0%)" stroke-opacity="1" stroke-miterlimit="10" d="M 1440.039041 554.023429 L 1440.039041 524.96093 " transform="matrix(0.2, 0, 0, -0.2, 0, 356)"/>
<path fill="none" stroke-width="7.9701" stroke-linecap="butt" stroke-linejoin="miter" stroke="rgb(0%, 0%, 0%)" stroke-opacity="1" stroke-miterlimit="10" d="M 1440.039041 466.874993 L 1440.039041 437.812493 " transform="matrix(0.2, 0, 0, -0.2, 0, 356)"/>
<path fill="none" stroke-width="7.9701" stroke-linecap="butt" stroke-linejoin="miter" stroke="rgb(0%, 0%, 0%)" stroke-opacity="1" stroke-miterlimit="10" d="M 1440.039041 437.812493 L 1440.039041 408.749994 " transform="matrix(0.2, 0, 0, -0.2, 0, 356)"/>
<path fill="none" stroke-width="7.9701" stroke-linecap="butt" stroke-linejoin="miter" stroke="rgb(0%, 0%, 0%)" stroke-opacity="1" stroke-miterlimit="10" d="M 1440.039041 350.664057 L 1440.039041 321.601558 " transform="matrix(0.2, 0, 0, -0.2, 0, 356)"/>
<path fill="none" stroke-width="7.9701" stroke-linecap="butt" stroke-linejoin="miter" stroke="rgb(0%, 0%, 0%)" stroke-opacity="1" stroke-miterlimit="10" d="M 1710.039037 1247.421856 L 1710.039037 1218.476544 " transform="matrix(0.2, 0, 0, -0.2, 0, 356)"/>
<path fill="none" stroke-width="7.9701" stroke-linecap="butt" stroke-linejoin="miter" stroke="rgb(0%, 0%, 0%)" stroke-opacity="1" stroke-miterlimit="10" d="M 1710.039037 1160.624983 L 1710.039037 1131.718733 " transform="matrix(0.2, 0, 0, -0.2, 0, 356)"/>
<path fill="none" stroke-width="7.9701" stroke-linecap="butt" stroke-linejoin="miter" stroke="rgb(0%, 0%, 0%)" stroke-opacity="1" stroke-miterlimit="10" d="M 1710.039037 1131.718733 L 1710.039037 1102.773421 " transform="matrix(0.2, 0, 0, -0.2, 0, 356)"/>
<path fill="none" stroke-width="7.9701" stroke-linecap="butt" stroke-linejoin="miter" stroke="rgb(0%, 0%, 0%)" stroke-opacity="1" stroke-miterlimit="10" d="M 1710.039037 1044.882797 L 1710.039037 1015.976547 " transform="matrix(0.2, 0, 0, -0.2, 0, 356)"/>
<path fill="none" stroke-width="7.9701" stroke-linecap="butt" stroke-linejoin="miter" stroke="rgb(0%, 0%, 0%)" stroke-opacity="1" stroke-miterlimit="10" d="M 1710.039037 1015.976547 L 1710.039037 987.031235 " transform="matrix(0.2, 0, 0, -0.2, 0, 356)"/>
<path fill="none" stroke-width="7.9701" stroke-linecap="butt" stroke-linejoin="miter" stroke="rgb(0%, 0%, 0%)" stroke-opacity="1" stroke-miterlimit="10" d="M 1710.039037 929.179674 L 1710.039037 900.234362 " transform="matrix(0.2, 0, 0, -0.2, 0, 356)"/>
<path fill="none" stroke-width="7.9701" stroke-linecap="butt" stroke-linejoin="miter" stroke="rgb(0%, 0%, 0%)" stroke-opacity="1" stroke-miterlimit="10" d="M 1710.039037 900.234362 L 1710.039037 871.328112 " transform="matrix(0.2, 0, 0, -0.2, 0, 356)"/>
<path fill="none" stroke-width="7.9701" stroke-linecap="butt" stroke-linejoin="miter" stroke="rgb(0%, 0%, 0%)" stroke-opacity="1" stroke-miterlimit="10" d="M 1710.039037 813.437488 L 1710.039037 784.531238 " transform="matrix(0.2, 0, 0, -0.2, 0, 356)"/>
<path fill="none" stroke-width="7.9701" stroke-linecap="butt" stroke-linejoin="miter" stroke="rgb(0%, 0%, 0%)" stroke-opacity="1" stroke-miterlimit="10" d="M 1710.039037 784.531238 L 1710.039037 755.585926 " transform="matrix(0.2, 0, 0, -0.2, 0, 356)"/>
<path fill="none" stroke-width="7.9701" stroke-linecap="butt" stroke-linejoin="miter" stroke="rgb(0%, 0%, 0%)" stroke-opacity="1" stroke-miterlimit="10" d="M 1710.039037 697.695302 L 1710.039037 668.789053 " transform="matrix(0.2, 0, 0, -0.2, 0, 356)"/>
<path fill="none" stroke-width="7.9701" stroke-linecap="butt" stroke-linejoin="miter" stroke="rgb(0%, 0%, 0%)" stroke-opacity="1" stroke-miterlimit="10" d="M 1710.039037 668.789053 L 1710.039037 639.84374 " transform="matrix(0.2, 0, 0, -0.2, 0, 356)"/>
<path fill="none" stroke-width="7.9701" stroke-linecap="butt" stroke-linejoin="miter" stroke="rgb(0%, 0%, 0%)" stroke-opacity="1" stroke-miterlimit="10" d="M 1710.039037 581.992179 L 1710.039037 553.046867 " transform="matrix(0.2, 0, 0, -0.2, 0, 356)"/>
<path fill="none" stroke-width="7.9701" stroke-linecap="butt" stroke-linejoin="miter" stroke="rgb(0%, 0%, 0%)" stroke-opacity="1" stroke-miterlimit="10" d="M 1710.039037 553.046867 L 1710.039037 524.140617 " transform="matrix(0.2, 0, 0, -0.2, 0, 356)"/>
<path fill="none" stroke-width="7.9701" stroke-linecap="butt" stroke-linejoin="miter" stroke="rgb(0%, 0%, 0%)" stroke-opacity="1" stroke-miterlimit="10" d="M 1710.039037 466.249993 L 1710.039037 437.343743 " transform="matrix(0.2, 0, 0, -0.2, 0, 356)"/>
<path fill="none" stroke-width="7.9701" stroke-linecap="butt" stroke-linejoin="miter" stroke="rgb(0%, 0%, 0%)" stroke-opacity="1" stroke-miterlimit="10" d="M 1710.039037 437.343743 L 1710.039037 408.398431 " transform="matrix(0.2, 0, 0, -0.2, 0, 356)"/>
<path fill="none" stroke-width="7.9701" stroke-linecap="butt" stroke-linejoin="miter" stroke="rgb(0%, 0%, 0%)" stroke-opacity="1" stroke-miterlimit="10" d="M 1710.039037 350.507807 L 1710.039037 321.601558 " transform="matrix(0.2, 0, 0, -0.2, 0, 356)"/>
<path fill="none" stroke-width="7.9701" stroke-linecap="butt" stroke-linejoin="miter" stroke="rgb(0%, 0%, 0%)" stroke-opacity="1" stroke-miterlimit="10" d="M 1890.039034 1630.742163 L 1890.039034 1600.976539 " transform="matrix(0.2, 0, 0, -0.2, 0, 356)"/>
<path fill="none" stroke-width="7.9701" stroke-linecap="butt" stroke-linejoin="miter" stroke="rgb(0%, 0%, 0%)" stroke-opacity="1" stroke-miterlimit="10" d="M 1890.039034 1541.44529 L 1890.039034 1511.718727 " transform="matrix(0.2, 0, 0, -0.2, 0, 356)"/>
<path fill="none" stroke-width="7.9701" stroke-linecap="butt" stroke-linejoin="miter" stroke="rgb(0%, 0%, 0%)" stroke-opacity="1" stroke-miterlimit="10" d="M 1890.039034 1511.718727 L 1890.039034 1481.953103 " transform="matrix(0.2, 0, 0, -0.2, 0, 356)"/>
<path fill="none" stroke-width="7.9701" stroke-linecap="butt" stroke-linejoin="miter" stroke="rgb(0%, 0%, 0%)" stroke-opacity="1" stroke-miterlimit="10" d="M 1890.039034 1422.460916 L 1890.039034 1392.695292 " transform="matrix(0.2, 0, 0, -0.2, 0, 356)"/>
<path fill="none" stroke-width="7.9701" stroke-linecap="butt" stroke-linejoin="miter" stroke="rgb(0%, 0%, 0%)" stroke-opacity="1" stroke-miterlimit="10" d="M 1890.039034 1392.695292 L 1890.039034 1362.96873 " transform="matrix(0.2, 0, 0, -0.2, 0, 356)"/>
<path fill="none" stroke-width="7.9701" stroke-linecap="butt" stroke-linejoin="miter" stroke="rgb(0%, 0%, 0%)" stroke-opacity="1" stroke-miterlimit="10" d="M 1890.039034 1303.437481 L 1890.039034 1273.671856 " transform="matrix(0.2, 0, 0, -0.2, 0, 356)"/>
<path fill="none" stroke-width="7.9701" stroke-linecap="butt" stroke-linejoin="miter" stroke="rgb(0%, 0%, 0%)" stroke-opacity="1" stroke-miterlimit="10" d="M 1890.039034 1273.671856 L 1890.039034 1243.945294 " transform="matrix(0.2, 0, 0, -0.2, 0, 356)"/>
<path fill="none" stroke-width="7.9701" stroke-linecap="butt" stroke-linejoin="miter" stroke="rgb(0%, 0%, 0%)" stroke-opacity="1" stroke-miterlimit="10" d="M 1890.039034 1184.414045 L 1890.039034 1154.687483 " transform="matrix(0.2, 0, 0, -0.2, 0, 356)"/>
<path fill="none" stroke-width="7.9701" stroke-linecap="butt" stroke-linejoin="miter" stroke="rgb(0%, 0%, 0%)" stroke-opacity="1" stroke-miterlimit="10" d="M 1890.039034 1154.687483 L 1890.039034 1124.921858 " transform="matrix(0.2, 0, 0, -0.2, 0, 356)"/>
<path fill="none" stroke-width="7.9701" stroke-linecap="butt" stroke-linejoin="miter" stroke="rgb(0%, 0%, 0%)" stroke-opacity="1" stroke-miterlimit="10" d="M 1890.039034 1065.429672 L 1890.039034 1035.664047 " transform="matrix(0.2, 0, 0, -0.2, 0, 356)"/>
<path fill="none" stroke-width="7.9701" stroke-linecap="butt" stroke-linejoin="miter" stroke="rgb(0%, 0%, 0%)" stroke-opacity="1" stroke-miterlimit="10" d="M 1890.039034 1035.664047 L 1890.039034 1005.898423 " transform="matrix(0.2, 0, 0, -0.2, 0, 356)"/>
<path fill="none" stroke-width="7.9701" stroke-linecap="butt" stroke-linejoin="miter" stroke="rgb(0%, 0%, 0%)" stroke-opacity="1" stroke-miterlimit="10" d="M 1890.039034 946.406236 L 1890.039034 916.640611 " transform="matrix(0.2, 0, 0, -0.2, 0, 356)"/>
<path fill="none" stroke-width="7.9701" stroke-linecap="butt" stroke-linejoin="miter" stroke="rgb(0%, 0%, 0%)" stroke-opacity="1" stroke-miterlimit="10" d="M 1890.039034 916.640611 L 1890.039034 886.914049 " transform="matrix(0.2, 0, 0, -0.2, 0, 356)"/>
<path fill="none" stroke-width="7.9701" stroke-linecap="butt" stroke-linejoin="miter" stroke="rgb(0%, 0%, 0%)" stroke-opacity="1" stroke-miterlimit="10" d="M 1890.039034 827.3828 L 1890.039034 797.656238 " transform="matrix(0.2, 0, 0, -0.2, 0, 356)"/>
<path fill="none" stroke-width="7.9701" stroke-linecap="butt" stroke-linejoin="miter" stroke="rgb(0%, 0%, 0%)" stroke-opacity="1" stroke-miterlimit="10" d="M 1890.039034 797.656238 L 1890.039034 767.890614 " transform="matrix(0.2, 0, 0, -0.2, 0, 356)"/>
<path fill="none" stroke-width="7.9701" stroke-linecap="butt" stroke-linejoin="miter" stroke="rgb(0%, 0%, 0%)" stroke-opacity="1" stroke-miterlimit="10" d="M 1890.039034 708.398427 L 1890.039034 678.632802 " transform="matrix(0.2, 0, 0, -0.2, 0, 356)"/>
<path fill="none" stroke-width="7.9701" stroke-linecap="butt" stroke-linejoin="miter" stroke="rgb(0%, 0%, 0%)" stroke-opacity="1" stroke-miterlimit="10" d="M 1890.039034 678.632802 L 1890.039034 648.867178 " transform="matrix(0.2, 0, 0, -0.2, 0, 356)"/>
<path fill="none" stroke-width="7.9701" stroke-linecap="butt" stroke-linejoin="miter" stroke="rgb(0%, 0%, 0%)" stroke-opacity="1" stroke-miterlimit="10" d="M 1890.039034 589.374991 L 1890.039034 559.609367 " transform="matrix(0.2, 0, 0, -0.2, 0, 356)"/>
<path fill="none" stroke-width="7.9701" stroke-linecap="butt" stroke-linejoin="miter" stroke="rgb(0%, 0%, 0%)" stroke-opacity="1" stroke-miterlimit="10" d="M 1890.039034 559.609367 L 1890.039034 529.882805 " transform="matrix(0.2, 0, 0, -0.2, 0, 356)"/>
<path fill="none" stroke-width="7.9701" stroke-linecap="butt" stroke-linejoin="miter" stroke="rgb(0%, 0%, 0%)" stroke-opacity="1" stroke-miterlimit="10" d="M 1890.039034 470.351555 L 1890.039034 440.624993 " transform="matrix(0.2, 0, 0, -0.2, 0, 356)"/>
<path fill="none" stroke-width="7.9701" stroke-linecap="butt" stroke-linejoin="miter" stroke="rgb(0%, 0%, 0%)" stroke-opacity="1" stroke-miterlimit="10" d="M 1890.039034 440.624993 L 1890.039034 410.859369 " transform="matrix(0.2, 0, 0, -0.2, 0, 356)"/>
<path fill="none" stroke-width="7.9701" stroke-linecap="butt" stroke-linejoin="miter" stroke="rgb(0%, 0%, 0%)" stroke-opacity="1" stroke-miterlimit="10" d="M 1890.039034 351.367182 L 1890.039034 321.601558 " transform="matrix(0.2, 0, 0, -0.2, 0, 356)"/>
<path fill-rule="nonzero" fill="rgb(100%, 100%, 100%)" fill-opacity="1" d="M 6.695312 291.703125 L 35.976562 291.703125 L 35.976562 318.585938 L 6.695312 318.585938 Z M 6.695312 291.703125 "/>
<path fill-rule="nonzero" fill="rgb(0%, 0%, 0%)" fill-opacity="1" d="M 28.875 303.058594 C 28.875 299.527344 26.5625 297.183594 23.3125 297.183594 C 18.59375 297.183594 13.78125 302.121094 13.78125 307.214844 C 13.78125 310.839844 16.21875 313.027344 19.375 313.027344 C 24 313.027344 28.875 308.246094 28.875 303.058594 Z M 19.5 312.464844 C 17.34375 312.464844 15.8125 310.714844 15.8125 307.839844 C 15.8125 306.871094 16.125 303.683594 17.8125 301.121094 C 19.3125 298.871094 21.4375 297.714844 23.15625 297.714844 C 24.96875 297.714844 26.90625 298.933594 26.90625 302.183594 C 26.90625 303.777344 26.34375 307.183594 24.15625 309.839844 C 23.125 311.183594 21.34375 312.464844 19.5 312.464844 Z M 19.5 312.464844 "/>
<path fill-rule="nonzero" fill="rgb(100%, 100%, 100%)" fill-opacity="1" d="M 376.15625 291.703125 L 408.078125 291.703125 L 408.078125 318.585938 L 376.15625 318.585938 Z M 376.15625 291.703125 "/>
<path fill-rule="nonzero" fill="rgb(0%, 0%, 0%)" fill-opacity="1" d="M 392.777344 303.589844 L 390.933594 299.246094 C 390.871094 299.089844 390.808594 298.996094 390.808594 298.964844 C 390.808594 298.839844 391.183594 298.433594 392.121094 298.339844 C 392.339844 298.308594 392.558594 298.308594 392.558594 297.933594 C 392.558594 297.652344 392.277344 297.652344 392.214844 297.652344 C 391.308594 297.652344 390.371094 297.714844 389.464844 297.714844 C 388.933594 297.714844 387.558594 297.652344 387.027344 297.652344 C 386.902344 297.652344 386.621094 297.652344 386.621094 298.089844 C 386.621094 298.339844 386.839844 298.339844 387.121094 298.339844 C 388.433594 298.339844 388.589844 298.558594 388.777344 299.027344 L 391.339844 305.121094 L 386.746094 310.058594 L 386.464844 310.308594 C 385.402344 311.464844 384.371094 311.808594 383.246094 311.871094 C 382.964844 311.902344 382.777344 311.902344 382.777344 312.308594 C 382.777344 312.339844 382.777344 312.558594 383.058594 312.558594 C 383.714844 312.558594 384.433594 312.496094 385.121094 312.496094 C 385.902344 312.496094 386.777344 312.558594 387.558594 312.558594 C 387.683594 312.558594 387.933594 312.558594 387.933594 312.121094 C 387.933594 311.902344 387.714844 311.871094 387.683594 311.871094 C 387.496094 311.871094 386.808594 311.808594 386.808594 311.214844 C 386.808594 310.871094 387.121094 310.496094 387.402344 310.214844 L 389.621094 307.871094 L 391.589844 305.746094 L 393.777344 310.933594 C 393.871094 311.183594 393.902344 311.214844 393.902344 311.246094 C 393.902344 311.433594 393.496094 311.808594 392.621094 311.871094 C 392.402344 311.902344 392.183594 311.933594 392.183594 312.308594 C 392.183594 312.558594 392.433594 312.558594 392.527344 312.558594 C 393.121094 312.558594 394.652344 312.496094 395.277344 312.496094 C 395.808594 312.496094 397.152344 312.558594 397.683594 312.558594 C 397.839844 312.558594 398.121094 312.558594 398.121094 312.152344 C 398.121094 311.871094 397.902344 311.871094 397.714844 311.871094 C 396.246094 311.871094 396.214844 311.808594 395.839844 310.933594 C 394.996094 308.902344 393.527344 305.496094 393.027344 304.183594 C 394.496094 302.652344 396.808594 300.058594 397.496094 299.464844 C 398.121094 298.933594 398.964844 298.402344 400.277344 298.339844 C 400.558594 298.308594 400.746094 298.308594 400.746094 297.902344 C 400.746094 297.871094 400.746094 297.652344 400.464844 297.652344 C 399.808594 297.652344 399.089844 297.714844 398.402344 297.714844 C 397.589844 297.714844 396.777344 297.652344 395.996094 297.652344 C 395.871094 297.652344 395.589844 297.652344 395.589844 298.089844 C 395.589844 298.246094 395.683594 298.308594 395.839844 298.339844 C 396.027344 298.371094 396.714844 298.402344 396.714844 299.027344 C 396.714844 299.308594 396.464844 299.589844 396.308594 299.808594 Z M 392.777344 303.589844 "/>
<path fill-rule="nonzero" fill="rgb(100%, 100%, 100%)" fill-opacity="1" d="M 6.453125 -5.757812 L 35.976562 -5.757812 L 35.976562 21.125 L 6.453125 21.125 Z M 6.453125 -5.757812 "/>
<path fill-rule="nonzero" fill="rgb(0%, 0%, 0%)" fill-opacity="1" d="M 25.511719 2.695312 L 25.792969 2.382812 C 26.449219 1.726562 27.167969 0.976562 28.667969 0.882812 C 28.917969 0.851562 29.105469 0.851562 29.105469 0.476562 C 29.105469 0.289062 28.980469 0.195312 28.824219 0.195312 C 28.261719 0.195312 27.605469 0.257812 27.042969 0.257812 C 26.324219 0.257812 25.542969 0.195312 24.855469 0.195312 C 24.730469 0.195312 24.449219 0.195312 24.449219 0.632812 C 24.449219 0.851562 24.636719 0.882812 24.761719 0.882812 C 24.917969 0.882812 25.542969 0.914062 25.542969 1.382812 C 25.542969 1.757812 25.042969 2.320312 24.949219 2.414062 L 19.886719 8.257812 L 17.511719 1.789062 C 17.355469 1.476562 17.355469 1.414062 17.355469 1.414062 C 17.355469 0.882812 18.449219 0.882812 18.667969 0.882812 C 18.949219 0.882812 19.167969 0.882812 19.167969 0.445312 C 19.167969 0.195312 18.917969 0.195312 18.855469 0.195312 C 18.230469 0.195312 16.699219 0.257812 16.105469 0.257812 C 15.542969 0.257812 14.199219 0.195312 13.667969 0.195312 C 13.542969 0.195312 13.230469 0.195312 13.230469 0.632812 C 13.230469 0.882812 13.449219 0.882812 13.730469 0.882812 C 15.042969 0.882812 15.136719 1.070312 15.324219 1.632812 L 18.011719 8.789062 C 18.042969 8.851562 18.105469 9.101562 18.105469 9.164062 C 18.105469 9.226562 17.230469 12.757812 17.136719 13.132812 C 16.855469 14.351562 16.824219 14.414062 15.074219 14.414062 C 14.667969 14.414062 14.480469 14.414062 14.480469 14.851562 C 14.480469 15.101562 14.761719 15.101562 14.792969 15.101562 C 15.417969 15.101562 16.917969 15.039062 17.542969 15.039062 C 18.136719 15.039062 19.730469 15.101562 20.324219 15.101562 C 20.480469 15.101562 20.761719 15.101562 20.761719 14.664062 C 20.761719 14.414062 20.542969 14.414062 20.136719 14.414062 C 20.105469 14.414062 19.667969 14.414062 19.292969 14.382812 C 18.855469 14.351562 18.730469 14.289062 18.730469 14.039062 C 18.730469 13.882812 18.917969 13.101562 19.011719 12.664062 L 19.792969 9.570312 C 19.886719 9.164062 19.917969 9.101562 20.105469 8.914062 Z M 25.511719 2.695312 "/>
<path fill="none" stroke-width="11.9553" stroke-linecap="butt" stroke-linejoin="miter" stroke="rgb(0%, 0%, 0%)" stroke-opacity="1" stroke-miterlimit="10" d="M 0 321.601558 L 1980.039033 321.601558 " transform="matrix(0.2, 0, 0, -0.2, 0, 356)"/>
<path fill="none" stroke-width="11.9553" stroke-linecap="butt" stroke-linejoin="miter" stroke="rgb(0%, 0%, 0%)" stroke-opacity="1" stroke-miterlimit="10" d="M 179.999997 177.617185 L 179.999997 1761.601536 " transform="matrix(0.2, 0, 0, -0.2, 0, 356)"/>
<path fill="none" stroke-width="11.9553" stroke-linecap="butt" stroke-linejoin="miter" stroke="rgb(0%, 0%, 0%)" stroke-opacity="1" stroke-miterlimit="10" d="M 854.999987 321.601558 L 854.999987 681.601552 " transform="matrix(0.2, 0, 0, -0.2, 0, 356)"/>
<path fill-rule="nonzero" fill="rgb(100%, 100%, 100%)" fill-opacity="1" d="M 186.132812 239.625 L 263.414062 239.625 L 263.414062 271.546875 L 186.132812 271.546875 Z M 186.132812 239.625 "/>
<path fill-rule="nonzero" fill="rgb(0%, 0%, 0%)" fill-opacity="1" d="M 202.753906 253.128906 C 202.847656 252.816406 202.847656 252.785156 202.847656 252.628906 C 202.847656 252.222656 202.535156 252.035156 202.222656 252.035156 C 202.003906 252.035156 201.660156 252.160156 201.441406 252.503906 C 201.410156 252.597656 201.222656 253.285156 201.160156 253.691406 C 201.003906 254.253906 200.847656 254.847656 200.722656 255.410156 L 199.722656 259.347656 C 199.628906 259.660156 198.691406 261.191406 197.253906 261.191406 C 196.160156 261.191406 195.910156 260.253906 195.910156 259.441406 C 195.910156 258.441406 196.285156 257.066406 197.035156 255.160156 C 197.378906 254.253906 197.472656 254.035156 197.472656 253.597656 C 197.472656 252.597656 196.753906 251.785156 195.660156 251.785156 C 193.597656 251.785156 192.785156 254.972656 192.785156 255.160156 C 192.785156 255.378906 193.003906 255.378906 193.066406 255.378906 C 193.285156 255.378906 193.285156 255.347656 193.410156 254.972656 C 194.003906 252.941406 194.878906 252.285156 195.597656 252.285156 C 195.785156 252.285156 196.160156 252.285156 196.160156 252.972656 C 196.160156 253.535156 195.941406 254.097656 195.785156 254.503906 C 194.910156 256.816406 194.503906 258.066406 194.503906 259.097656 C 194.503906 261.035156 195.878906 261.691406 197.191406 261.691406 C 198.035156 261.691406 198.753906 261.316406 199.378906 260.691406 C 199.097656 261.847656 198.847656 262.910156 197.972656 264.066406 C 197.410156 264.785156 196.566406 265.441406 195.566406 265.441406 C 195.253906 265.441406 194.285156 265.378906 193.910156 264.503906 C 194.253906 264.503906 194.535156 264.503906 194.847656 264.253906 C 195.066406 264.066406 195.285156 263.785156 195.285156 263.347656 C 195.285156 262.691406 194.691406 262.597656 194.472656 262.597656 C 193.972656 262.597656 193.253906 262.941406 193.253906 264.003906 C 193.253906 265.097656 194.222656 265.910156 195.566406 265.910156 C 197.816406 265.910156 200.066406 263.941406 200.660156 261.472656 Z M 202.753906 253.128906 "/>
<path fill-rule="nonzero" fill="rgb(0%, 0%, 0%)" fill-opacity="1" d="M 223.515625 253.066406 C 223.390625 251.566406 222.359375 250.910156 221.140625 250.910156 C 219.796875 250.910156 218.328125 251.691406 217.703125 252.847656 L 217.609375 252.441406 C 217.390625 251.503906 216.703125 250.910156 215.796875 250.910156 C 214.171875 250.910156 213.671875 253.160156 213.421875 254.160156 C 213.390625 254.285156 213.328125 254.410156 213.328125 254.535156 C 213.328125 254.691406 213.484375 254.785156 213.671875 254.785156 C 214.546875 254.785156 214.265625 251.378906 215.734375 251.378906 C 215.828125 251.378906 215.953125 251.410156 216.046875 251.472656 L 216.203125 251.628906 C 216.328125 251.816406 216.359375 252.066406 216.359375 252.316406 C 216.359375 252.816406 216.234375 253.316406 216.109375 253.816406 C 215.671875 255.660156 215.203125 257.472656 214.765625 259.316406 L 214.453125 260.472656 C 214.421875 260.660156 214.328125 260.878906 214.328125 261.097656 C 214.328125 261.441406 214.640625 261.660156 214.984375 261.660156 L 215.015625 261.660156 C 215.671875 261.597656 215.765625 261.003906 215.921875 260.472656 L 217.203125 255.253906 C 217.640625 253.503906 219.140625 251.378906 220.984375 251.378906 C 221.921875 251.378906 222.140625 252.191406 222.140625 252.910156 C 222.140625 253.878906 221.828125 254.816406 221.578125 255.785156 L 220.453125 260.441406 C 220.359375 260.660156 220.296875 260.878906 220.296875 261.097656 C 220.296875 261.441406 220.609375 261.660156 220.953125 261.660156 L 221.046875 261.660156 C 221.734375 261.566406 221.796875 260.847656 221.953125 260.253906 L 223.203125 255.128906 C 223.609375 253.441406 225.140625 251.410156 226.984375 251.378906 L 227.109375 251.378906 C 227.953125 251.597656 228.078125 252.253906 228.078125 253.003906 L 228.078125 253.191406 C 228.078125 253.753906 227.890625 254.378906 227.796875 254.878906 C 227.546875 255.785156 227.265625 256.691406 226.953125 257.535156 C 226.703125 258.285156 226.328125 259.066406 226.328125 259.878906 L 226.328125 260.003906 C 226.421875 260.972656 227.078125 261.660156 228.046875 261.660156 C 229.671875 261.660156 230.828125 259.503906 231.046875 258.097656 L 231.046875 258.035156 C 231.046875 257.847656 230.890625 257.816406 230.734375 257.816406 C 230.015625 257.816406 229.984375 261.191406 228.171875 261.191406 C 227.734375 261.191406 227.578125 260.878906 227.578125 260.566406 L 227.578125 260.472656 C 227.578125 259.972656 227.703125 259.503906 227.890625 259.066406 C 228.359375 257.691406 228.859375 256.347656 229.203125 254.941406 C 229.359375 254.410156 229.484375 253.847656 229.484375 253.316406 C 229.484375 251.816406 228.484375 250.910156 227.015625 250.910156 C 225.859375 250.910156 224.828125 251.472656 224.078125 252.316406 C 223.890625 252.535156 223.640625 252.785156 223.515625 253.066406 Z M 223.515625 253.066406 "/>
<path fill-rule="nonzero" fill="rgb(0%, 0%, 0%)" fill-opacity="1" d="M 235.285156 250.910156 C 233.722656 251.128906 233.003906 252.972656 232.660156 254.160156 C 232.597656 254.285156 232.535156 254.410156 232.535156 254.535156 C 232.535156 254.691406 232.722656 254.785156 232.878906 254.785156 C 233.566406 254.785156 233.566406 251.378906 235.503906 251.378906 C 235.847656 251.378906 236.003906 251.691406 236.003906 252.066406 C 236.003906 252.691406 235.785156 253.285156 235.566406 253.847656 C 235.035156 255.316406 234.472656 256.816406 233.972656 258.285156 C 233.785156 258.753906 233.566406 259.253906 233.566406 259.753906 C 233.566406 260.847656 234.191406 261.660156 235.503906 261.660156 C 237.128906 261.660156 238.285156 258.910156 238.285156 258.003906 C 238.285156 257.847656 238.160156 257.785156 237.972656 257.785156 C 237.535156 257.785156 237.472656 258.503906 237.378906 258.847656 C 237.097656 259.753906 236.472656 261.191406 235.378906 261.191406 C 235.003906 261.191406 234.816406 260.847656 234.816406 260.503906 C 234.816406 259.941406 235.035156 259.316406 235.253906 258.753906 C 235.691406 257.597656 236.097656 256.410156 236.535156 255.222656 C 236.816406 254.472656 237.253906 253.628906 237.253906 252.785156 C 237.253906 251.847656 236.753906 250.910156 235.472656 250.910156 Z M 237.316406 245.816406 C 236.816406 245.910156 236.378906 246.378906 236.378906 246.878906 C 236.378906 247.285156 236.722656 247.566406 237.128906 247.566406 C 237.722656 247.566406 238.191406 247.035156 238.191406 246.535156 C 238.191406 246.128906 237.847656 245.816406 237.441406 245.816406 C 237.410156 245.816406 237.347656 245.816406 237.316406 245.816406 Z M 237.316406 245.816406 "/>
<path fill-rule="nonzero" fill="rgb(0%, 0%, 0%)" fill-opacity="1" d="M 244.109375 252.847656 L 244.015625 252.441406 C 243.796875 251.503906 243.109375 250.910156 242.203125 250.910156 C 240.578125 250.910156 240.078125 253.160156 239.828125 254.160156 C 239.796875 254.285156 239.734375 254.410156 239.734375 254.535156 C 239.734375 254.691406 239.859375 254.753906 240.015625 254.753906 C 240.515625 254.753906 240.515625 254.285156 240.578125 253.910156 C 240.859375 252.941406 241.265625 251.378906 242.171875 251.378906 C 242.640625 251.378906 242.765625 251.941406 242.765625 252.347656 C 242.765625 252.941406 242.609375 253.566406 242.453125 254.160156 L 240.796875 260.722656 C 240.765625 260.847656 240.765625 260.972656 240.765625 261.097656 C 240.765625 261.410156 240.984375 261.660156 241.328125 261.660156 C 242.015625 261.660156 242.171875 261.097656 242.296875 260.535156 L 243.609375 255.285156 C 244.015625 253.660156 245.421875 251.378906 247.390625 251.378906 L 247.484375 251.378906 C 248.328125 251.378906 248.515625 252.253906 248.515625 252.910156 C 248.515625 254.566406 247.796875 256.410156 247.234375 258.003906 C 247.015625 258.597656 246.765625 259.222656 246.765625 259.847656 C 246.765625 260.722656 247.390625 261.660156 248.484375 261.660156 C 250.203125 261.660156 251.046875 259.597656 251.390625 258.410156 C 251.421875 258.316406 251.453125 258.191406 251.453125 258.066406 L 251.453125 258.003906 C 251.453125 257.847656 251.328125 257.816406 251.140625 257.816406 C 250.484375 257.816406 250.515625 260.160156 249.203125 260.972656 C 249.015625 261.097656 248.765625 261.191406 248.515625 261.191406 C 248.078125 261.191406 247.984375 260.785156 247.984375 260.472656 C 247.984375 260.253906 248.046875 260.003906 248.078125 259.816406 L 248.171875 259.535156 C 248.734375 257.628906 249.921875 255.378906 249.921875 253.285156 C 249.921875 251.753906 248.859375 250.910156 247.484375 250.910156 C 246.171875 250.910156 244.734375 251.722656 244.109375 252.847656 Z M 244.109375 252.847656 "/>
<path fill-rule="nonzero" fill="rgb(0%, 0%, 0%)" fill-opacity="1" d="M 254.023438 259.128906 C 253.523438 259.222656 253.054688 259.660156 253.054688 260.253906 C 253.054688 260.878906 253.554688 261.410156 254.179688 261.410156 C 254.804688 261.410156 255.367188 260.941406 255.367188 260.285156 C 255.367188 259.660156 254.835938 259.097656 254.210938 259.097656 C 254.148438 259.097656 254.085938 259.128906 254.023438 259.128906 Z M 254.023438 259.128906 "/>
<path fill-rule="nonzero" fill="rgb(0%, 0%, 0%)" fill-opacity="1" d="M 175.484375 289.890625 L 175.703125 289.789062 L 175.914062 289.6875 L 176.117188 289.585938 L 176.304688 289.46875 L 176.492188 289.34375 L 176.671875 289.210938 L 176.835938 289.078125 L 176.992188 288.9375 L 177.148438 288.78125 L 177.289062 288.625 L 177.421875 288.460938 L 177.554688 288.289062 L 177.671875 288.117188 L 177.789062 287.929688 L 177.890625 287.742188 L 177.992188 287.546875 L 178.085938 287.34375 L 178.257812 286.921875 L 178.398438 286.484375 L 178.460938 286.25 L 178.570312 285.78125 L 178.617188 285.53125 L 178.695312 285.03125 L 178.726562 284.773438 L 178.757812 284.507812 L 178.78125 284.242188 L 178.796875 283.96875 L 178.8125 283.6875 L 178.828125 283.125 L 178.835938 282.835938 L 178.835938 282.546875 L 178.828125 282.25 L 178.828125 281.945312 L 178.820312 281.640625 L 178.789062 281.03125 L 178.773438 280.710938 L 178.757812 280.398438 L 178.734375 280.078125 L 178.71875 279.757812 L 178.671875 279.101562 L 178.609375 278.445312 L 178.585938 278.109375 L 178.554688 277.773438 L 178.53125 277.4375 L 178.40625 276.0625 L 178.375 275.710938 L 178.34375 275.367188 L 178.3125 275.015625 L 178.289062 274.664062 L 178.257812 274.3125 L 178.210938 273.609375 L 178.1875 273.25 L 178.140625 272.546875 L 178.109375 271.828125 L 178.09375 271.476562 L 178.078125 271.117188 L 178.070312 270.765625 L 178.070312 270.40625 L 178.0625 270.046875 L 178.0625 269.695312 L 178.070312 269.335938 L 178.085938 268.632812 L 178.117188 267.929688 L 178.140625 267.578125 L 178.171875 267.226562 L 178.203125 266.882812 L 178.234375 266.53125 L 178.273438 266.1875 L 178.328125 265.84375 L 178.375 265.5 L 178.429688 265.164062 L 178.492188 264.820312 L 178.5625 264.484375 L 178.640625 264.15625 L 178.71875 263.820312 L 178.804688 263.492188 L 178.992188 262.835938 L 179.210938 262.195312 L 179.460938 261.570312 L 179.59375 261.257812 L 179.890625 260.648438 L 180.046875 260.351562 L 180.210938 260.054688 L 180.570312 259.476562 L 180.765625 259.1875 L 180.960938 258.90625 L 181.171875 258.632812 L 181.390625 258.359375 L 181.617188 258.09375 L 181.859375 257.828125 L 182.101562 257.570312 L 182.359375 257.3125 L 182.632812 257.070312 L 182.90625 256.820312 L 183.195312 256.585938 L 183.492188 256.351562 L 183.804688 256.117188 L 184.117188 255.898438 L 184.453125 255.679688 L 184.117188 255.460938 L 183.492188 255.007812 L 183.195312 254.773438 L 182.90625 254.539062 L 182.359375 254.039062 L 182.101562 253.789062 L 181.859375 253.53125 L 181.617188 253.265625 L 181.390625 253 L 181.171875 252.726562 L 180.960938 252.445312 L 180.765625 252.171875 L 180.570312 251.882812 L 180.210938 251.304688 L 180.046875 251.007812 L 179.890625 250.710938 L 179.59375 250.101562 L 179.460938 249.789062 L 179.210938 249.164062 L 178.992188 248.523438 L 178.804688 247.867188 L 178.71875 247.539062 L 178.640625 247.203125 L 178.5625 246.875 L 178.492188 246.539062 L 178.429688 246.195312 L 178.375 245.859375 L 178.328125 245.515625 L 178.273438 245.171875 L 178.234375 244.828125 L 178.203125 244.476562 L 178.171875 244.132812 L 178.140625 243.78125 L 178.117188 243.429688 L 178.085938 242.726562 L 178.078125 242.375 L 178.070312 242.015625 L 178.0625 241.664062 L 178.0625 241.3125 L 178.070312 240.953125 L 178.070312 240.59375 L 178.078125 240.242188 L 178.09375 239.882812 L 178.109375 239.53125 L 178.140625 238.8125 L 178.164062 238.460938 L 178.1875 238.101562 L 178.257812 237.046875 L 178.289062 236.695312 L 178.3125 236.34375 L 178.34375 235.992188 L 178.375 235.648438 L 178.40625 235.296875 L 178.53125 233.921875 L 178.554688 233.585938 L 178.585938 233.25 L 178.609375 232.914062 L 178.671875 232.257812 L 178.71875 231.601562 L 178.734375 231.28125 L 178.757812 230.960938 L 178.773438 230.648438 L 178.789062 230.328125 L 178.820312 229.71875 L 178.828125 229.414062 L 178.828125 229.109375 L 178.835938 228.8125 L 178.835938 228.523438 L 178.828125 228.234375 L 178.8125 227.671875 L 178.796875 227.390625 L 178.78125 227.117188 L 178.757812 226.851562 L 178.726562 226.585938 L 178.695312 226.328125 L 178.617188 225.828125 L 178.570312 225.578125 L 178.460938 225.109375 L 178.398438 224.875 L 178.257812 224.4375 L 178.085938 224.015625 L 177.992188 223.8125 L 177.890625 223.617188 L 177.789062 223.429688 L 177.671875 223.242188 L 177.554688 223.070312 L 177.421875 222.898438 L 177.289062 222.734375 L 177.148438 222.578125 L 176.835938 222.28125 L 176.671875 222.148438 L 176.492188 222.015625 L 176.304688 221.890625 L 176.117188 221.773438 L 175.914062 221.671875 L 175.703125 221.5625 L 175.484375 221.46875 L 175.773438 221.59375 L 176.046875 221.71875 L 176.304688 221.851562 L 176.5625 221.992188 L 177.03125 222.289062 L 177.25 222.453125 L 177.460938 222.609375 L 177.664062 222.78125 L 177.851562 222.960938 L 178.03125 223.140625 L 178.203125 223.328125 L 178.367188 223.523438 L 178.523438 223.726562 L 178.664062 223.929688 L 178.929688 224.351562 L 179.046875 224.570312 L 179.15625 224.796875 L 179.257812 225.03125 L 179.445312 225.5 L 179.523438 225.742188 L 179.59375 225.992188 L 179.664062 226.25 L 179.726562 226.507812 L 179.78125 226.765625 L 179.820312 227.03125 L 179.867188 227.296875 L 179.898438 227.570312 L 179.929688 227.851562 L 179.976562 228.414062 L 179.984375 228.703125 L 180 228.992188 L 180 229.890625 L 179.984375 230.195312 L 179.976562 230.5 L 179.960938 230.8125 L 179.9375 231.125 L 179.921875 231.4375 L 179.890625 231.757812 L 179.859375 232.070312 L 179.828125 232.398438 L 179.796875 232.71875 L 179.679688 233.703125 L 179.640625 234.039062 L 179.453125 235.382812 L 179.40625 235.726562 L 179.359375 236.0625 L 179.3125 236.40625 L 179.257812 236.75 L 179.210938 237.09375 L 179.164062 237.445312 L 179.117188 237.789062 L 179.0625 238.132812 L 179.023438 238.484375 L 178.976562 238.828125 L 178.929688 239.179688 L 178.882812 239.523438 L 178.84375 239.875 L 178.765625 240.5625 L 178.726562 240.914062 L 178.695312 241.265625 L 178.664062 241.609375 L 178.640625 241.960938 L 178.609375 242.304688 L 178.59375 242.648438 L 178.570312 242.992188 L 178.554688 243.335938 L 178.539062 244.023438 L 178.539062 244.703125 L 178.554688 245.375 L 178.570312 245.710938 L 178.59375 246.046875 L 178.617188 246.375 L 178.648438 246.703125 L 178.6875 247.03125 L 178.734375 247.359375 L 178.78125 247.679688 L 178.835938 248.007812 L 178.898438 248.320312 L 178.96875 248.640625 L 179.046875 248.953125 L 179.132812 249.265625 L 179.21875 249.570312 L 179.320312 249.882812 L 179.421875 250.179688 L 179.539062 250.476562 L 179.65625 250.78125 L 179.789062 251.070312 L 180.070312 251.648438 L 180.398438 252.210938 L 180.570312 252.484375 L 180.757812 252.757812 L 180.953125 253.023438 L 181.15625 253.289062 L 181.367188 253.546875 L 181.59375 253.804688 L 181.828125 254.054688 L 182.070312 254.296875 L 182.328125 254.539062 L 182.59375 254.78125 L 182.875 255.015625 L 183.164062 255.242188 L 183.460938 255.460938 L 183.78125 255.679688 L 183.460938 255.898438 L 183.164062 256.117188 L 182.875 256.34375 L 182.59375 256.578125 L 182.328125 256.820312 L 182.070312 257.0625 L 181.828125 257.304688 L 181.59375 257.554688 L 181.367188 257.8125 L 181.15625 258.070312 L 180.953125 258.335938 L 180.757812 258.601562 L 180.570312 258.875 L 180.398438 259.148438 L 180.070312 259.710938 L 179.789062 260.289062 L 179.65625 260.578125 L 179.539062 260.875 L 179.421875 261.179688 L 179.320312 261.476562 L 179.21875 261.789062 L 179.132812 262.09375 L 179.046875 262.40625 L 178.96875 262.71875 L 178.898438 263.039062 L 178.835938 263.351562 L 178.78125 263.679688 L 178.734375 264 L 178.6875 264.328125 L 178.648438 264.65625 L 178.617188 264.984375 L 178.59375 265.3125 L 178.570312 265.648438 L 178.554688 265.984375 L 178.539062 266.65625 L 178.539062 267.335938 L 178.554688 268.023438 L 178.570312 268.367188 L 178.59375 268.710938 L 178.609375 269.054688 L 178.640625 269.398438 L 178.664062 269.75 L 178.695312 270.09375 L 178.726562 270.445312 L 178.765625 270.789062 L 178.804688 271.140625 L 178.84375 271.484375 L 178.882812 271.835938 L 178.929688 272.1875 L 179.023438 272.875 L 179.0625 273.226562 L 179.117188 273.570312 L 179.164062 273.914062 L 179.210938 274.265625 L 179.257812 274.609375 L 179.3125 274.953125 L 179.359375 275.296875 L 179.40625 275.632812 L 179.453125 275.976562 L 179.640625 277.320312 L 179.679688 277.65625 L 179.796875 278.640625 L 179.828125 278.960938 L 179.859375 279.289062 L 179.890625 279.601562 L 179.921875 279.921875 L 179.9375 280.234375 L 179.960938 280.546875 L 179.976562 280.859375 L 179.984375 281.164062 L 180 281.46875 L 180 282.359375 L 179.984375 282.65625 L 179.976562 282.945312 L 179.929688 283.507812 L 179.898438 283.789062 L 179.867188 284.054688 L 179.820312 284.328125 L 179.78125 284.59375 L 179.726562 284.851562 L 179.664062 285.109375 L 179.59375 285.367188 L 179.523438 285.609375 L 179.445312 285.859375 L 179.257812 286.328125 L 179.15625 286.5625 L 179.046875 286.789062 L 178.929688 287.007812 L 178.664062 287.429688 L 178.523438 287.632812 L 178.367188 287.835938 L 178.203125 288.03125 L 178.03125 288.21875 L 177.851562 288.398438 L 177.664062 288.578125 L 177.460938 288.75 L 177.25 288.90625 L 177.03125 289.070312 L 176.5625 289.367188 L 176.304688 289.507812 L 176.046875 289.640625 L 175.773438 289.765625 L 175.484375 289.890625 "/>
<path fill="none" stroke-width="3.985" stroke-linecap="butt" stroke-linejoin="miter" stroke="rgb(0%, 0%, 0%)" stroke-opacity="1" stroke-miterlimit="10" d="M 877.421862 330.54687 L 878.515612 331.054683 L 879.570299 331.562495 L 880.585924 332.070308 L 881.523424 332.656245 L 882.460924 333.281245 L 883.359362 333.945308 L 884.179674 334.60937 L 884.960924 335.312495 L 885.742174 336.093745 L 886.445299 336.874995 L 887.109362 337.695307 L 887.773424 338.554682 L 888.359362 339.414057 L 888.945299 340.351557 L 889.453112 341.289057 L 889.960924 342.26562 L 890.429674 343.281245 L 891.289049 345.39062 L 891.992174 347.57812 L 892.304674 348.749995 L 892.851549 351.093745 L 893.085924 352.343745 L 893.476549 354.843745 L 893.632799 356.132807 L 893.789049 357.460932 L 893.906237 358.789057 L 893.984362 360.156245 L 894.062487 361.562495 L 894.140612 364.374995 L 894.179674 365.820307 L 894.179674 367.26562 L 894.140612 368.749995 L 894.140612 370.273432 L 894.101549 371.796869 L 893.945299 374.843744 L 893.867174 376.445307 L 893.789049 378.007807 L 893.671862 379.609369 L 893.593737 381.210932 L 893.359362 384.492182 L 893.046862 387.773432 L 892.929674 389.453119 L 892.773424 391.132807 L 892.656237 392.812494 L 892.031237 399.687494 L 891.874987 401.445307 L 891.718737 403.164056 L 891.562487 404.921869 L 891.445299 406.679681 L 891.289049 408.437494 L 891.054674 411.953119 L 890.937487 413.749994 L 890.703112 417.265619 L 890.546862 420.859369 L 890.468737 422.617181 L 890.390612 424.414056 L 890.351549 426.171869 L 890.351549 427.968744 L 890.312487 429.765619 L 890.312487 431.523431 L 890.351549 433.320306 L 890.429674 436.835931 L 890.585924 440.351556 L 890.703112 442.109368 L 890.859362 443.867181 L 891.015612 445.585931 L 891.171862 447.343743 L 891.367174 449.062493 L 891.640612 450.781243 L 891.874987 452.499993 L 892.148424 454.179681 L 892.460924 455.898431 L 892.812487 457.578118 L 893.203112 459.218743 L 893.593737 460.898431 L 894.023424 462.539056 L 894.960924 465.820306 L 896.054674 469.023431 L 897.304674 472.14843 L 897.968737 473.71093 L 899.453112 476.757805 L 900.234362 478.24218 L 901.054674 479.726555 L 902.851549 482.61718 L 903.828112 484.062493 L 904.804674 485.468743 L 905.859362 486.83593 L 906.953111 488.203118 L 908.085924 489.531243 L 909.296861 490.859368 L 910.507799 492.14843 L 911.796861 493.437493 L 913.164049 494.64843 L 914.531236 495.89843 L 915.976549 497.070305 L 917.460924 498.24218 L 919.023424 499.414055 L 920.585924 500.507805 L 922.265611 501.601555 L 920.585924 502.695305 L 917.460924 504.96093 L 915.976549 506.132805 L 914.531236 507.30468 L 911.796861 509.80468 L 910.507799 511.05468 L 909.296861 512.343742 L 908.085924 513.671867 L 906.953111 514.999992 L 905.859362 516.36718 L 904.804674 517.77343 L 903.828112 519.140617 L 902.851549 520.58593 L 901.054674 523.476555 L 900.234362 524.96093 L 899.453112 526.445305 L 897.968737 529.49218 L 897.304674 531.05468 L 896.054674 534.17968 L 894.960924 537.382804 L 894.023424 540.664054 L 893.593737 542.304679 L 893.203112 543.984367 L 892.812487 545.624992 L 892.460924 547.304679 L 892.148424 549.023429 L 891.874987 550.703117 L 891.640612 552.421867 L 891.367174 554.140617 L 891.171862 555.859367 L 891.015612 557.617179 L 890.859362 559.335929 L 890.703112 561.093742 L 890.585924 562.851554 L 890.429674 566.367179 L 890.390612 568.124992 L 890.351549 569.921867 L 890.312487 571.679679 L 890.312487 573.437491 L 890.351549 575.234366 L 890.351549 577.031241 L 890.390612 578.789054 L 890.468737 580.585929 L 890.546862 582.343741 L 890.703112 585.937491 L 890.820299 587.695304 L 890.937487 589.492179 L 891.289049 594.765616 L 891.445299 596.523429 L 891.562487 598.281241 L 891.718737 600.039054 L 891.874987 601.757804 L 892.031237 603.515616 L 892.656237 610.390616 L 892.773424 612.070303 L 892.929674 613.749991 L 893.046862 615.429678 L 893.359362 618.710928 L 893.593737 621.992178 L 893.671862 623.593741 L 893.789049 625.195303 L 893.867174 626.757803 L 893.945299 628.359366 L 894.101549 631.406241 L 894.140612 632.929678 L 894.140612 634.453116 L 894.179674 635.937491 L 894.179674 637.382803 L 894.140612 638.828115 L 894.062487 641.640615 L 893.984362 643.046865 L 893.906237 644.414053 L 893.789049 645.742178 L 893.632799 647.070303 L 893.476549 648.359365 L 893.085924 650.859365 L 892.851549 652.109365 L 892.304674 654.453115 L 891.992174 655.62499 L 891.289049 657.81249 L 890.429674 659.921865 L 889.960924 660.93749 L 889.453112 661.914053 L 888.945299 662.851553 L 888.359362 663.789053 L 887.773424 664.648428 L 887.109362 665.507803 L 886.445299 666.328115 L 885.742174 667.109365 L 884.179674 668.59374 L 883.359362 669.257803 L 882.460924 669.921865 L 881.523424 670.546865 L 880.585924 671.132802 L 879.570299 671.640615 L 878.515612 672.18749 L 877.421862 672.65624 L 878.867174 672.03124 L 880.234362 671.40624 L 881.523424 670.742178 L 882.812487 670.039053 L 885.156237 668.554678 L 886.249987 667.734365 L 887.304674 666.953115 L 888.320299 666.09374 L 889.257799 665.195303 L 890.156237 664.296865 L 891.015612 663.359365 L 891.835924 662.382803 L 892.617174 661.367178 L 893.320299 660.351553 L 894.648424 658.242178 L 895.234362 657.148428 L 895.781237 656.015615 L 896.289049 654.84374 L 897.226549 652.49999 L 897.617174 651.289053 L 897.968737 650.039053 L 898.320299 648.74999 L 898.632799 647.460928 L 898.906237 646.171865 L 899.101549 644.84374 L 899.335924 643.515615 L 899.492174 642.148428 L 899.648424 640.742178 L 899.882799 637.929678 L 899.921862 636.484366 L 899.999987 635.039053 L 899.999987 630.546866 L 899.921862 629.023428 L 899.882799 627.499991 L 899.804674 625.937491 L 899.687487 624.374991 L 899.609362 622.812491 L 899.453112 621.210928 L 899.296862 619.648428 L 899.140612 618.007803 L 898.984362 616.406241 L 898.398424 611.484366 L 898.203112 609.804678 L 897.265612 603.085929 L 897.031237 601.367179 L 896.796862 599.687491 L 896.562487 597.968741 L 896.289049 596.249991 L 896.054674 594.531241 L 895.820299 592.773429 L 895.585924 591.054679 L 895.312487 589.335929 L 895.117174 587.578116 L 894.882799 585.859366 L 894.648424 584.101554 L 894.414049 582.382804 L 894.218737 580.624991 L 893.828112 577.187491 L 893.632799 575.429679 L 893.476549 573.671866 L 893.320299 571.953116 L 893.203112 570.195304 L 893.046862 568.476554 L 892.968737 566.757804 L 892.851549 565.039054 L 892.773424 563.320304 L 892.695299 559.882804 L 892.695299 556.484367 L 892.773424 553.124992 L 892.851549 551.445304 L 892.968737 549.765617 L 893.085924 548.124992 L 893.242174 546.484367 L 893.437487 544.843742 L 893.671862 543.203117 L 893.906237 541.601554 L 894.179674 539.960929 L 894.492174 538.398429 L 894.843737 536.796867 L 895.234362 535.234367 L 895.664049 533.671867 L 896.093737 532.14843 L 896.601549 530.58593 L 897.109362 529.101555 L 897.695299 527.61718 L 898.281237 526.093742 L 898.945299 524.64843 L 900.351549 521.757805 L 901.992174 518.945305 L 902.851549 517.578117 L 903.789049 516.21093 L 904.765612 514.882805 L 905.781237 513.55468 L 906.835924 512.265617 L 907.968736 510.976555 L 909.140611 509.726555 L 910.351549 508.515617 L 911.640611 507.30468 L 912.968736 506.093742 L 914.374986 504.921867 L 915.820299 503.789055 L 917.304674 502.695305 L 918.906236 501.601555 L 917.304674 500.507805 L 915.820299 499.414055 L 914.374986 498.281243 L 912.968736 497.109368 L 911.640611 495.89843 L 910.351549 494.687493 L 909.140611 493.476555 L 907.968736 492.226555 L 906.835924 490.937493 L 905.781237 489.64843 L 904.765612 488.320305 L 903.789049 486.99218 L 902.851549 485.624993 L 901.992174 484.257805 L 900.351549 481.445305 L 898.945299 478.55468 L 898.281237 477.109368 L 897.695299 475.624993 L 897.109362 474.101555 L 896.601549 472.61718 L 896.093737 471.05468 L 895.664049 469.531243 L 895.234362 467.968743 L 894.843737 466.406243 L 894.492174 464.804681 L 894.179674 463.242181 L 893.906237 461.601556 L 893.671862 459.999993 L 893.437487 458.359368 L 893.242174 456.718743 L 893.085924 455.078118 L 892.968737 453.437493 L 892.851549 451.757806 L 892.773424 450.078118 L 892.695299 446.718743 L 892.695299 443.320306 L 892.773424 439.882806 L 892.851549 438.164056 L 892.968737 436.445306 L 893.046862 434.726556 L 893.203112 433.007806 L 893.320299 431.249994 L 893.476549 429.531244 L 893.632799 427.773431 L 893.828112 426.054681 L 894.023424 424.296869 L 894.218737 422.578119 L 894.414049 420.820306 L 894.648424 419.062494 L 895.117174 415.624994 L 895.312487 413.867181 L 895.585924 412.148431 L 895.820299 410.429681 L 896.054674 408.671869 L 896.289049 406.953119 L 896.562487 405.234369 L 896.796862 403.515619 L 897.031237 401.835932 L 897.265612 400.117182 L 898.203112 393.398432 L 898.398424 391.718744 L 898.984362 386.796869 L 899.140612 385.195307 L 899.296862 383.554682 L 899.453112 381.992182 L 899.609362 380.390619 L 899.687487 378.828119 L 899.804674 377.265619 L 899.882799 375.703119 L 899.921862 374.179682 L 899.999987 372.656244 L 899.999987 368.20312 L 899.921862 366.718745 L 899.882799 365.273432 L 899.648424 362.460932 L 899.492174 361.054682 L 899.335924 359.726557 L 899.101549 358.35937 L 898.906237 357.031245 L 898.632799 355.742182 L 898.320299 354.45312 L 897.968737 353.164057 L 897.617174 351.95312 L 897.226549 350.70312 L 896.289049 348.35937 L 895.781237 347.187495 L 895.234362 346.054682 L 894.648424 344.960932 L 893.320299 342.851557 L 892.617174 341.835932 L 891.835924 340.820307 L 891.015612 339.843745 L 890.156237 338.906245 L 889.257799 338.007807 L 888.320299 337.10937 L 887.304674 336.249995 L 886.249987 335.468745 L 885.156237 334.648433 L 882.812487 333.164058 L 881.523424 332.460933 L 880.234362 331.79687 L 878.867174 331.17187 Z M 877.421862 330.54687 " transform="matrix(0.2, 0, 0, -0.2, 0, 356)"/>
<path fill-rule="nonzero" fill="rgb(0%, 0%, 0%)" fill-opacity="1" d="M 171.601562 348.300781 C 172.789062 347.894531 174.789062 347.300781 174.789062 345.363281 C 174.789062 343.050781 172.070312 341.988281 170.101562 341.988281 C 169.164062 341.988281 168.195312 342.207031 167.351562 342.707031 C 167.226562 342.769531 167.070312 342.957031 166.914062 342.957031 C 166.601562 342.957031 166.039062 341.988281 165.726562 341.988281 C 165.539062 341.988281 165.507812 342.207031 165.507812 342.300781 L 165.507812 345.863281 C 165.507812 345.988281 165.601562 346.144531 165.789062 346.144531 C 166.101562 346.144531 166.070312 345.519531 166.164062 345.175781 C 166.632812 343.457031 168.195312 342.707031 169.695312 342.613281 L 170.101562 342.613281 C 171.445312 342.613281 173.007812 343.488281 173.007812 345.363281 C 173.007812 347.175781 171.226562 348.113281 169.570312 348.113281 C 169.257812 348.113281 168.945312 348.113281 168.632812 348.113281 L 168.476562 348.113281 C 168.289062 348.113281 168.070312 348.113281 168.070312 348.332031 L 168.070312 348.363281 C 168.101562 348.550781 168.289062 348.582031 168.476562 348.582031 L 170.320312 348.582031 C 171.882812 348.707031 173.320312 349.738281 173.476562 351.363281 L 173.476562 351.582031 C 173.476562 353.425781 171.757812 354.582031 170.007812 354.582031 C 168.101562 354.582031 166.132812 353.957031 165.820312 351.582031 C 165.820312 351.425781 165.757812 351.238281 165.539062 351.238281 C 165.320312 351.269531 165.289062 351.425781 165.289062 351.582031 C 165.289062 354.175781 167.882812 355.207031 170.132812 355.207031 C 172.195312 355.207031 175.070312 354.238281 175.320312 351.769531 L 175.320312 351.644531 C 175.320312 349.675781 173.257812 348.707031 171.601562 348.300781 Z M 171.601562 348.300781 "/>
<path fill-rule="nonzero" fill="rgb(0%, 0%, 0%)" fill-opacity="1" d="M 183.695312 341.988281 C 180.320312 342.394531 177.632812 345.050781 177.632812 348.644531 C 177.632812 351.925781 180.226562 355.175781 184.101562 355.175781 C 187.601562 355.175781 190.570312 352.269531 190.570312 348.644531 C 190.570312 345.457031 188.070312 341.988281 184.132812 341.988281 C 184.007812 341.988281 183.851562 341.988281 183.695312 341.988281 Z M 179.507812 348.863281 L 179.507812 348.519531 C 179.507812 346.019531 180.414062 343.082031 183.570312 342.550781 C 183.757812 342.519531 183.914062 342.519531 184.101562 342.519531 C 186.914062 342.519531 188.664062 345.238281 188.664062 348.269531 C 188.664062 350.675781 187.945312 353.738281 184.976562 354.519531 C 184.695312 354.582031 184.414062 354.613281 184.132812 354.613281 L 183.945312 354.613281 C 181.351562 354.519531 179.945312 352.050781 179.601562 349.644531 Z M 179.507812 348.863281 "/>
<path fill-rule="nonzero" fill="rgb(0%, 0%, 0%)" fill-opacity="1" d="M 193.027344 342.332031 L 193.027344 342.925781 L 193.464844 342.925781 C 194.058594 342.925781 194.683594 343.019531 194.683594 343.894531 L 194.683594 353.363281 C 194.683594 354.207031 193.964844 354.238281 193.308594 354.238281 L 193.027344 354.238281 L 193.027344 354.832031 L 198.808594 354.832031 C 199.214844 354.832031 199.589844 354.863281 199.996094 354.863281 C 201.996094 354.863281 204.339844 353.925781 204.558594 351.519531 L 204.558594 351.332031 C 204.558594 348.800781 201.683594 347.769531 199.777344 347.769531 C 198.527344 347.769531 197.339844 347.894531 196.152344 347.988281 L 196.152344 343.769531 C 196.152344 343.332031 196.214844 342.925781 196.996094 342.925781 L 199.308594 342.925781 C 200.277344 342.925781 201.371094 342.988281 202.089844 343.707031 C 202.777344 344.425781 202.871094 345.644531 202.964844 346.582031 L 203.496094 346.582031 L 203.027344 342.332031 Z M 196.152344 348.613281 C 196.402344 348.613281 196.652344 348.550781 196.902344 348.519531 L 198.277344 348.457031 C 198.558594 348.425781 198.839844 348.394531 199.152344 348.394531 C 200.714844 348.394531 202.683594 349.394531 202.683594 351.238281 C 202.683594 352.988281 201.339844 354.269531 199.339844 354.269531 C 199.058594 354.269531 198.746094 354.238281 198.496094 354.238281 L 196.964844 354.238281 C 196.496094 354.238281 196.246094 354.207031 196.152344 353.582031 Z M 196.152344 348.613281 "/>
<path fill-rule="nonzero" fill="rgb(0%, 0%, 0%)" fill-opacity="1" d="M 206.90625 342.332031 L 206.90625 342.925781 L 207.375 342.925781 C 207.96875 342.925781 208.5625 343.019531 208.5625 343.894531 L 208.5625 353.363281 C 208.5625 354.207031 207.875 354.238281 207.1875 354.238281 L 206.90625 354.238281 L 206.90625 354.832031 L 211.8125 354.832031 L 211.8125 354.238281 L 211.375 354.238281 C 210.75 354.238281 210.15625 354.175781 210.15625 353.300781 L 210.15625 349.113281 L 213.875 349.113281 C 215.65625 348.988281 217.9375 347.800781 217.9375 345.769531 C 217.9375 343.550781 215.59375 342.488281 213.6875 342.332031 Z M 210.125 348.582031 L 210.125 343.582031 C 210.21875 342.988281 210.46875 342.925781 210.875 342.925781 L 212.3125 342.925781 C 213.9375 342.925781 216.0625 342.988281 216.0625 345.769531 C 216.0625 346.425781 215.96875 347.113281 215.5625 347.613281 C 214.90625 348.394531 213.8125 348.582031 212.84375 348.582031 Z M 210.125 348.582031 "/>
<path fill-rule="nonzero" fill="rgb(0%, 0%, 0%)" fill-opacity="1" d="M 222.636719 352.550781 C 222.136719 352.644531 221.636719 353.082031 221.636719 353.675781 C 221.636719 354.300781 222.167969 354.832031 222.792969 354.832031 C 223.417969 354.832031 223.980469 354.363281 223.980469 353.707031 C 223.980469 353.082031 223.449219 352.519531 222.824219 352.519531 C 222.761719 352.519531 222.699219 352.550781 222.636719 352.550781 Z M 222.636719 352.550781 "/>
<path fill-rule="nonzero" fill="rgb(0%, 0%, 0%)" fill-opacity="1" d="M 237.816406 340.457031 L 237.816406 341.175781 C 238.910156 341.175781 239.941406 340.988281 240.972656 340.519531 L 240.972656 353.082031 C 240.972656 354.019531 240.066406 354.175781 239.097656 354.175781 C 238.691406 354.175781 238.285156 354.144531 237.941406 354.144531 L 237.941406 354.832031 L 245.660156 354.832031 L 245.660156 354.144531 C 245.285156 354.144531 244.847656 354.175781 244.441406 354.175781 C 243.503906 354.175781 242.628906 354.019531 242.628906 353.113281 L 242.628906 339.300781 C 242.628906 339.144531 242.597656 338.957031 242.347656 338.957031 C 242.035156 338.957031 241.691406 339.394531 241.378906 339.582031 C 240.316406 340.269531 239.035156 340.457031 237.816406 340.457031 Z M 237.816406 340.457031 "/>
<path fill-rule="nonzero" fill="rgb(0%, 0%, 0%)" fill-opacity="1" d="M 250.121094 351.894531 C 250.214844 351.925781 250.371094 351.957031 250.527344 351.957031 C 251.183594 351.957031 251.558594 351.457031 251.558594 350.863281 C 251.558594 350.269531 251.089844 349.832031 250.527344 349.832031 C 249.933594 349.832031 249.433594 350.269531 249.433594 350.957031 C 249.433594 353.269531 251.339844 355.332031 253.902344 355.332031 C 256.808594 355.332031 259.183594 352.988281 259.183594 350.019531 C 259.183594 347.644531 257.839844 345.582031 255.433594 344.894531 C 255.183594 344.832031 254.902344 344.832031 254.621094 344.832031 C 253.371094 344.832031 252.246094 345.238281 251.371094 346.144531 L 251.371094 341.144531 C 252.121094 341.269531 252.808594 341.488281 253.589844 341.488281 C 255.183594 341.488281 256.777344 340.894531 257.964844 339.613281 C 258.089844 339.457031 258.246094 339.363281 258.246094 339.175781 L 258.246094 339.144531 C 258.214844 339.019531 258.121094 338.957031 258.027344 338.957031 C 257.964844 338.957031 257.964844 338.957031 257.902344 338.988281 C 256.746094 339.394531 255.746094 339.707031 254.527344 339.707031 C 253.464844 339.707031 252.339844 339.550781 251.371094 339.113281 C 251.246094 339.050781 251.152344 338.988281 250.996094 338.957031 L 250.933594 338.957031 C 250.839844 338.957031 250.746094 339.050781 250.746094 339.175781 L 250.746094 346.769531 C 250.746094 346.988281 250.777344 347.175781 251.027344 347.175781 C 251.308594 347.175781 251.464844 346.738281 251.652344 346.550781 C 252.402344 345.769531 253.402344 345.332031 254.496094 345.300781 C 255.652344 345.300781 256.371094 346.082031 256.808594 347.019531 C 257.246094 347.957031 257.246094 349.113281 257.246094 350.144531 C 257.246094 351.800781 256.902344 353.550781 255.183594 354.394531 C 254.746094 354.613281 254.277344 354.707031 253.839844 354.707031 C 252.121094 354.707031 250.621094 353.519531 250.121094 351.894531 Z M 250.121094 351.894531 "/>
<path fill-rule="nonzero" fill="rgb(0%, 0%, 0%)" fill-opacity="1" d="M 264.144531 352.550781 C 263.644531 352.644531 263.144531 353.082031 263.144531 353.675781 C 263.144531 354.300781 263.675781 354.832031 264.300781 354.832031 C 264.925781 354.832031 265.488281 354.363281 265.488281 353.707031 C 265.488281 353.082031 264.957031 352.519531 264.332031 352.519531 C 264.269531 352.519531 264.207031 352.550781 264.144531 352.550781 Z M 264.144531 352.550781 "/>
</svg>
