<?xml version="1.0" encoding="UTF-8"?>
<svg xmlns="http://www.w3.org/2000/svg" xmlns:xlink="http://www.w3.org/1999/xlink" width="402" height="360" viewBox="0 0 402 360">
<path fill="none" stroke-width="11.9553" stroke-linecap="butt" stroke-linejoin="miter" stroke="rgb(0%, 0%, 0%)" stroke-opacity="1" stroke-miterlimit="10" d="M 202.499997 490.859368 L 231.367184 516.328117 L 260.273434 540.585929 L 289.140621 563.671867 L 318.007808 585.624991 L 346.874995 606.523428 L 375.742182 626.406241 L 404.648431 645.351553 L 433.515619 663.43749 L 462.382806 680.664052 L 491.249993 697.109365 L 520.11718 712.812489 L 549.023429 727.890614 L 577.890616 742.343739 L 606.757803 756.249989 L 635.624991 769.687489 L 664.492178 782.656238 L 693.398427 795.312488 L 722.265614 807.578113 L 751.132801 819.609363 L 779.999988 831.4453 L 808.906238 843.124987 L 895.507799 877.812487 L 924.374986 889.492174 L 953.281236 901.289049 L 982.148423 913.281236 L 1011.01561 925.507799 L 1039.882797 938.046861 L 1068.749984 950.976548 L 1097.617171 964.296861 L 1126.523421 978.124985 L 1155.390608 992.460923 L 1184.257795 1007.42186 L 1213.124982 1023.007797 L 1242.031231 1039.29686 L 1270.898419 1056.367172 L 1299.765606 1074.257796 L 1328.632793 1093.046859 L 1357.539042 1112.734358 L 1386.406229 1133.437483 L 1415.273416 1155.195295 L 1444.140603 1178.046857 L 1473.007791 1202.031232 L 1501.874978 1227.304669 L 1530.781227 1253.828106 L 1559.648414 1281.679668 L 1588.515601 1310.93748 L 1617.382788 1341.601543 L 1646.289038 1373.828105 L 1675.156225 1407.578104 L 1704.023412 1442.968728 L 1732.890599 1480.03904 L 1761.757786 1518.867165 L 1790.664036 1559.414039 L 1819.531223 1601.874976 L 1848.39841 1646.210913 L 1877.265597 1692.539037 L 1906.132784 1740.898412 L 1935.039034 1791.289036 " transform="matrix(0.2, 0, 0, -0.2, 0, 360)"/>
<path fill="none" stroke-width="11.9553" stroke-linecap="butt" stroke-linejoin="miter" stroke="rgb(0%, 0%, 0%)" stroke-opacity="1" stroke-miterlimit="10" d="M 359.999995 615.703116 L 539.999992 615.703116 " transform="matrix(0.2, 0, 0, -0.2, 0, 360)"/>
<path fill="none" stroke-width="11.9553" stroke-linecap="butt" stroke-linejoin="miter" stroke="rgb(0%, 0%, 0%)" stroke-opacity="1" stroke-miterlimit="10" d="M 539.999992 723.242177 L 539.999992 615.703116 " transform="matrix(0.2, 0, 0, -0.2, 0, 360)"/>
<path fill="none" stroke-width="11.9553" stroke-linecap="butt" stroke-linejoin="miter" stroke="rgb(0%, 0%, 0%)" stroke-opacity="1" stroke-miterlimit="10" d="M 809.999988 843.554675 L 989.999985 843.554675 " transform="matrix(0.2, 0, 0, -0.2, 0, 360)"/>
<path fill="none" stroke-width="11.9553" stroke-linecap="butt" stroke-linejoin="miter" stroke="rgb(0%, 0%, 0%)" stroke-opacity="1" stroke-miterlimit="10" d="M 989.999985 916.562486 L 989.999985 843.554675 " transform="matrix(0.2, 0, 0, -0.2, 0, 360)"/>
<path fill="none" stroke-width="11.9553" stroke-linecap="butt" stroke-linejoin="miter" stroke="rgb(0%, 0%, 0%)" stroke-opacity="1" stroke-miterlimit="10" d="M 1710.039037 1450.546853 L 1890.039034 1450.546853 " transform="matrix(0.2, 0, 0, -0.2, 0, 360)"/>
<path fill="none" stroke-width="11.9553" stroke-linecap="butt" stroke-linejoin="miter" stroke="rgb(0%, 0%, 0%)" stroke-opacity="1" stroke-miterlimit="10" d="M 1890.039034 1713.632787 L 1890.039034 1450.546853 " transform="matrix(0.2, 0, 0, -0.2, 0, 360)"/>
<path fill="none" stroke-width="7.9701" stroke-linecap="butt" stroke-linejoin="miter" stroke="rgb(0%, 0%, 0%)" stroke-opacity="1" stroke-miterlimit="10" d="M 359.999995 615.703116 L 359.999995 591.171866 " transform="matrix(0.2, 0, 0, -0.2, 0, 360)"/>
<path fill="none" stroke-width="7.9701" stroke-linecap="butt" stroke-linejoin="miter" stroke="rgb(0%, 0%, 0%)" stroke-opacity="1" stroke-miterlimit="10" d="M 359.999995 542.148429 L 359.999995 517.656242 " transform="matrix(0.2, 0, 0, -0.2, 0, 360)"/>
<path fill="none" stroke-width="7.9701" stroke-linecap="butt" stroke-linejoin="miter" stroke="rgb(0%, 0%, 0%)" stroke-opacity="1" stroke-miterlimit="10" d="M 359.999995 517.656242 L 359.999995 493.164055 " transform="matrix(0.2, 0, 0, -0.2, 0, 360)"/>
<path fill="none" stroke-width="7.9701" stroke-linecap="butt" stroke-linejoin="miter" stroke="rgb(0%, 0%, 0%)" stroke-opacity="1" stroke-miterlimit="10" d="M 359.999995 444.140618 L 359.999995 419.648431 " transform="matrix(0.2, 0, 0, -0.2, 0, 360)"/>
<path fill="none" stroke-width="7.9701" stroke-linecap="butt" stroke-linejoin="miter" stroke="rgb(0%, 0%, 0%)" stroke-opacity="1" stroke-miterlimit="10" d="M 359.999995 419.648431 L 359.999995 395.117182 " transform="matrix(0.2, 0, 0, -0.2, 0, 360)"/>
<path fill="none" stroke-width="7.9701" stroke-linecap="butt" stroke-linejoin="miter" stroke="rgb(0%, 0%, 0%)" stroke-opacity="1" stroke-miterlimit="10" d="M 359.999995 346.093745 L 359.999995 321.601558 " transform="matrix(0.2, 0, 0, -0.2, 0, 360)"/>
<path fill="none" stroke-width="7.9701" stroke-linecap="butt" stroke-linejoin="miter" stroke="rgb(0%, 0%, 0%)" stroke-opacity="1" stroke-miterlimit="10" d="M 539.999992 723.242177 L 539.999992 698.164052 " transform="matrix(0.2, 0, 0, -0.2, 0, 360)"/>
<path fill="none" stroke-width="7.9701" stroke-linecap="butt" stroke-linejoin="miter" stroke="rgb(0%, 0%, 0%)" stroke-opacity="1" stroke-miterlimit="10" d="M 539.999992 647.929678 L 539.999992 622.851553 " transform="matrix(0.2, 0, 0, -0.2, 0, 360)"/>
<path fill="none" stroke-width="7.9701" stroke-linecap="butt" stroke-linejoin="miter" stroke="rgb(0%, 0%, 0%)" stroke-opacity="1" stroke-miterlimit="10" d="M 539.999992 622.851553 L 539.999992 597.734366 " transform="matrix(0.2, 0, 0, -0.2, 0, 360)"/>
<path fill="none" stroke-width="7.9701" stroke-linecap="butt" stroke-linejoin="miter" stroke="rgb(0%, 0%, 0%)" stroke-opacity="1" stroke-miterlimit="10" d="M 539.999992 547.539054 L 539.999992 522.421867 " transform="matrix(0.2, 0, 0, -0.2, 0, 360)"/>
<path fill="none" stroke-width="7.9701" stroke-linecap="butt" stroke-linejoin="miter" stroke="rgb(0%, 0%, 0%)" stroke-opacity="1" stroke-miterlimit="10" d="M 539.999992 522.421867 L 539.999992 497.343743 " transform="matrix(0.2, 0, 0, -0.2, 0, 360)"/>
<path fill="none" stroke-width="7.9701" stroke-linecap="butt" stroke-linejoin="miter" stroke="rgb(0%, 0%, 0%)" stroke-opacity="1" stroke-miterlimit="10" d="M 539.999992 447.109368 L 539.999992 422.031244 " transform="matrix(0.2, 0, 0, -0.2, 0, 360)"/>
<path fill="none" stroke-width="7.9701" stroke-linecap="butt" stroke-linejoin="miter" stroke="rgb(0%, 0%, 0%)" stroke-opacity="1" stroke-miterlimit="10" d="M 539.999992 422.031244 L 539.999992 396.914057 " transform="matrix(0.2, 0, 0, -0.2, 0, 360)"/>
<path fill="none" stroke-width="7.9701" stroke-linecap="butt" stroke-linejoin="miter" stroke="rgb(0%, 0%, 0%)" stroke-opacity="1" stroke-miterlimit="10" d="M 539.999992 346.718745 L 539.999992 321.601558 " transform="matrix(0.2, 0, 0, -0.2, 0, 360)"/>
<path fill="none" stroke-width="7.9701" stroke-linecap="butt" stroke-linejoin="miter" stroke="rgb(0%, 0%, 0%)" stroke-opacity="1" stroke-miterlimit="10" d="M 809.999988 843.554675 L 809.999988 817.460925 " transform="matrix(0.2, 0, 0, -0.2, 0, 360)"/>
<path fill="none" stroke-width="7.9701" stroke-linecap="butt" stroke-linejoin="miter" stroke="rgb(0%, 0%, 0%)" stroke-opacity="1" stroke-miterlimit="10" d="M 809.999988 765.273426 L 809.999988 739.179676 " transform="matrix(0.2, 0, 0, -0.2, 0, 360)"/>
<path fill="none" stroke-width="7.9701" stroke-linecap="butt" stroke-linejoin="miter" stroke="rgb(0%, 0%, 0%)" stroke-opacity="1" stroke-miterlimit="10" d="M 809.999988 739.179676 L 809.999988 713.085927 " transform="matrix(0.2, 0, 0, -0.2, 0, 360)"/>
<path fill="none" stroke-width="7.9701" stroke-linecap="butt" stroke-linejoin="miter" stroke="rgb(0%, 0%, 0%)" stroke-opacity="1" stroke-miterlimit="10" d="M 809.999988 660.898428 L 809.999988 634.765616 " transform="matrix(0.2, 0, 0, -0.2, 0, 360)"/>
<path fill="none" stroke-width="7.9701" stroke-linecap="butt" stroke-linejoin="miter" stroke="rgb(0%, 0%, 0%)" stroke-opacity="1" stroke-miterlimit="10" d="M 809.999988 634.765616 L 809.999988 608.671866 " transform="matrix(0.2, 0, 0, -0.2, 0, 360)"/>
<path fill="none" stroke-width="7.9701" stroke-linecap="butt" stroke-linejoin="miter" stroke="rgb(0%, 0%, 0%)" stroke-opacity="1" stroke-miterlimit="10" d="M 809.999988 556.484367 L 809.999988 530.390617 " transform="matrix(0.2, 0, 0, -0.2, 0, 360)"/>
<path fill="none" stroke-width="7.9701" stroke-linecap="butt" stroke-linejoin="miter" stroke="rgb(0%, 0%, 0%)" stroke-opacity="1" stroke-miterlimit="10" d="M 809.999988 530.390617 L 809.999988 504.296867 " transform="matrix(0.2, 0, 0, -0.2, 0, 360)"/>
<path fill="none" stroke-width="7.9701" stroke-linecap="butt" stroke-linejoin="miter" stroke="rgb(0%, 0%, 0%)" stroke-opacity="1" stroke-miterlimit="10" d="M 809.999988 452.109368 L 809.999988 425.976556 " transform="matrix(0.2, 0, 0, -0.2, 0, 360)"/>
<path fill="none" stroke-width="7.9701" stroke-linecap="butt" stroke-linejoin="miter" stroke="rgb(0%, 0%, 0%)" stroke-opacity="1" stroke-miterlimit="10" d="M 809.999988 425.976556 L 809.999988 399.882807 " transform="matrix(0.2, 0, 0, -0.2, 0, 360)"/>
<path fill="none" stroke-width="7.9701" stroke-linecap="butt" stroke-linejoin="miter" stroke="rgb(0%, 0%, 0%)" stroke-opacity="1" stroke-miterlimit="10" d="M 809.999988 347.695307 L 809.999988 321.601558 " transform="matrix(0.2, 0, 0, -0.2, 0, 360)"/>
<path fill="none" stroke-width="7.9701" stroke-linecap="butt" stroke-linejoin="miter" stroke="rgb(0%, 0%, 0%)" stroke-opacity="1" stroke-miterlimit="10" d="M 989.999985 916.562486 L 989.999985 886.835924 " transform="matrix(0.2, 0, 0, -0.2, 0, 360)"/>
<path fill="none" stroke-width="7.9701" stroke-linecap="butt" stroke-linejoin="miter" stroke="rgb(0%, 0%, 0%)" stroke-opacity="1" stroke-miterlimit="10" d="M 989.999985 827.343738 L 989.999985 797.578113 " transform="matrix(0.2, 0, 0, -0.2, 0, 360)"/>
<path fill="none" stroke-width="7.9701" stroke-linecap="butt" stroke-linejoin="miter" stroke="rgb(0%, 0%, 0%)" stroke-opacity="1" stroke-miterlimit="10" d="M 989.999985 797.578113 L 989.999985 767.851551 " transform="matrix(0.2, 0, 0, -0.2, 0, 360)"/>
<path fill="none" stroke-width="7.9701" stroke-linecap="butt" stroke-linejoin="miter" stroke="rgb(0%, 0%, 0%)" stroke-opacity="1" stroke-miterlimit="10" d="M 989.999985 708.320302 L 989.999985 678.59374 " transform="matrix(0.2, 0, 0, -0.2, 0, 360)"/>
<path fill="none" stroke-width="7.9701" stroke-linecap="butt" stroke-linejoin="miter" stroke="rgb(0%, 0%, 0%)" stroke-opacity="1" stroke-miterlimit="10" d="M 989.999985 678.59374 L 989.999985 648.828115 " transform="matrix(0.2, 0, 0, -0.2, 0, 360)"/>
<path fill="none" stroke-width="7.9701" stroke-linecap="butt" stroke-linejoin="miter" stroke="rgb(0%, 0%, 0%)" stroke-opacity="1" stroke-miterlimit="10" d="M 989.999985 589.335929 L 989.999985 559.609367 " transform="matrix(0.2, 0, 0, -0.2, 0, 360)"/>
<path fill="none" stroke-width="7.9701" stroke-linecap="butt" stroke-linejoin="miter" stroke="rgb(0%, 0%, 0%)" stroke-opacity="1" stroke-miterlimit="10" d="M 989.999985 559.609367 L 989.999985 529.843742 " transform="matrix(0.2, 0, 0, -0.2, 0, 360)"/>
<path fill="none" stroke-width="7.9701" stroke-linecap="butt" stroke-linejoin="miter" stroke="rgb(0%, 0%, 0%)" stroke-opacity="1" stroke-miterlimit="10" d="M 989.999985 470.351555 L 989.999985 440.585931 " transform="matrix(0.2, 0, 0, -0.2, 0, 360)"/>
<path fill="none" stroke-width="7.9701" stroke-linecap="butt" stroke-linejoin="miter" stroke="rgb(0%, 0%, 0%)" stroke-opacity="1" stroke-miterlimit="10" d="M 989.999985 440.585931 L 989.999985 410.859369 " transform="matrix(0.2, 0, 0, -0.2, 0, 360)"/>
<path fill="none" stroke-width="7.9701" stroke-linecap="butt" stroke-linejoin="miter" stroke="rgb(0%, 0%, 0%)" stroke-opacity="1" stroke-miterlimit="10" d="M 989.999985 351.367182 L 989.999985 321.601558 " transform="matrix(0.2, 0, 0, -0.2, 0, 360)"/>
<path fill="none" stroke-width="7.9701" stroke-linecap="butt" stroke-linejoin="miter" stroke="rgb(0%, 0%, 0%)" stroke-opacity="1" stroke-miterlimit="10" d="M 1710.039037 1450.546853 L 1710.039037 1422.304666 " transform="matrix(0.2, 0, 0, -0.2, 0, 360)"/>
<path fill="none" stroke-width="7.9701" stroke-linecap="butt" stroke-linejoin="miter" stroke="rgb(0%, 0%, 0%)" stroke-opacity="1" stroke-miterlimit="10" d="M 1710.039037 1365.859355 L 1710.039037 1337.65623 " transform="matrix(0.2, 0, 0, -0.2, 0, 360)"/>
<path fill="none" stroke-width="7.9701" stroke-linecap="butt" stroke-linejoin="miter" stroke="rgb(0%, 0%, 0%)" stroke-opacity="1" stroke-miterlimit="10" d="M 1710.039037 1337.65623 L 1710.039037 1309.414043 " transform="matrix(0.2, 0, 0, -0.2, 0, 360)"/>
<path fill="none" stroke-width="7.9701" stroke-linecap="butt" stroke-linejoin="miter" stroke="rgb(0%, 0%, 0%)" stroke-opacity="1" stroke-miterlimit="10" d="M 1710.039037 1252.968731 L 1710.039037 1224.765607 " transform="matrix(0.2, 0, 0, -0.2, 0, 360)"/>
<path fill="none" stroke-width="7.9701" stroke-linecap="butt" stroke-linejoin="miter" stroke="rgb(0%, 0%, 0%)" stroke-opacity="1" stroke-miterlimit="10" d="M 1710.039037 1224.765607 L 1710.039037 1196.52342 " transform="matrix(0.2, 0, 0, -0.2, 0, 360)"/>
<path fill="none" stroke-width="7.9701" stroke-linecap="butt" stroke-linejoin="miter" stroke="rgb(0%, 0%, 0%)" stroke-opacity="1" stroke-miterlimit="10" d="M 1710.039037 1140.078108 L 1710.039037 1111.874983 " transform="matrix(0.2, 0, 0, -0.2, 0, 360)"/>
<path fill="none" stroke-width="7.9701" stroke-linecap="butt" stroke-linejoin="miter" stroke="rgb(0%, 0%, 0%)" stroke-opacity="1" stroke-miterlimit="10" d="M 1710.039037 1111.874983 L 1710.039037 1083.632796 " transform="matrix(0.2, 0, 0, -0.2, 0, 360)"/>
<path fill="none" stroke-width="7.9701" stroke-linecap="butt" stroke-linejoin="miter" stroke="rgb(0%, 0%, 0%)" stroke-opacity="1" stroke-miterlimit="10" d="M 1710.039037 1027.187485 L 1710.039037 998.945298 " transform="matrix(0.2, 0, 0, -0.2, 0, 360)"/>
<path fill="none" stroke-width="7.9701" stroke-linecap="butt" stroke-linejoin="miter" stroke="rgb(0%, 0%, 0%)" stroke-opacity="1" stroke-miterlimit="10" d="M 1710.039037 998.945298 L 1710.039037 970.742173 " transform="matrix(0.2, 0, 0, -0.2, 0, 360)"/>
<path fill="none" stroke-width="7.9701" stroke-linecap="butt" stroke-linejoin="miter" stroke="rgb(0%, 0%, 0%)" stroke-opacity="1" stroke-miterlimit="10" d="M 1710.039037 914.296861 L 1710.039037 886.054674 " transform="matrix(0.2, 0, 0, -0.2, 0, 360)"/>
<path fill="none" stroke-width="7.9701" stroke-linecap="butt" stroke-linejoin="miter" stroke="rgb(0%, 0%, 0%)" stroke-opacity="1" stroke-miterlimit="10" d="M 1710.039037 886.054674 L 1710.039037 857.85155 " transform="matrix(0.2, 0, 0, -0.2, 0, 360)"/>
<path fill="none" stroke-width="7.9701" stroke-linecap="butt" stroke-linejoin="miter" stroke="rgb(0%, 0%, 0%)" stroke-opacity="1" stroke-miterlimit="10" d="M 1710.039037 801.406238 L 1710.039037 773.164051 " transform="matrix(0.2, 0, 0, -0.2, 0, 360)"/>
<path fill="none" stroke-width="7.9701" stroke-linecap="butt" stroke-linejoin="miter" stroke="rgb(0%, 0%, 0%)" stroke-opacity="1" stroke-miterlimit="10" d="M 1710.039037 773.164051 L 1710.039037 744.960926 " transform="matrix(0.2, 0, 0, -0.2, 0, 360)"/>
<path fill="none" stroke-width="7.9701" stroke-linecap="butt" stroke-linejoin="miter" stroke="rgb(0%, 0%, 0%)" stroke-opacity="1" stroke-miterlimit="10" d="M 1710.039037 688.515615 L 1710.039037 660.273428 " transform="matrix(0.2, 0, 0, -0.2, 0, 360)"/>
<path fill="none" stroke-width="7.9701" stroke-linecap="butt" stroke-linejoin="miter" stroke="rgb(0%, 0%, 0%)" stroke-opacity="1" stroke-miterlimit="10" d="M 1710.039037 660.273428 L 1710.039037 632.070303 " transform="matrix(0.2, 0, 0, -0.2, 0, 360)"/>
<path fill="none" stroke-width="7.9701" stroke-linecap="butt" stroke-linejoin="miter" stroke="rgb(0%, 0%, 0%)" stroke-opacity="1" stroke-miterlimit="10" d="M 1710.039037 575.585929 L 1710.039037 547.382804 " transform="matrix(0.2, 0, 0, -0.2, 0, 360)"/>
<path fill="none" stroke-width="7.9701" stroke-linecap="butt" stroke-linejoin="miter" stroke="rgb(0%, 0%, 0%)" stroke-opacity="1" stroke-miterlimit="10" d="M 1710.039037 547.382804 L 1710.039037 519.140617 " transform="matrix(0.2, 0, 0, -0.2, 0, 360)"/>
<path fill="none" stroke-width="7.9701" stroke-linecap="butt" stroke-linejoin="miter" stroke="rgb(0%, 0%, 0%)" stroke-opacity="1" stroke-miterlimit="10" d="M 1710.039037 462.734368 L 1710.039037 434.492181 " transform="matrix(0.2, 0, 0, -0.2, 0, 360)"/>
<path fill="none" stroke-width="7.9701" stroke-linecap="butt" stroke-linejoin="miter" stroke="rgb(0%, 0%, 0%)" stroke-opacity="1" stroke-miterlimit="10" d="M 1710.039037 434.492181 L 1710.039037 406.289056 " transform="matrix(0.2, 0, 0, -0.2, 0, 360)"/>
<path fill="none" stroke-width="7.9701" stroke-linecap="butt" stroke-linejoin="miter" stroke="rgb(0%, 0%, 0%)" stroke-opacity="1" stroke-miterlimit="10" d="M 1710.039037 349.804682 L 1710.039037 321.601558 " transform="matrix(0.2, 0, 0, -0.2, 0, 360)"/>
<path fill="none" stroke-width="7.9701" stroke-linecap="butt" stroke-linejoin="miter" stroke="rgb(0%, 0%, 0%)" stroke-opacity="1" stroke-miterlimit="10" d="M 1890.039034 1713.632787 L 1890.039034 1684.648412 " transform="matrix(0.2, 0, 0, -0.2, 0, 360)"/>
<path fill="none" stroke-width="7.9701" stroke-linecap="butt" stroke-linejoin="miter" stroke="rgb(0%, 0%, 0%)" stroke-opacity="1" stroke-miterlimit="10" d="M 1890.039034 1626.640601 L 1890.039034 1597.617164 " transform="matrix(0.2, 0, 0, -0.2, 0, 360)"/>
<path fill="none" stroke-width="7.9701" stroke-linecap="butt" stroke-linejoin="miter" stroke="rgb(0%, 0%, 0%)" stroke-opacity="1" stroke-miterlimit="10" d="M 1890.039034 1597.617164 L 1890.039034 1568.632789 " transform="matrix(0.2, 0, 0, -0.2, 0, 360)"/>
<path fill="none" stroke-width="7.9701" stroke-linecap="butt" stroke-linejoin="miter" stroke="rgb(0%, 0%, 0%)" stroke-opacity="1" stroke-miterlimit="10" d="M 1890.039034 1510.624977 L 1890.039034 1481.60154 " transform="matrix(0.2, 0, 0, -0.2, 0, 360)"/>
<path fill="none" stroke-width="7.9701" stroke-linecap="butt" stroke-linejoin="miter" stroke="rgb(0%, 0%, 0%)" stroke-opacity="1" stroke-miterlimit="10" d="M 1890.039034 1481.60154 L 1890.039034 1452.617166 " transform="matrix(0.2, 0, 0, -0.2, 0, 360)"/>
<path fill="none" stroke-width="7.9701" stroke-linecap="butt" stroke-linejoin="miter" stroke="rgb(0%, 0%, 0%)" stroke-opacity="1" stroke-miterlimit="10" d="M 1890.039034 1394.648417 L 1890.039034 1365.62498 " transform="matrix(0.2, 0, 0, -0.2, 0, 360)"/>
<path fill="none" stroke-width="7.9701" stroke-linecap="butt" stroke-linejoin="miter" stroke="rgb(0%, 0%, 0%)" stroke-opacity="1" stroke-miterlimit="10" d="M 1890.039034 1365.62498 L 1890.039034 1336.601543 " transform="matrix(0.2, 0, 0, -0.2, 0, 360)"/>
<path fill="none" stroke-width="7.9701" stroke-linecap="butt" stroke-linejoin="miter" stroke="rgb(0%, 0%, 0%)" stroke-opacity="1" stroke-miterlimit="10" d="M 1890.039034 1278.632793 L 1890.039034 1249.609356 " transform="matrix(0.2, 0, 0, -0.2, 0, 360)"/>
<path fill="none" stroke-width="7.9701" stroke-linecap="butt" stroke-linejoin="miter" stroke="rgb(0%, 0%, 0%)" stroke-opacity="1" stroke-miterlimit="10" d="M 1890.039034 1249.609356 L 1890.039034 1220.624982 " transform="matrix(0.2, 0, 0, -0.2, 0, 360)"/>
<path fill="none" stroke-width="7.9701" stroke-linecap="butt" stroke-linejoin="miter" stroke="rgb(0%, 0%, 0%)" stroke-opacity="1" stroke-miterlimit="10" d="M 1890.039034 1162.61717 L 1890.039034 1133.632796 " transform="matrix(0.2, 0, 0, -0.2, 0, 360)"/>
<path fill="none" stroke-width="7.9701" stroke-linecap="butt" stroke-linejoin="miter" stroke="rgb(0%, 0%, 0%)" stroke-opacity="1" stroke-miterlimit="10" d="M 1890.039034 1133.632796 L 1890.039034 1104.609359 " transform="matrix(0.2, 0, 0, -0.2, 0, 360)"/>
<path fill="none" stroke-width="7.9701" stroke-linecap="butt" stroke-linejoin="miter" stroke="rgb(0%, 0%, 0%)" stroke-opacity="1" stroke-miterlimit="10" d="M 1890.039034 1046.601547 L 1890.039034 1017.617172 " transform="matrix(0.2, 0, 0, -0.2, 0, 360)"/>
<path fill="none" stroke-width="7.9701" stroke-linecap="butt" stroke-linejoin="miter" stroke="rgb(0%, 0%, 0%)" stroke-opacity="1" stroke-miterlimit="10" d="M 1890.039034 1017.617172 L 1890.039034 988.593735 " transform="matrix(0.2, 0, 0, -0.2, 0, 360)"/>
<path fill="none" stroke-width="7.9701" stroke-linecap="butt" stroke-linejoin="miter" stroke="rgb(0%, 0%, 0%)" stroke-opacity="1" stroke-miterlimit="10" d="M 1890.039034 930.624986 L 1890.039034 901.601549 " transform="matrix(0.2, 0, 0, -0.2, 0, 360)"/>
<path fill="none" stroke-width="7.9701" stroke-linecap="butt" stroke-linejoin="miter" stroke="rgb(0%, 0%, 0%)" stroke-opacity="1" stroke-miterlimit="10" d="M 1890.039034 901.601549 L 1890.039034 872.617174 " transform="matrix(0.2, 0, 0, -0.2, 0, 360)"/>
<path fill="none" stroke-width="7.9701" stroke-linecap="butt" stroke-linejoin="miter" stroke="rgb(0%, 0%, 0%)" stroke-opacity="1" stroke-miterlimit="10" d="M 1890.039034 814.609363 L 1890.039034 785.624988 " transform="matrix(0.2, 0, 0, -0.2, 0, 360)"/>
<path fill="none" stroke-width="7.9701" stroke-linecap="butt" stroke-linejoin="miter" stroke="rgb(0%, 0%, 0%)" stroke-opacity="1" stroke-miterlimit="10" d="M 1890.039034 785.624988 L 1890.039034 756.601551 " transform="matrix(0.2, 0, 0, -0.2, 0, 360)"/>
<path fill="none" stroke-width="7.9701" stroke-linecap="butt" stroke-linejoin="miter" stroke="rgb(0%, 0%, 0%)" stroke-opacity="1" stroke-miterlimit="10" d="M 1890.039034 698.59374 L 1890.039034 669.609365 " transform="matrix(0.2, 0, 0, -0.2, 0, 360)"/>
<path fill="none" stroke-width="7.9701" stroke-linecap="butt" stroke-linejoin="miter" stroke="rgb(0%, 0%, 0%)" stroke-opacity="1" stroke-miterlimit="10" d="M 1890.039034 669.609365 L 1890.039034 640.585928 " transform="matrix(0.2, 0, 0, -0.2, 0, 360)"/>
<path fill="none" stroke-width="7.9701" stroke-linecap="butt" stroke-linejoin="miter" stroke="rgb(0%, 0%, 0%)" stroke-opacity="1" stroke-miterlimit="10" d="M 1890.039034 582.617179 L 1890.039034 553.593742 " transform="matrix(0.2, 0, 0, -0.2, 0, 360)"/>
<path fill="none" stroke-width="7.9701" stroke-linecap="butt" stroke-linejoin="miter" stroke="rgb(0%, 0%, 0%)" stroke-opacity="1" stroke-miterlimit="10" d="M 1890.039034 553.593742 L 1890.039034 524.609367 " transform="matrix(0.2, 0, 0, -0.2, 0, 360)"/>
<path fill="none" stroke-width="7.9701" stroke-linecap="butt" stroke-linejoin="miter" stroke="rgb(0%, 0%, 0%)" stroke-opacity="1" stroke-miterlimit="10" d="M 1890.039034 466.601556 L 1890.039034 437.617181 " transform="matrix(0.2, 0, 0, -0.2, 0, 360)"/>
<path fill="none" stroke-width="7.9701" stroke-linecap="butt" stroke-linejoin="miter" stroke="rgb(0%, 0%, 0%)" stroke-opacity="1" stroke-miterlimit="10" d="M 1890.039034 437.617181 L 1890.039034 408.593744 " transform="matrix(0.2, 0, 0, -0.2, 0, 360)"/>
<path fill="none" stroke-width="7.9701" stroke-linecap="butt" stroke-linejoin="miter" stroke="rgb(0%, 0%, 0%)" stroke-opacity="1" stroke-miterlimit="10" d="M 1890.039034 350.585932 L 1890.039034 321.601558 " transform="matrix(0.2, 0, 0, -0.2, 0, 360)"/>
<path fill-rule="nonzero" fill="rgb(100%, 100%, 100%)" fill-opacity="1" d="M 6.695312 295.703125 L 35.976562 295.703125 L 35.976562 322.585938 L 6.695312 322.585938 Z M 6.695312 295.703125 "/>
<path fill-rule="nonzero" fill="rgb(0%, 0%, 0%)" fill-opacity="1" d="M 28.875 307.058594 C 28.875 303.527344 26.5625 301.183594 23.3125 301.183594 C 18.59375 301.183594 13.78125 306.121094 13.78125 311.214844 C 13.78125 314.839844 16.21875 317.027344 19.375 317.027344 C 24 317.027344 28.875 312.246094 28.875 307.058594 Z M 19.5 316.464844 C 17.34375 316.464844 15.8125 314.714844 15.8125 311.839844 C 15.8125 310.871094 16.125 307.683594 17.8125 305.121094 C 19.3125 302.871094 21.4375 301.714844 23.15625 301.714844 C 24.96875 301.714844 26.90625 302.933594 26.90625 306.183594 C 26.90625 307.777344 26.34375 311.183594 24.15625 313.839844 C 23.125 315.183594 21.34375 316.464844 19.5 316.464844 Z M 19.5 316.464844 "/>
<path fill-rule="nonzero" fill="rgb(100%, 100%, 100%)" fill-opacity="1" d="M 376.15625 295.703125 L 408.078125 295.703125 L 408.078125 322.585938 L 376.15625 322.585938 Z M 376.15625 295.703125 "/>
<path fill-rule="nonzero" fill="rgb(0%, 0%, 0%)" fill-opacity="1" d="M 392.777344 307.589844 L 390.933594 303.246094 C 390.871094 303.089844 390.808594 302.996094 390.808594 302.964844 C 390.808594 302.839844 391.183594 302.433594 392.121094 302.339844 C 392.339844 302.308594 392.558594 302.308594 392.558594 301.933594 C 392.558594 301.652344 392.277344 301.652344 392.214844 301.652344 C 391.308594 301.652344 390.371094 301.714844 389.464844 301.714844 C 388.933594 301.714844 387.558594 301.652344 387.027344 301.652344 C 386.902344 301.652344 386.621094 301.652344 386.621094 302.089844 C 386.621094 302.339844 386.839844 302.339844 387.121094 302.339844 C 388.433594 302.339844 388.589844 302.558594 388.777344 303.027344 L 391.339844 309.121094 L 386.746094 314.058594 L 386.464844 314.308594 C 385.402344 315.464844 384.371094 315.808594 383.246094 315.871094 C 382.964844 315.902344 382.777344 315.902344 382.777344 316.308594 C 382.777344 316.339844 382.777344 316.558594 383.058594 316.558594 C 383.714844 316.558594 384.433594 316.496094 385.121094 316.496094 C 385.902344 316.496094 386.777344 316.558594 387.558594 316.558594 C 387.683594 316.558594 387.933594 316.558594 387.933594 316.121094 C 387.933594 315.902344 387.714844 315.871094 387.683594 315.871094 C 387.496094 315.871094 386.808594 315.808594 386.808594 315.214844 C 386.808594 314.871094 387.121094 314.496094 387.402344 314.214844 L 389.621094 311.871094 L 391.589844 309.746094 L 393.777344 314.933594 C 393.871094 315.183594 393.902344 315.214844 393.902344 315.246094 C 393.902344 315.433594 393.496094 315.808594 392.621094 315.871094 C 392.402344 315.902344 392.183594 315.933594 392.183594 316.308594 C 392.183594 316.558594 392.433594 316.558594 392.527344 316.558594 C 393.121094 316.558594 394.652344 316.496094 395.277344 316.496094 C 395.808594 316.496094 397.152344 316.558594 397.683594 316.558594 C 397.839844 316.558594 398.121094 316.558594 398.121094 316.152344 C 398.121094 315.871094 397.902344 315.871094 397.714844 315.871094 C 396.246094 315.871094 396.214844 315.808594 395.839844 314.933594 C 394.996094 312.902344 393.527344 309.496094 393.027344 308.183594 C 394.496094 306.652344 396.808594 304.058594 397.496094 303.464844 C 398.121094 302.933594 398.964844 302.402344 400.277344 302.339844 C 400.558594 302.308594 400.746094 302.308594 400.746094 301.902344 C 400.746094 301.871094 400.746094 301.652344 400.464844 301.652344 C 399.808594 301.652344 399.089844 301.714844 398.402344 301.714844 C 397.589844 301.714844 396.777344 301.652344 395.996094 301.652344 C 395.871094 301.652344 395.589844 301.652344 395.589844 302.089844 C 395.589844 302.246094 395.683594 302.308594 395.839844 302.339844 C 396.027344 302.371094 396.714844 302.402344 396.714844 303.027344 C 396.714844 303.308594 396.464844 303.589844 396.308594 303.808594 Z M 392.777344 307.589844 "/>
<path fill-rule="nonzero" fill="rgb(100%, 100%, 100%)" fill-opacity="1" d="M 6.453125 -1.757812 L 35.976562 -1.757812 L 35.976562 25.125 L 6.453125 25.125 Z M 6.453125 -1.757812 "/>
<path fill-rule="nonzero" fill="rgb(0%, 0%, 0%)" fill-opacity="1" d="M 25.511719 6.695312 L 25.792969 6.382812 C 26.449219 5.726562 27.167969 4.976562 28.667969 4.882812 C 28.917969 4.851562 29.105469 4.851562 29.105469 4.476562 C 29.105469 4.289062 28.980469 4.195312 28.824219 4.195312 C 28.261719 4.195312 27.605469 4.257812 27.042969 4.257812 C 26.324219 4.257812 25.542969 4.195312 24.855469 4.195312 C 24.730469 4.195312 24.449219 4.195312 24.449219 4.632812 C 24.449219 4.851562 24.636719 4.882812 24.761719 4.882812 C 24.917969 4.882812 25.542969 4.914062 25.542969 5.382812 C 25.542969 5.757812 25.042969 6.320312 24.949219 6.414062 L 19.886719 12.257812 L 17.511719 5.789062 C 17.355469 5.476562 17.355469 5.414062 17.355469 5.414062 C 17.355469 4.882812 18.449219 4.882812 18.667969 4.882812 C 18.949219 4.882812 19.167969 4.882812 19.167969 4.445312 C 19.167969 4.195312 18.917969 4.195312 18.855469 4.195312 C 18.230469 4.195312 16.699219 4.257812 16.105469 4.257812 C 15.542969 4.257812 14.199219 4.195312 13.667969 4.195312 C 13.542969 4.195312 13.230469 4.195312 13.230469 4.632812 C 13.230469 4.882812 13.449219 4.882812 13.730469 4.882812 C 15.042969 4.882812 15.136719 5.070312 15.324219 5.632812 L 18.011719 12.789062 C 18.042969 12.851562 18.105469 13.101562 18.105469 13.164062 C 18.105469 13.226562 17.230469 16.757812 17.136719 17.132812 C 16.855469 18.351562 16.824219 18.414062 15.074219 18.414062 C 14.667969 18.414062 14.480469 18.414062 14.480469 18.851562 C 14.480469 19.101562 14.761719 19.101562 14.792969 19.101562 C 15.417969 19.101562 16.917969 19.039062 17.542969 19.039062 C 18.136719 19.039062 19.730469 19.101562 20.324219 19.101562 C 20.480469 19.101562 20.761719 19.101562 20.761719 18.664062 C 20.761719 18.414062 20.542969 18.414062 20.136719 18.414062 C 20.105469 18.414062 19.667969 18.414062 19.292969 18.382812 C 18.855469 18.351562 18.730469 18.289062 18.730469 18.039062 C 18.730469 17.882812 18.917969 17.101562 19.011719 16.664062 L 19.792969 13.570312 C 19.886719 13.164062 19.917969 13.101562 20.105469 12.914062 Z M 25.511719 6.695312 "/>
<path fill="none" stroke-width="11.9553" stroke-linecap="butt" stroke-linejoin="miter" stroke="rgb(0%, 0%, 0%)" stroke-opacity="1" stroke-miterlimit="10" d="M 0 321.601558 L 1980.039033 321.601558 " transform="matrix(0.2, 0, 0, -0.2, 0, 360)"/>
<path fill="none" stroke-width="11.9553" stroke-linecap="butt" stroke-linejoin="miter" stroke="rgb(0%, 0%, 0%)" stroke-opacity="1" stroke-miterlimit="10" d="M 179.999997 177.617185 L 179.999997 1761.601536 " transform="matrix(0.2, 0, 0, -0.2, 0, 360)"/>
<path fill-rule="nonzero" fill="rgb(0%, 0%, 0%)" fill-opacity="1" d="M 171.601562 352.300781 C 172.789062 351.894531 174.789062 351.300781 174.789062 349.363281 C 174.789062 347.050781 172.070312 345.988281 170.101562 345.988281 C 169.164062 345.988281 168.195312 346.207031 167.351562 346.707031 C 167.226562 346.769531 167.070312 346.957031 166.914062 346.957031 C 166.601562 346.957031 166.039062 345.988281 165.726562 345.988281 C 165.539062 345.988281 165.507812 346.207031 165.507812 346.300781 L 165.507812 349.863281 C 165.507812 349.988281 165.601562 350.144531 165.789062 350.144531 C 166.101562 350.144531 166.070312 349.519531 166.164062 349.175781 C 166.632812 347.457031 168.195312 346.707031 169.695312 346.613281 L 170.101562 346.613281 C 171.445312 346.613281 173.007812 347.488281 173.007812 349.363281 C 173.007812 351.175781 171.226562 352.113281 169.570312 352.113281 C 169.257812 352.113281 168.945312 352.113281 168.632812 352.113281 L 168.476562 352.113281 C 168.289062 352.113281 168.070312 352.113281 168.070312 352.332031 L 168.070312 352.363281 C 168.101562 352.550781 168.289062 352.582031 168.476562 352.582031 L 170.320312 352.582031 C 171.882812 352.707031 173.320312 353.738281 173.476562 355.363281 L 173.476562 355.582031 C 173.476562 357.425781 171.757812 358.582031 170.007812 358.582031 C 168.101562 358.582031 166.132812 357.957031 165.820312 355.582031 C 165.820312 355.425781 165.757812 355.238281 165.539062 355.238281 C 165.320312 355.269531 165.289062 355.425781 165.289062 355.582031 C 165.289062 358.175781 167.882812 359.207031 170.132812 359.207031 C 172.195312 359.207031 175.070312 358.238281 175.320312 355.769531 L 175.320312 355.644531 C 175.320312 353.675781 173.257812 352.707031 171.601562 352.300781 Z M 171.601562 352.300781 "/>
<path fill-rule="nonzero" fill="rgb(0%, 0%, 0%)" fill-opacity="1" d="M 183.695312 345.988281 C 180.320312 346.394531 177.632812 349.050781 177.632812 352.644531 C 177.632812 355.925781 180.226562 359.175781 184.101562 359.175781 C 187.601562 359.175781 190.570312 356.269531 190.570312 352.644531 C 190.570312 349.457031 188.070312 345.988281 184.132812 345.988281 C 184.007812 345.988281 183.851562 345.988281 183.695312 345.988281 Z M 179.507812 352.863281 L 179.507812 352.519531 C 179.507812 350.019531 180.414062 347.082031 183.570312 346.550781 C 183.757812 346.519531 183.914062 346.519531 184.101562 346.519531 C 186.914062 346.519531 188.664062 349.238281 188.664062 352.269531 C 188.664062 354.675781 187.945312 357.738281 184.976562 358.519531 C 184.695312 358.582031 184.414062 358.613281 184.132812 358.613281 L 183.945312 358.613281 C 181.351562 358.519531 179.945312 356.050781 179.601562 353.644531 Z M 179.507812 352.863281 "/>
<path fill-rule="nonzero" fill="rgb(0%, 0%, 0%)" fill-opacity="1" d="M 193.027344 346.332031 L 193.027344 346.925781 L 193.464844 346.925781 C 194.058594 346.925781 194.683594 347.019531 194.683594 347.894531 L 194.683594 357.363281 C 194.683594 358.207031 193.964844 358.238281 193.308594 358.238281 L 193.027344 358.238281 L 193.027344 358.832031 L 198.808594 358.832031 C 199.214844 358.832031 199.589844 358.863281 199.996094 358.863281 C 201.996094 358.863281 204.339844 357.925781 204.558594 355.519531 L 204.558594 355.332031 C 204.558594 352.800781 201.683594 351.769531 199.777344 351.769531 C 198.527344 351.769531 197.339844 351.894531 196.152344 351.988281 L 196.152344 347.769531 C 196.152344 347.332031 196.214844 346.925781 196.996094 346.925781 L 199.308594 346.925781 C 200.277344 346.925781 201.371094 346.988281 202.089844 347.707031 C 202.777344 348.425781 202.871094 349.644531 202.964844 350.582031 L 203.496094 350.582031 L 203.027344 346.332031 Z M 196.152344 352.613281 C 196.402344 352.613281 196.652344 352.550781 196.902344 352.519531 L 198.277344 352.457031 C 198.558594 352.425781 198.839844 352.394531 199.152344 352.394531 C 200.714844 352.394531 202.683594 353.394531 202.683594 355.238281 C 202.683594 356.988281 201.339844 358.269531 199.339844 358.269531 C 199.058594 358.269531 198.746094 358.238281 198.496094 358.238281 L 196.964844 358.238281 C 196.496094 358.238281 196.246094 358.207031 196.152344 357.582031 Z M 196.152344 352.613281 "/>
<path fill-rule="nonzero" fill="rgb(0%, 0%, 0%)" fill-opacity="1" d="M 206.90625 346.332031 L 206.90625 346.925781 L 207.375 346.925781 C 207.96875 346.925781 208.5625 347.019531 208.5625 347.894531 L 208.5625 357.363281 C 208.5625 358.207031 207.875 358.238281 207.1875 358.238281 L 206.90625 358.238281 L 206.90625 358.832031 L 211.8125 358.832031 L 211.8125 358.238281 L 211.375 358.238281 C 210.75 358.238281 210.15625 358.175781 210.15625 357.300781 L 210.15625 353.113281 L 213.875 353.113281 C 215.65625 352.988281 217.9375 351.800781 217.9375 349.769531 C 217.9375 347.550781 215.59375 346.488281 213.6875 346.332031 Z M 210.125 352.582031 L 210.125 347.582031 C 210.21875 346.988281 210.46875 346.925781 210.875 346.925781 L 212.3125 346.925781 C 213.9375 346.925781 216.0625 346.988281 216.0625 349.769531 C 216.0625 350.425781 215.96875 351.113281 215.5625 351.613281 C 214.90625 352.394531 213.8125 352.582031 212.84375 352.582031 Z M 210.125 352.582031 "/>
<path fill-rule="nonzero" fill="rgb(0%, 0%, 0%)" fill-opacity="1" d="M 222.636719 356.550781 C 222.136719 356.644531 221.636719 357.082031 221.636719 357.675781 C 221.636719 358.300781 222.167969 358.832031 222.792969 358.832031 C 223.417969 358.832031 223.980469 358.363281 223.980469 357.707031 C 223.980469 357.082031 223.449219 356.519531 222.824219 356.519531 C 222.761719 356.519531 222.699219 356.550781 222.636719 356.550781 Z M 222.636719 356.550781 "/>
<path fill-rule="nonzero" fill="rgb(0%, 0%, 0%)" fill-opacity="1" d="M 237.816406 344.457031 L 237.816406 345.175781 C 238.910156 345.175781 239.941406 344.988281 240.972656 344.519531 L 240.972656 357.082031 C 240.972656 358.019531 240.066406 358.175781 239.097656 358.175781 C 238.691406 358.175781 238.285156 358.144531 237.941406 358.144531 L 237.941406 358.832031 L 245.660156 358.832031 L 245.660156 358.144531 C 245.285156 358.144531 244.847656 358.175781 244.441406 358.175781 C 243.503906 358.175781 242.628906 358.019531 242.628906 357.113281 L 242.628906 343.300781 C 242.628906 343.144531 242.597656 342.957031 242.347656 342.957031 C 242.035156 342.957031 241.691406 343.394531 241.378906 343.582031 C 240.316406 344.269531 239.035156 344.457031 237.816406 344.457031 Z M 237.816406 344.457031 "/>
<path fill-rule="nonzero" fill="rgb(0%, 0%, 0%)" fill-opacity="1" d="M 250.308594 342.675781 L 249.589844 347.457031 L 250.121094 347.457031 C 250.214844 346.738281 250.308594 345.613281 250.714844 345.300781 C 250.839844 345.175781 251.121094 345.207031 251.277344 345.175781 L 251.964844 345.175781 C 252.527344 345.175781 253.121094 345.144531 253.683594 345.144531 L 258.464844 345.144531 C 257.964844 345.738281 257.558594 346.394531 257.089844 347.019531 C 256.433594 347.925781 255.714844 348.863281 255.089844 349.863281 C 253.589844 352.332031 252.621094 355.269531 252.621094 358.207031 L 252.621094 358.457031 C 252.683594 358.957031 253.121094 359.332031 253.621094 359.332031 L 253.683594 359.332031 C 254.496094 359.332031 254.621094 358.613281 254.621094 358.082031 L 254.621094 356.988281 C 254.621094 354.394531 254.839844 351.269531 256.433594 348.988281 C 257.464844 347.457031 258.621094 345.988281 259.714844 344.457031 C 259.871094 344.238281 260.058594 344.050781 260.058594 343.738281 L 260.058594 343.457031 L 254.339844 343.457031 C 254.027344 343.457031 253.621094 343.457031 253.183594 343.457031 C 252.121094 343.457031 250.902344 343.363281 250.839844 342.675781 Z M 250.308594 342.675781 "/>
<path fill-rule="nonzero" fill="rgb(0%, 0%, 0%)" fill-opacity="1" d="M 264.144531 356.550781 C 263.644531 356.644531 263.144531 357.082031 263.144531 357.675781 C 263.144531 358.300781 263.675781 358.832031 264.300781 358.832031 C 264.925781 358.832031 265.488281 358.363281 265.488281 357.707031 C 265.488281 357.082031 264.957031 356.519531 264.332031 356.519531 C 264.269531 356.519531 264.207031 356.550781 264.144531 356.550781 Z M 264.144531 356.550781 "/>
</svg>
