<?xml version="1.0" encoding="UTF-8"?>
<svg xmlns="http://www.w3.org/2000/svg" xmlns:xlink="http://www.w3.org/1999/xlink" width="402" height="374" viewBox="0 0 402 374">
<path fill="none" stroke-width="11.9553" stroke-linecap="butt" stroke-linejoin="miter" stroke="rgb(0%, 0%, 0%)" stroke-opacity="1" stroke-miterlimit="10" d="M 722.343739 429.609369 L 816.91405 453.320306 L 902.656237 476.99218 L 980.312485 500.703118 L 1050.624984 524.414055 L 1114.179671 548.124992 L 1171.52342 571.796866 L 1223.124982 595.507804 L 1269.453106 619.218741 L 1310.898418 642.890615 L 1347.773417 666.601553 L 1380.468729 690.31249 L 1409.218729 714.023427 L 1434.335916 737.695302 L 1456.054666 761.406239 L 1474.570291 785.117176 L 1490.078103 808.78905 L 1502.812478 832.499988 L 1512.929665 856.210925 L 1520.546852 879.921862 L 1525.859352 903.593737 L 1528.984352 927.304674 L 1530.03904 951.015611 L 1529.10154 974.726548 L 1526.367165 998.398423 L 1521.835915 1022.10936 L 1515.66404 1045.781234 L 1507.968728 1069.531234 L 1498.710915 1093.203109 L 1488.085915 1116.914046 L 1476.093728 1140.624983 L 1462.812478 1164.33592 L 1448.320291 1188.007795 L 1432.656229 1211.718732 L 1415.898416 1235.390607 L 1398.046854 1259.101544 L 1379.218729 1282.812481 L 1359.414042 1306.523418 L 1338.671855 1330.195293 L 1317.03123 1353.90623 L 1294.531231 1377.617167 L 1271.289044 1401.289042 L 1247.187481 1425.039041 L 1222.382794 1448.710916 L 1196.83592 1472.421853 L 1170.624983 1496.13279 L 1143.71092 1519.804665 L 1116.171858 1543.515602 L 1088.046859 1567.226539 L 1059.296859 1590.937476 L 1029.960922 1614.609351 L 1000.117173 1638.320288 L 969.726548 1662.031225 L 938.828111 1685.7031 L 907.460924 1709.414037 L 875.585924 1733.124974 L 843.281237 1756.835911 L 810.5078 1780.507786 L 777.304676 1804.218723 L 743.710926 1827.92966 L 709.687489 1851.601535 " transform="matrix(0.2, 0, 0, -0.2, 0, 374)"/>
<path fill="none" stroke-width="11.9553" stroke-linecap="butt" stroke-linejoin="miter" stroke="rgb(0%, 0%, 0%)" stroke-opacity="1" stroke-miterlimit="10" d="M 854.999987 463.554681 L 1034.999985 463.554681 " transform="matrix(0.2, 0, 0, -0.2, 0, 374)"/>
<path fill="none" stroke-width="11.9553" stroke-linecap="butt" stroke-linejoin="miter" stroke="rgb(0%, 0%, 0%)" stroke-opacity="1" stroke-miterlimit="10" d="M 1034.999985 518.945305 L 1034.999985 463.554681 " transform="matrix(0.2, 0, 0, -0.2, 0, 374)"/>
<path fill="none" stroke-width="11.9553" stroke-linecap="butt" stroke-linejoin="miter" stroke="rgb(0%, 0%, 0%)" stroke-opacity="1" stroke-miterlimit="10" d="M 854.999987 1748.242161 L 1034.999985 1748.242161 " transform="matrix(0.2, 0, 0, -0.2, 0, 374)"/>
<path fill="none" stroke-width="11.9553" stroke-linecap="butt" stroke-linejoin="miter" stroke="rgb(0%, 0%, 0%)" stroke-opacity="1" stroke-miterlimit="10" d="M 1034.999985 1610.585914 L 1034.999985 1748.242161 " transform="matrix(0.2, 0, 0, -0.2, 0, 374)"/>
<path fill-rule="nonzero" fill="rgb(0%, 0%, 0%)" fill-opacity="1" d="M 188.25 289.472656 C 188.25 289.472656 188.25 289.253906 187.96875 289.253906 C 187.65625 289.253906 185.5625 289.441406 185.1875 289.472656 C 185.03125 289.503906 184.90625 289.597656 184.90625 289.910156 C 184.90625 290.160156 185.09375 290.160156 185.40625 290.160156 C 186.46875 290.160156 186.5 290.316406 186.5 290.535156 L 186.4375 290.972656 L 185.125 296.128906 C 184.75 295.316406 184.125 294.722656 183.125 294.722656 C 180.5625 294.722656 177.875 297.941406 177.875 301.128906 C 177.875 303.191406 179.0625 304.628906 180.78125 304.628906 C 181.21875 304.628906 182.3125 304.535156 183.59375 302.972656 C 183.78125 303.910156 184.5625 304.628906 185.59375 304.628906 C 186.34375 304.628906 186.84375 304.128906 187.21875 303.410156 C 187.59375 302.628906 187.875 301.316406 187.875 301.253906 C 187.875 301.035156 187.65625 301.035156 187.59375 301.035156 C 187.375 301.035156 187.375 301.128906 187.28125 301.441406 C 186.9375 302.847656 186.53125 304.128906 185.625 304.128906 C 185.0625 304.128906 184.96875 303.566406 184.96875 303.128906 C 184.96875 302.597656 185.03125 302.472656 185.125 302.097656 Z M 183.71875 301.785156 C 183.59375 302.191406 183.59375 302.222656 183.28125 302.597656 C 182.3125 303.785156 181.4375 304.128906 180.8125 304.128906 C 179.71875 304.128906 179.40625 302.941406 179.40625 302.097656 C 179.40625 301.003906 180.125 298.316406 180.625 297.316406 C 181.3125 296.035156 182.28125 295.222656 183.15625 295.222656 C 184.5625 295.222656 184.875 297.003906 184.875 297.128906 C 184.875 297.253906 184.84375 297.410156 184.8125 297.503906 Z M 183.71875 301.785156 "/>
<path fill-rule="nonzero" fill="rgb(0%, 0%, 0%)" fill-opacity="1" d="M 195.5625 297.785156 C 195.6875 297.222656 196.1875 295.222656 197.71875 295.222656 C 197.84375 295.222656 198.34375 295.222656 198.8125 295.503906 C 198.21875 295.597656 197.78125 296.160156 197.78125 296.691406 C 197.78125 297.035156 198 297.441406 198.59375 297.441406 C 199.09375 297.441406 199.78125 297.035156 199.78125 296.191406 C 199.78125 295.035156 198.5 294.722656 197.75 294.722656 C 196.46875 294.722656 195.71875 295.878906 195.46875 296.410156 C 194.90625 294.941406 193.71875 294.722656 193.09375 294.722656 C 190.84375 294.722656 189.59375 297.566406 189.59375 298.097656 C 189.59375 298.316406 189.8125 298.316406 189.84375 298.316406 C 190.03125 298.316406 190.09375 298.285156 190.125 298.066406 C 190.875 295.753906 192.3125 295.222656 193.0625 295.222656 C 193.46875 295.222656 194.25 295.410156 194.25 296.691406 C 194.25 297.347656 193.875 298.816406 193.0625 301.878906 C 192.71875 303.222656 191.9375 304.128906 191 304.128906 C 190.84375 304.128906 190.34375 304.128906 189.90625 303.847656 C 190.4375 303.753906 190.90625 303.285156 190.90625 302.691406 C 190.90625 302.097656 190.4375 301.910156 190.125 301.910156 C 189.46875 301.910156 188.90625 302.472656 188.90625 303.191406 C 188.90625 304.191406 190 304.628906 190.96875 304.628906 C 192.40625 304.628906 193.1875 303.097656 193.25 302.972656 C 193.53125 303.753906 194.3125 304.628906 195.625 304.628906 C 197.84375 304.628906 199.09375 301.816406 199.09375 301.253906 C 199.09375 301.035156 198.90625 301.035156 198.84375 301.035156 C 198.65625 301.035156 198.59375 301.128906 198.5625 301.285156 C 197.84375 303.628906 196.34375 304.128906 195.65625 304.128906 C 194.8125 304.128906 194.46875 303.441406 194.46875 302.691406 C 194.46875 302.222656 194.59375 301.753906 194.8125 300.785156 Z M 195.5625 297.785156 "/>
<path fill-rule="nonzero" fill="rgb(0%, 0%, 0%)" fill-opacity="1" d="M 188.25 1.472656 C 188.25 1.472656 188.25 1.253906 187.96875 1.253906 C 187.65625 1.253906 185.5625 1.441406 185.1875 1.472656 C 185.03125 1.503906 184.90625 1.597656 184.90625 1.910156 C 184.90625 2.160156 185.09375 2.160156 185.40625 2.160156 C 186.46875 2.160156 186.5 2.316406 186.5 2.535156 L 186.4375 2.972656 L 185.125 8.128906 C 184.75 7.316406 184.125 6.722656 183.125 6.722656 C 180.5625 6.722656 177.875 9.941406 177.875 13.128906 C 177.875 15.191406 179.0625 16.628906 180.78125 16.628906 C 181.21875 16.628906 182.3125 16.535156 183.59375 14.972656 C 183.78125 15.910156 184.5625 16.628906 185.59375 16.628906 C 186.34375 16.628906 186.84375 16.128906 187.21875 15.410156 C 187.59375 14.628906 187.875 13.316406 187.875 13.253906 C 187.875 13.035156 187.65625 13.035156 187.59375 13.035156 C 187.375 13.035156 187.375 13.128906 187.28125 13.441406 C 186.9375 14.847656 186.53125 16.128906 185.625 16.128906 C 185.0625 16.128906 184.96875 15.566406 184.96875 15.128906 C 184.96875 14.597656 185.03125 14.472656 185.125 14.097656 Z M 183.71875 13.785156 C 183.59375 14.191406 183.59375 14.222656 183.28125 14.597656 C 182.3125 15.785156 181.4375 16.128906 180.8125 16.128906 C 179.71875 16.128906 179.40625 14.941406 179.40625 14.097656 C 179.40625 13.003906 180.125 10.316406 180.625 9.316406 C 181.3125 8.035156 182.28125 7.222656 183.15625 7.222656 C 184.5625 7.222656 184.875 9.003906 184.875 9.128906 C 184.875 9.253906 184.84375 9.410156 184.8125 9.503906 Z M 183.71875 13.785156 "/>
<path fill-rule="nonzero" fill="rgb(0%, 0%, 0%)" fill-opacity="1" d="M 195.5625 9.785156 C 195.6875 9.222656 196.1875 7.222656 197.71875 7.222656 C 197.84375 7.222656 198.34375 7.222656 198.8125 7.503906 C 198.21875 7.597656 197.78125 8.160156 197.78125 8.691406 C 197.78125 9.035156 198 9.441406 198.59375 9.441406 C 199.09375 9.441406 199.78125 9.035156 199.78125 8.191406 C 199.78125 7.035156 198.5 6.722656 197.75 6.722656 C 196.46875 6.722656 195.71875 7.878906 195.46875 8.410156 C 194.90625 6.941406 193.71875 6.722656 193.09375 6.722656 C 190.84375 6.722656 189.59375 9.566406 189.59375 10.097656 C 189.59375 10.316406 189.8125 10.316406 189.84375 10.316406 C 190.03125 10.316406 190.09375 10.285156 190.125 10.066406 C 190.875 7.753906 192.3125 7.222656 193.0625 7.222656 C 193.46875 7.222656 194.25 7.410156 194.25 8.691406 C 194.25 9.347656 193.875 10.816406 193.0625 13.878906 C 192.71875 15.222656 191.9375 16.128906 191 16.128906 C 190.84375 16.128906 190.34375 16.128906 189.90625 15.847656 C 190.4375 15.753906 190.90625 15.285156 190.90625 14.691406 C 190.90625 14.097656 190.4375 13.910156 190.125 13.910156 C 189.46875 13.910156 188.90625 14.472656 188.90625 15.191406 C 188.90625 16.191406 190 16.628906 190.96875 16.628906 C 192.40625 16.628906 193.1875 15.097656 193.25 14.972656 C 193.53125 15.753906 194.3125 16.628906 195.625 16.628906 C 197.84375 16.628906 199.09375 13.816406 199.09375 13.253906 C 199.09375 13.035156 198.90625 13.035156 198.84375 13.035156 C 198.65625 13.035156 198.59375 13.128906 198.5625 13.285156 C 197.84375 15.628906 196.34375 16.128906 195.65625 16.128906 C 194.8125 16.128906 194.46875 15.441406 194.46875 14.691406 C 194.46875 14.222656 194.59375 13.753906 194.8125 12.785156 Z M 195.5625 9.785156 "/>
<path fill-rule="nonzero" fill="rgb(0%, 0%, 0%)" fill-opacity="1" d="M 226.222656 266.367188 C 226.222656 266.367188 226.222656 266.148438 225.941406 266.148438 C 225.628906 266.148438 223.535156 266.335938 223.160156 266.367188 C 223.003906 266.398438 222.878906 266.492188 222.878906 266.804688 C 222.878906 267.054688 223.066406 267.054688 223.378906 267.054688 C 224.441406 267.054688 224.472656 267.210938 224.472656 267.429688 L 224.410156 267.867188 L 223.097656 273.023438 C 222.722656 272.210938 222.097656 271.617188 221.097656 271.617188 C 218.535156 271.617188 215.847656 274.835938 215.847656 278.023438 C 215.847656 280.085938 217.035156 281.523438 218.753906 281.523438 C 219.191406 281.523438 220.285156 281.429688 221.566406 279.867188 C 221.753906 280.804688 222.535156 281.523438 223.566406 281.523438 C 224.316406 281.523438 224.816406 281.023438 225.191406 280.304688 C 225.566406 279.523438 225.847656 278.210938 225.847656 278.148438 C 225.847656 277.929688 225.628906 277.929688 225.566406 277.929688 C 225.347656 277.929688 225.347656 278.023438 225.253906 278.335938 C 224.910156 279.742188 224.503906 281.023438 223.597656 281.023438 C 223.035156 281.023438 222.941406 280.460938 222.941406 280.023438 C 222.941406 279.492188 223.003906 279.367188 223.097656 278.992188 Z M 221.691406 278.679688 C 221.566406 279.085938 221.566406 279.117188 221.253906 279.492188 C 220.285156 280.679688 219.410156 281.023438 218.785156 281.023438 C 217.691406 281.023438 217.378906 279.835938 217.378906 278.992188 C 217.378906 277.898438 218.097656 275.210938 218.597656 274.210938 C 219.285156 272.929688 220.253906 272.117188 221.128906 272.117188 C 222.535156 272.117188 222.847656 273.898438 222.847656 274.023438 C 222.847656 274.148438 222.816406 274.304688 222.785156 274.398438 Z M 221.691406 278.679688 "/>
<path fill-rule="nonzero" fill="rgb(0%, 0%, 0%)" fill-opacity="1" d="M 236.847656 272.960938 C 236.941406 272.648438 236.941406 272.617188 236.941406 272.460938 C 236.941406 272.054688 236.628906 271.867188 236.316406 271.867188 C 236.097656 271.867188 235.753906 271.992188 235.535156 272.335938 C 235.503906 272.429688 235.316406 273.117188 235.253906 273.523438 C 235.097656 274.085938 234.941406 274.679688 234.816406 275.242188 L 233.816406 279.179688 C 233.722656 279.492188 232.785156 281.023438 231.347656 281.023438 C 230.253906 281.023438 230.003906 280.085938 230.003906 279.273438 C 230.003906 278.273438 230.378906 276.898438 231.128906 274.992188 C 231.472656 274.085938 231.566406 273.867188 231.566406 273.429688 C 231.566406 272.429688 230.847656 271.617188 229.753906 271.617188 C 227.691406 271.617188 226.878906 274.804688 226.878906 274.992188 C 226.878906 275.210938 227.097656 275.210938 227.160156 275.210938 C 227.378906 275.210938 227.378906 275.179688 227.503906 274.804688 C 228.097656 272.773438 228.972656 272.117188 229.691406 272.117188 C 229.878906 272.117188 230.253906 272.117188 230.253906 272.804688 C 230.253906 273.367188 230.035156 273.929688 229.878906 274.335938 C 229.003906 276.648438 228.597656 277.898438 228.597656 278.929688 C 228.597656 280.867188 229.972656 281.523438 231.285156 281.523438 C 232.128906 281.523438 232.847656 281.148438 233.472656 280.523438 C 233.191406 281.679688 232.941406 282.742188 232.066406 283.898438 C 231.503906 284.617188 230.660156 285.273438 229.660156 285.273438 C 229.347656 285.273438 228.378906 285.210938 228.003906 284.335938 C 228.347656 284.335938 228.628906 284.335938 228.941406 284.085938 C 229.160156 283.898438 229.378906 283.617188 229.378906 283.179688 C 229.378906 282.523438 228.785156 282.429688 228.566406 282.429688 C 228.066406 282.429688 227.347656 282.773438 227.347656 283.835938 C 227.347656 284.929688 228.316406 285.742188 229.660156 285.742188 C 231.910156 285.742188 234.160156 283.773438 234.753906 281.304688 Z M 236.847656 272.960938 "/>
<path fill-rule="nonzero" fill="rgb(0%, 0%, 0%)" fill-opacity="1" d="M 226.222656 28.730469 C 226.222656 28.730469 226.222656 28.511719 225.941406 28.511719 C 225.628906 28.511719 223.535156 28.699219 223.160156 28.730469 C 223.003906 28.761719 222.878906 28.855469 222.878906 29.167969 C 222.878906 29.417969 223.066406 29.417969 223.378906 29.417969 C 224.441406 29.417969 224.472656 29.574219 224.472656 29.792969 L 224.410156 30.230469 L 223.097656 35.386719 C 222.722656 34.574219 222.097656 33.980469 221.097656 33.980469 C 218.535156 33.980469 215.847656 37.199219 215.847656 40.386719 C 215.847656 42.449219 217.035156 43.886719 218.753906 43.886719 C 219.191406 43.886719 220.285156 43.792969 221.566406 42.230469 C 221.753906 43.167969 222.535156 43.886719 223.566406 43.886719 C 224.316406 43.886719 224.816406 43.386719 225.191406 42.667969 C 225.566406 41.886719 225.847656 40.574219 225.847656 40.511719 C 225.847656 40.292969 225.628906 40.292969 225.566406 40.292969 C 225.347656 40.292969 225.347656 40.386719 225.253906 40.699219 C 224.910156 42.105469 224.503906 43.386719 223.597656 43.386719 C 223.035156 43.386719 222.941406 42.824219 222.941406 42.386719 C 222.941406 41.855469 223.003906 41.730469 223.097656 41.355469 Z M 221.691406 41.042969 C 221.566406 41.449219 221.566406 41.480469 221.253906 41.855469 C 220.285156 43.042969 219.410156 43.386719 218.785156 43.386719 C 217.691406 43.386719 217.378906 42.199219 217.378906 41.355469 C 217.378906 40.261719 218.097656 37.574219 218.597656 36.574219 C 219.285156 35.292969 220.253906 34.480469 221.128906 34.480469 C 222.535156 34.480469 222.847656 36.261719 222.847656 36.386719 C 222.847656 36.511719 222.816406 36.667969 222.785156 36.761719 Z M 221.691406 41.042969 "/>
<path fill-rule="nonzero" fill="rgb(0%, 0%, 0%)" fill-opacity="1" d="M 236.847656 35.324219 C 236.941406 35.011719 236.941406 34.980469 236.941406 34.824219 C 236.941406 34.417969 236.628906 34.230469 236.316406 34.230469 C 236.097656 34.230469 235.753906 34.355469 235.535156 34.699219 C 235.503906 34.792969 235.316406 35.480469 235.253906 35.886719 C 235.097656 36.449219 234.941406 37.042969 234.816406 37.605469 L 233.816406 41.542969 C 233.722656 41.855469 232.785156 43.386719 231.347656 43.386719 C 230.253906 43.386719 230.003906 42.449219 230.003906 41.636719 C 230.003906 40.636719 230.378906 39.261719 231.128906 37.355469 C 231.472656 36.449219 231.566406 36.230469 231.566406 35.792969 C 231.566406 34.792969 230.847656 33.980469 229.753906 33.980469 C 227.691406 33.980469 226.878906 37.167969 226.878906 37.355469 C 226.878906 37.574219 227.097656 37.574219 227.160156 37.574219 C 227.378906 37.574219 227.378906 37.542969 227.503906 37.167969 C 228.097656 35.136719 228.972656 34.480469 229.691406 34.480469 C 229.878906 34.480469 230.253906 34.480469 230.253906 35.167969 C 230.253906 35.730469 230.035156 36.292969 229.878906 36.699219 C 229.003906 39.011719 228.597656 40.261719 228.597656 41.292969 C 228.597656 43.230469 229.972656 43.886719 231.285156 43.886719 C 232.128906 43.886719 232.847656 43.511719 233.472656 42.886719 C 233.191406 44.042969 232.941406 45.105469 232.066406 46.261719 C 231.503906 46.980469 230.660156 47.636719 229.660156 47.636719 C 229.347656 47.636719 228.378906 47.574219 228.003906 46.699219 C 228.347656 46.699219 228.628906 46.699219 228.941406 46.449219 C 229.160156 46.261719 229.378906 45.980469 229.378906 45.542969 C 229.378906 44.886719 228.785156 44.792969 228.566406 44.792969 C 228.066406 44.792969 227.347656 45.136719 227.347656 46.199219 C 227.347656 47.292969 228.316406 48.105469 229.660156 48.105469 C 231.910156 48.105469 234.160156 46.136719 234.753906 43.667969 Z M 236.847656 35.324219 "/>
<path fill-rule="nonzero" fill="rgb(0%, 0%, 0%)" fill-opacity="1" d="M 299.976562 182.984375 L 311.976562 182.984375 L 311.976562 184.1875 L 299.976562 184.1875 Z M 299.976562 182.984375 "/>
<path fill-rule="nonzero" fill="rgb(0%, 0%, 0%)" fill-opacity="1" d="M 323.535156 188.832031 C 326.910156 187.550781 330.128906 183.644531 330.128906 179.457031 C 330.128906 175.925781 327.816406 173.582031 324.566406 173.582031 C 319.847656 173.582031 315.035156 178.519531 315.035156 183.613281 C 315.035156 187.238281 317.472656 189.425781 320.628906 189.425781 C 321.160156 189.425781 321.910156 189.363281 322.753906 189.113281 C 322.691406 190.457031 322.691406 190.519531 322.691406 190.800781 C 322.691406 191.488281 322.691406 193.175781 324.472656 193.175781 C 327.066406 193.175781 328.128906 189.207031 328.128906 188.957031 C 328.128906 188.800781 327.972656 188.738281 327.878906 188.738281 C 327.722656 188.738281 327.660156 188.863281 327.628906 188.988281 C 327.097656 190.519531 325.847656 191.082031 325.066406 191.082031 C 324.066406 191.082031 323.753906 190.488281 323.535156 188.832031 Z M 319.410156 188.644531 C 317.691406 187.988281 316.972656 186.269531 316.972656 184.300781 C 316.972656 182.800781 317.535156 179.707031 319.191406 177.363281 C 320.785156 175.113281 322.816406 174.113281 324.410156 174.113281 C 326.597656 174.113281 328.191406 175.832031 328.191406 178.738281 C 328.191406 180.925781 327.066406 186.019531 323.410156 188.082031 C 323.316406 187.332031 323.097656 185.738281 321.503906 185.738281 C 320.347656 185.738281 319.285156 186.832031 319.285156 187.957031 C 319.285156 188.394531 319.410156 188.644531 319.410156 188.644531 Z M 320.753906 188.894531 C 320.441406 188.894531 319.753906 188.894531 319.753906 187.957031 C 319.753906 187.082031 320.566406 186.207031 321.503906 186.207031 C 322.410156 186.207031 322.816406 186.738281 322.816406 188.050781 C 322.816406 188.394531 322.816406 188.425781 322.597656 188.488281 C 322.035156 188.738281 321.378906 188.894531 320.753906 188.894531 Z M 320.753906 188.894531 "/>
<path fill="none" stroke-width="7.9701" stroke-linecap="butt" stroke-linejoin="miter" stroke="rgb(0%, 0%, 0%)" stroke-opacity="1" stroke-miterlimit="10" d="M 854.999987 321.601558 L 854.999987 351.32812 " transform="matrix(0.2, 0, 0, -0.2, 0, 374)"/>
<path fill="none" stroke-width="7.9701" stroke-linecap="butt" stroke-linejoin="miter" stroke="rgb(0%, 0%, 0%)" stroke-opacity="1" stroke-miterlimit="10" d="M 854.999987 410.781244 L 854.999987 440.468743 " transform="matrix(0.2, 0, 0, -0.2, 0, 374)"/>
<path fill="none" stroke-width="7.9701" stroke-linecap="butt" stroke-linejoin="miter" stroke="rgb(0%, 0%, 0%)" stroke-opacity="1" stroke-miterlimit="10" d="M 854.999987 440.468743 L 854.999987 470.234368 " transform="matrix(0.2, 0, 0, -0.2, 0, 374)"/>
<path fill="none" stroke-width="7.9701" stroke-linecap="butt" stroke-linejoin="miter" stroke="rgb(0%, 0%, 0%)" stroke-opacity="1" stroke-miterlimit="10" d="M 854.999987 529.64843 L 854.999987 559.374992 " transform="matrix(0.2, 0, 0, -0.2, 0, 374)"/>
<path fill="none" stroke-width="7.9701" stroke-linecap="butt" stroke-linejoin="miter" stroke="rgb(0%, 0%, 0%)" stroke-opacity="1" stroke-miterlimit="10" d="M 854.999987 559.374992 L 854.999987 589.101554 " transform="matrix(0.2, 0, 0, -0.2, 0, 374)"/>
<path fill="none" stroke-width="7.9701" stroke-linecap="butt" stroke-linejoin="miter" stroke="rgb(0%, 0%, 0%)" stroke-opacity="1" stroke-miterlimit="10" d="M 854.999987 648.515615 L 854.999987 678.28124 " transform="matrix(0.2, 0, 0, -0.2, 0, 374)"/>
<path fill="none" stroke-width="7.9701" stroke-linecap="butt" stroke-linejoin="miter" stroke="rgb(0%, 0%, 0%)" stroke-opacity="1" stroke-miterlimit="10" d="M 854.999987 678.28124 L 854.999987 707.968739 " transform="matrix(0.2, 0, 0, -0.2, 0, 374)"/>
<path fill="none" stroke-width="7.9701" stroke-linecap="butt" stroke-linejoin="miter" stroke="rgb(0%, 0%, 0%)" stroke-opacity="1" stroke-miterlimit="10" d="M 854.999987 767.421864 L 854.999987 797.148426 " transform="matrix(0.2, 0, 0, -0.2, 0, 374)"/>
<path fill="none" stroke-width="7.9701" stroke-linecap="butt" stroke-linejoin="miter" stroke="rgb(0%, 0%, 0%)" stroke-opacity="1" stroke-miterlimit="10" d="M 854.999987 797.148426 L 854.999987 826.874988 " transform="matrix(0.2, 0, 0, -0.2, 0, 374)"/>
<path fill="none" stroke-width="7.9701" stroke-linecap="butt" stroke-linejoin="miter" stroke="rgb(0%, 0%, 0%)" stroke-opacity="1" stroke-miterlimit="10" d="M 854.999987 886.328112 L 854.999987 916.015611 " transform="matrix(0.2, 0, 0, -0.2, 0, 374)"/>
<path fill="none" stroke-width="7.9701" stroke-linecap="butt" stroke-linejoin="miter" stroke="rgb(0%, 0%, 0%)" stroke-opacity="1" stroke-miterlimit="10" d="M 854.999987 916.015611 L 854.999987 945.781236 " transform="matrix(0.2, 0, 0, -0.2, 0, 374)"/>
<path fill="none" stroke-width="7.9701" stroke-linecap="butt" stroke-linejoin="miter" stroke="rgb(0%, 0%, 0%)" stroke-opacity="1" stroke-miterlimit="10" d="M 854.999987 1005.195298 L 854.999987 1034.92186 " transform="matrix(0.2, 0, 0, -0.2, 0, 374)"/>
<path fill="none" stroke-width="7.9701" stroke-linecap="butt" stroke-linejoin="miter" stroke="rgb(0%, 0%, 0%)" stroke-opacity="1" stroke-miterlimit="10" d="M 854.999987 1034.92186 L 854.999987 1064.648422 " transform="matrix(0.2, 0, 0, -0.2, 0, 374)"/>
<path fill="none" stroke-width="7.9701" stroke-linecap="butt" stroke-linejoin="miter" stroke="rgb(0%, 0%, 0%)" stroke-opacity="1" stroke-miterlimit="10" d="M 854.999987 1124.101546 L 854.999987 1153.789045 " transform="matrix(0.2, 0, 0, -0.2, 0, 374)"/>
<path fill="none" stroke-width="7.9701" stroke-linecap="butt" stroke-linejoin="miter" stroke="rgb(0%, 0%, 0%)" stroke-opacity="1" stroke-miterlimit="10" d="M 854.999987 1153.789045 L 854.999987 1183.515607 " transform="matrix(0.2, 0, 0, -0.2, 0, 374)"/>
<path fill="none" stroke-width="7.9701" stroke-linecap="butt" stroke-linejoin="miter" stroke="rgb(0%, 0%, 0%)" stroke-opacity="1" stroke-miterlimit="10" d="M 854.999987 1242.968731 L 854.999987 1272.695294 " transform="matrix(0.2, 0, 0, -0.2, 0, 374)"/>
<path fill="none" stroke-width="7.9701" stroke-linecap="butt" stroke-linejoin="miter" stroke="rgb(0%, 0%, 0%)" stroke-opacity="1" stroke-miterlimit="10" d="M 854.999987 1272.695294 L 854.999987 1302.421856 " transform="matrix(0.2, 0, 0, -0.2, 0, 374)"/>
<path fill="none" stroke-width="7.9701" stroke-linecap="butt" stroke-linejoin="miter" stroke="rgb(0%, 0%, 0%)" stroke-opacity="1" stroke-miterlimit="10" d="M 854.999987 1361.87498 L 854.999987 1391.562479 " transform="matrix(0.2, 0, 0, -0.2, 0, 374)"/>
<path fill="none" stroke-width="7.9701" stroke-linecap="butt" stroke-linejoin="miter" stroke="rgb(0%, 0%, 0%)" stroke-opacity="1" stroke-miterlimit="10" d="M 854.999987 1391.562479 L 854.999987 1421.289041 " transform="matrix(0.2, 0, 0, -0.2, 0, 374)"/>
<path fill="none" stroke-width="7.9701" stroke-linecap="butt" stroke-linejoin="miter" stroke="rgb(0%, 0%, 0%)" stroke-opacity="1" stroke-miterlimit="10" d="M 854.999987 1480.742165 L 854.999987 1510.468727 " transform="matrix(0.2, 0, 0, -0.2, 0, 374)"/>
<path fill="none" stroke-width="7.9701" stroke-linecap="butt" stroke-linejoin="miter" stroke="rgb(0%, 0%, 0%)" stroke-opacity="1" stroke-miterlimit="10" d="M 854.999987 1510.468727 L 854.999987 1540.19529 " transform="matrix(0.2, 0, 0, -0.2, 0, 374)"/>
<path fill="none" stroke-width="7.9701" stroke-linecap="butt" stroke-linejoin="miter" stroke="rgb(0%, 0%, 0%)" stroke-opacity="1" stroke-miterlimit="10" d="M 854.999987 1599.648414 L 854.999987 1629.374976 " transform="matrix(0.2, 0, 0, -0.2, 0, 374)"/>
<path fill="none" stroke-width="7.9701" stroke-linecap="butt" stroke-linejoin="miter" stroke="rgb(0%, 0%, 0%)" stroke-opacity="1" stroke-miterlimit="10" d="M 854.999987 1629.374976 L 854.999987 1659.062475 " transform="matrix(0.2, 0, 0, -0.2, 0, 374)"/>
<path fill="none" stroke-width="7.9701" stroke-linecap="butt" stroke-linejoin="miter" stroke="rgb(0%, 0%, 0%)" stroke-opacity="1" stroke-miterlimit="10" d="M 854.999987 1718.515599 L 854.999987 1748.242161 " transform="matrix(0.2, 0, 0, -0.2, 0, 374)"/>
<path fill="none" stroke-width="7.9701" stroke-linecap="butt" stroke-linejoin="miter" stroke="rgb(0%, 0%, 0%)" stroke-opacity="1" stroke-miterlimit="10" d="M 1034.999985 321.601558 L 1034.999985 350.898432 " transform="matrix(0.2, 0, 0, -0.2, 0, 374)"/>
<path fill="none" stroke-width="7.9701" stroke-linecap="butt" stroke-linejoin="miter" stroke="rgb(0%, 0%, 0%)" stroke-opacity="1" stroke-miterlimit="10" d="M 1034.999985 409.492181 L 1034.999985 438.789056 " transform="matrix(0.2, 0, 0, -0.2, 0, 374)"/>
<path fill="none" stroke-width="7.9701" stroke-linecap="butt" stroke-linejoin="miter" stroke="rgb(0%, 0%, 0%)" stroke-opacity="1" stroke-miterlimit="10" d="M 1034.999985 438.789056 L 1034.999985 468.085931 " transform="matrix(0.2, 0, 0, -0.2, 0, 374)"/>
<path fill="none" stroke-width="7.9701" stroke-linecap="butt" stroke-linejoin="miter" stroke="rgb(0%, 0%, 0%)" stroke-opacity="1" stroke-miterlimit="10" d="M 1034.999985 526.67968 L 1034.999985 555.976554 " transform="matrix(0.2, 0, 0, -0.2, 0, 374)"/>
<path fill="none" stroke-width="7.9701" stroke-linecap="butt" stroke-linejoin="miter" stroke="rgb(0%, 0%, 0%)" stroke-opacity="1" stroke-miterlimit="10" d="M 1034.999985 555.976554 L 1034.999985 585.273429 " transform="matrix(0.2, 0, 0, -0.2, 0, 374)"/>
<path fill="none" stroke-width="7.9701" stroke-linecap="butt" stroke-linejoin="miter" stroke="rgb(0%, 0%, 0%)" stroke-opacity="1" stroke-miterlimit="10" d="M 1034.999985 643.828115 L 1034.999985 673.164052 " transform="matrix(0.2, 0, 0, -0.2, 0, 374)"/>
<path fill="none" stroke-width="7.9701" stroke-linecap="butt" stroke-linejoin="miter" stroke="rgb(0%, 0%, 0%)" stroke-opacity="1" stroke-miterlimit="10" d="M 1034.999985 673.164052 L 1034.999985 702.421865 " transform="matrix(0.2, 0, 0, -0.2, 0, 374)"/>
<path fill="none" stroke-width="7.9701" stroke-linecap="butt" stroke-linejoin="miter" stroke="rgb(0%, 0%, 0%)" stroke-opacity="1" stroke-miterlimit="10" d="M 1034.999985 761.015614 L 1034.999985 790.312488 " transform="matrix(0.2, 0, 0, -0.2, 0, 374)"/>
<path fill="none" stroke-width="7.9701" stroke-linecap="butt" stroke-linejoin="miter" stroke="rgb(0%, 0%, 0%)" stroke-opacity="1" stroke-miterlimit="10" d="M 1034.999985 790.312488 L 1034.999985 819.609363 " transform="matrix(0.2, 0, 0, -0.2, 0, 374)"/>
<path fill="none" stroke-width="7.9701" stroke-linecap="butt" stroke-linejoin="miter" stroke="rgb(0%, 0%, 0%)" stroke-opacity="1" stroke-miterlimit="10" d="M 1034.999985 878.203112 L 1034.999985 907.499986 " transform="matrix(0.2, 0, 0, -0.2, 0, 374)"/>
<path fill="none" stroke-width="7.9701" stroke-linecap="butt" stroke-linejoin="miter" stroke="rgb(0%, 0%, 0%)" stroke-opacity="1" stroke-miterlimit="10" d="M 1034.999985 907.499986 L 1034.999985 936.796861 " transform="matrix(0.2, 0, 0, -0.2, 0, 374)"/>
<path fill="none" stroke-width="7.9701" stroke-linecap="butt" stroke-linejoin="miter" stroke="rgb(0%, 0%, 0%)" stroke-opacity="1" stroke-miterlimit="10" d="M 1034.999985 995.39061 L 1034.999985 1024.687485 " transform="matrix(0.2, 0, 0, -0.2, 0, 374)"/>
<path fill="none" stroke-width="7.9701" stroke-linecap="butt" stroke-linejoin="miter" stroke="rgb(0%, 0%, 0%)" stroke-opacity="1" stroke-miterlimit="10" d="M 1034.999985 1024.687485 L 1034.999985 1053.984359 " transform="matrix(0.2, 0, 0, -0.2, 0, 374)"/>
<path fill="none" stroke-width="7.9701" stroke-linecap="butt" stroke-linejoin="miter" stroke="rgb(0%, 0%, 0%)" stroke-opacity="1" stroke-miterlimit="10" d="M 1034.999985 1112.578108 L 1034.999985 1141.874983 " transform="matrix(0.2, 0, 0, -0.2, 0, 374)"/>
<path fill="none" stroke-width="7.9701" stroke-linecap="butt" stroke-linejoin="miter" stroke="rgb(0%, 0%, 0%)" stroke-opacity="1" stroke-miterlimit="10" d="M 1034.999985 1141.874983 L 1034.999985 1171.132795 " transform="matrix(0.2, 0, 0, -0.2, 0, 374)"/>
<path fill="none" stroke-width="7.9701" stroke-linecap="butt" stroke-linejoin="miter" stroke="rgb(0%, 0%, 0%)" stroke-opacity="1" stroke-miterlimit="10" d="M 1034.999985 1229.765607 L 1034.999985 1259.023419 " transform="matrix(0.2, 0, 0, -0.2, 0, 374)"/>
<path fill="none" stroke-width="7.9701" stroke-linecap="butt" stroke-linejoin="miter" stroke="rgb(0%, 0%, 0%)" stroke-opacity="1" stroke-miterlimit="10" d="M 1034.999985 1259.023419 L 1034.999985 1288.320293 " transform="matrix(0.2, 0, 0, -0.2, 0, 374)"/>
<path fill="none" stroke-width="7.9701" stroke-linecap="butt" stroke-linejoin="miter" stroke="rgb(0%, 0%, 0%)" stroke-opacity="1" stroke-miterlimit="10" d="M 1034.999985 1346.914042 L 1034.999985 1376.210917 " transform="matrix(0.2, 0, 0, -0.2, 0, 374)"/>
<path fill="none" stroke-width="7.9701" stroke-linecap="butt" stroke-linejoin="miter" stroke="rgb(0%, 0%, 0%)" stroke-opacity="1" stroke-miterlimit="10" d="M 1034.999985 1376.210917 L 1034.999985 1405.507792 " transform="matrix(0.2, 0, 0, -0.2, 0, 374)"/>
<path fill="none" stroke-width="7.9701" stroke-linecap="butt" stroke-linejoin="miter" stroke="rgb(0%, 0%, 0%)" stroke-opacity="1" stroke-miterlimit="10" d="M 1034.999985 1464.101541 L 1034.999985 1493.398415 " transform="matrix(0.2, 0, 0, -0.2, 0, 374)"/>
<path fill="none" stroke-width="7.9701" stroke-linecap="butt" stroke-linejoin="miter" stroke="rgb(0%, 0%, 0%)" stroke-opacity="1" stroke-miterlimit="10" d="M 1034.999985 1493.398415 L 1034.999985 1522.69529 " transform="matrix(0.2, 0, 0, -0.2, 0, 374)"/>
<path fill="none" stroke-width="7.9701" stroke-linecap="butt" stroke-linejoin="miter" stroke="rgb(0%, 0%, 0%)" stroke-opacity="1" stroke-miterlimit="10" d="M 1034.999985 1581.289039 L 1034.999985 1610.585914 " transform="matrix(0.2, 0, 0, -0.2, 0, 374)"/>
<path fill="none" stroke-width="7.9701" stroke-linecap="butt" stroke-linejoin="miter" stroke="rgb(0%, 0%, 0%)" stroke-opacity="1" stroke-miterlimit="10" d="M 1530.03904 951.601548 L 1530.03904 925.351549 " transform="matrix(0.2, 0, 0, -0.2, 0, 374)"/>
<path fill="none" stroke-width="7.9701" stroke-linecap="butt" stroke-linejoin="miter" stroke="rgb(0%, 0%, 0%)" stroke-opacity="1" stroke-miterlimit="10" d="M 1530.03904 872.851549 L 1530.03904 846.60155 " transform="matrix(0.2, 0, 0, -0.2, 0, 374)"/>
<path fill="none" stroke-width="7.9701" stroke-linecap="butt" stroke-linejoin="miter" stroke="rgb(0%, 0%, 0%)" stroke-opacity="1" stroke-miterlimit="10" d="M 1530.03904 846.60155 L 1530.03904 820.35155 " transform="matrix(0.2, 0, 0, -0.2, 0, 374)"/>
<path fill="none" stroke-width="7.9701" stroke-linecap="butt" stroke-linejoin="miter" stroke="rgb(0%, 0%, 0%)" stroke-opacity="1" stroke-miterlimit="10" d="M 1530.03904 767.851551 L 1530.03904 741.601551 " transform="matrix(0.2, 0, 0, -0.2, 0, 374)"/>
<path fill="none" stroke-width="7.9701" stroke-linecap="butt" stroke-linejoin="miter" stroke="rgb(0%, 0%, 0%)" stroke-opacity="1" stroke-miterlimit="10" d="M 1530.03904 741.601551 L 1530.03904 715.351552 " transform="matrix(0.2, 0, 0, -0.2, 0, 374)"/>
<path fill="none" stroke-width="7.9701" stroke-linecap="butt" stroke-linejoin="miter" stroke="rgb(0%, 0%, 0%)" stroke-opacity="1" stroke-miterlimit="10" d="M 1530.03904 662.851553 L 1530.03904 636.601553 " transform="matrix(0.2, 0, 0, -0.2, 0, 374)"/>
<path fill="none" stroke-width="7.9701" stroke-linecap="butt" stroke-linejoin="miter" stroke="rgb(0%, 0%, 0%)" stroke-opacity="1" stroke-miterlimit="10" d="M 1530.03904 636.601553 L 1530.03904 610.351553 " transform="matrix(0.2, 0, 0, -0.2, 0, 374)"/>
<path fill="none" stroke-width="7.9701" stroke-linecap="butt" stroke-linejoin="miter" stroke="rgb(0%, 0%, 0%)" stroke-opacity="1" stroke-miterlimit="10" d="M 1530.03904 557.851554 L 1530.03904 531.601555 " transform="matrix(0.2, 0, 0, -0.2, 0, 374)"/>
<path fill="none" stroke-width="7.9701" stroke-linecap="butt" stroke-linejoin="miter" stroke="rgb(0%, 0%, 0%)" stroke-opacity="1" stroke-miterlimit="10" d="M 1530.03904 531.601555 L 1530.03904 505.351555 " transform="matrix(0.2, 0, 0, -0.2, 0, 374)"/>
<path fill="none" stroke-width="7.9701" stroke-linecap="butt" stroke-linejoin="miter" stroke="rgb(0%, 0%, 0%)" stroke-opacity="1" stroke-miterlimit="10" d="M 1530.03904 452.851556 L 1530.03904 426.601556 " transform="matrix(0.2, 0, 0, -0.2, 0, 374)"/>
<path fill="none" stroke-width="7.9701" stroke-linecap="butt" stroke-linejoin="miter" stroke="rgb(0%, 0%, 0%)" stroke-opacity="1" stroke-miterlimit="10" d="M 1530.03904 426.601556 L 1530.03904 400.351557 " transform="matrix(0.2, 0, 0, -0.2, 0, 374)"/>
<path fill="none" stroke-width="7.9701" stroke-linecap="butt" stroke-linejoin="miter" stroke="rgb(0%, 0%, 0%)" stroke-opacity="1" stroke-miterlimit="10" d="M 1530.03904 347.851557 L 1530.03904 321.601558 " transform="matrix(0.2, 0, 0, -0.2, 0, 374)"/>
<path fill-rule="nonzero" fill="rgb(100%, 100%, 100%)" fill-opacity="1" d="M 6.695312 309.703125 L 35.976562 309.703125 L 35.976562 336.585938 L 6.695312 336.585938 Z M 6.695312 309.703125 "/>
<path fill-rule="nonzero" fill="rgb(0%, 0%, 0%)" fill-opacity="1" d="M 28.875 321.058594 C 28.875 317.527344 26.5625 315.183594 23.3125 315.183594 C 18.59375 315.183594 13.78125 320.121094 13.78125 325.214844 C 13.78125 328.839844 16.21875 331.027344 19.375 331.027344 C 24 331.027344 28.875 326.246094 28.875 321.058594 Z M 19.5 330.464844 C 17.34375 330.464844 15.8125 328.714844 15.8125 325.839844 C 15.8125 324.871094 16.125 321.683594 17.8125 319.121094 C 19.3125 316.871094 21.4375 315.714844 23.15625 315.714844 C 24.96875 315.714844 26.90625 316.933594 26.90625 320.183594 C 26.90625 321.777344 26.34375 325.183594 24.15625 327.839844 C 23.125 329.183594 21.34375 330.464844 19.5 330.464844 Z M 19.5 330.464844 "/>
<path fill-rule="nonzero" fill="rgb(100%, 100%, 100%)" fill-opacity="1" d="M 376.15625 309.703125 L 408.078125 309.703125 L 408.078125 336.585938 L 376.15625 336.585938 Z M 376.15625 309.703125 "/>
<path fill-rule="nonzero" fill="rgb(0%, 0%, 0%)" fill-opacity="1" d="M 392.777344 321.589844 L 390.933594 317.246094 C 390.871094 317.089844 390.808594 316.996094 390.808594 316.964844 C 390.808594 316.839844 391.183594 316.433594 392.121094 316.339844 C 392.339844 316.308594 392.558594 316.308594 392.558594 315.933594 C 392.558594 315.652344 392.277344 315.652344 392.214844 315.652344 C 391.308594 315.652344 390.371094 315.714844 389.464844 315.714844 C 388.933594 315.714844 387.558594 315.652344 387.027344 315.652344 C 386.902344 315.652344 386.621094 315.652344 386.621094 316.089844 C 386.621094 316.339844 386.839844 316.339844 387.121094 316.339844 C 388.433594 316.339844 388.589844 316.558594 388.777344 317.027344 L 391.339844 323.121094 L 386.746094 328.058594 L 386.464844 328.308594 C 385.402344 329.464844 384.371094 329.808594 383.246094 329.871094 C 382.964844 329.902344 382.777344 329.902344 382.777344 330.308594 C 382.777344 330.339844 382.777344 330.558594 383.058594 330.558594 C 383.714844 330.558594 384.433594 330.496094 385.121094 330.496094 C 385.902344 330.496094 386.777344 330.558594 387.558594 330.558594 C 387.683594 330.558594 387.933594 330.558594 387.933594 330.121094 C 387.933594 329.902344 387.714844 329.871094 387.683594 329.871094 C 387.496094 329.871094 386.808594 329.808594 386.808594 329.214844 C 386.808594 328.871094 387.121094 328.496094 387.402344 328.214844 L 389.621094 325.871094 L 391.589844 323.746094 L 393.777344 328.933594 C 393.871094 329.183594 393.902344 329.214844 393.902344 329.246094 C 393.902344 329.433594 393.496094 329.808594 392.621094 329.871094 C 392.402344 329.902344 392.183594 329.933594 392.183594 330.308594 C 392.183594 330.558594 392.433594 330.558594 392.527344 330.558594 C 393.121094 330.558594 394.652344 330.496094 395.277344 330.496094 C 395.808594 330.496094 397.152344 330.558594 397.683594 330.558594 C 397.839844 330.558594 398.121094 330.558594 398.121094 330.152344 C 398.121094 329.871094 397.902344 329.871094 397.714844 329.871094 C 396.246094 329.871094 396.214844 329.808594 395.839844 328.933594 C 394.996094 326.902344 393.527344 323.496094 393.027344 322.183594 C 394.496094 320.652344 396.808594 318.058594 397.496094 317.464844 C 398.121094 316.933594 398.964844 316.402344 400.277344 316.339844 C 400.558594 316.308594 400.746094 316.308594 400.746094 315.902344 C 400.746094 315.871094 400.746094 315.652344 400.464844 315.652344 C 399.808594 315.652344 399.089844 315.714844 398.402344 315.714844 C 397.589844 315.714844 396.777344 315.652344 395.996094 315.652344 C 395.871094 315.652344 395.589844 315.652344 395.589844 316.089844 C 395.589844 316.246094 395.683594 316.308594 395.839844 316.339844 C 396.027344 316.371094 396.714844 316.402344 396.714844 317.027344 C 396.714844 317.308594 396.464844 317.589844 396.308594 317.808594 Z M 392.777344 321.589844 "/>
<path fill-rule="nonzero" fill="rgb(100%, 100%, 100%)" fill-opacity="1" d="M 6.453125 12.242188 L 35.976562 12.242188 L 35.976562 39.125 L 6.453125 39.125 Z M 6.453125 12.242188 "/>
<path fill-rule="nonzero" fill="rgb(0%, 0%, 0%)" fill-opacity="1" d="M 25.511719 20.695312 L 25.792969 20.382812 C 26.449219 19.726562 27.167969 18.976562 28.667969 18.882812 C 28.917969 18.851562 29.105469 18.851562 29.105469 18.476562 C 29.105469 18.289062 28.980469 18.195312 28.824219 18.195312 C 28.261719 18.195312 27.605469 18.257812 27.042969 18.257812 C 26.324219 18.257812 25.542969 18.195312 24.855469 18.195312 C 24.730469 18.195312 24.449219 18.195312 24.449219 18.632812 C 24.449219 18.851562 24.636719 18.882812 24.761719 18.882812 C 24.917969 18.882812 25.542969 18.914062 25.542969 19.382812 C 25.542969 19.757812 25.042969 20.320312 24.949219 20.414062 L 19.886719 26.257812 L 17.511719 19.789062 C 17.355469 19.476562 17.355469 19.414062 17.355469 19.414062 C 17.355469 18.882812 18.449219 18.882812 18.667969 18.882812 C 18.949219 18.882812 19.167969 18.882812 19.167969 18.445312 C 19.167969 18.195312 18.917969 18.195312 18.855469 18.195312 C 18.230469 18.195312 16.699219 18.257812 16.105469 18.257812 C 15.542969 18.257812 14.199219 18.195312 13.667969 18.195312 C 13.542969 18.195312 13.230469 18.195312 13.230469 18.632812 C 13.230469 18.882812 13.449219 18.882812 13.730469 18.882812 C 15.042969 18.882812 15.136719 19.070312 15.324219 19.632812 L 18.011719 26.789062 C 18.042969 26.851562 18.105469 27.101562 18.105469 27.164062 C 18.105469 27.226562 17.230469 30.757812 17.136719 31.132812 C 16.855469 32.351562 16.824219 32.414062 15.074219 32.414062 C 14.667969 32.414062 14.480469 32.414062 14.480469 32.851562 C 14.480469 33.101562 14.761719 33.101562 14.792969 33.101562 C 15.417969 33.101562 16.917969 33.039062 17.542969 33.039062 C 18.136719 33.039062 19.730469 33.101562 20.324219 33.101562 C 20.480469 33.101562 20.761719 33.101562 20.761719 32.664062 C 20.761719 32.414062 20.542969 32.414062 20.136719 32.414062 C 20.105469 32.414062 19.667969 32.414062 19.292969 32.382812 C 18.855469 32.351562 18.730469 32.289062 18.730469 32.039062 C 18.730469 31.882812 18.917969 31.101562 19.011719 30.664062 L 19.792969 27.570312 C 19.886719 27.164062 19.917969 27.101562 20.105469 26.914062 Z M 25.511719 20.695312 "/>
<path fill="none" stroke-width="11.9553" stroke-linecap="butt" stroke-linejoin="miter" stroke="rgb(0%, 0%, 0%)" stroke-opacity="1" stroke-miterlimit="10" d="M 0 321.601558 L 1980.039033 321.601558 " transform="matrix(0.2, 0, 0, -0.2, 0, 374)"/>
<path fill="none" stroke-width="11.9553" stroke-linecap="butt" stroke-linejoin="miter" stroke="rgb(0%, 0%, 0%)" stroke-opacity="1" stroke-miterlimit="10" d="M 179.999997 177.617185 L 179.999997 1761.601536 " transform="matrix(0.2, 0, 0, -0.2, 0, 374)"/>
<path fill-rule="nonzero" fill="rgb(0%, 0%, 0%)" fill-opacity="1" d="M 171.601562 366.300781 C 172.789062 365.894531 174.789062 365.300781 174.789062 363.363281 C 174.789062 361.050781 172.070312 359.988281 170.101562 359.988281 C 169.164062 359.988281 168.195312 360.207031 167.351562 360.707031 C 167.226562 360.769531 167.070312 360.957031 166.914062 360.957031 C 166.601562 360.957031 166.039062 359.988281 165.726562 359.988281 C 165.539062 359.988281 165.507812 360.207031 165.507812 360.300781 L 165.507812 363.863281 C 165.507812 363.988281 165.601562 364.144531 165.789062 364.144531 C 166.101562 364.144531 166.070312 363.519531 166.164062 363.175781 C 166.632812 361.457031 168.195312 360.707031 169.695312 360.613281 L 170.101562 360.613281 C 171.445312 360.613281 173.007812 361.488281 173.007812 363.363281 C 173.007812 365.175781 171.226562 366.113281 169.570312 366.113281 C 169.257812 366.113281 168.945312 366.113281 168.632812 366.113281 L 168.476562 366.113281 C 168.289062 366.113281 168.070312 366.113281 168.070312 366.332031 L 168.070312 366.363281 C 168.101562 366.550781 168.289062 366.582031 168.476562 366.582031 L 170.320312 366.582031 C 171.882812 366.707031 173.320312 367.738281 173.476562 369.363281 L 173.476562 369.582031 C 173.476562 371.425781 171.757812 372.582031 170.007812 372.582031 C 168.101562 372.582031 166.132812 371.957031 165.820312 369.582031 C 165.820312 369.425781 165.757812 369.238281 165.539062 369.238281 C 165.320312 369.269531 165.289062 369.425781 165.289062 369.582031 C 165.289062 372.175781 167.882812 373.207031 170.132812 373.207031 C 172.195312 373.207031 175.070312 372.238281 175.320312 369.769531 L 175.320312 369.644531 C 175.320312 367.675781 173.257812 366.707031 171.601562 366.300781 Z M 171.601562 366.300781 "/>
<path fill-rule="nonzero" fill="rgb(0%, 0%, 0%)" fill-opacity="1" d="M 183.695312 359.988281 C 180.320312 360.394531 177.632812 363.050781 177.632812 366.644531 C 177.632812 369.925781 180.226562 373.175781 184.101562 373.175781 C 187.601562 373.175781 190.570312 370.269531 190.570312 366.644531 C 190.570312 363.457031 188.070312 359.988281 184.132812 359.988281 C 184.007812 359.988281 183.851562 359.988281 183.695312 359.988281 Z M 179.507812 366.863281 L 179.507812 366.519531 C 179.507812 364.019531 180.414062 361.082031 183.570312 360.550781 C 183.757812 360.519531 183.914062 360.519531 184.101562 360.519531 C 186.914062 360.519531 188.664062 363.238281 188.664062 366.269531 C 188.664062 368.675781 187.945312 371.738281 184.976562 372.519531 C 184.695312 372.582031 184.414062 372.613281 184.132812 372.613281 L 183.945312 372.613281 C 181.351562 372.519531 179.945312 370.050781 179.601562 367.644531 Z M 179.507812 366.863281 "/>
<path fill-rule="nonzero" fill="rgb(0%, 0%, 0%)" fill-opacity="1" d="M 193.027344 360.332031 L 193.027344 360.925781 L 193.464844 360.925781 C 194.058594 360.925781 194.683594 361.019531 194.683594 361.894531 L 194.683594 371.363281 C 194.683594 372.207031 193.964844 372.238281 193.308594 372.238281 L 193.027344 372.238281 L 193.027344 372.832031 L 198.808594 372.832031 C 199.214844 372.832031 199.589844 372.863281 199.996094 372.863281 C 201.996094 372.863281 204.339844 371.925781 204.558594 369.519531 L 204.558594 369.332031 C 204.558594 366.800781 201.683594 365.769531 199.777344 365.769531 C 198.527344 365.769531 197.339844 365.894531 196.152344 365.988281 L 196.152344 361.769531 C 196.152344 361.332031 196.214844 360.925781 196.996094 360.925781 L 199.308594 360.925781 C 200.277344 360.925781 201.371094 360.988281 202.089844 361.707031 C 202.777344 362.425781 202.871094 363.644531 202.964844 364.582031 L 203.496094 364.582031 L 203.027344 360.332031 Z M 196.152344 366.613281 C 196.402344 366.613281 196.652344 366.550781 196.902344 366.519531 L 198.277344 366.457031 C 198.558594 366.425781 198.839844 366.394531 199.152344 366.394531 C 200.714844 366.394531 202.683594 367.394531 202.683594 369.238281 C 202.683594 370.988281 201.339844 372.269531 199.339844 372.269531 C 199.058594 372.269531 198.746094 372.238281 198.496094 372.238281 L 196.964844 372.238281 C 196.496094 372.238281 196.246094 372.207031 196.152344 371.582031 Z M 196.152344 366.613281 "/>
<path fill-rule="nonzero" fill="rgb(0%, 0%, 0%)" fill-opacity="1" d="M 206.90625 360.332031 L 206.90625 360.925781 L 207.375 360.925781 C 207.96875 360.925781 208.5625 361.019531 208.5625 361.894531 L 208.5625 371.363281 C 208.5625 372.207031 207.875 372.238281 207.1875 372.238281 L 206.90625 372.238281 L 206.90625 372.832031 L 211.8125 372.832031 L 211.8125 372.238281 L 211.375 372.238281 C 210.75 372.238281 210.15625 372.175781 210.15625 371.300781 L 210.15625 367.113281 L 213.875 367.113281 C 215.65625 366.988281 217.9375 365.800781 217.9375 363.769531 C 217.9375 361.550781 215.59375 360.488281 213.6875 360.332031 Z M 210.125 366.582031 L 210.125 361.582031 C 210.21875 360.988281 210.46875 360.925781 210.875 360.925781 L 212.3125 360.925781 C 213.9375 360.925781 216.0625 360.988281 216.0625 363.769531 C 216.0625 364.425781 215.96875 365.113281 215.5625 365.613281 C 214.90625 366.394531 213.8125 366.582031 212.84375 366.582031 Z M 210.125 366.582031 "/>
<path fill-rule="nonzero" fill="rgb(0%, 0%, 0%)" fill-opacity="1" d="M 222.636719 370.550781 C 222.136719 370.644531 221.636719 371.082031 221.636719 371.675781 C 221.636719 372.300781 222.167969 372.832031 222.792969 372.832031 C 223.417969 372.832031 223.980469 372.363281 223.980469 371.707031 C 223.980469 371.082031 223.449219 370.519531 222.824219 370.519531 C 222.761719 370.519531 222.699219 370.550781 222.636719 370.550781 Z M 222.636719 370.550781 "/>
<path fill-rule="nonzero" fill="rgb(0%, 0%, 0%)" fill-opacity="1" d="M 237.816406 358.457031 L 237.816406 359.175781 C 238.910156 359.175781 239.941406 358.988281 240.972656 358.519531 L 240.972656 371.082031 C 240.972656 372.019531 240.066406 372.175781 239.097656 372.175781 C 238.691406 372.175781 238.285156 372.144531 237.941406 372.144531 L 237.941406 372.832031 L 245.660156 372.832031 L 245.660156 372.144531 C 245.285156 372.144531 244.847656 372.175781 244.441406 372.175781 C 243.503906 372.175781 242.628906 372.019531 242.628906 371.113281 L 242.628906 357.300781 C 242.628906 357.144531 242.597656 356.957031 242.347656 356.957031 C 242.035156 356.957031 241.691406 357.394531 241.378906 357.582031 C 240.316406 358.269531 239.035156 358.457031 237.816406 358.457031 Z M 237.816406 358.457031 "/>
<path fill-rule="nonzero" fill="rgb(0%, 0%, 0%)" fill-opacity="1" d="M 252.902344 364.769531 C 251.371094 365.707031 249.214844 366.613281 249.214844 369.238281 C 249.214844 371.738281 251.652344 373.332031 254.277344 373.332031 C 256.589844 373.332031 259.371094 371.894531 259.371094 368.957031 C 259.371094 367.957031 259.058594 367.019531 258.433594 366.269531 C 257.683594 365.363281 256.589844 364.863281 255.621094 364.207031 C 257.089844 363.550781 258.683594 362.300781 258.683594 360.457031 C 258.683594 358.175781 256.496094 357.082031 254.621094 356.957031 L 254.339844 356.957031 C 252.183594 356.957031 249.902344 358.394531 249.902344 360.863281 C 249.902344 362.613281 251.183594 363.925781 252.902344 364.769531 Z M 250.308594 369.488281 C 250.308594 369.394531 250.308594 369.300781 250.308594 369.207031 C 250.308594 367.488281 251.652344 366.113281 253.058594 365.300781 C 253.152344 365.269531 253.277344 365.175781 253.402344 365.175781 C 253.589844 365.175781 253.746094 365.300781 253.871094 365.394531 C 254.621094 365.894531 255.402344 366.394531 256.183594 366.863281 C 257.152344 367.488281 258.277344 368.238281 258.277344 369.457031 C 258.277344 371.582031 256.214844 372.707031 254.339844 372.707031 C 252.496094 372.707031 250.621094 371.582031 250.308594 369.488281 Z M 250.902344 360.207031 C 250.902344 358.394531 252.652344 357.519531 254.246094 357.519531 C 255.871094 357.519531 257.433594 358.457031 257.714844 360.269531 L 257.714844 360.488281 C 257.714844 361.925781 256.527344 363.113281 255.433594 363.707031 C 255.339844 363.769531 255.246094 363.863281 255.121094 363.863281 C 254.902344 363.863281 254.277344 363.363281 253.902344 363.144531 C 252.714844 362.332031 251.121094 361.707031 250.902344 360.207031 Z M 250.902344 360.207031 "/>
<path fill-rule="nonzero" fill="rgb(0%, 0%, 0%)" fill-opacity="1" d="M 264.144531 370.550781 C 263.644531 370.644531 263.144531 371.082031 263.144531 371.675781 C 263.144531 372.300781 263.675781 372.832031 264.300781 372.832031 C 264.925781 372.832031 265.488281 372.363281 265.488281 371.707031 C 265.488281 371.082031 264.957031 370.519531 264.332031 370.519531 C 264.269531 370.519531 264.207031 370.550781 264.144531 370.550781 Z M 264.144531 370.550781 "/>
</svg>
