<?xml version="1.0" encoding="UTF-8"?>
<svg xmlns="http://www.w3.org/2000/svg" xmlns:xlink="http://www.w3.org/1999/xlink" width="330" height="356" viewBox="0 0 330 356">
<path fill="none" stroke-width="11.9553" stroke-linecap="butt" stroke-linejoin="miter" stroke="rgb(0%, 0%, 0%)" stroke-opacity="1" stroke-miterlimit="10" d="M 179.999997 801.132801 L 1140.507796 1761.601536 " transform="matrix(0.2, 0, 0, -0.2, 0, 356)"/>
<path fill="none" stroke-width="11.9553" stroke-linecap="butt" stroke-linejoin="miter" stroke="rgb(0%, 0%, 0%)" stroke-opacity="1" stroke-miterlimit="10" d="M 179.999997 801.132801 L 359.999995 801.132801 " transform="matrix(0.2, 0, 0, -0.2, 0, 356)"/>
<path fill="none" stroke-width="11.9553" stroke-linecap="butt" stroke-linejoin="miter" stroke="rgb(0%, 0%, 0%)" stroke-opacity="1" stroke-miterlimit="10" d="M 359.999995 981.132798 L 359.999995 801.132801 " transform="matrix(0.2, 0, 0, -0.2, 0, 356)"/>
<path fill-rule="nonzero" fill="rgb(0%, 0%, 0%)" fill-opacity="1" d="M 53.25 203.957031 C 53.25 203.957031 53.25 203.738281 52.96875 203.738281 C 52.65625 203.738281 50.5625 203.925781 50.1875 203.957031 C 50.03125 203.988281 49.90625 204.082031 49.90625 204.394531 C 49.90625 204.644531 50.09375 204.644531 50.40625 204.644531 C 51.46875 204.644531 51.5 204.800781 51.5 205.019531 L 51.4375 205.457031 L 50.125 210.613281 C 49.75 209.800781 49.125 209.207031 48.125 209.207031 C 45.5625 209.207031 42.875 212.425781 42.875 215.613281 C 42.875 217.675781 44.0625 219.113281 45.78125 219.113281 C 46.21875 219.113281 47.3125 219.019531 48.59375 217.457031 C 48.78125 218.394531 49.5625 219.113281 50.59375 219.113281 C 51.34375 219.113281 51.84375 218.613281 52.21875 217.894531 C 52.59375 217.113281 52.875 215.800781 52.875 215.738281 C 52.875 215.519531 52.65625 215.519531 52.59375 215.519531 C 52.375 215.519531 52.375 215.613281 52.28125 215.925781 C 51.9375 217.332031 51.53125 218.613281 50.625 218.613281 C 50.0625 218.613281 49.96875 218.050781 49.96875 217.613281 C 49.96875 217.082031 50.03125 216.957031 50.125 216.582031 Z M 48.71875 216.269531 C 48.59375 216.675781 48.59375 216.707031 48.28125 217.082031 C 47.3125 218.269531 46.4375 218.613281 45.8125 218.613281 C 44.71875 218.613281 44.40625 217.425781 44.40625 216.582031 C 44.40625 215.488281 45.125 212.800781 45.625 211.800781 C 46.3125 210.519531 47.28125 209.707031 48.15625 209.707031 C 49.5625 209.707031 49.875 211.488281 49.875 211.613281 C 49.875 211.738281 49.84375 211.894531 49.8125 211.988281 Z M 48.71875 216.269531 "/>
<path fill-rule="nonzero" fill="rgb(0%, 0%, 0%)" fill-opacity="1" d="M 60.5625 212.269531 C 60.6875 211.707031 61.1875 209.707031 62.71875 209.707031 C 62.84375 209.707031 63.34375 209.707031 63.8125 209.988281 C 63.21875 210.082031 62.78125 210.644531 62.78125 211.175781 C 62.78125 211.519531 63 211.925781 63.59375 211.925781 C 64.09375 211.925781 64.78125 211.519531 64.78125 210.675781 C 64.78125 209.519531 63.5 209.207031 62.75 209.207031 C 61.46875 209.207031 60.71875 210.363281 60.46875 210.894531 C 59.90625 209.425781 58.71875 209.207031 58.09375 209.207031 C 55.84375 209.207031 54.59375 212.050781 54.59375 212.582031 C 54.59375 212.800781 54.8125 212.800781 54.84375 212.800781 C 55.03125 212.800781 55.09375 212.769531 55.125 212.550781 C 55.875 210.238281 57.3125 209.707031 58.0625 209.707031 C 58.46875 209.707031 59.25 209.894531 59.25 211.175781 C 59.25 211.832031 58.875 213.300781 58.0625 216.363281 C 57.71875 217.707031 56.9375 218.613281 56 218.613281 C 55.84375 218.613281 55.34375 218.613281 54.90625 218.332031 C 55.4375 218.238281 55.90625 217.769531 55.90625 217.175781 C 55.90625 216.582031 55.4375 216.394531 55.125 216.394531 C 54.46875 216.394531 53.90625 216.957031 53.90625 217.675781 C 53.90625 218.675781 55 219.113281 55.96875 219.113281 C 57.40625 219.113281 58.1875 217.582031 58.25 217.457031 C 58.53125 218.238281 59.3125 219.113281 60.625 219.113281 C 62.84375 219.113281 64.09375 216.300781 64.09375 215.738281 C 64.09375 215.519531 63.90625 215.519531 63.84375 215.519531 C 63.65625 215.519531 63.59375 215.613281 63.5625 215.769531 C 62.84375 218.113281 61.34375 218.613281 60.65625 218.613281 C 59.8125 218.613281 59.46875 217.925781 59.46875 217.175781 C 59.46875 216.707031 59.59375 216.238281 59.8125 215.269531 Z M 60.5625 212.269531 "/>
<path fill-rule="nonzero" fill="rgb(0%, 0%, 0%)" fill-opacity="1" d="M 91.21875 168.386719 C 91.21875 168.386719 91.21875 168.167969 90.9375 168.167969 C 90.625 168.167969 88.53125 168.355469 88.15625 168.386719 C 88 168.417969 87.875 168.511719 87.875 168.824219 C 87.875 169.074219 88.0625 169.074219 88.375 169.074219 C 89.4375 169.074219 89.46875 169.230469 89.46875 169.449219 L 89.40625 169.886719 L 88.09375 175.042969 C 87.71875 174.230469 87.09375 173.636719 86.09375 173.636719 C 83.53125 173.636719 80.84375 176.855469 80.84375 180.042969 C 80.84375 182.105469 82.03125 183.542969 83.75 183.542969 C 84.1875 183.542969 85.28125 183.449219 86.5625 181.886719 C 86.75 182.824219 87.53125 183.542969 88.5625 183.542969 C 89.3125 183.542969 89.8125 183.042969 90.1875 182.324219 C 90.5625 181.542969 90.84375 180.230469 90.84375 180.167969 C 90.84375 179.949219 90.625 179.949219 90.5625 179.949219 C 90.34375 179.949219 90.34375 180.042969 90.25 180.355469 C 89.90625 181.761719 89.5 183.042969 88.59375 183.042969 C 88.03125 183.042969 87.9375 182.480469 87.9375 182.042969 C 87.9375 181.511719 88 181.386719 88.09375 181.011719 Z M 86.6875 180.699219 C 86.5625 181.105469 86.5625 181.136719 86.25 181.511719 C 85.28125 182.699219 84.40625 183.042969 83.78125 183.042969 C 82.6875 183.042969 82.375 181.855469 82.375 181.011719 C 82.375 179.917969 83.09375 177.230469 83.59375 176.230469 C 84.28125 174.949219 85.25 174.136719 86.125 174.136719 C 87.53125 174.136719 87.84375 175.917969 87.84375 176.042969 C 87.84375 176.167969 87.8125 176.324219 87.78125 176.417969 Z M 86.6875 180.699219 "/>
<path fill-rule="nonzero" fill="rgb(0%, 0%, 0%)" fill-opacity="1" d="M 101.84375 174.980469 C 101.9375 174.667969 101.9375 174.636719 101.9375 174.480469 C 101.9375 174.074219 101.625 173.886719 101.3125 173.886719 C 101.09375 173.886719 100.75 174.011719 100.53125 174.355469 C 100.5 174.449219 100.3125 175.136719 100.25 175.542969 C 100.09375 176.105469 99.9375 176.699219 99.8125 177.261719 L 98.8125 181.199219 C 98.71875 181.511719 97.78125 183.042969 96.34375 183.042969 C 95.25 183.042969 95 182.105469 95 181.292969 C 95 180.292969 95.375 178.917969 96.125 177.011719 C 96.46875 176.105469 96.5625 175.886719 96.5625 175.449219 C 96.5625 174.449219 95.84375 173.636719 94.75 173.636719 C 92.6875 173.636719 91.875 176.824219 91.875 177.011719 C 91.875 177.230469 92.09375 177.230469 92.15625 177.230469 C 92.375 177.230469 92.375 177.199219 92.5 176.824219 C 93.09375 174.792969 93.96875 174.136719 94.6875 174.136719 C 94.875 174.136719 95.25 174.136719 95.25 174.824219 C 95.25 175.386719 95.03125 175.949219 94.875 176.355469 C 94 178.667969 93.59375 179.917969 93.59375 180.949219 C 93.59375 182.886719 94.96875 183.542969 96.28125 183.542969 C 97.125 183.542969 97.84375 183.167969 98.46875 182.542969 C 98.1875 183.699219 97.9375 184.761719 97.0625 185.917969 C 96.5 186.636719 95.65625 187.292969 94.65625 187.292969 C 94.34375 187.292969 93.375 187.230469 93 186.355469 C 93.34375 186.355469 93.625 186.355469 93.9375 186.105469 C 94.15625 185.917969 94.375 185.636719 94.375 185.199219 C 94.375 184.542969 93.78125 184.449219 93.5625 184.449219 C 93.0625 184.449219 92.34375 184.792969 92.34375 185.855469 C 92.34375 186.949219 93.3125 187.761719 94.65625 187.761719 C 96.90625 187.761719 99.15625 185.792969 99.75 183.324219 Z M 101.84375 174.980469 "/>
<path fill="none" stroke-width="7.9701" stroke-linecap="butt" stroke-linejoin="miter" stroke="rgb(0%, 0%, 0%)" stroke-opacity="1" stroke-miterlimit="10" d="M 359.999995 321.601558 L 359.999995 345.585932 " transform="matrix(0.2, 0, 0, -0.2, 0, 356)"/>
<path fill="none" stroke-width="7.9701" stroke-linecap="butt" stroke-linejoin="miter" stroke="rgb(0%, 0%, 0%)" stroke-opacity="1" stroke-miterlimit="10" d="M 359.999995 393.515619 L 359.999995 417.499994 " transform="matrix(0.2, 0, 0, -0.2, 0, 356)"/>
<path fill="none" stroke-width="7.9701" stroke-linecap="butt" stroke-linejoin="miter" stroke="rgb(0%, 0%, 0%)" stroke-opacity="1" stroke-miterlimit="10" d="M 359.999995 417.499994 L 359.999995 441.484368 " transform="matrix(0.2, 0, 0, -0.2, 0, 356)"/>
<path fill="none" stroke-width="7.9701" stroke-linecap="butt" stroke-linejoin="miter" stroke="rgb(0%, 0%, 0%)" stroke-opacity="1" stroke-miterlimit="10" d="M 359.999995 489.414055 L 359.999995 513.39843 " transform="matrix(0.2, 0, 0, -0.2, 0, 356)"/>
<path fill="none" stroke-width="7.9701" stroke-linecap="butt" stroke-linejoin="miter" stroke="rgb(0%, 0%, 0%)" stroke-opacity="1" stroke-miterlimit="10" d="M 359.999995 513.39843 L 359.999995 537.382804 " transform="matrix(0.2, 0, 0, -0.2, 0, 356)"/>
<path fill="none" stroke-width="7.9701" stroke-linecap="butt" stroke-linejoin="miter" stroke="rgb(0%, 0%, 0%)" stroke-opacity="1" stroke-miterlimit="10" d="M 359.999995 585.351554 L 359.999995 609.296866 " transform="matrix(0.2, 0, 0, -0.2, 0, 356)"/>
<path fill="none" stroke-width="7.9701" stroke-linecap="butt" stroke-linejoin="miter" stroke="rgb(0%, 0%, 0%)" stroke-opacity="1" stroke-miterlimit="10" d="M 359.999995 609.296866 L 359.999995 633.281241 " transform="matrix(0.2, 0, 0, -0.2, 0, 356)"/>
<path fill="none" stroke-width="7.9701" stroke-linecap="butt" stroke-linejoin="miter" stroke="rgb(0%, 0%, 0%)" stroke-opacity="1" stroke-miterlimit="10" d="M 359.999995 681.24999 L 359.999995 705.234364 " transform="matrix(0.2, 0, 0, -0.2, 0, 356)"/>
<path fill="none" stroke-width="7.9701" stroke-linecap="butt" stroke-linejoin="miter" stroke="rgb(0%, 0%, 0%)" stroke-opacity="1" stroke-miterlimit="10" d="M 359.999995 705.234364 L 359.999995 729.179677 " transform="matrix(0.2, 0, 0, -0.2, 0, 356)"/>
<path fill="none" stroke-width="7.9701" stroke-linecap="butt" stroke-linejoin="miter" stroke="rgb(0%, 0%, 0%)" stroke-opacity="1" stroke-miterlimit="10" d="M 359.999995 777.148426 L 359.999995 801.132801 " transform="matrix(0.2, 0, 0, -0.2, 0, 356)"/>
<path fill-rule="nonzero" fill="rgb(100%, 100%, 100%)" fill-opacity="1" d="M -6.460938 230.3125 L 14.898438 230.3125 L 14.898438 257.429688 L -6.460938 257.429688 Z M -6.460938 230.3125 "/>
<path fill-rule="nonzero" fill="rgb(0%, 0%, 0%)" fill-opacity="1" d="M 4.539062 236.503906 C 4.539062 236.503906 4.539062 236.285156 4.257812 236.285156 C 3.757812 236.285156 2.164062 236.441406 1.601562 236.503906 C 1.414062 236.503906 1.164062 236.535156 1.164062 236.941406 C 1.164062 237.191406 1.382812 237.191406 1.695312 237.191406 C 2.757812 237.191406 2.789062 237.347656 2.789062 237.566406 C 2.789062 237.722656 2.601562 238.441406 2.476562 238.910156 L 0.695312 246.035156 C 0.445312 247.097656 0.351562 247.472656 0.351562 248.222656 C 0.351562 250.285156 1.507812 251.660156 3.101562 251.660156 C 5.695312 251.660156 8.382812 248.410156 8.382812 245.253906 C 8.382812 243.285156 7.226562 241.753906 5.476562 241.753906 C 4.476562 241.753906 3.570312 242.410156 2.914062 243.066406 Z M 2.476562 244.753906 C 2.601562 244.285156 2.601562 244.222656 2.820312 244.003906 C 3.882812 242.566406 4.851562 242.253906 5.414062 242.253906 C 6.226562 242.253906 6.789062 242.910156 6.789062 244.285156 C 6.789062 245.597656 6.070312 248.097656 5.695312 248.910156 C 4.976562 250.378906 3.976562 251.160156 3.101562 251.160156 C 2.382812 251.160156 1.664062 250.566406 1.664062 248.972656 C 1.664062 248.566406 1.664062 248.128906 2.007812 246.753906 Z M 2.476562 244.753906 "/>
<path fill-rule="nonzero" fill="rgb(0%, 0%, 0%)" fill-opacity="1" d="M 32.015625 199.757812 L 31.523438 199.960938 L 31.054688 200.164062 L 30.601562 200.375 L 30.164062 200.585938 L 29.75 200.804688 L 29.34375 201.023438 L 28.960938 201.242188 L 28.585938 201.46875 L 28.234375 201.703125 L 27.898438 201.9375 L 27.570312 202.171875 L 27.265625 202.414062 L 26.96875 202.65625 L 26.6875 202.90625 L 26.421875 203.15625 L 26.164062 203.40625 L 25.695312 203.921875 L 25.484375 204.1875 L 25.28125 204.453125 L 25.09375 204.726562 L 24.914062 205 L 24.742188 205.273438 L 24.585938 205.554688 L 24.4375 205.84375 L 24.304688 206.125 L 24.179688 206.414062 L 24.0625 206.710938 L 23.953125 207 L 23.859375 207.304688 L 23.773438 207.601562 L 23.6875 207.90625 L 23.617188 208.21875 L 23.546875 208.523438 L 23.492188 208.835938 L 23.398438 209.476562 L 23.359375 209.796875 L 23.335938 210.125 L 23.304688 210.453125 L 23.289062 210.78125 L 23.273438 211.117188 L 23.257812 211.789062 L 23.257812 212.132812 L 23.265625 212.476562 L 23.265625 212.820312 L 23.3125 213.875 L 23.34375 214.59375 L 23.367188 214.953125 L 23.390625 215.320312 L 23.421875 215.6875 L 23.445312 216.054688 L 23.492188 216.804688 L 23.523438 217.179688 L 23.546875 217.5625 L 23.570312 217.9375 L 23.59375 218.320312 L 23.617188 218.710938 L 23.632812 219.101562 L 23.65625 219.484375 L 23.671875 219.882812 L 23.679688 220.273438 L 23.695312 220.671875 L 23.695312 221.070312 L 23.703125 221.476562 L 23.695312 221.875 L 23.695312 222.28125 L 23.6875 222.6875 L 23.671875 223.101562 L 23.648438 223.507812 L 23.585938 224.335938 L 23.507812 225.179688 L 23.398438 226.023438 L 23.328125 226.445312 L 23.171875 227.304688 L 22.984375 228.164062 L 22.875 228.59375 L 22.757812 229.03125 L 22.492188 229.90625 L 22.335938 230.351562 L 22.179688 230.789062 L 22.007812 231.234375 L 21.828125 231.679688 L 21.632812 232.125 L 21.429688 232.578125 L 21.210938 233.023438 L 20.984375 233.476562 L 20.742188 233.929688 L 20.484375 234.382812 L 20.210938 234.835938 L 19.929688 235.296875 L 19.632812 235.75 L 19.320312 236.210938 L 18.992188 236.671875 L 18.648438 237.132812 L 18.289062 237.59375 L 17.921875 238.0625 L 17.53125 238.53125 L 17.125 238.992188 L 16.703125 239.460938 L 16.265625 239.9375 L 15.804688 240.40625 L 15.328125 240.875 L 14.835938 241.351562 L 14.320312 241.820312 L 13.796875 242.296875 L 13.242188 242.773438 L 12.679688 243.25 L 12.085938 243.726562 L 12.679688 244.203125 L 13.242188 244.679688 L 13.796875 245.15625 L 14.320312 245.632812 L 14.835938 246.109375 L 15.328125 246.578125 L 15.804688 247.054688 L 16.265625 247.523438 L 16.703125 247.992188 L 17.125 248.460938 L 17.53125 248.921875 L 17.921875 249.390625 L 18.289062 249.859375 L 18.648438 250.320312 L 18.992188 250.78125 L 19.320312 251.242188 L 19.632812 251.703125 L 19.929688 252.15625 L 20.210938 252.617188 L 20.484375 253.070312 L 20.742188 253.523438 L 20.984375 253.976562 L 21.210938 254.429688 L 21.429688 254.882812 L 21.632812 255.328125 L 21.828125 255.773438 L 22.007812 256.21875 L 22.179688 256.664062 L 22.335938 257.101562 L 22.492188 257.546875 L 22.757812 258.421875 L 22.875 258.859375 L 22.984375 259.289062 L 23.078125 259.71875 L 23.171875 260.15625 L 23.25 260.578125 L 23.328125 261.007812 L 23.398438 261.4375 L 23.507812 262.28125 L 23.546875 262.695312 L 23.585938 263.117188 L 23.648438 263.945312 L 23.671875 264.351562 L 23.6875 264.765625 L 23.695312 265.171875 L 23.695312 265.578125 L 23.703125 265.976562 L 23.695312 266.382812 L 23.695312 266.78125 L 23.679688 267.179688 L 23.671875 267.570312 L 23.65625 267.96875 L 23.632812 268.351562 L 23.617188 268.742188 L 23.59375 269.132812 L 23.546875 269.898438 L 23.523438 270.273438 L 23.492188 270.648438 L 23.445312 271.398438 L 23.421875 271.765625 L 23.390625 272.132812 L 23.367188 272.5 L 23.34375 272.859375 L 23.3125 273.578125 L 23.265625 274.632812 L 23.265625 274.976562 L 23.257812 275.320312 L 23.257812 275.664062 L 23.265625 276.007812 L 23.273438 276.34375 L 23.289062 276.671875 L 23.304688 277.007812 L 23.335938 277.328125 L 23.359375 277.65625 L 23.398438 277.976562 L 23.492188 278.617188 L 23.546875 278.929688 L 23.617188 279.242188 L 23.6875 279.546875 L 23.859375 280.15625 L 23.953125 280.453125 L 24.0625 280.742188 L 24.179688 281.039062 L 24.304688 281.328125 L 24.4375 281.617188 L 24.585938 281.898438 L 24.742188 282.179688 L 24.914062 282.453125 L 25.09375 282.726562 L 25.28125 283 L 25.484375 283.265625 L 25.695312 283.53125 L 26.164062 284.046875 L 26.421875 284.304688 L 26.6875 284.554688 L 26.96875 284.796875 L 27.265625 285.046875 L 27.570312 285.28125 L 27.898438 285.523438 L 28.234375 285.757812 L 28.585938 285.984375 L 28.960938 286.210938 L 29.34375 286.429688 L 29.75 286.65625 L 30.164062 286.867188 L 30.601562 287.078125 L 31.054688 287.289062 L 31.523438 287.492188 L 32.015625 287.695312 L 31.328125 287.398438 L 30.671875 287.09375 L 30.03125 286.796875 L 29.421875 286.5 L 28.828125 286.195312 L 28.265625 285.898438 L 27.71875 285.59375 L 27.203125 285.289062 L 26.695312 284.984375 L 26.21875 284.6875 L 25.765625 284.382812 L 25.328125 284.078125 L 24.90625 283.773438 L 24.507812 283.460938 L 24.132812 283.15625 L 23.773438 282.851562 L 23.4375 282.546875 L 23.109375 282.234375 L 22.804688 281.929688 L 22.523438 281.617188 L 22.25 281.304688 L 21.992188 280.992188 L 21.757812 280.679688 L 21.539062 280.367188 L 21.328125 280.054688 L 21.140625 279.742188 L 20.960938 279.421875 L 20.796875 279.109375 L 20.648438 278.789062 L 20.515625 278.46875 L 20.390625 278.148438 L 20.28125 277.835938 L 20.1875 277.507812 L 20.101562 277.1875 L 20.023438 276.867188 L 19.960938 276.539062 L 19.90625 276.21875 L 19.867188 275.890625 L 19.804688 275.234375 L 19.796875 274.90625 L 19.789062 274.570312 L 19.789062 274.242188 L 19.820312 273.570312 L 19.84375 273.234375 L 19.875 272.898438 L 19.914062 272.5625 L 19.960938 272.21875 L 20.007812 271.882812 L 20.117188 271.195312 L 20.179688 270.851562 L 20.25 270.507812 L 20.320312 270.15625 L 20.390625 269.8125 L 20.625 268.757812 L 20.703125 268.398438 L 20.789062 268.046875 L 20.875 267.6875 L 20.953125 267.328125 L 21.039062 266.96875 L 21.125 266.601562 L 21.203125 266.242188 L 21.289062 265.875 L 21.445312 265.140625 L 21.515625 264.773438 L 21.65625 264.023438 L 21.78125 263.273438 L 21.835938 262.890625 L 21.890625 262.515625 L 21.9375 262.132812 L 21.976562 261.742188 L 22.007812 261.359375 L 22.039062 260.96875 L 22.070312 260.1875 L 22.078125 259.796875 L 22.078125 259.398438 L 22.0625 259.007812 L 22.046875 258.601562 L 22.015625 258.203125 L 21.976562 257.796875 L 21.929688 257.390625 L 21.804688 256.578125 L 21.632812 255.75 L 21.523438 255.335938 L 21.40625 254.914062 L 21.28125 254.5 L 21.132812 254.078125 L 20.976562 253.648438 L 20.804688 253.226562 L 20.625 252.796875 L 20.421875 252.367188 L 20.210938 251.929688 L 19.976562 251.492188 L 19.734375 251.0625 L 19.46875 250.617188 L 19.1875 250.171875 L 18.890625 249.734375 L 18.578125 249.28125 L 18.242188 248.835938 L 17.890625 248.382812 L 17.523438 247.929688 L 17.132812 247.46875 L 16.726562 247.007812 L 16.296875 246.546875 L 15.851562 246.085938 L 15.375 245.617188 L 14.890625 245.148438 L 14.375 244.679688 L 13.84375 244.203125 L 13.28125 243.726562 L 13.84375 243.25 L 14.375 242.78125 L 14.890625 242.304688 L 15.375 241.835938 L 15.851562 241.367188 L 16.296875 240.90625 L 16.726562 240.445312 L 17.132812 239.984375 L 17.523438 239.53125 L 17.890625 239.070312 L 18.242188 238.617188 L 18.578125 238.171875 L 18.890625 237.726562 L 19.1875 237.28125 L 19.46875 236.835938 L 19.734375 236.398438 L 19.976562 235.960938 L 20.210938 235.523438 L 20.421875 235.09375 L 20.625 234.65625 L 20.804688 234.226562 L 20.976562 233.804688 L 21.132812 233.382812 L 21.28125 232.953125 L 21.40625 232.539062 L 21.523438 232.117188 L 21.632812 231.703125 L 21.71875 231.289062 L 21.804688 230.882812 L 21.867188 230.46875 L 21.929688 230.0625 L 21.976562 229.65625 L 22.015625 229.25 L 22.046875 228.851562 L 22.078125 228.054688 L 22.078125 227.65625 L 22.070312 227.265625 L 22.039062 226.484375 L 22.007812 226.09375 L 21.976562 225.710938 L 21.9375 225.328125 L 21.890625 224.9375 L 21.78125 224.1875 L 21.71875 223.804688 L 21.65625 223.429688 L 21.585938 223.054688 L 21.515625 222.6875 L 21.445312 222.3125 L 21.289062 221.578125 L 21.203125 221.210938 L 21.125 220.851562 L 21.039062 220.484375 L 20.953125 220.125 L 20.875 219.765625 L 20.789062 219.40625 L 20.703125 219.054688 L 20.625 218.695312 L 20.46875 217.992188 L 20.390625 217.648438 L 20.25 216.945312 L 20.179688 216.601562 L 20.117188 216.257812 L 20.007812 215.570312 L 19.960938 215.234375 L 19.914062 214.890625 L 19.875 214.554688 L 19.84375 214.21875 L 19.820312 213.882812 L 19.789062 213.210938 L 19.789062 212.882812 L 19.796875 212.554688 L 19.804688 212.21875 L 19.867188 211.5625 L 19.90625 211.242188 L 19.960938 210.914062 L 20.023438 210.585938 L 20.101562 210.265625 L 20.1875 209.945312 L 20.28125 209.625 L 20.390625 209.304688 L 20.515625 208.984375 L 20.648438 208.664062 L 20.796875 208.34375 L 20.960938 208.03125 L 21.140625 207.710938 L 21.328125 207.398438 L 21.539062 207.085938 L 21.757812 206.773438 L 21.992188 206.460938 L 22.25 206.148438 L 22.523438 205.84375 L 22.804688 205.53125 L 23.109375 205.21875 L 23.4375 204.914062 L 23.773438 204.601562 L 24.132812 204.296875 L 24.507812 203.992188 L 24.90625 203.6875 L 25.328125 203.382812 L 25.765625 203.070312 L 26.21875 202.773438 L 26.695312 202.46875 L 27.203125 202.164062 L 27.71875 201.859375 L 28.265625 201.5625 L 28.828125 201.257812 L 30.03125 200.65625 L 30.671875 200.359375 L 31.328125 200.0625 L 32.015625 199.757812 "/>
<path fill="none" stroke-width="3.985" stroke-linecap="butt" stroke-linejoin="miter" stroke="rgb(0%, 0%, 0%)" stroke-opacity="1" stroke-miterlimit="10" d="M 160.078123 781.210926 L 157.617185 780.195301 L 155.273435 779.179676 L 153.00781 778.124988 L 150.82031 777.070301 L 148.749998 775.976551 L 146.718748 774.882801 L 144.804685 773.789051 L 142.929685 772.656238 L 141.171873 771.484364 L 139.492185 770.312489 L 137.85156 769.140614 L 136.328123 767.929676 L 134.843748 766.718739 L 133.437498 765.468739 L 132.109373 764.218739 L 130.820311 762.968739 L 128.476561 760.390614 L 127.421873 759.062489 L 126.406248 757.734364 L 125.468748 756.367176 L 124.570311 754.999989 L 123.710936 753.632801 L 122.929686 752.226551 L 122.187498 750.781239 L 121.523436 749.374989 L 120.898436 747.929676 L 120.312498 746.445301 L 119.765623 744.999989 L 119.296873 743.476551 L 118.867186 741.992176 L 118.437498 740.468739 L 118.085936 738.906239 L 117.734373 737.382802 L 117.460936 735.820302 L 116.992186 732.617177 L 116.796873 731.015614 L 116.679686 729.374989 L 116.523436 727.734364 L 116.445311 726.093739 L 116.367186 724.414052 L 116.289061 721.054677 L 116.289061 719.335927 L 116.328123 717.617177 L 116.328123 715.898427 L 116.562498 710.624989 L 116.718748 707.031239 L 116.835936 705.234364 L 116.953123 703.398427 L 117.109373 701.56249 L 117.226561 699.726552 L 117.460936 695.976552 L 117.617186 694.101552 L 117.734373 692.18749 L 117.851561 690.31249 L 117.968748 688.398427 L 118.085936 686.445302 L 118.164061 684.492177 L 118.281248 682.578115 L 118.359373 680.585927 L 118.398436 678.632802 L 118.476561 676.640615 L 118.476561 674.648427 L 118.515623 672.617177 L 118.476561 670.62499 L 118.476561 668.59374 L 118.437498 666.56249 L 118.359373 664.492178 L 118.242186 662.460928 L 117.929686 658.320303 L 117.539061 654.101553 L 116.992186 649.882803 L 116.640623 647.773428 L 115.859373 643.476553 L 114.921873 639.179678 L 114.374998 637.031241 L 113.789061 634.843741 L 112.460936 630.468741 L 111.679686 628.242178 L 110.898436 626.054678 L 110.039061 623.828116 L 109.140623 621.601553 L 108.164061 619.374991 L 107.148436 617.109366 L 106.054686 614.882803 L 104.921873 612.617178 L 103.710936 610.351553 L 102.421873 608.085928 L 101.054686 605.820303 L 99.648436 603.515616 L 98.164061 601.249991 L 96.601561 598.945304 L 94.960936 596.640616 L 93.242186 594.335929 L 91.445311 592.031241 L 89.609374 589.687491 L 87.656249 587.343741 L 85.624999 585.039054 L 83.515624 582.695304 L 81.328124 580.312491 L 79.023436 577.968741 L 76.640624 575.624991 L 74.179686 573.242179 L 71.601561 570.898429 L 68.984374 568.515617 L 66.210937 566.132804 L 63.398437 563.749992 L 60.429687 561.367179 L 63.398437 558.984367 L 66.210937 556.601554 L 68.984374 554.218742 L 71.601561 551.835929 L 74.179686 549.453117 L 76.640624 547.109367 L 79.023436 544.726554 L 81.328124 542.382804 L 83.515624 540.039054 L 85.624999 537.695304 L 87.656249 535.390617 L 89.609374 533.046867 L 91.445311 530.703117 L 93.242186 528.39843 L 94.960936 526.093742 L 96.601561 523.789055 L 98.164061 521.484367 L 99.648436 519.218742 L 101.054686 516.914055 L 102.421873 514.64843 L 103.710936 512.382805 L 104.921873 510.11718 L 106.054686 507.851555 L 107.148436 505.58593 L 108.164061 503.359367 L 109.140623 501.132805 L 110.039061 498.906243 L 110.898436 496.67968 L 111.679686 494.49218 L 112.460936 492.265618 L 113.789061 487.890618 L 114.374998 485.703118 L 114.921873 483.55468 L 115.390623 481.406243 L 115.859373 479.218743 L 116.249998 477.109368 L 116.640623 474.96093 L 116.992186 472.812493 L 117.539061 468.593743 L 117.734373 466.523431 L 117.929686 464.414056 L 118.242186 460.273431 L 118.359373 458.242181 L 118.437498 456.171868 L 118.476561 454.140618 L 118.476561 452.109368 L 118.515623 450.117181 L 118.476561 448.085931 L 118.476561 446.093743 L 118.398436 444.101556 L 118.359373 442.148431 L 118.281248 440.156243 L 118.164061 438.242181 L 118.085936 436.289056 L 117.968748 434.335931 L 117.734373 430.507806 L 117.617186 428.632806 L 117.460936 426.757806 L 117.226561 423.007806 L 117.109373 421.171869 L 116.953123 419.335931 L 116.835936 417.499994 L 116.718748 415.703119 L 116.562498 412.109369 L 116.328123 406.835931 L 116.328123 405.117181 L 116.289061 403.398431 L 116.289061 401.679682 L 116.328123 399.960932 L 116.367186 398.281244 L 116.445311 396.640619 L 116.523436 394.960932 L 116.679686 393.359369 L 116.796873 391.718744 L 116.992186 390.117182 L 117.460936 386.914057 L 117.734373 385.351557 L 118.085936 383.789057 L 118.437498 382.265619 L 119.296873 379.218744 L 119.765623 377.734369 L 120.312498 376.289057 L 120.898436 374.804682 L 121.523436 373.359369 L 122.187498 371.914057 L 122.929686 370.507807 L 123.710936 369.101557 L 124.570311 367.73437 L 125.468748 366.367182 L 126.406248 364.999995 L 127.421873 363.67187 L 128.476561 362.343745 L 130.820311 359.76562 L 132.109373 358.476557 L 133.437498 357.226557 L 134.843748 356.01562 L 136.328123 354.76562 L 137.85156 353.593745 L 139.492185 352.382807 L 141.171873 351.210932 L 142.929685 350.07812 L 144.804685 348.945307 L 146.718748 347.851557 L 148.749998 346.718745 L 150.82031 345.664057 L 153.00781 344.60937 L 155.273435 343.554682 L 157.617185 342.539057 L 160.078123 341.523432 L 156.640623 343.007807 L 153.359373 344.531245 L 150.156248 346.01562 L 147.109373 347.499995 L 144.140623 349.023432 L 141.328123 350.507807 L 138.593748 352.031245 L 136.015623 353.554682 L 133.476561 355.07812 L 131.093748 356.562495 L 128.828123 358.085932 L 126.640623 359.60937 L 124.531248 361.132807 L 122.539061 362.695307 L 120.664061 364.218745 L 118.867186 365.742182 L 117.187498 367.26562 L 115.546873 368.82812 L 114.023436 370.351557 L 112.617186 371.914057 L 111.249998 373.476557 L 109.960936 375.039057 L 108.789061 376.601557 L 107.695311 378.164057 L 106.640623 379.726557 L 105.703123 381.289057 L 104.804686 382.890619 L 103.984373 384.453119 L 103.242186 386.054682 L 102.578123 387.656244 L 101.953123 389.257807 L 101.406248 390.820307 L 100.937498 392.460932 L 100.507811 394.062494 L 100.117186 395.664057 L 99.804686 397.304682 L 99.531249 398.906244 L 99.335936 400.546869 L 99.023436 403.828119 L 98.984374 405.468744 L 98.945311 407.148431 L 98.945311 408.789056 L 99.101561 412.148431 L 99.218749 413.828119 L 99.374999 415.507806 L 99.570311 417.187494 L 99.804686 418.906244 L 100.039061 420.585931 L 100.585936 424.023431 L 100.898436 425.742181 L 101.249998 427.460931 L 101.601561 429.218744 L 101.953123 430.937494 L 103.124998 436.210931 L 103.515623 438.007806 L 103.945311 439.765618 L 104.374998 441.562493 L 104.765623 443.359368 L 105.195311 445.156243 L 105.624998 446.992181 L 106.015623 448.789056 L 106.445311 450.624993 L 107.226561 454.296868 L 107.578123 456.132806 L 108.281248 459.882806 L 108.906248 463.632806 L 109.179686 465.546868 L 109.453123 467.421868 L 109.687498 469.335931 L 109.882811 471.289055 L 110.039061 473.203118 L 110.195311 475.156243 L 110.351561 479.062493 L 110.390623 481.015618 L 110.390623 483.007805 L 110.312498 484.96093 L 110.234373 486.99218 L 110.078123 488.984368 L 109.882811 491.015618 L 109.648436 493.046868 L 109.023436 497.109368 L 108.164061 501.249993 L 107.617186 503.320305 L 107.031248 505.42968 L 106.406248 507.499992 L 105.664061 509.609367 L 104.882811 511.757805 L 104.023436 513.86718 L 103.124998 516.015617 L 102.109373 518.164055 L 101.054686 520.351555 L 99.882811 522.539055 L 98.671874 524.687492 L 97.343749 526.914055 L 95.937499 529.140617 L 94.453124 531.328117 L 92.890624 533.593742 L 91.210936 535.820305 L 89.453124 538.085929 L 87.617186 540.351554 L 85.664061 542.656242 L 83.632811 544.960929 L 81.484374 547.265617 L 79.257811 549.570304 L 76.874999 551.914054 L 74.453124 554.257804 L 71.874999 556.601554 L 69.218749 558.984367 L 66.406249 561.367179 L 69.218749 563.749992 L 71.874999 566.093742 L 74.453124 568.476554 L 76.874999 570.820304 L 79.257811 573.164054 L 81.484374 575.468741 L 83.632811 577.773429 L 85.664061 580.078116 L 87.617186 582.343741 L 89.453124 584.648429 L 91.210936 586.914054 L 92.890624 589.140616 L 94.453124 591.367179 L 95.937499 593.593741 L 97.343749 595.820304 L 98.671874 598.007804 L 99.882811 600.195304 L 101.054686 602.382804 L 102.109373 604.531241 L 103.124998 606.718741 L 104.023436 608.867178 L 104.882811 610.976553 L 105.664061 613.085928 L 106.406248 615.234366 L 107.031248 617.304678 L 107.617186 619.414053 L 108.164061 621.484366 L 108.593748 623.554678 L 109.023436 625.585928 L 109.335936 627.656241 L 109.648436 629.687491 L 109.882811 631.718741 L 110.078123 633.749991 L 110.234373 635.742178 L 110.390623 639.726553 L 110.390623 641.71874 L 110.351561 643.671865 L 110.195311 647.578115 L 110.039061 649.53124 L 109.882811 651.445303 L 109.687498 653.359365 L 109.453123 655.31249 L 108.906248 659.06249 L 108.593748 660.976553 L 108.281248 662.851553 L 107.929686 664.726553 L 107.578123 666.56249 L 107.226561 668.43749 L 106.445311 672.109365 L 106.015623 673.945302 L 105.624998 675.742177 L 105.195311 677.578115 L 104.765623 679.37499 L 104.374998 681.171865 L 103.945311 682.96874 L 103.515623 684.726552 L 103.124998 686.523427 L 102.343748 690.039052 L 101.953123 691.757802 L 101.249998 695.273427 L 100.898436 696.992177 L 100.585936 698.710927 L 100.039061 702.148427 L 99.804686 703.828115 L 99.570311 705.546864 L 99.374999 707.226552 L 99.218749 708.906239 L 99.101561 710.585927 L 98.945311 713.945302 L 98.945311 715.585927 L 98.984374 717.226552 L 99.023436 718.906239 L 99.335936 722.187489 L 99.531249 723.789052 L 99.804686 725.429677 L 100.117186 727.070302 L 100.507811 728.671864 L 100.937498 730.273427 L 101.406248 731.874989 L 101.953123 733.476552 L 102.578123 735.078114 L 103.242186 736.679677 L 103.984373 738.281239 L 104.804686 739.843739 L 105.703123 741.445301 L 106.640623 743.007801 L 107.695311 744.570301 L 108.789061 746.132801 L 109.960936 747.695301 L 111.249998 749.257801 L 112.617186 750.781239 L 114.023436 752.343739 L 115.546873 753.906239 L 117.187498 755.429676 L 118.867186 756.992176 L 120.664061 758.515614 L 122.539061 760.039051 L 124.531248 761.562489 L 126.640623 763.085926 L 128.828123 764.648426 L 131.093748 766.132801 L 133.476561 767.656239 L 136.015623 769.179676 L 138.593748 770.703114 L 141.328123 772.187488 L 144.140623 773.710926 L 150.156248 776.718738 L 153.359373 778.203113 L 156.640623 779.687488 Z M 160.078123 781.210926 " transform="matrix(0.2, 0, 0, -0.2, 0, 356)"/>
<path fill-rule="nonzero" fill="rgb(100%, 100%, 100%)" fill-opacity="1" d="M 6.695312 291.703125 L 35.976562 291.703125 L 35.976562 318.585938 L 6.695312 318.585938 Z M 6.695312 291.703125 "/>
<path fill-rule="nonzero" fill="rgb(0%, 0%, 0%)" fill-opacity="1" d="M 28.875 303.058594 C 28.875 299.527344 26.5625 297.183594 23.3125 297.183594 C 18.59375 297.183594 13.78125 302.121094 13.78125 307.214844 C 13.78125 310.839844 16.21875 313.027344 19.375 313.027344 C 24 313.027344 28.875 308.246094 28.875 303.058594 Z M 19.5 312.464844 C 17.34375 312.464844 15.8125 310.714844 15.8125 307.839844 C 15.8125 306.871094 16.125 303.683594 17.8125 301.121094 C 19.3125 298.871094 21.4375 297.714844 23.15625 297.714844 C 24.96875 297.714844 26.90625 298.933594 26.90625 302.183594 C 26.90625 303.777344 26.34375 307.183594 24.15625 309.839844 C 23.125 311.183594 21.34375 312.464844 19.5 312.464844 Z M 19.5 312.464844 "/>
<path fill-rule="nonzero" fill="rgb(100%, 100%, 100%)" fill-opacity="1" d="M 304.15625 291.703125 L 336.078125 291.703125 L 336.078125 318.585938 L 304.15625 318.585938 Z M 304.15625 291.703125 "/>
<path fill-rule="nonzero" fill="rgb(0%, 0%, 0%)" fill-opacity="1" d="M 320.773438 303.589844 L 318.929688 299.246094 C 318.867188 299.089844 318.804688 298.996094 318.804688 298.964844 C 318.804688 298.839844 319.179688 298.433594 320.117188 298.339844 C 320.335938 298.308594 320.554688 298.308594 320.554688 297.933594 C 320.554688 297.652344 320.273438 297.652344 320.210938 297.652344 C 319.304688 297.652344 318.367188 297.714844 317.460938 297.714844 C 316.929688 297.714844 315.554688 297.652344 315.023438 297.652344 C 314.898438 297.652344 314.617188 297.652344 314.617188 298.089844 C 314.617188 298.339844 314.835938 298.339844 315.117188 298.339844 C 316.429688 298.339844 316.585938 298.558594 316.773438 299.027344 L 319.335938 305.121094 L 314.742188 310.058594 L 314.460938 310.308594 C 313.398438 311.464844 312.367188 311.808594 311.242188 311.871094 C 310.960938 311.902344 310.773438 311.902344 310.773438 312.308594 C 310.773438 312.339844 310.773438 312.558594 311.054688 312.558594 C 311.710938 312.558594 312.429688 312.496094 313.117188 312.496094 C 313.898438 312.496094 314.773438 312.558594 315.554688 312.558594 C 315.679688 312.558594 315.929688 312.558594 315.929688 312.121094 C 315.929688 311.902344 315.710938 311.871094 315.679688 311.871094 C 315.492188 311.871094 314.804688 311.808594 314.804688 311.214844 C 314.804688 310.871094 315.117188 310.496094 315.398438 310.214844 L 317.617188 307.871094 L 319.585938 305.746094 L 321.773438 310.933594 C 321.867188 311.183594 321.898438 311.214844 321.898438 311.246094 C 321.898438 311.433594 321.492188 311.808594 320.617188 311.871094 C 320.398438 311.902344 320.179688 311.933594 320.179688 312.308594 C 320.179688 312.558594 320.429688 312.558594 320.523438 312.558594 C 321.117188 312.558594 322.648438 312.496094 323.273438 312.496094 C 323.804688 312.496094 325.148438 312.558594 325.679688 312.558594 C 325.835938 312.558594 326.117188 312.558594 326.117188 312.152344 C 326.117188 311.871094 325.898438 311.871094 325.710938 311.871094 C 324.242188 311.871094 324.210938 311.808594 323.835938 310.933594 C 322.992188 308.902344 321.523438 305.496094 321.023438 304.183594 C 322.492188 302.652344 324.804688 300.058594 325.492188 299.464844 C 326.117188 298.933594 326.960938 298.402344 328.273438 298.339844 C 328.554688 298.308594 328.742188 298.308594 328.742188 297.902344 C 328.742188 297.871094 328.742188 297.652344 328.460938 297.652344 C 327.804688 297.652344 327.085938 297.714844 326.398438 297.714844 C 325.585938 297.714844 324.773438 297.652344 323.992188 297.652344 C 323.867188 297.652344 323.585938 297.652344 323.585938 298.089844 C 323.585938 298.246094 323.679688 298.308594 323.835938 298.339844 C 324.023438 298.371094 324.710938 298.402344 324.710938 299.027344 C 324.710938 299.308594 324.460938 299.589844 324.304688 299.808594 Z M 320.773438 303.589844 "/>
<path fill-rule="nonzero" fill="rgb(100%, 100%, 100%)" fill-opacity="1" d="M 6.453125 -5.757812 L 35.976562 -5.757812 L 35.976562 21.125 L 6.453125 21.125 Z M 6.453125 -5.757812 "/>
<path fill-rule="nonzero" fill="rgb(0%, 0%, 0%)" fill-opacity="1" d="M 25.511719 2.695312 L 25.792969 2.382812 C 26.449219 1.726562 27.167969 0.976562 28.667969 0.882812 C 28.917969 0.851562 29.105469 0.851562 29.105469 0.476562 C 29.105469 0.289062 28.980469 0.195312 28.824219 0.195312 C 28.261719 0.195312 27.605469 0.257812 27.042969 0.257812 C 26.324219 0.257812 25.542969 0.195312 24.855469 0.195312 C 24.730469 0.195312 24.449219 0.195312 24.449219 0.632812 C 24.449219 0.851562 24.636719 0.882812 24.761719 0.882812 C 24.917969 0.882812 25.542969 0.914062 25.542969 1.382812 C 25.542969 1.757812 25.042969 2.320312 24.949219 2.414062 L 19.886719 8.257812 L 17.511719 1.789062 C 17.355469 1.476562 17.355469 1.414062 17.355469 1.414062 C 17.355469 0.882812 18.449219 0.882812 18.667969 0.882812 C 18.949219 0.882812 19.167969 0.882812 19.167969 0.445312 C 19.167969 0.195312 18.917969 0.195312 18.855469 0.195312 C 18.230469 0.195312 16.699219 0.257812 16.105469 0.257812 C 15.542969 0.257812 14.199219 0.195312 13.667969 0.195312 C 13.542969 0.195312 13.230469 0.195312 13.230469 0.632812 C 13.230469 0.882812 13.449219 0.882812 13.730469 0.882812 C 15.042969 0.882812 15.136719 1.070312 15.324219 1.632812 L 18.011719 8.789062 C 18.042969 8.851562 18.105469 9.101562 18.105469 9.164062 C 18.105469 9.226562 17.230469 12.757812 17.136719 13.132812 C 16.855469 14.351562 16.824219 14.414062 15.074219 14.414062 C 14.667969 14.414062 14.480469 14.414062 14.480469 14.851562 C 14.480469 15.101562 14.761719 15.101562 14.792969 15.101562 C 15.417969 15.101562 16.917969 15.039062 17.542969 15.039062 C 18.136719 15.039062 19.730469 15.101562 20.324219 15.101562 C 20.480469 15.101562 20.761719 15.101562 20.761719 14.664062 C 20.761719 14.414062 20.542969 14.414062 20.136719 14.414062 C 20.105469 14.414062 19.667969 14.414062 19.292969 14.382812 C 18.855469 14.351562 18.730469 14.289062 18.730469 14.039062 C 18.730469 13.882812 18.917969 13.101562 19.011719 12.664062 L 19.792969 9.570312 C 19.886719 9.164062 19.917969 9.101562 20.105469 8.914062 Z M 25.511719 2.695312 "/>
<path fill="none" stroke-width="11.9553" stroke-linecap="butt" stroke-linejoin="miter" stroke="rgb(0%, 0%, 0%)" stroke-opacity="1" stroke-miterlimit="10" d="M 36.015624 321.601558 L 1620.039038 321.601558 " transform="matrix(0.2, 0, 0, -0.2, 0, 356)"/>
<path fill="none" stroke-width="11.9553" stroke-linecap="butt" stroke-linejoin="miter" stroke="rgb(0%, 0%, 0%)" stroke-opacity="1" stroke-miterlimit="10" d="M 179.999997 177.617185 L 179.999997 1761.601536 " transform="matrix(0.2, 0, 0, -0.2, 0, 356)"/>
<path fill-rule="nonzero" fill="rgb(0%, 0%, 0%)" fill-opacity="1" d="M 135.597656 348.300781 C 136.785156 347.894531 138.785156 347.300781 138.785156 345.363281 C 138.785156 343.050781 136.066406 341.988281 134.097656 341.988281 C 133.160156 341.988281 132.191406 342.207031 131.347656 342.707031 C 131.222656 342.769531 131.066406 342.957031 130.910156 342.957031 C 130.597656 342.957031 130.035156 341.988281 129.722656 341.988281 C 129.535156 341.988281 129.503906 342.207031 129.503906 342.300781 L 129.503906 345.863281 C 129.503906 345.988281 129.597656 346.144531 129.785156 346.144531 C 130.097656 346.144531 130.066406 345.519531 130.160156 345.175781 C 130.628906 343.457031 132.191406 342.707031 133.691406 342.613281 L 134.097656 342.613281 C 135.441406 342.613281 137.003906 343.488281 137.003906 345.363281 C 137.003906 347.175781 135.222656 348.113281 133.566406 348.113281 C 133.253906 348.113281 132.941406 348.113281 132.628906 348.113281 L 132.472656 348.113281 C 132.285156 348.113281 132.066406 348.113281 132.066406 348.332031 L 132.066406 348.363281 C 132.097656 348.550781 132.285156 348.582031 132.472656 348.582031 L 134.316406 348.582031 C 135.878906 348.707031 137.316406 349.738281 137.472656 351.363281 L 137.472656 351.582031 C 137.472656 353.425781 135.753906 354.582031 134.003906 354.582031 C 132.097656 354.582031 130.128906 353.957031 129.816406 351.582031 C 129.816406 351.425781 129.753906 351.238281 129.535156 351.238281 C 129.316406 351.269531 129.285156 351.425781 129.285156 351.582031 C 129.285156 354.175781 131.878906 355.207031 134.128906 355.207031 C 136.191406 355.207031 139.066406 354.238281 139.316406 351.769531 L 139.316406 351.644531 C 139.316406 349.675781 137.253906 348.707031 135.597656 348.300781 Z M 135.597656 348.300781 "/>
<path fill-rule="nonzero" fill="rgb(0%, 0%, 0%)" fill-opacity="1" d="M 147.695312 341.988281 C 144.320312 342.394531 141.632812 345.050781 141.632812 348.644531 C 141.632812 351.925781 144.226562 355.175781 148.101562 355.175781 C 151.601562 355.175781 154.570312 352.269531 154.570312 348.644531 C 154.570312 345.457031 152.070312 341.988281 148.132812 341.988281 C 148.007812 341.988281 147.851562 341.988281 147.695312 341.988281 Z M 143.507812 348.863281 L 143.507812 348.519531 C 143.507812 346.019531 144.414062 343.082031 147.570312 342.550781 C 147.757812 342.519531 147.914062 342.519531 148.101562 342.519531 C 150.914062 342.519531 152.664062 345.238281 152.664062 348.269531 C 152.664062 350.675781 151.945312 353.738281 148.976562 354.519531 C 148.695312 354.582031 148.414062 354.613281 148.132812 354.613281 L 147.945312 354.613281 C 145.351562 354.519531 143.945312 352.050781 143.601562 349.644531 Z M 143.507812 348.863281 "/>
<path fill-rule="nonzero" fill="rgb(0%, 0%, 0%)" fill-opacity="1" d="M 157.027344 342.332031 L 157.027344 342.925781 L 157.464844 342.925781 C 158.058594 342.925781 158.683594 343.019531 158.683594 343.894531 L 158.683594 353.363281 C 158.683594 354.207031 157.964844 354.238281 157.308594 354.238281 L 157.027344 354.238281 L 157.027344 354.832031 L 162.808594 354.832031 C 163.214844 354.832031 163.589844 354.863281 163.996094 354.863281 C 165.996094 354.863281 168.339844 353.925781 168.558594 351.519531 L 168.558594 351.332031 C 168.558594 348.800781 165.683594 347.769531 163.777344 347.769531 C 162.527344 347.769531 161.339844 347.894531 160.152344 347.988281 L 160.152344 343.769531 C 160.152344 343.332031 160.214844 342.925781 160.996094 342.925781 L 163.308594 342.925781 C 164.277344 342.925781 165.371094 342.988281 166.089844 343.707031 C 166.777344 344.425781 166.871094 345.644531 166.964844 346.582031 L 167.496094 346.582031 L 167.027344 342.332031 Z M 160.152344 348.613281 C 160.402344 348.613281 160.652344 348.550781 160.902344 348.519531 L 162.277344 348.457031 C 162.558594 348.425781 162.839844 348.394531 163.152344 348.394531 C 164.714844 348.394531 166.683594 349.394531 166.683594 351.238281 C 166.683594 352.988281 165.339844 354.269531 163.339844 354.269531 C 163.058594 354.269531 162.746094 354.238281 162.496094 354.238281 L 160.964844 354.238281 C 160.496094 354.238281 160.246094 354.207031 160.152344 353.582031 Z M 160.152344 348.613281 "/>
<path fill-rule="nonzero" fill="rgb(0%, 0%, 0%)" fill-opacity="1" d="M 170.90625 342.332031 L 170.90625 342.925781 L 171.375 342.925781 C 171.96875 342.925781 172.5625 343.019531 172.5625 343.894531 L 172.5625 353.363281 C 172.5625 354.207031 171.875 354.238281 171.1875 354.238281 L 170.90625 354.238281 L 170.90625 354.832031 L 175.8125 354.832031 L 175.8125 354.238281 L 175.375 354.238281 C 174.75 354.238281 174.15625 354.175781 174.15625 353.300781 L 174.15625 349.113281 L 177.875 349.113281 C 179.65625 348.988281 181.9375 347.800781 181.9375 345.769531 C 181.9375 343.550781 179.59375 342.488281 177.6875 342.332031 Z M 174.125 348.582031 L 174.125 343.582031 C 174.21875 342.988281 174.46875 342.925781 174.875 342.925781 L 176.3125 342.925781 C 177.9375 342.925781 180.0625 342.988281 180.0625 345.769531 C 180.0625 346.425781 179.96875 347.113281 179.5625 347.613281 C 178.90625 348.394531 177.8125 348.582031 176.84375 348.582031 Z M 174.125 348.582031 "/>
<path fill-rule="nonzero" fill="rgb(0%, 0%, 0%)" fill-opacity="1" d="M 186.632812 352.550781 C 186.132812 352.644531 185.632812 353.082031 185.632812 353.675781 C 185.632812 354.300781 186.164062 354.832031 186.789062 354.832031 C 187.414062 354.832031 187.976562 354.363281 187.976562 353.707031 C 187.976562 353.082031 187.445312 352.519531 186.820312 352.519531 C 186.757812 352.519531 186.695312 352.550781 186.632812 352.550781 Z M 186.632812 352.550781 "/>
<path fill-rule="nonzero" fill="rgb(0%, 0%, 0%)" fill-opacity="1" d="M 201.816406 340.457031 L 201.816406 341.175781 C 202.910156 341.175781 203.941406 340.988281 204.972656 340.519531 L 204.972656 353.082031 C 204.972656 354.019531 204.066406 354.175781 203.097656 354.175781 C 202.691406 354.175781 202.285156 354.144531 201.941406 354.144531 L 201.941406 354.832031 L 209.660156 354.832031 L 209.660156 354.144531 C 209.285156 354.144531 208.847656 354.175781 208.441406 354.175781 C 207.503906 354.175781 206.628906 354.019531 206.628906 353.113281 L 206.628906 339.300781 C 206.628906 339.144531 206.597656 338.957031 206.347656 338.957031 C 206.035156 338.957031 205.691406 339.394531 205.378906 339.582031 C 204.316406 340.269531 203.035156 340.457031 201.816406 340.457031 Z M 201.816406 340.457031 "/>
<path fill-rule="nonzero" fill="rgb(0%, 0%, 0%)" fill-opacity="1" d="M 221.339844 347.050781 L 221.371094 347.050781 C 221.371094 349.175781 221.339844 351.550781 219.933594 353.300781 C 219.246094 354.144531 218.277344 354.707031 217.152344 354.707031 C 216.246094 354.707031 215.277344 354.519531 214.683594 353.800781 C 215.246094 353.800781 215.839844 353.582031 215.839844 352.832031 C 215.839844 352.332031 215.527344 351.800781 214.871094 351.800781 C 214.339844 351.800781 213.871094 352.175781 213.839844 352.738281 L 213.839844 352.832031 C 213.839844 354.613281 215.558594 355.332031 217.246094 355.332031 C 219.277344 355.332031 220.839844 354.113281 221.839844 352.519531 C 222.964844 350.863281 223.339844 348.894531 223.339844 346.957031 C 223.339844 344.144531 222.871094 340.425781 219.871094 339.207031 C 219.371094 339.019531 218.808594 338.957031 218.277344 338.957031 C 215.308594 338.957031 213.277344 341.582031 213.277344 344.332031 C 213.277344 346.832031 215.027344 349.613281 217.964844 349.613281 C 219.464844 349.613281 220.902344 348.675781 221.339844 347.050781 Z M 221.308594 344.238281 C 221.308594 344.457031 221.339844 344.707031 221.339844 344.957031 C 221.246094 346.707031 220.433594 349.113281 218.121094 349.113281 C 215.746094 349.113281 215.246094 346.488281 215.246094 344.644531 L 215.246094 343.488281 C 215.277344 341.800781 215.996094 339.519531 218.277344 339.519531 C 220.777344 339.519531 221.308594 342.488281 221.308594 344.019531 Z M 221.308594 344.238281 "/>
<path fill-rule="nonzero" fill="rgb(0%, 0%, 0%)" fill-opacity="1" d="M 228.140625 352.550781 C 227.640625 352.644531 227.140625 353.082031 227.140625 353.675781 C 227.140625 354.300781 227.671875 354.832031 228.296875 354.832031 C 228.921875 354.832031 229.484375 354.363281 229.484375 353.707031 C 229.484375 353.082031 228.953125 352.519531 228.328125 352.519531 C 228.265625 352.519531 228.203125 352.550781 228.140625 352.550781 Z M 228.140625 352.550781 "/>
</svg>
