<?xml version="1.0" encoding="UTF-8"?>
<svg xmlns="http://www.w3.org/2000/svg" xmlns:xlink="http://www.w3.org/1999/xlink" width="416" height="388" viewBox="0 0 416 388">
<path fill="none" stroke-width="11.9553" stroke-linecap="butt" stroke-linejoin="miter" stroke="rgb(0%, 0%, 0%)" stroke-opacity="1" stroke-miterlimit="10" d="M 0 591.601554 L 1980.039033 591.601554 " transform="matrix(0.2, 0, 0, -0.2, 0, 388)"/>
<path fill-rule="nonzero" fill="rgb(0%, 0%, 0%)" fill-opacity="1" d="M 19.277344 251.03125 C 19.652344 251.03125 20.027344 251.03125 20.027344 250.625 C 20.027344 250.1875 19.652344 250.1875 19.277344 250.1875 L 7.464844 250.1875 C 7.089844 250.1875 6.714844 250.1875 6.714844 250.625 C 6.714844 251.03125 7.089844 251.03125 7.464844 251.03125 Z M 19.277344 251.03125 "/>
<path fill-rule="nonzero" fill="rgb(0%, 0%, 0%)" fill-opacity="1" d="M 28.257812 248.375 C 30.070312 247.78125 31.320312 246.28125 31.320312 244.53125 C 31.320312 242.75 29.414062 241.53125 27.320312 241.53125 C 25.101562 241.53125 23.445312 242.84375 23.445312 244.5 C 23.445312 245.21875 23.945312 245.625 24.570312 245.625 C 25.226562 245.625 25.664062 245.15625 25.664062 244.53125 C 25.664062 243.4375 24.664062 243.4375 24.320312 243.4375 C 25.007812 242.375 26.445312 242.09375 27.226562 242.09375 C 28.132812 242.09375 29.320312 242.5625 29.320312 244.53125 C 29.320312 244.78125 29.289062 246.0625 28.695312 247 C 28.039062 248.0625 27.320312 248.125 26.757812 248.15625 C 26.601562 248.15625 26.070312 248.21875 25.914062 248.21875 C 25.726562 248.21875 25.601562 248.25 25.601562 248.46875 C 25.601562 248.71875 25.726562 248.71875 26.101562 248.71875 L 27.070312 248.71875 C 28.851562 248.71875 29.664062 250.1875 29.664062 252.34375 C 29.664062 255.3125 28.164062 255.9375 27.195312 255.9375 C 26.257812 255.9375 24.632812 255.5625 23.851562 254.28125 C 24.632812 254.375 25.289062 253.90625 25.289062 253.0625 C 25.289062 252.28125 24.726562 251.84375 24.070312 251.84375 C 23.570312 251.84375 22.851562 252.15625 22.851562 253.125 C 22.851562 255.09375 24.882812 256.53125 27.257812 256.53125 C 29.914062 256.53125 31.914062 254.5625 31.914062 252.34375 C 31.914062 250.53125 30.539062 248.84375 28.257812 248.375 Z M 28.257812 248.375 "/>
<path fill-rule="nonzero" fill="rgb(0%, 0%, 0%)" fill-opacity="1" d="M 63.28125 251.03125 C 63.65625 251.03125 64.03125 251.03125 64.03125 250.625 C 64.03125 250.1875 63.65625 250.1875 63.28125 250.1875 L 51.46875 250.1875 C 51.09375 250.1875 50.71875 250.1875 50.71875 250.625 C 50.71875 251.03125 51.09375 251.03125 51.46875 251.03125 Z M 63.28125 251.03125 "/>
<path fill-rule="nonzero" fill="rgb(0%, 0%, 0%)" fill-opacity="1" d="M 68.726562 254.375 L 71.039062 252.125 C 74.445312 249.125 75.726562 247.9375 75.726562 245.78125 C 75.726562 243.28125 73.789062 241.53125 71.101562 241.53125 C 68.664062 241.53125 67.039062 243.53125 67.039062 245.46875 C 67.039062 246.71875 68.132812 246.71875 68.195312 246.71875 C 68.570312 246.71875 69.320312 246.4375 69.320312 245.5625 C 69.320312 244.96875 68.945312 244.40625 68.164062 244.40625 C 68.007812 244.40625 67.945312 244.40625 67.882812 244.4375 C 68.382812 243.03125 69.570312 242.21875 70.820312 242.21875 C 72.820312 242.21875 73.757812 243.96875 73.757812 245.78125 C 73.757812 247.5 72.664062 249.25 71.476562 250.59375 L 67.289062 255.25 C 67.039062 255.5 67.039062 255.53125 67.039062 256.0625 L 75.132812 256.0625 L 75.726562 252.28125 L 75.195312 252.28125 C 75.070312 252.90625 74.945312 253.875 74.726562 254.21875 C 74.570312 254.375 73.132812 254.375 72.632812 254.375 Z M 68.726562 254.375 "/>
<path fill-rule="nonzero" fill="rgb(0%, 0%, 0%)" fill-opacity="1" d="M 107.277344 251.03125 C 107.652344 251.03125 108.027344 251.03125 108.027344 250.625 C 108.027344 250.1875 107.652344 250.1875 107.277344 250.1875 L 95.464844 250.1875 C 95.089844 250.1875 94.714844 250.1875 94.714844 250.625 C 94.714844 251.03125 95.089844 251.03125 95.464844 251.03125 Z M 107.277344 251.03125 "/>
<path fill-rule="nonzero" fill="rgb(0%, 0%, 0%)" fill-opacity="1" d="M 116.351562 242.09375 C 116.351562 241.59375 116.351562 241.53125 115.851562 241.53125 C 114.507812 242.9375 112.570312 242.9375 111.882812 242.9375 L 111.882812 243.59375 C 112.320312 243.59375 113.601562 243.59375 114.757812 243.03125 L 114.757812 254.34375 C 114.757812 255.125 114.664062 255.375 112.726562 255.375 L 112.007812 255.375 L 112.007812 256.0625 C 112.789062 256 114.664062 256 115.539062 256 C 116.414062 256 118.320312 256 119.070312 256.0625 L 119.070312 255.375 L 118.382812 255.375 C 116.414062 255.375 116.351562 255.15625 116.351562 254.34375 Z M 116.351562 242.09375 "/>
<path fill-rule="nonzero" fill="rgb(0%, 0%, 0%)" fill-opacity="1" d="M 198.890625 275.847656 C 198.890625 275.347656 198.890625 275.285156 198.390625 275.285156 C 197.046875 276.691406 195.109375 276.691406 194.421875 276.691406 L 194.421875 277.347656 C 194.859375 277.347656 196.140625 277.347656 197.296875 276.785156 L 197.296875 288.097656 C 197.296875 288.878906 197.203125 289.128906 195.265625 289.128906 L 194.546875 289.128906 L 194.546875 289.816406 C 195.328125 289.753906 197.203125 289.753906 198.078125 289.753906 C 198.953125 289.753906 200.859375 289.753906 201.609375 289.816406 L 201.609375 289.128906 L 200.921875 289.128906 C 198.953125 289.128906 198.890625 288.910156 198.890625 288.097656 Z M 198.890625 275.847656 "/>
<path fill-rule="nonzero" fill="rgb(0%, 0%, 0%)" fill-opacity="1" d="M 239.265625 288.128906 L 241.578125 285.878906 C 244.984375 282.878906 246.265625 281.691406 246.265625 279.535156 C 246.265625 277.035156 244.328125 275.285156 241.640625 275.285156 C 239.203125 275.285156 237.578125 277.285156 237.578125 279.222656 C 237.578125 280.472656 238.671875 280.472656 238.734375 280.472656 C 239.109375 280.472656 239.859375 280.191406 239.859375 279.316406 C 239.859375 278.722656 239.484375 278.160156 238.703125 278.160156 C 238.546875 278.160156 238.484375 278.160156 238.421875 278.191406 C 238.921875 276.785156 240.109375 275.972656 241.359375 275.972656 C 243.359375 275.972656 244.296875 277.722656 244.296875 279.535156 C 244.296875 281.253906 243.203125 283.003906 242.015625 284.347656 L 237.828125 289.003906 C 237.578125 289.253906 237.578125 289.285156 237.578125 289.816406 L 245.671875 289.816406 L 246.265625 286.035156 L 245.734375 286.035156 C 245.609375 286.660156 245.484375 287.628906 245.265625 287.972656 C 245.109375 288.128906 243.671875 288.128906 243.171875 288.128906 Z M 239.265625 288.128906 "/>
<path fill-rule="nonzero" fill="rgb(0%, 0%, 0%)" fill-opacity="1" d="M 286.796875 282.128906 C 288.609375 281.535156 289.859375 280.035156 289.859375 278.285156 C 289.859375 276.503906 287.953125 275.285156 285.859375 275.285156 C 283.640625 275.285156 281.984375 276.597656 281.984375 278.253906 C 281.984375 278.972656 282.484375 279.378906 283.109375 279.378906 C 283.765625 279.378906 284.203125 278.910156 284.203125 278.285156 C 284.203125 277.191406 283.203125 277.191406 282.859375 277.191406 C 283.546875 276.128906 284.984375 275.847656 285.765625 275.847656 C 286.671875 275.847656 287.859375 276.316406 287.859375 278.285156 C 287.859375 278.535156 287.828125 279.816406 287.234375 280.753906 C 286.578125 281.816406 285.859375 281.878906 285.296875 281.910156 C 285.140625 281.910156 284.609375 281.972656 284.453125 281.972656 C 284.265625 281.972656 284.140625 282.003906 284.140625 282.222656 C 284.140625 282.472656 284.265625 282.472656 284.640625 282.472656 L 285.609375 282.472656 C 287.390625 282.472656 288.203125 283.941406 288.203125 286.097656 C 288.203125 289.066406 286.703125 289.691406 285.734375 289.691406 C 284.796875 289.691406 283.171875 289.316406 282.390625 288.035156 C 283.171875 288.128906 283.828125 287.660156 283.828125 286.816406 C 283.828125 286.035156 283.265625 285.597656 282.609375 285.597656 C 282.109375 285.597656 281.390625 285.910156 281.390625 286.878906 C 281.390625 288.847656 283.421875 290.285156 285.796875 290.285156 C 288.453125 290.285156 290.453125 288.316406 290.453125 286.097656 C 290.453125 284.285156 289.078125 282.597656 286.796875 282.128906 Z M 286.796875 282.128906 "/>
<path fill-rule="nonzero" fill="rgb(0%, 0%, 0%)" fill-opacity="1" d="M 330.890625 286.222656 L 330.890625 288.128906 C 330.890625 288.910156 330.859375 289.128906 329.234375 289.128906 L 328.796875 289.128906 L 328.796875 289.816406 C 329.671875 289.753906 330.796875 289.753906 331.734375 289.753906 C 332.640625 289.753906 333.796875 289.753906 334.703125 289.816406 L 334.703125 289.128906 L 334.234375 289.128906 C 332.609375 289.128906 332.578125 288.910156 332.578125 288.128906 L 332.578125 286.222656 L 334.765625 286.222656 L 334.765625 285.535156 L 332.578125 285.535156 L 332.578125 275.628906 C 332.578125 275.191406 332.578125 275.035156 332.234375 275.035156 C 332.046875 275.035156 331.953125 275.035156 331.796875 275.316406 L 325.109375 285.535156 L 325.109375 286.222656 Z M 331.015625 285.535156 L 325.703125 285.535156 L 331.015625 277.410156 Z M 331.015625 285.535156 "/>
<path fill-rule="nonzero" fill="rgb(0%, 0%, 0%)" fill-opacity="1" d="M 378.265625 285.441406 C 378.265625 282.847656 376.484375 280.660156 374.140625 280.660156 C 373.078125 280.660156 372.140625 281.003906 371.359375 281.753906 L 371.359375 277.503906 C 371.796875 277.660156 372.515625 277.785156 373.203125 277.785156 C 375.890625 277.785156 377.421875 275.816406 377.421875 275.535156 C 377.421875 275.410156 377.359375 275.285156 377.203125 275.285156 C 377.203125 275.285156 377.140625 275.285156 377.046875 275.347656 C 376.609375 275.566406 375.515625 275.972656 374.078125 275.972656 C 373.203125 275.972656 372.203125 275.847656 371.171875 275.378906 C 370.984375 275.316406 370.953125 275.316406 370.890625 275.316406 C 370.671875 275.316406 370.671875 275.472656 370.671875 275.847656 L 370.671875 282.285156 C 370.671875 282.691406 370.671875 282.847656 370.984375 282.847656 C 371.140625 282.847656 371.203125 282.785156 371.265625 282.660156 C 371.515625 282.316406 372.328125 281.128906 374.078125 281.128906 C 375.234375 281.128906 375.765625 282.128906 375.953125 282.535156 C 376.296875 283.347656 376.328125 284.191406 376.328125 285.285156 C 376.328125 286.035156 376.328125 287.347656 375.828125 288.253906 C 375.296875 289.128906 374.484375 289.691406 373.484375 289.691406 C 371.890625 289.691406 370.640625 288.535156 370.265625 287.253906 C 370.328125 287.253906 370.390625 287.285156 370.640625 287.285156 C 371.359375 287.285156 371.734375 286.753906 371.734375 286.222656 C 371.734375 285.691406 371.359375 285.160156 370.640625 285.160156 C 370.328125 285.160156 369.578125 285.316406 369.578125 286.316406 C 369.578125 288.191406 371.078125 290.285156 373.515625 290.285156 C 376.046875 290.285156 378.265625 288.191406 378.265625 285.441406 Z M 378.265625 285.441406 "/>
<path fill="none" stroke-width="11.9553" stroke-linecap="butt" stroke-linejoin="miter" stroke="rgb(0%, 0%, 0%)" stroke-opacity="1" stroke-miterlimit="10" d="M 769.999989 321.601558 L 769.999989 591.601554 " transform="matrix(0.2, 0, 0, -0.2, 0, 388)"/>
<path fill="none" stroke-width="11.9553" stroke-linecap="butt" stroke-linejoin="miter" stroke="rgb(0%, 0%, 0%)" stroke-opacity="1" stroke-miterlimit="10" d="M 769.999989 456.601556 L 769.999989 1806.601536 " transform="matrix(0.2, 0, 0, -0.2, 0, 388)"/>
<path fill-rule="nonzero" fill="rgb(0%, 0%, 0%)" fill-opacity="1" d="M 147.976562 295.984375 L 159.976562 295.984375 L 159.976562 297.1875 L 147.976562 297.1875 Z M 147.976562 295.984375 "/>
<path fill-rule="nonzero" fill="rgb(0%, 0%, 0%)" fill-opacity="1" d="M 147.976562 268.984375 L 159.976562 268.984375 L 159.976562 270.1875 L 147.976562 270.1875 Z M 147.976562 268.984375 "/>
<path fill-rule="nonzero" fill="rgb(0%, 0%, 0%)" fill-opacity="1" d="M 147.976562 241.984375 L 159.976562 241.984375 L 159.976562 243.1875 L 147.976562 243.1875 Z M 147.976562 241.984375 "/>
<path fill-rule="nonzero" fill="rgb(0%, 0%, 0%)" fill-opacity="1" d="M 147.976562 214.984375 L 159.976562 214.984375 L 159.976562 216.1875 L 147.976562 216.1875 Z M 147.976562 214.984375 "/>
<path fill-rule="nonzero" fill="rgb(0%, 0%, 0%)" fill-opacity="1" d="M 147.976562 187.984375 L 159.976562 187.984375 L 159.976562 189.1875 L 147.976562 189.1875 Z M 147.976562 187.984375 "/>
<path fill-rule="nonzero" fill="rgb(0%, 0%, 0%)" fill-opacity="1" d="M 147.976562 160.984375 L 159.976562 160.984375 L 159.976562 162.1875 L 147.976562 162.1875 Z M 147.976562 160.984375 "/>
<path fill-rule="nonzero" fill="rgb(0%, 0%, 0%)" fill-opacity="1" d="M 147.976562 133.984375 L 159.976562 133.984375 L 159.976562 135.1875 L 147.976562 135.1875 Z M 147.976562 133.984375 "/>
<path fill-rule="nonzero" fill="rgb(0%, 0%, 0%)" fill-opacity="1" d="M 147.976562 106.984375 L 159.976562 106.984375 L 159.976562 108.1875 L 147.976562 108.1875 Z M 147.976562 106.984375 "/>
<path fill-rule="nonzero" fill="rgb(0%, 0%, 0%)" fill-opacity="1" d="M 147.976562 79.976562 L 159.976562 79.976562 L 159.976562 81.179688 L 147.976562 81.179688 Z M 147.976562 79.976562 "/>
<path fill-rule="nonzero" fill="rgb(0%, 0%, 0%)" fill-opacity="1" d="M 147.976562 52.976562 L 159.976562 52.976562 L 159.976562 54.179688 L 147.976562 54.179688 Z M 147.976562 52.976562 "/>
<path fill-rule="nonzero" fill="rgb(0%, 0%, 0%)" fill-opacity="1" d="M 147.976562 25.976562 L 159.976562 25.976562 L 159.976562 27.179688 L 147.976562 27.179688 Z M 147.976562 25.976562 "/>
<path fill-rule="nonzero" fill="rgb(0%, 0%, 0%)" fill-opacity="1" d="M 141.636719 235.671875 C 141.636719 235.171875 141.636719 235.109375 141.136719 235.109375 C 139.792969 236.515625 137.855469 236.515625 137.167969 236.515625 L 137.167969 237.171875 C 137.605469 237.171875 138.886719 237.171875 140.042969 236.609375 L 140.042969 247.921875 C 140.042969 248.703125 139.949219 248.953125 138.011719 248.953125 L 137.292969 248.953125 L 137.292969 249.640625 C 138.074219 249.578125 139.949219 249.578125 140.824219 249.578125 C 141.699219 249.578125 143.605469 249.578125 144.355469 249.640625 L 144.355469 248.953125 L 143.667969 248.953125 C 141.699219 248.953125 141.636719 248.734375 141.636719 247.921875 Z M 141.636719 235.671875 "/>
<path fill-rule="nonzero" fill="rgb(0%, 0%, 0%)" fill-opacity="1" d="M 138.011719 220.949219 L 140.324219 218.699219 C 143.730469 215.699219 145.011719 214.511719 145.011719 212.355469 C 145.011719 209.855469 143.074219 208.105469 140.386719 208.105469 C 137.949219 208.105469 136.324219 210.105469 136.324219 212.042969 C 136.324219 213.292969 137.417969 213.292969 137.480469 213.292969 C 137.855469 213.292969 138.605469 213.011719 138.605469 212.136719 C 138.605469 211.542969 138.230469 210.980469 137.449219 210.980469 C 137.292969 210.980469 137.230469 210.980469 137.167969 211.011719 C 137.667969 209.605469 138.855469 208.792969 140.105469 208.792969 C 142.105469 208.792969 143.042969 210.542969 143.042969 212.355469 C 143.042969 214.074219 141.949219 215.824219 140.761719 217.167969 L 136.574219 221.824219 C 136.324219 222.074219 136.324219 222.105469 136.324219 222.636719 L 144.417969 222.636719 L 145.011719 218.855469 L 144.480469 218.855469 C 144.355469 219.480469 144.230469 220.449219 144.011719 220.792969 C 143.855469 220.949219 142.417969 220.949219 141.917969 220.949219 Z M 138.011719 220.949219 "/>
<path fill-rule="nonzero" fill="rgb(0%, 0%, 0%)" fill-opacity="1" d="M 141.542969 187.949219 C 143.355469 187.355469 144.605469 185.855469 144.605469 184.105469 C 144.605469 182.324219 142.699219 181.105469 140.605469 181.105469 C 138.386719 181.105469 136.730469 182.417969 136.730469 184.074219 C 136.730469 184.792969 137.230469 185.199219 137.855469 185.199219 C 138.511719 185.199219 138.949219 184.730469 138.949219 184.105469 C 138.949219 183.011719 137.949219 183.011719 137.605469 183.011719 C 138.292969 181.949219 139.730469 181.667969 140.511719 181.667969 C 141.417969 181.667969 142.605469 182.136719 142.605469 184.105469 C 142.605469 184.355469 142.574219 185.636719 141.980469 186.574219 C 141.324219 187.636719 140.605469 187.699219 140.042969 187.730469 C 139.886719 187.730469 139.355469 187.792969 139.199219 187.792969 C 139.011719 187.792969 138.886719 187.824219 138.886719 188.042969 C 138.886719 188.292969 139.011719 188.292969 139.386719 188.292969 L 140.355469 188.292969 C 142.136719 188.292969 142.949219 189.761719 142.949219 191.917969 C 142.949219 194.886719 141.449219 195.511719 140.480469 195.511719 C 139.542969 195.511719 137.917969 195.136719 137.136719 193.855469 C 137.917969 193.949219 138.574219 193.480469 138.574219 192.636719 C 138.574219 191.855469 138.011719 191.417969 137.355469 191.417969 C 136.855469 191.417969 136.136719 191.730469 136.136719 192.699219 C 136.136719 194.667969 138.167969 196.105469 140.542969 196.105469 C 143.199219 196.105469 145.199219 194.136719 145.199219 191.917969 C 145.199219 190.105469 143.824219 188.417969 141.542969 187.949219 Z M 141.542969 187.949219 "/>
<path fill-rule="nonzero" fill="rgb(0%, 0%, 0%)" fill-opacity="1" d="M 141.636719 165.042969 L 141.636719 166.949219 C 141.636719 167.730469 141.605469 167.949219 139.980469 167.949219 L 139.542969 167.949219 L 139.542969 168.636719 C 140.417969 168.574219 141.542969 168.574219 142.480469 168.574219 C 143.386719 168.574219 144.542969 168.574219 145.449219 168.636719 L 145.449219 167.949219 L 144.980469 167.949219 C 143.355469 167.949219 143.324219 167.730469 143.324219 166.949219 L 143.324219 165.042969 L 145.511719 165.042969 L 145.511719 164.355469 L 143.324219 164.355469 L 143.324219 154.449219 C 143.324219 154.011719 143.324219 153.855469 142.980469 153.855469 C 142.792969 153.855469 142.699219 153.855469 142.542969 154.136719 L 135.855469 164.355469 L 135.855469 165.042969 Z M 141.761719 164.355469 L 136.449219 164.355469 L 141.761719 156.230469 Z M 141.761719 164.355469 "/>
<path fill-rule="nonzero" fill="rgb(0%, 0%, 0%)" fill-opacity="1" d="M 145.011719 137.261719 C 145.011719 134.667969 143.230469 132.480469 140.886719 132.480469 C 139.824219 132.480469 138.886719 132.824219 138.105469 133.574219 L 138.105469 129.324219 C 138.542969 129.480469 139.261719 129.605469 139.949219 129.605469 C 142.636719 129.605469 144.167969 127.636719 144.167969 127.355469 C 144.167969 127.230469 144.105469 127.105469 143.949219 127.105469 C 143.949219 127.105469 143.886719 127.105469 143.792969 127.167969 C 143.355469 127.386719 142.261719 127.792969 140.824219 127.792969 C 139.949219 127.792969 138.949219 127.667969 137.917969 127.199219 C 137.730469 127.136719 137.699219 127.136719 137.636719 127.136719 C 137.417969 127.136719 137.417969 127.292969 137.417969 127.667969 L 137.417969 134.105469 C 137.417969 134.511719 137.417969 134.667969 137.730469 134.667969 C 137.886719 134.667969 137.949219 134.605469 138.011719 134.480469 C 138.261719 134.136719 139.074219 132.949219 140.824219 132.949219 C 141.980469 132.949219 142.511719 133.949219 142.699219 134.355469 C 143.042969 135.167969 143.074219 136.011719 143.074219 137.105469 C 143.074219 137.855469 143.074219 139.167969 142.574219 140.074219 C 142.042969 140.949219 141.230469 141.511719 140.230469 141.511719 C 138.636719 141.511719 137.386719 140.355469 137.011719 139.074219 C 137.074219 139.074219 137.136719 139.105469 137.386719 139.105469 C 138.105469 139.105469 138.480469 138.574219 138.480469 138.042969 C 138.480469 137.511719 138.105469 136.980469 137.386719 136.980469 C 137.074219 136.980469 136.324219 137.136719 136.324219 138.136719 C 136.324219 140.011719 137.824219 142.105469 140.261719 142.105469 C 142.792969 142.105469 145.011719 140.011719 145.011719 137.261719 Z M 145.011719 137.261719 "/>
<path fill-rule="nonzero" fill="rgb(0%, 0%, 0%)" fill-opacity="1" d="M 411.253906 267.886719 C 411.378906 267.324219 411.878906 265.324219 413.410156 265.324219 C 413.535156 265.324219 414.035156 265.324219 414.503906 265.605469 C 413.910156 265.699219 413.472656 266.261719 413.472656 266.792969 C 413.472656 267.136719 413.691406 267.542969 414.285156 267.542969 C 414.785156 267.542969 415.472656 267.136719 415.472656 266.292969 C 415.472656 265.136719 414.191406 264.824219 413.441406 264.824219 C 412.160156 264.824219 411.410156 265.980469 411.160156 266.511719 C 410.597656 265.042969 409.410156 264.824219 408.785156 264.824219 C 406.535156 264.824219 405.285156 267.667969 405.285156 268.199219 C 405.285156 268.417969 405.503906 268.417969 405.535156 268.417969 C 405.722656 268.417969 405.785156 268.386719 405.816406 268.167969 C 406.566406 265.855469 408.003906 265.324219 408.753906 265.324219 C 409.160156 265.324219 409.941406 265.511719 409.941406 266.792969 C 409.941406 267.449219 409.566406 268.917969 408.753906 271.980469 C 408.410156 273.324219 407.628906 274.230469 406.691406 274.230469 C 406.535156 274.230469 406.035156 274.230469 405.597656 273.949219 C 406.128906 273.855469 406.597656 273.386719 406.597656 272.792969 C 406.597656 272.199219 406.128906 272.011719 405.816406 272.011719 C 405.160156 272.011719 404.597656 272.574219 404.597656 273.292969 C 404.597656 274.292969 405.691406 274.730469 406.660156 274.730469 C 408.097656 274.730469 408.878906 273.199219 408.941406 273.074219 C 409.222656 273.855469 410.003906 274.730469 411.316406 274.730469 C 413.535156 274.730469 414.785156 271.917969 414.785156 271.355469 C 414.785156 271.136719 414.597656 271.136719 414.535156 271.136719 C 414.347656 271.136719 414.285156 271.230469 414.253906 271.386719 C 413.535156 273.730469 412.035156 274.230469 411.347656 274.230469 C 410.503906 274.230469 410.160156 273.542969 410.160156 272.792969 C 410.160156 272.324219 410.285156 271.855469 410.503906 270.886719 Z M 411.253906 267.886719 "/>
<path fill-rule="nonzero" fill="rgb(0%, 0%, 0%)" fill-opacity="1" d="M 131.601562 -0.109375 C 131.601562 -0.109375 131.601562 -0.328125 131.320312 -0.328125 C 131.007812 -0.328125 128.914062 -0.140625 128.539062 -0.109375 C 128.382812 -0.078125 128.257812 0.015625 128.257812 0.328125 C 128.257812 0.578125 128.445312 0.578125 128.757812 0.578125 C 129.820312 0.578125 129.851562 0.734375 129.851562 0.953125 L 129.789062 1.390625 L 128.476562 6.546875 C 128.101562 5.734375 127.476562 5.140625 126.476562 5.140625 C 123.914062 5.140625 121.226562 8.359375 121.226562 11.546875 C 121.226562 13.609375 122.414062 15.046875 124.132812 15.046875 C 124.570312 15.046875 125.664062 14.953125 126.945312 13.390625 C 127.132812 14.328125 127.914062 15.046875 128.945312 15.046875 C 129.695312 15.046875 130.195312 14.546875 130.570312 13.828125 C 130.945312 13.046875 131.226562 11.734375 131.226562 11.671875 C 131.226562 11.453125 131.007812 11.453125 130.945312 11.453125 C 130.726562 11.453125 130.726562 11.546875 130.632812 11.859375 C 130.289062 13.265625 129.882812 14.546875 128.976562 14.546875 C 128.414062 14.546875 128.320312 13.984375 128.320312 13.546875 C 128.320312 13.015625 128.382812 12.890625 128.476562 12.515625 Z M 127.070312 12.203125 C 126.945312 12.609375 126.945312 12.640625 126.632812 13.015625 C 125.664062 14.203125 124.789062 14.546875 124.164062 14.546875 C 123.070312 14.546875 122.757812 13.359375 122.757812 12.515625 C 122.757812 11.421875 123.476562 8.734375 123.976562 7.734375 C 124.664062 6.453125 125.632812 5.640625 126.507812 5.640625 C 127.914062 5.640625 128.226562 7.421875 128.226562 7.546875 C 128.226562 7.671875 128.195312 7.828125 128.164062 7.921875 Z M 127.070312 12.203125 "/>
<path fill-rule="nonzero" fill="rgb(0%, 0%, 0%)" fill-opacity="1" d="M 142.226562 6.484375 C 142.320312 6.171875 142.320312 6.140625 142.320312 5.984375 C 142.320312 5.578125 142.007812 5.390625 141.695312 5.390625 C 141.476562 5.390625 141.132812 5.515625 140.914062 5.859375 C 140.882812 5.953125 140.695312 6.640625 140.632812 7.046875 C 140.476562 7.609375 140.320312 8.203125 140.195312 8.765625 L 139.195312 12.703125 C 139.101562 13.015625 138.164062 14.546875 136.726562 14.546875 C 135.632812 14.546875 135.382812 13.609375 135.382812 12.796875 C 135.382812 11.796875 135.757812 10.421875 136.507812 8.515625 C 136.851562 7.609375 136.945312 7.390625 136.945312 6.953125 C 136.945312 5.953125 136.226562 5.140625 135.132812 5.140625 C 133.070312 5.140625 132.257812 8.328125 132.257812 8.515625 C 132.257812 8.734375 132.476562 8.734375 132.539062 8.734375 C 132.757812 8.734375 132.757812 8.703125 132.882812 8.328125 C 133.476562 6.296875 134.351562 5.640625 135.070312 5.640625 C 135.257812 5.640625 135.632812 5.640625 135.632812 6.328125 C 135.632812 6.890625 135.414062 7.453125 135.257812 7.859375 C 134.382812 10.171875 133.976562 11.421875 133.976562 12.453125 C 133.976562 14.390625 135.351562 15.046875 136.664062 15.046875 C 137.507812 15.046875 138.226562 14.671875 138.851562 14.046875 C 138.570312 15.203125 138.320312 16.265625 137.445312 17.421875 C 136.882812 18.140625 136.039062 18.796875 135.039062 18.796875 C 134.726562 18.796875 133.757812 18.734375 133.382812 17.859375 C 133.726562 17.859375 134.007812 17.859375 134.320312 17.609375 C 134.539062 17.421875 134.757812 17.140625 134.757812 16.703125 C 134.757812 16.046875 134.164062 15.953125 133.945312 15.953125 C 133.445312 15.953125 132.726562 16.296875 132.726562 17.359375 C 132.726562 18.453125 133.695312 19.265625 135.039062 19.265625 C 137.289062 19.265625 139.539062 17.296875 140.132812 14.828125 Z M 142.226562 6.484375 "/>
<path fill-rule="nonzero" fill="rgb(0%, 0%, 0%)" fill-opacity="1" d="M 119.851562 23.703125 L 143.851562 23.703125 L 143.851562 24.664062 L 119.851562 24.664062 Z M 119.851562 23.703125 "/>
<path fill-rule="nonzero" fill="rgb(0%, 0%, 0%)" fill-opacity="1" d="M 131.121094 29.648438 C 131.121094 29.648438 131.121094 29.429688 130.839844 29.429688 C 130.527344 29.429688 128.433594 29.617188 128.058594 29.648438 C 127.902344 29.679688 127.777344 29.773438 127.777344 30.085938 C 127.777344 30.335938 127.964844 30.335938 128.277344 30.335938 C 129.339844 30.335938 129.371094 30.492188 129.371094 30.710938 L 129.308594 31.148438 L 127.996094 36.304688 C 127.621094 35.492188 126.996094 34.898438 125.996094 34.898438 C 123.433594 34.898438 120.746094 38.117188 120.746094 41.304688 C 120.746094 43.367188 121.933594 44.804688 123.652344 44.804688 C 124.089844 44.804688 125.183594 44.710938 126.464844 43.148438 C 126.652344 44.085938 127.433594 44.804688 128.464844 44.804688 C 129.214844 44.804688 129.714844 44.304688 130.089844 43.585938 C 130.464844 42.804688 130.746094 41.492188 130.746094 41.429688 C 130.746094 41.210938 130.527344 41.210938 130.464844 41.210938 C 130.246094 41.210938 130.246094 41.304688 130.152344 41.617188 C 129.808594 43.023438 129.402344 44.304688 128.496094 44.304688 C 127.933594 44.304688 127.839844 43.742188 127.839844 43.304688 C 127.839844 42.773438 127.902344 42.648438 127.996094 42.273438 Z M 126.589844 41.960938 C 126.464844 42.367188 126.464844 42.398438 126.152344 42.773438 C 125.183594 43.960938 124.308594 44.304688 123.683594 44.304688 C 122.589844 44.304688 122.277344 43.117188 122.277344 42.273438 C 122.277344 41.179688 122.996094 38.492188 123.496094 37.492188 C 124.183594 36.210938 125.152344 35.398438 126.027344 35.398438 C 127.433594 35.398438 127.746094 37.179688 127.746094 37.304688 C 127.746094 37.429688 127.714844 37.585938 127.683594 37.679688 Z M 126.589844 41.960938 "/>
<path fill-rule="nonzero" fill="rgb(0%, 0%, 0%)" fill-opacity="1" d="M 138.433594 37.960938 C 138.558594 37.398438 139.058594 35.398438 140.589844 35.398438 C 140.714844 35.398438 141.214844 35.398438 141.683594 35.679688 C 141.089844 35.773438 140.652344 36.335938 140.652344 36.867188 C 140.652344 37.210938 140.871094 37.617188 141.464844 37.617188 C 141.964844 37.617188 142.652344 37.210938 142.652344 36.367188 C 142.652344 35.210938 141.371094 34.898438 140.621094 34.898438 C 139.339844 34.898438 138.589844 36.054688 138.339844 36.585938 C 137.777344 35.117188 136.589844 34.898438 135.964844 34.898438 C 133.714844 34.898438 132.464844 37.742188 132.464844 38.273438 C 132.464844 38.492188 132.683594 38.492188 132.714844 38.492188 C 132.902344 38.492188 132.964844 38.460938 132.996094 38.242188 C 133.746094 35.929688 135.183594 35.398438 135.933594 35.398438 C 136.339844 35.398438 137.121094 35.585938 137.121094 36.867188 C 137.121094 37.523438 136.746094 38.992188 135.933594 42.054688 C 135.589844 43.398438 134.808594 44.304688 133.871094 44.304688 C 133.714844 44.304688 133.214844 44.304688 132.777344 44.023438 C 133.308594 43.929688 133.777344 43.460938 133.777344 42.867188 C 133.777344 42.273438 133.308594 42.085938 132.996094 42.085938 C 132.339844 42.085938 131.777344 42.648438 131.777344 43.367188 C 131.777344 44.367188 132.871094 44.804688 133.839844 44.804688 C 135.277344 44.804688 136.058594 43.273438 136.121094 43.148438 C 136.402344 43.929688 137.183594 44.804688 138.496094 44.804688 C 140.714844 44.804688 141.964844 41.992188 141.964844 41.429688 C 141.964844 41.210938 141.777344 41.210938 141.714844 41.210938 C 141.527344 41.210938 141.464844 41.304688 141.433594 41.460938 C 140.714844 43.804688 139.214844 44.304688 138.527344 44.304688 C 137.683594 44.304688 137.339844 43.617188 137.339844 42.867188 C 137.339844 42.398438 137.464844 41.929688 137.683594 40.960938 Z M 138.433594 37.960938 "/>
<path fill="none" stroke-width="7.9701" stroke-linecap="butt" stroke-linejoin="miter" stroke="rgb(0%, 0%, 0%)" stroke-opacity="1" stroke-miterlimit="10" d="M 329.999995 456.601556 L 329.999995 473.476555 " transform="matrix(0.2, 0, 0, -0.2, 0, 388)"/>
<path fill="none" stroke-width="7.9701" stroke-linecap="butt" stroke-linejoin="miter" stroke="rgb(0%, 0%, 0%)" stroke-opacity="1" stroke-miterlimit="10" d="M 329.999995 507.226555 L 329.999995 524.101555 " transform="matrix(0.2, 0, 0, -0.2, 0, 388)"/>
<path fill="none" stroke-width="7.9701" stroke-linecap="butt" stroke-linejoin="miter" stroke="rgb(0%, 0%, 0%)" stroke-opacity="1" stroke-miterlimit="10" d="M 329.999995 524.101555 L 329.999995 540.976554 " transform="matrix(0.2, 0, 0, -0.2, 0, 388)"/>
<path fill="none" stroke-width="7.9701" stroke-linecap="butt" stroke-linejoin="miter" stroke="rgb(0%, 0%, 0%)" stroke-opacity="1" stroke-miterlimit="10" d="M 329.999995 574.726554 L 329.999995 591.601554 " transform="matrix(0.2, 0, 0, -0.2, 0, 388)"/>
<path fill="none" stroke-width="7.9701" stroke-linecap="butt" stroke-linejoin="miter" stroke="rgb(0%, 0%, 0%)" stroke-opacity="1" stroke-miterlimit="10" d="M 329.999995 456.601556 L 357.499995 456.601556 " transform="matrix(0.2, 0, 0, -0.2, 0, 388)"/>
<path fill="none" stroke-width="7.9701" stroke-linecap="butt" stroke-linejoin="miter" stroke="rgb(0%, 0%, 0%)" stroke-opacity="1" stroke-miterlimit="10" d="M 412.499994 456.601556 L 439.999993 456.601556 " transform="matrix(0.2, 0, 0, -0.2, 0, 388)"/>
<path fill="none" stroke-width="7.9701" stroke-linecap="butt" stroke-linejoin="miter" stroke="rgb(0%, 0%, 0%)" stroke-opacity="1" stroke-miterlimit="10" d="M 439.999993 456.601556 L 467.499993 456.601556 " transform="matrix(0.2, 0, 0, -0.2, 0, 388)"/>
<path fill="none" stroke-width="7.9701" stroke-linecap="butt" stroke-linejoin="miter" stroke="rgb(0%, 0%, 0%)" stroke-opacity="1" stroke-miterlimit="10" d="M 522.499992 456.601556 L 549.999992 456.601556 " transform="matrix(0.2, 0, 0, -0.2, 0, 388)"/>
<path fill="none" stroke-width="7.9701" stroke-linecap="butt" stroke-linejoin="miter" stroke="rgb(0%, 0%, 0%)" stroke-opacity="1" stroke-miterlimit="10" d="M 549.999992 456.601556 L 577.499991 456.601556 " transform="matrix(0.2, 0, 0, -0.2, 0, 388)"/>
<path fill="none" stroke-width="7.9701" stroke-linecap="butt" stroke-linejoin="miter" stroke="rgb(0%, 0%, 0%)" stroke-opacity="1" stroke-miterlimit="10" d="M 632.499991 456.601556 L 659.99999 456.601556 " transform="matrix(0.2, 0, 0, -0.2, 0, 388)"/>
<path fill="none" stroke-width="7.9701" stroke-linecap="butt" stroke-linejoin="miter" stroke="rgb(0%, 0%, 0%)" stroke-opacity="1" stroke-miterlimit="10" d="M 659.99999 456.601556 L 687.49999 456.601556 " transform="matrix(0.2, 0, 0, -0.2, 0, 388)"/>
<path fill="none" stroke-width="7.9701" stroke-linecap="butt" stroke-linejoin="miter" stroke="rgb(0%, 0%, 0%)" stroke-opacity="1" stroke-miterlimit="10" d="M 742.499989 456.601556 L 769.999989 456.601556 " transform="matrix(0.2, 0, 0, -0.2, 0, 388)"/>
<path fill="none" stroke-width="7.9701" stroke-linecap="butt" stroke-linejoin="miter" stroke="rgb(0%, 0%, 0%)" stroke-opacity="1" stroke-miterlimit="10" d="M 549.999992 524.101555 L 549.999992 540.976554 " transform="matrix(0.2, 0, 0, -0.2, 0, 388)"/>
<path fill="none" stroke-width="7.9701" stroke-linecap="butt" stroke-linejoin="miter" stroke="rgb(0%, 0%, 0%)" stroke-opacity="1" stroke-miterlimit="10" d="M 549.999992 574.726554 L 549.999992 591.601554 " transform="matrix(0.2, 0, 0, -0.2, 0, 388)"/>
<path fill="none" stroke-width="7.9701" stroke-linecap="butt" stroke-linejoin="miter" stroke="rgb(0%, 0%, 0%)" stroke-opacity="1" stroke-miterlimit="10" d="M 549.999992 524.101555 L 577.499991 524.101555 " transform="matrix(0.2, 0, 0, -0.2, 0, 388)"/>
<path fill="none" stroke-width="7.9701" stroke-linecap="butt" stroke-linejoin="miter" stroke="rgb(0%, 0%, 0%)" stroke-opacity="1" stroke-miterlimit="10" d="M 632.499991 524.101555 L 659.99999 524.101555 " transform="matrix(0.2, 0, 0, -0.2, 0, 388)"/>
<path fill="none" stroke-width="7.9701" stroke-linecap="butt" stroke-linejoin="miter" stroke="rgb(0%, 0%, 0%)" stroke-opacity="1" stroke-miterlimit="10" d="M 659.99999 524.101555 L 687.49999 524.101555 " transform="matrix(0.2, 0, 0, -0.2, 0, 388)"/>
<path fill="none" stroke-width="7.9701" stroke-linecap="butt" stroke-linejoin="miter" stroke="rgb(0%, 0%, 0%)" stroke-opacity="1" stroke-miterlimit="10" d="M 742.499989 524.101555 L 769.999989 524.101555 " transform="matrix(0.2, 0, 0, -0.2, 0, 388)"/>
<path fill="none" stroke-width="7.9701" stroke-linecap="butt" stroke-linejoin="miter" stroke="rgb(0%, 0%, 0%)" stroke-opacity="1" stroke-miterlimit="10" d="M 989.999985 659.101553 L 989.999985 642.226553 " transform="matrix(0.2, 0, 0, -0.2, 0, 388)"/>
<path fill="none" stroke-width="7.9701" stroke-linecap="butt" stroke-linejoin="miter" stroke="rgb(0%, 0%, 0%)" stroke-opacity="1" stroke-miterlimit="10" d="M 989.999985 608.476553 L 989.999985 591.601554 " transform="matrix(0.2, 0, 0, -0.2, 0, 388)"/>
<path fill="none" stroke-width="7.9701" stroke-linecap="butt" stroke-linejoin="miter" stroke="rgb(0%, 0%, 0%)" stroke-opacity="1" stroke-miterlimit="10" d="M 989.999985 659.101553 L 962.499986 659.101553 " transform="matrix(0.2, 0, 0, -0.2, 0, 388)"/>
<path fill="none" stroke-width="7.9701" stroke-linecap="butt" stroke-linejoin="miter" stroke="rgb(0%, 0%, 0%)" stroke-opacity="1" stroke-miterlimit="10" d="M 907.499986 659.101553 L 879.999987 659.101553 " transform="matrix(0.2, 0, 0, -0.2, 0, 388)"/>
<path fill="none" stroke-width="7.9701" stroke-linecap="butt" stroke-linejoin="miter" stroke="rgb(0%, 0%, 0%)" stroke-opacity="1" stroke-miterlimit="10" d="M 879.999987 659.101553 L 852.499987 659.101553 " transform="matrix(0.2, 0, 0, -0.2, 0, 388)"/>
<path fill="none" stroke-width="7.9701" stroke-linecap="butt" stroke-linejoin="miter" stroke="rgb(0%, 0%, 0%)" stroke-opacity="1" stroke-miterlimit="10" d="M 797.499988 659.101553 L 769.999989 659.101553 " transform="matrix(0.2, 0, 0, -0.2, 0, 388)"/>
<path fill="none" stroke-width="7.9701" stroke-linecap="butt" stroke-linejoin="miter" stroke="rgb(0%, 0%, 0%)" stroke-opacity="1" stroke-miterlimit="10" d="M 1210.039044 726.601552 L 1210.039044 709.726552 " transform="matrix(0.2, 0, 0, -0.2, 0, 388)"/>
<path fill="none" stroke-width="7.9701" stroke-linecap="butt" stroke-linejoin="miter" stroke="rgb(0%, 0%, 0%)" stroke-opacity="1" stroke-miterlimit="10" d="M 1210.039044 675.976552 L 1210.039044 659.101553 " transform="matrix(0.2, 0, 0, -0.2, 0, 388)"/>
<path fill="none" stroke-width="7.9701" stroke-linecap="butt" stroke-linejoin="miter" stroke="rgb(0%, 0%, 0%)" stroke-opacity="1" stroke-miterlimit="10" d="M 1210.039044 659.101553 L 1210.039044 642.226553 " transform="matrix(0.2, 0, 0, -0.2, 0, 388)"/>
<path fill="none" stroke-width="7.9701" stroke-linecap="butt" stroke-linejoin="miter" stroke="rgb(0%, 0%, 0%)" stroke-opacity="1" stroke-miterlimit="10" d="M 1210.039044 608.476553 L 1210.039044 591.601554 " transform="matrix(0.2, 0, 0, -0.2, 0, 388)"/>
<path fill="none" stroke-width="7.9701" stroke-linecap="butt" stroke-linejoin="miter" stroke="rgb(0%, 0%, 0%)" stroke-opacity="1" stroke-miterlimit="10" d="M 1210.039044 726.601552 L 1182.539045 726.601552 " transform="matrix(0.2, 0, 0, -0.2, 0, 388)"/>
<path fill="none" stroke-width="7.9701" stroke-linecap="butt" stroke-linejoin="miter" stroke="rgb(0%, 0%, 0%)" stroke-opacity="1" stroke-miterlimit="10" d="M 1127.499983 726.601552 L 1100.039046 726.601552 " transform="matrix(0.2, 0, 0, -0.2, 0, 388)"/>
<path fill="none" stroke-width="7.9701" stroke-linecap="butt" stroke-linejoin="miter" stroke="rgb(0%, 0%, 0%)" stroke-opacity="1" stroke-miterlimit="10" d="M 1100.039046 726.601552 L 1072.499984 726.601552 " transform="matrix(0.2, 0, 0, -0.2, 0, 388)"/>
<path fill="none" stroke-width="7.9701" stroke-linecap="butt" stroke-linejoin="miter" stroke="rgb(0%, 0%, 0%)" stroke-opacity="1" stroke-miterlimit="10" d="M 1017.499985 726.601552 L 989.999985 726.601552 " transform="matrix(0.2, 0, 0, -0.2, 0, 388)"/>
<path fill="none" stroke-width="7.9701" stroke-linecap="butt" stroke-linejoin="miter" stroke="rgb(0%, 0%, 0%)" stroke-opacity="1" stroke-miterlimit="10" d="M 989.999985 726.601552 L 962.499986 726.601552 " transform="matrix(0.2, 0, 0, -0.2, 0, 388)"/>
<path fill="none" stroke-width="7.9701" stroke-linecap="butt" stroke-linejoin="miter" stroke="rgb(0%, 0%, 0%)" stroke-opacity="1" stroke-miterlimit="10" d="M 907.499986 726.601552 L 879.999987 726.601552 " transform="matrix(0.2, 0, 0, -0.2, 0, 388)"/>
<path fill="none" stroke-width="7.9701" stroke-linecap="butt" stroke-linejoin="miter" stroke="rgb(0%, 0%, 0%)" stroke-opacity="1" stroke-miterlimit="10" d="M 879.999987 726.601552 L 852.499987 726.601552 " transform="matrix(0.2, 0, 0, -0.2, 0, 388)"/>
<path fill="none" stroke-width="7.9701" stroke-linecap="butt" stroke-linejoin="miter" stroke="rgb(0%, 0%, 0%)" stroke-opacity="1" stroke-miterlimit="10" d="M 797.499988 726.601552 L 769.999989 726.601552 " transform="matrix(0.2, 0, 0, -0.2, 0, 388)"/>
<path fill="none" stroke-width="7.9701" stroke-linecap="butt" stroke-linejoin="miter" stroke="rgb(0%, 0%, 0%)" stroke-opacity="1" stroke-miterlimit="10" d="M 1430.039041 794.101551 L 1430.039041 768.789051 " transform="matrix(0.2, 0, 0, -0.2, 0, 388)"/>
<path fill="none" stroke-width="7.9701" stroke-linecap="butt" stroke-linejoin="miter" stroke="rgb(0%, 0%, 0%)" stroke-opacity="1" stroke-miterlimit="10" d="M 1430.039041 718.164052 L 1430.039041 692.851552 " transform="matrix(0.2, 0, 0, -0.2, 0, 388)"/>
<path fill="none" stroke-width="7.9701" stroke-linecap="butt" stroke-linejoin="miter" stroke="rgb(0%, 0%, 0%)" stroke-opacity="1" stroke-miterlimit="10" d="M 1430.039041 692.851552 L 1430.039041 667.539053 " transform="matrix(0.2, 0, 0, -0.2, 0, 388)"/>
<path fill="none" stroke-width="7.9701" stroke-linecap="butt" stroke-linejoin="miter" stroke="rgb(0%, 0%, 0%)" stroke-opacity="1" stroke-miterlimit="10" d="M 1430.039041 616.914053 L 1430.039041 591.601554 " transform="matrix(0.2, 0, 0, -0.2, 0, 388)"/>
<path fill="none" stroke-width="7.9701" stroke-linecap="butt" stroke-linejoin="miter" stroke="rgb(0%, 0%, 0%)" stroke-opacity="1" stroke-miterlimit="10" d="M 1430.039041 794.101551 L 1402.539042 794.101551 " transform="matrix(0.2, 0, 0, -0.2, 0, 388)"/>
<path fill="none" stroke-width="7.9701" stroke-linecap="butt" stroke-linejoin="miter" stroke="rgb(0%, 0%, 0%)" stroke-opacity="1" stroke-miterlimit="10" d="M 1347.539042 794.101551 L 1319.99998 794.101551 " transform="matrix(0.2, 0, 0, -0.2, 0, 388)"/>
<path fill="none" stroke-width="7.9701" stroke-linecap="butt" stroke-linejoin="miter" stroke="rgb(0%, 0%, 0%)" stroke-opacity="1" stroke-miterlimit="10" d="M 1319.99998 794.101551 L 1292.539043 794.101551 " transform="matrix(0.2, 0, 0, -0.2, 0, 388)"/>
<path fill="none" stroke-width="7.9701" stroke-linecap="butt" stroke-linejoin="miter" stroke="rgb(0%, 0%, 0%)" stroke-opacity="1" stroke-miterlimit="10" d="M 1237.539044 794.101551 L 1210.039044 794.101551 " transform="matrix(0.2, 0, 0, -0.2, 0, 388)"/>
<path fill="none" stroke-width="7.9701" stroke-linecap="butt" stroke-linejoin="miter" stroke="rgb(0%, 0%, 0%)" stroke-opacity="1" stroke-miterlimit="10" d="M 1210.039044 794.101551 L 1182.539045 794.101551 " transform="matrix(0.2, 0, 0, -0.2, 0, 388)"/>
<path fill="none" stroke-width="7.9701" stroke-linecap="butt" stroke-linejoin="miter" stroke="rgb(0%, 0%, 0%)" stroke-opacity="1" stroke-miterlimit="10" d="M 1127.499983 794.101551 L 1100.039046 794.101551 " transform="matrix(0.2, 0, 0, -0.2, 0, 388)"/>
<path fill="none" stroke-width="7.9701" stroke-linecap="butt" stroke-linejoin="miter" stroke="rgb(0%, 0%, 0%)" stroke-opacity="1" stroke-miterlimit="10" d="M 1100.039046 794.101551 L 1072.499984 794.101551 " transform="matrix(0.2, 0, 0, -0.2, 0, 388)"/>
<path fill="none" stroke-width="7.9701" stroke-linecap="butt" stroke-linejoin="miter" stroke="rgb(0%, 0%, 0%)" stroke-opacity="1" stroke-miterlimit="10" d="M 1017.499985 794.101551 L 989.999985 794.101551 " transform="matrix(0.2, 0, 0, -0.2, 0, 388)"/>
<path fill="none" stroke-width="7.9701" stroke-linecap="butt" stroke-linejoin="miter" stroke="rgb(0%, 0%, 0%)" stroke-opacity="1" stroke-miterlimit="10" d="M 989.999985 794.101551 L 962.499986 794.101551 " transform="matrix(0.2, 0, 0, -0.2, 0, 388)"/>
<path fill="none" stroke-width="7.9701" stroke-linecap="butt" stroke-linejoin="miter" stroke="rgb(0%, 0%, 0%)" stroke-opacity="1" stroke-miterlimit="10" d="M 907.499986 794.101551 L 879.999987 794.101551 " transform="matrix(0.2, 0, 0, -0.2, 0, 388)"/>
<path fill="none" stroke-width="7.9701" stroke-linecap="butt" stroke-linejoin="miter" stroke="rgb(0%, 0%, 0%)" stroke-opacity="1" stroke-miterlimit="10" d="M 879.999987 794.101551 L 852.499987 794.101551 " transform="matrix(0.2, 0, 0, -0.2, 0, 388)"/>
<path fill="none" stroke-width="7.9701" stroke-linecap="butt" stroke-linejoin="miter" stroke="rgb(0%, 0%, 0%)" stroke-opacity="1" stroke-miterlimit="10" d="M 797.499988 794.101551 L 769.999989 794.101551 " transform="matrix(0.2, 0, 0, -0.2, 0, 388)"/>
<path fill="none" stroke-width="7.9701" stroke-linecap="butt" stroke-linejoin="miter" stroke="rgb(0%, 0%, 0%)" stroke-opacity="1" stroke-miterlimit="10" d="M 1650.039038 861.60155 L 1650.039038 839.10155 " transform="matrix(0.2, 0, 0, -0.2, 0, 388)"/>
<path fill="none" stroke-width="7.9701" stroke-linecap="butt" stroke-linejoin="miter" stroke="rgb(0%, 0%, 0%)" stroke-opacity="1" stroke-miterlimit="10" d="M 1650.039038 794.101551 L 1650.039038 771.601551 " transform="matrix(0.2, 0, 0, -0.2, 0, 388)"/>
<path fill="none" stroke-width="7.9701" stroke-linecap="butt" stroke-linejoin="miter" stroke="rgb(0%, 0%, 0%)" stroke-opacity="1" stroke-miterlimit="10" d="M 1650.039038 771.601551 L 1650.039038 749.101551 " transform="matrix(0.2, 0, 0, -0.2, 0, 388)"/>
<path fill="none" stroke-width="7.9701" stroke-linecap="butt" stroke-linejoin="miter" stroke="rgb(0%, 0%, 0%)" stroke-opacity="1" stroke-miterlimit="10" d="M 1650.039038 704.101552 L 1650.039038 681.601552 " transform="matrix(0.2, 0, 0, -0.2, 0, 388)"/>
<path fill="none" stroke-width="7.9701" stroke-linecap="butt" stroke-linejoin="miter" stroke="rgb(0%, 0%, 0%)" stroke-opacity="1" stroke-miterlimit="10" d="M 1650.039038 681.601552 L 1650.039038 659.101553 " transform="matrix(0.2, 0, 0, -0.2, 0, 388)"/>
<path fill="none" stroke-width="7.9701" stroke-linecap="butt" stroke-linejoin="miter" stroke="rgb(0%, 0%, 0%)" stroke-opacity="1" stroke-miterlimit="10" d="M 1650.039038 614.101553 L 1650.039038 591.601554 " transform="matrix(0.2, 0, 0, -0.2, 0, 388)"/>
<path fill="none" stroke-width="7.9701" stroke-linecap="butt" stroke-linejoin="miter" stroke="rgb(0%, 0%, 0%)" stroke-opacity="1" stroke-miterlimit="10" d="M 1650.039038 861.60155 L 1622.539038 861.60155 " transform="matrix(0.2, 0, 0, -0.2, 0, 388)"/>
<path fill="none" stroke-width="7.9701" stroke-linecap="butt" stroke-linejoin="miter" stroke="rgb(0%, 0%, 0%)" stroke-opacity="1" stroke-miterlimit="10" d="M 1567.539039 861.60155 L 1540.03904 861.60155 " transform="matrix(0.2, 0, 0, -0.2, 0, 388)"/>
<path fill="none" stroke-width="7.9701" stroke-linecap="butt" stroke-linejoin="miter" stroke="rgb(0%, 0%, 0%)" stroke-opacity="1" stroke-miterlimit="10" d="M 1540.03904 861.60155 L 1512.53904 861.60155 " transform="matrix(0.2, 0, 0, -0.2, 0, 388)"/>
<path fill="none" stroke-width="7.9701" stroke-linecap="butt" stroke-linejoin="miter" stroke="rgb(0%, 0%, 0%)" stroke-opacity="1" stroke-miterlimit="10" d="M 1457.539041 861.60155 L 1430.039041 861.60155 " transform="matrix(0.2, 0, 0, -0.2, 0, 388)"/>
<path fill="none" stroke-width="7.9701" stroke-linecap="butt" stroke-linejoin="miter" stroke="rgb(0%, 0%, 0%)" stroke-opacity="1" stroke-miterlimit="10" d="M 1430.039041 861.60155 L 1402.539042 861.60155 " transform="matrix(0.2, 0, 0, -0.2, 0, 388)"/>
<path fill="none" stroke-width="7.9701" stroke-linecap="butt" stroke-linejoin="miter" stroke="rgb(0%, 0%, 0%)" stroke-opacity="1" stroke-miterlimit="10" d="M 1347.539042 861.60155 L 1319.99998 861.60155 " transform="matrix(0.2, 0, 0, -0.2, 0, 388)"/>
<path fill="none" stroke-width="7.9701" stroke-linecap="butt" stroke-linejoin="miter" stroke="rgb(0%, 0%, 0%)" stroke-opacity="1" stroke-miterlimit="10" d="M 1319.99998 861.60155 L 1292.539043 861.60155 " transform="matrix(0.2, 0, 0, -0.2, 0, 388)"/>
<path fill="none" stroke-width="7.9701" stroke-linecap="butt" stroke-linejoin="miter" stroke="rgb(0%, 0%, 0%)" stroke-opacity="1" stroke-miterlimit="10" d="M 1237.539044 861.60155 L 1210.039044 861.60155 " transform="matrix(0.2, 0, 0, -0.2, 0, 388)"/>
<path fill="none" stroke-width="7.9701" stroke-linecap="butt" stroke-linejoin="miter" stroke="rgb(0%, 0%, 0%)" stroke-opacity="1" stroke-miterlimit="10" d="M 1210.039044 861.60155 L 1182.539045 861.60155 " transform="matrix(0.2, 0, 0, -0.2, 0, 388)"/>
<path fill="none" stroke-width="7.9701" stroke-linecap="butt" stroke-linejoin="miter" stroke="rgb(0%, 0%, 0%)" stroke-opacity="1" stroke-miterlimit="10" d="M 1127.499983 861.60155 L 1100.039046 861.60155 " transform="matrix(0.2, 0, 0, -0.2, 0, 388)"/>
<path fill="none" stroke-width="7.9701" stroke-linecap="butt" stroke-linejoin="miter" stroke="rgb(0%, 0%, 0%)" stroke-opacity="1" stroke-miterlimit="10" d="M 1100.039046 861.60155 L 1072.499984 861.60155 " transform="matrix(0.2, 0, 0, -0.2, 0, 388)"/>
<path fill="none" stroke-width="7.9701" stroke-linecap="butt" stroke-linejoin="miter" stroke="rgb(0%, 0%, 0%)" stroke-opacity="1" stroke-miterlimit="10" d="M 1017.499985 861.60155 L 989.999985 861.60155 " transform="matrix(0.2, 0, 0, -0.2, 0, 388)"/>
<path fill="none" stroke-width="7.9701" stroke-linecap="butt" stroke-linejoin="miter" stroke="rgb(0%, 0%, 0%)" stroke-opacity="1" stroke-miterlimit="10" d="M 989.999985 861.60155 L 962.499986 861.60155 " transform="matrix(0.2, 0, 0, -0.2, 0, 388)"/>
<path fill="none" stroke-width="7.9701" stroke-linecap="butt" stroke-linejoin="miter" stroke="rgb(0%, 0%, 0%)" stroke-opacity="1" stroke-miterlimit="10" d="M 907.499986 861.60155 L 879.999987 861.60155 " transform="matrix(0.2, 0, 0, -0.2, 0, 388)"/>
<path fill="none" stroke-width="7.9701" stroke-linecap="butt" stroke-linejoin="miter" stroke="rgb(0%, 0%, 0%)" stroke-opacity="1" stroke-miterlimit="10" d="M 879.999987 861.60155 L 852.499987 861.60155 " transform="matrix(0.2, 0, 0, -0.2, 0, 388)"/>
<path fill="none" stroke-width="7.9701" stroke-linecap="butt" stroke-linejoin="miter" stroke="rgb(0%, 0%, 0%)" stroke-opacity="1" stroke-miterlimit="10" d="M 797.499988 861.60155 L 769.999989 861.60155 " transform="matrix(0.2, 0, 0, -0.2, 0, 388)"/>
<path fill="none" stroke-width="7.9701" stroke-linecap="butt" stroke-linejoin="miter" stroke="rgb(0%, 0%, 0%)" stroke-opacity="1" stroke-miterlimit="10" d="M 1870.039035 929.101549 L 1870.039035 900.976549 " transform="matrix(0.2, 0, 0, -0.2, 0, 388)"/>
<path fill="none" stroke-width="7.9701" stroke-linecap="butt" stroke-linejoin="miter" stroke="rgb(0%, 0%, 0%)" stroke-opacity="1" stroke-miterlimit="10" d="M 1870.039035 844.72655 L 1870.039035 816.60155 " transform="matrix(0.2, 0, 0, -0.2, 0, 388)"/>
<path fill="none" stroke-width="7.9701" stroke-linecap="butt" stroke-linejoin="miter" stroke="rgb(0%, 0%, 0%)" stroke-opacity="1" stroke-miterlimit="10" d="M 1870.039035 816.60155 L 1870.039035 788.476551 " transform="matrix(0.2, 0, 0, -0.2, 0, 388)"/>
<path fill="none" stroke-width="7.9701" stroke-linecap="butt" stroke-linejoin="miter" stroke="rgb(0%, 0%, 0%)" stroke-opacity="1" stroke-miterlimit="10" d="M 1870.039035 732.226552 L 1870.039035 704.101552 " transform="matrix(0.2, 0, 0, -0.2, 0, 388)"/>
<path fill="none" stroke-width="7.9701" stroke-linecap="butt" stroke-linejoin="miter" stroke="rgb(0%, 0%, 0%)" stroke-opacity="1" stroke-miterlimit="10" d="M 1870.039035 704.101552 L 1870.039035 675.976552 " transform="matrix(0.2, 0, 0, -0.2, 0, 388)"/>
<path fill="none" stroke-width="7.9701" stroke-linecap="butt" stroke-linejoin="miter" stroke="rgb(0%, 0%, 0%)" stroke-opacity="1" stroke-miterlimit="10" d="M 1870.039035 619.726553 L 1870.039035 591.601554 " transform="matrix(0.2, 0, 0, -0.2, 0, 388)"/>
<path fill="none" stroke-width="7.9701" stroke-linecap="butt" stroke-linejoin="miter" stroke="rgb(0%, 0%, 0%)" stroke-opacity="1" stroke-miterlimit="10" d="M 1870.039035 929.101549 L 1842.539035 929.101549 " transform="matrix(0.2, 0, 0, -0.2, 0, 388)"/>
<path fill="none" stroke-width="7.9701" stroke-linecap="butt" stroke-linejoin="miter" stroke="rgb(0%, 0%, 0%)" stroke-opacity="1" stroke-miterlimit="10" d="M 1787.539036 929.101549 L 1760.039036 929.101549 " transform="matrix(0.2, 0, 0, -0.2, 0, 388)"/>
<path fill="none" stroke-width="7.9701" stroke-linecap="butt" stroke-linejoin="miter" stroke="rgb(0%, 0%, 0%)" stroke-opacity="1" stroke-miterlimit="10" d="M 1760.039036 929.101549 L 1732.539037 929.101549 " transform="matrix(0.2, 0, 0, -0.2, 0, 388)"/>
<path fill="none" stroke-width="7.9701" stroke-linecap="butt" stroke-linejoin="miter" stroke="rgb(0%, 0%, 0%)" stroke-opacity="1" stroke-miterlimit="10" d="M 1677.539038 929.101549 L 1650.039038 929.101549 " transform="matrix(0.2, 0, 0, -0.2, 0, 388)"/>
<path fill="none" stroke-width="7.9701" stroke-linecap="butt" stroke-linejoin="miter" stroke="rgb(0%, 0%, 0%)" stroke-opacity="1" stroke-miterlimit="10" d="M 1650.039038 929.101549 L 1622.539038 929.101549 " transform="matrix(0.2, 0, 0, -0.2, 0, 388)"/>
<path fill="none" stroke-width="7.9701" stroke-linecap="butt" stroke-linejoin="miter" stroke="rgb(0%, 0%, 0%)" stroke-opacity="1" stroke-miterlimit="10" d="M 1567.539039 929.101549 L 1540.03904 929.101549 " transform="matrix(0.2, 0, 0, -0.2, 0, 388)"/>
<path fill="none" stroke-width="7.9701" stroke-linecap="butt" stroke-linejoin="miter" stroke="rgb(0%, 0%, 0%)" stroke-opacity="1" stroke-miterlimit="10" d="M 1540.03904 929.101549 L 1512.53904 929.101549 " transform="matrix(0.2, 0, 0, -0.2, 0, 388)"/>
<path fill="none" stroke-width="7.9701" stroke-linecap="butt" stroke-linejoin="miter" stroke="rgb(0%, 0%, 0%)" stroke-opacity="1" stroke-miterlimit="10" d="M 1457.539041 929.101549 L 1430.039041 929.101549 " transform="matrix(0.2, 0, 0, -0.2, 0, 388)"/>
<path fill="none" stroke-width="7.9701" stroke-linecap="butt" stroke-linejoin="miter" stroke="rgb(0%, 0%, 0%)" stroke-opacity="1" stroke-miterlimit="10" d="M 1430.039041 929.101549 L 1402.539042 929.101549 " transform="matrix(0.2, 0, 0, -0.2, 0, 388)"/>
<path fill="none" stroke-width="7.9701" stroke-linecap="butt" stroke-linejoin="miter" stroke="rgb(0%, 0%, 0%)" stroke-opacity="1" stroke-miterlimit="10" d="M 1347.539042 929.101549 L 1319.99998 929.101549 " transform="matrix(0.2, 0, 0, -0.2, 0, 388)"/>
<path fill="none" stroke-width="7.9701" stroke-linecap="butt" stroke-linejoin="miter" stroke="rgb(0%, 0%, 0%)" stroke-opacity="1" stroke-miterlimit="10" d="M 1319.99998 929.101549 L 1292.539043 929.101549 " transform="matrix(0.2, 0, 0, -0.2, 0, 388)"/>
<path fill="none" stroke-width="7.9701" stroke-linecap="butt" stroke-linejoin="miter" stroke="rgb(0%, 0%, 0%)" stroke-opacity="1" stroke-miterlimit="10" d="M 1237.539044 929.101549 L 1210.039044 929.101549 " transform="matrix(0.2, 0, 0, -0.2, 0, 388)"/>
<path fill="none" stroke-width="7.9701" stroke-linecap="butt" stroke-linejoin="miter" stroke="rgb(0%, 0%, 0%)" stroke-opacity="1" stroke-miterlimit="10" d="M 1210.039044 929.101549 L 1182.539045 929.101549 " transform="matrix(0.2, 0, 0, -0.2, 0, 388)"/>
<path fill="none" stroke-width="7.9701" stroke-linecap="butt" stroke-linejoin="miter" stroke="rgb(0%, 0%, 0%)" stroke-opacity="1" stroke-miterlimit="10" d="M 1127.499983 929.101549 L 1100.039046 929.101549 " transform="matrix(0.2, 0, 0, -0.2, 0, 388)"/>
<path fill="none" stroke-width="7.9701" stroke-linecap="butt" stroke-linejoin="miter" stroke="rgb(0%, 0%, 0%)" stroke-opacity="1" stroke-miterlimit="10" d="M 1100.039046 929.101549 L 1072.499984 929.101549 " transform="matrix(0.2, 0, 0, -0.2, 0, 388)"/>
<path fill="none" stroke-width="7.9701" stroke-linecap="butt" stroke-linejoin="miter" stroke="rgb(0%, 0%, 0%)" stroke-opacity="1" stroke-miterlimit="10" d="M 1017.499985 929.101549 L 989.999985 929.101549 " transform="matrix(0.2, 0, 0, -0.2, 0, 388)"/>
<path fill="none" stroke-width="7.9701" stroke-linecap="butt" stroke-linejoin="miter" stroke="rgb(0%, 0%, 0%)" stroke-opacity="1" stroke-miterlimit="10" d="M 989.999985 929.101549 L 962.499986 929.101549 " transform="matrix(0.2, 0, 0, -0.2, 0, 388)"/>
<path fill="none" stroke-width="7.9701" stroke-linecap="butt" stroke-linejoin="miter" stroke="rgb(0%, 0%, 0%)" stroke-opacity="1" stroke-miterlimit="10" d="M 907.499986 929.101549 L 879.999987 929.101549 " transform="matrix(0.2, 0, 0, -0.2, 0, 388)"/>
<path fill="none" stroke-width="7.9701" stroke-linecap="butt" stroke-linejoin="miter" stroke="rgb(0%, 0%, 0%)" stroke-opacity="1" stroke-miterlimit="10" d="M 879.999987 929.101549 L 852.499987 929.101549 " transform="matrix(0.2, 0, 0, -0.2, 0, 388)"/>
<path fill="none" stroke-width="7.9701" stroke-linecap="butt" stroke-linejoin="miter" stroke="rgb(0%, 0%, 0%)" stroke-opacity="1" stroke-miterlimit="10" d="M 797.499988 929.101549 L 769.999989 929.101549 " transform="matrix(0.2, 0, 0, -0.2, 0, 388)"/>
<path fill-rule="nonzero" fill="rgb(100%, 100%, 100%)" fill-opacity="1" d="M 142.460938 271.695312 L 165.5 271.695312 L 165.5 297.851562 L 142.460938 297.851562 Z M 142.460938 271.695312 "/>
<path fill-rule="nonzero" fill="rgb(0%, 0%, 0%)" fill-opacity="1" d="M 158.511719 284.863281 C 158.511719 283.113281 158.417969 281.363281 157.636719 279.738281 C 156.636719 277.644531 154.855469 277.300781 153.917969 277.300781 C 152.636719 277.300781 151.042969 277.863281 150.136719 279.894531 C 149.449219 281.394531 149.324219 283.113281 149.324219 284.863281 C 149.324219 286.488281 149.417969 288.457031 150.324219 290.113281 C 151.261719 291.863281 152.855469 292.300781 153.917969 292.300781 C 155.074219 292.300781 156.761719 291.863281 157.699219 289.769531 C 158.417969 288.269531 158.511719 286.582031 158.511719 284.863281 Z M 153.917969 291.832031 C 153.074219 291.832031 151.761719 291.300781 151.386719 289.207031 C 151.136719 287.894531 151.136719 285.863281 151.136719 284.582031 C 151.136719 283.207031 151.136719 281.769531 151.324219 280.582031 C 151.730469 277.988281 153.355469 277.769531 153.917969 277.769531 C 154.636719 277.769531 156.074219 278.175781 156.480469 280.332031 C 156.699219 281.550781 156.699219 283.207031 156.699219 284.582031 C 156.699219 286.238281 156.699219 287.707031 156.449219 289.113281 C 156.136719 291.175781 154.886719 291.832031 153.917969 291.832031 Z M 153.917969 291.832031 "/>
<path fill-rule="nonzero" fill="rgb(100%, 100%, 100%)" fill-opacity="1" d="M 231.78125 184.375 L 323.8125 156.234375 L 340.445312 210.632812 L 248.414062 238.773438 Z M 231.78125 184.375 "/>
<path fill-rule="nonzero" fill="rgb(0%, 0%, 0%)" fill-opacity="1" d="M 252.871094 184.414062 C 252.871094 184.414062 252.777344 184.195312 252.527344 184.257812 C 252.214844 184.351562 250.277344 185.164062 249.964844 185.289062 C 249.808594 185.382812 249.714844 185.507812 249.808594 185.789062 C 249.871094 186.039062 250.058594 185.976562 250.339844 185.882812 C 251.371094 185.570312 251.433594 185.726562 251.496094 185.914062 L 251.589844 186.382812 L 251.839844 191.695312 C 251.214844 191.007812 250.464844 190.632812 249.496094 190.945312 C 247.058594 191.695312 245.433594 195.539062 246.371094 198.601562 C 246.964844 200.570312 248.496094 201.601562 250.152344 201.101562 C 250.558594 200.976562 251.589844 200.539062 252.371094 198.664062 C 252.839844 199.539062 253.746094 199.976562 254.746094 199.695312 C 255.464844 199.476562 255.808594 198.820312 255.964844 198.007812 C 256.089844 197.164062 255.964844 195.820312 255.964844 195.757812 C 255.902344 195.570312 255.683594 195.632812 255.621094 195.664062 C 255.402344 195.726562 255.433594 195.820312 255.464844 196.132812 C 255.527344 197.570312 255.527344 198.914062 254.652344 199.164062 C 254.121094 199.351562 253.839844 198.820312 253.714844 198.414062 C 253.558594 197.882812 253.589844 197.789062 253.589844 197.382812 Z M 252.152344 197.507812 C 252.152344 197.914062 252.152344 197.945312 251.933594 198.382812 C 251.371094 199.820312 250.652344 200.382812 250.058594 200.570312 C 248.996094 200.914062 248.371094 199.851562 248.121094 199.039062 C 247.777344 198.007812 247.683594 195.226562 247.871094 194.132812 C 248.152344 192.726562 248.839844 191.664062 249.652344 191.382812 C 250.996094 190.976562 251.839844 192.570312 251.871094 192.695312 C 251.902344 192.820312 251.933594 193.007812 251.933594 193.101562 Z M 252.152344 197.507812 "/>
<path fill-rule="nonzero" fill="rgb(0%, 0%, 0%)" fill-opacity="1" d="M 264.941406 187.617188 C 264.941406 187.273438 264.941406 187.242188 264.910156 187.085938 C 264.785156 186.710938 264.410156 186.617188 264.128906 186.710938 C 263.910156 186.773438 263.628906 186.992188 263.503906 187.367188 C 263.503906 187.460938 263.535156 188.179688 263.566406 188.617188 C 263.628906 189.179688 263.628906 189.804688 263.691406 190.367188 L 263.847656 194.429688 C 263.878906 194.742188 263.441406 196.492188 262.066406 196.898438 C 261.003906 197.242188 260.503906 196.429688 260.253906 195.648438 C 259.972656 194.679688 259.910156 193.242188 260.066406 191.210938 C 260.160156 190.242188 260.191406 189.992188 260.066406 189.585938 C 259.753906 188.617188 258.847656 188.085938 257.785156 188.398438 C 255.816406 189.023438 255.941406 192.273438 256.003906 192.460938 C 256.066406 192.648438 256.285156 192.585938 256.347656 192.585938 C 256.535156 192.492188 256.535156 192.492188 256.535156 192.085938 C 256.503906 189.992188 257.160156 189.117188 257.847656 188.898438 C 258.035156 188.835938 258.378906 188.742188 258.597656 189.398438 C 258.753906 189.929688 258.722656 190.523438 258.691406 190.960938 C 258.535156 193.398438 258.503906 194.742188 258.816406 195.710938 C 259.378906 197.585938 260.878906 197.804688 262.128906 197.429688 C 262.941406 197.179688 263.535156 196.585938 263.941406 195.804688 C 264.003906 196.992188 264.097656 198.085938 263.597656 199.460938 C 263.253906 200.304688 262.628906 201.179688 261.660156 201.460938 C 261.378906 201.554688 260.441406 201.773438 259.847656 201.085938 C 260.160156 200.960938 260.441406 200.898438 260.628906 200.554688 C 260.816406 200.304688 260.941406 199.992188 260.816406 199.554688 C 260.628906 198.929688 260.003906 198.992188 259.816406 199.054688 C 259.316406 199.210938 258.722656 199.773438 259.035156 200.773438 C 259.347656 201.835938 260.535156 202.335938 261.816406 201.929688 C 263.972656 201.273438 265.535156 198.742188 265.378906 196.179688 Z M 264.941406 187.617188 "/>
<path fill-rule="nonzero" fill="rgb(0%, 0%, 0%)" fill-opacity="1" d="M 248.585938 210.609375 L 271.539062 203.59375 L 271.820312 204.515625 L 248.867188 211.53125 Z M 248.585938 210.609375 "/>
<path fill-rule="nonzero" fill="rgb(0%, 0%, 0%)" fill-opacity="1" d="M 261.113281 213.015625 C 261.113281 213.015625 261.019531 212.796875 260.769531 212.859375 C 260.457031 212.953125 258.519531 213.765625 258.207031 213.890625 C 258.050781 213.984375 257.957031 214.109375 258.050781 214.390625 C 258.113281 214.640625 258.300781 214.578125 258.582031 214.484375 C 259.613281 214.171875 259.675781 214.328125 259.738281 214.515625 L 259.832031 214.984375 L 260.082031 220.296875 C 259.457031 219.609375 258.707031 219.234375 257.738281 219.546875 C 255.300781 220.296875 253.675781 224.140625 254.613281 227.203125 C 255.207031 229.171875 256.738281 230.203125 258.394531 229.703125 C 258.800781 229.578125 259.832031 229.140625 260.613281 227.265625 C 261.082031 228.140625 261.988281 228.578125 262.988281 228.296875 C 263.707031 228.078125 264.050781 227.421875 264.207031 226.609375 C 264.332031 225.765625 264.207031 224.421875 264.207031 224.359375 C 264.144531 224.171875 263.925781 224.234375 263.863281 224.265625 C 263.644531 224.328125 263.675781 224.421875 263.707031 224.734375 C 263.769531 226.171875 263.769531 227.515625 262.894531 227.765625 C 262.363281 227.953125 262.082031 227.421875 261.957031 227.015625 C 261.800781 226.484375 261.832031 226.390625 261.832031 225.984375 Z M 260.394531 226.109375 C 260.394531 226.515625 260.394531 226.546875 260.175781 226.984375 C 259.613281 228.421875 258.894531 228.984375 258.300781 229.171875 C 257.238281 229.515625 256.613281 228.453125 256.363281 227.640625 C 256.019531 226.609375 255.925781 223.828125 256.113281 222.734375 C 256.394531 221.328125 257.082031 220.265625 257.894531 219.984375 C 259.238281 219.578125 260.082031 221.171875 260.113281 221.296875 C 260.144531 221.421875 260.175781 221.609375 260.175781 221.703125 Z M 260.394531 226.109375 "/>
<path fill-rule="nonzero" fill="rgb(0%, 0%, 0%)" fill-opacity="1" d="M 270.527344 218.8125 C 270.496094 218.25 270.371094 216.1875 271.839844 215.75 C 271.964844 215.71875 272.433594 215.5625 272.964844 215.65625 C 272.433594 215.9375 272.183594 216.59375 272.339844 217.125 C 272.433594 217.4375 272.746094 217.78125 273.339844 217.625 C 273.808594 217.46875 274.339844 216.84375 274.089844 216.03125 C 273.777344 214.9375 272.464844 215.03125 271.746094 215.25 C 270.527344 215.625 270.121094 216.9375 270.027344 217.53125 C 269.089844 216.28125 267.871094 216.4375 267.277344 216.625 C 265.121094 217.28125 264.746094 220.375 264.902344 220.875 C 264.964844 221.0625 265.183594 221 265.214844 220.96875 C 265.402344 220.9375 265.433594 220.90625 265.402344 220.6875 C 265.433594 218.25 266.652344 217.3125 267.371094 217.09375 C 267.777344 216.96875 268.589844 216.9375 268.964844 218.15625 C 269.152344 218.78125 269.214844 220.3125 269.339844 223.4375 C 269.402344 224.84375 268.933594 225.9375 268.027344 226.21875 C 267.871094 226.25 267.402344 226.40625 266.902344 226.28125 C 267.371094 226.03125 267.683594 225.4375 267.496094 224.84375 C 267.339844 224.28125 266.839844 224.25 266.527344 224.34375 C 265.902344 224.53125 265.527344 225.25 265.746094 225.9375 C 266.027344 226.875 267.214844 227 268.121094 226.71875 C 269.496094 226.28125 269.808594 224.59375 269.839844 224.46875 C 270.339844 225.125 271.339844 225.75 272.589844 225.34375 C 274.714844 224.71875 275.089844 221.65625 274.933594 221.09375 C 274.871094 220.90625 274.683594 220.96875 274.621094 220.96875 C 274.433594 221.03125 274.433594 221.15625 274.433594 221.28125 C 274.433594 223.75 273.152344 224.65625 272.496094 224.84375 C 271.683594 225.09375 271.121094 224.53125 270.902344 223.8125 C 270.777344 223.375 270.746094 222.90625 270.683594 221.90625 Z M 270.527344 218.8125 "/>
<path fill-rule="nonzero" fill="rgb(0%, 0%, 0%)" fill-opacity="1" d="M 293.363281 195.726562 C 293.675781 195.632812 294.050781 195.507812 293.925781 195.101562 C 293.800781 194.664062 293.425781 194.789062 293.113281 194.882812 L 280.613281 198.695312 C 280.332031 198.789062 279.925781 198.914062 280.050781 199.351562 C 280.175781 199.757812 280.582031 199.632812 280.894531 199.539062 Z M 294.613281 199.757812 C 294.925781 199.664062 295.300781 199.539062 295.175781 199.132812 C 295.050781 198.695312 294.675781 198.820312 294.363281 198.914062 L 281.894531 202.726562 C 281.582031 202.820312 281.175781 202.945312 281.300781 203.382812 C 281.425781 203.789062 281.832031 203.664062 282.113281 203.570312 Z M 294.613281 199.757812 "/>
<path fill-rule="nonzero" fill="rgb(0%, 0%, 0%)" fill-opacity="1" d="M 304.757812 178.652344 C 304.632812 178.246094 304.601562 178.214844 304.195312 178.339844 C 303.476562 179.746094 301.882812 180.214844 301.351562 180.402344 L 301.507812 180.933594 C 301.820312 180.808594 302.882812 180.496094 303.664062 179.777344 L 306.382812 188.652344 C 306.570312 189.277344 306.601562 189.496094 305.007812 189.996094 L 304.476562 190.152344 L 304.632812 190.683594 C 305.195312 190.433594 306.726562 189.964844 307.414062 189.777344 C 308.132812 189.558594 309.664062 189.089844 310.320312 188.933594 L 310.164062 188.402344 L 309.632812 188.589844 C 308.007812 189.089844 307.882812 188.871094 307.695312 188.246094 Z M 304.757812 178.652344 "/>
<path fill-rule="nonzero" fill="rgb(0%, 0%, 0%)" fill-opacity="1" d="M 303.671875 193.765625 L 312.625 191.03125 L 312.90625 191.953125 L 303.953125 194.6875 Z M 303.671875 193.765625 "/>
<path fill-rule="nonzero" fill="rgb(0%, 0%, 0%)" fill-opacity="1" d="M 314.585938 201.121094 L 314.117188 201.246094 C 314.179688 201.496094 314.304688 202.589844 314.210938 202.902344 C 314.148438 203.089844 312.992188 203.464844 312.617188 203.558594 L 309.585938 204.496094 L 310.773438 202.339844 C 312.835938 199.089844 313.585938 197.839844 313.054688 196.121094 C 312.460938 194.152344 310.429688 193.246094 308.304688 193.902344 C 306.335938 194.496094 305.492188 196.464844 305.960938 198.027344 C 306.210938 198.902344 306.992188 198.746094 307.117188 198.714844 C 307.523438 198.589844 307.929688 198.152344 307.742188 197.527344 C 307.585938 197.027344 307.148438 196.714844 306.585938 196.902344 C 306.523438 196.933594 306.492188 196.933594 306.398438 196.996094 C 306.429688 195.652344 307.367188 194.777344 308.304688 194.496094 C 310.054688 193.964844 311.117188 195.402344 311.492188 196.589844 C 312.023438 198.308594 311.148438 200.152344 310.617188 201.308594 L 308.492188 205.621094 C 308.367188 205.933594 308.367188 205.964844 308.492188 206.339844 L 315.054688 204.308594 Z M 314.585938 201.121094 "/>
<path fill-rule="nonzero" fill="rgb(0%, 0%, 0%)" fill-opacity="1" d="M 321.488281 187.671875 C 321.457031 187.109375 321.332031 185.046875 322.800781 184.609375 C 322.925781 184.578125 323.394531 184.421875 323.925781 184.515625 C 323.394531 184.796875 323.144531 185.453125 323.300781 185.984375 C 323.394531 186.296875 323.707031 186.640625 324.300781 186.484375 C 324.769531 186.328125 325.300781 185.703125 325.050781 184.890625 C 324.738281 183.796875 323.425781 183.890625 322.707031 184.109375 C 321.488281 184.484375 321.082031 185.796875 320.988281 186.390625 C 320.050781 185.140625 318.832031 185.296875 318.238281 185.484375 C 316.082031 186.140625 315.707031 189.234375 315.863281 189.734375 C 315.925781 189.921875 316.144531 189.859375 316.175781 189.828125 C 316.363281 189.796875 316.394531 189.765625 316.363281 189.546875 C 316.394531 187.109375 317.613281 186.171875 318.332031 185.953125 C 318.738281 185.828125 319.550781 185.796875 319.925781 187.015625 C 320.113281 187.640625 320.175781 189.171875 320.300781 192.296875 C 320.363281 193.703125 319.894531 194.796875 318.988281 195.078125 C 318.832031 195.109375 318.363281 195.265625 317.863281 195.140625 C 318.332031 194.890625 318.644531 194.296875 318.457031 193.703125 C 318.300781 193.140625 317.800781 193.109375 317.488281 193.203125 C 316.863281 193.390625 316.488281 194.109375 316.707031 194.796875 C 316.988281 195.734375 318.175781 195.859375 319.082031 195.578125 C 320.457031 195.140625 320.769531 193.453125 320.800781 193.328125 C 321.300781 193.984375 322.300781 194.609375 323.550781 194.203125 C 325.675781 193.578125 326.050781 190.515625 325.894531 189.953125 C 325.832031 189.765625 325.644531 189.828125 325.582031 189.828125 C 325.394531 189.890625 325.394531 190.015625 325.394531 190.140625 C 325.394531 192.609375 324.113281 193.515625 323.457031 193.703125 C 322.644531 193.953125 322.082031 193.390625 321.863281 192.671875 C 321.738281 192.234375 321.707031 191.765625 321.644531 190.765625 Z M 321.488281 187.671875 "/>
<path fill="none" stroke-width="11.9553" stroke-linecap="butt" stroke-linejoin="miter" stroke="rgb(0%, 0%, 0%)" stroke-opacity="1" stroke-miterlimit="10" d="M 98.984374 385.742182 L 1980.039033 962.851548 " transform="matrix(0.2, 0, 0, -0.2, 0, 388)"/>
<path fill-rule="nonzero" fill="rgb(0%, 0%, 0%)" fill-opacity="1" d="M 153.601562 380.300781 C 154.789062 379.894531 156.789062 379.300781 156.789062 377.363281 C 156.789062 375.050781 154.070312 373.988281 152.101562 373.988281 C 151.164062 373.988281 150.195312 374.207031 149.351562 374.707031 C 149.226562 374.769531 149.070312 374.957031 148.914062 374.957031 C 148.601562 374.957031 148.039062 373.988281 147.726562 373.988281 C 147.539062 373.988281 147.507812 374.207031 147.507812 374.300781 L 147.507812 377.863281 C 147.507812 377.988281 147.601562 378.144531 147.789062 378.144531 C 148.101562 378.144531 148.070312 377.519531 148.164062 377.175781 C 148.632812 375.457031 150.195312 374.707031 151.695312 374.613281 L 152.101562 374.613281 C 153.445312 374.613281 155.007812 375.488281 155.007812 377.363281 C 155.007812 379.175781 153.226562 380.113281 151.570312 380.113281 C 151.257812 380.113281 150.945312 380.113281 150.632812 380.113281 L 150.476562 380.113281 C 150.289062 380.113281 150.070312 380.113281 150.070312 380.332031 L 150.070312 380.363281 C 150.101562 380.550781 150.289062 380.582031 150.476562 380.582031 L 152.320312 380.582031 C 153.882812 380.707031 155.320312 381.738281 155.476562 383.363281 L 155.476562 383.582031 C 155.476562 385.425781 153.757812 386.582031 152.007812 386.582031 C 150.101562 386.582031 148.132812 385.957031 147.820312 383.582031 C 147.820312 383.425781 147.757812 383.238281 147.539062 383.238281 C 147.320312 383.269531 147.289062 383.425781 147.289062 383.582031 C 147.289062 386.175781 149.882812 387.207031 152.132812 387.207031 C 154.195312 387.207031 157.070312 386.238281 157.320312 383.769531 L 157.320312 383.644531 C 157.320312 381.675781 155.257812 380.707031 153.601562 380.300781 Z M 153.601562 380.300781 "/>
<path fill-rule="nonzero" fill="rgb(0%, 0%, 0%)" fill-opacity="1" d="M 165.695312 373.988281 C 162.320312 374.394531 159.632812 377.050781 159.632812 380.644531 C 159.632812 383.925781 162.226562 387.175781 166.101562 387.175781 C 169.601562 387.175781 172.570312 384.269531 172.570312 380.644531 C 172.570312 377.457031 170.070312 373.988281 166.132812 373.988281 C 166.007812 373.988281 165.851562 373.988281 165.695312 373.988281 Z M 161.507812 380.863281 L 161.507812 380.519531 C 161.507812 378.019531 162.414062 375.082031 165.570312 374.550781 C 165.757812 374.519531 165.914062 374.519531 166.101562 374.519531 C 168.914062 374.519531 170.664062 377.238281 170.664062 380.269531 C 170.664062 382.675781 169.945312 385.738281 166.976562 386.519531 C 166.695312 386.582031 166.414062 386.613281 166.132812 386.613281 L 165.945312 386.613281 C 163.351562 386.519531 161.945312 384.050781 161.601562 381.644531 Z M 161.507812 380.863281 "/>
<path fill-rule="nonzero" fill="rgb(0%, 0%, 0%)" fill-opacity="1" d="M 175.027344 374.332031 L 175.027344 374.925781 L 175.464844 374.925781 C 176.058594 374.925781 176.683594 375.019531 176.683594 375.894531 L 176.683594 385.363281 C 176.683594 386.207031 175.964844 386.238281 175.308594 386.238281 L 175.027344 386.238281 L 175.027344 386.832031 L 180.808594 386.832031 C 181.214844 386.832031 181.589844 386.863281 181.996094 386.863281 C 183.996094 386.863281 186.339844 385.925781 186.558594 383.519531 L 186.558594 383.332031 C 186.558594 380.800781 183.683594 379.769531 181.777344 379.769531 C 180.527344 379.769531 179.339844 379.894531 178.152344 379.988281 L 178.152344 375.769531 C 178.152344 375.332031 178.214844 374.925781 178.996094 374.925781 L 181.308594 374.925781 C 182.277344 374.925781 183.371094 374.988281 184.089844 375.707031 C 184.777344 376.425781 184.871094 377.644531 184.964844 378.582031 L 185.496094 378.582031 L 185.027344 374.332031 Z M 178.152344 380.613281 C 178.402344 380.613281 178.652344 380.550781 178.902344 380.519531 L 180.277344 380.457031 C 180.558594 380.425781 180.839844 380.394531 181.152344 380.394531 C 182.714844 380.394531 184.683594 381.394531 184.683594 383.238281 C 184.683594 384.988281 183.339844 386.269531 181.339844 386.269531 C 181.058594 386.269531 180.746094 386.238281 180.496094 386.238281 L 178.964844 386.238281 C 178.496094 386.238281 178.246094 386.207031 178.152344 385.582031 Z M 178.152344 380.613281 "/>
<path fill-rule="nonzero" fill="rgb(0%, 0%, 0%)" fill-opacity="1" d="M 188.90625 374.332031 L 188.90625 374.925781 L 189.375 374.925781 C 189.96875 374.925781 190.5625 375.019531 190.5625 375.894531 L 190.5625 385.363281 C 190.5625 386.207031 189.875 386.238281 189.1875 386.238281 L 188.90625 386.238281 L 188.90625 386.832031 L 193.8125 386.832031 L 193.8125 386.238281 L 193.375 386.238281 C 192.75 386.238281 192.15625 386.175781 192.15625 385.300781 L 192.15625 381.113281 L 195.875 381.113281 C 197.65625 380.988281 199.9375 379.800781 199.9375 377.769531 C 199.9375 375.550781 197.59375 374.488281 195.6875 374.332031 Z M 192.125 380.582031 L 192.125 375.582031 C 192.21875 374.988281 192.46875 374.925781 192.875 374.925781 L 194.3125 374.925781 C 195.9375 374.925781 198.0625 374.988281 198.0625 377.769531 C 198.0625 378.425781 197.96875 379.113281 197.5625 379.613281 C 196.90625 380.394531 195.8125 380.582031 194.84375 380.582031 Z M 192.125 380.582031 "/>
<path fill-rule="nonzero" fill="rgb(0%, 0%, 0%)" fill-opacity="1" d="M 204.636719 384.550781 C 204.136719 384.644531 203.636719 385.082031 203.636719 385.675781 C 203.636719 386.300781 204.167969 386.832031 204.792969 386.832031 C 205.417969 386.832031 205.980469 386.363281 205.980469 385.707031 C 205.980469 385.082031 205.449219 384.519531 204.824219 384.519531 C 204.761719 384.519531 204.699219 384.550781 204.636719 384.550781 Z M 204.636719 384.550781 "/>
<path fill-rule="nonzero" fill="rgb(0%, 0%, 0%)" fill-opacity="1" d="M 219.535156 374.332031 C 219.941406 372.769531 221.347656 371.644531 222.972656 371.644531 C 225.222656 371.644531 226.472656 373.613281 226.472656 375.550781 C 226.472656 377.238281 225.535156 378.738281 224.503906 379.988281 C 222.816406 382.082031 220.785156 383.957031 219.003906 385.925781 C 218.847656 386.113281 218.691406 386.269531 218.691406 386.519531 C 218.691406 386.613281 218.722656 386.738281 218.722656 386.832031 L 227.847656 386.832031 L 228.472656 382.832031 L 227.941406 382.832031 C 227.753906 383.800781 227.816406 385.082031 226.816406 385.082031 C 226.597656 385.113281 226.410156 385.113281 226.222656 385.113281 L 225.628906 385.113281 C 225.285156 385.144531 224.910156 385.144531 224.597656 385.144531 L 220.441406 385.144531 C 221.941406 383.644531 223.566406 382.175781 225.191406 380.800781 C 226.722656 379.488281 228.316406 377.957031 228.472656 375.832031 L 228.472656 375.519531 C 228.472656 372.800781 226.128906 370.957031 223.285156 370.957031 C 220.941406 370.957031 218.722656 372.863281 218.722656 375.300781 C 218.722656 376.113281 219.191406 376.582031 219.878906 376.582031 C 220.503906 376.582031 221.003906 376.113281 221.003906 375.425781 C 221.003906 374.800781 220.535156 374.300781 219.816406 374.300781 C 219.722656 374.300781 219.628906 374.300781 219.535156 374.332031 Z M 219.535156 374.332031 "/>
<path fill-rule="nonzero" fill="rgb(0%, 0%, 0%)" fill-opacity="1" d="M 230.902344 382.832031 L 237.496094 382.832031 L 237.496094 385.113281 C 237.496094 386.144531 236.683594 386.144531 235.121094 386.144531 L 235.121094 386.832031 L 241.558594 386.832031 L 241.558594 386.144531 C 241.277344 386.144531 240.964844 386.175781 240.652344 386.175781 C 239.839844 386.175781 239.183594 386.050781 239.183594 385.113281 L 239.183594 382.832031 L 241.714844 382.832031 L 241.714844 382.144531 L 239.183594 382.144531 L 239.183594 371.019531 L 239.089844 370.738281 L 238.621094 370.738281 L 238.308594 371.144531 L 230.902344 382.144531 Z M 231.496094 382.144531 L 237.589844 373.082031 L 237.589844 382.144531 Z M 231.496094 382.144531 "/>
<path fill-rule="nonzero" fill="rgb(0%, 0%, 0%)" fill-opacity="1" d="M 246.144531 384.550781 C 245.644531 384.644531 245.144531 385.082031 245.144531 385.675781 C 245.144531 386.300781 245.675781 386.832031 246.300781 386.832031 C 246.925781 386.832031 247.488281 386.363281 247.488281 385.707031 C 247.488281 385.082031 246.957031 384.519531 246.332031 384.519531 C 246.269531 384.519531 246.207031 384.550781 246.144531 384.550781 Z M 246.144531 384.550781 "/>
</svg>
