<?xml version="1.0" encoding="UTF-8"?>
<svg xmlns="http://www.w3.org/2000/svg" xmlns:xlink="http://www.w3.org/1999/xlink" width="324" height="284" viewBox="0 0 324 284">
<path fill="none" stroke-width="11.9553" stroke-linecap="butt" stroke-linejoin="miter" stroke="rgb(0%, 0%, 0%)" stroke-opacity="1" stroke-miterlimit="10" d="M 239.999996 671.171865 L 271.484371 681.523427 L 303.007808 693.476552 L 334.492183 707.070302 L 366.01562 722.343739 L 397.499994 739.296864 L 428.984369 758.046864 L 460.507806 778.554676 L 491.99218 800.937488 L 523.515617 825.117175 L 554.999992 851.249987 L 586.523429 879.257799 L 618.007803 909.257799 L 649.53124 941.210923 L 681.015615 975.156235 L 712.499989 1011.132797 L 744.023426 1049.101547 L 775.507801 1089.140609 L 807.031238 1131.249983 L 838.515613 1175.390607 L 869.999987 1221.601544 " transform="matrix(0.2, 0, 0, -0.2, 0, 284)"/>
<path fill="none" stroke-width="11.9553" stroke-linecap="butt" stroke-linejoin="miter" stroke="rgb(0%, 0%, 0%)" stroke-opacity="1" stroke-miterlimit="10" d="M 869.999987 1221.601544 L 901.523424 1175.390607 L 933.007799 1131.249983 L 964.531236 1089.140609 L 996.01561 1049.101547 L 1027.499985 1011.132797 L 1059.023422 975.156235 L 1090.507796 941.210923 L 1122.031233 909.257799 L 1153.515608 879.257799 L 1184.999982 851.249987 L 1216.523419 825.117175 L 1248.007794 800.937488 L 1279.531231 778.554676 L 1311.015605 758.046864 L 1342.539042 739.296864 L 1374.023417 722.343739 L 1405.507792 707.070302 L 1437.031229 693.476552 L 1468.515603 681.523427 L 1500.03904 671.171865 " transform="matrix(0.2, 0, 0, -0.2, 0, 284)"/>
<path fill="none" stroke-width="7.9701" stroke-linecap="butt" stroke-linejoin="miter" stroke="rgb(0%, 0%, 0%)" stroke-opacity="1" stroke-miterlimit="10" d="M 869.999987 321.601558 L 869.999987 349.726557 " transform="matrix(0.2, 0, 0, -0.2, 0, 284)"/>
<path fill="none" stroke-width="7.9701" stroke-linecap="butt" stroke-linejoin="miter" stroke="rgb(0%, 0%, 0%)" stroke-opacity="1" stroke-miterlimit="10" d="M 869.999987 405.976556 L 869.999987 434.101556 " transform="matrix(0.2, 0, 0, -0.2, 0, 284)"/>
<path fill="none" stroke-width="7.9701" stroke-linecap="butt" stroke-linejoin="miter" stroke="rgb(0%, 0%, 0%)" stroke-opacity="1" stroke-miterlimit="10" d="M 869.999987 434.101556 L 869.999987 462.226556 " transform="matrix(0.2, 0, 0, -0.2, 0, 284)"/>
<path fill="none" stroke-width="7.9701" stroke-linecap="butt" stroke-linejoin="miter" stroke="rgb(0%, 0%, 0%)" stroke-opacity="1" stroke-miterlimit="10" d="M 869.999987 518.476555 L 869.999987 546.601554 " transform="matrix(0.2, 0, 0, -0.2, 0, 284)"/>
<path fill="none" stroke-width="7.9701" stroke-linecap="butt" stroke-linejoin="miter" stroke="rgb(0%, 0%, 0%)" stroke-opacity="1" stroke-miterlimit="10" d="M 869.999987 546.601554 L 869.999987 574.726554 " transform="matrix(0.2, 0, 0, -0.2, 0, 284)"/>
<path fill="none" stroke-width="7.9701" stroke-linecap="butt" stroke-linejoin="miter" stroke="rgb(0%, 0%, 0%)" stroke-opacity="1" stroke-miterlimit="10" d="M 869.999987 630.976553 L 869.999987 659.101553 " transform="matrix(0.2, 0, 0, -0.2, 0, 284)"/>
<path fill="none" stroke-width="7.9701" stroke-linecap="butt" stroke-linejoin="miter" stroke="rgb(0%, 0%, 0%)" stroke-opacity="1" stroke-miterlimit="10" d="M 869.999987 659.101553 L 869.999987 687.226552 " transform="matrix(0.2, 0, 0, -0.2, 0, 284)"/>
<path fill="none" stroke-width="7.9701" stroke-linecap="butt" stroke-linejoin="miter" stroke="rgb(0%, 0%, 0%)" stroke-opacity="1" stroke-miterlimit="10" d="M 869.999987 743.476551 L 869.999987 771.601551 " transform="matrix(0.2, 0, 0, -0.2, 0, 284)"/>
<path fill="none" stroke-width="7.9701" stroke-linecap="butt" stroke-linejoin="miter" stroke="rgb(0%, 0%, 0%)" stroke-opacity="1" stroke-miterlimit="10" d="M 869.999987 771.601551 L 869.999987 799.726551 " transform="matrix(0.2, 0, 0, -0.2, 0, 284)"/>
<path fill="none" stroke-width="7.9701" stroke-linecap="butt" stroke-linejoin="miter" stroke="rgb(0%, 0%, 0%)" stroke-opacity="1" stroke-miterlimit="10" d="M 869.999987 855.97655 L 869.999987 884.101549 " transform="matrix(0.2, 0, 0, -0.2, 0, 284)"/>
<path fill="none" stroke-width="7.9701" stroke-linecap="butt" stroke-linejoin="miter" stroke="rgb(0%, 0%, 0%)" stroke-opacity="1" stroke-miterlimit="10" d="M 869.999987 884.101549 L 869.999987 912.226549 " transform="matrix(0.2, 0, 0, -0.2, 0, 284)"/>
<path fill="none" stroke-width="7.9701" stroke-linecap="butt" stroke-linejoin="miter" stroke="rgb(0%, 0%, 0%)" stroke-opacity="1" stroke-miterlimit="10" d="M 869.999987 968.476548 L 869.999987 996.601548 " transform="matrix(0.2, 0, 0, -0.2, 0, 284)"/>
<path fill="none" stroke-width="7.9701" stroke-linecap="butt" stroke-linejoin="miter" stroke="rgb(0%, 0%, 0%)" stroke-opacity="1" stroke-miterlimit="10" d="M 869.999987 996.601548 L 869.999987 1024.726547 " transform="matrix(0.2, 0, 0, -0.2, 0, 284)"/>
<path fill="none" stroke-width="7.9701" stroke-linecap="butt" stroke-linejoin="miter" stroke="rgb(0%, 0%, 0%)" stroke-opacity="1" stroke-miterlimit="10" d="M 869.999987 1080.976546 L 869.999987 1109.101546 " transform="matrix(0.2, 0, 0, -0.2, 0, 284)"/>
<path fill="none" stroke-width="7.9701" stroke-linecap="butt" stroke-linejoin="miter" stroke="rgb(0%, 0%, 0%)" stroke-opacity="1" stroke-miterlimit="10" d="M 869.999987 1109.101546 L 869.999987 1137.226546 " transform="matrix(0.2, 0, 0, -0.2, 0, 284)"/>
<path fill="none" stroke-width="7.9701" stroke-linecap="butt" stroke-linejoin="miter" stroke="rgb(0%, 0%, 0%)" stroke-opacity="1" stroke-miterlimit="10" d="M 869.999987 1193.476545 L 869.999987 1221.601544 " transform="matrix(0.2, 0, 0, -0.2, 0, 284)"/>
<path fill-rule="nonzero" fill="rgb(100%, 100%, 100%)" fill-opacity="1" d="M 0.695312 219.703125 L 29.976562 219.703125 L 29.976562 246.585938 L 0.695312 246.585938 Z M 0.695312 219.703125 "/>
<path fill-rule="nonzero" fill="rgb(0%, 0%, 0%)" fill-opacity="1" d="M 22.875 231.058594 C 22.875 227.527344 20.5625 225.183594 17.3125 225.183594 C 12.59375 225.183594 7.78125 230.121094 7.78125 235.214844 C 7.78125 238.839844 10.21875 241.027344 13.375 241.027344 C 18 241.027344 22.875 236.246094 22.875 231.058594 Z M 13.5 240.464844 C 11.34375 240.464844 9.8125 238.714844 9.8125 235.839844 C 9.8125 234.871094 10.125 231.683594 11.8125 229.121094 C 13.3125 226.871094 15.4375 225.714844 17.15625 225.714844 C 18.96875 225.714844 20.90625 226.933594 20.90625 230.183594 C 20.90625 231.777344 20.34375 235.183594 18.15625 237.839844 C 17.125 239.183594 15.34375 240.464844 13.5 240.464844 Z M 13.5 240.464844 "/>
<path fill-rule="nonzero" fill="rgb(100%, 100%, 100%)" fill-opacity="1" d="M 298.15625 219.703125 L 330.078125 219.703125 L 330.078125 246.585938 L 298.15625 246.585938 Z M 298.15625 219.703125 "/>
<path fill-rule="nonzero" fill="rgb(0%, 0%, 0%)" fill-opacity="1" d="M 314.773438 231.589844 L 312.929688 227.246094 C 312.867188 227.089844 312.804688 226.996094 312.804688 226.964844 C 312.804688 226.839844 313.179688 226.433594 314.117188 226.339844 C 314.335938 226.308594 314.554688 226.308594 314.554688 225.933594 C 314.554688 225.652344 314.273438 225.652344 314.210938 225.652344 C 313.304688 225.652344 312.367188 225.714844 311.460938 225.714844 C 310.929688 225.714844 309.554688 225.652344 309.023438 225.652344 C 308.898438 225.652344 308.617188 225.652344 308.617188 226.089844 C 308.617188 226.339844 308.835938 226.339844 309.117188 226.339844 C 310.429688 226.339844 310.585938 226.558594 310.773438 227.027344 L 313.335938 233.121094 L 308.742188 238.058594 L 308.460938 238.308594 C 307.398438 239.464844 306.367188 239.808594 305.242188 239.871094 C 304.960938 239.902344 304.773438 239.902344 304.773438 240.308594 C 304.773438 240.339844 304.773438 240.558594 305.054688 240.558594 C 305.710938 240.558594 306.429688 240.496094 307.117188 240.496094 C 307.898438 240.496094 308.773438 240.558594 309.554688 240.558594 C 309.679688 240.558594 309.929688 240.558594 309.929688 240.121094 C 309.929688 239.902344 309.710938 239.871094 309.679688 239.871094 C 309.492188 239.871094 308.804688 239.808594 308.804688 239.214844 C 308.804688 238.871094 309.117188 238.496094 309.398438 238.214844 L 311.617188 235.871094 L 313.585938 233.746094 L 315.773438 238.933594 C 315.867188 239.183594 315.898438 239.214844 315.898438 239.246094 C 315.898438 239.433594 315.492188 239.808594 314.617188 239.871094 C 314.398438 239.902344 314.179688 239.933594 314.179688 240.308594 C 314.179688 240.558594 314.429688 240.558594 314.523438 240.558594 C 315.117188 240.558594 316.648438 240.496094 317.273438 240.496094 C 317.804688 240.496094 319.148438 240.558594 319.679688 240.558594 C 319.835938 240.558594 320.117188 240.558594 320.117188 240.152344 C 320.117188 239.871094 319.898438 239.871094 319.710938 239.871094 C 318.242188 239.871094 318.210938 239.808594 317.835938 238.933594 C 316.992188 236.902344 315.523438 233.496094 315.023438 232.183594 C 316.492188 230.652344 318.804688 228.058594 319.492188 227.464844 C 320.117188 226.933594 320.960938 226.402344 322.273438 226.339844 C 322.554688 226.308594 322.742188 226.308594 322.742188 225.902344 C 322.742188 225.871094 322.742188 225.652344 322.460938 225.652344 C 321.804688 225.652344 321.085938 225.714844 320.398438 225.714844 C 319.585938 225.714844 318.773438 225.652344 317.992188 225.652344 C 317.867188 225.652344 317.585938 225.652344 317.585938 226.089844 C 317.585938 226.246094 317.679688 226.308594 317.835938 226.339844 C 318.023438 226.371094 318.710938 226.402344 318.710938 227.027344 C 318.710938 227.308594 318.460938 227.589844 318.304688 227.808594 Z M 314.773438 231.589844 "/>
<path fill-rule="nonzero" fill="rgb(100%, 100%, 100%)" fill-opacity="1" d="M 0.453125 -5.757812 L 29.976562 -5.757812 L 29.976562 21.125 L 0.453125 21.125 Z M 0.453125 -5.757812 "/>
<path fill-rule="nonzero" fill="rgb(0%, 0%, 0%)" fill-opacity="1" d="M 19.511719 2.695312 L 19.792969 2.382812 C 20.449219 1.726562 21.167969 0.976562 22.667969 0.882812 C 22.917969 0.851562 23.105469 0.851562 23.105469 0.476562 C 23.105469 0.289062 22.980469 0.195312 22.824219 0.195312 C 22.261719 0.195312 21.605469 0.257812 21.042969 0.257812 C 20.324219 0.257812 19.542969 0.195312 18.855469 0.195312 C 18.730469 0.195312 18.449219 0.195312 18.449219 0.632812 C 18.449219 0.851562 18.636719 0.882812 18.761719 0.882812 C 18.917969 0.882812 19.542969 0.914062 19.542969 1.382812 C 19.542969 1.757812 19.042969 2.320312 18.949219 2.414062 L 13.886719 8.257812 L 11.511719 1.789062 C 11.355469 1.476562 11.355469 1.414062 11.355469 1.414062 C 11.355469 0.882812 12.449219 0.882812 12.667969 0.882812 C 12.949219 0.882812 13.167969 0.882812 13.167969 0.445312 C 13.167969 0.195312 12.917969 0.195312 12.855469 0.195312 C 12.230469 0.195312 10.699219 0.257812 10.105469 0.257812 C 9.542969 0.257812 8.199219 0.195312 7.667969 0.195312 C 7.542969 0.195312 7.230469 0.195312 7.230469 0.632812 C 7.230469 0.882812 7.449219 0.882812 7.730469 0.882812 C 9.042969 0.882812 9.136719 1.070312 9.324219 1.632812 L 12.011719 8.789062 C 12.042969 8.851562 12.105469 9.101562 12.105469 9.164062 C 12.105469 9.226562 11.230469 12.757812 11.136719 13.132812 C 10.855469 14.351562 10.824219 14.414062 9.074219 14.414062 C 8.667969 14.414062 8.480469 14.414062 8.480469 14.851562 C 8.480469 15.101562 8.761719 15.101562 8.792969 15.101562 C 9.417969 15.101562 10.917969 15.039062 11.542969 15.039062 C 12.136719 15.039062 13.730469 15.101562 14.324219 15.101562 C 14.480469 15.101562 14.761719 15.101562 14.761719 14.664062 C 14.761719 14.414062 14.542969 14.414062 14.136719 14.414062 C 14.105469 14.414062 13.667969 14.414062 13.292969 14.382812 C 12.855469 14.351562 12.730469 14.289062 12.730469 14.039062 C 12.730469 13.882812 12.917969 13.101562 13.011719 12.664062 L 13.792969 9.570312 C 13.886719 9.164062 13.917969 9.101562 14.105469 8.914062 Z M 19.511719 2.695312 "/>
<path fill="none" stroke-width="11.9553" stroke-linecap="butt" stroke-linejoin="miter" stroke="rgb(0%, 0%, 0%)" stroke-opacity="1" stroke-miterlimit="10" d="M 6.015625 321.601558 L 1590.039039 321.601558 " transform="matrix(0.2, 0, 0, -0.2, 0, 284)"/>
<path fill="none" stroke-width="11.9553" stroke-linecap="butt" stroke-linejoin="miter" stroke="rgb(0%, 0%, 0%)" stroke-opacity="1" stroke-miterlimit="10" d="M 149.999998 177.617185 L 149.999998 1401.601542 " transform="matrix(0.2, 0, 0, -0.2, 0, 284)"/>
<path fill-rule="nonzero" fill="rgb(0%, 0%, 0%)" fill-opacity="1" d="M 129.597656 276.300781 C 130.785156 275.894531 132.785156 275.300781 132.785156 273.363281 C 132.785156 271.050781 130.066406 269.988281 128.097656 269.988281 C 127.160156 269.988281 126.191406 270.207031 125.347656 270.707031 C 125.222656 270.769531 125.066406 270.957031 124.910156 270.957031 C 124.597656 270.957031 124.035156 269.988281 123.722656 269.988281 C 123.535156 269.988281 123.503906 270.207031 123.503906 270.300781 L 123.503906 273.863281 C 123.503906 273.988281 123.597656 274.144531 123.785156 274.144531 C 124.097656 274.144531 124.066406 273.519531 124.160156 273.175781 C 124.628906 271.457031 126.191406 270.707031 127.691406 270.613281 L 128.097656 270.613281 C 129.441406 270.613281 131.003906 271.488281 131.003906 273.363281 C 131.003906 275.175781 129.222656 276.113281 127.566406 276.113281 C 127.253906 276.113281 126.941406 276.113281 126.628906 276.113281 L 126.472656 276.113281 C 126.285156 276.113281 126.066406 276.113281 126.066406 276.332031 L 126.066406 276.363281 C 126.097656 276.550781 126.285156 276.582031 126.472656 276.582031 L 128.316406 276.582031 C 129.878906 276.707031 131.316406 277.738281 131.472656 279.363281 L 131.472656 279.582031 C 131.472656 281.425781 129.753906 282.582031 128.003906 282.582031 C 126.097656 282.582031 124.128906 281.957031 123.816406 279.582031 C 123.816406 279.425781 123.753906 279.238281 123.535156 279.238281 C 123.316406 279.269531 123.285156 279.425781 123.285156 279.582031 C 123.285156 282.175781 125.878906 283.207031 128.128906 283.207031 C 130.191406 283.207031 133.066406 282.238281 133.316406 279.769531 L 133.316406 279.644531 C 133.316406 277.675781 131.253906 276.707031 129.597656 276.300781 Z M 129.597656 276.300781 "/>
<path fill-rule="nonzero" fill="rgb(0%, 0%, 0%)" fill-opacity="1" d="M 141.695312 269.988281 C 138.320312 270.394531 135.632812 273.050781 135.632812 276.644531 C 135.632812 279.925781 138.226562 283.175781 142.101562 283.175781 C 145.601562 283.175781 148.570312 280.269531 148.570312 276.644531 C 148.570312 273.457031 146.070312 269.988281 142.132812 269.988281 C 142.007812 269.988281 141.851562 269.988281 141.695312 269.988281 Z M 137.507812 276.863281 L 137.507812 276.519531 C 137.507812 274.019531 138.414062 271.082031 141.570312 270.550781 C 141.757812 270.519531 141.914062 270.519531 142.101562 270.519531 C 144.914062 270.519531 146.664062 273.238281 146.664062 276.269531 C 146.664062 278.675781 145.945312 281.738281 142.976562 282.519531 C 142.695312 282.582031 142.414062 282.613281 142.132812 282.613281 L 141.945312 282.613281 C 139.351562 282.519531 137.945312 280.050781 137.601562 277.644531 Z M 137.507812 276.863281 "/>
<path fill-rule="nonzero" fill="rgb(0%, 0%, 0%)" fill-opacity="1" d="M 151.027344 270.332031 L 151.027344 270.925781 L 151.464844 270.925781 C 152.058594 270.925781 152.683594 271.019531 152.683594 271.894531 L 152.683594 281.363281 C 152.683594 282.207031 151.964844 282.238281 151.308594 282.238281 L 151.027344 282.238281 L 151.027344 282.832031 L 156.808594 282.832031 C 157.214844 282.832031 157.589844 282.863281 157.996094 282.863281 C 159.996094 282.863281 162.339844 281.925781 162.558594 279.519531 L 162.558594 279.332031 C 162.558594 276.800781 159.683594 275.769531 157.777344 275.769531 C 156.527344 275.769531 155.339844 275.894531 154.152344 275.988281 L 154.152344 271.769531 C 154.152344 271.332031 154.214844 270.925781 154.996094 270.925781 L 157.308594 270.925781 C 158.277344 270.925781 159.371094 270.988281 160.089844 271.707031 C 160.777344 272.425781 160.871094 273.644531 160.964844 274.582031 L 161.496094 274.582031 L 161.027344 270.332031 Z M 154.152344 276.613281 C 154.402344 276.613281 154.652344 276.550781 154.902344 276.519531 L 156.277344 276.457031 C 156.558594 276.425781 156.839844 276.394531 157.152344 276.394531 C 158.714844 276.394531 160.683594 277.394531 160.683594 279.238281 C 160.683594 280.988281 159.339844 282.269531 157.339844 282.269531 C 157.058594 282.269531 156.746094 282.238281 156.496094 282.238281 L 154.964844 282.238281 C 154.496094 282.238281 154.246094 282.207031 154.152344 281.582031 Z M 154.152344 276.613281 "/>
<path fill-rule="nonzero" fill="rgb(0%, 0%, 0%)" fill-opacity="1" d="M 164.90625 270.332031 L 164.90625 270.925781 L 165.375 270.925781 C 165.96875 270.925781 166.5625 271.019531 166.5625 271.894531 L 166.5625 281.363281 C 166.5625 282.207031 165.875 282.238281 165.1875 282.238281 L 164.90625 282.238281 L 164.90625 282.832031 L 169.8125 282.832031 L 169.8125 282.238281 L 169.375 282.238281 C 168.75 282.238281 168.15625 282.175781 168.15625 281.300781 L 168.15625 277.113281 L 171.875 277.113281 C 173.65625 276.988281 175.9375 275.800781 175.9375 273.769531 C 175.9375 271.550781 173.59375 270.488281 171.6875 270.332031 Z M 168.125 276.582031 L 168.125 271.582031 C 168.21875 270.988281 168.46875 270.925781 168.875 270.925781 L 170.3125 270.925781 C 171.9375 270.925781 174.0625 270.988281 174.0625 273.769531 C 174.0625 274.425781 173.96875 275.113281 173.5625 275.613281 C 172.90625 276.394531 171.8125 276.582031 170.84375 276.582031 Z M 168.125 276.582031 "/>
<path fill-rule="nonzero" fill="rgb(0%, 0%, 0%)" fill-opacity="1" d="M 180.632812 280.550781 C 180.132812 280.644531 179.632812 281.082031 179.632812 281.675781 C 179.632812 282.300781 180.164062 282.832031 180.789062 282.832031 C 181.414062 282.832031 181.976562 282.363281 181.976562 281.707031 C 181.976562 281.082031 181.445312 280.519531 180.820312 280.519531 C 180.757812 280.519531 180.695312 280.550781 180.632812 280.550781 Z M 180.632812 280.550781 "/>
<path fill-rule="nonzero" fill="rgb(0%, 0%, 0%)" fill-opacity="1" d="M 195.535156 270.332031 C 195.941406 268.769531 197.347656 267.644531 198.972656 267.644531 C 201.222656 267.644531 202.472656 269.613281 202.472656 271.550781 C 202.472656 273.238281 201.535156 274.738281 200.503906 275.988281 C 198.816406 278.082031 196.785156 279.957031 195.003906 281.925781 C 194.847656 282.113281 194.691406 282.269531 194.691406 282.519531 C 194.691406 282.613281 194.722656 282.738281 194.722656 282.832031 L 203.847656 282.832031 L 204.472656 278.832031 L 203.941406 278.832031 C 203.753906 279.800781 203.816406 281.082031 202.816406 281.082031 C 202.597656 281.113281 202.410156 281.113281 202.222656 281.113281 L 201.628906 281.113281 C 201.285156 281.144531 200.910156 281.144531 200.597656 281.144531 L 196.441406 281.144531 C 197.941406 279.644531 199.566406 278.175781 201.191406 276.800781 C 202.722656 275.488281 204.316406 273.957031 204.472656 271.832031 L 204.472656 271.519531 C 204.472656 268.800781 202.128906 266.957031 199.285156 266.957031 C 196.941406 266.957031 194.722656 268.863281 194.722656 271.300781 C 194.722656 272.113281 195.191406 272.582031 195.878906 272.582031 C 196.503906 272.582031 197.003906 272.113281 197.003906 271.425781 C 197.003906 270.800781 196.535156 270.300781 195.816406 270.300781 C 195.722656 270.300781 195.628906 270.300781 195.535156 270.332031 Z M 195.535156 270.332031 "/>
<path fill-rule="nonzero" fill="rgb(0%, 0%, 0%)" fill-opacity="1" d="M 208.121094 279.894531 C 208.214844 279.925781 208.371094 279.957031 208.527344 279.957031 C 209.183594 279.957031 209.558594 279.457031 209.558594 278.863281 C 209.558594 278.269531 209.089844 277.832031 208.527344 277.832031 C 207.933594 277.832031 207.433594 278.269531 207.433594 278.957031 C 207.433594 281.269531 209.339844 283.332031 211.902344 283.332031 C 214.808594 283.332031 217.183594 280.988281 217.183594 278.019531 C 217.183594 275.644531 215.839844 273.582031 213.433594 272.894531 C 213.183594 272.832031 212.902344 272.832031 212.621094 272.832031 C 211.371094 272.832031 210.246094 273.238281 209.371094 274.144531 L 209.371094 269.144531 C 210.121094 269.269531 210.808594 269.488281 211.589844 269.488281 C 213.183594 269.488281 214.777344 268.894531 215.964844 267.613281 C 216.089844 267.457031 216.246094 267.363281 216.246094 267.175781 L 216.246094 267.144531 C 216.214844 267.019531 216.121094 266.957031 216.027344 266.957031 C 215.964844 266.957031 215.964844 266.957031 215.902344 266.988281 C 214.746094 267.394531 213.746094 267.707031 212.527344 267.707031 C 211.464844 267.707031 210.339844 267.550781 209.371094 267.113281 C 209.246094 267.050781 209.152344 266.988281 208.996094 266.957031 L 208.933594 266.957031 C 208.839844 266.957031 208.746094 267.050781 208.746094 267.175781 L 208.746094 274.769531 C 208.746094 274.988281 208.777344 275.175781 209.027344 275.175781 C 209.308594 275.175781 209.464844 274.738281 209.652344 274.550781 C 210.402344 273.769531 211.402344 273.332031 212.496094 273.300781 C 213.652344 273.300781 214.371094 274.082031 214.808594 275.019531 C 215.246094 275.957031 215.246094 277.113281 215.246094 278.144531 C 215.246094 279.800781 214.902344 281.550781 213.183594 282.394531 C 212.746094 282.613281 212.277344 282.707031 211.839844 282.707031 C 210.121094 282.707031 208.621094 281.519531 208.121094 279.894531 Z M 208.121094 279.894531 "/>
<path fill-rule="nonzero" fill="rgb(0%, 0%, 0%)" fill-opacity="1" d="M 222.140625 280.550781 C 221.640625 280.644531 221.140625 281.082031 221.140625 281.675781 C 221.140625 282.300781 221.671875 282.832031 222.296875 282.832031 C 222.921875 282.832031 223.484375 282.363281 223.484375 281.707031 C 223.484375 281.082031 222.953125 280.519531 222.328125 280.519531 C 222.265625 280.519531 222.203125 280.550781 222.140625 280.550781 Z M 222.140625 280.550781 "/>
</svg>
