<?xml version="1.0" encoding="UTF-8"?>
<svg xmlns="http://www.w3.org/2000/svg" xmlns:xlink="http://www.w3.org/1999/xlink" width="326" height="332" viewBox="0 0 326 332">
<path fill-rule="nonzero" fill="rgb(0%, 0%, 0%)" fill-opacity="1" d="M 128.886719 155.839844 C 128.886719 155.339844 128.886719 155.277344 128.386719 155.277344 C 127.042969 156.683594 125.105469 156.683594 124.417969 156.683594 L 124.417969 157.339844 C 124.855469 157.339844 126.136719 157.339844 127.292969 156.777344 L 127.292969 168.089844 C 127.292969 168.871094 127.199219 169.121094 125.261719 169.121094 L 124.542969 169.121094 L 124.542969 169.808594 C 125.324219 169.746094 127.199219 169.746094 128.074219 169.746094 C 128.949219 169.746094 130.855469 169.746094 131.605469 169.808594 L 131.605469 169.121094 L 130.917969 169.121094 C 128.949219 169.121094 128.886719 168.902344 128.886719 168.089844 Z M 128.886719 155.839844 "/>
<path fill-rule="nonzero" fill="rgb(0%, 0%, 0%)" fill-opacity="1" d="M 173.261719 168.121094 L 175.574219 165.871094 C 178.980469 162.871094 180.261719 161.683594 180.261719 159.527344 C 180.261719 157.027344 178.324219 155.277344 175.636719 155.277344 C 173.199219 155.277344 171.574219 157.277344 171.574219 159.214844 C 171.574219 160.464844 172.667969 160.464844 172.730469 160.464844 C 173.105469 160.464844 173.855469 160.183594 173.855469 159.308594 C 173.855469 158.714844 173.480469 158.152344 172.699219 158.152344 C 172.542969 158.152344 172.480469 158.152344 172.417969 158.183594 C 172.917969 156.777344 174.105469 155.964844 175.355469 155.964844 C 177.355469 155.964844 178.292969 157.714844 178.292969 159.527344 C 178.292969 161.246094 177.199219 162.996094 176.011719 164.339844 L 171.824219 168.996094 C 171.574219 169.246094 171.574219 169.277344 171.574219 169.808594 L 179.667969 169.808594 L 180.261719 166.027344 L 179.730469 166.027344 C 179.605469 166.652344 179.480469 167.621094 179.261719 167.964844 C 179.105469 168.121094 177.667969 168.121094 177.167969 168.121094 Z M 173.261719 168.121094 "/>
<path fill-rule="nonzero" fill="rgb(0%, 0%, 0%)" fill-opacity="1" d="M 224.792969 162.121094 C 226.605469 161.527344 227.855469 160.027344 227.855469 158.277344 C 227.855469 156.496094 225.949219 155.277344 223.855469 155.277344 C 221.636719 155.277344 219.980469 156.589844 219.980469 158.246094 C 219.980469 158.964844 220.480469 159.371094 221.105469 159.371094 C 221.761719 159.371094 222.199219 158.902344 222.199219 158.277344 C 222.199219 157.183594 221.199219 157.183594 220.855469 157.183594 C 221.542969 156.121094 222.980469 155.839844 223.761719 155.839844 C 224.667969 155.839844 225.855469 156.308594 225.855469 158.277344 C 225.855469 158.527344 225.824219 159.808594 225.230469 160.746094 C 224.574219 161.808594 223.855469 161.871094 223.292969 161.902344 C 223.136719 161.902344 222.605469 161.964844 222.449219 161.964844 C 222.261719 161.964844 222.136719 161.996094 222.136719 162.214844 C 222.136719 162.464844 222.261719 162.464844 222.636719 162.464844 L 223.605469 162.464844 C 225.386719 162.464844 226.199219 163.933594 226.199219 166.089844 C 226.199219 169.058594 224.699219 169.683594 223.730469 169.683594 C 222.792969 169.683594 221.167969 169.308594 220.386719 168.027344 C 221.167969 168.121094 221.824219 167.652344 221.824219 166.808594 C 221.824219 166.027344 221.261719 165.589844 220.605469 165.589844 C 220.105469 165.589844 219.386719 165.902344 219.386719 166.871094 C 219.386719 168.839844 221.417969 170.277344 223.792969 170.277344 C 226.449219 170.277344 228.449219 168.308594 228.449219 166.089844 C 228.449219 164.277344 227.074219 162.589844 224.792969 162.121094 Z M 224.792969 162.121094 "/>
<path fill-rule="nonzero" fill="rgb(0%, 0%, 0%)" fill-opacity="1" d="M 272.890625 166.214844 L 272.890625 168.121094 C 272.890625 168.902344 272.859375 169.121094 271.234375 169.121094 L 270.796875 169.121094 L 270.796875 169.808594 C 271.671875 169.746094 272.796875 169.746094 273.734375 169.746094 C 274.640625 169.746094 275.796875 169.746094 276.703125 169.808594 L 276.703125 169.121094 L 276.234375 169.121094 C 274.609375 169.121094 274.578125 168.902344 274.578125 168.121094 L 274.578125 166.214844 L 276.765625 166.214844 L 276.765625 165.527344 L 274.578125 165.527344 L 274.578125 155.621094 C 274.578125 155.183594 274.578125 155.027344 274.234375 155.027344 C 274.046875 155.027344 273.953125 155.027344 273.796875 155.308594 L 267.109375 165.527344 L 267.109375 166.214844 Z M 273.015625 165.527344 L 267.703125 165.527344 L 273.015625 157.402344 Z M 273.015625 165.527344 "/>
<path fill="none" stroke-width="11.9553" stroke-linecap="butt" stroke-linejoin="miter" stroke="rgb(0%, 0%, 0%)" stroke-opacity="1" stroke-miterlimit="10" d="M 399.999994 345.585932 L 399.999994 1497.617165 " transform="matrix(0.2, 0, 0, -0.2, 0, 332)"/>
<path fill-rule="nonzero" fill="rgb(0%, 0%, 0%)" fill-opacity="1" d="M 73.976562 262.1875 L 85.976562 262.1875 L 85.976562 263.390625 L 73.976562 263.390625 Z M 73.976562 262.1875 "/>
<path fill-rule="nonzero" fill="rgb(0%, 0%, 0%)" fill-opacity="1" d="M 73.976562 233.382812 L 85.976562 233.382812 L 85.976562 234.585938 L 73.976562 234.585938 Z M 73.976562 233.382812 "/>
<path fill-rule="nonzero" fill="rgb(0%, 0%, 0%)" fill-opacity="1" d="M 73.976562 204.578125 L 85.976562 204.578125 L 85.976562 205.78125 L 73.976562 205.78125 Z M 73.976562 204.578125 "/>
<path fill-rule="nonzero" fill="rgb(0%, 0%, 0%)" fill-opacity="1" d="M 73.976562 175.78125 L 85.976562 175.78125 L 85.976562 176.984375 L 73.976562 176.984375 Z M 73.976562 175.78125 "/>
<path fill-rule="nonzero" fill="rgb(0%, 0%, 0%)" fill-opacity="1" d="M 73.976562 146.984375 L 85.976562 146.984375 L 85.976562 148.1875 L 73.976562 148.1875 Z M 73.976562 146.984375 "/>
<path fill-rule="nonzero" fill="rgb(0%, 0%, 0%)" fill-opacity="1" d="M 73.976562 118.179688 L 85.976562 118.179688 L 85.976562 119.382812 L 73.976562 119.382812 Z M 73.976562 118.179688 "/>
<path fill-rule="nonzero" fill="rgb(0%, 0%, 0%)" fill-opacity="1" d="M 73.976562 89.382812 L 85.976562 89.382812 L 85.976562 90.585938 L 73.976562 90.585938 Z M 73.976562 89.382812 "/>
<path fill-rule="nonzero" fill="rgb(0%, 0%, 0%)" fill-opacity="1" d="M 73.976562 60.578125 L 85.976562 60.578125 L 85.976562 61.78125 L 73.976562 61.78125 Z M 73.976562 60.578125 "/>
<path fill-rule="nonzero" fill="rgb(0%, 0%, 0%)" fill-opacity="1" d="M 73.976562 31.78125 L 85.976562 31.78125 L 85.976562 32.984375 L 73.976562 32.984375 Z M 73.976562 31.78125 "/>
<path fill-rule="nonzero" fill="rgb(0%, 0%, 0%)" fill-opacity="1" d="M 67.636719 111.871094 C 67.636719 111.371094 67.636719 111.308594 67.136719 111.308594 C 65.792969 112.714844 63.855469 112.714844 63.167969 112.714844 L 63.167969 113.371094 C 63.605469 113.371094 64.886719 113.371094 66.042969 112.808594 L 66.042969 124.121094 C 66.042969 124.902344 65.949219 125.152344 64.011719 125.152344 L 63.292969 125.152344 L 63.292969 125.839844 C 64.074219 125.777344 65.949219 125.777344 66.824219 125.777344 C 67.699219 125.777344 69.605469 125.777344 70.355469 125.839844 L 70.355469 125.152344 L 69.667969 125.152344 C 67.699219 125.152344 67.636719 124.933594 67.636719 124.121094 Z M 67.636719 111.871094 "/>
<path fill-rule="nonzero" fill="rgb(0%, 0%, 0%)" fill-opacity="1" d="M 64.011719 95.351562 L 66.324219 93.101562 C 69.730469 90.101562 71.011719 88.914062 71.011719 86.757812 C 71.011719 84.257812 69.074219 82.507812 66.386719 82.507812 C 63.949219 82.507812 62.324219 84.507812 62.324219 86.445312 C 62.324219 87.695312 63.417969 87.695312 63.480469 87.695312 C 63.855469 87.695312 64.605469 87.414062 64.605469 86.539062 C 64.605469 85.945312 64.230469 85.382812 63.449219 85.382812 C 63.292969 85.382812 63.230469 85.382812 63.167969 85.414062 C 63.667969 84.007812 64.855469 83.195312 66.105469 83.195312 C 68.105469 83.195312 69.042969 84.945312 69.042969 86.757812 C 69.042969 88.476562 67.949219 90.226562 66.761719 91.570312 L 62.574219 96.226562 C 62.324219 96.476562 62.324219 96.507812 62.324219 97.039062 L 70.417969 97.039062 L 71.011719 93.257812 L 70.480469 93.257812 C 70.355469 93.882812 70.230469 94.851562 70.011719 95.195312 C 69.855469 95.351562 68.417969 95.351562 67.917969 95.351562 Z M 64.011719 95.351562 "/>
<path fill-rule="nonzero" fill="rgb(0%, 0%, 0%)" fill-opacity="1" d="M 67.542969 60.546875 C 69.355469 59.953125 70.605469 58.453125 70.605469 56.703125 C 70.605469 54.921875 68.699219 53.703125 66.605469 53.703125 C 64.386719 53.703125 62.730469 55.015625 62.730469 56.671875 C 62.730469 57.390625 63.230469 57.796875 63.855469 57.796875 C 64.511719 57.796875 64.949219 57.328125 64.949219 56.703125 C 64.949219 55.609375 63.949219 55.609375 63.605469 55.609375 C 64.292969 54.546875 65.730469 54.265625 66.511719 54.265625 C 67.417969 54.265625 68.605469 54.734375 68.605469 56.703125 C 68.605469 56.953125 68.574219 58.234375 67.980469 59.171875 C 67.324219 60.234375 66.605469 60.296875 66.042969 60.328125 C 65.886719 60.328125 65.355469 60.390625 65.199219 60.390625 C 65.011719 60.390625 64.886719 60.421875 64.886719 60.640625 C 64.886719 60.890625 65.011719 60.890625 65.386719 60.890625 L 66.355469 60.890625 C 68.136719 60.890625 68.949219 62.359375 68.949219 64.515625 C 68.949219 67.484375 67.449219 68.109375 66.480469 68.109375 C 65.542969 68.109375 63.917969 67.734375 63.136719 66.453125 C 63.917969 66.546875 64.574219 66.078125 64.574219 65.234375 C 64.574219 64.453125 64.011719 64.015625 63.355469 64.015625 C 62.855469 64.015625 62.136719 64.328125 62.136719 65.296875 C 62.136719 67.265625 64.167969 68.703125 66.542969 68.703125 C 69.199219 68.703125 71.199219 66.734375 71.199219 64.515625 C 71.199219 62.703125 69.824219 61.015625 67.542969 60.546875 Z M 67.542969 60.546875 "/>
<path fill-rule="nonzero" fill="rgb(0%, 0%, 0%)" fill-opacity="1" d="M 67.636719 35.84375 L 67.636719 37.75 C 67.636719 38.53125 67.605469 38.75 65.980469 38.75 L 65.542969 38.75 L 65.542969 39.4375 C 66.417969 39.375 67.542969 39.375 68.480469 39.375 C 69.386719 39.375 70.542969 39.375 71.449219 39.4375 L 71.449219 38.75 L 70.980469 38.75 C 69.355469 38.75 69.324219 38.53125 69.324219 37.75 L 69.324219 35.84375 L 71.511719 35.84375 L 71.511719 35.15625 L 69.324219 35.15625 L 69.324219 25.25 C 69.324219 24.8125 69.324219 24.65625 68.980469 24.65625 C 68.792969 24.65625 68.699219 24.65625 68.542969 24.9375 L 61.855469 35.15625 L 61.855469 35.84375 Z M 67.761719 35.15625 L 62.449219 35.15625 L 67.761719 27.03125 Z M 67.761719 35.15625 "/>
<path fill-rule="nonzero" fill="rgb(0%, 0%, 0%)" fill-opacity="1" d="M 102.347656 264.089844 C 102.722656 264.089844 103.097656 264.089844 103.097656 263.683594 C 103.097656 263.246094 102.722656 263.246094 102.347656 263.246094 L 90.535156 263.246094 C 90.160156 263.246094 89.785156 263.246094 89.785156 263.683594 C 89.785156 264.089844 90.160156 264.089844 90.535156 264.089844 Z M 102.347656 264.089844 "/>
<path fill-rule="nonzero" fill="rgb(0%, 0%, 0%)" fill-opacity="1" d="M 111.417969 265.527344 L 111.417969 267.433594 C 111.417969 268.214844 111.386719 268.433594 109.761719 268.433594 L 109.324219 268.433594 L 109.324219 269.121094 C 110.199219 269.058594 111.324219 269.058594 112.261719 269.058594 C 113.167969 269.058594 114.324219 269.058594 115.230469 269.121094 L 115.230469 268.433594 L 114.761719 268.433594 C 113.136719 268.433594 113.105469 268.214844 113.105469 267.433594 L 113.105469 265.527344 L 115.292969 265.527344 L 115.292969 264.839844 L 113.105469 264.839844 L 113.105469 254.933594 C 113.105469 254.496094 113.105469 254.339844 112.761719 254.339844 C 112.574219 254.339844 112.480469 254.339844 112.324219 254.621094 L 105.636719 264.839844 L 105.636719 265.527344 Z M 111.542969 264.839844 L 106.230469 264.839844 L 111.542969 256.714844 Z M 111.542969 264.839844 "/>
<path fill-rule="nonzero" fill="rgb(0%, 0%, 0%)" fill-opacity="1" d="M 102.347656 235.289062 C 102.722656 235.289062 103.097656 235.289062 103.097656 234.882812 C 103.097656 234.445312 102.722656 234.445312 102.347656 234.445312 L 90.535156 234.445312 C 90.160156 234.445312 89.785156 234.445312 89.785156 234.882812 C 89.785156 235.289062 90.160156 235.289062 90.535156 235.289062 Z M 102.347656 235.289062 "/>
<path fill-rule="nonzero" fill="rgb(0%, 0%, 0%)" fill-opacity="1" d="M 111.324219 232.632812 C 113.136719 232.039062 114.386719 230.539062 114.386719 228.789062 C 114.386719 227.007812 112.480469 225.789062 110.386719 225.789062 C 108.167969 225.789062 106.511719 227.101562 106.511719 228.757812 C 106.511719 229.476562 107.011719 229.882812 107.636719 229.882812 C 108.292969 229.882812 108.730469 229.414062 108.730469 228.789062 C 108.730469 227.695312 107.730469 227.695312 107.386719 227.695312 C 108.074219 226.632812 109.511719 226.351562 110.292969 226.351562 C 111.199219 226.351562 112.386719 226.820312 112.386719 228.789062 C 112.386719 229.039062 112.355469 230.320312 111.761719 231.257812 C 111.105469 232.320312 110.386719 232.382812 109.824219 232.414062 C 109.667969 232.414062 109.136719 232.476562 108.980469 232.476562 C 108.792969 232.476562 108.667969 232.507812 108.667969 232.726562 C 108.667969 232.976562 108.792969 232.976562 109.167969 232.976562 L 110.136719 232.976562 C 111.917969 232.976562 112.730469 234.445312 112.730469 236.601562 C 112.730469 239.570312 111.230469 240.195312 110.261719 240.195312 C 109.324219 240.195312 107.699219 239.820312 106.917969 238.539062 C 107.699219 238.632812 108.355469 238.164062 108.355469 237.320312 C 108.355469 236.539062 107.792969 236.101562 107.136719 236.101562 C 106.636719 236.101562 105.917969 236.414062 105.917969 237.382812 C 105.917969 239.351562 107.949219 240.789062 110.324219 240.789062 C 112.980469 240.789062 114.980469 238.820312 114.980469 236.601562 C 114.980469 234.789062 113.605469 233.101562 111.324219 232.632812 Z M 111.324219 232.632812 "/>
<path fill-rule="nonzero" fill="rgb(0%, 0%, 0%)" fill-opacity="1" d="M 102.347656 206.484375 C 102.722656 206.484375 103.097656 206.484375 103.097656 206.078125 C 103.097656 205.640625 102.722656 205.640625 102.347656 205.640625 L 90.535156 205.640625 C 90.160156 205.640625 89.785156 205.640625 89.785156 206.078125 C 89.785156 206.484375 90.160156 206.484375 90.535156 206.484375 Z M 102.347656 206.484375 "/>
<path fill-rule="nonzero" fill="rgb(0%, 0%, 0%)" fill-opacity="1" d="M 107.792969 209.828125 L 110.105469 207.578125 C 113.511719 204.578125 114.792969 203.390625 114.792969 201.234375 C 114.792969 198.734375 112.855469 196.984375 110.167969 196.984375 C 107.730469 196.984375 106.105469 198.984375 106.105469 200.921875 C 106.105469 202.171875 107.199219 202.171875 107.261719 202.171875 C 107.636719 202.171875 108.386719 201.890625 108.386719 201.015625 C 108.386719 200.421875 108.011719 199.859375 107.230469 199.859375 C 107.074219 199.859375 107.011719 199.859375 106.949219 199.890625 C 107.449219 198.484375 108.636719 197.671875 109.886719 197.671875 C 111.886719 197.671875 112.824219 199.421875 112.824219 201.234375 C 112.824219 202.953125 111.730469 204.703125 110.542969 206.046875 L 106.355469 210.703125 C 106.105469 210.953125 106.105469 210.984375 106.105469 211.515625 L 114.199219 211.515625 L 114.792969 207.734375 L 114.261719 207.734375 C 114.136719 208.359375 114.011719 209.328125 113.792969 209.671875 C 113.636719 209.828125 112.199219 209.828125 111.699219 209.828125 Z M 107.792969 209.828125 "/>
<path fill-rule="nonzero" fill="rgb(0%, 0%, 0%)" fill-opacity="1" d="M 102.347656 177.6875 C 102.722656 177.6875 103.097656 177.6875 103.097656 177.28125 C 103.097656 176.84375 102.722656 176.84375 102.347656 176.84375 L 90.535156 176.84375 C 90.160156 176.84375 89.785156 176.84375 89.785156 177.28125 C 89.785156 177.6875 90.160156 177.6875 90.535156 177.6875 Z M 102.347656 177.6875 "/>
<path fill-rule="nonzero" fill="rgb(0%, 0%, 0%)" fill-opacity="1" d="M 111.417969 168.75 C 111.417969 168.25 111.417969 168.1875 110.917969 168.1875 C 109.574219 169.59375 107.636719 169.59375 106.949219 169.59375 L 106.949219 170.25 C 107.386719 170.25 108.667969 170.25 109.824219 169.6875 L 109.824219 181 C 109.824219 181.78125 109.730469 182.03125 107.792969 182.03125 L 107.074219 182.03125 L 107.074219 182.71875 C 107.855469 182.65625 109.730469 182.65625 110.605469 182.65625 C 111.480469 182.65625 113.386719 182.65625 114.136719 182.71875 L 114.136719 182.03125 L 113.449219 182.03125 C 111.480469 182.03125 111.417969 181.8125 111.417969 181 Z M 111.417969 168.75 "/>
<path fill="none" stroke-width="7.9701" stroke-linecap="butt" stroke-linejoin="miter" stroke="rgb(0%, 0%, 0%)" stroke-opacity="1" stroke-miterlimit="10" d="M 159.999998 921.601549 L 159.999998 892.812487 " transform="matrix(0.2, 0, 0, -0.2, 0, 332)"/>
<path fill="none" stroke-width="7.9701" stroke-linecap="butt" stroke-linejoin="miter" stroke="rgb(0%, 0%, 0%)" stroke-opacity="1" stroke-miterlimit="10" d="M 159.999998 835.1953 L 159.999998 806.406238 " transform="matrix(0.2, 0, 0, -0.2, 0, 332)"/>
<path fill="none" stroke-width="7.9701" stroke-linecap="butt" stroke-linejoin="miter" stroke="rgb(0%, 0%, 0%)" stroke-opacity="1" stroke-miterlimit="10" d="M 159.999998 806.406238 L 159.999998 777.617176 " transform="matrix(0.2, 0, 0, -0.2, 0, 332)"/>
<path fill="none" stroke-width="7.9701" stroke-linecap="butt" stroke-linejoin="miter" stroke="rgb(0%, 0%, 0%)" stroke-opacity="1" stroke-miterlimit="10" d="M 159.999998 719.999989 L 159.999998 691.210927 " transform="matrix(0.2, 0, 0, -0.2, 0, 332)"/>
<path fill="none" stroke-width="7.9701" stroke-linecap="butt" stroke-linejoin="miter" stroke="rgb(0%, 0%, 0%)" stroke-opacity="1" stroke-miterlimit="10" d="M 159.999998 691.210927 L 159.999998 662.421865 " transform="matrix(0.2, 0, 0, -0.2, 0, 332)"/>
<path fill="none" stroke-width="7.9701" stroke-linecap="butt" stroke-linejoin="miter" stroke="rgb(0%, 0%, 0%)" stroke-opacity="1" stroke-miterlimit="10" d="M 159.999998 604.804678 L 159.999998 576.015616 " transform="matrix(0.2, 0, 0, -0.2, 0, 332)"/>
<path fill="none" stroke-width="7.9701" stroke-linecap="butt" stroke-linejoin="miter" stroke="rgb(0%, 0%, 0%)" stroke-opacity="1" stroke-miterlimit="10" d="M 159.999998 576.015616 L 159.999998 547.187492 " transform="matrix(0.2, 0, 0, -0.2, 0, 332)"/>
<path fill="none" stroke-width="7.9701" stroke-linecap="butt" stroke-linejoin="miter" stroke="rgb(0%, 0%, 0%)" stroke-opacity="1" stroke-miterlimit="10" d="M 159.999998 489.609368 L 159.999998 460.820306 " transform="matrix(0.2, 0, 0, -0.2, 0, 332)"/>
<path fill="none" stroke-width="7.9701" stroke-linecap="butt" stroke-linejoin="miter" stroke="rgb(0%, 0%, 0%)" stroke-opacity="1" stroke-miterlimit="10" d="M 159.999998 460.820306 L 159.999998 431.992181 " transform="matrix(0.2, 0, 0, -0.2, 0, 332)"/>
<path fill="none" stroke-width="7.9701" stroke-linecap="butt" stroke-linejoin="miter" stroke="rgb(0%, 0%, 0%)" stroke-opacity="1" stroke-miterlimit="10" d="M 159.999998 374.414057 L 159.999998 345.585932 " transform="matrix(0.2, 0, 0, -0.2, 0, 332)"/>
<path fill="none" stroke-width="7.9701" stroke-linecap="butt" stroke-linejoin="miter" stroke="rgb(0%, 0%, 0%)" stroke-opacity="1" stroke-miterlimit="10" d="M 159.999998 345.585932 L 179.999997 345.585932 " transform="matrix(0.2, 0, 0, -0.2, 0, 332)"/>
<path fill="none" stroke-width="7.9701" stroke-linecap="butt" stroke-linejoin="miter" stroke="rgb(0%, 0%, 0%)" stroke-opacity="1" stroke-miterlimit="10" d="M 219.999997 345.585932 L 239.999996 345.585932 " transform="matrix(0.2, 0, 0, -0.2, 0, 332)"/>
<path fill="none" stroke-width="7.9701" stroke-linecap="butt" stroke-linejoin="miter" stroke="rgb(0%, 0%, 0%)" stroke-opacity="1" stroke-miterlimit="10" d="M 239.999996 345.585932 L 259.999996 345.585932 " transform="matrix(0.2, 0, 0, -0.2, 0, 332)"/>
<path fill="none" stroke-width="7.9701" stroke-linecap="butt" stroke-linejoin="miter" stroke="rgb(0%, 0%, 0%)" stroke-opacity="1" stroke-miterlimit="10" d="M 299.999996 345.585932 L 319.999995 345.585932 " transform="matrix(0.2, 0, 0, -0.2, 0, 332)"/>
<path fill="none" stroke-width="7.9701" stroke-linecap="butt" stroke-linejoin="miter" stroke="rgb(0%, 0%, 0%)" stroke-opacity="1" stroke-miterlimit="10" d="M 319.999995 345.585932 L 339.999995 345.585932 " transform="matrix(0.2, 0, 0, -0.2, 0, 332)"/>
<path fill="none" stroke-width="7.9701" stroke-linecap="butt" stroke-linejoin="miter" stroke="rgb(0%, 0%, 0%)" stroke-opacity="1" stroke-miterlimit="10" d="M 379.999994 345.585932 L 399.999994 345.585932 " transform="matrix(0.2, 0, 0, -0.2, 0, 332)"/>
<path fill="none" stroke-width="7.9701" stroke-linecap="butt" stroke-linejoin="miter" stroke="rgb(0%, 0%, 0%)" stroke-opacity="1" stroke-miterlimit="10" d="M 639.99999 921.601549 L 639.99999 945.585923 " transform="matrix(0.2, 0, 0, -0.2, 0, 332)"/>
<path fill="none" stroke-width="7.9701" stroke-linecap="butt" stroke-linejoin="miter" stroke="rgb(0%, 0%, 0%)" stroke-opacity="1" stroke-miterlimit="10" d="M 639.99999 993.593735 L 639.99999 1017.617172 " transform="matrix(0.2, 0, 0, -0.2, 0, 332)"/>
<path fill="none" stroke-width="7.9701" stroke-linecap="butt" stroke-linejoin="miter" stroke="rgb(0%, 0%, 0%)" stroke-opacity="1" stroke-miterlimit="10" d="M 639.99999 1017.617172 L 639.99999 1041.601547 " transform="matrix(0.2, 0, 0, -0.2, 0, 332)"/>
<path fill="none" stroke-width="7.9701" stroke-linecap="butt" stroke-linejoin="miter" stroke="rgb(0%, 0%, 0%)" stroke-opacity="1" stroke-miterlimit="10" d="M 639.99999 1089.609359 L 639.99999 1113.593733 " transform="matrix(0.2, 0, 0, -0.2, 0, 332)"/>
<path fill="none" stroke-width="7.9701" stroke-linecap="butt" stroke-linejoin="miter" stroke="rgb(0%, 0%, 0%)" stroke-opacity="1" stroke-miterlimit="10" d="M 639.99999 1113.593733 L 639.99999 1137.617171 " transform="matrix(0.2, 0, 0, -0.2, 0, 332)"/>
<path fill="none" stroke-width="7.9701" stroke-linecap="butt" stroke-linejoin="miter" stroke="rgb(0%, 0%, 0%)" stroke-opacity="1" stroke-miterlimit="10" d="M 639.99999 1185.624982 L 639.99999 1209.609357 " transform="matrix(0.2, 0, 0, -0.2, 0, 332)"/>
<path fill="none" stroke-width="7.9701" stroke-linecap="butt" stroke-linejoin="miter" stroke="rgb(0%, 0%, 0%)" stroke-opacity="1" stroke-miterlimit="10" d="M 879.999987 921.601549 L 879.999987 945.585923 " transform="matrix(0.2, 0, 0, -0.2, 0, 332)"/>
<path fill="none" stroke-width="7.9701" stroke-linecap="butt" stroke-linejoin="miter" stroke="rgb(0%, 0%, 0%)" stroke-opacity="1" stroke-miterlimit="10" d="M 879.999987 993.593735 L 879.999987 1017.617172 " transform="matrix(0.2, 0, 0, -0.2, 0, 332)"/>
<path fill="none" stroke-width="7.9701" stroke-linecap="butt" stroke-linejoin="miter" stroke="rgb(0%, 0%, 0%)" stroke-opacity="1" stroke-miterlimit="10" d="M 879.999987 1017.617172 L 879.999987 1041.601547 " transform="matrix(0.2, 0, 0, -0.2, 0, 332)"/>
<path fill="none" stroke-width="7.9701" stroke-linecap="butt" stroke-linejoin="miter" stroke="rgb(0%, 0%, 0%)" stroke-opacity="1" stroke-miterlimit="10" d="M 879.999987 1089.609359 L 879.999987 1113.593733 " transform="matrix(0.2, 0, 0, -0.2, 0, 332)"/>
<path fill="none" stroke-width="7.9701" stroke-linecap="butt" stroke-linejoin="miter" stroke="rgb(0%, 0%, 0%)" stroke-opacity="1" stroke-miterlimit="10" d="M 879.999987 1113.593733 L 879.999987 1137.617171 " transform="matrix(0.2, 0, 0, -0.2, 0, 332)"/>
<path fill="none" stroke-width="7.9701" stroke-linecap="butt" stroke-linejoin="miter" stroke="rgb(0%, 0%, 0%)" stroke-opacity="1" stroke-miterlimit="10" d="M 879.999987 1185.624982 L 879.999987 1209.609357 " transform="matrix(0.2, 0, 0, -0.2, 0, 332)"/>
<path fill="none" stroke-width="7.9701" stroke-linecap="butt" stroke-linejoin="miter" stroke="rgb(0%, 0%, 0%)" stroke-opacity="1" stroke-miterlimit="10" d="M 879.999987 1209.609357 L 856.015612 1209.609357 " transform="matrix(0.2, 0, 0, -0.2, 0, 332)"/>
<path fill="none" stroke-width="7.9701" stroke-linecap="butt" stroke-linejoin="miter" stroke="rgb(0%, 0%, 0%)" stroke-opacity="1" stroke-miterlimit="10" d="M 808.0078 1209.609357 L 784.023426 1209.609357 " transform="matrix(0.2, 0, 0, -0.2, 0, 332)"/>
<path fill="none" stroke-width="7.9701" stroke-linecap="butt" stroke-linejoin="miter" stroke="rgb(0%, 0%, 0%)" stroke-opacity="1" stroke-miterlimit="10" d="M 784.023426 1209.609357 L 759.999989 1209.609357 " transform="matrix(0.2, 0, 0, -0.2, 0, 332)"/>
<path fill="none" stroke-width="7.9701" stroke-linecap="butt" stroke-linejoin="miter" stroke="rgb(0%, 0%, 0%)" stroke-opacity="1" stroke-miterlimit="10" d="M 711.992177 1209.609357 L 688.007802 1209.609357 " transform="matrix(0.2, 0, 0, -0.2, 0, 332)"/>
<path fill="none" stroke-width="7.9701" stroke-linecap="butt" stroke-linejoin="miter" stroke="rgb(0%, 0%, 0%)" stroke-opacity="1" stroke-miterlimit="10" d="M 688.007802 1209.609357 L 664.023428 1209.609357 " transform="matrix(0.2, 0, 0, -0.2, 0, 332)"/>
<path fill="none" stroke-width="7.9701" stroke-linecap="butt" stroke-linejoin="miter" stroke="rgb(0%, 0%, 0%)" stroke-opacity="1" stroke-miterlimit="10" d="M 616.015616 1209.609357 L 591.992179 1209.609357 " transform="matrix(0.2, 0, 0, -0.2, 0, 332)"/>
<path fill="none" stroke-width="7.9701" stroke-linecap="butt" stroke-linejoin="miter" stroke="rgb(0%, 0%, 0%)" stroke-opacity="1" stroke-miterlimit="10" d="M 591.992179 1209.609357 L 568.007804 1209.609357 " transform="matrix(0.2, 0, 0, -0.2, 0, 332)"/>
<path fill="none" stroke-width="7.9701" stroke-linecap="butt" stroke-linejoin="miter" stroke="rgb(0%, 0%, 0%)" stroke-opacity="1" stroke-miterlimit="10" d="M 519.999992 1209.609357 L 496.015618 1209.609357 " transform="matrix(0.2, 0, 0, -0.2, 0, 332)"/>
<path fill="none" stroke-width="7.9701" stroke-linecap="butt" stroke-linejoin="miter" stroke="rgb(0%, 0%, 0%)" stroke-opacity="1" stroke-miterlimit="10" d="M 496.015618 1209.609357 L 471.99218 1209.609357 " transform="matrix(0.2, 0, 0, -0.2, 0, 332)"/>
<path fill="none" stroke-width="7.9701" stroke-linecap="butt" stroke-linejoin="miter" stroke="rgb(0%, 0%, 0%)" stroke-opacity="1" stroke-miterlimit="10" d="M 424.023431 1209.609357 L 399.999994 1209.609357 " transform="matrix(0.2, 0, 0, -0.2, 0, 332)"/>
<path fill="none" stroke-width="7.9701" stroke-linecap="butt" stroke-linejoin="miter" stroke="rgb(0%, 0%, 0%)" stroke-opacity="1" stroke-miterlimit="10" d="M 1360.039042 921.601549 L 1360.039042 892.812487 " transform="matrix(0.2, 0, 0, -0.2, 0, 332)"/>
<path fill="none" stroke-width="7.9701" stroke-linecap="butt" stroke-linejoin="miter" stroke="rgb(0%, 0%, 0%)" stroke-opacity="1" stroke-miterlimit="10" d="M 1360.039042 835.1953 L 1360.039042 806.406238 " transform="matrix(0.2, 0, 0, -0.2, 0, 332)"/>
<path fill="none" stroke-width="7.9701" stroke-linecap="butt" stroke-linejoin="miter" stroke="rgb(0%, 0%, 0%)" stroke-opacity="1" stroke-miterlimit="10" d="M 1360.039042 806.406238 L 1360.039042 777.617176 " transform="matrix(0.2, 0, 0, -0.2, 0, 332)"/>
<path fill="none" stroke-width="7.9701" stroke-linecap="butt" stroke-linejoin="miter" stroke="rgb(0%, 0%, 0%)" stroke-opacity="1" stroke-miterlimit="10" d="M 1360.039042 719.999989 L 1360.039042 691.210927 " transform="matrix(0.2, 0, 0, -0.2, 0, 332)"/>
<path fill="none" stroke-width="7.9701" stroke-linecap="butt" stroke-linejoin="miter" stroke="rgb(0%, 0%, 0%)" stroke-opacity="1" stroke-miterlimit="10" d="M 1360.039042 691.210927 L 1360.039042 662.421865 " transform="matrix(0.2, 0, 0, -0.2, 0, 332)"/>
<path fill="none" stroke-width="7.9701" stroke-linecap="butt" stroke-linejoin="miter" stroke="rgb(0%, 0%, 0%)" stroke-opacity="1" stroke-miterlimit="10" d="M 1360.039042 604.804678 L 1360.039042 576.015616 " transform="matrix(0.2, 0, 0, -0.2, 0, 332)"/>
<path fill="none" stroke-width="7.9701" stroke-linecap="butt" stroke-linejoin="miter" stroke="rgb(0%, 0%, 0%)" stroke-opacity="1" stroke-miterlimit="10" d="M 1360.039042 576.015616 L 1360.039042 547.187492 " transform="matrix(0.2, 0, 0, -0.2, 0, 332)"/>
<path fill="none" stroke-width="7.9701" stroke-linecap="butt" stroke-linejoin="miter" stroke="rgb(0%, 0%, 0%)" stroke-opacity="1" stroke-miterlimit="10" d="M 1360.039042 489.609368 L 1360.039042 460.820306 " transform="matrix(0.2, 0, 0, -0.2, 0, 332)"/>
<path fill="none" stroke-width="7.9701" stroke-linecap="butt" stroke-linejoin="miter" stroke="rgb(0%, 0%, 0%)" stroke-opacity="1" stroke-miterlimit="10" d="M 1360.039042 460.820306 L 1360.039042 431.992181 " transform="matrix(0.2, 0, 0, -0.2, 0, 332)"/>
<path fill="none" stroke-width="7.9701" stroke-linecap="butt" stroke-linejoin="miter" stroke="rgb(0%, 0%, 0%)" stroke-opacity="1" stroke-miterlimit="10" d="M 1360.039042 374.414057 L 1360.039042 345.585932 " transform="matrix(0.2, 0, 0, -0.2, 0, 332)"/>
<path fill="none" stroke-width="7.9701" stroke-linecap="butt" stroke-linejoin="miter" stroke="rgb(0%, 0%, 0%)" stroke-opacity="1" stroke-miterlimit="10" d="M 1360.039042 345.585932 L 1333.359355 345.585932 " transform="matrix(0.2, 0, 0, -0.2, 0, 332)"/>
<path fill="none" stroke-width="7.9701" stroke-linecap="butt" stroke-linejoin="miter" stroke="rgb(0%, 0%, 0%)" stroke-opacity="1" stroke-miterlimit="10" d="M 1280.039043 345.585932 L 1253.359356 345.585932 " transform="matrix(0.2, 0, 0, -0.2, 0, 332)"/>
<path fill="none" stroke-width="7.9701" stroke-linecap="butt" stroke-linejoin="miter" stroke="rgb(0%, 0%, 0%)" stroke-opacity="1" stroke-miterlimit="10" d="M 1253.359356 345.585932 L 1226.679669 345.585932 " transform="matrix(0.2, 0, 0, -0.2, 0, 332)"/>
<path fill="none" stroke-width="7.9701" stroke-linecap="butt" stroke-linejoin="miter" stroke="rgb(0%, 0%, 0%)" stroke-opacity="1" stroke-miterlimit="10" d="M 1173.359358 345.585932 L 1146.67967 345.585932 " transform="matrix(0.2, 0, 0, -0.2, 0, 332)"/>
<path fill="none" stroke-width="7.9701" stroke-linecap="butt" stroke-linejoin="miter" stroke="rgb(0%, 0%, 0%)" stroke-opacity="1" stroke-miterlimit="10" d="M 1146.67967 345.585932 L 1119.999983 345.585932 " transform="matrix(0.2, 0, 0, -0.2, 0, 332)"/>
<path fill="none" stroke-width="7.9701" stroke-linecap="butt" stroke-linejoin="miter" stroke="rgb(0%, 0%, 0%)" stroke-opacity="1" stroke-miterlimit="10" d="M 1066.679672 345.585932 L 1039.999985 345.585932 " transform="matrix(0.2, 0, 0, -0.2, 0, 332)"/>
<path fill="none" stroke-width="7.9701" stroke-linecap="butt" stroke-linejoin="miter" stroke="rgb(0%, 0%, 0%)" stroke-opacity="1" stroke-miterlimit="10" d="M 1039.999985 345.585932 L 1013.35936 345.585932 " transform="matrix(0.2, 0, 0, -0.2, 0, 332)"/>
<path fill="none" stroke-width="7.9701" stroke-linecap="butt" stroke-linejoin="miter" stroke="rgb(0%, 0%, 0%)" stroke-opacity="1" stroke-miterlimit="10" d="M 959.999986 345.585932 L 933.320299 345.585932 " transform="matrix(0.2, 0, 0, -0.2, 0, 332)"/>
<path fill="none" stroke-width="7.9701" stroke-linecap="butt" stroke-linejoin="miter" stroke="rgb(0%, 0%, 0%)" stroke-opacity="1" stroke-miterlimit="10" d="M 933.320299 345.585932 L 906.679674 345.585932 " transform="matrix(0.2, 0, 0, -0.2, 0, 332)"/>
<path fill="none" stroke-width="7.9701" stroke-linecap="butt" stroke-linejoin="miter" stroke="rgb(0%, 0%, 0%)" stroke-opacity="1" stroke-miterlimit="10" d="M 853.359362 345.585932 L 826.679675 345.585932 " transform="matrix(0.2, 0, 0, -0.2, 0, 332)"/>
<path fill="none" stroke-width="7.9701" stroke-linecap="butt" stroke-linejoin="miter" stroke="rgb(0%, 0%, 0%)" stroke-opacity="1" stroke-miterlimit="10" d="M 826.679675 345.585932 L 799.999988 345.585932 " transform="matrix(0.2, 0, 0, -0.2, 0, 332)"/>
<path fill="none" stroke-width="7.9701" stroke-linecap="butt" stroke-linejoin="miter" stroke="rgb(0%, 0%, 0%)" stroke-opacity="1" stroke-miterlimit="10" d="M 746.679676 345.585932 L 719.999989 345.585932 " transform="matrix(0.2, 0, 0, -0.2, 0, 332)"/>
<path fill="none" stroke-width="7.9701" stroke-linecap="butt" stroke-linejoin="miter" stroke="rgb(0%, 0%, 0%)" stroke-opacity="1" stroke-miterlimit="10" d="M 719.999989 345.585932 L 693.320302 345.585932 " transform="matrix(0.2, 0, 0, -0.2, 0, 332)"/>
<path fill="none" stroke-width="7.9701" stroke-linecap="butt" stroke-linejoin="miter" stroke="rgb(0%, 0%, 0%)" stroke-opacity="1" stroke-miterlimit="10" d="M 639.99999 345.585932 L 613.320303 345.585932 " transform="matrix(0.2, 0, 0, -0.2, 0, 332)"/>
<path fill="none" stroke-width="7.9701" stroke-linecap="butt" stroke-linejoin="miter" stroke="rgb(0%, 0%, 0%)" stroke-opacity="1" stroke-miterlimit="10" d="M 613.320303 345.585932 L 586.679679 345.585932 " transform="matrix(0.2, 0, 0, -0.2, 0, 332)"/>
<path fill="none" stroke-width="7.9701" stroke-linecap="butt" stroke-linejoin="miter" stroke="rgb(0%, 0%, 0%)" stroke-opacity="1" stroke-miterlimit="10" d="M 533.359367 345.585932 L 506.67968 345.585932 " transform="matrix(0.2, 0, 0, -0.2, 0, 332)"/>
<path fill="none" stroke-width="7.9701" stroke-linecap="butt" stroke-linejoin="miter" stroke="rgb(0%, 0%, 0%)" stroke-opacity="1" stroke-miterlimit="10" d="M 506.67968 345.585932 L 479.999993 345.585932 " transform="matrix(0.2, 0, 0, -0.2, 0, 332)"/>
<path fill="none" stroke-width="7.9701" stroke-linecap="butt" stroke-linejoin="miter" stroke="rgb(0%, 0%, 0%)" stroke-opacity="1" stroke-miterlimit="10" d="M 426.679681 345.585932 L 399.999994 345.585932 " transform="matrix(0.2, 0, 0, -0.2, 0, 332)"/>
<path fill-rule="nonzero" fill="rgb(0%, 0%, 0%)" fill-opacity="1" d="M 12.832031 163.652344 C 13.207031 163.652344 13.582031 163.652344 13.582031 163.246094 C 13.582031 162.808594 13.207031 162.808594 12.832031 162.808594 L 1.019531 162.808594 C 0.644531 162.808594 0.269531 162.808594 0.269531 163.246094 C 0.269531 163.652344 0.644531 163.652344 1.019531 163.652344 Z M 12.832031 163.652344 "/>
<path fill-rule="nonzero" fill="rgb(0%, 0%, 0%)" fill-opacity="1" d="M 21.902344 154.714844 C 21.902344 154.214844 21.902344 154.152344 21.402344 154.152344 C 20.058594 155.558594 18.121094 155.558594 17.433594 155.558594 L 17.433594 156.214844 C 17.871094 156.214844 19.152344 156.214844 20.308594 155.652344 L 20.308594 166.964844 C 20.308594 167.746094 20.214844 167.996094 18.277344 167.996094 L 17.558594 167.996094 L 17.558594 168.683594 C 18.339844 168.621094 20.214844 168.621094 21.089844 168.621094 C 21.964844 168.621094 23.871094 168.621094 24.621094 168.683594 L 24.621094 167.996094 L 23.933594 167.996094 C 21.964844 167.996094 21.902344 167.777344 21.902344 166.964844 Z M 21.902344 154.714844 "/>
<path fill-rule="nonzero" fill="rgb(100%, 100%, 100%)" fill-opacity="1" d="M 260.460938 147.703125 L 283.5 147.703125 L 283.5 173.859375 L 260.460938 173.859375 Z M 260.460938 147.703125 "/>
<path fill-rule="nonzero" fill="rgb(0%, 0%, 0%)" fill-opacity="1" d="M 272.890625 164.246094 L 272.890625 166.152344 C 272.890625 166.933594 272.859375 167.152344 271.234375 167.152344 L 270.796875 167.152344 L 270.796875 167.839844 C 271.671875 167.777344 272.796875 167.777344 273.734375 167.777344 C 274.640625 167.777344 275.796875 167.777344 276.703125 167.839844 L 276.703125 167.152344 L 276.234375 167.152344 C 274.609375 167.152344 274.578125 166.933594 274.578125 166.152344 L 274.578125 164.246094 L 276.765625 164.246094 L 276.765625 163.558594 L 274.578125 163.558594 L 274.578125 153.652344 C 274.578125 153.214844 274.578125 153.058594 274.234375 153.058594 C 274.046875 153.058594 273.953125 153.058594 273.796875 153.339844 L 267.109375 163.558594 L 267.109375 164.246094 Z M 273.015625 163.558594 L 267.703125 163.558594 L 273.015625 155.433594 Z M 273.015625 163.558594 "/>
<path fill-rule="nonzero" fill="rgb(100%, 100%, 100%)" fill-opacity="1" d="M 300.15625 147.703125 L 332.078125 147.703125 L 332.078125 174.585938 L 300.15625 174.585938 Z M 300.15625 147.703125 "/>
<path fill-rule="nonzero" fill="rgb(0%, 0%, 0%)" fill-opacity="1" d="M 316.773438 159.589844 L 314.929688 155.246094 C 314.867188 155.089844 314.804688 154.996094 314.804688 154.964844 C 314.804688 154.839844 315.179688 154.433594 316.117188 154.339844 C 316.335938 154.308594 316.554688 154.308594 316.554688 153.933594 C 316.554688 153.652344 316.273438 153.652344 316.210938 153.652344 C 315.304688 153.652344 314.367188 153.714844 313.460938 153.714844 C 312.929688 153.714844 311.554688 153.652344 311.023438 153.652344 C 310.898438 153.652344 310.617188 153.652344 310.617188 154.089844 C 310.617188 154.339844 310.835938 154.339844 311.117188 154.339844 C 312.429688 154.339844 312.585938 154.558594 312.773438 155.027344 L 315.335938 161.121094 L 310.742188 166.058594 L 310.460938 166.308594 C 309.398438 167.464844 308.367188 167.808594 307.242188 167.871094 C 306.960938 167.902344 306.773438 167.902344 306.773438 168.308594 C 306.773438 168.339844 306.773438 168.558594 307.054688 168.558594 C 307.710938 168.558594 308.429688 168.496094 309.117188 168.496094 C 309.898438 168.496094 310.773438 168.558594 311.554688 168.558594 C 311.679688 168.558594 311.929688 168.558594 311.929688 168.121094 C 311.929688 167.902344 311.710938 167.871094 311.679688 167.871094 C 311.492188 167.871094 310.804688 167.808594 310.804688 167.214844 C 310.804688 166.871094 311.117188 166.496094 311.398438 166.214844 L 313.617188 163.871094 L 315.585938 161.746094 L 317.773438 166.933594 C 317.867188 167.183594 317.898438 167.214844 317.898438 167.246094 C 317.898438 167.433594 317.492188 167.808594 316.617188 167.871094 C 316.398438 167.902344 316.179688 167.933594 316.179688 168.308594 C 316.179688 168.558594 316.429688 168.558594 316.523438 168.558594 C 317.117188 168.558594 318.648438 168.496094 319.273438 168.496094 C 319.804688 168.496094 321.148438 168.558594 321.679688 168.558594 C 321.835938 168.558594 322.117188 168.558594 322.117188 168.152344 C 322.117188 167.871094 321.898438 167.871094 321.710938 167.871094 C 320.242188 167.871094 320.210938 167.808594 319.835938 166.933594 C 318.992188 164.902344 317.523438 161.496094 317.023438 160.183594 C 318.492188 158.652344 320.804688 156.058594 321.492188 155.464844 C 322.117188 154.933594 322.960938 154.402344 324.273438 154.339844 C 324.554688 154.308594 324.742188 154.308594 324.742188 153.902344 C 324.742188 153.871094 324.742188 153.652344 324.460938 153.652344 C 323.804688 153.652344 323.085938 153.714844 322.398438 153.714844 C 321.585938 153.714844 320.773438 153.652344 319.992188 153.652344 C 319.867188 153.652344 319.585938 153.652344 319.585938 154.089844 C 319.585938 154.246094 319.679688 154.308594 319.835938 154.339844 C 320.023438 154.371094 320.710938 154.402344 320.710938 155.027344 C 320.710938 155.308594 320.460938 155.589844 320.304688 155.808594 Z M 316.773438 159.589844 "/>
<path fill-rule="nonzero" fill="rgb(100%, 100%, 100%)" fill-opacity="1" d="M 50.453125 -5.757812 L 79.976562 -5.757812 L 79.976562 21.125 L 50.453125 21.125 Z M 50.453125 -5.757812 "/>
<path fill-rule="nonzero" fill="rgb(0%, 0%, 0%)" fill-opacity="1" d="M 69.511719 2.695312 L 69.792969 2.382812 C 70.449219 1.726562 71.167969 0.976562 72.667969 0.882812 C 72.917969 0.851562 73.105469 0.851562 73.105469 0.476562 C 73.105469 0.289062 72.980469 0.195312 72.824219 0.195312 C 72.261719 0.195312 71.605469 0.257812 71.042969 0.257812 C 70.324219 0.257812 69.542969 0.195312 68.855469 0.195312 C 68.730469 0.195312 68.449219 0.195312 68.449219 0.632812 C 68.449219 0.851562 68.636719 0.882812 68.761719 0.882812 C 68.917969 0.882812 69.542969 0.914062 69.542969 1.382812 C 69.542969 1.757812 69.042969 2.320312 68.949219 2.414062 L 63.886719 8.257812 L 61.511719 1.789062 C 61.355469 1.476562 61.355469 1.414062 61.355469 1.414062 C 61.355469 0.882812 62.449219 0.882812 62.667969 0.882812 C 62.949219 0.882812 63.167969 0.882812 63.167969 0.445312 C 63.167969 0.195312 62.917969 0.195312 62.855469 0.195312 C 62.230469 0.195312 60.699219 0.257812 60.105469 0.257812 C 59.542969 0.257812 58.199219 0.195312 57.667969 0.195312 C 57.542969 0.195312 57.230469 0.195312 57.230469 0.632812 C 57.230469 0.882812 57.449219 0.882812 57.730469 0.882812 C 59.042969 0.882812 59.136719 1.070312 59.324219 1.632812 L 62.011719 8.789062 C 62.042969 8.851562 62.105469 9.101562 62.105469 9.164062 C 62.105469 9.226562 61.230469 12.757812 61.136719 13.132812 C 60.855469 14.351562 60.824219 14.414062 59.074219 14.414062 C 58.667969 14.414062 58.480469 14.414062 58.480469 14.851562 C 58.480469 15.101562 58.761719 15.101562 58.792969 15.101562 C 59.417969 15.101562 60.917969 15.039062 61.542969 15.039062 C 62.136719 15.039062 63.730469 15.101562 64.324219 15.101562 C 64.480469 15.101562 64.761719 15.101562 64.761719 14.664062 C 64.761719 14.414062 64.542969 14.414062 64.136719 14.414062 C 64.105469 14.414062 63.667969 14.414062 63.292969 14.382812 C 62.855469 14.351562 62.730469 14.289062 62.730469 14.039062 C 62.730469 13.882812 62.917969 13.101562 63.011719 12.664062 L 63.792969 9.570312 C 63.886719 9.164062 63.917969 9.101562 64.105469 8.914062 Z M 69.511719 2.695312 "/>
<path fill="none" stroke-width="11.9553" stroke-linecap="butt" stroke-linejoin="miter" stroke="rgb(0%, 0%, 0%)" stroke-opacity="1" stroke-miterlimit="10" d="M 111.992186 921.601549 L 1600.039039 921.601549 " transform="matrix(0.2, 0, 0, -0.2, 0, 332)"/>
<path fill="none" stroke-width="11.9553" stroke-linecap="butt" stroke-linejoin="miter" stroke="rgb(0%, 0%, 0%)" stroke-opacity="1" stroke-miterlimit="10" d="M 399.999994 172.812497 L 399.999994 1641.601538 " transform="matrix(0.2, 0, 0, -0.2, 0, 332)"/>
<path fill="none" stroke-width="11.9553" stroke-linecap="butt" stroke-linejoin="miter" stroke="rgb(100%, 100%, 100%)" stroke-opacity="1" stroke-miterlimit="10" d="M 291.992183 921.601549 L 369.999994 921.601549 " transform="matrix(0.2, 0, 0, -0.2, 0, 332)"/>
<path fill-rule="nonzero" fill="rgb(0%, 0%, 0%)" fill-opacity="1" d="M 73.171875 152.460938 C 73.171875 148.929688 70.859375 146.585938 67.609375 146.585938 C 62.890625 146.585938 58.078125 151.523438 58.078125 156.617188 C 58.078125 160.242188 60.515625 162.429688 63.671875 162.429688 C 68.296875 162.429688 73.171875 157.648438 73.171875 152.460938 Z M 63.796875 161.867188 C 61.640625 161.867188 60.109375 160.117188 60.109375 157.242188 C 60.109375 156.273438 60.421875 153.085938 62.109375 150.523438 C 63.609375 148.273438 65.734375 147.117188 67.453125 147.117188 C 69.265625 147.117188 71.203125 148.335938 71.203125 151.585938 C 71.203125 153.179688 70.640625 156.585938 68.453125 159.242188 C 67.421875 160.585938 65.640625 161.867188 63.796875 161.867188 Z M 63.796875 161.867188 "/>
<path fill="none" stroke-width="11.9553" stroke-linecap="butt" stroke-linejoin="miter" stroke="rgb(0%, 0%, 0%)" stroke-opacity="1" stroke-miterlimit="10" d="M 129.999998 253.359371 L 161.523435 350.07812 L 193.00781 441.874993 L 224.492184 528.71093 L 256.015621 610.546866 L 287.499996 687.460927 L 319.023433 759.414051 L 350.507807 826.367175 L 381.992182 888.398424 L 413.515619 945.468736 L 444.999993 997.539048 L 476.52343 1044.687484 L 508.007805 1086.874984 L 539.492179 1124.062483 L 571.015616 1156.328108 L 602.499991 1183.593732 L 634.023428 1205.937482 L 665.507803 1223.281232 L 696.992177 1235.703107 L 728.515614 1243.124981 L 759.999989 1245.624981 L 791.523426 1243.124981 L 823.0078 1235.703107 L 854.492175 1223.281232 L 886.015612 1205.937482 L 917.499986 1183.593732 L 949.023423 1156.328108 L 980.507798 1124.062483 L 1011.992172 1086.874984 L 1043.515609 1044.687484 L 1074.999984 997.539048 L 1106.523421 945.468736 L 1138.007796 888.398424 L 1169.49217 826.367175 L 1201.015607 759.414051 L 1232.499982 687.460927 L 1264.023419 610.546866 L 1295.507793 528.71093 L 1327.03123 441.874993 L 1358.515605 350.07812 L 1389.999979 253.359371 " transform="matrix(0.2, 0, 0, -0.2, 0, 332)"/>
<path fill-rule="nonzero" fill="rgb(0%, 0%, 0%)" fill-opacity="1" d="M 131.597656 324.386719 C 132.785156 323.980469 134.785156 323.386719 134.785156 321.449219 C 134.785156 319.136719 132.066406 318.074219 130.097656 318.074219 C 129.160156 318.074219 128.191406 318.292969 127.347656 318.792969 C 127.222656 318.855469 127.066406 319.042969 126.910156 319.042969 C 126.597656 319.042969 126.035156 318.074219 125.722656 318.074219 C 125.535156 318.074219 125.503906 318.292969 125.503906 318.386719 L 125.503906 321.949219 C 125.503906 322.074219 125.597656 322.230469 125.785156 322.230469 C 126.097656 322.230469 126.066406 321.605469 126.160156 321.261719 C 126.628906 319.542969 128.191406 318.792969 129.691406 318.699219 L 130.097656 318.699219 C 131.441406 318.699219 133.003906 319.574219 133.003906 321.449219 C 133.003906 323.261719 131.222656 324.199219 129.566406 324.199219 C 129.253906 324.199219 128.941406 324.199219 128.628906 324.199219 L 128.472656 324.199219 C 128.285156 324.199219 128.066406 324.199219 128.066406 324.417969 L 128.066406 324.449219 C 128.097656 324.636719 128.285156 324.667969 128.472656 324.667969 L 130.316406 324.667969 C 131.878906 324.792969 133.316406 325.824219 133.472656 327.449219 L 133.472656 327.667969 C 133.472656 329.511719 131.753906 330.667969 130.003906 330.667969 C 128.097656 330.667969 126.128906 330.042969 125.816406 327.667969 C 125.816406 327.511719 125.753906 327.324219 125.535156 327.324219 C 125.316406 327.355469 125.285156 327.511719 125.285156 327.667969 C 125.285156 330.261719 127.878906 331.292969 130.128906 331.292969 C 132.191406 331.292969 135.066406 330.324219 135.316406 327.855469 L 135.316406 327.730469 C 135.316406 325.761719 133.253906 324.792969 131.597656 324.386719 Z M 131.597656 324.386719 "/>
<path fill-rule="nonzero" fill="rgb(0%, 0%, 0%)" fill-opacity="1" d="M 143.695312 318.074219 C 140.320312 318.480469 137.632812 321.136719 137.632812 324.730469 C 137.632812 328.011719 140.226562 331.261719 144.101562 331.261719 C 147.601562 331.261719 150.570312 328.355469 150.570312 324.730469 C 150.570312 321.542969 148.070312 318.074219 144.132812 318.074219 C 144.007812 318.074219 143.851562 318.074219 143.695312 318.074219 Z M 139.507812 324.949219 L 139.507812 324.605469 C 139.507812 322.105469 140.414062 319.167969 143.570312 318.636719 C 143.757812 318.605469 143.914062 318.605469 144.101562 318.605469 C 146.914062 318.605469 148.664062 321.324219 148.664062 324.355469 C 148.664062 326.761719 147.945312 329.824219 144.976562 330.605469 C 144.695312 330.667969 144.414062 330.699219 144.132812 330.699219 L 143.945312 330.699219 C 141.351562 330.605469 139.945312 328.136719 139.601562 325.730469 Z M 139.507812 324.949219 "/>
<path fill-rule="nonzero" fill="rgb(0%, 0%, 0%)" fill-opacity="1" d="M 153.027344 318.417969 L 153.027344 319.011719 L 153.464844 319.011719 C 154.058594 319.011719 154.683594 319.105469 154.683594 319.980469 L 154.683594 329.449219 C 154.683594 330.292969 153.964844 330.324219 153.308594 330.324219 L 153.027344 330.324219 L 153.027344 330.917969 L 158.808594 330.917969 C 159.214844 330.917969 159.589844 330.949219 159.996094 330.949219 C 161.996094 330.949219 164.339844 330.011719 164.558594 327.605469 L 164.558594 327.417969 C 164.558594 324.886719 161.683594 323.855469 159.777344 323.855469 C 158.527344 323.855469 157.339844 323.980469 156.152344 324.074219 L 156.152344 319.855469 C 156.152344 319.417969 156.214844 319.011719 156.996094 319.011719 L 159.308594 319.011719 C 160.277344 319.011719 161.371094 319.074219 162.089844 319.792969 C 162.777344 320.511719 162.871094 321.730469 162.964844 322.667969 L 163.496094 322.667969 L 163.027344 318.417969 Z M 156.152344 324.699219 C 156.402344 324.699219 156.652344 324.636719 156.902344 324.605469 L 158.277344 324.542969 C 158.558594 324.511719 158.839844 324.480469 159.152344 324.480469 C 160.714844 324.480469 162.683594 325.480469 162.683594 327.324219 C 162.683594 329.074219 161.339844 330.355469 159.339844 330.355469 C 159.058594 330.355469 158.746094 330.324219 158.496094 330.324219 L 156.964844 330.324219 C 156.496094 330.324219 156.246094 330.292969 156.152344 329.667969 Z M 156.152344 324.699219 "/>
<path fill-rule="nonzero" fill="rgb(0%, 0%, 0%)" fill-opacity="1" d="M 166.90625 318.417969 L 166.90625 319.011719 L 167.375 319.011719 C 167.96875 319.011719 168.5625 319.105469 168.5625 319.980469 L 168.5625 329.449219 C 168.5625 330.292969 167.875 330.324219 167.1875 330.324219 L 166.90625 330.324219 L 166.90625 330.917969 L 171.8125 330.917969 L 171.8125 330.324219 L 171.375 330.324219 C 170.75 330.324219 170.15625 330.261719 170.15625 329.386719 L 170.15625 325.199219 L 173.875 325.199219 C 175.65625 325.074219 177.9375 323.886719 177.9375 321.855469 C 177.9375 319.636719 175.59375 318.574219 173.6875 318.417969 Z M 170.125 324.667969 L 170.125 319.667969 C 170.21875 319.074219 170.46875 319.011719 170.875 319.011719 L 172.3125 319.011719 C 173.9375 319.011719 176.0625 319.074219 176.0625 321.855469 C 176.0625 322.511719 175.96875 323.199219 175.5625 323.699219 C 174.90625 324.480469 173.8125 324.667969 172.84375 324.667969 Z M 170.125 324.667969 "/>
<path fill-rule="nonzero" fill="rgb(0%, 0%, 0%)" fill-opacity="1" d="M 182.632812 328.636719 C 182.132812 328.730469 181.632812 329.167969 181.632812 329.761719 C 181.632812 330.386719 182.164062 330.917969 182.789062 330.917969 C 183.414062 330.917969 183.976562 330.449219 183.976562 329.792969 C 183.976562 329.167969 183.445312 328.605469 182.820312 328.605469 C 182.757812 328.605469 182.695312 328.636719 182.632812 328.636719 Z M 182.632812 328.636719 "/>
<path fill-rule="nonzero" fill="rgb(0%, 0%, 0%)" fill-opacity="1" d="M 197.535156 318.417969 C 197.941406 316.855469 199.347656 315.730469 200.972656 315.730469 C 203.222656 315.730469 204.472656 317.699219 204.472656 319.636719 C 204.472656 321.324219 203.535156 322.824219 202.503906 324.074219 C 200.816406 326.167969 198.785156 328.042969 197.003906 330.011719 C 196.847656 330.199219 196.691406 330.355469 196.691406 330.605469 C 196.691406 330.699219 196.722656 330.824219 196.722656 330.917969 L 205.847656 330.917969 L 206.472656 326.917969 L 205.941406 326.917969 C 205.753906 327.886719 205.816406 329.167969 204.816406 329.167969 C 204.597656 329.199219 204.410156 329.199219 204.222656 329.199219 L 203.628906 329.199219 C 203.285156 329.230469 202.910156 329.230469 202.597656 329.230469 L 198.441406 329.230469 C 199.941406 327.730469 201.566406 326.261719 203.191406 324.886719 C 204.722656 323.574219 206.316406 322.042969 206.472656 319.917969 L 206.472656 319.605469 C 206.472656 316.886719 204.128906 315.042969 201.285156 315.042969 C 198.941406 315.042969 196.722656 316.949219 196.722656 319.386719 C 196.722656 320.199219 197.191406 320.667969 197.878906 320.667969 C 198.503906 320.667969 199.003906 320.199219 199.003906 319.511719 C 199.003906 318.886719 198.535156 318.386719 197.816406 318.386719 C 197.722656 318.386719 197.628906 318.386719 197.535156 318.417969 Z M 197.535156 318.417969 "/>
<path fill-rule="nonzero" fill="rgb(0%, 0%, 0%)" fill-opacity="1" d="M 210.308594 314.761719 L 209.589844 319.542969 L 210.121094 319.542969 C 210.214844 318.824219 210.308594 317.699219 210.714844 317.386719 C 210.839844 317.261719 211.121094 317.292969 211.277344 317.261719 L 211.964844 317.261719 C 212.527344 317.261719 213.121094 317.230469 213.683594 317.230469 L 218.464844 317.230469 C 217.964844 317.824219 217.558594 318.480469 217.089844 319.105469 C 216.433594 320.011719 215.714844 320.949219 215.089844 321.949219 C 213.589844 324.417969 212.621094 327.355469 212.621094 330.292969 L 212.621094 330.542969 C 212.683594 331.042969 213.121094 331.417969 213.621094 331.417969 L 213.683594 331.417969 C 214.496094 331.417969 214.621094 330.699219 214.621094 330.167969 L 214.621094 329.074219 C 214.621094 326.480469 214.839844 323.355469 216.433594 321.074219 C 217.464844 319.542969 218.621094 318.074219 219.714844 316.542969 C 219.871094 316.324219 220.058594 316.136719 220.058594 315.824219 L 220.058594 315.542969 L 214.339844 315.542969 C 214.027344 315.542969 213.621094 315.542969 213.183594 315.542969 C 212.121094 315.542969 210.902344 315.449219 210.839844 314.761719 Z M 210.308594 314.761719 "/>
<path fill-rule="nonzero" fill="rgb(0%, 0%, 0%)" fill-opacity="1" d="M 224.140625 328.636719 C 223.640625 328.730469 223.140625 329.167969 223.140625 329.761719 C 223.140625 330.386719 223.671875 330.917969 224.296875 330.917969 C 224.921875 330.917969 225.484375 330.449219 225.484375 329.792969 C 225.484375 329.167969 224.953125 328.605469 224.328125 328.605469 C 224.265625 328.605469 224.203125 328.636719 224.140625 328.636719 Z M 224.140625 328.636719 "/>
</svg>
