<?xml version="1.0" encoding="UTF-8"?>
<svg xmlns="http://www.w3.org/2000/svg" xmlns:xlink="http://www.w3.org/1999/xlink" width="398" height="428" viewBox="0 0 398 428">
<path fill="none" stroke-width="11.9553" stroke-linecap="butt" stroke-linejoin="miter" stroke="rgb(0%, 0%, 0%)" stroke-opacity="1" stroke-miterlimit="10" d="M 179.999997 321.601558 L 194.999997 322.187495 L 209.999997 324.101558 L 224.999997 327.343745 L 239.999996 332.070308 L 254.999996 338.281245 L 269.999996 346.054682 L 284.999996 355.39062 L 299.999996 366.367182 L 314.999995 379.023432 L 329.999995 393.398432 L 344.999995 409.492181 L 359.999995 427.343744 L 374.999994 447.031243 L 389.999994 468.515618 L 404.999994 491.83593 L 419.999994 517.109367 L 434.999994 544.218742 L 449.999993 573.320304 L 464.999993 604.335928 L 479.999993 637.343741 L 494.999993 672.382802 L 509.999992 709.453114 L 524.999992 748.515614 L 539.999992 789.687488 L 554.999992 832.968738 L 569.999992 878.359362 L 584.999991 925.859361 L 599.999991 975.507798 L 614.999991 1027.382797 L 629.999991 1081.406234 L 644.99999 1137.656233 L 659.99999 1196.093732 L 674.99999 1256.835919 L 689.99999 1319.84373 L 704.999989 1385.117167 L 719.999989 1452.656228 L 734.999989 1522.578102 L 749.999989 1594.804664 L 764.999989 1669.374975 L 779.999988 1746.289036 " transform="matrix(0.2, 0, 0, -0.2, 0, 428)"/>
<path fill="none" stroke-width="11.9553" stroke-linecap="butt" stroke-linejoin="miter" stroke="rgb(0%, 0%, 0%)" stroke-opacity="1" stroke-miterlimit="10" d="M 179.999997 321.601558 L 206.249997 323.04687 L 232.499997 327.031245 L 258.749996 333.20312 L 284.999996 341.249995 L 311.249995 351.01562 L 337.499995 362.26562 L 363.749995 374.804682 L 389.999994 388.515619 L 416.249994 403.203119 L 442.499993 418.749994 L 468.749993 435.039056 L 494.999993 451.914056 L 521.249992 469.257806 L 547.499992 486.953118 L 573.749991 504.882805 L 626.249991 541.054679 L 652.49999 559.062492 L 678.74999 576.914054 L 704.999989 594.492179 L 731.249989 611.679678 L 757.499989 628.437491 L 783.749988 644.648428 L 809.999988 660.234365 L 836.249988 675.078115 L 862.499987 689.140615 L 888.749987 702.304677 L 914.999986 714.492177 L 941.249986 725.664052 L 967.499986 735.703114 L 993.749985 744.531239 L 1020.039047 752.109364 L 1046.249984 758.320301 L 1072.499984 763.124989 L 1098.789046 766.406239 L 1124.999983 768.164051 L 1151.249983 768.281239 L 1177.539045 766.718739 L 1203.749982 763.359364 L 1229.999982 758.164051 L 1256.289044 751.093739 L 1282.539043 742.031239 L 1308.74998 730.937489 L 1335.039043 717.773427 L 1361.289042 702.460927 L 1387.499979 684.921865 L 1413.789041 665.078115 L 1440.039041 642.890615 L 1466.249978 618.359366 L 1492.53904 591.328116 L 1518.78904 561.757804 L 1545.039039 529.64843 L 1571.289039 494.882805 L 1597.539039 457.460931 L 1623.789038 417.265619 L 1650.039038 374.257807 L 1676.289038 328.398433 L 1702.539037 279.609371 L 1728.789037 227.851559 L 1755.039036 173.085935 " transform="matrix(0.2, 0, 0, -0.2, 0, 428)"/>
<path fill="none" stroke-width="11.9553" stroke-linecap="butt" stroke-linejoin="miter" stroke="rgb(0%, 0%, 0%)" stroke-opacity="1" stroke-miterlimit="10" d="M 179.999997 321.601558 L 1680.039037 321.601558 " transform="matrix(0.2, 0, 0, -0.2, 0, 428)"/>
<path fill-rule="nonzero" fill="rgb(0%, 0%, 0%)" fill-opacity="1" d="M 35.492188 357.703125 L 36.695312 357.703125 L 36.695312 369.703125 L 35.492188 369.703125 Z M 35.492188 357.703125 "/>
<path fill-rule="nonzero" fill="rgb(0%, 0%, 0%)" fill-opacity="1" d="M 95.5 357.703125 L 96.703125 357.703125 L 96.703125 369.703125 L 95.5 369.703125 Z M 95.5 357.703125 "/>
<path fill-rule="nonzero" fill="rgb(0%, 0%, 0%)" fill-opacity="1" d="M 155.5 357.703125 L 156.703125 357.703125 L 156.703125 369.703125 L 155.5 369.703125 Z M 155.5 357.703125 "/>
<path fill-rule="nonzero" fill="rgb(0%, 0%, 0%)" fill-opacity="1" d="M 215.5 357.703125 L 216.703125 357.703125 L 216.703125 369.703125 L 215.5 369.703125 Z M 215.5 357.703125 "/>
<path fill-rule="nonzero" fill="rgb(0%, 0%, 0%)" fill-opacity="1" d="M 275.5 357.703125 L 276.703125 357.703125 L 276.703125 369.703125 L 275.5 369.703125 Z M 275.5 357.703125 "/>
<path fill-rule="nonzero" fill="rgb(0%, 0%, 0%)" fill-opacity="1" d="M 335.5 357.703125 L 336.703125 357.703125 L 336.703125 369.703125 L 335.5 369.703125 Z M 335.5 357.703125 "/>
<path fill-rule="nonzero" fill="rgb(0%, 0%, 0%)" fill-opacity="1" d="M 40.511719 378.839844 C 40.511719 377.089844 40.417969 375.339844 39.636719 373.714844 C 38.636719 371.621094 36.855469 371.277344 35.917969 371.277344 C 34.636719 371.277344 33.042969 371.839844 32.136719 373.871094 C 31.449219 375.371094 31.324219 377.089844 31.324219 378.839844 C 31.324219 380.464844 31.417969 382.433594 32.324219 384.089844 C 33.261719 385.839844 34.855469 386.277344 35.917969 386.277344 C 37.074219 386.277344 38.761719 385.839844 39.699219 383.746094 C 40.417969 382.246094 40.511719 380.558594 40.511719 378.839844 Z M 35.917969 385.808594 C 35.074219 385.808594 33.761719 385.277344 33.386719 383.183594 C 33.136719 381.871094 33.136719 379.839844 33.136719 378.558594 C 33.136719 377.183594 33.136719 375.746094 33.324219 374.558594 C 33.730469 371.964844 35.355469 371.746094 35.917969 371.746094 C 36.636719 371.746094 38.074219 372.152344 38.480469 374.308594 C 38.699219 375.527344 38.699219 377.183594 38.699219 378.558594 C 38.699219 380.214844 38.699219 381.683594 38.449219 383.089844 C 38.136719 385.152344 36.886719 385.808594 35.917969 385.808594 Z M 35.917969 385.808594 "/>
<path fill-rule="nonzero" fill="rgb(0%, 0%, 0%)" fill-opacity="1" d="M 92.113281 378.839844 C 92.113281 377.089844 92.019531 375.339844 91.238281 373.714844 C 90.238281 371.621094 88.457031 371.277344 87.519531 371.277344 C 86.238281 371.277344 84.644531 371.839844 83.738281 373.871094 C 83.050781 375.371094 82.925781 377.089844 82.925781 378.839844 C 82.925781 380.464844 83.019531 382.433594 83.925781 384.089844 C 84.863281 385.839844 86.457031 386.277344 87.519531 386.277344 C 88.675781 386.277344 90.363281 385.839844 91.300781 383.746094 C 92.019531 382.246094 92.113281 380.558594 92.113281 378.839844 Z M 87.519531 385.808594 C 86.675781 385.808594 85.363281 385.277344 84.988281 383.183594 C 84.738281 381.871094 84.738281 379.839844 84.738281 378.558594 C 84.738281 377.183594 84.738281 375.746094 84.925781 374.558594 C 85.332031 371.964844 86.957031 371.746094 87.519531 371.746094 C 88.238281 371.746094 89.675781 372.152344 90.082031 374.308594 C 90.300781 375.527344 90.300781 377.183594 90.300781 378.558594 C 90.300781 380.214844 90.300781 381.683594 90.050781 383.089844 C 89.738281 385.152344 88.488281 385.808594 87.519531 385.808594 Z M 87.519531 385.808594 "/>
<path fill-rule="nonzero" fill="rgb(0%, 0%, 0%)" fill-opacity="1" d="M 97.070312 384.652344 C 97.070312 384.027344 96.539062 383.496094 95.914062 383.496094 C 95.289062 383.496094 94.757812 384.027344 94.757812 384.652344 C 94.757812 385.277344 95.289062 385.808594 95.914062 385.808594 C 96.539062 385.808594 97.070312 385.277344 97.070312 384.652344 Z M 97.070312 384.652344 "/>
<path fill-rule="nonzero" fill="rgb(0%, 0%, 0%)" fill-opacity="1" d="M 101.664062 384.121094 L 103.976562 381.871094 C 107.382812 378.871094 108.664062 377.683594 108.664062 375.527344 C 108.664062 373.027344 106.726562 371.277344 104.039062 371.277344 C 101.601562 371.277344 99.976562 373.277344 99.976562 375.214844 C 99.976562 376.464844 101.070312 376.464844 101.132812 376.464844 C 101.507812 376.464844 102.257812 376.183594 102.257812 375.308594 C 102.257812 374.714844 101.882812 374.152344 101.101562 374.152344 C 100.945312 374.152344 100.882812 374.152344 100.820312 374.183594 C 101.320312 372.777344 102.507812 371.964844 103.757812 371.964844 C 105.757812 371.964844 106.695312 373.714844 106.695312 375.527344 C 106.695312 377.246094 105.601562 378.996094 104.414062 380.339844 L 100.226562 384.996094 C 99.976562 385.246094 99.976562 385.277344 99.976562 385.808594 L 108.070312 385.808594 L 108.664062 382.027344 L 108.132812 382.027344 C 108.007812 382.652344 107.882812 383.621094 107.664062 383.964844 C 107.507812 384.121094 106.070312 384.121094 105.570312 384.121094 Z M 101.664062 384.121094 "/>
<path fill-rule="nonzero" fill="rgb(0%, 0%, 0%)" fill-opacity="1" d="M 152.113281 378.839844 C 152.113281 377.089844 152.019531 375.339844 151.238281 373.714844 C 150.238281 371.621094 148.457031 371.277344 147.519531 371.277344 C 146.238281 371.277344 144.644531 371.839844 143.738281 373.871094 C 143.050781 375.371094 142.925781 377.089844 142.925781 378.839844 C 142.925781 380.464844 143.019531 382.433594 143.925781 384.089844 C 144.863281 385.839844 146.457031 386.277344 147.519531 386.277344 C 148.675781 386.277344 150.363281 385.839844 151.300781 383.746094 C 152.019531 382.246094 152.113281 380.558594 152.113281 378.839844 Z M 147.519531 385.808594 C 146.675781 385.808594 145.363281 385.277344 144.988281 383.183594 C 144.738281 381.871094 144.738281 379.839844 144.738281 378.558594 C 144.738281 377.183594 144.738281 375.746094 144.925781 374.558594 C 145.332031 371.964844 146.957031 371.746094 147.519531 371.746094 C 148.238281 371.746094 149.675781 372.152344 150.082031 374.308594 C 150.300781 375.527344 150.300781 377.183594 150.300781 378.558594 C 150.300781 380.214844 150.300781 381.683594 150.050781 383.089844 C 149.738281 385.152344 148.488281 385.808594 147.519531 385.808594 Z M 147.519531 385.808594 "/>
<path fill-rule="nonzero" fill="rgb(0%, 0%, 0%)" fill-opacity="1" d="M 157.070312 384.652344 C 157.070312 384.027344 156.539062 383.496094 155.914062 383.496094 C 155.289062 383.496094 154.757812 384.027344 154.757812 384.652344 C 154.757812 385.277344 155.289062 385.808594 155.914062 385.808594 C 156.539062 385.808594 157.070312 385.277344 157.070312 384.652344 Z M 157.070312 384.652344 "/>
<path fill-rule="nonzero" fill="rgb(0%, 0%, 0%)" fill-opacity="1" d="M 165.289062 382.214844 L 165.289062 384.121094 C 165.289062 384.902344 165.257812 385.121094 163.632812 385.121094 L 163.195312 385.121094 L 163.195312 385.808594 C 164.070312 385.746094 165.195312 385.746094 166.132812 385.746094 C 167.039062 385.746094 168.195312 385.746094 169.101562 385.808594 L 169.101562 385.121094 L 168.632812 385.121094 C 167.007812 385.121094 166.976562 384.902344 166.976562 384.121094 L 166.976562 382.214844 L 169.164062 382.214844 L 169.164062 381.527344 L 166.976562 381.527344 L 166.976562 371.621094 C 166.976562 371.183594 166.976562 371.027344 166.632812 371.027344 C 166.445312 371.027344 166.351562 371.027344 166.195312 371.308594 L 159.507812 381.527344 L 159.507812 382.214844 Z M 165.414062 381.527344 L 160.101562 381.527344 L 165.414062 373.402344 Z M 165.414062 381.527344 "/>
<path fill-rule="nonzero" fill="rgb(0%, 0%, 0%)" fill-opacity="1" d="M 212.113281 378.839844 C 212.113281 377.089844 212.019531 375.339844 211.238281 373.714844 C 210.238281 371.621094 208.457031 371.277344 207.519531 371.277344 C 206.238281 371.277344 204.644531 371.839844 203.738281 373.871094 C 203.050781 375.371094 202.925781 377.089844 202.925781 378.839844 C 202.925781 380.464844 203.019531 382.433594 203.925781 384.089844 C 204.863281 385.839844 206.457031 386.277344 207.519531 386.277344 C 208.675781 386.277344 210.363281 385.839844 211.300781 383.746094 C 212.019531 382.246094 212.113281 380.558594 212.113281 378.839844 Z M 207.519531 385.808594 C 206.675781 385.808594 205.363281 385.277344 204.988281 383.183594 C 204.738281 381.871094 204.738281 379.839844 204.738281 378.558594 C 204.738281 377.183594 204.738281 375.746094 204.925781 374.558594 C 205.332031 371.964844 206.957031 371.746094 207.519531 371.746094 C 208.238281 371.746094 209.675781 372.152344 210.082031 374.308594 C 210.300781 375.527344 210.300781 377.183594 210.300781 378.558594 C 210.300781 380.214844 210.300781 381.683594 210.050781 383.089844 C 209.738281 385.152344 208.488281 385.808594 207.519531 385.808594 Z M 207.519531 385.808594 "/>
<path fill-rule="nonzero" fill="rgb(0%, 0%, 0%)" fill-opacity="1" d="M 217.070312 384.652344 C 217.070312 384.027344 216.539062 383.496094 215.914062 383.496094 C 215.289062 383.496094 214.757812 384.027344 214.757812 384.652344 C 214.757812 385.277344 215.289062 385.808594 215.914062 385.808594 C 216.539062 385.808594 217.070312 385.277344 217.070312 384.652344 Z M 217.070312 384.652344 "/>
<path fill-rule="nonzero" fill="rgb(0%, 0%, 0%)" fill-opacity="1" d="M 221.757812 378.652344 L 221.757812 378.121094 C 221.757812 372.621094 224.476562 371.839844 225.570312 371.839844 C 226.101562 371.839844 227.007812 371.964844 227.507812 372.714844 C 227.164062 372.714844 226.289062 372.714844 226.289062 373.683594 C 226.289062 374.371094 226.820312 374.683594 227.289062 374.683594 C 227.664062 374.683594 228.320312 374.496094 228.320312 373.652344 C 228.320312 372.339844 227.351562 371.277344 225.539062 371.277344 C 222.757812 371.277344 219.789062 374.089844 219.789062 378.902344 C 219.789062 384.746094 222.320312 386.277344 224.351562 386.277344 C 226.789062 386.277344 228.851562 384.246094 228.851562 381.371094 C 228.851562 378.589844 226.914062 376.496094 224.476562 376.496094 C 223.007812 376.496094 222.195312 377.621094 221.757812 378.652344 Z M 224.351562 385.683594 C 222.976562 385.683594 222.320312 384.371094 222.195312 384.027344 C 221.820312 383.027344 221.820312 381.277344 221.820312 380.871094 C 221.820312 379.183594 222.507812 376.996094 224.476562 376.996094 C 224.820312 376.996094 225.820312 376.996094 226.507812 378.339844 C 226.882812 379.152344 226.882812 380.277344 226.882812 381.339844 C 226.882812 382.371094 226.882812 383.464844 226.507812 384.246094 C 225.851562 385.558594 224.851562 385.683594 224.351562 385.683594 Z M 224.351562 385.683594 "/>
<path fill-rule="nonzero" fill="rgb(0%, 0%, 0%)" fill-opacity="1" d="M 272.117188 378.839844 C 272.117188 377.089844 272.023438 375.339844 271.242188 373.714844 C 270.242188 371.621094 268.460938 371.277344 267.523438 371.277344 C 266.242188 371.277344 264.648438 371.839844 263.742188 373.871094 C 263.054688 375.371094 262.929688 377.089844 262.929688 378.839844 C 262.929688 380.464844 263.023438 382.433594 263.929688 384.089844 C 264.867188 385.839844 266.460938 386.277344 267.523438 386.277344 C 268.679688 386.277344 270.367188 385.839844 271.304688 383.746094 C 272.023438 382.246094 272.117188 380.558594 272.117188 378.839844 Z M 267.523438 385.808594 C 266.679688 385.808594 265.367188 385.277344 264.992188 383.183594 C 264.742188 381.871094 264.742188 379.839844 264.742188 378.558594 C 264.742188 377.183594 264.742188 375.746094 264.929688 374.558594 C 265.335938 371.964844 266.960938 371.746094 267.523438 371.746094 C 268.242188 371.746094 269.679688 372.152344 270.085938 374.308594 C 270.304688 375.527344 270.304688 377.183594 270.304688 378.558594 C 270.304688 380.214844 270.304688 381.683594 270.054688 383.089844 C 269.742188 385.152344 268.492188 385.808594 267.523438 385.808594 Z M 267.523438 385.808594 "/>
<path fill-rule="nonzero" fill="rgb(0%, 0%, 0%)" fill-opacity="1" d="M 277.070312 384.652344 C 277.070312 384.027344 276.539062 383.496094 275.914062 383.496094 C 275.289062 383.496094 274.757812 384.027344 274.757812 384.652344 C 274.757812 385.277344 275.289062 385.808594 275.914062 385.808594 C 276.539062 385.808594 277.070312 385.277344 277.070312 384.652344 Z M 277.070312 384.652344 "/>
<path fill-rule="nonzero" fill="rgb(0%, 0%, 0%)" fill-opacity="1" d="M 282.445312 375.839844 C 281.445312 375.183594 281.351562 374.433594 281.351562 374.058594 C 281.351562 372.746094 282.757812 371.839844 284.320312 371.839844 C 285.914062 371.839844 287.289062 372.964844 287.289062 374.527344 C 287.289062 375.777344 286.445312 376.808594 285.132812 377.589844 Z M 285.632812 377.902344 C 287.195312 377.089844 288.257812 375.964844 288.257812 374.527344 C 288.257812 372.527344 286.320312 371.277344 284.320312 371.277344 C 282.164062 371.277344 280.382812 372.902344 280.382812 374.933594 C 280.382812 375.308594 280.445312 376.308594 281.351562 377.308594 C 281.601562 377.589844 282.382812 378.121094 282.945312 378.496094 C 281.664062 379.121094 279.789062 380.371094 279.789062 382.527344 C 279.789062 384.839844 282.039062 386.277344 284.320312 386.277344 C 286.789062 386.277344 288.851562 384.464844 288.851562 382.152344 C 288.851562 381.371094 288.601562 380.371094 287.789062 379.464844 C 287.382812 378.996094 287.007812 378.777344 285.632812 377.902344 Z M 283.445312 378.839844 L 286.132812 380.527344 C 286.726562 380.933594 287.757812 381.589844 287.757812 382.933594 C 287.757812 384.558594 286.132812 385.683594 284.320312 385.683594 C 282.445312 385.683594 280.882812 384.339844 280.882812 382.527344 C 280.882812 381.246094 281.601562 379.839844 283.445312 378.839844 Z M 283.445312 378.839844 "/>
<path fill-rule="nonzero" fill="rgb(0%, 0%, 0%)" fill-opacity="1" d="M 316.0625 369.304688 C 316.0625 368.804688 316.0625 368.742188 315.5625 368.742188 C 314.21875 370.148438 312.28125 370.148438 311.59375 370.148438 L 311.59375 370.804688 C 312.03125 370.804688 313.3125 370.804688 314.46875 370.242188 L 314.46875 381.554688 C 314.46875 382.335938 314.375 382.585938 312.4375 382.585938 L 311.71875 382.585938 L 311.71875 383.273438 C 312.5 383.210938 314.375 383.210938 315.25 383.210938 C 316.125 383.210938 318.03125 383.210938 318.78125 383.273438 L 318.78125 382.585938 L 318.09375 382.585938 C 316.125 382.585938 316.0625 382.367188 316.0625 381.554688 Z M 316.0625 369.304688 "/>
<path fill-rule="nonzero" fill="rgb(0%, 0%, 0%)" fill-opacity="1" d="M 324.644531 382.117188 C 324.644531 381.492188 324.113281 380.960938 323.488281 380.960938 C 322.863281 380.960938 322.332031 381.492188 322.332031 382.117188 C 322.332031 382.742188 322.863281 383.273438 323.488281 383.273438 C 324.113281 383.273438 324.644531 382.742188 324.644531 382.117188 Z M 324.644531 382.117188 "/>
<path fill-rule="nonzero" fill="rgb(0%, 0%, 0%)" fill-opacity="1" d="M 336.488281 376.304688 C 336.488281 374.554688 336.394531 372.804688 335.613281 371.179688 C 334.613281 369.085938 332.832031 368.742188 331.894531 368.742188 C 330.613281 368.742188 329.019531 369.304688 328.113281 371.335938 C 327.425781 372.835938 327.300781 374.554688 327.300781 376.304688 C 327.300781 377.929688 327.394531 379.898438 328.300781 381.554688 C 329.238281 383.304688 330.832031 383.742188 331.894531 383.742188 C 333.050781 383.742188 334.738281 383.304688 335.675781 381.210938 C 336.394531 379.710938 336.488281 378.023438 336.488281 376.304688 Z M 331.894531 383.273438 C 331.050781 383.273438 329.738281 382.742188 329.363281 380.648438 C 329.113281 379.335938 329.113281 377.304688 329.113281 376.023438 C 329.113281 374.648438 329.113281 373.210938 329.300781 372.023438 C 329.707031 369.429688 331.332031 369.210938 331.894531 369.210938 C 332.613281 369.210938 334.050781 369.617188 334.457031 371.773438 C 334.675781 372.992188 334.675781 374.648438 334.675781 376.023438 C 334.675781 377.679688 334.675781 379.148438 334.425781 380.554688 C 334.113281 382.617188 332.863281 383.273438 331.894531 383.273438 Z M 331.894531 383.273438 "/>
<path fill="none" stroke-width="11.9553" stroke-linecap="butt" stroke-linejoin="miter" stroke="rgb(0%, 0%, 0%)" stroke-opacity="1" stroke-miterlimit="10" d="M 179.999997 321.601558 L 179.999997 1958.007783 " transform="matrix(0.2, 0, 0, -0.2, 0, 428)"/>
<path fill-rule="nonzero" fill="rgb(0%, 0%, 0%)" fill-opacity="1" d="M 29.976562 362.984375 L 41.976562 362.984375 L 41.976562 364.1875 L 29.976562 364.1875 Z M 29.976562 362.984375 "/>
<path fill-rule="nonzero" fill="rgb(0%, 0%, 0%)" fill-opacity="1" d="M 29.976562 253.890625 L 41.976562 253.890625 L 41.976562 255.09375 L 29.976562 255.09375 Z M 29.976562 253.890625 "/>
<path fill-rule="nonzero" fill="rgb(0%, 0%, 0%)" fill-opacity="1" d="M 29.976562 144.796875 L 41.976562 144.796875 L 41.976562 146 L 29.976562 146 Z M 29.976562 144.796875 "/>
<path fill-rule="nonzero" fill="rgb(0%, 0%, 0%)" fill-opacity="1" d="M 29.976562 35.703125 L 41.976562 35.703125 L 41.976562 36.90625 L 29.976562 36.90625 Z M 29.976562 35.703125 "/>
<path fill-rule="nonzero" fill="rgb(0%, 0%, 0%)" fill-opacity="1" d="M 10.222656 254.578125 C 10.222656 252.828125 10.128906 251.078125 9.347656 249.453125 C 8.347656 247.359375 6.566406 247.015625 5.628906 247.015625 C 4.347656 247.015625 2.753906 247.578125 1.847656 249.609375 C 1.160156 251.109375 1.035156 252.828125 1.035156 254.578125 C 1.035156 256.203125 1.128906 258.171875 2.035156 259.828125 C 2.972656 261.578125 4.566406 262.015625 5.628906 262.015625 C 6.785156 262.015625 8.472656 261.578125 9.410156 259.484375 C 10.128906 257.984375 10.222656 256.296875 10.222656 254.578125 Z M 5.628906 261.546875 C 4.785156 261.546875 3.472656 261.015625 3.097656 258.921875 C 2.847656 257.609375 2.847656 255.578125 2.847656 254.296875 C 2.847656 252.921875 2.847656 251.484375 3.035156 250.296875 C 3.441406 247.703125 5.066406 247.484375 5.628906 247.484375 C 6.347656 247.484375 7.785156 247.890625 8.191406 250.046875 C 8.410156 251.265625 8.410156 252.921875 8.410156 254.296875 C 8.410156 255.953125 8.410156 257.421875 8.160156 258.828125 C 7.847656 260.890625 6.597656 261.546875 5.628906 261.546875 Z M 5.628906 261.546875 "/>
<path fill-rule="nonzero" fill="rgb(0%, 0%, 0%)" fill-opacity="1" d="M 15.179688 260.390625 C 15.179688 259.765625 14.648438 259.234375 14.023438 259.234375 C 13.398438 259.234375 12.867188 259.765625 12.867188 260.390625 C 12.867188 261.015625 13.398438 261.546875 14.023438 261.546875 C 14.648438 261.546875 15.179688 261.015625 15.179688 260.390625 Z M 15.179688 260.390625 "/>
<path fill-rule="nonzero" fill="rgb(0%, 0%, 0%)" fill-opacity="1" d="M 23.398438 247.578125 C 23.398438 247.078125 23.398438 247.015625 22.898438 247.015625 C 21.554688 248.421875 19.617188 248.421875 18.929688 248.421875 L 18.929688 249.078125 C 19.367188 249.078125 20.648438 249.078125 21.804688 248.515625 L 21.804688 259.828125 C 21.804688 260.609375 21.710938 260.859375 19.773438 260.859375 L 19.054688 260.859375 L 19.054688 261.546875 C 19.835938 261.484375 21.710938 261.484375 22.585938 261.484375 C 23.460938 261.484375 25.367188 261.484375 26.117188 261.546875 L 26.117188 260.859375 L 25.429688 260.859375 C 23.460938 260.859375 23.398438 260.640625 23.398438 259.828125 Z M 23.398438 247.578125 "/>
<path fill-rule="nonzero" fill="rgb(0%, 0%, 0%)" fill-opacity="1" d="M 10.222656 145.488281 C 10.222656 143.738281 10.128906 141.988281 9.347656 140.363281 C 8.347656 138.269531 6.566406 137.925781 5.628906 137.925781 C 4.347656 137.925781 2.753906 138.488281 1.847656 140.519531 C 1.160156 142.019531 1.035156 143.738281 1.035156 145.488281 C 1.035156 147.113281 1.128906 149.082031 2.035156 150.738281 C 2.972656 152.488281 4.566406 152.925781 5.628906 152.925781 C 6.785156 152.925781 8.472656 152.488281 9.410156 150.394531 C 10.128906 148.894531 10.222656 147.207031 10.222656 145.488281 Z M 5.628906 152.457031 C 4.785156 152.457031 3.472656 151.925781 3.097656 149.832031 C 2.847656 148.519531 2.847656 146.488281 2.847656 145.207031 C 2.847656 143.832031 2.847656 142.394531 3.035156 141.207031 C 3.441406 138.613281 5.066406 138.394531 5.628906 138.394531 C 6.347656 138.394531 7.785156 138.800781 8.191406 140.957031 C 8.410156 142.175781 8.410156 143.832031 8.410156 145.207031 C 8.410156 146.863281 8.410156 148.332031 8.160156 149.738281 C 7.847656 151.800781 6.597656 152.457031 5.628906 152.457031 Z M 5.628906 152.457031 "/>
<path fill-rule="nonzero" fill="rgb(0%, 0%, 0%)" fill-opacity="1" d="M 15.179688 151.300781 C 15.179688 150.675781 14.648438 150.144531 14.023438 150.144531 C 13.398438 150.144531 12.867188 150.675781 12.867188 151.300781 C 12.867188 151.925781 13.398438 152.457031 14.023438 152.457031 C 14.648438 152.457031 15.179688 151.925781 15.179688 151.300781 Z M 15.179688 151.300781 "/>
<path fill-rule="nonzero" fill="rgb(0%, 0%, 0%)" fill-opacity="1" d="M 19.773438 150.769531 L 22.085938 148.519531 C 25.492188 145.519531 26.773438 144.332031 26.773438 142.175781 C 26.773438 139.675781 24.835938 137.925781 22.148438 137.925781 C 19.710938 137.925781 18.085938 139.925781 18.085938 141.863281 C 18.085938 143.113281 19.179688 143.113281 19.242188 143.113281 C 19.617188 143.113281 20.367188 142.832031 20.367188 141.957031 C 20.367188 141.363281 19.992188 140.800781 19.210938 140.800781 C 19.054688 140.800781 18.992188 140.800781 18.929688 140.832031 C 19.429688 139.425781 20.617188 138.613281 21.867188 138.613281 C 23.867188 138.613281 24.804688 140.363281 24.804688 142.175781 C 24.804688 143.894531 23.710938 145.644531 22.523438 146.988281 L 18.335938 151.644531 C 18.085938 151.894531 18.085938 151.925781 18.085938 152.457031 L 26.179688 152.457031 L 26.773438 148.675781 L 26.242188 148.675781 C 26.117188 149.300781 25.992188 150.269531 25.773438 150.613281 C 25.617188 150.769531 24.179688 150.769531 23.679688 150.769531 Z M 19.773438 150.769531 "/>
<path fill-rule="nonzero" fill="rgb(0%, 0%, 0%)" fill-opacity="1" d="M 10.222656 36.394531 C 10.222656 34.644531 10.128906 32.894531 9.347656 31.269531 C 8.347656 29.175781 6.566406 28.832031 5.628906 28.832031 C 4.347656 28.832031 2.753906 29.394531 1.847656 31.425781 C 1.160156 32.925781 1.035156 34.644531 1.035156 36.394531 C 1.035156 38.019531 1.128906 39.988281 2.035156 41.644531 C 2.972656 43.394531 4.566406 43.832031 5.628906 43.832031 C 6.785156 43.832031 8.472656 43.394531 9.410156 41.300781 C 10.128906 39.800781 10.222656 38.113281 10.222656 36.394531 Z M 5.628906 43.363281 C 4.785156 43.363281 3.472656 42.832031 3.097656 40.738281 C 2.847656 39.425781 2.847656 37.394531 2.847656 36.113281 C 2.847656 34.738281 2.847656 33.300781 3.035156 32.113281 C 3.441406 29.519531 5.066406 29.300781 5.628906 29.300781 C 6.347656 29.300781 7.785156 29.707031 8.191406 31.863281 C 8.410156 33.082031 8.410156 34.738281 8.410156 36.113281 C 8.410156 37.769531 8.410156 39.238281 8.160156 40.644531 C 7.847656 42.707031 6.597656 43.363281 5.628906 43.363281 Z M 5.628906 43.363281 "/>
<path fill-rule="nonzero" fill="rgb(0%, 0%, 0%)" fill-opacity="1" d="M 15.179688 42.207031 C 15.179688 41.582031 14.648438 41.050781 14.023438 41.050781 C 13.398438 41.050781 12.867188 41.582031 12.867188 42.207031 C 12.867188 42.832031 13.398438 43.363281 14.023438 43.363281 C 14.648438 43.363281 15.179688 42.832031 15.179688 42.207031 Z M 15.179688 42.207031 "/>
<path fill-rule="nonzero" fill="rgb(0%, 0%, 0%)" fill-opacity="1" d="M 23.304688 35.675781 C 25.117188 35.082031 26.367188 33.582031 26.367188 31.832031 C 26.367188 30.050781 24.460938 28.832031 22.367188 28.832031 C 20.148438 28.832031 18.492188 30.144531 18.492188 31.800781 C 18.492188 32.519531 18.992188 32.925781 19.617188 32.925781 C 20.273438 32.925781 20.710938 32.457031 20.710938 31.832031 C 20.710938 30.738281 19.710938 30.738281 19.367188 30.738281 C 20.054688 29.675781 21.492188 29.394531 22.273438 29.394531 C 23.179688 29.394531 24.367188 29.863281 24.367188 31.832031 C 24.367188 32.082031 24.335938 33.363281 23.742188 34.300781 C 23.085938 35.363281 22.367188 35.425781 21.804688 35.457031 C 21.648438 35.457031 21.117188 35.519531 20.960938 35.519531 C 20.773438 35.519531 20.648438 35.550781 20.648438 35.769531 C 20.648438 36.019531 20.773438 36.019531 21.148438 36.019531 L 22.117188 36.019531 C 23.898438 36.019531 24.710938 37.488281 24.710938 39.644531 C 24.710938 42.613281 23.210938 43.238281 22.242188 43.238281 C 21.304688 43.238281 19.679688 42.863281 18.898438 41.582031 C 19.679688 41.675781 20.335938 41.207031 20.335938 40.363281 C 20.335938 39.582031 19.773438 39.144531 19.117188 39.144531 C 18.617188 39.144531 17.898438 39.457031 17.898438 40.425781 C 17.898438 42.394531 19.929688 43.832031 22.304688 43.832031 C 24.960938 43.832031 26.960938 41.863281 26.960938 39.644531 C 26.960938 37.832031 25.585938 36.144531 23.304688 35.675781 Z M 23.304688 35.675781 "/>
<path fill-rule="nonzero" fill="rgb(100%, 100%, 100%)" fill-opacity="1" d="M 379.757812 363.703125 L 404.234375 363.703125 L 404.234375 385.0625 L 379.757812 385.0625 Z M 379.757812 363.703125 "/>
<path fill-rule="nonzero" fill="rgb(0%, 0%, 0%)" fill-opacity="1" d="M 393.0625 372.445312 C 393.1875 371.882812 393.6875 369.882812 395.21875 369.882812 C 395.34375 369.882812 395.84375 369.882812 396.3125 370.164062 C 395.71875 370.257812 395.28125 370.820312 395.28125 371.351562 C 395.28125 371.695312 395.5 372.101562 396.09375 372.101562 C 396.59375 372.101562 397.28125 371.695312 397.28125 370.851562 C 397.28125 369.695312 396 369.382812 395.25 369.382812 C 393.96875 369.382812 393.21875 370.539062 392.96875 371.070312 C 392.40625 369.601562 391.21875 369.382812 390.59375 369.382812 C 388.34375 369.382812 387.09375 372.226562 387.09375 372.757812 C 387.09375 372.976562 387.3125 372.976562 387.34375 372.976562 C 387.53125 372.976562 387.59375 372.945312 387.625 372.726562 C 388.375 370.414062 389.8125 369.882812 390.5625 369.882812 C 390.96875 369.882812 391.75 370.070312 391.75 371.351562 C 391.75 372.007812 391.375 373.476562 390.5625 376.539062 C 390.21875 377.882812 389.4375 378.789062 388.5 378.789062 C 388.34375 378.789062 387.84375 378.789062 387.40625 378.507812 C 387.9375 378.414062 388.40625 377.945312 388.40625 377.351562 C 388.40625 376.757812 387.9375 376.570312 387.625 376.570312 C 386.96875 376.570312 386.40625 377.132812 386.40625 377.851562 C 386.40625 378.851562 387.5 379.289062 388.46875 379.289062 C 389.90625 379.289062 390.6875 377.757812 390.75 377.632812 C 391.03125 378.414062 391.8125 379.289062 393.125 379.289062 C 395.34375 379.289062 396.59375 376.476562 396.59375 375.914062 C 396.59375 375.695312 396.40625 375.695312 396.34375 375.695312 C 396.15625 375.695312 396.09375 375.789062 396.0625 375.945312 C 395.34375 378.289062 393.84375 378.789062 393.15625 378.789062 C 392.3125 378.789062 391.96875 378.101562 391.96875 377.351562 C 391.96875 376.882812 392.09375 376.414062 392.3125 375.445312 Z M 393.0625 372.445312 "/>
<path fill-rule="nonzero" fill="rgb(100%, 100%, 100%)" fill-opacity="1" d="M 12.453125 -5.273438 L 35.976562 -5.273438 L 35.976562 20.40625 L 12.453125 20.40625 Z M 12.453125 -5.273438 "/>
<path fill-rule="nonzero" fill="rgb(0%, 0%, 0%)" fill-opacity="1" d="M 29.074219 1.988281 C 29.167969 1.675781 29.167969 1.644531 29.167969 1.488281 C 29.167969 1.082031 28.855469 0.894531 28.542969 0.894531 C 28.324219 0.894531 27.980469 1.019531 27.761719 1.363281 C 27.730469 1.457031 27.542969 2.144531 27.480469 2.550781 C 27.324219 3.113281 27.167969 3.707031 27.042969 4.269531 L 26.042969 8.207031 C 25.949219 8.519531 25.011719 10.050781 23.574219 10.050781 C 22.480469 10.050781 22.230469 9.113281 22.230469 8.300781 C 22.230469 7.300781 22.605469 5.925781 23.355469 4.019531 C 23.699219 3.113281 23.792969 2.894531 23.792969 2.457031 C 23.792969 1.457031 23.074219 0.644531 21.980469 0.644531 C 19.917969 0.644531 19.105469 3.832031 19.105469 4.019531 C 19.105469 4.238281 19.324219 4.238281 19.386719 4.238281 C 19.605469 4.238281 19.605469 4.207031 19.730469 3.832031 C 20.324219 1.800781 21.199219 1.144531 21.917969 1.144531 C 22.105469 1.144531 22.480469 1.144531 22.480469 1.832031 C 22.480469 2.394531 22.261719 2.957031 22.105469 3.363281 C 21.230469 5.675781 20.824219 6.925781 20.824219 7.957031 C 20.824219 9.894531 22.199219 10.550781 23.511719 10.550781 C 24.355469 10.550781 25.074219 10.175781 25.699219 9.550781 C 25.417969 10.707031 25.167969 11.769531 24.292969 12.925781 C 23.730469 13.644531 22.886719 14.300781 21.886719 14.300781 C 21.574219 14.300781 20.605469 14.238281 20.230469 13.363281 C 20.574219 13.363281 20.855469 13.363281 21.167969 13.113281 C 21.386719 12.925781 21.605469 12.644531 21.605469 12.207031 C 21.605469 11.550781 21.011719 11.457031 20.792969 11.457031 C 20.292969 11.457031 19.574219 11.800781 19.574219 12.863281 C 19.574219 13.957031 20.542969 14.769531 21.886719 14.769531 C 24.136719 14.769531 26.386719 12.800781 26.980469 10.332031 Z M 29.074219 1.988281 "/>
<path fill="none" stroke-width="11.9553" stroke-linecap="butt" stroke-linejoin="miter" stroke="rgb(0%, 0%, 0%)" stroke-opacity="1" stroke-miterlimit="10" d="M 179.999997 321.601558 L 1980.039033 321.601558 " transform="matrix(0.2, 0, 0, -0.2, 0, 428)"/>
<path fill="none" stroke-width="11.9553" stroke-linecap="butt" stroke-linejoin="miter" stroke="rgb(0%, 0%, 0%)" stroke-opacity="1" stroke-miterlimit="10" d="M 179.999997 321.601558 L 179.999997 2121.640593 " transform="matrix(0.2, 0, 0, -0.2, 0, 428)"/>
<path fill-rule="nonzero" fill="rgb(0%, 0%, 0%)" fill-opacity="1" d="M 171.601562 420.300781 C 172.789062 419.894531 174.789062 419.300781 174.789062 417.363281 C 174.789062 415.050781 172.070312 413.988281 170.101562 413.988281 C 169.164062 413.988281 168.195312 414.207031 167.351562 414.707031 C 167.226562 414.769531 167.070312 414.957031 166.914062 414.957031 C 166.601562 414.957031 166.039062 413.988281 165.726562 413.988281 C 165.539062 413.988281 165.507812 414.207031 165.507812 414.300781 L 165.507812 417.863281 C 165.507812 417.988281 165.601562 418.144531 165.789062 418.144531 C 166.101562 418.144531 166.070312 417.519531 166.164062 417.175781 C 166.632812 415.457031 168.195312 414.707031 169.695312 414.613281 L 170.101562 414.613281 C 171.445312 414.613281 173.007812 415.488281 173.007812 417.363281 C 173.007812 419.175781 171.226562 420.113281 169.570312 420.113281 C 169.257812 420.113281 168.945312 420.113281 168.632812 420.113281 L 168.476562 420.113281 C 168.289062 420.113281 168.070312 420.113281 168.070312 420.332031 L 168.070312 420.363281 C 168.101562 420.550781 168.289062 420.582031 168.476562 420.582031 L 170.320312 420.582031 C 171.882812 420.707031 173.320312 421.738281 173.476562 423.363281 L 173.476562 423.582031 C 173.476562 425.425781 171.757812 426.582031 170.007812 426.582031 C 168.101562 426.582031 166.132812 425.957031 165.820312 423.582031 C 165.820312 423.425781 165.757812 423.238281 165.539062 423.238281 C 165.320312 423.269531 165.289062 423.425781 165.289062 423.582031 C 165.289062 426.175781 167.882812 427.207031 170.132812 427.207031 C 172.195312 427.207031 175.070312 426.238281 175.320312 423.769531 L 175.320312 423.644531 C 175.320312 421.675781 173.257812 420.707031 171.601562 420.300781 Z M 171.601562 420.300781 "/>
<path fill-rule="nonzero" fill="rgb(0%, 0%, 0%)" fill-opacity="1" d="M 183.695312 413.988281 C 180.320312 414.394531 177.632812 417.050781 177.632812 420.644531 C 177.632812 423.925781 180.226562 427.175781 184.101562 427.175781 C 187.601562 427.175781 190.570312 424.269531 190.570312 420.644531 C 190.570312 417.457031 188.070312 413.988281 184.132812 413.988281 C 184.007812 413.988281 183.851562 413.988281 183.695312 413.988281 Z M 179.507812 420.863281 L 179.507812 420.519531 C 179.507812 418.019531 180.414062 415.082031 183.570312 414.550781 C 183.757812 414.519531 183.914062 414.519531 184.101562 414.519531 C 186.914062 414.519531 188.664062 417.238281 188.664062 420.269531 C 188.664062 422.675781 187.945312 425.738281 184.976562 426.519531 C 184.695312 426.582031 184.414062 426.613281 184.132812 426.613281 L 183.945312 426.613281 C 181.351562 426.519531 179.945312 424.050781 179.601562 421.644531 Z M 179.507812 420.863281 "/>
<path fill-rule="nonzero" fill="rgb(0%, 0%, 0%)" fill-opacity="1" d="M 193.027344 414.332031 L 193.027344 414.925781 L 193.464844 414.925781 C 194.058594 414.925781 194.683594 415.019531 194.683594 415.894531 L 194.683594 425.363281 C 194.683594 426.207031 193.964844 426.238281 193.308594 426.238281 L 193.027344 426.238281 L 193.027344 426.832031 L 198.808594 426.832031 C 199.214844 426.832031 199.589844 426.863281 199.996094 426.863281 C 201.996094 426.863281 204.339844 425.925781 204.558594 423.519531 L 204.558594 423.332031 C 204.558594 420.800781 201.683594 419.769531 199.777344 419.769531 C 198.527344 419.769531 197.339844 419.894531 196.152344 419.988281 L 196.152344 415.769531 C 196.152344 415.332031 196.214844 414.925781 196.996094 414.925781 L 199.308594 414.925781 C 200.277344 414.925781 201.371094 414.988281 202.089844 415.707031 C 202.777344 416.425781 202.871094 417.644531 202.964844 418.582031 L 203.496094 418.582031 L 203.027344 414.332031 Z M 196.152344 420.613281 C 196.402344 420.613281 196.652344 420.550781 196.902344 420.519531 L 198.277344 420.457031 C 198.558594 420.425781 198.839844 420.394531 199.152344 420.394531 C 200.714844 420.394531 202.683594 421.394531 202.683594 423.238281 C 202.683594 424.988281 201.339844 426.269531 199.339844 426.269531 C 199.058594 426.269531 198.746094 426.238281 198.496094 426.238281 L 196.964844 426.238281 C 196.496094 426.238281 196.246094 426.207031 196.152344 425.582031 Z M 196.152344 420.613281 "/>
<path fill-rule="nonzero" fill="rgb(0%, 0%, 0%)" fill-opacity="1" d="M 206.90625 414.332031 L 206.90625 414.925781 L 207.375 414.925781 C 207.96875 414.925781 208.5625 415.019531 208.5625 415.894531 L 208.5625 425.363281 C 208.5625 426.207031 207.875 426.238281 207.1875 426.238281 L 206.90625 426.238281 L 206.90625 426.832031 L 211.8125 426.832031 L 211.8125 426.238281 L 211.375 426.238281 C 210.75 426.238281 210.15625 426.175781 210.15625 425.300781 L 210.15625 421.113281 L 213.875 421.113281 C 215.65625 420.988281 217.9375 419.800781 217.9375 417.769531 C 217.9375 415.550781 215.59375 414.488281 213.6875 414.332031 Z M 210.125 420.582031 L 210.125 415.582031 C 210.21875 414.988281 210.46875 414.925781 210.875 414.925781 L 212.3125 414.925781 C 213.9375 414.925781 216.0625 414.988281 216.0625 417.769531 C 216.0625 418.425781 215.96875 419.113281 215.5625 419.613281 C 214.90625 420.394531 213.8125 420.582031 212.84375 420.582031 Z M 210.125 420.582031 "/>
<path fill-rule="nonzero" fill="rgb(0%, 0%, 0%)" fill-opacity="1" d="M 222.636719 424.550781 C 222.136719 424.644531 221.636719 425.082031 221.636719 425.675781 C 221.636719 426.300781 222.167969 426.832031 222.792969 426.832031 C 223.417969 426.832031 223.980469 426.363281 223.980469 425.707031 C 223.980469 425.082031 223.449219 424.519531 222.824219 424.519531 C 222.761719 424.519531 222.699219 424.550781 222.636719 424.550781 Z M 222.636719 424.550781 "/>
<path fill-rule="nonzero" fill="rgb(0%, 0%, 0%)" fill-opacity="1" d="M 238.035156 413.113281 C 238.722656 412.050781 240.097656 411.519531 241.378906 411.519531 C 242.816406 411.519531 243.972656 412.425781 243.972656 414.269531 C 243.972656 415.800781 243.222656 417.675781 241.628906 418.082031 C 241.066406 418.238281 239.566406 418.082031 239.566406 418.519531 C 239.566406 418.707031 239.753906 418.769531 239.941406 418.769531 L 241.222656 418.769531 C 243.566406 418.769531 244.441406 420.738281 244.441406 422.550781 C 244.441406 424.300781 243.816406 426.707031 241.410156 426.707031 C 239.816406 426.707031 238.285156 425.988281 237.410156 424.582031 L 237.628906 424.582031 C 238.316406 424.582031 238.910156 424.175781 238.910156 423.425781 C 238.910156 422.707031 238.378906 422.238281 237.691406 422.238281 L 237.597656 422.238281 C 236.941406 422.269531 236.503906 422.800781 236.503906 423.425781 C 236.503906 425.894531 239.066406 427.332031 241.503906 427.332031 C 244.097656 427.332031 246.660156 425.488281 246.660156 422.738281 C 246.660156 420.613281 244.628906 418.550781 242.410156 418.457031 C 244.285156 417.800781 245.972656 416.425781 245.972656 414.269531 C 245.972656 412.082031 243.566406 410.957031 241.535156 410.957031 C 239.660156 410.957031 237.191406 411.863281 237.191406 414.113281 C 237.191406 414.675781 237.441406 415.175781 238.191406 415.300781 L 238.285156 415.300781 C 238.941406 415.300781 239.410156 414.863281 239.410156 414.207031 C 239.410156 413.488281 238.847656 413.082031 238.253906 413.082031 C 238.191406 413.082031 238.128906 413.113281 238.035156 413.113281 Z M 238.035156 413.113281 "/>
<path fill-rule="nonzero" fill="rgb(0%, 0%, 0%)" fill-opacity="1" d="M 253.996094 410.957031 C 249.433594 411.363281 249.277344 416.832031 249.277344 419.269531 C 249.277344 421.519531 249.496094 424.175781 250.964844 425.894531 C 251.777344 426.800781 253.027344 427.363281 254.246094 427.363281 C 259.121094 427.363281 259.339844 421.519531 259.339844 419.082031 C 259.339844 416.832031 259.152344 414.144531 257.652344 412.457031 C 256.839844 411.519531 255.621094 410.925781 254.339844 410.925781 C 254.214844 410.925781 254.089844 410.957031 253.996094 410.957031 Z M 251.121094 420.582031 C 251.089844 420.394531 251.089844 420.175781 251.089844 419.957031 L 251.089844 418.925781 C 251.089844 417.738281 251.121094 416.550781 251.246094 415.363281 C 251.339844 414.457031 251.464844 413.488281 251.996094 412.707031 C 252.527344 411.925781 253.371094 411.425781 254.308594 411.425781 C 256.433594 411.425781 257.183594 413.488281 257.371094 415.207031 C 257.496094 416.300781 257.496094 417.394531 257.496094 418.488281 C 257.496094 419.488281 257.496094 420.519531 257.433594 421.519531 C 257.371094 423.457031 257.246094 426.269531 254.777344 426.800781 C 254.621094 426.832031 254.464844 426.863281 254.308594 426.863281 C 251.277344 426.863281 251.339844 422.988281 251.121094 420.582031 Z M 251.121094 420.582031 "/>
<path fill-rule="nonzero" fill="rgb(0%, 0%, 0%)" fill-opacity="1" d="M 264.144531 424.550781 C 263.644531 424.644531 263.144531 425.082031 263.144531 425.675781 C 263.144531 426.300781 263.675781 426.832031 264.300781 426.832031 C 264.925781 426.832031 265.488281 426.363281 265.488281 425.707031 C 265.488281 425.082031 264.957031 424.519531 264.332031 424.519531 C 264.269531 424.519531 264.207031 424.550781 264.144531 424.550781 Z M 264.144531 424.550781 "/>
</svg>
