<?xml version="1.0" encoding="UTF-8"?>
<svg xmlns="http://www.w3.org/2000/svg" xmlns:xlink="http://www.w3.org/1999/xlink" width="364" height="356" viewBox="0 0 364 356">
<path fill="none" stroke-width="11.9553" stroke-linecap="butt" stroke-linejoin="miter" stroke="rgb(0%, 0%, 0%)" stroke-opacity="1" stroke-miterlimit="10" d="M 271.249996 1137.226546 L 306.679683 1110.351546 L 342.10937 1084.843734 L 377.578119 1060.742172 L 413.007806 1038.007797 L 448.437493 1016.64061 L 483.86718 996.679673 L 519.296867 978.04686 L 554.765617 960.820298 L 590.195304 944.999986 L 625.624991 930.507799 L 661.054678 917.421861 L 696.523427 905.703112 L 731.953114 895.351549 L 767.382801 886.406237 L 802.812488 878.828112 L 838.281238 872.656237 L 873.710924 867.812487 L 909.140611 864.374987 L 944.570298 862.304675 L 979.999985 861.60155 L 1015.468735 862.304675 L 1050.898422 864.374987 L 1086.328109 867.812487 L 1121.757796 872.617174 L 1157.187483 878.828112 L 1192.61717 886.406237 L 1228.085919 895.351549 L 1263.515606 905.703112 L 1298.945293 917.421861 L 1334.37498 930.507799 L 1369.84373 944.999986 L 1405.273417 960.820298 L 1440.703104 978.04686 L 1476.132791 996.679673 L 1511.562477 1016.64061 L 1547.031227 1038.007797 L 1582.460914 1060.742172 L 1617.890601 1084.843734 L 1653.35935 1110.351546 L 1688.789037 1137.226546 " transform="matrix(0.2, 0, 0, -0.2, 0, 356)"/>
<path fill="none" stroke-width="11.9553" stroke-linecap="butt" stroke-linejoin="miter" stroke="rgb(0%, 0%, 0%)" stroke-opacity="1" stroke-miterlimit="10" d="M 271.249996 1137.226546 L 676.24999 822.421863 " transform="matrix(0.2, 0, 0, -0.2, 0, 356)"/>
<path fill-rule="nonzero" fill="rgb(0%, 0%, 0%)" fill-opacity="1" d="M 133.773438 190.375 L 126.296875 190.867188 L 135.25 191.515625 L 132.414062 183 L 133.773438 190.375 "/>
<path fill="none" stroke-width="11.9553" stroke-linecap="butt" stroke-linejoin="miter" stroke="rgb(0%, 0%, 0%)" stroke-opacity="1" stroke-miterlimit="10" d="M 668.867178 828.124988 L 631.484366 825.66405 L 676.24999 822.421863 L 662.070303 864.999987 Z M 668.867178 828.124988 " transform="matrix(0.2, 0, 0, -0.2, 0, 356)"/>
<path fill="none" stroke-width="11.9553" stroke-linecap="butt" stroke-linejoin="miter" stroke="rgb(0%, 0%, 0%)" stroke-opacity="1" stroke-miterlimit="10" d="M 1385.039042 951.601548 L 1790.039036 1131.796858 " transform="matrix(0.2, 0, 0, -0.2, 0, 356)"/>
<path fill-rule="nonzero" fill="rgb(0%, 0%, 0%)" fill-opacity="1" d="M 356.296875 130.398438 L 353.203125 137.226562 L 358.007812 129.640625 L 349.15625 128.125 L 356.296875 130.398438 "/>
<path fill="none" stroke-width="11.9553" stroke-linecap="butt" stroke-linejoin="miter" stroke="rgb(0%, 0%, 0%)" stroke-opacity="1" stroke-miterlimit="10" d="M 1781.484348 1128.007796 L 1766.015599 1093.867171 L 1790.039036 1131.796858 L 1745.781224 1139.374983 Z M 1781.484348 1128.007796 " transform="matrix(0.2, 0, 0, -0.2, 0, 356)"/>
<path fill-rule="nonzero" fill="rgb(0%, 0%, 0%)" fill-opacity="1" d="M 204.429688 162.492188 C 204.648438 161.710938 204.679688 161.492188 206.304688 161.492188 C 206.804688 161.492188 207.023438 161.492188 207.023438 161.054688 C 207.023438 160.804688 206.804688 160.804688 206.429688 160.804688 L 203.554688 160.804688 C 202.992188 160.804688 202.960938 160.804688 202.710938 161.242188 L 194.742188 173.648438 L 193.023438 161.304688 C 192.960938 160.804688 192.929688 160.804688 192.367188 160.804688 L 189.367188 160.804688 C 188.960938 160.804688 188.710938 160.804688 188.710938 161.242188 C 188.710938 161.492188 188.898438 161.492188 189.335938 161.492188 C 189.617188 161.492188 190.023438 161.523438 190.273438 161.523438 C 190.648438 161.585938 190.773438 161.648438 190.773438 161.867188 C 190.773438 161.960938 190.742188 162.023438 190.679688 162.304688 L 187.898438 173.398438 C 187.679688 174.273438 187.304688 174.960938 185.554688 175.023438 C 185.429688 175.023438 185.148438 175.054688 185.148438 175.460938 C 185.148438 175.648438 185.304688 175.710938 185.460938 175.710938 C 186.148438 175.710938 186.929688 175.648438 187.648438 175.648438 C 188.398438 175.648438 189.179688 175.710938 189.898438 175.710938 C 189.992188 175.710938 190.273438 175.710938 190.273438 175.273438 C 190.273438 175.023438 190.054688 175.023438 189.898438 175.023438 C 188.648438 175.023438 188.398438 174.585938 188.398438 174.085938 C 188.398438 173.929688 188.429688 173.804688 188.492188 173.585938 L 191.460938 161.679688 L 191.492188 161.679688 L 193.367188 175.210938 C 193.398438 175.460938 193.429688 175.710938 193.679688 175.710938 C 193.929688 175.710938 194.054688 175.460938 194.179688 175.304688 L 202.992188 161.523438 L 199.867188 174.023438 C 199.648438 174.867188 199.617188 175.023438 197.898438 175.023438 C 197.523438 175.023438 197.273438 175.023438 197.273438 175.460938 C 197.273438 175.710938 197.554688 175.710938 197.617188 175.710938 C 198.210938 175.710938 199.710938 175.648438 200.304688 175.648438 C 201.210938 175.648438 202.148438 175.710938 203.054688 175.710938 C 203.179688 175.710938 203.460938 175.710938 203.460938 175.273438 C 203.460938 175.023438 203.273438 175.023438 202.835938 175.023438 C 202.054688 175.023438 201.429688 175.023438 201.429688 174.648438 C 201.429688 174.554688 201.429688 174.523438 201.554688 174.117188 Z M 204.429688 162.492188 "/>
<path fill-rule="nonzero" fill="rgb(100%, 100%, 100%)" fill-opacity="1" d="M 102.734375 311.25 L 127.210938 311.25 L 127.210938 332.609375 L 102.734375 332.609375 Z M 102.734375 311.25 "/>
<path fill-rule="nonzero" fill="rgb(0%, 0%, 0%)" fill-opacity="1" d="M 116.042969 319.996094 C 116.167969 319.433594 116.667969 317.433594 118.199219 317.433594 C 118.324219 317.433594 118.824219 317.433594 119.292969 317.714844 C 118.699219 317.808594 118.261719 318.371094 118.261719 318.902344 C 118.261719 319.246094 118.480469 319.652344 119.074219 319.652344 C 119.574219 319.652344 120.261719 319.246094 120.261719 318.402344 C 120.261719 317.246094 118.980469 316.933594 118.230469 316.933594 C 116.949219 316.933594 116.199219 318.089844 115.949219 318.621094 C 115.386719 317.152344 114.199219 316.933594 113.574219 316.933594 C 111.324219 316.933594 110.074219 319.777344 110.074219 320.308594 C 110.074219 320.527344 110.292969 320.527344 110.324219 320.527344 C 110.511719 320.527344 110.574219 320.496094 110.605469 320.277344 C 111.355469 317.964844 112.792969 317.433594 113.542969 317.433594 C 113.949219 317.433594 114.730469 317.621094 114.730469 318.902344 C 114.730469 319.558594 114.355469 321.027344 113.542969 324.089844 C 113.199219 325.433594 112.417969 326.339844 111.480469 326.339844 C 111.324219 326.339844 110.824219 326.339844 110.386719 326.058594 C 110.917969 325.964844 111.386719 325.496094 111.386719 324.902344 C 111.386719 324.308594 110.917969 324.121094 110.605469 324.121094 C 109.949219 324.121094 109.386719 324.683594 109.386719 325.402344 C 109.386719 326.402344 110.480469 326.839844 111.449219 326.839844 C 112.886719 326.839844 113.667969 325.308594 113.730469 325.183594 C 114.011719 325.964844 114.792969 326.839844 116.105469 326.839844 C 118.324219 326.839844 119.574219 324.027344 119.574219 323.464844 C 119.574219 323.246094 119.386719 323.246094 119.324219 323.246094 C 119.136719 323.246094 119.074219 323.339844 119.042969 323.496094 C 118.324219 325.839844 116.824219 326.339844 116.136719 326.339844 C 115.292969 326.339844 114.949219 325.652344 114.949219 324.902344 C 114.949219 324.433594 115.074219 323.964844 115.292969 322.996094 Z M 116.042969 319.996094 "/>
<path fill-rule="nonzero" fill="rgb(0%, 0%, 0%)" fill-opacity="1" d="M 38.234375 295.445312 L 38.453125 295.90625 L 38.6875 296.351562 L 38.9375 296.78125 L 39.210938 297.1875 L 39.492188 297.585938 L 39.789062 297.96875 L 40.109375 298.328125 L 40.4375 298.679688 L 40.78125 299.015625 L 41.132812 299.335938 L 41.507812 299.640625 L 41.890625 299.929688 L 42.289062 300.210938 L 42.703125 300.476562 L 43.132812 300.726562 L 43.570312 300.96875 L 44.023438 301.195312 L 44.484375 301.40625 L 44.960938 301.609375 L 45.453125 301.804688 L 45.945312 301.984375 L 46.460938 302.15625 L 46.984375 302.3125 L 47.515625 302.460938 L 48.0625 302.601562 L 48.617188 302.726562 L 49.1875 302.84375 L 49.757812 302.953125 L 50.34375 303.054688 L 50.945312 303.148438 L 51.546875 303.234375 L 52.164062 303.304688 L 52.789062 303.375 L 53.421875 303.4375 L 54.0625 303.492188 L 54.710938 303.539062 L 55.367188 303.578125 L 56.03125 303.617188 L 56.703125 303.648438 L 57.382812 303.671875 L 58.070312 303.6875 L 58.765625 303.695312 L 59.46875 303.710938 L 61.601562 303.710938 L 62.328125 303.703125 L 63.0625 303.695312 L 63.796875 303.679688 L 65.28125 303.648438 L 66.03125 303.632812 L 67.546875 303.585938 L 69.84375 303.515625 L 71.390625 303.46875 L 73.734375 303.398438 L 74.523438 303.375 L 75.304688 303.359375 L 76.882812 303.328125 L 77.679688 303.3125 L 79.257812 303.296875 L 80.84375 303.296875 L 81.640625 303.304688 L 82.429688 303.3125 L 83.21875 303.328125 L 84.015625 303.34375 L 84.804688 303.375 L 85.59375 303.398438 L 86.382812 303.4375 L 87.164062 303.476562 L 88.726562 303.585938 L 89.507812 303.648438 L 90.28125 303.71875 L 91.054688 303.796875 L 91.828125 303.882812 L 92.59375 303.976562 L 93.359375 304.078125 L 94.117188 304.1875 L 94.875 304.3125 L 95.625 304.445312 L 96.367188 304.585938 L 97.109375 304.734375 L 97.84375 304.890625 L 98.578125 305.0625 L 99.304688 305.242188 L 100.023438 305.4375 L 100.742188 305.648438 L 101.445312 305.859375 L 102.148438 306.09375 L 102.84375 306.335938 L 103.53125 306.585938 L 104.210938 306.859375 L 104.890625 307.140625 L 105.554688 307.429688 L 106.210938 307.742188 L 106.867188 308.0625 L 107.507812 308.40625 L 108.140625 308.757812 L 108.765625 309.125 L 109.382812 309.507812 L 109.992188 309.90625 L 110.585938 310.320312 L 111.179688 310.757812 L 111.75 311.203125 L 112.320312 311.671875 L 112.875 312.15625 L 113.429688 312.648438 L 113.960938 313.171875 L 114.484375 313.710938 L 115 314.265625 L 115.515625 313.710938 L 116.039062 313.171875 L 116.578125 312.648438 L 117.125 312.15625 L 117.679688 311.671875 L 118.25 311.203125 L 118.828125 310.757812 L 119.414062 310.320312 L 120.015625 309.90625 L 120.617188 309.507812 L 121.234375 309.125 L 121.859375 308.757812 L 122.492188 308.40625 L 123.140625 308.0625 L 123.789062 307.742188 L 124.445312 307.429688 L 125.109375 307.140625 L 125.789062 306.859375 L 126.46875 306.585938 L 127.15625 306.335938 L 127.851562 306.09375 L 128.554688 305.859375 L 129.976562 305.4375 L 130.695312 305.242188 L 131.421875 305.0625 L 132.15625 304.890625 L 132.890625 304.734375 L 133.632812 304.585938 L 134.382812 304.445312 L 135.132812 304.3125 L 135.882812 304.1875 L 136.648438 304.078125 L 137.40625 303.976562 L 138.179688 303.882812 L 138.945312 303.796875 L 139.71875 303.71875 L 140.492188 303.648438 L 141.273438 303.585938 L 142.835938 303.476562 L 143.625 303.4375 L 144.40625 303.398438 L 145.195312 303.375 L 145.992188 303.34375 L 147.570312 303.3125 L 148.367188 303.304688 L 149.15625 303.296875 L 150.742188 303.296875 L 151.53125 303.304688 L 152.328125 303.3125 L 155.484375 303.375 L 156.265625 303.398438 L 157.054688 303.421875 L 157.828125 303.445312 L 158.609375 303.46875 L 160.929688 303.539062 L 161.695312 303.5625 L 163.96875 303.632812 L 164.71875 303.648438 L 166.203125 303.679688 L 166.9375 303.695312 L 167.671875 303.703125 L 168.398438 303.710938 L 170.539062 303.710938 L 171.234375 303.695312 L 171.929688 303.6875 L 172.617188 303.671875 L 173.296875 303.648438 L 173.96875 303.617188 L 174.632812 303.578125 L 175.289062 303.539062 L 175.945312 303.492188 L 176.578125 303.4375 L 177.210938 303.375 L 177.835938 303.304688 L 178.453125 303.234375 L 179.0625 303.148438 L 179.65625 303.054688 L 180.242188 302.953125 L 180.8125 302.84375 L 181.382812 302.726562 L 181.9375 302.601562 L 182.484375 302.460938 L 183.015625 302.3125 L 183.539062 302.15625 L 184.054688 301.984375 L 184.554688 301.804688 L 185.039062 301.609375 L 185.515625 301.40625 L 185.976562 301.195312 L 186.429688 300.96875 L 186.867188 300.726562 L 187.296875 300.476562 L 187.710938 300.210938 L 188.109375 299.929688 L 188.492188 299.640625 L 188.867188 299.335938 L 189.226562 299.015625 L 189.570312 298.679688 L 189.898438 298.328125 L 190.210938 297.96875 L 190.507812 297.585938 L 190.789062 297.1875 L 191.0625 296.78125 L 191.3125 296.351562 L 191.546875 295.90625 L 191.765625 295.445312 L 191.445312 296.085938 L 191.109375 296.710938 L 190.757812 297.3125 L 190.398438 297.890625 L 190.023438 298.453125 L 189.640625 298.984375 L 189.242188 299.5 L 188.828125 299.992188 L 188.40625 300.460938 L 187.976562 300.914062 L 187.53125 301.351562 L 187.078125 301.757812 L 186.617188 302.15625 L 186.140625 302.53125 L 185.65625 302.890625 L 185.164062 303.226562 L 184.65625 303.546875 L 184.140625 303.851562 L 183.617188 304.140625 L 183.078125 304.414062 L 182.539062 304.671875 L 181.984375 304.90625 L 181.421875 305.132812 L 180.859375 305.34375 L 180.28125 305.539062 L 179.695312 305.71875 L 179.101562 305.882812 L 178.5 306.039062 L 177.890625 306.179688 L 177.273438 306.304688 L 176.648438 306.421875 L 176.015625 306.523438 L 175.375 306.617188 L 174.734375 306.695312 L 174.085938 306.765625 L 173.421875 306.828125 L 172.757812 306.882812 L 172.09375 306.921875 L 170.734375 306.96875 L 170.046875 306.984375 L 169.359375 306.992188 L 168.664062 306.984375 L 167.960938 306.976562 L 167.257812 306.960938 L 166.546875 306.9375 L 165.109375 306.875 L 164.390625 306.835938 L 163.664062 306.789062 L 162.929688 306.734375 L 162.203125 306.679688 L 161.460938 306.617188 L 160.726562 306.554688 L 159.984375 306.492188 L 159.242188 306.421875 L 158.492188 306.351562 L 157.742188 306.273438 L 156.992188 306.203125 L 156.242188 306.125 L 155.484375 306.046875 L 154.734375 305.96875 L 153.21875 305.8125 L 152.460938 305.726562 L 151.703125 305.65625 L 150.945312 305.578125 L 150.179688 305.5 L 147.90625 305.289062 L 146.390625 305.164062 L 144.875 305.054688 L 143.359375 304.960938 L 142.609375 304.921875 L 141.859375 304.890625 L 141.109375 304.867188 L 140.367188 304.84375 L 138.882812 304.828125 L 138.148438 304.828125 L 137.40625 304.84375 L 136.679688 304.859375 L 135.945312 304.882812 L 135.21875 304.921875 L 134.5 304.96875 L 133.78125 305.023438 L 133.070312 305.085938 L 132.359375 305.164062 L 131.65625 305.25 L 130.953125 305.351562 L 130.257812 305.460938 L 129.570312 305.585938 L 128.882812 305.71875 L 128.203125 305.867188 L 127.53125 306.03125 L 126.859375 306.203125 L 126.203125 306.390625 L 125.546875 306.59375 L 124.890625 306.8125 L 124.25 307.046875 L 123.617188 307.296875 L 122.984375 307.554688 L 122.359375 307.835938 L 121.75 308.132812 L 121.140625 308.453125 L 120.539062 308.78125 L 119.945312 309.132812 L 119.359375 309.5 L 118.789062 309.882812 L 118.21875 310.289062 L 117.65625 310.710938 L 117.109375 311.15625 L 116.570312 311.617188 L 116.039062 312.101562 L 115.515625 312.609375 L 115 313.132812 L 114.492188 312.609375 L 113.96875 312.101562 L 113.4375 311.617188 L 112.890625 311.15625 L 112.34375 310.710938 L 111.78125 310.289062 L 111.210938 309.882812 L 110.640625 309.5 L 110.054688 309.132812 L 109.460938 308.78125 L 108.867188 308.453125 L 108.257812 308.132812 L 107.640625 307.835938 L 107.015625 307.554688 L 106.390625 307.296875 L 105.75 307.046875 L 105.109375 306.8125 L 104.460938 306.59375 L 103.804688 306.390625 L 103.140625 306.203125 L 102.46875 306.03125 L 101.796875 305.867188 L 101.117188 305.71875 L 100.429688 305.585938 L 99.742188 305.460938 L 99.046875 305.351562 L 98.34375 305.25 L 97.640625 305.164062 L 96.929688 305.085938 L 96.21875 305.023438 L 95.5 304.96875 L 94.78125 304.921875 L 94.054688 304.882812 L 93.328125 304.859375 L 91.859375 304.828125 L 91.117188 304.828125 L 89.632812 304.84375 L 88.890625 304.867188 L 88.140625 304.890625 L 87.390625 304.921875 L 86.640625 304.960938 L 85.882812 305.007812 L 85.132812 305.054688 L 83.617188 305.164062 L 82.101562 305.289062 L 81.335938 305.359375 L 79.820312 305.5 L 79.0625 305.578125 L 78.296875 305.65625 L 77.539062 305.726562 L 76.78125 305.8125 L 76.023438 305.890625 L 75.273438 305.96875 L 73.757812 306.125 L 73.007812 306.203125 L 72.257812 306.273438 L 71.507812 306.351562 L 70.757812 306.421875 L 70.015625 306.492188 L 69.273438 306.554688 L 67.804688 306.679688 L 66.335938 306.789062 L 65.609375 306.835938 L 64.890625 306.875 L 63.453125 306.9375 L 62.75 306.960938 L 62.039062 306.976562 L 60.648438 306.992188 L 59.953125 306.984375 L 59.265625 306.96875 L 57.90625 306.921875 L 57.242188 306.882812 L 56.578125 306.828125 L 55.921875 306.765625 L 55.265625 306.695312 L 54.625 306.617188 L 53.984375 306.523438 L 53.351562 306.421875 L 52.726562 306.304688 L 52.109375 306.179688 L 51.507812 306.039062 L 50.898438 305.882812 L 50.3125 305.71875 L 49.71875 305.539062 L 49.140625 305.34375 L 48.570312 305.132812 L 48.015625 304.90625 L 47.460938 304.671875 L 46.921875 304.414062 L 46.382812 304.140625 L 45.859375 303.851562 L 45.34375 303.546875 L 44.84375 303.226562 L 44.34375 302.890625 L 43.859375 302.53125 L 43.390625 302.15625 L 42.921875 301.757812 L 42.46875 301.351562 L 42.023438 300.914062 L 41.59375 300.460938 L 41.171875 299.992188 L 40.765625 299.5 L 40.367188 298.984375 L 39.976562 298.453125 L 39.601562 297.890625 L 39.242188 297.3125 L 38.898438 296.710938 L 38.554688 296.085938 L 38.234375 295.445312 "/>
<path fill="none" stroke-width="3.985" stroke-linecap="butt" stroke-linejoin="miter" stroke="rgb(0%, 0%, 0%)" stroke-opacity="1" stroke-miterlimit="10" d="M 191.171872 302.773433 L 192.265622 300.468746 L 193.437497 298.242183 L 194.687497 296.093746 L 196.054685 294.062496 L 197.460935 292.070308 L 198.94531 290.156246 L 200.546872 288.359371 L 202.187497 286.601558 L 203.906247 284.921871 L 205.664059 283.320308 L 207.539059 281.796871 L 209.453122 280.351558 L 211.445309 278.945308 L 213.515622 277.617183 L 215.664059 276.367183 L 217.851559 275.156246 L 220.117184 274.023433 L 222.421872 272.968746 L 224.804684 271.953121 L 227.265622 270.976558 L 229.726559 270.078121 L 232.304684 269.218746 L 234.921871 268.437496 L 237.578121 267.695309 L 240.312496 266.992184 L 243.085934 266.367184 L 245.937496 265.781246 L 248.789059 265.234371 L 251.718746 264.726559 L 254.726559 264.257809 L 257.734371 263.828121 L 260.820309 263.476559 L 263.945309 263.124996 L 267.109371 262.812496 L 270.312496 262.539059 L 273.554683 262.304684 L 276.835933 262.109371 L 280.156246 261.914059 L 283.515621 261.757809 L 286.914058 261.640621 L 290.351558 261.562496 L 293.828121 261.523434 L 297.343746 261.445309 L 308.007808 261.445309 L 311.64062 261.484371 L 315.312495 261.523434 L 318.98437 261.601559 L 326.406245 261.757809 L 330.156245 261.835934 L 337.73437 262.070309 L 349.218745 262.421871 L 356.95312 262.656246 L 368.67187 263.007809 L 372.617182 263.124996 L 376.523432 263.203121 L 384.414057 263.359371 L 388.398432 263.437496 L 396.289057 263.515621 L 404.218744 263.515621 L 408.203119 263.476559 L 412.148431 263.437496 L 416.093744 263.359371 L 420.078119 263.281246 L 424.023431 263.124996 L 427.968744 263.007809 L 431.914056 262.812496 L 435.820306 262.617184 L 443.632806 262.070309 L 447.539056 261.757809 L 451.406243 261.406246 L 455.273431 261.015621 L 459.140618 260.585934 L 462.968743 260.117184 L 466.796868 259.609371 L 470.58593 259.062496 L 474.374993 258.437496 L 478.124993 257.773434 L 481.83593 257.070309 L 485.546868 256.328121 L 489.218743 255.546871 L 492.890618 254.687496 L 496.52343 253.789059 L 500.11718 252.812496 L 503.71093 251.757809 L 507.226555 250.703121 L 510.74218 249.531246 L 514.218742 248.320309 L 517.656242 247.070309 L 521.05468 245.703121 L 524.453117 244.296871 L 527.77343 242.851559 L 531.05468 241.289059 L 534.33593 239.687496 L 537.539054 237.968746 L 540.703117 236.210934 L 543.828117 234.374997 L 546.914054 232.460934 L 549.960929 230.468747 L 552.929679 228.398434 L 555.898429 226.210934 L 558.749992 223.984372 L 561.601554 221.640622 L 564.374992 219.218747 L 567.148429 216.757809 L 569.804679 214.140622 L 572.421866 211.445309 L 574.999991 208.671872 L 577.578116 211.445309 L 580.195304 214.140622 L 582.890616 216.757809 L 585.624991 219.218747 L 588.398429 221.640622 L 591.249991 223.984372 L 594.140616 226.210934 L 597.070304 228.398434 L 600.078116 230.468747 L 603.085929 232.460934 L 606.171866 234.374997 L 609.296866 236.210934 L 612.460928 237.968746 L 615.703116 239.687496 L 618.945303 241.289059 L 622.226553 242.851559 L 625.546866 244.296871 L 628.945303 245.703121 L 632.343741 247.070309 L 635.781241 248.320309 L 639.257803 249.531246 L 642.773428 250.703121 L 649.882803 252.812496 L 653.476553 253.789059 L 657.109365 254.687496 L 660.78124 255.546871 L 664.453115 256.328121 L 668.164053 257.070309 L 671.914052 257.773434 L 675.664052 258.437496 L 679.414052 259.062496 L 683.242177 259.609371 L 687.03124 260.117184 L 690.898427 260.585934 L 694.726552 261.015621 L 698.59374 261.406246 L 702.460927 261.757809 L 706.367177 262.070309 L 714.179677 262.617184 L 718.124989 262.812496 L 722.031239 263.007809 L 725.976552 263.124996 L 729.960927 263.281246 L 737.851552 263.437496 L 741.835926 263.476559 L 745.781239 263.515621 L 753.710926 263.515621 L 757.656239 263.476559 L 761.640614 263.437496 L 777.421863 263.124996 L 781.328113 263.007809 L 785.273426 262.890621 L 789.140613 262.773434 L 793.046863 262.656246 L 804.648426 262.304684 L 808.47655 262.187496 L 819.843738 261.835934 L 823.593738 261.757809 L 831.015613 261.601559 L 834.687488 261.523434 L 838.359363 261.484371 L 841.992175 261.445309 L 852.6953 261.445309 L 856.171862 261.523434 L 859.648425 261.562496 L 863.085925 261.640621 L 866.484362 261.757809 L 869.843737 261.914059 L 873.164049 262.109371 L 876.445299 262.304684 L 879.726549 262.539059 L 882.890612 262.812496 L 886.054674 263.124996 L 889.179674 263.476559 L 892.265612 263.828121 L 895.312487 264.257809 L 898.281237 264.726559 L 901.210924 265.234371 L 904.062487 265.781246 L 906.914049 266.367184 L 909.687486 266.992184 L 912.421861 267.695309 L 915.078111 268.437496 L 917.695299 269.218746 L 920.273424 270.078121 L 922.773424 270.976558 L 925.195299 271.953121 L 927.578111 272.968746 L 929.882799 274.023433 L 932.148424 275.156246 L 934.335924 276.367183 L 936.484361 277.617183 L 938.554674 278.945308 L 940.546861 280.351558 L 942.460923 281.796871 L 944.335923 283.320308 L 946.132798 284.921871 L 947.851548 286.601558 L 949.492173 288.359371 L 951.054673 290.156246 L 952.539048 292.070308 L 953.945298 294.062496 L 955.312486 296.093746 L 956.562486 298.242183 L 957.734361 300.468746 L 958.828111 302.773433 L 957.226548 299.570308 L 955.546861 296.445308 L 953.789048 293.437496 L 951.992173 290.546871 L 950.117173 287.734371 L 948.203111 285.078121 L 946.210923 282.499996 L 944.140611 280.039058 L 942.031236 277.695308 L 939.882798 275.429683 L 937.656236 273.242183 L 935.390611 271.210933 L 933.085924 269.218746 L 930.703111 267.343746 L 928.281236 265.546871 L 925.820299 263.867184 L 923.281236 262.265621 L 920.703111 260.742184 L 918.085924 259.296871 L 915.390611 257.929684 L 912.695299 256.640621 L 909.921861 255.468746 L 907.109361 254.335934 L 904.296862 253.281246 L 901.406237 252.304684 L 898.476549 251.406246 L 895.507799 250.585934 L 892.499987 249.804684 L 889.453112 249.101559 L 886.367174 248.476559 L 883.242174 247.890621 L 880.078112 247.382809 L 876.874987 246.914059 L 873.671862 246.523434 L 870.429675 246.171871 L 867.109362 245.859371 L 863.78905 245.585934 L 860.468737 245.390621 L 853.671862 245.156246 L 850.234362 245.078121 L 846.796862 245.039059 L 843.3203 245.078121 L 839.804675 245.117184 L 836.28905 245.195309 L 832.734363 245.312496 L 825.546863 245.624996 L 821.953113 245.820309 L 818.3203 246.054684 L 814.648425 246.328121 L 811.015613 246.601559 L 807.304675 246.914059 L 803.632801 247.226559 L 799.921863 247.539059 L 796.210926 247.890621 L 792.460926 248.242184 L 788.710926 248.632809 L 784.960926 248.984371 L 781.210926 249.374996 L 777.421863 249.765621 L 773.671863 250.156246 L 766.093739 250.937496 L 762.304676 251.367184 L 758.515614 251.718746 L 754.726551 252.109371 L 750.898426 252.499996 L 739.531239 253.554684 L 731.953114 254.179684 L 724.374989 254.726559 L 716.796864 255.195309 L 713.046864 255.390621 L 709.296864 255.546871 L 705.546864 255.664059 L 701.835927 255.781246 L 694.414052 255.859371 L 690.742177 255.859371 L 687.03124 255.781246 L 683.398427 255.703121 L 679.726552 255.585934 L 676.09374 255.390621 L 672.49999 255.156246 L 668.90624 254.882809 L 665.351553 254.570309 L 661.796865 254.179684 L 658.28124 253.749996 L 654.765615 253.242184 L 651.289053 252.695309 L 647.851553 252.070309 L 644.414053 251.406246 L 641.015615 250.664059 L 637.65624 249.843746 L 634.296866 248.984371 L 631.015616 248.046871 L 627.734366 247.031246 L 624.453116 245.937496 L 621.249991 244.765621 L 618.085928 243.515621 L 614.921866 242.226559 L 611.796866 240.820309 L 608.749991 239.335934 L 605.703116 237.734371 L 602.695304 236.093746 L 599.726554 234.335934 L 596.796866 232.499997 L 593.945304 230.585934 L 591.093741 228.554684 L 588.281241 226.445309 L 585.546866 224.218747 L 582.851554 221.914059 L 580.195304 219.492184 L 577.578116 216.953122 L 574.999991 214.335934 L 572.460929 216.953122 L 569.843742 219.492184 L 567.187492 221.914059 L 564.453117 224.218747 L 561.718742 226.445309 L 558.906242 228.554684 L 556.054679 230.585934 L 553.203117 232.499997 L 550.273429 234.335934 L 547.304679 236.093746 L 544.335929 237.734371 L 541.289054 239.335934 L 538.203117 240.820309 L 535.078117 242.226559 L 531.953117 243.515621 L 528.749992 244.765621 L 525.546867 245.937496 L 522.30468 247.031246 L 519.02343 248.046871 L 515.703117 248.984371 L 512.343742 249.843746 L 508.984367 250.664059 L 505.58593 251.406246 L 502.14843 252.070309 L 498.71093 252.695309 L 495.234368 253.242184 L 491.718743 253.749996 L 488.203118 254.179684 L 484.64843 254.570309 L 481.093743 254.882809 L 477.499993 255.156246 L 473.906243 255.390621 L 470.27343 255.585934 L 466.640618 255.703121 L 459.296868 255.859371 L 455.585931 255.859371 L 448.164056 255.781246 L 444.453118 255.664059 L 440.703118 255.546871 L 436.953118 255.390621 L 433.203119 255.195309 L 429.414056 254.960934 L 425.664056 254.726559 L 418.085931 254.179684 L 410.507806 253.554684 L 406.679681 253.203121 L 399.101557 252.499996 L 395.312494 252.109371 L 391.484369 251.718746 L 387.695307 251.367184 L 383.906244 250.937496 L 380.117182 250.546871 L 376.367182 250.156246 L 368.789057 249.374996 L 365.039057 248.984371 L 361.289057 248.632809 L 357.539057 248.242184 L 353.789057 247.890621 L 350.07812 247.539059 L 346.367182 247.226559 L 339.023432 246.601559 L 331.679683 246.054684 L 328.04687 245.820309 L 324.45312 245.624996 L 317.26562 245.312496 L 313.749995 245.195309 L 310.195308 245.117184 L 303.242183 245.039059 L 299.765621 245.078121 L 296.328121 245.156246 L 289.531246 245.390621 L 286.210933 245.585934 L 282.890621 245.859371 L 279.609371 246.171871 L 276.328121 246.523434 L 273.124996 246.914059 L 269.921871 247.382809 L 266.757809 247.890621 L 263.632809 248.476559 L 260.546871 249.101559 L 257.539059 249.804684 L 254.492184 250.585934 L 251.562496 251.406246 L 248.593746 252.304684 L 245.703121 253.281246 L 242.851559 254.335934 L 240.078121 255.468746 L 237.304684 256.640621 L 234.609372 257.929684 L 231.914059 259.296871 L 229.296872 260.742184 L 226.718747 262.265621 L 224.218747 263.867184 L 221.718747 265.546871 L 219.296872 267.343746 L 216.953122 269.218746 L 214.609372 271.210933 L 212.343747 273.242183 L 210.117184 275.429683 L 207.968747 277.695308 L 205.859372 280.039058 L 203.828122 282.499996 L 201.835934 285.078121 L 199.88281 287.734371 L 198.00781 290.546871 L 196.210935 293.437496 L 194.492185 296.445308 L 192.773435 299.570308 Z M 191.171872 302.773433 " transform="matrix(0.2, 0, 0, -0.2, 0, 356)"/>
<path fill-rule="nonzero" fill="rgb(100%, 100%, 100%)" fill-opacity="1" d="M 225.085938 221.625 L 302.367188 221.625 L 302.367188 253.546875 L 225.085938 253.546875 Z M 225.085938 221.625 "/>
<path fill-rule="nonzero" fill="rgb(0%, 0%, 0%)" fill-opacity="1" d="M 241.703125 235.125 C 241.796875 234.8125 241.796875 234.78125 241.796875 234.625 C 241.796875 234.21875 241.484375 234.03125 241.171875 234.03125 C 240.953125 234.03125 240.609375 234.15625 240.390625 234.5 C 240.359375 234.59375 240.171875 235.28125 240.109375 235.6875 C 239.953125 236.25 239.796875 236.84375 239.671875 237.40625 L 238.671875 241.34375 C 238.578125 241.65625 237.640625 243.1875 236.203125 243.1875 C 235.109375 243.1875 234.859375 242.25 234.859375 241.4375 C 234.859375 240.4375 235.234375 239.0625 235.984375 237.15625 C 236.328125 236.25 236.421875 236.03125 236.421875 235.59375 C 236.421875 234.59375 235.703125 233.78125 234.609375 233.78125 C 232.546875 233.78125 231.734375 236.96875 231.734375 237.15625 C 231.734375 237.375 231.953125 237.375 232.015625 237.375 C 232.234375 237.375 232.234375 237.34375 232.359375 236.96875 C 232.953125 234.9375 233.828125 234.28125 234.546875 234.28125 C 234.734375 234.28125 235.109375 234.28125 235.109375 234.96875 C 235.109375 235.53125 234.890625 236.09375 234.734375 236.5 C 233.859375 238.8125 233.453125 240.0625 233.453125 241.09375 C 233.453125 243.03125 234.828125 243.6875 236.140625 243.6875 C 236.984375 243.6875 237.703125 243.3125 238.328125 242.6875 C 238.046875 243.84375 237.796875 244.90625 236.921875 246.0625 C 236.359375 246.78125 235.515625 247.4375 234.515625 247.4375 C 234.203125 247.4375 233.234375 247.375 232.859375 246.5 C 233.203125 246.5 233.484375 246.5 233.796875 246.25 C 234.015625 246.0625 234.234375 245.78125 234.234375 245.34375 C 234.234375 244.6875 233.640625 244.59375 233.421875 244.59375 C 232.921875 244.59375 232.203125 244.9375 232.203125 246 C 232.203125 247.09375 233.171875 247.90625 234.515625 247.90625 C 236.765625 247.90625 239.015625 245.9375 239.609375 243.46875 Z M 241.703125 235.125 "/>
<path fill-rule="nonzero" fill="rgb(0%, 0%, 0%)" fill-opacity="1" d="M 262.464844 235.0625 C 262.339844 233.5625 261.308594 232.90625 260.089844 232.90625 C 258.746094 232.90625 257.277344 233.6875 256.652344 234.84375 L 256.558594 234.4375 C 256.339844 233.5 255.652344 232.90625 254.746094 232.90625 C 253.121094 232.90625 252.621094 235.15625 252.371094 236.15625 C 252.339844 236.28125 252.277344 236.40625 252.277344 236.53125 C 252.277344 236.6875 252.433594 236.78125 252.621094 236.78125 C 253.496094 236.78125 253.214844 233.375 254.683594 233.375 C 254.777344 233.375 254.902344 233.40625 254.996094 233.46875 L 255.152344 233.625 C 255.277344 233.8125 255.308594 234.0625 255.308594 234.3125 C 255.308594 234.8125 255.183594 235.3125 255.058594 235.8125 C 254.621094 237.65625 254.152344 239.46875 253.714844 241.3125 L 253.402344 242.46875 C 253.371094 242.65625 253.277344 242.875 253.277344 243.09375 C 253.277344 243.4375 253.589844 243.65625 253.933594 243.65625 L 253.964844 243.65625 C 254.621094 243.59375 254.714844 243 254.871094 242.46875 L 256.152344 237.25 C 256.589844 235.5 258.089844 233.375 259.933594 233.375 C 260.871094 233.375 261.089844 234.1875 261.089844 234.90625 C 261.089844 235.875 260.777344 236.8125 260.527344 237.78125 L 259.402344 242.4375 C 259.308594 242.65625 259.246094 242.875 259.246094 243.09375 C 259.246094 243.4375 259.558594 243.65625 259.902344 243.65625 L 259.996094 243.65625 C 260.683594 243.5625 260.746094 242.84375 260.902344 242.25 L 262.152344 237.125 C 262.558594 235.4375 264.089844 233.40625 265.933594 233.375 L 266.058594 233.375 C 266.902344 233.59375 267.027344 234.25 267.027344 235 L 267.027344 235.1875 C 267.027344 235.75 266.839844 236.375 266.746094 236.875 C 266.496094 237.78125 266.214844 238.6875 265.902344 239.53125 C 265.652344 240.28125 265.277344 241.0625 265.277344 241.875 L 265.277344 242 C 265.371094 242.96875 266.027344 243.65625 266.996094 243.65625 C 268.621094 243.65625 269.777344 241.5 269.996094 240.09375 L 269.996094 240.03125 C 269.996094 239.84375 269.839844 239.8125 269.683594 239.8125 C 268.964844 239.8125 268.933594 243.1875 267.121094 243.1875 C 266.683594 243.1875 266.527344 242.875 266.527344 242.5625 L 266.527344 242.46875 C 266.527344 241.96875 266.652344 241.5 266.839844 241.0625 C 267.308594 239.6875 267.808594 238.34375 268.152344 236.9375 C 268.308594 236.40625 268.433594 235.84375 268.433594 235.3125 C 268.433594 233.8125 267.433594 232.90625 265.964844 232.90625 C 264.808594 232.90625 263.777344 233.46875 263.027344 234.3125 C 262.839844 234.53125 262.589844 234.78125 262.464844 235.0625 Z M 262.464844 235.0625 "/>
<path fill-rule="nonzero" fill="rgb(0%, 0%, 0%)" fill-opacity="1" d="M 274.234375 232.90625 C 272.671875 233.125 271.953125 234.96875 271.609375 236.15625 C 271.546875 236.28125 271.484375 236.40625 271.484375 236.53125 C 271.484375 236.6875 271.671875 236.78125 271.828125 236.78125 C 272.515625 236.78125 272.515625 233.375 274.453125 233.375 C 274.796875 233.375 274.953125 233.6875 274.953125 234.0625 C 274.953125 234.6875 274.734375 235.28125 274.515625 235.84375 C 273.984375 237.3125 273.421875 238.8125 272.921875 240.28125 C 272.734375 240.75 272.515625 241.25 272.515625 241.75 C 272.515625 242.84375 273.140625 243.65625 274.453125 243.65625 C 276.078125 243.65625 277.234375 240.90625 277.234375 240 C 277.234375 239.84375 277.109375 239.78125 276.921875 239.78125 C 276.484375 239.78125 276.421875 240.5 276.328125 240.84375 C 276.046875 241.75 275.421875 243.1875 274.328125 243.1875 C 273.953125 243.1875 273.765625 242.84375 273.765625 242.5 C 273.765625 241.9375 273.984375 241.3125 274.203125 240.75 C 274.640625 239.59375 275.046875 238.40625 275.484375 237.21875 C 275.765625 236.46875 276.203125 235.625 276.203125 234.78125 C 276.203125 233.84375 275.703125 232.90625 274.421875 232.90625 Z M 276.265625 227.8125 C 275.765625 227.90625 275.328125 228.375 275.328125 228.875 C 275.328125 229.28125 275.671875 229.5625 276.078125 229.5625 C 276.671875 229.5625 277.140625 229.03125 277.140625 228.53125 C 277.140625 228.125 276.796875 227.8125 276.390625 227.8125 C 276.359375 227.8125 276.296875 227.8125 276.265625 227.8125 Z M 276.265625 227.8125 "/>
<path fill-rule="nonzero" fill="rgb(0%, 0%, 0%)" fill-opacity="1" d="M 283.058594 234.84375 L 282.964844 234.4375 C 282.746094 233.5 282.058594 232.90625 281.152344 232.90625 C 279.527344 232.90625 279.027344 235.15625 278.777344 236.15625 C 278.746094 236.28125 278.683594 236.40625 278.683594 236.53125 C 278.683594 236.6875 278.808594 236.75 278.964844 236.75 C 279.464844 236.75 279.464844 236.28125 279.527344 235.90625 C 279.808594 234.9375 280.214844 233.375 281.121094 233.375 C 281.589844 233.375 281.714844 233.9375 281.714844 234.34375 C 281.714844 234.9375 281.558594 235.5625 281.402344 236.15625 L 279.746094 242.71875 C 279.714844 242.84375 279.714844 242.96875 279.714844 243.09375 C 279.714844 243.40625 279.933594 243.65625 280.277344 243.65625 C 280.964844 243.65625 281.121094 243.09375 281.246094 242.53125 L 282.558594 237.28125 C 282.964844 235.65625 284.371094 233.375 286.339844 233.375 L 286.433594 233.375 C 287.277344 233.375 287.464844 234.25 287.464844 234.90625 C 287.464844 236.5625 286.746094 238.40625 286.183594 240 C 285.964844 240.59375 285.714844 241.21875 285.714844 241.84375 C 285.714844 242.71875 286.339844 243.65625 287.433594 243.65625 C 289.152344 243.65625 289.996094 241.59375 290.339844 240.40625 C 290.371094 240.3125 290.402344 240.1875 290.402344 240.0625 L 290.402344 240 C 290.402344 239.84375 290.277344 239.8125 290.089844 239.8125 C 289.433594 239.8125 289.464844 242.15625 288.152344 242.96875 C 287.964844 243.09375 287.714844 243.1875 287.464844 243.1875 C 287.027344 243.1875 286.933594 242.78125 286.933594 242.46875 C 286.933594 242.25 286.996094 242 287.027344 241.8125 L 287.121094 241.53125 C 287.683594 239.625 288.871094 237.375 288.871094 235.28125 C 288.871094 233.75 287.808594 232.90625 286.433594 232.90625 C 285.121094 232.90625 283.683594 233.71875 283.058594 234.84375 Z M 283.058594 234.84375 "/>
<path fill-rule="nonzero" fill="rgb(0%, 0%, 0%)" fill-opacity="1" d="M 292.972656 241.125 C 292.472656 241.21875 292.003906 241.65625 292.003906 242.25 C 292.003906 242.875 292.503906 243.40625 293.128906 243.40625 C 293.753906 243.40625 294.316406 242.9375 294.316406 242.28125 C 294.316406 241.65625 293.785156 241.09375 293.160156 241.09375 C 293.097656 241.09375 293.035156 241.125 292.972656 241.125 Z M 292.972656 241.125 "/>
<path fill-rule="nonzero" fill="rgb(0%, 0%, 0%)" fill-opacity="1" d="M 200.234375 287.914062 L 200.757812 287.726562 L 201.257812 287.523438 L 201.734375 287.320312 L 202.203125 287.109375 L 202.648438 286.890625 L 203.078125 286.664062 L 203.484375 286.429688 L 203.882812 286.1875 L 204.257812 285.945312 L 204.617188 285.695312 L 204.960938 285.429688 L 205.289062 285.164062 L 205.601562 284.898438 L 205.898438 284.617188 L 206.179688 284.335938 L 206.453125 284.046875 L 206.710938 283.757812 L 207.179688 283.148438 L 207.390625 282.835938 L 207.59375 282.523438 L 207.78125 282.195312 L 207.960938 281.867188 L 208.125 281.539062 L 208.289062 281.195312 L 208.429688 280.851562 L 208.5625 280.507812 L 208.6875 280.15625 L 208.796875 279.796875 L 209 279.0625 L 209.078125 278.695312 L 209.164062 278.3125 L 209.226562 277.9375 L 209.289062 277.546875 L 209.34375 277.164062 L 209.390625 276.765625 L 209.429688 276.367188 L 209.460938 275.96875 L 209.492188 275.5625 L 209.507812 275.15625 L 209.523438 274.742188 L 209.539062 273.898438 L 209.539062 273.046875 L 209.53125 272.617188 L 209.515625 272.1875 L 209.507812 271.742188 L 209.484375 271.304688 L 209.46875 270.859375 L 209.421875 269.96875 L 209.398438 269.515625 L 209.367188 269.0625 L 209.34375 268.601562 L 209.3125 268.140625 L 209.289062 267.679688 L 209.257812 267.21875 L 209.1875 265.8125 L 209.15625 265.335938 L 209.140625 264.859375 L 209.117188 264.382812 L 209.101562 263.90625 L 209.09375 263.421875 L 209.078125 262.9375 L 209.070312 262.460938 L 209.070312 261.484375 L 209.078125 261 L 209.085938 260.507812 L 209.101562 260.023438 L 209.125 259.53125 L 209.1875 258.546875 L 209.226562 258.054688 L 209.273438 257.554688 L 209.328125 257.0625 L 209.390625 256.5625 L 209.460938 256.070312 L 209.546875 255.570312 L 209.632812 255.078125 L 209.726562 254.578125 L 209.835938 254.078125 L 209.953125 253.585938 L 210.078125 253.085938 L 210.210938 252.585938 L 210.359375 252.09375 L 210.515625 251.59375 L 210.6875 251.101562 L 210.867188 250.601562 L 211.054688 250.109375 L 211.265625 249.609375 L 211.484375 249.117188 L 211.710938 248.625 L 211.953125 248.132812 L 212.484375 247.148438 L 212.773438 246.664062 L 213.078125 246.171875 L 213.390625 245.6875 L 213.726562 245.203125 L 214.070312 244.710938 L 214.4375 244.234375 L 214.8125 243.75 L 215.210938 243.273438 L 215.625 242.796875 L 216.054688 242.320312 L 216.507812 241.84375 L 216.976562 241.375 L 217.460938 240.90625 L 217.96875 240.4375 L 218.492188 239.96875 L 219.03125 239.507812 L 219.59375 239.046875 L 220.179688 238.585938 L 220.78125 238.132812 L 221.40625 237.679688 L 220.78125 237.226562 L 220.179688 236.773438 L 219.59375 236.3125 L 219.03125 235.851562 L 218.492188 235.390625 L 217.96875 234.921875 L 217.460938 234.453125 L 216.976562 233.984375 L 216.507812 233.515625 L 216.054688 233.039062 L 215.625 232.5625 L 215.210938 232.085938 L 214.8125 231.609375 L 214.4375 231.125 L 214.070312 230.640625 L 213.726562 230.15625 L 213.390625 229.671875 L 213.078125 229.1875 L 212.773438 228.695312 L 212.484375 228.210938 L 211.953125 227.226562 L 211.710938 226.734375 L 211.484375 226.242188 L 211.265625 225.742188 L 211.054688 225.25 L 210.867188 224.757812 L 210.6875 224.257812 L 210.515625 223.765625 L 210.359375 223.265625 L 210.210938 222.773438 L 210.078125 222.273438 L 209.953125 221.773438 L 209.835938 221.28125 L 209.726562 220.78125 L 209.632812 220.28125 L 209.546875 219.789062 L 209.460938 219.289062 L 209.390625 218.796875 L 209.328125 218.296875 L 209.273438 217.804688 L 209.226562 217.3125 L 209.1875 216.8125 L 209.125 215.828125 L 209.101562 215.335938 L 209.085938 214.851562 L 209.078125 214.359375 L 209.070312 213.875 L 209.070312 212.898438 L 209.078125 212.414062 L 209.09375 211.9375 L 209.101562 211.453125 L 209.117188 210.976562 L 209.140625 210.5 L 209.15625 210.023438 L 209.1875 209.546875 L 209.257812 208.140625 L 209.289062 207.679688 L 209.3125 207.21875 L 209.34375 206.757812 L 209.367188 206.296875 L 209.398438 205.84375 L 209.421875 205.390625 L 209.445312 204.945312 L 209.46875 204.492188 L 209.484375 204.054688 L 209.507812 203.609375 L 209.515625 203.171875 L 209.53125 202.742188 L 209.539062 202.3125 L 209.539062 201.460938 L 209.523438 200.617188 L 209.507812 200.203125 L 209.492188 199.796875 L 209.460938 199.390625 L 209.429688 198.992188 L 209.390625 198.59375 L 209.34375 198.195312 L 209.289062 197.8125 L 209.226562 197.421875 L 209.164062 197.039062 L 209.078125 196.664062 L 209 196.296875 L 208.796875 195.5625 L 208.6875 195.203125 L 208.5625 194.851562 L 208.429688 194.507812 L 208.289062 194.164062 L 208.125 193.820312 L 207.960938 193.492188 L 207.78125 193.164062 L 207.59375 192.835938 L 207.390625 192.523438 L 207.179688 192.210938 L 206.710938 191.601562 L 206.453125 191.3125 L 206.179688 191.023438 L 205.898438 190.734375 L 205.601562 190.460938 L 205.289062 190.1875 L 204.960938 189.929688 L 204.617188 189.664062 L 204.257812 189.414062 L 203.882812 189.171875 L 203.484375 188.929688 L 203.078125 188.695312 L 202.648438 188.46875 L 202.203125 188.25 L 201.734375 188.039062 L 201.257812 187.835938 L 200.757812 187.632812 L 200.234375 187.445312 L 200.960938 187.726562 L 201.664062 188.015625 L 202.34375 188.304688 L 202.992188 188.601562 L 203.617188 188.90625 L 204.21875 189.203125 L 204.796875 189.515625 L 205.351562 189.820312 L 205.882812 190.140625 L 206.390625 190.453125 L 206.882812 190.78125 L 207.34375 191.101562 L 207.789062 191.429688 L 208.210938 191.765625 L 208.609375 192.101562 L 208.992188 192.4375 L 209.351562 192.78125 L 209.695312 193.132812 L 210.023438 193.476562 L 210.328125 193.828125 L 210.609375 194.1875 L 210.882812 194.539062 L 211.132812 194.90625 L 211.367188 195.273438 L 211.59375 195.632812 L 211.796875 196.007812 L 212.15625 196.757812 L 212.3125 197.132812 L 212.453125 197.515625 L 212.585938 197.898438 L 212.703125 198.289062 L 212.804688 198.671875 L 212.898438 199.0625 L 212.976562 199.460938 L 213.046875 199.859375 L 213.101562 200.257812 L 213.148438 200.65625 L 213.210938 201.46875 L 213.21875 201.882812 L 213.226562 202.289062 L 213.226562 202.703125 L 213.210938 203.117188 L 213.195312 203.539062 L 213.171875 203.953125 L 213.132812 204.375 L 213.09375 204.804688 L 213.046875 205.226562 L 212.992188 205.65625 L 212.9375 206.078125 L 212.875 206.515625 L 212.8125 206.945312 L 212.742188 207.382812 L 212.664062 207.8125 L 212.585938 208.25 L 212.507812 208.695312 L 212.421875 209.132812 L 212.164062 210.46875 L 212.070312 210.914062 L 211.984375 211.359375 L 211.898438 211.8125 L 211.8125 212.257812 L 211.71875 212.710938 L 211.632812 213.164062 L 211.554688 213.617188 L 211.46875 214.070312 L 211.390625 214.53125 L 211.3125 214.984375 L 211.242188 215.445312 L 211.171875 215.898438 L 211.046875 216.820312 L 210.992188 217.28125 L 210.945312 217.742188 L 210.90625 218.203125 L 210.867188 218.671875 L 210.835938 219.132812 L 210.8125 219.601562 L 210.796875 220.0625 L 210.796875 220.992188 L 210.804688 221.460938 L 210.828125 221.929688 L 210.859375 222.398438 L 210.898438 222.859375 L 210.953125 223.328125 L 211.015625 223.796875 L 211.085938 224.265625 L 211.171875 224.726562 L 211.273438 225.195312 L 211.382812 225.664062 L 211.507812 226.132812 L 211.640625 226.601562 L 211.796875 227.070312 L 211.960938 227.539062 L 212.148438 228 L 212.34375 228.46875 L 212.554688 228.9375 L 212.78125 229.40625 L 213.023438 229.867188 L 213.289062 230.328125 L 213.570312 230.796875 L 213.867188 231.257812 L 214.179688 231.726562 L 214.515625 232.1875 L 214.867188 232.648438 L 215.242188 233.109375 L 215.632812 233.570312 L 216.046875 234.03125 L 216.484375 234.492188 L 216.9375 234.953125 L 217.414062 235.40625 L 217.90625 235.867188 L 218.4375 236.320312 L 218.976562 236.773438 L 219.546875 237.226562 L 220.140625 237.679688 L 219.546875 238.132812 L 218.976562 238.585938 L 218.4375 239.039062 L 217.90625 239.492188 L 217.414062 239.953125 L 216.9375 240.40625 L 216.484375 240.867188 L 216.046875 241.328125 L 215.632812 241.789062 L 215.242188 242.25 L 214.867188 242.710938 L 214.515625 243.171875 L 214.179688 243.632812 L 213.867188 244.09375 L 213.570312 244.5625 L 213.289062 245.03125 L 213.023438 245.492188 L 212.78125 245.953125 L 212.554688 246.421875 L 212.34375 246.890625 L 212.148438 247.359375 L 211.960938 247.820312 L 211.796875 248.289062 L 211.640625 248.757812 L 211.507812 249.226562 L 211.382812 249.695312 L 211.273438 250.164062 L 211.171875 250.625 L 211.085938 251.09375 L 211.015625 251.5625 L 210.953125 252.03125 L 210.898438 252.5 L 210.859375 252.960938 L 210.828125 253.429688 L 210.804688 253.898438 L 210.796875 254.359375 L 210.796875 255.296875 L 210.8125 255.757812 L 210.835938 256.226562 L 210.867188 256.6875 L 210.945312 257.609375 L 210.992188 258.070312 L 211.046875 258.539062 L 211.109375 259 L 211.171875 259.453125 L 211.3125 260.375 L 211.390625 260.828125 L 211.46875 261.289062 L 211.554688 261.742188 L 211.632812 262.195312 L 211.71875 262.648438 L 211.8125 263.101562 L 211.898438 263.546875 L 211.984375 264 L 212.070312 264.445312 L 212.164062 264.890625 L 212.421875 266.226562 L 212.507812 266.664062 L 212.585938 267.101562 L 212.664062 267.546875 L 212.742188 267.976562 L 212.8125 268.414062 L 212.9375 269.273438 L 213.046875 270.132812 L 213.09375 270.554688 L 213.132812 270.984375 L 213.171875 271.40625 L 213.195312 271.820312 L 213.210938 272.242188 L 213.226562 272.65625 L 213.226562 273.070312 L 213.21875 273.476562 L 213.210938 273.890625 L 213.179688 274.296875 L 213.148438 274.695312 L 213.101562 275.101562 L 213.046875 275.5 L 212.976562 275.898438 L 212.898438 276.289062 L 212.804688 276.6875 L 212.703125 277.070312 L 212.585938 277.460938 L 212.453125 277.84375 L 212.3125 278.226562 L 212.15625 278.601562 L 211.796875 279.351562 L 211.59375 279.71875 L 211.367188 280.085938 L 211.132812 280.453125 L 210.882812 280.8125 L 210.609375 281.171875 L 210.328125 281.53125 L 210.023438 281.882812 L 209.695312 282.226562 L 209.351562 282.570312 L 208.992188 282.914062 L 208.609375 283.257812 L 208.210938 283.59375 L 207.789062 283.929688 L 207.34375 284.25 L 206.882812 284.578125 L 206.390625 284.898438 L 205.882812 285.21875 L 205.351562 285.53125 L 204.796875 285.84375 L 204.21875 286.148438 L 203.617188 286.453125 L 202.992188 286.757812 L 202.34375 287.054688 L 201.664062 287.34375 L 200.960938 287.632812 L 200.234375 287.914062 "/>
<path fill="none" stroke-width="3.985" stroke-linecap="butt" stroke-linejoin="miter" stroke="rgb(0%, 0%, 0%)" stroke-opacity="1" stroke-miterlimit="10" d="M 1001.17186 340.429682 L 1003.789048 341.367182 L 1006.289048 342.382807 L 1008.67186 343.398432 L 1011.01561 344.45312 L 1013.242172 345.54687 L 1015.39061 346.679682 L 1017.42186 347.851557 L 1019.414047 349.062495 L 1021.289047 350.273432 L 1023.085922 351.523432 L 1024.804672 352.851557 L 1026.445297 354.179682 L 1028.007797 355.507807 L 1029.492172 356.914057 L 1030.898422 358.320307 L 1032.26561 359.76562 L 1033.554672 361.210932 L 1035.898422 364.257807 L 1036.95311 365.820307 L 1037.968735 367.382807 L 1038.906235 369.023432 L 1039.804672 370.664057 L 1040.624984 372.304682 L 1041.445297 374.023432 L 1042.148422 375.742182 L 1042.812484 377.460932 L 1043.437484 379.218744 L 1043.984359 381.015619 L 1044.999984 384.687494 L 1045.390609 386.523432 L 1045.820297 388.437494 L 1046.132797 390.312494 L 1046.445297 392.265619 L 1046.718734 394.179682 L 1046.953109 396.171869 L 1047.148422 398.164057 L 1047.304672 400.156244 L 1047.460922 402.187494 L 1047.539047 404.218744 L 1047.617172 406.289056 L 1047.695297 410.507806 L 1047.695297 414.765619 L 1047.656234 416.914056 L 1047.578109 419.062494 L 1047.539047 421.289056 L 1047.421859 423.476556 L 1047.343734 425.703119 L 1047.109359 430.156244 L 1046.992172 432.421869 L 1046.835922 434.687494 L 1046.718734 436.992181 L 1046.562484 439.296868 L 1046.445297 441.601556 L 1046.289047 443.906243 L 1045.937484 450.937493 L 1045.781234 453.320306 L 1045.703109 455.703118 L 1045.585922 458.085931 L 1045.507797 460.468743 L 1045.468734 462.890618 L 1045.390609 465.312493 L 1045.351547 467.695306 L 1045.351547 472.578118 L 1045.390609 474.999993 L 1045.429672 477.46093 L 1045.507797 479.882805 L 1045.624984 482.343743 L 1045.937484 487.265618 L 1046.132797 489.726555 L 1046.367172 492.226555 L 1046.640609 494.687493 L 1046.953109 497.187493 L 1047.304672 499.64843 L 1047.734359 502.14843 L 1048.164047 504.609367 L 1048.632797 507.109367 L 1049.179672 509.609367 L 1049.765609 512.070305 L 1050.390609 514.570305 L 1051.054672 517.070305 L 1051.796859 519.531242 L 1052.578109 522.031242 L 1053.437484 524.49218 L 1054.335922 526.99218 L 1055.273422 529.453117 L 1056.328109 531.953117 L 1057.421859 534.414055 L 1058.554672 536.874992 L 1059.765609 539.335929 L 1062.421859 544.257804 L 1063.867172 546.679679 L 1065.390609 549.140617 L 1066.953109 551.562492 L 1068.632797 553.984367 L 1070.351547 556.445304 L 1072.187484 558.828117 L 1074.062484 561.249992 L 1076.054671 563.632804 L 1078.124984 566.015617 L 1080.273421 568.398429 L 1082.539046 570.781241 L 1084.882796 573.124991 L 1087.304671 575.468741 L 1089.843734 577.812491 L 1092.460921 580.156241 L 1095.156234 582.460929 L 1097.968734 584.765616 L 1100.898421 587.070304 L 1103.906234 589.335929 L 1107.031234 591.601554 L 1103.906234 593.867179 L 1100.898421 596.132804 L 1097.968734 598.437491 L 1095.156234 600.742179 L 1092.460921 603.046866 L 1089.843734 605.390616 L 1087.304671 607.734366 L 1084.882796 610.078116 L 1082.539046 612.421866 L 1080.273421 614.804678 L 1078.124984 617.187491 L 1076.054671 619.570303 L 1074.062484 621.953116 L 1072.187484 624.374991 L 1070.351547 626.796866 L 1068.632797 629.218741 L 1066.953109 631.640616 L 1065.390609 634.062491 L 1063.867172 636.523428 L 1062.421859 638.945303 L 1059.765609 643.867178 L 1058.554672 646.328115 L 1057.421859 648.789053 L 1056.328109 651.289053 L 1055.273422 653.74999 L 1054.335922 656.210928 L 1053.437484 658.710928 L 1052.578109 661.171865 L 1051.796859 663.671865 L 1051.054672 666.132803 L 1050.390609 668.632803 L 1049.765609 671.132802 L 1049.179672 673.59374 L 1048.632797 676.09374 L 1048.164047 678.59374 L 1047.734359 681.054677 L 1047.304672 683.554677 L 1046.953109 686.015615 L 1046.640609 688.515615 L 1046.367172 690.976552 L 1046.132797 693.43749 L 1045.937484 695.93749 L 1045.624984 700.859365 L 1045.507797 703.320302 L 1045.429672 705.742177 L 1045.390609 708.203114 L 1045.351547 710.624989 L 1045.351547 715.507802 L 1045.390609 717.929677 L 1045.468734 720.312489 L 1045.507797 722.734364 L 1045.585922 725.117177 L 1045.703109 727.499989 L 1045.781234 729.882802 L 1045.937484 732.265614 L 1046.289047 739.296864 L 1046.445297 741.601551 L 1046.562484 743.906239 L 1046.718734 746.210926 L 1046.835922 748.515614 L 1046.992172 750.781239 L 1047.109359 753.046864 L 1047.226547 755.273426 L 1047.343734 757.539051 L 1047.421859 759.726551 L 1047.539047 761.953114 L 1047.578109 764.140614 L 1047.656234 766.289051 L 1047.695297 768.437489 L 1047.695297 772.695301 L 1047.617172 776.914051 L 1047.539047 778.984363 L 1047.460922 781.015613 L 1047.304672 783.046863 L 1047.148422 785.039051 L 1046.953109 787.031238 L 1046.718734 789.023426 L 1046.445297 790.937488 L 1046.132797 792.890613 L 1045.820297 794.804676 L 1045.390609 796.679676 L 1044.999984 798.515613 L 1043.984359 802.187488 L 1043.437484 803.984363 L 1042.812484 805.742175 L 1042.148422 807.460925 L 1041.445297 809.179675 L 1040.624984 810.898425 L 1039.804672 812.53905 L 1038.906235 814.179675 L 1037.968735 815.8203 L 1036.95311 817.3828 L 1035.898422 818.9453 L 1033.554672 821.992175 L 1032.26561 823.437488 L 1030.898422 824.8828 L 1029.492172 826.328113 L 1028.007797 827.6953 L 1026.445297 829.062488 L 1024.804672 830.35155 L 1023.085922 831.679675 L 1021.289047 832.929675 L 1019.414047 834.140613 L 1017.42186 835.35155 L 1015.39061 836.523425 L 1013.242172 837.656238 L 1011.01561 838.749988 L 1008.67186 839.804675 L 1006.289048 840.8203 L 1003.789048 841.835925 L 1001.17186 842.773425 L 1004.804673 841.367175 L 1008.320297 839.921862 L 1011.718735 838.47655 L 1014.960922 836.992175 L 1018.085922 835.468738 L 1021.093735 833.984363 L 1023.98436 832.421863 L 1026.757797 830.898425 L 1029.414047 829.296863 L 1031.95311 827.734363 L 1034.414047 826.093738 L 1036.718735 824.492175 L 1038.945297 822.85155 L 1041.054672 821.171863 L 1043.046859 819.492175 L 1044.960922 817.812488 L 1046.757797 816.093738 L 1048.476547 814.335925 L 1050.117172 812.617175 L 1051.640609 810.859363 L 1053.046859 809.062488 L 1054.414047 807.304675 L 1055.664047 805.468738 L 1056.835922 803.632801 L 1057.968734 801.835926 L 1058.984359 799.960926 L 1060.781234 796.210926 L 1061.562484 794.335926 L 1062.265609 792.421863 L 1062.929672 790.507801 L 1063.515609 788.554676 L 1064.023422 786.640613 L 1064.492172 784.687488 L 1064.882797 782.695301 L 1065.234359 780.703113 L 1065.507797 778.710926 L 1065.742172 776.718738 L 1066.054672 772.656238 L 1066.093734 770.585926 L 1066.132797 768.554676 L 1066.132797 766.484364 L 1066.054672 764.414051 L 1065.976547 762.304676 L 1065.859359 760.234364 L 1065.664047 758.124989 L 1065.468734 755.976551 L 1065.234359 753.867176 L 1064.960922 751.718739 L 1064.687484 749.609364 L 1064.374984 747.421864 L 1064.062484 745.273426 L 1063.710922 743.085926 L 1063.320297 740.937489 L 1062.929672 738.749989 L 1062.539047 736.523427 L 1062.109359 734.335927 L 1060.820297 727.656239 L 1060.351547 725.429677 L 1059.921859 723.203114 L 1059.492172 720.937489 L 1059.062484 718.710927 L 1058.593734 716.445302 L 1058.164047 714.179677 L 1057.773422 711.914052 L 1057.343734 709.648427 L 1056.953109 707.343739 L 1056.562484 705.078114 L 1056.210922 702.773427 L 1055.859359 700.507802 L 1055.234359 695.898427 L 1054.960922 693.59374 L 1054.726547 691.289052 L 1054.531234 688.984365 L 1054.335922 686.640615 L 1054.179672 684.335927 L 1054.062484 681.992177 L 1053.984359 679.68749 L 1053.984359 675.039052 L 1054.023422 672.695302 L 1054.140609 670.351553 L 1054.296859 668.007803 L 1054.492172 665.703115 L 1054.765609 663.359365 L 1055.078109 661.015615 L 1055.429672 658.671865 L 1055.859359 656.367178 L 1056.367172 654.023428 L 1056.914047 651.679678 L 1057.539047 649.335928 L 1058.203109 646.992178 L 1058.984359 644.648428 L 1059.804672 642.304678 L 1060.742172 639.99999 L 1061.718734 637.65624 L 1062.773422 635.312491 L 1063.906234 632.968741 L 1065.117172 630.664053 L 1066.445297 628.359366 L 1067.851547 626.015616 L 1069.335922 623.710928 L 1070.898422 621.367178 L 1072.578109 619.062491 L 1074.335921 616.757803 L 1076.210921 614.453116 L 1078.164046 612.148428 L 1080.234359 609.843741 L 1082.421859 607.539053 L 1084.687484 605.234366 L 1087.070296 602.968741 L 1089.531234 600.664054 L 1092.187484 598.398429 L 1094.882796 596.132804 L 1097.734359 593.867179 L 1100.703109 591.601554 L 1097.734359 589.335929 L 1094.882796 587.070304 L 1092.187484 584.804679 L 1089.531234 582.539054 L 1087.070296 580.234366 L 1084.687484 577.968741 L 1082.421859 575.664054 L 1080.234359 573.359366 L 1078.164046 571.054679 L 1076.210921 568.749992 L 1074.335921 566.445304 L 1072.578109 564.140617 L 1070.898422 561.835929 L 1069.335922 559.531242 L 1067.851547 557.187492 L 1066.445297 554.843742 L 1065.117172 552.539054 L 1063.906234 550.234367 L 1062.773422 547.890617 L 1061.718734 545.546867 L 1060.742172 543.203117 L 1059.804672 540.898429 L 1058.984359 538.554679 L 1058.203109 536.21093 L 1057.539047 533.86718 L 1056.914047 531.52343 L 1056.367172 529.17968 L 1055.859359 526.874992 L 1055.429672 524.531242 L 1055.078109 522.187492 L 1054.765609 519.843742 L 1054.492172 517.499992 L 1054.296859 515.195305 L 1054.140609 512.851555 L 1054.023422 510.507805 L 1053.984359 508.203117 L 1053.984359 503.515617 L 1054.062484 501.21093 L 1054.179672 498.86718 L 1054.335922 496.562493 L 1054.726547 491.953118 L 1054.960922 489.64843 L 1055.234359 487.30468 L 1055.546859 484.999993 L 1055.859359 482.734368 L 1056.562484 478.124993 L 1056.953109 475.859368 L 1057.343734 473.55468 L 1057.773422 471.289055 L 1058.164047 469.023431 L 1058.593734 466.757806 L 1059.062484 464.492181 L 1059.492172 462.265618 L 1059.921859 459.999993 L 1060.351547 457.773431 L 1060.820297 455.546868 L 1062.109359 448.867181 L 1062.539047 446.679681 L 1062.929672 444.492181 L 1063.320297 442.265618 L 1063.710922 440.117181 L 1064.062484 437.929681 L 1064.687484 433.632806 L 1065.234359 429.335931 L 1065.468734 427.226556 L 1065.664047 425.078119 L 1065.859359 422.968744 L 1065.976547 420.898431 L 1066.054672 418.789056 L 1066.132797 416.718744 L 1066.132797 414.648431 L 1066.093734 412.617181 L 1066.054672 410.546869 L 1065.898422 408.515619 L 1065.742172 406.523431 L 1065.507797 404.492181 L 1065.234359 402.499994 L 1064.882797 400.507807 L 1064.492172 398.554682 L 1064.023422 396.562494 L 1063.515609 394.648432 L 1062.929672 392.695307 L 1062.265609 390.781244 L 1061.562484 388.867182 L 1060.781234 386.992182 L 1058.984359 383.242182 L 1057.968734 381.406244 L 1056.835922 379.570307 L 1055.664047 377.734369 L 1054.414047 375.937494 L 1053.046859 374.140619 L 1051.640609 372.343744 L 1050.117172 370.585932 L 1048.476547 368.867182 L 1046.757797 367.148432 L 1044.960922 365.429682 L 1043.046859 363.710932 L 1041.054672 362.031245 L 1038.945297 360.351557 L 1036.718735 358.749995 L 1034.414047 357.10937 L 1031.95311 355.507807 L 1029.414047 353.906245 L 1026.757797 352.343745 L 1023.98436 350.781245 L 1021.093735 349.257807 L 1018.085922 347.73437 L 1014.960922 346.210932 L 1011.718735 344.726557 L 1008.320297 343.281245 L 1004.804673 341.835932 Z M 1001.17186 340.429682 " transform="matrix(0.2, 0, 0, -0.2, 0, 356)"/>
<path fill="none" stroke-width="7.9701" stroke-linecap="butt" stroke-linejoin="miter" stroke="rgb(0%, 0%, 0%)" stroke-opacity="1" stroke-miterlimit="10" d="M 979.999985 861.60155 L 979.999985 834.609363 " transform="matrix(0.2, 0, 0, -0.2, 0, 356)"/>
<path fill="none" stroke-width="7.9701" stroke-linecap="butt" stroke-linejoin="miter" stroke="rgb(0%, 0%, 0%)" stroke-opacity="1" stroke-miterlimit="10" d="M 979.999985 780.585926 L 979.999985 753.593739 " transform="matrix(0.2, 0, 0, -0.2, 0, 356)"/>
<path fill="none" stroke-width="7.9701" stroke-linecap="butt" stroke-linejoin="miter" stroke="rgb(0%, 0%, 0%)" stroke-opacity="1" stroke-miterlimit="10" d="M 979.999985 753.593739 L 979.999985 726.601552 " transform="matrix(0.2, 0, 0, -0.2, 0, 356)"/>
<path fill="none" stroke-width="7.9701" stroke-linecap="butt" stroke-linejoin="miter" stroke="rgb(0%, 0%, 0%)" stroke-opacity="1" stroke-miterlimit="10" d="M 979.999985 672.617177 L 979.999985 645.585928 " transform="matrix(0.2, 0, 0, -0.2, 0, 356)"/>
<path fill="none" stroke-width="7.9701" stroke-linecap="butt" stroke-linejoin="miter" stroke="rgb(0%, 0%, 0%)" stroke-opacity="1" stroke-miterlimit="10" d="M 979.999985 645.585928 L 979.999985 618.593741 " transform="matrix(0.2, 0, 0, -0.2, 0, 356)"/>
<path fill="none" stroke-width="7.9701" stroke-linecap="butt" stroke-linejoin="miter" stroke="rgb(0%, 0%, 0%)" stroke-opacity="1" stroke-miterlimit="10" d="M 979.999985 564.609367 L 979.999985 537.617179 " transform="matrix(0.2, 0, 0, -0.2, 0, 356)"/>
<path fill="none" stroke-width="7.9701" stroke-linecap="butt" stroke-linejoin="miter" stroke="rgb(0%, 0%, 0%)" stroke-opacity="1" stroke-miterlimit="10" d="M 979.999985 537.617179 L 979.999985 510.58593 " transform="matrix(0.2, 0, 0, -0.2, 0, 356)"/>
<path fill="none" stroke-width="7.9701" stroke-linecap="butt" stroke-linejoin="miter" stroke="rgb(0%, 0%, 0%)" stroke-opacity="1" stroke-miterlimit="10" d="M 979.999985 456.601556 L 979.999985 429.609369 " transform="matrix(0.2, 0, 0, -0.2, 0, 356)"/>
<path fill="none" stroke-width="7.9701" stroke-linecap="butt" stroke-linejoin="miter" stroke="rgb(0%, 0%, 0%)" stroke-opacity="1" stroke-miterlimit="10" d="M 979.999985 429.609369 L 979.999985 402.617182 " transform="matrix(0.2, 0, 0, -0.2, 0, 356)"/>
<path fill="none" stroke-width="7.9701" stroke-linecap="butt" stroke-linejoin="miter" stroke="rgb(0%, 0%, 0%)" stroke-opacity="1" stroke-miterlimit="10" d="M 979.999985 348.593745 L 979.999985 321.601558 " transform="matrix(0.2, 0, 0, -0.2, 0, 356)"/>
<path fill-rule="nonzero" fill="rgb(100%, 100%, 100%)" fill-opacity="1" d="M 4.695312 291.703125 L 33.976562 291.703125 L 33.976562 318.585938 L 4.695312 318.585938 Z M 4.695312 291.703125 "/>
<path fill-rule="nonzero" fill="rgb(0%, 0%, 0%)" fill-opacity="1" d="M 26.875 303.058594 C 26.875 299.527344 24.5625 297.183594 21.3125 297.183594 C 16.59375 297.183594 11.78125 302.121094 11.78125 307.214844 C 11.78125 310.839844 14.21875 313.027344 17.375 313.027344 C 22 313.027344 26.875 308.246094 26.875 303.058594 Z M 17.5 312.464844 C 15.34375 312.464844 13.8125 310.714844 13.8125 307.839844 C 13.8125 306.871094 14.125 303.683594 15.8125 301.121094 C 17.3125 298.871094 19.4375 297.714844 21.15625 297.714844 C 22.96875 297.714844 24.90625 298.933594 24.90625 302.183594 C 24.90625 303.777344 24.34375 307.183594 22.15625 309.839844 C 21.125 311.183594 19.34375 312.464844 17.5 312.464844 Z M 17.5 312.464844 "/>
<path fill-rule="nonzero" fill="rgb(100%, 100%, 100%)" fill-opacity="1" d="M 338.15625 291.703125 L 370.078125 291.703125 L 370.078125 318.585938 L 338.15625 318.585938 Z M 338.15625 291.703125 "/>
<path fill-rule="nonzero" fill="rgb(0%, 0%, 0%)" fill-opacity="1" d="M 354.773438 303.589844 L 352.929688 299.246094 C 352.867188 299.089844 352.804688 298.996094 352.804688 298.964844 C 352.804688 298.839844 353.179688 298.433594 354.117188 298.339844 C 354.335938 298.308594 354.554688 298.308594 354.554688 297.933594 C 354.554688 297.652344 354.273438 297.652344 354.210938 297.652344 C 353.304688 297.652344 352.367188 297.714844 351.460938 297.714844 C 350.929688 297.714844 349.554688 297.652344 349.023438 297.652344 C 348.898438 297.652344 348.617188 297.652344 348.617188 298.089844 C 348.617188 298.339844 348.835938 298.339844 349.117188 298.339844 C 350.429688 298.339844 350.585938 298.558594 350.773438 299.027344 L 353.335938 305.121094 L 348.742188 310.058594 L 348.460938 310.308594 C 347.398438 311.464844 346.367188 311.808594 345.242188 311.871094 C 344.960938 311.902344 344.773438 311.902344 344.773438 312.308594 C 344.773438 312.339844 344.773438 312.558594 345.054688 312.558594 C 345.710938 312.558594 346.429688 312.496094 347.117188 312.496094 C 347.898438 312.496094 348.773438 312.558594 349.554688 312.558594 C 349.679688 312.558594 349.929688 312.558594 349.929688 312.121094 C 349.929688 311.902344 349.710938 311.871094 349.679688 311.871094 C 349.492188 311.871094 348.804688 311.808594 348.804688 311.214844 C 348.804688 310.871094 349.117188 310.496094 349.398438 310.214844 L 351.617188 307.871094 L 353.585938 305.746094 L 355.773438 310.933594 C 355.867188 311.183594 355.898438 311.214844 355.898438 311.246094 C 355.898438 311.433594 355.492188 311.808594 354.617188 311.871094 C 354.398438 311.902344 354.179688 311.933594 354.179688 312.308594 C 354.179688 312.558594 354.429688 312.558594 354.523438 312.558594 C 355.117188 312.558594 356.648438 312.496094 357.273438 312.496094 C 357.804688 312.496094 359.148438 312.558594 359.679688 312.558594 C 359.835938 312.558594 360.117188 312.558594 360.117188 312.152344 C 360.117188 311.871094 359.898438 311.871094 359.710938 311.871094 C 358.242188 311.871094 358.210938 311.808594 357.835938 310.933594 C 356.992188 308.902344 355.523438 305.496094 355.023438 304.183594 C 356.492188 302.652344 358.804688 300.058594 359.492188 299.464844 C 360.117188 298.933594 360.960938 298.402344 362.273438 298.339844 C 362.554688 298.308594 362.742188 298.308594 362.742188 297.902344 C 362.742188 297.871094 362.742188 297.652344 362.460938 297.652344 C 361.804688 297.652344 361.085938 297.714844 360.398438 297.714844 C 359.585938 297.714844 358.773438 297.652344 357.992188 297.652344 C 357.867188 297.652344 357.585938 297.652344 357.585938 298.089844 C 357.585938 298.246094 357.679688 298.308594 357.835938 298.339844 C 358.023438 298.371094 358.710938 298.402344 358.710938 299.027344 C 358.710938 299.308594 358.460938 299.589844 358.304688 299.808594 Z M 354.773438 303.589844 "/>
<path fill-rule="nonzero" fill="rgb(100%, 100%, 100%)" fill-opacity="1" d="M 4.453125 -5.757812 L 33.976562 -5.757812 L 33.976562 21.125 L 4.453125 21.125 Z M 4.453125 -5.757812 "/>
<path fill-rule="nonzero" fill="rgb(0%, 0%, 0%)" fill-opacity="1" d="M 23.511719 2.695312 L 23.792969 2.382812 C 24.449219 1.726562 25.167969 0.976562 26.667969 0.882812 C 26.917969 0.851562 27.105469 0.851562 27.105469 0.476562 C 27.105469 0.289062 26.980469 0.195312 26.824219 0.195312 C 26.261719 0.195312 25.605469 0.257812 25.042969 0.257812 C 24.324219 0.257812 23.542969 0.195312 22.855469 0.195312 C 22.730469 0.195312 22.449219 0.195312 22.449219 0.632812 C 22.449219 0.851562 22.636719 0.882812 22.761719 0.882812 C 22.917969 0.882812 23.542969 0.914062 23.542969 1.382812 C 23.542969 1.757812 23.042969 2.320312 22.949219 2.414062 L 17.886719 8.257812 L 15.511719 1.789062 C 15.355469 1.476562 15.355469 1.414062 15.355469 1.414062 C 15.355469 0.882812 16.449219 0.882812 16.667969 0.882812 C 16.949219 0.882812 17.167969 0.882812 17.167969 0.445312 C 17.167969 0.195312 16.917969 0.195312 16.855469 0.195312 C 16.230469 0.195312 14.699219 0.257812 14.105469 0.257812 C 13.542969 0.257812 12.199219 0.195312 11.667969 0.195312 C 11.542969 0.195312 11.230469 0.195312 11.230469 0.632812 C 11.230469 0.882812 11.449219 0.882812 11.730469 0.882812 C 13.042969 0.882812 13.136719 1.070312 13.324219 1.632812 L 16.011719 8.789062 C 16.042969 8.851562 16.105469 9.101562 16.105469 9.164062 C 16.105469 9.226562 15.230469 12.757812 15.136719 13.132812 C 14.855469 14.351562 14.824219 14.414062 13.074219 14.414062 C 12.667969 14.414062 12.480469 14.414062 12.480469 14.851562 C 12.480469 15.101562 12.761719 15.101562 12.792969 15.101562 C 13.417969 15.101562 14.917969 15.039062 15.542969 15.039062 C 16.136719 15.039062 17.730469 15.101562 18.324219 15.101562 C 18.480469 15.101562 18.761719 15.101562 18.761719 14.664062 C 18.761719 14.414062 18.542969 14.414062 18.136719 14.414062 C 18.105469 14.414062 17.667969 14.414062 17.292969 14.382812 C 16.855469 14.351562 16.730469 14.289062 16.730469 14.039062 C 16.730469 13.882812 16.917969 13.101562 17.011719 12.664062 L 17.792969 9.570312 C 17.886719 9.164062 17.917969 9.101562 18.105469 8.914062 Z M 23.511719 2.695312 "/>
<path fill="none" stroke-width="11.9553" stroke-linecap="butt" stroke-linejoin="miter" stroke="rgb(0%, 0%, 0%)" stroke-opacity="1" stroke-miterlimit="10" d="M 8.007812 321.601558 L 1790.039036 321.601558 " transform="matrix(0.2, 0, 0, -0.2, 0, 356)"/>
<path fill="none" stroke-width="11.9553" stroke-linecap="butt" stroke-linejoin="miter" stroke="rgb(0%, 0%, 0%)" stroke-opacity="1" stroke-miterlimit="10" d="M 169.999997 177.617185 L 169.999997 1761.601536 " transform="matrix(0.2, 0, 0, -0.2, 0, 356)"/>
<path fill-rule="nonzero" fill="rgb(0%, 0%, 0%)" fill-opacity="1" d="M 151.597656 348.300781 C 152.785156 347.894531 154.785156 347.300781 154.785156 345.363281 C 154.785156 343.050781 152.066406 341.988281 150.097656 341.988281 C 149.160156 341.988281 148.191406 342.207031 147.347656 342.707031 C 147.222656 342.769531 147.066406 342.957031 146.910156 342.957031 C 146.597656 342.957031 146.035156 341.988281 145.722656 341.988281 C 145.535156 341.988281 145.503906 342.207031 145.503906 342.300781 L 145.503906 345.863281 C 145.503906 345.988281 145.597656 346.144531 145.785156 346.144531 C 146.097656 346.144531 146.066406 345.519531 146.160156 345.175781 C 146.628906 343.457031 148.191406 342.707031 149.691406 342.613281 L 150.097656 342.613281 C 151.441406 342.613281 153.003906 343.488281 153.003906 345.363281 C 153.003906 347.175781 151.222656 348.113281 149.566406 348.113281 C 149.253906 348.113281 148.941406 348.113281 148.628906 348.113281 L 148.472656 348.113281 C 148.285156 348.113281 148.066406 348.113281 148.066406 348.332031 L 148.066406 348.363281 C 148.097656 348.550781 148.285156 348.582031 148.472656 348.582031 L 150.316406 348.582031 C 151.878906 348.707031 153.316406 349.738281 153.472656 351.363281 L 153.472656 351.582031 C 153.472656 353.425781 151.753906 354.582031 150.003906 354.582031 C 148.097656 354.582031 146.128906 353.957031 145.816406 351.582031 C 145.816406 351.425781 145.753906 351.238281 145.535156 351.238281 C 145.316406 351.269531 145.285156 351.425781 145.285156 351.582031 C 145.285156 354.175781 147.878906 355.207031 150.128906 355.207031 C 152.191406 355.207031 155.066406 354.238281 155.316406 351.769531 L 155.316406 351.644531 C 155.316406 349.675781 153.253906 348.707031 151.597656 348.300781 Z M 151.597656 348.300781 "/>
<path fill-rule="nonzero" fill="rgb(0%, 0%, 0%)" fill-opacity="1" d="M 163.695312 341.988281 C 160.320312 342.394531 157.632812 345.050781 157.632812 348.644531 C 157.632812 351.925781 160.226562 355.175781 164.101562 355.175781 C 167.601562 355.175781 170.570312 352.269531 170.570312 348.644531 C 170.570312 345.457031 168.070312 341.988281 164.132812 341.988281 C 164.007812 341.988281 163.851562 341.988281 163.695312 341.988281 Z M 159.507812 348.863281 L 159.507812 348.519531 C 159.507812 346.019531 160.414062 343.082031 163.570312 342.550781 C 163.757812 342.519531 163.914062 342.519531 164.101562 342.519531 C 166.914062 342.519531 168.664062 345.238281 168.664062 348.269531 C 168.664062 350.675781 167.945312 353.738281 164.976562 354.519531 C 164.695312 354.582031 164.414062 354.613281 164.132812 354.613281 L 163.945312 354.613281 C 161.351562 354.519531 159.945312 352.050781 159.601562 349.644531 Z M 159.507812 348.863281 "/>
<path fill-rule="nonzero" fill="rgb(0%, 0%, 0%)" fill-opacity="1" d="M 173.027344 342.332031 L 173.027344 342.925781 L 173.464844 342.925781 C 174.058594 342.925781 174.683594 343.019531 174.683594 343.894531 L 174.683594 353.363281 C 174.683594 354.207031 173.964844 354.238281 173.308594 354.238281 L 173.027344 354.238281 L 173.027344 354.832031 L 178.808594 354.832031 C 179.214844 354.832031 179.589844 354.863281 179.996094 354.863281 C 181.996094 354.863281 184.339844 353.925781 184.558594 351.519531 L 184.558594 351.332031 C 184.558594 348.800781 181.683594 347.769531 179.777344 347.769531 C 178.527344 347.769531 177.339844 347.894531 176.152344 347.988281 L 176.152344 343.769531 C 176.152344 343.332031 176.214844 342.925781 176.996094 342.925781 L 179.308594 342.925781 C 180.277344 342.925781 181.371094 342.988281 182.089844 343.707031 C 182.777344 344.425781 182.871094 345.644531 182.964844 346.582031 L 183.496094 346.582031 L 183.027344 342.332031 Z M 176.152344 348.613281 C 176.402344 348.613281 176.652344 348.550781 176.902344 348.519531 L 178.277344 348.457031 C 178.558594 348.425781 178.839844 348.394531 179.152344 348.394531 C 180.714844 348.394531 182.683594 349.394531 182.683594 351.238281 C 182.683594 352.988281 181.339844 354.269531 179.339844 354.269531 C 179.058594 354.269531 178.746094 354.238281 178.496094 354.238281 L 176.964844 354.238281 C 176.496094 354.238281 176.246094 354.207031 176.152344 353.582031 Z M 176.152344 348.613281 "/>
<path fill-rule="nonzero" fill="rgb(0%, 0%, 0%)" fill-opacity="1" d="M 186.90625 342.332031 L 186.90625 342.925781 L 187.375 342.925781 C 187.96875 342.925781 188.5625 343.019531 188.5625 343.894531 L 188.5625 353.363281 C 188.5625 354.207031 187.875 354.238281 187.1875 354.238281 L 186.90625 354.238281 L 186.90625 354.832031 L 191.8125 354.832031 L 191.8125 354.238281 L 191.375 354.238281 C 190.75 354.238281 190.15625 354.175781 190.15625 353.300781 L 190.15625 349.113281 L 193.875 349.113281 C 195.65625 348.988281 197.9375 347.800781 197.9375 345.769531 C 197.9375 343.550781 195.59375 342.488281 193.6875 342.332031 Z M 190.125 348.582031 L 190.125 343.582031 C 190.21875 342.988281 190.46875 342.925781 190.875 342.925781 L 192.3125 342.925781 C 193.9375 342.925781 196.0625 342.988281 196.0625 345.769531 C 196.0625 346.425781 195.96875 347.113281 195.5625 347.613281 C 194.90625 348.394531 193.8125 348.582031 192.84375 348.582031 Z M 190.125 348.582031 "/>
<path fill-rule="nonzero" fill="rgb(0%, 0%, 0%)" fill-opacity="1" d="M 202.632812 352.550781 C 202.132812 352.644531 201.632812 353.082031 201.632812 353.675781 C 201.632812 354.300781 202.164062 354.832031 202.789062 354.832031 C 203.414062 354.832031 203.976562 354.363281 203.976562 353.707031 C 203.976562 353.082031 203.445312 352.519531 202.820312 352.519531 C 202.757812 352.519531 202.695312 352.550781 202.632812 352.550781 Z M 202.632812 352.550781 "/>
<path fill-rule="nonzero" fill="rgb(0%, 0%, 0%)" fill-opacity="1" d="M 218.035156 341.113281 C 218.722656 340.050781 220.097656 339.519531 221.378906 339.519531 C 222.816406 339.519531 223.972656 340.425781 223.972656 342.269531 C 223.972656 343.800781 223.222656 345.675781 221.628906 346.082031 C 221.066406 346.238281 219.566406 346.082031 219.566406 346.519531 C 219.566406 346.707031 219.753906 346.769531 219.941406 346.769531 L 221.222656 346.769531 C 223.566406 346.769531 224.441406 348.738281 224.441406 350.550781 C 224.441406 352.300781 223.816406 354.707031 221.410156 354.707031 C 219.816406 354.707031 218.285156 353.988281 217.410156 352.582031 L 217.628906 352.582031 C 218.316406 352.582031 218.910156 352.175781 218.910156 351.425781 C 218.910156 350.707031 218.378906 350.238281 217.691406 350.238281 L 217.597656 350.238281 C 216.941406 350.269531 216.503906 350.800781 216.503906 351.425781 C 216.503906 353.894531 219.066406 355.332031 221.503906 355.332031 C 224.097656 355.332031 226.660156 353.488281 226.660156 350.738281 C 226.660156 348.613281 224.628906 346.550781 222.410156 346.457031 C 224.285156 345.800781 225.972656 344.425781 225.972656 342.269531 C 225.972656 340.082031 223.566406 338.957031 221.535156 338.957031 C 219.660156 338.957031 217.191406 339.863281 217.191406 342.113281 C 217.191406 342.675781 217.441406 343.175781 218.191406 343.300781 L 218.285156 343.300781 C 218.941406 343.300781 219.410156 342.863281 219.410156 342.207031 C 219.410156 341.488281 218.847656 341.082031 218.253906 341.082031 C 218.191406 341.082031 218.128906 341.113281 218.035156 341.113281 Z M 218.035156 341.113281 "/>
<path fill-rule="nonzero" fill="rgb(0%, 0%, 0%)" fill-opacity="1" d="M 228.902344 350.832031 L 235.496094 350.832031 L 235.496094 353.113281 C 235.496094 354.144531 234.683594 354.144531 233.121094 354.144531 L 233.121094 354.832031 L 239.558594 354.832031 L 239.558594 354.144531 C 239.277344 354.144531 238.964844 354.175781 238.652344 354.175781 C 237.839844 354.175781 237.183594 354.050781 237.183594 353.113281 L 237.183594 350.832031 L 239.714844 350.832031 L 239.714844 350.144531 L 237.183594 350.144531 L 237.183594 339.019531 L 237.089844 338.738281 L 236.621094 338.738281 L 236.308594 339.144531 L 228.902344 350.144531 Z M 229.496094 350.144531 L 235.589844 341.082031 L 235.589844 350.144531 Z M 229.496094 350.144531 "/>
<path fill-rule="nonzero" fill="rgb(0%, 0%, 0%)" fill-opacity="1" d="M 244.140625 352.550781 C 243.640625 352.644531 243.140625 353.082031 243.140625 353.675781 C 243.140625 354.300781 243.671875 354.832031 244.296875 354.832031 C 244.921875 354.832031 245.484375 354.363281 245.484375 353.707031 C 245.484375 353.082031 244.953125 352.519531 244.328125 352.519531 C 244.265625 352.519531 244.203125 352.550781 244.140625 352.550781 Z M 244.140625 352.550781 "/>
</svg>
