<?xml version="1.0" encoding="UTF-8"?>
<svg xmlns="http://www.w3.org/2000/svg" xmlns:xlink="http://www.w3.org/1999/xlink" width="314" height="356" viewBox="0 0 314 356">
<path fill="none" stroke-width="7.9701" stroke-linecap="butt" stroke-linejoin="miter" stroke="rgb(0%, 0%, 0%)" stroke-opacity="1" stroke-miterlimit="10" d="M 519.257805 641.601553 L 519.257805 614.921866 " transform="matrix(0.2, 0, 0, -0.2, 0, 356)"/>
<path fill="none" stroke-width="7.9701" stroke-linecap="butt" stroke-linejoin="miter" stroke="rgb(0%, 0%, 0%)" stroke-opacity="1" stroke-miterlimit="10" d="M 519.257805 561.601554 L 519.257805 534.921867 " transform="matrix(0.2, 0, 0, -0.2, 0, 356)"/>
<path fill="none" stroke-width="7.9701" stroke-linecap="butt" stroke-linejoin="miter" stroke="rgb(0%, 0%, 0%)" stroke-opacity="1" stroke-miterlimit="10" d="M 519.257805 534.921867 L 519.257805 508.281242 " transform="matrix(0.2, 0, 0, -0.2, 0, 356)"/>
<path fill="none" stroke-width="7.9701" stroke-linecap="butt" stroke-linejoin="miter" stroke="rgb(0%, 0%, 0%)" stroke-opacity="1" stroke-miterlimit="10" d="M 519.257805 454.921868 L 519.257805 428.281244 " transform="matrix(0.2, 0, 0, -0.2, 0, 356)"/>
<path fill="none" stroke-width="7.9701" stroke-linecap="butt" stroke-linejoin="miter" stroke="rgb(0%, 0%, 0%)" stroke-opacity="1" stroke-miterlimit="10" d="M 519.257805 428.281244 L 519.257805 401.601557 " transform="matrix(0.2, 0, 0, -0.2, 0, 356)"/>
<path fill="none" stroke-width="7.9701" stroke-linecap="butt" stroke-linejoin="miter" stroke="rgb(0%, 0%, 0%)" stroke-opacity="1" stroke-miterlimit="10" d="M 519.257805 348.281245 L 519.257805 321.601558 " transform="matrix(0.2, 0, 0, -0.2, 0, 356)"/>
<path fill="none" stroke-width="7.9701" stroke-linecap="butt" stroke-linejoin="miter" stroke="rgb(0%, 0%, 0%)" stroke-opacity="1" stroke-miterlimit="10" d="M 519.257805 641.601553 L 494.296868 641.601553 " transform="matrix(0.2, 0, 0, -0.2, 0, 356)"/>
<path fill="none" stroke-width="7.9701" stroke-linecap="butt" stroke-linejoin="miter" stroke="rgb(0%, 0%, 0%)" stroke-opacity="1" stroke-miterlimit="10" d="M 444.414056 641.601553 L 419.453119 641.601553 " transform="matrix(0.2, 0, 0, -0.2, 0, 356)"/>
<path fill="none" stroke-width="7.9701" stroke-linecap="butt" stroke-linejoin="miter" stroke="rgb(0%, 0%, 0%)" stroke-opacity="1" stroke-miterlimit="10" d="M 419.453119 641.601553 L 394.492182 641.601553 " transform="matrix(0.2, 0, 0, -0.2, 0, 356)"/>
<path fill="none" stroke-width="7.9701" stroke-linecap="butt" stroke-linejoin="miter" stroke="rgb(0%, 0%, 0%)" stroke-opacity="1" stroke-miterlimit="10" d="M 344.570307 641.601553 L 319.60937 641.601553 " transform="matrix(0.2, 0, 0, -0.2, 0, 356)"/>
<path fill="none" stroke-width="7.9701" stroke-linecap="butt" stroke-linejoin="miter" stroke="rgb(0%, 0%, 0%)" stroke-opacity="1" stroke-miterlimit="10" d="M 319.60937 641.601553 L 294.687496 641.601553 " transform="matrix(0.2, 0, 0, -0.2, 0, 356)"/>
<path fill="none" stroke-width="7.9701" stroke-linecap="butt" stroke-linejoin="miter" stroke="rgb(0%, 0%, 0%)" stroke-opacity="1" stroke-miterlimit="10" d="M 244.765621 641.601553 L 219.804684 641.601553 " transform="matrix(0.2, 0, 0, -0.2, 0, 356)"/>
<path fill="none" stroke-width="7.9701" stroke-linecap="butt" stroke-linejoin="miter" stroke="rgb(0%, 0%, 0%)" stroke-opacity="1" stroke-miterlimit="10" d="M 219.804684 641.601553 L 194.843747 641.601553 " transform="matrix(0.2, 0, 0, -0.2, 0, 356)"/>
<path fill="none" stroke-width="7.9701" stroke-linecap="butt" stroke-linejoin="miter" stroke="rgb(0%, 0%, 0%)" stroke-opacity="1" stroke-miterlimit="10" d="M 144.960935 641.601553 L 119.999998 641.601553 " transform="matrix(0.2, 0, 0, -0.2, 0, 356)"/>
<path fill="none" stroke-width="7.9701" stroke-linecap="butt" stroke-linejoin="miter" stroke="rgb(0%, 0%, 0%)" stroke-opacity="1" stroke-miterlimit="10" d="M 752.812489 801.601551 L 752.812489 777.617176 " transform="matrix(0.2, 0, 0, -0.2, 0, 356)"/>
<path fill="none" stroke-width="7.9701" stroke-linecap="butt" stroke-linejoin="miter" stroke="rgb(0%, 0%, 0%)" stroke-opacity="1" stroke-miterlimit="10" d="M 752.812489 729.609364 L 752.812489 705.624989 " transform="matrix(0.2, 0, 0, -0.2, 0, 356)"/>
<path fill="none" stroke-width="7.9701" stroke-linecap="butt" stroke-linejoin="miter" stroke="rgb(0%, 0%, 0%)" stroke-opacity="1" stroke-miterlimit="10" d="M 752.812489 705.624989 L 752.812489 681.601552 " transform="matrix(0.2, 0, 0, -0.2, 0, 356)"/>
<path fill="none" stroke-width="7.9701" stroke-linecap="butt" stroke-linejoin="miter" stroke="rgb(0%, 0%, 0%)" stroke-opacity="1" stroke-miterlimit="10" d="M 752.812489 633.593741 L 752.812489 609.609366 " transform="matrix(0.2, 0, 0, -0.2, 0, 356)"/>
<path fill="none" stroke-width="7.9701" stroke-linecap="butt" stroke-linejoin="miter" stroke="rgb(0%, 0%, 0%)" stroke-opacity="1" stroke-miterlimit="10" d="M 752.812489 609.609366 L 752.812489 585.585929 " transform="matrix(0.2, 0, 0, -0.2, 0, 356)"/>
<path fill="none" stroke-width="7.9701" stroke-linecap="butt" stroke-linejoin="miter" stroke="rgb(0%, 0%, 0%)" stroke-opacity="1" stroke-miterlimit="10" d="M 752.812489 537.617179 L 752.812489 513.593742 " transform="matrix(0.2, 0, 0, -0.2, 0, 356)"/>
<path fill="none" stroke-width="7.9701" stroke-linecap="butt" stroke-linejoin="miter" stroke="rgb(0%, 0%, 0%)" stroke-opacity="1" stroke-miterlimit="10" d="M 752.812489 513.593742 L 752.812489 489.609368 " transform="matrix(0.2, 0, 0, -0.2, 0, 356)"/>
<path fill="none" stroke-width="7.9701" stroke-linecap="butt" stroke-linejoin="miter" stroke="rgb(0%, 0%, 0%)" stroke-opacity="1" stroke-miterlimit="10" d="M 752.812489 441.601556 L 752.812489 417.617181 " transform="matrix(0.2, 0, 0, -0.2, 0, 356)"/>
<path fill="none" stroke-width="7.9701" stroke-linecap="butt" stroke-linejoin="miter" stroke="rgb(0%, 0%, 0%)" stroke-opacity="1" stroke-miterlimit="10" d="M 752.812489 417.617181 L 752.812489 393.593744 " transform="matrix(0.2, 0, 0, -0.2, 0, 356)"/>
<path fill="none" stroke-width="7.9701" stroke-linecap="butt" stroke-linejoin="miter" stroke="rgb(0%, 0%, 0%)" stroke-opacity="1" stroke-miterlimit="10" d="M 752.812489 345.585932 L 752.812489 321.601558 " transform="matrix(0.2, 0, 0, -0.2, 0, 356)"/>
<path fill="none" stroke-width="7.9701" stroke-linecap="butt" stroke-linejoin="miter" stroke="rgb(0%, 0%, 0%)" stroke-opacity="1" stroke-miterlimit="10" d="M 752.812489 801.601551 L 726.445302 801.601551 " transform="matrix(0.2, 0, 0, -0.2, 0, 356)"/>
<path fill="none" stroke-width="7.9701" stroke-linecap="butt" stroke-linejoin="miter" stroke="rgb(0%, 0%, 0%)" stroke-opacity="1" stroke-miterlimit="10" d="M 673.710927 801.601551 L 647.34374 801.601551 " transform="matrix(0.2, 0, 0, -0.2, 0, 356)"/>
<path fill="none" stroke-width="7.9701" stroke-linecap="butt" stroke-linejoin="miter" stroke="rgb(0%, 0%, 0%)" stroke-opacity="1" stroke-miterlimit="10" d="M 647.34374 801.601551 L 620.976553 801.601551 " transform="matrix(0.2, 0, 0, -0.2, 0, 356)"/>
<path fill="none" stroke-width="7.9701" stroke-linecap="butt" stroke-linejoin="miter" stroke="rgb(0%, 0%, 0%)" stroke-opacity="1" stroke-miterlimit="10" d="M 568.242179 801.601551 L 541.874992 801.601551 " transform="matrix(0.2, 0, 0, -0.2, 0, 356)"/>
<path fill="none" stroke-width="7.9701" stroke-linecap="butt" stroke-linejoin="miter" stroke="rgb(0%, 0%, 0%)" stroke-opacity="1" stroke-miterlimit="10" d="M 541.874992 801.601551 L 515.507805 801.601551 " transform="matrix(0.2, 0, 0, -0.2, 0, 356)"/>
<path fill="none" stroke-width="7.9701" stroke-linecap="butt" stroke-linejoin="miter" stroke="rgb(0%, 0%, 0%)" stroke-opacity="1" stroke-miterlimit="10" d="M 462.773431 801.601551 L 436.406243 801.601551 " transform="matrix(0.2, 0, 0, -0.2, 0, 356)"/>
<path fill="none" stroke-width="7.9701" stroke-linecap="butt" stroke-linejoin="miter" stroke="rgb(0%, 0%, 0%)" stroke-opacity="1" stroke-miterlimit="10" d="M 436.406243 801.601551 L 410.039056 801.601551 " transform="matrix(0.2, 0, 0, -0.2, 0, 356)"/>
<path fill="none" stroke-width="7.9701" stroke-linecap="butt" stroke-linejoin="miter" stroke="rgb(0%, 0%, 0%)" stroke-opacity="1" stroke-miterlimit="10" d="M 357.304682 801.601551 L 330.937495 801.601551 " transform="matrix(0.2, 0, 0, -0.2, 0, 356)"/>
<path fill="none" stroke-width="7.9701" stroke-linecap="butt" stroke-linejoin="miter" stroke="rgb(0%, 0%, 0%)" stroke-opacity="1" stroke-miterlimit="10" d="M 330.937495 801.601551 L 304.570308 801.601551 " transform="matrix(0.2, 0, 0, -0.2, 0, 356)"/>
<path fill="none" stroke-width="7.9701" stroke-linecap="butt" stroke-linejoin="miter" stroke="rgb(0%, 0%, 0%)" stroke-opacity="1" stroke-miterlimit="10" d="M 251.835934 801.601551 L 225.468747 801.601551 " transform="matrix(0.2, 0, 0, -0.2, 0, 356)"/>
<path fill="none" stroke-width="7.9701" stroke-linecap="butt" stroke-linejoin="miter" stroke="rgb(0%, 0%, 0%)" stroke-opacity="1" stroke-miterlimit="10" d="M 225.468747 801.601551 L 199.10156 801.601551 " transform="matrix(0.2, 0, 0, -0.2, 0, 356)"/>
<path fill="none" stroke-width="7.9701" stroke-linecap="butt" stroke-linejoin="miter" stroke="rgb(0%, 0%, 0%)" stroke-opacity="1" stroke-miterlimit="10" d="M 146.367185 801.601551 L 119.999998 801.601551 " transform="matrix(0.2, 0, 0, -0.2, 0, 356)"/>
<path fill="none" stroke-width="7.9701" stroke-linecap="butt" stroke-linejoin="miter" stroke="rgb(0%, 0%, 0%)" stroke-opacity="1" stroke-miterlimit="10" d="M 918.515611 961.601548 L 918.515611 934.921861 " transform="matrix(0.2, 0, 0, -0.2, 0, 356)"/>
<path fill="none" stroke-width="7.9701" stroke-linecap="butt" stroke-linejoin="miter" stroke="rgb(0%, 0%, 0%)" stroke-opacity="1" stroke-miterlimit="10" d="M 918.515611 881.601549 L 918.515611 854.921862 " transform="matrix(0.2, 0, 0, -0.2, 0, 356)"/>
<path fill="none" stroke-width="7.9701" stroke-linecap="butt" stroke-linejoin="miter" stroke="rgb(0%, 0%, 0%)" stroke-opacity="1" stroke-miterlimit="10" d="M 918.515611 854.921862 L 918.515611 828.281238 " transform="matrix(0.2, 0, 0, -0.2, 0, 356)"/>
<path fill="none" stroke-width="7.9701" stroke-linecap="butt" stroke-linejoin="miter" stroke="rgb(0%, 0%, 0%)" stroke-opacity="1" stroke-miterlimit="10" d="M 918.515611 774.921863 L 918.515611 748.281239 " transform="matrix(0.2, 0, 0, -0.2, 0, 356)"/>
<path fill="none" stroke-width="7.9701" stroke-linecap="butt" stroke-linejoin="miter" stroke="rgb(0%, 0%, 0%)" stroke-opacity="1" stroke-miterlimit="10" d="M 918.515611 748.281239 L 918.515611 721.601552 " transform="matrix(0.2, 0, 0, -0.2, 0, 356)"/>
<path fill="none" stroke-width="7.9701" stroke-linecap="butt" stroke-linejoin="miter" stroke="rgb(0%, 0%, 0%)" stroke-opacity="1" stroke-miterlimit="10" d="M 918.515611 668.28124 L 918.515611 641.601553 " transform="matrix(0.2, 0, 0, -0.2, 0, 356)"/>
<path fill="none" stroke-width="7.9701" stroke-linecap="butt" stroke-linejoin="miter" stroke="rgb(0%, 0%, 0%)" stroke-opacity="1" stroke-miterlimit="10" d="M 918.515611 641.601553 L 918.515611 614.921866 " transform="matrix(0.2, 0, 0, -0.2, 0, 356)"/>
<path fill="none" stroke-width="7.9701" stroke-linecap="butt" stroke-linejoin="miter" stroke="rgb(0%, 0%, 0%)" stroke-opacity="1" stroke-miterlimit="10" d="M 918.515611 561.601554 L 918.515611 534.921867 " transform="matrix(0.2, 0, 0, -0.2, 0, 356)"/>
<path fill="none" stroke-width="7.9701" stroke-linecap="butt" stroke-linejoin="miter" stroke="rgb(0%, 0%, 0%)" stroke-opacity="1" stroke-miterlimit="10" d="M 918.515611 534.921867 L 918.515611 508.281242 " transform="matrix(0.2, 0, 0, -0.2, 0, 356)"/>
<path fill="none" stroke-width="7.9701" stroke-linecap="butt" stroke-linejoin="miter" stroke="rgb(0%, 0%, 0%)" stroke-opacity="1" stroke-miterlimit="10" d="M 918.515611 454.921868 L 918.515611 428.281244 " transform="matrix(0.2, 0, 0, -0.2, 0, 356)"/>
<path fill="none" stroke-width="7.9701" stroke-linecap="butt" stroke-linejoin="miter" stroke="rgb(0%, 0%, 0%)" stroke-opacity="1" stroke-miterlimit="10" d="M 918.515611 428.281244 L 918.515611 401.601557 " transform="matrix(0.2, 0, 0, -0.2, 0, 356)"/>
<path fill="none" stroke-width="7.9701" stroke-linecap="butt" stroke-linejoin="miter" stroke="rgb(0%, 0%, 0%)" stroke-opacity="1" stroke-miterlimit="10" d="M 918.515611 348.281245 L 918.515611 321.601558 " transform="matrix(0.2, 0, 0, -0.2, 0, 356)"/>
<path fill="none" stroke-width="7.9701" stroke-linecap="butt" stroke-linejoin="miter" stroke="rgb(0%, 0%, 0%)" stroke-opacity="1" stroke-miterlimit="10" d="M 918.515611 961.601548 L 889.999987 961.601548 " transform="matrix(0.2, 0, 0, -0.2, 0, 356)"/>
<path fill="none" stroke-width="7.9701" stroke-linecap="butt" stroke-linejoin="miter" stroke="rgb(0%, 0%, 0%)" stroke-opacity="1" stroke-miterlimit="10" d="M 832.968738 961.601548 L 804.453113 961.601548 " transform="matrix(0.2, 0, 0, -0.2, 0, 356)"/>
<path fill="none" stroke-width="7.9701" stroke-linecap="butt" stroke-linejoin="miter" stroke="rgb(0%, 0%, 0%)" stroke-opacity="1" stroke-miterlimit="10" d="M 804.453113 961.601548 L 775.937488 961.601548 " transform="matrix(0.2, 0, 0, -0.2, 0, 356)"/>
<path fill="none" stroke-width="7.9701" stroke-linecap="butt" stroke-linejoin="miter" stroke="rgb(0%, 0%, 0%)" stroke-opacity="1" stroke-miterlimit="10" d="M 718.867177 961.601548 L 690.390615 961.601548 " transform="matrix(0.2, 0, 0, -0.2, 0, 356)"/>
<path fill="none" stroke-width="7.9701" stroke-linecap="butt" stroke-linejoin="miter" stroke="rgb(0%, 0%, 0%)" stroke-opacity="1" stroke-miterlimit="10" d="M 690.390615 961.601548 L 661.835928 961.601548 " transform="matrix(0.2, 0, 0, -0.2, 0, 356)"/>
<path fill="none" stroke-width="7.9701" stroke-linecap="butt" stroke-linejoin="miter" stroke="rgb(0%, 0%, 0%)" stroke-opacity="1" stroke-miterlimit="10" d="M 604.804678 961.601548 L 576.289054 961.601548 " transform="matrix(0.2, 0, 0, -0.2, 0, 356)"/>
<path fill="none" stroke-width="7.9701" stroke-linecap="butt" stroke-linejoin="miter" stroke="rgb(0%, 0%, 0%)" stroke-opacity="1" stroke-miterlimit="10" d="M 576.289054 961.601548 L 547.773429 961.601548 " transform="matrix(0.2, 0, 0, -0.2, 0, 356)"/>
<path fill="none" stroke-width="7.9701" stroke-linecap="butt" stroke-linejoin="miter" stroke="rgb(0%, 0%, 0%)" stroke-opacity="1" stroke-miterlimit="10" d="M 490.74218 961.601548 L 462.226556 961.601548 " transform="matrix(0.2, 0, 0, -0.2, 0, 356)"/>
<path fill="none" stroke-width="7.9701" stroke-linecap="butt" stroke-linejoin="miter" stroke="rgb(0%, 0%, 0%)" stroke-opacity="1" stroke-miterlimit="10" d="M 462.226556 961.601548 L 433.710931 961.601548 " transform="matrix(0.2, 0, 0, -0.2, 0, 356)"/>
<path fill="none" stroke-width="7.9701" stroke-linecap="butt" stroke-linejoin="miter" stroke="rgb(0%, 0%, 0%)" stroke-opacity="1" stroke-miterlimit="10" d="M 376.679682 961.601548 L 348.164057 961.601548 " transform="matrix(0.2, 0, 0, -0.2, 0, 356)"/>
<path fill="none" stroke-width="7.9701" stroke-linecap="butt" stroke-linejoin="miter" stroke="rgb(0%, 0%, 0%)" stroke-opacity="1" stroke-miterlimit="10" d="M 348.164057 961.601548 L 319.60937 961.601548 " transform="matrix(0.2, 0, 0, -0.2, 0, 356)"/>
<path fill="none" stroke-width="7.9701" stroke-linecap="butt" stroke-linejoin="miter" stroke="rgb(0%, 0%, 0%)" stroke-opacity="1" stroke-miterlimit="10" d="M 262.578121 961.601548 L 234.062497 961.601548 " transform="matrix(0.2, 0, 0, -0.2, 0, 356)"/>
<path fill="none" stroke-width="7.9701" stroke-linecap="butt" stroke-linejoin="miter" stroke="rgb(0%, 0%, 0%)" stroke-opacity="1" stroke-miterlimit="10" d="M 234.062497 961.601548 L 205.546872 961.601548 " transform="matrix(0.2, 0, 0, -0.2, 0, 356)"/>
<path fill="none" stroke-width="7.9701" stroke-linecap="butt" stroke-linejoin="miter" stroke="rgb(0%, 0%, 0%)" stroke-opacity="1" stroke-miterlimit="10" d="M 148.515623 961.601548 L 119.999998 961.601548 " transform="matrix(0.2, 0, 0, -0.2, 0, 356)"/>
<path fill="none" stroke-width="7.9701" stroke-linecap="butt" stroke-linejoin="miter" stroke="rgb(0%, 0%, 0%)" stroke-opacity="1" stroke-miterlimit="10" d="M 1047.031234 1121.601546 L 1018.085922 1121.601546 " transform="matrix(0.2, 0, 0, -0.2, 0, 356)"/>
<path fill="none" stroke-width="7.9701" stroke-linecap="butt" stroke-linejoin="miter" stroke="rgb(0%, 0%, 0%)" stroke-opacity="1" stroke-miterlimit="10" d="M 960.156236 1121.601546 L 931.171861 1121.601546 " transform="matrix(0.2, 0, 0, -0.2, 0, 356)"/>
<path fill="none" stroke-width="7.9701" stroke-linecap="butt" stroke-linejoin="miter" stroke="rgb(0%, 0%, 0%)" stroke-opacity="1" stroke-miterlimit="10" d="M 931.171861 1121.601546 L 902.187487 1121.601546 " transform="matrix(0.2, 0, 0, -0.2, 0, 356)"/>
<path fill="none" stroke-width="7.9701" stroke-linecap="butt" stroke-linejoin="miter" stroke="rgb(0%, 0%, 0%)" stroke-opacity="1" stroke-miterlimit="10" d="M 844.2578 1121.601546 L 815.273425 1121.601546 " transform="matrix(0.2, 0, 0, -0.2, 0, 356)"/>
<path fill="none" stroke-width="7.9701" stroke-linecap="butt" stroke-linejoin="miter" stroke="rgb(0%, 0%, 0%)" stroke-opacity="1" stroke-miterlimit="10" d="M 815.273425 1121.601546 L 786.328113 1121.601546 " transform="matrix(0.2, 0, 0, -0.2, 0, 356)"/>
<path fill="none" stroke-width="7.9701" stroke-linecap="butt" stroke-linejoin="miter" stroke="rgb(0%, 0%, 0%)" stroke-opacity="1" stroke-miterlimit="10" d="M 728.359364 1121.601546 L 699.414052 1121.601546 " transform="matrix(0.2, 0, 0, -0.2, 0, 356)"/>
<path fill="none" stroke-width="7.9701" stroke-linecap="butt" stroke-linejoin="miter" stroke="rgb(0%, 0%, 0%)" stroke-opacity="1" stroke-miterlimit="10" d="M 699.414052 1121.601546 L 670.429678 1121.601546 " transform="matrix(0.2, 0, 0, -0.2, 0, 356)"/>
<path fill="none" stroke-width="7.9701" stroke-linecap="butt" stroke-linejoin="miter" stroke="rgb(0%, 0%, 0%)" stroke-opacity="1" stroke-miterlimit="10" d="M 612.499991 1121.601546 L 583.515616 1121.601546 " transform="matrix(0.2, 0, 0, -0.2, 0, 356)"/>
<path fill="none" stroke-width="7.9701" stroke-linecap="butt" stroke-linejoin="miter" stroke="rgb(0%, 0%, 0%)" stroke-opacity="1" stroke-miterlimit="10" d="M 583.515616 1121.601546 L 554.570304 1121.601546 " transform="matrix(0.2, 0, 0, -0.2, 0, 356)"/>
<path fill="none" stroke-width="7.9701" stroke-linecap="butt" stroke-linejoin="miter" stroke="rgb(0%, 0%, 0%)" stroke-opacity="1" stroke-miterlimit="10" d="M 496.601555 1121.601546 L 467.656243 1121.601546 " transform="matrix(0.2, 0, 0, -0.2, 0, 356)"/>
<path fill="none" stroke-width="7.9701" stroke-linecap="butt" stroke-linejoin="miter" stroke="rgb(0%, 0%, 0%)" stroke-opacity="1" stroke-miterlimit="10" d="M 467.656243 1121.601546 L 438.671868 1121.601546 " transform="matrix(0.2, 0, 0, -0.2, 0, 356)"/>
<path fill="none" stroke-width="7.9701" stroke-linecap="butt" stroke-linejoin="miter" stroke="rgb(0%, 0%, 0%)" stroke-opacity="1" stroke-miterlimit="10" d="M 380.742182 1121.601546 L 351.757807 1121.601546 " transform="matrix(0.2, 0, 0, -0.2, 0, 356)"/>
<path fill="none" stroke-width="7.9701" stroke-linecap="butt" stroke-linejoin="miter" stroke="rgb(0%, 0%, 0%)" stroke-opacity="1" stroke-miterlimit="10" d="M 351.757807 1121.601546 L 322.773433 1121.601546 " transform="matrix(0.2, 0, 0, -0.2, 0, 356)"/>
<path fill="none" stroke-width="7.9701" stroke-linecap="butt" stroke-linejoin="miter" stroke="rgb(0%, 0%, 0%)" stroke-opacity="1" stroke-miterlimit="10" d="M 264.843746 1121.601546 L 235.898434 1121.601546 " transform="matrix(0.2, 0, 0, -0.2, 0, 356)"/>
<path fill="none" stroke-width="7.9701" stroke-linecap="butt" stroke-linejoin="miter" stroke="rgb(0%, 0%, 0%)" stroke-opacity="1" stroke-miterlimit="10" d="M 235.898434 1121.601546 L 206.914059 1121.601546 " transform="matrix(0.2, 0, 0, -0.2, 0, 356)"/>
<path fill="none" stroke-width="7.9701" stroke-linecap="butt" stroke-linejoin="miter" stroke="rgb(0%, 0%, 0%)" stroke-opacity="1" stroke-miterlimit="10" d="M 148.984373 1121.601546 L 119.999998 1121.601546 " transform="matrix(0.2, 0, 0, -0.2, 0, 356)"/>
<path fill="none" stroke-width="7.9701" stroke-linecap="butt" stroke-linejoin="miter" stroke="rgb(0%, 0%, 0%)" stroke-opacity="1" stroke-miterlimit="10" d="M 1152.070295 1281.601543 L 1152.070295 1254.960919 " transform="matrix(0.2, 0, 0, -0.2, 0, 356)"/>
<path fill="none" stroke-width="7.9701" stroke-linecap="butt" stroke-linejoin="miter" stroke="rgb(0%, 0%, 0%)" stroke-opacity="1" stroke-miterlimit="10" d="M 1152.070295 1201.601545 L 1152.070295 1174.96092 " transform="matrix(0.2, 0, 0, -0.2, 0, 356)"/>
<path fill="none" stroke-width="7.9701" stroke-linecap="butt" stroke-linejoin="miter" stroke="rgb(0%, 0%, 0%)" stroke-opacity="1" stroke-miterlimit="10" d="M 1152.070295 1174.96092 L 1152.070295 1148.281233 " transform="matrix(0.2, 0, 0, -0.2, 0, 356)"/>
<path fill="none" stroke-width="7.9701" stroke-linecap="butt" stroke-linejoin="miter" stroke="rgb(0%, 0%, 0%)" stroke-opacity="1" stroke-miterlimit="10" d="M 1152.070295 1094.921859 L 1152.070295 1068.281234 " transform="matrix(0.2, 0, 0, -0.2, 0, 356)"/>
<path fill="none" stroke-width="7.9701" stroke-linecap="butt" stroke-linejoin="miter" stroke="rgb(0%, 0%, 0%)" stroke-opacity="1" stroke-miterlimit="10" d="M 1152.070295 1068.281234 L 1152.070295 1041.601547 " transform="matrix(0.2, 0, 0, -0.2, 0, 356)"/>
<path fill="none" stroke-width="7.9701" stroke-linecap="butt" stroke-linejoin="miter" stroke="rgb(0%, 0%, 0%)" stroke-opacity="1" stroke-miterlimit="10" d="M 1152.070295 988.281235 L 1152.070295 961.601548 " transform="matrix(0.2, 0, 0, -0.2, 0, 356)"/>
<path fill="none" stroke-width="7.9701" stroke-linecap="butt" stroke-linejoin="miter" stroke="rgb(0%, 0%, 0%)" stroke-opacity="1" stroke-miterlimit="10" d="M 1152.070295 961.601548 L 1152.070295 934.921861 " transform="matrix(0.2, 0, 0, -0.2, 0, 356)"/>
<path fill="none" stroke-width="7.9701" stroke-linecap="butt" stroke-linejoin="miter" stroke="rgb(0%, 0%, 0%)" stroke-opacity="1" stroke-miterlimit="10" d="M 1152.070295 881.601549 L 1152.070295 854.921862 " transform="matrix(0.2, 0, 0, -0.2, 0, 356)"/>
<path fill="none" stroke-width="7.9701" stroke-linecap="butt" stroke-linejoin="miter" stroke="rgb(0%, 0%, 0%)" stroke-opacity="1" stroke-miterlimit="10" d="M 1152.070295 854.921862 L 1152.070295 828.281238 " transform="matrix(0.2, 0, 0, -0.2, 0, 356)"/>
<path fill="none" stroke-width="7.9701" stroke-linecap="butt" stroke-linejoin="miter" stroke="rgb(0%, 0%, 0%)" stroke-opacity="1" stroke-miterlimit="10" d="M 1152.070295 774.921863 L 1152.070295 748.281239 " transform="matrix(0.2, 0, 0, -0.2, 0, 356)"/>
<path fill="none" stroke-width="7.9701" stroke-linecap="butt" stroke-linejoin="miter" stroke="rgb(0%, 0%, 0%)" stroke-opacity="1" stroke-miterlimit="10" d="M 1152.070295 748.281239 L 1152.070295 721.601552 " transform="matrix(0.2, 0, 0, -0.2, 0, 356)"/>
<path fill="none" stroke-width="7.9701" stroke-linecap="butt" stroke-linejoin="miter" stroke="rgb(0%, 0%, 0%)" stroke-opacity="1" stroke-miterlimit="10" d="M 1152.070295 668.28124 L 1152.070295 641.601553 " transform="matrix(0.2, 0, 0, -0.2, 0, 356)"/>
<path fill="none" stroke-width="7.9701" stroke-linecap="butt" stroke-linejoin="miter" stroke="rgb(0%, 0%, 0%)" stroke-opacity="1" stroke-miterlimit="10" d="M 1152.070295 641.601553 L 1152.070295 614.921866 " transform="matrix(0.2, 0, 0, -0.2, 0, 356)"/>
<path fill="none" stroke-width="7.9701" stroke-linecap="butt" stroke-linejoin="miter" stroke="rgb(0%, 0%, 0%)" stroke-opacity="1" stroke-miterlimit="10" d="M 1152.070295 561.601554 L 1152.070295 534.921867 " transform="matrix(0.2, 0, 0, -0.2, 0, 356)"/>
<path fill="none" stroke-width="7.9701" stroke-linecap="butt" stroke-linejoin="miter" stroke="rgb(0%, 0%, 0%)" stroke-opacity="1" stroke-miterlimit="10" d="M 1152.070295 534.921867 L 1152.070295 508.281242 " transform="matrix(0.2, 0, 0, -0.2, 0, 356)"/>
<path fill="none" stroke-width="7.9701" stroke-linecap="butt" stroke-linejoin="miter" stroke="rgb(0%, 0%, 0%)" stroke-opacity="1" stroke-miterlimit="10" d="M 1152.070295 454.921868 L 1152.070295 428.281244 " transform="matrix(0.2, 0, 0, -0.2, 0, 356)"/>
<path fill="none" stroke-width="7.9701" stroke-linecap="butt" stroke-linejoin="miter" stroke="rgb(0%, 0%, 0%)" stroke-opacity="1" stroke-miterlimit="10" d="M 1152.070295 428.281244 L 1152.070295 401.601557 " transform="matrix(0.2, 0, 0, -0.2, 0, 356)"/>
<path fill="none" stroke-width="7.9701" stroke-linecap="butt" stroke-linejoin="miter" stroke="rgb(0%, 0%, 0%)" stroke-opacity="1" stroke-miterlimit="10" d="M 1152.070295 348.281245 L 1152.070295 321.601558 " transform="matrix(0.2, 0, 0, -0.2, 0, 356)"/>
<path fill="none" stroke-width="7.9701" stroke-linecap="butt" stroke-linejoin="miter" stroke="rgb(0%, 0%, 0%)" stroke-opacity="1" stroke-miterlimit="10" d="M 1152.070295 1281.601543 L 1123.398421 1281.601543 " transform="matrix(0.2, 0, 0, -0.2, 0, 356)"/>
<path fill="none" stroke-width="7.9701" stroke-linecap="butt" stroke-linejoin="miter" stroke="rgb(0%, 0%, 0%)" stroke-opacity="1" stroke-miterlimit="10" d="M 1066.054672 1281.601543 L 1037.382797 1281.601543 " transform="matrix(0.2, 0, 0, -0.2, 0, 356)"/>
<path fill="none" stroke-width="7.9701" stroke-linecap="butt" stroke-linejoin="miter" stroke="rgb(0%, 0%, 0%)" stroke-opacity="1" stroke-miterlimit="10" d="M 1037.382797 1281.601543 L 1008.710922 1281.601543 " transform="matrix(0.2, 0, 0, -0.2, 0, 356)"/>
<path fill="none" stroke-width="7.9701" stroke-linecap="butt" stroke-linejoin="miter" stroke="rgb(0%, 0%, 0%)" stroke-opacity="1" stroke-miterlimit="10" d="M 951.406236 1281.601543 L 922.734361 1281.601543 " transform="matrix(0.2, 0, 0, -0.2, 0, 356)"/>
<path fill="none" stroke-width="7.9701" stroke-linecap="butt" stroke-linejoin="miter" stroke="rgb(0%, 0%, 0%)" stroke-opacity="1" stroke-miterlimit="10" d="M 922.734361 1281.601543 L 894.062487 1281.601543 " transform="matrix(0.2, 0, 0, -0.2, 0, 356)"/>
<path fill="none" stroke-width="7.9701" stroke-linecap="butt" stroke-linejoin="miter" stroke="rgb(0%, 0%, 0%)" stroke-opacity="1" stroke-miterlimit="10" d="M 836.718738 1281.601543 L 808.046863 1281.601543 " transform="matrix(0.2, 0, 0, -0.2, 0, 356)"/>
<path fill="none" stroke-width="7.9701" stroke-linecap="butt" stroke-linejoin="miter" stroke="rgb(0%, 0%, 0%)" stroke-opacity="1" stroke-miterlimit="10" d="M 808.046863 1281.601543 L 779.374988 1281.601543 " transform="matrix(0.2, 0, 0, -0.2, 0, 356)"/>
<path fill="none" stroke-width="7.9701" stroke-linecap="butt" stroke-linejoin="miter" stroke="rgb(0%, 0%, 0%)" stroke-opacity="1" stroke-miterlimit="10" d="M 722.031239 1281.601543 L 693.359365 1281.601543 " transform="matrix(0.2, 0, 0, -0.2, 0, 356)"/>
<path fill="none" stroke-width="7.9701" stroke-linecap="butt" stroke-linejoin="miter" stroke="rgb(0%, 0%, 0%)" stroke-opacity="1" stroke-miterlimit="10" d="M 693.359365 1281.601543 L 664.68749 1281.601543 " transform="matrix(0.2, 0, 0, -0.2, 0, 356)"/>
<path fill="none" stroke-width="7.9701" stroke-linecap="butt" stroke-linejoin="miter" stroke="rgb(0%, 0%, 0%)" stroke-opacity="1" stroke-miterlimit="10" d="M 607.343741 1281.601543 L 578.710929 1281.601543 " transform="matrix(0.2, 0, 0, -0.2, 0, 356)"/>
<path fill="none" stroke-width="7.9701" stroke-linecap="butt" stroke-linejoin="miter" stroke="rgb(0%, 0%, 0%)" stroke-opacity="1" stroke-miterlimit="10" d="M 578.710929 1281.601543 L 550.039054 1281.601543 " transform="matrix(0.2, 0, 0, -0.2, 0, 356)"/>
<path fill="none" stroke-width="7.9701" stroke-linecap="butt" stroke-linejoin="miter" stroke="rgb(0%, 0%, 0%)" stroke-opacity="1" stroke-miterlimit="10" d="M 492.695305 1281.601543 L 464.023431 1281.601543 " transform="matrix(0.2, 0, 0, -0.2, 0, 356)"/>
<path fill="none" stroke-width="7.9701" stroke-linecap="butt" stroke-linejoin="miter" stroke="rgb(0%, 0%, 0%)" stroke-opacity="1" stroke-miterlimit="10" d="M 464.023431 1281.601543 L 435.351556 1281.601543 " transform="matrix(0.2, 0, 0, -0.2, 0, 356)"/>
<path fill="none" stroke-width="7.9701" stroke-linecap="butt" stroke-linejoin="miter" stroke="rgb(0%, 0%, 0%)" stroke-opacity="1" stroke-miterlimit="10" d="M 378.007807 1281.601543 L 349.335932 1281.601543 " transform="matrix(0.2, 0, 0, -0.2, 0, 356)"/>
<path fill="none" stroke-width="7.9701" stroke-linecap="butt" stroke-linejoin="miter" stroke="rgb(0%, 0%, 0%)" stroke-opacity="1" stroke-miterlimit="10" d="M 349.335932 1281.601543 L 320.664058 1281.601543 " transform="matrix(0.2, 0, 0, -0.2, 0, 356)"/>
<path fill="none" stroke-width="7.9701" stroke-linecap="butt" stroke-linejoin="miter" stroke="rgb(0%, 0%, 0%)" stroke-opacity="1" stroke-miterlimit="10" d="M 263.359371 1281.601543 L 234.687497 1281.601543 " transform="matrix(0.2, 0, 0, -0.2, 0, 356)"/>
<path fill="none" stroke-width="7.9701" stroke-linecap="butt" stroke-linejoin="miter" stroke="rgb(0%, 0%, 0%)" stroke-opacity="1" stroke-miterlimit="10" d="M 234.687497 1281.601543 L 206.015622 1281.601543 " transform="matrix(0.2, 0, 0, -0.2, 0, 356)"/>
<path fill="none" stroke-width="7.9701" stroke-linecap="butt" stroke-linejoin="miter" stroke="rgb(0%, 0%, 0%)" stroke-opacity="1" stroke-miterlimit="10" d="M 148.671873 1281.601543 L 119.999998 1281.601543 " transform="matrix(0.2, 0, 0, -0.2, 0, 356)"/>
<path fill="none" stroke-width="7.9701" stroke-linecap="butt" stroke-linejoin="miter" stroke="rgb(0%, 0%, 0%)" stroke-opacity="1" stroke-miterlimit="10" d="M 1240.859357 1441.601541 L 1212.851544 1441.601541 " transform="matrix(0.2, 0, 0, -0.2, 0, 356)"/>
<path fill="none" stroke-width="7.9701" stroke-linecap="butt" stroke-linejoin="miter" stroke="rgb(0%, 0%, 0%)" stroke-opacity="1" stroke-miterlimit="10" d="M 1156.796858 1441.601541 L 1128.789046 1441.601541 " transform="matrix(0.2, 0, 0, -0.2, 0, 356)"/>
<path fill="none" stroke-width="7.9701" stroke-linecap="butt" stroke-linejoin="miter" stroke="rgb(0%, 0%, 0%)" stroke-opacity="1" stroke-miterlimit="10" d="M 1128.789046 1441.601541 L 1100.742171 1441.601541 " transform="matrix(0.2, 0, 0, -0.2, 0, 356)"/>
<path fill="none" stroke-width="7.9701" stroke-linecap="butt" stroke-linejoin="miter" stroke="rgb(0%, 0%, 0%)" stroke-opacity="1" stroke-miterlimit="10" d="M 1044.726547 1441.601541 L 1016.679672 1441.601541 " transform="matrix(0.2, 0, 0, -0.2, 0, 356)"/>
<path fill="none" stroke-width="7.9701" stroke-linecap="butt" stroke-linejoin="miter" stroke="rgb(0%, 0%, 0%)" stroke-opacity="1" stroke-miterlimit="10" d="M 1016.679672 1441.601541 L 988.67186 1441.601541 " transform="matrix(0.2, 0, 0, -0.2, 0, 356)"/>
<path fill="none" stroke-width="7.9701" stroke-linecap="butt" stroke-linejoin="miter" stroke="rgb(0%, 0%, 0%)" stroke-opacity="1" stroke-miterlimit="10" d="M 932.617174 1441.601541 L 904.609362 1441.601541 " transform="matrix(0.2, 0, 0, -0.2, 0, 356)"/>
<path fill="none" stroke-width="7.9701" stroke-linecap="butt" stroke-linejoin="miter" stroke="rgb(0%, 0%, 0%)" stroke-opacity="1" stroke-miterlimit="10" d="M 904.609362 1441.601541 L 876.562487 1441.601541 " transform="matrix(0.2, 0, 0, -0.2, 0, 356)"/>
<path fill="none" stroke-width="7.9701" stroke-linecap="butt" stroke-linejoin="miter" stroke="rgb(0%, 0%, 0%)" stroke-opacity="1" stroke-miterlimit="10" d="M 820.546863 1441.601541 L 792.499988 1441.601541 " transform="matrix(0.2, 0, 0, -0.2, 0, 356)"/>
<path fill="none" stroke-width="7.9701" stroke-linecap="butt" stroke-linejoin="miter" stroke="rgb(0%, 0%, 0%)" stroke-opacity="1" stroke-miterlimit="10" d="M 792.499988 1441.601541 L 764.492176 1441.601541 " transform="matrix(0.2, 0, 0, -0.2, 0, 356)"/>
<path fill="none" stroke-width="7.9701" stroke-linecap="butt" stroke-linejoin="miter" stroke="rgb(0%, 0%, 0%)" stroke-opacity="1" stroke-miterlimit="10" d="M 708.437489 1441.601541 L 680.429677 1441.601541 " transform="matrix(0.2, 0, 0, -0.2, 0, 356)"/>
<path fill="none" stroke-width="7.9701" stroke-linecap="butt" stroke-linejoin="miter" stroke="rgb(0%, 0%, 0%)" stroke-opacity="1" stroke-miterlimit="10" d="M 680.429677 1441.601541 L 652.382803 1441.601541 " transform="matrix(0.2, 0, 0, -0.2, 0, 356)"/>
<path fill="none" stroke-width="7.9701" stroke-linecap="butt" stroke-linejoin="miter" stroke="rgb(0%, 0%, 0%)" stroke-opacity="1" stroke-miterlimit="10" d="M 596.367179 1441.601541 L 568.359367 1441.601541 " transform="matrix(0.2, 0, 0, -0.2, 0, 356)"/>
<path fill="none" stroke-width="7.9701" stroke-linecap="butt" stroke-linejoin="miter" stroke="rgb(0%, 0%, 0%)" stroke-opacity="1" stroke-miterlimit="10" d="M 568.359367 1441.601541 L 540.312492 1441.601541 " transform="matrix(0.2, 0, 0, -0.2, 0, 356)"/>
<path fill="none" stroke-width="7.9701" stroke-linecap="butt" stroke-linejoin="miter" stroke="rgb(0%, 0%, 0%)" stroke-opacity="1" stroke-miterlimit="10" d="M 484.257805 1441.601541 L 456.249993 1441.601541 " transform="matrix(0.2, 0, 0, -0.2, 0, 356)"/>
<path fill="none" stroke-width="7.9701" stroke-linecap="butt" stroke-linejoin="miter" stroke="rgb(0%, 0%, 0%)" stroke-opacity="1" stroke-miterlimit="10" d="M 456.249993 1441.601541 L 428.242181 1441.601541 " transform="matrix(0.2, 0, 0, -0.2, 0, 356)"/>
<path fill="none" stroke-width="7.9701" stroke-linecap="butt" stroke-linejoin="miter" stroke="rgb(0%, 0%, 0%)" stroke-opacity="1" stroke-miterlimit="10" d="M 372.187494 1441.601541 L 344.179682 1441.601541 " transform="matrix(0.2, 0, 0, -0.2, 0, 356)"/>
<path fill="none" stroke-width="7.9701" stroke-linecap="butt" stroke-linejoin="miter" stroke="rgb(0%, 0%, 0%)" stroke-opacity="1" stroke-miterlimit="10" d="M 344.179682 1441.601541 L 316.132808 1441.601541 " transform="matrix(0.2, 0, 0, -0.2, 0, 356)"/>
<path fill="none" stroke-width="7.9701" stroke-linecap="butt" stroke-linejoin="miter" stroke="rgb(0%, 0%, 0%)" stroke-opacity="1" stroke-miterlimit="10" d="M 260.117184 1441.601541 L 232.070309 1441.601541 " transform="matrix(0.2, 0, 0, -0.2, 0, 356)"/>
<path fill="none" stroke-width="7.9701" stroke-linecap="butt" stroke-linejoin="miter" stroke="rgb(0%, 0%, 0%)" stroke-opacity="1" stroke-miterlimit="10" d="M 232.070309 1441.601541 L 204.062497 1441.601541 " transform="matrix(0.2, 0, 0, -0.2, 0, 356)"/>
<path fill="none" stroke-width="7.9701" stroke-linecap="butt" stroke-linejoin="miter" stroke="rgb(0%, 0%, 0%)" stroke-opacity="1" stroke-miterlimit="10" d="M 148.00781 1441.601541 L 119.999998 1441.601541 " transform="matrix(0.2, 0, 0, -0.2, 0, 356)"/>
<path fill="none" stroke-width="7.9701" stroke-linecap="butt" stroke-linejoin="miter" stroke="rgb(0%, 0%, 0%)" stroke-opacity="1" stroke-miterlimit="10" d="M 1317.773418 1601.601539 L 1317.773418 1572.539039 " transform="matrix(0.2, 0, 0, -0.2, 0, 356)"/>
<path fill="none" stroke-width="7.9701" stroke-linecap="butt" stroke-linejoin="miter" stroke="rgb(0%, 0%, 0%)" stroke-opacity="1" stroke-miterlimit="10" d="M 1317.773418 1514.335915 L 1317.773418 1485.234353 " transform="matrix(0.2, 0, 0, -0.2, 0, 356)"/>
<path fill="none" stroke-width="7.9701" stroke-linecap="butt" stroke-linejoin="miter" stroke="rgb(0%, 0%, 0%)" stroke-opacity="1" stroke-miterlimit="10" d="M 1317.773418 1485.234353 L 1317.773418 1456.171853 " transform="matrix(0.2, 0, 0, -0.2, 0, 356)"/>
<path fill="none" stroke-width="7.9701" stroke-linecap="butt" stroke-linejoin="miter" stroke="rgb(0%, 0%, 0%)" stroke-opacity="1" stroke-miterlimit="10" d="M 1317.773418 1397.968729 L 1317.773418 1368.90623 " transform="matrix(0.2, 0, 0, -0.2, 0, 356)"/>
<path fill="none" stroke-width="7.9701" stroke-linecap="butt" stroke-linejoin="miter" stroke="rgb(0%, 0%, 0%)" stroke-opacity="1" stroke-miterlimit="10" d="M 1317.773418 1368.90623 L 1317.773418 1339.804668 " transform="matrix(0.2, 0, 0, -0.2, 0, 356)"/>
<path fill="none" stroke-width="7.9701" stroke-linecap="butt" stroke-linejoin="miter" stroke="rgb(0%, 0%, 0%)" stroke-opacity="1" stroke-miterlimit="10" d="M 1317.773418 1281.601543 L 1317.773418 1252.539044 " transform="matrix(0.2, 0, 0, -0.2, 0, 356)"/>
<path fill="none" stroke-width="7.9701" stroke-linecap="butt" stroke-linejoin="miter" stroke="rgb(0%, 0%, 0%)" stroke-opacity="1" stroke-miterlimit="10" d="M 1317.773418 1252.539044 L 1317.773418 1223.437482 " transform="matrix(0.2, 0, 0, -0.2, 0, 356)"/>
<path fill="none" stroke-width="7.9701" stroke-linecap="butt" stroke-linejoin="miter" stroke="rgb(0%, 0%, 0%)" stroke-opacity="1" stroke-miterlimit="10" d="M 1317.773418 1165.234358 L 1317.773418 1136.171858 " transform="matrix(0.2, 0, 0, -0.2, 0, 356)"/>
<path fill="none" stroke-width="7.9701" stroke-linecap="butt" stroke-linejoin="miter" stroke="rgb(0%, 0%, 0%)" stroke-opacity="1" stroke-miterlimit="10" d="M 1317.773418 1136.171858 L 1317.773418 1107.070296 " transform="matrix(0.2, 0, 0, -0.2, 0, 356)"/>
<path fill="none" stroke-width="7.9701" stroke-linecap="butt" stroke-linejoin="miter" stroke="rgb(0%, 0%, 0%)" stroke-opacity="1" stroke-miterlimit="10" d="M 1317.773418 1048.867172 L 1317.773418 1019.804672 " transform="matrix(0.2, 0, 0, -0.2, 0, 356)"/>
<path fill="none" stroke-width="7.9701" stroke-linecap="butt" stroke-linejoin="miter" stroke="rgb(0%, 0%, 0%)" stroke-opacity="1" stroke-miterlimit="10" d="M 1317.773418 1019.804672 L 1317.773418 990.70311 " transform="matrix(0.2, 0, 0, -0.2, 0, 356)"/>
<path fill="none" stroke-width="7.9701" stroke-linecap="butt" stroke-linejoin="miter" stroke="rgb(0%, 0%, 0%)" stroke-opacity="1" stroke-miterlimit="10" d="M 1317.773418 932.499986 L 1317.773418 903.437487 " transform="matrix(0.2, 0, 0, -0.2, 0, 356)"/>
<path fill="none" stroke-width="7.9701" stroke-linecap="butt" stroke-linejoin="miter" stroke="rgb(0%, 0%, 0%)" stroke-opacity="1" stroke-miterlimit="10" d="M 1317.773418 903.437487 L 1317.773418 874.335924 " transform="matrix(0.2, 0, 0, -0.2, 0, 356)"/>
<path fill="none" stroke-width="7.9701" stroke-linecap="butt" stroke-linejoin="miter" stroke="rgb(0%, 0%, 0%)" stroke-opacity="1" stroke-miterlimit="10" d="M 1317.773418 816.171863 L 1317.773418 787.070301 " transform="matrix(0.2, 0, 0, -0.2, 0, 356)"/>
<path fill="none" stroke-width="7.9701" stroke-linecap="butt" stroke-linejoin="miter" stroke="rgb(0%, 0%, 0%)" stroke-opacity="1" stroke-miterlimit="10" d="M 1317.773418 787.070301 L 1317.773418 757.968739 " transform="matrix(0.2, 0, 0, -0.2, 0, 356)"/>
<path fill="none" stroke-width="7.9701" stroke-linecap="butt" stroke-linejoin="miter" stroke="rgb(0%, 0%, 0%)" stroke-opacity="1" stroke-miterlimit="10" d="M 1317.773418 699.804677 L 1317.773418 670.703115 " transform="matrix(0.2, 0, 0, -0.2, 0, 356)"/>
<path fill="none" stroke-width="7.9701" stroke-linecap="butt" stroke-linejoin="miter" stroke="rgb(0%, 0%, 0%)" stroke-opacity="1" stroke-miterlimit="10" d="M 1317.773418 670.703115 L 1317.773418 641.601553 " transform="matrix(0.2, 0, 0, -0.2, 0, 356)"/>
<path fill="none" stroke-width="7.9701" stroke-linecap="butt" stroke-linejoin="miter" stroke="rgb(0%, 0%, 0%)" stroke-opacity="1" stroke-miterlimit="10" d="M 1317.773418 583.437491 L 1317.773418 554.335929 " transform="matrix(0.2, 0, 0, -0.2, 0, 356)"/>
<path fill="none" stroke-width="7.9701" stroke-linecap="butt" stroke-linejoin="miter" stroke="rgb(0%, 0%, 0%)" stroke-opacity="1" stroke-miterlimit="10" d="M 1317.773418 554.335929 L 1317.773418 525.234367 " transform="matrix(0.2, 0, 0, -0.2, 0, 356)"/>
<path fill="none" stroke-width="7.9701" stroke-linecap="butt" stroke-linejoin="miter" stroke="rgb(0%, 0%, 0%)" stroke-opacity="1" stroke-miterlimit="10" d="M 1317.773418 467.070306 L 1317.773418 437.968743 " transform="matrix(0.2, 0, 0, -0.2, 0, 356)"/>
<path fill="none" stroke-width="7.9701" stroke-linecap="butt" stroke-linejoin="miter" stroke="rgb(0%, 0%, 0%)" stroke-opacity="1" stroke-miterlimit="10" d="M 1317.773418 437.968743 L 1317.773418 408.867181 " transform="matrix(0.2, 0, 0, -0.2, 0, 356)"/>
<path fill="none" stroke-width="7.9701" stroke-linecap="butt" stroke-linejoin="miter" stroke="rgb(0%, 0%, 0%)" stroke-opacity="1" stroke-miterlimit="10" d="M 1317.773418 350.70312 L 1317.773418 321.601558 " transform="matrix(0.2, 0, 0, -0.2, 0, 356)"/>
<path fill="none" stroke-width="7.9701" stroke-linecap="butt" stroke-linejoin="miter" stroke="rgb(0%, 0%, 0%)" stroke-opacity="1" stroke-miterlimit="10" d="M 1317.773418 1601.601539 L 1290.546856 1601.601539 " transform="matrix(0.2, 0, 0, -0.2, 0, 356)"/>
<path fill="none" stroke-width="7.9701" stroke-linecap="butt" stroke-linejoin="miter" stroke="rgb(0%, 0%, 0%)" stroke-opacity="1" stroke-miterlimit="10" d="M 1236.093732 1601.601539 L 1208.867169 1601.601539 " transform="matrix(0.2, 0, 0, -0.2, 0, 356)"/>
<path fill="none" stroke-width="7.9701" stroke-linecap="butt" stroke-linejoin="miter" stroke="rgb(0%, 0%, 0%)" stroke-opacity="1" stroke-miterlimit="10" d="M 1208.867169 1601.601539 L 1181.640607 1601.601539 " transform="matrix(0.2, 0, 0, -0.2, 0, 356)"/>
<path fill="none" stroke-width="7.9701" stroke-linecap="butt" stroke-linejoin="miter" stroke="rgb(0%, 0%, 0%)" stroke-opacity="1" stroke-miterlimit="10" d="M 1127.226546 1601.601539 L 1099.999984 1601.601539 " transform="matrix(0.2, 0, 0, -0.2, 0, 356)"/>
<path fill="none" stroke-width="7.9701" stroke-linecap="butt" stroke-linejoin="miter" stroke="rgb(0%, 0%, 0%)" stroke-opacity="1" stroke-miterlimit="10" d="M 1099.999984 1601.601539 L 1072.773422 1601.601539 " transform="matrix(0.2, 0, 0, -0.2, 0, 356)"/>
<path fill="none" stroke-width="7.9701" stroke-linecap="butt" stroke-linejoin="miter" stroke="rgb(0%, 0%, 0%)" stroke-opacity="1" stroke-miterlimit="10" d="M 1018.320297 1601.601539 L 991.093735 1601.601539 " transform="matrix(0.2, 0, 0, -0.2, 0, 356)"/>
<path fill="none" stroke-width="7.9701" stroke-linecap="butt" stroke-linejoin="miter" stroke="rgb(0%, 0%, 0%)" stroke-opacity="1" stroke-miterlimit="10" d="M 991.093735 1601.601539 L 963.867173 1601.601539 " transform="matrix(0.2, 0, 0, -0.2, 0, 356)"/>
<path fill="none" stroke-width="7.9701" stroke-linecap="butt" stroke-linejoin="miter" stroke="rgb(0%, 0%, 0%)" stroke-opacity="1" stroke-miterlimit="10" d="M 909.453111 1601.601539 L 882.226549 1601.601539 " transform="matrix(0.2, 0, 0, -0.2, 0, 356)"/>
<path fill="none" stroke-width="7.9701" stroke-linecap="butt" stroke-linejoin="miter" stroke="rgb(0%, 0%, 0%)" stroke-opacity="1" stroke-miterlimit="10" d="M 882.226549 1601.601539 L 854.999987 1601.601539 " transform="matrix(0.2, 0, 0, -0.2, 0, 356)"/>
<path fill="none" stroke-width="7.9701" stroke-linecap="butt" stroke-linejoin="miter" stroke="rgb(0%, 0%, 0%)" stroke-opacity="1" stroke-miterlimit="10" d="M 800.546863 1601.601539 L 773.320301 1601.601539 " transform="matrix(0.2, 0, 0, -0.2, 0, 356)"/>
<path fill="none" stroke-width="7.9701" stroke-linecap="butt" stroke-linejoin="miter" stroke="rgb(0%, 0%, 0%)" stroke-opacity="1" stroke-miterlimit="10" d="M 773.320301 1601.601539 L 746.093739 1601.601539 " transform="matrix(0.2, 0, 0, -0.2, 0, 356)"/>
<path fill="none" stroke-width="7.9701" stroke-linecap="butt" stroke-linejoin="miter" stroke="rgb(0%, 0%, 0%)" stroke-opacity="1" stroke-miterlimit="10" d="M 691.679677 1601.601539 L 664.453115 1601.601539 " transform="matrix(0.2, 0, 0, -0.2, 0, 356)"/>
<path fill="none" stroke-width="7.9701" stroke-linecap="butt" stroke-linejoin="miter" stroke="rgb(0%, 0%, 0%)" stroke-opacity="1" stroke-miterlimit="10" d="M 664.453115 1601.601539 L 637.226553 1601.601539 " transform="matrix(0.2, 0, 0, -0.2, 0, 356)"/>
<path fill="none" stroke-width="7.9701" stroke-linecap="butt" stroke-linejoin="miter" stroke="rgb(0%, 0%, 0%)" stroke-opacity="1" stroke-miterlimit="10" d="M 582.773429 1601.601539 L 555.546867 1601.601539 " transform="matrix(0.2, 0, 0, -0.2, 0, 356)"/>
<path fill="none" stroke-width="7.9701" stroke-linecap="butt" stroke-linejoin="miter" stroke="rgb(0%, 0%, 0%)" stroke-opacity="1" stroke-miterlimit="10" d="M 555.546867 1601.601539 L 528.320305 1601.601539 " transform="matrix(0.2, 0, 0, -0.2, 0, 356)"/>
<path fill="none" stroke-width="7.9701" stroke-linecap="butt" stroke-linejoin="miter" stroke="rgb(0%, 0%, 0%)" stroke-opacity="1" stroke-miterlimit="10" d="M 473.86718 1601.601539 L 446.640618 1601.601539 " transform="matrix(0.2, 0, 0, -0.2, 0, 356)"/>
<path fill="none" stroke-width="7.9701" stroke-linecap="butt" stroke-linejoin="miter" stroke="rgb(0%, 0%, 0%)" stroke-opacity="1" stroke-miterlimit="10" d="M 446.640618 1601.601539 L 419.453119 1601.601539 " transform="matrix(0.2, 0, 0, -0.2, 0, 356)"/>
<path fill="none" stroke-width="7.9701" stroke-linecap="butt" stroke-linejoin="miter" stroke="rgb(0%, 0%, 0%)" stroke-opacity="1" stroke-miterlimit="10" d="M 364.999995 1601.601539 L 337.773432 1601.601539 " transform="matrix(0.2, 0, 0, -0.2, 0, 356)"/>
<path fill="none" stroke-width="7.9701" stroke-linecap="butt" stroke-linejoin="miter" stroke="rgb(0%, 0%, 0%)" stroke-opacity="1" stroke-miterlimit="10" d="M 337.773432 1601.601539 L 310.54687 1601.601539 " transform="matrix(0.2, 0, 0, -0.2, 0, 356)"/>
<path fill="none" stroke-width="7.9701" stroke-linecap="butt" stroke-linejoin="miter" stroke="rgb(0%, 0%, 0%)" stroke-opacity="1" stroke-miterlimit="10" d="M 256.093746 1601.601539 L 228.906247 1601.601539 " transform="matrix(0.2, 0, 0, -0.2, 0, 356)"/>
<path fill="none" stroke-width="7.9701" stroke-linecap="butt" stroke-linejoin="miter" stroke="rgb(0%, 0%, 0%)" stroke-opacity="1" stroke-miterlimit="10" d="M 228.906247 1601.601539 L 201.640622 1601.601539 " transform="matrix(0.2, 0, 0, -0.2, 0, 356)"/>
<path fill="none" stroke-width="7.9701" stroke-linecap="butt" stroke-linejoin="miter" stroke="rgb(0%, 0%, 0%)" stroke-opacity="1" stroke-miterlimit="10" d="M 147.22656 1601.601539 L 119.999998 1601.601539 " transform="matrix(0.2, 0, 0, -0.2, 0, 356)"/>
<path fill-rule="nonzero" fill="rgb(0%, 0%, 0%)" fill-opacity="1" d="M 140.089844 299.839844 C 140.089844 299.339844 140.089844 299.277344 139.589844 299.277344 C 138.246094 300.683594 136.308594 300.683594 135.621094 300.683594 L 135.621094 301.339844 C 136.058594 301.339844 137.339844 301.339844 138.496094 300.777344 L 138.496094 312.089844 C 138.496094 312.871094 138.402344 313.121094 136.464844 313.121094 L 135.746094 313.121094 L 135.746094 313.808594 C 136.527344 313.746094 138.402344 313.746094 139.277344 313.746094 C 140.152344 313.746094 142.058594 313.746094 142.808594 313.808594 L 142.808594 313.121094 L 142.121094 313.121094 C 140.152344 313.121094 140.089844 312.902344 140.089844 312.089844 Z M 140.089844 299.839844 "/>
<path fill-rule="nonzero" fill="rgb(0%, 0%, 0%)" fill-opacity="1" d="M 251.664062 312.121094 L 253.976562 309.871094 C 257.382812 306.871094 258.664062 305.683594 258.664062 303.527344 C 258.664062 301.027344 256.726562 299.277344 254.039062 299.277344 C 251.601562 299.277344 249.976562 301.277344 249.976562 303.214844 C 249.976562 304.464844 251.070312 304.464844 251.132812 304.464844 C 251.507812 304.464844 252.257812 304.183594 252.257812 303.308594 C 252.257812 302.714844 251.882812 302.152344 251.101562 302.152344 C 250.945312 302.152344 250.882812 302.152344 250.820312 302.183594 C 251.320312 300.777344 252.507812 299.964844 253.757812 299.964844 C 255.757812 299.964844 256.695312 301.714844 256.695312 303.527344 C 256.695312 305.246094 255.601562 306.996094 254.414062 308.339844 L 250.226562 312.996094 C 249.976562 313.246094 249.976562 313.277344 249.976562 313.808594 L 258.070312 313.808594 L 258.664062 310.027344 L 258.132812 310.027344 C 258.007812 310.652344 257.882812 311.621094 257.664062 311.964844 C 257.507812 312.121094 256.070312 312.121094 255.570312 312.121094 Z M 251.664062 312.121094 "/>
<path fill="none" stroke-width="11.9553" stroke-linecap="butt" stroke-linejoin="miter" stroke="rgb(0%, 0%, 0%)" stroke-opacity="1" stroke-miterlimit="10" d="M 119.999998 481.601555 L 119.999998 1601.601539 " transform="matrix(0.2, 0, 0, -0.2, 0, 356)"/>
<path fill-rule="nonzero" fill="rgb(0%, 0%, 0%)" fill-opacity="1" d="M 17.976562 258.984375 L 29.976562 258.984375 L 29.976562 260.1875 L 17.976562 260.1875 Z M 17.976562 258.984375 "/>
<path fill-rule="nonzero" fill="rgb(0%, 0%, 0%)" fill-opacity="1" d="M 17.976562 226.984375 L 29.976562 226.984375 L 29.976562 228.1875 L 17.976562 228.1875 Z M 17.976562 226.984375 "/>
<path fill-rule="nonzero" fill="rgb(0%, 0%, 0%)" fill-opacity="1" d="M 17.976562 194.984375 L 29.976562 194.984375 L 29.976562 196.1875 L 17.976562 196.1875 Z M 17.976562 194.984375 "/>
<path fill-rule="nonzero" fill="rgb(0%, 0%, 0%)" fill-opacity="1" d="M 17.976562 162.984375 L 29.976562 162.984375 L 29.976562 164.1875 L 17.976562 164.1875 Z M 17.976562 162.984375 "/>
<path fill-rule="nonzero" fill="rgb(0%, 0%, 0%)" fill-opacity="1" d="M 17.976562 130.984375 L 29.976562 130.984375 L 29.976562 132.1875 L 17.976562 132.1875 Z M 17.976562 130.984375 "/>
<path fill-rule="nonzero" fill="rgb(0%, 0%, 0%)" fill-opacity="1" d="M 17.976562 98.984375 L 29.976562 98.984375 L 29.976562 100.1875 L 17.976562 100.1875 Z M 17.976562 98.984375 "/>
<path fill-rule="nonzero" fill="rgb(0%, 0%, 0%)" fill-opacity="1" d="M 17.976562 66.976562 L 29.976562 66.976562 L 29.976562 68.179688 L 17.976562 68.179688 Z M 17.976562 66.976562 "/>
<path fill-rule="nonzero" fill="rgb(0%, 0%, 0%)" fill-opacity="1" d="M 17.976562 34.976562 L 29.976562 34.976562 L 29.976562 36.179688 L 17.976562 36.179688 Z M 17.976562 34.976562 "/>
<path fill-rule="nonzero" fill="rgb(0%, 0%, 0%)" fill-opacity="1" d="M 11.636719 252.667969 C 11.636719 252.167969 11.636719 252.105469 11.136719 252.105469 C 9.792969 253.511719 7.855469 253.511719 7.167969 253.511719 L 7.167969 254.167969 C 7.605469 254.167969 8.886719 254.167969 10.042969 253.605469 L 10.042969 264.917969 C 10.042969 265.699219 9.949219 265.949219 8.011719 265.949219 L 7.292969 265.949219 L 7.292969 266.636719 C 8.074219 266.574219 9.949219 266.574219 10.824219 266.574219 C 11.699219 266.574219 13.605469 266.574219 14.355469 266.636719 L 14.355469 265.949219 L 13.667969 265.949219 C 11.699219 265.949219 11.636719 265.730469 11.636719 264.917969 Z M 11.636719 252.667969 "/>
<path fill-rule="nonzero" fill="rgb(0%, 0%, 0%)" fill-opacity="1" d="M 8.011719 232.949219 L 10.324219 230.699219 C 13.730469 227.699219 15.011719 226.511719 15.011719 224.355469 C 15.011719 221.855469 13.074219 220.105469 10.386719 220.105469 C 7.949219 220.105469 6.324219 222.105469 6.324219 224.042969 C 6.324219 225.292969 7.417969 225.292969 7.480469 225.292969 C 7.855469 225.292969 8.605469 225.011719 8.605469 224.136719 C 8.605469 223.542969 8.230469 222.980469 7.449219 222.980469 C 7.292969 222.980469 7.230469 222.980469 7.167969 223.011719 C 7.667969 221.605469 8.855469 220.792969 10.105469 220.792969 C 12.105469 220.792969 13.042969 222.542969 13.042969 224.355469 C 13.042969 226.074219 11.949219 227.824219 10.761719 229.167969 L 6.574219 233.824219 C 6.324219 234.074219 6.324219 234.105469 6.324219 234.636719 L 14.417969 234.636719 L 15.011719 230.855469 L 14.480469 230.855469 C 14.355469 231.480469 14.230469 232.449219 14.011719 232.792969 C 13.855469 232.949219 12.417969 232.949219 11.917969 232.949219 Z M 8.011719 232.949219 "/>
<path fill-rule="nonzero" fill="rgb(0%, 0%, 0%)" fill-opacity="1" d="M 11.542969 194.949219 C 13.355469 194.355469 14.605469 192.855469 14.605469 191.105469 C 14.605469 189.324219 12.699219 188.105469 10.605469 188.105469 C 8.386719 188.105469 6.730469 189.417969 6.730469 191.074219 C 6.730469 191.792969 7.230469 192.199219 7.855469 192.199219 C 8.511719 192.199219 8.949219 191.730469 8.949219 191.105469 C 8.949219 190.011719 7.949219 190.011719 7.605469 190.011719 C 8.292969 188.949219 9.730469 188.667969 10.511719 188.667969 C 11.417969 188.667969 12.605469 189.136719 12.605469 191.105469 C 12.605469 191.355469 12.574219 192.636719 11.980469 193.574219 C 11.324219 194.636719 10.605469 194.699219 10.042969 194.730469 C 9.886719 194.730469 9.355469 194.792969 9.199219 194.792969 C 9.011719 194.792969 8.886719 194.824219 8.886719 195.042969 C 8.886719 195.292969 9.011719 195.292969 9.386719 195.292969 L 10.355469 195.292969 C 12.136719 195.292969 12.949219 196.761719 12.949219 198.917969 C 12.949219 201.886719 11.449219 202.511719 10.480469 202.511719 C 9.542969 202.511719 7.917969 202.136719 7.136719 200.855469 C 7.917969 200.949219 8.574219 200.480469 8.574219 199.636719 C 8.574219 198.855469 8.011719 198.417969 7.355469 198.417969 C 6.855469 198.417969 6.136719 198.730469 6.136719 199.699219 C 6.136719 201.667969 8.167969 203.105469 10.542969 203.105469 C 13.199219 203.105469 15.199219 201.136719 15.199219 198.917969 C 15.199219 197.105469 13.824219 195.417969 11.542969 194.949219 Z M 11.542969 194.949219 "/>
<path fill-rule="nonzero" fill="rgb(0%, 0%, 0%)" fill-opacity="1" d="M 11.636719 167.042969 L 11.636719 168.949219 C 11.636719 169.730469 11.605469 169.949219 9.980469 169.949219 L 9.542969 169.949219 L 9.542969 170.636719 C 10.417969 170.574219 11.542969 170.574219 12.480469 170.574219 C 13.386719 170.574219 14.542969 170.574219 15.449219 170.636719 L 15.449219 169.949219 L 14.980469 169.949219 C 13.355469 169.949219 13.324219 169.730469 13.324219 168.949219 L 13.324219 167.042969 L 15.511719 167.042969 L 15.511719 166.355469 L 13.324219 166.355469 L 13.324219 156.449219 C 13.324219 156.011719 13.324219 155.855469 12.980469 155.855469 C 12.792969 155.855469 12.699219 155.855469 12.542969 156.136719 L 5.855469 166.355469 L 5.855469 167.042969 Z M 11.761719 166.355469 L 6.449219 166.355469 L 11.761719 158.230469 Z M 11.761719 166.355469 "/>
<path fill-rule="nonzero" fill="rgb(0%, 0%, 0%)" fill-opacity="1" d="M 15.011719 134.261719 C 15.011719 131.667969 13.230469 129.480469 10.886719 129.480469 C 9.824219 129.480469 8.886719 129.824219 8.105469 130.574219 L 8.105469 126.324219 C 8.542969 126.480469 9.261719 126.605469 9.949219 126.605469 C 12.636719 126.605469 14.167969 124.636719 14.167969 124.355469 C 14.167969 124.230469 14.105469 124.105469 13.949219 124.105469 C 13.949219 124.105469 13.886719 124.105469 13.792969 124.167969 C 13.355469 124.386719 12.261719 124.792969 10.824219 124.792969 C 9.949219 124.792969 8.949219 124.667969 7.917969 124.199219 C 7.730469 124.136719 7.699219 124.136719 7.636719 124.136719 C 7.417969 124.136719 7.417969 124.292969 7.417969 124.667969 L 7.417969 131.105469 C 7.417969 131.511719 7.417969 131.667969 7.730469 131.667969 C 7.886719 131.667969 7.949219 131.605469 8.011719 131.480469 C 8.261719 131.136719 9.074219 129.949219 10.824219 129.949219 C 11.980469 129.949219 12.511719 130.949219 12.699219 131.355469 C 13.042969 132.167969 13.074219 133.011719 13.074219 134.105469 C 13.074219 134.855469 13.074219 136.167969 12.574219 137.074219 C 12.042969 137.949219 11.230469 138.511719 10.230469 138.511719 C 8.636719 138.511719 7.386719 137.355469 7.011719 136.074219 C 7.074219 136.074219 7.136719 136.105469 7.386719 136.105469 C 8.105469 136.105469 8.480469 135.574219 8.480469 135.042969 C 8.480469 134.511719 8.105469 133.980469 7.386719 133.980469 C 7.074219 133.980469 6.324219 134.136719 6.324219 135.136719 C 6.324219 137.011719 7.824219 139.105469 10.261719 139.105469 C 12.792969 139.105469 15.011719 137.011719 15.011719 134.261719 Z M 15.011719 134.261719 "/>
<path fill-rule="nonzero" fill="rgb(0%, 0%, 0%)" fill-opacity="1" d="M 8.105469 99.480469 L 8.105469 98.949219 C 8.105469 93.449219 10.824219 92.667969 11.917969 92.667969 C 12.449219 92.667969 13.355469 92.792969 13.855469 93.542969 C 13.511719 93.542969 12.636719 93.542969 12.636719 94.511719 C 12.636719 95.199219 13.167969 95.511719 13.636719 95.511719 C 14.011719 95.511719 14.667969 95.324219 14.667969 94.480469 C 14.667969 93.167969 13.699219 92.105469 11.886719 92.105469 C 9.105469 92.105469 6.136719 94.917969 6.136719 99.730469 C 6.136719 105.574219 8.667969 107.105469 10.699219 107.105469 C 13.136719 107.105469 15.199219 105.074219 15.199219 102.199219 C 15.199219 99.417969 13.261719 97.324219 10.824219 97.324219 C 9.355469 97.324219 8.542969 98.449219 8.105469 99.480469 Z M 10.699219 106.511719 C 9.324219 106.511719 8.667969 105.199219 8.542969 104.855469 C 8.167969 103.855469 8.167969 102.105469 8.167969 101.699219 C 8.167969 100.011719 8.855469 97.824219 10.824219 97.824219 C 11.167969 97.824219 12.167969 97.824219 12.855469 99.167969 C 13.230469 99.980469 13.230469 101.105469 13.230469 102.167969 C 13.230469 103.199219 13.230469 104.292969 12.855469 105.074219 C 12.199219 106.386719 11.199219 106.511719 10.699219 106.511719 Z M 10.699219 106.511719 "/>
<path fill-rule="nonzero" fill="rgb(0%, 0%, 0%)" fill-opacity="1" d="M 15.605469 61.355469 C 15.824219 61.105469 15.824219 61.042969 15.824219 60.574219 L 10.511719 60.574219 C 7.855469 60.574219 7.792969 60.292969 7.730469 59.886719 L 7.167969 59.886719 L 6.449219 64.386719 L 7.011719 64.386719 C 7.074219 64.042969 7.261719 62.667969 7.542969 62.386719 C 7.699219 62.261719 9.386719 62.261719 9.667969 62.261719 L 14.199219 62.261719 C 13.949219 62.605469 12.230469 64.980469 11.761719 65.730469 C 9.792969 68.667969 9.074219 71.699219 9.074219 73.917969 C 9.074219 74.136719 9.074219 75.105469 10.074219 75.105469 C 11.074219 75.105469 11.074219 74.136719 11.074219 73.917969 L 11.074219 72.792969 C 11.074219 71.605469 11.136719 70.417969 11.324219 69.230469 C 11.417969 68.730469 11.699219 66.855469 12.667969 65.511719 Z M 15.605469 61.355469 "/>
<path fill-rule="nonzero" fill="rgb(0%, 0%, 0%)" fill-opacity="1" d="M 8.792969 32.664062 C 7.792969 32.007812 7.699219 31.257812 7.699219 30.882812 C 7.699219 29.570312 9.105469 28.664062 10.667969 28.664062 C 12.261719 28.664062 13.636719 29.789062 13.636719 31.351562 C 13.636719 32.601562 12.792969 33.632812 11.480469 34.414062 Z M 11.980469 34.726562 C 13.542969 33.914062 14.605469 32.789062 14.605469 31.351562 C 14.605469 29.351562 12.667969 28.101562 10.667969 28.101562 C 8.511719 28.101562 6.730469 29.726562 6.730469 31.757812 C 6.730469 32.132812 6.792969 33.132812 7.699219 34.132812 C 7.949219 34.414062 8.730469 34.945312 9.292969 35.320312 C 8.011719 35.945312 6.136719 37.195312 6.136719 39.351562 C 6.136719 41.664062 8.386719 43.101562 10.667969 43.101562 C 13.136719 43.101562 15.199219 41.289062 15.199219 38.976562 C 15.199219 38.195312 14.949219 37.195312 14.136719 36.289062 C 13.730469 35.820312 13.355469 35.601562 11.980469 34.726562 Z M 9.792969 35.664062 L 12.480469 37.351562 C 13.074219 37.757812 14.105469 38.414062 14.105469 39.757812 C 14.105469 41.382812 12.480469 42.507812 10.667969 42.507812 C 8.792969 42.507812 7.230469 41.164062 7.230469 39.351562 C 7.230469 38.070312 7.949219 36.664062 9.792969 35.664062 Z M 9.792969 35.664062 "/>
<path fill-rule="nonzero" fill="rgb(100%, 100%, 100%)" fill-opacity="1" d="M 122.3125 183.429688 L 188.617188 101.546875 L 213.796875 121.9375 L 147.492188 203.820312 Z M 122.3125 183.429688 "/>
<path fill-rule="nonzero" fill="rgb(0%, 0%, 0%)" fill-opacity="1" d="M 141.964844 182.214844 C 141.589844 181.777344 140.339844 180.121094 141.308594 178.933594 C 141.402344 178.839844 141.714844 178.464844 142.214844 178.246094 C 141.933594 178.777344 142.089844 179.464844 142.496094 179.808594 C 142.746094 180.027344 143.214844 180.089844 143.589844 179.652344 C 143.902344 179.246094 144.027344 178.464844 143.371094 177.933594 C 142.496094 177.214844 141.433594 178.027344 140.964844 178.621094 C 140.152344 179.589844 140.589844 180.902344 140.839844 181.433594 C 139.308594 180.933594 138.433594 181.746094 138.027344 182.214844 C 136.621094 183.964844 138.027344 186.714844 138.433594 187.058594 C 138.589844 187.183594 138.746094 187.027344 138.746094 186.996094 C 138.871094 186.839844 138.902344 186.777344 138.746094 186.621094 C 137.433594 184.558594 137.902344 183.152344 138.371094 182.558594 C 138.621094 182.246094 139.277344 181.746094 140.277344 182.558594 C 140.777344 182.964844 141.714844 184.183594 143.558594 186.746094 C 144.371094 187.871094 144.621094 189.027344 144.027344 189.746094 C 143.933594 189.871094 143.621094 190.277344 143.121094 190.433594 C 143.339844 189.933594 143.308594 189.308594 142.839844 188.933594 C 142.371094 188.558594 141.933594 188.777344 141.746094 189.027344 C 141.339844 189.527344 141.433594 190.339844 141.964844 190.777344 C 142.746094 191.402344 143.777344 190.839844 144.371094 190.089844 C 145.277344 188.964844 144.589844 187.402344 144.527344 187.277344 C 145.308594 187.527344 146.464844 187.496094 147.308594 186.464844 C 148.714844 184.746094 147.308594 181.996094 146.871094 181.652344 C 146.714844 181.527344 146.589844 181.683594 146.558594 181.714844 C 146.433594 181.871094 146.464844 181.996094 146.558594 182.089844 C 147.933594 184.121094 147.371094 185.589844 146.964844 186.152344 C 146.433594 186.808594 145.683594 186.621094 145.089844 186.152344 C 144.714844 185.871094 144.433594 185.464844 143.839844 184.714844 Z M 141.964844 182.214844 "/>
<path fill-rule="nonzero" fill="rgb(0%, 0%, 0%)" fill-opacity="1" d="M 158.035156 161.539062 C 158.222656 161.289062 158.503906 160.976562 158.160156 160.695312 C 157.816406 160.414062 157.535156 160.726562 157.347656 160.976562 L 149.128906 171.132812 C 148.941406 171.382812 148.691406 171.695312 149.035156 171.976562 C 149.378906 172.257812 149.628906 171.945312 149.847656 171.664062 Z M 161.316406 164.164062 C 161.503906 163.914062 161.785156 163.601562 161.441406 163.351562 C 161.097656 163.070312 160.816406 163.382812 160.628906 163.632812 L 152.441406 173.757812 C 152.222656 174.039062 151.972656 174.351562 152.316406 174.632812 C 152.660156 174.882812 152.910156 174.570312 153.097656 174.320312 Z M 161.316406 164.164062 "/>
<path fill-rule="nonzero" fill="rgb(0%, 0%, 0%)" fill-opacity="1" d="M 159.3125 147.230469 L 157.46875 149.824219 L 158 150.261719 C 158.96875 149.074219 159.1875 149.042969 160.03125 149.699219 L 168.84375 156.855469 C 169.59375 157.449219 169.46875 157.636719 168.53125 158.761719 L 169.0625 159.199219 C 169.5 158.605469 170.1875 157.699219 170.5625 157.292969 C 170.875 156.855469 171.59375 156.042969 172.125 155.449219 L 171.59375 155.011719 C 170.65625 156.136719 170.53125 156.324219 169.78125 155.730469 Z M 159.3125 147.230469 "/>
<path fill-rule="nonzero" fill="rgb(0%, 0%, 0%)" fill-opacity="1" d="M 175.246094 144.160156 C 173.058594 142.410156 169.902344 142.660156 168.246094 144.722656 C 166.527344 146.816406 167.058594 149.941406 169.183594 151.660156 C 171.371094 153.441406 174.402344 153.035156 176.027344 151.035156 C 177.652344 148.972656 177.402344 145.910156 175.246094 144.160156 Z M 175.589844 150.691406 C 174.996094 151.410156 174.058594 151.847656 172.902344 151.660156 C 171.777344 151.503906 170.746094 150.660156 170.152344 150.160156 C 169.496094 149.628906 168.558594 148.910156 168.152344 147.878906 C 167.746094 146.785156 168.058594 145.722656 168.621094 145.035156 C 169.214844 144.285156 170.183594 143.847656 171.246094 143.972656 C 172.339844 144.128906 173.339844 144.941406 173.996094 145.441406 C 174.589844 145.941406 175.527344 146.691406 175.933594 147.722656 C 176.402344 148.660156 176.277344 149.847656 175.589844 150.691406 Z M 175.589844 150.691406 "/>
<path fill-rule="nonzero" fill="rgb(0%, 0%, 0%)" fill-opacity="1" d="M 179.355469 140.578125 C 178.136719 142.046875 176.417969 140.671875 176.042969 140.359375 C 175.574219 139.984375 175.074219 139.546875 174.824219 138.921875 C 174.761719 138.640625 174.605469 137.859375 175.167969 137.203125 C 176.355469 135.703125 178.042969 137.078125 178.417969 137.390625 C 178.886719 137.765625 179.417969 138.234375 179.636719 138.828125 C 179.699219 139.109375 179.886719 139.890625 179.355469 140.578125 Z M 178.417969 143.046875 C 178.324219 143.015625 177.949219 142.703125 177.824219 142.140625 C 178.855469 141.859375 179.449219 141.234375 179.730469 140.921875 C 180.980469 139.328125 180.792969 137.203125 179.480469 136.140625 C 178.855469 135.640625 177.980469 135.390625 177.230469 135.515625 C 177.199219 134.421875 177.605469 133.765625 177.824219 133.453125 C 177.855469 133.421875 177.917969 133.328125 177.980469 133.296875 C 177.917969 133.515625 178.042969 133.734375 178.261719 133.921875 C 178.542969 134.171875 178.886719 134.109375 179.105469 133.859375 C 179.261719 133.671875 179.386719 133.265625 179.011719 132.953125 C 178.730469 132.703125 178.011719 132.484375 177.480469 133.140625 C 177.199219 133.453125 176.699219 134.296875 176.824219 135.578125 C 175.699219 135.828125 175.042969 136.515625 174.761719 136.890625 C 173.480469 138.453125 173.699219 140.546875 174.980469 141.609375 C 175.730469 142.203125 176.699219 142.390625 177.386719 142.234375 C 177.511719 142.671875 177.792969 143.421875 178.355469 143.921875 C 178.886719 144.328125 179.699219 144.640625 180.480469 144.390625 C 179.949219 145.609375 180.261719 146.734375 180.949219 147.296875 C 182.167969 148.265625 184.449219 147.390625 186.136719 145.328125 C 187.730469 143.328125 188.292969 140.828125 186.980469 139.765625 C 186.386719 139.265625 185.324219 138.828125 184.136719 139.328125 C 182.949219 139.859375 182.167969 140.828125 181.324219 141.859375 C 180.980469 142.296875 180.386719 143.015625 180.261719 143.109375 C 179.761719 143.578125 178.980469 143.515625 178.417969 143.046875 Z M 185.730469 145.015625 C 184.324219 146.703125 182.511719 147.140625 181.636719 146.421875 C 180.855469 145.765625 180.761719 144.640625 181.292969 143.859375 L 182.105469 142.859375 C 183.292969 141.421875 184.824219 139.515625 186.292969 140.703125 C 187.199219 141.453125 187.074219 143.328125 185.730469 145.015625 Z M 185.730469 145.015625 "/>
<path fill-rule="nonzero" fill="rgb(0%, 0%, 0%)" fill-opacity="1" d="M 190.867188 134.199219 C 191.085938 133.980469 191.242188 133.761719 191.023438 133.605469 C 190.804688 133.417969 190.679688 133.574219 190.492188 133.824219 L 188.585938 136.136719 C 187.679688 134.792969 187.554688 133.324219 188.585938 132.074219 L 188.929688 131.636719 C 189.117188 131.417969 189.304688 131.167969 189.085938 131.011719 C 188.898438 130.855469 188.773438 131.042969 188.554688 131.292969 L 188.148438 131.824219 C 186.742188 133.542969 186.367188 136.542969 188.585938 138.355469 C 190.335938 139.761719 192.273438 139.261719 193.367188 137.917969 C 194.148438 136.980469 194.367188 135.542969 194.179688 135.417969 C 194.054688 135.324219 193.898438 135.292969 193.804688 135.386719 C 193.742188 135.449219 193.742188 135.449219 193.773438 135.636719 C 193.679688 136.324219 193.492188 137.042969 193.054688 137.605469 C 192.367188 138.449219 191.148438 138.667969 189.929688 137.699219 C 189.742188 137.511719 189.367188 137.105469 188.960938 136.605469 Z M 190.867188 134.199219 "/>
<path fill-rule="nonzero" fill="rgb(0%, 0%, 0%)" fill-opacity="1" d="M 194.1875 114.988281 C 194.03125 114.675781 194 114.675781 193.875 114.582031 C 193.5625 114.300781 193.21875 114.457031 193.03125 114.707031 C 192.875 114.863281 192.75 115.207031 192.90625 115.582031 C 192.9375 115.675781 193.375 116.269531 193.625 116.550781 C 193.96875 117.019531 194.34375 117.519531 194.6875 117.988281 L 197.125 121.238281 C 197.3125 121.488281 197.9375 123.207031 197.03125 124.300781 C 196.34375 125.175781 195.4375 124.769531 194.8125 124.269531 C 194.03125 123.644531 193.1875 122.457031 192.1875 120.707031 C 191.6875 119.832031 191.59375 119.644531 191.25 119.363281 C 190.46875 118.738281 189.40625 118.800781 188.6875 119.644531 C 187.40625 121.238281 189.375 123.863281 189.53125 123.988281 C 189.6875 124.113281 189.8125 123.957031 189.84375 123.894531 C 190 123.738281 189.96875 123.707031 189.75 123.394531 C 188.5625 121.644531 188.59375 120.550781 189.03125 120.019531 C 189.15625 119.863281 189.40625 119.582031 189.9375 119.988281 C 190.375 120.363281 190.65625 120.863281 190.875 121.238281 C 192.125 123.394531 192.84375 124.488281 193.65625 125.144531 C 195.15625 126.363281 196.53125 125.707031 197.34375 124.675781 C 197.875 124.019531 198.0625 123.207031 197.9375 122.332031 C 198.6875 123.269531 199.375 124.175781 199.6875 125.550781 C 199.90625 126.425781 199.875 127.519531 199.25 128.300781 C 199.03125 128.550781 198.40625 129.238281 197.46875 128.988281 C 197.6875 128.738281 197.875 128.519531 197.875 128.113281 C 197.875 127.832031 197.78125 127.457031 197.4375 127.175781 C 196.9375 126.769531 196.5 127.175781 196.375 127.332031 C 196.0625 127.738281 195.84375 128.519531 196.6875 129.207031 C 197.53125 129.894531 198.78125 129.644531 199.625 128.582031 C 201.03125 126.832031 200.90625 123.832031 199.375 121.863281 Z M 194.1875 114.988281 "/>
<path fill="none" stroke-width="11.9553" stroke-linecap="butt" stroke-linejoin="miter" stroke="rgb(0%, 0%, 0%)" stroke-opacity="1" stroke-miterlimit="10" d="M 119.999998 481.601555 L 150.585935 490.312493 L 181.210935 499.531243 L 211.796872 509.257805 L 242.382809 519.49218 L 273.007808 530.27343 L 303.593745 541.679679 L 334.218745 553.671867 L 364.804682 566.328117 L 395.390619 579.687491 L 426.015619 593.789054 L 456.601556 608.632803 L 487.187493 624.296866 L 517.812492 640.820303 L 548.398429 658.203115 L 579.023429 676.56249 L 609.609366 695.93749 L 640.195303 716.367177 L 670.820303 737.890614 L 701.40624 760.624989 L 732.031239 784.570301 L 762.617176 809.843738 L 793.203113 836.484363 L 823.78905 864.5703 L 854.41405 894.218737 L 884.999987 925.429674 L 915.585924 958.398423 L 946.210923 993.124985 L 976.79686 1029.76561 L 1007.42186 1068.398422 L 1038.007797 1109.140608 L 1068.632797 1152.14842 L 1099.218734 1197.421857 L 1129.804671 1245.234356 L 1160.42967 1295.624981 L 1191.015607 1348.789042 L 1221.601544 1404.804667 L 1252.226544 1463.906228 L 1282.812481 1526.249977 L 1313.398418 1591.953101 L 1344.023417 1661.289038 " transform="matrix(0.2, 0, 0, -0.2, 0, 356)"/>
<path fill-rule="nonzero" fill="rgb(100%, 100%, 100%)" fill-opacity="1" d="M -5.304688 291.703125 L 23.976562 291.703125 L 23.976562 318.585938 L -5.304688 318.585938 Z M -5.304688 291.703125 "/>
<path fill-rule="nonzero" fill="rgb(0%, 0%, 0%)" fill-opacity="1" d="M 16.875 303.058594 C 16.875 299.527344 14.5625 297.183594 11.3125 297.183594 C 6.59375 297.183594 1.78125 302.121094 1.78125 307.214844 C 1.78125 310.839844 4.21875 313.027344 7.375 313.027344 C 12 313.027344 16.875 308.246094 16.875 303.058594 Z M 7.5 312.464844 C 5.34375 312.464844 3.8125 310.714844 3.8125 307.839844 C 3.8125 306.871094 4.125 303.683594 5.8125 301.121094 C 7.3125 298.871094 9.4375 297.714844 11.15625 297.714844 C 12.96875 297.714844 14.90625 298.933594 14.90625 302.183594 C 14.90625 303.777344 14.34375 307.183594 12.15625 309.839844 C 11.125 311.183594 9.34375 312.464844 7.5 312.464844 Z M 7.5 312.464844 "/>
<path fill-rule="nonzero" fill="rgb(100%, 100%, 100%)" fill-opacity="1" d="M 295.757812 291.703125 L 320.234375 291.703125 L 320.234375 313.0625 L 295.757812 313.0625 Z M 295.757812 291.703125 "/>
<path fill-rule="nonzero" fill="rgb(0%, 0%, 0%)" fill-opacity="1" d="M 309.0625 300.445312 C 309.1875 299.882812 309.6875 297.882812 311.21875 297.882812 C 311.34375 297.882812 311.84375 297.882812 312.3125 298.164062 C 311.71875 298.257812 311.28125 298.820312 311.28125 299.351562 C 311.28125 299.695312 311.5 300.101562 312.09375 300.101562 C 312.59375 300.101562 313.28125 299.695312 313.28125 298.851562 C 313.28125 297.695312 312 297.382812 311.25 297.382812 C 309.96875 297.382812 309.21875 298.539062 308.96875 299.070312 C 308.40625 297.601562 307.21875 297.382812 306.59375 297.382812 C 304.34375 297.382812 303.09375 300.226562 303.09375 300.757812 C 303.09375 300.976562 303.3125 300.976562 303.34375 300.976562 C 303.53125 300.976562 303.59375 300.945312 303.625 300.726562 C 304.375 298.414062 305.8125 297.882812 306.5625 297.882812 C 306.96875 297.882812 307.75 298.070312 307.75 299.351562 C 307.75 300.007812 307.375 301.476562 306.5625 304.539062 C 306.21875 305.882812 305.4375 306.789062 304.5 306.789062 C 304.34375 306.789062 303.84375 306.789062 303.40625 306.507812 C 303.9375 306.414062 304.40625 305.945312 304.40625 305.351562 C 304.40625 304.757812 303.9375 304.570312 303.625 304.570312 C 302.96875 304.570312 302.40625 305.132812 302.40625 305.851562 C 302.40625 306.851562 303.5 307.289062 304.46875 307.289062 C 305.90625 307.289062 306.6875 305.757812 306.75 305.632812 C 307.03125 306.414062 307.8125 307.289062 309.125 307.289062 C 311.34375 307.289062 312.59375 304.476562 312.59375 303.914062 C 312.59375 303.695312 312.40625 303.695312 312.34375 303.695312 C 312.15625 303.695312 312.09375 303.789062 312.0625 303.945312 C 311.34375 306.289062 309.84375 306.789062 309.15625 306.789062 C 308.3125 306.789062 307.96875 306.101562 307.96875 305.351562 C 307.96875 304.882812 308.09375 304.414062 308.3125 303.445312 Z M 309.0625 300.445312 "/>
<path fill-rule="nonzero" fill="rgb(100%, 100%, 100%)" fill-opacity="1" d="M 0.453125 -5.273438 L 23.976562 -5.273438 L 23.976562 20.40625 L 0.453125 20.40625 Z M 0.453125 -5.273438 "/>
<path fill-rule="nonzero" fill="rgb(0%, 0%, 0%)" fill-opacity="1" d="M 17.074219 1.988281 C 17.167969 1.675781 17.167969 1.644531 17.167969 1.488281 C 17.167969 1.082031 16.855469 0.894531 16.542969 0.894531 C 16.324219 0.894531 15.980469 1.019531 15.761719 1.363281 C 15.730469 1.457031 15.542969 2.144531 15.480469 2.550781 C 15.324219 3.113281 15.167969 3.707031 15.042969 4.269531 L 14.042969 8.207031 C 13.949219 8.519531 13.011719 10.050781 11.574219 10.050781 C 10.480469 10.050781 10.230469 9.113281 10.230469 8.300781 C 10.230469 7.300781 10.605469 5.925781 11.355469 4.019531 C 11.699219 3.113281 11.792969 2.894531 11.792969 2.457031 C 11.792969 1.457031 11.074219 0.644531 9.980469 0.644531 C 7.917969 0.644531 7.105469 3.832031 7.105469 4.019531 C 7.105469 4.238281 7.324219 4.238281 7.386719 4.238281 C 7.605469 4.238281 7.605469 4.207031 7.730469 3.832031 C 8.324219 1.800781 9.199219 1.144531 9.917969 1.144531 C 10.105469 1.144531 10.480469 1.144531 10.480469 1.832031 C 10.480469 2.394531 10.261719 2.957031 10.105469 3.363281 C 9.230469 5.675781 8.824219 6.925781 8.824219 7.957031 C 8.824219 9.894531 10.199219 10.550781 11.511719 10.550781 C 12.355469 10.550781 13.074219 10.175781 13.699219 9.550781 C 13.417969 10.707031 13.167969 11.769531 12.292969 12.925781 C 11.730469 13.644531 10.886719 14.300781 9.886719 14.300781 C 9.574219 14.300781 8.605469 14.238281 8.230469 13.363281 C 8.574219 13.363281 8.855469 13.363281 9.167969 13.113281 C 9.386719 12.925781 9.605469 12.644531 9.605469 12.207031 C 9.605469 11.550781 9.011719 11.457031 8.792969 11.457031 C 8.292969 11.457031 7.574219 11.800781 7.574219 12.863281 C 7.574219 13.957031 8.542969 14.769531 9.886719 14.769531 C 12.136719 14.769531 14.386719 12.800781 14.980469 10.332031 Z M 17.074219 1.988281 "/>
<path fill="none" stroke-width="11.9553" stroke-linecap="butt" stroke-linejoin="miter" stroke="rgb(0%, 0%, 0%)" stroke-opacity="1" stroke-miterlimit="10" d="M 4.804687 321.601558 L 1560.039039 321.601558 " transform="matrix(0.2, 0, 0, -0.2, 0, 356)"/>
<path fill="none" stroke-width="11.9553" stroke-linecap="butt" stroke-linejoin="miter" stroke="rgb(0%, 0%, 0%)" stroke-opacity="1" stroke-miterlimit="10" d="M 119.999998 289.609371 L 119.999998 1761.601536 " transform="matrix(0.2, 0, 0, -0.2, 0, 356)"/>
<path fill-rule="nonzero" fill="rgb(0%, 0%, 0%)" fill-opacity="1" d="M 123.597656 348.300781 C 124.785156 347.894531 126.785156 347.300781 126.785156 345.363281 C 126.785156 343.050781 124.066406 341.988281 122.097656 341.988281 C 121.160156 341.988281 120.191406 342.207031 119.347656 342.707031 C 119.222656 342.769531 119.066406 342.957031 118.910156 342.957031 C 118.597656 342.957031 118.035156 341.988281 117.722656 341.988281 C 117.535156 341.988281 117.503906 342.207031 117.503906 342.300781 L 117.503906 345.863281 C 117.503906 345.988281 117.597656 346.144531 117.785156 346.144531 C 118.097656 346.144531 118.066406 345.519531 118.160156 345.175781 C 118.628906 343.457031 120.191406 342.707031 121.691406 342.613281 L 122.097656 342.613281 C 123.441406 342.613281 125.003906 343.488281 125.003906 345.363281 C 125.003906 347.175781 123.222656 348.113281 121.566406 348.113281 C 121.253906 348.113281 120.941406 348.113281 120.628906 348.113281 L 120.472656 348.113281 C 120.285156 348.113281 120.066406 348.113281 120.066406 348.332031 L 120.066406 348.363281 C 120.097656 348.550781 120.285156 348.582031 120.472656 348.582031 L 122.316406 348.582031 C 123.878906 348.707031 125.316406 349.738281 125.472656 351.363281 L 125.472656 351.582031 C 125.472656 353.425781 123.753906 354.582031 122.003906 354.582031 C 120.097656 354.582031 118.128906 353.957031 117.816406 351.582031 C 117.816406 351.425781 117.753906 351.238281 117.535156 351.238281 C 117.316406 351.269531 117.285156 351.425781 117.285156 351.582031 C 117.285156 354.175781 119.878906 355.207031 122.128906 355.207031 C 124.191406 355.207031 127.066406 354.238281 127.316406 351.769531 L 127.316406 351.644531 C 127.316406 349.675781 125.253906 348.707031 123.597656 348.300781 Z M 123.597656 348.300781 "/>
<path fill-rule="nonzero" fill="rgb(0%, 0%, 0%)" fill-opacity="1" d="M 135.695312 341.988281 C 132.320312 342.394531 129.632812 345.050781 129.632812 348.644531 C 129.632812 351.925781 132.226562 355.175781 136.101562 355.175781 C 139.601562 355.175781 142.570312 352.269531 142.570312 348.644531 C 142.570312 345.457031 140.070312 341.988281 136.132812 341.988281 C 136.007812 341.988281 135.851562 341.988281 135.695312 341.988281 Z M 131.507812 348.863281 L 131.507812 348.519531 C 131.507812 346.019531 132.414062 343.082031 135.570312 342.550781 C 135.757812 342.519531 135.914062 342.519531 136.101562 342.519531 C 138.914062 342.519531 140.664062 345.238281 140.664062 348.269531 C 140.664062 350.675781 139.945312 353.738281 136.976562 354.519531 C 136.695312 354.582031 136.414062 354.613281 136.132812 354.613281 L 135.945312 354.613281 C 133.351562 354.519531 131.945312 352.050781 131.601562 349.644531 Z M 131.507812 348.863281 "/>
<path fill-rule="nonzero" fill="rgb(0%, 0%, 0%)" fill-opacity="1" d="M 145.027344 342.332031 L 145.027344 342.925781 L 145.464844 342.925781 C 146.058594 342.925781 146.683594 343.019531 146.683594 343.894531 L 146.683594 353.363281 C 146.683594 354.207031 145.964844 354.238281 145.308594 354.238281 L 145.027344 354.238281 L 145.027344 354.832031 L 150.808594 354.832031 C 151.214844 354.832031 151.589844 354.863281 151.996094 354.863281 C 153.996094 354.863281 156.339844 353.925781 156.558594 351.519531 L 156.558594 351.332031 C 156.558594 348.800781 153.683594 347.769531 151.777344 347.769531 C 150.527344 347.769531 149.339844 347.894531 148.152344 347.988281 L 148.152344 343.769531 C 148.152344 343.332031 148.214844 342.925781 148.996094 342.925781 L 151.308594 342.925781 C 152.277344 342.925781 153.371094 342.988281 154.089844 343.707031 C 154.777344 344.425781 154.871094 345.644531 154.964844 346.582031 L 155.496094 346.582031 L 155.027344 342.332031 Z M 148.152344 348.613281 C 148.402344 348.613281 148.652344 348.550781 148.902344 348.519531 L 150.277344 348.457031 C 150.558594 348.425781 150.839844 348.394531 151.152344 348.394531 C 152.714844 348.394531 154.683594 349.394531 154.683594 351.238281 C 154.683594 352.988281 153.339844 354.269531 151.339844 354.269531 C 151.058594 354.269531 150.746094 354.238281 150.496094 354.238281 L 148.964844 354.238281 C 148.496094 354.238281 148.246094 354.207031 148.152344 353.582031 Z M 148.152344 348.613281 "/>
<path fill-rule="nonzero" fill="rgb(0%, 0%, 0%)" fill-opacity="1" d="M 158.90625 342.332031 L 158.90625 342.925781 L 159.375 342.925781 C 159.96875 342.925781 160.5625 343.019531 160.5625 343.894531 L 160.5625 353.363281 C 160.5625 354.207031 159.875 354.238281 159.1875 354.238281 L 158.90625 354.238281 L 158.90625 354.832031 L 163.8125 354.832031 L 163.8125 354.238281 L 163.375 354.238281 C 162.75 354.238281 162.15625 354.175781 162.15625 353.300781 L 162.15625 349.113281 L 165.875 349.113281 C 167.65625 348.988281 169.9375 347.800781 169.9375 345.769531 C 169.9375 343.550781 167.59375 342.488281 165.6875 342.332031 Z M 162.125 348.582031 L 162.125 343.582031 C 162.21875 342.988281 162.46875 342.925781 162.875 342.925781 L 164.3125 342.925781 C 165.9375 342.925781 168.0625 342.988281 168.0625 345.769531 C 168.0625 346.425781 167.96875 347.113281 167.5625 347.613281 C 166.90625 348.394531 165.8125 348.582031 164.84375 348.582031 Z M 162.125 348.582031 "/>
<path fill-rule="nonzero" fill="rgb(0%, 0%, 0%)" fill-opacity="1" d="M 174.632812 352.550781 C 174.132812 352.644531 173.632812 353.082031 173.632812 353.675781 C 173.632812 354.300781 174.164062 354.832031 174.789062 354.832031 C 175.414062 354.832031 175.976562 354.363281 175.976562 353.707031 C 175.976562 353.082031 175.445312 352.519531 174.820312 352.519531 C 174.757812 352.519531 174.695312 352.550781 174.632812 352.550781 Z M 174.632812 352.550781 "/>
<path fill-rule="nonzero" fill="rgb(0%, 0%, 0%)" fill-opacity="1" d="M 190.035156 341.113281 C 190.722656 340.050781 192.097656 339.519531 193.378906 339.519531 C 194.816406 339.519531 195.972656 340.425781 195.972656 342.269531 C 195.972656 343.800781 195.222656 345.675781 193.628906 346.082031 C 193.066406 346.238281 191.566406 346.082031 191.566406 346.519531 C 191.566406 346.707031 191.753906 346.769531 191.941406 346.769531 L 193.222656 346.769531 C 195.566406 346.769531 196.441406 348.738281 196.441406 350.550781 C 196.441406 352.300781 195.816406 354.707031 193.410156 354.707031 C 191.816406 354.707031 190.285156 353.988281 189.410156 352.582031 L 189.628906 352.582031 C 190.316406 352.582031 190.910156 352.175781 190.910156 351.425781 C 190.910156 350.707031 190.378906 350.238281 189.691406 350.238281 L 189.597656 350.238281 C 188.941406 350.269531 188.503906 350.800781 188.503906 351.425781 C 188.503906 353.894531 191.066406 355.332031 193.503906 355.332031 C 196.097656 355.332031 198.660156 353.488281 198.660156 350.738281 C 198.660156 348.613281 196.628906 346.550781 194.410156 346.457031 C 196.285156 345.800781 197.972656 344.425781 197.972656 342.269531 C 197.972656 340.082031 195.566406 338.957031 193.535156 338.957031 C 191.660156 338.957031 189.191406 339.863281 189.191406 342.113281 C 189.191406 342.675781 189.441406 343.175781 190.191406 343.300781 L 190.285156 343.300781 C 190.941406 343.300781 191.410156 342.863281 191.410156 342.207031 C 191.410156 341.488281 190.847656 341.082031 190.253906 341.082031 C 190.191406 341.082031 190.128906 341.113281 190.035156 341.113281 Z M 190.035156 341.113281 "/>
<path fill-rule="nonzero" fill="rgb(0%, 0%, 0%)" fill-opacity="1" d="M 209.339844 347.050781 L 209.371094 347.050781 C 209.371094 349.175781 209.339844 351.550781 207.933594 353.300781 C 207.246094 354.144531 206.277344 354.707031 205.152344 354.707031 C 204.246094 354.707031 203.277344 354.519531 202.683594 353.800781 C 203.246094 353.800781 203.839844 353.582031 203.839844 352.832031 C 203.839844 352.332031 203.527344 351.800781 202.871094 351.800781 C 202.339844 351.800781 201.871094 352.175781 201.839844 352.738281 L 201.839844 352.832031 C 201.839844 354.613281 203.558594 355.332031 205.246094 355.332031 C 207.277344 355.332031 208.839844 354.113281 209.839844 352.519531 C 210.964844 350.863281 211.339844 348.894531 211.339844 346.957031 C 211.339844 344.144531 210.871094 340.425781 207.871094 339.207031 C 207.371094 339.019531 206.808594 338.957031 206.277344 338.957031 C 203.308594 338.957031 201.277344 341.582031 201.277344 344.332031 C 201.277344 346.832031 203.027344 349.613281 205.964844 349.613281 C 207.464844 349.613281 208.902344 348.675781 209.339844 347.050781 Z M 209.308594 344.238281 C 209.308594 344.457031 209.339844 344.707031 209.339844 344.957031 C 209.246094 346.707031 208.433594 349.113281 206.121094 349.113281 C 203.746094 349.113281 203.246094 346.488281 203.246094 344.644531 L 203.246094 343.488281 C 203.277344 341.800781 203.996094 339.519531 206.277344 339.519531 C 208.777344 339.519531 209.308594 342.488281 209.308594 344.019531 Z M 209.308594 344.238281 "/>
<path fill-rule="nonzero" fill="rgb(0%, 0%, 0%)" fill-opacity="1" d="M 216.140625 352.550781 C 215.640625 352.644531 215.140625 353.082031 215.140625 353.675781 C 215.140625 354.300781 215.671875 354.832031 216.296875 354.832031 C 216.921875 354.832031 217.484375 354.363281 217.484375 353.707031 C 217.484375 353.082031 216.953125 352.519531 216.328125 352.519531 C 216.265625 352.519531 216.203125 352.550781 216.140625 352.550781 Z M 216.140625 352.550781 "/>
</svg>
