<?xml version="1.0" encoding="UTF-8"?>
<svg xmlns="http://www.w3.org/2000/svg" xmlns:xlink="http://www.w3.org/1999/xlink" width="420" height="334" viewBox="0 0 420 334">
<path fill="none" stroke-width="11.9553" stroke-linecap="butt" stroke-linejoin="miter" stroke="rgb(0%, 0%, 0%)" stroke-opacity="1" stroke-miterlimit="10" d="M 269.999996 741.601551 L 1877.187472 1660.351538 " transform="matrix(0.2, 0, 0, -0.2, 0, 334)"/>
<path fill="none" stroke-width="7.9701" stroke-linecap="butt" stroke-linejoin="miter" stroke="rgb(0%, 0%, 0%)" stroke-opacity="1" stroke-miterlimit="10" d="M 527.14843 321.601558 L 527.14843 349.960932 " transform="matrix(0.2, 0, 0, -0.2, 0, 334)"/>
<path fill="none" stroke-width="7.9701" stroke-linecap="butt" stroke-linejoin="miter" stroke="rgb(0%, 0%, 0%)" stroke-opacity="1" stroke-miterlimit="10" d="M 527.14843 406.640619 L 527.14843 434.999994 " transform="matrix(0.2, 0, 0, -0.2, 0, 334)"/>
<path fill="none" stroke-width="7.9701" stroke-linecap="butt" stroke-linejoin="miter" stroke="rgb(0%, 0%, 0%)" stroke-opacity="1" stroke-miterlimit="10" d="M 527.14843 434.999994 L 527.14843 463.359368 " transform="matrix(0.2, 0, 0, -0.2, 0, 334)"/>
<path fill="none" stroke-width="7.9701" stroke-linecap="butt" stroke-linejoin="miter" stroke="rgb(0%, 0%, 0%)" stroke-opacity="1" stroke-miterlimit="10" d="M 527.14843 520.039055 L 527.14843 548.398429 " transform="matrix(0.2, 0, 0, -0.2, 0, 334)"/>
<path fill="none" stroke-width="7.9701" stroke-linecap="butt" stroke-linejoin="miter" stroke="rgb(0%, 0%, 0%)" stroke-opacity="1" stroke-miterlimit="10" d="M 527.14843 548.398429 L 527.14843 576.757804 " transform="matrix(0.2, 0, 0, -0.2, 0, 334)"/>
<path fill="none" stroke-width="7.9701" stroke-linecap="butt" stroke-linejoin="miter" stroke="rgb(0%, 0%, 0%)" stroke-opacity="1" stroke-miterlimit="10" d="M 527.14843 633.437491 L 527.14843 661.796865 " transform="matrix(0.2, 0, 0, -0.2, 0, 334)"/>
<path fill="none" stroke-width="7.9701" stroke-linecap="butt" stroke-linejoin="miter" stroke="rgb(0%, 0%, 0%)" stroke-opacity="1" stroke-miterlimit="10" d="M 527.14843 661.796865 L 527.14843 690.15624 " transform="matrix(0.2, 0, 0, -0.2, 0, 334)"/>
<path fill="none" stroke-width="7.9701" stroke-linecap="butt" stroke-linejoin="miter" stroke="rgb(0%, 0%, 0%)" stroke-opacity="1" stroke-miterlimit="10" d="M 527.14843 746.835926 L 527.14843 775.195301 " transform="matrix(0.2, 0, 0, -0.2, 0, 334)"/>
<path fill="none" stroke-width="7.9701" stroke-linecap="butt" stroke-linejoin="miter" stroke="rgb(0%, 0%, 0%)" stroke-opacity="1" stroke-miterlimit="10" d="M 527.14843 775.195301 L 527.14843 803.554676 " transform="matrix(0.2, 0, 0, -0.2, 0, 334)"/>
<path fill="none" stroke-width="7.9701" stroke-linecap="butt" stroke-linejoin="miter" stroke="rgb(0%, 0%, 0%)" stroke-opacity="1" stroke-miterlimit="10" d="M 527.14843 860.273425 L 527.14843 888.593737 " transform="matrix(0.2, 0, 0, -0.2, 0, 334)"/>
<path fill="none" stroke-width="11.9553" stroke-linecap="butt" stroke-linejoin="miter" stroke="rgb(0%, 0%, 0%)" stroke-opacity="1" stroke-miterlimit="10" d="M 269.999996 741.601551 L 527.14843 741.601551 " transform="matrix(0.2, 0, 0, -0.2, 0, 334)"/>
<path fill="none" stroke-width="11.9553" stroke-linecap="butt" stroke-linejoin="miter" stroke="rgb(0%, 0%, 0%)" stroke-opacity="1" stroke-miterlimit="10" d="M 527.14843 888.593737 L 527.14843 741.601551 " transform="matrix(0.2, 0, 0, -0.2, 0, 334)"/>
<path fill="none" stroke-width="7.9701" stroke-linecap="butt" stroke-linejoin="miter" stroke="rgb(0%, 0%, 0%)" stroke-opacity="1" stroke-miterlimit="10" d="M 784.296863 321.601558 L 784.296863 351.367182 " transform="matrix(0.2, 0, 0, -0.2, 0, 334)"/>
<path fill="none" stroke-width="7.9701" stroke-linecap="butt" stroke-linejoin="miter" stroke="rgb(0%, 0%, 0%)" stroke-opacity="1" stroke-miterlimit="10" d="M 784.296863 410.859369 L 784.296863 440.585931 " transform="matrix(0.2, 0, 0, -0.2, 0, 334)"/>
<path fill="none" stroke-width="7.9701" stroke-linecap="butt" stroke-linejoin="miter" stroke="rgb(0%, 0%, 0%)" stroke-opacity="1" stroke-miterlimit="10" d="M 784.296863 440.585931 L 784.296863 470.351555 " transform="matrix(0.2, 0, 0, -0.2, 0, 334)"/>
<path fill="none" stroke-width="7.9701" stroke-linecap="butt" stroke-linejoin="miter" stroke="rgb(0%, 0%, 0%)" stroke-opacity="1" stroke-miterlimit="10" d="M 784.296863 529.843742 L 784.296863 559.609367 " transform="matrix(0.2, 0, 0, -0.2, 0, 334)"/>
<path fill="none" stroke-width="7.9701" stroke-linecap="butt" stroke-linejoin="miter" stroke="rgb(0%, 0%, 0%)" stroke-opacity="1" stroke-miterlimit="10" d="M 784.296863 559.609367 L 784.296863 589.335929 " transform="matrix(0.2, 0, 0, -0.2, 0, 334)"/>
<path fill="none" stroke-width="7.9701" stroke-linecap="butt" stroke-linejoin="miter" stroke="rgb(0%, 0%, 0%)" stroke-opacity="1" stroke-miterlimit="10" d="M 784.296863 648.867178 L 784.296863 678.59374 " transform="matrix(0.2, 0, 0, -0.2, 0, 334)"/>
<path fill="none" stroke-width="7.9701" stroke-linecap="butt" stroke-linejoin="miter" stroke="rgb(0%, 0%, 0%)" stroke-opacity="1" stroke-miterlimit="10" d="M 784.296863 678.59374 L 784.296863 708.359364 " transform="matrix(0.2, 0, 0, -0.2, 0, 334)"/>
<path fill="none" stroke-width="7.9701" stroke-linecap="butt" stroke-linejoin="miter" stroke="rgb(0%, 0%, 0%)" stroke-opacity="1" stroke-miterlimit="10" d="M 784.296863 767.851551 L 784.296863 797.617176 " transform="matrix(0.2, 0, 0, -0.2, 0, 334)"/>
<path fill="none" stroke-width="7.9701" stroke-linecap="butt" stroke-linejoin="miter" stroke="rgb(0%, 0%, 0%)" stroke-opacity="1" stroke-miterlimit="10" d="M 784.296863 797.617176 L 784.296863 827.343738 " transform="matrix(0.2, 0, 0, -0.2, 0, 334)"/>
<path fill="none" stroke-width="7.9701" stroke-linecap="butt" stroke-linejoin="miter" stroke="rgb(0%, 0%, 0%)" stroke-opacity="1" stroke-miterlimit="10" d="M 784.296863 886.835924 L 784.296863 916.601549 " transform="matrix(0.2, 0, 0, -0.2, 0, 334)"/>
<path fill="none" stroke-width="7.9701" stroke-linecap="butt" stroke-linejoin="miter" stroke="rgb(0%, 0%, 0%)" stroke-opacity="1" stroke-miterlimit="10" d="M 784.296863 916.601549 L 784.296863 946.367173 " transform="matrix(0.2, 0, 0, -0.2, 0, 334)"/>
<path fill="none" stroke-width="7.9701" stroke-linecap="butt" stroke-linejoin="miter" stroke="rgb(0%, 0%, 0%)" stroke-opacity="1" stroke-miterlimit="10" d="M 784.296863 1005.85936 L 784.296863 1035.624985 " transform="matrix(0.2, 0, 0, -0.2, 0, 334)"/>
<path fill="none" stroke-width="11.9553" stroke-linecap="butt" stroke-linejoin="miter" stroke="rgb(0%, 0%, 0%)" stroke-opacity="1" stroke-miterlimit="10" d="M 527.14843 888.593737 L 784.296863 888.593737 " transform="matrix(0.2, 0, 0, -0.2, 0, 334)"/>
<path fill="none" stroke-width="11.9553" stroke-linecap="butt" stroke-linejoin="miter" stroke="rgb(0%, 0%, 0%)" stroke-opacity="1" stroke-miterlimit="10" d="M 784.296863 1035.624985 L 784.296863 888.593737 " transform="matrix(0.2, 0, 0, -0.2, 0, 334)"/>
<path fill="none" stroke-width="7.9701" stroke-linecap="butt" stroke-linejoin="miter" stroke="rgb(0%, 0%, 0%)" stroke-opacity="1" stroke-miterlimit="10" d="M 1041.445297 321.601558 L 1041.445297 348.51562 " transform="matrix(0.2, 0, 0, -0.2, 0, 334)"/>
<path fill="none" stroke-width="7.9701" stroke-linecap="butt" stroke-linejoin="miter" stroke="rgb(0%, 0%, 0%)" stroke-opacity="1" stroke-miterlimit="10" d="M 1041.445297 402.304682 L 1041.445297 429.218744 " transform="matrix(0.2, 0, 0, -0.2, 0, 334)"/>
<path fill="none" stroke-width="7.9701" stroke-linecap="butt" stroke-linejoin="miter" stroke="rgb(0%, 0%, 0%)" stroke-opacity="1" stroke-miterlimit="10" d="M 1041.445297 429.218744 L 1041.445297 456.132806 " transform="matrix(0.2, 0, 0, -0.2, 0, 334)"/>
<path fill="none" stroke-width="7.9701" stroke-linecap="butt" stroke-linejoin="miter" stroke="rgb(0%, 0%, 0%)" stroke-opacity="1" stroke-miterlimit="10" d="M 1041.445297 509.921867 L 1041.445297 536.874992 " transform="matrix(0.2, 0, 0, -0.2, 0, 334)"/>
<path fill="none" stroke-width="7.9701" stroke-linecap="butt" stroke-linejoin="miter" stroke="rgb(0%, 0%, 0%)" stroke-opacity="1" stroke-miterlimit="10" d="M 1041.445297 536.874992 L 1041.445297 563.749992 " transform="matrix(0.2, 0, 0, -0.2, 0, 334)"/>
<path fill="none" stroke-width="7.9701" stroke-linecap="butt" stroke-linejoin="miter" stroke="rgb(0%, 0%, 0%)" stroke-opacity="1" stroke-miterlimit="10" d="M 1041.445297 617.578116 L 1041.445297 644.492178 " transform="matrix(0.2, 0, 0, -0.2, 0, 334)"/>
<path fill="none" stroke-width="7.9701" stroke-linecap="butt" stroke-linejoin="miter" stroke="rgb(0%, 0%, 0%)" stroke-opacity="1" stroke-miterlimit="10" d="M 1041.445297 644.492178 L 1041.445297 671.40624 " transform="matrix(0.2, 0, 0, -0.2, 0, 334)"/>
<path fill="none" stroke-width="7.9701" stroke-linecap="butt" stroke-linejoin="miter" stroke="rgb(0%, 0%, 0%)" stroke-opacity="1" stroke-miterlimit="10" d="M 1041.445297 725.195302 L 1041.445297 752.109364 " transform="matrix(0.2, 0, 0, -0.2, 0, 334)"/>
<path fill="none" stroke-width="7.9701" stroke-linecap="butt" stroke-linejoin="miter" stroke="rgb(0%, 0%, 0%)" stroke-opacity="1" stroke-miterlimit="10" d="M 1041.445297 752.109364 L 1041.445297 779.023426 " transform="matrix(0.2, 0, 0, -0.2, 0, 334)"/>
<path fill="none" stroke-width="7.9701" stroke-linecap="butt" stroke-linejoin="miter" stroke="rgb(0%, 0%, 0%)" stroke-opacity="1" stroke-miterlimit="10" d="M 1041.445297 832.812488 L 1041.445297 859.72655 " transform="matrix(0.2, 0, 0, -0.2, 0, 334)"/>
<path fill="none" stroke-width="7.9701" stroke-linecap="butt" stroke-linejoin="miter" stroke="rgb(0%, 0%, 0%)" stroke-opacity="1" stroke-miterlimit="10" d="M 1041.445297 859.72655 L 1041.445297 886.640612 " transform="matrix(0.2, 0, 0, -0.2, 0, 334)"/>
<path fill="none" stroke-width="7.9701" stroke-linecap="butt" stroke-linejoin="miter" stroke="rgb(0%, 0%, 0%)" stroke-opacity="1" stroke-miterlimit="10" d="M 1041.445297 940.468736 L 1041.445297 967.343736 " transform="matrix(0.2, 0, 0, -0.2, 0, 334)"/>
<path fill="none" stroke-width="7.9701" stroke-linecap="butt" stroke-linejoin="miter" stroke="rgb(0%, 0%, 0%)" stroke-opacity="1" stroke-miterlimit="10" d="M 1041.445297 967.343736 L 1041.445297 994.257798 " transform="matrix(0.2, 0, 0, -0.2, 0, 334)"/>
<path fill="none" stroke-width="7.9701" stroke-linecap="butt" stroke-linejoin="miter" stroke="rgb(0%, 0%, 0%)" stroke-opacity="1" stroke-miterlimit="10" d="M 1041.445297 1048.085922 L 1041.445297 1074.960921 " transform="matrix(0.2, 0, 0, -0.2, 0, 334)"/>
<path fill="none" stroke-width="7.9701" stroke-linecap="butt" stroke-linejoin="miter" stroke="rgb(0%, 0%, 0%)" stroke-opacity="1" stroke-miterlimit="10" d="M 1041.445297 1074.960921 L 1041.445297 1101.874984 " transform="matrix(0.2, 0, 0, -0.2, 0, 334)"/>
<path fill="none" stroke-width="7.9701" stroke-linecap="butt" stroke-linejoin="miter" stroke="rgb(0%, 0%, 0%)" stroke-opacity="1" stroke-miterlimit="10" d="M 1041.445297 1155.703108 L 1041.445297 1182.61717 " transform="matrix(0.2, 0, 0, -0.2, 0, 334)"/>
<path fill="none" stroke-width="11.9553" stroke-linecap="butt" stroke-linejoin="miter" stroke="rgb(0%, 0%, 0%)" stroke-opacity="1" stroke-miterlimit="10" d="M 784.296863 1035.624985 L 1041.445297 1035.624985 " transform="matrix(0.2, 0, 0, -0.2, 0, 334)"/>
<path fill="none" stroke-width="11.9553" stroke-linecap="butt" stroke-linejoin="miter" stroke="rgb(0%, 0%, 0%)" stroke-opacity="1" stroke-miterlimit="10" d="M 1041.445297 1182.61717 L 1041.445297 1035.624985 " transform="matrix(0.2, 0, 0, -0.2, 0, 334)"/>
<path fill="none" stroke-width="7.9701" stroke-linecap="butt" stroke-linejoin="miter" stroke="rgb(0%, 0%, 0%)" stroke-opacity="1" stroke-miterlimit="10" d="M 1298.593731 321.601558 L 1298.593731 349.60937 " transform="matrix(0.2, 0, 0, -0.2, 0, 334)"/>
<path fill="none" stroke-width="7.9701" stroke-linecap="butt" stroke-linejoin="miter" stroke="rgb(0%, 0%, 0%)" stroke-opacity="1" stroke-miterlimit="10" d="M 1298.593731 405.585931 L 1298.593731 433.593744 " transform="matrix(0.2, 0, 0, -0.2, 0, 334)"/>
<path fill="none" stroke-width="7.9701" stroke-linecap="butt" stroke-linejoin="miter" stroke="rgb(0%, 0%, 0%)" stroke-opacity="1" stroke-miterlimit="10" d="M 1298.593731 433.593744 L 1298.593731 461.601556 " transform="matrix(0.2, 0, 0, -0.2, 0, 334)"/>
<path fill="none" stroke-width="7.9701" stroke-linecap="butt" stroke-linejoin="miter" stroke="rgb(0%, 0%, 0%)" stroke-opacity="1" stroke-miterlimit="10" d="M 1298.593731 517.61718 L 1298.593731 545.585929 " transform="matrix(0.2, 0, 0, -0.2, 0, 334)"/>
<path fill="none" stroke-width="7.9701" stroke-linecap="butt" stroke-linejoin="miter" stroke="rgb(0%, 0%, 0%)" stroke-opacity="1" stroke-miterlimit="10" d="M 1298.593731 545.585929 L 1298.593731 573.593741 " transform="matrix(0.2, 0, 0, -0.2, 0, 334)"/>
<path fill="none" stroke-width="7.9701" stroke-linecap="butt" stroke-linejoin="miter" stroke="rgb(0%, 0%, 0%)" stroke-opacity="1" stroke-miterlimit="10" d="M 1298.593731 629.609366 L 1298.593731 657.617178 " transform="matrix(0.2, 0, 0, -0.2, 0, 334)"/>
<path fill="none" stroke-width="7.9701" stroke-linecap="butt" stroke-linejoin="miter" stroke="rgb(0%, 0%, 0%)" stroke-opacity="1" stroke-miterlimit="10" d="M 1298.593731 657.617178 L 1298.593731 685.585927 " transform="matrix(0.2, 0, 0, -0.2, 0, 334)"/>
<path fill="none" stroke-width="7.9701" stroke-linecap="butt" stroke-linejoin="miter" stroke="rgb(0%, 0%, 0%)" stroke-opacity="1" stroke-miterlimit="10" d="M 1298.593731 741.601551 L 1298.593731 769.609364 " transform="matrix(0.2, 0, 0, -0.2, 0, 334)"/>
<path fill="none" stroke-width="7.9701" stroke-linecap="butt" stroke-linejoin="miter" stroke="rgb(0%, 0%, 0%)" stroke-opacity="1" stroke-miterlimit="10" d="M 1298.593731 769.609364 L 1298.593731 797.617176 " transform="matrix(0.2, 0, 0, -0.2, 0, 334)"/>
<path fill="none" stroke-width="7.9701" stroke-linecap="butt" stroke-linejoin="miter" stroke="rgb(0%, 0%, 0%)" stroke-opacity="1" stroke-miterlimit="10" d="M 1298.593731 853.593737 L 1298.593731 881.601549 " transform="matrix(0.2, 0, 0, -0.2, 0, 334)"/>
<path fill="none" stroke-width="7.9701" stroke-linecap="butt" stroke-linejoin="miter" stroke="rgb(0%, 0%, 0%)" stroke-opacity="1" stroke-miterlimit="10" d="M 1298.593731 881.601549 L 1298.593731 909.609361 " transform="matrix(0.2, 0, 0, -0.2, 0, 334)"/>
<path fill="none" stroke-width="7.9701" stroke-linecap="butt" stroke-linejoin="miter" stroke="rgb(0%, 0%, 0%)" stroke-opacity="1" stroke-miterlimit="10" d="M 1298.593731 965.585923 L 1298.593731 993.593735 " transform="matrix(0.2, 0, 0, -0.2, 0, 334)"/>
<path fill="none" stroke-width="7.9701" stroke-linecap="butt" stroke-linejoin="miter" stroke="rgb(0%, 0%, 0%)" stroke-opacity="1" stroke-miterlimit="10" d="M 1298.593731 993.593735 L 1298.593731 1021.601547 " transform="matrix(0.2, 0, 0, -0.2, 0, 334)"/>
<path fill="none" stroke-width="7.9701" stroke-linecap="butt" stroke-linejoin="miter" stroke="rgb(0%, 0%, 0%)" stroke-opacity="1" stroke-miterlimit="10" d="M 1298.593731 1077.617171 L 1298.593731 1105.624984 " transform="matrix(0.2, 0, 0, -0.2, 0, 334)"/>
<path fill="none" stroke-width="7.9701" stroke-linecap="butt" stroke-linejoin="miter" stroke="rgb(0%, 0%, 0%)" stroke-opacity="1" stroke-miterlimit="10" d="M 1298.593731 1105.624984 L 1298.593731 1133.593733 " transform="matrix(0.2, 0, 0, -0.2, 0, 334)"/>
<path fill="none" stroke-width="7.9701" stroke-linecap="butt" stroke-linejoin="miter" stroke="rgb(0%, 0%, 0%)" stroke-opacity="1" stroke-miterlimit="10" d="M 1298.593731 1189.609357 L 1298.593731 1217.617169 " transform="matrix(0.2, 0, 0, -0.2, 0, 334)"/>
<path fill="none" stroke-width="7.9701" stroke-linecap="butt" stroke-linejoin="miter" stroke="rgb(0%, 0%, 0%)" stroke-opacity="1" stroke-miterlimit="10" d="M 1298.593731 1217.617169 L 1298.593731 1245.624981 " transform="matrix(0.2, 0, 0, -0.2, 0, 334)"/>
<path fill="none" stroke-width="7.9701" stroke-linecap="butt" stroke-linejoin="miter" stroke="rgb(0%, 0%, 0%)" stroke-opacity="1" stroke-miterlimit="10" d="M 1298.593731 1301.601543 L 1298.593731 1329.609355 " transform="matrix(0.2, 0, 0, -0.2, 0, 334)"/>
<path fill="none" stroke-width="11.9553" stroke-linecap="butt" stroke-linejoin="miter" stroke="rgb(0%, 0%, 0%)" stroke-opacity="1" stroke-miterlimit="10" d="M 1041.445297 1182.61717 L 1298.593731 1182.61717 " transform="matrix(0.2, 0, 0, -0.2, 0, 334)"/>
<path fill="none" stroke-width="11.9553" stroke-linecap="butt" stroke-linejoin="miter" stroke="rgb(0%, 0%, 0%)" stroke-opacity="1" stroke-miterlimit="10" d="M 1298.593731 1329.609355 L 1298.593731 1182.61717 " transform="matrix(0.2, 0, 0, -0.2, 0, 334)"/>
<path fill="none" stroke-width="7.9701" stroke-linecap="butt" stroke-linejoin="miter" stroke="rgb(0%, 0%, 0%)" stroke-opacity="1" stroke-miterlimit="10" d="M 1555.703102 321.601558 L 1555.703102 350.468745 " transform="matrix(0.2, 0, 0, -0.2, 0, 334)"/>
<path fill="none" stroke-width="7.9701" stroke-linecap="butt" stroke-linejoin="miter" stroke="rgb(0%, 0%, 0%)" stroke-opacity="1" stroke-miterlimit="10" d="M 1555.703102 408.242181 L 1555.703102 437.109368 " transform="matrix(0.2, 0, 0, -0.2, 0, 334)"/>
<path fill="none" stroke-width="7.9701" stroke-linecap="butt" stroke-linejoin="miter" stroke="rgb(0%, 0%, 0%)" stroke-opacity="1" stroke-miterlimit="10" d="M 1555.703102 437.109368 L 1555.703102 465.976556 " transform="matrix(0.2, 0, 0, -0.2, 0, 334)"/>
<path fill="none" stroke-width="7.9701" stroke-linecap="butt" stroke-linejoin="miter" stroke="rgb(0%, 0%, 0%)" stroke-opacity="1" stroke-miterlimit="10" d="M 1555.703102 523.71093 L 1555.703102 552.617179 " transform="matrix(0.2, 0, 0, -0.2, 0, 334)"/>
<path fill="none" stroke-width="7.9701" stroke-linecap="butt" stroke-linejoin="miter" stroke="rgb(0%, 0%, 0%)" stroke-opacity="1" stroke-miterlimit="10" d="M 1555.703102 552.617179 L 1555.703102 581.484366 " transform="matrix(0.2, 0, 0, -0.2, 0, 334)"/>
<path fill="none" stroke-width="7.9701" stroke-linecap="butt" stroke-linejoin="miter" stroke="rgb(0%, 0%, 0%)" stroke-opacity="1" stroke-miterlimit="10" d="M 1555.703102 639.21874 L 1555.703102 668.085928 " transform="matrix(0.2, 0, 0, -0.2, 0, 334)"/>
<path fill="none" stroke-width="7.9701" stroke-linecap="butt" stroke-linejoin="miter" stroke="rgb(0%, 0%, 0%)" stroke-opacity="1" stroke-miterlimit="10" d="M 1555.703102 668.085928 L 1555.703102 696.992177 " transform="matrix(0.2, 0, 0, -0.2, 0, 334)"/>
<path fill="none" stroke-width="7.9701" stroke-linecap="butt" stroke-linejoin="miter" stroke="rgb(0%, 0%, 0%)" stroke-opacity="1" stroke-miterlimit="10" d="M 1555.703102 754.726551 L 1555.703102 783.593738 " transform="matrix(0.2, 0, 0, -0.2, 0, 334)"/>
<path fill="none" stroke-width="7.9701" stroke-linecap="butt" stroke-linejoin="miter" stroke="rgb(0%, 0%, 0%)" stroke-opacity="1" stroke-miterlimit="10" d="M 1555.703102 783.593738 L 1555.703102 812.499988 " transform="matrix(0.2, 0, 0, -0.2, 0, 334)"/>
<path fill="none" stroke-width="7.9701" stroke-linecap="butt" stroke-linejoin="miter" stroke="rgb(0%, 0%, 0%)" stroke-opacity="1" stroke-miterlimit="10" d="M 1555.703102 870.234362 L 1555.703102 899.101549 " transform="matrix(0.2, 0, 0, -0.2, 0, 334)"/>
<path fill="none" stroke-width="7.9701" stroke-linecap="butt" stroke-linejoin="miter" stroke="rgb(0%, 0%, 0%)" stroke-opacity="1" stroke-miterlimit="10" d="M 1555.703102 899.101549 L 1555.703102 927.968736 " transform="matrix(0.2, 0, 0, -0.2, 0, 334)"/>
<path fill="none" stroke-width="7.9701" stroke-linecap="butt" stroke-linejoin="miter" stroke="rgb(0%, 0%, 0%)" stroke-opacity="1" stroke-miterlimit="10" d="M 1555.703102 985.742173 L 1555.703102 1014.60936 " transform="matrix(0.2, 0, 0, -0.2, 0, 334)"/>
<path fill="none" stroke-width="7.9701" stroke-linecap="butt" stroke-linejoin="miter" stroke="rgb(0%, 0%, 0%)" stroke-opacity="1" stroke-miterlimit="10" d="M 1555.703102 1014.60936 L 1555.703102 1043.476547 " transform="matrix(0.2, 0, 0, -0.2, 0, 334)"/>
<path fill="none" stroke-width="7.9701" stroke-linecap="butt" stroke-linejoin="miter" stroke="rgb(0%, 0%, 0%)" stroke-opacity="1" stroke-miterlimit="10" d="M 1555.703102 1101.210921 L 1555.703102 1130.117171 " transform="matrix(0.2, 0, 0, -0.2, 0, 334)"/>
<path fill="none" stroke-width="7.9701" stroke-linecap="butt" stroke-linejoin="miter" stroke="rgb(0%, 0%, 0%)" stroke-opacity="1" stroke-miterlimit="10" d="M 1555.703102 1130.117171 L 1555.703102 1158.984358 " transform="matrix(0.2, 0, 0, -0.2, 0, 334)"/>
<path fill="none" stroke-width="7.9701" stroke-linecap="butt" stroke-linejoin="miter" stroke="rgb(0%, 0%, 0%)" stroke-opacity="1" stroke-miterlimit="10" d="M 1555.703102 1216.718732 L 1555.703102 1245.624981 " transform="matrix(0.2, 0, 0, -0.2, 0, 334)"/>
<path fill="none" stroke-width="7.9701" stroke-linecap="butt" stroke-linejoin="miter" stroke="rgb(0%, 0%, 0%)" stroke-opacity="1" stroke-miterlimit="10" d="M 1555.703102 1245.624981 L 1555.703102 1274.492169 " transform="matrix(0.2, 0, 0, -0.2, 0, 334)"/>
<path fill="none" stroke-width="7.9701" stroke-linecap="butt" stroke-linejoin="miter" stroke="rgb(0%, 0%, 0%)" stroke-opacity="1" stroke-miterlimit="10" d="M 1555.703102 1332.265605 L 1555.703102 1361.132792 " transform="matrix(0.2, 0, 0, -0.2, 0, 334)"/>
<path fill="none" stroke-width="7.9701" stroke-linecap="butt" stroke-linejoin="miter" stroke="rgb(0%, 0%, 0%)" stroke-opacity="1" stroke-miterlimit="10" d="M 1555.703102 1361.132792 L 1555.703102 1389.999979 " transform="matrix(0.2, 0, 0, -0.2, 0, 334)"/>
<path fill="none" stroke-width="7.9701" stroke-linecap="butt" stroke-linejoin="miter" stroke="rgb(0%, 0%, 0%)" stroke-opacity="1" stroke-miterlimit="10" d="M 1555.703102 1447.734353 L 1555.703102 1476.60154 " transform="matrix(0.2, 0, 0, -0.2, 0, 334)"/>
<path fill="none" stroke-width="11.9553" stroke-linecap="butt" stroke-linejoin="miter" stroke="rgb(0%, 0%, 0%)" stroke-opacity="1" stroke-miterlimit="10" d="M 1298.593731 1329.609355 L 1555.703102 1329.609355 " transform="matrix(0.2, 0, 0, -0.2, 0, 334)"/>
<path fill="none" stroke-width="11.9553" stroke-linecap="butt" stroke-linejoin="miter" stroke="rgb(0%, 0%, 0%)" stroke-opacity="1" stroke-miterlimit="10" d="M 1555.703102 1476.60154 L 1555.703102 1329.609355 " transform="matrix(0.2, 0, 0, -0.2, 0, 334)"/>
<path fill="none" stroke-width="7.9701" stroke-linecap="butt" stroke-linejoin="miter" stroke="rgb(0%, 0%, 0%)" stroke-opacity="1" stroke-miterlimit="10" d="M 1812.890598 321.601558 L 1812.890598 351.17187 " transform="matrix(0.2, 0, 0, -0.2, 0, 334)"/>
<path fill="none" stroke-width="7.9701" stroke-linecap="butt" stroke-linejoin="miter" stroke="rgb(0%, 0%, 0%)" stroke-opacity="1" stroke-miterlimit="10" d="M 1812.890598 410.351556 L 1812.890598 439.960931 " transform="matrix(0.2, 0, 0, -0.2, 0, 334)"/>
<path fill="none" stroke-width="7.9701" stroke-linecap="butt" stroke-linejoin="miter" stroke="rgb(0%, 0%, 0%)" stroke-opacity="1" stroke-miterlimit="10" d="M 1812.890598 439.960931 L 1812.890598 469.570306 " transform="matrix(0.2, 0, 0, -0.2, 0, 334)"/>
<path fill="none" stroke-width="7.9701" stroke-linecap="butt" stroke-linejoin="miter" stroke="rgb(0%, 0%, 0%)" stroke-opacity="1" stroke-miterlimit="10" d="M 1812.890598 528.749992 L 1812.890598 558.320304 " transform="matrix(0.2, 0, 0, -0.2, 0, 334)"/>
<path fill="none" stroke-width="7.9701" stroke-linecap="butt" stroke-linejoin="miter" stroke="rgb(0%, 0%, 0%)" stroke-opacity="1" stroke-miterlimit="10" d="M 1812.890598 558.320304 L 1812.890598 587.929679 " transform="matrix(0.2, 0, 0, -0.2, 0, 334)"/>
<path fill="none" stroke-width="7.9701" stroke-linecap="butt" stroke-linejoin="miter" stroke="rgb(0%, 0%, 0%)" stroke-opacity="1" stroke-miterlimit="10" d="M 1812.890598 647.109365 L 1812.890598 676.679677 " transform="matrix(0.2, 0, 0, -0.2, 0, 334)"/>
<path fill="none" stroke-width="7.9701" stroke-linecap="butt" stroke-linejoin="miter" stroke="rgb(0%, 0%, 0%)" stroke-opacity="1" stroke-miterlimit="10" d="M 1812.890598 676.679677 L 1812.890598 706.289052 " transform="matrix(0.2, 0, 0, -0.2, 0, 334)"/>
<path fill="none" stroke-width="7.9701" stroke-linecap="butt" stroke-linejoin="miter" stroke="rgb(0%, 0%, 0%)" stroke-opacity="1" stroke-miterlimit="10" d="M 1812.890598 765.468739 L 1812.890598 795.078113 " transform="matrix(0.2, 0, 0, -0.2, 0, 334)"/>
<path fill="none" stroke-width="7.9701" stroke-linecap="butt" stroke-linejoin="miter" stroke="rgb(0%, 0%, 0%)" stroke-opacity="1" stroke-miterlimit="10" d="M 1812.890598 795.078113 L 1812.890598 824.648425 " transform="matrix(0.2, 0, 0, -0.2, 0, 334)"/>
<path fill="none" stroke-width="7.9701" stroke-linecap="butt" stroke-linejoin="miter" stroke="rgb(0%, 0%, 0%)" stroke-opacity="1" stroke-miterlimit="10" d="M 1812.890598 883.828112 L 1812.890598 913.437486 " transform="matrix(0.2, 0, 0, -0.2, 0, 334)"/>
<path fill="none" stroke-width="7.9701" stroke-linecap="butt" stroke-linejoin="miter" stroke="rgb(0%, 0%, 0%)" stroke-opacity="1" stroke-miterlimit="10" d="M 1812.890598 913.437486 L 1812.890598 943.007798 " transform="matrix(0.2, 0, 0, -0.2, 0, 334)"/>
<path fill="none" stroke-width="7.9701" stroke-linecap="butt" stroke-linejoin="miter" stroke="rgb(0%, 0%, 0%)" stroke-opacity="1" stroke-miterlimit="10" d="M 1812.890598 1002.187485 L 1812.890598 1031.79686 " transform="matrix(0.2, 0, 0, -0.2, 0, 334)"/>
<path fill="none" stroke-width="7.9701" stroke-linecap="butt" stroke-linejoin="miter" stroke="rgb(0%, 0%, 0%)" stroke-opacity="1" stroke-miterlimit="10" d="M 1812.890598 1031.79686 L 1812.890598 1061.406234 " transform="matrix(0.2, 0, 0, -0.2, 0, 334)"/>
<path fill="none" stroke-width="7.9701" stroke-linecap="butt" stroke-linejoin="miter" stroke="rgb(0%, 0%, 0%)" stroke-opacity="1" stroke-miterlimit="10" d="M 1812.890598 1120.585921 L 1812.890598 1150.156233 " transform="matrix(0.2, 0, 0, -0.2, 0, 334)"/>
<path fill="none" stroke-width="7.9701" stroke-linecap="butt" stroke-linejoin="miter" stroke="rgb(0%, 0%, 0%)" stroke-opacity="1" stroke-miterlimit="10" d="M 1812.890598 1150.156233 L 1812.890598 1179.765607 " transform="matrix(0.2, 0, 0, -0.2, 0, 334)"/>
<path fill="none" stroke-width="7.9701" stroke-linecap="butt" stroke-linejoin="miter" stroke="rgb(0%, 0%, 0%)" stroke-opacity="1" stroke-miterlimit="10" d="M 1812.890598 1238.945294 L 1812.890598 1268.515606 " transform="matrix(0.2, 0, 0, -0.2, 0, 334)"/>
<path fill="none" stroke-width="7.9701" stroke-linecap="butt" stroke-linejoin="miter" stroke="rgb(0%, 0%, 0%)" stroke-opacity="1" stroke-miterlimit="10" d="M 1812.890598 1268.515606 L 1812.890598 1298.124981 " transform="matrix(0.2, 0, 0, -0.2, 0, 334)"/>
<path fill="none" stroke-width="7.9701" stroke-linecap="butt" stroke-linejoin="miter" stroke="rgb(0%, 0%, 0%)" stroke-opacity="1" stroke-miterlimit="10" d="M 1812.890598 1357.304667 L 1812.890598 1386.874979 " transform="matrix(0.2, 0, 0, -0.2, 0, 334)"/>
<path fill="none" stroke-width="7.9701" stroke-linecap="butt" stroke-linejoin="miter" stroke="rgb(0%, 0%, 0%)" stroke-opacity="1" stroke-miterlimit="10" d="M 1812.890598 1386.874979 L 1812.890598 1416.484354 " transform="matrix(0.2, 0, 0, -0.2, 0, 334)"/>
<path fill="none" stroke-width="7.9701" stroke-linecap="butt" stroke-linejoin="miter" stroke="rgb(0%, 0%, 0%)" stroke-opacity="1" stroke-miterlimit="10" d="M 1812.890598 1475.664041 L 1812.890598 1505.234353 " transform="matrix(0.2, 0, 0, -0.2, 0, 334)"/>
<path fill="none" stroke-width="7.9701" stroke-linecap="butt" stroke-linejoin="miter" stroke="rgb(0%, 0%, 0%)" stroke-opacity="1" stroke-miterlimit="10" d="M 1812.890598 1505.234353 L 1812.890598 1534.843727 " transform="matrix(0.2, 0, 0, -0.2, 0, 334)"/>
<path fill="none" stroke-width="7.9701" stroke-linecap="butt" stroke-linejoin="miter" stroke="rgb(0%, 0%, 0%)" stroke-opacity="1" stroke-miterlimit="10" d="M 1812.890598 1594.023414 L 1812.890598 1623.632788 " transform="matrix(0.2, 0, 0, -0.2, 0, 334)"/>
<path fill="none" stroke-width="11.9553" stroke-linecap="butt" stroke-linejoin="miter" stroke="rgb(0%, 0%, 0%)" stroke-opacity="1" stroke-miterlimit="10" d="M 1555.703102 1476.60154 L 1812.890598 1476.60154 " transform="matrix(0.2, 0, 0, -0.2, 0, 334)"/>
<path fill="none" stroke-width="11.9553" stroke-linecap="butt" stroke-linejoin="miter" stroke="rgb(0%, 0%, 0%)" stroke-opacity="1" stroke-miterlimit="10" d="M 1812.890598 1623.632788 L 1812.890598 1476.60154 " transform="matrix(0.2, 0, 0, -0.2, 0, 334)"/>
<path fill-rule="nonzero" fill="rgb(0%, 0%, 0%)" fill-opacity="1" d="M 106.316406 277.839844 C 106.316406 277.339844 106.316406 277.277344 105.816406 277.277344 C 104.472656 278.683594 102.535156 278.683594 101.847656 278.683594 L 101.847656 279.339844 C 102.285156 279.339844 103.566406 279.339844 104.722656 278.777344 L 104.722656 290.089844 C 104.722656 290.871094 104.628906 291.121094 102.691406 291.121094 L 101.972656 291.121094 L 101.972656 291.808594 C 102.753906 291.746094 104.628906 291.746094 105.503906 291.746094 C 106.378906 291.746094 108.285156 291.746094 109.035156 291.808594 L 109.035156 291.121094 L 108.347656 291.121094 C 106.378906 291.121094 106.316406 290.902344 106.316406 290.089844 Z M 106.316406 277.839844 "/>
<path fill-rule="nonzero" fill="rgb(0%, 0%, 0%)" fill-opacity="1" d="M 154.117188 290.121094 L 156.429688 287.871094 C 159.835938 284.871094 161.117188 283.683594 161.117188 281.527344 C 161.117188 279.027344 159.179688 277.277344 156.492188 277.277344 C 154.054688 277.277344 152.429688 279.277344 152.429688 281.214844 C 152.429688 282.464844 153.523438 282.464844 153.585938 282.464844 C 153.960938 282.464844 154.710938 282.183594 154.710938 281.308594 C 154.710938 280.714844 154.335938 280.152344 153.554688 280.152344 C 153.398438 280.152344 153.335938 280.152344 153.273438 280.183594 C 153.773438 278.777344 154.960938 277.964844 156.210938 277.964844 C 158.210938 277.964844 159.148438 279.714844 159.148438 281.527344 C 159.148438 283.246094 158.054688 284.996094 156.867188 286.339844 L 152.679688 290.996094 C 152.429688 291.246094 152.429688 291.277344 152.429688 291.808594 L 160.523438 291.808594 L 161.117188 288.027344 L 160.585938 288.027344 C 160.460938 288.652344 160.335938 289.621094 160.117188 289.964844 C 159.960938 290.121094 158.523438 290.121094 158.023438 290.121094 Z M 154.117188 290.121094 "/>
<path fill-rule="nonzero" fill="rgb(0%, 0%, 0%)" fill-opacity="1" d="M 209.078125 284.121094 C 210.890625 283.527344 212.140625 282.027344 212.140625 280.277344 C 212.140625 278.496094 210.234375 277.277344 208.140625 277.277344 C 205.921875 277.277344 204.265625 278.589844 204.265625 280.246094 C 204.265625 280.964844 204.765625 281.371094 205.390625 281.371094 C 206.046875 281.371094 206.484375 280.902344 206.484375 280.277344 C 206.484375 279.183594 205.484375 279.183594 205.140625 279.183594 C 205.828125 278.121094 207.265625 277.839844 208.046875 277.839844 C 208.953125 277.839844 210.140625 278.308594 210.140625 280.277344 C 210.140625 280.527344 210.109375 281.808594 209.515625 282.746094 C 208.859375 283.808594 208.140625 283.871094 207.578125 283.902344 C 207.421875 283.902344 206.890625 283.964844 206.734375 283.964844 C 206.546875 283.964844 206.421875 283.996094 206.421875 284.214844 C 206.421875 284.464844 206.546875 284.464844 206.921875 284.464844 L 207.890625 284.464844 C 209.671875 284.464844 210.484375 285.933594 210.484375 288.089844 C 210.484375 291.058594 208.984375 291.683594 208.015625 291.683594 C 207.078125 291.683594 205.453125 291.308594 204.671875 290.027344 C 205.453125 290.121094 206.109375 289.652344 206.109375 288.808594 C 206.109375 288.027344 205.546875 287.589844 204.890625 287.589844 C 204.390625 287.589844 203.671875 287.902344 203.671875 288.871094 C 203.671875 290.839844 205.703125 292.277344 208.078125 292.277344 C 210.734375 292.277344 212.734375 290.308594 212.734375 288.089844 C 212.734375 286.277344 211.359375 284.589844 209.078125 284.121094 Z M 209.078125 284.121094 "/>
<path fill-rule="nonzero" fill="rgb(0%, 0%, 0%)" fill-opacity="1" d="M 260.601562 288.214844 L 260.601562 290.121094 C 260.601562 290.902344 260.570312 291.121094 258.945312 291.121094 L 258.507812 291.121094 L 258.507812 291.808594 C 259.382812 291.746094 260.507812 291.746094 261.445312 291.746094 C 262.351562 291.746094 263.507812 291.746094 264.414062 291.808594 L 264.414062 291.121094 L 263.945312 291.121094 C 262.320312 291.121094 262.289062 290.902344 262.289062 290.121094 L 262.289062 288.214844 L 264.476562 288.214844 L 264.476562 287.527344 L 262.289062 287.527344 L 262.289062 277.621094 C 262.289062 277.183594 262.289062 277.027344 261.945312 277.027344 C 261.757812 277.027344 261.664062 277.027344 261.507812 277.308594 L 254.820312 287.527344 L 254.820312 288.214844 Z M 260.726562 287.527344 L 255.414062 287.527344 L 260.726562 279.402344 Z M 260.726562 287.527344 "/>
<path fill-rule="nonzero" fill="rgb(0%, 0%, 0%)" fill-opacity="1" d="M 315.40625 287.433594 C 315.40625 284.839844 313.625 282.652344 311.28125 282.652344 C 310.21875 282.652344 309.28125 282.996094 308.5 283.746094 L 308.5 279.496094 C 308.9375 279.652344 309.65625 279.777344 310.34375 279.777344 C 313.03125 279.777344 314.5625 277.808594 314.5625 277.527344 C 314.5625 277.402344 314.5 277.277344 314.34375 277.277344 C 314.34375 277.277344 314.28125 277.277344 314.1875 277.339844 C 313.75 277.558594 312.65625 277.964844 311.21875 277.964844 C 310.34375 277.964844 309.34375 277.839844 308.3125 277.371094 C 308.125 277.308594 308.09375 277.308594 308.03125 277.308594 C 307.8125 277.308594 307.8125 277.464844 307.8125 277.839844 L 307.8125 284.277344 C 307.8125 284.683594 307.8125 284.839844 308.125 284.839844 C 308.28125 284.839844 308.34375 284.777344 308.40625 284.652344 C 308.65625 284.308594 309.46875 283.121094 311.21875 283.121094 C 312.375 283.121094 312.90625 284.121094 313.09375 284.527344 C 313.4375 285.339844 313.46875 286.183594 313.46875 287.277344 C 313.46875 288.027344 313.46875 289.339844 312.96875 290.246094 C 312.4375 291.121094 311.625 291.683594 310.625 291.683594 C 309.03125 291.683594 307.78125 290.527344 307.40625 289.246094 C 307.46875 289.246094 307.53125 289.277344 307.78125 289.277344 C 308.5 289.277344 308.875 288.746094 308.875 288.214844 C 308.875 287.683594 308.5 287.152344 307.78125 287.152344 C 307.46875 287.152344 306.71875 287.308594 306.71875 288.308594 C 306.71875 290.183594 308.21875 292.277344 310.65625 292.277344 C 313.1875 292.277344 315.40625 290.183594 315.40625 287.433594 Z M 315.40625 287.433594 "/>
<path fill-rule="nonzero" fill="rgb(0%, 0%, 0%)" fill-opacity="1" d="M 359.929688 284.652344 L 359.929688 284.121094 C 359.929688 278.621094 362.648438 277.839844 363.742188 277.839844 C 364.273438 277.839844 365.179688 277.964844 365.679688 278.714844 C 365.335938 278.714844 364.460938 278.714844 364.460938 279.683594 C 364.460938 280.371094 364.992188 280.683594 365.460938 280.683594 C 365.835938 280.683594 366.492188 280.496094 366.492188 279.652344 C 366.492188 278.339844 365.523438 277.277344 363.710938 277.277344 C 360.929688 277.277344 357.960938 280.089844 357.960938 284.902344 C 357.960938 290.746094 360.492188 292.277344 362.523438 292.277344 C 364.960938 292.277344 367.023438 290.246094 367.023438 287.371094 C 367.023438 284.589844 365.085938 282.496094 362.648438 282.496094 C 361.179688 282.496094 360.367188 283.621094 359.929688 284.652344 Z M 362.523438 291.683594 C 361.148438 291.683594 360.492188 290.371094 360.367188 290.027344 C 359.992188 289.027344 359.992188 287.277344 359.992188 286.871094 C 359.992188 285.183594 360.679688 282.996094 362.648438 282.996094 C 362.992188 282.996094 363.992188 282.996094 364.679688 284.339844 C 365.054688 285.152344 365.054688 286.277344 365.054688 287.339844 C 365.054688 288.371094 365.054688 289.464844 364.679688 290.246094 C 364.023438 291.558594 363.023438 291.683594 362.523438 291.683594 Z M 362.523438 291.683594 "/>
<path fill-rule="nonzero" fill="rgb(100%, 100%, 100%)" fill-opacity="1" d="M -6.492188 211.859375 L 46.789062 211.859375 L 46.789062 243.296875 L -6.492188 243.296875 Z M -6.492188 211.859375 "/>
<path fill-rule="nonzero" fill="rgb(0%, 0%, 0%)" fill-opacity="1" d="M 3.402344 218.074219 L 0.246094 218.292969 L 0.246094 218.980469 C 1.777344 218.980469 1.933594 219.136719 1.933594 220.199219 L 1.933594 231.542969 C 1.933594 232.511719 1.714844 232.511719 0.246094 232.511719 L 0.246094 233.199219 C 0.964844 233.167969 2.121094 233.136719 2.683594 233.136719 C 3.214844 233.136719 4.277344 233.167969 5.089844 233.199219 L 5.089844 232.511719 C 3.621094 232.511719 3.402344 232.511719 3.402344 231.542969 Z M 3.402344 218.074219 "/>
<path fill-rule="nonzero" fill="rgb(0%, 0%, 0%)" fill-opacity="1" d="M 15.808594 228.542969 C 15.808594 225.730469 13.621094 223.417969 10.964844 223.417969 C 8.246094 223.417969 6.152344 225.792969 6.152344 228.542969 C 6.152344 231.355469 8.402344 233.449219 10.964844 233.449219 C 13.589844 233.449219 15.808594 231.292969 15.808594 228.542969 Z M 10.964844 232.886719 C 10.027344 232.886719 9.089844 232.449219 8.496094 231.417969 C 7.933594 230.480469 7.933594 229.136719 7.933594 228.355469 C 7.933594 227.511719 7.933594 226.324219 8.464844 225.355469 C 9.058594 224.355469 10.089844 223.917969 10.964844 223.917969 C 11.933594 223.917969 12.871094 224.386719 13.433594 225.324219 C 13.996094 226.261719 13.996094 227.542969 13.996094 228.355469 C 13.996094 229.136719 13.996094 230.324219 13.496094 231.292969 C 13.027344 232.261719 12.058594 232.886719 10.964844 232.886719 Z M 10.964844 232.886719 "/>
<path fill-rule="nonzero" fill="rgb(0%, 0%, 0%)" fill-opacity="1" d="M 21.171875 229.449219 C 19.265625 229.449219 19.265625 227.261719 19.265625 226.761719 C 19.265625 226.167969 19.296875 225.480469 19.609375 224.917969 C 19.796875 224.667969 20.296875 224.074219 21.171875 224.074219 C 23.078125 224.074219 23.078125 226.230469 23.078125 226.730469 C 23.078125 227.324219 23.046875 228.042969 22.734375 228.574219 C 22.546875 228.824219 22.046875 229.449219 21.171875 229.449219 Z M 18.640625 230.292969 C 18.640625 230.199219 18.640625 229.699219 19.015625 229.261719 C 19.859375 229.886719 20.765625 229.949219 21.171875 229.949219 C 23.203125 229.949219 24.703125 228.449219 24.703125 226.761719 C 24.703125 225.949219 24.359375 225.136719 23.796875 224.636719 C 24.609375 223.917969 25.390625 223.792969 25.765625 223.792969 C 25.828125 223.792969 25.921875 223.792969 25.984375 223.824219 C 25.765625 223.917969 25.640625 224.136719 25.640625 224.417969 C 25.640625 224.792969 25.921875 225.042969 26.265625 225.042969 C 26.484375 225.042969 26.921875 224.886719 26.921875 224.386719 C 26.921875 224.011719 26.640625 223.324219 25.796875 223.324219 C 25.359375 223.324219 24.390625 223.449219 23.484375 224.355469 C 22.578125 223.636719 21.640625 223.542969 21.171875 223.542969 C 19.140625 223.542969 17.640625 225.074219 17.640625 226.730469 C 17.640625 227.699219 18.109375 228.542969 18.671875 228.980469 C 18.390625 229.324219 17.984375 230.042969 17.984375 230.792969 C 17.984375 231.480469 18.265625 232.292969 18.953125 232.730469 C 17.640625 233.105469 16.953125 234.042969 16.953125 234.917969 C 16.953125 236.480469 19.109375 237.699219 21.765625 237.699219 C 24.328125 237.699219 26.609375 236.574219 26.609375 234.886719 C 26.609375 234.105469 26.296875 233.011719 25.171875 232.386719 C 24.015625 231.792969 22.765625 231.792969 21.421875 231.792969 C 20.890625 231.792969 19.953125 231.792969 19.796875 231.761719 C 19.109375 231.667969 18.640625 231.011719 18.640625 230.292969 Z M 21.765625 237.199219 C 19.578125 237.199219 18.078125 236.074219 18.078125 234.917969 C 18.078125 233.917969 18.890625 233.105469 19.859375 233.042969 L 21.140625 233.042969 C 23.015625 233.042969 25.453125 233.042969 25.453125 234.917969 C 25.453125 236.105469 23.921875 237.199219 21.765625 237.199219 Z M 21.765625 237.199219 "/>
<path fill-rule="nonzero" fill="rgb(0%, 0%, 0%)" fill-opacity="1" d="M 36.667969 218.292969 C 36.667969 218.292969 36.667969 218.074219 36.386719 218.074219 C 35.886719 218.074219 34.292969 218.230469 33.730469 218.292969 C 33.542969 218.292969 33.292969 218.324219 33.292969 218.730469 C 33.292969 218.980469 33.511719 218.980469 33.824219 218.980469 C 34.886719 218.980469 34.917969 219.136719 34.917969 219.355469 C 34.917969 219.511719 34.730469 220.230469 34.605469 220.699219 L 32.824219 227.824219 C 32.574219 228.886719 32.480469 229.261719 32.480469 230.011719 C 32.480469 232.074219 33.636719 233.449219 35.230469 233.449219 C 37.824219 233.449219 40.511719 230.199219 40.511719 227.042969 C 40.511719 225.074219 39.355469 223.542969 37.605469 223.542969 C 36.605469 223.542969 35.699219 224.199219 35.042969 224.855469 Z M 34.605469 226.542969 C 34.730469 226.074219 34.730469 226.011719 34.949219 225.792969 C 36.011719 224.355469 36.980469 224.042969 37.542969 224.042969 C 38.355469 224.042969 38.917969 224.699219 38.917969 226.074219 C 38.917969 227.386719 38.199219 229.886719 37.824219 230.699219 C 37.105469 232.167969 36.105469 232.949219 35.230469 232.949219 C 34.511719 232.949219 33.792969 232.355469 33.792969 230.761719 C 33.792969 230.355469 33.792969 229.917969 34.136719 228.542969 Z M 34.605469 226.542969 "/>
<path fill-rule="nonzero" fill="rgb(0%, 0%, 0%)" fill-opacity="1" d="M 51.398438 189.929688 L 51.148438 190.351562 L 51.03125 190.570312 L 50.8125 190.992188 L 50.710938 191.210938 L 50.617188 191.421875 L 50.523438 191.640625 L 50.4375 191.851562 L 50.351562 192.070312 L 50.273438 192.28125 L 50.195312 192.5 L 50.125 192.71875 L 49.9375 193.375 L 49.890625 193.59375 L 49.835938 193.8125 L 49.789062 194.039062 L 49.742188 194.257812 L 49.703125 194.484375 L 49.671875 194.710938 L 49.632812 194.9375 L 49.609375 195.164062 L 49.578125 195.390625 L 49.554688 195.617188 L 49.539062 195.851562 L 49.515625 196.078125 L 49.484375 196.546875 L 49.46875 197.015625 L 49.460938 197.257812 L 49.453125 197.492188 L 49.453125 198.21875 L 49.460938 198.46875 L 49.460938 198.710938 L 49.484375 199.460938 L 49.5 199.71875 L 49.507812 199.976562 L 49.523438 200.226562 L 49.539062 200.492188 L 49.554688 200.75 L 49.5625 201.015625 L 49.59375 201.546875 L 49.617188 201.8125 L 49.664062 202.632812 L 49.6875 202.914062 L 49.71875 203.476562 L 49.734375 203.765625 L 49.757812 204.054688 L 49.789062 204.632812 L 49.804688 204.929688 L 49.8125 205.226562 L 49.828125 205.523438 L 49.859375 206.132812 L 49.890625 207.382812 L 49.898438 207.703125 L 49.898438 209.007812 L 49.890625 209.34375 L 49.890625 209.679688 L 49.882812 210.023438 L 49.867188 210.367188 L 49.859375 210.710938 L 49.84375 211.0625 L 49.820312 211.414062 L 49.804688 211.773438 L 49.773438 212.132812 L 49.75 212.5 L 49.6875 213.234375 L 49.609375 213.984375 L 49.570312 214.367188 L 49.523438 214.757812 L 49.46875 215.140625 L 49.414062 215.53125 L 49.359375 215.929688 L 49.296875 216.328125 L 49.234375 216.734375 L 49.164062 217.140625 L 49.007812 217.96875 L 48.929688 218.390625 L 48.84375 218.8125 L 48.75 219.242188 L 48.648438 219.671875 L 48.554688 220.109375 L 48.445312 220.546875 L 48.335938 220.992188 L 48.21875 221.4375 L 48.09375 221.890625 L 47.96875 222.351562 L 47.835938 222.8125 L 47.554688 223.75 L 47.40625 224.226562 L 47.25 224.703125 L 47.085938 225.1875 L 46.921875 225.679688 L 46.75 226.171875 L 46.570312 226.671875 L 46.382812 227.171875 L 46.195312 227.679688 L 46.382812 228.1875 L 46.570312 228.6875 L 46.75 229.1875 L 46.921875 229.679688 L 47.085938 230.171875 L 47.25 230.65625 L 47.40625 231.132812 L 47.554688 231.609375 L 47.835938 232.546875 L 47.96875 233.007812 L 48.09375 233.460938 L 48.21875 233.921875 L 48.335938 234.367188 L 48.445312 234.8125 L 48.554688 235.25 L 48.648438 235.6875 L 48.75 236.117188 L 48.84375 236.546875 L 48.929688 236.96875 L 49.007812 237.390625 L 49.164062 238.21875 L 49.234375 238.625 L 49.296875 239.03125 L 49.359375 239.429688 L 49.414062 239.820312 L 49.46875 240.21875 L 49.523438 240.601562 L 49.570312 240.992188 L 49.609375 241.375 L 49.6875 242.125 L 49.75 242.859375 L 49.773438 243.226562 L 49.804688 243.585938 L 49.820312 243.9375 L 49.84375 244.296875 L 49.859375 244.648438 L 49.867188 244.992188 L 49.882812 245.335938 L 49.890625 245.679688 L 49.890625 246.015625 L 49.898438 246.351562 L 49.898438 247.65625 L 49.890625 247.976562 L 49.859375 249.226562 L 49.84375 249.53125 L 49.828125 249.828125 L 49.8125 250.132812 L 49.804688 250.429688 L 49.789062 250.726562 L 49.773438 251.015625 L 49.757812 251.3125 L 49.734375 251.59375 L 49.71875 251.882812 L 49.6875 252.445312 L 49.664062 252.71875 L 49.648438 253 L 49.617188 253.546875 L 49.59375 253.8125 L 49.5625 254.34375 L 49.554688 254.609375 L 49.539062 254.867188 L 49.523438 255.132812 L 49.507812 255.390625 L 49.5 255.640625 L 49.484375 255.898438 L 49.460938 256.648438 L 49.460938 256.890625 L 49.453125 257.140625 L 49.453125 257.867188 L 49.460938 258.101562 L 49.46875 258.34375 L 49.484375 258.8125 L 49.515625 259.28125 L 49.539062 259.507812 L 49.554688 259.742188 L 49.578125 259.96875 L 49.609375 260.195312 L 49.632812 260.421875 L 49.671875 260.648438 L 49.703125 260.875 L 49.742188 261.09375 L 49.835938 261.546875 L 49.890625 261.765625 L 49.9375 261.984375 L 50.125 262.640625 L 50.195312 262.859375 L 50.273438 263.078125 L 50.351562 263.289062 L 50.4375 263.507812 L 50.523438 263.71875 L 50.617188 263.9375 L 50.710938 264.148438 L 50.8125 264.367188 L 51.03125 264.789062 L 51.148438 265.007812 L 51.398438 265.429688 L 51.070312 264.882812 L 50.773438 264.335938 L 50.632812 264.070312 L 50.5 263.804688 L 50.375 263.539062 L 50.25 263.28125 L 50.132812 263.015625 L 50.023438 262.757812 L 49.914062 262.492188 L 49.726562 261.976562 L 49.632812 261.726562 L 49.554688 261.46875 L 49.398438 260.96875 L 49.328125 260.710938 L 49.203125 260.210938 L 49.148438 259.960938 L 49.054688 259.460938 L 49.007812 259.21875 L 48.96875 258.96875 L 48.9375 258.726562 L 48.875 258.226562 L 48.851562 257.984375 L 48.835938 257.734375 L 48.8125 257.492188 L 48.804688 257.242188 L 48.789062 257 L 48.78125 256.75 L 48.78125 256.507812 L 48.773438 256.257812 L 48.773438 256.007812 L 48.78125 255.765625 L 48.78125 255.515625 L 48.796875 255.015625 L 48.8125 254.765625 L 48.820312 254.515625 L 48.835938 254.265625 L 48.859375 254.007812 L 48.875 253.757812 L 48.890625 253.5 L 48.984375 252.46875 L 49.015625 252.203125 L 49.039062 251.945312 L 49.0625 251.679688 L 49.09375 251.414062 L 49.117188 251.148438 L 49.148438 250.875 L 49.179688 250.609375 L 49.203125 250.335938 L 49.265625 249.789062 L 49.289062 249.507812 L 49.320312 249.226562 L 49.34375 248.945312 L 49.375 248.65625 L 49.398438 248.375 L 49.421875 248.085938 L 49.515625 246.898438 L 49.53125 246.601562 L 49.554688 246.296875 L 49.570312 245.984375 L 49.578125 245.679688 L 49.59375 245.359375 L 49.601562 245.046875 L 49.617188 244.726562 L 49.617188 244.40625 L 49.625 244.078125 L 49.625 243.421875 L 49.617188 243.078125 L 49.617188 242.742188 L 49.601562 242.398438 L 49.59375 242.054688 L 49.5625 241.351562 L 49.515625 240.632812 L 49.453125 239.898438 L 49.375 239.148438 L 49.28125 238.382812 L 49.226562 237.984375 L 49.171875 237.59375 L 49.046875 236.796875 L 48.976562 236.382812 L 48.898438 235.976562 L 48.820312 235.554688 L 48.734375 235.132812 L 48.546875 234.273438 L 48.445312 233.835938 L 48.335938 233.398438 L 48.226562 232.953125 L 48.109375 232.5 L 47.984375 232.039062 L 47.851562 231.578125 L 47.71875 231.109375 L 47.570312 230.632812 L 47.429688 230.15625 L 47.273438 229.671875 L 47.109375 229.1875 L 46.765625 228.1875 L 46.578125 227.679688 L 46.765625 227.171875 L 46.9375 226.671875 L 47.109375 226.179688 L 47.273438 225.6875 L 47.429688 225.203125 L 47.570312 224.726562 L 47.71875 224.25 L 47.851562 223.78125 L 47.984375 223.320312 L 48.109375 222.859375 L 48.226562 222.40625 L 48.335938 221.960938 L 48.445312 221.523438 L 48.546875 221.085938 L 48.640625 220.648438 L 48.734375 220.226562 L 48.820312 219.804688 L 48.898438 219.382812 L 48.976562 218.976562 L 49.046875 218.5625 L 49.171875 217.765625 L 49.226562 217.367188 L 49.28125 216.976562 L 49.375 216.210938 L 49.453125 215.460938 L 49.515625 214.726562 L 49.5625 214.007812 L 49.59375 213.304688 L 49.601562 212.960938 L 49.617188 212.617188 L 49.617188 212.28125 L 49.625 211.9375 L 49.625 211.28125 L 49.617188 210.953125 L 49.617188 210.632812 L 49.601562 210.3125 L 49.59375 210 L 49.578125 209.679688 L 49.570312 209.375 L 49.554688 209.0625 L 49.53125 208.757812 L 49.515625 208.460938 L 49.492188 208.15625 L 49.46875 207.859375 L 49.445312 207.570312 L 49.421875 207.273438 L 49.375 206.695312 L 49.34375 206.414062 L 49.320312 206.132812 L 49.289062 205.851562 L 49.265625 205.570312 L 49.203125 205.023438 L 49.179688 204.75 L 49.148438 204.476562 L 49.117188 204.210938 L 49.09375 203.945312 L 49.0625 203.679688 L 49.039062 203.414062 L 49.015625 203.15625 L 48.984375 202.890625 L 48.890625 201.859375 L 48.875 201.601562 L 48.859375 201.351562 L 48.835938 201.101562 L 48.820312 200.84375 L 48.8125 200.59375 L 48.796875 200.34375 L 48.78125 199.84375 L 48.78125 199.59375 L 48.773438 199.351562 L 48.773438 199.101562 L 48.78125 198.851562 L 48.78125 198.609375 L 48.789062 198.359375 L 48.804688 198.117188 L 48.8125 197.867188 L 48.835938 197.625 L 48.851562 197.375 L 48.875 197.132812 L 48.9375 196.632812 L 48.96875 196.390625 L 49.007812 196.140625 L 49.054688 195.890625 L 49.101562 195.648438 L 49.148438 195.398438 L 49.203125 195.148438 L 49.328125 194.648438 L 49.398438 194.390625 L 49.554688 193.890625 L 49.632812 193.632812 L 49.726562 193.382812 L 49.820312 193.125 L 49.914062 192.859375 L 50.132812 192.34375 L 50.25 192.085938 L 50.5 191.554688 L 50.632812 191.289062 L 50.773438 191.015625 L 50.921875 190.75 L 51.070312 190.476562 L 51.398438 189.929688 "/>
<path fill="none" stroke-width="3.985" stroke-linecap="butt" stroke-linejoin="miter" stroke="rgb(0%, 0%, 0%)" stroke-opacity="1" stroke-miterlimit="10" d="M 256.992184 720.351552 L 255.742184 718.242177 L 255.156246 717.148427 L 254.062496 715.039052 L 253.554684 713.945302 L 253.085934 712.890614 L 252.617184 711.796864 L 252.187496 710.742177 L 251.757809 709.648427 L 251.367184 708.593739 L 250.976559 707.499989 L 250.624996 706.406239 L 249.687496 703.12499 L 249.453121 702.03124 L 249.179684 700.93749 L 248.945309 699.804677 L 248.710934 698.710927 L 248.515621 697.578115 L 248.359371 696.445302 L 248.164059 695.31249 L 248.046871 694.179677 L 247.890621 693.046865 L 247.773434 691.914052 L 247.695309 690.742177 L 247.578121 689.609365 L 247.421871 687.265615 L 247.343746 684.921865 L 247.304684 683.710927 L 247.265621 682.539052 L 247.265621 678.90624 L 247.304684 677.65624 L 247.304684 676.445302 L 247.421871 672.695302 L 247.499996 671.40624 L 247.539059 670.117178 L 247.617184 668.867178 L 247.695309 667.539053 L 247.773434 666.24999 L 247.812496 664.921865 L 247.968746 662.265615 L 248.085934 660.93749 L 248.320309 656.835928 L 248.437496 655.429678 L 248.593746 652.617178 L 248.671871 651.171865 L 248.789059 649.726553 L 248.945309 646.835928 L 249.023434 645.351553 L 249.062496 643.867178 L 249.140621 642.382803 L 249.296871 639.335928 L 249.453121 633.085928 L 249.492184 631.484366 L 249.492184 624.960928 L 249.453121 623.281241 L 249.453121 621.601553 L 249.414059 619.882803 L 249.335934 618.164053 L 249.296871 616.445303 L 249.218746 614.687491 L 249.101559 612.929678 L 249.023434 611.132803 L 248.867184 609.335928 L 248.749996 607.499991 L 248.437496 603.828116 L 248.046871 600.078116 L 247.851559 598.164054 L 247.617184 596.210929 L 247.343746 594.296866 L 247.070309 592.343741 L 246.796871 590.351554 L 246.484371 588.359366 L 246.171871 586.328116 L 245.820309 584.296866 L 245.039059 580.156241 L 244.648434 578.046866 L 244.218746 575.937491 L 243.749996 573.789054 L 243.242184 571.640616 L 242.773434 569.453117 L 242.226559 567.265617 L 241.679684 565.039054 L 241.093746 562.812492 L 240.468746 560.546867 L 239.843746 558.242179 L 239.179684 555.937492 L 237.773434 551.249992 L 237.031246 548.867179 L 236.249996 546.484367 L 235.429684 544.062492 L 234.609372 541.601554 L 233.749997 539.140617 L 232.851559 536.640617 L 231.914059 534.140617 L 230.976559 531.601555 L 231.914059 529.062492 L 232.851559 526.562492 L 233.749997 524.062492 L 234.609372 521.601555 L 235.429684 519.140617 L 236.249996 516.718742 L 237.031246 514.33593 L 237.773434 511.953117 L 239.179684 507.265617 L 239.843746 504.96093 L 240.468746 502.695305 L 241.093746 500.390618 L 241.679684 498.164055 L 242.226559 495.937493 L 242.773434 493.749993 L 243.242184 491.562493 L 243.749996 489.414055 L 244.218746 487.265618 L 244.648434 485.156243 L 245.039059 483.046868 L 245.820309 478.906243 L 246.171871 476.874993 L 246.484371 474.843743 L 246.796871 472.851555 L 247.070309 470.89843 L 247.343746 468.906243 L 247.617184 466.992181 L 247.851559 465.039056 L 248.046871 463.124993 L 248.437496 459.374993 L 248.749996 455.703118 L 248.867184 453.867181 L 249.023434 452.070306 L 249.101559 450.312493 L 249.218746 448.515618 L 249.296871 446.757806 L 249.335934 445.039056 L 249.414059 443.320306 L 249.453121 441.601556 L 249.453121 439.921868 L 249.492184 438.242181 L 249.492184 431.718744 L 249.453121 430.117181 L 249.296871 423.867181 L 249.218746 422.343744 L 249.140621 420.859369 L 249.062496 419.335931 L 249.023434 417.851556 L 248.945309 416.367181 L 248.867184 414.921869 L 248.789059 413.437494 L 248.671871 412.031244 L 248.593746 410.585931 L 248.437496 407.773431 L 248.320309 406.406244 L 248.242184 404.999994 L 248.085934 402.265619 L 247.968746 400.937494 L 247.812496 398.281244 L 247.773434 396.953119 L 247.695309 395.664057 L 247.617184 394.335932 L 247.539059 393.046869 L 247.499996 391.796869 L 247.421871 390.507807 L 247.304684 386.757807 L 247.304684 385.546869 L 247.265621 384.296869 L 247.265621 380.664057 L 247.304684 379.492182 L 247.343746 378.281244 L 247.421871 375.937494 L 247.578121 373.593744 L 247.695309 372.460932 L 247.773434 371.289057 L 247.890621 370.156244 L 248.046871 369.023432 L 248.164059 367.89062 L 248.359371 366.757807 L 248.515621 365.624995 L 248.710934 364.531245 L 249.179684 362.26562 L 249.453121 361.17187 L 249.687496 360.07812 L 250.624996 356.79687 L 250.976559 355.70312 L 251.367184 354.60937 L 251.757809 353.554682 L 252.187496 352.460932 L 252.617184 351.406245 L 253.085934 350.312495 L 253.554684 349.257807 L 254.062496 348.164057 L 255.156246 346.054682 L 255.742184 344.960932 L 256.992184 342.851557 L 255.351559 345.585932 L 253.867184 348.320307 L 253.164059 349.648432 L 252.499996 350.976557 L 251.874996 352.304682 L 251.249996 353.593745 L 250.664059 354.92187 L 250.117184 356.210932 L 249.570309 357.539057 L 248.632809 360.117182 L 248.164059 361.367182 L 247.773434 362.656245 L 246.992184 365.156245 L 246.640621 366.445307 L 246.015621 368.945307 L 245.742184 370.195307 L 245.273434 372.695307 L 245.039059 373.906244 L 244.843746 375.156244 L 244.687496 376.367182 L 244.374996 378.867182 L 244.257809 380.078119 L 244.179684 381.328119 L 244.062496 382.539057 L 244.023434 383.789057 L 243.945309 384.999994 L 243.906246 386.249994 L 243.906246 387.460932 L 243.867184 388.710932 L 243.867184 389.960932 L 243.906246 391.171869 L 243.906246 392.421869 L 243.984371 394.921869 L 244.062496 396.171869 L 244.101559 397.421869 L 244.179684 398.671869 L 244.296871 399.960932 L 244.374996 401.210932 L 244.453121 402.499994 L 244.921871 407.656244 L 245.078121 408.984369 L 245.195309 410.273431 L 245.312496 411.601556 L 245.468746 412.929681 L 245.585934 414.257806 L 245.742184 415.624994 L 245.898434 416.953119 L 246.015621 418.320306 L 246.328121 421.054681 L 246.445309 422.460931 L 246.601559 423.867181 L 246.718746 425.273431 L 246.874996 426.718744 L 246.992184 428.124994 L 247.109371 429.570306 L 247.578121 435.507806 L 247.656246 436.992181 L 247.773434 438.515618 L 247.851559 440.078118 L 247.890621 441.601556 L 247.968746 443.203118 L 248.007809 444.765618 L 248.085934 446.367181 L 248.085934 447.968743 L 248.124996 449.609368 L 248.124996 452.890618 L 248.085934 454.609368 L 248.085934 456.289056 L 248.007809 458.007806 L 247.968746 459.726556 L 247.812496 463.242181 L 247.578121 466.835931 L 247.265621 470.507805 L 246.874996 474.257805 L 246.406246 478.08593 L 246.132809 480.078118 L 245.859371 482.031243 L 245.234371 486.015618 L 244.882809 488.08593 L 244.492184 490.11718 L 244.101559 492.226555 L 243.671871 494.33593 L 242.734371 498.632805 L 242.226559 500.820305 L 241.679684 503.007805 L 241.132809 505.234367 L 240.546871 507.499992 L 239.921871 509.80468 L 239.257809 512.109367 L 238.593746 514.453117 L 237.851559 516.83593 L 237.148434 519.218742 L 236.367184 521.640617 L 235.546871 524.062492 L 233.828122 529.062492 L 232.890622 531.601555 L 233.828122 534.140617 L 234.687497 536.640617 L 235.546871 539.101554 L 236.367184 541.562492 L 237.148434 543.984367 L 237.851559 546.367179 L 238.593746 548.749992 L 239.257809 551.093742 L 239.921871 553.398429 L 240.546871 555.703117 L 241.132809 557.968742 L 241.679684 560.195304 L 242.226559 562.382804 L 242.734371 564.570304 L 243.203121 566.757804 L 243.671871 568.867179 L 244.101559 570.976554 L 244.492184 573.085929 L 244.882809 575.117179 L 245.234371 577.187491 L 245.859371 581.171866 L 246.132809 583.164054 L 246.406246 585.117179 L 246.874996 588.945304 L 247.265621 592.695304 L 247.578121 596.367179 L 247.812496 599.960929 L 247.968746 603.476554 L 248.007809 605.195303 L 248.085934 606.914053 L 248.085934 608.593741 L 248.124996 610.312491 L 248.124996 613.593741 L 248.085934 615.234366 L 248.085934 616.835928 L 248.007809 618.437491 L 247.968746 619.999991 L 247.890621 621.601553 L 247.851559 623.124991 L 247.773434 624.687491 L 247.656246 626.210928 L 247.578121 627.695303 L 247.460934 629.218741 L 247.343746 630.703116 L 247.226559 632.148428 L 247.109371 633.632803 L 246.874996 636.523428 L 246.718746 637.929678 L 246.601559 639.335928 L 246.445309 640.742178 L 246.328121 642.148428 L 246.015621 644.882803 L 245.898434 646.24999 L 245.742184 647.617178 L 245.585934 648.945303 L 245.468746 650.273428 L 245.312496 651.601553 L 245.195309 652.929678 L 245.078121 654.21874 L 244.921871 655.546865 L 244.453121 660.703115 L 244.374996 661.992178 L 244.296871 663.242178 L 244.179684 664.492178 L 244.101559 665.78124 L 244.062496 667.03124 L 243.984371 668.28124 L 243.906246 670.78124 L 243.906246 672.03124 L 243.867184 673.242177 L 243.867184 674.492177 L 243.906246 675.742177 L 243.906246 676.953115 L 243.945309 678.203115 L 244.023434 679.414052 L 244.062496 680.664052 L 244.179684 681.87499 L 244.257809 683.12499 L 244.374996 684.335927 L 244.687496 686.835927 L 244.843746 688.046865 L 245.039059 689.296865 L 245.273434 690.546865 L 245.507809 691.757802 L 245.742184 693.007802 L 246.015621 694.257802 L 246.640621 696.757802 L 246.992184 698.046865 L 247.773434 700.546865 L 248.164059 701.835927 L 248.632809 703.085927 L 249.101559 704.37499 L 249.570309 705.703114 L 250.664059 708.281239 L 251.249996 709.570302 L 252.499996 712.226552 L 253.164059 713.554677 L 253.867184 714.921864 L 254.609371 716.249989 L 255.351559 717.617177 Z M 256.992184 720.351552 " transform="matrix(0.2, 0, 0, -0.2, 0, 334)"/>
<path fill-rule="nonzero" fill="rgb(0%, 0%, 0%)" fill-opacity="1" d="M 26.585938 153.003906 L 26.804688 156.160156 L 27.492188 156.160156 C 27.492188 154.628906 27.648438 154.472656 28.710938 154.472656 L 40.054688 154.472656 C 41.023438 154.472656 41.023438 154.691406 41.023438 156.160156 L 41.710938 156.160156 C 41.679688 155.441406 41.648438 154.285156 41.648438 153.722656 C 41.648438 153.191406 41.679688 152.128906 41.710938 151.316406 L 41.023438 151.316406 C 41.023438 152.785156 41.023438 153.003906 40.054688 153.003906 Z M 26.585938 153.003906 "/>
<path fill-rule="nonzero" fill="rgb(0%, 0%, 0%)" fill-opacity="1" d="M 37.054688 140.597656 C 34.242188 140.597656 31.929688 142.785156 31.929688 145.441406 C 31.929688 148.160156 34.304688 150.253906 37.054688 150.253906 C 39.867188 150.253906 41.960938 148.003906 41.960938 145.441406 C 41.960938 142.816406 39.804688 140.597656 37.054688 140.597656 Z M 41.398438 145.441406 C 41.398438 146.378906 40.960938 147.316406 39.929688 147.910156 C 38.992188 148.472656 37.648438 148.472656 36.867188 148.472656 C 36.023438 148.472656 34.835938 148.472656 33.867188 147.941406 C 32.867188 147.347656 32.429688 146.316406 32.429688 145.441406 C 32.429688 144.472656 32.898438 143.535156 33.835938 142.972656 C 34.773438 142.410156 36.054688 142.410156 36.867188 142.410156 C 37.648438 142.410156 38.835938 142.410156 39.804688 142.910156 C 40.773438 143.378906 41.398438 144.347656 41.398438 145.441406 Z M 41.398438 145.441406 "/>
<path fill-rule="nonzero" fill="rgb(0%, 0%, 0%)" fill-opacity="1" d="M 37.960938 135.234375 C 37.960938 137.140625 35.773438 137.140625 35.273438 137.140625 C 34.679688 137.140625 33.992188 137.109375 33.429688 136.796875 C 33.179688 136.609375 32.585938 136.109375 32.585938 135.234375 C 32.585938 133.328125 34.742188 133.328125 35.242188 133.328125 C 35.835938 133.328125 36.554688 133.359375 37.085938 133.671875 C 37.335938 133.859375 37.960938 134.359375 37.960938 135.234375 Z M 38.804688 137.765625 C 38.710938 137.765625 38.210938 137.765625 37.773438 137.390625 C 38.398438 136.546875 38.460938 135.640625 38.460938 135.234375 C 38.460938 133.203125 36.960938 131.703125 35.273438 131.703125 C 34.460938 131.703125 33.648438 132.046875 33.148438 132.609375 C 32.429688 131.796875 32.304688 131.015625 32.304688 130.640625 C 32.304688 130.578125 32.304688 130.484375 32.335938 130.421875 C 32.429688 130.640625 32.648438 130.765625 32.929688 130.765625 C 33.304688 130.765625 33.554688 130.484375 33.554688 130.140625 C 33.554688 129.921875 33.398438 129.484375 32.898438 129.484375 C 32.523438 129.484375 31.835938 129.765625 31.835938 130.609375 C 31.835938 131.046875 31.960938 132.015625 32.867188 132.921875 C 32.148438 133.828125 32.054688 134.765625 32.054688 135.234375 C 32.054688 137.265625 33.585938 138.765625 35.242188 138.765625 C 36.210938 138.765625 37.054688 138.296875 37.492188 137.734375 C 37.835938 138.015625 38.554688 138.421875 39.304688 138.421875 C 39.992188 138.421875 40.804688 138.140625 41.242188 137.453125 C 41.617188 138.765625 42.554688 139.453125 43.429688 139.453125 C 44.992188 139.453125 46.210938 137.296875 46.210938 134.640625 C 46.210938 132.078125 45.085938 129.796875 43.398438 129.796875 C 42.617188 129.796875 41.523438 130.109375 40.898438 131.234375 C 40.304688 132.390625 40.304688 133.640625 40.304688 134.984375 C 40.304688 135.515625 40.304688 136.453125 40.273438 136.609375 C 40.179688 137.296875 39.523438 137.765625 38.804688 137.765625 Z M 45.710938 134.640625 C 45.710938 136.828125 44.585938 138.328125 43.429688 138.328125 C 42.429688 138.328125 41.617188 137.515625 41.554688 136.546875 L 41.554688 135.265625 C 41.554688 133.390625 41.554688 130.953125 43.429688 130.953125 C 44.617188 130.953125 45.710938 132.484375 45.710938 134.640625 Z M 45.710938 134.640625 "/>
<path fill-rule="nonzero" fill="rgb(0%, 0%, 0%)" fill-opacity="1" d="M 33.398438 114.363281 C 33.085938 114.269531 33.054688 114.269531 32.898438 114.269531 C 32.492188 114.269531 32.304688 114.582031 32.304688 114.894531 C 32.304688 115.113281 32.429688 115.457031 32.773438 115.675781 C 32.867188 115.707031 33.554688 115.894531 33.960938 115.957031 C 34.523438 116.113281 35.117188 116.269531 35.679688 116.394531 L 39.617188 117.394531 C 39.929688 117.488281 41.460938 118.425781 41.460938 119.863281 C 41.460938 120.957031 40.523438 121.207031 39.710938 121.207031 C 38.710938 121.207031 37.335938 120.832031 35.429688 120.082031 C 34.523438 119.738281 34.304688 119.644531 33.867188 119.644531 C 32.867188 119.644531 32.054688 120.363281 32.054688 121.457031 C 32.054688 123.519531 35.242188 124.332031 35.429688 124.332031 C 35.648438 124.332031 35.648438 124.113281 35.648438 124.050781 C 35.648438 123.832031 35.617188 123.832031 35.242188 123.707031 C 33.210938 123.113281 32.554688 122.238281 32.554688 121.519531 C 32.554688 121.332031 32.554688 120.957031 33.242188 120.957031 C 33.804688 120.957031 34.367188 121.175781 34.773438 121.332031 C 37.085938 122.207031 38.335938 122.613281 39.367188 122.613281 C 41.304688 122.613281 41.960938 121.238281 41.960938 119.925781 C 41.960938 119.082031 41.585938 118.363281 40.960938 117.738281 C 42.117188 118.019531 43.179688 118.269531 44.335938 119.144531 C 45.054688 119.707031 45.710938 120.550781 45.710938 121.550781 C 45.710938 121.863281 45.648438 122.832031 44.773438 123.207031 C 44.773438 122.863281 44.773438 122.582031 44.523438 122.269531 C 44.335938 122.050781 44.054688 121.832031 43.617188 121.832031 C 42.960938 121.832031 42.867188 122.425781 42.867188 122.644531 C 42.867188 123.144531 43.210938 123.863281 44.273438 123.863281 C 45.367188 123.863281 46.179688 122.894531 46.179688 121.550781 C 46.179688 119.300781 44.210938 117.050781 41.742188 116.457031 Z M 33.398438 114.363281 "/>
<path fill-rule="nonzero" fill="rgb(100%, 100%, 100%)" fill-opacity="1" d="M 24.695312 269.703125 L 53.976562 269.703125 L 53.976562 296.585938 L 24.695312 296.585938 Z M 24.695312 269.703125 "/>
<path fill-rule="nonzero" fill="rgb(0%, 0%, 0%)" fill-opacity="1" d="M 46.875 281.058594 C 46.875 277.527344 44.5625 275.183594 41.3125 275.183594 C 36.59375 275.183594 31.78125 280.121094 31.78125 285.214844 C 31.78125 288.839844 34.21875 291.027344 37.375 291.027344 C 42 291.027344 46.875 286.246094 46.875 281.058594 Z M 37.5 290.464844 C 35.34375 290.464844 33.8125 288.714844 33.8125 285.839844 C 33.8125 284.871094 34.125 281.683594 35.8125 279.121094 C 37.3125 276.871094 39.4375 275.714844 41.15625 275.714844 C 42.96875 275.714844 44.90625 276.933594 44.90625 280.183594 C 44.90625 281.777344 44.34375 285.183594 42.15625 287.839844 C 41.125 289.183594 39.34375 290.464844 37.5 290.464844 Z M 37.5 290.464844 "/>
<path fill-rule="nonzero" fill="rgb(100%, 100%, 100%)" fill-opacity="1" d="M 394.15625 269.703125 L 426.078125 269.703125 L 426.078125 296.585938 L 394.15625 296.585938 Z M 394.15625 269.703125 "/>
<path fill-rule="nonzero" fill="rgb(0%, 0%, 0%)" fill-opacity="1" d="M 410.777344 281.589844 L 408.933594 277.246094 C 408.871094 277.089844 408.808594 276.996094 408.808594 276.964844 C 408.808594 276.839844 409.183594 276.433594 410.121094 276.339844 C 410.339844 276.308594 410.558594 276.308594 410.558594 275.933594 C 410.558594 275.652344 410.277344 275.652344 410.214844 275.652344 C 409.308594 275.652344 408.371094 275.714844 407.464844 275.714844 C 406.933594 275.714844 405.558594 275.652344 405.027344 275.652344 C 404.902344 275.652344 404.621094 275.652344 404.621094 276.089844 C 404.621094 276.339844 404.839844 276.339844 405.121094 276.339844 C 406.433594 276.339844 406.589844 276.558594 406.777344 277.027344 L 409.339844 283.121094 L 404.746094 288.058594 L 404.464844 288.308594 C 403.402344 289.464844 402.371094 289.808594 401.246094 289.871094 C 400.964844 289.902344 400.777344 289.902344 400.777344 290.308594 C 400.777344 290.339844 400.777344 290.558594 401.058594 290.558594 C 401.714844 290.558594 402.433594 290.496094 403.121094 290.496094 C 403.902344 290.496094 404.777344 290.558594 405.558594 290.558594 C 405.683594 290.558594 405.933594 290.558594 405.933594 290.121094 C 405.933594 289.902344 405.714844 289.871094 405.683594 289.871094 C 405.496094 289.871094 404.808594 289.808594 404.808594 289.214844 C 404.808594 288.871094 405.121094 288.496094 405.402344 288.214844 L 407.621094 285.871094 L 409.589844 283.746094 L 411.777344 288.933594 C 411.871094 289.183594 411.902344 289.214844 411.902344 289.246094 C 411.902344 289.433594 411.496094 289.808594 410.621094 289.871094 C 410.402344 289.902344 410.183594 289.933594 410.183594 290.308594 C 410.183594 290.558594 410.433594 290.558594 410.527344 290.558594 C 411.121094 290.558594 412.652344 290.496094 413.277344 290.496094 C 413.808594 290.496094 415.152344 290.558594 415.683594 290.558594 C 415.839844 290.558594 416.121094 290.558594 416.121094 290.152344 C 416.121094 289.871094 415.902344 289.871094 415.714844 289.871094 C 414.246094 289.871094 414.214844 289.808594 413.839844 288.933594 C 412.996094 286.902344 411.527344 283.496094 411.027344 282.183594 C 412.496094 280.652344 414.808594 278.058594 415.496094 277.464844 C 416.121094 276.933594 416.964844 276.402344 418.277344 276.339844 C 418.558594 276.308594 418.746094 276.308594 418.746094 275.902344 C 418.746094 275.871094 418.746094 275.652344 418.464844 275.652344 C 417.808594 275.652344 417.089844 275.714844 416.402344 275.714844 C 415.589844 275.714844 414.777344 275.652344 413.996094 275.652344 C 413.871094 275.652344 413.589844 275.652344 413.589844 276.089844 C 413.589844 276.246094 413.683594 276.308594 413.839844 276.339844 C 414.027344 276.371094 414.714844 276.402344 414.714844 277.027344 C 414.714844 277.308594 414.464844 277.589844 414.308594 277.808594 Z M 410.777344 281.589844 "/>
<path fill="none" stroke-width="11.9553" stroke-linecap="butt" stroke-linejoin="miter" stroke="rgb(0%, 0%, 0%)" stroke-opacity="1" stroke-miterlimit="10" d="M 218.554684 321.601558 L 2070.039032 321.601558 " transform="matrix(0.2, 0, 0, -0.2, 0, 334)"/>
<path fill="none" stroke-width="11.9553" stroke-linecap="butt" stroke-linejoin="miter" stroke="rgb(0%, 0%, 0%)" stroke-opacity="1" stroke-miterlimit="10" d="M 269.999996 153.593748 L 269.999996 1581.601539 " transform="matrix(0.2, 0, 0, -0.2, 0, 334)"/>
<path fill-rule="nonzero" fill="rgb(0%, 0%, 0%)" fill-opacity="1" d="M 189.601562 326.300781 C 190.789062 325.894531 192.789062 325.300781 192.789062 323.363281 C 192.789062 321.050781 190.070312 319.988281 188.101562 319.988281 C 187.164062 319.988281 186.195312 320.207031 185.351562 320.707031 C 185.226562 320.769531 185.070312 320.957031 184.914062 320.957031 C 184.601562 320.957031 184.039062 319.988281 183.726562 319.988281 C 183.539062 319.988281 183.507812 320.207031 183.507812 320.300781 L 183.507812 323.863281 C 183.507812 323.988281 183.601562 324.144531 183.789062 324.144531 C 184.101562 324.144531 184.070312 323.519531 184.164062 323.175781 C 184.632812 321.457031 186.195312 320.707031 187.695312 320.613281 L 188.101562 320.613281 C 189.445312 320.613281 191.007812 321.488281 191.007812 323.363281 C 191.007812 325.175781 189.226562 326.113281 187.570312 326.113281 C 187.257812 326.113281 186.945312 326.113281 186.632812 326.113281 L 186.476562 326.113281 C 186.289062 326.113281 186.070312 326.113281 186.070312 326.332031 L 186.070312 326.363281 C 186.101562 326.550781 186.289062 326.582031 186.476562 326.582031 L 188.320312 326.582031 C 189.882812 326.707031 191.320312 327.738281 191.476562 329.363281 L 191.476562 329.582031 C 191.476562 331.425781 189.757812 332.582031 188.007812 332.582031 C 186.101562 332.582031 184.132812 331.957031 183.820312 329.582031 C 183.820312 329.425781 183.757812 329.238281 183.539062 329.238281 C 183.320312 329.269531 183.289062 329.425781 183.289062 329.582031 C 183.289062 332.175781 185.882812 333.207031 188.132812 333.207031 C 190.195312 333.207031 193.070312 332.238281 193.320312 329.769531 L 193.320312 329.644531 C 193.320312 327.675781 191.257812 326.707031 189.601562 326.300781 Z M 189.601562 326.300781 "/>
<path fill-rule="nonzero" fill="rgb(0%, 0%, 0%)" fill-opacity="1" d="M 201.695312 319.988281 C 198.320312 320.394531 195.632812 323.050781 195.632812 326.644531 C 195.632812 329.925781 198.226562 333.175781 202.101562 333.175781 C 205.601562 333.175781 208.570312 330.269531 208.570312 326.644531 C 208.570312 323.457031 206.070312 319.988281 202.132812 319.988281 C 202.007812 319.988281 201.851562 319.988281 201.695312 319.988281 Z M 197.507812 326.863281 L 197.507812 326.519531 C 197.507812 324.019531 198.414062 321.082031 201.570312 320.550781 C 201.757812 320.519531 201.914062 320.519531 202.101562 320.519531 C 204.914062 320.519531 206.664062 323.238281 206.664062 326.269531 C 206.664062 328.675781 205.945312 331.738281 202.976562 332.519531 C 202.695312 332.582031 202.414062 332.613281 202.132812 332.613281 L 201.945312 332.613281 C 199.351562 332.519531 197.945312 330.050781 197.601562 327.644531 Z M 197.507812 326.863281 "/>
<path fill-rule="nonzero" fill="rgb(0%, 0%, 0%)" fill-opacity="1" d="M 211.027344 320.332031 L 211.027344 320.925781 L 211.464844 320.925781 C 212.058594 320.925781 212.683594 321.019531 212.683594 321.894531 L 212.683594 331.363281 C 212.683594 332.207031 211.964844 332.238281 211.308594 332.238281 L 211.027344 332.238281 L 211.027344 332.832031 L 216.808594 332.832031 C 217.214844 332.832031 217.589844 332.863281 217.996094 332.863281 C 219.996094 332.863281 222.339844 331.925781 222.558594 329.519531 L 222.558594 329.332031 C 222.558594 326.800781 219.683594 325.769531 217.777344 325.769531 C 216.527344 325.769531 215.339844 325.894531 214.152344 325.988281 L 214.152344 321.769531 C 214.152344 321.332031 214.214844 320.925781 214.996094 320.925781 L 217.308594 320.925781 C 218.277344 320.925781 219.371094 320.988281 220.089844 321.707031 C 220.777344 322.425781 220.871094 323.644531 220.964844 324.582031 L 221.496094 324.582031 L 221.027344 320.332031 Z M 214.152344 326.613281 C 214.402344 326.613281 214.652344 326.550781 214.902344 326.519531 L 216.277344 326.457031 C 216.558594 326.425781 216.839844 326.394531 217.152344 326.394531 C 218.714844 326.394531 220.683594 327.394531 220.683594 329.238281 C 220.683594 330.988281 219.339844 332.269531 217.339844 332.269531 C 217.058594 332.269531 216.746094 332.238281 216.496094 332.238281 L 214.964844 332.238281 C 214.496094 332.238281 214.246094 332.207031 214.152344 331.582031 Z M 214.152344 326.613281 "/>
<path fill-rule="nonzero" fill="rgb(0%, 0%, 0%)" fill-opacity="1" d="M 224.90625 320.332031 L 224.90625 320.925781 L 225.375 320.925781 C 225.96875 320.925781 226.5625 321.019531 226.5625 321.894531 L 226.5625 331.363281 C 226.5625 332.207031 225.875 332.238281 225.1875 332.238281 L 224.90625 332.238281 L 224.90625 332.832031 L 229.8125 332.832031 L 229.8125 332.238281 L 229.375 332.238281 C 228.75 332.238281 228.15625 332.175781 228.15625 331.300781 L 228.15625 327.113281 L 231.875 327.113281 C 233.65625 326.988281 235.9375 325.800781 235.9375 323.769531 C 235.9375 321.550781 233.59375 320.488281 231.6875 320.332031 Z M 228.125 326.582031 L 228.125 321.582031 C 228.21875 320.988281 228.46875 320.925781 228.875 320.925781 L 230.3125 320.925781 C 231.9375 320.925781 234.0625 320.988281 234.0625 323.769531 C 234.0625 324.425781 233.96875 325.113281 233.5625 325.613281 C 232.90625 326.394531 231.8125 326.582031 230.84375 326.582031 Z M 228.125 326.582031 "/>
<path fill-rule="nonzero" fill="rgb(0%, 0%, 0%)" fill-opacity="1" d="M 240.636719 330.550781 C 240.136719 330.644531 239.636719 331.082031 239.636719 331.675781 C 239.636719 332.300781 240.167969 332.832031 240.792969 332.832031 C 241.417969 332.832031 241.980469 332.363281 241.980469 331.707031 C 241.980469 331.082031 241.449219 330.519531 240.824219 330.519531 C 240.761719 330.519531 240.699219 330.550781 240.636719 330.550781 Z M 240.636719 330.550781 "/>
<path fill-rule="nonzero" fill="rgb(0%, 0%, 0%)" fill-opacity="1" d="M 254.191406 328.832031 L 260.785156 328.832031 L 260.785156 331.113281 C 260.785156 332.144531 259.972656 332.144531 258.410156 332.144531 L 258.410156 332.832031 L 264.847656 332.832031 L 264.847656 332.144531 C 264.566406 332.144531 264.253906 332.175781 263.941406 332.175781 C 263.128906 332.175781 262.472656 332.050781 262.472656 331.113281 L 262.472656 328.832031 L 265.003906 328.832031 L 265.003906 328.144531 L 262.472656 328.144531 L 262.472656 317.019531 L 262.378906 316.738281 L 261.910156 316.738281 L 261.597656 317.144531 L 254.191406 328.144531 Z M 254.785156 328.144531 L 260.878906 319.082031 L 260.878906 328.144531 Z M 254.785156 328.144531 "/>
<path fill-rule="nonzero" fill="rgb(0%, 0%, 0%)" fill-opacity="1" d="M 268.527344 318.457031 L 268.527344 319.175781 C 269.621094 319.175781 270.652344 318.988281 271.683594 318.519531 L 271.683594 331.082031 C 271.683594 332.019531 270.777344 332.175781 269.808594 332.175781 C 269.402344 332.175781 268.996094 332.144531 268.652344 332.144531 L 268.652344 332.832031 L 276.371094 332.832031 L 276.371094 332.144531 C 275.996094 332.144531 275.558594 332.175781 275.152344 332.175781 C 274.214844 332.175781 273.339844 332.019531 273.339844 331.113281 L 273.339844 317.300781 C 273.339844 317.144531 273.308594 316.957031 273.058594 316.957031 C 272.746094 316.957031 272.402344 317.394531 272.089844 317.582031 C 271.027344 318.269531 269.746094 318.457031 268.527344 318.457031 Z M 268.527344 318.457031 "/>
<path fill-rule="nonzero" fill="rgb(0%, 0%, 0%)" fill-opacity="1" d="M 282.144531 330.550781 C 281.644531 330.644531 281.144531 331.082031 281.144531 331.675781 C 281.144531 332.300781 281.675781 332.832031 282.300781 332.832031 C 282.925781 332.832031 283.488281 332.363281 283.488281 331.707031 C 283.488281 331.082031 282.957031 330.519531 282.332031 330.519531 C 282.269531 330.519531 282.207031 330.550781 282.144531 330.550781 Z M 282.144531 330.550781 "/>
</svg>
