<?xml version="1.0" encoding="UTF-8"?>
<svg xmlns="http://www.w3.org/2000/svg" xmlns:xlink="http://www.w3.org/1999/xlink" width="348" height="330" viewBox="0 0 348 330">
<path fill="none" stroke-width="11.9553" stroke-linecap="butt" stroke-linejoin="miter" stroke="rgb(0%, 0%, 0%)" stroke-opacity="1" stroke-miterlimit="10" d="M 729.999989 921.601549 L 1738.007787 921.601549 " transform="matrix(0.2, 0, 0, -0.2, 0, 330)"/>
<path fill="none" stroke-width="11.9553" stroke-linecap="butt" stroke-linejoin="miter" stroke="rgb(0%, 0%, 0%)" stroke-opacity="1" stroke-miterlimit="10" d="M 729.999989 921.601549 L 1535.03904 1528.242165 " transform="matrix(0.2, 0, 0, -0.2, 0, 330)"/>
<path fill="none" stroke-width="11.9553" stroke-linecap="butt" stroke-linejoin="miter" stroke="rgb(0%, 0%, 0%)" stroke-opacity="1" stroke-miterlimit="10" d="M 729.999989 921.601549 L 1442.773416 1634.374976 " transform="matrix(0.2, 0, 0, -0.2, 0, 330)"/>
<path fill-rule="nonzero" fill="rgb(0%, 0%, 0%)" fill-opacity="1" d="M 291.652344 11.425781 C 291.652344 11.425781 291.652344 11.207031 291.371094 11.207031 C 291.058594 11.207031 288.964844 11.394531 288.589844 11.425781 C 288.433594 11.457031 288.308594 11.550781 288.308594 11.863281 C 288.308594 12.113281 288.496094 12.113281 288.808594 12.113281 C 289.871094 12.113281 289.902344 12.269531 289.902344 12.488281 L 289.839844 12.925781 L 288.527344 18.082031 C 288.152344 17.269531 287.527344 16.675781 286.527344 16.675781 C 283.964844 16.675781 281.277344 19.894531 281.277344 23.082031 C 281.277344 25.144531 282.464844 26.582031 284.183594 26.582031 C 284.621094 26.582031 285.714844 26.488281 286.996094 24.925781 C 287.183594 25.863281 287.964844 26.582031 288.996094 26.582031 C 289.746094 26.582031 290.246094 26.082031 290.621094 25.363281 C 290.996094 24.582031 291.277344 23.269531 291.277344 23.207031 C 291.277344 22.988281 291.058594 22.988281 290.996094 22.988281 C 290.777344 22.988281 290.777344 23.082031 290.683594 23.394531 C 290.339844 24.800781 289.933594 26.082031 289.027344 26.082031 C 288.464844 26.082031 288.371094 25.519531 288.371094 25.082031 C 288.371094 24.550781 288.433594 24.425781 288.527344 24.050781 Z M 287.121094 23.738281 C 286.996094 24.144531 286.996094 24.175781 286.683594 24.550781 C 285.714844 25.738281 284.839844 26.082031 284.214844 26.082031 C 283.121094 26.082031 282.808594 24.894531 282.808594 24.050781 C 282.808594 22.957031 283.527344 20.269531 284.027344 19.269531 C 284.714844 17.988281 285.683594 17.175781 286.558594 17.175781 C 287.964844 17.175781 288.277344 18.957031 288.277344 19.082031 C 288.277344 19.207031 288.246094 19.363281 288.214844 19.457031 Z M 287.121094 23.738281 "/>
<path fill-rule="nonzero" fill="rgb(0%, 0%, 0%)" fill-opacity="1" d="M 301.621094 15.425781 C 301.621094 13.988281 301.214844 10.957031 298.996094 10.957031 C 295.964844 10.957031 292.589844 17.113281 292.589844 22.113281 C 292.589844 24.144531 293.246094 26.582031 295.214844 26.582031 C 298.277344 26.582031 301.621094 20.300781 301.621094 15.425781 Z M 294.902344 18.425781 C 295.277344 17.019531 295.714844 15.269531 296.589844 13.738281 C 297.183594 12.644531 297.996094 11.425781 298.964844 11.425781 C 300.027344 11.425781 300.183594 12.832031 300.183594 14.082031 C 300.183594 15.144531 299.996094 16.269531 299.464844 18.425781 Z M 299.277344 19.113281 C 299.027344 20.113281 298.589844 21.957031 297.746094 23.550781 C 296.996094 25.019531 296.152344 26.082031 295.214844 26.082031 C 294.496094 26.082031 294.027344 25.457031 294.027344 23.425781 C 294.027344 22.519531 294.183594 21.238281 294.746094 19.113281 Z M 299.277344 19.113281 "/>
<path fill="none" stroke-width="11.9553" stroke-linecap="butt" stroke-linejoin="miter" stroke="rgb(0%, 0%, 0%)" stroke-opacity="1" stroke-miterlimit="10" d="M 1003.124985 1013.007797 L 998.51561 1025.742172 L 993.320298 1038.281235 L 987.539048 1050.546859 L 981.17186 1062.539047 L 974.257798 1074.218734 " transform="matrix(0.2, 0, 0, -0.2, 0, 330)"/>
<path fill-rule="nonzero" fill="rgb(0%, 0%, 0%)" fill-opacity="1" d="M 199.039062 122.226562 L 200.328125 121.460938 L 194.851562 115.15625 L 197.757812 122.984375 L 199.039062 122.226562 "/>
<path fill="none" stroke-width="11.9553" stroke-linecap="butt" stroke-linejoin="miter" stroke="rgb(0%, 0%, 0%)" stroke-opacity="1" stroke-miterlimit="10" d="M 995.195298 1038.867172 L 1001.64061 1042.695297 L 974.257798 1074.218734 L 988.789048 1035.07811 Z M 995.195298 1038.867172 " transform="matrix(0.2, 0, 0, -0.2, 0, 330)"/>
<path fill="none" stroke-width="11.9553" stroke-linecap="butt" stroke-linejoin="miter" stroke="rgb(0%, 0%, 0%)" stroke-opacity="1" stroke-miterlimit="10" d="M 1003.124985 1013.007797 L 1007.148422 1000.039048 L 1010.507797 986.874985 L 1013.281235 973.593735 L 1015.39061 960.195298 L 1016.914047 946.718736 " transform="matrix(0.2, 0, 0, -0.2, 0, 330)"/>
<path fill-rule="nonzero" fill="rgb(0%, 0%, 0%)" fill-opacity="1" d="M 202.476562 132.492188 L 200.992188 132.65625 L 203.382812 140.65625 L 203.960938 132.320312 L 202.476562 132.492188 "/>
<path fill="none" stroke-width="11.9553" stroke-linecap="butt" stroke-linejoin="miter" stroke="rgb(0%, 0%, 0%)" stroke-opacity="1" stroke-miterlimit="10" d="M 1012.382797 987.539048 L 1004.960923 986.718735 L 1016.914047 946.718736 L 1019.804672 988.398423 Z M 1012.382797 987.539048 " transform="matrix(0.2, 0, 0, -0.2, 0, 330)"/>
<path fill-rule="nonzero" fill="rgb(0%, 0%, 0%)" fill-opacity="1" d="M 214.546875 116.492188 C 214.546875 115.054688 214.140625 112.023438 211.921875 112.023438 C 208.890625 112.023438 205.515625 118.179688 205.515625 123.179688 C 205.515625 125.210938 206.171875 127.648438 208.140625 127.648438 C 211.203125 127.648438 214.546875 121.367188 214.546875 116.492188 Z M 207.828125 119.492188 C 208.203125 118.085938 208.640625 116.335938 209.515625 114.804688 C 210.109375 113.710938 210.921875 112.492188 211.890625 112.492188 C 212.953125 112.492188 213.109375 113.898438 213.109375 115.148438 C 213.109375 116.210938 212.921875 117.335938 212.390625 119.492188 Z M 212.203125 120.179688 C 211.953125 121.179688 211.515625 123.023438 210.671875 124.617188 C 209.921875 126.085938 209.078125 127.148438 208.140625 127.148438 C 207.421875 127.148438 206.953125 126.523438 206.953125 124.492188 C 206.953125 123.585938 207.109375 122.304688 207.671875 120.179688 Z M 212.203125 120.179688 "/>
<path fill-rule="nonzero" fill="rgb(0%, 0%, 0%)" fill-opacity="1" d="M 140.890625 155.042969 C 140.890625 151.511719 138.578125 149.167969 135.328125 149.167969 C 130.609375 149.167969 125.796875 154.105469 125.796875 159.199219 C 125.796875 162.824219 128.234375 165.011719 131.390625 165.011719 C 136.015625 165.011719 140.890625 160.230469 140.890625 155.042969 Z M 131.515625 164.449219 C 129.359375 164.449219 127.828125 162.699219 127.828125 159.824219 C 127.828125 158.855469 128.140625 155.667969 129.828125 153.105469 C 131.328125 150.855469 133.453125 149.699219 135.171875 149.699219 C 136.984375 149.699219 138.921875 150.917969 138.921875 154.167969 C 138.921875 155.761719 138.359375 159.167969 136.171875 161.824219 C 135.140625 163.167969 133.359375 164.449219 131.515625 164.449219 Z M 131.515625 164.449219 "/>
<path fill="none" stroke-width="7.9701" stroke-linecap="butt" stroke-linejoin="miter" stroke="rgb(0%, 0%, 0%)" stroke-opacity="1" stroke-miterlimit="10" d="M 1239.140607 921.601549 L 1255.624981 921.601549 " transform="matrix(0.2, 0, 0, -0.2, 0, 330)"/>
<path fill="none" stroke-width="7.9701" stroke-linecap="butt" stroke-linejoin="miter" stroke="rgb(0%, 0%, 0%)" stroke-opacity="1" stroke-miterlimit="10" d="M 1288.554668 921.601549 L 1305.039043 921.601549 " transform="matrix(0.2, 0, 0, -0.2, 0, 330)"/>
<path fill="none" stroke-width="7.9701" stroke-linecap="butt" stroke-linejoin="miter" stroke="rgb(0%, 0%, 0%)" stroke-opacity="1" stroke-miterlimit="10" d="M 1305.039043 921.601549 L 1305.039043 948.671861 " transform="matrix(0.2, 0, 0, -0.2, 0, 330)"/>
<path fill="none" stroke-width="7.9701" stroke-linecap="butt" stroke-linejoin="miter" stroke="rgb(0%, 0%, 0%)" stroke-opacity="1" stroke-miterlimit="10" d="M 1305.039043 1002.851548 L 1305.039043 1029.92186 " transform="matrix(0.2, 0, 0, -0.2, 0, 330)"/>
<path fill="none" stroke-width="7.9701" stroke-linecap="butt" stroke-linejoin="miter" stroke="rgb(0%, 0%, 0%)" stroke-opacity="1" stroke-miterlimit="10" d="M 1305.039043 1029.92186 L 1305.039043 1057.031234 " transform="matrix(0.2, 0, 0, -0.2, 0, 330)"/>
<path fill="none" stroke-width="7.9701" stroke-linecap="butt" stroke-linejoin="miter" stroke="rgb(0%, 0%, 0%)" stroke-opacity="1" stroke-miterlimit="10" d="M 1305.039043 1111.171858 L 1305.039043 1138.242171 " transform="matrix(0.2, 0, 0, -0.2, 0, 330)"/>
<path fill="none" stroke-width="7.9701" stroke-linecap="butt" stroke-linejoin="miter" stroke="rgb(0%, 0%, 0%)" stroke-opacity="1" stroke-miterlimit="10" d="M 1305.039043 1138.242171 L 1305.039043 1165.351545 " transform="matrix(0.2, 0, 0, -0.2, 0, 330)"/>
<path fill="none" stroke-width="7.9701" stroke-linecap="butt" stroke-linejoin="miter" stroke="rgb(0%, 0%, 0%)" stroke-opacity="1" stroke-miterlimit="10" d="M 1305.039043 1219.531232 L 1305.039043 1246.601544 " transform="matrix(0.2, 0, 0, -0.2, 0, 330)"/>
<path fill="none" stroke-width="7.9701" stroke-linecap="butt" stroke-linejoin="miter" stroke="rgb(0%, 0%, 0%)" stroke-opacity="1" stroke-miterlimit="10" d="M 1305.039043 1246.601544 L 1305.039043 1273.671856 " transform="matrix(0.2, 0, 0, -0.2, 0, 330)"/>
<path fill="none" stroke-width="7.9701" stroke-linecap="butt" stroke-linejoin="miter" stroke="rgb(0%, 0%, 0%)" stroke-opacity="1" stroke-miterlimit="10" d="M 1305.039043 1327.81248 L 1305.039043 1354.921855 " transform="matrix(0.2, 0, 0, -0.2, 0, 330)"/>
<path fill="none" stroke-width="7.9701" stroke-linecap="butt" stroke-linejoin="miter" stroke="rgb(0%, 0%, 0%)" stroke-opacity="1" stroke-miterlimit="10" d="M 1305.039043 1354.921855 L 1288.554668 1354.921855 " transform="matrix(0.2, 0, 0, -0.2, 0, 330)"/>
<path fill="none" stroke-width="7.9701" stroke-linecap="butt" stroke-linejoin="miter" stroke="rgb(0%, 0%, 0%)" stroke-opacity="1" stroke-miterlimit="10" d="M 1255.624981 1354.921855 L 1239.140607 1354.921855 " transform="matrix(0.2, 0, 0, -0.2, 0, 330)"/>
<path fill="none" stroke-width="7.9701" stroke-linecap="butt" stroke-linejoin="miter" stroke="rgb(0%, 0%, 0%)" stroke-opacity="1" stroke-miterlimit="10" d="M 1239.140607 1354.921855 L 1239.140607 1327.81248 " transform="matrix(0.2, 0, 0, -0.2, 0, 330)"/>
<path fill="none" stroke-width="7.9701" stroke-linecap="butt" stroke-linejoin="miter" stroke="rgb(0%, 0%, 0%)" stroke-opacity="1" stroke-miterlimit="10" d="M 1239.140607 1273.671856 L 1239.140607 1246.601544 " transform="matrix(0.2, 0, 0, -0.2, 0, 330)"/>
<path fill="none" stroke-width="7.9701" stroke-linecap="butt" stroke-linejoin="miter" stroke="rgb(0%, 0%, 0%)" stroke-opacity="1" stroke-miterlimit="10" d="M 1239.140607 1246.601544 L 1239.140607 1219.531232 " transform="matrix(0.2, 0, 0, -0.2, 0, 330)"/>
<path fill="none" stroke-width="7.9701" stroke-linecap="butt" stroke-linejoin="miter" stroke="rgb(0%, 0%, 0%)" stroke-opacity="1" stroke-miterlimit="10" d="M 1239.140607 1165.351545 L 1239.140607 1138.242171 " transform="matrix(0.2, 0, 0, -0.2, 0, 330)"/>
<path fill="none" stroke-width="7.9701" stroke-linecap="butt" stroke-linejoin="miter" stroke="rgb(0%, 0%, 0%)" stroke-opacity="1" stroke-miterlimit="10" d="M 1239.140607 1138.242171 L 1239.140607 1111.171858 " transform="matrix(0.2, 0, 0, -0.2, 0, 330)"/>
<path fill="none" stroke-width="7.9701" stroke-linecap="butt" stroke-linejoin="miter" stroke="rgb(0%, 0%, 0%)" stroke-opacity="1" stroke-miterlimit="10" d="M 1239.140607 1057.031234 L 1239.140607 1029.92186 " transform="matrix(0.2, 0, 0, -0.2, 0, 330)"/>
<path fill="none" stroke-width="7.9701" stroke-linecap="butt" stroke-linejoin="miter" stroke="rgb(0%, 0%, 0%)" stroke-opacity="1" stroke-miterlimit="10" d="M 1239.140607 1029.92186 L 1239.140607 1002.851548 " transform="matrix(0.2, 0, 0, -0.2, 0, 330)"/>
<path fill="none" stroke-width="7.9701" stroke-linecap="butt" stroke-linejoin="miter" stroke="rgb(0%, 0%, 0%)" stroke-opacity="1" stroke-miterlimit="10" d="M 1239.140607 948.671861 L 1239.140607 921.601549 " transform="matrix(0.2, 0, 0, -0.2, 0, 330)"/>
<path fill-rule="nonzero" fill="rgb(100%, 100%, 100%)" fill-opacity="1" d="M 281.101562 89.414062 L 304.625 89.414062 L 304.625 115.09375 L 281.101562 115.09375 Z M 281.101562 89.414062 "/>
<path fill-rule="nonzero" fill="rgb(0%, 0%, 0%)" fill-opacity="1" d="M 297.722656 96.675781 C 297.816406 96.363281 297.816406 96.332031 297.816406 96.175781 C 297.816406 95.769531 297.503906 95.582031 297.191406 95.582031 C 296.972656 95.582031 296.628906 95.707031 296.410156 96.050781 C 296.378906 96.144531 296.191406 96.832031 296.128906 97.238281 C 295.972656 97.800781 295.816406 98.394531 295.691406 98.957031 L 294.691406 102.894531 C 294.597656 103.207031 293.660156 104.738281 292.222656 104.738281 C 291.128906 104.738281 290.878906 103.800781 290.878906 102.988281 C 290.878906 101.988281 291.253906 100.613281 292.003906 98.707031 C 292.347656 97.800781 292.441406 97.582031 292.441406 97.144531 C 292.441406 96.144531 291.722656 95.332031 290.628906 95.332031 C 288.566406 95.332031 287.753906 98.519531 287.753906 98.707031 C 287.753906 98.925781 287.972656 98.925781 288.035156 98.925781 C 288.253906 98.925781 288.253906 98.894531 288.378906 98.519531 C 288.972656 96.488281 289.847656 95.832031 290.566406 95.832031 C 290.753906 95.832031 291.128906 95.832031 291.128906 96.519531 C 291.128906 97.082031 290.910156 97.644531 290.753906 98.050781 C 289.878906 100.363281 289.472656 101.613281 289.472656 102.644531 C 289.472656 104.582031 290.847656 105.238281 292.160156 105.238281 C 293.003906 105.238281 293.722656 104.863281 294.347656 104.238281 C 294.066406 105.394531 293.816406 106.457031 292.941406 107.613281 C 292.378906 108.332031 291.535156 108.988281 290.535156 108.988281 C 290.222656 108.988281 289.253906 108.925781 288.878906 108.050781 C 289.222656 108.050781 289.503906 108.050781 289.816406 107.800781 C 290.035156 107.613281 290.253906 107.332031 290.253906 106.894531 C 290.253906 106.238281 289.660156 106.144531 289.441406 106.144531 C 288.941406 106.144531 288.222656 106.488281 288.222656 107.550781 C 288.222656 108.644531 289.191406 109.457031 290.535156 109.457031 C 292.785156 109.457031 295.035156 107.488281 295.628906 105.019531 Z M 297.722656 96.675781 "/>
<path fill-rule="nonzero" fill="rgb(0%, 0%, 0%)" fill-opacity="1" d="M 264.992188 143.6875 L 265.1875 143.578125 L 265.375 143.46875 L 265.554688 143.34375 L 265.726562 143.210938 L 265.890625 143.0625 L 266.195312 142.757812 L 266.328125 142.585938 L 266.46875 142.40625 L 266.59375 142.21875 L 266.71875 142.023438 L 266.828125 141.820312 L 266.9375 141.609375 L 267.039062 141.382812 L 267.132812 141.15625 L 267.21875 140.921875 L 267.304688 140.679688 L 267.382812 140.429688 L 267.453125 140.171875 L 267.515625 139.90625 L 267.578125 139.632812 L 267.632812 139.351562 L 267.6875 139.0625 L 267.734375 138.773438 L 267.773438 138.476562 L 267.8125 138.171875 L 267.84375 137.859375 L 267.875 137.539062 L 267.898438 137.21875 L 267.921875 136.890625 L 267.953125 136.21875 L 267.960938 135.875 L 267.960938 135.523438 L 267.96875 135.164062 L 267.96875 134.4375 L 267.953125 133.703125 L 267.945312 133.320312 L 267.929688 132.9375 L 267.921875 132.554688 L 267.898438 132.164062 L 267.882812 131.773438 L 267.867188 131.375 L 267.84375 130.976562 L 267.773438 129.757812 L 267.742188 129.351562 L 267.726562 128.929688 L 267.695312 128.515625 L 267.671875 128.09375 L 267.640625 127.679688 L 267.617188 127.25 L 267.585938 126.828125 L 267.5625 126.398438 L 267.53125 125.96875 L 267.460938 124.679688 L 267.414062 123.804688 L 267.390625 123.375 L 267.375 122.9375 L 267.351562 122.5 L 267.320312 121.625 L 267.3125 121.195312 L 267.304688 120.757812 L 267.289062 120.320312 L 267.289062 119.882812 L 267.28125 119.445312 L 267.28125 119.015625 L 267.289062 118.578125 L 267.304688 117.71875 L 267.3125 117.28125 L 267.335938 116.859375 L 267.351562 116.429688 L 267.375 116.007812 L 267.40625 115.578125 L 267.4375 115.15625 L 267.476562 114.742188 L 267.515625 114.320312 L 267.5625 113.90625 L 267.609375 113.5 L 267.671875 113.09375 L 267.726562 112.6875 L 267.796875 112.28125 L 267.867188 111.882812 L 267.945312 111.484375 L 268.023438 111.09375 L 268.109375 110.703125 L 268.203125 110.320312 L 268.304688 109.9375 L 268.414062 109.5625 L 268.53125 109.1875 L 268.648438 108.820312 L 268.773438 108.453125 L 268.90625 108.09375 L 269.046875 107.742188 L 269.195312 107.390625 L 269.351562 107.046875 L 269.515625 106.703125 L 269.859375 106.046875 L 270.046875 105.71875 L 270.242188 105.40625 L 270.445312 105.09375 L 270.65625 104.789062 L 270.875 104.492188 L 271.101562 104.195312 L 271.585938 103.632812 L 271.84375 103.359375 L 272.109375 103.101562 L 272.382812 102.84375 L 272.671875 102.59375 L 272.960938 102.351562 L 272.382812 101.851562 L 272.109375 101.59375 L 271.84375 101.328125 L 271.585938 101.0625 L 271.34375 100.78125 L 271.101562 100.492188 L 270.875 100.203125 L 270.65625 99.90625 L 270.445312 99.601562 L 270.242188 99.289062 L 270.046875 98.96875 L 269.859375 98.648438 L 269.6875 98.320312 L 269.515625 97.984375 L 269.351562 97.648438 L 269.195312 97.304688 L 269.046875 96.953125 L 268.90625 96.601562 L 268.773438 96.242188 L 268.648438 95.875 L 268.53125 95.507812 L 268.414062 95.132812 L 268.304688 94.757812 L 268.203125 94.375 L 268.109375 93.992188 L 268.023438 93.601562 L 267.945312 93.210938 L 267.867188 92.8125 L 267.796875 92.414062 L 267.726562 92.007812 L 267.671875 91.601562 L 267.609375 91.195312 L 267.5625 90.789062 L 267.515625 90.367188 L 267.4375 89.539062 L 267.40625 89.117188 L 267.375 88.6875 L 267.351562 88.265625 L 267.335938 87.835938 L 267.3125 87.40625 L 267.289062 86.117188 L 267.28125 85.679688 L 267.28125 85.242188 L 267.289062 84.8125 L 267.289062 84.375 L 267.304688 83.9375 L 267.3125 83.507812 L 267.320312 83.0625 L 267.335938 82.625 L 267.351562 82.195312 L 267.375 81.757812 L 267.390625 81.320312 L 267.414062 80.882812 L 267.4375 80.453125 L 267.460938 80.015625 L 267.53125 78.726562 L 267.5625 78.296875 L 267.585938 77.867188 L 267.617188 77.445312 L 267.640625 77.023438 L 267.671875 76.601562 L 267.695312 76.179688 L 267.726562 75.765625 L 267.742188 75.34375 L 267.773438 74.9375 L 267.84375 73.71875 L 267.867188 73.320312 L 267.882812 72.921875 L 267.898438 72.53125 L 267.921875 72.140625 L 267.929688 71.75 L 267.945312 71.375 L 267.953125 70.992188 L 267.960938 70.625 L 267.96875 70.25 L 267.96875 69.523438 L 267.960938 69.171875 L 267.960938 68.820312 L 267.953125 68.476562 L 267.921875 67.804688 L 267.898438 67.476562 L 267.875 67.15625 L 267.84375 66.835938 L 267.8125 66.523438 L 267.773438 66.21875 L 267.734375 65.921875 L 267.6875 65.625 L 267.578125 65.0625 L 267.515625 64.789062 L 267.453125 64.523438 L 267.382812 64.265625 L 267.304688 64.015625 L 267.21875 63.773438 L 267.132812 63.539062 L 267.039062 63.304688 L 266.9375 63.085938 L 266.828125 62.875 L 266.71875 62.671875 L 266.59375 62.476562 L 266.46875 62.289062 L 266.328125 62.109375 L 266.195312 61.9375 L 266.039062 61.78125 L 265.890625 61.625 L 265.726562 61.484375 L 265.554688 61.351562 L 265.375 61.226562 L 265.1875 61.117188 L 264.992188 61.007812 L 265.242188 61.140625 L 265.492188 61.28125 L 265.726562 61.4375 L 265.945312 61.59375 L 266.164062 61.765625 L 266.367188 61.945312 L 266.5625 62.125 L 266.75 62.320312 L 266.929688 62.523438 L 267.09375 62.726562 L 267.257812 62.945312 L 267.554688 63.398438 L 267.6875 63.632812 L 267.820312 63.882812 L 267.9375 64.132812 L 268.046875 64.390625 L 268.15625 64.65625 L 268.257812 64.929688 L 268.429688 65.492188 L 268.507812 65.78125 L 268.578125 66.078125 L 268.648438 66.382812 L 268.703125 66.6875 L 268.757812 67 L 268.851562 67.640625 L 268.882812 67.976562 L 268.921875 68.304688 L 268.96875 68.992188 L 268.984375 69.34375 L 268.992188 69.695312 L 269.007812 70.054688 L 269.007812 70.78125 L 269 71.148438 L 268.992188 71.523438 L 268.984375 71.90625 L 268.96875 72.28125 L 268.953125 72.671875 L 268.929688 73.054688 L 268.90625 73.445312 L 268.882812 73.84375 L 268.851562 74.242188 L 268.828125 74.640625 L 268.789062 75.039062 L 268.757812 75.445312 L 268.71875 75.859375 L 268.6875 76.265625 L 268.648438 76.679688 L 268.601562 77.09375 L 268.523438 77.921875 L 268.476562 78.34375 L 268.4375 78.765625 L 268.390625 79.1875 L 268.351562 79.609375 L 268.304688 80.03125 L 268.265625 80.460938 L 268.21875 80.882812 L 268.179688 81.3125 L 268.132812 81.742188 L 268.09375 82.164062 L 268.015625 83.023438 L 267.976562 83.445312 L 267.945312 83.875 L 267.90625 84.304688 L 267.875 84.726562 L 267.851562 85.15625 L 267.820312 85.578125 L 267.796875 86.007812 L 267.75 86.851562 L 267.734375 87.273438 L 267.726562 87.695312 L 267.710938 88.117188 L 267.710938 88.53125 L 267.703125 88.945312 L 267.703125 89.359375 L 267.710938 89.773438 L 267.71875 90.179688 L 267.734375 90.585938 L 267.757812 90.992188 L 267.804688 91.789062 L 267.84375 92.1875 L 267.875 92.578125 L 267.96875 93.359375 L 268.09375 94.125 L 268.15625 94.5 L 268.226562 94.875 L 268.398438 95.609375 L 268.492188 95.96875 L 268.59375 96.320312 L 268.703125 96.679688 L 268.820312 97.023438 L 268.945312 97.367188 L 269.070312 97.703125 L 269.210938 98.039062 L 269.359375 98.367188 L 269.515625 98.6875 L 269.679688 99.007812 L 269.851562 99.320312 L 270.03125 99.625 L 270.21875 99.921875 L 270.421875 100.21875 L 270.632812 100.507812 L 270.851562 100.789062 L 271.070312 101.0625 L 271.3125 101.335938 L 271.5625 101.601562 L 271.8125 101.851562 L 272.085938 102.101562 L 272.367188 102.351562 L 272.085938 102.59375 L 271.8125 102.84375 L 271.5625 103.09375 L 271.3125 103.359375 L 271.070312 103.625 L 270.632812 104.1875 L 270.421875 104.476562 L 270.21875 104.773438 L 270.03125 105.070312 L 269.851562 105.375 L 269.679688 105.6875 L 269.515625 106.007812 L 269.359375 106.328125 L 269.210938 106.65625 L 269.070312 106.984375 L 268.820312 107.671875 L 268.703125 108.015625 L 268.59375 108.367188 L 268.492188 108.726562 L 268.398438 109.085938 L 268.226562 109.820312 L 268.15625 110.195312 L 268.09375 110.570312 L 267.96875 111.335938 L 267.921875 111.726562 L 267.875 112.109375 L 267.84375 112.507812 L 267.804688 112.898438 L 267.78125 113.304688 L 267.757812 113.703125 L 267.734375 114.109375 L 267.71875 114.515625 L 267.710938 114.921875 L 267.703125 115.335938 L 267.703125 115.75 L 267.710938 116.164062 L 267.710938 116.578125 L 267.726562 117 L 267.734375 117.421875 L 267.75 117.84375 L 267.820312 119.109375 L 267.851562 119.539062 L 267.875 119.960938 L 267.90625 120.390625 L 267.945312 120.820312 L 267.976562 121.242188 L 268.09375 122.53125 L 268.132812 122.953125 L 268.179688 123.382812 L 268.21875 123.804688 L 268.265625 124.234375 L 268.304688 124.65625 L 268.351562 125.085938 L 268.390625 125.507812 L 268.4375 125.929688 L 268.476562 126.351562 L 268.523438 126.765625 L 268.5625 127.1875 L 268.601562 127.601562 L 268.648438 128.015625 L 268.6875 128.429688 L 268.71875 128.835938 L 268.757812 129.242188 L 268.789062 129.648438 L 268.828125 130.054688 L 268.851562 130.453125 L 268.882812 130.851562 L 268.90625 131.242188 L 268.929688 131.640625 L 268.953125 132.023438 L 268.96875 132.414062 L 268.984375 132.789062 L 268.992188 133.171875 L 269 133.539062 L 269.007812 133.914062 L 269.007812 134.640625 L 268.992188 135 L 268.984375 135.351562 L 268.96875 135.703125 L 268.945312 136.046875 L 268.921875 136.382812 L 268.882812 136.71875 L 268.851562 137.046875 L 268.804688 137.375 L 268.757812 137.695312 L 268.703125 138.007812 L 268.648438 138.3125 L 268.578125 138.617188 L 268.507812 138.914062 L 268.429688 139.203125 L 268.257812 139.765625 L 268.15625 140.039062 L 268.046875 140.304688 L 267.9375 140.5625 L 267.820312 140.8125 L 267.6875 141.0625 L 267.554688 141.296875 L 267.40625 141.53125 L 267.257812 141.75 L 267.09375 141.96875 L 266.929688 142.179688 L 266.75 142.375 L 266.5625 142.5625 L 266.367188 142.75 L 266.164062 142.929688 L 265.945312 143.101562 L 265.726562 143.257812 L 265.492188 143.40625 L 265.242188 143.554688 L 264.992188 143.6875 "/>
<path fill="none" stroke-width="3.985" stroke-linecap="butt" stroke-linejoin="miter" stroke="rgb(0%, 0%, 0%)" stroke-opacity="1" stroke-miterlimit="10" d="M 1324.960918 931.562486 L 1325.93748 932.109361 L 1326.87498 932.656236 L 1327.773418 933.281236 L 1328.632793 933.945299 L 1329.453105 934.687486 L 1330.976543 936.210924 L 1331.640605 937.070299 L 1332.34373 937.968736 L 1332.96873 938.906236 L 1333.59373 939.882798 L 1334.140605 940.898423 L 1334.68748 941.953111 L 1335.195293 943.085923 L 1335.664043 944.218736 L 1336.09373 945.390611 L 1336.523418 946.601548 L 1336.914043 947.851548 L 1337.265605 949.140611 L 1337.578105 950.468736 L 1337.890605 951.835923 L 1338.164043 953.242173 L 1338.43748 954.687486 L 1338.671855 956.132798 L 1338.867168 957.617173 L 1339.06248 959.140611 L 1339.21873 960.703111 L 1339.37498 962.304673 L 1339.492168 963.906236 L 1339.609355 965.546861 L 1339.765605 968.906236 L 1339.804668 970.624986 L 1339.804668 972.382798 L 1339.84373 974.179673 L 1339.84373 977.812485 L 1339.765605 981.48436 L 1339.726543 983.398423 L 1339.648418 985.312485 L 1339.609355 987.226548 L 1339.492168 989.179673 L 1339.414043 991.132798 L 1339.335918 993.124985 L 1339.21873 995.117173 L 1338.867168 1001.210923 L 1338.710918 1003.242173 L 1338.632793 1005.351548 L 1338.476543 1007.42186 L 1338.359355 1009.531235 L 1338.203105 1011.601547 L 1338.085918 1013.749985 L 1337.929668 1015.85936 L 1337.81248 1018.007797 L 1337.65623 1020.156235 L 1337.304668 1026.601547 L 1337.070293 1030.976547 L 1336.953105 1033.124985 L 1336.87498 1035.312485 L 1336.757793 1037.499985 L 1336.601543 1041.874984 L 1336.56248 1044.023422 L 1336.523418 1046.210922 L 1336.445293 1048.398422 L 1336.445293 1050.585922 L 1336.40623 1052.773422 L 1336.40623 1054.921859 L 1336.445293 1057.109359 L 1336.523418 1061.406234 L 1336.56248 1063.593734 L 1336.679668 1065.703109 L 1336.757793 1067.851547 L 1336.87498 1069.960922 L 1337.03123 1072.109359 L 1337.18748 1074.218734 L 1337.382793 1076.289046 L 1337.578105 1078.398421 L 1337.81248 1080.468734 L 1338.046855 1082.499984 L 1338.359355 1084.531234 L 1338.632793 1086.562484 L 1338.984355 1088.593734 L 1339.335918 1090.585921 L 1339.726543 1092.578109 L 1340.117168 1094.531234 L 1340.546855 1096.484359 L 1341.015605 1098.398421 L 1341.523418 1100.312484 L 1342.070293 1102.187484 L 1342.65623 1104.062484 L 1343.242167 1105.898421 L 1343.867167 1107.734358 L 1344.53123 1109.531233 L 1345.234355 1111.289046 L 1345.976542 1113.046858 L 1346.757792 1114.765608 L 1347.578105 1116.484358 L 1349.296855 1119.765608 L 1350.234355 1121.406233 L 1351.210917 1122.968733 L 1352.226542 1124.531233 L 1353.28123 1126.054671 L 1354.37498 1127.539046 L 1355.507792 1129.023421 L 1357.929667 1131.835921 L 1359.21873 1133.203108 L 1360.546855 1134.492171 L 1361.914042 1135.781233 L 1363.359355 1137.031233 L 1364.804667 1138.242171 L 1361.914042 1140.742171 L 1360.546855 1142.031233 L 1359.21873 1143.359358 L 1357.929667 1144.687483 L 1356.71873 1146.093733 L 1355.507792 1147.539045 L 1354.37498 1148.984358 L 1353.28123 1150.468733 L 1352.226542 1151.99217 L 1351.210917 1153.55467 L 1350.234355 1155.156233 L 1349.296855 1156.757795 L 1348.43748 1158.39842 L 1347.578105 1160.078108 L 1346.757792 1161.757795 L 1345.976542 1163.476545 L 1345.234355 1165.234358 L 1344.53123 1166.99217 L 1343.867167 1168.789045 L 1343.242167 1170.624983 L 1342.65623 1172.46092 L 1342.070293 1174.33592 L 1341.523418 1176.21092 L 1341.015605 1178.124982 L 1340.546855 1180.039045 L 1340.117168 1181.99217 L 1339.726543 1183.945295 L 1339.335918 1185.937482 L 1338.984355 1187.92967 L 1338.632793 1189.96092 L 1338.359355 1191.99217 L 1338.046855 1194.02342 L 1337.81248 1196.05467 L 1337.578105 1198.164045 L 1337.18748 1202.30467 L 1337.03123 1204.414045 L 1336.87498 1206.562482 L 1336.757793 1208.671857 L 1336.679668 1210.820294 L 1336.56248 1212.968732 L 1336.445293 1219.414044 L 1336.40623 1221.601544 L 1336.40623 1223.789044 L 1336.445293 1225.937482 L 1336.445293 1228.124982 L 1336.523418 1230.312482 L 1336.56248 1232.460919 L 1336.601543 1234.687482 L 1336.679668 1236.874982 L 1336.757793 1239.023419 L 1336.87498 1241.210919 L 1336.953105 1243.398419 L 1337.070293 1245.585919 L 1337.18748 1247.734356 L 1337.304668 1249.921856 L 1337.65623 1256.367169 L 1337.81248 1258.515606 L 1337.929668 1260.664044 L 1338.085918 1262.773419 L 1338.203105 1264.882794 L 1338.359355 1266.992169 L 1338.476543 1269.101544 L 1338.632793 1271.171856 L 1338.710918 1273.281231 L 1338.867168 1275.312481 L 1339.21873 1281.406231 L 1339.335918 1283.398418 L 1339.414043 1285.390606 L 1339.492168 1287.343731 L 1339.609355 1289.296856 L 1339.648418 1291.249981 L 1339.726543 1293.124981 L 1339.765605 1295.039043 L 1339.804668 1296.874981 L 1339.84373 1298.749981 L 1339.84373 1302.382793 L 1339.804668 1304.140606 L 1339.804668 1305.898418 L 1339.765605 1307.617168 L 1339.609355 1310.976543 L 1339.492168 1312.617168 L 1339.37498 1314.21873 L 1339.21873 1315.820293 L 1339.06248 1317.382793 L 1338.867168 1318.90623 L 1338.671855 1320.390605 L 1338.43748 1321.87498 L 1337.890605 1324.68748 L 1337.578105 1326.054668 L 1337.265605 1327.382793 L 1336.914043 1328.671855 L 1336.523418 1329.921855 L 1336.09373 1331.132793 L 1335.664043 1332.304668 L 1335.195293 1333.476543 L 1334.68748 1334.570293 L 1334.140605 1335.62498 L 1333.59373 1336.640605 L 1332.96873 1337.617168 L 1332.34373 1338.554668 L 1331.640605 1339.453105 L 1330.976543 1340.31248 L 1330.195293 1341.09373 L 1329.453105 1341.87498 L 1328.632793 1342.578105 L 1327.773418 1343.242167 L 1326.87498 1343.867167 L 1325.93748 1344.414042 L 1324.960918 1344.960917 L 1326.210918 1344.296855 L 1327.460918 1343.59373 L 1328.632793 1342.81248 L 1329.726543 1342.03123 L 1330.820293 1341.171855 L 1331.835918 1340.273418 L 1332.81248 1339.37498 L 1333.74998 1338.398418 L 1334.648418 1337.382793 L 1335.46873 1336.367168 L 1336.289043 1335.273418 L 1337.773418 1333.007793 L 1338.43748 1331.835918 L 1339.101543 1330.585918 L 1339.68748 1329.335918 L 1340.234355 1328.046855 L 1340.78123 1326.71873 L 1341.289043 1325.351543 L 1342.148418 1322.539043 L 1342.539042 1321.09373 L 1342.890605 1319.609355 L 1343.242167 1318.085918 L 1343.515605 1316.56248 L 1343.789042 1314.99998 L 1344.257792 1311.796855 L 1344.414042 1310.117168 L 1344.609355 1308.476543 L 1344.84373 1305.039043 L 1344.921855 1303.281231 L 1344.960917 1301.523418 L 1345.039042 1299.726543 L 1345.039042 1296.093731 L 1344.99998 1294.257793 L 1344.960917 1292.382793 L 1344.921855 1290.468731 L 1344.84373 1288.593731 L 1344.765605 1286.640606 L 1344.648417 1284.726543 L 1344.53123 1282.773418 L 1344.414042 1280.781231 L 1344.257792 1278.789043 L 1344.140605 1276.796856 L 1343.945292 1274.804669 L 1343.789042 1272.773419 L 1343.59373 1270.703106 L 1343.43748 1268.671856 L 1343.242167 1266.601544 L 1343.007792 1264.531231 L 1342.617167 1260.390606 L 1342.382792 1258.281231 L 1342.18748 1256.171856 L 1341.953105 1254.062481 L 1341.757793 1251.953106 L 1341.523418 1249.843731 L 1341.328105 1247.695294 L 1341.09373 1245.585919 L 1340.898418 1243.437481 L 1340.664043 1241.289044 L 1340.46873 1239.179669 L 1340.078105 1234.882794 L 1339.882793 1232.773419 L 1339.726543 1230.624982 L 1339.53123 1228.476544 L 1339.37498 1226.367169 L 1339.257793 1224.218732 L 1339.101543 1222.109357 L 1338.984355 1219.960919 L 1338.74998 1215.742169 L 1338.671855 1213.632794 L 1338.632793 1211.523419 L 1338.554668 1209.414044 L 1338.554668 1207.343732 L 1338.515605 1205.27342 L 1338.515605 1203.203107 L 1338.554668 1201.132795 L 1338.59373 1199.101545 L 1338.671855 1197.070295 L 1338.789043 1195.039045 L 1339.023418 1191.05467 L 1339.21873 1189.062482 L 1339.37498 1187.109357 L 1339.84373 1183.203107 L 1340.46873 1179.374982 L 1340.78123 1177.499982 L 1341.132793 1175.624982 L 1341.992168 1171.953108 L 1342.460917 1170.156233 L 1342.96873 1168.39842 L 1343.515605 1166.601545 L 1344.101542 1164.882795 L 1344.726542 1163.164045 L 1345.351542 1161.484358 L 1346.054667 1159.80467 L 1346.796855 1158.164045 L 1347.578105 1156.562483 L 1348.398417 1154.96092 L 1349.257792 1153.39842 L 1350.15623 1151.874983 L 1351.09373 1150.390608 L 1352.109355 1148.906233 L 1353.164042 1147.46092 L 1354.257792 1146.05467 L 1355.351542 1144.687483 L 1356.56248 1143.320295 L 1357.81248 1141.99217 L 1359.06248 1140.742171 L 1360.429667 1139.492171 L 1361.835917 1138.242171 L 1360.429667 1137.031233 L 1359.06248 1135.781233 L 1357.81248 1134.531233 L 1356.56248 1133.203108 L 1355.351542 1131.874983 L 1353.164042 1129.062483 L 1352.109355 1127.617171 L 1351.09373 1126.132796 L 1350.15623 1124.648421 L 1349.257792 1123.124983 L 1348.398417 1121.562483 L 1347.578105 1119.960921 L 1346.796855 1118.359358 L 1346.054667 1116.718733 L 1345.351542 1115.078108 L 1344.101542 1111.640608 L 1343.515605 1109.921858 L 1342.96873 1108.164046 L 1342.460917 1106.367171 L 1341.992168 1104.570296 L 1341.132793 1100.898421 L 1340.78123 1099.023421 L 1340.46873 1097.148421 L 1339.84373 1093.320296 L 1339.609355 1091.367171 L 1339.37498 1089.453109 L 1339.21873 1087.460921 L 1339.023418 1085.507796 L 1338.90623 1083.476546 L 1338.789043 1081.484359 L 1338.671855 1079.453109 L 1338.59373 1077.421859 L 1338.554668 1075.390609 L 1338.515605 1073.320297 L 1338.515605 1071.249984 L 1338.554668 1069.179672 L 1338.554668 1067.109359 L 1338.632793 1064.999984 L 1338.671855 1062.890609 L 1338.74998 1060.781234 L 1339.101543 1054.453109 L 1339.257793 1052.304672 L 1339.37498 1050.195297 L 1339.53123 1048.046859 L 1339.726543 1045.898422 L 1339.882793 1043.789047 L 1340.46873 1037.343735 L 1340.664043 1035.23436 L 1340.898418 1033.085922 L 1341.09373 1030.976547 L 1341.328105 1028.82811 L 1341.523418 1026.718735 L 1341.757793 1024.570297 L 1341.953105 1022.460922 L 1342.18748 1020.351547 L 1342.382792 1018.242172 L 1342.617167 1016.17186 L 1342.81248 1014.062485 L 1343.007792 1011.992172 L 1343.242167 1009.92186 L 1343.43748 1007.851547 L 1343.59373 1005.820298 L 1343.789042 1003.789048 L 1343.945292 1001.757798 L 1344.140605 999.726548 L 1344.257792 997.73436 L 1344.414042 995.742173 L 1344.53123 993.789048 L 1344.648417 991.79686 L 1344.765605 989.882798 L 1344.84373 987.929673 L 1344.921855 986.054673 L 1344.960917 984.14061 L 1344.99998 982.304673 L 1345.039042 980.429673 L 1345.039042 976.79686 L 1344.960917 974.999985 L 1344.921855 973.242173 L 1344.84373 971.484361 L 1344.726542 969.765611 L 1344.609355 968.085923 L 1344.414042 966.406236 L 1344.257792 964.765611 L 1344.023417 963.124986 L 1343.789042 961.523423 L 1343.515605 959.960923 L 1343.242167 958.437486 L 1342.890605 956.914048 L 1342.539042 955.429673 L 1342.148418 953.984361 L 1341.289043 951.171861 L 1340.78123 949.804673 L 1340.234355 948.476548 L 1339.68748 947.187486 L 1339.101543 945.937486 L 1338.43748 944.687486 L 1337.773418 943.515611 L 1337.03123 942.343736 L 1336.289043 941.249986 L 1335.46873 940.156236 L 1334.648418 939.101549 L 1333.74998 938.124986 L 1332.81248 937.187486 L 1331.835918 936.249986 L 1330.820293 935.351549 L 1329.726543 934.492174 L 1328.632793 933.710924 L 1327.460918 932.968736 L 1326.210918 932.226549 Z M 1324.960918 931.562486 " transform="matrix(0.2, 0, 0, -0.2, 0, 330)"/>
<path fill="none" stroke-width="11.9553" stroke-linecap="butt" stroke-linejoin="miter" stroke="rgb(0%, 0%, 0%)" stroke-opacity="1" stroke-miterlimit="10" d="M 1450.039041 921.601549 L 1449.023416 959.296861 L 1446.054666 996.874985 L 1441.132791 1034.257797 L 1434.296854 1071.328109 L 1425.468729 1107.968733 L 1414.804666 1144.101545 L 1402.187479 1179.64842 L 1387.773417 1214.453107 L 1371.523417 1248.476544 L 1353.554667 1281.601543 L 1333.867168 1313.74998 L 1312.49998 1344.804667 L 1289.570293 1374.726542 L 1265.078106 1403.398417 L 1239.140607 1430.742166 L 1211.796857 1456.679666 L 1183.124982 1481.171853 L 1153.203108 1504.10154 L 1122.148421 1525.468727 L 1090.039046 1545.156227 L 1056.874984 1563.124977 L 1022.851547 1579.374976 L 988.04686 1593.789039 L 952.499986 1606.406226 L 916.367174 1617.109351 L 879.726549 1625.898413 L 842.656237 1632.734351 L 805.273426 1637.695288 L 767.695301 1640.624976 L 729.999989 1641.601538 L 692.304677 1640.624976 L 654.765615 1637.695288 L 617.382803 1632.734351 L 580.312491 1625.898413 L 543.671867 1617.109351 L 507.499992 1606.406226 L 471.99218 1593.789039 L 437.148431 1579.374976 L 403.124994 1563.124977 L 369.999994 1545.156227 L 337.851557 1525.468727 L 306.79687 1504.10154 L 276.914058 1481.171853 L 248.242184 1456.679666 L 220.898434 1430.742166 L 194.921872 1403.398417 L 170.468747 1374.726542 L 147.499998 1344.804667 L 126.171873 1313.74998 L 106.445311 1281.601543 L 88.476561 1248.476544 L 72.265624 1214.453107 L 57.812499 1179.64842 L 45.234374 1144.101545 L 34.531249 1107.968733 L 25.742187 1071.328109 L 18.867187 1034.257797 L 13.945312 996.874985 L 10.976562 959.296861 L 10 921.601549 L 10.976562 883.945299 L 13.945312 846.367175 L 18.867187 808.984363 L 25.742187 771.914051 L 34.531249 735.273427 L 45.234374 699.101552 L 57.812499 663.59374 L 72.265624 628.749991 L 88.476561 594.726554 L 106.445311 561.601554 L 126.171873 529.453117 L 147.499998 498.39843 L 170.468747 468.476556 L 194.921872 439.843743 L 220.898434 412.499994 L 248.242184 386.523432 L 276.914058 362.070307 L 306.79687 339.101557 L 337.851557 317.773433 L 369.999994 298.046871 L 403.124994 280.078121 L 437.148431 263.867184 L 471.99218 249.414059 L 507.499992 236.835934 L 543.671867 226.132809 L 580.312491 217.343747 L 617.382803 210.468747 L 654.765615 205.546872 L 692.304677 202.578122 L 729.999989 201.601559 L 767.695301 202.578122 L 805.273426 205.546872 L 842.656237 210.468747 L 879.726549 217.343747 L 916.367174 226.132809 L 952.499986 236.835934 L 988.04686 249.414059 L 1022.851547 263.867184 L 1056.874984 280.078121 L 1090.039046 298.046871 L 1122.148421 317.773433 L 1153.203108 339.101557 L 1183.124982 362.070307 L 1211.796857 386.523432 L 1239.140607 412.499994 L 1265.078106 439.843743 L 1289.570293 468.476556 L 1312.49998 498.39843 L 1333.867168 529.453117 L 1353.554667 561.601554 L 1371.523417 594.726554 L 1387.773417 628.749991 L 1402.187479 663.59374 L 1414.804666 699.101552 L 1425.468729 735.273427 L 1434.296854 771.914051 L 1441.132791 808.984363 L 1446.054666 846.367175 L 1449.023416 883.945299 Z M 1450.039041 921.601549 " transform="matrix(0.2, 0, 0, -0.2, 0, 330)"/>
<path fill-rule="nonzero" fill="rgb(0%, 0%, 0%)" fill-opacity="1" d="M 101.597656 322.386719 C 102.785156 321.980469 104.785156 321.386719 104.785156 319.449219 C 104.785156 317.136719 102.066406 316.074219 100.097656 316.074219 C 99.160156 316.074219 98.191406 316.292969 97.347656 316.792969 C 97.222656 316.855469 97.066406 317.042969 96.910156 317.042969 C 96.597656 317.042969 96.035156 316.074219 95.722656 316.074219 C 95.535156 316.074219 95.503906 316.292969 95.503906 316.386719 L 95.503906 319.949219 C 95.503906 320.074219 95.597656 320.230469 95.785156 320.230469 C 96.097656 320.230469 96.066406 319.605469 96.160156 319.261719 C 96.628906 317.542969 98.191406 316.792969 99.691406 316.699219 L 100.097656 316.699219 C 101.441406 316.699219 103.003906 317.574219 103.003906 319.449219 C 103.003906 321.261719 101.222656 322.199219 99.566406 322.199219 C 99.253906 322.199219 98.941406 322.199219 98.628906 322.199219 L 98.472656 322.199219 C 98.285156 322.199219 98.066406 322.199219 98.066406 322.417969 L 98.066406 322.449219 C 98.097656 322.636719 98.285156 322.667969 98.472656 322.667969 L 100.316406 322.667969 C 101.878906 322.792969 103.316406 323.824219 103.472656 325.449219 L 103.472656 325.667969 C 103.472656 327.511719 101.753906 328.667969 100.003906 328.667969 C 98.097656 328.667969 96.128906 328.042969 95.816406 325.667969 C 95.816406 325.511719 95.753906 325.324219 95.535156 325.324219 C 95.316406 325.355469 95.285156 325.511719 95.285156 325.667969 C 95.285156 328.261719 97.878906 329.292969 100.128906 329.292969 C 102.191406 329.292969 105.066406 328.324219 105.316406 325.855469 L 105.316406 325.730469 C 105.316406 323.761719 103.253906 322.792969 101.597656 322.386719 Z M 101.597656 322.386719 "/>
<path fill-rule="nonzero" fill="rgb(0%, 0%, 0%)" fill-opacity="1" d="M 113.695312 316.074219 C 110.320312 316.480469 107.632812 319.136719 107.632812 322.730469 C 107.632812 326.011719 110.226562 329.261719 114.101562 329.261719 C 117.601562 329.261719 120.570312 326.355469 120.570312 322.730469 C 120.570312 319.542969 118.070312 316.074219 114.132812 316.074219 C 114.007812 316.074219 113.851562 316.074219 113.695312 316.074219 Z M 109.507812 322.949219 L 109.507812 322.605469 C 109.507812 320.105469 110.414062 317.167969 113.570312 316.636719 C 113.757812 316.605469 113.914062 316.605469 114.101562 316.605469 C 116.914062 316.605469 118.664062 319.324219 118.664062 322.355469 C 118.664062 324.761719 117.945312 327.824219 114.976562 328.605469 C 114.695312 328.667969 114.414062 328.699219 114.132812 328.699219 L 113.945312 328.699219 C 111.351562 328.605469 109.945312 326.136719 109.601562 323.730469 Z M 109.507812 322.949219 "/>
<path fill-rule="nonzero" fill="rgb(0%, 0%, 0%)" fill-opacity="1" d="M 123.027344 316.417969 L 123.027344 317.011719 L 123.464844 317.011719 C 124.058594 317.011719 124.683594 317.105469 124.683594 317.980469 L 124.683594 327.449219 C 124.683594 328.292969 123.964844 328.324219 123.308594 328.324219 L 123.027344 328.324219 L 123.027344 328.917969 L 128.808594 328.917969 C 129.214844 328.917969 129.589844 328.949219 129.996094 328.949219 C 131.996094 328.949219 134.339844 328.011719 134.558594 325.605469 L 134.558594 325.417969 C 134.558594 322.886719 131.683594 321.855469 129.777344 321.855469 C 128.527344 321.855469 127.339844 321.980469 126.152344 322.074219 L 126.152344 317.855469 C 126.152344 317.417969 126.214844 317.011719 126.996094 317.011719 L 129.308594 317.011719 C 130.277344 317.011719 131.371094 317.074219 132.089844 317.792969 C 132.777344 318.511719 132.871094 319.730469 132.964844 320.667969 L 133.496094 320.667969 L 133.027344 316.417969 Z M 126.152344 322.699219 C 126.402344 322.699219 126.652344 322.636719 126.902344 322.605469 L 128.277344 322.542969 C 128.558594 322.511719 128.839844 322.480469 129.152344 322.480469 C 130.714844 322.480469 132.683594 323.480469 132.683594 325.324219 C 132.683594 327.074219 131.339844 328.355469 129.339844 328.355469 C 129.058594 328.355469 128.746094 328.324219 128.496094 328.324219 L 126.964844 328.324219 C 126.496094 328.324219 126.246094 328.292969 126.152344 327.667969 Z M 126.152344 322.699219 "/>
<path fill-rule="nonzero" fill="rgb(0%, 0%, 0%)" fill-opacity="1" d="M 136.90625 316.417969 L 136.90625 317.011719 L 137.375 317.011719 C 137.96875 317.011719 138.5625 317.105469 138.5625 317.980469 L 138.5625 327.449219 C 138.5625 328.292969 137.875 328.324219 137.1875 328.324219 L 136.90625 328.324219 L 136.90625 328.917969 L 141.8125 328.917969 L 141.8125 328.324219 L 141.375 328.324219 C 140.75 328.324219 140.15625 328.261719 140.15625 327.386719 L 140.15625 323.199219 L 143.875 323.199219 C 145.65625 323.074219 147.9375 321.886719 147.9375 319.855469 C 147.9375 317.636719 145.59375 316.574219 143.6875 316.417969 Z M 140.125 322.667969 L 140.125 317.667969 C 140.21875 317.074219 140.46875 317.011719 140.875 317.011719 L 142.3125 317.011719 C 143.9375 317.011719 146.0625 317.074219 146.0625 319.855469 C 146.0625 320.511719 145.96875 321.199219 145.5625 321.699219 C 144.90625 322.480469 143.8125 322.667969 142.84375 322.667969 Z M 140.125 322.667969 "/>
<path fill-rule="nonzero" fill="rgb(0%, 0%, 0%)" fill-opacity="1" d="M 152.632812 326.636719 C 152.132812 326.730469 151.632812 327.167969 151.632812 327.761719 C 151.632812 328.386719 152.164062 328.917969 152.789062 328.917969 C 153.414062 328.917969 153.976562 328.449219 153.976562 327.792969 C 153.976562 327.167969 153.445312 326.605469 152.820312 326.605469 C 152.757812 326.605469 152.695312 326.636719 152.632812 326.636719 Z M 152.632812 326.636719 "/>
<path fill-rule="nonzero" fill="rgb(0%, 0%, 0%)" fill-opacity="1" d="M 166.191406 324.917969 L 172.785156 324.917969 L 172.785156 327.199219 C 172.785156 328.230469 171.972656 328.230469 170.410156 328.230469 L 170.410156 328.917969 L 176.847656 328.917969 L 176.847656 328.230469 C 176.566406 328.230469 176.253906 328.261719 175.941406 328.261719 C 175.128906 328.261719 174.472656 328.136719 174.472656 327.199219 L 174.472656 324.917969 L 177.003906 324.917969 L 177.003906 324.230469 L 174.472656 324.230469 L 174.472656 313.105469 L 174.378906 312.824219 L 173.910156 312.824219 L 173.597656 313.230469 L 166.191406 324.230469 Z M 166.785156 324.230469 L 172.878906 315.167969 L 172.878906 324.230469 Z M 166.785156 324.230469 "/>
<path fill-rule="nonzero" fill="rgb(0%, 0%, 0%)" fill-opacity="1" d="M 180.746094 315.199219 C 181.433594 314.136719 182.808594 313.605469 184.089844 313.605469 C 185.527344 313.605469 186.683594 314.511719 186.683594 316.355469 C 186.683594 317.886719 185.933594 319.761719 184.339844 320.167969 C 183.777344 320.324219 182.277344 320.167969 182.277344 320.605469 C 182.277344 320.792969 182.464844 320.855469 182.652344 320.855469 L 183.933594 320.855469 C 186.277344 320.855469 187.152344 322.824219 187.152344 324.636719 C 187.152344 326.386719 186.527344 328.792969 184.121094 328.792969 C 182.527344 328.792969 180.996094 328.074219 180.121094 326.667969 L 180.339844 326.667969 C 181.027344 326.667969 181.621094 326.261719 181.621094 325.511719 C 181.621094 324.792969 181.089844 324.324219 180.402344 324.324219 L 180.308594 324.324219 C 179.652344 324.355469 179.214844 324.886719 179.214844 325.511719 C 179.214844 327.980469 181.777344 329.417969 184.214844 329.417969 C 186.808594 329.417969 189.371094 327.574219 189.371094 324.824219 C 189.371094 322.699219 187.339844 320.636719 185.121094 320.542969 C 186.996094 319.886719 188.683594 318.511719 188.683594 316.355469 C 188.683594 314.167969 186.277344 313.042969 184.246094 313.042969 C 182.371094 313.042969 179.902344 313.949219 179.902344 316.199219 C 179.902344 316.761719 180.152344 317.261719 180.902344 317.386719 L 180.996094 317.386719 C 181.652344 317.386719 182.121094 316.949219 182.121094 316.292969 C 182.121094 315.574219 181.558594 315.167969 180.964844 315.167969 C 180.902344 315.167969 180.839844 315.199219 180.746094 315.199219 Z M 180.746094 315.199219 "/>
<path fill-rule="nonzero" fill="rgb(0%, 0%, 0%)" fill-opacity="1" d="M 194.140625 326.636719 C 193.640625 326.730469 193.140625 327.167969 193.140625 327.761719 C 193.140625 328.386719 193.671875 328.917969 194.296875 328.917969 C 194.921875 328.917969 195.484375 328.449219 195.484375 327.792969 C 195.484375 327.167969 194.953125 326.605469 194.328125 326.605469 C 194.265625 326.605469 194.203125 326.636719 194.140625 326.636719 Z M 194.140625 326.636719 "/>
</svg>
