<?xml version="1.0" encoding="UTF-8"?>
<svg xmlns="http://www.w3.org/2000/svg" xmlns:xlink="http://www.w3.org/1999/xlink" width="650" height="350" viewBox="0 0 650 350">
<path fill="none" stroke-width="11.9553" stroke-linecap="butt" stroke-linejoin="miter" stroke="rgb(0%, 0%, 0%)" stroke-opacity="1" stroke-miterlimit="10" d="M 259.999996 267.070309 L 259.999996 1576.171852 " transform="matrix(0.2, 0, 0, -0.2, 0, 350)"/>
<path fill-rule="nonzero" fill="rgb(0%, 0%, 0%)" fill-opacity="1" d="M 45.976562 295.890625 L 57.976562 295.890625 L 57.976562 297.09375 L 45.976562 297.09375 Z M 45.976562 295.890625 "/>
<path fill-rule="nonzero" fill="rgb(0%, 0%, 0%)" fill-opacity="1" d="M 45.976562 282.804688 L 57.976562 282.804688 L 57.976562 284.007812 L 45.976562 284.007812 Z M 45.976562 282.804688 "/>
<path fill-rule="nonzero" fill="rgb(0%, 0%, 0%)" fill-opacity="1" d="M 45.976562 269.710938 L 57.976562 269.710938 L 57.976562 270.914062 L 45.976562 270.914062 Z M 45.976562 269.710938 "/>
<path fill-rule="nonzero" fill="rgb(0%, 0%, 0%)" fill-opacity="1" d="M 45.976562 256.617188 L 57.976562 256.617188 L 57.976562 257.820312 L 45.976562 257.820312 Z M 45.976562 256.617188 "/>
<path fill-rule="nonzero" fill="rgb(0%, 0%, 0%)" fill-opacity="1" d="M 45.976562 243.53125 L 57.976562 243.53125 L 57.976562 244.734375 L 45.976562 244.734375 Z M 45.976562 243.53125 "/>
<path fill-rule="nonzero" fill="rgb(0%, 0%, 0%)" fill-opacity="1" d="M 45.976562 230.4375 L 57.976562 230.4375 L 57.976562 231.640625 L 45.976562 231.640625 Z M 45.976562 230.4375 "/>
<path fill-rule="nonzero" fill="rgb(0%, 0%, 0%)" fill-opacity="1" d="M 45.976562 217.34375 L 57.976562 217.34375 L 57.976562 218.546875 L 45.976562 218.546875 Z M 45.976562 217.34375 "/>
<path fill-rule="nonzero" fill="rgb(0%, 0%, 0%)" fill-opacity="1" d="M 45.976562 204.257812 L 57.976562 204.257812 L 57.976562 205.460938 L 45.976562 205.460938 Z M 45.976562 204.257812 "/>
<path fill-rule="nonzero" fill="rgb(0%, 0%, 0%)" fill-opacity="1" d="M 45.976562 191.164062 L 57.976562 191.164062 L 57.976562 192.367188 L 45.976562 192.367188 Z M 45.976562 191.164062 "/>
<path fill-rule="nonzero" fill="rgb(0%, 0%, 0%)" fill-opacity="1" d="M 45.976562 178.070312 L 57.976562 178.070312 L 57.976562 179.273438 L 45.976562 179.273438 Z M 45.976562 178.070312 "/>
<path fill-rule="nonzero" fill="rgb(0%, 0%, 0%)" fill-opacity="1" d="M 45.976562 164.984375 L 57.976562 164.984375 L 57.976562 166.1875 L 45.976562 166.1875 Z M 45.976562 164.984375 "/>
<path fill-rule="nonzero" fill="rgb(0%, 0%, 0%)" fill-opacity="1" d="M 45.976562 151.890625 L 57.976562 151.890625 L 57.976562 153.09375 L 45.976562 153.09375 Z M 45.976562 151.890625 "/>
<path fill-rule="nonzero" fill="rgb(0%, 0%, 0%)" fill-opacity="1" d="M 45.976562 138.796875 L 57.976562 138.796875 L 57.976562 140 L 45.976562 140 Z M 45.976562 138.796875 "/>
<path fill-rule="nonzero" fill="rgb(0%, 0%, 0%)" fill-opacity="1" d="M 45.976562 125.710938 L 57.976562 125.710938 L 57.976562 126.914062 L 45.976562 126.914062 Z M 45.976562 125.710938 "/>
<path fill-rule="nonzero" fill="rgb(0%, 0%, 0%)" fill-opacity="1" d="M 45.976562 112.617188 L 57.976562 112.617188 L 57.976562 113.820312 L 45.976562 113.820312 Z M 45.976562 112.617188 "/>
<path fill-rule="nonzero" fill="rgb(0%, 0%, 0%)" fill-opacity="1" d="M 45.976562 99.53125 L 57.976562 99.53125 L 57.976562 100.734375 L 45.976562 100.734375 Z M 45.976562 99.53125 "/>
<path fill-rule="nonzero" fill="rgb(0%, 0%, 0%)" fill-opacity="1" d="M 45.976562 86.4375 L 57.976562 86.4375 L 57.976562 87.640625 L 45.976562 87.640625 Z M 45.976562 86.4375 "/>
<path fill-rule="nonzero" fill="rgb(0%, 0%, 0%)" fill-opacity="1" d="M 45.976562 73.34375 L 57.976562 73.34375 L 57.976562 74.546875 L 45.976562 74.546875 Z M 45.976562 73.34375 "/>
<path fill-rule="nonzero" fill="rgb(0%, 0%, 0%)" fill-opacity="1" d="M 45.976562 60.257812 L 57.976562 60.257812 L 57.976562 61.460938 L 45.976562 61.460938 Z M 45.976562 60.257812 "/>
<path fill-rule="nonzero" fill="rgb(0%, 0%, 0%)" fill-opacity="1" d="M 45.976562 47.164062 L 57.976562 47.164062 L 57.976562 48.367188 L 45.976562 48.367188 Z M 45.976562 47.164062 "/>
<path fill-rule="nonzero" fill="rgb(0%, 0%, 0%)" fill-opacity="1" d="M 45.976562 34.070312 L 57.976562 34.070312 L 57.976562 35.273438 L 45.976562 35.273438 Z M 45.976562 34.070312 "/>
<path fill-rule="nonzero" fill="rgb(0%, 0%, 0%)" fill-opacity="1" d="M 30.566406 297.796875 C 30.941406 297.796875 31.316406 297.796875 31.316406 297.390625 C 31.316406 296.953125 30.941406 296.953125 30.566406 296.953125 L 18.753906 296.953125 C 18.378906 296.953125 18.003906 296.953125 18.003906 297.390625 C 18.003906 297.796875 18.378906 297.796875 18.753906 297.796875 Z M 30.566406 297.796875 "/>
<path fill-rule="nonzero" fill="rgb(0%, 0%, 0%)" fill-opacity="1" d="M 39.636719 288.859375 C 39.636719 288.359375 39.636719 288.296875 39.136719 288.296875 C 37.792969 289.703125 35.855469 289.703125 35.167969 289.703125 L 35.167969 290.359375 C 35.605469 290.359375 36.886719 290.359375 38.042969 289.796875 L 38.042969 301.109375 C 38.042969 301.890625 37.949219 302.140625 36.011719 302.140625 L 35.292969 302.140625 L 35.292969 302.828125 C 36.074219 302.765625 37.949219 302.765625 38.824219 302.765625 C 39.699219 302.765625 41.605469 302.765625 42.355469 302.828125 L 42.355469 302.140625 L 41.667969 302.140625 C 39.699219 302.140625 39.636719 301.921875 39.636719 301.109375 Z M 39.636719 288.859375 "/>
<path fill-rule="nonzero" fill="rgb(0%, 0%, 0%)" fill-opacity="1" d="M 13.527344 232.34375 C 13.902344 232.34375 14.277344 232.34375 14.277344 231.9375 C 14.277344 231.5 13.902344 231.5 13.527344 231.5 L 1.714844 231.5 C 1.339844 231.5 0.964844 231.5 0.964844 231.9375 C 0.964844 232.34375 1.339844 232.34375 1.714844 232.34375 Z M 13.527344 232.34375 "/>
<path fill-rule="nonzero" fill="rgb(0%, 0%, 0%)" fill-opacity="1" d="M 26.222656 230.40625 C 26.222656 228.65625 26.128906 226.90625 25.347656 225.28125 C 24.347656 223.1875 22.566406 222.84375 21.628906 222.84375 C 20.347656 222.84375 18.753906 223.40625 17.847656 225.4375 C 17.160156 226.9375 17.035156 228.65625 17.035156 230.40625 C 17.035156 232.03125 17.128906 234 18.035156 235.65625 C 18.972656 237.40625 20.566406 237.84375 21.628906 237.84375 C 22.785156 237.84375 24.472656 237.40625 25.410156 235.3125 C 26.128906 233.8125 26.222656 232.125 26.222656 230.40625 Z M 21.628906 237.375 C 20.785156 237.375 19.472656 236.84375 19.097656 234.75 C 18.847656 233.4375 18.847656 231.40625 18.847656 230.125 C 18.847656 228.75 18.847656 227.3125 19.035156 226.125 C 19.441406 223.53125 21.066406 223.3125 21.628906 223.3125 C 22.347656 223.3125 23.785156 223.71875 24.191406 225.875 C 24.410156 227.09375 24.410156 228.75 24.410156 230.125 C 24.410156 231.78125 24.410156 233.25 24.160156 234.65625 C 23.847656 236.71875 22.597656 237.375 21.628906 237.375 Z M 21.628906 237.375 "/>
<path fill-rule="nonzero" fill="rgb(0%, 0%, 0%)" fill-opacity="1" d="M 31.179688 236.21875 C 31.179688 235.59375 30.648438 235.0625 30.023438 235.0625 C 29.398438 235.0625 28.867188 235.59375 28.867188 236.21875 C 28.867188 236.84375 29.398438 237.375 30.023438 237.375 C 30.648438 237.375 31.179688 236.84375 31.179688 236.21875 Z M 31.179688 236.21875 "/>
<path fill-rule="nonzero" fill="rgb(0%, 0%, 0%)" fill-opacity="1" d="M 42.773438 233 C 42.773438 230.40625 40.992188 228.21875 38.648438 228.21875 C 37.585938 228.21875 36.648438 228.5625 35.867188 229.3125 L 35.867188 225.0625 C 36.304688 225.21875 37.023438 225.34375 37.710938 225.34375 C 40.398438 225.34375 41.929688 223.375 41.929688 223.09375 C 41.929688 222.96875 41.867188 222.84375 41.710938 222.84375 C 41.710938 222.84375 41.648438 222.84375 41.554688 222.90625 C 41.117188 223.125 40.023438 223.53125 38.585938 223.53125 C 37.710938 223.53125 36.710938 223.40625 35.679688 222.9375 C 35.492188 222.875 35.460938 222.875 35.398438 222.875 C 35.179688 222.875 35.179688 223.03125 35.179688 223.40625 L 35.179688 229.84375 C 35.179688 230.25 35.179688 230.40625 35.492188 230.40625 C 35.648438 230.40625 35.710938 230.34375 35.773438 230.21875 C 36.023438 229.875 36.835938 228.6875 38.585938 228.6875 C 39.742188 228.6875 40.273438 229.6875 40.460938 230.09375 C 40.804688 230.90625 40.835938 231.75 40.835938 232.84375 C 40.835938 233.59375 40.835938 234.90625 40.335938 235.8125 C 39.804688 236.6875 38.992188 237.25 37.992188 237.25 C 36.398438 237.25 35.148438 236.09375 34.773438 234.8125 C 34.835938 234.8125 34.898438 234.84375 35.148438 234.84375 C 35.867188 234.84375 36.242188 234.3125 36.242188 233.78125 C 36.242188 233.25 35.867188 232.71875 35.148438 232.71875 C 34.835938 232.71875 34.085938 232.875 34.085938 233.875 C 34.085938 235.75 35.585938 237.84375 38.023438 237.84375 C 40.554688 237.84375 42.773438 235.75 42.773438 233 Z M 42.773438 233 "/>
<path fill-rule="nonzero" fill="rgb(0%, 0%, 0%)" fill-opacity="1" d="M 26.222656 100.214844 C 26.222656 98.464844 26.128906 96.714844 25.347656 95.089844 C 24.347656 92.996094 22.566406 92.652344 21.628906 92.652344 C 20.347656 92.652344 18.753906 93.214844 17.847656 95.246094 C 17.160156 96.746094 17.035156 98.464844 17.035156 100.214844 C 17.035156 101.839844 17.128906 103.808594 18.035156 105.464844 C 18.972656 107.214844 20.566406 107.652344 21.628906 107.652344 C 22.785156 107.652344 24.472656 107.214844 25.410156 105.121094 C 26.128906 103.621094 26.222656 101.933594 26.222656 100.214844 Z M 21.628906 107.183594 C 20.785156 107.183594 19.472656 106.652344 19.097656 104.558594 C 18.847656 103.246094 18.847656 101.214844 18.847656 99.933594 C 18.847656 98.558594 18.847656 97.121094 19.035156 95.933594 C 19.441406 93.339844 21.066406 93.121094 21.628906 93.121094 C 22.347656 93.121094 23.785156 93.527344 24.191406 95.683594 C 24.410156 96.902344 24.410156 98.558594 24.410156 99.933594 C 24.410156 101.589844 24.410156 103.058594 24.160156 104.464844 C 23.847656 106.527344 22.597656 107.183594 21.628906 107.183594 Z M 21.628906 107.183594 "/>
<path fill-rule="nonzero" fill="rgb(0%, 0%, 0%)" fill-opacity="1" d="M 31.179688 106.027344 C 31.179688 105.402344 30.648438 104.871094 30.023438 104.871094 C 29.398438 104.871094 28.867188 105.402344 28.867188 106.027344 C 28.867188 106.652344 29.398438 107.183594 30.023438 107.183594 C 30.648438 107.183594 31.179688 106.652344 31.179688 106.027344 Z M 31.179688 106.027344 "/>
<path fill-rule="nonzero" fill="rgb(0%, 0%, 0%)" fill-opacity="1" d="M 42.773438 102.808594 C 42.773438 100.214844 40.992188 98.027344 38.648438 98.027344 C 37.585938 98.027344 36.648438 98.371094 35.867188 99.121094 L 35.867188 94.871094 C 36.304688 95.027344 37.023438 95.152344 37.710938 95.152344 C 40.398438 95.152344 41.929688 93.183594 41.929688 92.902344 C 41.929688 92.777344 41.867188 92.652344 41.710938 92.652344 C 41.710938 92.652344 41.648438 92.652344 41.554688 92.714844 C 41.117188 92.933594 40.023438 93.339844 38.585938 93.339844 C 37.710938 93.339844 36.710938 93.214844 35.679688 92.746094 C 35.492188 92.683594 35.460938 92.683594 35.398438 92.683594 C 35.179688 92.683594 35.179688 92.839844 35.179688 93.214844 L 35.179688 99.652344 C 35.179688 100.058594 35.179688 100.214844 35.492188 100.214844 C 35.648438 100.214844 35.710938 100.152344 35.773438 100.027344 C 36.023438 99.683594 36.835938 98.496094 38.585938 98.496094 C 39.742188 98.496094 40.273438 99.496094 40.460938 99.902344 C 40.804688 100.714844 40.835938 101.558594 40.835938 102.652344 C 40.835938 103.402344 40.835938 104.714844 40.335938 105.621094 C 39.804688 106.496094 38.992188 107.058594 37.992188 107.058594 C 36.398438 107.058594 35.148438 105.902344 34.773438 104.621094 C 34.835938 104.621094 34.898438 104.652344 35.148438 104.652344 C 35.867188 104.652344 36.242188 104.121094 36.242188 103.589844 C 36.242188 103.058594 35.867188 102.527344 35.148438 102.527344 C 34.835938 102.527344 34.085938 102.683594 34.085938 103.683594 C 34.085938 105.558594 35.585938 107.652344 38.023438 107.652344 C 40.554688 107.652344 42.773438 105.558594 42.773438 102.808594 Z M 42.773438 102.808594 "/>
<path fill-rule="nonzero" fill="rgb(0%, 0%, 0%)" fill-opacity="1" d="M 39.636719 27.757812 C 39.636719 27.257812 39.636719 27.195312 39.136719 27.195312 C 37.792969 28.601562 35.855469 28.601562 35.167969 28.601562 L 35.167969 29.257812 C 35.605469 29.257812 36.886719 29.257812 38.042969 28.695312 L 38.042969 40.007812 C 38.042969 40.789062 37.949219 41.039062 36.011719 41.039062 L 35.292969 41.039062 L 35.292969 41.726562 C 36.074219 41.664062 37.949219 41.664062 38.824219 41.664062 C 39.699219 41.664062 41.605469 41.664062 42.355469 41.726562 L 42.355469 41.039062 L 41.667969 41.039062 C 39.699219 41.039062 39.636719 40.820312 39.636719 40.007812 Z M 39.636719 27.757812 "/>
<path fill="none" stroke-width="11.9553" stroke-linecap="butt" stroke-linejoin="miter" stroke="rgb(0%, 0%, 0%)" stroke-opacity="1" stroke-miterlimit="10" d="M 156.640623 921.601549 L 3243.398389 921.601549 " transform="matrix(0.2, 0, 0, -0.2, 0, 350)"/>
<path fill="none" stroke-width="11.9553" stroke-linecap="butt" stroke-linejoin="miter" stroke="rgb(0%, 0%, 0%)" stroke-opacity="1" stroke-miterlimit="10" d="M 259.999996 201.601559 L 259.999996 1641.601538 " transform="matrix(0.2, 0, 0, -0.2, 0, 350)"/>
<path fill="none" stroke-width="11.9553" stroke-linecap="butt" stroke-linejoin="miter" stroke="rgb(0%, 0%, 0%)" stroke-opacity="1" stroke-miterlimit="10" d="M 259.999996 921.601549 L 284.218746 956.210923 L 308.476558 990.70311 L 332.73437 1025.039047 L 356.95312 1059.023422 L 381.210932 1092.695296 L 405.429681 1125.859358 L 429.687494 1158.437483 L 453.906243 1190.351545 L 478.164055 1221.523419 L 502.421868 1251.835919 L 526.640617 1281.249981 L 550.898429 1309.648418 L 575.117179 1336.992168 L 599.374991 1363.12498 L 623.593741 1388.046854 L 647.851553 1411.718729 L 672.070302 1433.945291 L 696.328115 1454.765603 L 720.546864 1474.101541 L 744.804676 1491.874978 L 769.062489 1508.046853 L 793.281238 1522.617165 L 817.53905 1535.468727 L 841.7578 1546.601539 L 866.015612 1556.015602 L 890.234362 1563.671852 L 914.492174 1569.492164 L 938.749986 1573.515602 L 962.968736 1575.703102 L 987.187485 1576.093727 L 1011.445297 1574.609352 L 1035.70311 1571.328102 L 1059.921859 1566.249977 L 1084.179671 1559.335914 L 1108.398421 1550.664039 L 1132.656233 1540.19529 L 1156.874983 1528.046852 L 1181.132795 1514.140602 L 1205.390607 1498.63279 L 1229.609357 1481.484353 L 1253.867169 1462.773416 L 1278.085918 1442.578104 L 1302.343731 1420.898416 L 1326.56248 1397.812479 L 1350.820292 1373.43748 L 1375.078105 1347.734355 L 1399.296854 1320.898418 L 1423.515604 1292.929668 L 1447.773416 1263.906231 L 1472.031228 1233.945294 L 1496.249978 1203.08592 L 1520.50779 1171.445295 L 1544.726539 1139.140608 L 1568.984352 1106.171859 L 1593.203101 1072.734359 L 1617.460913 1038.867172 L 1641.718726 1004.687485 L 1665.937475 970.234361 L 1690.195287 935.664049 L 1714.414037 901.054674 L 1738.671849 866.484362 L 1762.890599 832.109363 L 1787.148411 797.929676 L 1811.367161 764.140614 L 1835.624973 730.781239 L 1859.843722 697.96874 L 1884.101534 665.742178 L 1908.359347 634.257803 L 1932.578096 603.554679 L 1956.835908 573.789054 L 1981.054658 544.960929 L 2005.31247 517.187492 L 2029.53122 490.546868 L 2053.789032 465.117181 L 2078.007782 440.937493 L 2102.265594 418.164056 L 2126.484343 396.718744 L 2150.742155 376.796869 L 2174.960905 358.35937 L 2199.218717 341.562495 L 2223.476529 326.32812 L 2247.695279 312.773433 L 2271.953091 300.937496 L 2296.171841 290.820308 L 2320.429653 282.460933 L 2344.648403 275.898433 L 2368.906215 271.132808 L 2393.164027 268.164059 L 2417.382776 267.070309 L 2441.640589 267.773434 L 2465.898401 270.312496 L 2490.11715 274.687496 L 2514.3359 280.859371 L 2538.593712 288.828121 L 2562.812462 298.554683 L 2587.070274 310.039058 L 2611.328086 323.242183 L 2635.546836 338.085932 L 2659.804648 354.570307 L 2684.023398 372.656244 L 2708.28121 392.265619 L 2732.539022 413.359369 L 2756.757771 435.859369 L 2780.976521 459.726556 L 2805.234333 484.882805 L 2829.453083 511.289055 L 2853.710895 538.828117 L 2877.968707 567.421867 L 2902.187457 596.992179 L 2926.445269 627.499991 L 2950.664019 658.828115 L 2974.921831 690.898427 L 2999.14058 723.593739 L 3023.398392 756.835926 L 3047.656205 790.546863 L 3071.874954 824.648425 L 3096.093704 858.984362 L 3120.351516 893.515612 L 3144.609328 928.124986 L 3168.828078 962.695298 " transform="matrix(0.2, 0, 0, -0.2, 0, 350)"/>
<path fill="none" stroke-width="7.9701" stroke-linecap="butt" stroke-linejoin="miter" stroke="rgb(0%, 0%, 0%)" stroke-opacity="1" stroke-miterlimit="10" d="M 499.999993 921.601549 L 499.999993 948.906236 " transform="matrix(0.2, 0, 0, -0.2, 0, 350)"/>
<path fill="none" stroke-width="7.9701" stroke-linecap="butt" stroke-linejoin="miter" stroke="rgb(0%, 0%, 0%)" stroke-opacity="1" stroke-miterlimit="10" d="M 499.999993 1003.437485 L 499.999993 1030.70311 " transform="matrix(0.2, 0, 0, -0.2, 0, 350)"/>
<path fill="none" stroke-width="7.9701" stroke-linecap="butt" stroke-linejoin="miter" stroke="rgb(0%, 0%, 0%)" stroke-opacity="1" stroke-miterlimit="10" d="M 499.999993 1030.70311 L 499.999993 1057.968734 " transform="matrix(0.2, 0, 0, -0.2, 0, 350)"/>
<path fill="none" stroke-width="7.9701" stroke-linecap="butt" stroke-linejoin="miter" stroke="rgb(0%, 0%, 0%)" stroke-opacity="1" stroke-miterlimit="10" d="M 499.999993 1112.539046 L 499.999993 1139.804671 " transform="matrix(0.2, 0, 0, -0.2, 0, 350)"/>
<path fill="none" stroke-width="7.9701" stroke-linecap="butt" stroke-linejoin="miter" stroke="rgb(0%, 0%, 0%)" stroke-opacity="1" stroke-miterlimit="10" d="M 499.999993 1139.804671 L 499.999993 1167.070295 " transform="matrix(0.2, 0, 0, -0.2, 0, 350)"/>
<path fill="none" stroke-width="7.9701" stroke-linecap="butt" stroke-linejoin="miter" stroke="rgb(0%, 0%, 0%)" stroke-opacity="1" stroke-miterlimit="10" d="M 499.999993 1221.601544 L 499.999993 1248.906231 " transform="matrix(0.2, 0, 0, -0.2, 0, 350)"/>
<path fill-rule="nonzero" fill="rgb(100%, 100%, 100%)" fill-opacity="1" d="M 84.132812 169.445312 L 116.054688 169.445312 L 116.054688 194.40625 L 84.132812 194.40625 Z M 84.132812 169.445312 "/>
<path fill-rule="nonzero" fill="rgb(0%, 0%, 0%)" fill-opacity="1" d="M 95.699219 181.59375 C 97.324219 181.0625 98.480469 179.6875 98.480469 178.09375 C 98.480469 176.46875 96.730469 175.34375 94.824219 175.34375 C 92.824219 175.34375 91.292969 176.53125 91.292969 178.0625 C 91.292969 178.71875 91.730469 179.09375 92.324219 179.09375 C 92.917969 179.09375 93.324219 178.65625 93.324219 178.0625 C 93.324219 177.09375 92.386719 177.09375 92.105469 177.09375 C 92.699219 176.09375 94.011719 175.84375 94.730469 175.84375 C 95.574219 175.84375 96.667969 176.28125 96.667969 178.0625 C 96.667969 178.3125 96.605469 179.46875 96.105469 180.34375 C 95.511719 181.3125 94.824219 181.375 94.324219 181.375 C 94.167969 181.40625 93.699219 181.4375 93.542969 181.4375 C 93.386719 181.46875 93.261719 181.5 93.261719 181.6875 C 93.261719 181.90625 93.386719 181.90625 93.730469 181.90625 L 94.605469 181.90625 C 96.230469 181.90625 96.980469 183.25 96.980469 185.21875 C 96.980469 187.9375 95.605469 188.5 94.730469 188.5 C 93.855469 188.5 92.355469 188.15625 91.667969 187 C 92.355469 187.09375 92.980469 186.65625 92.980469 185.90625 C 92.980469 185.1875 92.449219 184.78125 91.886719 184.78125 C 91.386719 184.78125 90.761719 185.0625 90.761719 185.9375 C 90.761719 187.75 92.605469 189.0625 94.792969 189.0625 C 97.230469 189.0625 99.042969 187.25 99.042969 185.21875 C 99.042969 183.59375 97.761719 182.03125 95.699219 181.59375 Z M 95.699219 181.59375 "/>
<path fill-rule="nonzero" fill="rgb(0%, 0%, 0%)" fill-opacity="1" d="M 109.15625 182.25 C 109.15625 180.65625 109.0625 179.0625 108.375 177.59375 C 107.46875 175.65625 105.8125 175.34375 105 175.34375 C 103.78125 175.34375 102.34375 175.875 101.5 177.71875 C 100.875 179.09375 100.78125 180.65625 100.78125 182.25 C 100.78125 183.75 100.84375 185.53125 101.6875 187.0625 C 102.53125 188.65625 104 189.0625 104.96875 189.0625 C 106.03125 189.0625 107.5625 188.65625 108.4375 186.75 C 109.0625 185.375 109.15625 183.8125 109.15625 182.25 Z M 104.96875 188.625 C 104.1875 188.625 103 188.125 102.65625 186.21875 C 102.4375 185.03125 102.4375 183.1875 102.4375 182 C 102.4375 180.71875 102.4375 179.40625 102.59375 178.34375 C 102.96875 175.96875 104.46875 175.78125 104.96875 175.78125 C 105.625 175.78125 106.9375 176.15625 107.3125 178.125 C 107.53125 179.25 107.53125 180.75 107.53125 182 C 107.53125 183.5 107.53125 184.84375 107.3125 186.125 C 107 188.03125 105.875 188.625 104.96875 188.625 Z M 104.96875 188.625 "/>
<path fill="none" stroke-width="7.9701" stroke-linecap="butt" stroke-linejoin="miter" stroke="rgb(0%, 0%, 0%)" stroke-opacity="1" stroke-miterlimit="10" d="M 739.999989 921.601549 L 739.999989 949.960923 " transform="matrix(0.2, 0, 0, -0.2, 0, 350)"/>
<path fill="none" stroke-width="7.9701" stroke-linecap="butt" stroke-linejoin="miter" stroke="rgb(0%, 0%, 0%)" stroke-opacity="1" stroke-miterlimit="10" d="M 739.999989 1006.64061 L 739.999989 1034.960922 " transform="matrix(0.2, 0, 0, -0.2, 0, 350)"/>
<path fill="none" stroke-width="7.9701" stroke-linecap="butt" stroke-linejoin="miter" stroke="rgb(0%, 0%, 0%)" stroke-opacity="1" stroke-miterlimit="10" d="M 739.999989 1034.960922 L 739.999989 1063.320297 " transform="matrix(0.2, 0, 0, -0.2, 0, 350)"/>
<path fill="none" stroke-width="7.9701" stroke-linecap="butt" stroke-linejoin="miter" stroke="rgb(0%, 0%, 0%)" stroke-opacity="1" stroke-miterlimit="10" d="M 739.999989 1119.999983 L 739.999989 1148.359358 " transform="matrix(0.2, 0, 0, -0.2, 0, 350)"/>
<path fill="none" stroke-width="7.9701" stroke-linecap="butt" stroke-linejoin="miter" stroke="rgb(0%, 0%, 0%)" stroke-opacity="1" stroke-miterlimit="10" d="M 739.999989 1148.359358 L 739.999989 1176.67967 " transform="matrix(0.2, 0, 0, -0.2, 0, 350)"/>
<path fill="none" stroke-width="7.9701" stroke-linecap="butt" stroke-linejoin="miter" stroke="rgb(0%, 0%, 0%)" stroke-opacity="1" stroke-miterlimit="10" d="M 739.999989 1233.398419 L 739.999989 1261.718731 " transform="matrix(0.2, 0, 0, -0.2, 0, 350)"/>
<path fill="none" stroke-width="7.9701" stroke-linecap="butt" stroke-linejoin="miter" stroke="rgb(0%, 0%, 0%)" stroke-opacity="1" stroke-miterlimit="10" d="M 739.999989 1261.718731 L 739.999989 1290.078106 " transform="matrix(0.2, 0, 0, -0.2, 0, 350)"/>
<path fill="none" stroke-width="7.9701" stroke-linecap="butt" stroke-linejoin="miter" stroke="rgb(0%, 0%, 0%)" stroke-opacity="1" stroke-miterlimit="10" d="M 739.999989 1346.757792 L 739.999989 1375.117167 " transform="matrix(0.2, 0, 0, -0.2, 0, 350)"/>
<path fill="none" stroke-width="7.9701" stroke-linecap="butt" stroke-linejoin="miter" stroke="rgb(0%, 0%, 0%)" stroke-opacity="1" stroke-miterlimit="10" d="M 739.999989 1375.117167 L 739.999989 1403.437479 " transform="matrix(0.2, 0, 0, -0.2, 0, 350)"/>
<path fill="none" stroke-width="7.9701" stroke-linecap="butt" stroke-linejoin="miter" stroke="rgb(0%, 0%, 0%)" stroke-opacity="1" stroke-miterlimit="10" d="M 739.999989 1460.117166 L 739.999989 1488.47654 " transform="matrix(0.2, 0, 0, -0.2, 0, 350)"/>
<path fill-rule="nonzero" fill="rgb(100%, 100%, 100%)" fill-opacity="1" d="M 132.140625 169.445312 L 164.0625 169.445312 L 164.0625 194.40625 L 132.140625 194.40625 Z M 132.140625 169.445312 "/>
<path fill-rule="nonzero" fill="rgb(0%, 0%, 0%)" fill-opacity="1" d="M 140.546875 182.09375 L 140.546875 181.59375 C 140.546875 176.5625 143.015625 175.84375 144.046875 175.84375 C 144.515625 175.84375 145.359375 175.96875 145.796875 176.65625 C 145.484375 176.65625 144.703125 176.65625 144.703125 177.53125 C 144.703125 178.15625 145.171875 178.46875 145.609375 178.46875 C 145.921875 178.46875 146.546875 178.28125 146.546875 177.5 C 146.546875 176.3125 145.671875 175.34375 144.015625 175.34375 C 141.453125 175.34375 138.765625 177.90625 138.765625 182.3125 C 138.765625 187.65625 141.078125 189.0625 142.921875 189.0625 C 145.140625 189.0625 147.046875 187.1875 147.046875 184.5625 C 147.046875 182.03125 145.265625 180.125 143.046875 180.125 C 141.703125 180.125 140.953125 181.125 140.546875 182.09375 Z M 142.921875 188.5 C 141.671875 188.5 141.078125 187.3125 140.953125 187 C 140.578125 186.0625 140.578125 184.46875 140.578125 184.125 C 140.578125 182.5625 141.234375 180.5625 143.015625 180.5625 C 143.359375 180.5625 144.265625 180.5625 144.890625 181.8125 C 145.234375 182.53125 145.234375 183.5625 145.234375 184.53125 C 145.234375 185.5 145.234375 186.5 144.890625 187.21875 C 144.296875 188.40625 143.390625 188.5 142.921875 188.5 Z M 142.921875 188.5 "/>
<path fill-rule="nonzero" fill="rgb(0%, 0%, 0%)" fill-opacity="1" d="M 157.15625 182.25 C 157.15625 180.65625 157.0625 179.0625 156.375 177.59375 C 155.46875 175.65625 153.8125 175.34375 153 175.34375 C 151.78125 175.34375 150.34375 175.875 149.5 177.71875 C 148.875 179.09375 148.78125 180.65625 148.78125 182.25 C 148.78125 183.75 148.84375 185.53125 149.6875 187.0625 C 150.53125 188.65625 152 189.0625 152.96875 189.0625 C 154.03125 189.0625 155.5625 188.65625 156.4375 186.75 C 157.0625 185.375 157.15625 183.8125 157.15625 182.25 Z M 152.96875 188.625 C 152.1875 188.625 151 188.125 150.65625 186.21875 C 150.4375 185.03125 150.4375 183.1875 150.4375 182 C 150.4375 180.71875 150.4375 179.40625 150.59375 178.34375 C 150.96875 175.96875 152.46875 175.78125 152.96875 175.78125 C 153.625 175.78125 154.9375 176.15625 155.3125 178.125 C 155.53125 179.25 155.53125 180.75 155.53125 182 C 155.53125 183.5 155.53125 184.84375 155.3125 186.125 C 155 188.03125 153.875 188.625 152.96875 188.625 Z M 152.96875 188.625 "/>
<path fill="none" stroke-width="7.9701" stroke-linecap="butt" stroke-linejoin="miter" stroke="rgb(0%, 0%, 0%)" stroke-opacity="1" stroke-miterlimit="10" d="M 979.999985 921.601549 L 979.999985 948.906236 " transform="matrix(0.2, 0, 0, -0.2, 0, 350)"/>
<path fill="none" stroke-width="7.9701" stroke-linecap="butt" stroke-linejoin="miter" stroke="rgb(0%, 0%, 0%)" stroke-opacity="1" stroke-miterlimit="10" d="M 979.999985 1003.437485 L 979.999985 1030.70311 " transform="matrix(0.2, 0, 0, -0.2, 0, 350)"/>
<path fill="none" stroke-width="7.9701" stroke-linecap="butt" stroke-linejoin="miter" stroke="rgb(0%, 0%, 0%)" stroke-opacity="1" stroke-miterlimit="10" d="M 979.999985 1030.70311 L 979.999985 1057.968734 " transform="matrix(0.2, 0, 0, -0.2, 0, 350)"/>
<path fill="none" stroke-width="7.9701" stroke-linecap="butt" stroke-linejoin="miter" stroke="rgb(0%, 0%, 0%)" stroke-opacity="1" stroke-miterlimit="10" d="M 979.999985 1112.539046 L 979.999985 1139.804671 " transform="matrix(0.2, 0, 0, -0.2, 0, 350)"/>
<path fill="none" stroke-width="7.9701" stroke-linecap="butt" stroke-linejoin="miter" stroke="rgb(0%, 0%, 0%)" stroke-opacity="1" stroke-miterlimit="10" d="M 979.999985 1139.804671 L 979.999985 1167.070295 " transform="matrix(0.2, 0, 0, -0.2, 0, 350)"/>
<path fill="none" stroke-width="7.9701" stroke-linecap="butt" stroke-linejoin="miter" stroke="rgb(0%, 0%, 0%)" stroke-opacity="1" stroke-miterlimit="10" d="M 979.999985 1221.601544 L 979.999985 1248.906231 " transform="matrix(0.2, 0, 0, -0.2, 0, 350)"/>
<path fill="none" stroke-width="7.9701" stroke-linecap="butt" stroke-linejoin="miter" stroke="rgb(0%, 0%, 0%)" stroke-opacity="1" stroke-miterlimit="10" d="M 979.999985 1248.906231 L 979.999985 1276.132793 " transform="matrix(0.2, 0, 0, -0.2, 0, 350)"/>
<path fill="none" stroke-width="7.9701" stroke-linecap="butt" stroke-linejoin="miter" stroke="rgb(0%, 0%, 0%)" stroke-opacity="1" stroke-miterlimit="10" d="M 979.999985 1330.703105 L 979.999985 1357.96873 " transform="matrix(0.2, 0, 0, -0.2, 0, 350)"/>
<path fill="none" stroke-width="7.9701" stroke-linecap="butt" stroke-linejoin="miter" stroke="rgb(0%, 0%, 0%)" stroke-opacity="1" stroke-miterlimit="10" d="M 979.999985 1357.96873 L 979.999985 1385.234354 " transform="matrix(0.2, 0, 0, -0.2, 0, 350)"/>
<path fill="none" stroke-width="7.9701" stroke-linecap="butt" stroke-linejoin="miter" stroke="rgb(0%, 0%, 0%)" stroke-opacity="1" stroke-miterlimit="10" d="M 979.999985 1439.804666 L 979.999985 1467.070291 " transform="matrix(0.2, 0, 0, -0.2, 0, 350)"/>
<path fill="none" stroke-width="7.9701" stroke-linecap="butt" stroke-linejoin="miter" stroke="rgb(0%, 0%, 0%)" stroke-opacity="1" stroke-miterlimit="10" d="M 979.999985 1467.070291 L 979.999985 1494.335915 " transform="matrix(0.2, 0, 0, -0.2, 0, 350)"/>
<path fill="none" stroke-width="7.9701" stroke-linecap="butt" stroke-linejoin="miter" stroke="rgb(0%, 0%, 0%)" stroke-opacity="1" stroke-miterlimit="10" d="M 979.999985 1548.906227 L 979.999985 1576.171852 " transform="matrix(0.2, 0, 0, -0.2, 0, 350)"/>
<path fill-rule="nonzero" fill="rgb(100%, 100%, 100%)" fill-opacity="1" d="M 180.140625 169.445312 L 212.0625 169.445312 L 212.0625 194.40625 L 180.140625 194.40625 Z M 180.140625 169.445312 "/>
<path fill-rule="nonzero" fill="rgb(0%, 0%, 0%)" fill-opacity="1" d="M 193.234375 182.28125 L 193.234375 182.9375 C 193.234375 187.59375 191.171875 188.5 190.015625 188.5 C 189.671875 188.5 188.578125 188.46875 188.046875 187.78125 C 188.921875 187.78125 189.078125 187.21875 189.078125 186.875 C 189.078125 186.25 188.609375 185.96875 188.171875 185.96875 C 187.859375 185.96875 187.265625 186.125 187.265625 186.90625 C 187.265625 188.25 188.328125 189.0625 190.015625 189.0625 C 192.609375 189.0625 195.046875 186.34375 195.046875 182.0625 C 195.046875 176.6875 192.734375 175.34375 190.953125 175.34375 C 189.859375 175.34375 188.890625 175.71875 188.046875 176.59375 C 187.203125 177.5 186.765625 178.34375 186.765625 179.84375 C 186.765625 182.3125 188.515625 184.28125 190.734375 184.28125 C 191.953125 184.28125 192.765625 183.4375 193.234375 182.28125 Z M 190.765625 183.8125 C 190.453125 183.8125 189.515625 183.8125 188.921875 182.5625 C 188.546875 181.8125 188.546875 180.84375 188.546875 179.84375 C 188.546875 178.78125 188.546875 177.84375 188.984375 177.09375 C 189.515625 176.09375 190.265625 175.84375 190.953125 175.84375 C 191.890625 175.84375 192.546875 176.53125 192.890625 177.40625 C 193.109375 178.0625 193.203125 179.3125 193.203125 180.21875 C 193.203125 181.875 192.515625 183.8125 190.765625 183.8125 Z M 190.765625 183.8125 "/>
<path fill-rule="nonzero" fill="rgb(0%, 0%, 0%)" fill-opacity="1" d="M 205.15625 182.25 C 205.15625 180.65625 205.0625 179.0625 204.375 177.59375 C 203.46875 175.65625 201.8125 175.34375 201 175.34375 C 199.78125 175.34375 198.34375 175.875 197.5 177.71875 C 196.875 179.09375 196.78125 180.65625 196.78125 182.25 C 196.78125 183.75 196.84375 185.53125 197.6875 187.0625 C 198.53125 188.65625 200 189.0625 200.96875 189.0625 C 202.03125 189.0625 203.5625 188.65625 204.4375 186.75 C 205.0625 185.375 205.15625 183.8125 205.15625 182.25 Z M 200.96875 188.625 C 200.1875 188.625 199 188.125 198.65625 186.21875 C 198.4375 185.03125 198.4375 183.1875 198.4375 182 C 198.4375 180.71875 198.4375 179.40625 198.59375 178.34375 C 198.96875 175.96875 200.46875 175.78125 200.96875 175.78125 C 201.625 175.78125 202.9375 176.15625 203.3125 178.125 C 203.53125 179.25 203.53125 180.75 203.53125 182 C 203.53125 183.5 203.53125 184.84375 203.3125 186.125 C 203 188.03125 201.875 188.625 200.96875 188.625 Z M 200.96875 188.625 "/>
<path fill="none" stroke-width="7.9701" stroke-linecap="butt" stroke-linejoin="miter" stroke="rgb(0%, 0%, 0%)" stroke-opacity="1" stroke-miterlimit="10" d="M 1219.999982 921.601549 L 1219.999982 949.960923 " transform="matrix(0.2, 0, 0, -0.2, 0, 350)"/>
<path fill="none" stroke-width="7.9701" stroke-linecap="butt" stroke-linejoin="miter" stroke="rgb(0%, 0%, 0%)" stroke-opacity="1" stroke-miterlimit="10" d="M 1219.999982 1006.64061 L 1219.999982 1034.960922 " transform="matrix(0.2, 0, 0, -0.2, 0, 350)"/>
<path fill="none" stroke-width="7.9701" stroke-linecap="butt" stroke-linejoin="miter" stroke="rgb(0%, 0%, 0%)" stroke-opacity="1" stroke-miterlimit="10" d="M 1219.999982 1034.960922 L 1219.999982 1063.320297 " transform="matrix(0.2, 0, 0, -0.2, 0, 350)"/>
<path fill="none" stroke-width="7.9701" stroke-linecap="butt" stroke-linejoin="miter" stroke="rgb(0%, 0%, 0%)" stroke-opacity="1" stroke-miterlimit="10" d="M 1219.999982 1119.999983 L 1219.999982 1148.359358 " transform="matrix(0.2, 0, 0, -0.2, 0, 350)"/>
<path fill="none" stroke-width="7.9701" stroke-linecap="butt" stroke-linejoin="miter" stroke="rgb(0%, 0%, 0%)" stroke-opacity="1" stroke-miterlimit="10" d="M 1219.999982 1148.359358 L 1219.999982 1176.67967 " transform="matrix(0.2, 0, 0, -0.2, 0, 350)"/>
<path fill="none" stroke-width="7.9701" stroke-linecap="butt" stroke-linejoin="miter" stroke="rgb(0%, 0%, 0%)" stroke-opacity="1" stroke-miterlimit="10" d="M 1219.999982 1233.398419 L 1219.999982 1261.718731 " transform="matrix(0.2, 0, 0, -0.2, 0, 350)"/>
<path fill="none" stroke-width="7.9701" stroke-linecap="butt" stroke-linejoin="miter" stroke="rgb(0%, 0%, 0%)" stroke-opacity="1" stroke-miterlimit="10" d="M 1219.999982 1261.718731 L 1219.999982 1290.078106 " transform="matrix(0.2, 0, 0, -0.2, 0, 350)"/>
<path fill="none" stroke-width="7.9701" stroke-linecap="butt" stroke-linejoin="miter" stroke="rgb(0%, 0%, 0%)" stroke-opacity="1" stroke-miterlimit="10" d="M 1219.999982 1346.757792 L 1219.999982 1375.117167 " transform="matrix(0.2, 0, 0, -0.2, 0, 350)"/>
<path fill="none" stroke-width="7.9701" stroke-linecap="butt" stroke-linejoin="miter" stroke="rgb(0%, 0%, 0%)" stroke-opacity="1" stroke-miterlimit="10" d="M 1219.999982 1375.117167 L 1219.999982 1403.437479 " transform="matrix(0.2, 0, 0, -0.2, 0, 350)"/>
<path fill="none" stroke-width="7.9701" stroke-linecap="butt" stroke-linejoin="miter" stroke="rgb(0%, 0%, 0%)" stroke-opacity="1" stroke-miterlimit="10" d="M 1219.999982 1460.117166 L 1219.999982 1488.47654 " transform="matrix(0.2, 0, 0, -0.2, 0, 350)"/>
<path fill-rule="nonzero" fill="rgb(100%, 100%, 100%)" fill-opacity="1" d="M 223.101562 169.445312 L 265.101562 169.445312 L 265.101562 194.40625 L 223.101562 194.40625 Z M 223.101562 169.445312 "/>
<path fill-rule="nonzero" fill="rgb(0%, 0%, 0%)" fill-opacity="1" d="M 234.996094 175.875 C 234.996094 175.375 234.996094 175.34375 234.527344 175.34375 C 233.277344 176.625 231.527344 176.625 230.902344 176.625 L 230.902344 177.25 C 231.308594 177.25 232.464844 177.25 233.496094 176.71875 L 233.496094 187.0625 C 233.496094 187.78125 233.433594 188 231.652344 188 L 231.027344 188 L 231.027344 188.625 C 231.714844 188.5625 233.433594 188.5625 234.246094 188.5625 C 235.027344 188.5625 236.777344 188.5625 237.464844 188.625 L 237.464844 188 L 236.839844 188 C 235.027344 188 234.996094 187.78125 234.996094 187.0625 Z M 234.996094 175.875 "/>
<path fill-rule="nonzero" fill="rgb(0%, 0%, 0%)" fill-opacity="1" d="M 241.734375 187.09375 L 243.859375 185.03125 C 246.953125 182.28125 248.140625 181.21875 248.140625 179.21875 C 248.140625 176.9375 246.359375 175.34375 243.921875 175.34375 C 241.671875 175.34375 240.203125 177.1875 240.203125 178.96875 C 240.203125 180.0625 241.203125 180.0625 241.265625 180.0625 C 241.609375 180.0625 242.296875 179.84375 242.296875 179 C 242.296875 178.5 241.921875 177.96875 241.234375 177.96875 C 241.078125 177.96875 241.046875 177.96875 240.984375 178 C 241.421875 176.6875 242.515625 175.96875 243.671875 175.96875 C 245.484375 175.96875 246.328125 177.59375 246.328125 179.21875 C 246.328125 180.8125 245.359375 182.375 244.234375 183.625 L 240.421875 187.875 C 240.203125 188.09375 240.203125 188.15625 240.203125 188.625 L 247.609375 188.625 L 248.140625 185.15625 L 247.671875 185.15625 C 247.546875 185.75 247.421875 186.625 247.203125 186.9375 C 247.078125 187.09375 245.765625 187.09375 245.328125 187.09375 Z M 241.734375 187.09375 "/>
<path fill-rule="nonzero" fill="rgb(0%, 0%, 0%)" fill-opacity="1" d="M 258.4375 182.25 C 258.4375 180.65625 258.34375 179.0625 257.65625 177.59375 C 256.75 175.65625 255.09375 175.34375 254.28125 175.34375 C 253.0625 175.34375 251.625 175.875 250.78125 177.71875 C 250.15625 179.09375 250.0625 180.65625 250.0625 182.25 C 250.0625 183.75 250.125 185.53125 250.96875 187.0625 C 251.8125 188.65625 253.28125 189.0625 254.25 189.0625 C 255.3125 189.0625 256.84375 188.65625 257.71875 186.75 C 258.34375 185.375 258.4375 183.8125 258.4375 182.25 Z M 254.25 188.625 C 253.46875 188.625 252.28125 188.125 251.9375 186.21875 C 251.71875 185.03125 251.71875 183.1875 251.71875 182 C 251.71875 180.71875 251.71875 179.40625 251.875 178.34375 C 252.25 175.96875 253.75 175.78125 254.25 175.78125 C 254.90625 175.78125 256.21875 176.15625 256.59375 178.125 C 256.8125 179.25 256.8125 180.75 256.8125 182 C 256.8125 183.5 256.8125 184.84375 256.59375 186.125 C 256.28125 188.03125 255.15625 188.625 254.25 188.625 Z M 254.25 188.625 "/>
<path fill="none" stroke-width="7.9701" stroke-linecap="butt" stroke-linejoin="miter" stroke="rgb(0%, 0%, 0%)" stroke-opacity="1" stroke-miterlimit="10" d="M 1460.039041 921.601549 L 1460.039041 948.906236 " transform="matrix(0.2, 0, 0, -0.2, 0, 350)"/>
<path fill="none" stroke-width="7.9701" stroke-linecap="butt" stroke-linejoin="miter" stroke="rgb(0%, 0%, 0%)" stroke-opacity="1" stroke-miterlimit="10" d="M 1460.039041 1003.437485 L 1460.039041 1030.70311 " transform="matrix(0.2, 0, 0, -0.2, 0, 350)"/>
<path fill="none" stroke-width="7.9701" stroke-linecap="butt" stroke-linejoin="miter" stroke="rgb(0%, 0%, 0%)" stroke-opacity="1" stroke-miterlimit="10" d="M 1460.039041 1030.70311 L 1460.039041 1057.968734 " transform="matrix(0.2, 0, 0, -0.2, 0, 350)"/>
<path fill="none" stroke-width="7.9701" stroke-linecap="butt" stroke-linejoin="miter" stroke="rgb(0%, 0%, 0%)" stroke-opacity="1" stroke-miterlimit="10" d="M 1460.039041 1112.539046 L 1460.039041 1139.804671 " transform="matrix(0.2, 0, 0, -0.2, 0, 350)"/>
<path fill="none" stroke-width="7.9701" stroke-linecap="butt" stroke-linejoin="miter" stroke="rgb(0%, 0%, 0%)" stroke-opacity="1" stroke-miterlimit="10" d="M 1460.039041 1139.804671 L 1460.039041 1167.070295 " transform="matrix(0.2, 0, 0, -0.2, 0, 350)"/>
<path fill="none" stroke-width="7.9701" stroke-linecap="butt" stroke-linejoin="miter" stroke="rgb(0%, 0%, 0%)" stroke-opacity="1" stroke-miterlimit="10" d="M 1460.039041 1221.601544 L 1460.039041 1248.906231 " transform="matrix(0.2, 0, 0, -0.2, 0, 350)"/>
<path fill-rule="nonzero" fill="rgb(100%, 100%, 100%)" fill-opacity="1" d="M 271.101562 169.445312 L 313.101562 169.445312 L 313.101562 194.40625 L 271.101562 194.40625 Z M 271.101562 169.445312 "/>
<path fill-rule="nonzero" fill="rgb(0%, 0%, 0%)" fill-opacity="1" d="M 283 175.875 C 283 175.375 283 175.34375 282.53125 175.34375 C 281.28125 176.625 279.53125 176.625 278.90625 176.625 L 278.90625 177.25 C 279.3125 177.25 280.46875 177.25 281.5 176.71875 L 281.5 187.0625 C 281.5 187.78125 281.4375 188 279.65625 188 L 279.03125 188 L 279.03125 188.625 C 279.71875 188.5625 281.4375 188.5625 282.25 188.5625 C 283.03125 188.5625 284.78125 188.5625 285.46875 188.625 L 285.46875 188 L 284.84375 188 C 283.03125 188 283 187.78125 283 187.0625 Z M 283 175.875 "/>
<path fill-rule="nonzero" fill="rgb(0%, 0%, 0%)" fill-opacity="1" d="M 296.140625 184.625 C 296.140625 182.25 294.515625 180.25 292.359375 180.25 C 291.421875 180.25 290.546875 180.5625 289.828125 181.28125 L 289.828125 177.375 C 290.234375 177.5 290.890625 177.625 291.515625 177.625 C 293.984375 177.625 295.390625 175.8125 295.390625 175.5625 C 295.390625 175.4375 295.328125 175.34375 295.171875 175.34375 C 295.171875 175.34375 295.109375 175.34375 295.015625 175.40625 C 294.609375 175.59375 293.640625 176 292.296875 176 C 291.515625 176 290.578125 175.84375 289.640625 175.4375 C 289.484375 175.375 289.453125 175.375 289.421875 175.375 C 289.203125 175.375 289.203125 175.53125 289.203125 175.84375 L 289.203125 181.75 C 289.203125 182.09375 289.203125 182.25 289.484375 182.25 C 289.640625 182.25 289.671875 182.21875 289.765625 182.09375 C 289.984375 181.78125 290.703125 180.6875 292.328125 180.6875 C 293.359375 180.6875 293.859375 181.59375 294.015625 181.96875 C 294.328125 182.71875 294.390625 183.46875 294.390625 184.46875 C 294.390625 185.1875 294.390625 186.375 293.890625 187.21875 C 293.421875 188 292.671875 188.5 291.765625 188.5 C 290.328125 188.5 289.171875 187.4375 288.828125 186.28125 C 288.890625 186.28125 288.953125 186.3125 289.171875 186.3125 C 289.828125 186.3125 290.171875 185.8125 290.171875 185.34375 C 290.171875 184.84375 289.828125 184.34375 289.171875 184.34375 C 288.890625 184.34375 288.203125 184.5 288.203125 185.40625 C 288.203125 187.125 289.578125 189.0625 291.796875 189.0625 C 294.109375 189.0625 296.140625 187.15625 296.140625 184.625 Z M 296.140625 184.625 "/>
<path fill-rule="nonzero" fill="rgb(0%, 0%, 0%)" fill-opacity="1" d="M 306.441406 182.25 C 306.441406 180.65625 306.347656 179.0625 305.660156 177.59375 C 304.753906 175.65625 303.097656 175.34375 302.285156 175.34375 C 301.066406 175.34375 299.628906 175.875 298.785156 177.71875 C 298.160156 179.09375 298.066406 180.65625 298.066406 182.25 C 298.066406 183.75 298.128906 185.53125 298.972656 187.0625 C 299.816406 188.65625 301.285156 189.0625 302.253906 189.0625 C 303.316406 189.0625 304.847656 188.65625 305.722656 186.75 C 306.347656 185.375 306.441406 183.8125 306.441406 182.25 Z M 302.253906 188.625 C 301.472656 188.625 300.285156 188.125 299.941406 186.21875 C 299.722656 185.03125 299.722656 183.1875 299.722656 182 C 299.722656 180.71875 299.722656 179.40625 299.878906 178.34375 C 300.253906 175.96875 301.753906 175.78125 302.253906 175.78125 C 302.910156 175.78125 304.222656 176.15625 304.597656 178.125 C 304.816406 179.25 304.816406 180.75 304.816406 182 C 304.816406 183.5 304.816406 184.84375 304.597656 186.125 C 304.285156 188.03125 303.160156 188.625 302.253906 188.625 Z M 302.253906 188.625 "/>
<path fill-rule="nonzero" fill="rgb(100%, 100%, 100%)" fill-opacity="1" d="M 319.101562 169.445312 L 361.101562 169.445312 L 361.101562 194.40625 L 319.101562 194.40625 Z M 319.101562 169.445312 "/>
<path fill-rule="nonzero" fill="rgb(0%, 0%, 0%)" fill-opacity="1" d="M 331 175.875 C 331 175.375 331 175.34375 330.53125 175.34375 C 329.28125 176.625 327.53125 176.625 326.90625 176.625 L 326.90625 177.25 C 327.3125 177.25 328.46875 177.25 329.5 176.71875 L 329.5 187.0625 C 329.5 187.78125 329.4375 188 327.65625 188 L 327.03125 188 L 327.03125 188.625 C 327.71875 188.5625 329.4375 188.5625 330.25 188.5625 C 331.03125 188.5625 332.78125 188.5625 333.46875 188.625 L 333.46875 188 L 332.84375 188 C 331.03125 188 331 187.78125 331 187.0625 Z M 331 175.875 "/>
<path fill-rule="nonzero" fill="rgb(0%, 0%, 0%)" fill-opacity="1" d="M 338.453125 179.5 C 337.546875 178.90625 337.453125 178.25 337.453125 177.90625 C 337.453125 176.6875 338.765625 175.84375 340.171875 175.84375 C 341.609375 175.84375 342.890625 176.875 342.890625 178.3125 C 342.890625 179.46875 342.109375 180.40625 340.921875 181.09375 Z M 341.359375 181.40625 C 342.796875 180.65625 343.765625 179.625 343.765625 178.3125 C 343.765625 176.46875 342.015625 175.34375 340.203125 175.34375 C 338.203125 175.34375 336.578125 176.8125 336.578125 178.6875 C 336.578125 179.03125 336.609375 179.9375 337.453125 180.875 C 337.671875 181.09375 338.421875 181.59375 338.921875 181.9375 C 337.765625 182.53125 336.046875 183.625 336.046875 185.625 C 336.046875 187.71875 338.078125 189.0625 340.171875 189.0625 C 342.421875 189.0625 344.328125 187.40625 344.328125 185.28125 C 344.328125 184.5625 344.109375 183.65625 343.328125 182.8125 C 342.953125 182.40625 342.640625 182.21875 341.359375 181.40625 Z M 339.359375 182.25 L 341.828125 183.8125 C 342.390625 184.1875 343.328125 184.78125 343.328125 186 C 343.328125 187.46875 341.828125 188.5 340.203125 188.5 C 338.484375 188.5 337.046875 187.28125 337.046875 185.625 C 337.046875 184.46875 337.671875 183.1875 339.359375 182.25 Z M 339.359375 182.25 "/>
<path fill-rule="nonzero" fill="rgb(0%, 0%, 0%)" fill-opacity="1" d="M 354.441406 182.25 C 354.441406 180.65625 354.347656 179.0625 353.660156 177.59375 C 352.753906 175.65625 351.097656 175.34375 350.285156 175.34375 C 349.066406 175.34375 347.628906 175.875 346.785156 177.71875 C 346.160156 179.09375 346.066406 180.65625 346.066406 182.25 C 346.066406 183.75 346.128906 185.53125 346.972656 187.0625 C 347.816406 188.65625 349.285156 189.0625 350.253906 189.0625 C 351.316406 189.0625 352.847656 188.65625 353.722656 186.75 C 354.347656 185.375 354.441406 183.8125 354.441406 182.25 Z M 350.253906 188.625 C 349.472656 188.625 348.285156 188.125 347.941406 186.21875 C 347.722656 185.03125 347.722656 183.1875 347.722656 182 C 347.722656 180.71875 347.722656 179.40625 347.878906 178.34375 C 348.253906 175.96875 349.753906 175.78125 350.253906 175.78125 C 350.910156 175.78125 352.222656 176.15625 352.597656 178.125 C 352.816406 179.25 352.816406 180.75 352.816406 182 C 352.816406 183.5 352.816406 184.84375 352.597656 186.125 C 352.285156 188.03125 351.160156 188.625 350.253906 188.625 Z M 350.253906 188.625 "/>
<path fill="none" stroke-width="7.9701" stroke-linecap="butt" stroke-linejoin="miter" stroke="rgb(0%, 0%, 0%)" stroke-opacity="1" stroke-miterlimit="10" d="M 1940.039034 921.601549 L 1940.039034 894.335924 " transform="matrix(0.2, 0, 0, -0.2, 0, 350)"/>
<path fill="none" stroke-width="7.9701" stroke-linecap="butt" stroke-linejoin="miter" stroke="rgb(0%, 0%, 0%)" stroke-opacity="1" stroke-miterlimit="10" d="M 1940.039034 839.804675 L 1940.039034 812.499988 " transform="matrix(0.2, 0, 0, -0.2, 0, 350)"/>
<path fill="none" stroke-width="7.9701" stroke-linecap="butt" stroke-linejoin="miter" stroke="rgb(0%, 0%, 0%)" stroke-opacity="1" stroke-miterlimit="10" d="M 1940.039034 812.499988 L 1940.039034 785.234363 " transform="matrix(0.2, 0, 0, -0.2, 0, 350)"/>
<path fill="none" stroke-width="7.9701" stroke-linecap="butt" stroke-linejoin="miter" stroke="rgb(0%, 0%, 0%)" stroke-opacity="1" stroke-miterlimit="10" d="M 1940.039034 730.703114 L 1940.039034 703.43749 " transform="matrix(0.2, 0, 0, -0.2, 0, 350)"/>
<path fill="none" stroke-width="7.9701" stroke-linecap="butt" stroke-linejoin="miter" stroke="rgb(0%, 0%, 0%)" stroke-opacity="1" stroke-miterlimit="10" d="M 1940.039034 703.43749 L 1940.039034 676.132802 " transform="matrix(0.2, 0, 0, -0.2, 0, 350)"/>
<path fill="none" stroke-width="7.9701" stroke-linecap="butt" stroke-linejoin="miter" stroke="rgb(0%, 0%, 0%)" stroke-opacity="1" stroke-miterlimit="10" d="M 1940.039034 621.601553 L 1940.039034 594.335929 " transform="matrix(0.2, 0, 0, -0.2, 0, 350)"/>
<path fill="none" stroke-width="7.9701" stroke-linecap="butt" stroke-linejoin="miter" stroke="rgb(0%, 0%, 0%)" stroke-opacity="1" stroke-miterlimit="10" d="M 2180.03903 921.601549 L 2180.03903 893.281237 " transform="matrix(0.2, 0, 0, -0.2, 0, 350)"/>
<path fill="none" stroke-width="7.9701" stroke-linecap="butt" stroke-linejoin="miter" stroke="rgb(0%, 0%, 0%)" stroke-opacity="1" stroke-miterlimit="10" d="M 2180.03903 836.60155 L 2180.03903 808.242175 " transform="matrix(0.2, 0, 0, -0.2, 0, 350)"/>
<path fill="none" stroke-width="7.9701" stroke-linecap="butt" stroke-linejoin="miter" stroke="rgb(0%, 0%, 0%)" stroke-opacity="1" stroke-miterlimit="10" d="M 2180.03903 808.242175 L 2180.03903 779.882801 " transform="matrix(0.2, 0, 0, -0.2, 0, 350)"/>
<path fill="none" stroke-width="7.9701" stroke-linecap="butt" stroke-linejoin="miter" stroke="rgb(0%, 0%, 0%)" stroke-opacity="1" stroke-miterlimit="10" d="M 2180.03903 723.203114 L 2180.03903 694.882802 " transform="matrix(0.2, 0, 0, -0.2, 0, 350)"/>
<path fill="none" stroke-width="7.9701" stroke-linecap="butt" stroke-linejoin="miter" stroke="rgb(0%, 0%, 0%)" stroke-opacity="1" stroke-miterlimit="10" d="M 2180.03903 694.882802 L 2180.03903 666.523428 " transform="matrix(0.2, 0, 0, -0.2, 0, 350)"/>
<path fill="none" stroke-width="7.9701" stroke-linecap="butt" stroke-linejoin="miter" stroke="rgb(0%, 0%, 0%)" stroke-opacity="1" stroke-miterlimit="10" d="M 2180.03903 609.843741 L 2180.03903 581.484366 " transform="matrix(0.2, 0, 0, -0.2, 0, 350)"/>
<path fill="none" stroke-width="7.9701" stroke-linecap="butt" stroke-linejoin="miter" stroke="rgb(0%, 0%, 0%)" stroke-opacity="1" stroke-miterlimit="10" d="M 2180.03903 581.484366 L 2180.03903 553.164054 " transform="matrix(0.2, 0, 0, -0.2, 0, 350)"/>
<path fill="none" stroke-width="7.9701" stroke-linecap="butt" stroke-linejoin="miter" stroke="rgb(0%, 0%, 0%)" stroke-opacity="1" stroke-miterlimit="10" d="M 2180.03903 496.484368 L 2180.03903 468.124993 " transform="matrix(0.2, 0, 0, -0.2, 0, 350)"/>
<path fill="none" stroke-width="7.9701" stroke-linecap="butt" stroke-linejoin="miter" stroke="rgb(0%, 0%, 0%)" stroke-opacity="1" stroke-miterlimit="10" d="M 2180.03903 468.124993 L 2180.03903 439.765618 " transform="matrix(0.2, 0, 0, -0.2, 0, 350)"/>
<path fill="none" stroke-width="7.9701" stroke-linecap="butt" stroke-linejoin="miter" stroke="rgb(0%, 0%, 0%)" stroke-opacity="1" stroke-miterlimit="10" d="M 2180.03903 383.085932 L 2180.03903 354.76562 " transform="matrix(0.2, 0, 0, -0.2, 0, 350)"/>
<path fill="none" stroke-width="7.9701" stroke-linecap="butt" stroke-linejoin="miter" stroke="rgb(0%, 0%, 0%)" stroke-opacity="1" stroke-miterlimit="10" d="M 2420.039026 921.601549 L 2420.039026 894.335924 " transform="matrix(0.2, 0, 0, -0.2, 0, 350)"/>
<path fill="none" stroke-width="7.9701" stroke-linecap="butt" stroke-linejoin="miter" stroke="rgb(0%, 0%, 0%)" stroke-opacity="1" stroke-miterlimit="10" d="M 2420.039026 839.804675 L 2420.039026 812.499988 " transform="matrix(0.2, 0, 0, -0.2, 0, 350)"/>
<path fill="none" stroke-width="7.9701" stroke-linecap="butt" stroke-linejoin="miter" stroke="rgb(0%, 0%, 0%)" stroke-opacity="1" stroke-miterlimit="10" d="M 2420.039026 812.499988 L 2420.039026 785.234363 " transform="matrix(0.2, 0, 0, -0.2, 0, 350)"/>
<path fill="none" stroke-width="7.9701" stroke-linecap="butt" stroke-linejoin="miter" stroke="rgb(0%, 0%, 0%)" stroke-opacity="1" stroke-miterlimit="10" d="M 2420.039026 730.703114 L 2420.039026 703.43749 " transform="matrix(0.2, 0, 0, -0.2, 0, 350)"/>
<path fill="none" stroke-width="7.9701" stroke-linecap="butt" stroke-linejoin="miter" stroke="rgb(0%, 0%, 0%)" stroke-opacity="1" stroke-miterlimit="10" d="M 2420.039026 703.43749 L 2420.039026 676.132802 " transform="matrix(0.2, 0, 0, -0.2, 0, 350)"/>
<path fill="none" stroke-width="7.9701" stroke-linecap="butt" stroke-linejoin="miter" stroke="rgb(0%, 0%, 0%)" stroke-opacity="1" stroke-miterlimit="10" d="M 2420.039026 621.601553 L 2420.039026 594.335929 " transform="matrix(0.2, 0, 0, -0.2, 0, 350)"/>
<path fill="none" stroke-width="7.9701" stroke-linecap="butt" stroke-linejoin="miter" stroke="rgb(0%, 0%, 0%)" stroke-opacity="1" stroke-miterlimit="10" d="M 2420.039026 594.335929 L 2420.039026 567.070304 " transform="matrix(0.2, 0, 0, -0.2, 0, 350)"/>
<path fill="none" stroke-width="7.9701" stroke-linecap="butt" stroke-linejoin="miter" stroke="rgb(0%, 0%, 0%)" stroke-opacity="1" stroke-miterlimit="10" d="M 2420.039026 512.499992 L 2420.039026 485.234368 " transform="matrix(0.2, 0, 0, -0.2, 0, 350)"/>
<path fill="none" stroke-width="7.9701" stroke-linecap="butt" stroke-linejoin="miter" stroke="rgb(0%, 0%, 0%)" stroke-opacity="1" stroke-miterlimit="10" d="M 2420.039026 485.234368 L 2420.039026 457.968743 " transform="matrix(0.2, 0, 0, -0.2, 0, 350)"/>
<path fill="none" stroke-width="7.9701" stroke-linecap="butt" stroke-linejoin="miter" stroke="rgb(0%, 0%, 0%)" stroke-opacity="1" stroke-miterlimit="10" d="M 2420.039026 403.437494 L 2420.039026 376.132807 " transform="matrix(0.2, 0, 0, -0.2, 0, 350)"/>
<path fill="none" stroke-width="7.9701" stroke-linecap="butt" stroke-linejoin="miter" stroke="rgb(0%, 0%, 0%)" stroke-opacity="1" stroke-miterlimit="10" d="M 2420.039026 376.132807 L 2420.039026 348.867182 " transform="matrix(0.2, 0, 0, -0.2, 0, 350)"/>
<path fill="none" stroke-width="7.9701" stroke-linecap="butt" stroke-linejoin="miter" stroke="rgb(0%, 0%, 0%)" stroke-opacity="1" stroke-miterlimit="10" d="M 2420.039026 294.335933 L 2420.039026 267.070309 " transform="matrix(0.2, 0, 0, -0.2, 0, 350)"/>
<path fill-rule="nonzero" fill="rgb(100%, 100%, 100%)" fill-opacity="1" d="M 463.101562 169.445312 L 505.101562 169.445312 L 505.101562 194.40625 L 463.101562 194.40625 Z M 463.101562 169.445312 "/>
<path fill-rule="nonzero" fill="rgb(0%, 0%, 0%)" fill-opacity="1" d="M 471.65625 187.09375 L 473.78125 185.03125 C 476.875 182.28125 478.0625 181.21875 478.0625 179.21875 C 478.0625 176.9375 476.28125 175.34375 473.84375 175.34375 C 471.59375 175.34375 470.125 177.1875 470.125 178.96875 C 470.125 180.0625 471.125 180.0625 471.1875 180.0625 C 471.53125 180.0625 472.21875 179.84375 472.21875 179 C 472.21875 178.5 471.84375 177.96875 471.15625 177.96875 C 471 177.96875 470.96875 177.96875 470.90625 178 C 471.34375 176.6875 472.4375 175.96875 473.59375 175.96875 C 475.40625 175.96875 476.25 177.59375 476.25 179.21875 C 476.25 180.8125 475.28125 182.375 474.15625 183.625 L 470.34375 187.875 C 470.125 188.09375 470.125 188.15625 470.125 188.625 L 477.53125 188.625 L 478.0625 185.15625 L 477.59375 185.15625 C 477.46875 185.75 477.34375 186.625 477.125 186.9375 C 477 187.09375 475.6875 187.09375 475.25 187.09375 Z M 471.65625 187.09375 "/>
<path fill-rule="nonzero" fill="rgb(0%, 0%, 0%)" fill-opacity="1" d="M 488.707031 176.46875 C 488.863281 176.25 488.863281 176.21875 488.863281 175.78125 L 484.019531 175.78125 C 481.613281 175.78125 481.550781 175.53125 481.488281 175.15625 L 480.988281 175.15625 L 480.332031 179.25 L 480.832031 179.25 C 480.894531 178.9375 481.050781 177.6875 481.332031 177.4375 C 481.457031 177.3125 483.019531 177.3125 483.269531 177.3125 L 487.394531 177.3125 C 487.175781 177.625 485.613281 179.8125 485.175781 180.46875 C 483.363281 183.15625 482.707031 185.9375 482.707031 187.96875 C 482.707031 188.15625 482.707031 189.0625 483.644531 189.0625 C 484.550781 189.0625 484.550781 188.15625 484.550781 187.96875 L 484.550781 186.9375 C 484.550781 185.84375 484.613281 184.75 484.769531 183.6875 C 484.863281 183.21875 485.113281 181.5 486.019531 180.28125 Z M 488.707031 176.46875 "/>
<path fill-rule="nonzero" fill="rgb(0%, 0%, 0%)" fill-opacity="1" d="M 498.441406 182.25 C 498.441406 180.65625 498.347656 179.0625 497.660156 177.59375 C 496.753906 175.65625 495.097656 175.34375 494.285156 175.34375 C 493.066406 175.34375 491.628906 175.875 490.785156 177.71875 C 490.160156 179.09375 490.066406 180.65625 490.066406 182.25 C 490.066406 183.75 490.128906 185.53125 490.972656 187.0625 C 491.816406 188.65625 493.285156 189.0625 494.253906 189.0625 C 495.316406 189.0625 496.847656 188.65625 497.722656 186.75 C 498.347656 185.375 498.441406 183.8125 498.441406 182.25 Z M 494.253906 188.625 C 493.472656 188.625 492.285156 188.125 491.941406 186.21875 C 491.722656 185.03125 491.722656 183.1875 491.722656 182 C 491.722656 180.71875 491.722656 179.40625 491.878906 178.34375 C 492.253906 175.96875 493.753906 175.78125 494.253906 175.78125 C 494.910156 175.78125 496.222656 176.15625 496.597656 178.125 C 496.816406 179.25 496.816406 180.75 496.816406 182 C 496.816406 183.5 496.816406 184.84375 496.597656 186.125 C 496.285156 188.03125 495.160156 188.625 494.253906 188.625 Z M 494.253906 188.625 "/>
<path fill="none" stroke-width="7.9701" stroke-linecap="butt" stroke-linejoin="miter" stroke="rgb(0%, 0%, 0%)" stroke-opacity="1" stroke-miterlimit="10" d="M 2660.039023 921.601549 L 2660.039023 893.281237 " transform="matrix(0.2, 0, 0, -0.2, 0, 350)"/>
<path fill="none" stroke-width="7.9701" stroke-linecap="butt" stroke-linejoin="miter" stroke="rgb(0%, 0%, 0%)" stroke-opacity="1" stroke-miterlimit="10" d="M 2660.039023 836.60155 L 2660.039023 808.242175 " transform="matrix(0.2, 0, 0, -0.2, 0, 350)"/>
<path fill="none" stroke-width="7.9701" stroke-linecap="butt" stroke-linejoin="miter" stroke="rgb(0%, 0%, 0%)" stroke-opacity="1" stroke-miterlimit="10" d="M 2660.039023 808.242175 L 2660.039023 779.882801 " transform="matrix(0.2, 0, 0, -0.2, 0, 350)"/>
<path fill="none" stroke-width="7.9701" stroke-linecap="butt" stroke-linejoin="miter" stroke="rgb(0%, 0%, 0%)" stroke-opacity="1" stroke-miterlimit="10" d="M 2660.039023 723.203114 L 2660.039023 694.882802 " transform="matrix(0.2, 0, 0, -0.2, 0, 350)"/>
<path fill="none" stroke-width="7.9701" stroke-linecap="butt" stroke-linejoin="miter" stroke="rgb(0%, 0%, 0%)" stroke-opacity="1" stroke-miterlimit="10" d="M 2660.039023 694.882802 L 2660.039023 666.523428 " transform="matrix(0.2, 0, 0, -0.2, 0, 350)"/>
<path fill="none" stroke-width="7.9701" stroke-linecap="butt" stroke-linejoin="miter" stroke="rgb(0%, 0%, 0%)" stroke-opacity="1" stroke-miterlimit="10" d="M 2660.039023 609.843741 L 2660.039023 581.484366 " transform="matrix(0.2, 0, 0, -0.2, 0, 350)"/>
<path fill="none" stroke-width="7.9701" stroke-linecap="butt" stroke-linejoin="miter" stroke="rgb(0%, 0%, 0%)" stroke-opacity="1" stroke-miterlimit="10" d="M 2660.039023 581.484366 L 2660.039023 553.164054 " transform="matrix(0.2, 0, 0, -0.2, 0, 350)"/>
<path fill="none" stroke-width="7.9701" stroke-linecap="butt" stroke-linejoin="miter" stroke="rgb(0%, 0%, 0%)" stroke-opacity="1" stroke-miterlimit="10" d="M 2660.039023 496.484368 L 2660.039023 468.124993 " transform="matrix(0.2, 0, 0, -0.2, 0, 350)"/>
<path fill="none" stroke-width="7.9701" stroke-linecap="butt" stroke-linejoin="miter" stroke="rgb(0%, 0%, 0%)" stroke-opacity="1" stroke-miterlimit="10" d="M 2660.039023 468.124993 L 2660.039023 439.765618 " transform="matrix(0.2, 0, 0, -0.2, 0, 350)"/>
<path fill="none" stroke-width="7.9701" stroke-linecap="butt" stroke-linejoin="miter" stroke="rgb(0%, 0%, 0%)" stroke-opacity="1" stroke-miterlimit="10" d="M 2660.039023 383.085932 L 2660.039023 354.76562 " transform="matrix(0.2, 0, 0, -0.2, 0, 350)"/>
<path fill="none" stroke-width="7.9701" stroke-linecap="butt" stroke-linejoin="miter" stroke="rgb(0%, 0%, 0%)" stroke-opacity="1" stroke-miterlimit="10" d="M 2900.039019 921.601549 L 2900.039019 894.335924 " transform="matrix(0.2, 0, 0, -0.2, 0, 350)"/>
<path fill="none" stroke-width="7.9701" stroke-linecap="butt" stroke-linejoin="miter" stroke="rgb(0%, 0%, 0%)" stroke-opacity="1" stroke-miterlimit="10" d="M 2900.039019 839.804675 L 2900.039019 812.499988 " transform="matrix(0.2, 0, 0, -0.2, 0, 350)"/>
<path fill="none" stroke-width="7.9701" stroke-linecap="butt" stroke-linejoin="miter" stroke="rgb(0%, 0%, 0%)" stroke-opacity="1" stroke-miterlimit="10" d="M 2900.039019 812.499988 L 2900.039019 785.234363 " transform="matrix(0.2, 0, 0, -0.2, 0, 350)"/>
<path fill="none" stroke-width="7.9701" stroke-linecap="butt" stroke-linejoin="miter" stroke="rgb(0%, 0%, 0%)" stroke-opacity="1" stroke-miterlimit="10" d="M 2900.039019 730.703114 L 2900.039019 703.43749 " transform="matrix(0.2, 0, 0, -0.2, 0, 350)"/>
<path fill="none" stroke-width="7.9701" stroke-linecap="butt" stroke-linejoin="miter" stroke="rgb(0%, 0%, 0%)" stroke-opacity="1" stroke-miterlimit="10" d="M 2900.039019 703.43749 L 2900.039019 676.132802 " transform="matrix(0.2, 0, 0, -0.2, 0, 350)"/>
<path fill="none" stroke-width="7.9701" stroke-linecap="butt" stroke-linejoin="miter" stroke="rgb(0%, 0%, 0%)" stroke-opacity="1" stroke-miterlimit="10" d="M 2900.039019 621.601553 L 2900.039019 594.335929 " transform="matrix(0.2, 0, 0, -0.2, 0, 350)"/>
<path fill-rule="nonzero" fill="rgb(100%, 100%, 100%)" fill-opacity="1" d="M 607.101562 169.445312 L 649.101562 169.445312 L 649.101562 194.40625 L 607.101562 194.40625 Z M 607.101562 169.445312 "/>
<path fill-rule="nonzero" fill="rgb(0%, 0%, 0%)" fill-opacity="1" d="M 618.910156 181.59375 C 620.535156 181.0625 621.691406 179.6875 621.691406 178.09375 C 621.691406 176.46875 619.941406 175.34375 618.035156 175.34375 C 616.035156 175.34375 614.503906 176.53125 614.503906 178.0625 C 614.503906 178.71875 614.941406 179.09375 615.535156 179.09375 C 616.128906 179.09375 616.535156 178.65625 616.535156 178.0625 C 616.535156 177.09375 615.597656 177.09375 615.316406 177.09375 C 615.910156 176.09375 617.222656 175.84375 617.941406 175.84375 C 618.785156 175.84375 619.878906 176.28125 619.878906 178.0625 C 619.878906 178.3125 619.816406 179.46875 619.316406 180.34375 C 618.722656 181.3125 618.035156 181.375 617.535156 181.375 C 617.378906 181.40625 616.910156 181.4375 616.753906 181.4375 C 616.597656 181.46875 616.472656 181.5 616.472656 181.6875 C 616.472656 181.90625 616.597656 181.90625 616.941406 181.90625 L 617.816406 181.90625 C 619.441406 181.90625 620.191406 183.25 620.191406 185.21875 C 620.191406 187.9375 618.816406 188.5 617.941406 188.5 C 617.066406 188.5 615.566406 188.15625 614.878906 187 C 615.566406 187.09375 616.191406 186.65625 616.191406 185.90625 C 616.191406 185.1875 615.660156 184.78125 615.097656 184.78125 C 614.597656 184.78125 613.972656 185.0625 613.972656 185.9375 C 613.972656 187.75 615.816406 189.0625 618.003906 189.0625 C 620.441406 189.0625 622.253906 187.25 622.253906 185.21875 C 622.253906 183.59375 620.972656 182.03125 618.910156 181.59375 Z M 618.910156 181.59375 "/>
<path fill-rule="nonzero" fill="rgb(0%, 0%, 0%)" fill-opacity="1" d="M 625.832031 182.09375 L 625.832031 181.59375 C 625.832031 176.5625 628.300781 175.84375 629.332031 175.84375 C 629.800781 175.84375 630.644531 175.96875 631.082031 176.65625 C 630.769531 176.65625 629.988281 176.65625 629.988281 177.53125 C 629.988281 178.15625 630.457031 178.46875 630.894531 178.46875 C 631.207031 178.46875 631.832031 178.28125 631.832031 177.5 C 631.832031 176.3125 630.957031 175.34375 629.300781 175.34375 C 626.738281 175.34375 624.050781 177.90625 624.050781 182.3125 C 624.050781 187.65625 626.363281 189.0625 628.207031 189.0625 C 630.425781 189.0625 632.332031 187.1875 632.332031 184.5625 C 632.332031 182.03125 630.550781 180.125 628.332031 180.125 C 626.988281 180.125 626.238281 181.125 625.832031 182.09375 Z M 628.207031 188.5 C 626.957031 188.5 626.363281 187.3125 626.238281 187 C 625.863281 186.0625 625.863281 184.46875 625.863281 184.125 C 625.863281 182.5625 626.519531 180.5625 628.300781 180.5625 C 628.644531 180.5625 629.550781 180.5625 630.175781 181.8125 C 630.519531 182.53125 630.519531 183.5625 630.519531 184.53125 C 630.519531 185.5 630.519531 186.5 630.175781 187.21875 C 629.582031 188.40625 628.675781 188.5 628.207031 188.5 Z M 628.207031 188.5 "/>
<path fill-rule="nonzero" fill="rgb(0%, 0%, 0%)" fill-opacity="1" d="M 642.445312 182.25 C 642.445312 180.65625 642.351562 179.0625 641.664062 177.59375 C 640.757812 175.65625 639.101562 175.34375 638.289062 175.34375 C 637.070312 175.34375 635.632812 175.875 634.789062 177.71875 C 634.164062 179.09375 634.070312 180.65625 634.070312 182.25 C 634.070312 183.75 634.132812 185.53125 634.976562 187.0625 C 635.820312 188.65625 637.289062 189.0625 638.257812 189.0625 C 639.320312 189.0625 640.851562 188.65625 641.726562 186.75 C 642.351562 185.375 642.445312 183.8125 642.445312 182.25 Z M 638.257812 188.625 C 637.476562 188.625 636.289062 188.125 635.945312 186.21875 C 635.726562 185.03125 635.726562 183.1875 635.726562 182 C 635.726562 180.71875 635.726562 179.40625 635.882812 178.34375 C 636.257812 175.96875 637.757812 175.78125 638.257812 175.78125 C 638.914062 175.78125 640.226562 176.15625 640.601562 178.125 C 640.820312 179.25 640.820312 180.75 640.820312 182 C 640.820312 183.5 640.820312 184.84375 640.601562 186.125 C 640.289062 188.03125 639.164062 188.625 638.257812 188.625 Z M 638.257812 188.625 "/>
<path fill="none" stroke-width="7.9701" stroke-linecap="butt" stroke-linejoin="miter" stroke="rgb(0%, 0%, 0%)" stroke-opacity="1" stroke-miterlimit="10" d="M 259.999996 1576.171852 L 285.703121 1576.171852 " transform="matrix(0.2, 0, 0, -0.2, 0, 350)"/>
<path fill="none" stroke-width="7.9701" stroke-linecap="butt" stroke-linejoin="miter" stroke="rgb(0%, 0%, 0%)" stroke-opacity="1" stroke-miterlimit="10" d="M 337.148432 1576.171852 L 362.851557 1576.171852 " transform="matrix(0.2, 0, 0, -0.2, 0, 350)"/>
<path fill="none" stroke-width="7.9701" stroke-linecap="butt" stroke-linejoin="miter" stroke="rgb(0%, 0%, 0%)" stroke-opacity="1" stroke-miterlimit="10" d="M 362.851557 1576.171852 L 388.554682 1576.171852 " transform="matrix(0.2, 0, 0, -0.2, 0, 350)"/>
<path fill="none" stroke-width="7.9701" stroke-linecap="butt" stroke-linejoin="miter" stroke="rgb(0%, 0%, 0%)" stroke-opacity="1" stroke-miterlimit="10" d="M 439.999993 1576.171852 L 465.742181 1576.171852 " transform="matrix(0.2, 0, 0, -0.2, 0, 350)"/>
<path fill="none" stroke-width="7.9701" stroke-linecap="butt" stroke-linejoin="miter" stroke="rgb(0%, 0%, 0%)" stroke-opacity="1" stroke-miterlimit="10" d="M 465.742181 1576.171852 L 491.445305 1576.171852 " transform="matrix(0.2, 0, 0, -0.2, 0, 350)"/>
<path fill="none" stroke-width="7.9701" stroke-linecap="butt" stroke-linejoin="miter" stroke="rgb(0%, 0%, 0%)" stroke-opacity="1" stroke-miterlimit="10" d="M 542.851554 1576.171852 L 568.593742 1576.171852 " transform="matrix(0.2, 0, 0, -0.2, 0, 350)"/>
<path fill="none" stroke-width="7.9701" stroke-linecap="butt" stroke-linejoin="miter" stroke="rgb(0%, 0%, 0%)" stroke-opacity="1" stroke-miterlimit="10" d="M 568.593742 1576.171852 L 594.296866 1576.171852 " transform="matrix(0.2, 0, 0, -0.2, 0, 350)"/>
<path fill="none" stroke-width="7.9701" stroke-linecap="butt" stroke-linejoin="miter" stroke="rgb(0%, 0%, 0%)" stroke-opacity="1" stroke-miterlimit="10" d="M 645.742178 1576.171852 L 671.445302 1576.171852 " transform="matrix(0.2, 0, 0, -0.2, 0, 350)"/>
<path fill="none" stroke-width="7.9701" stroke-linecap="butt" stroke-linejoin="miter" stroke="rgb(0%, 0%, 0%)" stroke-opacity="1" stroke-miterlimit="10" d="M 671.445302 1576.171852 L 697.148427 1576.171852 " transform="matrix(0.2, 0, 0, -0.2, 0, 350)"/>
<path fill="none" stroke-width="7.9701" stroke-linecap="butt" stroke-linejoin="miter" stroke="rgb(0%, 0%, 0%)" stroke-opacity="1" stroke-miterlimit="10" d="M 748.593739 1576.171852 L 774.296863 1576.171852 " transform="matrix(0.2, 0, 0, -0.2, 0, 350)"/>
<path fill="none" stroke-width="7.9701" stroke-linecap="butt" stroke-linejoin="miter" stroke="rgb(0%, 0%, 0%)" stroke-opacity="1" stroke-miterlimit="10" d="M 774.296863 1576.171852 L 799.999988 1576.171852 " transform="matrix(0.2, 0, 0, -0.2, 0, 350)"/>
<path fill="none" stroke-width="7.9701" stroke-linecap="butt" stroke-linejoin="miter" stroke="rgb(0%, 0%, 0%)" stroke-opacity="1" stroke-miterlimit="10" d="M 851.4453 1576.171852 L 877.148424 1576.171852 " transform="matrix(0.2, 0, 0, -0.2, 0, 350)"/>
<path fill="none" stroke-width="7.9701" stroke-linecap="butt" stroke-linejoin="miter" stroke="rgb(0%, 0%, 0%)" stroke-opacity="1" stroke-miterlimit="10" d="M 877.148424 1576.171852 L 902.851549 1576.171852 " transform="matrix(0.2, 0, 0, -0.2, 0, 350)"/>
<path fill="none" stroke-width="7.9701" stroke-linecap="butt" stroke-linejoin="miter" stroke="rgb(0%, 0%, 0%)" stroke-opacity="1" stroke-miterlimit="10" d="M 954.296861 1576.171852 L 979.999985 1576.171852 " transform="matrix(0.2, 0, 0, -0.2, 0, 350)"/>
<path fill-rule="nonzero" fill="rgb(0%, 0%, 0%)" fill-opacity="1" d="M 646.058594 151.085938 C 646.058594 149.648438 645.652344 146.617188 643.433594 146.617188 C 640.402344 146.617188 637.027344 152.773438 637.027344 157.773438 C 637.027344 159.804688 637.683594 162.242188 639.652344 162.242188 C 642.714844 162.242188 646.058594 155.960938 646.058594 151.085938 Z M 639.339844 154.085938 C 639.714844 152.679688 640.152344 150.929688 641.027344 149.398438 C 641.621094 148.304688 642.433594 147.085938 643.402344 147.085938 C 644.464844 147.085938 644.621094 148.492188 644.621094 149.742188 C 644.621094 150.804688 644.433594 151.929688 643.902344 154.085938 Z M 643.714844 154.773438 C 643.464844 155.773438 643.027344 157.617188 642.183594 159.210938 C 641.433594 160.679688 640.589844 161.742188 639.652344 161.742188 C 638.933594 161.742188 638.464844 161.117188 638.464844 159.085938 C 638.464844 158.179688 638.621094 156.898438 639.183594 154.773438 Z M 643.714844 154.773438 "/>
<path fill-rule="nonzero" fill="rgb(0%, 0%, 0%)" fill-opacity="1" d="M 56.832031 1.3125 C 56.925781 1 56.925781 0.96875 56.925781 0.8125 C 56.925781 0.40625 56.613281 0.21875 56.300781 0.21875 C 56.082031 0.21875 55.738281 0.34375 55.519531 0.6875 C 55.488281 0.78125 55.300781 1.46875 55.238281 1.875 C 55.082031 2.4375 54.925781 3.03125 54.800781 3.59375 L 53.800781 7.53125 C 53.707031 7.84375 52.769531 9.375 51.332031 9.375 C 50.238281 9.375 49.988281 8.4375 49.988281 7.625 C 49.988281 6.625 50.363281 5.25 51.113281 3.34375 C 51.457031 2.4375 51.550781 2.21875 51.550781 1.78125 C 51.550781 0.78125 50.832031 -0.03125 49.738281 -0.03125 C 47.675781 -0.03125 46.863281 3.15625 46.863281 3.34375 C 46.863281 3.5625 47.082031 3.5625 47.144531 3.5625 C 47.363281 3.5625 47.363281 3.53125 47.488281 3.15625 C 48.082031 1.125 48.957031 0.46875 49.675781 0.46875 C 49.863281 0.46875 50.238281 0.46875 50.238281 1.15625 C 50.238281 1.71875 50.019531 2.28125 49.863281 2.6875 C 48.988281 5 48.582031 6.25 48.582031 7.28125 C 48.582031 9.21875 49.957031 9.875 51.269531 9.875 C 52.113281 9.875 52.832031 9.5 53.457031 8.875 C 53.175781 10.03125 52.925781 11.09375 52.050781 12.25 C 51.488281 12.96875 50.644531 13.625 49.644531 13.625 C 49.332031 13.625 48.363281 13.5625 47.988281 12.6875 C 48.332031 12.6875 48.613281 12.6875 48.925781 12.4375 C 49.144531 12.25 49.363281 11.96875 49.363281 11.53125 C 49.363281 10.875 48.769531 10.78125 48.550781 10.78125 C 48.050781 10.78125 47.332031 11.125 47.332031 12.1875 C 47.332031 13.28125 48.300781 14.09375 49.644531 14.09375 C 51.894531 14.09375 54.144531 12.125 54.738281 9.65625 Z M 56.832031 1.3125 "/>
<path fill-rule="nonzero" fill="rgb(0%, 0%, 0%)" fill-opacity="1" d="M 295.601562 342.386719 C 296.789062 341.980469 298.789062 341.386719 298.789062 339.449219 C 298.789062 337.136719 296.070312 336.074219 294.101562 336.074219 C 293.164062 336.074219 292.195312 336.292969 291.351562 336.792969 C 291.226562 336.855469 291.070312 337.042969 290.914062 337.042969 C 290.601562 337.042969 290.039062 336.074219 289.726562 336.074219 C 289.539062 336.074219 289.507812 336.292969 289.507812 336.386719 L 289.507812 339.949219 C 289.507812 340.074219 289.601562 340.230469 289.789062 340.230469 C 290.101562 340.230469 290.070312 339.605469 290.164062 339.261719 C 290.632812 337.542969 292.195312 336.792969 293.695312 336.699219 L 294.101562 336.699219 C 295.445312 336.699219 297.007812 337.574219 297.007812 339.449219 C 297.007812 341.261719 295.226562 342.199219 293.570312 342.199219 C 293.257812 342.199219 292.945312 342.199219 292.632812 342.199219 L 292.476562 342.199219 C 292.289062 342.199219 292.070312 342.199219 292.070312 342.417969 L 292.070312 342.449219 C 292.101562 342.636719 292.289062 342.667969 292.476562 342.667969 L 294.320312 342.667969 C 295.882812 342.792969 297.320312 343.824219 297.476562 345.449219 L 297.476562 345.667969 C 297.476562 347.511719 295.757812 348.667969 294.007812 348.667969 C 292.101562 348.667969 290.132812 348.042969 289.820312 345.667969 C 289.820312 345.511719 289.757812 345.324219 289.539062 345.324219 C 289.320312 345.355469 289.289062 345.511719 289.289062 345.667969 C 289.289062 348.261719 291.882812 349.292969 294.132812 349.292969 C 296.195312 349.292969 299.070312 348.324219 299.320312 345.855469 L 299.320312 345.730469 C 299.320312 343.761719 297.257812 342.792969 295.601562 342.386719 Z M 295.601562 342.386719 "/>
<path fill-rule="nonzero" fill="rgb(0%, 0%, 0%)" fill-opacity="1" d="M 307.695312 336.074219 C 304.320312 336.480469 301.632812 339.136719 301.632812 342.730469 C 301.632812 346.011719 304.226562 349.261719 308.101562 349.261719 C 311.601562 349.261719 314.570312 346.355469 314.570312 342.730469 C 314.570312 339.542969 312.070312 336.074219 308.132812 336.074219 C 308.007812 336.074219 307.851562 336.074219 307.695312 336.074219 Z M 303.507812 342.949219 L 303.507812 342.605469 C 303.507812 340.105469 304.414062 337.167969 307.570312 336.636719 C 307.757812 336.605469 307.914062 336.605469 308.101562 336.605469 C 310.914062 336.605469 312.664062 339.324219 312.664062 342.355469 C 312.664062 344.761719 311.945312 347.824219 308.976562 348.605469 C 308.695312 348.667969 308.414062 348.699219 308.132812 348.699219 L 307.945312 348.699219 C 305.351562 348.605469 303.945312 346.136719 303.601562 343.730469 Z M 303.507812 342.949219 "/>
<path fill-rule="nonzero" fill="rgb(0%, 0%, 0%)" fill-opacity="1" d="M 317.027344 336.417969 L 317.027344 337.011719 L 317.464844 337.011719 C 318.058594 337.011719 318.683594 337.105469 318.683594 337.980469 L 318.683594 347.449219 C 318.683594 348.292969 317.964844 348.324219 317.308594 348.324219 L 317.027344 348.324219 L 317.027344 348.917969 L 322.808594 348.917969 C 323.214844 348.917969 323.589844 348.949219 323.996094 348.949219 C 325.996094 348.949219 328.339844 348.011719 328.558594 345.605469 L 328.558594 345.417969 C 328.558594 342.886719 325.683594 341.855469 323.777344 341.855469 C 322.527344 341.855469 321.339844 341.980469 320.152344 342.074219 L 320.152344 337.855469 C 320.152344 337.417969 320.214844 337.011719 320.996094 337.011719 L 323.308594 337.011719 C 324.277344 337.011719 325.371094 337.074219 326.089844 337.792969 C 326.777344 338.511719 326.871094 339.730469 326.964844 340.667969 L 327.496094 340.667969 L 327.027344 336.417969 Z M 320.152344 342.699219 C 320.402344 342.699219 320.652344 342.636719 320.902344 342.605469 L 322.277344 342.542969 C 322.558594 342.511719 322.839844 342.480469 323.152344 342.480469 C 324.714844 342.480469 326.683594 343.480469 326.683594 345.324219 C 326.683594 347.074219 325.339844 348.355469 323.339844 348.355469 C 323.058594 348.355469 322.746094 348.324219 322.496094 348.324219 L 320.964844 348.324219 C 320.496094 348.324219 320.246094 348.292969 320.152344 347.667969 Z M 320.152344 342.699219 "/>
<path fill-rule="nonzero" fill="rgb(0%, 0%, 0%)" fill-opacity="1" d="M 330.910156 336.417969 L 330.910156 337.011719 L 331.378906 337.011719 C 331.972656 337.011719 332.566406 337.105469 332.566406 337.980469 L 332.566406 347.449219 C 332.566406 348.292969 331.878906 348.324219 331.191406 348.324219 L 330.910156 348.324219 L 330.910156 348.917969 L 335.816406 348.917969 L 335.816406 348.324219 L 335.378906 348.324219 C 334.753906 348.324219 334.160156 348.261719 334.160156 347.386719 L 334.160156 343.199219 L 337.878906 343.199219 C 339.660156 343.074219 341.941406 341.886719 341.941406 339.855469 C 341.941406 337.636719 339.597656 336.574219 337.691406 336.417969 Z M 334.128906 342.667969 L 334.128906 337.667969 C 334.222656 337.074219 334.472656 337.011719 334.878906 337.011719 L 336.316406 337.011719 C 337.941406 337.011719 340.066406 337.074219 340.066406 339.855469 C 340.066406 340.511719 339.972656 341.199219 339.566406 341.699219 C 338.910156 342.480469 337.816406 342.667969 336.847656 342.667969 Z M 334.128906 342.667969 "/>
<path fill-rule="nonzero" fill="rgb(0%, 0%, 0%)" fill-opacity="1" d="M 346.636719 346.636719 C 346.136719 346.730469 345.636719 347.167969 345.636719 347.761719 C 345.636719 348.386719 346.167969 348.917969 346.792969 348.917969 C 347.417969 348.917969 347.980469 348.449219 347.980469 347.792969 C 347.980469 347.167969 347.449219 346.605469 346.824219 346.605469 C 346.761719 346.605469 346.699219 346.636719 346.636719 346.636719 Z M 346.636719 346.636719 "/>
<path fill-rule="nonzero" fill="rgb(0%, 0%, 0%)" fill-opacity="1" d="M 360.195312 344.917969 L 366.789062 344.917969 L 366.789062 347.199219 C 366.789062 348.230469 365.976562 348.230469 364.414062 348.230469 L 364.414062 348.917969 L 370.851562 348.917969 L 370.851562 348.230469 C 370.570312 348.230469 370.257812 348.261719 369.945312 348.261719 C 369.132812 348.261719 368.476562 348.136719 368.476562 347.199219 L 368.476562 344.917969 L 371.007812 344.917969 L 371.007812 344.230469 L 368.476562 344.230469 L 368.476562 333.105469 L 368.382812 332.824219 L 367.914062 332.824219 L 367.601562 333.230469 L 360.195312 344.230469 Z M 360.789062 344.230469 L 366.882812 335.167969 L 366.882812 344.230469 Z M 360.789062 344.230469 "/>
<path fill-rule="nonzero" fill="rgb(0%, 0%, 0%)" fill-opacity="1" d="M 372.902344 344.917969 L 379.496094 344.917969 L 379.496094 347.199219 C 379.496094 348.230469 378.683594 348.230469 377.121094 348.230469 L 377.121094 348.917969 L 383.558594 348.917969 L 383.558594 348.230469 C 383.277344 348.230469 382.964844 348.261719 382.652344 348.261719 C 381.839844 348.261719 381.183594 348.136719 381.183594 347.199219 L 381.183594 344.917969 L 383.714844 344.917969 L 383.714844 344.230469 L 381.183594 344.230469 L 381.183594 333.105469 L 381.089844 332.824219 L 380.621094 332.824219 L 380.308594 333.230469 L 372.902344 344.230469 Z M 373.496094 344.230469 L 379.589844 335.167969 L 379.589844 344.230469 Z M 373.496094 344.230469 "/>
<path fill-rule="nonzero" fill="rgb(0%, 0%, 0%)" fill-opacity="1" d="M 388.144531 346.636719 C 387.644531 346.730469 387.144531 347.167969 387.144531 347.761719 C 387.144531 348.386719 387.675781 348.917969 388.300781 348.917969 C 388.925781 348.917969 389.488281 348.449219 389.488281 347.792969 C 389.488281 347.167969 388.957031 346.605469 388.332031 346.605469 C 388.269531 346.605469 388.207031 346.636719 388.144531 346.636719 Z M 388.144531 346.636719 "/>
</svg>
