<?xml version="1.0" encoding="UTF-8"?>
<svg xmlns="http://www.w3.org/2000/svg" xmlns:xlink="http://www.w3.org/1999/xlink" width="376" height="392" viewBox="0 0 376 392">
<path fill="none" stroke-width="11.9553" stroke-linecap="butt" stroke-linejoin="miter" stroke="rgb(0%, 0%, 0%)" stroke-opacity="1" stroke-miterlimit="10" d="M 179.999997 888.593737 L 1761.445286 1884.921847 " transform="matrix(0.2, 0, 0, -0.2, 0, 392)"/>
<path fill="none" stroke-width="7.9701" stroke-linecap="butt" stroke-linejoin="miter" stroke="rgb(0%, 0%, 0%)" stroke-opacity="1" stroke-miterlimit="10" d="M 334.29687 321.601558 L 334.29687 349.257807 " transform="matrix(0.2, 0, 0, -0.2, 0, 392)"/>
<path fill="none" stroke-width="7.9701" stroke-linecap="butt" stroke-linejoin="miter" stroke="rgb(0%, 0%, 0%)" stroke-opacity="1" stroke-miterlimit="10" d="M 334.29687 404.609369 L 334.29687 432.304681 " transform="matrix(0.2, 0, 0, -0.2, 0, 392)"/>
<path fill="none" stroke-width="7.9701" stroke-linecap="butt" stroke-linejoin="miter" stroke="rgb(0%, 0%, 0%)" stroke-opacity="1" stroke-miterlimit="10" d="M 334.29687 432.304681 L 334.29687 459.960931 " transform="matrix(0.2, 0, 0, -0.2, 0, 392)"/>
<path fill="none" stroke-width="7.9701" stroke-linecap="butt" stroke-linejoin="miter" stroke="rgb(0%, 0%, 0%)" stroke-opacity="1" stroke-miterlimit="10" d="M 334.29687 515.312492 L 334.29687 543.007804 " transform="matrix(0.2, 0, 0, -0.2, 0, 392)"/>
<path fill="none" stroke-width="7.9701" stroke-linecap="butt" stroke-linejoin="miter" stroke="rgb(0%, 0%, 0%)" stroke-opacity="1" stroke-miterlimit="10" d="M 334.29687 543.007804 L 334.29687 570.664054 " transform="matrix(0.2, 0, 0, -0.2, 0, 392)"/>
<path fill="none" stroke-width="7.9701" stroke-linecap="butt" stroke-linejoin="miter" stroke="rgb(0%, 0%, 0%)" stroke-opacity="1" stroke-miterlimit="10" d="M 334.29687 626.015616 L 334.29687 653.710928 " transform="matrix(0.2, 0, 0, -0.2, 0, 392)"/>
<path fill="none" stroke-width="7.9701" stroke-linecap="butt" stroke-linejoin="miter" stroke="rgb(0%, 0%, 0%)" stroke-opacity="1" stroke-miterlimit="10" d="M 334.29687 653.710928 L 334.29687 681.40624 " transform="matrix(0.2, 0, 0, -0.2, 0, 392)"/>
<path fill="none" stroke-width="7.9701" stroke-linecap="butt" stroke-linejoin="miter" stroke="rgb(0%, 0%, 0%)" stroke-opacity="1" stroke-miterlimit="10" d="M 334.29687 736.718739 L 334.29687 764.414051 " transform="matrix(0.2, 0, 0, -0.2, 0, 392)"/>
<path fill="none" stroke-width="7.9701" stroke-linecap="butt" stroke-linejoin="miter" stroke="rgb(0%, 0%, 0%)" stroke-opacity="1" stroke-miterlimit="10" d="M 334.29687 764.414051 L 334.29687 792.070301 " transform="matrix(0.2, 0, 0, -0.2, 0, 392)"/>
<path fill="none" stroke-width="7.9701" stroke-linecap="butt" stroke-linejoin="miter" stroke="rgb(0%, 0%, 0%)" stroke-opacity="1" stroke-miterlimit="10" d="M 334.29687 847.421862 L 334.29687 875.117174 " transform="matrix(0.2, 0, 0, -0.2, 0, 392)"/>
<path fill="none" stroke-width="7.9701" stroke-linecap="butt" stroke-linejoin="miter" stroke="rgb(0%, 0%, 0%)" stroke-opacity="1" stroke-miterlimit="10" d="M 334.29687 875.117174 L 334.29687 902.773424 " transform="matrix(0.2, 0, 0, -0.2, 0, 392)"/>
<path fill="none" stroke-width="7.9701" stroke-linecap="butt" stroke-linejoin="miter" stroke="rgb(0%, 0%, 0%)" stroke-opacity="1" stroke-miterlimit="10" d="M 334.29687 958.124986 L 334.29687 985.820298 " transform="matrix(0.2, 0, 0, -0.2, 0, 392)"/>
<path fill="none" stroke-width="11.9553" stroke-linecap="butt" stroke-linejoin="miter" stroke="rgb(0%, 0%, 0%)" stroke-opacity="1" stroke-miterlimit="10" d="M 179.999997 888.593737 L 334.29687 888.593737 " transform="matrix(0.2, 0, 0, -0.2, 0, 392)"/>
<path fill="none" stroke-width="11.9553" stroke-linecap="butt" stroke-linejoin="miter" stroke="rgb(0%, 0%, 0%)" stroke-opacity="1" stroke-miterlimit="10" d="M 334.29687 985.820298 L 334.29687 888.593737 " transform="matrix(0.2, 0, 0, -0.2, 0, 392)"/>
<path fill="none" stroke-width="7.9701" stroke-linecap="butt" stroke-linejoin="miter" stroke="rgb(0%, 0%, 0%)" stroke-opacity="1" stroke-miterlimit="10" d="M 488.593743 321.601558 L 488.593743 348.789057 " transform="matrix(0.2, 0, 0, -0.2, 0, 392)"/>
<path fill="none" stroke-width="7.9701" stroke-linecap="butt" stroke-linejoin="miter" stroke="rgb(0%, 0%, 0%)" stroke-opacity="1" stroke-miterlimit="10" d="M 488.593743 403.164056 L 488.593743 430.390619 " transform="matrix(0.2, 0, 0, -0.2, 0, 392)"/>
<path fill="none" stroke-width="7.9701" stroke-linecap="butt" stroke-linejoin="miter" stroke="rgb(0%, 0%, 0%)" stroke-opacity="1" stroke-miterlimit="10" d="M 488.593743 430.390619 L 488.593743 457.578118 " transform="matrix(0.2, 0, 0, -0.2, 0, 392)"/>
<path fill="none" stroke-width="7.9701" stroke-linecap="butt" stroke-linejoin="miter" stroke="rgb(0%, 0%, 0%)" stroke-opacity="1" stroke-miterlimit="10" d="M 488.593743 511.953117 L 488.593743 539.140617 " transform="matrix(0.2, 0, 0, -0.2, 0, 392)"/>
<path fill="none" stroke-width="7.9701" stroke-linecap="butt" stroke-linejoin="miter" stroke="rgb(0%, 0%, 0%)" stroke-opacity="1" stroke-miterlimit="10" d="M 488.593743 539.140617 L 488.593743 566.328117 " transform="matrix(0.2, 0, 0, -0.2, 0, 392)"/>
<path fill="none" stroke-width="7.9701" stroke-linecap="butt" stroke-linejoin="miter" stroke="rgb(0%, 0%, 0%)" stroke-opacity="1" stroke-miterlimit="10" d="M 488.593743 620.742178 L 488.593743 647.929678 " transform="matrix(0.2, 0, 0, -0.2, 0, 392)"/>
<path fill="none" stroke-width="7.9701" stroke-linecap="butt" stroke-linejoin="miter" stroke="rgb(0%, 0%, 0%)" stroke-opacity="1" stroke-miterlimit="10" d="M 488.593743 647.929678 L 488.593743 675.117177 " transform="matrix(0.2, 0, 0, -0.2, 0, 392)"/>
<path fill="none" stroke-width="7.9701" stroke-linecap="butt" stroke-linejoin="miter" stroke="rgb(0%, 0%, 0%)" stroke-opacity="1" stroke-miterlimit="10" d="M 488.593743 729.492177 L 488.593743 756.679676 " transform="matrix(0.2, 0, 0, -0.2, 0, 392)"/>
<path fill="none" stroke-width="7.9701" stroke-linecap="butt" stroke-linejoin="miter" stroke="rgb(0%, 0%, 0%)" stroke-opacity="1" stroke-miterlimit="10" d="M 488.593743 756.679676 L 488.593743 783.906238 " transform="matrix(0.2, 0, 0, -0.2, 0, 392)"/>
<path fill="none" stroke-width="7.9701" stroke-linecap="butt" stroke-linejoin="miter" stroke="rgb(0%, 0%, 0%)" stroke-opacity="1" stroke-miterlimit="10" d="M 488.593743 838.281238 L 488.593743 865.468737 " transform="matrix(0.2, 0, 0, -0.2, 0, 392)"/>
<path fill="none" stroke-width="7.9701" stroke-linecap="butt" stroke-linejoin="miter" stroke="rgb(0%, 0%, 0%)" stroke-opacity="1" stroke-miterlimit="10" d="M 488.593743 865.468737 L 488.593743 892.656237 " transform="matrix(0.2, 0, 0, -0.2, 0, 392)"/>
<path fill="none" stroke-width="7.9701" stroke-linecap="butt" stroke-linejoin="miter" stroke="rgb(0%, 0%, 0%)" stroke-opacity="1" stroke-miterlimit="10" d="M 488.593743 947.031236 L 488.593743 974.257798 " transform="matrix(0.2, 0, 0, -0.2, 0, 392)"/>
<path fill="none" stroke-width="7.9701" stroke-linecap="butt" stroke-linejoin="miter" stroke="rgb(0%, 0%, 0%)" stroke-opacity="1" stroke-miterlimit="10" d="M 488.593743 974.257798 L 488.593743 1001.445298 " transform="matrix(0.2, 0, 0, -0.2, 0, 392)"/>
<path fill="none" stroke-width="7.9701" stroke-linecap="butt" stroke-linejoin="miter" stroke="rgb(0%, 0%, 0%)" stroke-opacity="1" stroke-miterlimit="10" d="M 488.593743 1055.820297 L 488.593743 1083.007796 " transform="matrix(0.2, 0, 0, -0.2, 0, 392)"/>
<path fill="none" stroke-width="11.9553" stroke-linecap="butt" stroke-linejoin="miter" stroke="rgb(0%, 0%, 0%)" stroke-opacity="1" stroke-miterlimit="10" d="M 334.29687 985.820298 L 488.593743 985.820298 " transform="matrix(0.2, 0, 0, -0.2, 0, 392)"/>
<path fill="none" stroke-width="11.9553" stroke-linecap="butt" stroke-linejoin="miter" stroke="rgb(0%, 0%, 0%)" stroke-opacity="1" stroke-miterlimit="10" d="M 488.593743 1083.007796 L 488.593743 985.820298 " transform="matrix(0.2, 0, 0, -0.2, 0, 392)"/>
<path fill="none" stroke-width="7.9701" stroke-linecap="butt" stroke-linejoin="miter" stroke="rgb(0%, 0%, 0%)" stroke-opacity="1" stroke-miterlimit="10" d="M 642.851553 321.601558 L 642.851553 348.437495 " transform="matrix(0.2, 0, 0, -0.2, 0, 392)"/>
<path fill="none" stroke-width="7.9701" stroke-linecap="butt" stroke-linejoin="miter" stroke="rgb(0%, 0%, 0%)" stroke-opacity="1" stroke-miterlimit="10" d="M 642.851553 402.109369 L 642.851553 428.945306 " transform="matrix(0.2, 0, 0, -0.2, 0, 392)"/>
<path fill="none" stroke-width="7.9701" stroke-linecap="butt" stroke-linejoin="miter" stroke="rgb(0%, 0%, 0%)" stroke-opacity="1" stroke-miterlimit="10" d="M 642.851553 428.945306 L 642.851553 455.742181 " transform="matrix(0.2, 0, 0, -0.2, 0, 392)"/>
<path fill="none" stroke-width="7.9701" stroke-linecap="butt" stroke-linejoin="miter" stroke="rgb(0%, 0%, 0%)" stroke-opacity="1" stroke-miterlimit="10" d="M 642.851553 509.414055 L 642.851553 536.249992 " transform="matrix(0.2, 0, 0, -0.2, 0, 392)"/>
<path fill="none" stroke-width="7.9701" stroke-linecap="butt" stroke-linejoin="miter" stroke="rgb(0%, 0%, 0%)" stroke-opacity="1" stroke-miterlimit="10" d="M 642.851553 536.249992 L 642.851553 563.085929 " transform="matrix(0.2, 0, 0, -0.2, 0, 392)"/>
<path fill="none" stroke-width="7.9701" stroke-linecap="butt" stroke-linejoin="miter" stroke="rgb(0%, 0%, 0%)" stroke-opacity="1" stroke-miterlimit="10" d="M 642.851553 616.757803 L 642.851553 643.59374 " transform="matrix(0.2, 0, 0, -0.2, 0, 392)"/>
<path fill="none" stroke-width="7.9701" stroke-linecap="butt" stroke-linejoin="miter" stroke="rgb(0%, 0%, 0%)" stroke-opacity="1" stroke-miterlimit="10" d="M 642.851553 643.59374 L 642.851553 670.390615 " transform="matrix(0.2, 0, 0, -0.2, 0, 392)"/>
<path fill="none" stroke-width="7.9701" stroke-linecap="butt" stroke-linejoin="miter" stroke="rgb(0%, 0%, 0%)" stroke-opacity="1" stroke-miterlimit="10" d="M 642.851553 724.062489 L 642.851553 750.898426 " transform="matrix(0.2, 0, 0, -0.2, 0, 392)"/>
<path fill="none" stroke-width="7.9701" stroke-linecap="butt" stroke-linejoin="miter" stroke="rgb(0%, 0%, 0%)" stroke-opacity="1" stroke-miterlimit="10" d="M 642.851553 750.898426 L 642.851553 777.734363 " transform="matrix(0.2, 0, 0, -0.2, 0, 392)"/>
<path fill="none" stroke-width="7.9701" stroke-linecap="butt" stroke-linejoin="miter" stroke="rgb(0%, 0%, 0%)" stroke-opacity="1" stroke-miterlimit="10" d="M 642.851553 831.406238 L 642.851553 858.242175 " transform="matrix(0.2, 0, 0, -0.2, 0, 392)"/>
<path fill="none" stroke-width="7.9701" stroke-linecap="butt" stroke-linejoin="miter" stroke="rgb(0%, 0%, 0%)" stroke-opacity="1" stroke-miterlimit="10" d="M 642.851553 858.242175 L 642.851553 885.078112 " transform="matrix(0.2, 0, 0, -0.2, 0, 392)"/>
<path fill="none" stroke-width="7.9701" stroke-linecap="butt" stroke-linejoin="miter" stroke="rgb(0%, 0%, 0%)" stroke-opacity="1" stroke-miterlimit="10" d="M 642.851553 938.710924 L 642.851553 965.546861 " transform="matrix(0.2, 0, 0, -0.2, 0, 392)"/>
<path fill="none" stroke-width="7.9701" stroke-linecap="butt" stroke-linejoin="miter" stroke="rgb(0%, 0%, 0%)" stroke-opacity="1" stroke-miterlimit="10" d="M 642.851553 965.546861 L 642.851553 992.382798 " transform="matrix(0.2, 0, 0, -0.2, 0, 392)"/>
<path fill="none" stroke-width="7.9701" stroke-linecap="butt" stroke-linejoin="miter" stroke="rgb(0%, 0%, 0%)" stroke-opacity="1" stroke-miterlimit="10" d="M 642.851553 1046.054672 L 642.851553 1072.890609 " transform="matrix(0.2, 0, 0, -0.2, 0, 392)"/>
<path fill="none" stroke-width="7.9701" stroke-linecap="butt" stroke-linejoin="miter" stroke="rgb(0%, 0%, 0%)" stroke-opacity="1" stroke-miterlimit="10" d="M 642.851553 1072.890609 L 642.851553 1099.726546 " transform="matrix(0.2, 0, 0, -0.2, 0, 392)"/>
<path fill="none" stroke-width="7.9701" stroke-linecap="butt" stroke-linejoin="miter" stroke="rgb(0%, 0%, 0%)" stroke-opacity="1" stroke-miterlimit="10" d="M 642.851553 1153.39842 L 642.851553 1180.195295 " transform="matrix(0.2, 0, 0, -0.2, 0, 392)"/>
<path fill="none" stroke-width="11.9553" stroke-linecap="butt" stroke-linejoin="miter" stroke="rgb(0%, 0%, 0%)" stroke-opacity="1" stroke-miterlimit="10" d="M 488.593743 1083.007796 L 642.851553 1083.007796 " transform="matrix(0.2, 0, 0, -0.2, 0, 392)"/>
<path fill="none" stroke-width="11.9553" stroke-linecap="butt" stroke-linejoin="miter" stroke="rgb(0%, 0%, 0%)" stroke-opacity="1" stroke-miterlimit="10" d="M 642.851553 1180.195295 L 642.851553 1083.007796 " transform="matrix(0.2, 0, 0, -0.2, 0, 392)"/>
<path fill="none" stroke-width="7.9701" stroke-linecap="butt" stroke-linejoin="miter" stroke="rgb(0%, 0%, 0%)" stroke-opacity="1" stroke-miterlimit="10" d="M 797.148426 321.601558 L 797.148426 351.48437 " transform="matrix(0.2, 0, 0, -0.2, 0, 392)"/>
<path fill="none" stroke-width="7.9701" stroke-linecap="butt" stroke-linejoin="miter" stroke="rgb(0%, 0%, 0%)" stroke-opacity="1" stroke-miterlimit="10" d="M 797.148426 411.210931 L 797.148426 441.093743 " transform="matrix(0.2, 0, 0, -0.2, 0, 392)"/>
<path fill="none" stroke-width="7.9701" stroke-linecap="butt" stroke-linejoin="miter" stroke="rgb(0%, 0%, 0%)" stroke-opacity="1" stroke-miterlimit="10" d="M 797.148426 441.093743 L 797.148426 470.937493 " transform="matrix(0.2, 0, 0, -0.2, 0, 392)"/>
<path fill="none" stroke-width="7.9701" stroke-linecap="butt" stroke-linejoin="miter" stroke="rgb(0%, 0%, 0%)" stroke-opacity="1" stroke-miterlimit="10" d="M 797.148426 530.703117 L 797.148426 560.546867 " transform="matrix(0.2, 0, 0, -0.2, 0, 392)"/>
<path fill="none" stroke-width="7.9701" stroke-linecap="butt" stroke-linejoin="miter" stroke="rgb(0%, 0%, 0%)" stroke-opacity="1" stroke-miterlimit="10" d="M 797.148426 560.546867 L 797.148426 590.429679 " transform="matrix(0.2, 0, 0, -0.2, 0, 392)"/>
<path fill="none" stroke-width="7.9701" stroke-linecap="butt" stroke-linejoin="miter" stroke="rgb(0%, 0%, 0%)" stroke-opacity="1" stroke-miterlimit="10" d="M 797.148426 650.15624 L 797.148426 680.039052 " transform="matrix(0.2, 0, 0, -0.2, 0, 392)"/>
<path fill="none" stroke-width="7.9701" stroke-linecap="butt" stroke-linejoin="miter" stroke="rgb(0%, 0%, 0%)" stroke-opacity="1" stroke-miterlimit="10" d="M 797.148426 680.039052 L 797.148426 709.882802 " transform="matrix(0.2, 0, 0, -0.2, 0, 392)"/>
<path fill="none" stroke-width="7.9701" stroke-linecap="butt" stroke-linejoin="miter" stroke="rgb(0%, 0%, 0%)" stroke-opacity="1" stroke-miterlimit="10" d="M 797.148426 769.648426 L 797.148426 799.531238 " transform="matrix(0.2, 0, 0, -0.2, 0, 392)"/>
<path fill="none" stroke-width="7.9701" stroke-linecap="butt" stroke-linejoin="miter" stroke="rgb(0%, 0%, 0%)" stroke-opacity="1" stroke-miterlimit="10" d="M 797.148426 799.531238 L 797.148426 829.374988 " transform="matrix(0.2, 0, 0, -0.2, 0, 392)"/>
<path fill="none" stroke-width="7.9701" stroke-linecap="butt" stroke-linejoin="miter" stroke="rgb(0%, 0%, 0%)" stroke-opacity="1" stroke-miterlimit="10" d="M 797.148426 889.101549 L 797.148426 918.984361 " transform="matrix(0.2, 0, 0, -0.2, 0, 392)"/>
<path fill="none" stroke-width="7.9701" stroke-linecap="butt" stroke-linejoin="miter" stroke="rgb(0%, 0%, 0%)" stroke-opacity="1" stroke-miterlimit="10" d="M 797.148426 918.984361 L 797.148426 948.867173 " transform="matrix(0.2, 0, 0, -0.2, 0, 392)"/>
<path fill="none" stroke-width="7.9701" stroke-linecap="butt" stroke-linejoin="miter" stroke="rgb(0%, 0%, 0%)" stroke-opacity="1" stroke-miterlimit="10" d="M 797.148426 1008.593735 L 797.148426 1038.476547 " transform="matrix(0.2, 0, 0, -0.2, 0, 392)"/>
<path fill="none" stroke-width="7.9701" stroke-linecap="butt" stroke-linejoin="miter" stroke="rgb(0%, 0%, 0%)" stroke-opacity="1" stroke-miterlimit="10" d="M 797.148426 1038.476547 L 797.148426 1068.320297 " transform="matrix(0.2, 0, 0, -0.2, 0, 392)"/>
<path fill="none" stroke-width="7.9701" stroke-linecap="butt" stroke-linejoin="miter" stroke="rgb(0%, 0%, 0%)" stroke-opacity="1" stroke-miterlimit="10" d="M 797.148426 1128.085921 L 797.148426 1157.92967 " transform="matrix(0.2, 0, 0, -0.2, 0, 392)"/>
<path fill="none" stroke-width="7.9701" stroke-linecap="butt" stroke-linejoin="miter" stroke="rgb(0%, 0%, 0%)" stroke-opacity="1" stroke-miterlimit="10" d="M 797.148426 1157.92967 L 797.148426 1187.812482 " transform="matrix(0.2, 0, 0, -0.2, 0, 392)"/>
<path fill="none" stroke-width="7.9701" stroke-linecap="butt" stroke-linejoin="miter" stroke="rgb(0%, 0%, 0%)" stroke-opacity="1" stroke-miterlimit="10" d="M 797.148426 1247.539044 L 797.148426 1277.421856 " transform="matrix(0.2, 0, 0, -0.2, 0, 392)"/>
<path fill="none" stroke-width="11.9553" stroke-linecap="butt" stroke-linejoin="miter" stroke="rgb(0%, 0%, 0%)" stroke-opacity="1" stroke-miterlimit="10" d="M 642.851553 1180.195295 L 797.148426 1180.195295 " transform="matrix(0.2, 0, 0, -0.2, 0, 392)"/>
<path fill="none" stroke-width="11.9553" stroke-linecap="butt" stroke-linejoin="miter" stroke="rgb(0%, 0%, 0%)" stroke-opacity="1" stroke-miterlimit="10" d="M 797.148426 1277.421856 L 797.148426 1180.195295 " transform="matrix(0.2, 0, 0, -0.2, 0, 392)"/>
<path fill="none" stroke-width="7.9701" stroke-linecap="butt" stroke-linejoin="miter" stroke="rgb(0%, 0%, 0%)" stroke-opacity="1" stroke-miterlimit="10" d="M 951.445298 321.601558 L 951.445298 350.85937 " transform="matrix(0.2, 0, 0, -0.2, 0, 392)"/>
<path fill="none" stroke-width="7.9701" stroke-linecap="butt" stroke-linejoin="miter" stroke="rgb(0%, 0%, 0%)" stroke-opacity="1" stroke-miterlimit="10" d="M 951.445298 409.335931 L 951.445298 438.593743 " transform="matrix(0.2, 0, 0, -0.2, 0, 392)"/>
<path fill="none" stroke-width="7.9701" stroke-linecap="butt" stroke-linejoin="miter" stroke="rgb(0%, 0%, 0%)" stroke-opacity="1" stroke-miterlimit="10" d="M 951.445298 438.593743 L 951.445298 467.851556 " transform="matrix(0.2, 0, 0, -0.2, 0, 392)"/>
<path fill="none" stroke-width="7.9701" stroke-linecap="butt" stroke-linejoin="miter" stroke="rgb(0%, 0%, 0%)" stroke-opacity="1" stroke-miterlimit="10" d="M 951.445298 526.36718 L 951.445298 555.585929 " transform="matrix(0.2, 0, 0, -0.2, 0, 392)"/>
<path fill="none" stroke-width="7.9701" stroke-linecap="butt" stroke-linejoin="miter" stroke="rgb(0%, 0%, 0%)" stroke-opacity="1" stroke-miterlimit="10" d="M 951.445298 555.585929 L 951.445298 584.843741 " transform="matrix(0.2, 0, 0, -0.2, 0, 392)"/>
<path fill="none" stroke-width="7.9701" stroke-linecap="butt" stroke-linejoin="miter" stroke="rgb(0%, 0%, 0%)" stroke-opacity="1" stroke-miterlimit="10" d="M 951.445298 643.359365 L 951.445298 672.617177 " transform="matrix(0.2, 0, 0, -0.2, 0, 392)"/>
<path fill="none" stroke-width="7.9701" stroke-linecap="butt" stroke-linejoin="miter" stroke="rgb(0%, 0%, 0%)" stroke-opacity="1" stroke-miterlimit="10" d="M 951.445298 672.617177 L 951.445298 701.835927 " transform="matrix(0.2, 0, 0, -0.2, 0, 392)"/>
<path fill="none" stroke-width="7.9701" stroke-linecap="butt" stroke-linejoin="miter" stroke="rgb(0%, 0%, 0%)" stroke-opacity="1" stroke-miterlimit="10" d="M 951.445298 760.351551 L 951.445298 789.609363 " transform="matrix(0.2, 0, 0, -0.2, 0, 392)"/>
<path fill="none" stroke-width="7.9701" stroke-linecap="butt" stroke-linejoin="miter" stroke="rgb(0%, 0%, 0%)" stroke-opacity="1" stroke-miterlimit="10" d="M 951.445298 789.609363 L 951.445298 818.867175 " transform="matrix(0.2, 0, 0, -0.2, 0, 392)"/>
<path fill="none" stroke-width="7.9701" stroke-linecap="butt" stroke-linejoin="miter" stroke="rgb(0%, 0%, 0%)" stroke-opacity="1" stroke-miterlimit="10" d="M 951.445298 877.343737 L 951.445298 906.601549 " transform="matrix(0.2, 0, 0, -0.2, 0, 392)"/>
<path fill="none" stroke-width="7.9701" stroke-linecap="butt" stroke-linejoin="miter" stroke="rgb(0%, 0%, 0%)" stroke-opacity="1" stroke-miterlimit="10" d="M 951.445298 906.601549 L 951.445298 935.859361 " transform="matrix(0.2, 0, 0, -0.2, 0, 392)"/>
<path fill="none" stroke-width="7.9701" stroke-linecap="butt" stroke-linejoin="miter" stroke="rgb(0%, 0%, 0%)" stroke-opacity="1" stroke-miterlimit="10" d="M 951.445298 994.335923 L 951.445298 1023.593735 " transform="matrix(0.2, 0, 0, -0.2, 0, 392)"/>
<path fill="none" stroke-width="7.9701" stroke-linecap="butt" stroke-linejoin="miter" stroke="rgb(0%, 0%, 0%)" stroke-opacity="1" stroke-miterlimit="10" d="M 951.445298 1023.593735 L 951.445298 1052.851547 " transform="matrix(0.2, 0, 0, -0.2, 0, 392)"/>
<path fill="none" stroke-width="7.9701" stroke-linecap="butt" stroke-linejoin="miter" stroke="rgb(0%, 0%, 0%)" stroke-opacity="1" stroke-miterlimit="10" d="M 951.445298 1111.367171 L 951.445298 1140.624983 " transform="matrix(0.2, 0, 0, -0.2, 0, 392)"/>
<path fill="none" stroke-width="7.9701" stroke-linecap="butt" stroke-linejoin="miter" stroke="rgb(0%, 0%, 0%)" stroke-opacity="1" stroke-miterlimit="10" d="M 951.445298 1140.624983 L 951.445298 1169.843733 " transform="matrix(0.2, 0, 0, -0.2, 0, 392)"/>
<path fill="none" stroke-width="7.9701" stroke-linecap="butt" stroke-linejoin="miter" stroke="rgb(0%, 0%, 0%)" stroke-opacity="1" stroke-miterlimit="10" d="M 951.445298 1228.359357 L 951.445298 1257.617169 " transform="matrix(0.2, 0, 0, -0.2, 0, 392)"/>
<path fill="none" stroke-width="7.9701" stroke-linecap="butt" stroke-linejoin="miter" stroke="rgb(0%, 0%, 0%)" stroke-opacity="1" stroke-miterlimit="10" d="M 951.445298 1257.617169 L 951.445298 1286.874981 " transform="matrix(0.2, 0, 0, -0.2, 0, 392)"/>
<path fill="none" stroke-width="7.9701" stroke-linecap="butt" stroke-linejoin="miter" stroke="rgb(0%, 0%, 0%)" stroke-opacity="1" stroke-miterlimit="10" d="M 951.445298 1345.351542 L 951.445298 1374.609355 " transform="matrix(0.2, 0, 0, -0.2, 0, 392)"/>
<path fill="none" stroke-width="11.9553" stroke-linecap="butt" stroke-linejoin="miter" stroke="rgb(0%, 0%, 0%)" stroke-opacity="1" stroke-miterlimit="10" d="M 797.148426 1277.421856 L 951.445298 1277.421856 " transform="matrix(0.2, 0, 0, -0.2, 0, 392)"/>
<path fill="none" stroke-width="11.9553" stroke-linecap="butt" stroke-linejoin="miter" stroke="rgb(0%, 0%, 0%)" stroke-opacity="1" stroke-miterlimit="10" d="M 951.445298 1374.609355 L 951.445298 1277.421856 " transform="matrix(0.2, 0, 0, -0.2, 0, 392)"/>
<path fill="none" stroke-width="7.9701" stroke-linecap="butt" stroke-linejoin="miter" stroke="rgb(0%, 0%, 0%)" stroke-opacity="1" stroke-miterlimit="10" d="M 1105.703109 321.601558 L 1105.703109 350.351557 " transform="matrix(0.2, 0, 0, -0.2, 0, 392)"/>
<path fill="none" stroke-width="7.9701" stroke-linecap="butt" stroke-linejoin="miter" stroke="rgb(0%, 0%, 0%)" stroke-opacity="1" stroke-miterlimit="10" d="M 1105.703109 407.851556 L 1105.703109 436.601556 " transform="matrix(0.2, 0, 0, -0.2, 0, 392)"/>
<path fill="none" stroke-width="7.9701" stroke-linecap="butt" stroke-linejoin="miter" stroke="rgb(0%, 0%, 0%)" stroke-opacity="1" stroke-miterlimit="10" d="M 1105.703109 436.601556 L 1105.703109 465.390618 " transform="matrix(0.2, 0, 0, -0.2, 0, 392)"/>
<path fill="none" stroke-width="7.9701" stroke-linecap="butt" stroke-linejoin="miter" stroke="rgb(0%, 0%, 0%)" stroke-opacity="1" stroke-miterlimit="10" d="M 1105.703109 522.890617 L 1105.703109 551.640617 " transform="matrix(0.2, 0, 0, -0.2, 0, 392)"/>
<path fill="none" stroke-width="7.9701" stroke-linecap="butt" stroke-linejoin="miter" stroke="rgb(0%, 0%, 0%)" stroke-opacity="1" stroke-miterlimit="10" d="M 1105.703109 551.640617 L 1105.703109 580.390616 " transform="matrix(0.2, 0, 0, -0.2, 0, 392)"/>
<path fill="none" stroke-width="7.9701" stroke-linecap="butt" stroke-linejoin="miter" stroke="rgb(0%, 0%, 0%)" stroke-opacity="1" stroke-miterlimit="10" d="M 1105.703109 637.890615 L 1105.703109 666.679678 " transform="matrix(0.2, 0, 0, -0.2, 0, 392)"/>
<path fill="none" stroke-width="7.9701" stroke-linecap="butt" stroke-linejoin="miter" stroke="rgb(0%, 0%, 0%)" stroke-opacity="1" stroke-miterlimit="10" d="M 1105.703109 666.679678 L 1105.703109 695.429677 " transform="matrix(0.2, 0, 0, -0.2, 0, 392)"/>
<path fill="none" stroke-width="7.9701" stroke-linecap="butt" stroke-linejoin="miter" stroke="rgb(0%, 0%, 0%)" stroke-opacity="1" stroke-miterlimit="10" d="M 1105.703109 752.929676 L 1105.703109 781.679676 " transform="matrix(0.2, 0, 0, -0.2, 0, 392)"/>
<path fill="none" stroke-width="7.9701" stroke-linecap="butt" stroke-linejoin="miter" stroke="rgb(0%, 0%, 0%)" stroke-opacity="1" stroke-miterlimit="10" d="M 1105.703109 781.679676 L 1105.703109 810.429675 " transform="matrix(0.2, 0, 0, -0.2, 0, 392)"/>
<path fill="none" stroke-width="7.9701" stroke-linecap="butt" stroke-linejoin="miter" stroke="rgb(0%, 0%, 0%)" stroke-opacity="1" stroke-miterlimit="10" d="M 1105.703109 867.968737 L 1105.703109 896.718737 " transform="matrix(0.2, 0, 0, -0.2, 0, 392)"/>
<path fill="none" stroke-width="7.9701" stroke-linecap="butt" stroke-linejoin="miter" stroke="rgb(0%, 0%, 0%)" stroke-opacity="1" stroke-miterlimit="10" d="M 1105.703109 896.718737 L 1105.703109 925.468736 " transform="matrix(0.2, 0, 0, -0.2, 0, 392)"/>
<path fill="none" stroke-width="7.9701" stroke-linecap="butt" stroke-linejoin="miter" stroke="rgb(0%, 0%, 0%)" stroke-opacity="1" stroke-miterlimit="10" d="M 1105.703109 982.968735 L 1105.703109 1011.718735 " transform="matrix(0.2, 0, 0, -0.2, 0, 392)"/>
<path fill="none" stroke-width="7.9701" stroke-linecap="butt" stroke-linejoin="miter" stroke="rgb(0%, 0%, 0%)" stroke-opacity="1" stroke-miterlimit="10" d="M 1105.703109 1011.718735 L 1105.703109 1040.507797 " transform="matrix(0.2, 0, 0, -0.2, 0, 392)"/>
<path fill="none" stroke-width="7.9701" stroke-linecap="butt" stroke-linejoin="miter" stroke="rgb(0%, 0%, 0%)" stroke-opacity="1" stroke-miterlimit="10" d="M 1105.703109 1098.007796 L 1105.703109 1126.757796 " transform="matrix(0.2, 0, 0, -0.2, 0, 392)"/>
<path fill="none" stroke-width="7.9701" stroke-linecap="butt" stroke-linejoin="miter" stroke="rgb(0%, 0%, 0%)" stroke-opacity="1" stroke-miterlimit="10" d="M 1105.703109 1126.757796 L 1105.703109 1155.507795 " transform="matrix(0.2, 0, 0, -0.2, 0, 392)"/>
<path fill="none" stroke-width="7.9701" stroke-linecap="butt" stroke-linejoin="miter" stroke="rgb(0%, 0%, 0%)" stroke-opacity="1" stroke-miterlimit="10" d="M 1105.703109 1213.007794 L 1105.703109 1241.757794 " transform="matrix(0.2, 0, 0, -0.2, 0, 392)"/>
<path fill="none" stroke-width="7.9701" stroke-linecap="butt" stroke-linejoin="miter" stroke="rgb(0%, 0%, 0%)" stroke-opacity="1" stroke-miterlimit="10" d="M 1105.703109 1241.757794 L 1105.703109 1270.546856 " transform="matrix(0.2, 0, 0, -0.2, 0, 392)"/>
<path fill="none" stroke-width="7.9701" stroke-linecap="butt" stroke-linejoin="miter" stroke="rgb(0%, 0%, 0%)" stroke-opacity="1" stroke-miterlimit="10" d="M 1105.703109 1328.046855 L 1105.703109 1356.796855 " transform="matrix(0.2, 0, 0, -0.2, 0, 392)"/>
<path fill="none" stroke-width="7.9701" stroke-linecap="butt" stroke-linejoin="miter" stroke="rgb(0%, 0%, 0%)" stroke-opacity="1" stroke-miterlimit="10" d="M 1105.703109 1356.796855 L 1105.703109 1385.546854 " transform="matrix(0.2, 0, 0, -0.2, 0, 392)"/>
<path fill="none" stroke-width="7.9701" stroke-linecap="butt" stroke-linejoin="miter" stroke="rgb(0%, 0%, 0%)" stroke-opacity="1" stroke-miterlimit="10" d="M 1105.703109 1443.046853 L 1105.703109 1471.835916 " transform="matrix(0.2, 0, 0, -0.2, 0, 392)"/>
<path fill="none" stroke-width="11.9553" stroke-linecap="butt" stroke-linejoin="miter" stroke="rgb(0%, 0%, 0%)" stroke-opacity="1" stroke-miterlimit="10" d="M 951.445298 1374.609355 L 1105.703109 1374.609355 " transform="matrix(0.2, 0, 0, -0.2, 0, 392)"/>
<path fill="none" stroke-width="11.9553" stroke-linecap="butt" stroke-linejoin="miter" stroke="rgb(0%, 0%, 0%)" stroke-opacity="1" stroke-miterlimit="10" d="M 1105.703109 1471.835916 L 1105.703109 1374.609355 " transform="matrix(0.2, 0, 0, -0.2, 0, 392)"/>
<path fill="none" stroke-width="7.9701" stroke-linecap="butt" stroke-linejoin="miter" stroke="rgb(0%, 0%, 0%)" stroke-opacity="1" stroke-miterlimit="10" d="M 1260.039044 321.601558 L 1260.039044 349.960932 " transform="matrix(0.2, 0, 0, -0.2, 0, 392)"/>
<path fill="none" stroke-width="7.9701" stroke-linecap="butt" stroke-linejoin="miter" stroke="rgb(0%, 0%, 0%)" stroke-opacity="1" stroke-miterlimit="10" d="M 1260.039044 406.640619 L 1260.039044 434.999994 " transform="matrix(0.2, 0, 0, -0.2, 0, 392)"/>
<path fill="none" stroke-width="7.9701" stroke-linecap="butt" stroke-linejoin="miter" stroke="rgb(0%, 0%, 0%)" stroke-opacity="1" stroke-miterlimit="10" d="M 1260.039044 434.999994 L 1260.039044 463.359368 " transform="matrix(0.2, 0, 0, -0.2, 0, 392)"/>
<path fill="none" stroke-width="7.9701" stroke-linecap="butt" stroke-linejoin="miter" stroke="rgb(0%, 0%, 0%)" stroke-opacity="1" stroke-miterlimit="10" d="M 1260.039044 520.039055 L 1260.039044 548.398429 " transform="matrix(0.2, 0, 0, -0.2, 0, 392)"/>
<path fill="none" stroke-width="7.9701" stroke-linecap="butt" stroke-linejoin="miter" stroke="rgb(0%, 0%, 0%)" stroke-opacity="1" stroke-miterlimit="10" d="M 1260.039044 548.398429 L 1260.039044 576.757804 " transform="matrix(0.2, 0, 0, -0.2, 0, 392)"/>
<path fill="none" stroke-width="7.9701" stroke-linecap="butt" stroke-linejoin="miter" stroke="rgb(0%, 0%, 0%)" stroke-opacity="1" stroke-miterlimit="10" d="M 1260.039044 633.437491 L 1260.039044 661.796865 " transform="matrix(0.2, 0, 0, -0.2, 0, 392)"/>
<path fill="none" stroke-width="7.9701" stroke-linecap="butt" stroke-linejoin="miter" stroke="rgb(0%, 0%, 0%)" stroke-opacity="1" stroke-miterlimit="10" d="M 1260.039044 661.796865 L 1260.039044 690.15624 " transform="matrix(0.2, 0, 0, -0.2, 0, 392)"/>
<path fill="none" stroke-width="7.9701" stroke-linecap="butt" stroke-linejoin="miter" stroke="rgb(0%, 0%, 0%)" stroke-opacity="1" stroke-miterlimit="10" d="M 1260.039044 746.835926 L 1260.039044 775.195301 " transform="matrix(0.2, 0, 0, -0.2, 0, 392)"/>
<path fill="none" stroke-width="7.9701" stroke-linecap="butt" stroke-linejoin="miter" stroke="rgb(0%, 0%, 0%)" stroke-opacity="1" stroke-miterlimit="10" d="M 1260.039044 775.195301 L 1260.039044 803.554676 " transform="matrix(0.2, 0, 0, -0.2, 0, 392)"/>
<path fill="none" stroke-width="7.9701" stroke-linecap="butt" stroke-linejoin="miter" stroke="rgb(0%, 0%, 0%)" stroke-opacity="1" stroke-miterlimit="10" d="M 1260.039044 860.273425 L 1260.039044 888.593737 " transform="matrix(0.2, 0, 0, -0.2, 0, 392)"/>
<path fill="none" stroke-width="7.9701" stroke-linecap="butt" stroke-linejoin="miter" stroke="rgb(0%, 0%, 0%)" stroke-opacity="1" stroke-miterlimit="10" d="M 1260.039044 888.593737 L 1260.039044 916.953111 " transform="matrix(0.2, 0, 0, -0.2, 0, 392)"/>
<path fill="none" stroke-width="7.9701" stroke-linecap="butt" stroke-linejoin="miter" stroke="rgb(0%, 0%, 0%)" stroke-opacity="1" stroke-miterlimit="10" d="M 1260.039044 973.67186 L 1260.039044 1002.031235 " transform="matrix(0.2, 0, 0, -0.2, 0, 392)"/>
<path fill="none" stroke-width="7.9701" stroke-linecap="butt" stroke-linejoin="miter" stroke="rgb(0%, 0%, 0%)" stroke-opacity="1" stroke-miterlimit="10" d="M 1260.039044 1002.031235 L 1260.039044 1030.351547 " transform="matrix(0.2, 0, 0, -0.2, 0, 392)"/>
<path fill="none" stroke-width="7.9701" stroke-linecap="butt" stroke-linejoin="miter" stroke="rgb(0%, 0%, 0%)" stroke-opacity="1" stroke-miterlimit="10" d="M 1260.039044 1087.070296 L 1260.039044 1115.390608 " transform="matrix(0.2, 0, 0, -0.2, 0, 392)"/>
<path fill="none" stroke-width="7.9701" stroke-linecap="butt" stroke-linejoin="miter" stroke="rgb(0%, 0%, 0%)" stroke-opacity="1" stroke-miterlimit="10" d="M 1260.039044 1115.390608 L 1260.039044 1143.749983 " transform="matrix(0.2, 0, 0, -0.2, 0, 392)"/>
<path fill="none" stroke-width="7.9701" stroke-linecap="butt" stroke-linejoin="miter" stroke="rgb(0%, 0%, 0%)" stroke-opacity="1" stroke-miterlimit="10" d="M 1260.039044 1200.468732 L 1260.039044 1228.828107 " transform="matrix(0.2, 0, 0, -0.2, 0, 392)"/>
<path fill="none" stroke-width="7.9701" stroke-linecap="butt" stroke-linejoin="miter" stroke="rgb(0%, 0%, 0%)" stroke-opacity="1" stroke-miterlimit="10" d="M 1260.039044 1228.828107 L 1260.039044 1257.148419 " transform="matrix(0.2, 0, 0, -0.2, 0, 392)"/>
<path fill="none" stroke-width="7.9701" stroke-linecap="butt" stroke-linejoin="miter" stroke="rgb(0%, 0%, 0%)" stroke-opacity="1" stroke-miterlimit="10" d="M 1260.039044 1313.867168 L 1260.039044 1342.226542 " transform="matrix(0.2, 0, 0, -0.2, 0, 392)"/>
<path fill="none" stroke-width="7.9701" stroke-linecap="butt" stroke-linejoin="miter" stroke="rgb(0%, 0%, 0%)" stroke-opacity="1" stroke-miterlimit="10" d="M 1260.039044 1342.226542 L 1260.039044 1370.585917 " transform="matrix(0.2, 0, 0, -0.2, 0, 392)"/>
<path fill="none" stroke-width="7.9701" stroke-linecap="butt" stroke-linejoin="miter" stroke="rgb(0%, 0%, 0%)" stroke-opacity="1" stroke-miterlimit="10" d="M 1260.039044 1427.265604 L 1260.039044 1455.624978 " transform="matrix(0.2, 0, 0, -0.2, 0, 392)"/>
<path fill="none" stroke-width="7.9701" stroke-linecap="butt" stroke-linejoin="miter" stroke="rgb(0%, 0%, 0%)" stroke-opacity="1" stroke-miterlimit="10" d="M 1260.039044 1455.624978 L 1260.039044 1483.984353 " transform="matrix(0.2, 0, 0, -0.2, 0, 392)"/>
<path fill="none" stroke-width="7.9701" stroke-linecap="butt" stroke-linejoin="miter" stroke="rgb(0%, 0%, 0%)" stroke-opacity="1" stroke-miterlimit="10" d="M 1260.039044 1540.66404 L 1260.039044 1569.023414 " transform="matrix(0.2, 0, 0, -0.2, 0, 392)"/>
<path fill="none" stroke-width="11.9553" stroke-linecap="butt" stroke-linejoin="miter" stroke="rgb(0%, 0%, 0%)" stroke-opacity="1" stroke-miterlimit="10" d="M 1105.703109 1471.835916 L 1260.039044 1471.835916 " transform="matrix(0.2, 0, 0, -0.2, 0, 392)"/>
<path fill="none" stroke-width="11.9553" stroke-linecap="butt" stroke-linejoin="miter" stroke="rgb(0%, 0%, 0%)" stroke-opacity="1" stroke-miterlimit="10" d="M 1260.039044 1569.023414 L 1260.039044 1471.835916 " transform="matrix(0.2, 0, 0, -0.2, 0, 392)"/>
<path fill="none" stroke-width="7.9701" stroke-linecap="butt" stroke-linejoin="miter" stroke="rgb(0%, 0%, 0%)" stroke-opacity="1" stroke-miterlimit="10" d="M 1414.296854 321.601558 L 1414.296854 349.60937 " transform="matrix(0.2, 0, 0, -0.2, 0, 392)"/>
<path fill="none" stroke-width="7.9701" stroke-linecap="butt" stroke-linejoin="miter" stroke="rgb(0%, 0%, 0%)" stroke-opacity="1" stroke-miterlimit="10" d="M 1414.296854 405.624994 L 1414.296854 433.632806 " transform="matrix(0.2, 0, 0, -0.2, 0, 392)"/>
<path fill="none" stroke-width="7.9701" stroke-linecap="butt" stroke-linejoin="miter" stroke="rgb(0%, 0%, 0%)" stroke-opacity="1" stroke-miterlimit="10" d="M 1414.296854 433.632806 L 1414.296854 461.679681 " transform="matrix(0.2, 0, 0, -0.2, 0, 392)"/>
<path fill="none" stroke-width="7.9701" stroke-linecap="butt" stroke-linejoin="miter" stroke="rgb(0%, 0%, 0%)" stroke-opacity="1" stroke-miterlimit="10" d="M 1414.296854 517.695305 L 1414.296854 545.703117 " transform="matrix(0.2, 0, 0, -0.2, 0, 392)"/>
<path fill="none" stroke-width="7.9701" stroke-linecap="butt" stroke-linejoin="miter" stroke="rgb(0%, 0%, 0%)" stroke-opacity="1" stroke-miterlimit="10" d="M 1414.296854 545.703117 L 1414.296854 573.710929 " transform="matrix(0.2, 0, 0, -0.2, 0, 392)"/>
<path fill="none" stroke-width="7.9701" stroke-linecap="butt" stroke-linejoin="miter" stroke="rgb(0%, 0%, 0%)" stroke-opacity="1" stroke-miterlimit="10" d="M 1414.296854 629.726553 L 1414.296854 657.773428 " transform="matrix(0.2, 0, 0, -0.2, 0, 392)"/>
<path fill="none" stroke-width="7.9701" stroke-linecap="butt" stroke-linejoin="miter" stroke="rgb(0%, 0%, 0%)" stroke-opacity="1" stroke-miterlimit="10" d="M 1414.296854 657.773428 L 1414.296854 685.78124 " transform="matrix(0.2, 0, 0, -0.2, 0, 392)"/>
<path fill="none" stroke-width="7.9701" stroke-linecap="butt" stroke-linejoin="miter" stroke="rgb(0%, 0%, 0%)" stroke-opacity="1" stroke-miterlimit="10" d="M 1414.296854 741.796864 L 1414.296854 769.804676 " transform="matrix(0.2, 0, 0, -0.2, 0, 392)"/>
<path fill="none" stroke-width="7.9701" stroke-linecap="butt" stroke-linejoin="miter" stroke="rgb(0%, 0%, 0%)" stroke-opacity="1" stroke-miterlimit="10" d="M 1414.296854 769.804676 L 1414.296854 797.812488 " transform="matrix(0.2, 0, 0, -0.2, 0, 392)"/>
<path fill="none" stroke-width="7.9701" stroke-linecap="butt" stroke-linejoin="miter" stroke="rgb(0%, 0%, 0%)" stroke-opacity="1" stroke-miterlimit="10" d="M 1414.296854 853.828112 L 1414.296854 881.835924 " transform="matrix(0.2, 0, 0, -0.2, 0, 392)"/>
<path fill="none" stroke-width="7.9701" stroke-linecap="butt" stroke-linejoin="miter" stroke="rgb(0%, 0%, 0%)" stroke-opacity="1" stroke-miterlimit="10" d="M 1414.296854 881.835924 L 1414.296854 909.882799 " transform="matrix(0.2, 0, 0, -0.2, 0, 392)"/>
<path fill="none" stroke-width="7.9701" stroke-linecap="butt" stroke-linejoin="miter" stroke="rgb(0%, 0%, 0%)" stroke-opacity="1" stroke-miterlimit="10" d="M 1414.296854 965.898423 L 1414.296854 993.906235 " transform="matrix(0.2, 0, 0, -0.2, 0, 392)"/>
<path fill="none" stroke-width="7.9701" stroke-linecap="butt" stroke-linejoin="miter" stroke="rgb(0%, 0%, 0%)" stroke-opacity="1" stroke-miterlimit="10" d="M 1414.296854 993.906235 L 1414.296854 1021.914047 " transform="matrix(0.2, 0, 0, -0.2, 0, 392)"/>
<path fill="none" stroke-width="7.9701" stroke-linecap="butt" stroke-linejoin="miter" stroke="rgb(0%, 0%, 0%)" stroke-opacity="1" stroke-miterlimit="10" d="M 1414.296854 1077.968734 L 1414.296854 1105.976546 " transform="matrix(0.2, 0, 0, -0.2, 0, 392)"/>
<path fill="none" stroke-width="7.9701" stroke-linecap="butt" stroke-linejoin="miter" stroke="rgb(0%, 0%, 0%)" stroke-opacity="1" stroke-miterlimit="10" d="M 1414.296854 1105.976546 L 1414.296854 1133.984358 " transform="matrix(0.2, 0, 0, -0.2, 0, 392)"/>
<path fill="none" stroke-width="7.9701" stroke-linecap="butt" stroke-linejoin="miter" stroke="rgb(0%, 0%, 0%)" stroke-opacity="1" stroke-miterlimit="10" d="M 1414.296854 1189.999982 L 1414.296854 1218.007794 " transform="matrix(0.2, 0, 0, -0.2, 0, 392)"/>
<path fill="none" stroke-width="7.9701" stroke-linecap="butt" stroke-linejoin="miter" stroke="rgb(0%, 0%, 0%)" stroke-opacity="1" stroke-miterlimit="10" d="M 1414.296854 1218.007794 L 1414.296854 1246.015606 " transform="matrix(0.2, 0, 0, -0.2, 0, 392)"/>
<path fill="none" stroke-width="7.9701" stroke-linecap="butt" stroke-linejoin="miter" stroke="rgb(0%, 0%, 0%)" stroke-opacity="1" stroke-miterlimit="10" d="M 1414.296854 1302.031231 L 1414.296854 1330.078105 " transform="matrix(0.2, 0, 0, -0.2, 0, 392)"/>
<path fill="none" stroke-width="7.9701" stroke-linecap="butt" stroke-linejoin="miter" stroke="rgb(0%, 0%, 0%)" stroke-opacity="1" stroke-miterlimit="10" d="M 1414.296854 1330.078105 L 1414.296854 1358.085917 " transform="matrix(0.2, 0, 0, -0.2, 0, 392)"/>
<path fill="none" stroke-width="7.9701" stroke-linecap="butt" stroke-linejoin="miter" stroke="rgb(0%, 0%, 0%)" stroke-opacity="1" stroke-miterlimit="10" d="M 1414.296854 1414.101541 L 1414.296854 1442.109354 " transform="matrix(0.2, 0, 0, -0.2, 0, 392)"/>
<path fill="none" stroke-width="7.9701" stroke-linecap="butt" stroke-linejoin="miter" stroke="rgb(0%, 0%, 0%)" stroke-opacity="1" stroke-miterlimit="10" d="M 1414.296854 1442.109354 L 1414.296854 1470.117166 " transform="matrix(0.2, 0, 0, -0.2, 0, 392)"/>
<path fill="none" stroke-width="7.9701" stroke-linecap="butt" stroke-linejoin="miter" stroke="rgb(0%, 0%, 0%)" stroke-opacity="1" stroke-miterlimit="10" d="M 1414.296854 1526.171852 L 1414.296854 1554.179664 " transform="matrix(0.2, 0, 0, -0.2, 0, 392)"/>
<path fill="none" stroke-width="7.9701" stroke-linecap="butt" stroke-linejoin="miter" stroke="rgb(0%, 0%, 0%)" stroke-opacity="1" stroke-miterlimit="10" d="M 1414.296854 1554.179664 L 1414.296854 1582.187476 " transform="matrix(0.2, 0, 0, -0.2, 0, 392)"/>
<path fill="none" stroke-width="7.9701" stroke-linecap="butt" stroke-linejoin="miter" stroke="rgb(0%, 0%, 0%)" stroke-opacity="1" stroke-miterlimit="10" d="M 1414.296854 1638.203101 L 1414.296854 1666.210913 " transform="matrix(0.2, 0, 0, -0.2, 0, 392)"/>
<path fill="none" stroke-width="11.9553" stroke-linecap="butt" stroke-linejoin="miter" stroke="rgb(0%, 0%, 0%)" stroke-opacity="1" stroke-miterlimit="10" d="M 1260.039044 1569.023414 L 1414.296854 1569.023414 " transform="matrix(0.2, 0, 0, -0.2, 0, 392)"/>
<path fill="none" stroke-width="11.9553" stroke-linecap="butt" stroke-linejoin="miter" stroke="rgb(0%, 0%, 0%)" stroke-opacity="1" stroke-miterlimit="10" d="M 1414.296854 1666.210913 L 1414.296854 1569.023414 " transform="matrix(0.2, 0, 0, -0.2, 0, 392)"/>
<path fill="none" stroke-width="7.9701" stroke-linecap="butt" stroke-linejoin="miter" stroke="rgb(0%, 0%, 0%)" stroke-opacity="1" stroke-miterlimit="10" d="M 1568.593727 321.601558 L 1568.593727 349.335932 " transform="matrix(0.2, 0, 0, -0.2, 0, 392)"/>
<path fill="none" stroke-width="7.9701" stroke-linecap="butt" stroke-linejoin="miter" stroke="rgb(0%, 0%, 0%)" stroke-opacity="1" stroke-miterlimit="10" d="M 1568.593727 404.765619 L 1568.593727 432.499994 " transform="matrix(0.2, 0, 0, -0.2, 0, 392)"/>
<path fill="none" stroke-width="7.9701" stroke-linecap="butt" stroke-linejoin="miter" stroke="rgb(0%, 0%, 0%)" stroke-opacity="1" stroke-miterlimit="10" d="M 1568.593727 432.499994 L 1568.593727 460.234368 " transform="matrix(0.2, 0, 0, -0.2, 0, 392)"/>
<path fill="none" stroke-width="7.9701" stroke-linecap="butt" stroke-linejoin="miter" stroke="rgb(0%, 0%, 0%)" stroke-opacity="1" stroke-miterlimit="10" d="M 1568.593727 515.703117 L 1568.593727 543.437492 " transform="matrix(0.2, 0, 0, -0.2, 0, 392)"/>
<path fill="none" stroke-width="7.9701" stroke-linecap="butt" stroke-linejoin="miter" stroke="rgb(0%, 0%, 0%)" stroke-opacity="1" stroke-miterlimit="10" d="M 1568.593727 543.437492 L 1568.593727 571.132804 " transform="matrix(0.2, 0, 0, -0.2, 0, 392)"/>
<path fill="none" stroke-width="7.9701" stroke-linecap="butt" stroke-linejoin="miter" stroke="rgb(0%, 0%, 0%)" stroke-opacity="1" stroke-miterlimit="10" d="M 1568.593727 626.601553 L 1568.593727 654.335928 " transform="matrix(0.2, 0, 0, -0.2, 0, 392)"/>
<path fill="none" stroke-width="7.9701" stroke-linecap="butt" stroke-linejoin="miter" stroke="rgb(0%, 0%, 0%)" stroke-opacity="1" stroke-miterlimit="10" d="M 1568.593727 654.335928 L 1568.593727 682.070302 " transform="matrix(0.2, 0, 0, -0.2, 0, 392)"/>
<path fill="none" stroke-width="7.9701" stroke-linecap="butt" stroke-linejoin="miter" stroke="rgb(0%, 0%, 0%)" stroke-opacity="1" stroke-miterlimit="10" d="M 1568.593727 737.499989 L 1568.593727 765.234364 " transform="matrix(0.2, 0, 0, -0.2, 0, 392)"/>
<path fill="none" stroke-width="7.9701" stroke-linecap="butt" stroke-linejoin="miter" stroke="rgb(0%, 0%, 0%)" stroke-opacity="1" stroke-miterlimit="10" d="M 1568.593727 765.234364 L 1568.593727 792.968738 " transform="matrix(0.2, 0, 0, -0.2, 0, 392)"/>
<path fill="none" stroke-width="7.9701" stroke-linecap="butt" stroke-linejoin="miter" stroke="rgb(0%, 0%, 0%)" stroke-opacity="1" stroke-miterlimit="10" d="M 1568.593727 848.437487 L 1568.593727 876.132799 " transform="matrix(0.2, 0, 0, -0.2, 0, 392)"/>
<path fill="none" stroke-width="7.9701" stroke-linecap="butt" stroke-linejoin="miter" stroke="rgb(0%, 0%, 0%)" stroke-opacity="1" stroke-miterlimit="10" d="M 1568.593727 876.132799 L 1568.593727 903.867174 " transform="matrix(0.2, 0, 0, -0.2, 0, 392)"/>
<path fill="none" stroke-width="7.9701" stroke-linecap="butt" stroke-linejoin="miter" stroke="rgb(0%, 0%, 0%)" stroke-opacity="1" stroke-miterlimit="10" d="M 1568.593727 959.335923 L 1568.593727 987.070298 " transform="matrix(0.2, 0, 0, -0.2, 0, 392)"/>
<path fill="none" stroke-width="7.9701" stroke-linecap="butt" stroke-linejoin="miter" stroke="rgb(0%, 0%, 0%)" stroke-opacity="1" stroke-miterlimit="10" d="M 1568.593727 987.070298 L 1568.593727 1014.76561 " transform="matrix(0.2, 0, 0, -0.2, 0, 392)"/>
<path fill="none" stroke-width="7.9701" stroke-linecap="butt" stroke-linejoin="miter" stroke="rgb(0%, 0%, 0%)" stroke-opacity="1" stroke-miterlimit="10" d="M 1568.593727 1070.234359 L 1568.593727 1097.968734 " transform="matrix(0.2, 0, 0, -0.2, 0, 392)"/>
<path fill="none" stroke-width="7.9701" stroke-linecap="butt" stroke-linejoin="miter" stroke="rgb(0%, 0%, 0%)" stroke-opacity="1" stroke-miterlimit="10" d="M 1568.593727 1097.968734 L 1568.593727 1125.703108 " transform="matrix(0.2, 0, 0, -0.2, 0, 392)"/>
<path fill="none" stroke-width="7.9701" stroke-linecap="butt" stroke-linejoin="miter" stroke="rgb(0%, 0%, 0%)" stroke-opacity="1" stroke-miterlimit="10" d="M 1568.593727 1181.132795 L 1568.593727 1208.867169 " transform="matrix(0.2, 0, 0, -0.2, 0, 392)"/>
<path fill="none" stroke-width="7.9701" stroke-linecap="butt" stroke-linejoin="miter" stroke="rgb(0%, 0%, 0%)" stroke-opacity="1" stroke-miterlimit="10" d="M 1568.593727 1208.867169 L 1568.593727 1236.601544 " transform="matrix(0.2, 0, 0, -0.2, 0, 392)"/>
<path fill="none" stroke-width="7.9701" stroke-linecap="butt" stroke-linejoin="miter" stroke="rgb(0%, 0%, 0%)" stroke-opacity="1" stroke-miterlimit="10" d="M 1568.593727 1292.070293 L 1568.593727 1319.804668 " transform="matrix(0.2, 0, 0, -0.2, 0, 392)"/>
<path fill="none" stroke-width="7.9701" stroke-linecap="butt" stroke-linejoin="miter" stroke="rgb(0%, 0%, 0%)" stroke-opacity="1" stroke-miterlimit="10" d="M 1568.593727 1319.804668 L 1568.593727 1347.539042 " transform="matrix(0.2, 0, 0, -0.2, 0, 392)"/>
<path fill="none" stroke-width="7.9701" stroke-linecap="butt" stroke-linejoin="miter" stroke="rgb(0%, 0%, 0%)" stroke-opacity="1" stroke-miterlimit="10" d="M 1568.593727 1402.968729 L 1568.593727 1430.664041 " transform="matrix(0.2, 0, 0, -0.2, 0, 392)"/>
<path fill="none" stroke-width="7.9701" stroke-linecap="butt" stroke-linejoin="miter" stroke="rgb(0%, 0%, 0%)" stroke-opacity="1" stroke-miterlimit="10" d="M 1568.593727 1430.664041 L 1568.593727 1458.398416 " transform="matrix(0.2, 0, 0, -0.2, 0, 392)"/>
<path fill="none" stroke-width="7.9701" stroke-linecap="butt" stroke-linejoin="miter" stroke="rgb(0%, 0%, 0%)" stroke-opacity="1" stroke-miterlimit="10" d="M 1568.593727 1513.867165 L 1568.593727 1541.60154 " transform="matrix(0.2, 0, 0, -0.2, 0, 392)"/>
<path fill="none" stroke-width="7.9701" stroke-linecap="butt" stroke-linejoin="miter" stroke="rgb(0%, 0%, 0%)" stroke-opacity="1" stroke-miterlimit="10" d="M 1568.593727 1541.60154 L 1568.593727 1569.335914 " transform="matrix(0.2, 0, 0, -0.2, 0, 392)"/>
<path fill="none" stroke-width="7.9701" stroke-linecap="butt" stroke-linejoin="miter" stroke="rgb(0%, 0%, 0%)" stroke-opacity="1" stroke-miterlimit="10" d="M 1568.593727 1624.765601 L 1568.593727 1652.499975 " transform="matrix(0.2, 0, 0, -0.2, 0, 392)"/>
<path fill="none" stroke-width="7.9701" stroke-linecap="butt" stroke-linejoin="miter" stroke="rgb(0%, 0%, 0%)" stroke-opacity="1" stroke-miterlimit="10" d="M 1568.593727 1652.499975 L 1568.593727 1680.23435 " transform="matrix(0.2, 0, 0, -0.2, 0, 392)"/>
<path fill="none" stroke-width="7.9701" stroke-linecap="butt" stroke-linejoin="miter" stroke="rgb(0%, 0%, 0%)" stroke-opacity="1" stroke-miterlimit="10" d="M 1568.593727 1735.703099 L 1568.593727 1763.437474 " transform="matrix(0.2, 0, 0, -0.2, 0, 392)"/>
<path fill="none" stroke-width="11.9553" stroke-linecap="butt" stroke-linejoin="miter" stroke="rgb(0%, 0%, 0%)" stroke-opacity="1" stroke-miterlimit="10" d="M 1414.296854 1666.210913 L 1568.593727 1666.210913 " transform="matrix(0.2, 0, 0, -0.2, 0, 392)"/>
<path fill="none" stroke-width="11.9553" stroke-linecap="butt" stroke-linejoin="miter" stroke="rgb(0%, 0%, 0%)" stroke-opacity="1" stroke-miterlimit="10" d="M 1568.593727 1763.437474 L 1568.593727 1666.210913 " transform="matrix(0.2, 0, 0, -0.2, 0, 392)"/>
<path fill="none" stroke-width="7.9701" stroke-linecap="butt" stroke-linejoin="miter" stroke="rgb(0%, 0%, 0%)" stroke-opacity="1" stroke-miterlimit="10" d="M 1722.890599 321.601558 L 1722.890599 351.210932 " transform="matrix(0.2, 0, 0, -0.2, 0, 392)"/>
<path fill="none" stroke-width="7.9701" stroke-linecap="butt" stroke-linejoin="miter" stroke="rgb(0%, 0%, 0%)" stroke-opacity="1" stroke-miterlimit="10" d="M 1722.890599 410.390619 L 1722.890599 439.999993 " transform="matrix(0.2, 0, 0, -0.2, 0, 392)"/>
<path fill="none" stroke-width="7.9701" stroke-linecap="butt" stroke-linejoin="miter" stroke="rgb(0%, 0%, 0%)" stroke-opacity="1" stroke-miterlimit="10" d="M 1722.890599 439.999993 L 1722.890599 469.570306 " transform="matrix(0.2, 0, 0, -0.2, 0, 392)"/>
<path fill="none" stroke-width="7.9701" stroke-linecap="butt" stroke-linejoin="miter" stroke="rgb(0%, 0%, 0%)" stroke-opacity="1" stroke-miterlimit="10" d="M 1722.890599 528.789055 L 1722.890599 558.359367 " transform="matrix(0.2, 0, 0, -0.2, 0, 392)"/>
<path fill="none" stroke-width="7.9701" stroke-linecap="butt" stroke-linejoin="miter" stroke="rgb(0%, 0%, 0%)" stroke-opacity="1" stroke-miterlimit="10" d="M 1722.890599 558.359367 L 1722.890599 587.968741 " transform="matrix(0.2, 0, 0, -0.2, 0, 392)"/>
<path fill="none" stroke-width="7.9701" stroke-linecap="butt" stroke-linejoin="miter" stroke="rgb(0%, 0%, 0%)" stroke-opacity="1" stroke-miterlimit="10" d="M 1722.890599 647.148428 L 1722.890599 676.757802 " transform="matrix(0.2, 0, 0, -0.2, 0, 392)"/>
<path fill="none" stroke-width="7.9701" stroke-linecap="butt" stroke-linejoin="miter" stroke="rgb(0%, 0%, 0%)" stroke-opacity="1" stroke-miterlimit="10" d="M 1722.890599 676.757802 L 1722.890599 706.367177 " transform="matrix(0.2, 0, 0, -0.2, 0, 392)"/>
<path fill="none" stroke-width="7.9701" stroke-linecap="butt" stroke-linejoin="miter" stroke="rgb(0%, 0%, 0%)" stroke-opacity="1" stroke-miterlimit="10" d="M 1722.890599 765.546864 L 1722.890599 795.156238 " transform="matrix(0.2, 0, 0, -0.2, 0, 392)"/>
<path fill="none" stroke-width="7.9701" stroke-linecap="butt" stroke-linejoin="miter" stroke="rgb(0%, 0%, 0%)" stroke-opacity="1" stroke-miterlimit="10" d="M 1722.890599 795.156238 L 1722.890599 824.72655 " transform="matrix(0.2, 0, 0, -0.2, 0, 392)"/>
<path fill="none" stroke-width="7.9701" stroke-linecap="butt" stroke-linejoin="miter" stroke="rgb(0%, 0%, 0%)" stroke-opacity="1" stroke-miterlimit="10" d="M 1722.890599 883.945299 L 1722.890599 913.515611 " transform="matrix(0.2, 0, 0, -0.2, 0, 392)"/>
<path fill="none" stroke-width="7.9701" stroke-linecap="butt" stroke-linejoin="miter" stroke="rgb(0%, 0%, 0%)" stroke-opacity="1" stroke-miterlimit="10" d="M 1722.890599 913.515611 L 1722.890599 943.124986 " transform="matrix(0.2, 0, 0, -0.2, 0, 392)"/>
<path fill="none" stroke-width="7.9701" stroke-linecap="butt" stroke-linejoin="miter" stroke="rgb(0%, 0%, 0%)" stroke-opacity="1" stroke-miterlimit="10" d="M 1722.890599 1002.304673 L 1722.890599 1031.914047 " transform="matrix(0.2, 0, 0, -0.2, 0, 392)"/>
<path fill="none" stroke-width="7.9701" stroke-linecap="butt" stroke-linejoin="miter" stroke="rgb(0%, 0%, 0%)" stroke-opacity="1" stroke-miterlimit="10" d="M 1722.890599 1031.914047 L 1722.890599 1061.484359 " transform="matrix(0.2, 0, 0, -0.2, 0, 392)"/>
<path fill="none" stroke-width="7.9701" stroke-linecap="butt" stroke-linejoin="miter" stroke="rgb(0%, 0%, 0%)" stroke-opacity="1" stroke-miterlimit="10" d="M 1722.890599 1120.703108 L 1722.890599 1150.312483 " transform="matrix(0.2, 0, 0, -0.2, 0, 392)"/>
<path fill="none" stroke-width="7.9701" stroke-linecap="butt" stroke-linejoin="miter" stroke="rgb(0%, 0%, 0%)" stroke-opacity="1" stroke-miterlimit="10" d="M 1722.890599 1150.312483 L 1722.890599 1179.882795 " transform="matrix(0.2, 0, 0, -0.2, 0, 392)"/>
<path fill="none" stroke-width="7.9701" stroke-linecap="butt" stroke-linejoin="miter" stroke="rgb(0%, 0%, 0%)" stroke-opacity="1" stroke-miterlimit="10" d="M 1722.890599 1239.101544 L 1722.890599 1268.671856 " transform="matrix(0.2, 0, 0, -0.2, 0, 392)"/>
<path fill="none" stroke-width="7.9701" stroke-linecap="butt" stroke-linejoin="miter" stroke="rgb(0%, 0%, 0%)" stroke-opacity="1" stroke-miterlimit="10" d="M 1722.890599 1268.671856 L 1722.890599 1298.281231 " transform="matrix(0.2, 0, 0, -0.2, 0, 392)"/>
<path fill="none" stroke-width="7.9701" stroke-linecap="butt" stroke-linejoin="miter" stroke="rgb(0%, 0%, 0%)" stroke-opacity="1" stroke-miterlimit="10" d="M 1722.890599 1357.460917 L 1722.890599 1387.070292 " transform="matrix(0.2, 0, 0, -0.2, 0, 392)"/>
<path fill="none" stroke-width="7.9701" stroke-linecap="butt" stroke-linejoin="miter" stroke="rgb(0%, 0%, 0%)" stroke-opacity="1" stroke-miterlimit="10" d="M 1722.890599 1387.070292 L 1722.890599 1416.640604 " transform="matrix(0.2, 0, 0, -0.2, 0, 392)"/>
<path fill="none" stroke-width="7.9701" stroke-linecap="butt" stroke-linejoin="miter" stroke="rgb(0%, 0%, 0%)" stroke-opacity="1" stroke-miterlimit="10" d="M 1722.890599 1475.859353 L 1722.890599 1505.468728 " transform="matrix(0.2, 0, 0, -0.2, 0, 392)"/>
<path fill="none" stroke-width="7.9701" stroke-linecap="butt" stroke-linejoin="miter" stroke="rgb(0%, 0%, 0%)" stroke-opacity="1" stroke-miterlimit="10" d="M 1722.890599 1505.468728 L 1722.890599 1535.03904 " transform="matrix(0.2, 0, 0, -0.2, 0, 392)"/>
<path fill="none" stroke-width="7.9701" stroke-linecap="butt" stroke-linejoin="miter" stroke="rgb(0%, 0%, 0%)" stroke-opacity="1" stroke-miterlimit="10" d="M 1722.890599 1594.257789 L 1722.890599 1623.867163 " transform="matrix(0.2, 0, 0, -0.2, 0, 392)"/>
<path fill="none" stroke-width="7.9701" stroke-linecap="butt" stroke-linejoin="miter" stroke="rgb(0%, 0%, 0%)" stroke-opacity="1" stroke-miterlimit="10" d="M 1722.890599 1623.867163 L 1722.890599 1653.437475 " transform="matrix(0.2, 0, 0, -0.2, 0, 392)"/>
<path fill="none" stroke-width="7.9701" stroke-linecap="butt" stroke-linejoin="miter" stroke="rgb(0%, 0%, 0%)" stroke-opacity="1" stroke-miterlimit="10" d="M 1722.890599 1712.656224 L 1722.890599 1742.226537 " transform="matrix(0.2, 0, 0, -0.2, 0, 392)"/>
<path fill="none" stroke-width="7.9701" stroke-linecap="butt" stroke-linejoin="miter" stroke="rgb(0%, 0%, 0%)" stroke-opacity="1" stroke-miterlimit="10" d="M 1722.890599 1742.226537 L 1722.890599 1771.835911 " transform="matrix(0.2, 0, 0, -0.2, 0, 392)"/>
<path fill="none" stroke-width="7.9701" stroke-linecap="butt" stroke-linejoin="miter" stroke="rgb(0%, 0%, 0%)" stroke-opacity="1" stroke-miterlimit="10" d="M 1722.890599 1831.015598 L 1722.890599 1860.624972 " transform="matrix(0.2, 0, 0, -0.2, 0, 392)"/>
<path fill="none" stroke-width="11.9553" stroke-linecap="butt" stroke-linejoin="miter" stroke="rgb(0%, 0%, 0%)" stroke-opacity="1" stroke-miterlimit="10" d="M 1568.593727 1763.437474 L 1722.890599 1763.437474 " transform="matrix(0.2, 0, 0, -0.2, 0, 392)"/>
<path fill="none" stroke-width="11.9553" stroke-linecap="butt" stroke-linejoin="miter" stroke="rgb(0%, 0%, 0%)" stroke-opacity="1" stroke-miterlimit="10" d="M 1722.890599 1860.624972 L 1722.890599 1763.437474 " transform="matrix(0.2, 0, 0, -0.2, 0, 392)"/>
<path fill="none" stroke-width="7.9701" stroke-linecap="butt" stroke-linejoin="miter" stroke="rgb(0%, 0%, 0%)" stroke-opacity="1" stroke-miterlimit="10" d="M 179.999997 888.593737 L 208.281247 888.593737 " transform="matrix(0.2, 0, 0, -0.2, 0, 392)"/>
<path fill="none" stroke-width="7.9701" stroke-linecap="butt" stroke-linejoin="miter" stroke="rgb(0%, 0%, 0%)" stroke-opacity="1" stroke-miterlimit="10" d="M 264.843746 888.593737 L 293.164058 888.593737 " transform="matrix(0.2, 0, 0, -0.2, 0, 392)"/>
<path fill="none" stroke-width="7.9701" stroke-linecap="butt" stroke-linejoin="miter" stroke="rgb(0%, 0%, 0%)" stroke-opacity="1" stroke-miterlimit="10" d="M 293.164058 888.593737 L 321.445308 888.593737 " transform="matrix(0.2, 0, 0, -0.2, 0, 392)"/>
<path fill="none" stroke-width="7.9701" stroke-linecap="butt" stroke-linejoin="miter" stroke="rgb(0%, 0%, 0%)" stroke-opacity="1" stroke-miterlimit="10" d="M 378.007807 888.593737 L 406.289056 888.593737 " transform="matrix(0.2, 0, 0, -0.2, 0, 392)"/>
<path fill="none" stroke-width="7.9701" stroke-linecap="butt" stroke-linejoin="miter" stroke="rgb(0%, 0%, 0%)" stroke-opacity="1" stroke-miterlimit="10" d="M 406.289056 888.593737 L 434.570306 888.593737 " transform="matrix(0.2, 0, 0, -0.2, 0, 392)"/>
<path fill="none" stroke-width="7.9701" stroke-linecap="butt" stroke-linejoin="miter" stroke="rgb(0%, 0%, 0%)" stroke-opacity="1" stroke-miterlimit="10" d="M 491.132805 888.593737 L 519.453117 888.593737 " transform="matrix(0.2, 0, 0, -0.2, 0, 392)"/>
<path fill="none" stroke-width="7.9701" stroke-linecap="butt" stroke-linejoin="miter" stroke="rgb(0%, 0%, 0%)" stroke-opacity="1" stroke-miterlimit="10" d="M 519.453117 888.593737 L 547.734367 888.593737 " transform="matrix(0.2, 0, 0, -0.2, 0, 392)"/>
<path fill="none" stroke-width="7.9701" stroke-linecap="butt" stroke-linejoin="miter" stroke="rgb(0%, 0%, 0%)" stroke-opacity="1" stroke-miterlimit="10" d="M 604.296866 888.593737 L 632.578116 888.593737 " transform="matrix(0.2, 0, 0, -0.2, 0, 392)"/>
<path fill="none" stroke-width="7.9701" stroke-linecap="butt" stroke-linejoin="miter" stroke="rgb(0%, 0%, 0%)" stroke-opacity="1" stroke-miterlimit="10" d="M 632.578116 888.593737 L 660.859365 888.593737 " transform="matrix(0.2, 0, 0, -0.2, 0, 392)"/>
<path fill="none" stroke-width="7.9701" stroke-linecap="butt" stroke-linejoin="miter" stroke="rgb(0%, 0%, 0%)" stroke-opacity="1" stroke-miterlimit="10" d="M 717.421864 888.593737 L 745.742176 888.593737 " transform="matrix(0.2, 0, 0, -0.2, 0, 392)"/>
<path fill="none" stroke-width="7.9701" stroke-linecap="butt" stroke-linejoin="miter" stroke="rgb(0%, 0%, 0%)" stroke-opacity="1" stroke-miterlimit="10" d="M 745.742176 888.593737 L 774.023426 888.593737 " transform="matrix(0.2, 0, 0, -0.2, 0, 392)"/>
<path fill="none" stroke-width="7.9701" stroke-linecap="butt" stroke-linejoin="miter" stroke="rgb(0%, 0%, 0%)" stroke-opacity="1" stroke-miterlimit="10" d="M 830.585925 888.593737 L 858.867175 888.593737 " transform="matrix(0.2, 0, 0, -0.2, 0, 392)"/>
<path fill="none" stroke-width="7.9701" stroke-linecap="butt" stroke-linejoin="miter" stroke="rgb(0%, 0%, 0%)" stroke-opacity="1" stroke-miterlimit="10" d="M 858.867175 888.593737 L 887.148424 888.593737 " transform="matrix(0.2, 0, 0, -0.2, 0, 392)"/>
<path fill="none" stroke-width="7.9701" stroke-linecap="butt" stroke-linejoin="miter" stroke="rgb(0%, 0%, 0%)" stroke-opacity="1" stroke-miterlimit="10" d="M 943.710923 888.593737 L 972.031236 888.593737 " transform="matrix(0.2, 0, 0, -0.2, 0, 392)"/>
<path fill="none" stroke-width="7.9701" stroke-linecap="butt" stroke-linejoin="miter" stroke="rgb(0%, 0%, 0%)" stroke-opacity="1" stroke-miterlimit="10" d="M 972.031236 888.593737 L 1000.312485 888.593737 " transform="matrix(0.2, 0, 0, -0.2, 0, 392)"/>
<path fill="none" stroke-width="7.9701" stroke-linecap="butt" stroke-linejoin="miter" stroke="rgb(0%, 0%, 0%)" stroke-opacity="1" stroke-miterlimit="10" d="M 1056.874984 888.593737 L 1085.156234 888.593737 " transform="matrix(0.2, 0, 0, -0.2, 0, 392)"/>
<path fill="none" stroke-width="7.9701" stroke-linecap="butt" stroke-linejoin="miter" stroke="rgb(0%, 0%, 0%)" stroke-opacity="1" stroke-miterlimit="10" d="M 1085.156234 888.593737 L 1113.437483 888.593737 " transform="matrix(0.2, 0, 0, -0.2, 0, 392)"/>
<path fill="none" stroke-width="7.9701" stroke-linecap="butt" stroke-linejoin="miter" stroke="rgb(0%, 0%, 0%)" stroke-opacity="1" stroke-miterlimit="10" d="M 1169.999983 888.593737 L 1198.281232 888.593737 " transform="matrix(0.2, 0, 0, -0.2, 0, 392)"/>
<path fill="none" stroke-width="7.9701" stroke-linecap="butt" stroke-linejoin="miter" stroke="rgb(0%, 0%, 0%)" stroke-opacity="1" stroke-miterlimit="10" d="M 1198.281232 888.593737 L 1226.562482 888.593737 " transform="matrix(0.2, 0, 0, -0.2, 0, 392)"/>
<path fill="none" stroke-width="7.9701" stroke-linecap="butt" stroke-linejoin="miter" stroke="rgb(0%, 0%, 0%)" stroke-opacity="1" stroke-miterlimit="10" d="M 1283.164043 888.593737 L 1311.445293 888.593737 " transform="matrix(0.2, 0, 0, -0.2, 0, 392)"/>
<path fill="none" stroke-width="7.9701" stroke-linecap="butt" stroke-linejoin="miter" stroke="rgb(0%, 0%, 0%)" stroke-opacity="1" stroke-miterlimit="10" d="M 1311.445293 888.593737 L 1339.726543 888.593737 " transform="matrix(0.2, 0, 0, -0.2, 0, 392)"/>
<path fill="none" stroke-width="7.9701" stroke-linecap="butt" stroke-linejoin="miter" stroke="rgb(0%, 0%, 0%)" stroke-opacity="1" stroke-miterlimit="10" d="M 1396.289042 888.593737 L 1424.609354 888.593737 " transform="matrix(0.2, 0, 0, -0.2, 0, 392)"/>
<path fill="none" stroke-width="7.9701" stroke-linecap="butt" stroke-linejoin="miter" stroke="rgb(0%, 0%, 0%)" stroke-opacity="1" stroke-miterlimit="10" d="M 1424.609354 888.593737 L 1452.851541 888.593737 " transform="matrix(0.2, 0, 0, -0.2, 0, 392)"/>
<path fill="none" stroke-width="7.9701" stroke-linecap="butt" stroke-linejoin="miter" stroke="rgb(0%, 0%, 0%)" stroke-opacity="1" stroke-miterlimit="10" d="M 1509.453103 888.593737 L 1537.734352 888.593737 " transform="matrix(0.2, 0, 0, -0.2, 0, 392)"/>
<path fill="none" stroke-width="7.9701" stroke-linecap="butt" stroke-linejoin="miter" stroke="rgb(0%, 0%, 0%)" stroke-opacity="1" stroke-miterlimit="10" d="M 1537.734352 888.593737 L 1566.015602 888.593737 " transform="matrix(0.2, 0, 0, -0.2, 0, 392)"/>
<path fill="none" stroke-width="7.9701" stroke-linecap="butt" stroke-linejoin="miter" stroke="rgb(0%, 0%, 0%)" stroke-opacity="1" stroke-miterlimit="10" d="M 1622.578101 888.593737 L 1650.898413 888.593737 " transform="matrix(0.2, 0, 0, -0.2, 0, 392)"/>
<path fill="none" stroke-width="7.9701" stroke-linecap="butt" stroke-linejoin="miter" stroke="rgb(0%, 0%, 0%)" stroke-opacity="1" stroke-miterlimit="10" d="M 1650.898413 888.593737 L 1679.1406 888.593737 " transform="matrix(0.2, 0, 0, -0.2, 0, 392)"/>
<path fill="none" stroke-width="7.9701" stroke-linecap="butt" stroke-linejoin="miter" stroke="rgb(0%, 0%, 0%)" stroke-opacity="1" stroke-miterlimit="10" d="M 1735.742162 888.593737 L 1764.023411 888.593737 " transform="matrix(0.2, 0, 0, -0.2, 0, 392)"/>
<path fill="none" stroke-width="7.9701" stroke-linecap="butt" stroke-linejoin="miter" stroke="rgb(0%, 0%, 0%)" stroke-opacity="1" stroke-miterlimit="10" d="M 1764.023411 888.593737 L 1792.304661 888.593737 " transform="matrix(0.2, 0, 0, -0.2, 0, 392)"/>
<path fill="none" stroke-width="7.9701" stroke-linecap="butt" stroke-linejoin="miter" stroke="rgb(0%, 0%, 0%)" stroke-opacity="1" stroke-miterlimit="10" d="M 1848.86716 888.593737 L 1877.187472 888.593737 " transform="matrix(0.2, 0, 0, -0.2, 0, 392)"/>
<path fill-rule="nonzero" fill="rgb(100%, 100%, 100%)" fill-opacity="1" d="M -5.703125 257.5625 L 15.65625 257.5625 L 15.65625 284.679688 L -5.703125 284.679688 Z M -5.703125 257.5625 "/>
<path fill-rule="nonzero" fill="rgb(0%, 0%, 0%)" fill-opacity="1" d="M 5.296875 263.753906 C 5.296875 263.753906 5.296875 263.535156 5.015625 263.535156 C 4.515625 263.535156 2.921875 263.691406 2.359375 263.753906 C 2.171875 263.753906 1.921875 263.785156 1.921875 264.191406 C 1.921875 264.441406 2.140625 264.441406 2.453125 264.441406 C 3.515625 264.441406 3.546875 264.597656 3.546875 264.816406 C 3.546875 264.972656 3.359375 265.691406 3.234375 266.160156 L 1.453125 273.285156 C 1.203125 274.347656 1.109375 274.722656 1.109375 275.472656 C 1.109375 277.535156 2.265625 278.910156 3.859375 278.910156 C 6.453125 278.910156 9.140625 275.660156 9.140625 272.503906 C 9.140625 270.535156 7.984375 269.003906 6.234375 269.003906 C 5.234375 269.003906 4.328125 269.660156 3.671875 270.316406 Z M 3.234375 272.003906 C 3.359375 271.535156 3.359375 271.472656 3.578125 271.253906 C 4.640625 269.816406 5.609375 269.503906 6.171875 269.503906 C 6.984375 269.503906 7.546875 270.160156 7.546875 271.535156 C 7.546875 272.847656 6.828125 275.347656 6.453125 276.160156 C 5.734375 277.628906 4.734375 278.410156 3.859375 278.410156 C 3.140625 278.410156 2.421875 277.816406 2.421875 276.222656 C 2.421875 275.816406 2.421875 275.378906 2.765625 274.003906 Z M 3.234375 272.003906 "/>
<path fill-rule="nonzero" fill="rgb(0%, 0%, 0%)" fill-opacity="1" d="M 32.109375 218.359375 L 31.632812 218.570312 L 31.171875 218.789062 L 30.726562 219.007812 L 30.304688 219.234375 L 29.890625 219.46875 L 29.5 219.710938 L 29.125 219.960938 L 28.765625 220.210938 L 28.414062 220.476562 L 28.085938 220.742188 L 27.773438 221.015625 L 27.46875 221.289062 L 27.179688 221.578125 L 26.90625 221.867188 L 26.648438 222.164062 L 26.398438 222.46875 L 26.164062 222.773438 L 25.945312 223.09375 L 25.734375 223.40625 L 25.539062 223.734375 L 25.351562 224.0625 L 25.179688 224.40625 L 25.015625 224.742188 L 24.859375 225.09375 L 24.710938 225.445312 L 24.585938 225.796875 L 24.460938 226.164062 L 24.34375 226.523438 L 24.242188 226.898438 L 24.148438 227.273438 L 23.976562 228.039062 L 23.914062 228.429688 L 23.84375 228.820312 L 23.789062 229.21875 L 23.695312 230.03125 L 23.632812 230.859375 L 23.585938 231.703125 L 23.578125 232.125 L 23.570312 232.5625 L 23.5625 232.992188 L 23.5625 233.875 L 23.570312 234.320312 L 23.585938 234.765625 L 23.59375 235.21875 L 23.609375 235.671875 L 23.632812 236.132812 L 23.648438 236.59375 L 23.671875 237.054688 L 23.71875 237.992188 L 23.742188 238.46875 L 23.765625 238.9375 L 23.796875 239.421875 L 23.820312 239.898438 L 23.890625 241.351562 L 23.914062 241.84375 L 23.945312 242.828125 L 23.976562 243.828125 L 23.992188 244.828125 L 23.992188 245.835938 L 23.976562 246.851562 L 23.960938 247.359375 L 23.9375 247.867188 L 23.914062 248.382812 L 23.882812 248.890625 L 23.804688 249.921875 L 23.695312 250.953125 L 23.632812 251.476562 L 23.5625 251.992188 L 23.476562 252.507812 L 23.390625 253.03125 L 23.289062 253.554688 L 23.1875 254.070312 L 23.070312 254.59375 L 22.945312 255.117188 L 22.8125 255.632812 L 22.664062 256.15625 L 22.507812 256.679688 L 22.34375 257.195312 L 22.164062 257.71875 L 21.976562 258.242188 L 21.773438 258.765625 L 21.5625 259.28125 L 21.335938 259.804688 L 21.101562 260.320312 L 20.851562 260.84375 L 20.59375 261.359375 L 20.3125 261.875 L 20.023438 262.390625 L 19.71875 262.914062 L 19.398438 263.421875 L 19.0625 263.9375 L 18.710938 264.453125 L 18.351562 264.960938 L 17.96875 265.46875 L 17.570312 265.984375 L 17.164062 266.492188 L 16.734375 266.992188 L 16.28125 267.5 L 15.820312 268 L 15.335938 268.5 L 14.835938 269 L 14.320312 269.5 L 13.789062 269.992188 L 13.234375 270.492188 L 12.65625 270.976562 L 13.234375 271.46875 L 13.789062 271.960938 L 14.320312 272.460938 L 14.835938 272.953125 L 15.335938 273.453125 L 15.820312 273.953125 L 16.28125 274.460938 L 16.734375 274.960938 L 17.164062 275.46875 L 17.570312 275.976562 L 17.96875 276.484375 L 18.351562 277 L 18.710938 277.507812 L 19.0625 278.023438 L 19.398438 278.539062 L 19.71875 279.046875 L 20.023438 279.5625 L 20.3125 280.078125 L 20.59375 280.601562 L 20.851562 281.117188 L 21.101562 281.632812 L 21.335938 282.15625 L 21.5625 282.671875 L 21.773438 283.195312 L 21.976562 283.71875 L 22.164062 284.234375 L 22.34375 284.757812 L 22.507812 285.28125 L 22.664062 285.804688 L 22.8125 286.320312 L 22.945312 286.84375 L 23.070312 287.367188 L 23.1875 287.890625 L 23.289062 288.40625 L 23.390625 288.929688 L 23.476562 289.445312 L 23.5625 289.96875 L 23.632812 290.484375 L 23.695312 291 L 23.75 291.523438 L 23.804688 292.039062 L 23.84375 292.546875 L 23.882812 293.0625 L 23.914062 293.578125 L 23.9375 294.085938 L 23.960938 294.601562 L 23.976562 295.109375 L 23.992188 296.125 L 23.992188 297.132812 L 23.976562 298.132812 L 23.960938 298.632812 L 23.914062 300.109375 L 23.867188 301.09375 L 23.820312 302.0625 L 23.796875 302.539062 L 23.765625 303.015625 L 23.742188 303.492188 L 23.71875 303.960938 L 23.695312 304.4375 L 23.671875 304.90625 L 23.648438 305.367188 L 23.632812 305.828125 L 23.609375 306.289062 L 23.59375 306.742188 L 23.585938 307.195312 L 23.570312 307.640625 L 23.5625 308.085938 L 23.5625 308.96875 L 23.585938 310.257812 L 23.632812 311.101562 L 23.695312 311.929688 L 23.742188 312.335938 L 23.789062 312.734375 L 23.84375 313.132812 L 23.914062 313.53125 L 23.976562 313.921875 L 24.148438 314.6875 L 24.242188 315.0625 L 24.34375 315.429688 L 24.460938 315.796875 L 24.710938 316.515625 L 24.859375 316.867188 L 25.015625 317.210938 L 25.179688 317.554688 L 25.351562 317.890625 L 25.539062 318.21875 L 25.734375 318.546875 L 25.945312 318.867188 L 26.164062 319.179688 L 26.398438 319.492188 L 26.648438 319.796875 L 26.90625 320.09375 L 27.179688 320.382812 L 27.46875 320.664062 L 27.773438 320.945312 L 28.085938 321.21875 L 28.414062 321.484375 L 28.765625 321.742188 L 29.125 322 L 29.5 322.25 L 29.890625 322.484375 L 30.304688 322.71875 L 30.726562 322.953125 L 31.171875 323.171875 L 31.632812 323.390625 L 32.109375 323.59375 L 31.4375 323.289062 L 30.796875 322.976562 L 30.171875 322.664062 L 29.578125 322.34375 L 29 322.023438 L 28.445312 321.695312 L 27.921875 321.367188 L 27.40625 321.03125 L 26.921875 320.695312 L 26.453125 320.359375 L 26.007812 320.015625 L 25.578125 319.671875 L 25.171875 319.328125 L 24.789062 318.976562 L 24.414062 318.617188 L 24.0625 318.265625 L 23.734375 317.90625 L 23.421875 317.539062 L 23.117188 317.171875 L 22.84375 316.804688 L 22.578125 316.429688 L 22.328125 316.0625 L 22.09375 315.679688 L 21.882812 315.304688 L 21.679688 314.914062 L 21.492188 314.53125 L 21.320312 314.140625 L 21.15625 313.75 L 21.015625 313.359375 L 20.882812 312.960938 L 20.765625 312.5625 L 20.65625 312.164062 L 20.5625 311.757812 L 20.476562 311.351562 L 20.40625 310.945312 L 20.34375 310.53125 L 20.289062 310.117188 L 20.25 309.703125 L 20.21875 309.28125 L 20.195312 308.867188 L 20.179688 308.445312 L 20.171875 308.015625 L 20.179688 307.59375 L 20.1875 307.164062 L 20.203125 306.734375 L 20.226562 306.296875 L 20.257812 305.859375 L 20.296875 305.429688 L 20.335938 304.984375 L 20.382812 304.546875 L 20.4375 304.101562 L 20.492188 303.664062 L 20.554688 303.21875 L 20.625 302.765625 L 20.6875 302.3125 L 20.765625 301.867188 L 20.835938 301.414062 L 20.914062 300.960938 L 20.992188 300.5 L 21.070312 300.046875 L 21.15625 299.585938 L 21.3125 298.664062 L 21.398438 298.195312 L 21.476562 297.734375 L 21.789062 295.859375 L 21.859375 295.390625 L 22 294.4375 L 22.0625 293.96875 L 22.171875 293.015625 L 22.226562 292.53125 L 22.265625 292.054688 L 22.3125 291.570312 L 22.34375 291.09375 L 22.390625 290.125 L 22.40625 289.648438 L 22.414062 289.15625 L 22.40625 288.679688 L 22.398438 288.1875 L 22.382812 287.703125 L 22.351562 287.210938 L 22.3125 286.726562 L 22.265625 286.242188 L 22.210938 285.75 L 22.140625 285.257812 L 22.0625 284.765625 L 21.96875 284.28125 L 21.867188 283.789062 L 21.757812 283.296875 L 21.492188 282.3125 L 21.335938 281.820312 L 21.171875 281.328125 L 20.984375 280.835938 L 20.789062 280.34375 L 20.585938 279.84375 L 20.359375 279.351562 L 20.117188 278.859375 L 19.859375 278.367188 L 19.585938 277.875 L 19.296875 277.382812 L 18.992188 276.882812 L 18.664062 276.390625 L 18.320312 275.898438 L 17.960938 275.40625 L 17.585938 274.914062 L 17.1875 274.421875 L 16.765625 273.929688 L 16.328125 273.4375 L 15.867188 272.945312 L 15.390625 272.453125 L 14.890625 271.960938 L 14.367188 271.46875 L 13.828125 270.976562 L 14.367188 270.492188 L 14.890625 270 L 15.390625 269.507812 L 15.867188 269.015625 L 16.328125 268.523438 L 16.765625 268.03125 L 17.1875 267.539062 L 17.585938 267.046875 L 17.960938 266.554688 L 18.320312 266.0625 L 18.664062 265.570312 L 18.992188 265.070312 L 19.296875 264.578125 L 19.585938 264.085938 L 19.859375 263.59375 L 20.117188 263.09375 L 20.359375 262.601562 L 20.585938 262.109375 L 20.789062 261.617188 L 20.984375 261.125 L 21.171875 260.632812 L 21.335938 260.140625 L 21.492188 259.648438 L 21.757812 258.664062 L 21.867188 258.171875 L 21.96875 257.679688 L 22.0625 257.1875 L 22.140625 256.695312 L 22.210938 256.210938 L 22.265625 255.71875 L 22.3125 255.234375 L 22.351562 254.742188 L 22.382812 254.257812 L 22.398438 253.773438 L 22.40625 253.28125 L 22.414062 252.796875 L 22.40625 252.3125 L 22.390625 251.828125 L 22.367188 251.351562 L 22.34375 250.867188 L 22.3125 250.382812 L 22.265625 249.90625 L 22.226562 249.421875 L 22.0625 247.992188 L 22 247.515625 L 21.929688 247.046875 L 21.859375 246.570312 L 21.789062 246.101562 L 21.398438 243.757812 L 21.3125 243.296875 L 21.15625 242.375 L 21.070312 241.914062 L 20.992188 241.453125 L 20.835938 240.546875 L 20.765625 240.09375 L 20.6875 239.640625 L 20.625 239.1875 L 20.554688 238.742188 L 20.492188 238.296875 L 20.4375 237.851562 L 20.382812 237.414062 L 20.335938 236.96875 L 20.257812 236.09375 L 20.226562 235.65625 L 20.203125 235.226562 L 20.1875 234.796875 L 20.171875 233.9375 L 20.179688 233.515625 L 20.195312 233.09375 L 20.21875 232.671875 L 20.25 232.257812 L 20.289062 231.84375 L 20.34375 231.429688 L 20.40625 231.015625 L 20.476562 230.609375 L 20.5625 230.203125 L 20.65625 229.796875 L 20.765625 229.398438 L 20.882812 229 L 21.015625 228.601562 L 21.15625 228.203125 L 21.320312 227.8125 L 21.492188 227.429688 L 21.679688 227.039062 L 21.882812 226.65625 L 22.09375 226.28125 L 22.328125 225.898438 L 22.578125 225.523438 L 22.84375 225.15625 L 23.117188 224.789062 L 23.421875 224.421875 L 23.734375 224.054688 L 24.0625 223.695312 L 24.414062 223.335938 L 24.789062 222.984375 L 25.171875 222.632812 L 25.578125 222.28125 L 26.007812 221.9375 L 26.453125 221.601562 L 26.921875 221.257812 L 27.40625 220.921875 L 27.921875 220.59375 L 28.445312 220.265625 L 29 219.9375 L 29.578125 219.617188 L 30.171875 219.296875 L 30.796875 218.984375 L 31.4375 218.671875 L 32.109375 218.359375 "/>
<path fill="none" stroke-width="3.985" stroke-linecap="butt" stroke-linejoin="miter" stroke="rgb(0%, 0%, 0%)" stroke-opacity="1" stroke-miterlimit="10" d="M 160.546873 868.203112 L 158.16406 867.148425 L 155.859373 866.054675 L 153.63281 864.960925 L 151.523435 863.828112 L 149.453123 862.656237 L 147.499998 861.4453 L 145.624998 860.1953 L 143.828123 858.9453 L 142.07031 857.617175 L 140.429685 856.28905 L 138.867185 854.921862 L 137.343748 853.554675 L 135.898435 852.109362 L 134.531248 850.66405 L 133.242186 849.179675 L 131.992186 847.656237 L 130.820311 846.1328 L 129.726561 844.531237 L 128.671873 842.968737 L 127.695311 841.328112 L 126.757811 839.687487 L 125.898436 837.968738 L 125.078123 836.28905 L 124.296873 834.531238 L 123.554686 832.773425 L 122.929686 831.015613 L 122.304686 829.179675 L 121.718748 827.3828 L 121.210936 825.5078 L 120.742186 823.6328 L 119.882811 819.804675 L 119.570311 817.85155 L 119.218748 815.898425 L 118.945311 813.906238 L 118.476561 809.843738 L 118.164061 805.703113 L 117.929686 801.484363 L 117.890623 799.374988 L 117.851561 797.187488 L 117.812498 795.039051 L 117.812498 790.624988 L 117.851561 788.398426 L 117.929686 786.171863 L 117.968748 783.906238 L 118.046873 781.640613 L 118.164061 779.335926 L 118.242186 777.031238 L 118.359373 774.726551 L 118.593748 770.039051 L 118.710936 767.656239 L 118.828123 765.312489 L 118.984373 762.890614 L 119.101561 760.507801 L 119.453123 753.242176 L 119.570311 750.781239 L 119.726561 745.859364 L 119.882811 740.859364 L 119.960936 735.859364 L 119.960936 730.820302 L 119.882811 725.742177 L 119.804686 723.203114 L 119.687498 720.664052 L 119.570311 718.085927 L 119.414061 715.546864 L 119.023436 710.390614 L 118.476561 705.234364 L 118.164061 702.617177 L 117.812498 700.039052 L 117.382811 697.460927 L 116.953123 694.84374 L 116.445311 692.226552 L 115.937498 689.648427 L 115.351561 687.03124 L 114.726561 684.414052 L 114.062498 681.835927 L 113.320311 679.21874 L 112.539061 676.601552 L 111.718748 674.023427 L 110.820311 671.40624 L 109.882811 668.789053 L 108.867186 666.171865 L 107.812498 663.59374 L 106.679686 660.976553 L 105.507811 658.398428 L 104.257811 655.78124 L 102.968748 653.203115 L 101.562498 650.62499 L 100.117186 648.046865 L 98.593749 645.429678 L 96.992186 642.890615 L 95.312499 640.31249 L 93.554686 637.734365 L 91.757811 635.195303 L 89.843749 632.656241 L 87.851561 630.078116 L 85.820311 627.539053 L 83.671874 625.039053 L 81.406249 622.499991 L 79.101561 619.999991 L 76.679686 617.499991 L 74.179686 614.999991 L 71.601561 612.499991 L 68.945311 610.039053 L 66.171874 607.539053 L 63.281249 605.117178 L 66.171874 602.656241 L 68.945311 600.195304 L 71.601561 597.695304 L 74.179686 595.234366 L 76.679686 592.734366 L 79.101561 590.234366 L 81.406249 587.695304 L 83.671874 585.195304 L 85.820311 582.656241 L 87.851561 580.117179 L 89.843749 577.578116 L 91.757811 574.999991 L 93.554686 572.460929 L 95.312499 569.882804 L 96.992186 567.304679 L 98.593749 564.765617 L 100.117186 562.187492 L 101.562498 559.609367 L 102.968748 556.992179 L 104.257811 554.414054 L 105.507811 551.835929 L 106.679686 549.218742 L 107.812498 546.640617 L 108.867186 544.023429 L 109.882811 541.406242 L 110.820311 538.828117 L 111.718748 536.21093 L 112.539061 533.593742 L 113.320311 530.976555 L 114.062498 528.39843 L 114.726561 525.781242 L 115.351561 523.164055 L 115.937498 520.546867 L 116.445311 517.968742 L 116.953123 515.351555 L 117.382811 512.77343 L 117.812498 510.156242 L 118.164061 507.578117 L 118.476561 504.999992 L 118.749998 502.382805 L 119.023436 499.80468 L 119.218748 497.265618 L 119.414061 494.687493 L 119.570311 492.109368 L 119.687498 489.570305 L 119.804686 486.99218 L 119.882811 484.453118 L 119.960936 479.374993 L 119.960936 474.33593 L 119.882811 469.335931 L 119.804686 466.835931 L 119.570311 459.453118 L 119.335936 454.531243 L 119.101561 449.687493 L 118.984373 447.304681 L 118.828123 444.921868 L 118.710936 442.539056 L 118.593748 440.195306 L 118.476561 437.812493 L 118.359373 435.468744 L 118.242186 433.164056 L 118.164061 430.859369 L 118.046873 428.554681 L 117.968748 426.289056 L 117.929686 424.023431 L 117.851561 421.796869 L 117.812498 419.570306 L 117.812498 415.156244 L 117.929686 408.710931 L 118.164061 404.492181 L 118.476561 400.351557 L 118.710936 398.320307 L 118.945311 396.328119 L 119.218748 394.335932 L 119.570311 392.343744 L 119.882811 390.390619 L 120.742186 386.562494 L 121.210936 384.687494 L 121.718748 382.851557 L 122.304686 381.015619 L 123.554686 377.421869 L 124.296873 375.664057 L 125.078123 373.945307 L 125.898436 372.226557 L 126.757811 370.546869 L 127.695311 368.906245 L 128.671873 367.26562 L 129.726561 365.664057 L 130.820311 364.101557 L 131.992186 362.539057 L 133.242186 361.01562 L 134.531248 359.531245 L 135.898435 358.085932 L 137.343748 356.679682 L 138.867185 355.273432 L 140.429685 353.906245 L 142.07031 352.57812 L 143.828123 351.289057 L 145.624998 349.999995 L 147.499998 348.749995 L 149.453123 347.57812 L 151.523435 346.406245 L 153.63281 345.23437 L 155.859373 344.14062 L 158.16406 343.04687 L 160.546873 342.031245 L 157.187498 343.554682 L 153.984373 345.117182 L 150.859373 346.679682 L 147.890623 348.281245 L 144.999998 349.882807 L 142.22656 351.523432 L 139.609373 353.164057 L 137.031248 354.843745 L 134.609373 356.523432 L 132.265623 358.20312 L 130.039061 359.92187 L 127.890623 361.64062 L 125.859373 363.35937 L 123.945311 365.117182 L 122.070311 366.914057 L 120.312498 368.67187 L 118.671873 370.468744 L 117.109373 372.304682 L 115.585936 374.140619 L 114.218748 375.976557 L 112.890623 377.851557 L 111.640623 379.687494 L 110.468748 381.601557 L 109.414061 383.476557 L 108.398436 385.429682 L 107.460936 387.343744 L 106.601561 389.296869 L 105.781248 391.249994 L 105.078123 393.203119 L 104.414061 395.195307 L 103.828123 397.187494 L 103.281248 399.179682 L 102.812498 401.210932 L 102.382811 403.242181 L 102.031248 405.273431 L 101.718748 407.343744 L 101.445311 409.414056 L 101.249998 411.484369 L 101.093748 413.593744 L 100.976561 415.664056 L 100.898436 417.773431 L 100.859373 419.921869 L 100.898436 422.031244 L 100.937498 424.179681 L 101.015623 426.328119 L 101.132811 428.515619 L 101.289061 430.703119 L 101.484373 432.851556 L 101.679686 435.078119 L 101.914061 437.265618 L 102.187498 439.492181 L 102.460936 441.679681 L 102.773436 443.906243 L 103.124998 446.171868 L 103.437498 448.437493 L 103.828123 450.664056 L 104.179686 452.929681 L 104.570311 455.195306 L 104.960936 457.499993 L 105.351561 459.765618 L 105.781248 462.070306 L 106.562498 466.679681 L 106.992186 469.023431 L 107.382811 471.328118 L 108.945311 480.703118 L 109.296873 483.046868 L 109.999998 487.812493 L 110.312498 490.156243 L 110.859373 494.921868 L 111.132811 497.343743 L 111.328123 499.726555 L 111.562498 502.14843 L 111.718748 504.531242 L 111.953123 509.374992 L 112.031248 511.757805 L 112.070311 514.218742 L 112.031248 516.601555 L 111.992186 519.062492 L 111.914061 521.484367 L 111.757811 523.945305 L 111.562498 526.36718 L 111.328123 528.789055 L 111.054686 531.249992 L 110.703123 533.71093 L 110.312498 536.171867 L 109.843748 538.593742 L 109.335936 541.054679 L 108.789061 543.515617 L 107.460936 548.437492 L 106.679686 550.898429 L 105.859373 553.359367 L 104.921873 555.820304 L 103.945311 558.281242 L 102.929686 560.781242 L 101.796873 563.242179 L 100.585936 565.703117 L 99.296874 568.164054 L 97.929686 570.624991 L 96.484374 573.085929 L 94.960936 575.585929 L 93.320311 578.046866 L 91.601561 580.507804 L 89.804686 582.968741 L 87.929686 585.429679 L 85.937499 587.890616 L 83.828124 590.351554 L 81.640624 592.812491 L 79.335936 595.273429 L 76.953124 597.734366 L 74.453124 600.195304 L 71.835936 602.656241 L 69.140624 605.117178 L 71.835936 607.539053 L 74.453124 609.999991 L 76.953124 612.460928 L 79.335936 614.921866 L 81.640624 617.382803 L 83.828124 619.843741 L 85.937499 622.304678 L 87.929686 624.765616 L 89.804686 627.226553 L 91.601561 629.687491 L 93.320311 632.148428 L 94.960936 634.648428 L 96.484374 637.109366 L 97.929686 639.570303 L 99.296874 642.03124 L 100.585936 644.53124 L 101.796873 646.992178 L 102.929686 649.453115 L 103.945311 651.914053 L 104.921873 654.37499 L 105.859373 656.835928 L 106.679686 659.296865 L 107.460936 661.757803 L 108.789061 666.679678 L 109.335936 669.140615 L 109.843748 671.601552 L 110.312498 674.06249 L 110.703123 676.523427 L 111.054686 678.945302 L 111.328123 681.40624 L 111.562498 683.828115 L 111.757811 686.289052 L 111.914061 688.710927 L 111.992186 691.132802 L 112.031248 693.59374 L 112.070311 696.015615 L 112.031248 698.43749 L 111.953123 700.859365 L 111.835936 703.242177 L 111.718748 705.664052 L 111.562498 708.085927 L 111.328123 710.468739 L 111.132811 712.890614 L 110.312498 720.039052 L 109.999998 722.421864 L 109.648436 724.765614 L 109.296873 727.148427 L 108.945311 729.492177 L 106.992186 741.210926 L 106.562498 743.515614 L 105.781248 748.124989 L 105.351561 750.429676 L 104.960936 752.734364 L 104.179686 757.265614 L 103.828123 759.531239 L 103.437498 761.796864 L 103.124998 764.062489 L 102.773436 766.289051 L 102.460936 768.515614 L 102.187498 770.742176 L 101.914061 772.929676 L 101.679686 775.156238 L 101.289061 779.531238 L 101.132811 781.718738 L 101.015623 783.867176 L 100.937498 786.015613 L 100.859373 790.312488 L 100.898436 792.421863 L 100.976561 794.531238 L 101.093748 796.640613 L 101.249998 798.710926 L 101.445311 800.781238 L 101.718748 802.851551 L 102.031248 804.921863 L 102.382811 806.953113 L 102.812498 808.984363 L 103.281248 811.015613 L 103.828123 813.0078 L 104.414061 814.999988 L 105.078123 816.992175 L 105.781248 818.984363 L 106.601561 820.937488 L 107.460936 822.85155 L 108.398436 824.804675 L 109.414061 826.718738 L 110.468748 828.593738 L 111.640623 830.5078 L 112.890623 832.3828 L 114.218748 834.218738 L 115.585936 836.054675 L 117.109373 837.890613 L 118.671873 839.72655 L 120.312498 841.523425 L 122.070311 843.3203 L 123.945311 845.078112 L 125.859373 846.835925 L 127.890623 848.593737 L 130.039061 850.312487 L 132.265623 851.992175 L 134.609373 853.710925 L 137.031248 855.390612 L 139.609373 857.031237 L 142.22656 858.671862 L 144.999998 860.312487 L 147.890623 861.91405 L 150.859373 863.515612 L 153.984373 865.078112 L 157.187498 866.640612 Z M 160.546873 868.203112 " transform="matrix(0.2, 0, 0, -0.2, 0, 392)"/>
<path fill-rule="nonzero" fill="rgb(100%, 100%, 100%)" fill-opacity="1" d="M 6.695312 327.703125 L 35.976562 327.703125 L 35.976562 354.585938 L 6.695312 354.585938 Z M 6.695312 327.703125 "/>
<path fill-rule="nonzero" fill="rgb(0%, 0%, 0%)" fill-opacity="1" d="M 28.875 339.058594 C 28.875 335.527344 26.5625 333.183594 23.3125 333.183594 C 18.59375 333.183594 13.78125 338.121094 13.78125 343.214844 C 13.78125 346.839844 16.21875 349.027344 19.375 349.027344 C 24 349.027344 28.875 344.246094 28.875 339.058594 Z M 19.5 348.464844 C 17.34375 348.464844 15.8125 346.714844 15.8125 343.839844 C 15.8125 342.871094 16.125 339.683594 17.8125 337.121094 C 19.3125 334.871094 21.4375 333.714844 23.15625 333.714844 C 24.96875 333.714844 26.90625 334.933594 26.90625 338.183594 C 26.90625 339.777344 26.34375 343.183594 24.15625 345.839844 C 23.125 347.183594 21.34375 348.464844 19.5 348.464844 Z M 19.5 348.464844 "/>
<path fill-rule="nonzero" fill="rgb(100%, 100%, 100%)" fill-opacity="1" d="M 340.15625 327.703125 L 372.078125 327.703125 L 372.078125 354.585938 L 340.15625 354.585938 Z M 340.15625 327.703125 "/>
<path fill-rule="nonzero" fill="rgb(0%, 0%, 0%)" fill-opacity="1" d="M 356.773438 339.589844 L 354.929688 335.246094 C 354.867188 335.089844 354.804688 334.996094 354.804688 334.964844 C 354.804688 334.839844 355.179688 334.433594 356.117188 334.339844 C 356.335938 334.308594 356.554688 334.308594 356.554688 333.933594 C 356.554688 333.652344 356.273438 333.652344 356.210938 333.652344 C 355.304688 333.652344 354.367188 333.714844 353.460938 333.714844 C 352.929688 333.714844 351.554688 333.652344 351.023438 333.652344 C 350.898438 333.652344 350.617188 333.652344 350.617188 334.089844 C 350.617188 334.339844 350.835938 334.339844 351.117188 334.339844 C 352.429688 334.339844 352.585938 334.558594 352.773438 335.027344 L 355.335938 341.121094 L 350.742188 346.058594 L 350.460938 346.308594 C 349.398438 347.464844 348.367188 347.808594 347.242188 347.871094 C 346.960938 347.902344 346.773438 347.902344 346.773438 348.308594 C 346.773438 348.339844 346.773438 348.558594 347.054688 348.558594 C 347.710938 348.558594 348.429688 348.496094 349.117188 348.496094 C 349.898438 348.496094 350.773438 348.558594 351.554688 348.558594 C 351.679688 348.558594 351.929688 348.558594 351.929688 348.121094 C 351.929688 347.902344 351.710938 347.871094 351.679688 347.871094 C 351.492188 347.871094 350.804688 347.808594 350.804688 347.214844 C 350.804688 346.871094 351.117188 346.496094 351.398438 346.214844 L 353.617188 343.871094 L 355.585938 341.746094 L 357.773438 346.933594 C 357.867188 347.183594 357.898438 347.214844 357.898438 347.246094 C 357.898438 347.433594 357.492188 347.808594 356.617188 347.871094 C 356.398438 347.902344 356.179688 347.933594 356.179688 348.308594 C 356.179688 348.558594 356.429688 348.558594 356.523438 348.558594 C 357.117188 348.558594 358.648438 348.496094 359.273438 348.496094 C 359.804688 348.496094 361.148438 348.558594 361.679688 348.558594 C 361.835938 348.558594 362.117188 348.558594 362.117188 348.152344 C 362.117188 347.871094 361.898438 347.871094 361.710938 347.871094 C 360.242188 347.871094 360.210938 347.808594 359.835938 346.933594 C 358.992188 344.902344 357.523438 341.496094 357.023438 340.183594 C 358.492188 338.652344 360.804688 336.058594 361.492188 335.464844 C 362.117188 334.933594 362.960938 334.402344 364.273438 334.339844 C 364.554688 334.308594 364.742188 334.308594 364.742188 333.902344 C 364.742188 333.871094 364.742188 333.652344 364.460938 333.652344 C 363.804688 333.652344 363.085938 333.714844 362.398438 333.714844 C 361.585938 333.714844 360.773438 333.652344 359.992188 333.652344 C 359.867188 333.652344 359.585938 333.652344 359.585938 334.089844 C 359.585938 334.246094 359.679688 334.308594 359.835938 334.339844 C 360.023438 334.371094 360.710938 334.402344 360.710938 335.027344 C 360.710938 335.308594 360.460938 335.589844 360.304688 335.808594 Z M 356.773438 339.589844 "/>
<path fill-rule="nonzero" fill="rgb(100%, 100%, 100%)" fill-opacity="1" d="M 6.453125 -5.757812 L 35.976562 -5.757812 L 35.976562 21.125 L 6.453125 21.125 Z M 6.453125 -5.757812 "/>
<path fill-rule="nonzero" fill="rgb(0%, 0%, 0%)" fill-opacity="1" d="M 25.511719 2.695312 L 25.792969 2.382812 C 26.449219 1.726562 27.167969 0.976562 28.667969 0.882812 C 28.917969 0.851562 29.105469 0.851562 29.105469 0.476562 C 29.105469 0.289062 28.980469 0.195312 28.824219 0.195312 C 28.261719 0.195312 27.605469 0.257812 27.042969 0.257812 C 26.324219 0.257812 25.542969 0.195312 24.855469 0.195312 C 24.730469 0.195312 24.449219 0.195312 24.449219 0.632812 C 24.449219 0.851562 24.636719 0.882812 24.761719 0.882812 C 24.917969 0.882812 25.542969 0.914062 25.542969 1.382812 C 25.542969 1.757812 25.042969 2.320312 24.949219 2.414062 L 19.886719 8.257812 L 17.511719 1.789062 C 17.355469 1.476562 17.355469 1.414062 17.355469 1.414062 C 17.355469 0.882812 18.449219 0.882812 18.667969 0.882812 C 18.949219 0.882812 19.167969 0.882812 19.167969 0.445312 C 19.167969 0.195312 18.917969 0.195312 18.855469 0.195312 C 18.230469 0.195312 16.699219 0.257812 16.105469 0.257812 C 15.542969 0.257812 14.199219 0.195312 13.667969 0.195312 C 13.542969 0.195312 13.230469 0.195312 13.230469 0.632812 C 13.230469 0.882812 13.449219 0.882812 13.730469 0.882812 C 15.042969 0.882812 15.136719 1.070312 15.324219 1.632812 L 18.011719 8.789062 C 18.042969 8.851562 18.105469 9.101562 18.105469 9.164062 C 18.105469 9.226562 17.230469 12.757812 17.136719 13.132812 C 16.855469 14.351562 16.824219 14.414062 15.074219 14.414062 C 14.667969 14.414062 14.480469 14.414062 14.480469 14.851562 C 14.480469 15.101562 14.761719 15.101562 14.792969 15.101562 C 15.417969 15.101562 16.917969 15.039062 17.542969 15.039062 C 18.136719 15.039062 19.730469 15.101562 20.324219 15.101562 C 20.480469 15.101562 20.761719 15.101562 20.761719 14.664062 C 20.761719 14.414062 20.542969 14.414062 20.136719 14.414062 C 20.105469 14.414062 19.667969 14.414062 19.292969 14.382812 C 18.855469 14.351562 18.730469 14.289062 18.730469 14.039062 C 18.730469 13.882812 18.917969 13.101562 19.011719 12.664062 L 19.792969 9.570312 C 19.886719 9.164062 19.917969 9.101562 20.105469 8.914062 Z M 25.511719 2.695312 "/>
<path fill="none" stroke-width="11.9553" stroke-linecap="butt" stroke-linejoin="miter" stroke="rgb(0%, 0%, 0%)" stroke-opacity="1" stroke-miterlimit="10" d="M 149.140623 321.601558 L 1800.039036 321.601558 " transform="matrix(0.2, 0, 0, -0.2, 0, 392)"/>
<path fill="none" stroke-width="11.9553" stroke-linecap="butt" stroke-linejoin="miter" stroke="rgb(0%, 0%, 0%)" stroke-opacity="1" stroke-miterlimit="10" d="M 179.999997 289.179683 L 179.999997 1941.601534 " transform="matrix(0.2, 0, 0, -0.2, 0, 392)"/>
<path fill-rule="nonzero" fill="rgb(0%, 0%, 0%)" fill-opacity="1" d="M 153.597656 384.300781 C 154.785156 383.894531 156.785156 383.300781 156.785156 381.363281 C 156.785156 379.050781 154.066406 377.988281 152.097656 377.988281 C 151.160156 377.988281 150.191406 378.207031 149.347656 378.707031 C 149.222656 378.769531 149.066406 378.957031 148.910156 378.957031 C 148.597656 378.957031 148.035156 377.988281 147.722656 377.988281 C 147.535156 377.988281 147.503906 378.207031 147.503906 378.300781 L 147.503906 381.863281 C 147.503906 381.988281 147.597656 382.144531 147.785156 382.144531 C 148.097656 382.144531 148.066406 381.519531 148.160156 381.175781 C 148.628906 379.457031 150.191406 378.707031 151.691406 378.613281 L 152.097656 378.613281 C 153.441406 378.613281 155.003906 379.488281 155.003906 381.363281 C 155.003906 383.175781 153.222656 384.113281 151.566406 384.113281 C 151.253906 384.113281 150.941406 384.113281 150.628906 384.113281 L 150.472656 384.113281 C 150.285156 384.113281 150.066406 384.113281 150.066406 384.332031 L 150.066406 384.363281 C 150.097656 384.550781 150.285156 384.582031 150.472656 384.582031 L 152.316406 384.582031 C 153.878906 384.707031 155.316406 385.738281 155.472656 387.363281 L 155.472656 387.582031 C 155.472656 389.425781 153.753906 390.582031 152.003906 390.582031 C 150.097656 390.582031 148.128906 389.957031 147.816406 387.582031 C 147.816406 387.425781 147.753906 387.238281 147.535156 387.238281 C 147.316406 387.269531 147.285156 387.425781 147.285156 387.582031 C 147.285156 390.175781 149.878906 391.207031 152.128906 391.207031 C 154.191406 391.207031 157.066406 390.238281 157.316406 387.769531 L 157.316406 387.644531 C 157.316406 385.675781 155.253906 384.707031 153.597656 384.300781 Z M 153.597656 384.300781 "/>
<path fill-rule="nonzero" fill="rgb(0%, 0%, 0%)" fill-opacity="1" d="M 165.695312 377.988281 C 162.320312 378.394531 159.632812 381.050781 159.632812 384.644531 C 159.632812 387.925781 162.226562 391.175781 166.101562 391.175781 C 169.601562 391.175781 172.570312 388.269531 172.570312 384.644531 C 172.570312 381.457031 170.070312 377.988281 166.132812 377.988281 C 166.007812 377.988281 165.851562 377.988281 165.695312 377.988281 Z M 161.507812 384.863281 L 161.507812 384.519531 C 161.507812 382.019531 162.414062 379.082031 165.570312 378.550781 C 165.757812 378.519531 165.914062 378.519531 166.101562 378.519531 C 168.914062 378.519531 170.664062 381.238281 170.664062 384.269531 C 170.664062 386.675781 169.945312 389.738281 166.976562 390.519531 C 166.695312 390.582031 166.414062 390.613281 166.132812 390.613281 L 165.945312 390.613281 C 163.351562 390.519531 161.945312 388.050781 161.601562 385.644531 Z M 161.507812 384.863281 "/>
<path fill-rule="nonzero" fill="rgb(0%, 0%, 0%)" fill-opacity="1" d="M 175.027344 378.332031 L 175.027344 378.925781 L 175.464844 378.925781 C 176.058594 378.925781 176.683594 379.019531 176.683594 379.894531 L 176.683594 389.363281 C 176.683594 390.207031 175.964844 390.238281 175.308594 390.238281 L 175.027344 390.238281 L 175.027344 390.832031 L 180.808594 390.832031 C 181.214844 390.832031 181.589844 390.863281 181.996094 390.863281 C 183.996094 390.863281 186.339844 389.925781 186.558594 387.519531 L 186.558594 387.332031 C 186.558594 384.800781 183.683594 383.769531 181.777344 383.769531 C 180.527344 383.769531 179.339844 383.894531 178.152344 383.988281 L 178.152344 379.769531 C 178.152344 379.332031 178.214844 378.925781 178.996094 378.925781 L 181.308594 378.925781 C 182.277344 378.925781 183.371094 378.988281 184.089844 379.707031 C 184.777344 380.425781 184.871094 381.644531 184.964844 382.582031 L 185.496094 382.582031 L 185.027344 378.332031 Z M 178.152344 384.613281 C 178.402344 384.613281 178.652344 384.550781 178.902344 384.519531 L 180.277344 384.457031 C 180.558594 384.425781 180.839844 384.394531 181.152344 384.394531 C 182.714844 384.394531 184.683594 385.394531 184.683594 387.238281 C 184.683594 388.988281 183.339844 390.269531 181.339844 390.269531 C 181.058594 390.269531 180.746094 390.238281 180.496094 390.238281 L 178.964844 390.238281 C 178.496094 390.238281 178.246094 390.207031 178.152344 389.582031 Z M 178.152344 384.613281 "/>
<path fill-rule="nonzero" fill="rgb(0%, 0%, 0%)" fill-opacity="1" d="M 188.90625 378.332031 L 188.90625 378.925781 L 189.375 378.925781 C 189.96875 378.925781 190.5625 379.019531 190.5625 379.894531 L 190.5625 389.363281 C 190.5625 390.207031 189.875 390.238281 189.1875 390.238281 L 188.90625 390.238281 L 188.90625 390.832031 L 193.8125 390.832031 L 193.8125 390.238281 L 193.375 390.238281 C 192.75 390.238281 192.15625 390.175781 192.15625 389.300781 L 192.15625 385.113281 L 195.875 385.113281 C 197.65625 384.988281 199.9375 383.800781 199.9375 381.769531 C 199.9375 379.550781 197.59375 378.488281 195.6875 378.332031 Z M 192.125 384.582031 L 192.125 379.582031 C 192.21875 378.988281 192.46875 378.925781 192.875 378.925781 L 194.3125 378.925781 C 195.9375 378.925781 198.0625 378.988281 198.0625 381.769531 C 198.0625 382.425781 197.96875 383.113281 197.5625 383.613281 C 196.90625 384.394531 195.8125 384.582031 194.84375 384.582031 Z M 192.125 384.582031 "/>
<path fill-rule="nonzero" fill="rgb(0%, 0%, 0%)" fill-opacity="1" d="M 204.632812 388.550781 C 204.132812 388.644531 203.632812 389.082031 203.632812 389.675781 C 203.632812 390.300781 204.164062 390.832031 204.789062 390.832031 C 205.414062 390.832031 205.976562 390.363281 205.976562 389.707031 C 205.976562 389.082031 205.445312 388.519531 204.820312 388.519531 C 204.757812 388.519531 204.695312 388.550781 204.632812 388.550781 Z M 204.632812 388.550781 "/>
<path fill-rule="nonzero" fill="rgb(0%, 0%, 0%)" fill-opacity="1" d="M 218.191406 386.832031 L 224.785156 386.832031 L 224.785156 389.113281 C 224.785156 390.144531 223.972656 390.144531 222.410156 390.144531 L 222.410156 390.832031 L 228.847656 390.832031 L 228.847656 390.144531 C 228.566406 390.144531 228.253906 390.175781 227.941406 390.175781 C 227.128906 390.175781 226.472656 390.050781 226.472656 389.113281 L 226.472656 386.832031 L 229.003906 386.832031 L 229.003906 386.144531 L 226.472656 386.144531 L 226.472656 375.019531 L 226.378906 374.738281 L 225.910156 374.738281 L 225.597656 375.144531 L 218.191406 386.144531 Z M 218.785156 386.144531 L 224.878906 377.082031 L 224.878906 386.144531 Z M 218.785156 386.144531 "/>
<path fill-rule="nonzero" fill="rgb(0%, 0%, 0%)" fill-opacity="1" d="M 232.308594 374.675781 L 231.589844 379.457031 L 232.121094 379.457031 C 232.214844 378.738281 232.308594 377.613281 232.714844 377.300781 C 232.839844 377.175781 233.121094 377.207031 233.277344 377.175781 L 233.964844 377.175781 C 234.527344 377.175781 235.121094 377.144531 235.683594 377.144531 L 240.464844 377.144531 C 239.964844 377.738281 239.558594 378.394531 239.089844 379.019531 C 238.433594 379.925781 237.714844 380.863281 237.089844 381.863281 C 235.589844 384.332031 234.621094 387.269531 234.621094 390.207031 L 234.621094 390.457031 C 234.683594 390.957031 235.121094 391.332031 235.621094 391.332031 L 235.683594 391.332031 C 236.496094 391.332031 236.621094 390.613281 236.621094 390.082031 L 236.621094 388.988281 C 236.621094 386.394531 236.839844 383.269531 238.433594 380.988281 C 239.464844 379.457031 240.621094 377.988281 241.714844 376.457031 C 241.871094 376.238281 242.058594 376.050781 242.058594 375.738281 L 242.058594 375.457031 L 236.339844 375.457031 C 236.027344 375.457031 235.621094 375.457031 235.183594 375.457031 C 234.121094 375.457031 232.902344 375.363281 232.839844 374.675781 Z M 232.308594 374.675781 "/>
<path fill-rule="nonzero" fill="rgb(0%, 0%, 0%)" fill-opacity="1" d="M 246.140625 388.550781 C 245.640625 388.644531 245.140625 389.082031 245.140625 389.675781 C 245.140625 390.300781 245.671875 390.832031 246.296875 390.832031 C 246.921875 390.832031 247.484375 390.363281 247.484375 389.707031 C 247.484375 389.082031 246.953125 388.519531 246.328125 388.519531 C 246.265625 388.519531 246.203125 388.550781 246.140625 388.550781 Z M 246.140625 388.550781 "/>
</svg>
