<?xml version="1.0" encoding="UTF-8"?>
<svg xmlns="http://www.w3.org/2000/svg" xmlns:xlink="http://www.w3.org/1999/xlink" width="316" height="404" viewBox="0 0 316 404">
<path fill="none" stroke-width="11.9553" stroke-linecap="butt" stroke-linejoin="miter" stroke="rgb(0%, 0%, 0%)" stroke-opacity="1" stroke-miterlimit="10" d="M 129.999998 1191.601545 L 163.593748 1196.445295 L 197.187497 1201.562482 L 230.820309 1206.953107 L 264.414059 1212.656232 L 298.007808 1218.632794 L 331.601558 1224.921857 L 365.195307 1231.562482 L 398.789057 1238.593732 L 432.382806 1245.976544 L 466.015618 1253.749981 L 499.609368 1261.953106 L 533.203117 1270.585919 L 566.796867 1279.687481 L 600.390616 1289.296856 L 634.023428 1299.414043 L 667.617178 1310.078105 L 701.210927 1321.328105 L 734.804677 1333.164043 L 768.398426 1345.664042 L 801.992176 1358.789042 L 835.585925 1372.65623 L 869.218737 1387.265604 L 902.812487 1402.656229 L 936.406236 1418.906229 L 969.999986 1436.015604 L 1003.593735 1454.023416 L 1037.226547 1473.046853 L 1070.820297 1493.046853 L 1104.414046 1514.140602 L 1138.007796 1536.367165 L 1171.601545 1559.804664 L 1205.195295 1584.492164 L 1238.828107 1610.546851 L 1272.421856 1637.968726 L 1306.015606 1666.874975 L 1339.609355 1697.343725 L 1373.203105 1729.453099 L 1406.796854 1763.320286 L 1440.429666 1798.984348 L 1474.023416 1836.562473 " transform="matrix(0.2, 0, 0, -0.2, 0, 404)"/>
<path fill="none" stroke-width="11.9553" stroke-linecap="butt" stroke-linejoin="miter" stroke="rgb(0%, 0%, 0%)" stroke-opacity="1" stroke-miterlimit="10" d="M 769.999989 561.601554 L 769.999989 1346.24998 " transform="matrix(0.2, 0, 0, -0.2, 0, 404)"/>
<path fill="none" stroke-width="11.9553" stroke-linecap="butt" stroke-linejoin="miter" stroke="rgb(0%, 0%, 0%)" stroke-opacity="1" stroke-miterlimit="10" d="M 828.203113 561.601554 L 828.203113 1369.53123 " transform="matrix(0.2, 0, 0, -0.2, 0, 404)"/>
<path fill="none" stroke-width="11.9553" stroke-linecap="butt" stroke-linejoin="miter" stroke="rgb(0%, 0%, 0%)" stroke-opacity="1" stroke-miterlimit="10" d="M 886.367174 561.601554 L 886.367174 1395.039042 " transform="matrix(0.2, 0, 0, -0.2, 0, 404)"/>
<path fill="none" stroke-width="11.9553" stroke-linecap="butt" stroke-linejoin="miter" stroke="rgb(0%, 0%, 0%)" stroke-opacity="1" stroke-miterlimit="10" d="M 944.570298 561.601554 L 944.570298 1422.968729 " transform="matrix(0.2, 0, 0, -0.2, 0, 404)"/>
<path fill="none" stroke-width="11.9553" stroke-linecap="butt" stroke-linejoin="miter" stroke="rgb(0%, 0%, 0%)" stroke-opacity="1" stroke-miterlimit="10" d="M 1002.73436 561.601554 L 1002.73436 1453.554666 " transform="matrix(0.2, 0, 0, -0.2, 0, 404)"/>
<path fill="none" stroke-width="11.9553" stroke-linecap="butt" stroke-linejoin="miter" stroke="rgb(0%, 0%, 0%)" stroke-opacity="1" stroke-miterlimit="10" d="M 1060.937484 561.601554 L 1060.937484 1487.031228 " transform="matrix(0.2, 0, 0, -0.2, 0, 404)"/>
<path fill="none" stroke-width="11.9553" stroke-linecap="butt" stroke-linejoin="miter" stroke="rgb(0%, 0%, 0%)" stroke-opacity="1" stroke-miterlimit="10" d="M 1119.101546 561.601554 L 1119.101546 1523.710915 " transform="matrix(0.2, 0, 0, -0.2, 0, 404)"/>
<path fill="none" stroke-width="11.9553" stroke-linecap="butt" stroke-linejoin="miter" stroke="rgb(0%, 0%, 0%)" stroke-opacity="1" stroke-miterlimit="10" d="M 1177.30467 561.601554 L 1177.30467 1563.906227 " transform="matrix(0.2, 0, 0, -0.2, 0, 404)"/>
<path fill="none" stroke-width="11.9553" stroke-linecap="butt" stroke-linejoin="miter" stroke="rgb(0%, 0%, 0%)" stroke-opacity="1" stroke-miterlimit="10" d="M 1235.468732 561.601554 L 1235.468732 1607.890601 " transform="matrix(0.2, 0, 0, -0.2, 0, 404)"/>
<path fill="none" stroke-width="11.9553" stroke-linecap="butt" stroke-linejoin="miter" stroke="rgb(0%, 0%, 0%)" stroke-opacity="1" stroke-miterlimit="10" d="M 1293.632793 561.601554 L 1293.632793 1656.054663 " transform="matrix(0.2, 0, 0, -0.2, 0, 404)"/>
<path fill="none" stroke-width="11.9553" stroke-linecap="butt" stroke-linejoin="miter" stroke="rgb(0%, 0%, 0%)" stroke-opacity="1" stroke-miterlimit="10" d="M 1351.835917 561.601554 L 1351.835917 1708.8281 " transform="matrix(0.2, 0, 0, -0.2, 0, 404)"/>
<path fill="none" stroke-width="11.9553" stroke-linecap="butt" stroke-linejoin="miter" stroke="rgb(0%, 0%, 0%)" stroke-opacity="1" stroke-miterlimit="10" d="M 1410.039041 561.601554 L 1410.039041 1766.640599 " transform="matrix(0.2, 0, 0, -0.2, 0, 404)"/>
<path fill-rule="nonzero" fill="rgb(0%, 0%, 0%)" fill-opacity="1" d="M 33.523438 155.035156 C 32.648438 156.472656 31.804688 156.785156 30.835938 156.847656 C 30.585938 156.878906 30.367188 156.878906 30.367188 157.285156 C 30.367188 157.441406 30.492188 157.535156 30.679688 157.535156 C 31.242188 157.535156 31.929688 157.472656 32.554688 157.472656 C 33.273438 157.472656 34.023438 157.535156 34.710938 157.535156 C 34.867188 157.535156 35.148438 157.535156 35.148438 157.128906 C 35.148438 156.878906 34.929688 156.847656 34.773438 156.847656 C 34.273438 156.816406 33.773438 156.628906 33.773438 156.097656 C 33.773438 155.847656 33.898438 155.597656 34.054688 155.285156 L 35.710938 152.503906 L 41.210938 152.503906 C 41.242188 152.941406 41.554688 155.910156 41.554688 156.128906 C 41.554688 156.785156 40.429688 156.847656 39.992188 156.847656 C 39.679688 156.847656 39.460938 156.847656 39.460938 157.285156 C 39.460938 157.535156 39.710938 157.535156 39.773438 157.535156 C 40.648438 157.535156 41.585938 157.472656 42.492188 157.472656 C 43.023438 157.472656 44.398438 157.535156 44.960938 157.535156 C 45.085938 157.535156 45.335938 157.535156 45.335938 157.097656 C 45.335938 156.847656 45.117188 156.847656 44.835938 156.847656 C 43.492188 156.847656 43.492188 156.691406 43.429688 156.066406 L 42.085938 142.441406 C 42.054688 142.003906 42.054688 141.910156 41.679688 141.910156 C 41.335938 141.910156 41.242188 142.066406 41.117188 142.285156 Z M 36.148438 151.816406 L 40.429688 144.628906 L 41.148438 151.816406 Z M 36.148438 151.816406 "/>
<path fill-rule="nonzero" fill="rgb(0%, 0%, 0%)" fill-opacity="1" d="M 152.195312 119.875 L 155.914062 119.875 C 159.007812 119.875 162.039062 117.625 162.039062 115.1875 C 162.039062 113.5 160.601562 111.875 157.757812 111.875 L 150.695312 111.875 C 150.257812 111.875 150.039062 111.875 150.039062 112.3125 C 150.039062 112.5625 150.226562 112.5625 150.664062 112.5625 C 150.945312 112.5625 151.351562 112.59375 151.601562 112.59375 C 151.945312 112.65625 152.070312 112.71875 152.070312 112.9375 C 152.070312 113.03125 152.070312 113.09375 152.007812 113.375 L 149.070312 125.09375 C 148.851562 125.9375 148.820312 126.09375 147.070312 126.09375 C 146.726562 126.09375 146.476562 126.09375 146.476562 126.53125 C 146.476562 126.78125 146.726562 126.78125 146.789062 126.78125 C 147.414062 126.78125 148.945312 126.71875 149.570312 126.71875 C 150.039062 126.71875 150.507812 126.75 150.976562 126.75 C 151.445312 126.75 151.914062 126.78125 152.382812 126.78125 C 152.539062 126.78125 152.820312 126.78125 152.820312 126.34375 C 152.820312 126.09375 152.632812 126.09375 152.195312 126.09375 C 151.414062 126.09375 150.789062 126.09375 150.789062 125.71875 C 150.789062 125.59375 150.851562 125.46875 150.851562 125.34375 Z M 153.789062 113.375 C 153.976562 112.625 154.007812 112.5625 154.945312 112.5625 L 157.039062 112.5625 C 158.851562 112.5625 160.007812 113.15625 160.007812 114.65625 C 160.007812 115.5 159.570312 117.375 158.726562 118.15625 C 157.632812 119.15625 156.320312 119.3125 155.382812 119.3125 L 152.289062 119.3125 Z M 153.789062 113.375 "/>
<path fill-rule="nonzero" fill="rgb(0%, 0%, 0%)" fill-opacity="1" d="M 270.300781 46.46875 C 273.675781 45.1875 276.894531 41.28125 276.894531 37.09375 C 276.894531 33.5625 274.582031 31.21875 271.332031 31.21875 C 266.613281 31.21875 261.800781 36.15625 261.800781 41.25 C 261.800781 44.875 264.238281 47.0625 267.394531 47.0625 C 267.925781 47.0625 268.675781 47 269.519531 46.75 C 269.457031 48.09375 269.457031 48.15625 269.457031 48.4375 C 269.457031 49.125 269.457031 50.8125 271.238281 50.8125 C 273.832031 50.8125 274.894531 46.84375 274.894531 46.59375 C 274.894531 46.4375 274.738281 46.375 274.644531 46.375 C 274.488281 46.375 274.425781 46.5 274.394531 46.625 C 273.863281 48.15625 272.613281 48.71875 271.832031 48.71875 C 270.832031 48.71875 270.519531 48.125 270.300781 46.46875 Z M 266.175781 46.28125 C 264.457031 45.625 263.738281 43.90625 263.738281 41.9375 C 263.738281 40.4375 264.300781 37.34375 265.957031 35 C 267.550781 32.75 269.582031 31.75 271.175781 31.75 C 273.363281 31.75 274.957031 33.46875 274.957031 36.375 C 274.957031 38.5625 273.832031 43.65625 270.175781 45.71875 C 270.082031 44.96875 269.863281 43.375 268.269531 43.375 C 267.113281 43.375 266.050781 44.46875 266.050781 45.59375 C 266.050781 46.03125 266.175781 46.28125 266.175781 46.28125 Z M 267.519531 46.53125 C 267.207031 46.53125 266.519531 46.53125 266.519531 45.59375 C 266.519531 44.71875 267.332031 43.84375 268.269531 43.84375 C 269.175781 43.84375 269.582031 44.375 269.582031 45.6875 C 269.582031 46.03125 269.582031 46.0625 269.363281 46.125 C 268.800781 46.375 268.144531 46.53125 267.519531 46.53125 Z M 267.519531 46.53125 "/>
<path fill-rule="nonzero" fill="rgb(0%, 0%, 0%)" fill-opacity="1" d="M 302.046875 30.789062 C 301.828125 31.632812 301.765625 31.789062 300.046875 31.789062 C 299.671875 31.789062 299.453125 31.789062 299.453125 32.226562 C 299.453125 32.476562 299.671875 32.476562 300.046875 32.476562 L 307.828125 32.476562 C 311.296875 32.476562 313.859375 29.914062 313.859375 27.757812 C 313.859375 26.195312 312.609375 24.914062 310.484375 24.695312 C 312.734375 24.289062 315.046875 22.664062 315.046875 20.601562 C 315.046875 18.976562 313.609375 17.570312 310.984375 17.570312 L 303.640625 17.570312 C 303.234375 17.570312 303.015625 17.570312 303.015625 18.007812 C 303.015625 18.257812 303.203125 18.257812 303.640625 18.257812 C 303.671875 18.257812 304.078125 18.257812 304.453125 18.289062 C 304.859375 18.351562 305.046875 18.351562 305.046875 18.632812 C 305.046875 18.726562 305.015625 18.789062 304.953125 19.070312 Z M 305.328125 24.507812 L 306.671875 19.070312 C 306.890625 18.320312 306.921875 18.257812 307.859375 18.257812 L 310.671875 18.257812 C 312.609375 18.257812 313.046875 19.539062 313.046875 20.507812 C 313.046875 22.414062 311.171875 24.507812 308.515625 24.507812 Z M 304.359375 31.789062 C 304.046875 31.789062 303.984375 31.789062 303.859375 31.789062 C 303.640625 31.757812 303.578125 31.726562 303.578125 31.570312 C 303.578125 31.507812 303.578125 31.445312 303.703125 31.070312 L 305.203125 24.976562 L 309.328125 24.976562 C 311.421875 24.976562 311.828125 26.601562 311.828125 27.539062 C 311.828125 29.695312 309.890625 31.789062 307.328125 31.789062 Z M 304.359375 31.789062 "/>
<path fill-rule="nonzero" fill="rgb(0%, 0%, 0%)" fill-opacity="1" d="M 146.925781 274.25 C 147.144531 273.46875 147.175781 273.25 148.800781 273.25 C 149.300781 273.25 149.519531 273.25 149.519531 272.8125 C 149.519531 272.5625 149.300781 272.5625 148.925781 272.5625 L 146.050781 272.5625 C 145.488281 272.5625 145.457031 272.5625 145.207031 273 L 137.238281 285.40625 L 135.519531 273.0625 C 135.457031 272.5625 135.425781 272.5625 134.863281 272.5625 L 131.863281 272.5625 C 131.457031 272.5625 131.207031 272.5625 131.207031 273 C 131.207031 273.25 131.394531 273.25 131.832031 273.25 C 132.113281 273.25 132.519531 273.28125 132.769531 273.28125 C 133.144531 273.34375 133.269531 273.40625 133.269531 273.625 C 133.269531 273.71875 133.238281 273.78125 133.175781 274.0625 L 130.394531 285.15625 C 130.175781 286.03125 129.800781 286.71875 128.050781 286.78125 C 127.925781 286.78125 127.644531 286.8125 127.644531 287.21875 C 127.644531 287.40625 127.800781 287.46875 127.957031 287.46875 C 128.644531 287.46875 129.425781 287.40625 130.144531 287.40625 C 130.894531 287.40625 131.675781 287.46875 132.394531 287.46875 C 132.488281 287.46875 132.769531 287.46875 132.769531 287.03125 C 132.769531 286.78125 132.550781 286.78125 132.394531 286.78125 C 131.144531 286.78125 130.894531 286.34375 130.894531 285.84375 C 130.894531 285.6875 130.925781 285.5625 130.988281 285.34375 L 133.957031 273.4375 L 133.988281 273.4375 L 135.863281 286.96875 C 135.894531 287.21875 135.925781 287.46875 136.175781 287.46875 C 136.425781 287.46875 136.550781 287.21875 136.675781 287.0625 L 145.488281 273.28125 L 142.363281 285.78125 C 142.144531 286.625 142.113281 286.78125 140.394531 286.78125 C 140.019531 286.78125 139.769531 286.78125 139.769531 287.21875 C 139.769531 287.46875 140.050781 287.46875 140.113281 287.46875 C 140.707031 287.46875 142.207031 287.40625 142.800781 287.40625 C 143.707031 287.40625 144.644531 287.46875 145.550781 287.46875 C 145.675781 287.46875 145.957031 287.46875 145.957031 287.03125 C 145.957031 286.78125 145.769531 286.78125 145.332031 286.78125 C 144.550781 286.78125 143.925781 286.78125 143.925781 286.40625 C 143.925781 286.3125 143.925781 286.28125 144.050781 285.875 Z M 146.925781 274.25 "/>
<path fill-rule="nonzero" fill="rgb(0%, 0%, 0%)" fill-opacity="1" d="M 302.25 274.875 C 302.46875 274 302.84375 273.3125 304.59375 273.25 C 304.71875 273.25 304.96875 273.21875 304.96875 272.8125 C 304.96875 272.78125 304.96875 272.5625 304.6875 272.5625 C 303.96875 272.5625 303.1875 272.625 302.46875 272.625 C 301.75 272.625 300.96875 272.5625 300.25 272.5625 C 300.125 272.5625 299.875 272.5625 299.875 273 C 299.875 273.25 300.09375 273.25 300.25 273.25 C 301.5 273.28125 301.75 273.71875 301.75 274.21875 C 301.75 274.28125 301.6875 274.59375 301.6875 274.65625 L 299.21875 284.375 L 294.40625 273 C 294.25 272.59375 294.21875 272.5625 293.71875 272.5625 L 290.78125 272.5625 C 290.34375 272.5625 290.15625 272.5625 290.15625 273 C 290.15625 273.25 290.34375 273.25 290.78125 273.25 C 290.875 273.25 292.25 273.25 292.25 273.4375 L 289.3125 285.15625 C 289.09375 286.03125 288.75 286.71875 286.96875 286.78125 C 286.84375 286.78125 286.59375 286.8125 286.59375 287.21875 C 286.59375 287.375 286.71875 287.46875 286.875 287.46875 C 287.59375 287.46875 288.34375 287.40625 289.0625 287.40625 C 289.8125 287.40625 290.59375 287.46875 291.3125 287.46875 C 291.40625 287.46875 291.71875 287.46875 291.71875 287.03125 C 291.71875 286.8125 291.5 286.78125 291.28125 286.78125 C 290 286.75 289.84375 286.28125 289.84375 285.84375 C 289.84375 285.6875 289.84375 285.5625 289.90625 285.34375 L 292.78125 273.8125 C 292.875 273.9375 292.875 274 293 274.21875 L 298.4375 287.0625 C 298.5625 287.4375 298.65625 287.46875 298.84375 287.46875 C 299.0625 287.46875 299.0625 287.40625 299.1875 287 Z M 302.25 274.875 "/>
<path fill-rule="nonzero" fill="rgb(0%, 0%, 0%)" fill-opacity="1" d="M 135.746094 207.542969 C 135.839844 207.230469 135.839844 207.199219 135.839844 207.042969 C 135.839844 206.636719 135.527344 206.449219 135.214844 206.449219 C 134.996094 206.449219 134.652344 206.574219 134.433594 206.917969 C 134.402344 207.011719 134.214844 207.699219 134.152344 208.105469 C 133.996094 208.667969 133.839844 209.261719 133.714844 209.824219 L 132.714844 213.761719 C 132.621094 214.074219 131.683594 215.605469 130.246094 215.605469 C 129.152344 215.605469 128.902344 214.667969 128.902344 213.855469 C 128.902344 212.855469 129.277344 211.480469 130.027344 209.574219 C 130.371094 208.667969 130.464844 208.449219 130.464844 208.011719 C 130.464844 207.011719 129.746094 206.199219 128.652344 206.199219 C 126.589844 206.199219 125.777344 209.386719 125.777344 209.574219 C 125.777344 209.792969 125.996094 209.792969 126.058594 209.792969 C 126.277344 209.792969 126.277344 209.761719 126.402344 209.386719 C 126.996094 207.355469 127.871094 206.699219 128.589844 206.699219 C 128.777344 206.699219 129.152344 206.699219 129.152344 207.386719 C 129.152344 207.949219 128.933594 208.511719 128.777344 208.917969 C 127.902344 211.230469 127.496094 212.480469 127.496094 213.511719 C 127.496094 215.449219 128.871094 216.105469 130.183594 216.105469 C 131.027344 216.105469 131.746094 215.730469 132.371094 215.105469 C 132.089844 216.261719 131.839844 217.324219 130.964844 218.480469 C 130.402344 219.199219 129.558594 219.855469 128.558594 219.855469 C 128.246094 219.855469 127.277344 219.792969 126.902344 218.917969 C 127.246094 218.917969 127.527344 218.917969 127.839844 218.667969 C 128.058594 218.480469 128.277344 218.199219 128.277344 217.761719 C 128.277344 217.105469 127.683594 217.011719 127.464844 217.011719 C 126.964844 217.011719 126.246094 217.355469 126.246094 218.417969 C 126.246094 219.511719 127.214844 220.324219 128.558594 220.324219 C 130.808594 220.324219 133.058594 218.355469 133.652344 215.886719 Z M 135.746094 207.542969 "/>
<path fill-rule="nonzero" fill="rgb(0%, 0%, 0%)" fill-opacity="1" d="M 141.390625 208.46875 C 141.390625 208.03125 141.390625 208 140.953125 208 C 139.828125 209.125 138.171875 209.125 137.609375 209.125 L 137.609375 209.6875 C 137.953125 209.6875 139.046875 209.6875 140.015625 209.21875 L 140.015625 218.5 C 140.015625 219.15625 139.984375 219.375 138.296875 219.375 L 137.734375 219.375 L 137.734375 219.9375 C 138.359375 219.875 139.984375 219.875 140.703125 219.875 C 141.453125 219.875 143.046875 219.875 143.703125 219.9375 L 143.703125 219.375 L 143.140625 219.375 C 141.453125 219.375 141.390625 219.15625 141.390625 218.5 Z M 141.390625 208.46875 "/>
<path fill-rule="nonzero" fill="rgb(0%, 0%, 0%)" fill-opacity="1" d="M 300.566406 165.503906 C 300.660156 165.191406 300.660156 165.160156 300.660156 165.003906 C 300.660156 164.597656 300.347656 164.410156 300.035156 164.410156 C 299.816406 164.410156 299.472656 164.535156 299.253906 164.878906 C 299.222656 164.972656 299.035156 165.660156 298.972656 166.066406 C 298.816406 166.628906 298.660156 167.222656 298.535156 167.785156 L 297.535156 171.722656 C 297.441406 172.035156 296.503906 173.566406 295.066406 173.566406 C 293.972656 173.566406 293.722656 172.628906 293.722656 171.816406 C 293.722656 170.816406 294.097656 169.441406 294.847656 167.535156 C 295.191406 166.628906 295.285156 166.410156 295.285156 165.972656 C 295.285156 164.972656 294.566406 164.160156 293.472656 164.160156 C 291.410156 164.160156 290.597656 167.347656 290.597656 167.535156 C 290.597656 167.753906 290.816406 167.753906 290.878906 167.753906 C 291.097656 167.753906 291.097656 167.722656 291.222656 167.347656 C 291.816406 165.316406 292.691406 164.660156 293.410156 164.660156 C 293.597656 164.660156 293.972656 164.660156 293.972656 165.347656 C 293.972656 165.910156 293.753906 166.472656 293.597656 166.878906 C 292.722656 169.191406 292.316406 170.441406 292.316406 171.472656 C 292.316406 173.410156 293.691406 174.066406 295.003906 174.066406 C 295.847656 174.066406 296.566406 173.691406 297.191406 173.066406 C 296.910156 174.222656 296.660156 175.285156 295.785156 176.441406 C 295.222656 177.160156 294.378906 177.816406 293.378906 177.816406 C 293.066406 177.816406 292.097656 177.753906 291.722656 176.878906 C 292.066406 176.878906 292.347656 176.878906 292.660156 176.628906 C 292.878906 176.441406 293.097656 176.160156 293.097656 175.722656 C 293.097656 175.066406 292.503906 174.972656 292.285156 174.972656 C 291.785156 174.972656 291.066406 175.316406 291.066406 176.378906 C 291.066406 177.472656 292.035156 178.285156 293.378906 178.285156 C 295.628906 178.285156 297.878906 176.316406 298.472656 173.847656 Z M 300.566406 165.503906 "/>
<path fill-rule="nonzero" fill="rgb(0%, 0%, 0%)" fill-opacity="1" d="M 309.054688 174.710938 L 308.554688 174.710938 C 308.523438 174.960938 308.367188 176.023438 308.148438 176.304688 C 308.023438 176.460938 306.804688 176.460938 306.429688 176.460938 L 303.242188 176.460938 L 305.023438 174.773438 C 307.960938 172.242188 309.054688 171.273438 309.054688 169.460938 C 309.054688 167.398438 307.367188 165.960938 305.148438 165.960938 C 303.085938 165.960938 301.679688 167.585938 301.679688 169.210938 C 301.679688 170.117188 302.460938 170.210938 302.617188 170.210938 C 303.023438 170.210938 303.554688 169.929688 303.554688 169.273438 C 303.554688 168.742188 303.179688 168.335938 302.617188 168.335938 C 302.523438 168.335938 302.492188 168.335938 302.398438 168.367188 C 302.835938 167.085938 303.992188 166.523438 304.960938 166.523438 C 306.773438 166.523438 307.398438 168.210938 307.398438 169.460938 C 307.398438 171.273438 306.023438 172.773438 305.179688 173.710938 L 301.898438 177.242188 C 301.679688 177.460938 301.679688 177.492188 301.679688 177.898438 L 308.554688 177.898438 Z M 309.054688 174.710938 "/>
<path fill-rule="nonzero" fill="rgb(100%, 100%, 100%)" fill-opacity="1" d="M 72.695312 317.09375 L 107.492188 317.09375 L 107.492188 342.53125 L 72.695312 342.53125 Z M 72.695312 317.09375 "/>
<path fill-rule="nonzero" fill="rgb(0%, 0%, 0%)" fill-opacity="1" d="M 86 325.832031 C 86.125 325.269531 86.625 323.269531 88.15625 323.269531 C 88.28125 323.269531 88.78125 323.269531 89.25 323.550781 C 88.65625 323.644531 88.21875 324.207031 88.21875 324.738281 C 88.21875 325.082031 88.4375 325.488281 89.03125 325.488281 C 89.53125 325.488281 90.21875 325.082031 90.21875 324.238281 C 90.21875 323.082031 88.9375 322.769531 88.1875 322.769531 C 86.90625 322.769531 86.15625 323.925781 85.90625 324.457031 C 85.34375 322.988281 84.15625 322.769531 83.53125 322.769531 C 81.28125 322.769531 80.03125 325.613281 80.03125 326.144531 C 80.03125 326.363281 80.25 326.363281 80.28125 326.363281 C 80.46875 326.363281 80.53125 326.332031 80.5625 326.113281 C 81.3125 323.800781 82.75 323.269531 83.5 323.269531 C 83.90625 323.269531 84.6875 323.457031 84.6875 324.738281 C 84.6875 325.394531 84.3125 326.863281 83.5 329.925781 C 83.15625 331.269531 82.375 332.175781 81.4375 332.175781 C 81.28125 332.175781 80.78125 332.175781 80.34375 331.894531 C 80.875 331.800781 81.34375 331.332031 81.34375 330.738281 C 81.34375 330.144531 80.875 329.957031 80.5625 329.957031 C 79.90625 329.957031 79.34375 330.519531 79.34375 331.238281 C 79.34375 332.238281 80.4375 332.675781 81.40625 332.675781 C 82.84375 332.675781 83.625 331.144531 83.6875 331.019531 C 83.96875 331.800781 84.75 332.675781 86.0625 332.675781 C 88.28125 332.675781 89.53125 329.863281 89.53125 329.300781 C 89.53125 329.082031 89.34375 329.082031 89.28125 329.082031 C 89.09375 329.082031 89.03125 329.175781 89 329.332031 C 88.28125 331.675781 86.78125 332.175781 86.09375 332.175781 C 85.25 332.175781 84.90625 331.488281 84.90625 330.738281 C 84.90625 330.269531 85.03125 329.800781 85.25 328.832031 Z M 86 325.832031 "/>
<path fill-rule="nonzero" fill="rgb(0%, 0%, 0%)" fill-opacity="1" d="M 96.636719 325.039062 C 96.636719 324.601562 96.636719 324.570312 96.199219 324.570312 C 95.074219 325.695312 93.417969 325.695312 92.855469 325.695312 L 92.855469 326.257812 C 93.199219 326.257812 94.292969 326.257812 95.261719 325.789062 L 95.261719 335.070312 C 95.261719 335.726562 95.230469 335.945312 93.542969 335.945312 L 92.980469 335.945312 L 92.980469 336.507812 C 93.605469 336.445312 95.230469 336.445312 95.949219 336.445312 C 96.699219 336.445312 98.292969 336.445312 98.949219 336.507812 L 98.949219 335.945312 L 98.386719 335.945312 C 96.699219 335.945312 96.636719 335.726562 96.636719 335.070312 Z M 96.636719 325.039062 "/>
<path fill-rule="nonzero" fill="rgb(0%, 0%, 0%)" fill-opacity="1" d="M 29.765625 295.914062 L 29.953125 296.429688 L 30.164062 296.9375 L 30.382812 297.414062 L 30.601562 297.875 L 30.84375 298.320312 L 31.09375 298.75 L 31.351562 299.164062 L 31.617188 299.554688 L 31.898438 299.929688 L 32.1875 300.296875 L 32.484375 300.632812 L 32.789062 300.96875 L 33.109375 301.28125 L 33.4375 301.578125 L 33.773438 301.859375 L 34.117188 302.132812 L 34.46875 302.382812 L 34.835938 302.625 L 35.203125 302.851562 L 35.585938 303.070312 L 35.976562 303.273438 L 36.367188 303.460938 L 36.773438 303.640625 L 37.1875 303.804688 L 37.601562 303.960938 L 38.460938 304.242188 L 39.351562 304.476562 L 39.8125 304.578125 L 40.273438 304.671875 L 40.742188 304.757812 L 41.21875 304.835938 L 41.703125 304.90625 L 42.1875 304.96875 L 42.679688 305.023438 L 43.179688 305.070312 L 43.6875 305.109375 L 44.195312 305.140625 L 44.710938 305.164062 L 45.234375 305.1875 L 45.757812 305.203125 L 46.289062 305.210938 L 46.828125 305.21875 L 47.367188 305.21875 L 48.460938 305.203125 L 49.015625 305.195312 L 49.578125 305.179688 L 50.132812 305.164062 L 50.703125 305.148438 L 51.265625 305.125 L 52.421875 305.078125 L 52.992188 305.046875 L 53.578125 305.023438 L 54.164062 304.992188 L 54.75 304.96875 L 55.335938 304.9375 L 55.929688 304.914062 L 56.523438 304.882812 L 57.117188 304.859375 L 57.71875 304.835938 L 58.320312 304.820312 L 58.921875 304.796875 L 60.125 304.765625 L 60.734375 304.757812 L 61.335938 304.75 L 62.554688 304.75 L 63.773438 304.765625 L 64.375 304.78125 L 64.984375 304.804688 L 66.203125 304.867188 L 66.8125 304.90625 L 67.421875 304.953125 L 68.03125 305.007812 L 68.632812 305.070312 L 69.234375 305.140625 L 69.84375 305.21875 L 71.046875 305.40625 L 71.648438 305.515625 L 72.242188 305.625 L 73.429688 305.890625 L 74.023438 306.039062 L 74.617188 306.195312 L 75.203125 306.359375 L 75.789062 306.546875 L 76.367188 306.734375 L 76.945312 306.945312 L 77.523438 307.164062 L 78.09375 307.390625 L 78.664062 307.632812 L 79.226562 307.890625 L 79.789062 308.164062 L 80.34375 308.453125 L 80.898438 308.75 L 81.445312 309.070312 L 81.992188 309.398438 L 82.53125 309.75 L 83.070312 310.109375 L 83.601562 310.492188 L 84.125 310.890625 L 84.648438 311.304688 L 85.164062 311.734375 L 85.671875 312.1875 L 86.179688 312.65625 L 86.679688 313.140625 L 87.171875 313.640625 L 87.664062 314.164062 L 88.140625 314.710938 L 88.617188 315.273438 L 89.085938 315.859375 L 89.546875 316.460938 L 90 317.085938 L 90.453125 316.460938 L 90.914062 315.859375 L 91.390625 315.273438 L 91.859375 314.710938 L 92.34375 314.164062 L 92.828125 313.640625 L 93.320312 313.140625 L 93.820312 312.65625 L 94.328125 312.1875 L 94.835938 311.734375 L 95.351562 311.304688 L 95.875 310.890625 L 96.398438 310.492188 L 96.929688 310.109375 L 97.46875 309.75 L 98.007812 309.398438 L 98.554688 309.070312 L 99.101562 308.75 L 99.65625 308.453125 L 100.210938 308.164062 L 100.773438 307.890625 L 101.335938 307.632812 L 101.90625 307.390625 L 102.476562 307.164062 L 103.054688 306.945312 L 103.632812 306.734375 L 104.210938 306.546875 L 104.796875 306.359375 L 105.382812 306.195312 L 105.976562 306.039062 L 106.570312 305.890625 L 107.757812 305.625 L 108.351562 305.515625 L 108.953125 305.40625 L 110.15625 305.21875 L 110.765625 305.140625 L 111.367188 305.070312 L 111.976562 305.007812 L 112.578125 304.953125 L 113.1875 304.90625 L 113.796875 304.867188 L 115.015625 304.804688 L 115.625 304.78125 L 116.234375 304.765625 L 116.84375 304.757812 L 117.445312 304.75 L 118.664062 304.75 L 119.273438 304.757812 L 119.875 304.765625 L 121.078125 304.796875 L 121.6875 304.820312 L 122.28125 304.835938 L 122.882812 304.859375 L 123.476562 304.882812 L 124.070312 304.914062 L 124.664062 304.9375 L 125.25 304.96875 L 125.84375 304.992188 L 126.421875 305.023438 L 127.007812 305.046875 L 127.585938 305.078125 L 128.15625 305.101562 L 128.734375 305.125 L 129.304688 305.148438 L 130.429688 305.179688 L 130.984375 305.195312 L 131.539062 305.203125 L 132.632812 305.21875 L 133.171875 305.21875 L 133.710938 305.210938 L 134.242188 305.203125 L 134.765625 305.1875 L 135.289062 305.164062 L 135.804688 305.140625 L 136.320312 305.109375 L 136.820312 305.070312 L 137.320312 305.023438 L 137.8125 304.96875 L 138.304688 304.90625 L 138.789062 304.835938 L 139.257812 304.757812 L 139.726562 304.671875 L 140.1875 304.578125 L 140.648438 304.476562 L 141.539062 304.242188 L 142.398438 303.960938 L 142.820312 303.804688 L 143.226562 303.640625 L 143.632812 303.460938 L 144.03125 303.273438 L 144.414062 303.070312 L 144.796875 302.851562 L 145.171875 302.625 L 145.53125 302.382812 L 145.882812 302.132812 L 146.226562 301.859375 L 146.5625 301.578125 L 146.890625 301.28125 L 147.210938 300.96875 L 147.515625 300.632812 L 147.8125 300.296875 L 148.101562 299.929688 L 148.382812 299.554688 L 148.65625 299.164062 L 148.914062 298.75 L 149.15625 298.320312 L 149.398438 297.875 L 149.625 297.414062 L 149.835938 296.9375 L 150.046875 296.429688 L 150.234375 295.914062 L 149.953125 296.640625 L 149.65625 297.34375 L 149.351562 298.015625 L 149.046875 298.671875 L 148.726562 299.296875 L 148.40625 299.898438 L 148.070312 300.476562 L 147.726562 301.03125 L 147.382812 301.5625 L 147.023438 302.070312 L 146.664062 302.554688 L 146.296875 303.023438 L 145.921875 303.46875 L 145.539062 303.890625 L 145.148438 304.289062 L 144.75 304.671875 L 144.351562 305.03125 L 143.945312 305.375 L 143.53125 305.695312 L 143.109375 306.007812 L 142.679688 306.289062 L 142.25 306.5625 L 141.8125 306.8125 L 141.367188 307.046875 L 140.921875 307.265625 L 140.46875 307.46875 L 140.007812 307.65625 L 139.546875 307.828125 L 139.078125 307.992188 L 138.601562 308.132812 L 138.125 308.265625 L 137.640625 308.382812 L 137.15625 308.484375 L 136.664062 308.578125 L 136.164062 308.65625 L 135.664062 308.71875 L 135.15625 308.78125 L 134.648438 308.820312 L 134.132812 308.859375 L 133.617188 308.882812 L 133.09375 308.898438 L 132.570312 308.90625 L 132.046875 308.90625 L 131.515625 308.890625 L 130.976562 308.875 L 130.4375 308.84375 L 129.90625 308.8125 L 129.359375 308.773438 L 128.8125 308.726562 L 128.265625 308.671875 L 127.710938 308.617188 L 127.164062 308.554688 L 126.601562 308.484375 L 126.046875 308.414062 L 125.484375 308.34375 L 124.359375 308.1875 L 123.796875 308.101562 L 122.085938 307.84375 L 121.515625 307.75 L 120.375 307.578125 L 119.796875 307.484375 L 119.21875 307.398438 L 118.648438 307.3125 L 118.070312 307.226562 L 116.335938 306.992188 L 115.179688 306.851562 L 114.023438 306.726562 L 113.445312 306.671875 L 112.289062 306.578125 L 111.710938 306.546875 L 111.140625 306.515625 L 110.5625 306.492188 L 109.992188 306.476562 L 109.414062 306.46875 L 108.273438 306.484375 L 107.703125 306.507812 L 107.140625 306.539062 L 106.570312 306.578125 L 106.007812 306.625 L 105.445312 306.695312 L 104.890625 306.765625 L 104.328125 306.851562 L 103.773438 306.945312 L 103.21875 307.0625 L 102.671875 307.1875 L 102.117188 307.320312 L 101.570312 307.476562 L 101.03125 307.640625 L 100.484375 307.820312 L 99.953125 308.015625 L 99.421875 308.234375 L 98.890625 308.460938 L 98.359375 308.703125 L 97.835938 308.96875 L 97.3125 309.242188 L 96.796875 309.546875 L 96.28125 309.859375 L 95.773438 310.195312 L 95.265625 310.546875 L 94.765625 310.921875 L 94.265625 311.3125 L 93.773438 311.726562 L 93.289062 312.15625 L 92.804688 312.609375 L 92.320312 313.09375 L 91.851562 313.585938 L 91.375 314.109375 L 90.914062 314.65625 L 90.453125 315.226562 L 90 315.8125 L 89.546875 315.226562 L 89.085938 314.65625 L 88.625 314.109375 L 88.15625 313.585938 L 87.679688 313.09375 L 87.195312 312.609375 L 86.71875 312.15625 L 86.226562 311.726562 L 85.734375 311.3125 L 85.234375 310.921875 L 84.734375 310.546875 L 84.226562 310.195312 L 83.71875 309.859375 L 83.203125 309.546875 L 82.6875 309.242188 L 82.164062 308.96875 L 81.648438 308.703125 L 81.117188 308.460938 L 80.585938 308.234375 L 80.046875 308.015625 L 79.515625 307.820312 L 78.96875 307.640625 L 78.429688 307.476562 L 77.882812 307.320312 L 77.335938 307.1875 L 76.78125 307.0625 L 76.226562 306.945312 L 75.671875 306.851562 L 75.117188 306.765625 L 73.992188 306.625 L 73.429688 306.578125 L 72.867188 306.539062 L 72.296875 306.507812 L 71.726562 306.484375 L 70.585938 306.46875 L 70.015625 306.476562 L 69.4375 306.492188 L 68.867188 306.515625 L 67.710938 306.578125 L 66.554688 306.671875 L 65.976562 306.726562 L 64.820312 306.851562 L 63.664062 306.992188 L 61.929688 307.226562 L 61.359375 307.3125 L 60.203125 307.484375 L 59.632812 307.578125 L 59.054688 307.664062 L 58.484375 307.75 L 57.914062 307.84375 L 56.203125 308.101562 L 55.640625 308.1875 L 54.515625 308.34375 L 53.953125 308.414062 L 53.398438 308.484375 L 52.835938 308.554688 L 52.289062 308.617188 L 51.734375 308.671875 L 51.1875 308.726562 L 50.640625 308.773438 L 50.101562 308.8125 L 49.023438 308.875 L 48.484375 308.890625 L 47.960938 308.90625 L 47.429688 308.90625 L 46.90625 308.898438 L 46.382812 308.882812 L 45.867188 308.859375 L 45.351562 308.820312 L 44.84375 308.78125 L 44.34375 308.71875 L 43.835938 308.65625 L 43.34375 308.578125 L 42.851562 308.484375 L 42.359375 308.382812 L 41.875 308.265625 L 41.398438 308.132812 L 40.921875 307.992188 L 40.453125 307.828125 L 39.992188 307.65625 L 39.53125 307.46875 L 39.078125 307.265625 L 38.632812 307.046875 L 38.1875 306.8125 L 37.75 306.5625 L 37.320312 306.289062 L 36.890625 306.007812 L 36.46875 305.695312 L 36.054688 305.375 L 35.648438 305.03125 L 35.25 304.671875 L 34.851562 304.289062 L 34.460938 303.890625 L 34.078125 303.46875 L 33.703125 303.023438 L 33.335938 302.554688 L 32.976562 302.070312 L 32.617188 301.5625 L 32.273438 301.03125 L 31.929688 300.476562 L 31.601562 299.898438 L 31.273438 299.296875 L 30.953125 298.671875 L 30.648438 298.015625 L 30.34375 297.34375 L 30.046875 296.640625 L 29.765625 295.914062 "/>
<path fill="none" stroke-width="3.985" stroke-linecap="butt" stroke-linejoin="miter" stroke="rgb(0%, 0%, 0%)" stroke-opacity="1" stroke-miterlimit="10" d="M 148.828123 540.429679 L 149.765623 537.851554 L 150.82031 535.312492 L 151.91406 532.92968 L 153.00781 530.624992 L 154.218748 528.39843 L 155.468748 526.249992 L 156.75781 524.17968 L 158.085935 522.226555 L 159.492185 520.351555 L 160.937498 518.515617 L 162.421873 516.83593 L 163.94531 515.156242 L 165.546873 513.593742 L 167.187498 512.109367 L 168.867185 510.703117 L 170.585935 509.33593 L 172.343747 508.08593 L 174.179685 506.874992 L 176.015622 505.74218 L 177.929685 504.64843 L 179.88281 503.632805 L 181.835935 502.695305 L 183.867185 501.796868 L 185.937497 500.976555 L 188.00781 500.195305 L 192.304685 498.789055 L 196.75781 497.61718 L 199.062497 497.109368 L 201.367184 496.640618 L 203.710934 496.21093 L 206.093747 495.820305 L 208.515622 495.468743 L 210.937497 495.156243 L 213.398434 494.882805 L 215.898434 494.64843 L 218.437497 494.453118 L 220.976559 494.296868 L 223.554684 494.17968 L 226.171872 494.062493 L 228.789059 493.984368 L 231.445309 493.945305 L 234.140622 493.906243 L 236.835934 493.906243 L 242.304684 493.984368 L 245.078121 494.02343 L 247.890621 494.101555 L 250.664059 494.17968 L 253.515621 494.257805 L 256.328121 494.374993 L 262.109371 494.609368 L 264.960934 494.765618 L 267.890621 494.882805 L 270.820308 495.039055 L 273.749996 495.156243 L 276.679683 495.312493 L 279.648433 495.42968 L 282.617183 495.58593 L 285.585933 495.703118 L 288.593746 495.820305 L 291.601558 495.89843 L 294.609371 496.015618 L 300.624996 496.171868 L 303.67187 496.21093 L 306.679683 496.249993 L 312.773433 496.249993 L 318.867183 496.171868 L 321.874995 496.093743 L 324.92187 495.976555 L 331.01562 495.664055 L 334.062495 495.468743 L 337.10937 495.234368 L 340.156245 494.96093 L 343.164057 494.64843 L 346.17187 494.296868 L 349.218745 493.906243 L 355.23437 492.968743 L 358.242182 492.421868 L 361.210932 491.874993 L 367.148432 490.546868 L 370.117182 489.80468 L 373.085932 489.02343 L 376.015619 488.203118 L 378.945307 487.265618 L 381.835932 486.328118 L 384.726557 485.27343 L 387.617182 484.17968 L 390.468744 483.046868 L 393.320307 481.83593 L 396.132807 480.546868 L 398.945307 479.17968 L 401.718744 477.734368 L 404.492181 476.249993 L 407.226556 474.64843 L 409.960931 473.007805 L 412.656244 471.249993 L 415.351556 469.453118 L 418.007806 467.539056 L 420.624994 465.546868 L 423.242181 463.476556 L 425.820306 461.328118 L 428.359369 459.062493 L 430.898431 456.718743 L 433.398431 454.296868 L 435.859369 451.796868 L 438.320306 449.179681 L 440.703118 446.445306 L 443.085931 443.632806 L 445.429681 440.703118 L 447.734368 437.695306 L 449.999993 434.570306 L 452.265618 437.695306 L 454.570306 440.703118 L 456.953118 443.632806 L 459.296868 446.445306 L 461.718743 449.179681 L 464.140618 451.796868 L 466.601556 454.296868 L 469.101556 456.718743 L 471.640618 459.062493 L 474.17968 461.328118 L 476.757805 463.476556 L 479.374993 465.546868 L 481.99218 467.539056 L 484.64843 469.453118 L 487.343743 471.249993 L 490.039055 473.007805 L 492.77343 474.64843 L 495.507805 476.249993 L 498.281243 477.734368 L 501.05468 479.17968 L 503.86718 480.546868 L 506.67968 481.83593 L 509.531242 483.046868 L 512.382805 484.17968 L 515.27343 485.27343 L 518.164055 486.328118 L 521.05468 487.265618 L 523.984367 488.203118 L 526.914055 489.02343 L 529.882805 489.80468 L 532.851555 490.546868 L 538.789054 491.874993 L 541.757804 492.421868 L 544.765617 492.968743 L 550.781242 493.906243 L 553.828117 494.296868 L 556.835929 494.64843 L 559.882804 494.96093 L 562.890617 495.234368 L 565.937492 495.468743 L 568.984367 495.664055 L 575.078116 495.976555 L 578.124991 496.093743 L 581.171866 496.171868 L 584.218741 496.21093 L 587.226554 496.249993 L 593.320304 496.249993 L 596.367179 496.21093 L 599.374991 496.171868 L 605.390616 496.015618 L 608.437491 495.89843 L 611.406241 495.820305 L 614.414053 495.703118 L 617.382803 495.58593 L 620.351553 495.42968 L 623.320303 495.312493 L 626.249991 495.156243 L 629.218741 495.039055 L 632.109366 494.882805 L 635.039053 494.765618 L 637.929678 494.609368 L 640.78124 494.49218 L 643.671865 494.374993 L 646.523428 494.257805 L 652.148428 494.101555 L 654.921865 494.02343 L 657.695303 493.984368 L 663.164053 493.906243 L 665.859365 493.906243 L 668.554678 493.945305 L 671.210927 493.984368 L 673.828115 494.062493 L 676.445302 494.17968 L 679.023427 494.296868 L 681.601552 494.453118 L 684.101552 494.64843 L 686.601552 494.882805 L 689.06249 495.156243 L 691.523427 495.468743 L 693.945302 495.820305 L 696.289052 496.21093 L 698.632802 496.640618 L 700.93749 497.109368 L 703.242177 497.61718 L 707.695302 498.789055 L 711.992177 500.195305 L 714.101552 500.976555 L 716.132802 501.796868 L 718.164052 502.695305 L 720.156239 503.632805 L 722.070302 504.64843 L 723.984364 505.74218 L 725.859364 506.874992 L 727.656239 508.08593 L 729.414052 509.33593 L 731.132802 510.703117 L 732.812489 512.109367 L 734.453114 513.593742 L 736.054677 515.156242 L 737.578114 516.83593 L 739.062489 518.515617 L 740.507801 520.351555 L 741.914051 522.226555 L 743.281239 524.17968 L 744.570301 526.249992 L 745.781239 528.39843 L 746.992176 530.624992 L 748.124989 532.92968 L 749.179676 535.312492 L 750.234364 537.851554 L 751.171864 540.429679 L 749.765614 536.796867 L 748.281239 533.281242 L 746.757801 529.921867 L 745.234364 526.640617 L 743.632801 523.515617 L 742.031239 520.507805 L 740.351551 517.61718 L 738.632801 514.843742 L 736.914052 512.187492 L 735.117177 509.64843 L 733.320302 507.226555 L 731.484364 504.882805 L 729.609364 502.656243 L 727.695302 500.546868 L 725.742177 498.55468 L 723.749989 496.640618 L 721.757802 494.843743 L 719.726552 493.124993 L 717.656239 491.52343 L 715.546864 489.96093 L 713.398427 488.55468 L 711.249989 487.187493 L 709.062489 485.937493 L 706.835927 484.765618 L 704.609365 483.671868 L 702.34374 482.656243 L 700.039052 481.718743 L 697.734365 480.859368 L 695.390615 480.039055 L 693.007802 479.33593 L 690.62499 478.671868 L 688.203115 478.08593 L 685.78124 477.578118 L 683.320302 477.109368 L 680.820302 476.718743 L 678.320302 476.406243 L 675.78124 476.093743 L 673.242177 475.89843 L 670.664053 475.703118 L 668.085928 475.58593 L 665.46874 475.507805 L 662.851553 475.468743 L 660.234365 475.468743 L 657.578115 475.546868 L 654.882803 475.624993 L 652.18749 475.781243 L 649.53124 475.937493 L 646.796865 476.132805 L 644.06249 476.36718 L 641.328115 476.640618 L 638.554678 476.914055 L 635.820303 477.226555 L 633.007803 477.578118 L 630.234366 477.92968 L 627.421866 478.281243 L 621.796866 479.062493 L 618.984366 479.49218 L 610.429678 480.781243 L 607.578116 481.249993 L 601.874991 482.109368 L 598.984366 482.578118 L 596.093741 483.007805 L 593.242179 483.437493 L 590.351554 483.86718 L 581.679679 485.039055 L 575.898429 485.74218 L 570.117179 486.36718 L 567.226554 486.640618 L 561.445304 487.109368 L 558.554679 487.265618 L 555.703117 487.421868 L 552.812492 487.539055 L 549.960929 487.61718 L 547.070304 487.656243 L 541.367179 487.578118 L 538.515617 487.46093 L 535.703117 487.30468 L 532.851555 487.109368 L 530.039055 486.874993 L 527.226555 486.52343 L 524.453117 486.171868 L 521.640617 485.74218 L 518.86718 485.27343 L 516.093742 484.687493 L 513.359367 484.062493 L 510.58593 483.39843 L 507.851555 482.61718 L 505.156242 481.796868 L 502.421868 480.89843 L 499.765618 479.921868 L 497.109368 478.828118 L 494.453118 477.695305 L 491.796868 476.484368 L 489.17968 475.156243 L 486.562493 473.789055 L 483.984368 472.265618 L 481.406243 470.703118 L 478.86718 469.023431 L 476.328118 467.265618 L 473.828118 465.390618 L 471.328118 463.437493 L 468.867181 461.367181 L 466.445306 459.218743 L 464.023431 456.953118 L 461.601556 454.531243 L 459.257806 452.070306 L 456.874993 449.453118 L 454.570306 446.718743 L 452.265618 443.867181 L 449.999993 440.937493 L 447.734368 443.867181 L 445.429681 446.718743 L 443.124993 449.453118 L 440.781243 452.070306 L 438.398431 454.531243 L 435.976556 456.953118 L 433.593744 459.218743 L 431.132806 461.367181 L 428.671869 463.437493 L 426.171869 465.390618 L 423.671869 467.265618 L 421.132806 469.023431 L 418.593744 470.703118 L 416.015619 472.265618 L 413.437494 473.789055 L 410.820306 475.156243 L 408.242181 476.484368 L 405.585931 477.695305 L 402.929681 478.828118 L 400.234369 479.921868 L 397.578119 480.89843 L 394.843744 481.796868 L 392.148432 482.61718 L 389.414057 483.39843 L 386.679682 484.062493 L 383.906244 484.687493 L 381.132807 485.27343 L 378.359369 485.74218 L 375.585932 486.171868 L 369.960932 486.874993 L 367.148432 487.109368 L 364.335932 487.30468 L 361.48437 487.46093 L 358.632807 487.578118 L 352.929682 487.656243 L 350.07812 487.61718 L 347.187495 487.539055 L 344.335932 487.421868 L 338.554682 487.109368 L 332.773433 486.640618 L 329.882808 486.36718 L 324.101558 485.74218 L 318.320308 485.039055 L 309.648433 483.86718 L 306.79687 483.437493 L 301.015621 482.578118 L 298.164058 482.109368 L 295.273433 481.67968 L 292.421871 481.249993 L 289.570308 480.781243 L 281.015621 479.49218 L 278.203121 479.062493 L 272.578121 478.281243 L 269.765621 477.92968 L 266.992184 477.578118 L 264.179684 477.226555 L 261.445309 476.914055 L 258.671871 476.640618 L 255.937496 476.36718 L 253.203121 476.132805 L 250.507809 475.937493 L 245.117184 475.624993 L 242.421871 475.546868 L 239.804684 475.468743 L 237.148434 475.468743 L 234.531247 475.507805 L 231.914059 475.58593 L 229.335934 475.703118 L 226.757809 475.89843 L 224.218747 476.093743 L 221.718747 476.406243 L 219.179684 476.718743 L 216.718747 477.109368 L 214.257809 477.578118 L 211.796872 478.08593 L 209.374997 478.671868 L 206.992184 479.33593 L 204.609372 480.039055 L 202.265622 480.859368 L 199.960935 481.718743 L 197.656247 482.656243 L 195.390622 483.671868 L 193.16406 484.765618 L 190.937497 485.937493 L 188.749997 487.187493 L 186.60156 488.55468 L 184.453122 489.96093 L 182.343747 491.52343 L 180.273435 493.124993 L 178.242185 494.843743 L 176.249997 496.640618 L 174.25781 498.55468 L 172.304685 500.546868 L 170.390622 502.656243 L 168.515622 504.882805 L 166.679685 507.226555 L 164.88281 509.64843 L 163.085935 512.187492 L 161.367185 514.843742 L 159.648435 517.61718 L 158.00781 520.507805 L 156.367185 523.515617 L 154.765623 526.640617 L 153.242185 529.921867 L 151.718748 533.281242 L 150.234373 536.796867 Z M 148.828123 540.429679 " transform="matrix(0.2, 0, 0, -0.2, 0, 404)"/>
<path fill-rule="nonzero" fill="rgb(100%, 100%, 100%)" fill-opacity="1" d="M 136.695312 353.09375 L 171.492188 353.09375 L 171.492188 378.53125 L 136.695312 378.53125 Z M 136.695312 353.09375 "/>
<path fill-rule="nonzero" fill="rgb(0%, 0%, 0%)" fill-opacity="1" d="M 150.003906 361.835938 C 150.128906 361.273438 150.628906 359.273438 152.160156 359.273438 C 152.285156 359.273438 152.785156 359.273438 153.253906 359.554688 C 152.660156 359.648438 152.222656 360.210938 152.222656 360.742188 C 152.222656 361.085938 152.441406 361.492188 153.035156 361.492188 C 153.535156 361.492188 154.222656 361.085938 154.222656 360.242188 C 154.222656 359.085938 152.941406 358.773438 152.191406 358.773438 C 150.910156 358.773438 150.160156 359.929688 149.910156 360.460938 C 149.347656 358.992188 148.160156 358.773438 147.535156 358.773438 C 145.285156 358.773438 144.035156 361.617188 144.035156 362.148438 C 144.035156 362.367188 144.253906 362.367188 144.285156 362.367188 C 144.472656 362.367188 144.535156 362.335938 144.566406 362.117188 C 145.316406 359.804688 146.753906 359.273438 147.503906 359.273438 C 147.910156 359.273438 148.691406 359.460938 148.691406 360.742188 C 148.691406 361.398438 148.316406 362.867188 147.503906 365.929688 C 147.160156 367.273438 146.378906 368.179688 145.441406 368.179688 C 145.285156 368.179688 144.785156 368.179688 144.347656 367.898438 C 144.878906 367.804688 145.347656 367.335938 145.347656 366.742188 C 145.347656 366.148438 144.878906 365.960938 144.566406 365.960938 C 143.910156 365.960938 143.347656 366.523438 143.347656 367.242188 C 143.347656 368.242188 144.441406 368.679688 145.410156 368.679688 C 146.847656 368.679688 147.628906 367.148438 147.691406 367.023438 C 147.972656 367.804688 148.753906 368.679688 150.066406 368.679688 C 152.285156 368.679688 153.535156 365.867188 153.535156 365.304688 C 153.535156 365.085938 153.347656 365.085938 153.285156 365.085938 C 153.097656 365.085938 153.035156 365.179688 153.003906 365.335938 C 152.285156 367.679688 150.785156 368.179688 150.097656 368.179688 C 149.253906 368.179688 148.910156 367.492188 148.910156 366.742188 C 148.910156 366.273438 149.035156 365.804688 149.253906 364.835938 Z M 150.003906 361.835938 "/>
<path fill-rule="nonzero" fill="rgb(0%, 0%, 0%)" fill-opacity="1" d="M 163.480469 369.320312 L 162.980469 369.320312 C 162.949219 369.570312 162.792969 370.632812 162.574219 370.914062 C 162.449219 371.070312 161.230469 371.070312 160.855469 371.070312 L 157.667969 371.070312 L 159.449219 369.382812 C 162.386719 366.851562 163.480469 365.882812 163.480469 364.070312 C 163.480469 362.007812 161.792969 360.570312 159.574219 360.570312 C 157.511719 360.570312 156.105469 362.195312 156.105469 363.820312 C 156.105469 364.726562 156.886719 364.820312 157.042969 364.820312 C 157.449219 364.820312 157.980469 364.539062 157.980469 363.882812 C 157.980469 363.351562 157.605469 362.945312 157.042969 362.945312 C 156.949219 362.945312 156.917969 362.945312 156.824219 362.976562 C 157.261719 361.695312 158.417969 361.132812 159.386719 361.132812 C 161.199219 361.132812 161.824219 362.820312 161.824219 364.070312 C 161.824219 365.882812 160.449219 367.382812 159.605469 368.320312 L 156.324219 371.851562 C 156.105469 372.070312 156.105469 372.101562 156.105469 372.507812 L 162.980469 372.507812 Z M 163.480469 369.320312 "/>
<path fill-rule="nonzero" fill="rgb(0%, 0%, 0%)" fill-opacity="1" d="M 29.765625 331.914062 L 29.96875 332.429688 L 30.210938 332.9375 L 30.492188 333.414062 L 30.8125 333.882812 L 31.164062 334.328125 L 31.554688 334.75 L 31.976562 335.164062 L 32.4375 335.554688 L 32.921875 335.9375 L 33.445312 336.296875 L 34 336.640625 L 34.585938 336.96875 L 35.203125 337.28125 L 35.84375 337.578125 L 36.523438 337.859375 L 37.226562 338.132812 L 37.960938 338.382812 L 38.71875 338.625 L 39.507812 338.851562 L 40.328125 339.070312 L 41.171875 339.273438 L 42.03125 339.460938 L 42.929688 339.640625 L 43.835938 339.804688 L 44.78125 339.960938 L 45.742188 340.109375 L 46.726562 340.242188 L 47.734375 340.359375 L 48.765625 340.476562 L 49.8125 340.578125 L 50.882812 340.671875 L 51.96875 340.757812 L 53.078125 340.835938 L 54.203125 340.90625 L 55.34375 340.96875 L 56.507812 341.023438 L 57.679688 341.070312 L 58.875 341.109375 L 60.078125 341.140625 L 61.304688 341.164062 L 62.539062 341.1875 L 63.789062 341.203125 L 65.054688 341.210938 L 66.328125 341.21875 L 67.617188 341.21875 L 68.914062 341.210938 L 70.226562 341.203125 L 71.546875 341.195312 L 72.875 341.179688 L 74.210938 341.164062 L 75.554688 341.148438 L 76.90625 341.125 L 78.265625 341.101562 L 79.632812 341.078125 L 81.007812 341.046875 L 82.382812 341.023438 L 83.765625 340.992188 L 85.148438 340.96875 L 86.539062 340.9375 L 87.929688 340.914062 L 89.320312 340.882812 L 92.117188 340.835938 L 93.515625 340.820312 L 94.914062 340.796875 L 96.304688 340.78125 L 97.703125 340.765625 L 100.484375 340.75 L 103.257812 340.75 L 106.007812 340.765625 L 107.375 340.78125 L 108.734375 340.804688 L 110.09375 340.835938 L 111.4375 340.867188 L 112.78125 340.90625 L 114.109375 340.953125 L 115.4375 341.007812 L 116.75 341.070312 L 118.054688 341.140625 L 119.34375 341.21875 L 120.625 341.3125 L 121.890625 341.40625 L 123.148438 341.515625 L 124.382812 341.632812 L 125.617188 341.757812 L 126.828125 341.890625 L 128.023438 342.039062 L 129.210938 342.195312 L 130.375 342.359375 L 131.523438 342.546875 L 132.65625 342.734375 L 133.773438 342.945312 L 134.867188 343.164062 L 135.9375 343.390625 L 137 343.632812 L 138.03125 343.898438 L 139.046875 344.164062 L 140.039062 344.453125 L 141.015625 344.75 L 141.960938 345.070312 L 142.882812 345.398438 L 143.789062 345.75 L 144.664062 346.109375 L 145.507812 346.492188 L 146.335938 346.890625 L 147.132812 347.304688 L 147.90625 347.734375 L 148.648438 348.1875 L 149.367188 348.65625 L 150.054688 349.140625 L 150.710938 349.648438 L 151.335938 350.164062 L 151.9375 350.710938 L 152.5 351.273438 L 153.03125 351.859375 L 153.53125 352.460938 L 154 353.085938 L 154.46875 352.460938 L 154.96875 351.859375 L 155.507812 351.273438 L 156.070312 350.710938 L 156.664062 350.164062 L 157.296875 349.648438 L 157.953125 349.140625 L 158.640625 348.65625 L 159.351562 348.1875 L 160.09375 347.734375 L 160.867188 347.304688 L 161.664062 346.890625 L 162.492188 346.492188 L 163.34375 346.109375 L 164.21875 345.75 L 165.117188 345.398438 L 166.039062 345.070312 L 166.992188 344.75 L 167.960938 344.453125 L 168.953125 344.164062 L 169.96875 343.898438 L 171.007812 343.632812 L 172.0625 343.390625 L 173.140625 343.164062 L 174.234375 342.945312 L 175.34375 342.734375 L 176.476562 342.546875 L 177.632812 342.359375 L 178.796875 342.195312 L 179.976562 342.039062 L 181.171875 341.890625 L 182.390625 341.757812 L 183.617188 341.632812 L 184.859375 341.515625 L 186.117188 341.40625 L 187.382812 341.3125 L 188.664062 341.21875 L 189.953125 341.140625 L 191.257812 341.070312 L 192.570312 341.007812 L 193.890625 340.953125 L 195.21875 340.90625 L 196.5625 340.867188 L 199.265625 340.804688 L 200.625 340.78125 L 201.992188 340.765625 L 203.367188 340.757812 L 204.75 340.75 L 207.515625 340.75 L 208.90625 340.757812 L 210.304688 340.765625 L 211.695312 340.78125 L 213.09375 340.796875 L 214.492188 340.820312 L 215.882812 340.835938 L 218.679688 340.882812 L 220.070312 340.914062 L 221.460938 340.9375 L 222.851562 340.96875 L 224.234375 340.992188 L 225.625 341.023438 L 227 341.046875 L 228.375 341.078125 L 232.453125 341.148438 L 233.796875 341.164062 L 235.132812 341.179688 L 236.460938 341.195312 L 237.78125 341.203125 L 239.085938 341.210938 L 240.382812 341.21875 L 241.671875 341.21875 L 242.953125 341.210938 L 244.210938 341.203125 L 245.460938 341.1875 L 246.695312 341.164062 L 247.921875 341.140625 L 249.125 341.109375 L 250.320312 341.070312 L 251.5 341.023438 L 252.65625 340.96875 L 253.804688 340.90625 L 254.929688 340.835938 L 256.03125 340.757812 L 257.125 340.671875 L 258.195312 340.578125 L 259.242188 340.476562 L 260.265625 340.359375 L 261.273438 340.242188 L 262.265625 340.109375 L 263.21875 339.960938 L 264.164062 339.804688 L 265.078125 339.640625 L 265.96875 339.460938 L 266.835938 339.273438 L 267.679688 339.070312 L 268.492188 338.851562 L 269.28125 338.625 L 270.039062 338.382812 L 270.773438 338.132812 L 271.484375 337.859375 L 272.15625 337.578125 L 272.804688 337.28125 L 273.421875 336.96875 L 274.007812 336.640625 L 274.554688 336.296875 L 275.078125 335.9375 L 275.570312 335.554688 L 276.023438 335.164062 L 276.445312 334.75 L 276.835938 334.328125 L 277.1875 333.882812 L 277.507812 333.414062 L 277.789062 332.9375 L 278.03125 332.429688 L 278.234375 331.914062 L 277.9375 332.640625 L 277.609375 333.34375 L 277.234375 334.023438 L 276.835938 334.671875 L 276.40625 335.296875 L 275.9375 335.898438 L 275.445312 336.476562 L 274.914062 337.03125 L 274.359375 337.5625 L 273.765625 338.070312 L 273.148438 338.554688 L 272.507812 339.023438 L 271.828125 339.46875 L 271.125 339.890625 L 270.398438 340.289062 L 269.640625 340.671875 L 268.859375 341.03125 L 268.054688 341.375 L 267.226562 341.695312 L 266.375 342.007812 L 265.492188 342.289062 L 264.59375 342.5625 L 263.664062 342.8125 L 262.71875 343.046875 L 261.75 343.265625 L 260.757812 343.46875 L 259.75 343.65625 L 258.71875 343.835938 L 257.671875 343.992188 L 256.601562 344.132812 L 255.515625 344.265625 L 254.414062 344.382812 L 253.296875 344.484375 L 252.15625 344.578125 L 251.007812 344.65625 L 249.835938 344.71875 L 248.65625 344.78125 L 247.460938 344.820312 L 246.25 344.859375 L 245.023438 344.882812 L 243.789062 344.898438 L 242.539062 344.90625 L 241.28125 344.90625 L 240.015625 344.890625 L 238.734375 344.875 L 237.445312 344.84375 L 236.140625 344.8125 L 234.828125 344.773438 L 233.515625 344.726562 L 232.195312 344.671875 L 230.859375 344.617188 L 229.523438 344.554688 L 228.179688 344.484375 L 225.476562 344.34375 L 224.125 344.265625 L 222.757812 344.1875 L 221.398438 344.101562 L 220.03125 344.015625 L 218.65625 343.929688 L 215.921875 343.757812 L 214.546875 343.664062 L 213.179688 343.578125 L 211.804688 343.484375 L 209.070312 343.3125 L 207.710938 343.226562 L 206.34375 343.148438 L 204.992188 343.070312 L 203.632812 342.992188 L 200.945312 342.851562 L 199.601562 342.789062 L 198.273438 342.726562 L 196.945312 342.671875 L 195.632812 342.625 L 194.320312 342.585938 L 193.023438 342.546875 L 191.726562 342.515625 L 190.453125 342.492188 L 189.179688 342.476562 L 187.921875 342.46875 L 186.671875 342.476562 L 185.4375 342.484375 L 184.210938 342.507812 L 183 342.539062 L 181.796875 342.578125 L 180.617188 342.632812 L 179.445312 342.695312 L 178.296875 342.765625 L 177.15625 342.851562 L 176.039062 342.945312 L 174.929688 343.0625 L 173.84375 343.1875 L 172.773438 343.320312 L 171.726562 343.476562 L 170.695312 343.640625 L 169.679688 343.820312 L 168.695312 344.023438 L 167.726562 344.234375 L 166.773438 344.460938 L 165.851562 344.703125 L 164.945312 344.96875 L 164.0625 345.242188 L 163.203125 345.546875 L 162.375 345.859375 L 161.5625 346.195312 L 160.78125 346.546875 L 160.023438 346.921875 L 159.296875 347.3125 L 158.59375 347.726562 L 157.914062 348.15625 L 157.265625 348.617188 L 156.648438 349.09375 L 156.054688 349.585938 L 155.5 350.109375 L 154.96875 350.65625 L 154.46875 351.226562 L 154 351.8125 L 153.53125 351.226562 L 153.03125 350.65625 L 152.507812 350.109375 L 151.945312 349.585938 L 151.351562 349.09375 L 150.734375 348.617188 L 150.085938 348.15625 L 149.414062 347.726562 L 148.710938 347.3125 L 147.976562 346.921875 L 147.21875 346.546875 L 146.4375 346.195312 L 145.632812 345.859375 L 144.796875 345.546875 L 143.9375 345.242188 L 143.0625 344.96875 L 142.15625 344.703125 L 141.226562 344.460938 L 140.28125 344.234375 L 139.3125 344.023438 L 138.320312 343.820312 L 137.3125 343.640625 L 136.28125 343.476562 L 135.226562 343.320312 L 134.15625 343.1875 L 133.070312 343.0625 L 131.96875 342.945312 L 130.84375 342.851562 L 129.710938 342.765625 L 128.554688 342.695312 L 127.390625 342.632812 L 126.203125 342.578125 L 125.007812 342.539062 L 123.796875 342.507812 L 122.570312 342.484375 L 121.335938 342.476562 L 120.085938 342.46875 L 118.828125 342.476562 L 117.554688 342.492188 L 116.273438 342.515625 L 114.984375 342.546875 L 113.679688 342.585938 L 112.367188 342.625 L 111.054688 342.671875 L 109.726562 342.726562 L 108.398438 342.789062 L 107.0625 342.851562 L 105.71875 342.921875 L 104.367188 342.992188 L 103.015625 343.070312 L 100.296875 343.226562 L 96.195312 343.484375 L 94.828125 343.578125 L 93.453125 343.664062 L 92.085938 343.757812 L 90.710938 343.84375 L 89.34375 343.929688 L 87.96875 344.015625 L 86.601562 344.101562 L 85.242188 344.1875 L 82.523438 344.34375 L 79.820312 344.484375 L 78.476562 344.554688 L 77.140625 344.617188 L 74.484375 344.726562 L 73.171875 344.773438 L 71.859375 344.8125 L 70.5625 344.84375 L 69.273438 344.875 L 67.992188 344.890625 L 66.71875 344.90625 L 65.460938 344.90625 L 64.210938 344.898438 L 62.976562 344.882812 L 61.757812 344.859375 L 60.546875 344.820312 L 59.34375 344.78125 L 58.164062 344.71875 L 57 344.65625 L 55.84375 344.578125 L 54.710938 344.484375 L 53.585938 344.382812 L 52.484375 344.265625 L 51.398438 344.132812 L 50.328125 343.992188 L 49.28125 343.835938 L 48.257812 343.65625 L 47.242188 343.46875 L 46.257812 343.265625 L 45.289062 343.046875 L 44.335938 342.8125 L 43.414062 342.5625 L 42.515625 342.289062 L 41.632812 342.007812 L 40.773438 341.695312 L 39.945312 341.375 L 39.140625 341.03125 L 38.359375 340.671875 L 37.601562 340.289062 L 36.875 339.890625 L 36.171875 339.46875 L 35.5 339.023438 L 34.851562 338.554688 L 34.234375 338.070312 L 33.648438 337.5625 L 33.085938 337.03125 L 32.5625 336.476562 L 32.0625 335.898438 L 31.601562 335.296875 L 31.164062 334.671875 L 30.765625 334.023438 L 30.398438 333.34375 L 30.0625 332.640625 L 29.765625 331.914062 "/>
<path fill="none" stroke-width="3.985" stroke-linecap="butt" stroke-linejoin="miter" stroke="rgb(0%, 0%, 0%)" stroke-opacity="1" stroke-miterlimit="10" d="M 148.828123 360.429682 L 149.843748 357.851557 L 151.054685 355.312495 L 152.460935 352.929682 L 154.062498 350.585932 L 155.82031 348.35937 L 157.773435 346.249995 L 159.88281 344.179682 L 162.187498 342.226557 L 164.609373 340.312495 L 167.22656 338.51562 L 169.999997 336.79687 L 172.929685 335.156245 L 176.015622 333.593745 L 179.218747 332.10937 L 182.617185 330.70312 L 186.13281 329.335933 L 189.804685 328.085933 L 193.593747 326.874995 L 197.53906 325.742183 L 201.640622 324.648433 L 205.859372 323.632808 L 210.156247 322.695308 L 214.648434 321.79687 L 219.179684 320.976558 L 223.906247 320.195308 L 228.710934 319.45312 L 233.632809 318.789058 L 238.671871 318.20312 L 243.828121 317.617183 L 249.062496 317.10937 L 254.414059 316.64062 L 259.843746 316.210933 L 265.390621 315.820308 L 271.015621 315.468745 L 276.718746 315.156245 L 282.539058 314.882808 L 288.398433 314.648433 L 294.374996 314.45312 L 300.390621 314.29687 L 306.523433 314.179683 L 312.695308 314.062495 L 318.945308 313.98437 L 325.273433 313.945308 L 331.64062 313.906245 L 338.085932 313.906245 L 344.570307 313.945308 L 351.132807 313.98437 L 357.73437 314.023433 L 364.374995 314.101558 L 371.054682 314.179683 L 377.773432 314.257808 L 384.531244 314.374995 L 391.328119 314.492183 L 398.164057 314.60937 L 405.039056 314.76562 L 411.914056 314.882808 L 418.828119 315.039058 L 425.742181 315.156245 L 432.695306 315.312495 L 439.648431 315.429683 L 446.601556 315.585933 L 460.585931 315.820308 L 467.578118 315.898433 L 474.570305 316.01562 L 481.52343 316.093745 L 488.515618 316.17187 L 502.421868 316.249995 L 516.289055 316.249995 L 530.039055 316.17187 L 536.874992 316.093745 L 543.671867 315.976558 L 550.468742 315.820308 L 557.187492 315.664058 L 563.906242 315.468745 L 570.546866 315.23437 L 577.187491 314.960933 L 583.749991 314.648433 L 590.273429 314.29687 L 596.718741 313.906245 L 603.124991 313.437495 L 609.453116 312.968745 L 615.742178 312.42187 L 621.914053 311.835933 L 628.085928 311.210933 L 634.140616 310.54687 L 640.117178 309.804683 L 646.054678 309.023433 L 651.87499 308.20312 L 657.617178 307.26562 L 663.28124 306.32812 L 668.867178 305.273433 L 674.335927 304.179683 L 679.68749 303.04687 L 684.99999 301.835933 L 690.15624 300.507808 L 695.234365 299.179683 L 700.195302 297.734371 L 705.078114 296.249996 L 709.804677 294.648433 L 714.414052 293.007808 L 718.945302 291.249996 L 723.320302 289.453121 L 727.539052 287.539058 L 731.679677 285.546871 L 735.664052 283.476558 L 739.531239 281.328121 L 743.242176 279.062496 L 746.835926 276.718746 L 750.273426 274.296871 L 753.554676 271.757808 L 756.679676 269.179683 L 759.687489 266.445309 L 762.499989 263.632809 L 765.156239 260.703121 L 767.656239 257.695309 L 769.999989 254.570309 L 772.343738 257.695309 L 774.843738 260.703121 L 777.539051 263.632809 L 780.351551 266.445309 L 783.320301 269.179683 L 786.484363 271.757808 L 789.765613 274.296871 L 793.203113 276.718746 L 796.757801 279.062496 L 800.468738 281.328121 L 804.335926 283.476558 L 808.3203 285.546871 L 812.460925 287.539058 L 816.718738 289.453121 L 821.093738 291.249996 L 825.585925 293.007808 L 830.1953 294.648433 L 834.960925 296.249996 L 839.804675 297.734371 L 844.765612 299.179683 L 849.843737 300.507808 L 855.03905 301.835933 L 860.312487 303.04687 L 865.703112 304.179683 L 871.171862 305.273433 L 876.718737 306.32812 L 882.382799 307.26562 L 888.164049 308.20312 L 893.984362 309.023433 L 899.882799 309.804683 L 905.859362 310.54687 L 911.953111 311.210933 L 918.085924 311.835933 L 924.296861 312.42187 L 930.585924 312.968745 L 936.914049 313.437495 L 943.320298 313.906245 L 949.765611 314.29687 L 956.289048 314.648433 L 962.851548 314.960933 L 969.453111 315.23437 L 976.093735 315.468745 L 982.812485 315.664058 L 996.32811 315.976558 L 1003.124985 316.093745 L 1009.960922 316.17187 L 1016.835922 316.210933 L 1023.749985 316.249995 L 1037.57811 316.249995 L 1044.531234 316.210933 L 1051.523422 316.17187 L 1058.476547 316.093745 L 1065.468734 316.01562 L 1072.460922 315.898433 L 1079.414046 315.820308 L 1093.398421 315.585933 L 1100.351546 315.429683 L 1107.304671 315.312495 L 1114.257796 315.156245 L 1121.171858 315.039058 L 1128.124983 314.882808 L 1134.999983 314.76562 L 1141.874983 314.60937 L 1162.265608 314.257808 L 1168.984358 314.179683 L 1175.664045 314.101558 L 1182.30467 314.023433 L 1188.906232 313.98437 L 1195.42967 313.945308 L 1201.914045 313.906245 L 1208.359357 313.906245 L 1214.765607 313.945308 L 1221.054669 313.98437 L 1227.304669 314.062495 L 1233.476544 314.179683 L 1239.609357 314.29687 L 1245.624981 314.45312 L 1251.601544 314.648433 L 1257.499981 314.882808 L 1263.281231 315.156245 L 1269.023419 315.468745 L 1274.648419 315.820308 L 1280.156231 316.210933 L 1285.624981 316.64062 L 1290.976543 317.10937 L 1296.210918 317.617183 L 1301.328106 318.20312 L 1306.367168 318.789058 L 1311.328105 319.45312 L 1316.09373 320.195308 L 1320.820293 320.976558 L 1325.390605 321.79687 L 1329.84373 322.695308 L 1334.179668 323.632808 L 1338.398418 324.648433 L 1342.460917 325.742183 L 1346.40623 326.874995 L 1350.195292 328.085933 L 1353.867167 329.335933 L 1357.421855 330.70312 L 1360.78123 332.10937 L 1364.023417 333.593745 L 1367.109355 335.156245 L 1370.039042 336.79687 L 1372.773417 338.51562 L 1375.390605 340.312495 L 1377.851542 342.226557 L 1380.117167 344.179682 L 1382.226542 346.249995 L 1384.179667 348.35937 L 1385.937479 350.585932 L 1387.539042 352.929682 L 1388.945292 355.312495 L 1390.156229 357.851557 L 1391.171854 360.429682 L 1389.687479 356.79687 L 1388.046854 353.281245 L 1386.171854 349.882807 L 1384.179667 346.64062 L 1382.031229 343.51562 L 1379.687479 340.507807 L 1377.226542 337.617182 L 1374.570292 334.843745 L 1371.796855 332.187495 L 1368.828105 329.648433 L 1365.742167 327.226558 L 1362.539042 324.882808 L 1359.140605 322.656245 L 1355.62498 320.54687 L 1351.992167 318.554683 L 1348.203105 316.64062 L 1344.296855 314.843745 L 1340.273418 313.124995 L 1336.132793 311.523433 L 1331.87498 309.960933 L 1327.460918 308.554683 L 1322.96873 307.187495 L 1318.320293 305.937495 L 1313.59373 304.76562 L 1308.74998 303.67187 L 1303.789043 302.656245 L 1298.749981 301.718746 L 1293.593731 300.820308 L 1288.359356 300.039058 L 1283.007793 299.335933 L 1277.578106 298.671871 L 1272.070294 298.085933 L 1266.484356 297.578121 L 1260.781231 297.109371 L 1255.039044 296.718746 L 1249.179669 296.406246 L 1243.281231 296.093746 L 1237.304669 295.898433 L 1231.249982 295.703121 L 1225.117169 295.585933 L 1218.945294 295.507808 L 1212.695294 295.468746 L 1206.406232 295.468746 L 1200.078107 295.546871 L 1193.671857 295.624996 L 1187.226545 295.781246 L 1180.703107 295.937496 L 1174.140608 296.132808 L 1167.578108 296.367183 L 1160.976545 296.640621 L 1154.296858 296.914058 L 1147.61717 297.226558 L 1140.89842 297.578121 L 1127.382796 298.281246 L 1120.624983 298.671871 L 1113.789046 299.062496 L 1106.992171 299.492183 L 1100.156234 299.921871 L 1093.281234 300.351558 L 1079.609359 301.210933 L 1072.734359 301.679683 L 1065.898422 302.10937 L 1059.023422 302.57812 L 1045.351547 303.437495 L 1038.554672 303.867183 L 1031.718735 304.257808 L 1024.960922 304.648433 L 1018.164047 305.039058 L 1004.726548 305.742183 L 998.007798 306.054683 L 991.367173 306.367183 L 984.726548 306.64062 L 978.164048 306.874995 L 971.601548 307.070308 L 965.117173 307.26562 L 958.632798 307.42187 L 952.265611 307.539058 L 945.898423 307.617183 L 939.609361 307.656245 L 933.359361 307.617183 L 927.187486 307.57812 L 921.054674 307.460933 L 914.999986 307.304683 L 908.984361 307.10937 L 903.085924 306.835933 L 897.226549 306.523433 L 891.484362 306.17187 L 885.781237 305.742183 L 880.195299 305.273433 L 874.648424 304.687495 L 869.218737 304.062495 L 863.867175 303.398433 L 858.6328 302.617183 L 853.47655 301.796871 L 848.398425 300.898433 L 843.47655 299.882808 L 838.6328 298.828121 L 833.867175 297.695308 L 829.2578 296.484371 L 824.72655 295.156246 L 820.312488 293.789058 L 816.015613 292.265621 L 811.874988 290.703121 L 807.812488 289.023433 L 803.906238 287.265621 L 800.117176 285.390621 L 796.484363 283.437496 L 792.968738 281.367183 L 789.570301 279.218746 L 786.328113 276.914058 L 783.242176 274.531246 L 780.273426 272.070308 L 777.499988 269.453121 L 774.843738 266.718746 L 772.343738 263.867184 L 769.999989 260.937496 L 767.656239 263.867184 L 765.156239 266.718746 L 762.539051 269.453121 L 759.726551 272.070308 L 756.757801 274.531246 L 753.671864 276.914058 L 750.429676 279.218746 L 747.070301 281.367183 L 743.554676 283.437496 L 739.882801 285.390621 L 736.093739 287.265621 L 732.187489 289.023433 L 728.164052 290.703121 L 723.984364 292.265621 L 719.687489 293.789058 L 715.312489 295.156246 L 710.781239 296.484371 L 706.132802 297.695308 L 701.40624 298.828121 L 696.56249 299.882808 L 691.601552 300.898433 L 686.56249 301.796871 L 681.40624 302.617183 L 676.132802 303.398433 L 670.78124 304.062495 L 665.351553 304.687495 L 659.84374 305.273433 L 654.21874 305.742183 L 648.554678 306.17187 L 642.773428 306.523433 L 636.953116 306.835933 L 631.015616 307.10937 L 625.039053 307.304683 L 618.984366 307.460933 L 612.851553 307.57812 L 606.679678 307.617183 L 600.429679 307.656245 L 594.140616 307.617183 L 587.773429 307.539058 L 581.367179 307.42187 L 574.921866 307.26562 L 568.398429 307.070308 L 561.835929 306.874995 L 555.273429 306.64062 L 548.632804 306.367183 L 541.992179 306.054683 L 535.312492 305.742183 L 528.593742 305.39062 L 521.83593 305.039058 L 515.078117 304.648433 L 501.484368 303.867183 L 480.976555 302.57812 L 474.140618 302.10937 L 467.265618 301.679683 L 460.429681 301.210933 L 453.554681 300.781246 L 446.718743 300.351558 L 439.843743 299.921871 L 433.007806 299.492183 L 426.210931 299.062496 L 412.617181 298.281246 L 399.101557 297.578121 L 392.382807 297.226558 L 385.703119 296.914058 L 372.421869 296.367183 L 365.85937 296.132808 L 359.29687 295.937496 L 352.812495 295.781246 L 346.367182 295.624996 L 339.960932 295.546871 L 333.593745 295.468746 L 327.304683 295.468746 L 321.054683 295.507808 L 314.882808 295.585933 L 308.789058 295.703121 L 302.73437 295.898433 L 296.718746 296.093746 L 290.820308 296.406246 L 284.999996 296.718746 L 279.218746 297.109371 L 273.554683 297.578121 L 267.929684 298.085933 L 262.421871 298.671871 L 256.992184 299.335933 L 251.640621 300.039058 L 246.406246 300.820308 L 241.289059 301.718746 L 236.210934 302.656245 L 231.289059 303.67187 L 226.445309 304.76562 L 221.679684 305.937495 L 217.070309 307.187495 L 212.578122 308.554683 L 208.164059 309.960933 L 203.867184 311.523433 L 199.72656 313.124995 L 195.703122 314.843745 L 191.796872 316.64062 L 188.00781 318.554683 L 184.374997 320.54687 L 180.859372 322.656245 L 177.499997 324.882808 L 174.25781 327.226558 L 171.171872 329.648433 L 168.242185 332.187495 L 165.429685 334.843745 L 162.812498 337.617182 L 160.312498 340.507807 L 158.00781 343.51562 L 155.82031 346.64062 L 153.828123 349.882807 L 151.992185 353.281245 L 150.312498 356.79687 Z M 148.828123 360.429682 " transform="matrix(0.2, 0, 0, -0.2, 0, 404)"/>
<path fill-rule="nonzero" fill="rgb(100%, 100%, 100%)" fill-opacity="1" d="M -3.304688 291.703125 L 25.976562 291.703125 L 25.976562 318.585938 L -3.304688 318.585938 Z M -3.304688 291.703125 "/>
<path fill-rule="nonzero" fill="rgb(0%, 0%, 0%)" fill-opacity="1" d="M 18.875 303.058594 C 18.875 299.527344 16.5625 297.183594 13.3125 297.183594 C 8.59375 297.183594 3.78125 302.121094 3.78125 307.214844 C 3.78125 310.839844 6.21875 313.027344 9.375 313.027344 C 14 313.027344 18.875 308.246094 18.875 303.058594 Z M 9.5 312.464844 C 7.34375 312.464844 5.8125 310.714844 5.8125 307.839844 C 5.8125 306.871094 6.125 303.683594 7.8125 301.121094 C 9.3125 298.871094 11.4375 297.714844 13.15625 297.714844 C 14.96875 297.714844 16.90625 298.933594 16.90625 302.183594 C 16.90625 303.777344 16.34375 307.183594 14.15625 309.839844 C 13.125 311.183594 11.34375 312.464844 9.5 312.464844 Z M 9.5 312.464844 "/>
<path fill-rule="nonzero" fill="rgb(100%, 100%, 100%)" fill-opacity="1" d="M -3.546875 -5.757812 L 25.976562 -5.757812 L 25.976562 21.125 L -3.546875 21.125 Z M -3.546875 -5.757812 "/>
<path fill-rule="nonzero" fill="rgb(0%, 0%, 0%)" fill-opacity="1" d="M 15.511719 2.695312 L 15.792969 2.382812 C 16.449219 1.726562 17.167969 0.976562 18.667969 0.882812 C 18.917969 0.851562 19.105469 0.851562 19.105469 0.476562 C 19.105469 0.289062 18.980469 0.195312 18.824219 0.195312 C 18.261719 0.195312 17.605469 0.257812 17.042969 0.257812 C 16.324219 0.257812 15.542969 0.195312 14.855469 0.195312 C 14.730469 0.195312 14.449219 0.195312 14.449219 0.632812 C 14.449219 0.851562 14.636719 0.882812 14.761719 0.882812 C 14.917969 0.882812 15.542969 0.914062 15.542969 1.382812 C 15.542969 1.757812 15.042969 2.320312 14.949219 2.414062 L 9.886719 8.257812 L 7.511719 1.789062 C 7.355469 1.476562 7.355469 1.414062 7.355469 1.414062 C 7.355469 0.882812 8.449219 0.882812 8.667969 0.882812 C 8.949219 0.882812 9.167969 0.882812 9.167969 0.445312 C 9.167969 0.195312 8.917969 0.195312 8.855469 0.195312 C 8.230469 0.195312 6.699219 0.257812 6.105469 0.257812 C 5.542969 0.257812 4.199219 0.195312 3.667969 0.195312 C 3.542969 0.195312 3.230469 0.195312 3.230469 0.632812 C 3.230469 0.882812 3.449219 0.882812 3.730469 0.882812 C 5.042969 0.882812 5.136719 1.070312 5.324219 1.632812 L 8.011719 8.789062 C 8.042969 8.851562 8.105469 9.101562 8.105469 9.164062 C 8.105469 9.226562 7.230469 12.757812 7.136719 13.132812 C 6.855469 14.351562 6.824219 14.414062 5.074219 14.414062 C 4.667969 14.414062 4.480469 14.414062 4.480469 14.851562 C 4.480469 15.101562 4.761719 15.101562 4.792969 15.101562 C 5.417969 15.101562 6.917969 15.039062 7.542969 15.039062 C 8.136719 15.039062 9.730469 15.101562 10.324219 15.101562 C 10.480469 15.101562 10.761719 15.101562 10.761719 14.664062 C 10.761719 14.414062 10.542969 14.414062 10.136719 14.414062 C 10.105469 14.414062 9.667969 14.414062 9.292969 14.382812 C 8.855469 14.351562 8.730469 14.289062 8.730469 14.039062 C 8.730469 13.882812 8.917969 13.101562 9.011719 12.664062 L 9.792969 9.570312 C 9.886719 9.164062 9.917969 9.101562 10.105469 8.914062 Z M 15.511719 2.695312 "/>
<path fill="none" stroke-width="11.9553" stroke-linecap="butt" stroke-linejoin="miter" stroke="rgb(0%, 0%, 0%)" stroke-opacity="1" stroke-miterlimit="10" d="M 1.992187 561.601554 L 1570.039039 561.601554 " transform="matrix(0.2, 0, 0, -0.2, 0, 404)"/>
<path fill="none" stroke-width="11.9553" stroke-linecap="butt" stroke-linejoin="miter" stroke="rgb(0%, 0%, 0%)" stroke-opacity="1" stroke-miterlimit="10" d="M 129.999998 417.617181 L 129.999998 2001.601533 " transform="matrix(0.2, 0, 0, -0.2, 0, 404)"/>
<path fill-rule="nonzero" fill="rgb(0%, 0%, 0%)" fill-opacity="1" d="M 125.597656 396.117188 C 126.785156 395.710938 128.785156 395.117188 128.785156 393.179688 C 128.785156 390.867188 126.066406 389.804688 124.097656 389.804688 C 123.160156 389.804688 122.191406 390.023438 121.347656 390.523438 C 121.222656 390.585938 121.066406 390.773438 120.910156 390.773438 C 120.597656 390.773438 120.035156 389.804688 119.722656 389.804688 C 119.535156 389.804688 119.503906 390.023438 119.503906 390.117188 L 119.503906 393.679688 C 119.503906 393.804688 119.597656 393.960938 119.785156 393.960938 C 120.097656 393.960938 120.066406 393.335938 120.160156 392.992188 C 120.628906 391.273438 122.191406 390.523438 123.691406 390.429688 L 124.097656 390.429688 C 125.441406 390.429688 127.003906 391.304688 127.003906 393.179688 C 127.003906 394.992188 125.222656 395.929688 123.566406 395.929688 C 123.253906 395.929688 122.941406 395.929688 122.628906 395.929688 L 122.472656 395.929688 C 122.285156 395.929688 122.066406 395.929688 122.066406 396.148438 L 122.066406 396.179688 C 122.097656 396.367188 122.285156 396.398438 122.472656 396.398438 L 124.316406 396.398438 C 125.878906 396.523438 127.316406 397.554688 127.472656 399.179688 L 127.472656 399.398438 C 127.472656 401.242188 125.753906 402.398438 124.003906 402.398438 C 122.097656 402.398438 120.128906 401.773438 119.816406 399.398438 C 119.816406 399.242188 119.753906 399.054688 119.535156 399.054688 C 119.316406 399.085938 119.285156 399.242188 119.285156 399.398438 C 119.285156 401.992188 121.878906 403.023438 124.128906 403.023438 C 126.191406 403.023438 129.066406 402.054688 129.316406 399.585938 L 129.316406 399.460938 C 129.316406 397.492188 127.253906 396.523438 125.597656 396.117188 Z M 125.597656 396.117188 "/>
<path fill-rule="nonzero" fill="rgb(0%, 0%, 0%)" fill-opacity="1" d="M 137.695312 389.804688 C 134.320312 390.210938 131.632812 392.867188 131.632812 396.460938 C 131.632812 399.742188 134.226562 402.992188 138.101562 402.992188 C 141.601562 402.992188 144.570312 400.085938 144.570312 396.460938 C 144.570312 393.273438 142.070312 389.804688 138.132812 389.804688 C 138.007812 389.804688 137.851562 389.804688 137.695312 389.804688 Z M 133.507812 396.679688 L 133.507812 396.335938 C 133.507812 393.835938 134.414062 390.898438 137.570312 390.367188 C 137.757812 390.335938 137.914062 390.335938 138.101562 390.335938 C 140.914062 390.335938 142.664062 393.054688 142.664062 396.085938 C 142.664062 398.492188 141.945312 401.554688 138.976562 402.335938 C 138.695312 402.398438 138.414062 402.429688 138.132812 402.429688 L 137.945312 402.429688 C 135.351562 402.335938 133.945312 399.867188 133.601562 397.460938 Z M 133.507812 396.679688 "/>
<path fill-rule="nonzero" fill="rgb(0%, 0%, 0%)" fill-opacity="1" d="M 147.027344 390.148438 L 147.027344 390.742188 L 147.464844 390.742188 C 148.058594 390.742188 148.683594 390.835938 148.683594 391.710938 L 148.683594 401.179688 C 148.683594 402.023438 147.964844 402.054688 147.308594 402.054688 L 147.027344 402.054688 L 147.027344 402.648438 L 152.808594 402.648438 C 153.214844 402.648438 153.589844 402.679688 153.996094 402.679688 C 155.996094 402.679688 158.339844 401.742188 158.558594 399.335938 L 158.558594 399.148438 C 158.558594 396.617188 155.683594 395.585938 153.777344 395.585938 C 152.527344 395.585938 151.339844 395.710938 150.152344 395.804688 L 150.152344 391.585938 C 150.152344 391.148438 150.214844 390.742188 150.996094 390.742188 L 153.308594 390.742188 C 154.277344 390.742188 155.371094 390.804688 156.089844 391.523438 C 156.777344 392.242188 156.871094 393.460938 156.964844 394.398438 L 157.496094 394.398438 L 157.027344 390.148438 Z M 150.152344 396.429688 C 150.402344 396.429688 150.652344 396.367188 150.902344 396.335938 L 152.277344 396.273438 C 152.558594 396.242188 152.839844 396.210938 153.152344 396.210938 C 154.714844 396.210938 156.683594 397.210938 156.683594 399.054688 C 156.683594 400.804688 155.339844 402.085938 153.339844 402.085938 C 153.058594 402.085938 152.746094 402.054688 152.496094 402.054688 L 150.964844 402.054688 C 150.496094 402.054688 150.246094 402.023438 150.152344 401.398438 Z M 150.152344 396.429688 "/>
<path fill-rule="nonzero" fill="rgb(0%, 0%, 0%)" fill-opacity="1" d="M 160.90625 390.148438 L 160.90625 390.742188 L 161.375 390.742188 C 161.96875 390.742188 162.5625 390.835938 162.5625 391.710938 L 162.5625 401.179688 C 162.5625 402.023438 161.875 402.054688 161.1875 402.054688 L 160.90625 402.054688 L 160.90625 402.648438 L 165.8125 402.648438 L 165.8125 402.054688 L 165.375 402.054688 C 164.75 402.054688 164.15625 401.992188 164.15625 401.117188 L 164.15625 396.929688 L 167.875 396.929688 C 169.65625 396.804688 171.9375 395.617188 171.9375 393.585938 C 171.9375 391.367188 169.59375 390.304688 167.6875 390.148438 Z M 164.125 396.398438 L 164.125 391.398438 C 164.21875 390.804688 164.46875 390.742188 164.875 390.742188 L 166.3125 390.742188 C 167.9375 390.742188 170.0625 390.804688 170.0625 393.585938 C 170.0625 394.242188 169.96875 394.929688 169.5625 395.429688 C 168.90625 396.210938 167.8125 396.398438 166.84375 396.398438 Z M 164.125 396.398438 "/>
<path fill-rule="nonzero" fill="rgb(0%, 0%, 0%)" fill-opacity="1" d="M 176.632812 400.367188 C 176.132812 400.460938 175.632812 400.898438 175.632812 401.492188 C 175.632812 402.117188 176.164062 402.648438 176.789062 402.648438 C 177.414062 402.648438 177.976562 402.179688 177.976562 401.523438 C 177.976562 400.898438 177.445312 400.335938 176.820312 400.335938 C 176.757812 400.335938 176.695312 400.367188 176.632812 400.367188 Z M 176.632812 400.367188 "/>
<path fill-rule="nonzero" fill="rgb(0%, 0%, 0%)" fill-opacity="1" d="M 191.410156 399.710938 C 191.503906 399.742188 191.660156 399.773438 191.816406 399.773438 C 192.472656 399.773438 192.847656 399.273438 192.847656 398.679688 C 192.847656 398.085938 192.378906 397.648438 191.816406 397.648438 C 191.222656 397.648438 190.722656 398.085938 190.722656 398.773438 C 190.722656 401.085938 192.628906 403.148438 195.191406 403.148438 C 198.097656 403.148438 200.472656 400.804688 200.472656 397.835938 C 200.472656 395.460938 199.128906 393.398438 196.722656 392.710938 C 196.472656 392.648438 196.191406 392.648438 195.910156 392.648438 C 194.660156 392.648438 193.535156 393.054688 192.660156 393.960938 L 192.660156 388.960938 C 193.410156 389.085938 194.097656 389.304688 194.878906 389.304688 C 196.472656 389.304688 198.066406 388.710938 199.253906 387.429688 C 199.378906 387.273438 199.535156 387.179688 199.535156 386.992188 L 199.535156 386.960938 C 199.503906 386.835938 199.410156 386.773438 199.316406 386.773438 C 199.253906 386.773438 199.253906 386.773438 199.191406 386.804688 C 198.035156 387.210938 197.035156 387.523438 195.816406 387.523438 C 194.753906 387.523438 193.628906 387.367188 192.660156 386.929688 C 192.535156 386.867188 192.441406 386.804688 192.285156 386.773438 L 192.222656 386.773438 C 192.128906 386.773438 192.035156 386.867188 192.035156 386.992188 L 192.035156 394.585938 C 192.035156 394.804688 192.066406 394.992188 192.316406 394.992188 C 192.597656 394.992188 192.753906 394.554688 192.941406 394.367188 C 193.691406 393.585938 194.691406 393.148438 195.785156 393.117188 C 196.941406 393.117188 197.660156 393.898438 198.097656 394.835938 C 198.535156 395.773438 198.535156 396.929688 198.535156 397.960938 C 198.535156 399.617188 198.191406 401.367188 196.472656 402.210938 C 196.035156 402.429688 195.566406 402.523438 195.128906 402.523438 C 193.410156 402.523438 191.910156 401.335938 191.410156 399.710938 Z M 191.410156 399.710938 "/>
<path fill-rule="nonzero" fill="rgb(0%, 0%, 0%)" fill-opacity="1" d="M 204.246094 390.148438 C 204.652344 388.585938 206.058594 387.460938 207.683594 387.460938 C 209.933594 387.460938 211.183594 389.429688 211.183594 391.367188 C 211.183594 393.054688 210.246094 394.554688 209.214844 395.804688 C 207.527344 397.898438 205.496094 399.773438 203.714844 401.742188 C 203.558594 401.929688 203.402344 402.085938 203.402344 402.335938 C 203.402344 402.429688 203.433594 402.554688 203.433594 402.648438 L 212.558594 402.648438 L 213.183594 398.648438 L 212.652344 398.648438 C 212.464844 399.617188 212.527344 400.898438 211.527344 400.898438 C 211.308594 400.929688 211.121094 400.929688 210.933594 400.929688 L 210.339844 400.929688 C 209.996094 400.960938 209.621094 400.960938 209.308594 400.960938 L 205.152344 400.960938 C 206.652344 399.460938 208.277344 397.992188 209.902344 396.617188 C 211.433594 395.304688 213.027344 393.773438 213.183594 391.648438 L 213.183594 391.335938 C 213.183594 388.617188 210.839844 386.773438 207.996094 386.773438 C 205.652344 386.773438 203.433594 388.679688 203.433594 391.117188 C 203.433594 391.929688 203.902344 392.398438 204.589844 392.398438 C 205.214844 392.398438 205.714844 391.929688 205.714844 391.242188 C 205.714844 390.617188 205.246094 390.117188 204.527344 390.117188 C 204.433594 390.117188 204.339844 390.117188 204.246094 390.148438 Z M 204.246094 390.148438 "/>
<path fill-rule="nonzero" fill="rgb(0%, 0%, 0%)" fill-opacity="1" d="M 218.140625 400.367188 C 217.640625 400.460938 217.140625 400.898438 217.140625 401.492188 C 217.140625 402.117188 217.671875 402.648438 218.296875 402.648438 C 218.921875 402.648438 219.484375 402.179688 219.484375 401.523438 C 219.484375 400.898438 218.953125 400.335938 218.328125 400.335938 C 218.265625 400.335938 218.203125 400.367188 218.140625 400.367188 Z M 218.140625 400.367188 "/>
</svg>
