<?xml version="1.0" encoding="UTF-8"?>
<svg xmlns="http://www.w3.org/2000/svg" xmlns:xlink="http://www.w3.org/1999/xlink" width="366" height="284" viewBox="0 0 366 284">
<path fill="none" stroke-width="11.9553" stroke-linecap="butt" stroke-linejoin="miter" stroke="rgb(0%, 0%, 0%)" stroke-opacity="1" stroke-miterlimit="10" d="M 179.999997 1185.624982 L 217.968747 1146.05467 L 255.937496 1108.281233 L 293.906246 1072.265609 L 331.874995 1037.89061 L 369.843744 1005.07811 L 407.812494 973.789048 L 445.781243 943.945298 L 483.749993 915.429674 L 521.718742 888.242174 L 559.687492 862.304675 L 597.656241 837.53905 L 635.624991 813.906238 L 673.59374 791.367176 L 711.562489 769.843739 L 749.531239 749.296864 L 787.499988 729.726552 L 825.468738 711.054677 L 863.437487 693.203115 L 901.406237 676.171865 L 939.374986 659.960928 L 977.343735 644.453115 L 1015.312485 629.687491 L 1053.281234 615.546866 L 1091.249984 602.109366 L 1129.218733 589.257804 L 1167.187483 576.992179 L 1205.156232 565.312492 L 1243.124981 554.140617 L 1281.093731 543.476554 L 1319.06248 533.320305 L 1357.03123 523.632805 L 1395.039042 514.374992 L 1432.968729 505.546867 L 1470.937478 497.14843 L 1508.906228 489.101555 L 1546.874977 481.445305 L 1584.843726 474.101555 L 1622.812476 467.109368 L 1660.781225 460.468743 L 1698.789037 454.101556 " transform="matrix(0.2, 0, 0, -0.2, 0, 284)"/>
<path fill="none" stroke-width="11.9553" stroke-linecap="butt" stroke-linejoin="miter" stroke="rgb(0%, 0%, 0%)" stroke-opacity="1" stroke-miterlimit="10" d="M 179.999997 321.601558 L 179.999997 1185.624982 " transform="matrix(0.2, 0, 0, -0.2, 0, 284)"/>
<path fill="none" stroke-width="11.9553" stroke-linecap="butt" stroke-linejoin="miter" stroke="rgb(0%, 0%, 0%)" stroke-opacity="1" stroke-miterlimit="10" d="M 242.304684 321.601558 L 242.304684 1121.640608 " transform="matrix(0.2, 0, 0, -0.2, 0, 284)"/>
<path fill="none" stroke-width="11.9553" stroke-linecap="butt" stroke-linejoin="miter" stroke="rgb(0%, 0%, 0%)" stroke-opacity="1" stroke-miterlimit="10" d="M 304.60937 321.601558 L 304.60937 1062.421859 " transform="matrix(0.2, 0, 0, -0.2, 0, 284)"/>
<path fill="none" stroke-width="11.9553" stroke-linecap="butt" stroke-linejoin="miter" stroke="rgb(0%, 0%, 0%)" stroke-opacity="1" stroke-miterlimit="10" d="M 366.914057 321.601558 L 366.914057 1007.57811 " transform="matrix(0.2, 0, 0, -0.2, 0, 284)"/>
<path fill="none" stroke-width="11.9553" stroke-linecap="butt" stroke-linejoin="miter" stroke="rgb(0%, 0%, 0%)" stroke-opacity="1" stroke-miterlimit="10" d="M 429.218744 321.601558 L 429.218744 956.757798 " transform="matrix(0.2, 0, 0, -0.2, 0, 284)"/>
<path fill="none" stroke-width="11.9553" stroke-linecap="butt" stroke-linejoin="miter" stroke="rgb(0%, 0%, 0%)" stroke-opacity="1" stroke-miterlimit="10" d="M 491.562493 321.601558 L 491.562493 909.726549 " transform="matrix(0.2, 0, 0, -0.2, 0, 284)"/>
<path fill="none" stroke-width="11.9553" stroke-linecap="butt" stroke-linejoin="miter" stroke="rgb(0%, 0%, 0%)" stroke-opacity="1" stroke-miterlimit="10" d="M 553.867179 321.601558 L 553.867179 866.210925 " transform="matrix(0.2, 0, 0, -0.2, 0, 284)"/>
<path fill="none" stroke-width="11.9553" stroke-linecap="butt" stroke-linejoin="miter" stroke="rgb(0%, 0%, 0%)" stroke-opacity="1" stroke-miterlimit="10" d="M 616.171866 321.601558 L 616.171866 825.898425 " transform="matrix(0.2, 0, 0, -0.2, 0, 284)"/>
<path fill="none" stroke-width="11.9553" stroke-linecap="butt" stroke-linejoin="miter" stroke="rgb(0%, 0%, 0%)" stroke-opacity="1" stroke-miterlimit="10" d="M 678.476552 321.601558 L 678.476552 788.515613 " transform="matrix(0.2, 0, 0, -0.2, 0, 284)"/>
<path fill="none" stroke-width="11.9553" stroke-linecap="butt" stroke-linejoin="miter" stroke="rgb(0%, 0%, 0%)" stroke-opacity="1" stroke-miterlimit="10" d="M 740.781239 321.601558 L 740.781239 753.984364 " transform="matrix(0.2, 0, 0, -0.2, 0, 284)"/>
<path fill="none" stroke-width="11.9553" stroke-linecap="butt" stroke-linejoin="miter" stroke="rgb(0%, 0%, 0%)" stroke-opacity="1" stroke-miterlimit="10" d="M 803.085926 321.601558 L 803.085926 721.953114 " transform="matrix(0.2, 0, 0, -0.2, 0, 284)"/>
<path fill="none" stroke-width="11.9553" stroke-linecap="butt" stroke-linejoin="miter" stroke="rgb(0%, 0%, 0%)" stroke-opacity="1" stroke-miterlimit="10" d="M 865.390612 321.601558 L 865.390612 692.304677 " transform="matrix(0.2, 0, 0, -0.2, 0, 284)"/>
<path fill="none" stroke-width="11.9553" stroke-linecap="butt" stroke-linejoin="miter" stroke="rgb(0%, 0%, 0%)" stroke-opacity="1" stroke-miterlimit="10" d="M 927.695299 321.601558 L 927.695299 664.882803 " transform="matrix(0.2, 0, 0, -0.2, 0, 284)"/>
<path fill="none" stroke-width="11.9553" stroke-linecap="butt" stroke-linejoin="miter" stroke="rgb(0%, 0%, 0%)" stroke-opacity="1" stroke-miterlimit="10" d="M 989.999985 321.601558 L 989.999985 639.453115 " transform="matrix(0.2, 0, 0, -0.2, 0, 284)"/>
<path fill-rule="nonzero" fill="rgb(100%, 100%, 100%)" fill-opacity="1" d="M 105.21875 242.085938 L 128.742188 242.085938 L 128.742188 263.445312 L 105.21875 263.445312 Z M 105.21875 242.085938 "/>
<path fill-rule="nonzero" fill="rgb(0%, 0%, 0%)" fill-opacity="1" d="M 119.367188 249.175781 C 118.992188 248.363281 118.367188 247.769531 117.367188 247.769531 C 114.804688 247.769531 112.117188 250.988281 112.117188 254.175781 C 112.117188 256.238281 113.304688 257.675781 115.023438 257.675781 C 115.460938 257.675781 116.554688 257.582031 117.835938 256.019531 C 118.023438 256.957031 118.804688 257.675781 119.835938 257.675781 C 120.585938 257.675781 121.085938 257.175781 121.460938 256.457031 C 121.835938 255.675781 122.117188 254.363281 122.117188 254.300781 C 122.117188 254.082031 121.898438 254.082031 121.835938 254.082031 C 121.617188 254.082031 121.617188 254.175781 121.523438 254.488281 C 121.179688 255.894531 120.773438 257.175781 119.867188 257.175781 C 119.304688 257.175781 119.210938 256.613281 119.210938 256.175781 C 119.210938 255.707031 119.273438 255.519531 119.523438 254.582031 C 119.742188 253.644531 119.804688 253.425781 119.992188 252.613281 L 120.773438 249.550781 C 120.929688 248.925781 120.929688 248.894531 120.929688 248.800781 C 120.929688 248.425781 120.679688 248.207031 120.304688 248.207031 C 119.773438 248.207031 119.429688 248.707031 119.367188 249.175781 Z M 117.960938 254.832031 C 117.835938 255.238281 117.835938 255.269531 117.523438 255.644531 C 116.554688 256.832031 115.679688 257.175781 115.054688 257.175781 C 113.960938 257.175781 113.648438 255.988281 113.648438 255.144531 C 113.648438 254.050781 114.367188 251.363281 114.867188 250.363281 C 115.554688 249.082031 116.523438 248.269531 117.398438 248.269531 C 118.804688 248.269531 119.117188 250.050781 119.117188 250.175781 C 119.117188 250.300781 119.085938 250.457031 119.054688 250.550781 Z M 117.960938 254.832031 "/>
<path fill-rule="nonzero" fill="rgb(0%, 0%, 0%)" fill-opacity="1" d="M 39.859375 223.796875 L 40.0625 224.304688 L 40.28125 224.789062 L 40.523438 225.257812 L 40.773438 225.710938 L 41.046875 226.140625 L 41.335938 226.554688 L 41.640625 226.953125 L 41.960938 227.335938 L 42.296875 227.703125 L 42.648438 228.054688 L 43.015625 228.390625 L 43.398438 228.710938 L 43.796875 229.015625 L 44.203125 229.304688 L 44.632812 229.578125 L 45.070312 229.84375 L 45.53125 230.09375 L 45.992188 230.328125 L 46.476562 230.546875 L 46.96875 230.757812 L 47.476562 230.953125 L 47.992188 231.140625 L 48.523438 231.3125 L 49.070312 231.46875 L 49.625 231.625 L 50.1875 231.765625 L 50.765625 231.898438 L 51.359375 232.015625 L 51.953125 232.125 L 52.5625 232.226562 L 53.1875 232.320312 L 53.8125 232.40625 L 54.453125 232.476562 L 55.101562 232.546875 L 55.757812 232.601562 L 56.429688 232.65625 L 57.101562 232.703125 L 57.78125 232.734375 L 58.476562 232.773438 L 59.171875 232.796875 L 60.59375 232.828125 L 61.3125 232.84375 L 63.515625 232.84375 L 64.265625 232.835938 L 65.015625 232.820312 L 65.765625 232.8125 L 66.53125 232.796875 L 67.296875 232.773438 L 68.070312 232.757812 L 68.84375 232.734375 L 69.625 232.703125 L 70.40625 232.679688 L 71.984375 232.632812 L 73.578125 232.570312 L 74.375 232.546875 L 77.59375 232.453125 L 78.398438 232.4375 L 79.210938 232.421875 L 80.015625 232.40625 L 81.640625 232.390625 L 83.257812 232.390625 L 84.0625 232.398438 L 84.875 232.40625 L 85.679688 232.421875 L 87.289062 232.46875 L 88.09375 232.5 L 90.484375 232.640625 L 91.273438 232.703125 L 92.0625 232.773438 L 92.84375 232.851562 L 93.625 232.9375 L 94.398438 233.03125 L 95.171875 233.132812 L 95.945312 233.242188 L 96.703125 233.367188 L 97.460938 233.5 L 98.21875 233.640625 L 98.960938 233.796875 L 99.703125 233.960938 L 100.4375 234.132812 L 101.164062 234.320312 L 101.890625 234.523438 L 102.601562 234.734375 L 103.3125 234.960938 L 104.015625 235.195312 L 104.703125 235.445312 L 105.390625 235.710938 L 106.0625 235.992188 L 106.734375 236.289062 L 107.390625 236.59375 L 108.046875 236.914062 L 108.679688 237.257812 L 109.3125 237.609375 L 109.9375 237.976562 L 110.546875 238.359375 L 111.148438 238.765625 L 111.734375 239.1875 L 112.3125 239.625 L 112.882812 240.078125 L 113.445312 240.546875 L 113.984375 241.039062 L 114.523438 241.546875 L 115.046875 242.078125 L 115.554688 242.625 L 116.046875 243.195312 L 116.53125 243.78125 L 117 244.390625 L 117.46875 243.78125 L 117.953125 243.195312 L 118.453125 242.625 L 118.960938 242.078125 L 119.476562 241.546875 L 120.015625 241.039062 L 120.5625 240.546875 L 121.117188 240.078125 L 121.6875 239.625 L 122.265625 239.1875 L 122.851562 238.765625 L 123.453125 238.359375 L 124.070312 237.976562 L 124.6875 237.609375 L 125.320312 237.257812 L 125.960938 236.914062 L 126.609375 236.59375 L 127.265625 236.289062 L 127.9375 235.992188 L 128.617188 235.710938 L 129.296875 235.445312 L 129.992188 235.195312 L 130.6875 234.960938 L 131.398438 234.734375 L 132.117188 234.523438 L 132.835938 234.320312 L 133.5625 234.132812 L 134.296875 233.960938 L 135.039062 233.796875 L 135.789062 233.640625 L 136.539062 233.5 L 137.296875 233.367188 L 138.0625 233.242188 L 138.828125 233.132812 L 139.601562 233.03125 L 140.375 232.9375 L 141.15625 232.851562 L 141.9375 232.773438 L 142.726562 232.703125 L 143.523438 232.640625 L 144.3125 232.59375 L 145.109375 232.546875 L 145.914062 232.5 L 146.710938 232.46875 L 148.320312 232.421875 L 149.125 232.40625 L 149.9375 232.398438 L 150.742188 232.390625 L 152.367188 232.390625 L 153.171875 232.398438 L 153.984375 232.40625 L 154.789062 232.421875 L 155.601562 232.4375 L 156.40625 232.453125 L 157.21875 232.476562 L 158.023438 232.5 L 158.820312 232.523438 L 159.625 232.546875 L 160.421875 232.570312 L 162.015625 232.632812 L 163.59375 232.679688 L 164.375 232.703125 L 165.15625 232.734375 L 165.929688 232.757812 L 166.703125 232.773438 L 167.46875 232.796875 L 168.234375 232.8125 L 168.992188 232.820312 L 169.742188 232.835938 L 170.484375 232.84375 L 172.6875 232.84375 L 174.125 232.8125 L 174.828125 232.796875 L 175.53125 232.773438 L 176.21875 232.734375 L 176.898438 232.703125 L 177.578125 232.65625 L 178.242188 232.601562 L 178.898438 232.546875 L 179.546875 232.476562 L 180.1875 232.40625 L 180.820312 232.320312 L 181.4375 232.226562 L 182.046875 232.125 L 182.648438 232.015625 L 183.234375 231.898438 L 183.8125 231.765625 L 184.382812 231.625 L 185.476562 231.3125 L 186.007812 231.140625 L 186.523438 230.953125 L 187.03125 230.757812 L 187.53125 230.546875 L 188.007812 230.328125 L 188.476562 230.09375 L 188.929688 229.84375 L 189.367188 229.578125 L 189.796875 229.304688 L 190.210938 229.015625 L 190.609375 228.710938 L 190.984375 228.390625 L 191.351562 228.054688 L 191.703125 227.703125 L 192.046875 227.335938 L 192.367188 226.953125 L 192.671875 226.554688 L 192.953125 226.140625 L 193.226562 225.710938 L 193.484375 225.257812 L 193.71875 224.789062 L 193.9375 224.304688 L 194.140625 223.796875 L 193.84375 224.507812 L 193.53125 225.1875 L 193.210938 225.84375 L 192.867188 226.476562 L 192.515625 227.085938 L 192.148438 227.671875 L 191.765625 228.234375 L 191.367188 228.773438 L 190.960938 229.289062 L 190.546875 229.789062 L 190.109375 230.257812 L 189.671875 230.710938 L 189.210938 231.140625 L 188.742188 231.554688 L 188.265625 231.945312 L 187.773438 232.3125 L 187.265625 232.664062 L 186.75 233 L 186.226562 233.3125 L 185.695312 233.609375 L 185.148438 233.890625 L 184.59375 234.148438 L 184.023438 234.398438 L 183.453125 234.625 L 182.867188 234.835938 L 182.273438 235.039062 L 181.671875 235.21875 L 181.054688 235.390625 L 180.4375 235.539062 L 179.8125 235.679688 L 179.171875 235.804688 L 178.53125 235.921875 L 177.875 236.023438 L 177.21875 236.109375 L 176.546875 236.1875 L 175.875 236.257812 L 175.195312 236.3125 L 174.507812 236.351562 L 173.8125 236.382812 L 173.109375 236.414062 L 172.40625 236.429688 L 170.976562 236.429688 L 170.257812 236.421875 L 169.53125 236.398438 L 168.796875 236.375 L 168.0625 236.34375 L 167.320312 236.304688 L 166.578125 236.257812 L 165.828125 236.210938 L 165.078125 236.148438 L 164.320312 236.09375 L 163.5625 236.023438 L 162.796875 235.960938 L 161.265625 235.804688 L 160.5 235.734375 L 158.953125 235.5625 L 158.179688 235.484375 L 157.398438 235.398438 L 156.625 235.3125 L 152.71875 234.882812 L 151.945312 234.804688 L 151.164062 234.71875 L 150.382812 234.648438 L 149.601562 234.570312 L 148.820312 234.5 L 148.046875 234.4375 L 147.273438 234.367188 L 145.726562 234.257812 L 144.953125 234.210938 L 144.1875 234.171875 L 143.429688 234.132812 L 142.664062 234.109375 L 141.90625 234.085938 L 141.148438 234.070312 L 140.398438 234.0625 L 138.898438 234.078125 L 138.164062 234.101562 L 137.421875 234.132812 L 136.695312 234.171875 L 135.96875 234.21875 L 135.242188 234.28125 L 134.523438 234.351562 L 133.8125 234.4375 L 133.109375 234.53125 L 132.40625 234.640625 L 131.710938 234.757812 L 131.03125 234.890625 L 130.34375 235.039062 L 129.671875 235.203125 L 129.007812 235.382812 L 128.34375 235.570312 L 127.695312 235.78125 L 127.046875 236 L 126.414062 236.234375 L 125.78125 236.492188 L 125.164062 236.765625 L 124.546875 237.054688 L 123.945312 237.359375 L 123.351562 237.6875 L 122.765625 238.03125 L 122.1875 238.390625 L 121.625 238.773438 L 121.070312 239.171875 L 120.523438 239.59375 L 119.984375 240.039062 L 119.460938 240.507812 L 118.945312 240.992188 L 118.445312 241.5 L 117.953125 242.023438 L 117.46875 242.578125 L 117 243.148438 L 116.53125 242.578125 L 116.054688 242.023438 L 115.5625 241.5 L 115.054688 240.992188 L 114.539062 240.507812 L 114.015625 240.039062 L 113.484375 239.59375 L 112.9375 239.171875 L 112.375 238.773438 L 111.8125 238.390625 L 111.234375 238.03125 L 110.648438 237.6875 L 110.054688 237.359375 L 109.453125 237.054688 L 108.84375 236.765625 L 108.21875 236.492188 L 107.59375 236.234375 L 106.953125 236 L 106.3125 235.78125 L 105.65625 235.570312 L 105 235.382812 L 104.328125 235.203125 L 103.65625 235.039062 L 102.976562 234.890625 L 102.289062 234.757812 L 101.59375 234.640625 L 100.890625 234.53125 L 100.1875 234.4375 L 99.476562 234.351562 L 98.757812 234.28125 L 98.039062 234.21875 L 97.3125 234.171875 L 96.578125 234.132812 L 95.84375 234.101562 L 95.101562 234.078125 L 94.351562 234.070312 L 93.609375 234.0625 L 92.851562 234.070312 L 92.101562 234.085938 L 91.335938 234.109375 L 90.578125 234.132812 L 89.046875 234.210938 L 88.273438 234.257812 L 87.507812 234.3125 L 86.726562 234.367188 L 85.953125 234.4375 L 85.179688 234.5 L 84.398438 234.570312 L 83.617188 234.648438 L 82.84375 234.71875 L 82.0625 234.804688 L 81.28125 234.882812 L 78.15625 235.226562 L 77.382812 235.3125 L 76.601562 235.398438 L 75.828125 235.484375 L 75.046875 235.5625 L 73.5 235.734375 L 72.734375 235.804688 L 71.203125 235.960938 L 70.4375 236.023438 L 69.679688 236.09375 L 68.929688 236.148438 L 68.171875 236.210938 L 67.429688 236.257812 L 66.679688 236.304688 L 65.9375 236.34375 L 65.203125 236.375 L 64.46875 236.398438 L 63.742188 236.421875 L 63.023438 236.429688 L 61.59375 236.429688 L 60.890625 236.414062 L 60.1875 236.382812 L 59.492188 236.351562 L 58.804688 236.3125 L 58.132812 236.257812 L 57.453125 236.1875 L 56.789062 236.109375 L 56.125 236.023438 L 55.476562 235.921875 L 54.828125 235.804688 L 54.195312 235.679688 L 53.5625 235.539062 L 52.945312 235.390625 L 52.328125 235.21875 L 51.726562 235.039062 L 51.140625 234.835938 L 50.554688 234.625 L 49.976562 234.398438 L 49.414062 234.148438 L 48.851562 233.890625 L 48.3125 233.609375 L 47.773438 233.3125 L 47.25 233 L 46.734375 232.664062 L 46.234375 232.3125 L 45.742188 231.945312 L 45.257812 231.554688 L 44.789062 231.140625 L 44.335938 230.710938 L 43.890625 230.257812 L 43.460938 229.789062 L 43.039062 229.289062 L 42.632812 228.773438 L 42.234375 228.234375 L 41.851562 227.671875 L 41.492188 227.085938 L 41.132812 226.476562 L 40.796875 225.84375 L 40.46875 225.1875 L 40.15625 224.507812 L 39.859375 223.796875 "/>
<path fill="none" stroke-width="3.985" stroke-linecap="butt" stroke-linejoin="miter" stroke="rgb(0%, 0%, 0%)" stroke-opacity="1" stroke-miterlimit="10" d="M 199.296872 301.015621 L 200.312497 298.476558 L 201.406247 296.054683 L 202.617184 293.710933 L 203.867184 291.445308 L 205.234372 289.296871 L 206.679684 287.226558 L 208.203122 285.234371 L 209.804684 283.320308 L 211.484372 281.484371 L 213.242184 279.726558 L 215.078122 278.046871 L 216.992184 276.445308 L 218.984372 274.921871 L 221.015622 273.476558 L 223.164059 272.109371 L 225.351559 270.781246 L 227.656247 269.531246 L 229.960934 268.359371 L 232.382809 267.265621 L 234.843747 266.210934 L 237.382809 265.234371 L 239.960934 264.296871 L 242.617184 263.437496 L 245.351559 262.656246 L 248.124996 261.874996 L 250.937496 261.171871 L 253.828121 260.507809 L 256.796871 259.921871 L 259.765621 259.374996 L 262.812496 258.867184 L 265.937496 258.398434 L 269.062496 257.968746 L 272.265621 257.617184 L 275.507808 257.265621 L 278.789058 256.992184 L 282.148433 256.718746 L 285.507808 256.484371 L 288.906246 256.328121 L 292.382808 256.132809 L 295.859371 256.015621 L 302.968745 255.859371 L 306.562495 255.781246 L 317.57812 255.781246 L 321.32812 255.820309 L 325.07812 255.898434 L 328.82812 255.937496 L 332.656245 256.015621 L 336.48437 256.132809 L 340.351557 256.210934 L 344.218745 256.328121 L 348.124995 256.484371 L 352.031245 256.601559 L 359.92187 256.835934 L 367.89062 257.148434 L 371.874994 257.265621 L 387.968744 257.734371 L 391.992182 257.812496 L 396.054682 257.890621 L 400.078119 257.968746 L 408.203119 258.046871 L 416.289056 258.046871 L 420.312494 258.007809 L 424.374994 257.968746 L 428.398431 257.890621 L 436.445306 257.656246 L 440.468743 257.499996 L 452.421868 256.796871 L 456.367181 256.484371 L 460.312493 256.132809 L 464.218743 255.742184 L 468.124993 255.312496 L 471.99218 254.843746 L 475.859368 254.335934 L 479.726555 253.789059 L 483.515618 253.164059 L 487.30468 252.499996 L 491.093743 251.796871 L 494.80468 251.015621 L 498.515618 250.195309 L 502.187493 249.335934 L 505.820305 248.398434 L 509.453117 247.382809 L 513.007805 246.328121 L 516.562492 245.195309 L 520.078117 244.023434 L 523.515617 242.773434 L 526.953117 241.445309 L 530.312492 240.039059 L 533.671867 238.554684 L 536.953117 237.031246 L 540.234367 235.429684 L 543.398429 233.710934 L 546.562492 231.953122 L 549.687492 230.117184 L 552.734367 228.203122 L 555.742179 226.171872 L 558.671867 224.062497 L 561.562492 221.874997 L 564.414054 219.609372 L 567.226554 217.265622 L 569.921867 214.804684 L 572.617179 212.265622 L 575.234366 209.609372 L 577.773429 206.874997 L 580.234366 204.023434 L 582.656241 201.093747 L 584.999991 198.046872 L 587.343741 201.093747 L 589.765616 204.023434 L 592.265616 206.874997 L 594.804679 209.609372 L 597.382804 212.265622 L 600.078116 214.804684 L 602.812491 217.265622 L 605.585928 219.609372 L 608.437491 221.874997 L 611.328116 224.062497 L 614.257803 226.171872 L 617.265616 228.203122 L 620.351553 230.117184 L 623.437491 231.953122 L 626.601553 233.710934 L 629.804678 235.429684 L 633.046866 237.031246 L 636.328116 238.554684 L 639.68749 240.039059 L 643.085928 241.445309 L 646.484365 242.773434 L 649.960928 244.023434 L 653.43749 245.195309 L 656.992178 246.328121 L 660.585928 247.382809 L 664.179678 248.398434 L 667.81249 249.335934 L 671.484365 250.195309 L 675.195302 251.015621 L 678.945302 251.796871 L 682.695302 252.499996 L 686.484365 253.164059 L 690.31249 253.789059 L 694.140615 254.335934 L 698.007802 254.843746 L 701.87499 255.312496 L 705.781239 255.742184 L 709.687489 256.132809 L 713.632802 256.484371 L 717.617177 256.796871 L 721.562489 257.031246 L 725.546864 257.265621 L 729.570302 257.499996 L 733.554677 257.656246 L 741.601551 257.890621 L 745.624989 257.968746 L 749.687489 258.007809 L 753.710926 258.046871 L 761.835926 258.046871 L 765.859364 258.007809 L 769.921864 257.968746 L 773.945301 257.890621 L 778.007801 257.812496 L 782.031238 257.734371 L 786.093738 257.617184 L 790.117176 257.499996 L 794.101551 257.382809 L 798.124988 257.265621 L 802.109363 257.148434 L 810.078113 256.835934 L 817.968738 256.601559 L 821.874988 256.484371 L 825.781238 256.328121 L 829.648425 256.210934 L 833.515613 256.132809 L 837.343738 256.015621 L 841.171862 255.937496 L 844.960925 255.898434 L 848.710925 255.820309 L 852.421862 255.781246 L 863.437487 255.781246 L 870.624987 255.937496 L 874.140612 256.015621 L 877.656237 256.132809 L 881.093737 256.328121 L 884.492174 256.484371 L 887.890612 256.718746 L 891.210924 256.992184 L 894.492174 257.265621 L 897.734362 257.617184 L 900.937487 257.968746 L 904.101549 258.398434 L 907.187486 258.867184 L 910.234361 259.374996 L 913.242174 259.921871 L 916.171861 260.507809 L 919.062486 261.171871 L 921.914049 261.874996 L 927.382799 263.437496 L 930.039049 264.296871 L 932.617174 265.234371 L 935.156236 266.210934 L 937.656236 267.265621 L 940.039048 268.359371 L 942.382798 269.531246 L 944.648423 270.781246 L 946.835923 272.109371 L 948.984361 273.476558 L 951.054673 274.921871 L 953.046861 276.445308 L 954.921861 278.046871 L 956.757798 279.726558 L 958.515611 281.484371 L 960.234361 283.320308 L 961.835923 285.234371 L 963.359361 287.226558 L 964.765611 289.296871 L 966.132798 291.445308 L 967.421861 293.710933 L 968.593736 296.054683 L 969.687486 298.476558 L 970.703111 301.015621 L 969.218736 297.460933 L 967.656236 294.062496 L 966.054673 290.781246 L 964.335923 287.617183 L 962.578111 284.570308 L 960.742173 281.640621 L 958.828111 278.828121 L 956.835923 276.132808 L 954.804673 273.554683 L 952.734361 271.054683 L 950.546861 268.710933 L 948.359361 266.445309 L 946.054673 264.296871 L 943.710923 262.226559 L 941.328111 260.273434 L 938.867174 258.437496 L 936.328111 256.679684 L 933.749986 254.999996 L 931.132799 253.437496 L 928.476549 251.953121 L 925.742174 250.546871 L 922.968736 249.257809 L 920.117174 248.007809 L 917.265611 246.874996 L 914.335924 245.820309 L 911.367174 244.804684 L 908.359361 243.906246 L 905.273424 243.046871 L 902.187487 242.304684 L 899.062487 241.601559 L 895.859362 240.976559 L 892.656237 240.390621 L 889.374987 239.882809 L 886.093737 239.453121 L 882.734362 239.062496 L 879.374987 238.710934 L 875.976549 238.437496 L 872.539049 238.242184 L 869.062487 238.085934 L 865.546862 237.929684 L 862.031237 237.851559 L 854.8828 237.851559 L 851.28905 237.890621 L 847.656237 238.007809 L 843.984362 238.124996 L 840.312487 238.281246 L 836.60155 238.476559 L 832.890613 238.710934 L 829.140613 238.945309 L 825.390613 239.257809 L 821.60155 239.531246 L 817.812488 239.882809 L 813.984363 240.195309 L 806.328113 240.976559 L 802.499988 241.328121 L 794.765613 242.187496 L 790.898426 242.578121 L 786.992176 243.007809 L 783.124988 243.437496 L 763.593739 245.585934 L 759.726551 245.976559 L 755.820301 246.406246 L 751.914051 246.757809 L 748.007801 247.148434 L 744.101551 247.499996 L 740.234364 247.812496 L 736.367177 248.164059 L 728.632802 248.710934 L 724.765614 248.945309 L 720.937489 249.140621 L 717.148427 249.335934 L 713.320302 249.453121 L 709.531239 249.570309 L 705.742177 249.648434 L 701.992177 249.687496 L 694.492177 249.609371 L 690.820302 249.492184 L 687.109365 249.335934 L 683.476552 249.140621 L 679.84374 248.906246 L 676.210927 248.593746 L 672.617177 248.242184 L 669.06249 247.812496 L 665.546865 247.343746 L 662.03124 246.796871 L 658.554678 246.210934 L 655.15624 245.546871 L 651.71874 244.804684 L 648.359365 243.984371 L 645.039053 243.085934 L 641.71874 242.148434 L 638.476553 241.093746 L 635.234366 239.999996 L 632.070303 238.828121 L 628.906241 237.539059 L 625.820303 236.171871 L 622.734366 234.726559 L 619.726553 233.203122 L 616.757803 231.562497 L 613.828116 229.843747 L 610.937491 228.046872 L 608.124991 226.132809 L 605.351553 224.140622 L 602.617179 222.031247 L 599.921866 219.804684 L 597.304679 217.460934 L 594.726554 215.039059 L 592.226554 212.499997 L 589.765616 209.882809 L 587.343741 207.109372 L 584.999991 204.257809 L 582.656241 207.109372 L 580.273429 209.882809 L 577.812491 212.499997 L 575.273429 215.039059 L 572.695304 217.460934 L 570.078117 219.804684 L 567.421867 222.031247 L 564.687492 224.140622 L 561.874992 226.132809 L 559.062492 228.046872 L 556.171867 229.843747 L 553.242179 231.562497 L 550.273429 233.203122 L 547.265617 234.726559 L 544.218742 236.171871 L 541.093742 237.539059 L 537.968742 238.828121 L 534.765617 239.999996 L 531.562492 241.093746 L 528.281242 242.148434 L 524.999992 243.085934 L 521.640617 243.984371 L 518.281242 244.804684 L 514.882805 245.546871 L 511.445305 246.210934 L 507.968742 246.796871 L 504.453117 247.343746 L 500.937493 247.812496 L 497.382805 248.242184 L 493.789055 248.593746 L 490.195305 248.906246 L 486.562493 249.140621 L 482.890618 249.335934 L 479.218743 249.492184 L 475.507805 249.609371 L 471.757805 249.648434 L 468.046868 249.687496 L 464.257806 249.648434 L 460.507806 249.570309 L 456.679681 249.453121 L 452.890618 249.335934 L 445.234368 248.945309 L 441.367181 248.710934 L 437.539056 248.437496 L 433.632806 248.164059 L 429.765619 247.812496 L 425.898431 247.499996 L 421.992181 247.148434 L 418.085931 246.757809 L 414.218744 246.406246 L 410.312494 245.976559 L 406.406244 245.585934 L 390.781244 243.867184 L 386.914057 243.437496 L 383.007807 243.007809 L 379.140619 242.578121 L 375.234369 242.187496 L 367.499995 241.328121 L 363.67187 240.976559 L 356.01562 240.195309 L 352.187495 239.882809 L 348.398432 239.531246 L 344.648432 239.257809 L 340.85937 238.945309 L 337.148432 238.710934 L 333.398433 238.476559 L 329.687495 238.281246 L 326.01562 238.124996 L 322.343745 238.007809 L 318.710933 237.890621 L 315.117183 237.851559 L 307.968745 237.851559 L 304.45312 237.929684 L 300.937496 238.085934 L 297.460933 238.242184 L 294.023433 238.437496 L 290.664058 238.710934 L 287.265621 239.062496 L 283.945308 239.453121 L 280.624996 239.882809 L 277.382808 240.390621 L 274.140621 240.976559 L 270.976558 241.601559 L 267.812496 242.304684 L 264.726559 243.046871 L 261.640621 243.906246 L 258.632809 244.804684 L 255.703121 245.820309 L 252.773434 246.874996 L 249.882809 248.007809 L 247.070309 249.257809 L 244.257809 250.546871 L 241.562496 251.953121 L 238.867184 253.437496 L 236.249996 254.999996 L 233.671872 256.679684 L 231.171872 258.437496 L 228.710934 260.273434 L 226.289059 262.226559 L 223.945309 264.296871 L 221.679684 266.445309 L 219.453122 268.710933 L 217.304684 271.054683 L 215.195309 273.554683 L 213.164059 276.132808 L 211.171872 278.828121 L 209.257809 281.640621 L 207.460934 284.570308 L 205.664059 287.617183 L 203.984372 290.781246 L 202.343747 294.062496 L 200.781247 297.460933 Z M 199.296872 301.015621 " transform="matrix(0.2, 0, 0, -0.2, 0, 284)"/>
<path fill-rule="nonzero" fill="rgb(100%, 100%, 100%)" fill-opacity="1" d="M -5.46875 119.859375 L 15.890625 119.859375 L 15.890625 146.976562 L -5.46875 146.976562 Z M -5.46875 119.859375 "/>
<path fill-rule="nonzero" fill="rgb(0%, 0%, 0%)" fill-opacity="1" d="M 5.535156 126.050781 C 5.535156 126.050781 5.535156 125.832031 5.253906 125.832031 C 4.753906 125.832031 3.160156 125.988281 2.597656 126.050781 C 2.410156 126.050781 2.160156 126.082031 2.160156 126.488281 C 2.160156 126.738281 2.378906 126.738281 2.691406 126.738281 C 3.753906 126.738281 3.785156 126.894531 3.785156 127.113281 C 3.785156 127.269531 3.597656 127.988281 3.472656 128.457031 L 1.691406 135.582031 C 1.441406 136.644531 1.347656 137.019531 1.347656 137.769531 C 1.347656 139.832031 2.503906 141.207031 4.097656 141.207031 C 6.691406 141.207031 9.378906 137.957031 9.378906 134.800781 C 9.378906 132.832031 8.222656 131.300781 6.472656 131.300781 C 5.472656 131.300781 4.566406 131.957031 3.910156 132.613281 Z M 3.472656 134.300781 C 3.597656 133.832031 3.597656 133.769531 3.816406 133.550781 C 4.878906 132.113281 5.847656 131.800781 6.410156 131.800781 C 7.222656 131.800781 7.785156 132.457031 7.785156 133.832031 C 7.785156 135.144531 7.066406 137.644531 6.691406 138.457031 C 5.972656 139.925781 4.972656 140.707031 4.097656 140.707031 C 3.378906 140.707031 2.660156 140.113281 2.660156 138.519531 C 2.660156 138.113281 2.660156 137.675781 3.003906 136.300781 Z M 3.472656 134.300781 "/>
<path fill-rule="nonzero" fill="rgb(0%, 0%, 0%)" fill-opacity="1" d="M 32.140625 50.992188 L 31.664062 51.210938 L 31.210938 51.445312 L 30.773438 51.703125 L 30.34375 51.96875 L 29.945312 52.257812 L 29.554688 52.5625 L 29.179688 52.890625 L 28.820312 53.234375 L 28.476562 53.59375 L 28.148438 53.96875 L 27.835938 54.359375 L 27.53125 54.765625 L 27.25 55.1875 L 26.976562 55.632812 L 26.71875 56.085938 L 26.46875 56.554688 L 26.242188 57.039062 L 26.023438 57.539062 L 25.8125 58.054688 L 25.617188 58.578125 L 25.429688 59.117188 L 25.257812 59.671875 L 25.09375 60.234375 L 24.945312 60.820312 L 24.804688 61.40625 L 24.671875 62.015625 L 24.546875 62.632812 L 24.4375 63.257812 L 24.328125 63.898438 L 24.234375 64.546875 L 24.148438 65.210938 L 24.070312 65.882812 L 24 66.5625 L 23.9375 67.25 L 23.882812 67.953125 L 23.835938 68.664062 L 23.796875 69.382812 L 23.757812 70.117188 L 23.726562 70.851562 L 23.703125 71.59375 L 23.671875 73.109375 L 23.664062 73.875 L 23.65625 74.65625 L 23.65625 75.4375 L 23.664062 76.226562 L 23.664062 77.023438 L 23.679688 77.820312 L 23.6875 78.632812 L 23.703125 79.445312 L 23.726562 80.265625 L 23.742188 81.085938 L 23.789062 82.742188 L 23.8125 83.578125 L 23.859375 85.265625 L 23.890625 86.109375 L 23.9375 87.8125 L 23.960938 88.671875 L 23.984375 89.523438 L 24 90.382812 L 24.023438 91.242188 L 24.039062 92.101562 L 24.054688 92.96875 L 24.0625 93.828125 L 24.078125 94.695312 L 24.078125 95.5625 L 24.085938 96.421875 L 24.085938 97.289062 L 24.070312 99.007812 L 24.054688 99.867188 L 24.007812 101.585938 L 23.976562 102.4375 L 23.9375 103.296875 L 23.898438 104.148438 L 23.789062 105.835938 L 23.726562 106.679688 L 23.65625 107.515625 L 23.484375 109.171875 L 23.390625 110 L 23.28125 110.820312 L 23.171875 111.632812 L 23.046875 112.4375 L 22.914062 113.242188 L 22.765625 114.039062 L 22.609375 114.828125 L 22.445312 115.609375 L 22.273438 116.390625 L 22.085938 117.15625 L 21.890625 117.921875 L 21.679688 118.679688 L 21.453125 119.421875 L 21.21875 120.164062 L 20.96875 120.890625 L 20.703125 121.617188 L 20.429688 122.328125 L 20.148438 123.03125 L 19.84375 123.71875 L 19.523438 124.40625 L 19.195312 125.078125 L 18.84375 125.742188 L 18.484375 126.390625 L 18.109375 127.039062 L 17.710938 127.664062 L 17.304688 128.28125 L 16.875 128.890625 L 16.4375 129.484375 L 15.976562 130.0625 L 15.5 130.632812 L 15 131.1875 L 14.484375 131.734375 L 13.960938 132.265625 L 13.40625 132.78125 L 12.835938 133.28125 L 13.40625 133.78125 L 13.960938 134.296875 L 14.484375 134.828125 L 15 135.367188 L 15.5 135.921875 L 15.976562 136.492188 L 16.4375 137.078125 L 16.875 137.671875 L 17.304688 138.273438 L 17.710938 138.890625 L 18.109375 139.523438 L 18.484375 140.164062 L 18.84375 140.8125 L 19.195312 141.476562 L 19.523438 142.148438 L 19.84375 142.835938 L 20.148438 143.53125 L 20.429688 144.234375 L 20.703125 144.945312 L 20.96875 145.664062 L 21.21875 146.398438 L 21.453125 147.132812 L 21.679688 147.882812 L 21.890625 148.632812 L 22.085938 149.398438 L 22.273438 150.171875 L 22.445312 150.945312 L 22.609375 151.726562 L 22.765625 152.523438 L 22.914062 153.320312 L 23.046875 154.117188 L 23.171875 154.929688 L 23.28125 155.742188 L 23.390625 156.5625 L 23.484375 157.382812 L 23.570312 158.210938 L 23.65625 159.046875 L 23.726562 159.882812 L 23.789062 160.71875 L 23.84375 161.5625 L 23.898438 162.414062 L 23.976562 164.117188 L 24.007812 164.96875 L 24.054688 166.6875 L 24.070312 167.546875 L 24.078125 168.414062 L 24.085938 169.273438 L 24.085938 170.132812 L 24.078125 171 L 24.078125 171.859375 L 24.0625 172.726562 L 24.054688 173.585938 L 24.039062 174.453125 L 24.023438 175.3125 L 24 176.171875 L 23.984375 177.03125 L 23.960938 177.890625 L 23.890625 180.445312 L 23.859375 181.296875 L 23.835938 182.140625 L 23.765625 184.648438 L 23.742188 185.46875 L 23.726562 186.296875 L 23.703125 187.117188 L 23.6875 187.921875 L 23.679688 188.734375 L 23.664062 189.539062 L 23.664062 190.328125 L 23.65625 191.117188 L 23.65625 191.898438 L 23.664062 192.679688 L 23.671875 193.445312 L 23.6875 194.210938 L 23.703125 194.960938 L 23.726562 195.710938 L 23.757812 196.445312 L 23.796875 197.171875 L 23.835938 197.890625 L 23.882812 198.601562 L 23.9375 199.304688 L 24 200 L 24.070312 200.679688 L 24.148438 201.351562 L 24.234375 202.007812 L 24.328125 202.664062 L 24.546875 203.929688 L 24.671875 204.546875 L 24.804688 205.148438 L 24.945312 205.742188 L 25.09375 206.320312 L 25.257812 206.882812 L 25.429688 207.4375 L 25.617188 207.976562 L 25.8125 208.507812 L 26.023438 209.015625 L 26.242188 209.515625 L 26.46875 210 L 26.71875 210.476562 L 26.976562 210.929688 L 27.25 211.367188 L 27.53125 211.789062 L 27.835938 212.195312 L 28.148438 212.585938 L 28.476562 212.960938 L 28.820312 213.328125 L 29.179688 213.664062 L 29.554688 213.992188 L 29.945312 214.296875 L 30.34375 214.585938 L 30.773438 214.859375 L 31.210938 215.109375 L 31.664062 215.34375 L 32.140625 215.5625 L 31.476562 215.242188 L 30.835938 214.914062 L 30.21875 214.5625 L 29.625 214.203125 L 29.054688 213.828125 L 28.507812 213.429688 L 27.976562 213.03125 L 27.476562 212.609375 L 26.992188 212.171875 L 26.523438 211.726562 L 26.078125 211.265625 L 25.65625 210.789062 L 25.257812 210.304688 L 24.867188 209.804688 L 24.507812 209.289062 L 24.15625 208.765625 L 23.828125 208.226562 L 23.515625 207.679688 L 23.21875 207.117188 L 22.9375 206.554688 L 22.679688 205.96875 L 22.429688 205.375 L 22.203125 204.773438 L 21.984375 204.15625 L 21.789062 203.53125 L 21.601562 202.898438 L 21.429688 202.257812 L 21.273438 201.601562 L 21.132812 200.945312 L 21 200.273438 L 20.882812 199.59375 L 20.773438 198.90625 L 20.679688 198.210938 L 20.59375 197.507812 L 20.523438 196.796875 L 20.460938 196.078125 L 20.414062 195.351562 L 20.367188 194.617188 L 20.335938 193.875 L 20.3125 193.132812 L 20.296875 192.382812 L 20.296875 190.859375 L 20.304688 190.085938 L 20.320312 189.3125 L 20.351562 188.53125 L 20.414062 186.953125 L 20.460938 186.164062 L 20.507812 185.359375 L 20.554688 184.5625 L 20.617188 183.75 L 20.679688 182.945312 L 20.742188 182.132812 L 20.804688 181.3125 L 20.875 180.492188 L 20.953125 179.679688 L 21.03125 178.851562 L 21.109375 178.03125 L 21.1875 177.203125 L 21.265625 176.367188 L 21.34375 175.539062 L 21.429688 174.710938 L 21.507812 173.882812 L 21.664062 172.210938 L 21.742188 171.382812 L 21.820312 170.546875 L 21.898438 169.71875 L 21.96875 168.882812 L 22.039062 168.054688 L 22.101562 167.226562 L 22.171875 166.398438 L 22.28125 164.742188 L 22.328125 163.921875 L 22.375 163.09375 L 22.414062 162.28125 L 22.445312 161.460938 L 22.476562 160.648438 L 22.492188 159.84375 L 22.507812 159.03125 L 22.515625 158.234375 L 22.5 156.640625 L 22.484375 155.851562 L 22.453125 155.0625 L 22.414062 154.28125 L 22.367188 153.507812 L 22.3125 152.734375 L 22.242188 151.96875 L 22.171875 151.210938 L 22.078125 150.460938 L 21.976562 149.710938 L 21.859375 148.976562 L 21.734375 148.242188 L 21.601562 147.515625 L 21.445312 146.796875 L 21.28125 146.085938 L 21.101562 145.382812 L 20.90625 144.6875 L 20.703125 143.992188 L 20.476562 143.3125 L 20.242188 142.648438 L 19.984375 141.984375 L 19.710938 141.328125 L 19.421875 140.6875 L 19.117188 140.054688 L 18.796875 139.429688 L 18.460938 138.8125 L 18.101562 138.210938 L 17.726562 137.617188 L 17.328125 137.039062 L 16.914062 136.460938 L 16.476562 135.90625 L 16.023438 135.351562 L 15.546875 134.820312 L 15.046875 134.296875 L 14.53125 133.78125 L 13.992188 133.28125 L 14.53125 132.78125 L 15.046875 132.265625 L 15.546875 131.742188 L 16.023438 131.203125 L 16.476562 130.65625 L 16.914062 130.09375 L 17.328125 129.523438 L 17.726562 128.9375 L 18.101562 128.34375 L 18.460938 127.742188 L 18.796875 127.132812 L 19.117188 126.507812 L 19.421875 125.867188 L 19.710938 125.226562 L 19.984375 124.570312 L 20.242188 123.914062 L 20.476562 123.242188 L 20.703125 122.5625 L 20.90625 121.875 L 21.101562 121.179688 L 21.28125 120.476562 L 21.445312 119.765625 L 21.601562 119.046875 L 21.734375 118.3125 L 21.859375 117.585938 L 21.976562 116.84375 L 22.078125 116.09375 L 22.171875 115.34375 L 22.242188 114.585938 L 22.3125 113.820312 L 22.367188 113.046875 L 22.414062 112.273438 L 22.453125 111.492188 L 22.484375 110.710938 L 22.5 109.921875 L 22.515625 108.328125 L 22.507812 107.523438 L 22.492188 106.71875 L 22.476562 105.90625 L 22.414062 104.28125 L 22.375 103.460938 L 22.328125 102.640625 L 22.28125 101.8125 L 22.226562 100.992188 L 22.171875 100.164062 L 22.101562 99.335938 L 22.039062 98.507812 L 21.96875 97.671875 L 21.898438 96.84375 L 21.820312 96.007812 L 21.742188 95.179688 L 21.664062 94.34375 L 21.585938 93.515625 L 21.507812 92.679688 L 21.429688 91.851562 L 21.34375 91.015625 L 21.03125 87.703125 L 20.875 86.0625 L 20.804688 85.242188 L 20.617188 82.804688 L 20.554688 82 L 20.507812 81.195312 L 20.414062 79.601562 L 20.382812 78.8125 L 20.351562 78.03125 L 20.320312 77.242188 L 20.304688 76.46875 L 20.296875 75.703125 L 20.296875 74.179688 L 20.3125 73.429688 L 20.335938 72.679688 L 20.367188 71.9375 L 20.460938 70.484375 L 20.523438 69.765625 L 20.59375 69.046875 L 20.679688 68.351562 L 20.773438 67.648438 L 20.882812 66.960938 L 21 66.289062 L 21.132812 65.617188 L 21.273438 64.953125 L 21.429688 64.296875 L 21.601562 63.65625 L 21.789062 63.023438 L 21.984375 62.398438 L 22.203125 61.789062 L 22.429688 61.179688 L 22.679688 60.59375 L 22.9375 60.007812 L 23.21875 59.4375 L 23.515625 58.875 L 23.828125 58.328125 L 24.15625 57.789062 L 24.507812 57.265625 L 24.867188 56.757812 L 25.257812 56.257812 L 25.65625 55.765625 L 26.078125 55.296875 L 26.523438 54.828125 L 26.992188 54.382812 L 27.476562 53.953125 L 27.976562 53.53125 L 28.507812 53.125 L 29.054688 52.734375 L 29.625 52.351562 L 30.21875 51.992188 L 30.835938 51.640625 L 31.476562 51.3125 L 32.140625 50.992188 "/>
<path fill="none" stroke-width="3.985" stroke-linecap="butt" stroke-linejoin="miter" stroke="rgb(0%, 0%, 0%)" stroke-opacity="1" stroke-miterlimit="10" d="M 160.703123 1165.039045 L 158.32031 1163.945295 L 156.054685 1162.77342 L 153.867185 1161.484358 L 151.718748 1160.156233 L 149.72656 1158.71092 L 147.773435 1157.187483 L 145.898435 1155.546858 L 144.10156 1153.828108 L 142.38281 1152.031233 L 140.742185 1150.156233 L 139.179685 1148.203108 L 137.656248 1146.171858 L 136.249998 1144.062483 L 134.88281 1141.83592 L 133.593748 1139.570296 L 132.343748 1137.226546 L 131.210936 1134.804671 L 130.117186 1132.304671 L 129.062498 1129.726546 L 128.085936 1127.109358 L 127.148436 1124.414046 L 126.289061 1121.640608 L 125.468748 1118.828108 L 124.726561 1115.898421 L 124.023436 1112.968733 L 123.359373 1109.921858 L 122.734373 1106.835921 L 122.187498 1103.710921 L 121.640623 1100.507796 L 121.171873 1097.265609 L 120.742186 1093.945296 L 120.351561 1090.585921 L 119.999998 1087.187484 L 119.687498 1083.749984 L 119.414061 1080.234359 L 119.179686 1076.679671 L 118.984373 1073.085922 L 118.789061 1069.414047 L 118.632811 1065.742172 L 118.515623 1062.031234 L 118.359373 1054.453109 L 118.320311 1050.624984 L 118.281248 1046.718734 L 118.281248 1042.812484 L 118.320311 1038.867172 L 118.320311 1034.882797 L 118.398436 1030.898422 L 118.437498 1026.835922 L 118.515623 1022.773422 L 118.632811 1018.67186 L 118.710936 1014.570297 L 118.945311 1006.289048 L 119.062498 1002.10936 L 119.296873 993.67186 L 119.453123 989.45311 L 119.687498 980.937485 L 119.804686 976.64061 L 119.921873 972.382798 L 119.999998 968.085923 L 120.117186 963.789048 L 120.195311 959.492173 L 120.273436 955.156236 L 120.312498 950.859361 L 120.390623 946.523423 L 120.390623 942.187486 L 120.429686 937.890611 L 120.429686 933.554674 L 120.351561 924.960924 L 120.273436 920.664049 L 120.039061 912.070299 L 119.882811 907.812486 L 119.687498 903.515612 L 119.492186 899.257799 L 118.945311 890.820299 L 118.632811 886.601549 L 118.281248 882.421862 L 117.421873 874.140612 L 116.953123 869.999987 L 116.406248 865.898425 L 115.859373 861.835925 L 115.234373 857.812487 L 114.570311 853.78905 L 113.828123 849.804675 L 113.046873 845.859362 L 112.226561 841.953112 L 111.367186 838.046863 L 110.429686 834.218738 L 109.453123 830.390613 L 108.398436 826.60155 L 107.265623 822.890613 L 106.093748 819.179675 L 104.843748 815.546863 L 103.515623 811.91405 L 102.148436 808.359363 L 100.742186 804.843738 L 99.218749 801.406238 L 97.617186 797.968738 L 95.976561 794.609363 L 94.218749 791.289051 L 92.421874 788.046863 L 90.546874 784.804676 L 88.554686 781.679676 L 86.523436 778.593738 L 84.374999 775.546863 L 82.187499 772.578113 L 79.882811 769.687489 L 77.499999 766.835926 L 74.999999 764.062489 L 72.421874 761.328114 L 69.804686 758.671864 L 67.031249 756.093739 L 64.179687 753.593739 L 67.031249 751.093739 L 69.804686 748.515614 L 72.421874 745.859364 L 74.999999 743.164051 L 77.499999 740.390614 L 79.882811 737.539052 L 82.187499 734.609364 L 84.374999 731.640614 L 86.523436 728.632802 L 88.554686 725.546864 L 90.546874 722.382802 L 92.421874 719.179677 L 94.218749 715.937489 L 95.976561 712.617177 L 97.617186 709.257802 L 99.218749 705.820302 L 100.742186 702.34374 L 102.148436 698.828115 L 103.515623 695.273427 L 104.843748 691.679677 L 106.093748 688.007802 L 107.265623 684.335927 L 108.398436 680.585927 L 109.453123 676.835927 L 110.429686 673.007802 L 111.367186 669.140615 L 112.226561 665.273428 L 113.046873 661.367178 L 113.828123 657.382803 L 114.570311 653.398428 L 115.234373 649.414053 L 115.859373 645.351553 L 116.406248 641.289053 L 116.953123 637.187491 L 117.421873 633.085928 L 117.851561 628.945303 L 118.281248 624.765616 L 118.632811 620.585928 L 118.945311 616.406241 L 119.218748 612.187491 L 119.492186 607.929678 L 119.882811 599.414054 L 120.039061 595.156241 L 120.273436 586.562491 L 120.351561 582.265616 L 120.390623 577.929679 L 120.429686 573.632804 L 120.429686 569.335929 L 120.390623 564.999992 L 120.390623 560.703117 L 120.312498 556.367179 L 120.273436 552.070304 L 120.195311 547.734367 L 120.117186 543.437492 L 119.999998 539.140617 L 119.921873 534.843742 L 119.804686 530.546867 L 119.453123 517.77343 L 119.296873 513.515617 L 119.179686 509.296867 L 118.828123 496.757805 L 118.710936 492.656243 L 118.632811 488.515618 L 118.515623 484.414055 L 118.437498 480.390618 L 118.398436 476.328118 L 118.320311 472.30468 L 118.320311 468.359368 L 118.281248 464.414056 L 118.281248 460.507806 L 118.320311 456.601556 L 118.359373 452.773431 L 118.437498 448.945306 L 118.515623 445.195306 L 118.632811 441.445306 L 118.789061 437.773431 L 118.984373 434.140619 L 119.179686 430.546869 L 119.414061 426.992181 L 119.687498 423.476556 L 119.999998 419.999994 L 120.351561 416.601556 L 120.742186 413.242181 L 121.171873 409.960931 L 121.640623 406.679681 L 122.734373 400.351557 L 123.359373 397.265619 L 124.023436 394.257807 L 124.726561 391.289057 L 125.468748 388.398432 L 126.289061 385.585932 L 127.148436 382.812494 L 128.085936 380.117182 L 129.062498 377.460932 L 130.117186 374.921869 L 131.210936 372.421869 L 132.343748 369.999994 L 133.593748 367.617182 L 134.88281 365.351557 L 136.249998 363.164057 L 137.656248 361.054682 L 139.179685 359.023432 L 140.742185 357.070307 L 142.38281 355.195307 L 144.10156 353.35937 L 145.898435 351.679682 L 147.773435 350.039057 L 149.72656 348.51562 L 151.718748 347.070307 L 153.867185 345.70312 L 156.054685 344.45312 L 158.32031 343.281245 L 160.703123 342.187495 L 157.38281 343.789057 L 154.179685 345.429682 L 151.093748 347.187495 L 148.124998 348.98437 L 145.273435 350.85937 L 142.53906 352.851557 L 139.88281 354.843745 L 137.38281 356.95312 L 134.960935 359.14062 L 132.617186 361.367182 L 130.390623 363.67187 L 128.281248 366.054682 L 126.289061 368.476557 L 124.335936 370.976557 L 122.539061 373.554682 L 120.781248 376.171869 L 119.140623 378.867182 L 117.578123 381.601557 L 116.093748 384.414057 L 114.687498 387.226557 L 113.398436 390.156244 L 112.148436 393.124994 L 111.015623 396.132807 L 109.921873 399.218744 L 108.945311 402.343744 L 108.007811 405.507806 L 107.148436 408.710931 L 106.367186 411.992181 L 105.664061 415.273431 L 104.999998 418.632806 L 104.414061 422.031244 L 103.867186 425.468744 L 103.398436 428.945306 L 102.968748 432.460931 L 102.617186 436.015619 L 102.304686 439.609368 L 102.070311 443.242181 L 101.835936 446.914056 L 101.679686 450.624993 L 101.562498 454.335931 L 101.484373 458.085931 L 101.484373 465.703118 L 101.523436 469.570306 L 101.601561 473.437493 L 101.757811 477.343743 L 102.070311 485.234368 L 102.304686 489.17968 L 102.539061 493.203118 L 102.773436 497.187493 L 103.085936 501.249993 L 103.398436 505.27343 L 103.710936 509.33593 L 104.023436 513.437492 L 104.374998 517.539055 L 104.765623 521.601555 L 105.156248 525.74218 L 105.546873 529.843742 L 105.937498 533.984367 L 106.328123 538.164054 L 106.718748 542.304679 L 107.148436 546.445304 L 107.539061 550.585929 L 108.320311 558.945304 L 108.710936 563.085929 L 109.101561 567.265617 L 109.492186 571.406241 L 109.843748 575.585929 L 110.195311 579.726554 L 110.507811 583.867179 L 110.859373 588.007804 L 111.406248 596.289054 L 111.640623 600.390616 L 111.874998 604.531241 L 112.070311 608.593741 L 112.226561 612.695303 L 112.382811 616.757803 L 112.460936 620.781241 L 112.539061 624.843741 L 112.578123 628.828116 L 112.499998 636.796866 L 112.421873 640.742178 L 112.265623 644.68749 L 112.070311 648.59374 L 111.835936 652.460928 L 111.562498 656.328115 L 111.210936 660.15624 L 110.859373 663.945303 L 110.390623 667.695303 L 109.882811 671.445302 L 109.296873 675.117177 L 108.671873 678.789052 L 108.007811 682.421865 L 107.226561 686.015615 L 106.406248 689.570302 L 105.507811 693.085927 L 104.531248 696.56249 L 103.515623 700.039052 L 102.382811 703.43749 L 101.210936 706.757802 L 99.921874 710.078114 L 98.554686 713.359364 L 97.109374 716.562489 L 95.585936 719.726552 L 93.984374 722.851552 L 92.304686 725.937489 L 90.507811 728.945302 L 88.632811 731.914052 L 86.640624 734.804677 L 84.570311 737.695302 L 82.382811 740.468739 L 80.117186 743.242176 L 77.734374 745.898426 L 75.234374 748.515614 L 72.656249 751.093739 L 69.960936 753.593739 L 72.656249 756.093739 L 75.234374 758.671864 L 77.734374 761.289051 L 80.117186 763.984364 L 82.382811 766.718739 L 84.570311 769.531239 L 86.640624 772.382801 L 88.632811 775.312488 L 90.507811 778.281238 L 92.304686 781.289051 L 93.984374 784.335926 L 95.585936 787.460926 L 97.109374 790.664051 L 98.554686 793.867176 L 99.921874 797.148426 L 101.210936 800.429676 L 102.382811 803.789051 L 103.515623 807.187488 L 104.531248 810.624988 L 105.507811 814.10155 L 106.406248 817.617175 L 107.226561 821.171863 L 108.007811 824.765613 L 108.671873 828.437488 L 109.296873 832.0703 L 109.882811 835.781238 L 110.390623 839.531237 L 110.859373 843.281237 L 111.210936 847.0703 L 111.562498 850.898425 L 111.835936 854.765612 L 112.070311 858.6328 L 112.265623 862.53905 L 112.421873 866.4453 L 112.499998 870.390612 L 112.578123 878.359362 L 112.539061 882.382799 L 112.460936 886.406237 L 112.382811 890.468737 L 112.070311 898.593737 L 111.874998 902.695299 L 111.640623 906.796861 L 111.406248 910.937486 L 111.132811 915.039049 L 110.859373 919.179674 L 110.507811 923.320299 L 110.195311 927.460924 L 109.843748 931.640611 L 109.492186 935.781236 L 109.101561 939.960923 L 108.710936 944.101548 L 108.320311 948.281236 L 107.929686 952.421861 L 107.539061 956.601548 L 107.148436 960.742173 L 106.718748 964.921861 L 105.156248 981.48436 L 104.374998 989.687485 L 104.023436 993.789048 L 103.085936 1005.976548 L 102.773436 1009.999985 L 102.539061 1014.023422 L 102.070311 1021.992172 L 101.914061 1025.937485 L 101.757811 1029.843735 L 101.601561 1033.789047 L 101.523436 1037.656235 L 101.484373 1041.484359 L 101.484373 1049.101547 L 101.562498 1052.851547 L 101.679686 1056.601547 L 101.835936 1060.312484 L 102.304686 1067.578109 L 102.617186 1071.171859 L 102.968748 1074.765609 L 103.398436 1078.242171 L 103.867186 1081.757796 L 104.414061 1085.195296 L 104.999998 1088.554671 L 105.664061 1091.914046 L 106.367186 1095.234359 L 107.148436 1098.515609 L 108.007811 1101.718734 L 108.945311 1104.882796 L 109.921873 1108.007796 L 111.015623 1111.054671 L 112.148436 1114.101546 L 113.398436 1117.031233 L 114.687498 1119.960921 L 116.093748 1122.812483 L 117.578123 1125.624983 L 119.140623 1128.359358 L 120.781248 1131.054671 L 122.539061 1133.671858 L 124.335936 1136.210921 L 126.289061 1138.710921 L 128.281248 1141.171858 L 130.390623 1143.515608 L 132.617186 1145.859358 L 134.960935 1148.08592 L 137.38281 1150.234358 L 139.88281 1152.343733 L 142.53906 1154.374983 L 145.273435 1156.328108 L 148.124998 1158.24217 L 151.093748 1160.039045 L 154.179685 1161.796858 L 157.38281 1163.437483 Z M 160.703123 1165.039045 " transform="matrix(0.2, 0, 0, -0.2, 0, 284)"/>
<path fill-rule="nonzero" fill="rgb(100%, 100%, 100%)" fill-opacity="1" d="M 6.695312 219.703125 L 35.976562 219.703125 L 35.976562 246.585938 L 6.695312 246.585938 Z M 6.695312 219.703125 "/>
<path fill-rule="nonzero" fill="rgb(0%, 0%, 0%)" fill-opacity="1" d="M 28.875 231.058594 C 28.875 227.527344 26.5625 225.183594 23.3125 225.183594 C 18.59375 225.183594 13.78125 230.121094 13.78125 235.214844 C 13.78125 238.839844 16.21875 241.027344 19.375 241.027344 C 24 241.027344 28.875 236.246094 28.875 231.058594 Z M 19.5 240.464844 C 17.34375 240.464844 15.8125 238.714844 15.8125 235.839844 C 15.8125 234.871094 16.125 231.683594 17.8125 229.121094 C 19.3125 226.871094 21.4375 225.714844 23.15625 225.714844 C 24.96875 225.714844 26.90625 226.933594 26.90625 230.183594 C 26.90625 231.777344 26.34375 235.183594 24.15625 237.839844 C 23.125 239.183594 21.34375 240.464844 19.5 240.464844 Z M 19.5 240.464844 "/>
<path fill-rule="nonzero" fill="rgb(100%, 100%, 100%)" fill-opacity="1" d="M 340.15625 219.703125 L 372.078125 219.703125 L 372.078125 246.585938 L 340.15625 246.585938 Z M 340.15625 219.703125 "/>
<path fill-rule="nonzero" fill="rgb(0%, 0%, 0%)" fill-opacity="1" d="M 356.773438 231.589844 L 354.929688 227.246094 C 354.867188 227.089844 354.804688 226.996094 354.804688 226.964844 C 354.804688 226.839844 355.179688 226.433594 356.117188 226.339844 C 356.335938 226.308594 356.554688 226.308594 356.554688 225.933594 C 356.554688 225.652344 356.273438 225.652344 356.210938 225.652344 C 355.304688 225.652344 354.367188 225.714844 353.460938 225.714844 C 352.929688 225.714844 351.554688 225.652344 351.023438 225.652344 C 350.898438 225.652344 350.617188 225.652344 350.617188 226.089844 C 350.617188 226.339844 350.835938 226.339844 351.117188 226.339844 C 352.429688 226.339844 352.585938 226.558594 352.773438 227.027344 L 355.335938 233.121094 L 350.742188 238.058594 L 350.460938 238.308594 C 349.398438 239.464844 348.367188 239.808594 347.242188 239.871094 C 346.960938 239.902344 346.773438 239.902344 346.773438 240.308594 C 346.773438 240.339844 346.773438 240.558594 347.054688 240.558594 C 347.710938 240.558594 348.429688 240.496094 349.117188 240.496094 C 349.898438 240.496094 350.773438 240.558594 351.554688 240.558594 C 351.679688 240.558594 351.929688 240.558594 351.929688 240.121094 C 351.929688 239.902344 351.710938 239.871094 351.679688 239.871094 C 351.492188 239.871094 350.804688 239.808594 350.804688 239.214844 C 350.804688 238.871094 351.117188 238.496094 351.398438 238.214844 L 353.617188 235.871094 L 355.585938 233.746094 L 357.773438 238.933594 C 357.867188 239.183594 357.898438 239.214844 357.898438 239.246094 C 357.898438 239.433594 357.492188 239.808594 356.617188 239.871094 C 356.398438 239.902344 356.179688 239.933594 356.179688 240.308594 C 356.179688 240.558594 356.429688 240.558594 356.523438 240.558594 C 357.117188 240.558594 358.648438 240.496094 359.273438 240.496094 C 359.804688 240.496094 361.148438 240.558594 361.679688 240.558594 C 361.835938 240.558594 362.117188 240.558594 362.117188 240.152344 C 362.117188 239.871094 361.898438 239.871094 361.710938 239.871094 C 360.242188 239.871094 360.210938 239.808594 359.835938 238.933594 C 358.992188 236.902344 357.523438 233.496094 357.023438 232.183594 C 358.492188 230.652344 360.804688 228.058594 361.492188 227.464844 C 362.117188 226.933594 362.960938 226.402344 364.273438 226.339844 C 364.554688 226.308594 364.742188 226.308594 364.742188 225.902344 C 364.742188 225.871094 364.742188 225.652344 364.460938 225.652344 C 363.804688 225.652344 363.085938 225.714844 362.398438 225.714844 C 361.585938 225.714844 360.773438 225.652344 359.992188 225.652344 C 359.867188 225.652344 359.585938 225.652344 359.585938 226.089844 C 359.585938 226.246094 359.679688 226.308594 359.835938 226.339844 C 360.023438 226.371094 360.710938 226.402344 360.710938 227.027344 C 360.710938 227.308594 360.460938 227.589844 360.304688 227.808594 Z M 356.773438 231.589844 "/>
<path fill-rule="nonzero" fill="rgb(100%, 100%, 100%)" fill-opacity="1" d="M 6.453125 -5.757812 L 35.976562 -5.757812 L 35.976562 21.125 L 6.453125 21.125 Z M 6.453125 -5.757812 "/>
<path fill-rule="nonzero" fill="rgb(0%, 0%, 0%)" fill-opacity="1" d="M 25.511719 2.695312 L 25.792969 2.382812 C 26.449219 1.726562 27.167969 0.976562 28.667969 0.882812 C 28.917969 0.851562 29.105469 0.851562 29.105469 0.476562 C 29.105469 0.289062 28.980469 0.195312 28.824219 0.195312 C 28.261719 0.195312 27.605469 0.257812 27.042969 0.257812 C 26.324219 0.257812 25.542969 0.195312 24.855469 0.195312 C 24.730469 0.195312 24.449219 0.195312 24.449219 0.632812 C 24.449219 0.851562 24.636719 0.882812 24.761719 0.882812 C 24.917969 0.882812 25.542969 0.914062 25.542969 1.382812 C 25.542969 1.757812 25.042969 2.320312 24.949219 2.414062 L 19.886719 8.257812 L 17.511719 1.789062 C 17.355469 1.476562 17.355469 1.414062 17.355469 1.414062 C 17.355469 0.882812 18.449219 0.882812 18.667969 0.882812 C 18.949219 0.882812 19.167969 0.882812 19.167969 0.445312 C 19.167969 0.195312 18.917969 0.195312 18.855469 0.195312 C 18.230469 0.195312 16.699219 0.257812 16.105469 0.257812 C 15.542969 0.257812 14.199219 0.195312 13.667969 0.195312 C 13.542969 0.195312 13.230469 0.195312 13.230469 0.632812 C 13.230469 0.882812 13.449219 0.882812 13.730469 0.882812 C 15.042969 0.882812 15.136719 1.070312 15.324219 1.632812 L 18.011719 8.789062 C 18.042969 8.851562 18.105469 9.101562 18.105469 9.164062 C 18.105469 9.226562 17.230469 12.757812 17.136719 13.132812 C 16.855469 14.351562 16.824219 14.414062 15.074219 14.414062 C 14.667969 14.414062 14.480469 14.414062 14.480469 14.851562 C 14.480469 15.101562 14.761719 15.101562 14.792969 15.101562 C 15.417969 15.101562 16.917969 15.039062 17.542969 15.039062 C 18.136719 15.039062 19.730469 15.101562 20.324219 15.101562 C 20.480469 15.101562 20.761719 15.101562 20.761719 14.664062 C 20.761719 14.414062 20.542969 14.414062 20.136719 14.414062 C 20.105469 14.414062 19.667969 14.414062 19.292969 14.382812 C 18.855469 14.351562 18.730469 14.289062 18.730469 14.039062 C 18.730469 13.882812 18.917969 13.101562 19.011719 12.664062 L 19.792969 9.570312 C 19.886719 9.164062 19.917969 9.101562 20.105469 8.914062 Z M 25.511719 2.695312 "/>
<path fill="none" stroke-width="11.9553" stroke-linecap="butt" stroke-linejoin="miter" stroke="rgb(0%, 0%, 0%)" stroke-opacity="1" stroke-miterlimit="10" d="M 18.007812 321.601558 L 1800.039036 321.601558 " transform="matrix(0.2, 0, 0, -0.2, 0, 284)"/>
<path fill="none" stroke-width="11.9553" stroke-linecap="butt" stroke-linejoin="miter" stroke="rgb(0%, 0%, 0%)" stroke-opacity="1" stroke-miterlimit="10" d="M 179.999997 148.78906 L 179.999997 1401.601542 " transform="matrix(0.2, 0, 0, -0.2, 0, 284)"/>
<path fill-rule="nonzero" fill="rgb(0%, 0%, 0%)" fill-opacity="1" d="M 153.597656 276.300781 C 154.785156 275.894531 156.785156 275.300781 156.785156 273.363281 C 156.785156 271.050781 154.066406 269.988281 152.097656 269.988281 C 151.160156 269.988281 150.191406 270.207031 149.347656 270.707031 C 149.222656 270.769531 149.066406 270.957031 148.910156 270.957031 C 148.597656 270.957031 148.035156 269.988281 147.722656 269.988281 C 147.535156 269.988281 147.503906 270.207031 147.503906 270.300781 L 147.503906 273.863281 C 147.503906 273.988281 147.597656 274.144531 147.785156 274.144531 C 148.097656 274.144531 148.066406 273.519531 148.160156 273.175781 C 148.628906 271.457031 150.191406 270.707031 151.691406 270.613281 L 152.097656 270.613281 C 153.441406 270.613281 155.003906 271.488281 155.003906 273.363281 C 155.003906 275.175781 153.222656 276.113281 151.566406 276.113281 C 151.253906 276.113281 150.941406 276.113281 150.628906 276.113281 L 150.472656 276.113281 C 150.285156 276.113281 150.066406 276.113281 150.066406 276.332031 L 150.066406 276.363281 C 150.097656 276.550781 150.285156 276.582031 150.472656 276.582031 L 152.316406 276.582031 C 153.878906 276.707031 155.316406 277.738281 155.472656 279.363281 L 155.472656 279.582031 C 155.472656 281.425781 153.753906 282.582031 152.003906 282.582031 C 150.097656 282.582031 148.128906 281.957031 147.816406 279.582031 C 147.816406 279.425781 147.753906 279.238281 147.535156 279.238281 C 147.316406 279.269531 147.285156 279.425781 147.285156 279.582031 C 147.285156 282.175781 149.878906 283.207031 152.128906 283.207031 C 154.191406 283.207031 157.066406 282.238281 157.316406 279.769531 L 157.316406 279.644531 C 157.316406 277.675781 155.253906 276.707031 153.597656 276.300781 Z M 153.597656 276.300781 "/>
<path fill-rule="nonzero" fill="rgb(0%, 0%, 0%)" fill-opacity="1" d="M 165.695312 269.988281 C 162.320312 270.394531 159.632812 273.050781 159.632812 276.644531 C 159.632812 279.925781 162.226562 283.175781 166.101562 283.175781 C 169.601562 283.175781 172.570312 280.269531 172.570312 276.644531 C 172.570312 273.457031 170.070312 269.988281 166.132812 269.988281 C 166.007812 269.988281 165.851562 269.988281 165.695312 269.988281 Z M 161.507812 276.863281 L 161.507812 276.519531 C 161.507812 274.019531 162.414062 271.082031 165.570312 270.550781 C 165.757812 270.519531 165.914062 270.519531 166.101562 270.519531 C 168.914062 270.519531 170.664062 273.238281 170.664062 276.269531 C 170.664062 278.675781 169.945312 281.738281 166.976562 282.519531 C 166.695312 282.582031 166.414062 282.613281 166.132812 282.613281 L 165.945312 282.613281 C 163.351562 282.519531 161.945312 280.050781 161.601562 277.644531 Z M 161.507812 276.863281 "/>
<path fill-rule="nonzero" fill="rgb(0%, 0%, 0%)" fill-opacity="1" d="M 175.027344 270.332031 L 175.027344 270.925781 L 175.464844 270.925781 C 176.058594 270.925781 176.683594 271.019531 176.683594 271.894531 L 176.683594 281.363281 C 176.683594 282.207031 175.964844 282.238281 175.308594 282.238281 L 175.027344 282.238281 L 175.027344 282.832031 L 180.808594 282.832031 C 181.214844 282.832031 181.589844 282.863281 181.996094 282.863281 C 183.996094 282.863281 186.339844 281.925781 186.558594 279.519531 L 186.558594 279.332031 C 186.558594 276.800781 183.683594 275.769531 181.777344 275.769531 C 180.527344 275.769531 179.339844 275.894531 178.152344 275.988281 L 178.152344 271.769531 C 178.152344 271.332031 178.214844 270.925781 178.996094 270.925781 L 181.308594 270.925781 C 182.277344 270.925781 183.371094 270.988281 184.089844 271.707031 C 184.777344 272.425781 184.871094 273.644531 184.964844 274.582031 L 185.496094 274.582031 L 185.027344 270.332031 Z M 178.152344 276.613281 C 178.402344 276.613281 178.652344 276.550781 178.902344 276.519531 L 180.277344 276.457031 C 180.558594 276.425781 180.839844 276.394531 181.152344 276.394531 C 182.714844 276.394531 184.683594 277.394531 184.683594 279.238281 C 184.683594 280.988281 183.339844 282.269531 181.339844 282.269531 C 181.058594 282.269531 180.746094 282.238281 180.496094 282.238281 L 178.964844 282.238281 C 178.496094 282.238281 178.246094 282.207031 178.152344 281.582031 Z M 178.152344 276.613281 "/>
<path fill-rule="nonzero" fill="rgb(0%, 0%, 0%)" fill-opacity="1" d="M 188.90625 270.332031 L 188.90625 270.925781 L 189.375 270.925781 C 189.96875 270.925781 190.5625 271.019531 190.5625 271.894531 L 190.5625 281.363281 C 190.5625 282.207031 189.875 282.238281 189.1875 282.238281 L 188.90625 282.238281 L 188.90625 282.832031 L 193.8125 282.832031 L 193.8125 282.238281 L 193.375 282.238281 C 192.75 282.238281 192.15625 282.175781 192.15625 281.300781 L 192.15625 277.113281 L 195.875 277.113281 C 197.65625 276.988281 199.9375 275.800781 199.9375 273.769531 C 199.9375 271.550781 197.59375 270.488281 195.6875 270.332031 Z M 192.125 276.582031 L 192.125 271.582031 C 192.21875 270.988281 192.46875 270.925781 192.875 270.925781 L 194.3125 270.925781 C 195.9375 270.925781 198.0625 270.988281 198.0625 273.769531 C 198.0625 274.425781 197.96875 275.113281 197.5625 275.613281 C 196.90625 276.394531 195.8125 276.582031 194.84375 276.582031 Z M 192.125 276.582031 "/>
<path fill-rule="nonzero" fill="rgb(0%, 0%, 0%)" fill-opacity="1" d="M 204.632812 280.550781 C 204.132812 280.644531 203.632812 281.082031 203.632812 281.675781 C 203.632812 282.300781 204.164062 282.832031 204.789062 282.832031 C 205.414062 282.832031 205.976562 282.363281 205.976562 281.707031 C 205.976562 281.082031 205.445312 280.519531 204.820312 280.519531 C 204.757812 280.519531 204.695312 280.550781 204.632812 280.550781 Z M 204.632812 280.550781 "/>
<path fill-rule="nonzero" fill="rgb(0%, 0%, 0%)" fill-opacity="1" d="M 219.410156 279.894531 C 219.503906 279.925781 219.660156 279.957031 219.816406 279.957031 C 220.472656 279.957031 220.847656 279.457031 220.847656 278.863281 C 220.847656 278.269531 220.378906 277.832031 219.816406 277.832031 C 219.222656 277.832031 218.722656 278.269531 218.722656 278.957031 C 218.722656 281.269531 220.628906 283.332031 223.191406 283.332031 C 226.097656 283.332031 228.472656 280.988281 228.472656 278.019531 C 228.472656 275.644531 227.128906 273.582031 224.722656 272.894531 C 224.472656 272.832031 224.191406 272.832031 223.910156 272.832031 C 222.660156 272.832031 221.535156 273.238281 220.660156 274.144531 L 220.660156 269.144531 C 221.410156 269.269531 222.097656 269.488281 222.878906 269.488281 C 224.472656 269.488281 226.066406 268.894531 227.253906 267.613281 C 227.378906 267.457031 227.535156 267.363281 227.535156 267.175781 L 227.535156 267.144531 C 227.503906 267.019531 227.410156 266.957031 227.316406 266.957031 C 227.253906 266.957031 227.253906 266.957031 227.191406 266.988281 C 226.035156 267.394531 225.035156 267.707031 223.816406 267.707031 C 222.753906 267.707031 221.628906 267.550781 220.660156 267.113281 C 220.535156 267.050781 220.441406 266.988281 220.285156 266.957031 L 220.222656 266.957031 C 220.128906 266.957031 220.035156 267.050781 220.035156 267.175781 L 220.035156 274.769531 C 220.035156 274.988281 220.066406 275.175781 220.316406 275.175781 C 220.597656 275.175781 220.753906 274.738281 220.941406 274.550781 C 221.691406 273.769531 222.691406 273.332031 223.785156 273.300781 C 224.941406 273.300781 225.660156 274.082031 226.097656 275.019531 C 226.535156 275.957031 226.535156 277.113281 226.535156 278.144531 C 226.535156 279.800781 226.191406 281.550781 224.472656 282.394531 C 224.035156 282.613281 223.566406 282.707031 223.128906 282.707031 C 221.410156 282.707031 219.910156 281.519531 219.410156 279.894531 Z M 219.410156 279.894531 "/>
<path fill-rule="nonzero" fill="rgb(0%, 0%, 0%)" fill-opacity="1" d="M 232.308594 266.675781 L 231.589844 271.457031 L 232.121094 271.457031 C 232.214844 270.738281 232.308594 269.613281 232.714844 269.300781 C 232.839844 269.175781 233.121094 269.207031 233.277344 269.175781 L 233.964844 269.175781 C 234.527344 269.175781 235.121094 269.144531 235.683594 269.144531 L 240.464844 269.144531 C 239.964844 269.738281 239.558594 270.394531 239.089844 271.019531 C 238.433594 271.925781 237.714844 272.863281 237.089844 273.863281 C 235.589844 276.332031 234.621094 279.269531 234.621094 282.207031 L 234.621094 282.457031 C 234.683594 282.957031 235.121094 283.332031 235.621094 283.332031 L 235.683594 283.332031 C 236.496094 283.332031 236.621094 282.613281 236.621094 282.082031 L 236.621094 280.988281 C 236.621094 278.394531 236.839844 275.269531 238.433594 272.988281 C 239.464844 271.457031 240.621094 269.988281 241.714844 268.457031 C 241.871094 268.238281 242.058594 268.050781 242.058594 267.738281 L 242.058594 267.457031 L 236.339844 267.457031 C 236.027344 267.457031 235.621094 267.457031 235.183594 267.457031 C 234.121094 267.457031 232.902344 267.363281 232.839844 266.675781 Z M 232.308594 266.675781 "/>
<path fill-rule="nonzero" fill="rgb(0%, 0%, 0%)" fill-opacity="1" d="M 246.140625 280.550781 C 245.640625 280.644531 245.140625 281.082031 245.140625 281.675781 C 245.140625 282.300781 245.671875 282.832031 246.296875 282.832031 C 246.921875 282.832031 247.484375 282.363281 247.484375 281.707031 C 247.484375 281.082031 246.953125 280.519531 246.328125 280.519531 C 246.265625 280.519531 246.203125 280.550781 246.140625 280.550781 Z M 246.140625 280.550781 "/>
</svg>
