<?xml version="1.0" encoding="UTF-8"?>
<svg xmlns="http://www.w3.org/2000/svg" xmlns:xlink="http://www.w3.org/1999/xlink" width="336" height="330" viewBox="0 0 336 330">
<path fill="none" stroke-width="3.985" stroke-linecap="butt" stroke-linejoin="miter" stroke="rgb(0%, 0%, 0%)" stroke-opacity="1" stroke-miterlimit="10" d="M 1634.140601 1163.86717 L 1629.492163 1162.61717 L 1624.882788 1161.36717 L 1620.312476 1160.078108 L 1611.249976 1157.499983 L 1602.265601 1154.843733 L 1597.812476 1153.515608 L 1593.398414 1152.14842 L 1580.273414 1148.046858 L 1575.976539 1146.640608 L 1571.640602 1145.195295 L 1567.382789 1143.789045 L 1563.124977 1142.343733 L 1558.906227 1140.89842 L 1546.367164 1136.445296 L 1534.062477 1131.874983 L 1521.992165 1127.187483 L 1518.00779 1125.624983 L 1514.062477 1124.023421 L 1510.156227 1122.382796 L 1506.249978 1120.781233 L 1498.515603 1117.499983 L 1494.687478 1115.820296 L 1487.109353 1112.460921 L 1483.359353 1110.742171 L 1475.937478 1107.304671 L 1472.265603 1105.585921 L 1468.593728 1103.828109 L 1464.960916 1102.031234 L 1461.367166 1100.273421 L 1454.257791 1096.679671 L 1450.703103 1094.843734 L 1447.226541 1093.046859 L 1443.710916 1091.171859 L 1440.273416 1089.335921 L 1436.874979 1087.460921 L 1433.437479 1085.585921 L 1426.718729 1081.757796 L 1423.398416 1079.843734 L 1420.078104 1077.890609 L 1416.796854 1075.976546 L 1413.554666 1073.984359 L 1410.312479 1072.031234 L 1407.109354 1070.039047 L 1403.945292 1068.046859 L 1400.781229 1066.015609 L 1397.656229 1063.984359 L 1391.484354 1059.921859 L 1385.390604 1055.781234 L 1382.382792 1053.671859 L 1379.414042 1051.601547 L 1376.445292 1049.453109 L 1373.515605 1047.343734 L 1367.734355 1043.046859 L 1362.03123 1038.67186 L 1356.484355 1034.29686 L 1353.710917 1032.070297 L 1350.976542 1029.843735 L 1348.28123 1027.617172 L 1345.585917 1025.351547 L 1342.96873 1023.085922 L 1340.31248 1020.781235 L 1337.695293 1018.476547 L 1335.117168 1016.17186 L 1332.578105 1013.867172 L 1330.039043 1011.523422 L 1327.539043 1009.179672 L 1325.078105 1006.79686 L 1322.617168 1004.45311 L 1320.15623 1002.031235 L 1317.773418 999.648423 L 1313.007793 994.804673 L 1310.703105 992.343735 L 1308.398418 989.92186 L 1306.093731 987.460923 L 1303.867168 984.960923 L 1301.601543 982.460923 L 1297.226543 977.460923 L 1292.929668 972.382798 L 1290.859356 969.843736 L 1288.749981 967.265611 L 1286.718731 964.687486 L 1284.648418 962.070298 L 1282.656231 959.492173 L 1280.664043 956.835923 L 1278.710918 954.218736 L 1276.757793 951.562486 L 1274.882794 948.906236 L 1272.968731 946.249986 L 1267.460919 938.164049 L 1263.945294 932.695299 L 1262.226544 929.921861 L 1260.507794 927.187486 L 1258.828106 924.414049 L 1257.148419 921.601549 " transform="matrix(0.2, 0, 0, -0.2, 0, 330)"/>
<path fill-rule="nonzero" fill="rgb(100%, 100%, 100%)" fill-opacity="1" d="M 310 83.8125 L 343.84375 83.8125 L 343.84375 110.929688 L 310 110.929688 Z M 310 83.8125 "/>
<path fill-rule="nonzero" fill="rgb(0%, 0%, 0%)" fill-opacity="1" d="M 327.277344 90 C 327.277344 90 327.277344 89.78125 326.996094 89.78125 C 326.683594 89.78125 324.589844 89.96875 324.214844 90 C 324.058594 90.03125 323.933594 90.125 323.933594 90.4375 C 323.933594 90.6875 324.121094 90.6875 324.433594 90.6875 C 325.496094 90.6875 325.527344 90.84375 325.527344 91.0625 L 325.464844 91.5 L 324.152344 96.65625 C 323.777344 95.84375 323.152344 95.25 322.152344 95.25 C 319.589844 95.25 316.902344 98.46875 316.902344 101.65625 C 316.902344 103.71875 318.089844 105.15625 319.808594 105.15625 C 320.246094 105.15625 321.339844 105.0625 322.621094 103.5 C 322.808594 104.4375 323.589844 105.15625 324.621094 105.15625 C 325.371094 105.15625 325.871094 104.65625 326.246094 103.9375 C 326.621094 103.15625 326.902344 101.84375 326.902344 101.78125 C 326.902344 101.5625 326.683594 101.5625 326.621094 101.5625 C 326.402344 101.5625 326.402344 101.65625 326.308594 101.96875 C 325.964844 103.375 325.558594 104.65625 324.652344 104.65625 C 324.089844 104.65625 323.996094 104.09375 323.996094 103.65625 C 323.996094 103.125 324.058594 103 324.152344 102.625 Z M 322.746094 102.3125 C 322.621094 102.71875 322.621094 102.75 322.308594 103.125 C 321.339844 104.3125 320.464844 104.65625 319.839844 104.65625 C 318.746094 104.65625 318.433594 103.46875 318.433594 102.625 C 318.433594 101.53125 319.152344 98.84375 319.652344 97.84375 C 320.339844 96.5625 321.308594 95.75 322.183594 95.75 C 323.589844 95.75 323.902344 97.53125 323.902344 97.65625 C 323.902344 97.78125 323.871094 97.9375 323.839844 98.03125 Z M 322.746094 102.3125 "/>
<path fill-rule="nonzero" fill="rgb(0%, 0%, 0%)" fill-opacity="1" d="M 329.210938 103.625 C 329.148438 103.9375 329.023438 104.4375 329.023438 104.5625 C 329.023438 104.9375 329.335938 105.15625 329.648438 105.15625 C 329.929688 105.15625 330.304688 104.96875 330.460938 104.53125 C 330.523438 104.4375 331.242188 101.46875 331.335938 101.09375 C 331.523438 100.375 331.898438 98.84375 332.023438 98.25 C 332.117188 97.96875 332.742188 96.9375 333.273438 96.46875 C 333.429688 96.3125 334.054688 95.75 334.992188 95.75 C 335.585938 95.75 335.898438 96 335.929688 96 C 335.273438 96.125 334.773438 96.625 334.773438 97.21875 C 334.773438 97.5625 335.023438 97.96875 335.617188 97.96875 C 336.210938 97.96875 336.804688 97.46875 336.804688 96.6875 C 336.804688 95.90625 336.117188 95.25 334.992188 95.25 C 333.585938 95.25 332.617188 96.34375 332.210938 96.9375 C 332.023438 95.96875 331.242188 95.25 330.242188 95.25 C 329.210938 95.25 328.804688 96.125 328.617188 96.5 C 328.210938 97.25 327.929688 98.5625 327.929688 98.625 C 327.929688 98.84375 328.148438 98.84375 328.210938 98.84375 C 328.429688 98.84375 328.429688 98.8125 328.554688 98.34375 C 328.929688 96.78125 329.367188 95.75 330.148438 95.75 C 330.523438 95.75 330.835938 95.90625 330.835938 96.75 C 330.835938 97.21875 330.773438 97.4375 330.492188 98.59375 Z M 329.210938 103.625 "/>
<path fill="none" stroke-width="7.9701" stroke-linecap="butt" stroke-linejoin="miter" stroke="rgb(0%, 0%, 0%)" stroke-opacity="1" stroke-miterlimit="10" d="M 1244.296856 921.601549 L 1243.593731 935.039049 " transform="matrix(0.2, 0, 0, -0.2, 0, 330)"/>
<path fill="none" stroke-width="7.9701" stroke-linecap="butt" stroke-linejoin="miter" stroke="rgb(0%, 0%, 0%)" stroke-opacity="1" stroke-miterlimit="10" d="M 1242.187481 961.914048 L 1241.484357 975.351548 " transform="matrix(0.2, 0, 0, -0.2, 0, 330)"/>
<path fill="none" stroke-width="7.9701" stroke-linecap="butt" stroke-linejoin="miter" stroke="rgb(0%, 0%, 0%)" stroke-opacity="1" stroke-miterlimit="10" d="M 1241.484357 975.351548 L 1239.374982 988.67186 " transform="matrix(0.2, 0, 0, -0.2, 0, 330)"/>
<path fill="none" stroke-width="7.9701" stroke-linecap="butt" stroke-linejoin="miter" stroke="rgb(0%, 0%, 0%)" stroke-opacity="1" stroke-miterlimit="10" d="M 1235.156232 1015.23436 L 1233.085919 1028.554672 " transform="matrix(0.2, 0, 0, -0.2, 0, 330)"/>
<path fill="none" stroke-width="7.9701" stroke-linecap="butt" stroke-linejoin="miter" stroke="rgb(0%, 0%, 0%)" stroke-opacity="1" stroke-miterlimit="10" d="M 1233.085919 1028.554672 L 1229.570294 1041.523422 " transform="matrix(0.2, 0, 0, -0.2, 0, 330)"/>
<path fill="none" stroke-width="7.9701" stroke-linecap="butt" stroke-linejoin="miter" stroke="rgb(0%, 0%, 0%)" stroke-opacity="1" stroke-miterlimit="10" d="M 1222.617169 1067.539047 L 1219.140607 1080.546859 " transform="matrix(0.2, 0, 0, -0.2, 0, 330)"/>
<path fill="none" stroke-width="7.9701" stroke-linecap="butt" stroke-linejoin="miter" stroke="rgb(0%, 0%, 0%)" stroke-opacity="1" stroke-miterlimit="10" d="M 1219.140607 1080.546859 L 1214.296857 1093.085921 " transform="matrix(0.2, 0, 0, -0.2, 0, 330)"/>
<path fill="none" stroke-width="7.9701" stroke-linecap="butt" stroke-linejoin="miter" stroke="rgb(0%, 0%, 0%)" stroke-opacity="1" stroke-miterlimit="10" d="M 1204.64842 1118.242171 L 1199.843732 1130.781233 " transform="matrix(0.2, 0, 0, -0.2, 0, 330)"/>
<path fill="none" stroke-width="7.9701" stroke-linecap="butt" stroke-linejoin="miter" stroke="rgb(0%, 0%, 0%)" stroke-opacity="1" stroke-miterlimit="10" d="M 1199.843732 1130.781233 L 1193.71092 1142.77342 " transform="matrix(0.2, 0, 0, -0.2, 0, 330)"/>
<path fill="none" stroke-width="7.9701" stroke-linecap="butt" stroke-linejoin="miter" stroke="rgb(0%, 0%, 0%)" stroke-opacity="1" stroke-miterlimit="10" d="M 1181.52342 1166.757795 L 1175.390607 1178.749982 " transform="matrix(0.2, 0, 0, -0.2, 0, 330)"/>
<path fill="none" stroke-width="7.9701" stroke-linecap="butt" stroke-linejoin="miter" stroke="rgb(0%, 0%, 0%)" stroke-opacity="1" stroke-miterlimit="10" d="M 1175.390607 1178.749982 L 1168.08592 1190.039045 " transform="matrix(0.2, 0, 0, -0.2, 0, 330)"/>
<path fill="none" stroke-width="7.9701" stroke-linecap="butt" stroke-linejoin="miter" stroke="rgb(0%, 0%, 0%)" stroke-opacity="1" stroke-miterlimit="10" d="M 1153.39842 1212.617169 L 1146.093733 1223.906232 " transform="matrix(0.2, 0, 0, -0.2, 0, 330)"/>
<path fill="none" stroke-width="7.9701" stroke-linecap="butt" stroke-linejoin="miter" stroke="rgb(0%, 0%, 0%)" stroke-opacity="1" stroke-miterlimit="10" d="M 1146.093733 1223.906232 L 1137.617171 1234.374982 " transform="matrix(0.2, 0, 0, -0.2, 0, 330)"/>
<path fill="none" stroke-width="7.9701" stroke-linecap="butt" stroke-linejoin="miter" stroke="rgb(0%, 0%, 0%)" stroke-opacity="1" stroke-miterlimit="10" d="M 1120.664046 1255.273419 L 1112.226546 1265.742169 " transform="matrix(0.2, 0, 0, -0.2, 0, 330)"/>
<path fill="none" stroke-width="7.9701" stroke-linecap="butt" stroke-linejoin="miter" stroke="rgb(0%, 0%, 0%)" stroke-opacity="1" stroke-miterlimit="10" d="M 1112.226546 1265.742169 L 1102.695296 1275.234356 " transform="matrix(0.2, 0, 0, -0.2, 0, 330)"/>
<path fill="none" stroke-width="7.9701" stroke-linecap="butt" stroke-linejoin="miter" stroke="rgb(0%, 0%, 0%)" stroke-opacity="1" stroke-miterlimit="10" d="M 1083.632796 1294.296856 L 1074.140609 1303.789043 " transform="matrix(0.2, 0, 0, -0.2, 0, 330)"/>
<path fill="none" stroke-width="7.9701" stroke-linecap="butt" stroke-linejoin="miter" stroke="rgb(0%, 0%, 0%)" stroke-opacity="1" stroke-miterlimit="10" d="M 1074.140609 1303.789043 L 1063.671859 1312.265605 " transform="matrix(0.2, 0, 0, -0.2, 0, 330)"/>
<path fill="none" stroke-width="7.9701" stroke-linecap="butt" stroke-linejoin="miter" stroke="rgb(0%, 0%, 0%)" stroke-opacity="1" stroke-miterlimit="10" d="M 1042.773422 1329.21873 L 1032.304672 1337.695293 " transform="matrix(0.2, 0, 0, -0.2, 0, 330)"/>
<path fill="none" stroke-width="7.9701" stroke-linecap="butt" stroke-linejoin="miter" stroke="rgb(0%, 0%, 0%)" stroke-opacity="1" stroke-miterlimit="10" d="M 1032.304672 1337.695293 L 1021.01561 1344.99998 " transform="matrix(0.2, 0, 0, -0.2, 0, 330)"/>
<path fill="none" stroke-width="7.9701" stroke-linecap="butt" stroke-linejoin="miter" stroke="rgb(0%, 0%, 0%)" stroke-opacity="1" stroke-miterlimit="10" d="M 998.437485 1359.68748 L 987.148423 1366.992167 " transform="matrix(0.2, 0, 0, -0.2, 0, 330)"/>
<path fill="none" stroke-width="7.9701" stroke-linecap="butt" stroke-linejoin="miter" stroke="rgb(0%, 0%, 0%)" stroke-opacity="1" stroke-miterlimit="10" d="M 987.148423 1366.992167 L 975.156235 1373.12498 " transform="matrix(0.2, 0, 0, -0.2, 0, 330)"/>
<path fill="none" stroke-width="7.9701" stroke-linecap="butt" stroke-linejoin="miter" stroke="rgb(0%, 0%, 0%)" stroke-opacity="1" stroke-miterlimit="10" d="M 951.171861 1385.312479 L 939.179674 1391.445292 " transform="matrix(0.2, 0, 0, -0.2, 0, 330)"/>
<path fill="none" stroke-width="7.9701" stroke-linecap="butt" stroke-linejoin="miter" stroke="rgb(0%, 0%, 0%)" stroke-opacity="1" stroke-miterlimit="10" d="M 939.179674 1391.445292 L 926.640611 1396.249979 " transform="matrix(0.2, 0, 0, -0.2, 0, 330)"/>
<path fill="none" stroke-width="7.9701" stroke-linecap="butt" stroke-linejoin="miter" stroke="rgb(0%, 0%, 0%)" stroke-opacity="1" stroke-miterlimit="10" d="M 901.484362 1405.898417 L 888.945299 1410.742166 " transform="matrix(0.2, 0, 0, -0.2, 0, 330)"/>
<path fill="none" stroke-width="7.9701" stroke-linecap="butt" stroke-linejoin="miter" stroke="rgb(0%, 0%, 0%)" stroke-opacity="1" stroke-miterlimit="10" d="M 888.945299 1410.742166 L 875.937487 1414.218729 " transform="matrix(0.2, 0, 0, -0.2, 0, 330)"/>
<path fill="none" stroke-width="7.9701" stroke-linecap="butt" stroke-linejoin="miter" stroke="rgb(0%, 0%, 0%)" stroke-opacity="1" stroke-miterlimit="10" d="M 849.921862 1421.171854 L 836.953113 1424.687479 " transform="matrix(0.2, 0, 0, -0.2, 0, 330)"/>
<path fill="none" stroke-width="7.9701" stroke-linecap="butt" stroke-linejoin="miter" stroke="rgb(0%, 0%, 0%)" stroke-opacity="1" stroke-miterlimit="10" d="M 836.953113 1424.687479 L 823.6328 1426.757791 " transform="matrix(0.2, 0, 0, -0.2, 0, 330)"/>
<path fill="none" stroke-width="7.9701" stroke-linecap="butt" stroke-linejoin="miter" stroke="rgb(0%, 0%, 0%)" stroke-opacity="1" stroke-miterlimit="10" d="M 797.070301 1430.976541 L 783.749988 1433.085916 " transform="matrix(0.2, 0, 0, -0.2, 0, 330)"/>
<path fill="none" stroke-width="7.9701" stroke-linecap="butt" stroke-linejoin="miter" stroke="rgb(0%, 0%, 0%)" stroke-opacity="1" stroke-miterlimit="10" d="M 783.749988 1433.085916 L 770.312489 1433.789041 " transform="matrix(0.2, 0, 0, -0.2, 0, 330)"/>
<path fill="none" stroke-width="7.9701" stroke-linecap="butt" stroke-linejoin="miter" stroke="rgb(0%, 0%, 0%)" stroke-opacity="1" stroke-miterlimit="10" d="M 743.437489 1435.195291 L 729.999989 1435.898416 " transform="matrix(0.2, 0, 0, -0.2, 0, 330)"/>
<path fill="none" stroke-width="7.9701" stroke-linecap="butt" stroke-linejoin="miter" stroke="rgb(0%, 0%, 0%)" stroke-opacity="1" stroke-miterlimit="10" d="M 729.999989 1435.898416 L 716.562489 1435.195291 " transform="matrix(0.2, 0, 0, -0.2, 0, 330)"/>
<path fill="none" stroke-width="7.9701" stroke-linecap="butt" stroke-linejoin="miter" stroke="rgb(0%, 0%, 0%)" stroke-opacity="1" stroke-miterlimit="10" d="M 689.68749 1433.789041 L 676.24999 1433.085916 " transform="matrix(0.2, 0, 0, -0.2, 0, 330)"/>
<path fill="none" stroke-width="7.9701" stroke-linecap="butt" stroke-linejoin="miter" stroke="rgb(0%, 0%, 0%)" stroke-opacity="1" stroke-miterlimit="10" d="M 676.24999 1433.085916 L 662.96874 1430.976541 " transform="matrix(0.2, 0, 0, -0.2, 0, 330)"/>
<path fill="none" stroke-width="7.9701" stroke-linecap="butt" stroke-linejoin="miter" stroke="rgb(0%, 0%, 0%)" stroke-opacity="1" stroke-miterlimit="10" d="M 636.367178 1426.757791 L 623.085928 1424.687479 " transform="matrix(0.2, 0, 0, -0.2, 0, 330)"/>
<path fill="none" stroke-width="7.9701" stroke-linecap="butt" stroke-linejoin="miter" stroke="rgb(0%, 0%, 0%)" stroke-opacity="1" stroke-miterlimit="10" d="M 623.085928 1424.687479 L 610.078116 1421.171854 " transform="matrix(0.2, 0, 0, -0.2, 0, 330)"/>
<path fill="none" stroke-width="7.9701" stroke-linecap="butt" stroke-linejoin="miter" stroke="rgb(0%, 0%, 0%)" stroke-opacity="1" stroke-miterlimit="10" d="M 584.101554 1414.218729 L 571.093741 1410.742166 " transform="matrix(0.2, 0, 0, -0.2, 0, 330)"/>
<path fill="none" stroke-width="7.9701" stroke-linecap="butt" stroke-linejoin="miter" stroke="rgb(0%, 0%, 0%)" stroke-opacity="1" stroke-miterlimit="10" d="M 571.093741 1410.742166 L 558.515617 1405.898417 " transform="matrix(0.2, 0, 0, -0.2, 0, 330)"/>
<path fill="none" stroke-width="7.9701" stroke-linecap="butt" stroke-linejoin="miter" stroke="rgb(0%, 0%, 0%)" stroke-opacity="1" stroke-miterlimit="10" d="M 533.39843 1396.249979 L 520.820305 1391.445292 " transform="matrix(0.2, 0, 0, -0.2, 0, 330)"/>
<path fill="none" stroke-width="7.9701" stroke-linecap="butt" stroke-linejoin="miter" stroke="rgb(0%, 0%, 0%)" stroke-opacity="1" stroke-miterlimit="10" d="M 520.820305 1391.445292 L 508.828117 1385.312479 " transform="matrix(0.2, 0, 0, -0.2, 0, 330)"/>
<path fill="none" stroke-width="7.9701" stroke-linecap="butt" stroke-linejoin="miter" stroke="rgb(0%, 0%, 0%)" stroke-opacity="1" stroke-miterlimit="10" d="M 484.843743 1373.12498 L 472.851555 1366.992167 " transform="matrix(0.2, 0, 0, -0.2, 0, 330)"/>
<path fill="none" stroke-width="7.9701" stroke-linecap="butt" stroke-linejoin="miter" stroke="rgb(0%, 0%, 0%)" stroke-opacity="1" stroke-miterlimit="10" d="M 472.851555 1366.992167 L 461.562493 1359.68748 " transform="matrix(0.2, 0, 0, -0.2, 0, 330)"/>
<path fill="none" stroke-width="7.9701" stroke-linecap="butt" stroke-linejoin="miter" stroke="rgb(0%, 0%, 0%)" stroke-opacity="1" stroke-miterlimit="10" d="M 438.984368 1344.99998 L 427.734369 1337.695293 " transform="matrix(0.2, 0, 0, -0.2, 0, 330)"/>
<path fill="none" stroke-width="7.9701" stroke-linecap="butt" stroke-linejoin="miter" stroke="rgb(0%, 0%, 0%)" stroke-opacity="1" stroke-miterlimit="10" d="M 427.734369 1337.695293 L 417.265619 1329.21873 " transform="matrix(0.2, 0, 0, -0.2, 0, 330)"/>
<path fill="none" stroke-width="7.9701" stroke-linecap="butt" stroke-linejoin="miter" stroke="rgb(0%, 0%, 0%)" stroke-opacity="1" stroke-miterlimit="10" d="M 396.328119 1312.265605 L 385.898432 1303.789043 " transform="matrix(0.2, 0, 0, -0.2, 0, 330)"/>
<path fill="none" stroke-width="7.9701" stroke-linecap="butt" stroke-linejoin="miter" stroke="rgb(0%, 0%, 0%)" stroke-opacity="1" stroke-miterlimit="10" d="M 385.898432 1303.789043 L 376.367182 1294.296856 " transform="matrix(0.2, 0, 0, -0.2, 0, 330)"/>
<path fill="none" stroke-width="7.9701" stroke-linecap="butt" stroke-linejoin="miter" stroke="rgb(0%, 0%, 0%)" stroke-opacity="1" stroke-miterlimit="10" d="M 357.343745 1275.234356 L 347.812495 1265.742169 " transform="matrix(0.2, 0, 0, -0.2, 0, 330)"/>
<path fill="none" stroke-width="7.9701" stroke-linecap="butt" stroke-linejoin="miter" stroke="rgb(0%, 0%, 0%)" stroke-opacity="1" stroke-miterlimit="10" d="M 347.812495 1265.742169 L 339.335932 1255.273419 " transform="matrix(0.2, 0, 0, -0.2, 0, 330)"/>
<path fill="none" stroke-width="7.9701" stroke-linecap="butt" stroke-linejoin="miter" stroke="rgb(0%, 0%, 0%)" stroke-opacity="1" stroke-miterlimit="10" d="M 322.42187 1234.374982 L 313.945308 1223.906232 " transform="matrix(0.2, 0, 0, -0.2, 0, 330)"/>
<path fill="none" stroke-width="7.9701" stroke-linecap="butt" stroke-linejoin="miter" stroke="rgb(0%, 0%, 0%)" stroke-opacity="1" stroke-miterlimit="10" d="M 313.945308 1223.906232 L 306.601558 1212.617169 " transform="matrix(0.2, 0, 0, -0.2, 0, 330)"/>
<path fill="none" stroke-width="7.9701" stroke-linecap="butt" stroke-linejoin="miter" stroke="rgb(0%, 0%, 0%)" stroke-opacity="1" stroke-miterlimit="10" d="M 291.953121 1190.039045 L 284.609371 1178.749982 " transform="matrix(0.2, 0, 0, -0.2, 0, 330)"/>
<path fill="none" stroke-width="7.9701" stroke-linecap="butt" stroke-linejoin="miter" stroke="rgb(0%, 0%, 0%)" stroke-opacity="1" stroke-miterlimit="10" d="M 284.609371 1178.749982 L 278.515621 1166.757795 " transform="matrix(0.2, 0, 0, -0.2, 0, 330)"/>
<path fill="none" stroke-width="7.9701" stroke-linecap="butt" stroke-linejoin="miter" stroke="rgb(0%, 0%, 0%)" stroke-opacity="1" stroke-miterlimit="10" d="M 266.289059 1142.77342 L 260.195309 1130.781233 " transform="matrix(0.2, 0, 0, -0.2, 0, 330)"/>
<path fill="none" stroke-width="7.9701" stroke-linecap="butt" stroke-linejoin="miter" stroke="rgb(0%, 0%, 0%)" stroke-opacity="1" stroke-miterlimit="10" d="M 260.195309 1130.781233 L 255.351559 1118.242171 " transform="matrix(0.2, 0, 0, -0.2, 0, 330)"/>
<path fill="none" stroke-width="7.9701" stroke-linecap="butt" stroke-linejoin="miter" stroke="rgb(0%, 0%, 0%)" stroke-opacity="1" stroke-miterlimit="10" d="M 245.703121 1093.085921 L 240.898434 1080.546859 " transform="matrix(0.2, 0, 0, -0.2, 0, 330)"/>
<path fill="none" stroke-width="7.9701" stroke-linecap="butt" stroke-linejoin="miter" stroke="rgb(0%, 0%, 0%)" stroke-opacity="1" stroke-miterlimit="10" d="M 240.898434 1080.546859 L 237.421871 1067.539047 " transform="matrix(0.2, 0, 0, -0.2, 0, 330)"/>
<path fill="none" stroke-width="7.9701" stroke-linecap="butt" stroke-linejoin="miter" stroke="rgb(0%, 0%, 0%)" stroke-opacity="1" stroke-miterlimit="10" d="M 230.429684 1041.523422 L 226.953122 1028.554672 " transform="matrix(0.2, 0, 0, -0.2, 0, 330)"/>
<path fill="none" stroke-width="7.9701" stroke-linecap="butt" stroke-linejoin="miter" stroke="rgb(0%, 0%, 0%)" stroke-opacity="1" stroke-miterlimit="10" d="M 226.953122 1028.554672 L 224.843747 1015.23436 " transform="matrix(0.2, 0, 0, -0.2, 0, 330)"/>
<path fill="none" stroke-width="7.9701" stroke-linecap="butt" stroke-linejoin="miter" stroke="rgb(0%, 0%, 0%)" stroke-opacity="1" stroke-miterlimit="10" d="M 220.664059 988.67186 L 218.515622 975.351548 " transform="matrix(0.2, 0, 0, -0.2, 0, 330)"/>
<path fill="none" stroke-width="7.9701" stroke-linecap="butt" stroke-linejoin="miter" stroke="rgb(0%, 0%, 0%)" stroke-opacity="1" stroke-miterlimit="10" d="M 218.515622 975.351548 L 217.812497 961.914048 " transform="matrix(0.2, 0, 0, -0.2, 0, 330)"/>
<path fill="none" stroke-width="7.9701" stroke-linecap="butt" stroke-linejoin="miter" stroke="rgb(0%, 0%, 0%)" stroke-opacity="1" stroke-miterlimit="10" d="M 216.445309 935.039049 L 215.742184 921.601549 " transform="matrix(0.2, 0, 0, -0.2, 0, 330)"/>
<path fill="none" stroke-width="7.9701" stroke-linecap="butt" stroke-linejoin="miter" stroke="rgb(0%, 0%, 0%)" stroke-opacity="1" stroke-miterlimit="10" d="M 215.742184 921.601549 L 216.445309 908.164049 " transform="matrix(0.2, 0, 0, -0.2, 0, 330)"/>
<path fill="none" stroke-width="7.9701" stroke-linecap="butt" stroke-linejoin="miter" stroke="rgb(0%, 0%, 0%)" stroke-opacity="1" stroke-miterlimit="10" d="M 217.812497 881.289049 L 218.515622 867.85155 " transform="matrix(0.2, 0, 0, -0.2, 0, 330)"/>
<path fill="none" stroke-width="7.9701" stroke-linecap="butt" stroke-linejoin="miter" stroke="rgb(0%, 0%, 0%)" stroke-opacity="1" stroke-miterlimit="10" d="M 218.515622 867.85155 L 220.664059 854.5703 " transform="matrix(0.2, 0, 0, -0.2, 0, 330)"/>
<path fill="none" stroke-width="7.9701" stroke-linecap="butt" stroke-linejoin="miter" stroke="rgb(0%, 0%, 0%)" stroke-opacity="1" stroke-miterlimit="10" d="M 224.843747 827.968738 L 226.953122 814.687488 " transform="matrix(0.2, 0, 0, -0.2, 0, 330)"/>
<path fill="none" stroke-width="7.9701" stroke-linecap="butt" stroke-linejoin="miter" stroke="rgb(0%, 0%, 0%)" stroke-opacity="1" stroke-miterlimit="10" d="M 226.953122 814.687488 L 230.429684 801.679676 " transform="matrix(0.2, 0, 0, -0.2, 0, 330)"/>
<path fill="none" stroke-width="7.9701" stroke-linecap="butt" stroke-linejoin="miter" stroke="rgb(0%, 0%, 0%)" stroke-opacity="1" stroke-miterlimit="10" d="M 237.421871 775.703113 L 240.898434 762.695301 " transform="matrix(0.2, 0, 0, -0.2, 0, 330)"/>
<path fill="none" stroke-width="7.9701" stroke-linecap="butt" stroke-linejoin="miter" stroke="rgb(0%, 0%, 0%)" stroke-opacity="1" stroke-miterlimit="10" d="M 240.898434 762.695301 L 245.703121 750.117176 " transform="matrix(0.2, 0, 0, -0.2, 0, 330)"/>
<path fill="none" stroke-width="7.9701" stroke-linecap="butt" stroke-linejoin="miter" stroke="rgb(0%, 0%, 0%)" stroke-opacity="1" stroke-miterlimit="10" d="M 255.351559 724.999989 L 260.195309 712.421864 " transform="matrix(0.2, 0, 0, -0.2, 0, 330)"/>
<path fill="none" stroke-width="7.9701" stroke-linecap="butt" stroke-linejoin="miter" stroke="rgb(0%, 0%, 0%)" stroke-opacity="1" stroke-miterlimit="10" d="M 260.195309 712.421864 L 266.289059 700.429677 " transform="matrix(0.2, 0, 0, -0.2, 0, 330)"/>
<path fill="none" stroke-width="7.9701" stroke-linecap="butt" stroke-linejoin="miter" stroke="rgb(0%, 0%, 0%)" stroke-opacity="1" stroke-miterlimit="10" d="M 278.515621 676.445302 L 284.609371 664.453115 " transform="matrix(0.2, 0, 0, -0.2, 0, 330)"/>
<path fill="none" stroke-width="7.9701" stroke-linecap="butt" stroke-linejoin="miter" stroke="rgb(0%, 0%, 0%)" stroke-opacity="1" stroke-miterlimit="10" d="M 284.609371 664.453115 L 291.953121 653.164053 " transform="matrix(0.2, 0, 0, -0.2, 0, 330)"/>
<path fill="none" stroke-width="7.9701" stroke-linecap="butt" stroke-linejoin="miter" stroke="rgb(0%, 0%, 0%)" stroke-opacity="1" stroke-miterlimit="10" d="M 306.601558 630.585928 L 313.945308 619.296866 " transform="matrix(0.2, 0, 0, -0.2, 0, 330)"/>
<path fill="none" stroke-width="7.9701" stroke-linecap="butt" stroke-linejoin="miter" stroke="rgb(0%, 0%, 0%)" stroke-opacity="1" stroke-miterlimit="10" d="M 313.945308 619.296866 L 322.42187 608.867178 " transform="matrix(0.2, 0, 0, -0.2, 0, 330)"/>
<path fill="none" stroke-width="7.9701" stroke-linecap="butt" stroke-linejoin="miter" stroke="rgb(0%, 0%, 0%)" stroke-opacity="1" stroke-miterlimit="10" d="M 339.335932 587.929679 L 347.812495 577.460929 " transform="matrix(0.2, 0, 0, -0.2, 0, 330)"/>
<path fill="none" stroke-width="7.9701" stroke-linecap="butt" stroke-linejoin="miter" stroke="rgb(0%, 0%, 0%)" stroke-opacity="1" stroke-miterlimit="10" d="M 347.812495 577.460929 L 357.343745 567.968742 " transform="matrix(0.2, 0, 0, -0.2, 0, 330)"/>
<path fill="none" stroke-width="7.9701" stroke-linecap="butt" stroke-linejoin="miter" stroke="rgb(0%, 0%, 0%)" stroke-opacity="1" stroke-miterlimit="10" d="M 376.367182 548.945304 L 385.898432 539.414054 " transform="matrix(0.2, 0, 0, -0.2, 0, 330)"/>
<path fill="none" stroke-width="7.9701" stroke-linecap="butt" stroke-linejoin="miter" stroke="rgb(0%, 0%, 0%)" stroke-opacity="1" stroke-miterlimit="10" d="M 385.898432 539.414054 L 396.328119 530.937492 " transform="matrix(0.2, 0, 0, -0.2, 0, 330)"/>
<path fill="none" stroke-width="7.9701" stroke-linecap="butt" stroke-linejoin="miter" stroke="rgb(0%, 0%, 0%)" stroke-opacity="1" stroke-miterlimit="10" d="M 417.265619 514.02343 L 427.734369 505.546867 " transform="matrix(0.2, 0, 0, -0.2, 0, 330)"/>
<path fill="none" stroke-width="7.9701" stroke-linecap="butt" stroke-linejoin="miter" stroke="rgb(0%, 0%, 0%)" stroke-opacity="1" stroke-miterlimit="10" d="M 427.734369 505.546867 L 438.984368 498.203118 " transform="matrix(0.2, 0, 0, -0.2, 0, 330)"/>
<path fill="none" stroke-width="7.9701" stroke-linecap="butt" stroke-linejoin="miter" stroke="rgb(0%, 0%, 0%)" stroke-opacity="1" stroke-miterlimit="10" d="M 461.562493 483.55468 L 472.851555 476.21093 " transform="matrix(0.2, 0, 0, -0.2, 0, 330)"/>
<path fill="none" stroke-width="7.9701" stroke-linecap="butt" stroke-linejoin="miter" stroke="rgb(0%, 0%, 0%)" stroke-opacity="1" stroke-miterlimit="10" d="M 472.851555 476.21093 L 484.843743 470.11718 " transform="matrix(0.2, 0, 0, -0.2, 0, 330)"/>
<path fill="none" stroke-width="7.9701" stroke-linecap="butt" stroke-linejoin="miter" stroke="rgb(0%, 0%, 0%)" stroke-opacity="1" stroke-miterlimit="10" d="M 508.828117 457.890618 L 520.820305 451.796868 " transform="matrix(0.2, 0, 0, -0.2, 0, 330)"/>
<path fill="none" stroke-width="7.9701" stroke-linecap="butt" stroke-linejoin="miter" stroke="rgb(0%, 0%, 0%)" stroke-opacity="1" stroke-miterlimit="10" d="M 520.820305 451.796868 L 533.39843 446.953118 " transform="matrix(0.2, 0, 0, -0.2, 0, 330)"/>
<path fill="none" stroke-width="7.9701" stroke-linecap="butt" stroke-linejoin="miter" stroke="rgb(0%, 0%, 0%)" stroke-opacity="1" stroke-miterlimit="10" d="M 558.515617 437.304681 L 571.093741 432.499994 " transform="matrix(0.2, 0, 0, -0.2, 0, 330)"/>
<path fill="none" stroke-width="7.9701" stroke-linecap="butt" stroke-linejoin="miter" stroke="rgb(0%, 0%, 0%)" stroke-opacity="1" stroke-miterlimit="10" d="M 571.093741 432.499994 L 584.101554 429.023431 " transform="matrix(0.2, 0, 0, -0.2, 0, 330)"/>
<path fill="none" stroke-width="7.9701" stroke-linecap="butt" stroke-linejoin="miter" stroke="rgb(0%, 0%, 0%)" stroke-opacity="1" stroke-miterlimit="10" d="M 610.078116 422.031244 L 623.085928 418.554681 " transform="matrix(0.2, 0, 0, -0.2, 0, 330)"/>
<path fill="none" stroke-width="7.9701" stroke-linecap="butt" stroke-linejoin="miter" stroke="rgb(0%, 0%, 0%)" stroke-opacity="1" stroke-miterlimit="10" d="M 623.085928 418.554681 L 636.367178 416.445306 " transform="matrix(0.2, 0, 0, -0.2, 0, 330)"/>
<path fill="none" stroke-width="7.9701" stroke-linecap="butt" stroke-linejoin="miter" stroke="rgb(0%, 0%, 0%)" stroke-opacity="1" stroke-miterlimit="10" d="M 662.96874 412.226556 L 676.24999 410.117181 " transform="matrix(0.2, 0, 0, -0.2, 0, 330)"/>
<path fill="none" stroke-width="7.9701" stroke-linecap="butt" stroke-linejoin="miter" stroke="rgb(0%, 0%, 0%)" stroke-opacity="1" stroke-miterlimit="10" d="M 676.24999 410.117181 L 689.68749 409.414056 " transform="matrix(0.2, 0, 0, -0.2, 0, 330)"/>
<path fill="none" stroke-width="7.9701" stroke-linecap="butt" stroke-linejoin="miter" stroke="rgb(0%, 0%, 0%)" stroke-opacity="1" stroke-miterlimit="10" d="M 716.562489 408.007806 L 729.999989 407.304681 " transform="matrix(0.2, 0, 0, -0.2, 0, 330)"/>
<path fill="none" stroke-width="7.9701" stroke-linecap="butt" stroke-linejoin="miter" stroke="rgb(0%, 0%, 0%)" stroke-opacity="1" stroke-miterlimit="10" d="M 729.999989 407.304681 L 743.437489 408.007806 " transform="matrix(0.2, 0, 0, -0.2, 0, 330)"/>
<path fill="none" stroke-width="7.9701" stroke-linecap="butt" stroke-linejoin="miter" stroke="rgb(0%, 0%, 0%)" stroke-opacity="1" stroke-miterlimit="10" d="M 770.312489 409.414056 L 783.749988 410.117181 " transform="matrix(0.2, 0, 0, -0.2, 0, 330)"/>
<path fill="none" stroke-width="7.9701" stroke-linecap="butt" stroke-linejoin="miter" stroke="rgb(0%, 0%, 0%)" stroke-opacity="1" stroke-miterlimit="10" d="M 783.749988 410.117181 L 797.070301 412.226556 " transform="matrix(0.2, 0, 0, -0.2, 0, 330)"/>
<path fill="none" stroke-width="7.9701" stroke-linecap="butt" stroke-linejoin="miter" stroke="rgb(0%, 0%, 0%)" stroke-opacity="1" stroke-miterlimit="10" d="M 823.6328 416.445306 L 836.953113 418.554681 " transform="matrix(0.2, 0, 0, -0.2, 0, 330)"/>
<path fill="none" stroke-width="7.9701" stroke-linecap="butt" stroke-linejoin="miter" stroke="rgb(0%, 0%, 0%)" stroke-opacity="1" stroke-miterlimit="10" d="M 836.953113 418.554681 L 849.921862 422.031244 " transform="matrix(0.2, 0, 0, -0.2, 0, 330)"/>
<path fill="none" stroke-width="7.9701" stroke-linecap="butt" stroke-linejoin="miter" stroke="rgb(0%, 0%, 0%)" stroke-opacity="1" stroke-miterlimit="10" d="M 875.937487 429.023431 L 888.945299 432.499994 " transform="matrix(0.2, 0, 0, -0.2, 0, 330)"/>
<path fill="none" stroke-width="7.9701" stroke-linecap="butt" stroke-linejoin="miter" stroke="rgb(0%, 0%, 0%)" stroke-opacity="1" stroke-miterlimit="10" d="M 888.945299 432.499994 L 901.484362 437.304681 " transform="matrix(0.2, 0, 0, -0.2, 0, 330)"/>
<path fill="none" stroke-width="7.9701" stroke-linecap="butt" stroke-linejoin="miter" stroke="rgb(0%, 0%, 0%)" stroke-opacity="1" stroke-miterlimit="10" d="M 926.640611 446.953118 L 939.179674 451.796868 " transform="matrix(0.2, 0, 0, -0.2, 0, 330)"/>
<path fill="none" stroke-width="7.9701" stroke-linecap="butt" stroke-linejoin="miter" stroke="rgb(0%, 0%, 0%)" stroke-opacity="1" stroke-miterlimit="10" d="M 939.179674 451.796868 L 951.171861 457.890618 " transform="matrix(0.2, 0, 0, -0.2, 0, 330)"/>
<path fill="none" stroke-width="7.9701" stroke-linecap="butt" stroke-linejoin="miter" stroke="rgb(0%, 0%, 0%)" stroke-opacity="1" stroke-miterlimit="10" d="M 975.156235 470.11718 L 987.148423 476.21093 " transform="matrix(0.2, 0, 0, -0.2, 0, 330)"/>
<path fill="none" stroke-width="7.9701" stroke-linecap="butt" stroke-linejoin="miter" stroke="rgb(0%, 0%, 0%)" stroke-opacity="1" stroke-miterlimit="10" d="M 987.148423 476.21093 L 998.437485 483.55468 " transform="matrix(0.2, 0, 0, -0.2, 0, 330)"/>
<path fill="none" stroke-width="7.9701" stroke-linecap="butt" stroke-linejoin="miter" stroke="rgb(0%, 0%, 0%)" stroke-opacity="1" stroke-miterlimit="10" d="M 1021.01561 498.203118 L 1032.304672 505.546867 " transform="matrix(0.2, 0, 0, -0.2, 0, 330)"/>
<path fill="none" stroke-width="7.9701" stroke-linecap="butt" stroke-linejoin="miter" stroke="rgb(0%, 0%, 0%)" stroke-opacity="1" stroke-miterlimit="10" d="M 1032.304672 505.546867 L 1042.773422 514.02343 " transform="matrix(0.2, 0, 0, -0.2, 0, 330)"/>
<path fill="none" stroke-width="7.9701" stroke-linecap="butt" stroke-linejoin="miter" stroke="rgb(0%, 0%, 0%)" stroke-opacity="1" stroke-miterlimit="10" d="M 1063.671859 530.937492 L 1074.140609 539.414054 " transform="matrix(0.2, 0, 0, -0.2, 0, 330)"/>
<path fill="none" stroke-width="7.9701" stroke-linecap="butt" stroke-linejoin="miter" stroke="rgb(0%, 0%, 0%)" stroke-opacity="1" stroke-miterlimit="10" d="M 1074.140609 539.414054 L 1083.632796 548.945304 " transform="matrix(0.2, 0, 0, -0.2, 0, 330)"/>
<path fill="none" stroke-width="7.9701" stroke-linecap="butt" stroke-linejoin="miter" stroke="rgb(0%, 0%, 0%)" stroke-opacity="1" stroke-miterlimit="10" d="M 1102.695296 567.968742 L 1112.226546 577.460929 " transform="matrix(0.2, 0, 0, -0.2, 0, 330)"/>
<path fill="none" stroke-width="7.9701" stroke-linecap="butt" stroke-linejoin="miter" stroke="rgb(0%, 0%, 0%)" stroke-opacity="1" stroke-miterlimit="10" d="M 1112.226546 577.460929 L 1120.664046 587.929679 " transform="matrix(0.2, 0, 0, -0.2, 0, 330)"/>
<path fill="none" stroke-width="7.9701" stroke-linecap="butt" stroke-linejoin="miter" stroke="rgb(0%, 0%, 0%)" stroke-opacity="1" stroke-miterlimit="10" d="M 1137.617171 608.867178 L 1146.093733 619.296866 " transform="matrix(0.2, 0, 0, -0.2, 0, 330)"/>
<path fill="none" stroke-width="7.9701" stroke-linecap="butt" stroke-linejoin="miter" stroke="rgb(0%, 0%, 0%)" stroke-opacity="1" stroke-miterlimit="10" d="M 1146.093733 619.296866 L 1153.39842 630.585928 " transform="matrix(0.2, 0, 0, -0.2, 0, 330)"/>
<path fill="none" stroke-width="7.9701" stroke-linecap="butt" stroke-linejoin="miter" stroke="rgb(0%, 0%, 0%)" stroke-opacity="1" stroke-miterlimit="10" d="M 1168.08592 653.164053 L 1175.390607 664.453115 " transform="matrix(0.2, 0, 0, -0.2, 0, 330)"/>
<path fill="none" stroke-width="7.9701" stroke-linecap="butt" stroke-linejoin="miter" stroke="rgb(0%, 0%, 0%)" stroke-opacity="1" stroke-miterlimit="10" d="M 1175.390607 664.453115 L 1181.52342 676.445302 " transform="matrix(0.2, 0, 0, -0.2, 0, 330)"/>
<path fill="none" stroke-width="7.9701" stroke-linecap="butt" stroke-linejoin="miter" stroke="rgb(0%, 0%, 0%)" stroke-opacity="1" stroke-miterlimit="10" d="M 1193.71092 700.429677 L 1199.843732 712.421864 " transform="matrix(0.2, 0, 0, -0.2, 0, 330)"/>
<path fill="none" stroke-width="7.9701" stroke-linecap="butt" stroke-linejoin="miter" stroke="rgb(0%, 0%, 0%)" stroke-opacity="1" stroke-miterlimit="10" d="M 1199.843732 712.421864 L 1204.64842 724.999989 " transform="matrix(0.2, 0, 0, -0.2, 0, 330)"/>
<path fill="none" stroke-width="7.9701" stroke-linecap="butt" stroke-linejoin="miter" stroke="rgb(0%, 0%, 0%)" stroke-opacity="1" stroke-miterlimit="10" d="M 1214.296857 750.117176 L 1219.140607 762.695301 " transform="matrix(0.2, 0, 0, -0.2, 0, 330)"/>
<path fill="none" stroke-width="7.9701" stroke-linecap="butt" stroke-linejoin="miter" stroke="rgb(0%, 0%, 0%)" stroke-opacity="1" stroke-miterlimit="10" d="M 1219.140607 762.695301 L 1222.617169 775.703113 " transform="matrix(0.2, 0, 0, -0.2, 0, 330)"/>
<path fill="none" stroke-width="7.9701" stroke-linecap="butt" stroke-linejoin="miter" stroke="rgb(0%, 0%, 0%)" stroke-opacity="1" stroke-miterlimit="10" d="M 1229.570294 801.679676 L 1233.085919 814.687488 " transform="matrix(0.2, 0, 0, -0.2, 0, 330)"/>
<path fill="none" stroke-width="7.9701" stroke-linecap="butt" stroke-linejoin="miter" stroke="rgb(0%, 0%, 0%)" stroke-opacity="1" stroke-miterlimit="10" d="M 1233.085919 814.687488 L 1235.156232 827.968738 " transform="matrix(0.2, 0, 0, -0.2, 0, 330)"/>
<path fill="none" stroke-width="7.9701" stroke-linecap="butt" stroke-linejoin="miter" stroke="rgb(0%, 0%, 0%)" stroke-opacity="1" stroke-miterlimit="10" d="M 1239.374982 854.5703 L 1241.484357 867.85155 " transform="matrix(0.2, 0, 0, -0.2, 0, 330)"/>
<path fill="none" stroke-width="7.9701" stroke-linecap="butt" stroke-linejoin="miter" stroke="rgb(0%, 0%, 0%)" stroke-opacity="1" stroke-miterlimit="10" d="M 1241.484357 867.85155 L 1242.187481 881.289049 " transform="matrix(0.2, 0, 0, -0.2, 0, 330)"/>
<path fill="none" stroke-width="7.9701" stroke-linecap="butt" stroke-linejoin="miter" stroke="rgb(0%, 0%, 0%)" stroke-opacity="1" stroke-miterlimit="10" d="M 1243.593731 908.164049 L 1244.296856 921.601549 " transform="matrix(0.2, 0, 0, -0.2, 0, 330)"/>
<path fill="none" stroke-width="7.9701" stroke-linecap="butt" stroke-linejoin="miter" stroke="rgb(0%, 0%, 0%)" stroke-opacity="1" stroke-miterlimit="10" d="M 1270.039044 921.601549 L 1269.140606 936.992174 " transform="matrix(0.2, 0, 0, -0.2, 0, 330)"/>
<path fill="none" stroke-width="7.9701" stroke-linecap="butt" stroke-linejoin="miter" stroke="rgb(0%, 0%, 0%)" stroke-opacity="1" stroke-miterlimit="10" d="M 1267.382794 967.773423 L 1266.484356 983.164048 " transform="matrix(0.2, 0, 0, -0.2, 0, 330)"/>
<path fill="none" stroke-width="7.9701" stroke-linecap="butt" stroke-linejoin="miter" stroke="rgb(0%, 0%, 0%)" stroke-opacity="1" stroke-miterlimit="10" d="M 1266.484356 983.164048 L 1263.867169 998.35936 " transform="matrix(0.2, 0, 0, -0.2, 0, 330)"/>
<path fill="none" stroke-width="7.9701" stroke-linecap="butt" stroke-linejoin="miter" stroke="rgb(0%, 0%, 0%)" stroke-opacity="1" stroke-miterlimit="10" d="M 1258.593731 1028.710922 L 1255.976544 1043.906234 " transform="matrix(0.2, 0, 0, -0.2, 0, 330)"/>
<path fill="none" stroke-width="7.9701" stroke-linecap="butt" stroke-linejoin="miter" stroke="rgb(0%, 0%, 0%)" stroke-opacity="1" stroke-miterlimit="10" d="M 1255.976544 1043.906234 L 1251.640606 1058.710922 " transform="matrix(0.2, 0, 0, -0.2, 0, 330)"/>
<path fill="none" stroke-width="7.9701" stroke-linecap="butt" stroke-linejoin="miter" stroke="rgb(0%, 0%, 0%)" stroke-opacity="1" stroke-miterlimit="10" d="M 1242.968731 1088.281234 L 1238.593732 1103.085921 " transform="matrix(0.2, 0, 0, -0.2, 0, 330)"/>
<path fill="none" stroke-width="7.9701" stroke-linecap="butt" stroke-linejoin="miter" stroke="rgb(0%, 0%, 0%)" stroke-opacity="1" stroke-miterlimit="10" d="M 1238.593732 1103.085921 L 1232.617169 1117.265608 " transform="matrix(0.2, 0, 0, -0.2, 0, 330)"/>
<path fill="none" stroke-width="7.9701" stroke-linecap="butt" stroke-linejoin="miter" stroke="rgb(0%, 0%, 0%)" stroke-opacity="1" stroke-miterlimit="10" d="M 1220.624982 1145.664045 L 1214.609357 1159.882795 " transform="matrix(0.2, 0, 0, -0.2, 0, 330)"/>
<path fill="none" stroke-width="7.9701" stroke-linecap="butt" stroke-linejoin="miter" stroke="rgb(0%, 0%, 0%)" stroke-opacity="1" stroke-miterlimit="10" d="M 1214.609357 1159.882795 L 1207.031232 1173.281233 " transform="matrix(0.2, 0, 0, -0.2, 0, 330)"/>
<path fill="none" stroke-width="7.9701" stroke-linecap="butt" stroke-linejoin="miter" stroke="rgb(0%, 0%, 0%)" stroke-opacity="1" stroke-miterlimit="10" d="M 1191.874982 1200.156232 L 1184.296857 1213.554669 " transform="matrix(0.2, 0, 0, -0.2, 0, 330)"/>
<path fill="none" stroke-width="7.9701" stroke-linecap="butt" stroke-linejoin="miter" stroke="rgb(0%, 0%, 0%)" stroke-opacity="1" stroke-miterlimit="10" d="M 1184.296857 1213.554669 L 1175.234357 1226.054669 " transform="matrix(0.2, 0, 0, -0.2, 0, 330)"/>
<path fill="none" stroke-width="7.9701" stroke-linecap="butt" stroke-linejoin="miter" stroke="rgb(0%, 0%, 0%)" stroke-opacity="1" stroke-miterlimit="10" d="M 1157.109358 1250.976544 L 1148.046858 1263.437481 " transform="matrix(0.2, 0, 0, -0.2, 0, 330)"/>
<path fill="none" stroke-width="7.9701" stroke-linecap="butt" stroke-linejoin="miter" stroke="rgb(0%, 0%, 0%)" stroke-opacity="1" stroke-miterlimit="10" d="M 1148.046858 1263.437481 L 1137.617171 1274.804669 " transform="matrix(0.2, 0, 0, -0.2, 0, 330)"/>
<path fill="none" stroke-width="7.9701" stroke-linecap="butt" stroke-linejoin="miter" stroke="rgb(0%, 0%, 0%)" stroke-opacity="1" stroke-miterlimit="10" d="M 1116.796858 1297.499981 L 1106.367171 1308.867168 " transform="matrix(0.2, 0, 0, -0.2, 0, 330)"/>
<path fill="none" stroke-width="7.9701" stroke-linecap="butt" stroke-linejoin="miter" stroke="rgb(0%, 0%, 0%)" stroke-opacity="1" stroke-miterlimit="10" d="M 1106.367171 1308.867168 L 1094.687484 1318.945293 " transform="matrix(0.2, 0, 0, -0.2, 0, 330)"/>
<path fill="none" stroke-width="7.9701" stroke-linecap="butt" stroke-linejoin="miter" stroke="rgb(0%, 0%, 0%)" stroke-opacity="1" stroke-miterlimit="10" d="M 1071.406234 1339.140605 L 1059.765609 1349.257792 " transform="matrix(0.2, 0, 0, -0.2, 0, 330)"/>
<path fill="none" stroke-width="7.9701" stroke-linecap="butt" stroke-linejoin="miter" stroke="rgb(0%, 0%, 0%)" stroke-opacity="1" stroke-miterlimit="10" d="M 1059.765609 1349.257792 L 1047.031234 1357.929667 " transform="matrix(0.2, 0, 0, -0.2, 0, 330)"/>
<path fill="none" stroke-width="7.9701" stroke-linecap="butt" stroke-linejoin="miter" stroke="rgb(0%, 0%, 0%)" stroke-opacity="1" stroke-miterlimit="10" d="M 1021.601547 1375.351542 L 1008.867172 1384.023417 " transform="matrix(0.2, 0, 0, -0.2, 0, 330)"/>
<path fill="none" stroke-width="7.9701" stroke-linecap="butt" stroke-linejoin="miter" stroke="rgb(0%, 0%, 0%)" stroke-opacity="1" stroke-miterlimit="10" d="M 1008.867172 1384.023417 L 995.23436 1391.249979 " transform="matrix(0.2, 0, 0, -0.2, 0, 330)"/>
<path fill="none" stroke-width="7.9701" stroke-linecap="butt" stroke-linejoin="miter" stroke="rgb(0%, 0%, 0%)" stroke-opacity="1" stroke-miterlimit="10" d="M 967.968736 1405.624979 L 954.335923 1412.812479 " transform="matrix(0.2, 0, 0, -0.2, 0, 330)"/>
<path fill="none" stroke-width="7.9701" stroke-linecap="butt" stroke-linejoin="miter" stroke="rgb(0%, 0%, 0%)" stroke-opacity="1" stroke-miterlimit="10" d="M 954.335923 1412.812479 L 939.960923 1418.398416 " transform="matrix(0.2, 0, 0, -0.2, 0, 330)"/>
<path fill="none" stroke-width="7.9701" stroke-linecap="butt" stroke-linejoin="miter" stroke="rgb(0%, 0%, 0%)" stroke-opacity="1" stroke-miterlimit="10" d="M 911.249986 1429.609354 L 896.874987 1435.195291 " transform="matrix(0.2, 0, 0, -0.2, 0, 330)"/>
<path fill="none" stroke-width="7.9701" stroke-linecap="butt" stroke-linejoin="miter" stroke="rgb(0%, 0%, 0%)" stroke-opacity="1" stroke-miterlimit="10" d="M 896.874987 1435.195291 L 881.992174 1439.101541 " transform="matrix(0.2, 0, 0, -0.2, 0, 330)"/>
<path fill="none" stroke-width="7.9701" stroke-linecap="butt" stroke-linejoin="miter" stroke="rgb(0%, 0%, 0%)" stroke-opacity="1" stroke-miterlimit="10" d="M 852.148425 1446.953103 L 837.22655 1450.859353 " transform="matrix(0.2, 0, 0, -0.2, 0, 330)"/>
<path fill="none" stroke-width="7.9701" stroke-linecap="butt" stroke-linejoin="miter" stroke="rgb(0%, 0%, 0%)" stroke-opacity="1" stroke-miterlimit="10" d="M 837.22655 1450.859353 L 821.992175 1453.046853 " transform="matrix(0.2, 0, 0, -0.2, 0, 330)"/>
<path fill="none" stroke-width="7.9701" stroke-linecap="butt" stroke-linejoin="miter" stroke="rgb(0%, 0%, 0%)" stroke-opacity="1" stroke-miterlimit="10" d="M 791.484363 1457.421853 L 776.210926 1459.648416 " transform="matrix(0.2, 0, 0, -0.2, 0, 330)"/>
<path fill="none" stroke-width="7.9701" stroke-linecap="butt" stroke-linejoin="miter" stroke="rgb(0%, 0%, 0%)" stroke-opacity="1" stroke-miterlimit="10" d="M 776.210926 1459.648416 L 760.820301 1460.078103 " transform="matrix(0.2, 0, 0, -0.2, 0, 330)"/>
<path fill="none" stroke-width="7.9701" stroke-linecap="butt" stroke-linejoin="miter" stroke="rgb(0%, 0%, 0%)" stroke-opacity="1" stroke-miterlimit="10" d="M 729.999989 1460.976541 L 714.570302 1461.406228 " transform="matrix(0.2, 0, 0, -0.2, 0, 330)"/>
<path fill="none" stroke-width="7.9701" stroke-linecap="butt" stroke-linejoin="miter" stroke="rgb(0%, 0%, 0%)" stroke-opacity="1" stroke-miterlimit="10" d="M 714.570302 1461.406228 L 699.21874 1460.078103 " transform="matrix(0.2, 0, 0, -0.2, 0, 330)"/>
<path fill="none" stroke-width="7.9701" stroke-linecap="butt" stroke-linejoin="miter" stroke="rgb(0%, 0%, 0%)" stroke-opacity="1" stroke-miterlimit="10" d="M 668.515615 1457.421853 L 653.164053 1456.132791 " transform="matrix(0.2, 0, 0, -0.2, 0, 330)"/>
<path fill="none" stroke-width="7.9701" stroke-linecap="butt" stroke-linejoin="miter" stroke="rgb(0%, 0%, 0%)" stroke-opacity="1" stroke-miterlimit="10" d="M 653.164053 1456.132791 L 638.046865 1453.046853 " transform="matrix(0.2, 0, 0, -0.2, 0, 330)"/>
<path fill="none" stroke-width="7.9701" stroke-linecap="butt" stroke-linejoin="miter" stroke="rgb(0%, 0%, 0%)" stroke-opacity="1" stroke-miterlimit="10" d="M 607.851553 1446.953103 L 592.734366 1443.867166 " transform="matrix(0.2, 0, 0, -0.2, 0, 330)"/>
<path fill="none" stroke-width="7.9701" stroke-linecap="butt" stroke-linejoin="miter" stroke="rgb(0%, 0%, 0%)" stroke-opacity="1" stroke-miterlimit="10" d="M 592.734366 1443.867166 L 578.046866 1439.101541 " transform="matrix(0.2, 0, 0, -0.2, 0, 330)"/>
<path fill="none" stroke-width="7.9701" stroke-linecap="butt" stroke-linejoin="miter" stroke="rgb(0%, 0%, 0%)" stroke-opacity="1" stroke-miterlimit="10" d="M 548.749992 1429.570291 L 534.101555 1424.804666 " transform="matrix(0.2, 0, 0, -0.2, 0, 330)"/>
<path fill="none" stroke-width="7.9701" stroke-linecap="butt" stroke-linejoin="miter" stroke="rgb(0%, 0%, 0%)" stroke-opacity="1" stroke-miterlimit="10" d="M 534.101555 1424.804666 L 520.078117 1418.437479 " transform="matrix(0.2, 0, 0, -0.2, 0, 330)"/>
<path fill="none" stroke-width="7.9701" stroke-linecap="butt" stroke-linejoin="miter" stroke="rgb(0%, 0%, 0%)" stroke-opacity="1" stroke-miterlimit="10" d="M 492.031243 1405.624979 L 478.007805 1399.218729 " transform="matrix(0.2, 0, 0, -0.2, 0, 330)"/>
<path fill="none" stroke-width="7.9701" stroke-linecap="butt" stroke-linejoin="miter" stroke="rgb(0%, 0%, 0%)" stroke-opacity="1" stroke-miterlimit="10" d="M 478.007805 1399.218729 L 464.804681 1391.249979 " transform="matrix(0.2, 0, 0, -0.2, 0, 330)"/>
<path fill="none" stroke-width="7.9701" stroke-linecap="butt" stroke-linejoin="miter" stroke="rgb(0%, 0%, 0%)" stroke-opacity="1" stroke-miterlimit="10" d="M 438.398431 1375.31248 L 425.195306 1367.34373 " transform="matrix(0.2, 0, 0, -0.2, 0, 330)"/>
<path fill="none" stroke-width="7.9701" stroke-linecap="butt" stroke-linejoin="miter" stroke="rgb(0%, 0%, 0%)" stroke-opacity="1" stroke-miterlimit="10" d="M 425.195306 1367.34373 L 413.007806 1357.96873 " transform="matrix(0.2, 0, 0, -0.2, 0, 330)"/>
<path fill="none" stroke-width="7.9701" stroke-linecap="butt" stroke-linejoin="miter" stroke="rgb(0%, 0%, 0%)" stroke-opacity="1" stroke-miterlimit="10" d="M 388.593744 1339.140605 L 376.367182 1329.726543 " transform="matrix(0.2, 0, 0, -0.2, 0, 330)"/>
<path fill="none" stroke-width="7.9701" stroke-linecap="butt" stroke-linejoin="miter" stroke="rgb(0%, 0%, 0%)" stroke-opacity="1" stroke-miterlimit="10" d="M 376.367182 1329.726543 L 365.312495 1318.984355 " transform="matrix(0.2, 0, 0, -0.2, 0, 330)"/>
<path fill="none" stroke-width="7.9701" stroke-linecap="butt" stroke-linejoin="miter" stroke="rgb(0%, 0%, 0%)" stroke-opacity="1" stroke-miterlimit="10" d="M 343.20312 1297.499981 L 332.187495 1286.757793 " transform="matrix(0.2, 0, 0, -0.2, 0, 330)"/>
<path fill="none" stroke-width="7.9701" stroke-linecap="butt" stroke-linejoin="miter" stroke="rgb(0%, 0%, 0%)" stroke-opacity="1" stroke-miterlimit="10" d="M 332.187495 1286.757793 L 322.42187 1274.804669 " transform="matrix(0.2, 0, 0, -0.2, 0, 330)"/>
<path fill="none" stroke-width="7.9701" stroke-linecap="butt" stroke-linejoin="miter" stroke="rgb(0%, 0%, 0%)" stroke-opacity="1" stroke-miterlimit="10" d="M 302.89062 1250.937481 L 293.124996 1239.023419 " transform="matrix(0.2, 0, 0, -0.2, 0, 330)"/>
<path fill="none" stroke-width="7.9701" stroke-linecap="butt" stroke-linejoin="miter" stroke="rgb(0%, 0%, 0%)" stroke-opacity="1" stroke-miterlimit="10" d="M 293.124996 1239.023419 L 284.804683 1226.054669 " transform="matrix(0.2, 0, 0, -0.2, 0, 330)"/>
<path fill="none" stroke-width="7.9701" stroke-linecap="butt" stroke-linejoin="miter" stroke="rgb(0%, 0%, 0%)" stroke-opacity="1" stroke-miterlimit="10" d="M 268.124996 1200.11717 L 259.804684 1187.14842 " transform="matrix(0.2, 0, 0, -0.2, 0, 330)"/>
<path fill="none" stroke-width="7.9701" stroke-linecap="butt" stroke-linejoin="miter" stroke="rgb(0%, 0%, 0%)" stroke-opacity="1" stroke-miterlimit="10" d="M 259.804684 1187.14842 L 253.007809 1173.320295 " transform="matrix(0.2, 0, 0, -0.2, 0, 330)"/>
<path fill="none" stroke-width="7.9701" stroke-linecap="butt" stroke-linejoin="miter" stroke="rgb(0%, 0%, 0%)" stroke-opacity="1" stroke-miterlimit="10" d="M 239.414059 1145.624983 L 232.617184 1131.796858 " transform="matrix(0.2, 0, 0, -0.2, 0, 330)"/>
<path fill="none" stroke-width="7.9701" stroke-linecap="butt" stroke-linejoin="miter" stroke="rgb(0%, 0%, 0%)" stroke-opacity="1" stroke-miterlimit="10" d="M 232.617184 1131.796858 L 227.421872 1117.304671 " transform="matrix(0.2, 0, 0, -0.2, 0, 330)"/>
<path fill="none" stroke-width="7.9701" stroke-linecap="butt" stroke-linejoin="miter" stroke="rgb(0%, 0%, 0%)" stroke-opacity="1" stroke-miterlimit="10" d="M 217.070309 1088.242171 L 211.874997 1073.749984 " transform="matrix(0.2, 0, 0, -0.2, 0, 330)"/>
<path fill="none" stroke-width="7.9701" stroke-linecap="butt" stroke-linejoin="miter" stroke="rgb(0%, 0%, 0%)" stroke-opacity="1" stroke-miterlimit="10" d="M 211.874997 1073.749984 L 208.398434 1058.710922 " transform="matrix(0.2, 0, 0, -0.2, 0, 330)"/>
<path fill="none" stroke-width="7.9701" stroke-linecap="butt" stroke-linejoin="miter" stroke="rgb(0%, 0%, 0%)" stroke-opacity="1" stroke-miterlimit="10" d="M 201.406247 1028.710922 L 197.929685 1013.67186 " transform="matrix(0.2, 0, 0, -0.2, 0, 330)"/>
<path fill="none" stroke-width="7.9701" stroke-linecap="butt" stroke-linejoin="miter" stroke="rgb(0%, 0%, 0%)" stroke-opacity="1" stroke-miterlimit="10" d="M 197.929685 1013.67186 L 196.171872 998.35936 " transform="matrix(0.2, 0, 0, -0.2, 0, 330)"/>
<path fill="none" stroke-width="7.9701" stroke-linecap="butt" stroke-linejoin="miter" stroke="rgb(0%, 0%, 0%)" stroke-opacity="1" stroke-miterlimit="10" d="M 192.656247 967.773423 L 190.898435 952.421861 " transform="matrix(0.2, 0, 0, -0.2, 0, 330)"/>
<path fill="none" stroke-width="7.9701" stroke-linecap="butt" stroke-linejoin="miter" stroke="rgb(0%, 0%, 0%)" stroke-opacity="1" stroke-miterlimit="10" d="M 190.898435 952.421861 L 190.898435 937.031236 " transform="matrix(0.2, 0, 0, -0.2, 0, 330)"/>
<path fill="none" stroke-width="7.9701" stroke-linecap="butt" stroke-linejoin="miter" stroke="rgb(0%, 0%, 0%)" stroke-opacity="1" stroke-miterlimit="10" d="M 190.898435 906.210924 L 190.898435 890.781237 " transform="matrix(0.2, 0, 0, -0.2, 0, 330)"/>
<path fill="none" stroke-width="7.9701" stroke-linecap="butt" stroke-linejoin="miter" stroke="rgb(0%, 0%, 0%)" stroke-opacity="1" stroke-miterlimit="10" d="M 190.898435 890.781237 L 192.656247 875.468737 " transform="matrix(0.2, 0, 0, -0.2, 0, 330)"/>
<path fill="none" stroke-width="7.9701" stroke-linecap="butt" stroke-linejoin="miter" stroke="rgb(0%, 0%, 0%)" stroke-opacity="1" stroke-miterlimit="10" d="M 196.171872 844.843737 L 197.929685 829.531238 " transform="matrix(0.2, 0, 0, -0.2, 0, 330)"/>
<path fill="none" stroke-width="7.9701" stroke-linecap="butt" stroke-linejoin="miter" stroke="rgb(0%, 0%, 0%)" stroke-opacity="1" stroke-miterlimit="10" d="M 197.929685 829.531238 L 201.406247 814.531238 " transform="matrix(0.2, 0, 0, -0.2, 0, 330)"/>
<path fill="none" stroke-width="7.9701" stroke-linecap="butt" stroke-linejoin="miter" stroke="rgb(0%, 0%, 0%)" stroke-opacity="1" stroke-miterlimit="10" d="M 208.398434 784.492176 L 211.874997 769.453114 " transform="matrix(0.2, 0, 0, -0.2, 0, 330)"/>
<path fill="none" stroke-width="7.9701" stroke-linecap="butt" stroke-linejoin="miter" stroke="rgb(0%, 0%, 0%)" stroke-opacity="1" stroke-miterlimit="10" d="M 211.874997 769.453114 L 217.070309 754.960926 " transform="matrix(0.2, 0, 0, -0.2, 0, 330)"/>
<path fill="none" stroke-width="7.9701" stroke-linecap="butt" stroke-linejoin="miter" stroke="rgb(0%, 0%, 0%)" stroke-opacity="1" stroke-miterlimit="10" d="M 227.421872 725.937489 L 232.617184 711.406239 " transform="matrix(0.2, 0, 0, -0.2, 0, 330)"/>
<path fill="none" stroke-width="7.9701" stroke-linecap="butt" stroke-linejoin="miter" stroke="rgb(0%, 0%, 0%)" stroke-opacity="1" stroke-miterlimit="10" d="M 232.617184 711.406239 L 239.414059 697.578115 " transform="matrix(0.2, 0, 0, -0.2, 0, 330)"/>
<path fill="none" stroke-width="7.9701" stroke-linecap="butt" stroke-linejoin="miter" stroke="rgb(0%, 0%, 0%)" stroke-opacity="1" stroke-miterlimit="10" d="M 253.007809 669.882803 L 259.804684 656.054678 " transform="matrix(0.2, 0, 0, -0.2, 0, 330)"/>
<path fill="none" stroke-width="7.9701" stroke-linecap="butt" stroke-linejoin="miter" stroke="rgb(0%, 0%, 0%)" stroke-opacity="1" stroke-miterlimit="10" d="M 259.804684 656.054678 L 268.124996 643.085928 " transform="matrix(0.2, 0, 0, -0.2, 0, 330)"/>
<path fill="none" stroke-width="7.9701" stroke-linecap="butt" stroke-linejoin="miter" stroke="rgb(0%, 0%, 0%)" stroke-opacity="1" stroke-miterlimit="10" d="M 284.804683 617.148428 L 293.124996 604.179678 " transform="matrix(0.2, 0, 0, -0.2, 0, 330)"/>
<path fill="none" stroke-width="7.9701" stroke-linecap="butt" stroke-linejoin="miter" stroke="rgb(0%, 0%, 0%)" stroke-opacity="1" stroke-miterlimit="10" d="M 293.124996 604.179678 L 302.89062 592.265616 " transform="matrix(0.2, 0, 0, -0.2, 0, 330)"/>
<path fill="none" stroke-width="7.9701" stroke-linecap="butt" stroke-linejoin="miter" stroke="rgb(0%, 0%, 0%)" stroke-opacity="1" stroke-miterlimit="10" d="M 322.42187 568.398429 L 332.187495 556.484367 " transform="matrix(0.2, 0, 0, -0.2, 0, 330)"/>
<path fill="none" stroke-width="7.9701" stroke-linecap="butt" stroke-linejoin="miter" stroke="rgb(0%, 0%, 0%)" stroke-opacity="1" stroke-miterlimit="10" d="M 332.187495 556.484367 L 343.20312 545.742179 " transform="matrix(0.2, 0, 0, -0.2, 0, 330)"/>
<path fill="none" stroke-width="7.9701" stroke-linecap="butt" stroke-linejoin="miter" stroke="rgb(0%, 0%, 0%)" stroke-opacity="1" stroke-miterlimit="10" d="M 365.312495 524.218742 L 376.367182 513.476555 " transform="matrix(0.2, 0, 0, -0.2, 0, 330)"/>
<path fill="none" stroke-width="7.9701" stroke-linecap="butt" stroke-linejoin="miter" stroke="rgb(0%, 0%, 0%)" stroke-opacity="1" stroke-miterlimit="10" d="M 376.367182 513.476555 L 388.593744 504.101555 " transform="matrix(0.2, 0, 0, -0.2, 0, 330)"/>
<path fill="none" stroke-width="7.9701" stroke-linecap="butt" stroke-linejoin="miter" stroke="rgb(0%, 0%, 0%)" stroke-opacity="1" stroke-miterlimit="10" d="M 413.007806 485.27343 L 425.195306 475.859368 " transform="matrix(0.2, 0, 0, -0.2, 0, 330)"/>
<path fill="none" stroke-width="7.9701" stroke-linecap="butt" stroke-linejoin="miter" stroke="rgb(0%, 0%, 0%)" stroke-opacity="1" stroke-miterlimit="10" d="M 425.195306 475.859368 L 438.398431 467.890618 " transform="matrix(0.2, 0, 0, -0.2, 0, 330)"/>
<path fill="none" stroke-width="7.9701" stroke-linecap="butt" stroke-linejoin="miter" stroke="rgb(0%, 0%, 0%)" stroke-opacity="1" stroke-miterlimit="10" d="M 464.804681 451.953118 L 478.007805 444.023431 " transform="matrix(0.2, 0, 0, -0.2, 0, 330)"/>
<path fill="none" stroke-width="7.9701" stroke-linecap="butt" stroke-linejoin="miter" stroke="rgb(0%, 0%, 0%)" stroke-opacity="1" stroke-miterlimit="10" d="M 478.007805 444.023431 L 492.031243 437.617181 " transform="matrix(0.2, 0, 0, -0.2, 0, 330)"/>
<path fill="none" stroke-width="7.9701" stroke-linecap="butt" stroke-linejoin="miter" stroke="rgb(0%, 0%, 0%)" stroke-opacity="1" stroke-miterlimit="10" d="M 520.078117 424.804681 L 534.101555 418.398431 " transform="matrix(0.2, 0, 0, -0.2, 0, 330)"/>
<path fill="none" stroke-width="7.9701" stroke-linecap="butt" stroke-linejoin="miter" stroke="rgb(0%, 0%, 0%)" stroke-opacity="1" stroke-miterlimit="10" d="M 534.101555 418.398431 L 548.749992 413.632806 " transform="matrix(0.2, 0, 0, -0.2, 0, 330)"/>
<path fill="none" stroke-width="7.9701" stroke-linecap="butt" stroke-linejoin="miter" stroke="rgb(0%, 0%, 0%)" stroke-opacity="1" stroke-miterlimit="10" d="M 578.046866 404.101556 L 592.734366 399.335932 " transform="matrix(0.2, 0, 0, -0.2, 0, 330)"/>
<path fill="none" stroke-width="7.9701" stroke-linecap="butt" stroke-linejoin="miter" stroke="rgb(0%, 0%, 0%)" stroke-opacity="1" stroke-miterlimit="10" d="M 592.734366 399.335932 L 607.851553 396.289057 " transform="matrix(0.2, 0, 0, -0.2, 0, 330)"/>
<path fill="none" stroke-width="7.9701" stroke-linecap="butt" stroke-linejoin="miter" stroke="rgb(0%, 0%, 0%)" stroke-opacity="1" stroke-miterlimit="10" d="M 638.046865 390.156244 L 653.164053 387.109369 " transform="matrix(0.2, 0, 0, -0.2, 0, 330)"/>
<path fill="none" stroke-width="7.9701" stroke-linecap="butt" stroke-linejoin="miter" stroke="rgb(0%, 0%, 0%)" stroke-opacity="1" stroke-miterlimit="10" d="M 653.164053 387.109369 L 668.515615 385.781244 " transform="matrix(0.2, 0, 0, -0.2, 0, 330)"/>
<path fill="none" stroke-width="7.9701" stroke-linecap="butt" stroke-linejoin="miter" stroke="rgb(0%, 0%, 0%)" stroke-opacity="1" stroke-miterlimit="10" d="M 699.21874 383.124994 L 714.570302 381.835932 " transform="matrix(0.2, 0, 0, -0.2, 0, 330)"/>
<path fill="none" stroke-width="7.9701" stroke-linecap="butt" stroke-linejoin="miter" stroke="rgb(0%, 0%, 0%)" stroke-opacity="1" stroke-miterlimit="10" d="M 714.570302 381.835932 L 729.999989 382.265619 " transform="matrix(0.2, 0, 0, -0.2, 0, 330)"/>
<path fill="none" stroke-width="7.9701" stroke-linecap="butt" stroke-linejoin="miter" stroke="rgb(0%, 0%, 0%)" stroke-opacity="1" stroke-miterlimit="10" d="M 760.820301 383.124994 L 776.210926 383.593744 " transform="matrix(0.2, 0, 0, -0.2, 0, 330)"/>
<path fill="none" stroke-width="7.9701" stroke-linecap="butt" stroke-linejoin="miter" stroke="rgb(0%, 0%, 0%)" stroke-opacity="1" stroke-miterlimit="10" d="M 776.210926 383.593744 L 791.484363 385.781244 " transform="matrix(0.2, 0, 0, -0.2, 0, 330)"/>
<path fill="none" stroke-width="7.9701" stroke-linecap="butt" stroke-linejoin="miter" stroke="rgb(0%, 0%, 0%)" stroke-opacity="1" stroke-miterlimit="10" d="M 821.992175 390.156244 L 837.22655 392.343744 " transform="matrix(0.2, 0, 0, -0.2, 0, 330)"/>
<path fill="none" stroke-width="7.9701" stroke-linecap="butt" stroke-linejoin="miter" stroke="rgb(0%, 0%, 0%)" stroke-opacity="1" stroke-miterlimit="10" d="M 837.22655 392.343744 L 852.148425 396.289057 " transform="matrix(0.2, 0, 0, -0.2, 0, 330)"/>
<path fill="none" stroke-width="7.9701" stroke-linecap="butt" stroke-linejoin="miter" stroke="rgb(0%, 0%, 0%)" stroke-opacity="1" stroke-miterlimit="10" d="M 881.992174 404.101556 L 896.874987 408.046869 " transform="matrix(0.2, 0, 0, -0.2, 0, 330)"/>
<path fill="none" stroke-width="7.9701" stroke-linecap="butt" stroke-linejoin="miter" stroke="rgb(0%, 0%, 0%)" stroke-opacity="1" stroke-miterlimit="10" d="M 896.874987 408.046869 L 911.249986 413.632806 " transform="matrix(0.2, 0, 0, -0.2, 0, 330)"/>
<path fill="none" stroke-width="7.9701" stroke-linecap="butt" stroke-linejoin="miter" stroke="rgb(0%, 0%, 0%)" stroke-opacity="1" stroke-miterlimit="10" d="M 939.960923 424.804681 L 954.335923 430.390619 " transform="matrix(0.2, 0, 0, -0.2, 0, 330)"/>
<path fill="none" stroke-width="7.9701" stroke-linecap="butt" stroke-linejoin="miter" stroke="rgb(0%, 0%, 0%)" stroke-opacity="1" stroke-miterlimit="10" d="M 954.335923 430.390619 L 967.968736 437.617181 " transform="matrix(0.2, 0, 0, -0.2, 0, 330)"/>
<path fill="none" stroke-width="7.9701" stroke-linecap="butt" stroke-linejoin="miter" stroke="rgb(0%, 0%, 0%)" stroke-opacity="1" stroke-miterlimit="10" d="M 995.23436 451.992181 L 1008.867172 459.179681 " transform="matrix(0.2, 0, 0, -0.2, 0, 330)"/>
<path fill="none" stroke-width="7.9701" stroke-linecap="butt" stroke-linejoin="miter" stroke="rgb(0%, 0%, 0%)" stroke-opacity="1" stroke-miterlimit="10" d="M 1008.867172 459.179681 L 1021.601547 467.890618 " transform="matrix(0.2, 0, 0, -0.2, 0, 330)"/>
<path fill="none" stroke-width="7.9701" stroke-linecap="butt" stroke-linejoin="miter" stroke="rgb(0%, 0%, 0%)" stroke-opacity="1" stroke-miterlimit="10" d="M 1047.031234 485.27343 L 1059.765609 493.984368 " transform="matrix(0.2, 0, 0, -0.2, 0, 330)"/>
<path fill="none" stroke-width="7.9701" stroke-linecap="butt" stroke-linejoin="miter" stroke="rgb(0%, 0%, 0%)" stroke-opacity="1" stroke-miterlimit="10" d="M 1059.765609 493.984368 L 1071.406234 504.062492 " transform="matrix(0.2, 0, 0, -0.2, 0, 330)"/>
<path fill="none" stroke-width="7.9701" stroke-linecap="butt" stroke-linejoin="miter" stroke="rgb(0%, 0%, 0%)" stroke-opacity="1" stroke-miterlimit="10" d="M 1094.687484 524.257805 L 1106.367171 534.374992 " transform="matrix(0.2, 0, 0, -0.2, 0, 330)"/>
<path fill="none" stroke-width="7.9701" stroke-linecap="butt" stroke-linejoin="miter" stroke="rgb(0%, 0%, 0%)" stroke-opacity="1" stroke-miterlimit="10" d="M 1106.367171 534.374992 L 1116.796858 545.703117 " transform="matrix(0.2, 0, 0, -0.2, 0, 330)"/>
<path fill="none" stroke-width="7.9701" stroke-linecap="butt" stroke-linejoin="miter" stroke="rgb(0%, 0%, 0%)" stroke-opacity="1" stroke-miterlimit="10" d="M 1137.617171 568.437492 L 1148.046858 579.765616 " transform="matrix(0.2, 0, 0, -0.2, 0, 330)"/>
<path fill="none" stroke-width="7.9701" stroke-linecap="butt" stroke-linejoin="miter" stroke="rgb(0%, 0%, 0%)" stroke-opacity="1" stroke-miterlimit="10" d="M 1148.046858 579.765616 L 1157.109358 592.226554 " transform="matrix(0.2, 0, 0, -0.2, 0, 330)"/>
<path fill="none" stroke-width="7.9701" stroke-linecap="butt" stroke-linejoin="miter" stroke="rgb(0%, 0%, 0%)" stroke-opacity="1" stroke-miterlimit="10" d="M 1175.234357 617.187491 L 1184.296857 629.648428 " transform="matrix(0.2, 0, 0, -0.2, 0, 330)"/>
<path fill="none" stroke-width="7.9701" stroke-linecap="butt" stroke-linejoin="miter" stroke="rgb(0%, 0%, 0%)" stroke-opacity="1" stroke-miterlimit="10" d="M 1184.296857 629.648428 L 1191.874982 643.085928 " transform="matrix(0.2, 0, 0, -0.2, 0, 330)"/>
<path fill="none" stroke-width="7.9701" stroke-linecap="butt" stroke-linejoin="miter" stroke="rgb(0%, 0%, 0%)" stroke-opacity="1" stroke-miterlimit="10" d="M 1207.031232 669.921865 L 1214.609357 683.359365 " transform="matrix(0.2, 0, 0, -0.2, 0, 330)"/>
<path fill="none" stroke-width="7.9701" stroke-linecap="butt" stroke-linejoin="miter" stroke="rgb(0%, 0%, 0%)" stroke-opacity="1" stroke-miterlimit="10" d="M 1214.609357 683.359365 L 1220.624982 697.539052 " transform="matrix(0.2, 0, 0, -0.2, 0, 330)"/>
<path fill="none" stroke-width="7.9701" stroke-linecap="butt" stroke-linejoin="miter" stroke="rgb(0%, 0%, 0%)" stroke-opacity="1" stroke-miterlimit="10" d="M 1232.617169 725.937489 L 1238.593732 740.156239 " transform="matrix(0.2, 0, 0, -0.2, 0, 330)"/>
<path fill="none" stroke-width="7.9701" stroke-linecap="butt" stroke-linejoin="miter" stroke="rgb(0%, 0%, 0%)" stroke-opacity="1" stroke-miterlimit="10" d="M 1238.593732 740.156239 L 1242.968731 754.921864 " transform="matrix(0.2, 0, 0, -0.2, 0, 330)"/>
<path fill="none" stroke-width="7.9701" stroke-linecap="butt" stroke-linejoin="miter" stroke="rgb(0%, 0%, 0%)" stroke-opacity="1" stroke-miterlimit="10" d="M 1251.640606 784.492176 L 1255.976544 799.296863 " transform="matrix(0.2, 0, 0, -0.2, 0, 330)"/>
<path fill="none" stroke-width="7.9701" stroke-linecap="butt" stroke-linejoin="miter" stroke="rgb(0%, 0%, 0%)" stroke-opacity="1" stroke-miterlimit="10" d="M 1255.976544 799.296863 L 1258.593731 814.492175 " transform="matrix(0.2, 0, 0, -0.2, 0, 330)"/>
<path fill="none" stroke-width="7.9701" stroke-linecap="butt" stroke-linejoin="miter" stroke="rgb(0%, 0%, 0%)" stroke-opacity="1" stroke-miterlimit="10" d="M 1263.867169 844.8828 L 1266.484356 860.03905 " transform="matrix(0.2, 0, 0, -0.2, 0, 330)"/>
<path fill="none" stroke-width="7.9701" stroke-linecap="butt" stroke-linejoin="miter" stroke="rgb(0%, 0%, 0%)" stroke-opacity="1" stroke-miterlimit="10" d="M 1266.484356 860.03905 L 1267.382794 875.429674 " transform="matrix(0.2, 0, 0, -0.2, 0, 330)"/>
<path fill="none" stroke-width="7.9701" stroke-linecap="butt" stroke-linejoin="miter" stroke="rgb(0%, 0%, 0%)" stroke-opacity="1" stroke-miterlimit="10" d="M 1269.140606 906.210924 L 1270.039044 921.601549 " transform="matrix(0.2, 0, 0, -0.2, 0, 330)"/>
<path fill="none" stroke-width="11.9553" stroke-linecap="butt" stroke-linejoin="miter" stroke="rgb(0%, 0%, 0%)" stroke-opacity="1" stroke-miterlimit="10" d="M 1450.039041 921.601549 L 1449.023416 959.296861 L 1446.054666 996.874985 L 1441.132791 1034.257797 L 1434.296854 1071.328109 L 1425.468729 1107.968733 L 1414.804666 1144.101545 L 1402.187479 1179.64842 L 1387.773417 1214.453107 L 1371.523417 1248.476544 L 1353.554667 1281.601543 L 1333.867168 1313.74998 L 1312.49998 1344.804667 L 1289.570293 1374.726542 L 1265.078106 1403.398417 L 1239.140607 1430.742166 L 1211.796857 1456.679666 L 1183.124982 1481.171853 L 1153.203108 1504.10154 L 1122.148421 1525.468727 L 1090.039046 1545.156227 L 1056.874984 1563.124977 L 1022.851547 1579.374976 L 988.04686 1593.789039 L 952.499986 1606.406226 L 916.367174 1617.109351 L 879.726549 1625.898413 L 842.656237 1632.734351 L 805.273426 1637.695288 L 767.695301 1640.624976 L 729.999989 1641.601538 L 692.304677 1640.624976 L 654.765615 1637.695288 L 617.382803 1632.734351 L 580.312491 1625.898413 L 543.671867 1617.109351 L 507.499992 1606.406226 L 471.99218 1593.789039 L 437.148431 1579.374976 L 403.124994 1563.124977 L 369.999994 1545.156227 L 337.851557 1525.468727 L 306.79687 1504.10154 L 276.914058 1481.171853 L 248.242184 1456.679666 L 220.898434 1430.742166 L 194.921872 1403.398417 L 170.468747 1374.726542 L 147.499998 1344.804667 L 126.171873 1313.74998 L 106.445311 1281.601543 L 88.476561 1248.476544 L 72.265624 1214.453107 L 57.812499 1179.64842 L 45.234374 1144.101545 L 34.531249 1107.968733 L 25.742187 1071.328109 L 18.867187 1034.257797 L 13.945312 996.874985 L 10.976562 959.296861 L 10 921.601549 L 10.976562 883.945299 L 13.945312 846.367175 L 18.867187 808.984363 L 25.742187 771.914051 L 34.531249 735.273427 L 45.234374 699.101552 L 57.812499 663.59374 L 72.265624 628.749991 L 88.476561 594.726554 L 106.445311 561.601554 L 126.171873 529.453117 L 147.499998 498.39843 L 170.468747 468.476556 L 194.921872 439.843743 L 220.898434 412.499994 L 248.242184 386.523432 L 276.914058 362.070307 L 306.79687 339.101557 L 337.851557 317.773433 L 369.999994 298.046871 L 403.124994 280.078121 L 437.148431 263.867184 L 471.99218 249.414059 L 507.499992 236.835934 L 543.671867 226.132809 L 580.312491 217.343747 L 617.382803 210.468747 L 654.765615 205.546872 L 692.304677 202.578122 L 729.999989 201.601559 L 767.695301 202.578122 L 805.273426 205.546872 L 842.656237 210.468747 L 879.726549 217.343747 L 916.367174 226.132809 L 952.499986 236.835934 L 988.04686 249.414059 L 1022.851547 263.867184 L 1056.874984 280.078121 L 1090.039046 298.046871 L 1122.148421 317.773433 L 1153.203108 339.101557 L 1183.124982 362.070307 L 1211.796857 386.523432 L 1239.140607 412.499994 L 1265.078106 439.843743 L 1289.570293 468.476556 L 1312.49998 498.39843 L 1333.867168 529.453117 L 1353.554667 561.601554 L 1371.523417 594.726554 L 1387.773417 628.749991 L 1402.187479 663.59374 L 1414.804666 699.101552 L 1425.468729 735.273427 L 1434.296854 771.914051 L 1441.132791 808.984363 L 1446.054666 846.367175 L 1449.023416 883.945299 Z M 1450.039041 921.601549 " transform="matrix(0.2, 0, 0, -0.2, 0, 330)"/>
<path fill="none" stroke-width="11.9553" stroke-linecap="butt" stroke-linejoin="miter" stroke="rgb(0%, 0%, 0%)" stroke-opacity="1" stroke-miterlimit="10" d="M 729.999989 921.601549 L 1244.296856 921.601549 " transform="matrix(0.2, 0, 0, -0.2, 0, 330)"/>
<path fill="none" stroke-width="11.9553" stroke-linecap="butt" stroke-linejoin="miter" stroke="rgb(0%, 0%, 0%)" stroke-opacity="1" stroke-miterlimit="10" d="M 729.999989 921.601549 L 1353.554667 561.601554 " transform="matrix(0.2, 0, 0, -0.2, 0, 330)"/>
<path fill-rule="nonzero" fill="rgb(0%, 0%, 0%)" fill-opacity="1" d="M 194.058594 136.425781 C 193.996094 136.738281 193.871094 137.238281 193.871094 137.363281 C 193.871094 137.738281 194.183594 137.957031 194.496094 137.957031 C 194.777344 137.957031 195.152344 137.769531 195.308594 137.332031 C 195.371094 137.238281 196.089844 134.269531 196.183594 133.894531 C 196.371094 133.175781 196.746094 131.644531 196.871094 131.050781 C 196.964844 130.769531 197.589844 129.738281 198.121094 129.269531 C 198.277344 129.113281 198.902344 128.550781 199.839844 128.550781 C 200.433594 128.550781 200.746094 128.800781 200.777344 128.800781 C 200.121094 128.925781 199.621094 129.425781 199.621094 130.019531 C 199.621094 130.363281 199.871094 130.769531 200.464844 130.769531 C 201.058594 130.769531 201.652344 130.269531 201.652344 129.488281 C 201.652344 128.707031 200.964844 128.050781 199.839844 128.050781 C 198.433594 128.050781 197.464844 129.144531 197.058594 129.738281 C 196.871094 128.769531 196.089844 128.050781 195.089844 128.050781 C 194.058594 128.050781 193.652344 128.925781 193.464844 129.300781 C 193.058594 130.050781 192.777344 131.363281 192.777344 131.425781 C 192.777344 131.644531 192.996094 131.644531 193.058594 131.644531 C 193.277344 131.644531 193.277344 131.613281 193.402344 131.144531 C 193.777344 129.582031 194.214844 128.550781 194.996094 128.550781 C 195.371094 128.550781 195.683594 128.707031 195.683594 129.550781 C 195.683594 130.019531 195.621094 130.238281 195.339844 131.394531 Z M 194.058594 136.425781 "/>
<path fill-rule="nonzero" fill="rgb(0%, 0%, 0%)" fill-opacity="1" d="M 195.757812 187.136719 C 195.882812 186.636719 195.945312 186.417969 196.351562 186.355469 C 196.570312 186.324219 197.257812 186.324219 197.695312 186.324219 C 199.226562 186.324219 201.664062 186.324219 201.664062 188.480469 C 201.664062 189.230469 201.320312 190.730469 200.476562 191.574219 C 199.882812 192.136719 198.726562 192.855469 196.789062 192.855469 L 194.320312 192.855469 Z M 198.882812 193.136719 C 201.101562 192.636719 203.695312 191.105469 203.695312 188.917969 C 203.695312 187.042969 201.726562 185.636719 198.882812 185.636719 L 192.664062 185.636719 C 192.226562 185.636719 192.007812 185.636719 192.007812 186.074219 C 192.007812 186.324219 192.226562 186.324219 192.632812 186.324219 C 192.664062 186.324219 193.101562 186.324219 193.445312 186.355469 C 193.851562 186.417969 194.039062 186.417969 194.039062 186.699219 C 194.039062 186.792969 194.039062 186.855469 193.976562 187.136719 L 191.039062 198.855469 C 190.820312 199.699219 190.789062 199.855469 189.039062 199.855469 C 188.664062 199.855469 188.476562 199.855469 188.476562 200.292969 C 188.476562 200.542969 188.726562 200.542969 188.757812 200.542969 C 189.382812 200.542969 190.914062 200.480469 191.507812 200.480469 C 192.132812 200.480469 193.664062 200.542969 194.289062 200.542969 C 194.476562 200.542969 194.726562 200.542969 194.726562 200.105469 C 194.726562 199.855469 194.539062 199.855469 194.101562 199.855469 C 193.320312 199.855469 192.695312 199.855469 192.695312 199.480469 C 192.695312 199.355469 192.726562 199.230469 192.757812 199.105469 L 194.195312 193.324219 L 196.789062 193.324219 C 198.789062 193.324219 199.164062 194.542969 199.164062 195.292969 C 199.164062 195.636719 199.007812 196.324219 198.882812 196.824219 C 198.726562 197.417969 198.507812 198.230469 198.507812 198.667969 C 198.507812 201.011719 201.132812 201.011719 201.414062 201.011719 C 203.289062 201.011719 204.039062 198.824219 204.039062 198.511719 C 204.039062 198.261719 203.789062 198.261719 203.789062 198.261719 C 203.570312 198.261719 203.539062 198.417969 203.507812 198.542969 C 202.945312 200.167969 202.007812 200.542969 201.507812 200.542969 C 200.789062 200.542969 200.632812 200.074219 200.632812 199.199219 C 200.632812 198.542969 200.757812 197.417969 200.851562 196.730469 C 200.882812 196.417969 200.945312 196.011719 200.945312 195.699219 C 200.945312 194.011719 199.476562 193.355469 198.882812 193.136719 Z M 198.882812 193.136719 "/>
<path fill-rule="nonzero" fill="rgb(0%, 0%, 0%)" fill-opacity="1" d="M 101.597656 322.386719 C 102.785156 321.980469 104.785156 321.386719 104.785156 319.449219 C 104.785156 317.136719 102.066406 316.074219 100.097656 316.074219 C 99.160156 316.074219 98.191406 316.292969 97.347656 316.792969 C 97.222656 316.855469 97.066406 317.042969 96.910156 317.042969 C 96.597656 317.042969 96.035156 316.074219 95.722656 316.074219 C 95.535156 316.074219 95.503906 316.292969 95.503906 316.386719 L 95.503906 319.949219 C 95.503906 320.074219 95.597656 320.230469 95.785156 320.230469 C 96.097656 320.230469 96.066406 319.605469 96.160156 319.261719 C 96.628906 317.542969 98.191406 316.792969 99.691406 316.699219 L 100.097656 316.699219 C 101.441406 316.699219 103.003906 317.574219 103.003906 319.449219 C 103.003906 321.261719 101.222656 322.199219 99.566406 322.199219 C 99.253906 322.199219 98.941406 322.199219 98.628906 322.199219 L 98.472656 322.199219 C 98.285156 322.199219 98.066406 322.199219 98.066406 322.417969 L 98.066406 322.449219 C 98.097656 322.636719 98.285156 322.667969 98.472656 322.667969 L 100.316406 322.667969 C 101.878906 322.792969 103.316406 323.824219 103.472656 325.449219 L 103.472656 325.667969 C 103.472656 327.511719 101.753906 328.667969 100.003906 328.667969 C 98.097656 328.667969 96.128906 328.042969 95.816406 325.667969 C 95.816406 325.511719 95.753906 325.324219 95.535156 325.324219 C 95.316406 325.355469 95.285156 325.511719 95.285156 325.667969 C 95.285156 328.261719 97.878906 329.292969 100.128906 329.292969 C 102.191406 329.292969 105.066406 328.324219 105.316406 325.855469 L 105.316406 325.730469 C 105.316406 323.761719 103.253906 322.792969 101.597656 322.386719 Z M 101.597656 322.386719 "/>
<path fill-rule="nonzero" fill="rgb(0%, 0%, 0%)" fill-opacity="1" d="M 113.695312 316.074219 C 110.320312 316.480469 107.632812 319.136719 107.632812 322.730469 C 107.632812 326.011719 110.226562 329.261719 114.101562 329.261719 C 117.601562 329.261719 120.570312 326.355469 120.570312 322.730469 C 120.570312 319.542969 118.070312 316.074219 114.132812 316.074219 C 114.007812 316.074219 113.851562 316.074219 113.695312 316.074219 Z M 109.507812 322.949219 L 109.507812 322.605469 C 109.507812 320.105469 110.414062 317.167969 113.570312 316.636719 C 113.757812 316.605469 113.914062 316.605469 114.101562 316.605469 C 116.914062 316.605469 118.664062 319.324219 118.664062 322.355469 C 118.664062 324.761719 117.945312 327.824219 114.976562 328.605469 C 114.695312 328.667969 114.414062 328.699219 114.132812 328.699219 L 113.945312 328.699219 C 111.351562 328.605469 109.945312 326.136719 109.601562 323.730469 Z M 109.507812 322.949219 "/>
<path fill-rule="nonzero" fill="rgb(0%, 0%, 0%)" fill-opacity="1" d="M 123.027344 316.417969 L 123.027344 317.011719 L 123.464844 317.011719 C 124.058594 317.011719 124.683594 317.105469 124.683594 317.980469 L 124.683594 327.449219 C 124.683594 328.292969 123.964844 328.324219 123.308594 328.324219 L 123.027344 328.324219 L 123.027344 328.917969 L 128.808594 328.917969 C 129.214844 328.917969 129.589844 328.949219 129.996094 328.949219 C 131.996094 328.949219 134.339844 328.011719 134.558594 325.605469 L 134.558594 325.417969 C 134.558594 322.886719 131.683594 321.855469 129.777344 321.855469 C 128.527344 321.855469 127.339844 321.980469 126.152344 322.074219 L 126.152344 317.855469 C 126.152344 317.417969 126.214844 317.011719 126.996094 317.011719 L 129.308594 317.011719 C 130.277344 317.011719 131.371094 317.074219 132.089844 317.792969 C 132.777344 318.511719 132.871094 319.730469 132.964844 320.667969 L 133.496094 320.667969 L 133.027344 316.417969 Z M 126.152344 322.699219 C 126.402344 322.699219 126.652344 322.636719 126.902344 322.605469 L 128.277344 322.542969 C 128.558594 322.511719 128.839844 322.480469 129.152344 322.480469 C 130.714844 322.480469 132.683594 323.480469 132.683594 325.324219 C 132.683594 327.074219 131.339844 328.355469 129.339844 328.355469 C 129.058594 328.355469 128.746094 328.324219 128.496094 328.324219 L 126.964844 328.324219 C 126.496094 328.324219 126.246094 328.292969 126.152344 327.667969 Z M 126.152344 322.699219 "/>
<path fill-rule="nonzero" fill="rgb(0%, 0%, 0%)" fill-opacity="1" d="M 136.90625 316.417969 L 136.90625 317.011719 L 137.375 317.011719 C 137.96875 317.011719 138.5625 317.105469 138.5625 317.980469 L 138.5625 327.449219 C 138.5625 328.292969 137.875 328.324219 137.1875 328.324219 L 136.90625 328.324219 L 136.90625 328.917969 L 141.8125 328.917969 L 141.8125 328.324219 L 141.375 328.324219 C 140.75 328.324219 140.15625 328.261719 140.15625 327.386719 L 140.15625 323.199219 L 143.875 323.199219 C 145.65625 323.074219 147.9375 321.886719 147.9375 319.855469 C 147.9375 317.636719 145.59375 316.574219 143.6875 316.417969 Z M 140.125 322.667969 L 140.125 317.667969 C 140.21875 317.074219 140.46875 317.011719 140.875 317.011719 L 142.3125 317.011719 C 143.9375 317.011719 146.0625 317.074219 146.0625 319.855469 C 146.0625 320.511719 145.96875 321.199219 145.5625 321.699219 C 144.90625 322.480469 143.8125 322.667969 142.84375 322.667969 Z M 140.125 322.667969 "/>
<path fill-rule="nonzero" fill="rgb(0%, 0%, 0%)" fill-opacity="1" d="M 152.632812 326.636719 C 152.132812 326.730469 151.632812 327.167969 151.632812 327.761719 C 151.632812 328.386719 152.164062 328.917969 152.789062 328.917969 C 153.414062 328.917969 153.976562 328.449219 153.976562 327.792969 C 153.976562 327.167969 153.445312 326.605469 152.820312 326.605469 C 152.757812 326.605469 152.695312 326.636719 152.632812 326.636719 Z M 152.632812 326.636719 "/>
<path fill-rule="nonzero" fill="rgb(0%, 0%, 0%)" fill-opacity="1" d="M 167.410156 325.980469 C 167.503906 326.011719 167.660156 326.042969 167.816406 326.042969 C 168.472656 326.042969 168.847656 325.542969 168.847656 324.949219 C 168.847656 324.355469 168.378906 323.917969 167.816406 323.917969 C 167.222656 323.917969 166.722656 324.355469 166.722656 325.042969 C 166.722656 327.355469 168.628906 329.417969 171.191406 329.417969 C 174.097656 329.417969 176.472656 327.074219 176.472656 324.105469 C 176.472656 321.730469 175.128906 319.667969 172.722656 318.980469 C 172.472656 318.917969 172.191406 318.917969 171.910156 318.917969 C 170.660156 318.917969 169.535156 319.324219 168.660156 320.230469 L 168.660156 315.230469 C 169.410156 315.355469 170.097656 315.574219 170.878906 315.574219 C 172.472656 315.574219 174.066406 314.980469 175.253906 313.699219 C 175.378906 313.542969 175.535156 313.449219 175.535156 313.261719 L 175.535156 313.230469 C 175.503906 313.105469 175.410156 313.042969 175.316406 313.042969 C 175.253906 313.042969 175.253906 313.042969 175.191406 313.074219 C 174.035156 313.480469 173.035156 313.792969 171.816406 313.792969 C 170.753906 313.792969 169.628906 313.636719 168.660156 313.199219 C 168.535156 313.136719 168.441406 313.074219 168.285156 313.042969 L 168.222656 313.042969 C 168.128906 313.042969 168.035156 313.136719 168.035156 313.261719 L 168.035156 320.855469 C 168.035156 321.074219 168.066406 321.261719 168.316406 321.261719 C 168.597656 321.261719 168.753906 320.824219 168.941406 320.636719 C 169.691406 319.855469 170.691406 319.417969 171.785156 319.386719 C 172.941406 319.386719 173.660156 320.167969 174.097656 321.105469 C 174.535156 322.042969 174.535156 323.199219 174.535156 324.230469 C 174.535156 325.886719 174.191406 327.636719 172.472656 328.480469 C 172.035156 328.699219 171.566406 328.792969 171.128906 328.792969 C 169.410156 328.792969 167.910156 327.605469 167.410156 325.980469 Z M 167.410156 325.980469 "/>
<path fill-rule="nonzero" fill="rgb(0%, 0%, 0%)" fill-opacity="1" d="M 187.339844 321.136719 L 187.371094 321.136719 C 187.371094 323.261719 187.339844 325.636719 185.933594 327.386719 C 185.246094 328.230469 184.277344 328.792969 183.152344 328.792969 C 182.246094 328.792969 181.277344 328.605469 180.683594 327.886719 C 181.246094 327.886719 181.839844 327.667969 181.839844 326.917969 C 181.839844 326.417969 181.527344 325.886719 180.871094 325.886719 C 180.339844 325.886719 179.871094 326.261719 179.839844 326.824219 L 179.839844 326.917969 C 179.839844 328.699219 181.558594 329.417969 183.246094 329.417969 C 185.277344 329.417969 186.839844 328.199219 187.839844 326.605469 C 188.964844 324.949219 189.339844 322.980469 189.339844 321.042969 C 189.339844 318.230469 188.871094 314.511719 185.871094 313.292969 C 185.371094 313.105469 184.808594 313.042969 184.277344 313.042969 C 181.308594 313.042969 179.277344 315.667969 179.277344 318.417969 C 179.277344 320.917969 181.027344 323.699219 183.964844 323.699219 C 185.464844 323.699219 186.902344 322.761719 187.339844 321.136719 Z M 187.308594 318.324219 C 187.308594 318.542969 187.339844 318.792969 187.339844 319.042969 C 187.246094 320.792969 186.433594 323.199219 184.121094 323.199219 C 181.746094 323.199219 181.246094 320.574219 181.246094 318.730469 L 181.246094 317.574219 C 181.277344 315.886719 181.996094 313.605469 184.277344 313.605469 C 186.777344 313.605469 187.308594 316.574219 187.308594 318.105469 Z M 187.308594 318.324219 "/>
<path fill-rule="nonzero" fill="rgb(0%, 0%, 0%)" fill-opacity="1" d="M 194.140625 326.636719 C 193.640625 326.730469 193.140625 327.167969 193.140625 327.761719 C 193.140625 328.386719 193.671875 328.917969 194.296875 328.917969 C 194.921875 328.917969 195.484375 328.449219 195.484375 327.792969 C 195.484375 327.167969 194.953125 326.605469 194.328125 326.605469 C 194.265625 326.605469 194.203125 326.636719 194.140625 326.636719 Z M 194.140625 326.636719 "/>
</svg>
