<?xml version="1.0" encoding="UTF-8"?>
<svg xmlns="http://www.w3.org/2000/svg" xmlns:xlink="http://www.w3.org/1999/xlink" width="402" height="260" viewBox="0 0 402 260">
<path fill="none" stroke-width="11.9553" stroke-linecap="butt" stroke-linejoin="miter" stroke="rgb(0%, 0%, 0%)" stroke-opacity="1" stroke-miterlimit="10" d="M 179.999997 381.601557 L 1597.539039 1090.351546 " transform="matrix(0.2, 0, 0, -0.2, 0, 260)"/>
<path fill="none" stroke-width="11.9553" stroke-linecap="butt" stroke-linejoin="miter" stroke="rgb(0%, 0%, 0%)" stroke-opacity="1" stroke-miterlimit="10" d="M 283.828121 381.601557 L 283.828121 433.515619 " transform="matrix(0.2, 0, 0, -0.2, 0, 260)"/>
<path fill="none" stroke-width="11.9553" stroke-linecap="butt" stroke-linejoin="miter" stroke="rgb(0%, 0%, 0%)" stroke-opacity="1" stroke-miterlimit="10" d="M 387.695307 381.601557 L 387.695307 485.42968 " transform="matrix(0.2, 0, 0, -0.2, 0, 260)"/>
<path fill="none" stroke-width="11.9553" stroke-linecap="butt" stroke-linejoin="miter" stroke="rgb(0%, 0%, 0%)" stroke-opacity="1" stroke-miterlimit="10" d="M 491.562493 381.601557 L 491.562493 537.382804 " transform="matrix(0.2, 0, 0, -0.2, 0, 260)"/>
<path fill="none" stroke-width="11.9553" stroke-linecap="butt" stroke-linejoin="miter" stroke="rgb(0%, 0%, 0%)" stroke-opacity="1" stroke-miterlimit="10" d="M 595.390616 381.601557 L 595.390616 589.296866 " transform="matrix(0.2, 0, 0, -0.2, 0, 260)"/>
<path fill="none" stroke-width="11.9553" stroke-linecap="butt" stroke-linejoin="miter" stroke="rgb(0%, 0%, 0%)" stroke-opacity="1" stroke-miterlimit="10" d="M 699.257802 381.601557 L 699.257802 641.210928 " transform="matrix(0.2, 0, 0, -0.2, 0, 260)"/>
<path fill="none" stroke-width="11.9553" stroke-linecap="butt" stroke-linejoin="miter" stroke="rgb(0%, 0%, 0%)" stroke-opacity="1" stroke-miterlimit="10" d="M 803.085926 381.601557 L 803.085926 693.164052 " transform="matrix(0.2, 0, 0, -0.2, 0, 260)"/>
<path fill="none" stroke-width="11.9553" stroke-linecap="butt" stroke-linejoin="miter" stroke="rgb(0%, 0%, 0%)" stroke-opacity="1" stroke-miterlimit="10" d="M 906.914049 381.601557 L 906.914049 745.078114 " transform="matrix(0.2, 0, 0, -0.2, 0, 260)"/>
<path fill="none" stroke-width="11.9553" stroke-linecap="butt" stroke-linejoin="miter" stroke="rgb(0%, 0%, 0%)" stroke-opacity="1" stroke-miterlimit="10" d="M 1010.781235 381.601557 L 1010.781235 796.992176 " transform="matrix(0.2, 0, 0, -0.2, 0, 260)"/>
<path fill="none" stroke-width="11.9553" stroke-linecap="butt" stroke-linejoin="miter" stroke="rgb(0%, 0%, 0%)" stroke-opacity="1" stroke-miterlimit="10" d="M 1114.648421 381.601557 L 1114.648421 848.906237 " transform="matrix(0.2, 0, 0, -0.2, 0, 260)"/>
<path fill="none" stroke-width="11.9553" stroke-linecap="butt" stroke-linejoin="miter" stroke="rgb(0%, 0%, 0%)" stroke-opacity="1" stroke-miterlimit="10" d="M 1218.476544 381.601557 L 1218.476544 900.859362 " transform="matrix(0.2, 0, 0, -0.2, 0, 260)"/>
<path fill="none" stroke-width="11.9553" stroke-linecap="butt" stroke-linejoin="miter" stroke="rgb(0%, 0%, 0%)" stroke-opacity="1" stroke-miterlimit="10" d="M 1322.304668 381.601557 L 1322.304668 952.773423 " transform="matrix(0.2, 0, 0, -0.2, 0, 260)"/>
<path fill="none" stroke-width="11.9553" stroke-linecap="butt" stroke-linejoin="miter" stroke="rgb(0%, 0%, 0%)" stroke-opacity="1" stroke-miterlimit="10" d="M 1426.171854 381.601557 L 1426.171854 1004.687485 " transform="matrix(0.2, 0, 0, -0.2, 0, 260)"/>
<path fill="none" stroke-width="11.9553" stroke-linecap="butt" stroke-linejoin="miter" stroke="rgb(0%, 0%, 0%)" stroke-opacity="1" stroke-miterlimit="10" d="M 1530.03904 381.601557 L 1530.03904 1056.601547 " transform="matrix(0.2, 0, 0, -0.2, 0, 260)"/>
<path fill-rule="nonzero" fill="rgb(0%, 0%, 0%)" fill-opacity="1" d="M 324.566406 110.507812 C 324.660156 110.195312 324.660156 110.164062 324.660156 110.007812 C 324.660156 109.601562 324.347656 109.414062 324.035156 109.414062 C 323.816406 109.414062 323.472656 109.539062 323.253906 109.882812 C 323.222656 109.976562 323.035156 110.664062 322.972656 111.070312 C 322.816406 111.632812 322.660156 112.226562 322.535156 112.789062 L 321.535156 116.726562 C 321.441406 117.039062 320.503906 118.570312 319.066406 118.570312 C 317.972656 118.570312 317.722656 117.632812 317.722656 116.820312 C 317.722656 115.820312 318.097656 114.445312 318.847656 112.539062 C 319.191406 111.632812 319.285156 111.414062 319.285156 110.976562 C 319.285156 109.976562 318.566406 109.164062 317.472656 109.164062 C 315.410156 109.164062 314.597656 112.351562 314.597656 112.539062 C 314.597656 112.757812 314.816406 112.757812 314.878906 112.757812 C 315.097656 112.757812 315.097656 112.726562 315.222656 112.351562 C 315.816406 110.320312 316.691406 109.664062 317.410156 109.664062 C 317.597656 109.664062 317.972656 109.664062 317.972656 110.351562 C 317.972656 110.914062 317.753906 111.476562 317.597656 111.882812 C 316.722656 114.195312 316.316406 115.445312 316.316406 116.476562 C 316.316406 118.414062 317.691406 119.070312 319.003906 119.070312 C 319.847656 119.070312 320.566406 118.695312 321.191406 118.070312 C 320.910156 119.226562 320.660156 120.289062 319.785156 121.445312 C 319.222656 122.164062 318.378906 122.820312 317.378906 122.820312 C 317.066406 122.820312 316.097656 122.757812 315.722656 121.882812 C 316.066406 121.882812 316.347656 121.882812 316.660156 121.632812 C 316.878906 121.445312 317.097656 121.164062 317.097656 120.726562 C 317.097656 120.070312 316.503906 119.976562 316.285156 119.976562 C 315.785156 119.976562 315.066406 120.320312 315.066406 121.382812 C 315.066406 122.476562 316.035156 123.289062 317.378906 123.289062 C 319.628906 123.289062 321.878906 121.320312 322.472656 118.851562 Z M 324.566406 110.507812 "/>
<path fill-rule="nonzero" fill="rgb(100%, 100%, 100%)" fill-opacity="1" d="M 161.617188 206.132812 L 180.578125 206.132812 L 180.578125 233.25 L 161.617188 233.25 Z M 161.617188 206.132812 "/>
<path fill-rule="nonzero" fill="rgb(0%, 0%, 0%)" fill-opacity="1" d="M 173.265625 212.320312 C 173.265625 212.320312 173.265625 212.101562 172.984375 212.101562 C 172.484375 212.101562 170.890625 212.257812 170.328125 212.320312 C 170.140625 212.320312 169.921875 212.351562 169.921875 212.757812 C 169.921875 213.007812 170.140625 213.007812 170.453125 213.007812 C 171.515625 213.007812 171.515625 213.195312 171.515625 213.382812 L 171.453125 213.820312 L 168.703125 224.726562 C 168.640625 224.945312 168.609375 225.101562 168.609375 225.445312 C 168.609375 226.695312 169.546875 227.476562 170.578125 227.476562 C 171.296875 227.476562 171.859375 227.039062 172.234375 226.257812 C 172.609375 225.414062 172.890625 224.164062 172.890625 224.101562 C 172.890625 223.882812 172.671875 223.882812 172.609375 223.882812 C 172.390625 223.882812 172.359375 223.976562 172.296875 224.289062 C 171.953125 225.695312 171.515625 226.976562 170.640625 226.976562 C 169.984375 226.976562 169.984375 226.289062 169.984375 225.976562 C 169.984375 225.445312 170.015625 225.351562 170.140625 224.945312 Z M 173.265625 212.320312 "/>
<path fill-rule="nonzero" fill="rgb(0%, 0%, 0%)" fill-opacity="1" d="M 39.984375 187.664062 L 40.203125 188.15625 L 40.460938 188.625 L 40.757812 189.078125 L 41.09375 189.515625 L 41.46875 189.9375 L 41.875 190.335938 L 42.320312 190.71875 L 42.804688 191.09375 L 43.320312 191.445312 L 43.875 191.789062 L 44.453125 192.109375 L 45.078125 192.421875 L 45.71875 192.710938 L 46.40625 192.992188 L 47.117188 193.265625 L 47.859375 193.515625 L 48.632812 193.757812 L 49.4375 193.976562 L 50.273438 194.195312 L 51.125 194.398438 L 52.015625 194.585938 L 52.929688 194.773438 L 53.867188 194.9375 L 54.835938 195.09375 L 55.828125 195.242188 L 56.835938 195.375 L 57.875 195.5 L 58.9375 195.617188 L 60.023438 195.726562 L 61.125 195.820312 L 62.257812 195.914062 L 63.40625 195.992188 L 64.570312 196.0625 L 65.757812 196.132812 L 66.960938 196.1875 L 68.1875 196.234375 L 69.421875 196.28125 L 70.679688 196.3125 L 71.953125 196.34375 L 73.242188 196.375 L 74.546875 196.390625 L 75.867188 196.40625 L 77.195312 196.414062 L 78.539062 196.421875 L 81.265625 196.421875 L 82.648438 196.414062 L 84.039062 196.398438 L 85.4375 196.390625 L 86.84375 196.375 L 89.6875 196.328125 L 91.125 196.3125 L 92.5625 196.289062 L 94.007812 196.265625 L 95.460938 196.234375 L 96.921875 196.210938 L 98.375 196.1875 L 99.84375 196.15625 L 101.304688 196.132812 L 102.78125 196.109375 L 105.71875 196.0625 L 107.195312 196.046875 L 108.664062 196.023438 L 110.140625 196.007812 L 111.609375 196 L 113.078125 195.984375 L 114.539062 195.984375 L 116 195.976562 L 117.460938 195.976562 L 120.367188 195.992188 L 121.804688 196.007812 L 123.242188 196.03125 L 124.671875 196.0625 L 126.09375 196.09375 L 127.507812 196.132812 L 128.914062 196.171875 L 130.304688 196.226562 L 131.6875 196.28125 L 133.0625 196.351562 L 134.421875 196.429688 L 135.773438 196.507812 L 137.109375 196.601562 L 138.4375 196.695312 L 139.742188 196.804688 L 141.039062 196.921875 L 142.320312 197.054688 L 143.578125 197.1875 L 144.828125 197.34375 L 146.054688 197.5 L 147.273438 197.671875 L 148.46875 197.851562 L 149.640625 198.046875 L 150.796875 198.25 L 151.929688 198.46875 L 153.046875 198.695312 L 154.140625 198.9375 L 155.210938 199.195312 L 156.257812 199.46875 L 157.28125 199.75 L 158.28125 200.046875 L 159.257812 200.359375 L 160.203125 200.6875 L 161.132812 201.03125 L 162.03125 201.390625 L 162.898438 201.765625 L 163.742188 202.148438 L 164.554688 202.554688 L 165.34375 202.976562 L 166.101562 203.421875 L 166.828125 203.875 L 167.515625 204.351562 L 168.179688 204.84375 L 168.8125 205.359375 L 169.414062 205.882812 L 169.976562 206.4375 L 170.507812 207 L 171 207.59375 L 171.5 207 L 172.03125 206.4375 L 172.59375 205.882812 L 173.1875 205.359375 L 173.820312 204.84375 L 174.484375 204.351562 L 175.179688 203.875 L 175.90625 203.421875 L 176.65625 202.976562 L 177.445312 202.554688 L 178.257812 202.148438 L 179.101562 201.765625 L 179.976562 201.390625 L 180.875 201.03125 L 181.796875 200.6875 L 182.742188 200.359375 L 183.71875 200.046875 L 184.71875 199.75 L 185.75 199.46875 L 186.796875 199.195312 L 187.867188 198.9375 L 188.960938 198.695312 L 190.070312 198.46875 L 191.210938 198.25 L 192.367188 198.046875 L 193.539062 197.851562 L 194.734375 197.671875 L 195.945312 197.5 L 197.171875 197.34375 L 198.421875 197.1875 L 199.6875 197.054688 L 200.96875 196.921875 L 202.257812 196.804688 L 203.570312 196.695312 L 204.898438 196.601562 L 206.234375 196.507812 L 207.578125 196.429688 L 208.945312 196.351562 L 210.3125 196.28125 L 213.09375 196.171875 L 214.492188 196.132812 L 215.90625 196.09375 L 217.328125 196.0625 L 218.765625 196.03125 L 220.195312 196.007812 L 221.640625 195.992188 L 223.085938 195.984375 L 224.539062 195.976562 L 226 195.976562 L 227.460938 195.984375 L 228.929688 195.984375 L 230.390625 196 L 231.867188 196.007812 L 233.335938 196.023438 L 234.804688 196.046875 L 236.28125 196.0625 L 237.757812 196.085938 L 240.695312 196.132812 L 242.15625 196.15625 L 243.625 196.1875 L 245.085938 196.210938 L 246.539062 196.234375 L 247.992188 196.265625 L 250.882812 196.3125 L 252.3125 196.328125 L 255.15625 196.375 L 256.5625 196.390625 L 257.96875 196.398438 L 259.359375 196.414062 L 260.734375 196.421875 L 263.460938 196.421875 L 264.804688 196.414062 L 266.140625 196.40625 L 267.453125 196.390625 L 268.757812 196.375 L 270.046875 196.34375 L 271.320312 196.3125 L 272.578125 196.28125 L 273.820312 196.234375 L 275.039062 196.1875 L 276.25 196.132812 L 277.4375 196.0625 L 278.601562 195.992188 L 279.75 195.914062 L 280.875 195.820312 L 281.976562 195.726562 L 283.0625 195.617188 L 284.125 195.5 L 285.164062 195.375 L 286.179688 195.242188 L 287.171875 195.09375 L 288.132812 194.9375 L 289.070312 194.773438 L 289.984375 194.585938 L 290.875 194.398438 L 291.734375 194.195312 L 292.5625 193.976562 L 293.367188 193.757812 L 294.140625 193.515625 L 294.882812 193.265625 L 295.59375 192.992188 L 296.28125 192.710938 L 296.929688 192.421875 L 297.546875 192.109375 L 298.132812 191.789062 L 298.679688 191.445312 L 299.195312 191.09375 L 299.679688 190.71875 L 300.125 190.335938 L 300.539062 189.9375 L 300.90625 189.515625 L 301.242188 189.078125 L 301.539062 188.625 L 301.796875 188.15625 L 302.023438 187.664062 L 301.703125 188.351562 L 301.351562 189.007812 L 300.960938 189.648438 L 300.539062 190.257812 L 300.078125 190.851562 L 299.585938 191.414062 L 299.0625 191.960938 L 298.507812 192.476562 L 297.914062 192.984375 L 297.289062 193.460938 L 296.640625 193.914062 L 295.960938 194.351562 L 295.25 194.773438 L 294.507812 195.171875 L 293.742188 195.546875 L 292.945312 195.90625 L 292.125 196.242188 L 291.265625 196.570312 L 290.390625 196.875 L 289.492188 197.164062 L 288.5625 197.429688 L 287.609375 197.6875 L 286.632812 197.921875 L 285.640625 198.148438 L 284.617188 198.351562 L 283.570312 198.539062 L 282.507812 198.71875 L 281.421875 198.882812 L 280.320312 199.03125 L 279.195312 199.164062 L 278.046875 199.289062 L 276.882812 199.398438 L 275.703125 199.492188 L 274.507812 199.578125 L 273.289062 199.65625 L 272.0625 199.71875 L 270.8125 199.773438 L 269.554688 199.8125 L 268.28125 199.84375 L 266.984375 199.875 L 265.6875 199.882812 L 264.367188 199.890625 L 263.039062 199.890625 L 261.703125 199.875 L 260.351562 199.859375 L 258.992188 199.835938 L 257.625 199.804688 L 256.242188 199.765625 L 254.859375 199.71875 L 253.460938 199.671875 L 252.0625 199.617188 L 250.648438 199.5625 L 249.234375 199.5 L 247.8125 199.429688 L 244.953125 199.289062 L 243.523438 199.210938 L 242.078125 199.132812 L 239.203125 198.976562 L 234.867188 198.71875 L 233.421875 198.640625 L 231.976562 198.554688 L 230.53125 198.476562 L 229.09375 198.390625 L 226.21875 198.234375 L 224.789062 198.164062 L 223.367188 198.09375 L 221.9375 198.023438 L 220.523438 197.960938 L 219.117188 197.898438 L 217.710938 197.84375 L 216.3125 197.789062 L 214.929688 197.742188 L 213.546875 197.703125 L 212.171875 197.671875 L 210.8125 197.640625 L 209.460938 197.625 L 208.125 197.609375 L 206.796875 197.601562 L 205.476562 197.601562 L 204.171875 197.617188 L 202.882812 197.632812 L 201.609375 197.664062 L 200.34375 197.703125 L 199.09375 197.75 L 197.859375 197.8125 L 196.648438 197.882812 L 195.445312 197.960938 L 194.265625 198.046875 L 193.09375 198.15625 L 191.953125 198.273438 L 190.828125 198.398438 L 189.71875 198.546875 L 188.632812 198.703125 L 187.5625 198.875 L 186.515625 199.054688 L 185.492188 199.257812 L 184.492188 199.46875 L 183.515625 199.703125 L 182.5625 199.945312 L 181.632812 200.210938 L 180.726562 200.492188 L 179.84375 200.789062 L 178.992188 201.101562 L 178.171875 201.4375 L 177.367188 201.789062 L 176.601562 202.15625 L 175.851562 202.546875 L 175.140625 202.953125 L 174.453125 203.382812 L 173.804688 203.828125 L 173.179688 204.304688 L 172.585938 204.789062 L 172.023438 205.304688 L 171.492188 205.835938 L 171 206.398438 L 170.507812 205.835938 L 169.976562 205.304688 L 169.414062 204.789062 L 168.828125 204.304688 L 168.203125 203.828125 L 167.546875 203.382812 L 166.859375 202.953125 L 166.148438 202.546875 L 165.40625 202.15625 L 164.632812 201.789062 L 163.835938 201.4375 L 163.007812 201.101562 L 162.15625 200.789062 L 161.273438 200.492188 L 160.367188 200.210938 L 159.4375 199.945312 L 158.484375 199.703125 L 157.507812 199.46875 L 156.507812 199.257812 L 155.484375 199.054688 L 154.4375 198.875 L 153.375 198.703125 L 152.289062 198.546875 L 151.179688 198.398438 L 150.054688 198.273438 L 148.90625 198.15625 L 147.742188 198.046875 L 146.554688 197.960938 L 145.359375 197.882812 L 144.140625 197.8125 L 142.90625 197.75 L 141.664062 197.703125 L 140.398438 197.664062 L 139.117188 197.632812 L 137.828125 197.617188 L 136.523438 197.601562 L 135.210938 197.601562 L 133.882812 197.609375 L 132.539062 197.625 L 131.1875 197.640625 L 129.828125 197.671875 L 128.460938 197.703125 L 127.078125 197.742188 L 125.6875 197.789062 L 124.296875 197.84375 L 122.890625 197.898438 L 120.0625 198.023438 L 118.640625 198.09375 L 115.78125 198.234375 L 114.351562 198.3125 L 112.90625 198.390625 L 111.46875 198.476562 L 110.023438 198.554688 L 108.585938 198.640625 L 107.140625 198.71875 L 105.6875 198.804688 L 104.25 198.890625 L 102.804688 198.976562 L 101.359375 199.054688 L 97.046875 199.289062 L 94.1875 199.429688 L 92.773438 199.5 L 91.351562 199.5625 L 88.539062 199.671875 L 85.757812 199.765625 L 84.382812 199.804688 L 83.007812 199.835938 L 81.648438 199.859375 L 80.296875 199.875 L 78.960938 199.890625 L 77.632812 199.890625 L 76.320312 199.882812 L 75.015625 199.875 L 73.726562 199.84375 L 72.445312 199.8125 L 71.1875 199.773438 L 69.9375 199.71875 L 68.710938 199.65625 L 67.492188 199.578125 L 66.296875 199.492188 L 65.117188 199.398438 L 63.953125 199.289062 L 62.8125 199.164062 L 61.6875 199.03125 L 60.578125 198.882812 L 59.492188 198.71875 L 58.429688 198.539062 L 57.382812 198.351562 L 56.367188 198.148438 L 55.367188 197.921875 L 54.390625 197.6875 L 53.4375 197.429688 L 52.515625 197.164062 L 51.609375 196.875 L 50.734375 196.570312 L 49.882812 196.242188 L 49.0625 195.90625 L 48.265625 195.546875 L 47.492188 195.171875 L 46.757812 194.773438 L 46.039062 194.351562 L 45.359375 193.914062 L 44.710938 193.460938 L 44.085938 192.984375 L 43.5 192.476562 L 42.9375 191.960938 L 42.414062 191.414062 L 41.929688 190.851562 L 41.46875 190.257812 L 41.046875 189.648438 L 40.65625 189.007812 L 40.304688 188.351562 L 39.984375 187.664062 "/>
<path fill="none" stroke-width="3.985" stroke-linecap="butt" stroke-linejoin="miter" stroke="rgb(0%, 0%, 0%)" stroke-opacity="1" stroke-miterlimit="10" d="M 199.921872 361.679682 L 201.015622 359.218745 L 202.304684 356.874995 L 203.789059 354.60937 L 205.468747 352.42187 L 207.343747 350.312495 L 209.374997 348.320307 L 211.601559 346.406245 L 214.023434 344.531245 L 216.601559 342.773432 L 219.374997 341.054682 L 222.265622 339.45312 L 225.390622 337.89062 L 228.593747 336.445307 L 232.031247 335.039058 L 235.585934 333.67187 L 239.296871 332.42187 L 243.164059 331.210933 L 247.187496 330.117183 L 251.367184 329.023433 L 255.624996 328.007808 L 260.078121 327.070308 L 264.648434 326.132808 L 269.335933 325.312495 L 274.179683 324.531245 L 279.140621 323.789058 L 284.179683 323.124995 L 289.374996 322.499995 L 294.687496 321.914058 L 300.117183 321.367183 L 305.624995 320.898433 L 311.289058 320.429683 L 317.031245 320.039058 L 322.851558 319.687495 L 328.789058 319.335933 L 334.804683 319.062495 L 340.937495 318.82812 L 347.10937 318.593745 L 353.398432 318.437495 L 359.76562 318.281245 L 366.210932 318.124995 L 372.734369 318.04687 L 379.335932 317.968745 L 385.976557 317.929683 L 392.695307 317.89062 L 406.328119 317.89062 L 413.242181 317.929683 L 420.195306 318.007808 L 427.187494 318.04687 L 434.218744 318.124995 L 448.437493 318.35937 L 455.624993 318.437495 L 462.812493 318.554683 L 470.039055 318.67187 L 477.30468 318.82812 L 484.609368 318.945308 L 491.874993 319.062495 L 499.218743 319.218745 L 506.52343 319.335933 L 513.906242 319.45312 L 528.593742 319.687495 L 535.976555 319.76562 L 543.320304 319.882808 L 550.703117 319.960933 L 558.046867 319.999995 L 565.390617 320.07812 L 572.695304 320.07812 L 579.999991 320.117183 L 587.304679 320.117183 L 601.835929 320.039058 L 609.023428 319.960933 L 616.210928 319.843745 L 623.359366 319.687495 L 630.468741 319.531245 L 637.539053 319.335933 L 644.570303 319.14062 L 651.523428 318.867183 L 658.43749 318.593745 L 665.31249 318.242183 L 672.109365 317.851558 L 678.867177 317.460933 L 685.546865 316.992183 L 692.18749 316.523433 L 698.710927 315.976558 L 705.195302 315.39062 L 711.601552 314.726558 L 717.890614 314.062495 L 724.140614 313.281245 L 730.273427 312.499995 L 736.367177 311.64062 L 742.343739 310.742183 L 748.203114 309.76562 L 753.984364 308.749995 L 759.648426 307.656245 L 765.234364 306.523433 L 770.703114 305.312495 L 776.054676 304.023433 L 781.289051 302.656245 L 786.406238 301.249996 L 791.406238 299.765621 L 796.289051 298.203121 L 801.015613 296.562496 L 805.66405 294.843746 L 810.156238 293.046871 L 814.492175 291.171871 L 818.710925 289.257808 L 822.773425 287.226558 L 826.718738 285.117183 L 830.5078 282.890621 L 834.140613 280.624996 L 837.578113 278.242183 L 840.898425 275.781246 L 844.062487 273.203121 L 847.0703 270.585933 L 849.8828 267.812496 L 852.53905 264.999996 L 854.999987 262.031246 L 857.499987 264.999996 L 860.156237 267.812496 L 862.968737 270.585933 L 865.937487 273.203121 L 869.10155 275.781246 L 872.421862 278.242183 L 875.898424 280.624996 L 879.531237 282.890621 L 883.281237 285.117183 L 887.226549 287.226558 L 891.289049 289.257808 L 895.507799 291.171871 L 899.882799 293.046871 L 904.374987 294.843746 L 908.984361 296.562496 L 913.710924 298.203121 L 918.593736 299.765621 L 923.593736 301.249996 L 928.749986 302.656245 L 933.984361 304.023433 L 939.335924 305.312495 L 944.804673 306.523433 L 950.351548 307.656245 L 956.054673 308.749995 L 961.835923 309.76562 L 967.695298 310.742183 L 973.67186 311.64062 L 979.726548 312.499995 L 985.85936 313.281245 L 992.10936 314.062495 L 998.437485 314.726558 L 1004.843735 315.39062 L 1011.289047 315.976558 L 1017.851547 316.523433 L 1024.492172 316.992183 L 1031.17186 317.460933 L 1037.89061 317.851558 L 1044.726547 318.242183 L 1051.562484 318.593745 L 1065.468734 319.14062 L 1072.460922 319.335933 L 1079.531234 319.531245 L 1086.640609 319.687495 L 1093.828109 319.843745 L 1100.976546 319.960933 L 1108.203108 320.039058 L 1115.429671 320.07812 L 1122.695296 320.117183 L 1129.999983 320.117183 L 1137.304671 320.07812 L 1144.64842 320.07812 L 1151.953108 319.999995 L 1159.33592 319.960933 L 1166.67967 319.882808 L 1174.02342 319.76562 L 1181.406232 319.687495 L 1188.789045 319.570308 L 1203.476545 319.335933 L 1210.781232 319.218745 L 1218.124982 319.062495 L 1225.429669 318.945308 L 1232.695294 318.82812 L 1239.960919 318.67187 L 1254.414044 318.437495 L 1261.562481 318.35937 L 1275.781231 318.124995 L 1282.812481 318.04687 L 1289.843731 318.007808 L 1296.796856 317.929683 L 1303.671856 317.89062 L 1317.304668 317.89062 L 1324.023418 317.929683 L 1330.703105 317.968745 L 1337.265605 318.04687 L 1343.789042 318.124995 L 1350.234355 318.281245 L 1356.601542 318.437495 L 1362.890605 318.593745 L 1369.101542 318.82812 L 1375.195292 319.062495 L 1381.249979 319.335933 L 1387.187479 319.687495 L 1393.007792 320.039058 L 1398.749979 320.429683 L 1404.374979 320.898433 L 1409.882791 321.367183 L 1415.312479 321.914058 L 1420.624979 322.499995 L 1425.820291 323.124995 L 1430.898416 323.789058 L 1435.859354 324.531245 L 1440.664041 325.312495 L 1445.351541 326.132808 L 1449.921853 327.070308 L 1454.374978 328.007808 L 1458.671853 329.023433 L 1462.812478 330.117183 L 1466.835916 331.210933 L 1470.703103 332.42187 L 1474.414041 333.67187 L 1477.968728 335.039058 L 1481.406228 336.445307 L 1484.648415 337.89062 L 1487.734353 339.45312 L 1490.66404 341.054682 L 1493.398415 342.773432 L 1495.97654 344.531245 L 1498.398415 346.406245 L 1500.624978 348.320307 L 1502.69529 350.312495 L 1504.531228 352.42187 L 1506.210915 354.60937 L 1507.69529 356.874995 L 1508.984353 359.218745 L 1510.117165 361.679682 L 1508.515603 358.242182 L 1506.75779 354.960932 L 1504.804665 351.757807 L 1502.69529 348.710932 L 1500.390603 345.742182 L 1497.929665 342.929682 L 1495.312478 340.195307 L 1492.53904 337.617182 L 1489.57029 335.07812 L 1486.44529 332.695308 L 1483.203103 330.429683 L 1479.804665 328.242183 L 1476.249978 326.132808 L 1472.539041 324.14062 L 1468.710916 322.26562 L 1464.726541 320.468745 L 1460.624978 318.789058 L 1456.328103 317.148433 L 1451.953103 315.624995 L 1447.460916 314.179683 L 1442.812479 312.851558 L 1438.046854 311.562495 L 1433.164041 310.39062 L 1428.203104 309.257808 L 1423.085916 308.242183 L 1417.851541 307.304683 L 1412.539041 306.406245 L 1407.109354 305.585933 L 1401.601542 304.843745 L 1395.976542 304.179683 L 1390.234354 303.554683 L 1384.414042 303.007808 L 1378.515604 302.539058 L 1372.539042 302.10937 L 1366.445292 301.718746 L 1360.31248 301.406246 L 1354.06248 301.132808 L 1347.773417 300.937496 L 1341.40623 300.781246 L 1334.921855 300.624996 L 1328.43748 300.585933 L 1321.835918 300.546871 L 1315.195293 300.546871 L 1308.515606 300.624996 L 1301.757793 300.703121 L 1294.960918 300.820308 L 1288.124981 300.976558 L 1281.210918 301.171871 L 1274.296856 301.406246 L 1267.304669 301.640621 L 1260.312481 301.914058 L 1253.242169 302.187495 L 1246.171856 302.499995 L 1239.062482 302.851558 L 1224.765607 303.554683 L 1217.617169 303.945308 L 1210.390607 304.335933 L 1196.015607 305.117183 L 1174.33592 306.406245 L 1167.109358 306.79687 L 1159.882795 307.226558 L 1152.656233 307.617183 L 1145.468733 308.04687 L 1131.093733 308.82812 L 1123.945296 309.179683 L 1116.835921 309.531245 L 1109.687483 309.882808 L 1102.617171 310.195308 L 1095.585921 310.507808 L 1088.554671 310.781245 L 1081.562484 311.054683 L 1074.648421 311.289058 L 1067.734359 311.48437 L 1060.859359 311.64062 L 1054.062484 311.79687 L 1047.304672 311.874995 L 1040.624984 311.95312 L 1033.98436 311.992183 L 1027.382797 311.992183 L 1020.85936 311.914058 L 1014.414047 311.835933 L 1008.04686 311.679683 L 1001.718735 311.48437 L 995.468735 311.249995 L 989.29686 310.937495 L 983.242173 310.585933 L 977.226548 310.195308 L 971.328111 309.76562 L 965.468736 309.218745 L 959.765611 308.632808 L 954.140611 308.007808 L 948.593736 307.26562 L 943.164048 306.48437 L 937.812486 305.624995 L 932.578111 304.726558 L 927.460924 303.710933 L 922.460924 302.656245 L 917.578111 301.484371 L 912.812486 300.273433 L 908.164049 298.945308 L 903.632799 297.539058 L 899.218737 296.054683 L 894.960924 294.492183 L 890.859362 292.812496 L 886.835924 291.054683 L 883.007799 289.218746 L 879.257799 287.265621 L 875.703112 285.234371 L 872.265612 283.085933 L 869.023425 280.859371 L 865.898425 278.476558 L 862.929675 276.054683 L 860.117175 273.476558 L 857.460925 270.820308 L 854.999987 268.007809 L 852.53905 270.820308 L 849.8828 273.476558 L 847.0703 276.054683 L 844.140612 278.476558 L 841.015612 280.859371 L 837.734363 283.085933 L 834.296863 285.234371 L 830.742175 287.265621 L 827.031238 289.218746 L 823.16405 291.054683 L 819.179675 292.812496 L 815.03905 294.492183 L 810.781238 296.054683 L 806.367175 297.539058 L 801.835926 298.945308 L 797.187488 300.273433 L 792.421863 301.484371 L 787.539051 302.656245 L 782.539051 303.710933 L 777.421863 304.726558 L 772.187488 305.624995 L 766.874989 306.48437 L 761.445301 307.26562 L 755.898426 308.007808 L 750.273426 308.632808 L 744.531239 309.218745 L 738.710926 309.76562 L 732.773427 310.195308 L 726.796864 310.585933 L 720.703114 310.937495 L 714.531239 311.249995 L 708.320302 311.48437 L 701.992177 311.679683 L 695.585927 311.835933 L 689.140615 311.914058 L 682.617177 311.992183 L 676.054677 311.992183 L 669.414053 311.95312 L 662.695303 311.874995 L 655.93749 311.79687 L 649.140615 311.64062 L 642.304678 311.48437 L 635.390616 311.289058 L 628.437491 311.054683 L 621.484366 310.781245 L 614.453116 310.507808 L 600.312491 309.882808 L 593.203116 309.531245 L 578.906241 308.82812 L 571.757804 308.437495 L 564.531242 308.04687 L 557.343742 307.617183 L 550.117179 307.226558 L 542.929679 306.79687 L 535.703117 306.406245 L 528.437492 305.976558 L 521.249992 305.54687 L 514.02343 305.117183 L 506.796867 304.726558 L 485.234368 303.554683 L 470.937493 302.851558 L 463.867181 302.499995 L 456.757806 302.187495 L 442.695306 301.640621 L 428.789056 301.171871 L 421.914056 300.976558 L 415.039056 300.820308 L 408.242181 300.703121 L 401.484369 300.624996 L 394.804682 300.546871 L 388.164057 300.546871 L 381.601557 300.585933 L 375.078119 300.624996 L 368.632807 300.781246 L 362.226557 300.937496 L 355.937495 301.132808 L 349.687495 301.406246 L 343.554682 301.718746 L 337.460932 302.10937 L 331.48437 302.539058 L 325.585933 303.007808 L 319.76562 303.554683 L 314.062495 304.179683 L 308.437495 304.843745 L 302.89062 305.585933 L 297.460933 306.406245 L 292.148433 307.304683 L 286.914058 308.242183 L 281.835933 309.257808 L 276.835933 310.39062 L 271.953121 311.562495 L 267.187496 312.851558 L 262.578121 314.179683 L 258.046871 315.624995 L 253.671871 317.148433 L 249.414059 318.789058 L 245.312496 320.468745 L 241.328121 322.26562 L 237.460934 324.14062 L 233.789059 326.132808 L 230.195309 328.242183 L 226.796872 330.429683 L 223.554684 332.695308 L 220.429684 335.07812 L 217.499997 337.617182 L 214.687497 340.195307 L 212.070309 342.929682 L 209.648434 345.742182 L 207.343747 348.710932 L 205.234372 351.757807 L 203.281247 354.960932 L 201.523434 358.242182 Z M 199.921872 361.679682 " transform="matrix(0.2, 0, 0, -0.2, 0, 260)"/>
<path fill-rule="nonzero" fill="rgb(100%, 100%, 100%)" fill-opacity="1" d="M 6.695312 183.703125 L 35.976562 183.703125 L 35.976562 210.585938 L 6.695312 210.585938 Z M 6.695312 183.703125 "/>
<path fill-rule="nonzero" fill="rgb(0%, 0%, 0%)" fill-opacity="1" d="M 28.875 195.058594 C 28.875 191.527344 26.5625 189.183594 23.3125 189.183594 C 18.59375 189.183594 13.78125 194.121094 13.78125 199.214844 C 13.78125 202.839844 16.21875 205.027344 19.375 205.027344 C 24 205.027344 28.875 200.246094 28.875 195.058594 Z M 19.5 204.464844 C 17.34375 204.464844 15.8125 202.714844 15.8125 199.839844 C 15.8125 198.871094 16.125 195.683594 17.8125 193.121094 C 19.3125 190.871094 21.4375 189.714844 23.15625 189.714844 C 24.96875 189.714844 26.90625 190.933594 26.90625 194.183594 C 26.90625 195.777344 26.34375 199.183594 24.15625 201.839844 C 23.125 203.183594 21.34375 204.464844 19.5 204.464844 Z M 19.5 204.464844 "/>
<path fill-rule="nonzero" fill="rgb(100%, 100%, 100%)" fill-opacity="1" d="M 376.15625 183.703125 L 408.078125 183.703125 L 408.078125 210.585938 L 376.15625 210.585938 Z M 376.15625 183.703125 "/>
<path fill-rule="nonzero" fill="rgb(0%, 0%, 0%)" fill-opacity="1" d="M 392.777344 195.589844 L 390.933594 191.246094 C 390.871094 191.089844 390.808594 190.996094 390.808594 190.964844 C 390.808594 190.839844 391.183594 190.433594 392.121094 190.339844 C 392.339844 190.308594 392.558594 190.308594 392.558594 189.933594 C 392.558594 189.652344 392.277344 189.652344 392.214844 189.652344 C 391.308594 189.652344 390.371094 189.714844 389.464844 189.714844 C 388.933594 189.714844 387.558594 189.652344 387.027344 189.652344 C 386.902344 189.652344 386.621094 189.652344 386.621094 190.089844 C 386.621094 190.339844 386.839844 190.339844 387.121094 190.339844 C 388.433594 190.339844 388.589844 190.558594 388.777344 191.027344 L 391.339844 197.121094 L 386.746094 202.058594 L 386.464844 202.308594 C 385.402344 203.464844 384.371094 203.808594 383.246094 203.871094 C 382.964844 203.902344 382.777344 203.902344 382.777344 204.308594 C 382.777344 204.339844 382.777344 204.558594 383.058594 204.558594 C 383.714844 204.558594 384.433594 204.496094 385.121094 204.496094 C 385.902344 204.496094 386.777344 204.558594 387.558594 204.558594 C 387.683594 204.558594 387.933594 204.558594 387.933594 204.121094 C 387.933594 203.902344 387.714844 203.871094 387.683594 203.871094 C 387.496094 203.871094 386.808594 203.808594 386.808594 203.214844 C 386.808594 202.871094 387.121094 202.496094 387.402344 202.214844 L 389.621094 199.871094 L 391.589844 197.746094 L 393.777344 202.933594 C 393.871094 203.183594 393.902344 203.214844 393.902344 203.246094 C 393.902344 203.433594 393.496094 203.808594 392.621094 203.871094 C 392.402344 203.902344 392.183594 203.933594 392.183594 204.308594 C 392.183594 204.558594 392.433594 204.558594 392.527344 204.558594 C 393.121094 204.558594 394.652344 204.496094 395.277344 204.496094 C 395.808594 204.496094 397.152344 204.558594 397.683594 204.558594 C 397.839844 204.558594 398.121094 204.558594 398.121094 204.152344 C 398.121094 203.871094 397.902344 203.871094 397.714844 203.871094 C 396.246094 203.871094 396.214844 203.808594 395.839844 202.933594 C 394.996094 200.902344 393.527344 197.496094 393.027344 196.183594 C 394.496094 194.652344 396.808594 192.058594 397.496094 191.464844 C 398.121094 190.933594 398.964844 190.402344 400.277344 190.339844 C 400.558594 190.308594 400.746094 190.308594 400.746094 189.902344 C 400.746094 189.871094 400.746094 189.652344 400.464844 189.652344 C 399.808594 189.652344 399.089844 189.714844 398.402344 189.714844 C 397.589844 189.714844 396.777344 189.652344 395.996094 189.652344 C 395.871094 189.652344 395.589844 189.652344 395.589844 190.089844 C 395.589844 190.246094 395.683594 190.308594 395.839844 190.339844 C 396.027344 190.371094 396.714844 190.402344 396.714844 191.027344 C 396.714844 191.308594 396.464844 191.589844 396.308594 191.808594 Z M 392.777344 195.589844 "/>
<path fill-rule="nonzero" fill="rgb(100%, 100%, 100%)" fill-opacity="1" d="M 6.453125 -5.757812 L 35.976562 -5.757812 L 35.976562 21.125 L 6.453125 21.125 Z M 6.453125 -5.757812 "/>
<path fill-rule="nonzero" fill="rgb(0%, 0%, 0%)" fill-opacity="1" d="M 25.511719 2.695312 L 25.792969 2.382812 C 26.449219 1.726562 27.167969 0.976562 28.667969 0.882812 C 28.917969 0.851562 29.105469 0.851562 29.105469 0.476562 C 29.105469 0.289062 28.980469 0.195312 28.824219 0.195312 C 28.261719 0.195312 27.605469 0.257812 27.042969 0.257812 C 26.324219 0.257812 25.542969 0.195312 24.855469 0.195312 C 24.730469 0.195312 24.449219 0.195312 24.449219 0.632812 C 24.449219 0.851562 24.636719 0.882812 24.761719 0.882812 C 24.917969 0.882812 25.542969 0.914062 25.542969 1.382812 C 25.542969 1.757812 25.042969 2.320312 24.949219 2.414062 L 19.886719 8.257812 L 17.511719 1.789062 C 17.355469 1.476562 17.355469 1.414062 17.355469 1.414062 C 17.355469 0.882812 18.449219 0.882812 18.667969 0.882812 C 18.949219 0.882812 19.167969 0.882812 19.167969 0.445312 C 19.167969 0.195312 18.917969 0.195312 18.855469 0.195312 C 18.230469 0.195312 16.699219 0.257812 16.105469 0.257812 C 15.542969 0.257812 14.199219 0.195312 13.667969 0.195312 C 13.542969 0.195312 13.230469 0.195312 13.230469 0.632812 C 13.230469 0.882812 13.449219 0.882812 13.730469 0.882812 C 15.042969 0.882812 15.136719 1.070312 15.324219 1.632812 L 18.011719 8.789062 C 18.042969 8.851562 18.105469 9.101562 18.105469 9.164062 C 18.105469 9.226562 17.230469 12.757812 17.136719 13.132812 C 16.855469 14.351562 16.824219 14.414062 15.074219 14.414062 C 14.667969 14.414062 14.480469 14.414062 14.480469 14.851562 C 14.480469 15.101562 14.761719 15.101562 14.792969 15.101562 C 15.417969 15.101562 16.917969 15.039062 17.542969 15.039062 C 18.136719 15.039062 19.730469 15.101562 20.324219 15.101562 C 20.480469 15.101562 20.761719 15.101562 20.761719 14.664062 C 20.761719 14.414062 20.542969 14.414062 20.136719 14.414062 C 20.105469 14.414062 19.667969 14.414062 19.292969 14.382812 C 18.855469 14.351562 18.730469 14.289062 18.730469 14.039062 C 18.730469 13.882812 18.917969 13.101562 19.011719 12.664062 L 19.792969 9.570312 C 19.886719 9.164062 19.917969 9.101562 20.105469 8.914062 Z M 25.511719 2.695312 "/>
<path fill="none" stroke-width="11.9553" stroke-linecap="butt" stroke-linejoin="miter" stroke="rgb(0%, 0%, 0%)" stroke-opacity="1" stroke-miterlimit="10" d="M 0 381.601557 L 1980.039033 381.601557 " transform="matrix(0.2, 0, 0, -0.2, 0, 260)"/>
<path fill="none" stroke-width="11.9553" stroke-linecap="butt" stroke-linejoin="miter" stroke="rgb(0%, 0%, 0%)" stroke-opacity="1" stroke-miterlimit="10" d="M 179.999997 201.601559 L 179.999997 1281.601543 " transform="matrix(0.2, 0, 0, -0.2, 0, 260)"/>
<path fill-rule="nonzero" fill="rgb(0%, 0%, 0%)" fill-opacity="1" d="M 171.601562 252.253906 C 172.789062 251.847656 174.789062 251.253906 174.789062 249.316406 C 174.789062 247.003906 172.070312 245.941406 170.101562 245.941406 C 169.164062 245.941406 168.195312 246.160156 167.351562 246.660156 C 167.226562 246.722656 167.070312 246.910156 166.914062 246.910156 C 166.601562 246.910156 166.039062 245.941406 165.726562 245.941406 C 165.539062 245.941406 165.507812 246.160156 165.507812 246.253906 L 165.507812 249.816406 C 165.507812 249.941406 165.601562 250.097656 165.789062 250.097656 C 166.101562 250.097656 166.070312 249.472656 166.164062 249.128906 C 166.632812 247.410156 168.195312 246.660156 169.695312 246.566406 L 170.101562 246.566406 C 171.445312 246.566406 173.007812 247.441406 173.007812 249.316406 C 173.007812 251.128906 171.226562 252.066406 169.570312 252.066406 C 169.257812 252.066406 168.945312 252.066406 168.632812 252.066406 L 168.476562 252.066406 C 168.289062 252.066406 168.070312 252.066406 168.070312 252.285156 L 168.070312 252.316406 C 168.101562 252.503906 168.289062 252.535156 168.476562 252.535156 L 170.320312 252.535156 C 171.882812 252.660156 173.320312 253.691406 173.476562 255.316406 L 173.476562 255.535156 C 173.476562 257.378906 171.757812 258.535156 170.007812 258.535156 C 168.101562 258.535156 166.132812 257.910156 165.820312 255.535156 C 165.820312 255.378906 165.757812 255.191406 165.539062 255.191406 C 165.320312 255.222656 165.289062 255.378906 165.289062 255.535156 C 165.289062 258.128906 167.882812 259.160156 170.132812 259.160156 C 172.195312 259.160156 175.070312 258.191406 175.320312 255.722656 L 175.320312 255.597656 C 175.320312 253.628906 173.257812 252.660156 171.601562 252.253906 Z M 171.601562 252.253906 "/>
<path fill-rule="nonzero" fill="rgb(0%, 0%, 0%)" fill-opacity="1" d="M 183.695312 245.941406 C 180.320312 246.347656 177.632812 249.003906 177.632812 252.597656 C 177.632812 255.878906 180.226562 259.128906 184.101562 259.128906 C 187.601562 259.128906 190.570312 256.222656 190.570312 252.597656 C 190.570312 249.410156 188.070312 245.941406 184.132812 245.941406 C 184.007812 245.941406 183.851562 245.941406 183.695312 245.941406 Z M 179.507812 252.816406 L 179.507812 252.472656 C 179.507812 249.972656 180.414062 247.035156 183.570312 246.503906 C 183.757812 246.472656 183.914062 246.472656 184.101562 246.472656 C 186.914062 246.472656 188.664062 249.191406 188.664062 252.222656 C 188.664062 254.628906 187.945312 257.691406 184.976562 258.472656 C 184.695312 258.535156 184.414062 258.566406 184.132812 258.566406 L 183.945312 258.566406 C 181.351562 258.472656 179.945312 256.003906 179.601562 253.597656 Z M 179.507812 252.816406 "/>
<path fill-rule="nonzero" fill="rgb(0%, 0%, 0%)" fill-opacity="1" d="M 193.027344 246.285156 L 193.027344 246.878906 L 193.464844 246.878906 C 194.058594 246.878906 194.683594 246.972656 194.683594 247.847656 L 194.683594 257.316406 C 194.683594 258.160156 193.964844 258.191406 193.308594 258.191406 L 193.027344 258.191406 L 193.027344 258.785156 L 198.808594 258.785156 C 199.214844 258.785156 199.589844 258.816406 199.996094 258.816406 C 201.996094 258.816406 204.339844 257.878906 204.558594 255.472656 L 204.558594 255.285156 C 204.558594 252.753906 201.683594 251.722656 199.777344 251.722656 C 198.527344 251.722656 197.339844 251.847656 196.152344 251.941406 L 196.152344 247.722656 C 196.152344 247.285156 196.214844 246.878906 196.996094 246.878906 L 199.308594 246.878906 C 200.277344 246.878906 201.371094 246.941406 202.089844 247.660156 C 202.777344 248.378906 202.871094 249.597656 202.964844 250.535156 L 203.496094 250.535156 L 203.027344 246.285156 Z M 196.152344 252.566406 C 196.402344 252.566406 196.652344 252.503906 196.902344 252.472656 L 198.277344 252.410156 C 198.558594 252.378906 198.839844 252.347656 199.152344 252.347656 C 200.714844 252.347656 202.683594 253.347656 202.683594 255.191406 C 202.683594 256.941406 201.339844 258.222656 199.339844 258.222656 C 199.058594 258.222656 198.746094 258.191406 198.496094 258.191406 L 196.964844 258.191406 C 196.496094 258.191406 196.246094 258.160156 196.152344 257.535156 Z M 196.152344 252.566406 "/>
<path fill-rule="nonzero" fill="rgb(0%, 0%, 0%)" fill-opacity="1" d="M 206.90625 246.285156 L 206.90625 246.878906 L 207.375 246.878906 C 207.96875 246.878906 208.5625 246.972656 208.5625 247.847656 L 208.5625 257.316406 C 208.5625 258.160156 207.875 258.191406 207.1875 258.191406 L 206.90625 258.191406 L 206.90625 258.785156 L 211.8125 258.785156 L 211.8125 258.191406 L 211.375 258.191406 C 210.75 258.191406 210.15625 258.128906 210.15625 257.253906 L 210.15625 253.066406 L 213.875 253.066406 C 215.65625 252.941406 217.9375 251.753906 217.9375 249.722656 C 217.9375 247.503906 215.59375 246.441406 213.6875 246.285156 Z M 210.125 252.535156 L 210.125 247.535156 C 210.21875 246.941406 210.46875 246.878906 210.875 246.878906 L 212.3125 246.878906 C 213.9375 246.878906 216.0625 246.941406 216.0625 249.722656 C 216.0625 250.378906 215.96875 251.066406 215.5625 251.566406 C 214.90625 252.347656 213.8125 252.535156 212.84375 252.535156 Z M 210.125 252.535156 "/>
<path fill-rule="nonzero" fill="rgb(0%, 0%, 0%)" fill-opacity="1" d="M 222.636719 256.503906 C 222.136719 256.597656 221.636719 257.035156 221.636719 257.628906 C 221.636719 258.253906 222.167969 258.785156 222.792969 258.785156 C 223.417969 258.785156 223.980469 258.316406 223.980469 257.660156 C 223.980469 257.035156 223.449219 256.472656 222.824219 256.472656 C 222.761719 256.472656 222.699219 256.503906 222.636719 256.503906 Z M 222.636719 256.503906 "/>
<path fill-rule="nonzero" fill="rgb(0%, 0%, 0%)" fill-opacity="1" d="M 238.535156 251.160156 C 238.535156 248.910156 238.628906 246.347656 240.316406 244.660156 C 240.972656 244.003906 241.816406 243.535156 242.785156 243.472656 L 243.003906 243.472656 C 243.847656 243.472656 244.722656 243.722656 245.253906 244.441406 C 245.191406 244.410156 245.128906 244.410156 245.035156 244.410156 C 244.503906 244.410156 244.035156 244.816406 244.035156 245.410156 C 244.035156 245.972656 244.441406 246.441406 245.035156 246.441406 C 245.566406 246.441406 246.066406 246.035156 246.066406 245.441406 C 246.066406 243.691406 244.535156 242.910156 242.941406 242.910156 C 238.941406 242.910156 236.566406 247.285156 236.566406 251.035156 C 236.566406 254.253906 237.222656 259.285156 241.753906 259.285156 C 243.660156 259.285156 245.128906 258.097656 246.035156 256.566406 C 246.472656 255.722656 246.628906 254.785156 246.628906 253.878906 C 246.628906 251.347656 244.816406 248.597656 241.910156 248.597656 C 240.660156 248.597656 239.660156 249.191406 239.035156 250.191406 C 238.847656 250.472656 238.628906 250.816406 238.535156 251.160156 Z M 238.566406 253.472656 L 238.566406 253.285156 C 238.566406 251.410156 239.628906 249.097656 241.785156 249.097656 C 243.503906 249.097656 244.472656 250.722656 244.628906 252.253906 C 244.660156 252.878906 244.660156 253.503906 244.660156 254.128906 C 244.660156 255.597656 244.535156 257.347656 243.160156 258.222656 C 242.722656 258.503906 242.222656 258.660156 241.691406 258.660156 C 239.410156 258.660156 238.722656 256.316406 238.597656 254.222656 C 238.597656 253.972656 238.597656 253.722656 238.566406 253.472656 Z M 238.566406 253.472656 "/>
<path fill-rule="nonzero" fill="rgb(0%, 0%, 0%)" fill-opacity="1" d="M 250.746094 245.066406 C 251.433594 244.003906 252.808594 243.472656 254.089844 243.472656 C 255.527344 243.472656 256.683594 244.378906 256.683594 246.222656 C 256.683594 247.753906 255.933594 249.628906 254.339844 250.035156 C 253.777344 250.191406 252.277344 250.035156 252.277344 250.472656 C 252.277344 250.660156 252.464844 250.722656 252.652344 250.722656 L 253.933594 250.722656 C 256.277344 250.722656 257.152344 252.691406 257.152344 254.503906 C 257.152344 256.253906 256.527344 258.660156 254.121094 258.660156 C 252.527344 258.660156 250.996094 257.941406 250.121094 256.535156 L 250.339844 256.535156 C 251.027344 256.535156 251.621094 256.128906 251.621094 255.378906 C 251.621094 254.660156 251.089844 254.191406 250.402344 254.191406 L 250.308594 254.191406 C 249.652344 254.222656 249.214844 254.753906 249.214844 255.378906 C 249.214844 257.847656 251.777344 259.285156 254.214844 259.285156 C 256.808594 259.285156 259.371094 257.441406 259.371094 254.691406 C 259.371094 252.566406 257.339844 250.503906 255.121094 250.410156 C 256.996094 249.753906 258.683594 248.378906 258.683594 246.222656 C 258.683594 244.035156 256.277344 242.910156 254.246094 242.910156 C 252.371094 242.910156 249.902344 243.816406 249.902344 246.066406 C 249.902344 246.628906 250.152344 247.128906 250.902344 247.253906 L 250.996094 247.253906 C 251.652344 247.253906 252.121094 246.816406 252.121094 246.160156 C 252.121094 245.441406 251.558594 245.035156 250.964844 245.035156 C 250.902344 245.035156 250.839844 245.066406 250.746094 245.066406 Z M 250.746094 245.066406 "/>
<path fill-rule="nonzero" fill="rgb(0%, 0%, 0%)" fill-opacity="1" d="M 264.144531 256.503906 C 263.644531 256.597656 263.144531 257.035156 263.144531 257.628906 C 263.144531 258.253906 263.675781 258.785156 264.300781 258.785156 C 264.925781 258.785156 265.488281 258.316406 265.488281 257.660156 C 265.488281 257.035156 264.957031 256.472656 264.332031 256.472656 C 264.269531 256.472656 264.207031 256.503906 264.144531 256.503906 Z M 264.144531 256.503906 "/>
</svg>
