<?xml version="1.0" encoding="UTF-8"?>
<svg xmlns="http://www.w3.org/2000/svg" xmlns:xlink="http://www.w3.org/1999/xlink" width="314" height="348" viewBox="0 0 314 348">
<path fill="none" stroke-width="11.9553" stroke-linecap="butt" stroke-linejoin="miter" stroke="rgb(0%, 0%, 0%)" stroke-opacity="1" stroke-miterlimit="10" d="M 159.999998 361.601557 L 1420.039041 361.601557 L 1420.039041 1621.601538 L 159.999998 1621.601538 Z M 159.999998 361.601557 " transform="matrix(0.2, 0, 0, -0.2, 0, 348)"/>
<path fill="none" stroke-width="11.9553" stroke-linecap="butt" stroke-linejoin="miter" stroke="rgb(0%, 0%, 0%)" stroke-opacity="1" stroke-miterlimit="10" d="M 1231.015607 361.601557 L 1231.015607 1621.601538 " transform="matrix(0.2, 0, 0, -0.2, 0, 348)"/>
<path fill="none" stroke-width="11.9553" stroke-linecap="butt" stroke-linejoin="miter" stroke="rgb(0%, 0%, 0%)" stroke-opacity="1" stroke-miterlimit="10" d="M 159.999998 1432.617166 L 1420.039041 1432.617166 " transform="matrix(0.2, 0, 0, -0.2, 0, 348)"/>
<path fill-rule="nonzero" fill="rgb(0%, 0%, 0%)" fill-opacity="1" d="M 299.253906 147.882812 C 299.378906 147.320312 299.878906 145.320312 301.410156 145.320312 C 301.535156 145.320312 302.035156 145.320312 302.503906 145.601562 C 301.910156 145.695312 301.472656 146.257812 301.472656 146.789062 C 301.472656 147.132812 301.691406 147.539062 302.285156 147.539062 C 302.785156 147.539062 303.472656 147.132812 303.472656 146.289062 C 303.472656 145.132812 302.191406 144.820312 301.441406 144.820312 C 300.160156 144.820312 299.410156 145.976562 299.160156 146.507812 C 298.597656 145.039062 297.410156 144.820312 296.785156 144.820312 C 294.535156 144.820312 293.285156 147.664062 293.285156 148.195312 C 293.285156 148.414062 293.503906 148.414062 293.535156 148.414062 C 293.722656 148.414062 293.785156 148.382812 293.816406 148.164062 C 294.566406 145.851562 296.003906 145.320312 296.753906 145.320312 C 297.160156 145.320312 297.941406 145.507812 297.941406 146.789062 C 297.941406 147.445312 297.566406 148.914062 296.753906 151.976562 C 296.410156 153.320312 295.628906 154.226562 294.691406 154.226562 C 294.535156 154.226562 294.035156 154.226562 293.597656 153.945312 C 294.128906 153.851562 294.597656 153.382812 294.597656 152.789062 C 294.597656 152.195312 294.128906 152.007812 293.816406 152.007812 C 293.160156 152.007812 292.597656 152.570312 292.597656 153.289062 C 292.597656 154.289062 293.691406 154.726562 294.660156 154.726562 C 296.097656 154.726562 296.878906 153.195312 296.941406 153.070312 C 297.222656 153.851562 298.003906 154.726562 299.316406 154.726562 C 301.535156 154.726562 302.785156 151.914062 302.785156 151.351562 C 302.785156 151.132812 302.597656 151.132812 302.535156 151.132812 C 302.347656 151.132812 302.285156 151.226562 302.253906 151.382812 C 301.535156 153.726562 300.035156 154.226562 299.347656 154.226562 C 298.503906 154.226562 298.160156 153.539062 298.160156 152.789062 C 298.160156 152.320312 298.285156 151.851562 298.503906 150.882812 Z M 299.253906 147.882812 "/>
<path fill-rule="nonzero" fill="rgb(0%, 0%, 0%)" fill-opacity="1" d="M 159.042969 9.113281 C 159.167969 8.550781 159.667969 6.550781 161.199219 6.550781 C 161.324219 6.550781 161.824219 6.550781 162.292969 6.832031 C 161.699219 6.925781 161.261719 7.488281 161.261719 8.019531 C 161.261719 8.363281 161.480469 8.769531 162.074219 8.769531 C 162.574219 8.769531 163.261719 8.363281 163.261719 7.519531 C 163.261719 6.363281 161.980469 6.050781 161.230469 6.050781 C 159.949219 6.050781 159.199219 7.207031 158.949219 7.738281 C 158.386719 6.269531 157.199219 6.050781 156.574219 6.050781 C 154.324219 6.050781 153.074219 8.894531 153.074219 9.425781 C 153.074219 9.644531 153.292969 9.644531 153.324219 9.644531 C 153.511719 9.644531 153.574219 9.613281 153.605469 9.394531 C 154.355469 7.082031 155.792969 6.550781 156.542969 6.550781 C 156.949219 6.550781 157.730469 6.738281 157.730469 8.019531 C 157.730469 8.675781 157.355469 10.144531 156.542969 13.207031 C 156.199219 14.550781 155.417969 15.457031 154.480469 15.457031 C 154.324219 15.457031 153.824219 15.457031 153.386719 15.175781 C 153.917969 15.082031 154.386719 14.613281 154.386719 14.019531 C 154.386719 13.425781 153.917969 13.238281 153.605469 13.238281 C 152.949219 13.238281 152.386719 13.800781 152.386719 14.519531 C 152.386719 15.519531 153.480469 15.957031 154.449219 15.957031 C 155.886719 15.957031 156.667969 14.425781 156.730469 14.300781 C 157.011719 15.082031 157.792969 15.957031 159.105469 15.957031 C 161.324219 15.957031 162.574219 13.144531 162.574219 12.582031 C 162.574219 12.363281 162.386719 12.363281 162.324219 12.363281 C 162.136719 12.363281 162.074219 12.457031 162.042969 12.613281 C 161.324219 14.957031 159.824219 15.457031 159.136719 15.457031 C 158.292969 15.457031 157.949219 14.769531 157.949219 14.019531 C 157.949219 13.550781 158.074219 13.082031 158.292969 12.113281 Z M 159.042969 9.113281 "/>
<path fill-rule="nonzero" fill="rgb(0%, 0%, 0%)" fill-opacity="1" d="M 18.832031 147.882812 C 18.957031 147.320312 19.457031 145.320312 20.988281 145.320312 C 21.113281 145.320312 21.613281 145.320312 22.082031 145.601562 C 21.488281 145.695312 21.050781 146.257812 21.050781 146.789062 C 21.050781 147.132812 21.269531 147.539062 21.863281 147.539062 C 22.363281 147.539062 23.050781 147.132812 23.050781 146.289062 C 23.050781 145.132812 21.769531 144.820312 21.019531 144.820312 C 19.738281 144.820312 18.988281 145.976562 18.738281 146.507812 C 18.175781 145.039062 16.988281 144.820312 16.363281 144.820312 C 14.113281 144.820312 12.863281 147.664062 12.863281 148.195312 C 12.863281 148.414062 13.082031 148.414062 13.113281 148.414062 C 13.300781 148.414062 13.363281 148.382812 13.394531 148.164062 C 14.144531 145.851562 15.582031 145.320312 16.332031 145.320312 C 16.738281 145.320312 17.519531 145.507812 17.519531 146.789062 C 17.519531 147.445312 17.144531 148.914062 16.332031 151.976562 C 15.988281 153.320312 15.207031 154.226562 14.269531 154.226562 C 14.113281 154.226562 13.613281 154.226562 13.175781 153.945312 C 13.707031 153.851562 14.175781 153.382812 14.175781 152.789062 C 14.175781 152.195312 13.707031 152.007812 13.394531 152.007812 C 12.738281 152.007812 12.175781 152.570312 12.175781 153.289062 C 12.175781 154.289062 13.269531 154.726562 14.238281 154.726562 C 15.675781 154.726562 16.457031 153.195312 16.519531 153.070312 C 16.800781 153.851562 17.582031 154.726562 18.894531 154.726562 C 21.113281 154.726562 22.363281 151.914062 22.363281 151.351562 C 22.363281 151.132812 22.175781 151.132812 22.113281 151.132812 C 21.925781 151.132812 21.863281 151.226562 21.832031 151.382812 C 21.113281 153.726562 19.613281 154.226562 18.925781 154.226562 C 18.082031 154.226562 17.738281 153.539062 17.738281 152.789062 C 17.738281 152.320312 17.863281 151.851562 18.082031 150.882812 Z M 18.832031 147.882812 "/>
<path fill-rule="nonzero" fill="rgb(0%, 0%, 0%)" fill-opacity="1" d="M 159.042969 286.414062 C 159.167969 285.851562 159.667969 283.851562 161.199219 283.851562 C 161.324219 283.851562 161.824219 283.851562 162.292969 284.132812 C 161.699219 284.226562 161.261719 284.789062 161.261719 285.320312 C 161.261719 285.664062 161.480469 286.070312 162.074219 286.070312 C 162.574219 286.070312 163.261719 285.664062 163.261719 284.820312 C 163.261719 283.664062 161.980469 283.351562 161.230469 283.351562 C 159.949219 283.351562 159.199219 284.507812 158.949219 285.039062 C 158.386719 283.570312 157.199219 283.351562 156.574219 283.351562 C 154.324219 283.351562 153.074219 286.195312 153.074219 286.726562 C 153.074219 286.945312 153.292969 286.945312 153.324219 286.945312 C 153.511719 286.945312 153.574219 286.914062 153.605469 286.695312 C 154.355469 284.382812 155.792969 283.851562 156.542969 283.851562 C 156.949219 283.851562 157.730469 284.039062 157.730469 285.320312 C 157.730469 285.976562 157.355469 287.445312 156.542969 290.507812 C 156.199219 291.851562 155.417969 292.757812 154.480469 292.757812 C 154.324219 292.757812 153.824219 292.757812 153.386719 292.476562 C 153.917969 292.382812 154.386719 291.914062 154.386719 291.320312 C 154.386719 290.726562 153.917969 290.539062 153.605469 290.539062 C 152.949219 290.539062 152.386719 291.101562 152.386719 291.820312 C 152.386719 292.820312 153.480469 293.257812 154.449219 293.257812 C 155.886719 293.257812 156.667969 291.726562 156.730469 291.601562 C 157.011719 292.382812 157.792969 293.257812 159.105469 293.257812 C 161.324219 293.257812 162.574219 290.445312 162.574219 289.882812 C 162.574219 289.664062 162.386719 289.664062 162.324219 289.664062 C 162.136719 289.664062 162.074219 289.757812 162.042969 289.914062 C 161.324219 292.257812 159.824219 292.757812 159.136719 292.757812 C 158.292969 292.757812 157.949219 292.070312 157.949219 291.320312 C 157.949219 290.851562 158.074219 290.382812 158.292969 289.414062 Z M 159.042969 286.414062 "/>
<path fill-rule="nonzero" fill="rgb(0%, 0%, 0%)" fill-opacity="1" d="M 303.222656 35.351562 C 303.222656 35.351562 303.222656 35.132812 302.941406 35.132812 C 302.628906 35.132812 300.535156 35.320312 300.160156 35.351562 C 300.003906 35.382812 299.878906 35.476562 299.878906 35.789062 C 299.878906 36.039062 300.066406 36.039062 300.378906 36.039062 C 301.441406 36.039062 301.472656 36.195312 301.472656 36.414062 L 301.410156 36.851562 L 300.097656 42.007812 C 299.722656 41.195312 299.097656 40.601562 298.097656 40.601562 C 295.535156 40.601562 292.847656 43.820312 292.847656 47.007812 C 292.847656 49.070312 294.035156 50.507812 295.753906 50.507812 C 296.191406 50.507812 297.285156 50.414062 298.566406 48.851562 C 298.753906 49.789062 299.535156 50.507812 300.566406 50.507812 C 301.316406 50.507812 301.816406 50.007812 302.191406 49.289062 C 302.566406 48.507812 302.847656 47.195312 302.847656 47.132812 C 302.847656 46.914062 302.628906 46.914062 302.566406 46.914062 C 302.347656 46.914062 302.347656 47.007812 302.253906 47.320312 C 301.910156 48.726562 301.503906 50.007812 300.597656 50.007812 C 300.035156 50.007812 299.941406 49.445312 299.941406 49.007812 C 299.941406 48.476562 300.003906 48.351562 300.097656 47.976562 Z M 298.691406 47.664062 C 298.566406 48.070312 298.566406 48.101562 298.253906 48.476562 C 297.285156 49.664062 296.410156 50.007812 295.785156 50.007812 C 294.691406 50.007812 294.378906 48.820312 294.378906 47.976562 C 294.378906 46.882812 295.097656 44.195312 295.597656 43.195312 C 296.285156 41.914062 297.253906 41.101562 298.128906 41.101562 C 299.535156 41.101562 299.847656 42.882812 299.847656 43.007812 C 299.847656 43.132812 299.816406 43.289062 299.785156 43.382812 Z M 298.691406 47.664062 "/>
<path fill-rule="nonzero" fill="rgb(0%, 0%, 0%)" fill-opacity="1" d="M 310.535156 43.664062 C 310.660156 43.101562 311.160156 41.101562 312.691406 41.101562 C 312.816406 41.101562 313.316406 41.101562 313.785156 41.382812 C 313.191406 41.476562 312.753906 42.039062 312.753906 42.570312 C 312.753906 42.914062 312.972656 43.320312 313.566406 43.320312 C 314.066406 43.320312 314.753906 42.914062 314.753906 42.070312 C 314.753906 40.914062 313.472656 40.601562 312.722656 40.601562 C 311.441406 40.601562 310.691406 41.757812 310.441406 42.289062 C 309.878906 40.820312 308.691406 40.601562 308.066406 40.601562 C 305.816406 40.601562 304.566406 43.445312 304.566406 43.976562 C 304.566406 44.195312 304.785156 44.195312 304.816406 44.195312 C 305.003906 44.195312 305.066406 44.164062 305.097656 43.945312 C 305.847656 41.632812 307.285156 41.101562 308.035156 41.101562 C 308.441406 41.101562 309.222656 41.289062 309.222656 42.570312 C 309.222656 43.226562 308.847656 44.695312 308.035156 47.757812 C 307.691406 49.101562 306.910156 50.007812 305.972656 50.007812 C 305.816406 50.007812 305.316406 50.007812 304.878906 49.726562 C 305.410156 49.632812 305.878906 49.164062 305.878906 48.570312 C 305.878906 47.976562 305.410156 47.789062 305.097656 47.789062 C 304.441406 47.789062 303.878906 48.351562 303.878906 49.070312 C 303.878906 50.070312 304.972656 50.507812 305.941406 50.507812 C 307.378906 50.507812 308.160156 48.976562 308.222656 48.851562 C 308.503906 49.632812 309.285156 50.507812 310.597656 50.507812 C 312.816406 50.507812 314.066406 47.695312 314.066406 47.132812 C 314.066406 46.914062 313.878906 46.914062 313.816406 46.914062 C 313.628906 46.914062 313.566406 47.007812 313.535156 47.164062 C 312.816406 49.507812 311.316406 50.007812 310.628906 50.007812 C 309.785156 50.007812 309.441406 49.320312 309.441406 48.570312 C 309.441406 48.101562 309.566406 47.632812 309.785156 46.664062 Z M 310.535156 43.664062 "/>
<path fill-rule="nonzero" fill="rgb(0%, 0%, 0%)" fill-opacity="1" d="M 264.351562 0.800781 C 264.351562 0.800781 264.351562 0.582031 264.070312 0.582031 C 263.757812 0.582031 261.664062 0.769531 261.289062 0.800781 C 261.132812 0.832031 261.007812 0.925781 261.007812 1.238281 C 261.007812 1.488281 261.195312 1.488281 261.507812 1.488281 C 262.570312 1.488281 262.601562 1.644531 262.601562 1.863281 L 262.539062 2.300781 L 261.226562 7.457031 C 260.851562 6.644531 260.226562 6.050781 259.226562 6.050781 C 256.664062 6.050781 253.976562 9.269531 253.976562 12.457031 C 253.976562 14.519531 255.164062 15.957031 256.882812 15.957031 C 257.320312 15.957031 258.414062 15.863281 259.695312 14.300781 C 259.882812 15.238281 260.664062 15.957031 261.695312 15.957031 C 262.445312 15.957031 262.945312 15.457031 263.320312 14.738281 C 263.695312 13.957031 263.976562 12.644531 263.976562 12.582031 C 263.976562 12.363281 263.757812 12.363281 263.695312 12.363281 C 263.476562 12.363281 263.476562 12.457031 263.382812 12.769531 C 263.039062 14.175781 262.632812 15.457031 261.726562 15.457031 C 261.164062 15.457031 261.070312 14.894531 261.070312 14.457031 C 261.070312 13.925781 261.132812 13.800781 261.226562 13.425781 Z M 259.820312 13.113281 C 259.695312 13.519531 259.695312 13.550781 259.382812 13.925781 C 258.414062 15.113281 257.539062 15.457031 256.914062 15.457031 C 255.820312 15.457031 255.507812 14.269531 255.507812 13.425781 C 255.507812 12.332031 256.226562 9.644531 256.726562 8.644531 C 257.414062 7.363281 258.382812 6.550781 259.257812 6.550781 C 260.664062 6.550781 260.976562 8.332031 260.976562 8.457031 C 260.976562 8.582031 260.945312 8.738281 260.914062 8.832031 Z M 259.820312 13.113281 "/>
<path fill-rule="nonzero" fill="rgb(0%, 0%, 0%)" fill-opacity="1" d="M 271.664062 9.113281 C 271.789062 8.550781 272.289062 6.550781 273.820312 6.550781 C 273.945312 6.550781 274.445312 6.550781 274.914062 6.832031 C 274.320312 6.925781 273.882812 7.488281 273.882812 8.019531 C 273.882812 8.363281 274.101562 8.769531 274.695312 8.769531 C 275.195312 8.769531 275.882812 8.363281 275.882812 7.519531 C 275.882812 6.363281 274.601562 6.050781 273.851562 6.050781 C 272.570312 6.050781 271.820312 7.207031 271.570312 7.738281 C 271.007812 6.269531 269.820312 6.050781 269.195312 6.050781 C 266.945312 6.050781 265.695312 8.894531 265.695312 9.425781 C 265.695312 9.644531 265.914062 9.644531 265.945312 9.644531 C 266.132812 9.644531 266.195312 9.613281 266.226562 9.394531 C 266.976562 7.082031 268.414062 6.550781 269.164062 6.550781 C 269.570312 6.550781 270.351562 6.738281 270.351562 8.019531 C 270.351562 8.675781 269.976562 10.144531 269.164062 13.207031 C 268.820312 14.550781 268.039062 15.457031 267.101562 15.457031 C 266.945312 15.457031 266.445312 15.457031 266.007812 15.175781 C 266.539062 15.082031 267.007812 14.613281 267.007812 14.019531 C 267.007812 13.425781 266.539062 13.238281 266.226562 13.238281 C 265.570312 13.238281 265.007812 13.800781 265.007812 14.519531 C 265.007812 15.519531 266.101562 15.957031 267.070312 15.957031 C 268.507812 15.957031 269.289062 14.425781 269.351562 14.300781 C 269.632812 15.082031 270.414062 15.957031 271.726562 15.957031 C 273.945312 15.957031 275.195312 13.144531 275.195312 12.582031 C 275.195312 12.363281 275.007812 12.363281 274.945312 12.363281 C 274.757812 12.363281 274.695312 12.457031 274.664062 12.613281 C 273.945312 14.957031 272.445312 15.457031 271.757812 15.457031 C 270.914062 15.457031 270.570312 14.769531 270.570312 14.019531 C 270.570312 13.550781 270.695312 13.082031 270.914062 12.113281 Z M 271.664062 9.113281 "/>
<path fill-rule="nonzero" fill="rgb(0%, 0%, 0%)" fill-opacity="1" d="M 11.519531 35.351562 C 11.519531 35.351562 11.519531 35.132812 11.238281 35.132812 C 10.925781 35.132812 8.832031 35.320312 8.457031 35.351562 C 8.300781 35.382812 8.175781 35.476562 8.175781 35.789062 C 8.175781 36.039062 8.363281 36.039062 8.675781 36.039062 C 9.738281 36.039062 9.769531 36.195312 9.769531 36.414062 L 9.707031 36.851562 L 8.394531 42.007812 C 8.019531 41.195312 7.394531 40.601562 6.394531 40.601562 C 3.832031 40.601562 1.144531 43.820312 1.144531 47.007812 C 1.144531 49.070312 2.332031 50.507812 4.050781 50.507812 C 4.488281 50.507812 5.582031 50.414062 6.863281 48.851562 C 7.050781 49.789062 7.832031 50.507812 8.863281 50.507812 C 9.613281 50.507812 10.113281 50.007812 10.488281 49.289062 C 10.863281 48.507812 11.144531 47.195312 11.144531 47.132812 C 11.144531 46.914062 10.925781 46.914062 10.863281 46.914062 C 10.644531 46.914062 10.644531 47.007812 10.550781 47.320312 C 10.207031 48.726562 9.800781 50.007812 8.894531 50.007812 C 8.332031 50.007812 8.238281 49.445312 8.238281 49.007812 C 8.238281 48.476562 8.300781 48.351562 8.394531 47.976562 Z M 6.988281 47.664062 C 6.863281 48.070312 6.863281 48.101562 6.550781 48.476562 C 5.582031 49.664062 4.707031 50.007812 4.082031 50.007812 C 2.988281 50.007812 2.675781 48.820312 2.675781 47.976562 C 2.675781 46.882812 3.394531 44.195312 3.894531 43.195312 C 4.582031 41.914062 5.550781 41.101562 6.425781 41.101562 C 7.832031 41.101562 8.144531 42.882812 8.144531 43.007812 C 8.144531 43.132812 8.113281 43.289062 8.082031 43.382812 Z M 6.988281 47.664062 "/>
<path fill-rule="nonzero" fill="rgb(0%, 0%, 0%)" fill-opacity="1" d="M 18.832031 43.664062 C 18.957031 43.101562 19.457031 41.101562 20.988281 41.101562 C 21.113281 41.101562 21.613281 41.101562 22.082031 41.382812 C 21.488281 41.476562 21.050781 42.039062 21.050781 42.570312 C 21.050781 42.914062 21.269531 43.320312 21.863281 43.320312 C 22.363281 43.320312 23.050781 42.914062 23.050781 42.070312 C 23.050781 40.914062 21.769531 40.601562 21.019531 40.601562 C 19.738281 40.601562 18.988281 41.757812 18.738281 42.289062 C 18.175781 40.820312 16.988281 40.601562 16.363281 40.601562 C 14.113281 40.601562 12.863281 43.445312 12.863281 43.976562 C 12.863281 44.195312 13.082031 44.195312 13.113281 44.195312 C 13.300781 44.195312 13.363281 44.164062 13.394531 43.945312 C 14.144531 41.632812 15.582031 41.101562 16.332031 41.101562 C 16.738281 41.101562 17.519531 41.289062 17.519531 42.570312 C 17.519531 43.226562 17.144531 44.695312 16.332031 47.757812 C 15.988281 49.101562 15.207031 50.007812 14.269531 50.007812 C 14.113281 50.007812 13.613281 50.007812 13.175781 49.726562 C 13.707031 49.632812 14.175781 49.164062 14.175781 48.570312 C 14.175781 47.976562 13.707031 47.789062 13.394531 47.789062 C 12.738281 47.789062 12.175781 48.351562 12.175781 49.070312 C 12.175781 50.070312 13.269531 50.507812 14.238281 50.507812 C 15.675781 50.507812 16.457031 48.976562 16.519531 48.851562 C 16.800781 49.632812 17.582031 50.507812 18.894531 50.507812 C 21.113281 50.507812 22.363281 47.695312 22.363281 47.132812 C 22.363281 46.914062 22.175781 46.914062 22.113281 46.914062 C 21.925781 46.914062 21.863281 47.007812 21.832031 47.164062 C 21.113281 49.507812 19.613281 50.007812 18.925781 50.007812 C 18.082031 50.007812 17.738281 49.320312 17.738281 48.570312 C 17.738281 48.101562 17.863281 47.632812 18.082031 46.664062 Z M 18.832031 43.664062 "/>
<path fill-rule="nonzero" fill="rgb(0%, 0%, 0%)" fill-opacity="1" d="M 264.351562 283.863281 C 264.351562 283.863281 264.351562 283.644531 264.070312 283.644531 C 263.757812 283.644531 261.664062 283.832031 261.289062 283.863281 C 261.132812 283.894531 261.007812 283.988281 261.007812 284.300781 C 261.007812 284.550781 261.195312 284.550781 261.507812 284.550781 C 262.570312 284.550781 262.601562 284.707031 262.601562 284.925781 L 262.539062 285.363281 L 261.226562 290.519531 C 260.851562 289.707031 260.226562 289.113281 259.226562 289.113281 C 256.664062 289.113281 253.976562 292.332031 253.976562 295.519531 C 253.976562 297.582031 255.164062 299.019531 256.882812 299.019531 C 257.320312 299.019531 258.414062 298.925781 259.695312 297.363281 C 259.882812 298.300781 260.664062 299.019531 261.695312 299.019531 C 262.445312 299.019531 262.945312 298.519531 263.320312 297.800781 C 263.695312 297.019531 263.976562 295.707031 263.976562 295.644531 C 263.976562 295.425781 263.757812 295.425781 263.695312 295.425781 C 263.476562 295.425781 263.476562 295.519531 263.382812 295.832031 C 263.039062 297.238281 262.632812 298.519531 261.726562 298.519531 C 261.164062 298.519531 261.070312 297.957031 261.070312 297.519531 C 261.070312 296.988281 261.132812 296.863281 261.226562 296.488281 Z M 259.820312 296.175781 C 259.695312 296.582031 259.695312 296.613281 259.382812 296.988281 C 258.414062 298.175781 257.539062 298.519531 256.914062 298.519531 C 255.820312 298.519531 255.507812 297.332031 255.507812 296.488281 C 255.507812 295.394531 256.226562 292.707031 256.726562 291.707031 C 257.414062 290.425781 258.382812 289.613281 259.257812 289.613281 C 260.664062 289.613281 260.976562 291.394531 260.976562 291.519531 C 260.976562 291.644531 260.945312 291.800781 260.914062 291.894531 Z M 259.820312 296.175781 "/>
<path fill-rule="nonzero" fill="rgb(0%, 0%, 0%)" fill-opacity="1" d="M 271.664062 292.175781 C 271.789062 291.613281 272.289062 289.613281 273.820312 289.613281 C 273.945312 289.613281 274.445312 289.613281 274.914062 289.894531 C 274.320312 289.988281 273.882812 290.550781 273.882812 291.082031 C 273.882812 291.425781 274.101562 291.832031 274.695312 291.832031 C 275.195312 291.832031 275.882812 291.425781 275.882812 290.582031 C 275.882812 289.425781 274.601562 289.113281 273.851562 289.113281 C 272.570312 289.113281 271.820312 290.269531 271.570312 290.800781 C 271.007812 289.332031 269.820312 289.113281 269.195312 289.113281 C 266.945312 289.113281 265.695312 291.957031 265.695312 292.488281 C 265.695312 292.707031 265.914062 292.707031 265.945312 292.707031 C 266.132812 292.707031 266.195312 292.675781 266.226562 292.457031 C 266.976562 290.144531 268.414062 289.613281 269.164062 289.613281 C 269.570312 289.613281 270.351562 289.800781 270.351562 291.082031 C 270.351562 291.738281 269.976562 293.207031 269.164062 296.269531 C 268.820312 297.613281 268.039062 298.519531 267.101562 298.519531 C 266.945312 298.519531 266.445312 298.519531 266.007812 298.238281 C 266.539062 298.144531 267.007812 297.675781 267.007812 297.082031 C 267.007812 296.488281 266.539062 296.300781 266.226562 296.300781 C 265.570312 296.300781 265.007812 296.863281 265.007812 297.582031 C 265.007812 298.582031 266.101562 299.019531 267.070312 299.019531 C 268.507812 299.019531 269.289062 297.488281 269.351562 297.363281 C 269.632812 298.144531 270.414062 299.019531 271.726562 299.019531 C 273.945312 299.019531 275.195312 296.207031 275.195312 295.644531 C 275.195312 295.425781 275.007812 295.425781 274.945312 295.425781 C 274.757812 295.425781 274.695312 295.519531 274.664062 295.675781 C 273.945312 298.019531 272.445312 298.519531 271.757812 298.519531 C 270.914062 298.519531 270.570312 297.832031 270.570312 297.082031 C 270.570312 296.613281 270.695312 296.144531 270.914062 295.175781 Z M 271.664062 292.175781 "/>
<path fill-rule="nonzero" fill="rgb(0%, 0%, 0%)" fill-opacity="1" d="M 119.839844 340.269531 C 121.027344 339.863281 123.027344 339.269531 123.027344 337.332031 C 123.027344 335.019531 120.308594 333.957031 118.339844 333.957031 C 117.402344 333.957031 116.433594 334.175781 115.589844 334.675781 C 115.464844 334.738281 115.308594 334.925781 115.152344 334.925781 C 114.839844 334.925781 114.277344 333.957031 113.964844 333.957031 C 113.777344 333.957031 113.746094 334.175781 113.746094 334.269531 L 113.746094 337.832031 C 113.746094 337.957031 113.839844 338.113281 114.027344 338.113281 C 114.339844 338.113281 114.308594 337.488281 114.402344 337.144531 C 114.871094 335.425781 116.433594 334.675781 117.933594 334.582031 L 118.339844 334.582031 C 119.683594 334.582031 121.246094 335.457031 121.246094 337.332031 C 121.246094 339.144531 119.464844 340.082031 117.808594 340.082031 C 117.496094 340.082031 117.183594 340.082031 116.871094 340.082031 L 116.714844 340.082031 C 116.527344 340.082031 116.308594 340.082031 116.308594 340.300781 L 116.308594 340.332031 C 116.339844 340.519531 116.527344 340.550781 116.714844 340.550781 L 118.558594 340.550781 C 120.121094 340.675781 121.558594 341.707031 121.714844 343.332031 L 121.714844 343.550781 C 121.714844 345.394531 119.996094 346.550781 118.246094 346.550781 C 116.339844 346.550781 114.371094 345.925781 114.058594 343.550781 C 114.058594 343.394531 113.996094 343.207031 113.777344 343.207031 C 113.558594 343.238281 113.527344 343.394531 113.527344 343.550781 C 113.527344 346.144531 116.121094 347.175781 118.371094 347.175781 C 120.433594 347.175781 123.308594 346.207031 123.558594 343.738281 L 123.558594 343.613281 C 123.558594 341.644531 121.496094 340.675781 119.839844 340.269531 Z M 119.839844 340.269531 "/>
<path fill-rule="nonzero" fill="rgb(0%, 0%, 0%)" fill-opacity="1" d="M 131.933594 333.957031 C 128.558594 334.363281 125.871094 337.019531 125.871094 340.613281 C 125.871094 343.894531 128.464844 347.144531 132.339844 347.144531 C 135.839844 347.144531 138.808594 344.238281 138.808594 340.613281 C 138.808594 337.425781 136.308594 333.957031 132.371094 333.957031 C 132.246094 333.957031 132.089844 333.957031 131.933594 333.957031 Z M 127.746094 340.832031 L 127.746094 340.488281 C 127.746094 337.988281 128.652344 335.050781 131.808594 334.519531 C 131.996094 334.488281 132.152344 334.488281 132.339844 334.488281 C 135.152344 334.488281 136.902344 337.207031 136.902344 340.238281 C 136.902344 342.644531 136.183594 345.707031 133.214844 346.488281 C 132.933594 346.550781 132.652344 346.582031 132.371094 346.582031 L 132.183594 346.582031 C 129.589844 346.488281 128.183594 344.019531 127.839844 341.613281 Z M 127.746094 340.832031 "/>
<path fill-rule="nonzero" fill="rgb(0%, 0%, 0%)" fill-opacity="1" d="M 141.265625 334.300781 L 141.265625 334.894531 L 141.703125 334.894531 C 142.296875 334.894531 142.921875 334.988281 142.921875 335.863281 L 142.921875 345.332031 C 142.921875 346.175781 142.203125 346.207031 141.546875 346.207031 L 141.265625 346.207031 L 141.265625 346.800781 L 147.046875 346.800781 C 147.453125 346.800781 147.828125 346.832031 148.234375 346.832031 C 150.234375 346.832031 152.578125 345.894531 152.796875 343.488281 L 152.796875 343.300781 C 152.796875 340.769531 149.921875 339.738281 148.015625 339.738281 C 146.765625 339.738281 145.578125 339.863281 144.390625 339.957031 L 144.390625 335.738281 C 144.390625 335.300781 144.453125 334.894531 145.234375 334.894531 L 147.546875 334.894531 C 148.515625 334.894531 149.609375 334.957031 150.328125 335.675781 C 151.015625 336.394531 151.109375 337.613281 151.203125 338.550781 L 151.734375 338.550781 L 151.265625 334.300781 Z M 144.390625 340.582031 C 144.640625 340.582031 144.890625 340.519531 145.140625 340.488281 L 146.515625 340.425781 C 146.796875 340.394531 147.078125 340.363281 147.390625 340.363281 C 148.953125 340.363281 150.921875 341.363281 150.921875 343.207031 C 150.921875 344.957031 149.578125 346.238281 147.578125 346.238281 C 147.296875 346.238281 146.984375 346.207031 146.734375 346.207031 L 145.203125 346.207031 C 144.734375 346.207031 144.484375 346.175781 144.390625 345.550781 Z M 144.390625 340.582031 "/>
<path fill-rule="nonzero" fill="rgb(0%, 0%, 0%)" fill-opacity="1" d="M 155.144531 334.300781 L 155.144531 334.894531 L 155.613281 334.894531 C 156.207031 334.894531 156.800781 334.988281 156.800781 335.863281 L 156.800781 345.332031 C 156.800781 346.175781 156.113281 346.207031 155.425781 346.207031 L 155.144531 346.207031 L 155.144531 346.800781 L 160.050781 346.800781 L 160.050781 346.207031 L 159.613281 346.207031 C 158.988281 346.207031 158.394531 346.144531 158.394531 345.269531 L 158.394531 341.082031 L 162.113281 341.082031 C 163.894531 340.957031 166.175781 339.769531 166.175781 337.738281 C 166.175781 335.519531 163.832031 334.457031 161.925781 334.300781 Z M 158.363281 340.550781 L 158.363281 335.550781 C 158.457031 334.957031 158.707031 334.894531 159.113281 334.894531 L 160.550781 334.894531 C 162.175781 334.894531 164.300781 334.957031 164.300781 337.738281 C 164.300781 338.394531 164.207031 339.082031 163.800781 339.582031 C 163.144531 340.363281 162.050781 340.550781 161.082031 340.550781 Z M 158.363281 340.550781 "/>
<path fill-rule="nonzero" fill="rgb(0%, 0%, 0%)" fill-opacity="1" d="M 170.875 344.519531 C 170.375 344.613281 169.875 345.050781 169.875 345.644531 C 169.875 346.269531 170.40625 346.800781 171.03125 346.800781 C 171.65625 346.800781 172.21875 346.332031 172.21875 345.675781 C 172.21875 345.050781 171.6875 344.488281 171.0625 344.488281 C 171 344.488281 170.9375 344.519531 170.875 344.519531 Z M 170.875 344.519531 "/>
<path fill-rule="nonzero" fill="rgb(0%, 0%, 0%)" fill-opacity="1" d="M 185.773438 334.300781 C 186.179688 332.738281 187.585938 331.613281 189.210938 331.613281 C 191.460938 331.613281 192.710938 333.582031 192.710938 335.519531 C 192.710938 337.207031 191.773438 338.707031 190.742188 339.957031 C 189.054688 342.050781 187.023438 343.925781 185.242188 345.894531 C 185.085938 346.082031 184.929688 346.238281 184.929688 346.488281 C 184.929688 346.582031 184.960938 346.707031 184.960938 346.800781 L 194.085938 346.800781 L 194.710938 342.800781 L 194.179688 342.800781 C 193.992188 343.769531 194.054688 345.050781 193.054688 345.050781 C 192.835938 345.082031 192.648438 345.082031 192.460938 345.082031 L 191.867188 345.082031 C 191.523438 345.113281 191.148438 345.113281 190.835938 345.113281 L 186.679688 345.113281 C 188.179688 343.613281 189.804688 342.144531 191.429688 340.769531 C 192.960938 339.457031 194.554688 337.925781 194.710938 335.800781 L 194.710938 335.488281 C 194.710938 332.769531 192.367188 330.925781 189.523438 330.925781 C 187.179688 330.925781 184.960938 332.832031 184.960938 335.269531 C 184.960938 336.082031 185.429688 336.550781 186.117188 336.550781 C 186.742188 336.550781 187.242188 336.082031 187.242188 335.394531 C 187.242188 334.769531 186.773438 334.269531 186.054688 334.269531 C 185.960938 334.269531 185.867188 334.269531 185.773438 334.300781 Z M 185.773438 334.300781 "/>
<path fill-rule="nonzero" fill="rgb(0%, 0%, 0%)" fill-opacity="1" d="M 199.671875 344.519531 C 199.171875 344.613281 198.671875 345.050781 198.671875 345.644531 C 198.671875 346.269531 199.203125 346.800781 199.828125 346.800781 C 200.453125 346.800781 201.015625 346.332031 201.015625 345.675781 C 201.015625 345.050781 200.484375 344.488281 199.859375 344.488281 C 199.796875 344.488281 199.734375 344.519531 199.671875 344.519531 Z M 199.671875 344.519531 "/>
</svg>
