<?xml version="1.0" encoding="UTF-8"?>
<svg xmlns="http://www.w3.org/2000/svg" xmlns:xlink="http://www.w3.org/1999/xlink" width="380" height="442" viewBox="0 0 380 442">
<path fill="none" stroke-width="11.9553" stroke-linecap="butt" stroke-linejoin="miter" stroke="rgb(0%, 0%, 0%)" stroke-opacity="1" stroke-miterlimit="10" d="M 0 481.601555 L 1800.039036 481.601555 " transform="matrix(0.2, 0, 0, -0.2, 0, 442)"/>
<path fill-rule="nonzero" fill="rgb(0%, 0%, 0%)" fill-opacity="1" d="M 20.453125 362.777344 C 20.828125 362.777344 21.203125 362.777344 21.203125 362.371094 C 21.203125 361.933594 20.828125 361.933594 20.453125 361.933594 L 8.640625 361.933594 C 8.265625 361.933594 7.890625 361.933594 7.890625 362.371094 C 7.890625 362.777344 8.265625 362.777344 8.640625 362.777344 Z M 20.453125 362.777344 "/>
<path fill-rule="nonzero" fill="rgb(0%, 0%, 0%)" fill-opacity="1" d="M 29.433594 360.121094 C 31.246094 359.527344 32.496094 358.027344 32.496094 356.277344 C 32.496094 354.496094 30.589844 353.277344 28.496094 353.277344 C 26.277344 353.277344 24.621094 354.589844 24.621094 356.246094 C 24.621094 356.964844 25.121094 357.371094 25.746094 357.371094 C 26.402344 357.371094 26.839844 356.902344 26.839844 356.277344 C 26.839844 355.183594 25.839844 355.183594 25.496094 355.183594 C 26.183594 354.121094 27.621094 353.839844 28.402344 353.839844 C 29.308594 353.839844 30.496094 354.308594 30.496094 356.277344 C 30.496094 356.527344 30.464844 357.808594 29.871094 358.746094 C 29.214844 359.808594 28.496094 359.871094 27.933594 359.902344 C 27.777344 359.902344 27.246094 359.964844 27.089844 359.964844 C 26.902344 359.964844 26.777344 359.996094 26.777344 360.214844 C 26.777344 360.464844 26.902344 360.464844 27.277344 360.464844 L 28.246094 360.464844 C 30.027344 360.464844 30.839844 361.933594 30.839844 364.089844 C 30.839844 367.058594 29.339844 367.683594 28.371094 367.683594 C 27.433594 367.683594 25.808594 367.308594 25.027344 366.027344 C 25.808594 366.121094 26.464844 365.652344 26.464844 364.808594 C 26.464844 364.027344 25.902344 363.589844 25.246094 363.589844 C 24.746094 363.589844 24.027344 363.902344 24.027344 364.871094 C 24.027344 366.839844 26.058594 368.277344 28.433594 368.277344 C 31.089844 368.277344 33.089844 366.308594 33.089844 364.089844 C 33.089844 362.277344 31.714844 360.589844 29.433594 360.121094 Z M 29.433594 360.121094 "/>
<path fill-rule="nonzero" fill="rgb(0%, 0%, 0%)" fill-opacity="1" d="M 60.457031 362.777344 C 60.832031 362.777344 61.207031 362.777344 61.207031 362.371094 C 61.207031 361.933594 60.832031 361.933594 60.457031 361.933594 L 48.644531 361.933594 C 48.269531 361.933594 47.894531 361.933594 47.894531 362.371094 C 47.894531 362.777344 48.269531 362.777344 48.644531 362.777344 Z M 60.457031 362.777344 "/>
<path fill-rule="nonzero" fill="rgb(0%, 0%, 0%)" fill-opacity="1" d="M 65.902344 366.121094 L 68.214844 363.871094 C 71.621094 360.871094 72.902344 359.683594 72.902344 357.527344 C 72.902344 355.027344 70.964844 353.277344 68.277344 353.277344 C 65.839844 353.277344 64.214844 355.277344 64.214844 357.214844 C 64.214844 358.464844 65.308594 358.464844 65.371094 358.464844 C 65.746094 358.464844 66.496094 358.183594 66.496094 357.308594 C 66.496094 356.714844 66.121094 356.152344 65.339844 356.152344 C 65.183594 356.152344 65.121094 356.152344 65.058594 356.183594 C 65.558594 354.777344 66.746094 353.964844 67.996094 353.964844 C 69.996094 353.964844 70.933594 355.714844 70.933594 357.527344 C 70.933594 359.246094 69.839844 360.996094 68.652344 362.339844 L 64.464844 366.996094 C 64.214844 367.246094 64.214844 367.277344 64.214844 367.808594 L 72.308594 367.808594 L 72.902344 364.027344 L 72.371094 364.027344 C 72.246094 364.652344 72.121094 365.621094 71.902344 365.964844 C 71.746094 366.121094 70.308594 366.121094 69.808594 366.121094 Z M 65.902344 366.121094 "/>
<path fill-rule="nonzero" fill="rgb(0%, 0%, 0%)" fill-opacity="1" d="M 100.457031 362.777344 C 100.832031 362.777344 101.207031 362.777344 101.207031 362.371094 C 101.207031 361.933594 100.832031 361.933594 100.457031 361.933594 L 88.644531 361.933594 C 88.269531 361.933594 87.894531 361.933594 87.894531 362.371094 C 87.894531 362.777344 88.269531 362.777344 88.644531 362.777344 Z M 100.457031 362.777344 "/>
<path fill-rule="nonzero" fill="rgb(0%, 0%, 0%)" fill-opacity="1" d="M 109.527344 353.839844 C 109.527344 353.339844 109.527344 353.277344 109.027344 353.277344 C 107.683594 354.683594 105.746094 354.683594 105.058594 354.683594 L 105.058594 355.339844 C 105.496094 355.339844 106.777344 355.339844 107.933594 354.777344 L 107.933594 366.089844 C 107.933594 366.871094 107.839844 367.121094 105.902344 367.121094 L 105.183594 367.121094 L 105.183594 367.808594 C 105.964844 367.746094 107.839844 367.746094 108.714844 367.746094 C 109.589844 367.746094 111.496094 367.746094 112.246094 367.808594 L 112.246094 367.121094 L 111.558594 367.121094 C 109.589844 367.121094 109.527344 366.902344 109.527344 366.089844 Z M 109.527344 353.839844 "/>
<path fill-rule="nonzero" fill="rgb(0%, 0%, 0%)" fill-opacity="1" d="M 144.515625 360.839844 C 144.515625 359.089844 144.421875 357.339844 143.640625 355.714844 C 142.640625 353.621094 140.859375 353.277344 139.921875 353.277344 C 138.640625 353.277344 137.046875 353.839844 136.140625 355.871094 C 135.453125 357.371094 135.328125 359.089844 135.328125 360.839844 C 135.328125 362.464844 135.421875 364.433594 136.328125 366.089844 C 137.265625 367.839844 138.859375 368.277344 139.921875 368.277344 C 141.078125 368.277344 142.765625 367.839844 143.703125 365.746094 C 144.421875 364.246094 144.515625 362.558594 144.515625 360.839844 Z M 139.921875 367.808594 C 139.078125 367.808594 137.765625 367.277344 137.390625 365.183594 C 137.140625 363.871094 137.140625 361.839844 137.140625 360.558594 C 137.140625 359.183594 137.140625 357.746094 137.328125 356.558594 C 137.734375 353.964844 139.359375 353.746094 139.921875 353.746094 C 140.640625 353.746094 142.078125 354.152344 142.484375 356.308594 C 142.703125 357.527344 142.703125 359.183594 142.703125 360.558594 C 142.703125 362.214844 142.703125 363.683594 142.453125 365.089844 C 142.140625 367.152344 140.890625 367.808594 139.921875 367.808594 Z M 139.921875 367.808594 "/>
<path fill-rule="nonzero" fill="rgb(0%, 0%, 0%)" fill-opacity="1" d="M 180.886719 353.839844 C 180.886719 353.339844 180.886719 353.277344 180.386719 353.277344 C 179.042969 354.683594 177.105469 354.683594 176.417969 354.683594 L 176.417969 355.339844 C 176.855469 355.339844 178.136719 355.339844 179.292969 354.777344 L 179.292969 366.089844 C 179.292969 366.871094 179.199219 367.121094 177.261719 367.121094 L 176.542969 367.121094 L 176.542969 367.808594 C 177.324219 367.746094 179.199219 367.746094 180.074219 367.746094 C 180.949219 367.746094 182.855469 367.746094 183.605469 367.808594 L 183.605469 367.121094 L 182.917969 367.121094 C 180.949219 367.121094 180.886719 366.902344 180.886719 366.089844 Z M 180.886719 353.839844 "/>
<path fill-rule="nonzero" fill="rgb(0%, 0%, 0%)" fill-opacity="1" d="M 217.265625 366.121094 L 219.578125 363.871094 C 222.984375 360.871094 224.265625 359.683594 224.265625 357.527344 C 224.265625 355.027344 222.328125 353.277344 219.640625 353.277344 C 217.203125 353.277344 215.578125 355.277344 215.578125 357.214844 C 215.578125 358.464844 216.671875 358.464844 216.734375 358.464844 C 217.109375 358.464844 217.859375 358.183594 217.859375 357.308594 C 217.859375 356.714844 217.484375 356.152344 216.703125 356.152344 C 216.546875 356.152344 216.484375 356.152344 216.421875 356.183594 C 216.921875 354.777344 218.109375 353.964844 219.359375 353.964844 C 221.359375 353.964844 222.296875 355.714844 222.296875 357.527344 C 222.296875 359.246094 221.203125 360.996094 220.015625 362.339844 L 215.828125 366.996094 C 215.578125 367.246094 215.578125 367.277344 215.578125 367.808594 L 223.671875 367.808594 L 224.265625 364.027344 L 223.734375 364.027344 C 223.609375 364.652344 223.484375 365.621094 223.265625 365.964844 C 223.109375 366.121094 221.671875 366.121094 221.171875 366.121094 Z M 217.265625 366.121094 "/>
<path fill-rule="nonzero" fill="rgb(0%, 0%, 0%)" fill-opacity="1" d="M 260.796875 360.121094 C 262.609375 359.527344 263.859375 358.027344 263.859375 356.277344 C 263.859375 354.496094 261.953125 353.277344 259.859375 353.277344 C 257.640625 353.277344 255.984375 354.589844 255.984375 356.246094 C 255.984375 356.964844 256.484375 357.371094 257.109375 357.371094 C 257.765625 357.371094 258.203125 356.902344 258.203125 356.277344 C 258.203125 355.183594 257.203125 355.183594 256.859375 355.183594 C 257.546875 354.121094 258.984375 353.839844 259.765625 353.839844 C 260.671875 353.839844 261.859375 354.308594 261.859375 356.277344 C 261.859375 356.527344 261.828125 357.808594 261.234375 358.746094 C 260.578125 359.808594 259.859375 359.871094 259.296875 359.902344 C 259.140625 359.902344 258.609375 359.964844 258.453125 359.964844 C 258.265625 359.964844 258.140625 359.996094 258.140625 360.214844 C 258.140625 360.464844 258.265625 360.464844 258.640625 360.464844 L 259.609375 360.464844 C 261.390625 360.464844 262.203125 361.933594 262.203125 364.089844 C 262.203125 367.058594 260.703125 367.683594 259.734375 367.683594 C 258.796875 367.683594 257.171875 367.308594 256.390625 366.027344 C 257.171875 366.121094 257.828125 365.652344 257.828125 364.808594 C 257.828125 364.027344 257.265625 363.589844 256.609375 363.589844 C 256.109375 363.589844 255.390625 363.902344 255.390625 364.871094 C 255.390625 366.839844 257.421875 368.277344 259.796875 368.277344 C 262.453125 368.277344 264.453125 366.308594 264.453125 364.089844 C 264.453125 362.277344 263.078125 360.589844 260.796875 360.121094 Z M 260.796875 360.121094 "/>
<path fill-rule="nonzero" fill="rgb(0%, 0%, 0%)" fill-opacity="1" d="M 300.890625 364.214844 L 300.890625 366.121094 C 300.890625 366.902344 300.859375 367.121094 299.234375 367.121094 L 298.796875 367.121094 L 298.796875 367.808594 C 299.671875 367.746094 300.796875 367.746094 301.734375 367.746094 C 302.640625 367.746094 303.796875 367.746094 304.703125 367.808594 L 304.703125 367.121094 L 304.234375 367.121094 C 302.609375 367.121094 302.578125 366.902344 302.578125 366.121094 L 302.578125 364.214844 L 304.765625 364.214844 L 304.765625 363.527344 L 302.578125 363.527344 L 302.578125 353.621094 C 302.578125 353.183594 302.578125 353.027344 302.234375 353.027344 C 302.046875 353.027344 301.953125 353.027344 301.796875 353.308594 L 295.109375 363.527344 L 295.109375 364.214844 Z M 301.015625 363.527344 L 295.703125 363.527344 L 301.015625 355.402344 Z M 301.015625 363.527344 "/>
<path fill-rule="nonzero" fill="rgb(0%, 0%, 0%)" fill-opacity="1" d="M 344.265625 363.433594 C 344.265625 360.839844 342.484375 358.652344 340.140625 358.652344 C 339.078125 358.652344 338.140625 358.996094 337.359375 359.746094 L 337.359375 355.496094 C 337.796875 355.652344 338.515625 355.777344 339.203125 355.777344 C 341.890625 355.777344 343.421875 353.808594 343.421875 353.527344 C 343.421875 353.402344 343.359375 353.277344 343.203125 353.277344 C 343.203125 353.277344 343.140625 353.277344 343.046875 353.339844 C 342.609375 353.558594 341.515625 353.964844 340.078125 353.964844 C 339.203125 353.964844 338.203125 353.839844 337.171875 353.371094 C 336.984375 353.308594 336.953125 353.308594 336.890625 353.308594 C 336.671875 353.308594 336.671875 353.464844 336.671875 353.839844 L 336.671875 360.277344 C 336.671875 360.683594 336.671875 360.839844 336.984375 360.839844 C 337.140625 360.839844 337.203125 360.777344 337.265625 360.652344 C 337.515625 360.308594 338.328125 359.121094 340.078125 359.121094 C 341.234375 359.121094 341.765625 360.121094 341.953125 360.527344 C 342.296875 361.339844 342.328125 362.183594 342.328125 363.277344 C 342.328125 364.027344 342.328125 365.339844 341.828125 366.246094 C 341.296875 367.121094 340.484375 367.683594 339.484375 367.683594 C 337.890625 367.683594 336.640625 366.527344 336.265625 365.246094 C 336.328125 365.246094 336.390625 365.277344 336.640625 365.277344 C 337.359375 365.277344 337.734375 364.746094 337.734375 364.214844 C 337.734375 363.683594 337.359375 363.152344 336.640625 363.152344 C 336.328125 363.152344 335.578125 363.308594 335.578125 364.308594 C 335.578125 366.183594 337.078125 368.277344 339.515625 368.277344 C 342.046875 368.277344 344.265625 366.183594 344.265625 363.433594 Z M 344.265625 363.433594 "/>
<path fill="none" stroke-width="11.9553" stroke-linecap="butt" stroke-linejoin="miter" stroke="rgb(0%, 0%, 0%)" stroke-opacity="1" stroke-miterlimit="10" d="M 699.99999 481.601555 L 699.99999 2024.453095 " transform="matrix(0.2, 0, 0, -0.2, 0, 442)"/>
<path fill-rule="nonzero" fill="rgb(0%, 0%, 0%)" fill-opacity="1" d="M 127.976562 344.984375 L 151.976562 344.984375 L 151.976562 346.1875 L 127.976562 346.1875 Z M 127.976562 344.984375 "/>
<path fill-rule="nonzero" fill="rgb(0%, 0%, 0%)" fill-opacity="1" d="M 127.976562 267.835938 L 151.976562 267.835938 L 151.976562 269.039062 L 127.976562 269.039062 Z M 127.976562 267.835938 "/>
<path fill-rule="nonzero" fill="rgb(0%, 0%, 0%)" fill-opacity="1" d="M 127.976562 190.695312 L 151.976562 190.695312 L 151.976562 191.898438 L 127.976562 191.898438 Z M 127.976562 190.695312 "/>
<path fill-rule="nonzero" fill="rgb(0%, 0%, 0%)" fill-opacity="1" d="M 127.976562 113.554688 L 151.976562 113.554688 L 151.976562 114.757812 L 127.976562 114.757812 Z M 127.976562 113.554688 "/>
<path fill-rule="nonzero" fill="rgb(0%, 0%, 0%)" fill-opacity="1" d="M 127.976562 36.40625 L 151.976562 36.40625 L 151.976562 37.609375 L 127.976562 37.609375 Z M 127.976562 36.40625 "/>
<path fill-rule="nonzero" fill="rgb(0%, 0%, 0%)" fill-opacity="1" d="M 133.976562 344.984375 L 145.976562 344.984375 L 145.976562 346.1875 L 133.976562 346.1875 Z M 133.976562 344.984375 "/>
<path fill-rule="nonzero" fill="rgb(0%, 0%, 0%)" fill-opacity="1" d="M 133.976562 329.554688 L 145.976562 329.554688 L 145.976562 330.757812 L 133.976562 330.757812 Z M 133.976562 329.554688 "/>
<path fill-rule="nonzero" fill="rgb(0%, 0%, 0%)" fill-opacity="1" d="M 133.976562 314.125 L 145.976562 314.125 L 145.976562 315.328125 L 133.976562 315.328125 Z M 133.976562 314.125 "/>
<path fill-rule="nonzero" fill="rgb(0%, 0%, 0%)" fill-opacity="1" d="M 133.976562 298.695312 L 145.976562 298.695312 L 145.976562 299.898438 L 133.976562 299.898438 Z M 133.976562 298.695312 "/>
<path fill-rule="nonzero" fill="rgb(0%, 0%, 0%)" fill-opacity="1" d="M 133.976562 283.265625 L 145.976562 283.265625 L 145.976562 284.46875 L 133.976562 284.46875 Z M 133.976562 283.265625 "/>
<path fill-rule="nonzero" fill="rgb(0%, 0%, 0%)" fill-opacity="1" d="M 133.976562 267.835938 L 145.976562 267.835938 L 145.976562 269.039062 L 133.976562 269.039062 Z M 133.976562 267.835938 "/>
<path fill-rule="nonzero" fill="rgb(0%, 0%, 0%)" fill-opacity="1" d="M 133.976562 252.414062 L 145.976562 252.414062 L 145.976562 253.617188 L 133.976562 253.617188 Z M 133.976562 252.414062 "/>
<path fill-rule="nonzero" fill="rgb(0%, 0%, 0%)" fill-opacity="1" d="M 133.976562 236.984375 L 145.976562 236.984375 L 145.976562 238.1875 L 133.976562 238.1875 Z M 133.976562 236.984375 "/>
<path fill-rule="nonzero" fill="rgb(0%, 0%, 0%)" fill-opacity="1" d="M 133.976562 221.554688 L 145.976562 221.554688 L 145.976562 222.757812 L 133.976562 222.757812 Z M 133.976562 221.554688 "/>
<path fill-rule="nonzero" fill="rgb(0%, 0%, 0%)" fill-opacity="1" d="M 133.976562 206.125 L 145.976562 206.125 L 145.976562 207.328125 L 133.976562 207.328125 Z M 133.976562 206.125 "/>
<path fill-rule="nonzero" fill="rgb(0%, 0%, 0%)" fill-opacity="1" d="M 133.976562 190.695312 L 145.976562 190.695312 L 145.976562 191.898438 L 133.976562 191.898438 Z M 133.976562 190.695312 "/>
<path fill-rule="nonzero" fill="rgb(0%, 0%, 0%)" fill-opacity="1" d="M 133.976562 175.265625 L 145.976562 175.265625 L 145.976562 176.46875 L 133.976562 176.46875 Z M 133.976562 175.265625 "/>
<path fill-rule="nonzero" fill="rgb(0%, 0%, 0%)" fill-opacity="1" d="M 133.976562 159.84375 L 145.976562 159.84375 L 145.976562 161.046875 L 133.976562 161.046875 Z M 133.976562 159.84375 "/>
<path fill-rule="nonzero" fill="rgb(0%, 0%, 0%)" fill-opacity="1" d="M 133.976562 144.40625 L 145.976562 144.40625 L 145.976562 145.609375 L 133.976562 145.609375 Z M 133.976562 144.40625 "/>
<path fill-rule="nonzero" fill="rgb(0%, 0%, 0%)" fill-opacity="1" d="M 133.976562 128.984375 L 145.976562 128.984375 L 145.976562 130.1875 L 133.976562 130.1875 Z M 133.976562 128.984375 "/>
<path fill-rule="nonzero" fill="rgb(0%, 0%, 0%)" fill-opacity="1" d="M 133.976562 113.554688 L 145.976562 113.554688 L 145.976562 114.757812 L 133.976562 114.757812 Z M 133.976562 113.554688 "/>
<path fill-rule="nonzero" fill="rgb(0%, 0%, 0%)" fill-opacity="1" d="M 133.976562 98.125 L 145.976562 98.125 L 145.976562 99.328125 L 133.976562 99.328125 Z M 133.976562 98.125 "/>
<path fill-rule="nonzero" fill="rgb(0%, 0%, 0%)" fill-opacity="1" d="M 133.976562 82.695312 L 145.976562 82.695312 L 145.976562 83.898438 L 133.976562 83.898438 Z M 133.976562 82.695312 "/>
<path fill-rule="nonzero" fill="rgb(0%, 0%, 0%)" fill-opacity="1" d="M 133.976562 67.265625 L 145.976562 67.265625 L 145.976562 68.46875 L 133.976562 68.46875 Z M 133.976562 67.265625 "/>
<path fill-rule="nonzero" fill="rgb(0%, 0%, 0%)" fill-opacity="1" d="M 133.976562 51.835938 L 145.976562 51.835938 L 145.976562 53.039062 L 133.976562 53.039062 Z M 133.976562 51.835938 "/>
<path fill-rule="nonzero" fill="rgb(0%, 0%, 0%)" fill-opacity="1" d="M 133.976562 36.40625 L 145.976562 36.40625 L 145.976562 37.609375 L 133.976562 37.609375 Z M 133.976562 36.40625 "/>
<path fill-rule="nonzero" fill="rgb(0%, 0%, 0%)" fill-opacity="1" d="M 112.003906 271.121094 C 112.003906 268.527344 110.222656 266.339844 107.878906 266.339844 C 106.816406 266.339844 105.878906 266.683594 105.097656 267.433594 L 105.097656 263.183594 C 105.535156 263.339844 106.253906 263.464844 106.941406 263.464844 C 109.628906 263.464844 111.160156 261.496094 111.160156 261.214844 C 111.160156 261.089844 111.097656 260.964844 110.941406 260.964844 C 110.941406 260.964844 110.878906 260.964844 110.785156 261.027344 C 110.347656 261.246094 109.253906 261.652344 107.816406 261.652344 C 106.941406 261.652344 105.941406 261.527344 104.910156 261.058594 C 104.722656 260.996094 104.691406 260.996094 104.628906 260.996094 C 104.410156 260.996094 104.410156 261.152344 104.410156 261.527344 L 104.410156 267.964844 C 104.410156 268.371094 104.410156 268.527344 104.722656 268.527344 C 104.878906 268.527344 104.941406 268.464844 105.003906 268.339844 C 105.253906 267.996094 106.066406 266.808594 107.816406 266.808594 C 108.972656 266.808594 109.503906 267.808594 109.691406 268.214844 C 110.035156 269.027344 110.066406 269.871094 110.066406 270.964844 C 110.066406 271.714844 110.066406 273.027344 109.566406 273.933594 C 109.035156 274.808594 108.222656 275.371094 107.222656 275.371094 C 105.628906 275.371094 104.378906 274.214844 104.003906 272.933594 C 104.066406 272.933594 104.128906 272.964844 104.378906 272.964844 C 105.097656 272.964844 105.472656 272.433594 105.472656 271.902344 C 105.472656 271.371094 105.097656 270.839844 104.378906 270.839844 C 104.066406 270.839844 103.316406 270.996094 103.316406 271.996094 C 103.316406 273.871094 104.816406 275.964844 107.253906 275.964844 C 109.785156 275.964844 112.003906 273.871094 112.003906 271.121094 Z M 112.003906 271.121094 "/>
<path fill-rule="nonzero" fill="rgb(0%, 0%, 0%)" fill-opacity="1" d="M 123.050781 268.527344 C 123.050781 266.777344 122.957031 265.027344 122.175781 263.402344 C 121.175781 261.308594 119.394531 260.964844 118.457031 260.964844 C 117.175781 260.964844 115.582031 261.527344 114.675781 263.558594 C 113.988281 265.058594 113.863281 266.777344 113.863281 268.527344 C 113.863281 270.152344 113.957031 272.121094 114.863281 273.777344 C 115.800781 275.527344 117.394531 275.964844 118.457031 275.964844 C 119.613281 275.964844 121.300781 275.527344 122.238281 273.433594 C 122.957031 271.933594 123.050781 270.246094 123.050781 268.527344 Z M 118.457031 275.496094 C 117.613281 275.496094 116.300781 274.964844 115.925781 272.871094 C 115.675781 271.558594 115.675781 269.527344 115.675781 268.246094 C 115.675781 266.871094 115.675781 265.433594 115.863281 264.246094 C 116.269531 261.652344 117.894531 261.433594 118.457031 261.433594 C 119.175781 261.433594 120.613281 261.839844 121.019531 263.996094 C 121.238281 265.214844 121.238281 266.871094 121.238281 268.246094 C 121.238281 269.902344 121.238281 271.371094 120.988281 272.777344 C 120.675781 274.839844 119.425781 275.496094 118.457031 275.496094 Z M 118.457031 275.496094 "/>
<path fill-rule="nonzero" fill="rgb(0%, 0%, 0%)" fill-opacity="1" d="M 97.828125 184.382812 C 97.828125 183.882812 97.828125 183.820312 97.328125 183.820312 C 95.984375 185.226562 94.046875 185.226562 93.359375 185.226562 L 93.359375 185.882812 C 93.796875 185.882812 95.078125 185.882812 96.234375 185.320312 L 96.234375 196.632812 C 96.234375 197.414062 96.140625 197.664062 94.203125 197.664062 L 93.484375 197.664062 L 93.484375 198.351562 C 94.265625 198.289062 96.140625 198.289062 97.015625 198.289062 C 97.890625 198.289062 99.796875 198.289062 100.546875 198.351562 L 100.546875 197.664062 L 99.859375 197.664062 C 97.890625 197.664062 97.828125 197.445312 97.828125 196.632812 Z M 97.828125 184.382812 "/>
<path fill-rule="nonzero" fill="rgb(0%, 0%, 0%)" fill-opacity="1" d="M 112.253906 191.382812 C 112.253906 189.632812 112.160156 187.882812 111.378906 186.257812 C 110.378906 184.164062 108.597656 183.820312 107.660156 183.820312 C 106.378906 183.820312 104.785156 184.382812 103.878906 186.414062 C 103.191406 187.914062 103.066406 189.632812 103.066406 191.382812 C 103.066406 193.007812 103.160156 194.976562 104.066406 196.632812 C 105.003906 198.382812 106.597656 198.820312 107.660156 198.820312 C 108.816406 198.820312 110.503906 198.382812 111.441406 196.289062 C 112.160156 194.789062 112.253906 193.101562 112.253906 191.382812 Z M 107.660156 198.351562 C 106.816406 198.351562 105.503906 197.820312 105.128906 195.726562 C 104.878906 194.414062 104.878906 192.382812 104.878906 191.101562 C 104.878906 189.726562 104.878906 188.289062 105.066406 187.101562 C 105.472656 184.507812 107.097656 184.289062 107.660156 184.289062 C 108.378906 184.289062 109.816406 184.695312 110.222656 186.851562 C 110.441406 188.070312 110.441406 189.726562 110.441406 191.101562 C 110.441406 192.757812 110.441406 194.226562 110.191406 195.632812 C 109.878906 197.695312 108.628906 198.351562 107.660156 198.351562 Z M 107.660156 198.351562 "/>
<path fill-rule="nonzero" fill="rgb(0%, 0%, 0%)" fill-opacity="1" d="M 123.050781 191.382812 C 123.050781 189.632812 122.957031 187.882812 122.175781 186.257812 C 121.175781 184.164062 119.394531 183.820312 118.457031 183.820312 C 117.175781 183.820312 115.582031 184.382812 114.675781 186.414062 C 113.988281 187.914062 113.863281 189.632812 113.863281 191.382812 C 113.863281 193.007812 113.957031 194.976562 114.863281 196.632812 C 115.800781 198.382812 117.394531 198.820312 118.457031 198.820312 C 119.613281 198.820312 121.300781 198.382812 122.238281 196.289062 C 122.957031 194.789062 123.050781 193.101562 123.050781 191.382812 Z M 118.457031 198.351562 C 117.613281 198.351562 116.300781 197.820312 115.925781 195.726562 C 115.675781 194.414062 115.675781 192.382812 115.675781 191.101562 C 115.675781 189.726562 115.675781 188.289062 115.863281 187.101562 C 116.269531 184.507812 117.894531 184.289062 118.457031 184.289062 C 119.175781 184.289062 120.613281 184.695312 121.019531 186.851562 C 121.238281 188.070312 121.238281 189.726562 121.238281 191.101562 C 121.238281 192.757812 121.238281 194.226562 120.988281 195.632812 C 120.675781 197.695312 119.425781 198.351562 118.457031 198.351562 Z M 118.457031 198.351562 "/>
<path fill-rule="nonzero" fill="rgb(0%, 0%, 0%)" fill-opacity="1" d="M 97.828125 107.238281 C 97.828125 106.738281 97.828125 106.675781 97.328125 106.675781 C 95.984375 108.082031 94.046875 108.082031 93.359375 108.082031 L 93.359375 108.738281 C 93.796875 108.738281 95.078125 108.738281 96.234375 108.175781 L 96.234375 119.488281 C 96.234375 120.269531 96.140625 120.519531 94.203125 120.519531 L 93.484375 120.519531 L 93.484375 121.207031 C 94.265625 121.144531 96.140625 121.144531 97.015625 121.144531 C 97.890625 121.144531 99.796875 121.144531 100.546875 121.207031 L 100.546875 120.519531 L 99.859375 120.519531 C 97.890625 120.519531 97.828125 120.300781 97.828125 119.488281 Z M 97.828125 107.238281 "/>
<path fill-rule="nonzero" fill="rgb(0%, 0%, 0%)" fill-opacity="1" d="M 112.003906 116.832031 C 112.003906 114.238281 110.222656 112.050781 107.878906 112.050781 C 106.816406 112.050781 105.878906 112.394531 105.097656 113.144531 L 105.097656 108.894531 C 105.535156 109.050781 106.253906 109.175781 106.941406 109.175781 C 109.628906 109.175781 111.160156 107.207031 111.160156 106.925781 C 111.160156 106.800781 111.097656 106.675781 110.941406 106.675781 C 110.941406 106.675781 110.878906 106.675781 110.785156 106.738281 C 110.347656 106.957031 109.253906 107.363281 107.816406 107.363281 C 106.941406 107.363281 105.941406 107.238281 104.910156 106.769531 C 104.722656 106.707031 104.691406 106.707031 104.628906 106.707031 C 104.410156 106.707031 104.410156 106.863281 104.410156 107.238281 L 104.410156 113.675781 C 104.410156 114.082031 104.410156 114.238281 104.722656 114.238281 C 104.878906 114.238281 104.941406 114.175781 105.003906 114.050781 C 105.253906 113.707031 106.066406 112.519531 107.816406 112.519531 C 108.972656 112.519531 109.503906 113.519531 109.691406 113.925781 C 110.035156 114.738281 110.066406 115.582031 110.066406 116.675781 C 110.066406 117.425781 110.066406 118.738281 109.566406 119.644531 C 109.035156 120.519531 108.222656 121.082031 107.222656 121.082031 C 105.628906 121.082031 104.378906 119.925781 104.003906 118.644531 C 104.066406 118.644531 104.128906 118.675781 104.378906 118.675781 C 105.097656 118.675781 105.472656 118.144531 105.472656 117.613281 C 105.472656 117.082031 105.097656 116.550781 104.378906 116.550781 C 104.066406 116.550781 103.316406 116.707031 103.316406 117.707031 C 103.316406 119.582031 104.816406 121.675781 107.253906 121.675781 C 109.785156 121.675781 112.003906 119.582031 112.003906 116.832031 Z M 112.003906 116.832031 "/>
<path fill-rule="nonzero" fill="rgb(0%, 0%, 0%)" fill-opacity="1" d="M 123.050781 114.238281 C 123.050781 112.488281 122.957031 110.738281 122.175781 109.113281 C 121.175781 107.019531 119.394531 106.675781 118.457031 106.675781 C 117.175781 106.675781 115.582031 107.238281 114.675781 109.269531 C 113.988281 110.769531 113.863281 112.488281 113.863281 114.238281 C 113.863281 115.863281 113.957031 117.832031 114.863281 119.488281 C 115.800781 121.238281 117.394531 121.675781 118.457031 121.675781 C 119.613281 121.675781 121.300781 121.238281 122.238281 119.144531 C 122.957031 117.644531 123.050781 115.957031 123.050781 114.238281 Z M 118.457031 121.207031 C 117.613281 121.207031 116.300781 120.675781 115.925781 118.582031 C 115.675781 117.269531 115.675781 115.238281 115.675781 113.957031 C 115.675781 112.582031 115.675781 111.144531 115.863281 109.957031 C 116.269531 107.363281 117.894531 107.144531 118.457031 107.144531 C 119.175781 107.144531 120.613281 107.550781 121.019531 109.707031 C 121.238281 110.925781 121.238281 112.582031 121.238281 113.957031 C 121.238281 115.613281 121.238281 117.082031 120.988281 118.488281 C 120.675781 120.550781 119.425781 121.207031 118.457031 121.207031 Z M 118.457031 121.207031 "/>
<path fill-rule="nonzero" fill="rgb(0%, 0%, 0%)" fill-opacity="1" d="M 94.203125 42.378906 L 96.515625 40.128906 C 99.921875 37.128906 101.203125 35.941406 101.203125 33.785156 C 101.203125 31.285156 99.265625 29.535156 96.578125 29.535156 C 94.140625 29.535156 92.515625 31.535156 92.515625 33.472656 C 92.515625 34.722656 93.609375 34.722656 93.671875 34.722656 C 94.046875 34.722656 94.796875 34.441406 94.796875 33.566406 C 94.796875 32.972656 94.421875 32.410156 93.640625 32.410156 C 93.484375 32.410156 93.421875 32.410156 93.359375 32.441406 C 93.859375 31.035156 95.046875 30.222656 96.296875 30.222656 C 98.296875 30.222656 99.234375 31.972656 99.234375 33.785156 C 99.234375 35.503906 98.140625 37.253906 96.953125 38.597656 L 92.765625 43.253906 C 92.515625 43.503906 92.515625 43.535156 92.515625 44.066406 L 100.609375 44.066406 L 101.203125 40.285156 L 100.671875 40.285156 C 100.546875 40.910156 100.421875 41.878906 100.203125 42.222656 C 100.046875 42.378906 98.609375 42.378906 98.109375 42.378906 Z M 94.203125 42.378906 "/>
<path fill-rule="nonzero" fill="rgb(0%, 0%, 0%)" fill-opacity="1" d="M 112.253906 37.097656 C 112.253906 35.347656 112.160156 33.597656 111.378906 31.972656 C 110.378906 29.878906 108.597656 29.535156 107.660156 29.535156 C 106.378906 29.535156 104.785156 30.097656 103.878906 32.128906 C 103.191406 33.628906 103.066406 35.347656 103.066406 37.097656 C 103.066406 38.722656 103.160156 40.691406 104.066406 42.347656 C 105.003906 44.097656 106.597656 44.535156 107.660156 44.535156 C 108.816406 44.535156 110.503906 44.097656 111.441406 42.003906 C 112.160156 40.503906 112.253906 38.816406 112.253906 37.097656 Z M 107.660156 44.066406 C 106.816406 44.066406 105.503906 43.535156 105.128906 41.441406 C 104.878906 40.128906 104.878906 38.097656 104.878906 36.816406 C 104.878906 35.441406 104.878906 34.003906 105.066406 32.816406 C 105.472656 30.222656 107.097656 30.003906 107.660156 30.003906 C 108.378906 30.003906 109.816406 30.410156 110.222656 32.566406 C 110.441406 33.785156 110.441406 35.441406 110.441406 36.816406 C 110.441406 38.472656 110.441406 39.941406 110.191406 41.347656 C 109.878906 43.410156 108.628906 44.066406 107.660156 44.066406 Z M 107.660156 44.066406 "/>
<path fill-rule="nonzero" fill="rgb(0%, 0%, 0%)" fill-opacity="1" d="M 123.050781 37.097656 C 123.050781 35.347656 122.957031 33.597656 122.175781 31.972656 C 121.175781 29.878906 119.394531 29.535156 118.457031 29.535156 C 117.175781 29.535156 115.582031 30.097656 114.675781 32.128906 C 113.988281 33.628906 113.863281 35.347656 113.863281 37.097656 C 113.863281 38.722656 113.957031 40.691406 114.863281 42.347656 C 115.800781 44.097656 117.394531 44.535156 118.457031 44.535156 C 119.613281 44.535156 121.300781 44.097656 122.238281 42.003906 C 122.957031 40.503906 123.050781 38.816406 123.050781 37.097656 Z M 118.457031 44.066406 C 117.613281 44.066406 116.300781 43.535156 115.925781 41.441406 C 115.675781 40.128906 115.675781 38.097656 115.675781 36.816406 C 115.675781 35.441406 115.675781 34.003906 115.863281 32.816406 C 116.269531 30.222656 117.894531 30.003906 118.457031 30.003906 C 119.175781 30.003906 120.613281 30.410156 121.019531 32.566406 C 121.238281 33.785156 121.238281 35.441406 121.238281 36.816406 C 121.238281 38.472656 121.238281 39.941406 120.988281 41.347656 C 120.675781 43.410156 119.425781 44.066406 118.457031 44.066406 Z M 118.457031 44.066406 "/>
<path fill="none" stroke-width="11.9553" stroke-linecap="butt" stroke-linejoin="miter" stroke="rgb(0%, 0%, 0%)" stroke-opacity="1" stroke-miterlimit="10" d="M 699.99999 2024.453095 L 699.99999 2101.601531 " transform="matrix(0.2, 0, 0, -0.2, 0, 442)"/>
<path fill-rule="nonzero" fill="rgb(0%, 0%, 0%)" fill-opacity="1" d="M 375.253906 343.886719 C 375.378906 343.324219 375.878906 341.324219 377.410156 341.324219 C 377.535156 341.324219 378.035156 341.324219 378.503906 341.605469 C 377.910156 341.699219 377.472656 342.261719 377.472656 342.792969 C 377.472656 343.136719 377.691406 343.542969 378.285156 343.542969 C 378.785156 343.542969 379.472656 343.136719 379.472656 342.292969 C 379.472656 341.136719 378.191406 340.824219 377.441406 340.824219 C 376.160156 340.824219 375.410156 341.980469 375.160156 342.511719 C 374.597656 341.042969 373.410156 340.824219 372.785156 340.824219 C 370.535156 340.824219 369.285156 343.667969 369.285156 344.199219 C 369.285156 344.417969 369.503906 344.417969 369.535156 344.417969 C 369.722656 344.417969 369.785156 344.386719 369.816406 344.167969 C 370.566406 341.855469 372.003906 341.324219 372.753906 341.324219 C 373.160156 341.324219 373.941406 341.511719 373.941406 342.792969 C 373.941406 343.449219 373.566406 344.917969 372.753906 347.980469 C 372.410156 349.324219 371.628906 350.230469 370.691406 350.230469 C 370.535156 350.230469 370.035156 350.230469 369.597656 349.949219 C 370.128906 349.855469 370.597656 349.386719 370.597656 348.792969 C 370.597656 348.199219 370.128906 348.011719 369.816406 348.011719 C 369.160156 348.011719 368.597656 348.574219 368.597656 349.292969 C 368.597656 350.292969 369.691406 350.730469 370.660156 350.730469 C 372.097656 350.730469 372.878906 349.199219 372.941406 349.074219 C 373.222656 349.855469 374.003906 350.730469 375.316406 350.730469 C 377.535156 350.730469 378.785156 347.917969 378.785156 347.355469 C 378.785156 347.136719 378.597656 347.136719 378.535156 347.136719 C 378.347656 347.136719 378.285156 347.230469 378.253906 347.386719 C 377.535156 349.730469 376.035156 350.230469 375.347656 350.230469 C 374.503906 350.230469 374.160156 349.542969 374.160156 348.792969 C 374.160156 348.324219 374.285156 347.855469 374.503906 346.886719 Z M 375.253906 343.886719 "/>
<path fill-rule="nonzero" fill="rgb(0%, 0%, 0%)" fill-opacity="1" d="M 144.835938 1.3125 C 144.929688 1 144.929688 0.96875 144.929688 0.8125 C 144.929688 0.40625 144.617188 0.21875 144.304688 0.21875 C 144.085938 0.21875 143.742188 0.34375 143.523438 0.6875 C 143.492188 0.78125 143.304688 1.46875 143.242188 1.875 C 143.085938 2.4375 142.929688 3.03125 142.804688 3.59375 L 141.804688 7.53125 C 141.710938 7.84375 140.773438 9.375 139.335938 9.375 C 138.242188 9.375 137.992188 8.4375 137.992188 7.625 C 137.992188 6.625 138.367188 5.25 139.117188 3.34375 C 139.460938 2.4375 139.554688 2.21875 139.554688 1.78125 C 139.554688 0.78125 138.835938 -0.03125 137.742188 -0.03125 C 135.679688 -0.03125 134.867188 3.15625 134.867188 3.34375 C 134.867188 3.5625 135.085938 3.5625 135.148438 3.5625 C 135.367188 3.5625 135.367188 3.53125 135.492188 3.15625 C 136.085938 1.125 136.960938 0.46875 137.679688 0.46875 C 137.867188 0.46875 138.242188 0.46875 138.242188 1.15625 C 138.242188 1.71875 138.023438 2.28125 137.867188 2.6875 C 136.992188 5 136.585938 6.25 136.585938 7.28125 C 136.585938 9.21875 137.960938 9.875 139.273438 9.875 C 140.117188 9.875 140.835938 9.5 141.460938 8.875 C 141.179688 10.03125 140.929688 11.09375 140.054688 12.25 C 139.492188 12.96875 138.648438 13.625 137.648438 13.625 C 137.335938 13.625 136.367188 13.5625 135.992188 12.6875 C 136.335938 12.6875 136.617188 12.6875 136.929688 12.4375 C 137.148438 12.25 137.367188 11.96875 137.367188 11.53125 C 137.367188 10.875 136.773438 10.78125 136.554688 10.78125 C 136.054688 10.78125 135.335938 11.125 135.335938 12.1875 C 135.335938 13.28125 136.304688 14.09375 137.648438 14.09375 C 139.898438 14.09375 142.148438 12.125 142.742188 9.65625 Z M 144.835938 1.3125 "/>
<path fill="none" stroke-width="11.9553" stroke-linecap="butt" stroke-linejoin="miter" stroke="rgb(0%, 0%, 0%)" stroke-opacity="1" stroke-miterlimit="10" d="M 89.999999 983.945298 L 130.898436 918.867174 L 171.75781 858.3203 L 212.617184 802.265613 L 253.515621 750.742176 L 294.374996 703.710927 L 335.23437 661.210928 L 376.132807 623.203116 L 416.992181 589.726554 L 457.890618 560.742179 L 498.749993 536.289055 L 539.648429 516.328117 L 580.507804 500.89843 L 621.367178 489.96093 L 662.265615 483.515618 L 703.12499 481.601555 L 744.023426 484.218743 L 784.882801 491.328118 L 825.781238 502.92968 L 866.640612 519.101555 L 907.499986 539.726554 L 948.398423 564.882804 L 989.257798 594.570304 L 1030.156235 628.710928 L 1071.015609 667.421865 L 1111.874983 710.624989 L 1152.77342 758.320301 L 1193.632795 810.546863 L 1234.531232 867.304675 L 1275.390606 928.515611 L 1316.289043 994.29686 L 1357.148417 1064.531234 L 1398.007792 1139.335921 L 1438.906229 1218.632794 L 1479.765603 1302.421856 L 1520.66404 1390.742167 L 1561.523414 1483.554665 L 1602.382789 1580.898414 L 1643.281226 1682.73435 L 1684.1406 1789.101536 L 1725.039037 1899.960909 " transform="matrix(0.2, 0, 0, -0.2, 0, 442)"/>
<path fill="none" stroke-width="7.9701" stroke-linecap="butt" stroke-linejoin="miter" stroke="rgb(0%, 0%, 0%)" stroke-opacity="1" stroke-miterlimit="10" d="M 99.999999 967.617173 L 99.999999 943.320298 " transform="matrix(0.2, 0, 0, -0.2, 0, 442)"/>
<path fill="none" stroke-width="7.9701" stroke-linecap="butt" stroke-linejoin="miter" stroke="rgb(0%, 0%, 0%)" stroke-opacity="1" stroke-miterlimit="10" d="M 99.999999 894.687487 L 99.999999 870.390612 " transform="matrix(0.2, 0, 0, -0.2, 0, 442)"/>
<path fill="none" stroke-width="7.9701" stroke-linecap="butt" stroke-linejoin="miter" stroke="rgb(0%, 0%, 0%)" stroke-opacity="1" stroke-miterlimit="10" d="M 99.999999 870.390612 L 99.999999 846.093737 " transform="matrix(0.2, 0, 0, -0.2, 0, 442)"/>
<path fill="none" stroke-width="7.9701" stroke-linecap="butt" stroke-linejoin="miter" stroke="rgb(0%, 0%, 0%)" stroke-opacity="1" stroke-miterlimit="10" d="M 99.999999 797.499988 L 99.999999 773.203113 " transform="matrix(0.2, 0, 0, -0.2, 0, 442)"/>
<path fill="none" stroke-width="7.9701" stroke-linecap="butt" stroke-linejoin="miter" stroke="rgb(0%, 0%, 0%)" stroke-opacity="1" stroke-miterlimit="10" d="M 99.999999 773.203113 L 99.999999 748.906239 " transform="matrix(0.2, 0, 0, -0.2, 0, 442)"/>
<path fill="none" stroke-width="7.9701" stroke-linecap="butt" stroke-linejoin="miter" stroke="rgb(0%, 0%, 0%)" stroke-opacity="1" stroke-miterlimit="10" d="M 99.999999 700.31249 L 99.999999 676.015615 " transform="matrix(0.2, 0, 0, -0.2, 0, 442)"/>
<path fill="none" stroke-width="7.9701" stroke-linecap="butt" stroke-linejoin="miter" stroke="rgb(0%, 0%, 0%)" stroke-opacity="1" stroke-miterlimit="10" d="M 99.999999 676.015615 L 99.999999 651.71874 " transform="matrix(0.2, 0, 0, -0.2, 0, 442)"/>
<path fill="none" stroke-width="7.9701" stroke-linecap="butt" stroke-linejoin="miter" stroke="rgb(0%, 0%, 0%)" stroke-opacity="1" stroke-miterlimit="10" d="M 99.999999 603.085929 L 99.999999 578.789054 " transform="matrix(0.2, 0, 0, -0.2, 0, 442)"/>
<path fill="none" stroke-width="7.9701" stroke-linecap="butt" stroke-linejoin="miter" stroke="rgb(0%, 0%, 0%)" stroke-opacity="1" stroke-miterlimit="10" d="M 99.999999 578.789054 L 99.999999 554.492179 " transform="matrix(0.2, 0, 0, -0.2, 0, 442)"/>
<path fill="none" stroke-width="7.9701" stroke-linecap="butt" stroke-linejoin="miter" stroke="rgb(0%, 0%, 0%)" stroke-opacity="1" stroke-miterlimit="10" d="M 99.999999 505.89843 L 99.999999 481.601555 " transform="matrix(0.2, 0, 0, -0.2, 0, 442)"/>
<path fill="none" stroke-width="7.9701" stroke-linecap="butt" stroke-linejoin="miter" stroke="rgb(0%, 0%, 0%)" stroke-opacity="1" stroke-miterlimit="10" d="M 99.999999 967.617173 L 124.999998 967.617173 " transform="matrix(0.2, 0, 0, -0.2, 0, 442)"/>
<path fill="none" stroke-width="7.9701" stroke-linecap="butt" stroke-linejoin="miter" stroke="rgb(0%, 0%, 0%)" stroke-opacity="1" stroke-miterlimit="10" d="M 174.999997 967.617173 L 199.999997 967.617173 " transform="matrix(0.2, 0, 0, -0.2, 0, 442)"/>
<path fill="none" stroke-width="7.9701" stroke-linecap="butt" stroke-linejoin="miter" stroke="rgb(0%, 0%, 0%)" stroke-opacity="1" stroke-miterlimit="10" d="M 199.999997 967.617173 L 224.999997 967.617173 " transform="matrix(0.2, 0, 0, -0.2, 0, 442)"/>
<path fill="none" stroke-width="7.9701" stroke-linecap="butt" stroke-linejoin="miter" stroke="rgb(0%, 0%, 0%)" stroke-opacity="1" stroke-miterlimit="10" d="M 274.999996 967.617173 L 299.999996 967.617173 " transform="matrix(0.2, 0, 0, -0.2, 0, 442)"/>
<path fill="none" stroke-width="7.9701" stroke-linecap="butt" stroke-linejoin="miter" stroke="rgb(0%, 0%, 0%)" stroke-opacity="1" stroke-miterlimit="10" d="M 299.999996 967.617173 L 324.999995 967.617173 " transform="matrix(0.2, 0, 0, -0.2, 0, 442)"/>
<path fill="none" stroke-width="7.9701" stroke-linecap="butt" stroke-linejoin="miter" stroke="rgb(0%, 0%, 0%)" stroke-opacity="1" stroke-miterlimit="10" d="M 374.999994 967.617173 L 399.999994 967.617173 " transform="matrix(0.2, 0, 0, -0.2, 0, 442)"/>
<path fill="none" stroke-width="7.9701" stroke-linecap="butt" stroke-linejoin="miter" stroke="rgb(0%, 0%, 0%)" stroke-opacity="1" stroke-miterlimit="10" d="M 399.999994 967.617173 L 424.999994 967.617173 " transform="matrix(0.2, 0, 0, -0.2, 0, 442)"/>
<path fill="none" stroke-width="7.9701" stroke-linecap="butt" stroke-linejoin="miter" stroke="rgb(0%, 0%, 0%)" stroke-opacity="1" stroke-miterlimit="10" d="M 474.999993 967.617173 L 499.999993 967.617173 " transform="matrix(0.2, 0, 0, -0.2, 0, 442)"/>
<path fill="none" stroke-width="7.9701" stroke-linecap="butt" stroke-linejoin="miter" stroke="rgb(0%, 0%, 0%)" stroke-opacity="1" stroke-miterlimit="10" d="M 499.999993 967.617173 L 524.999992 967.617173 " transform="matrix(0.2, 0, 0, -0.2, 0, 442)"/>
<path fill="none" stroke-width="7.9701" stroke-linecap="butt" stroke-linejoin="miter" stroke="rgb(0%, 0%, 0%)" stroke-opacity="1" stroke-miterlimit="10" d="M 574.999991 967.617173 L 599.999991 967.617173 " transform="matrix(0.2, 0, 0, -0.2, 0, 442)"/>
<path fill="none" stroke-width="7.9701" stroke-linecap="butt" stroke-linejoin="miter" stroke="rgb(0%, 0%, 0%)" stroke-opacity="1" stroke-miterlimit="10" d="M 599.999991 967.617173 L 624.999991 967.617173 " transform="matrix(0.2, 0, 0, -0.2, 0, 442)"/>
<path fill="none" stroke-width="7.9701" stroke-linecap="butt" stroke-linejoin="miter" stroke="rgb(0%, 0%, 0%)" stroke-opacity="1" stroke-miterlimit="10" d="M 674.99999 967.617173 L 699.99999 967.617173 " transform="matrix(0.2, 0, 0, -0.2, 0, 442)"/>
<path fill="none" stroke-width="7.9701" stroke-linecap="butt" stroke-linejoin="miter" stroke="rgb(0%, 0%, 0%)" stroke-opacity="1" stroke-miterlimit="10" d="M 299.999996 697.617177 L 299.999996 670.585928 " transform="matrix(0.2, 0, 0, -0.2, 0, 442)"/>
<path fill="none" stroke-width="7.9701" stroke-linecap="butt" stroke-linejoin="miter" stroke="rgb(0%, 0%, 0%)" stroke-opacity="1" stroke-miterlimit="10" d="M 299.999996 616.601553 L 299.999996 589.609366 " transform="matrix(0.2, 0, 0, -0.2, 0, 442)"/>
<path fill="none" stroke-width="7.9701" stroke-linecap="butt" stroke-linejoin="miter" stroke="rgb(0%, 0%, 0%)" stroke-opacity="1" stroke-miterlimit="10" d="M 299.999996 589.609366 L 299.999996 562.617179 " transform="matrix(0.2, 0, 0, -0.2, 0, 442)"/>
<path fill="none" stroke-width="7.9701" stroke-linecap="butt" stroke-linejoin="miter" stroke="rgb(0%, 0%, 0%)" stroke-opacity="1" stroke-miterlimit="10" d="M 299.999996 508.593742 L 299.999996 481.601555 " transform="matrix(0.2, 0, 0, -0.2, 0, 442)"/>
<path fill="none" stroke-width="7.9701" stroke-linecap="butt" stroke-linejoin="miter" stroke="rgb(0%, 0%, 0%)" stroke-opacity="1" stroke-miterlimit="10" d="M 299.999996 697.617177 L 324.999995 697.617177 " transform="matrix(0.2, 0, 0, -0.2, 0, 442)"/>
<path fill="none" stroke-width="7.9701" stroke-linecap="butt" stroke-linejoin="miter" stroke="rgb(0%, 0%, 0%)" stroke-opacity="1" stroke-miterlimit="10" d="M 374.999994 697.617177 L 399.999994 697.617177 " transform="matrix(0.2, 0, 0, -0.2, 0, 442)"/>
<path fill="none" stroke-width="7.9701" stroke-linecap="butt" stroke-linejoin="miter" stroke="rgb(0%, 0%, 0%)" stroke-opacity="1" stroke-miterlimit="10" d="M 399.999994 697.617177 L 424.999994 697.617177 " transform="matrix(0.2, 0, 0, -0.2, 0, 442)"/>
<path fill="none" stroke-width="7.9701" stroke-linecap="butt" stroke-linejoin="miter" stroke="rgb(0%, 0%, 0%)" stroke-opacity="1" stroke-miterlimit="10" d="M 474.999993 697.617177 L 499.999993 697.617177 " transform="matrix(0.2, 0, 0, -0.2, 0, 442)"/>
<path fill="none" stroke-width="7.9701" stroke-linecap="butt" stroke-linejoin="miter" stroke="rgb(0%, 0%, 0%)" stroke-opacity="1" stroke-miterlimit="10" d="M 499.999993 697.617177 L 524.999992 697.617177 " transform="matrix(0.2, 0, 0, -0.2, 0, 442)"/>
<path fill="none" stroke-width="7.9701" stroke-linecap="butt" stroke-linejoin="miter" stroke="rgb(0%, 0%, 0%)" stroke-opacity="1" stroke-miterlimit="10" d="M 574.999991 697.617177 L 599.999991 697.617177 " transform="matrix(0.2, 0, 0, -0.2, 0, 442)"/>
<path fill="none" stroke-width="7.9701" stroke-linecap="butt" stroke-linejoin="miter" stroke="rgb(0%, 0%, 0%)" stroke-opacity="1" stroke-miterlimit="10" d="M 599.999991 697.617177 L 624.999991 697.617177 " transform="matrix(0.2, 0, 0, -0.2, 0, 442)"/>
<path fill="none" stroke-width="7.9701" stroke-linecap="butt" stroke-linejoin="miter" stroke="rgb(0%, 0%, 0%)" stroke-opacity="1" stroke-miterlimit="10" d="M 674.99999 697.617177 L 699.99999 697.617177 " transform="matrix(0.2, 0, 0, -0.2, 0, 442)"/>
<path fill="none" stroke-width="7.9701" stroke-linecap="butt" stroke-linejoin="miter" stroke="rgb(0%, 0%, 0%)" stroke-opacity="1" stroke-miterlimit="10" d="M 499.999993 535.58593 L 499.999993 522.109367 " transform="matrix(0.2, 0, 0, -0.2, 0, 442)"/>
<path fill="none" stroke-width="7.9701" stroke-linecap="butt" stroke-linejoin="miter" stroke="rgb(0%, 0%, 0%)" stroke-opacity="1" stroke-miterlimit="10" d="M 499.999993 495.11718 L 499.999993 481.601555 " transform="matrix(0.2, 0, 0, -0.2, 0, 442)"/>
<path fill="none" stroke-width="7.9701" stroke-linecap="butt" stroke-linejoin="miter" stroke="rgb(0%, 0%, 0%)" stroke-opacity="1" stroke-miterlimit="10" d="M 499.999993 535.58593 L 524.999992 535.58593 " transform="matrix(0.2, 0, 0, -0.2, 0, 442)"/>
<path fill="none" stroke-width="7.9701" stroke-linecap="butt" stroke-linejoin="miter" stroke="rgb(0%, 0%, 0%)" stroke-opacity="1" stroke-miterlimit="10" d="M 574.999991 535.58593 L 599.999991 535.58593 " transform="matrix(0.2, 0, 0, -0.2, 0, 442)"/>
<path fill="none" stroke-width="7.9701" stroke-linecap="butt" stroke-linejoin="miter" stroke="rgb(0%, 0%, 0%)" stroke-opacity="1" stroke-miterlimit="10" d="M 599.999991 535.58593 L 624.999991 535.58593 " transform="matrix(0.2, 0, 0, -0.2, 0, 442)"/>
<path fill="none" stroke-width="7.9701" stroke-linecap="butt" stroke-linejoin="miter" stroke="rgb(0%, 0%, 0%)" stroke-opacity="1" stroke-miterlimit="10" d="M 674.99999 535.58593 L 699.99999 535.58593 " transform="matrix(0.2, 0, 0, -0.2, 0, 442)"/>
<path fill="none" stroke-width="7.9701" stroke-linecap="butt" stroke-linejoin="miter" stroke="rgb(0%, 0%, 0%)" stroke-opacity="1" stroke-miterlimit="10" d="M 899.999987 535.58593 L 899.999987 522.109367 " transform="matrix(0.2, 0, 0, -0.2, 0, 442)"/>
<path fill="none" stroke-width="7.9701" stroke-linecap="butt" stroke-linejoin="miter" stroke="rgb(0%, 0%, 0%)" stroke-opacity="1" stroke-miterlimit="10" d="M 899.999987 495.11718 L 899.999987 481.601555 " transform="matrix(0.2, 0, 0, -0.2, 0, 442)"/>
<path fill="none" stroke-width="7.9701" stroke-linecap="butt" stroke-linejoin="miter" stroke="rgb(0%, 0%, 0%)" stroke-opacity="1" stroke-miterlimit="10" d="M 899.999987 535.58593 L 874.999987 535.58593 " transform="matrix(0.2, 0, 0, -0.2, 0, 442)"/>
<path fill="none" stroke-width="7.9701" stroke-linecap="butt" stroke-linejoin="miter" stroke="rgb(0%, 0%, 0%)" stroke-opacity="1" stroke-miterlimit="10" d="M 824.999988 535.58593 L 799.999988 535.58593 " transform="matrix(0.2, 0, 0, -0.2, 0, 442)"/>
<path fill="none" stroke-width="7.9701" stroke-linecap="butt" stroke-linejoin="miter" stroke="rgb(0%, 0%, 0%)" stroke-opacity="1" stroke-miterlimit="10" d="M 799.999988 535.58593 L 774.999988 535.58593 " transform="matrix(0.2, 0, 0, -0.2, 0, 442)"/>
<path fill="none" stroke-width="7.9701" stroke-linecap="butt" stroke-linejoin="miter" stroke="rgb(0%, 0%, 0%)" stroke-opacity="1" stroke-miterlimit="10" d="M 724.999989 535.58593 L 699.99999 535.58593 " transform="matrix(0.2, 0, 0, -0.2, 0, 442)"/>
<path fill="none" stroke-width="7.9701" stroke-linecap="butt" stroke-linejoin="miter" stroke="rgb(0%, 0%, 0%)" stroke-opacity="1" stroke-miterlimit="10" d="M 1100.039046 697.617177 L 1100.039046 670.585928 " transform="matrix(0.2, 0, 0, -0.2, 0, 442)"/>
<path fill="none" stroke-width="7.9701" stroke-linecap="butt" stroke-linejoin="miter" stroke="rgb(0%, 0%, 0%)" stroke-opacity="1" stroke-miterlimit="10" d="M 1100.039046 616.601553 L 1100.039046 589.609366 " transform="matrix(0.2, 0, 0, -0.2, 0, 442)"/>
<path fill="none" stroke-width="7.9701" stroke-linecap="butt" stroke-linejoin="miter" stroke="rgb(0%, 0%, 0%)" stroke-opacity="1" stroke-miterlimit="10" d="M 1100.039046 589.609366 L 1100.039046 562.617179 " transform="matrix(0.2, 0, 0, -0.2, 0, 442)"/>
<path fill="none" stroke-width="7.9701" stroke-linecap="butt" stroke-linejoin="miter" stroke="rgb(0%, 0%, 0%)" stroke-opacity="1" stroke-miterlimit="10" d="M 1100.039046 508.593742 L 1100.039046 481.601555 " transform="matrix(0.2, 0, 0, -0.2, 0, 442)"/>
<path fill="none" stroke-width="7.9701" stroke-linecap="butt" stroke-linejoin="miter" stroke="rgb(0%, 0%, 0%)" stroke-opacity="1" stroke-miterlimit="10" d="M 1100.039046 697.617177 L 1075.039046 697.617177 " transform="matrix(0.2, 0, 0, -0.2, 0, 442)"/>
<path fill="none" stroke-width="7.9701" stroke-linecap="butt" stroke-linejoin="miter" stroke="rgb(0%, 0%, 0%)" stroke-opacity="1" stroke-miterlimit="10" d="M 1025.039047 697.617177 L 999.999985 697.617177 " transform="matrix(0.2, 0, 0, -0.2, 0, 442)"/>
<path fill="none" stroke-width="7.9701" stroke-linecap="butt" stroke-linejoin="miter" stroke="rgb(0%, 0%, 0%)" stroke-opacity="1" stroke-miterlimit="10" d="M 999.999985 697.617177 L 974.999985 697.617177 " transform="matrix(0.2, 0, 0, -0.2, 0, 442)"/>
<path fill="none" stroke-width="7.9701" stroke-linecap="butt" stroke-linejoin="miter" stroke="rgb(0%, 0%, 0%)" stroke-opacity="1" stroke-miterlimit="10" d="M 924.999986 697.617177 L 899.999987 697.617177 " transform="matrix(0.2, 0, 0, -0.2, 0, 442)"/>
<path fill="none" stroke-width="7.9701" stroke-linecap="butt" stroke-linejoin="miter" stroke="rgb(0%, 0%, 0%)" stroke-opacity="1" stroke-miterlimit="10" d="M 899.999987 697.617177 L 874.999987 697.617177 " transform="matrix(0.2, 0, 0, -0.2, 0, 442)"/>
<path fill="none" stroke-width="7.9701" stroke-linecap="butt" stroke-linejoin="miter" stroke="rgb(0%, 0%, 0%)" stroke-opacity="1" stroke-miterlimit="10" d="M 824.999988 697.617177 L 799.999988 697.617177 " transform="matrix(0.2, 0, 0, -0.2, 0, 442)"/>
<path fill="none" stroke-width="7.9701" stroke-linecap="butt" stroke-linejoin="miter" stroke="rgb(0%, 0%, 0%)" stroke-opacity="1" stroke-miterlimit="10" d="M 799.999988 697.617177 L 774.999988 697.617177 " transform="matrix(0.2, 0, 0, -0.2, 0, 442)"/>
<path fill="none" stroke-width="7.9701" stroke-linecap="butt" stroke-linejoin="miter" stroke="rgb(0%, 0%, 0%)" stroke-opacity="1" stroke-miterlimit="10" d="M 724.999989 697.617177 L 699.99999 697.617177 " transform="matrix(0.2, 0, 0, -0.2, 0, 442)"/>
<path fill="none" stroke-width="7.9701" stroke-linecap="butt" stroke-linejoin="miter" stroke="rgb(0%, 0%, 0%)" stroke-opacity="1" stroke-miterlimit="10" d="M 1300.039043 967.617173 L 1300.039043 943.320298 " transform="matrix(0.2, 0, 0, -0.2, 0, 442)"/>
<path fill="none" stroke-width="7.9701" stroke-linecap="butt" stroke-linejoin="miter" stroke="rgb(0%, 0%, 0%)" stroke-opacity="1" stroke-miterlimit="10" d="M 1300.039043 894.687487 L 1300.039043 870.390612 " transform="matrix(0.2, 0, 0, -0.2, 0, 442)"/>
<path fill="none" stroke-width="7.9701" stroke-linecap="butt" stroke-linejoin="miter" stroke="rgb(0%, 0%, 0%)" stroke-opacity="1" stroke-miterlimit="10" d="M 1300.039043 870.390612 L 1300.039043 846.093737 " transform="matrix(0.2, 0, 0, -0.2, 0, 442)"/>
<path fill="none" stroke-width="7.9701" stroke-linecap="butt" stroke-linejoin="miter" stroke="rgb(0%, 0%, 0%)" stroke-opacity="1" stroke-miterlimit="10" d="M 1300.039043 797.499988 L 1300.039043 773.203113 " transform="matrix(0.2, 0, 0, -0.2, 0, 442)"/>
<path fill="none" stroke-width="7.9701" stroke-linecap="butt" stroke-linejoin="miter" stroke="rgb(0%, 0%, 0%)" stroke-opacity="1" stroke-miterlimit="10" d="M 1300.039043 773.203113 L 1300.039043 748.906239 " transform="matrix(0.2, 0, 0, -0.2, 0, 442)"/>
<path fill="none" stroke-width="7.9701" stroke-linecap="butt" stroke-linejoin="miter" stroke="rgb(0%, 0%, 0%)" stroke-opacity="1" stroke-miterlimit="10" d="M 1300.039043 700.31249 L 1300.039043 676.015615 " transform="matrix(0.2, 0, 0, -0.2, 0, 442)"/>
<path fill="none" stroke-width="7.9701" stroke-linecap="butt" stroke-linejoin="miter" stroke="rgb(0%, 0%, 0%)" stroke-opacity="1" stroke-miterlimit="10" d="M 1300.039043 676.015615 L 1300.039043 651.71874 " transform="matrix(0.2, 0, 0, -0.2, 0, 442)"/>
<path fill="none" stroke-width="7.9701" stroke-linecap="butt" stroke-linejoin="miter" stroke="rgb(0%, 0%, 0%)" stroke-opacity="1" stroke-miterlimit="10" d="M 1300.039043 603.085929 L 1300.039043 578.789054 " transform="matrix(0.2, 0, 0, -0.2, 0, 442)"/>
<path fill="none" stroke-width="7.9701" stroke-linecap="butt" stroke-linejoin="miter" stroke="rgb(0%, 0%, 0%)" stroke-opacity="1" stroke-miterlimit="10" d="M 1300.039043 578.789054 L 1300.039043 554.492179 " transform="matrix(0.2, 0, 0, -0.2, 0, 442)"/>
<path fill="none" stroke-width="7.9701" stroke-linecap="butt" stroke-linejoin="miter" stroke="rgb(0%, 0%, 0%)" stroke-opacity="1" stroke-miterlimit="10" d="M 1300.039043 505.89843 L 1300.039043 481.601555 " transform="matrix(0.2, 0, 0, -0.2, 0, 442)"/>
<path fill="none" stroke-width="7.9701" stroke-linecap="butt" stroke-linejoin="miter" stroke="rgb(0%, 0%, 0%)" stroke-opacity="1" stroke-miterlimit="10" d="M 1300.039043 967.617173 L 1274.999981 967.617173 " transform="matrix(0.2, 0, 0, -0.2, 0, 442)"/>
<path fill="none" stroke-width="7.9701" stroke-linecap="butt" stroke-linejoin="miter" stroke="rgb(0%, 0%, 0%)" stroke-opacity="1" stroke-miterlimit="10" d="M 1224.999982 967.617173 L 1200.039045 967.617173 " transform="matrix(0.2, 0, 0, -0.2, 0, 442)"/>
<path fill="none" stroke-width="7.9701" stroke-linecap="butt" stroke-linejoin="miter" stroke="rgb(0%, 0%, 0%)" stroke-opacity="1" stroke-miterlimit="10" d="M 1200.039045 967.617173 L 1174.999982 967.617173 " transform="matrix(0.2, 0, 0, -0.2, 0, 442)"/>
<path fill="none" stroke-width="7.9701" stroke-linecap="butt" stroke-linejoin="miter" stroke="rgb(0%, 0%, 0%)" stroke-opacity="1" stroke-miterlimit="10" d="M 1125.039046 967.617173 L 1100.039046 967.617173 " transform="matrix(0.2, 0, 0, -0.2, 0, 442)"/>
<path fill="none" stroke-width="7.9701" stroke-linecap="butt" stroke-linejoin="miter" stroke="rgb(0%, 0%, 0%)" stroke-opacity="1" stroke-miterlimit="10" d="M 1100.039046 967.617173 L 1075.039046 967.617173 " transform="matrix(0.2, 0, 0, -0.2, 0, 442)"/>
<path fill="none" stroke-width="7.9701" stroke-linecap="butt" stroke-linejoin="miter" stroke="rgb(0%, 0%, 0%)" stroke-opacity="1" stroke-miterlimit="10" d="M 1025.039047 967.617173 L 999.999985 967.617173 " transform="matrix(0.2, 0, 0, -0.2, 0, 442)"/>
<path fill="none" stroke-width="7.9701" stroke-linecap="butt" stroke-linejoin="miter" stroke="rgb(0%, 0%, 0%)" stroke-opacity="1" stroke-miterlimit="10" d="M 999.999985 967.617173 L 974.999985 967.617173 " transform="matrix(0.2, 0, 0, -0.2, 0, 442)"/>
<path fill="none" stroke-width="7.9701" stroke-linecap="butt" stroke-linejoin="miter" stroke="rgb(0%, 0%, 0%)" stroke-opacity="1" stroke-miterlimit="10" d="M 924.999986 967.617173 L 899.999987 967.617173 " transform="matrix(0.2, 0, 0, -0.2, 0, 442)"/>
<path fill="none" stroke-width="7.9701" stroke-linecap="butt" stroke-linejoin="miter" stroke="rgb(0%, 0%, 0%)" stroke-opacity="1" stroke-miterlimit="10" d="M 899.999987 967.617173 L 874.999987 967.617173 " transform="matrix(0.2, 0, 0, -0.2, 0, 442)"/>
<path fill="none" stroke-width="7.9701" stroke-linecap="butt" stroke-linejoin="miter" stroke="rgb(0%, 0%, 0%)" stroke-opacity="1" stroke-miterlimit="10" d="M 824.999988 967.617173 L 799.999988 967.617173 " transform="matrix(0.2, 0, 0, -0.2, 0, 442)"/>
<path fill="none" stroke-width="7.9701" stroke-linecap="butt" stroke-linejoin="miter" stroke="rgb(0%, 0%, 0%)" stroke-opacity="1" stroke-miterlimit="10" d="M 799.999988 967.617173 L 774.999988 967.617173 " transform="matrix(0.2, 0, 0, -0.2, 0, 442)"/>
<path fill="none" stroke-width="7.9701" stroke-linecap="butt" stroke-linejoin="miter" stroke="rgb(0%, 0%, 0%)" stroke-opacity="1" stroke-miterlimit="10" d="M 724.999989 967.617173 L 699.99999 967.617173 " transform="matrix(0.2, 0, 0, -0.2, 0, 442)"/>
<path fill="none" stroke-width="7.9701" stroke-linecap="butt" stroke-linejoin="miter" stroke="rgb(0%, 0%, 0%)" stroke-opacity="1" stroke-miterlimit="10" d="M 1500.03904 1345.62498 L 1500.03904 1318.59373 " transform="matrix(0.2, 0, 0, -0.2, 0, 442)"/>
<path fill="none" stroke-width="7.9701" stroke-linecap="butt" stroke-linejoin="miter" stroke="rgb(0%, 0%, 0%)" stroke-opacity="1" stroke-miterlimit="10" d="M 1500.03904 1264.609356 L 1500.03904 1237.617169 " transform="matrix(0.2, 0, 0, -0.2, 0, 442)"/>
<path fill="none" stroke-width="7.9701" stroke-linecap="butt" stroke-linejoin="miter" stroke="rgb(0%, 0%, 0%)" stroke-opacity="1" stroke-miterlimit="10" d="M 1500.03904 1237.617169 L 1500.03904 1210.624982 " transform="matrix(0.2, 0, 0, -0.2, 0, 442)"/>
<path fill="none" stroke-width="7.9701" stroke-linecap="butt" stroke-linejoin="miter" stroke="rgb(0%, 0%, 0%)" stroke-opacity="1" stroke-miterlimit="10" d="M 1500.03904 1156.601545 L 1500.03904 1129.609358 " transform="matrix(0.2, 0, 0, -0.2, 0, 442)"/>
<path fill="none" stroke-width="7.9701" stroke-linecap="butt" stroke-linejoin="miter" stroke="rgb(0%, 0%, 0%)" stroke-opacity="1" stroke-miterlimit="10" d="M 1500.03904 1129.609358 L 1500.03904 1102.617171 " transform="matrix(0.2, 0, 0, -0.2, 0, 442)"/>
<path fill="none" stroke-width="7.9701" stroke-linecap="butt" stroke-linejoin="miter" stroke="rgb(0%, 0%, 0%)" stroke-opacity="1" stroke-miterlimit="10" d="M 1500.03904 1048.593734 L 1500.03904 1021.601547 " transform="matrix(0.2, 0, 0, -0.2, 0, 442)"/>
<path fill="none" stroke-width="7.9701" stroke-linecap="butt" stroke-linejoin="miter" stroke="rgb(0%, 0%, 0%)" stroke-opacity="1" stroke-miterlimit="10" d="M 1500.03904 1021.601547 L 1500.03904 994.60936 " transform="matrix(0.2, 0, 0, -0.2, 0, 442)"/>
<path fill="none" stroke-width="7.9701" stroke-linecap="butt" stroke-linejoin="miter" stroke="rgb(0%, 0%, 0%)" stroke-opacity="1" stroke-miterlimit="10" d="M 1500.03904 940.585923 L 1500.03904 913.593736 " transform="matrix(0.2, 0, 0, -0.2, 0, 442)"/>
<path fill="none" stroke-width="7.9701" stroke-linecap="butt" stroke-linejoin="miter" stroke="rgb(0%, 0%, 0%)" stroke-opacity="1" stroke-miterlimit="10" d="M 1500.03904 913.593736 L 1500.03904 886.601549 " transform="matrix(0.2, 0, 0, -0.2, 0, 442)"/>
<path fill="none" stroke-width="7.9701" stroke-linecap="butt" stroke-linejoin="miter" stroke="rgb(0%, 0%, 0%)" stroke-opacity="1" stroke-miterlimit="10" d="M 1500.03904 832.617175 L 1500.03904 805.585925 " transform="matrix(0.2, 0, 0, -0.2, 0, 442)"/>
<path fill="none" stroke-width="7.9701" stroke-linecap="butt" stroke-linejoin="miter" stroke="rgb(0%, 0%, 0%)" stroke-opacity="1" stroke-miterlimit="10" d="M 1500.03904 805.585925 L 1500.03904 778.593738 " transform="matrix(0.2, 0, 0, -0.2, 0, 442)"/>
<path fill="none" stroke-width="7.9701" stroke-linecap="butt" stroke-linejoin="miter" stroke="rgb(0%, 0%, 0%)" stroke-opacity="1" stroke-miterlimit="10" d="M 1500.03904 724.609364 L 1500.03904 697.617177 " transform="matrix(0.2, 0, 0, -0.2, 0, 442)"/>
<path fill="none" stroke-width="7.9701" stroke-linecap="butt" stroke-linejoin="miter" stroke="rgb(0%, 0%, 0%)" stroke-opacity="1" stroke-miterlimit="10" d="M 1500.03904 697.617177 L 1500.03904 670.585928 " transform="matrix(0.2, 0, 0, -0.2, 0, 442)"/>
<path fill="none" stroke-width="7.9701" stroke-linecap="butt" stroke-linejoin="miter" stroke="rgb(0%, 0%, 0%)" stroke-opacity="1" stroke-miterlimit="10" d="M 1500.03904 616.601553 L 1500.03904 589.609366 " transform="matrix(0.2, 0, 0, -0.2, 0, 442)"/>
<path fill="none" stroke-width="7.9701" stroke-linecap="butt" stroke-linejoin="miter" stroke="rgb(0%, 0%, 0%)" stroke-opacity="1" stroke-miterlimit="10" d="M 1500.03904 589.609366 L 1500.03904 562.617179 " transform="matrix(0.2, 0, 0, -0.2, 0, 442)"/>
<path fill="none" stroke-width="7.9701" stroke-linecap="butt" stroke-linejoin="miter" stroke="rgb(0%, 0%, 0%)" stroke-opacity="1" stroke-miterlimit="10" d="M 1500.03904 508.593742 L 1500.03904 481.601555 " transform="matrix(0.2, 0, 0, -0.2, 0, 442)"/>
<path fill="none" stroke-width="7.9701" stroke-linecap="butt" stroke-linejoin="miter" stroke="rgb(0%, 0%, 0%)" stroke-opacity="1" stroke-miterlimit="10" d="M 1500.03904 1345.62498 L 1471.445291 1345.62498 " transform="matrix(0.2, 0, 0, -0.2, 0, 442)"/>
<path fill="none" stroke-width="7.9701" stroke-linecap="butt" stroke-linejoin="miter" stroke="rgb(0%, 0%, 0%)" stroke-opacity="1" stroke-miterlimit="10" d="M 1414.296854 1345.62498 L 1385.742167 1345.62498 " transform="matrix(0.2, 0, 0, -0.2, 0, 442)"/>
<path fill="none" stroke-width="7.9701" stroke-linecap="butt" stroke-linejoin="miter" stroke="rgb(0%, 0%, 0%)" stroke-opacity="1" stroke-miterlimit="10" d="M 1385.742167 1345.62498 L 1357.148417 1345.62498 " transform="matrix(0.2, 0, 0, -0.2, 0, 442)"/>
<path fill="none" stroke-width="7.9701" stroke-linecap="butt" stroke-linejoin="miter" stroke="rgb(0%, 0%, 0%)" stroke-opacity="1" stroke-miterlimit="10" d="M 1300.039043 1345.62498 L 1271.445294 1345.62498 " transform="matrix(0.2, 0, 0, -0.2, 0, 442)"/>
<path fill="none" stroke-width="7.9701" stroke-linecap="butt" stroke-linejoin="miter" stroke="rgb(0%, 0%, 0%)" stroke-opacity="1" stroke-miterlimit="10" d="M 1271.445294 1345.62498 L 1242.890606 1345.62498 " transform="matrix(0.2, 0, 0, -0.2, 0, 442)"/>
<path fill="none" stroke-width="7.9701" stroke-linecap="butt" stroke-linejoin="miter" stroke="rgb(0%, 0%, 0%)" stroke-opacity="1" stroke-miterlimit="10" d="M 1185.74217 1345.62498 L 1157.14842 1345.62498 " transform="matrix(0.2, 0, 0, -0.2, 0, 442)"/>
<path fill="none" stroke-width="7.9701" stroke-linecap="butt" stroke-linejoin="miter" stroke="rgb(0%, 0%, 0%)" stroke-opacity="1" stroke-miterlimit="10" d="M 1157.14842 1345.62498 L 1128.593733 1345.62498 " transform="matrix(0.2, 0, 0, -0.2, 0, 442)"/>
<path fill="none" stroke-width="7.9701" stroke-linecap="butt" stroke-linejoin="miter" stroke="rgb(0%, 0%, 0%)" stroke-opacity="1" stroke-miterlimit="10" d="M 1071.445297 1345.62498 L 1042.851547 1345.62498 " transform="matrix(0.2, 0, 0, -0.2, 0, 442)"/>
<path fill="none" stroke-width="7.9701" stroke-linecap="butt" stroke-linejoin="miter" stroke="rgb(0%, 0%, 0%)" stroke-opacity="1" stroke-miterlimit="10" d="M 1042.851547 1345.62498 L 1014.29686 1345.62498 " transform="matrix(0.2, 0, 0, -0.2, 0, 442)"/>
<path fill="none" stroke-width="7.9701" stroke-linecap="butt" stroke-linejoin="miter" stroke="rgb(0%, 0%, 0%)" stroke-opacity="1" stroke-miterlimit="10" d="M 957.148423 1345.62498 L 928.593736 1345.62498 " transform="matrix(0.2, 0, 0, -0.2, 0, 442)"/>
<path fill="none" stroke-width="7.9701" stroke-linecap="butt" stroke-linejoin="miter" stroke="rgb(0%, 0%, 0%)" stroke-opacity="1" stroke-miterlimit="10" d="M 928.593736 1345.62498 L 899.999987 1345.62498 " transform="matrix(0.2, 0, 0, -0.2, 0, 442)"/>
<path fill="none" stroke-width="7.9701" stroke-linecap="butt" stroke-linejoin="miter" stroke="rgb(0%, 0%, 0%)" stroke-opacity="1" stroke-miterlimit="10" d="M 842.85155 1345.62498 L 814.296863 1345.62498 " transform="matrix(0.2, 0, 0, -0.2, 0, 442)"/>
<path fill="none" stroke-width="7.9701" stroke-linecap="butt" stroke-linejoin="miter" stroke="rgb(0%, 0%, 0%)" stroke-opacity="1" stroke-miterlimit="10" d="M 814.296863 1345.62498 L 785.703113 1345.62498 " transform="matrix(0.2, 0, 0, -0.2, 0, 442)"/>
<path fill="none" stroke-width="7.9701" stroke-linecap="butt" stroke-linejoin="miter" stroke="rgb(0%, 0%, 0%)" stroke-opacity="1" stroke-miterlimit="10" d="M 728.593739 1345.62498 L 699.99999 1345.62498 " transform="matrix(0.2, 0, 0, -0.2, 0, 442)"/>
<path fill="none" stroke-width="7.9701" stroke-linecap="butt" stroke-linejoin="miter" stroke="rgb(0%, 0%, 0%)" stroke-opacity="1" stroke-miterlimit="10" d="M 1700.039037 1831.601535 L 1700.039037 1803.476536 " transform="matrix(0.2, 0, 0, -0.2, 0, 442)"/>
<path fill="none" stroke-width="7.9701" stroke-linecap="butt" stroke-linejoin="miter" stroke="rgb(0%, 0%, 0%)" stroke-opacity="1" stroke-miterlimit="10" d="M 1700.039037 1747.226536 L 1700.039037 1719.101537 " transform="matrix(0.2, 0, 0, -0.2, 0, 442)"/>
<path fill="none" stroke-width="7.9701" stroke-linecap="butt" stroke-linejoin="miter" stroke="rgb(0%, 0%, 0%)" stroke-opacity="1" stroke-miterlimit="10" d="M 1700.039037 1719.101537 L 1700.039037 1690.976537 " transform="matrix(0.2, 0, 0, -0.2, 0, 442)"/>
<path fill="none" stroke-width="7.9701" stroke-linecap="butt" stroke-linejoin="miter" stroke="rgb(0%, 0%, 0%)" stroke-opacity="1" stroke-miterlimit="10" d="M 1700.039037 1634.726538 L 1700.039037 1606.601539 " transform="matrix(0.2, 0, 0, -0.2, 0, 442)"/>
<path fill="none" stroke-width="7.9701" stroke-linecap="butt" stroke-linejoin="miter" stroke="rgb(0%, 0%, 0%)" stroke-opacity="1" stroke-miterlimit="10" d="M 1700.039037 1606.601539 L 1700.039037 1578.476539 " transform="matrix(0.2, 0, 0, -0.2, 0, 442)"/>
<path fill="none" stroke-width="7.9701" stroke-linecap="butt" stroke-linejoin="miter" stroke="rgb(0%, 0%, 0%)" stroke-opacity="1" stroke-miterlimit="10" d="M 1700.039037 1522.22654 L 1700.039037 1494.10154 " transform="matrix(0.2, 0, 0, -0.2, 0, 442)"/>
<path fill="none" stroke-width="7.9701" stroke-linecap="butt" stroke-linejoin="miter" stroke="rgb(0%, 0%, 0%)" stroke-opacity="1" stroke-miterlimit="10" d="M 1700.039037 1494.10154 L 1700.039037 1465.976541 " transform="matrix(0.2, 0, 0, -0.2, 0, 442)"/>
<path fill="none" stroke-width="7.9701" stroke-linecap="butt" stroke-linejoin="miter" stroke="rgb(0%, 0%, 0%)" stroke-opacity="1" stroke-miterlimit="10" d="M 1700.039037 1409.726541 L 1700.039037 1381.601542 " transform="matrix(0.2, 0, 0, -0.2, 0, 442)"/>
<path fill="none" stroke-width="7.9701" stroke-linecap="butt" stroke-linejoin="miter" stroke="rgb(0%, 0%, 0%)" stroke-opacity="1" stroke-miterlimit="10" d="M 1700.039037 1381.601542 L 1700.039037 1353.476542 " transform="matrix(0.2, 0, 0, -0.2, 0, 442)"/>
<path fill="none" stroke-width="7.9701" stroke-linecap="butt" stroke-linejoin="miter" stroke="rgb(0%, 0%, 0%)" stroke-opacity="1" stroke-miterlimit="10" d="M 1700.039037 1297.226543 L 1700.039037 1269.101544 " transform="matrix(0.2, 0, 0, -0.2, 0, 442)"/>
<path fill="none" stroke-width="7.9701" stroke-linecap="butt" stroke-linejoin="miter" stroke="rgb(0%, 0%, 0%)" stroke-opacity="1" stroke-miterlimit="10" d="M 1700.039037 1269.101544 L 1700.039037 1240.976544 " transform="matrix(0.2, 0, 0, -0.2, 0, 442)"/>
<path fill="none" stroke-width="7.9701" stroke-linecap="butt" stroke-linejoin="miter" stroke="rgb(0%, 0%, 0%)" stroke-opacity="1" stroke-miterlimit="10" d="M 1700.039037 1184.726545 L 1700.039037 1156.601545 " transform="matrix(0.2, 0, 0, -0.2, 0, 442)"/>
<path fill="none" stroke-width="7.9701" stroke-linecap="butt" stroke-linejoin="miter" stroke="rgb(0%, 0%, 0%)" stroke-opacity="1" stroke-miterlimit="10" d="M 1700.039037 1156.601545 L 1700.039037 1128.476546 " transform="matrix(0.2, 0, 0, -0.2, 0, 442)"/>
<path fill="none" stroke-width="7.9701" stroke-linecap="butt" stroke-linejoin="miter" stroke="rgb(0%, 0%, 0%)" stroke-opacity="1" stroke-miterlimit="10" d="M 1700.039037 1072.226547 L 1700.039037 1044.101547 " transform="matrix(0.2, 0, 0, -0.2, 0, 442)"/>
<path fill="none" stroke-width="7.9701" stroke-linecap="butt" stroke-linejoin="miter" stroke="rgb(0%, 0%, 0%)" stroke-opacity="1" stroke-miterlimit="10" d="M 1700.039037 1044.101547 L 1700.039037 1015.976547 " transform="matrix(0.2, 0, 0, -0.2, 0, 442)"/>
<path fill="none" stroke-width="7.9701" stroke-linecap="butt" stroke-linejoin="miter" stroke="rgb(0%, 0%, 0%)" stroke-opacity="1" stroke-miterlimit="10" d="M 1700.039037 959.726548 L 1700.039037 931.601549 " transform="matrix(0.2, 0, 0, -0.2, 0, 442)"/>
<path fill="none" stroke-width="7.9701" stroke-linecap="butt" stroke-linejoin="miter" stroke="rgb(0%, 0%, 0%)" stroke-opacity="1" stroke-miterlimit="10" d="M 1700.039037 931.601549 L 1700.039037 903.476549 " transform="matrix(0.2, 0, 0, -0.2, 0, 442)"/>
<path fill="none" stroke-width="7.9701" stroke-linecap="butt" stroke-linejoin="miter" stroke="rgb(0%, 0%, 0%)" stroke-opacity="1" stroke-miterlimit="10" d="M 1700.039037 847.22655 L 1700.039037 819.10155 " transform="matrix(0.2, 0, 0, -0.2, 0, 442)"/>
<path fill="none" stroke-width="7.9701" stroke-linecap="butt" stroke-linejoin="miter" stroke="rgb(0%, 0%, 0%)" stroke-opacity="1" stroke-miterlimit="10" d="M 1700.039037 819.10155 L 1700.039037 790.976551 " transform="matrix(0.2, 0, 0, -0.2, 0, 442)"/>
<path fill="none" stroke-width="7.9701" stroke-linecap="butt" stroke-linejoin="miter" stroke="rgb(0%, 0%, 0%)" stroke-opacity="1" stroke-miterlimit="10" d="M 1700.039037 734.726552 L 1700.039037 706.601552 " transform="matrix(0.2, 0, 0, -0.2, 0, 442)"/>
<path fill="none" stroke-width="7.9701" stroke-linecap="butt" stroke-linejoin="miter" stroke="rgb(0%, 0%, 0%)" stroke-opacity="1" stroke-miterlimit="10" d="M 1700.039037 706.601552 L 1700.039037 678.476552 " transform="matrix(0.2, 0, 0, -0.2, 0, 442)"/>
<path fill="none" stroke-width="7.9701" stroke-linecap="butt" stroke-linejoin="miter" stroke="rgb(0%, 0%, 0%)" stroke-opacity="1" stroke-miterlimit="10" d="M 1700.039037 622.226553 L 1700.039037 594.101554 " transform="matrix(0.2, 0, 0, -0.2, 0, 442)"/>
<path fill="none" stroke-width="7.9701" stroke-linecap="butt" stroke-linejoin="miter" stroke="rgb(0%, 0%, 0%)" stroke-opacity="1" stroke-miterlimit="10" d="M 1700.039037 594.101554 L 1700.039037 565.976554 " transform="matrix(0.2, 0, 0, -0.2, 0, 442)"/>
<path fill="none" stroke-width="7.9701" stroke-linecap="butt" stroke-linejoin="miter" stroke="rgb(0%, 0%, 0%)" stroke-opacity="1" stroke-miterlimit="10" d="M 1700.039037 509.726555 L 1700.039037 481.601555 " transform="matrix(0.2, 0, 0, -0.2, 0, 442)"/>
<path fill="none" stroke-width="7.9701" stroke-linecap="butt" stroke-linejoin="miter" stroke="rgb(0%, 0%, 0%)" stroke-opacity="1" stroke-miterlimit="10" d="M 1700.039037 1831.601535 L 1672.226538 1831.601535 " transform="matrix(0.2, 0, 0, -0.2, 0, 442)"/>
<path fill="none" stroke-width="7.9701" stroke-linecap="butt" stroke-linejoin="miter" stroke="rgb(0%, 0%, 0%)" stroke-opacity="1" stroke-miterlimit="10" d="M 1616.679663 1831.601535 L 1588.906226 1831.601535 " transform="matrix(0.2, 0, 0, -0.2, 0, 442)"/>
<path fill="none" stroke-width="7.9701" stroke-linecap="butt" stroke-linejoin="miter" stroke="rgb(0%, 0%, 0%)" stroke-opacity="1" stroke-miterlimit="10" d="M 1588.906226 1831.601535 L 1561.132789 1831.601535 " transform="matrix(0.2, 0, 0, -0.2, 0, 442)"/>
<path fill="none" stroke-width="7.9701" stroke-linecap="butt" stroke-linejoin="miter" stroke="rgb(0%, 0%, 0%)" stroke-opacity="1" stroke-miterlimit="10" d="M 1505.585915 1831.601535 L 1477.812478 1831.601535 " transform="matrix(0.2, 0, 0, -0.2, 0, 442)"/>
<path fill="none" stroke-width="7.9701" stroke-linecap="butt" stroke-linejoin="miter" stroke="rgb(0%, 0%, 0%)" stroke-opacity="1" stroke-miterlimit="10" d="M 1477.812478 1831.601535 L 1450.039041 1831.601535 " transform="matrix(0.2, 0, 0, -0.2, 0, 442)"/>
<path fill="none" stroke-width="7.9701" stroke-linecap="butt" stroke-linejoin="miter" stroke="rgb(0%, 0%, 0%)" stroke-opacity="1" stroke-miterlimit="10" d="M 1394.453104 1831.601535 L 1366.679667 1831.601535 " transform="matrix(0.2, 0, 0, -0.2, 0, 442)"/>
<path fill="none" stroke-width="7.9701" stroke-linecap="butt" stroke-linejoin="miter" stroke="rgb(0%, 0%, 0%)" stroke-opacity="1" stroke-miterlimit="10" d="M 1366.679667 1831.601535 L 1338.90623 1831.601535 " transform="matrix(0.2, 0, 0, -0.2, 0, 442)"/>
<path fill="none" stroke-width="7.9701" stroke-linecap="butt" stroke-linejoin="miter" stroke="rgb(0%, 0%, 0%)" stroke-opacity="1" stroke-miterlimit="10" d="M 1283.359356 1831.601535 L 1255.585919 1831.601535 " transform="matrix(0.2, 0, 0, -0.2, 0, 442)"/>
<path fill="none" stroke-width="7.9701" stroke-linecap="butt" stroke-linejoin="miter" stroke="rgb(0%, 0%, 0%)" stroke-opacity="1" stroke-miterlimit="10" d="M 1255.585919 1831.601535 L 1227.773419 1831.601535 " transform="matrix(0.2, 0, 0, -0.2, 0, 442)"/>
<path fill="none" stroke-width="7.9701" stroke-linecap="butt" stroke-linejoin="miter" stroke="rgb(0%, 0%, 0%)" stroke-opacity="1" stroke-miterlimit="10" d="M 1172.265608 1831.601535 L 1144.453108 1831.601535 " transform="matrix(0.2, 0, 0, -0.2, 0, 442)"/>
<path fill="none" stroke-width="7.9701" stroke-linecap="butt" stroke-linejoin="miter" stroke="rgb(0%, 0%, 0%)" stroke-opacity="1" stroke-miterlimit="10" d="M 1144.453108 1831.601535 L 1116.679671 1831.601535 " transform="matrix(0.2, 0, 0, -0.2, 0, 442)"/>
<path fill="none" stroke-width="7.9701" stroke-linecap="butt" stroke-linejoin="miter" stroke="rgb(0%, 0%, 0%)" stroke-opacity="1" stroke-miterlimit="10" d="M 1061.132797 1831.601535 L 1033.35936 1831.601535 " transform="matrix(0.2, 0, 0, -0.2, 0, 442)"/>
<path fill="none" stroke-width="7.9701" stroke-linecap="butt" stroke-linejoin="miter" stroke="rgb(0%, 0%, 0%)" stroke-opacity="1" stroke-miterlimit="10" d="M 1033.35936 1831.601535 L 1005.585923 1831.601535 " transform="matrix(0.2, 0, 0, -0.2, 0, 442)"/>
<path fill="none" stroke-width="7.9701" stroke-linecap="butt" stroke-linejoin="miter" stroke="rgb(0%, 0%, 0%)" stroke-opacity="1" stroke-miterlimit="10" d="M 949.999986 1831.601535 L 922.226549 1831.601535 " transform="matrix(0.2, 0, 0, -0.2, 0, 442)"/>
<path fill="none" stroke-width="7.9701" stroke-linecap="butt" stroke-linejoin="miter" stroke="rgb(0%, 0%, 0%)" stroke-opacity="1" stroke-miterlimit="10" d="M 922.226549 1831.601535 L 894.453112 1831.601535 " transform="matrix(0.2, 0, 0, -0.2, 0, 442)"/>
<path fill="none" stroke-width="7.9701" stroke-linecap="butt" stroke-linejoin="miter" stroke="rgb(0%, 0%, 0%)" stroke-opacity="1" stroke-miterlimit="10" d="M 838.906237 1831.601535 L 811.1328 1831.601535 " transform="matrix(0.2, 0, 0, -0.2, 0, 442)"/>
<path fill="none" stroke-width="7.9701" stroke-linecap="butt" stroke-linejoin="miter" stroke="rgb(0%, 0%, 0%)" stroke-opacity="1" stroke-miterlimit="10" d="M 811.1328 1831.601535 L 783.359363 1831.601535 " transform="matrix(0.2, 0, 0, -0.2, 0, 442)"/>
<path fill="none" stroke-width="7.9701" stroke-linecap="butt" stroke-linejoin="miter" stroke="rgb(0%, 0%, 0%)" stroke-opacity="1" stroke-miterlimit="10" d="M 727.773427 1831.601535 L 699.99999 1831.601535 " transform="matrix(0.2, 0, 0, -0.2, 0, 442)"/>
<path fill-rule="nonzero" fill="rgb(0%, 0%, 0%)" fill-opacity="1" d="M 48.71875 430.289062 C 49.90625 429.882812 51.90625 429.289062 51.90625 427.351562 C 51.90625 425.039062 49.1875 423.976562 47.21875 423.976562 C 46.28125 423.976562 45.3125 424.195312 44.46875 424.695312 C 44.34375 424.757812 44.1875 424.945312 44.03125 424.945312 C 43.71875 424.945312 43.15625 423.976562 42.84375 423.976562 C 42.65625 423.976562 42.625 424.195312 42.625 424.289062 L 42.625 427.851562 C 42.625 427.976562 42.71875 428.132812 42.90625 428.132812 C 43.21875 428.132812 43.1875 427.507812 43.28125 427.164062 C 43.75 425.445312 45.3125 424.695312 46.8125 424.601562 L 47.21875 424.601562 C 48.5625 424.601562 50.125 425.476562 50.125 427.351562 C 50.125 429.164062 48.34375 430.101562 46.6875 430.101562 C 46.375 430.101562 46.0625 430.101562 45.75 430.101562 L 45.59375 430.101562 C 45.40625 430.101562 45.1875 430.101562 45.1875 430.320312 L 45.1875 430.351562 C 45.21875 430.539062 45.40625 430.570312 45.59375 430.570312 L 47.4375 430.570312 C 49 430.695312 50.4375 431.726562 50.59375 433.351562 L 50.59375 433.570312 C 50.59375 435.414062 48.875 436.570312 47.125 436.570312 C 45.21875 436.570312 43.25 435.945312 42.9375 433.570312 C 42.9375 433.414062 42.875 433.226562 42.65625 433.226562 C 42.4375 433.257812 42.40625 433.414062 42.40625 433.570312 C 42.40625 436.164062 45 437.195312 47.25 437.195312 C 49.3125 437.195312 52.1875 436.226562 52.4375 433.757812 L 52.4375 433.632812 C 52.4375 431.664062 50.375 430.695312 48.71875 430.289062 Z M 48.71875 430.289062 "/>
<path fill-rule="nonzero" fill="rgb(0%, 0%, 0%)" fill-opacity="1" d="M 60.816406 423.976562 C 57.441406 424.382812 54.753906 427.039062 54.753906 430.632812 C 54.753906 433.914062 57.347656 437.164062 61.222656 437.164062 C 64.722656 437.164062 67.691406 434.257812 67.691406 430.632812 C 67.691406 427.445312 65.191406 423.976562 61.253906 423.976562 C 61.128906 423.976562 60.972656 423.976562 60.816406 423.976562 Z M 56.628906 430.851562 L 56.628906 430.507812 C 56.628906 428.007812 57.535156 425.070312 60.691406 424.539062 C 60.878906 424.507812 61.035156 424.507812 61.222656 424.507812 C 64.035156 424.507812 65.785156 427.226562 65.785156 430.257812 C 65.785156 432.664062 65.066406 435.726562 62.097656 436.507812 C 61.816406 436.570312 61.535156 436.601562 61.253906 436.601562 L 61.066406 436.601562 C 58.472656 436.507812 57.066406 434.039062 56.722656 431.632812 Z M 56.628906 430.851562 "/>
<path fill-rule="nonzero" fill="rgb(0%, 0%, 0%)" fill-opacity="1" d="M 70.144531 424.320312 L 70.144531 424.914062 L 70.582031 424.914062 C 71.175781 424.914062 71.800781 425.007812 71.800781 425.882812 L 71.800781 435.351562 C 71.800781 436.195312 71.082031 436.226562 70.425781 436.226562 L 70.144531 436.226562 L 70.144531 436.820312 L 75.925781 436.820312 C 76.332031 436.820312 76.707031 436.851562 77.113281 436.851562 C 79.113281 436.851562 81.457031 435.914062 81.675781 433.507812 L 81.675781 433.320312 C 81.675781 430.789062 78.800781 429.757812 76.894531 429.757812 C 75.644531 429.757812 74.457031 429.882812 73.269531 429.976562 L 73.269531 425.757812 C 73.269531 425.320312 73.332031 424.914062 74.113281 424.914062 L 76.425781 424.914062 C 77.394531 424.914062 78.488281 424.976562 79.207031 425.695312 C 79.894531 426.414062 79.988281 427.632812 80.082031 428.570312 L 80.613281 428.570312 L 80.144531 424.320312 Z M 73.269531 430.601562 C 73.519531 430.601562 73.769531 430.539062 74.019531 430.507812 L 75.394531 430.445312 C 75.675781 430.414062 75.957031 430.382812 76.269531 430.382812 C 77.832031 430.382812 79.800781 431.382812 79.800781 433.226562 C 79.800781 434.976562 78.457031 436.257812 76.457031 436.257812 C 76.175781 436.257812 75.863281 436.226562 75.613281 436.226562 L 74.082031 436.226562 C 73.613281 436.226562 73.363281 436.195312 73.269531 435.570312 Z M 73.269531 430.601562 "/>
<path fill-rule="nonzero" fill="rgb(0%, 0%, 0%)" fill-opacity="1" d="M 84.027344 424.320312 L 84.027344 424.914062 L 84.496094 424.914062 C 85.089844 424.914062 85.683594 425.007812 85.683594 425.882812 L 85.683594 435.351562 C 85.683594 436.195312 84.996094 436.226562 84.308594 436.226562 L 84.027344 436.226562 L 84.027344 436.820312 L 88.933594 436.820312 L 88.933594 436.226562 L 88.496094 436.226562 C 87.871094 436.226562 87.277344 436.164062 87.277344 435.289062 L 87.277344 431.101562 L 90.996094 431.101562 C 92.777344 430.976562 95.058594 429.789062 95.058594 427.757812 C 95.058594 425.539062 92.714844 424.476562 90.808594 424.320312 Z M 87.246094 430.570312 L 87.246094 425.570312 C 87.339844 424.976562 87.589844 424.914062 87.996094 424.914062 L 89.433594 424.914062 C 91.058594 424.914062 93.183594 424.976562 93.183594 427.757812 C 93.183594 428.414062 93.089844 429.101562 92.683594 429.601562 C 92.027344 430.382812 90.933594 430.570312 89.964844 430.570312 Z M 87.246094 430.570312 "/>
<path fill-rule="nonzero" fill="rgb(0%, 0%, 0%)" fill-opacity="1" d="M 99.753906 434.539062 C 99.253906 434.632812 98.753906 435.070312 98.753906 435.664062 C 98.753906 436.289062 99.285156 436.820312 99.910156 436.820312 C 100.535156 436.820312 101.097656 436.351562 101.097656 435.695312 C 101.097656 435.070312 100.566406 434.507812 99.941406 434.507812 C 99.878906 434.507812 99.816406 434.539062 99.753906 434.539062 Z M 99.753906 434.539062 "/>
<path fill-rule="nonzero" fill="rgb(0%, 0%, 0%)" fill-opacity="1" d="M 115.65625 429.195312 C 115.65625 426.945312 115.75 424.382812 117.4375 422.695312 C 118.09375 422.039062 118.9375 421.570312 119.90625 421.507812 L 120.125 421.507812 C 120.96875 421.507812 121.84375 421.757812 122.375 422.476562 C 122.3125 422.445312 122.25 422.445312 122.15625 422.445312 C 121.625 422.445312 121.15625 422.851562 121.15625 423.445312 C 121.15625 424.007812 121.5625 424.476562 122.15625 424.476562 C 122.6875 424.476562 123.1875 424.070312 123.1875 423.476562 C 123.1875 421.726562 121.65625 420.945312 120.0625 420.945312 C 116.0625 420.945312 113.6875 425.320312 113.6875 429.070312 C 113.6875 432.289062 114.34375 437.320312 118.875 437.320312 C 120.78125 437.320312 122.25 436.132812 123.15625 434.601562 C 123.59375 433.757812 123.75 432.820312 123.75 431.914062 C 123.75 429.382812 121.9375 426.632812 119.03125 426.632812 C 117.78125 426.632812 116.78125 427.226562 116.15625 428.226562 C 115.96875 428.507812 115.75 428.851562 115.65625 429.195312 Z M 115.6875 431.507812 L 115.6875 431.320312 C 115.6875 429.445312 116.75 427.132812 118.90625 427.132812 C 120.625 427.132812 121.59375 428.757812 121.75 430.289062 C 121.78125 430.914062 121.78125 431.539062 121.78125 432.164062 C 121.78125 433.632812 121.65625 435.382812 120.28125 436.257812 C 119.84375 436.539062 119.34375 436.695312 118.8125 436.695312 C 116.53125 436.695312 115.84375 434.351562 115.71875 432.257812 C 115.71875 432.007812 115.71875 431.757812 115.6875 431.507812 Z M 115.6875 431.507812 "/>
<path fill-rule="nonzero" fill="rgb(0%, 0%, 0%)" fill-opacity="1" d="M 128.554688 434.539062 C 128.054688 434.632812 127.554688 435.070312 127.554688 435.664062 C 127.554688 436.289062 128.085938 436.820312 128.710938 436.820312 C 129.335938 436.820312 129.898438 436.351562 129.898438 435.695312 C 129.898438 435.070312 129.367188 434.507812 128.742188 434.507812 C 128.679688 434.507812 128.617188 434.539062 128.554688 434.539062 Z M 128.554688 434.539062 "/>
<path fill-rule="nonzero" fill="rgb(0%, 0%, 0%)" fill-opacity="1" d="M 133.40625 430.226562 L 133.40625 430.695312 L 152.34375 430.695312 L 152.34375 430.226562 Z M 133.40625 430.226562 "/>
<path fill-rule="nonzero" fill="rgb(0%, 0%, 0%)" fill-opacity="1" d="M 154.332031 420.507812 L 154.332031 421.195312 L 155.144531 421.195312 C 155.925781 421.195312 156.644531 421.289062 156.644531 422.164062 C 156.644531 422.351562 156.613281 422.476562 156.613281 422.632812 L 156.613281 435.070312 C 156.613281 436.039062 155.863281 436.132812 155.082031 436.132812 L 154.332031 436.132812 L 154.332031 436.820312 L 161.394531 436.820312 L 161.394531 436.132812 C 161.050781 436.132812 160.644531 436.164062 160.238281 436.164062 C 159.363281 436.164062 158.550781 436.007812 158.550781 435.070312 L 158.550781 421.976562 C 158.550781 421.320312 158.925781 421.195312 159.425781 421.195312 L 162.113281 421.195312 C 163.738281 421.195312 165.425781 421.351562 166.050781 423.507812 C 166.269531 424.289062 166.363281 425.039062 166.457031 425.820312 L 166.988281 425.820312 L 166.363281 420.507812 Z M 154.332031 420.507812 "/>
<path fill-rule="nonzero" fill="rgb(0%, 0%, 0%)" fill-opacity="1" d="M 168.667969 426.570312 L 168.667969 427.257812 L 169.105469 427.257812 C 169.824219 427.257812 170.511719 427.351562 170.511719 428.351562 L 170.511719 439.351562 C 170.511719 439.476562 170.511719 439.664062 170.511719 439.820312 C 170.511719 440.726562 169.792969 440.757812 169.011719 440.757812 L 168.667969 440.757812 L 168.667969 441.476562 L 173.855469 441.476562 L 173.855469 440.757812 L 173.355469 440.757812 C 172.667969 440.757812 172.042969 440.664062 172.042969 439.820312 L 172.074219 435.539062 C 172.667969 436.539062 173.980469 437.070312 175.074219 437.070312 C 177.980469 437.070312 180.167969 434.476562 180.167969 431.632812 C 180.167969 428.976562 178.136719 426.320312 175.261719 426.320312 C 173.949219 426.320312 172.855469 426.945312 172.011719 427.914062 L 172.011719 426.320312 Z M 178.292969 432.070312 C 178.167969 433.664062 177.605469 435.476562 176.011719 436.320312 C 175.636719 436.507812 175.261719 436.601562 174.855469 436.601562 C 173.730469 436.601562 172.042969 435.476562 172.042969 434.257812 L 172.042969 430.289062 C 172.042969 429.976562 172.042969 429.695312 172.042969 429.382812 C 172.042969 428.039062 173.667969 426.820312 175.074219 426.820312 C 177.480469 426.820312 178.324219 429.976562 178.324219 431.632812 C 178.324219 431.789062 178.324219 431.914062 178.292969 432.070312 Z M 178.292969 432.070312 "/>
<path fill-rule="nonzero" fill="rgb(0%, 0%, 0%)" fill-opacity="1" d="M 183.472656 428.039062 C 184.066406 427.132812 185.097656 426.664062 186.160156 426.664062 C 187.535156 426.664062 188.628906 428.039062 188.628906 429.382812 L 188.628906 430.664062 C 186.222656 430.664062 182.003906 431.320312 182.003906 434.601562 L 182.003906 434.851562 C 182.222656 436.476562 184.191406 437.101562 185.597656 437.101562 C 186.847656 437.101562 188.410156 436.320312 188.753906 435.007812 L 188.785156 435.007812 C 188.847656 436.132812 189.660156 436.945312 190.628906 436.945312 C 191.628906 436.945312 192.410156 436.101562 192.503906 435.101562 L 192.503906 433.351562 L 192.003906 433.351562 L 192.003906 434.539062 C 192.003906 435.226562 191.878906 436.257812 191.097656 436.257812 C 190.316406 436.257812 190.160156 435.226562 190.160156 434.632812 C 190.160156 434.351562 190.191406 434.101562 190.191406 433.851562 L 190.191406 430.507812 C 190.191406 430.257812 190.191406 429.976562 190.191406 429.695312 C 190.191406 427.445312 188.128906 426.195312 186.160156 426.195312 C 184.628906 426.195312 182.691406 427.101562 182.691406 428.976562 C 182.691406 429.664062 183.160156 430.039062 183.722656 430.039062 C 184.285156 430.039062 184.691406 429.570312 184.691406 429.039062 C 184.691406 428.445312 184.253906 428.039062 183.660156 428.039062 Z M 188.628906 431.101562 L 188.628906 433.351562 C 188.628906 435.070312 187.535156 436.601562 185.847656 436.601562 C 184.941406 436.601562 183.722656 435.882812 183.722656 434.664062 C 183.722656 432.539062 185.628906 431.476562 187.628906 431.195312 C 187.941406 431.132812 188.285156 431.164062 188.628906 431.101562 Z M 188.628906 431.101562 "/>
<path fill-rule="nonzero" fill="rgb(0%, 0%, 0%)" fill-opacity="1" d="M 199.253906 420.507812 L 199.253906 421.195312 L 199.753906 421.195312 C 200.503906 421.195312 201.066406 421.320312 201.066406 422.632812 L 201.035156 427.507812 C 200.628906 426.695312 199.503906 426.320312 198.628906 426.320312 C 195.628906 426.320312 193.566406 429.039062 193.566406 431.726562 C 193.566406 434.257812 195.597656 437.070312 198.660156 437.070312 C 199.597656 437.070312 200.503906 436.726562 201.035156 435.851562 L 201.066406 439.820312 C 201.066406 440.601562 200.785156 440.757812 199.253906 440.757812 L 199.253906 441.476562 L 204.378906 441.476562 L 204.378906 440.757812 L 203.847656 440.757812 C 203.191406 440.757812 202.566406 440.664062 202.566406 439.820312 L 202.597656 435.851562 C 203.160156 436.726562 204.066406 437.070312 204.972656 437.070312 C 207.910156 437.070312 210.066406 434.382812 210.066406 431.726562 C 210.066406 429.070312 207.972656 426.320312 205.003906 426.320312 C 204.128906 426.320312 203.003906 426.695312 202.597656 427.507812 L 202.566406 420.226562 Z M 195.410156 432.039062 L 195.410156 431.726562 C 195.410156 430.070312 196.003906 428.195312 197.472656 427.257812 C 197.878906 427.007812 198.378906 426.820312 198.878906 426.820312 C 199.847656 426.820312 200.910156 427.726562 201.066406 428.601562 L 201.066406 434.507812 C 201.066406 435.632812 199.847656 436.601562 198.878906 436.601562 C 197.035156 436.601562 195.816406 434.601562 195.535156 432.945312 C 195.472656 432.632812 195.441406 432.351562 195.410156 432.039062 Z M 208.222656 432.070312 C 208.035156 433.976562 207.003906 436.601562 204.753906 436.601562 C 203.753906 436.601562 202.566406 435.570312 202.566406 434.507812 L 202.566406 428.601562 C 202.753906 427.632812 203.847656 426.851562 204.785156 426.851562 C 207.191406 426.851562 208.222656 429.882812 208.222656 431.601562 C 208.222656 431.757812 208.222656 431.914062 208.222656 432.070312 Z M 208.222656 432.070312 "/>
<path fill-rule="nonzero" fill="rgb(0%, 0%, 0%)" fill-opacity="1" d="M 211.828125 426.570312 L 211.828125 427.257812 L 212.234375 427.257812 C 212.984375 427.257812 213.546875 427.382812 213.546875 428.445312 L 213.546875 435.132812 C 213.546875 436.007812 213.109375 436.132812 211.734375 436.132812 L 211.734375 436.820312 L 216.703125 436.820312 L 216.703125 436.132812 L 216.359375 436.132812 C 215.671875 436.132812 215.078125 436.101562 215.078125 435.289062 L 215.078125 426.320312 Z M 213.765625 420.976562 C 213.140625 421.070312 212.796875 421.601562 212.796875 422.101562 C 212.796875 422.601562 213.171875 423.257812 213.921875 423.257812 C 214.671875 423.257812 215.109375 422.695312 215.109375 422.132812 C 215.109375 421.632812 214.734375 420.945312 213.984375 420.945312 C 213.921875 420.945312 213.859375 420.976562 213.765625 420.976562 Z M 213.765625 420.976562 "/>
<path fill-rule="nonzero" fill="rgb(0%, 0%, 0%)" fill-opacity="1" d="M 218.089844 426.539062 L 218.089844 427.007812 L 218.589844 427.007812 C 219.277344 427.007812 219.902344 427.101562 219.902344 428.132812 L 219.902344 435.257812 C 219.902344 436.164062 219.527344 436.351562 218.089844 436.351562 L 218.089844 436.820312 L 223.214844 436.820312 L 223.214844 436.351562 L 222.714844 436.351562 C 221.996094 436.351562 221.402344 436.257812 221.402344 435.226562 L 221.402344 432.726562 C 221.402344 432.414062 221.714844 432.257812 221.964844 432.101562 C 222.339844 431.789062 222.714844 431.445312 223.121094 431.164062 C 223.371094 431.601562 223.714844 431.976562 223.996094 432.351562 C 224.652344 433.195312 225.308594 434.039062 225.933594 434.914062 C 226.121094 435.132812 226.339844 435.476562 226.339844 435.789062 C 226.339844 436.132812 225.964844 436.351562 225.496094 436.351562 L 225.496094 436.820312 L 230.027344 436.820312 L 230.027344 436.351562 C 228.746094 436.351562 228.277344 435.601562 227.621094 434.757812 C 226.621094 433.445312 225.621094 432.132812 224.589844 430.820312 C 224.464844 430.632812 224.308594 430.476562 224.183594 430.257812 C 224.589844 430.039062 224.933594 429.695312 225.277344 429.414062 C 226.496094 428.414062 228.058594 427.007812 229.496094 427.007812 L 229.496094 426.539062 L 225.652344 426.539062 L 225.652344 427.007812 L 225.871094 427.070312 C 226.027344 427.195312 226.121094 427.351562 226.121094 427.476562 C 226.121094 428.351562 224.871094 429.039062 224.183594 429.570312 C 223.277344 430.320312 222.308594 431.070312 221.402344 431.820312 L 221.402344 428.570312 C 221.402344 428.445312 221.371094 428.257812 221.371094 428.039062 C 221.371094 427.257812 221.746094 427.007812 223.214844 427.007812 L 223.214844 426.539062 Z M 218.089844 426.539062 "/>
<path fill-rule="nonzero" fill="rgb(0%, 0%, 0%)" fill-opacity="1" d="M 248.675781 428.539062 C 248.769531 428.226562 248.769531 428.195312 248.769531 428.039062 C 248.769531 427.632812 248.457031 427.445312 248.144531 427.445312 C 247.925781 427.445312 247.582031 427.570312 247.363281 427.914062 C 247.332031 428.007812 247.144531 428.695312 247.082031 429.101562 C 246.925781 429.664062 246.769531 430.257812 246.644531 430.820312 L 245.644531 434.757812 C 245.550781 435.070312 244.613281 436.601562 243.175781 436.601562 C 242.082031 436.601562 241.832031 435.664062 241.832031 434.851562 C 241.832031 433.851562 242.207031 432.476562 242.957031 430.570312 C 243.300781 429.664062 243.394531 429.445312 243.394531 429.007812 C 243.394531 428.007812 242.675781 427.195312 241.582031 427.195312 C 239.519531 427.195312 238.707031 430.382812 238.707031 430.570312 C 238.707031 430.789062 238.925781 430.789062 238.988281 430.789062 C 239.207031 430.789062 239.207031 430.757812 239.332031 430.382812 C 239.925781 428.351562 240.800781 427.695312 241.519531 427.695312 C 241.707031 427.695312 242.082031 427.695312 242.082031 428.382812 C 242.082031 428.945312 241.863281 429.507812 241.707031 429.914062 C 240.832031 432.226562 240.425781 433.476562 240.425781 434.507812 C 240.425781 436.445312 241.800781 437.101562 243.113281 437.101562 C 243.957031 437.101562 244.675781 436.726562 245.300781 436.101562 C 245.019531 437.257812 244.769531 438.320312 243.894531 439.476562 C 243.332031 440.195312 242.488281 440.851562 241.488281 440.851562 C 241.175781 440.851562 240.207031 440.789062 239.832031 439.914062 C 240.175781 439.914062 240.457031 439.914062 240.769531 439.664062 C 240.988281 439.476562 241.207031 439.195312 241.207031 438.757812 C 241.207031 438.101562 240.613281 438.007812 240.394531 438.007812 C 239.894531 438.007812 239.175781 438.351562 239.175781 439.414062 C 239.175781 440.507812 240.144531 441.320312 241.488281 441.320312 C 243.738281 441.320312 245.988281 439.351562 246.582031 436.882812 Z M 248.675781 428.539062 "/>
<path fill-rule="nonzero" fill="rgb(0%, 0%, 0%)" fill-opacity="1" d="M 270.601562 429.726562 C 270.914062 429.726562 271.320312 429.726562 271.320312 429.289062 C 271.320312 428.851562 270.914062 428.851562 270.601562 428.851562 L 257.539062 428.851562 C 257.226562 428.851562 256.820312 428.851562 256.820312 429.289062 C 256.820312 429.726562 257.226562 429.726562 257.570312 429.726562 Z M 270.601562 433.945312 C 270.914062 433.945312 271.320312 433.945312 271.320312 433.507812 C 271.320312 433.070312 270.914062 433.070312 270.601562 433.070312 L 257.570312 433.070312 C 257.226562 433.070312 256.820312 433.070312 256.820312 433.507812 C 256.820312 433.945312 257.226562 433.945312 257.539062 433.945312 Z M 270.601562 433.945312 "/>
<path fill-rule="nonzero" fill="rgb(0%, 0%, 0%)" fill-opacity="1" d="M 289.015625 423.570312 C 289.234375 423.320312 289.234375 423.257812 289.234375 422.789062 L 283.921875 422.789062 C 281.265625 422.789062 281.203125 422.507812 281.140625 422.101562 L 280.578125 422.101562 L 279.859375 426.601562 L 280.421875 426.601562 C 280.484375 426.257812 280.671875 424.882812 280.953125 424.601562 C 281.109375 424.476562 282.796875 424.476562 283.078125 424.476562 L 287.609375 424.476562 C 287.359375 424.820312 285.640625 427.195312 285.171875 427.945312 C 283.203125 430.882812 282.484375 433.914062 282.484375 436.132812 C 282.484375 436.351562 282.484375 437.320312 283.484375 437.320312 C 284.484375 437.320312 284.484375 436.351562 284.484375 436.132812 L 284.484375 435.007812 C 284.484375 433.820312 284.546875 432.632812 284.734375 431.445312 C 284.828125 430.945312 285.109375 429.070312 286.078125 427.726562 Z M 289.015625 423.570312 "/>
<path fill-rule="nonzero" fill="rgb(0%, 0%, 0%)" fill-opacity="1" d="M 296.722656 430.257812 C 296.847656 429.695312 297.347656 427.695312 298.878906 427.695312 C 299.003906 427.695312 299.503906 427.695312 299.972656 427.976562 C 299.378906 428.070312 298.941406 428.632812 298.941406 429.164062 C 298.941406 429.507812 299.160156 429.914062 299.753906 429.914062 C 300.253906 429.914062 300.941406 429.507812 300.941406 428.664062 C 300.941406 427.507812 299.660156 427.195312 298.910156 427.195312 C 297.628906 427.195312 296.878906 428.351562 296.628906 428.882812 C 296.066406 427.414062 294.878906 427.195312 294.253906 427.195312 C 292.003906 427.195312 290.753906 430.039062 290.753906 430.570312 C 290.753906 430.789062 290.972656 430.789062 291.003906 430.789062 C 291.191406 430.789062 291.253906 430.757812 291.285156 430.539062 C 292.035156 428.226562 293.472656 427.695312 294.222656 427.695312 C 294.628906 427.695312 295.410156 427.882812 295.410156 429.164062 C 295.410156 429.820312 295.035156 431.289062 294.222656 434.351562 C 293.878906 435.695312 293.097656 436.601562 292.160156 436.601562 C 292.003906 436.601562 291.503906 436.601562 291.066406 436.320312 C 291.597656 436.226562 292.066406 435.757812 292.066406 435.164062 C 292.066406 434.570312 291.597656 434.382812 291.285156 434.382812 C 290.628906 434.382812 290.066406 434.945312 290.066406 435.664062 C 290.066406 436.664062 291.160156 437.101562 292.128906 437.101562 C 293.566406 437.101562 294.347656 435.570312 294.410156 435.445312 C 294.691406 436.226562 295.472656 437.101562 296.785156 437.101562 C 299.003906 437.101562 300.253906 434.289062 300.253906 433.726562 C 300.253906 433.507812 300.066406 433.507812 300.003906 433.507812 C 299.816406 433.507812 299.753906 433.601562 299.722656 433.757812 C 299.003906 436.101562 297.503906 436.601562 296.816406 436.601562 C 295.972656 436.601562 295.628906 435.914062 295.628906 435.164062 C 295.628906 434.695312 295.753906 434.226562 295.972656 433.257812 Z M 296.722656 430.257812 "/>
<path fill-rule="nonzero" fill="rgb(0%, 0%, 0%)" fill-opacity="1" d="M 310.203125 425.746094 L 309.703125 425.746094 C 309.671875 425.996094 309.515625 427.058594 309.296875 427.339844 C 309.171875 427.496094 307.953125 427.496094 307.578125 427.496094 L 304.390625 427.496094 L 306.171875 425.808594 C 309.109375 423.277344 310.203125 422.308594 310.203125 420.496094 C 310.203125 418.433594 308.515625 416.996094 306.296875 416.996094 C 304.234375 416.996094 302.828125 418.621094 302.828125 420.246094 C 302.828125 421.152344 303.609375 421.246094 303.765625 421.246094 C 304.171875 421.246094 304.703125 420.964844 304.703125 420.308594 C 304.703125 419.777344 304.328125 419.371094 303.765625 419.371094 C 303.671875 419.371094 303.640625 419.371094 303.546875 419.402344 C 303.984375 418.121094 305.140625 417.558594 306.109375 417.558594 C 307.921875 417.558594 308.546875 419.246094 308.546875 420.496094 C 308.546875 422.308594 307.171875 423.808594 306.328125 424.746094 L 303.046875 428.277344 C 302.828125 428.496094 302.828125 428.527344 302.828125 428.933594 L 309.703125 428.933594 Z M 310.203125 425.746094 "/>
<path fill-rule="nonzero" fill="rgb(0%, 0%, 0%)" fill-opacity="1" d="M 315.304688 434.539062 C 314.804688 434.632812 314.335938 435.070312 314.335938 435.664062 C 314.335938 436.289062 314.835938 436.820312 315.460938 436.820312 C 316.085938 436.820312 316.648438 436.351562 316.648438 435.695312 C 316.648438 435.070312 316.117188 434.507812 315.492188 434.507812 C 315.429688 434.507812 315.367188 434.539062 315.304688 434.539062 Z M 315.304688 434.539062 "/>
</svg>
