<?xml version="1.0" encoding="UTF-8"?>
<svg xmlns="http://www.w3.org/2000/svg" xmlns:xlink="http://www.w3.org/1999/xlink" width="364" height="356" viewBox="0 0 364 356">
<path fill="none" stroke-width="11.9553" stroke-linecap="butt" stroke-linejoin="miter" stroke="rgb(0%, 0%, 0%)" stroke-opacity="1" stroke-miterlimit="10" d="M 979.999985 906.601549 L 1182.499982 906.601549 " transform="matrix(0.2, 0, 0, -0.2, 0, 356)"/>
<path fill="none" stroke-width="11.9553" stroke-linecap="butt" stroke-linejoin="miter" stroke="rgb(0%, 0%, 0%)" stroke-opacity="1" stroke-miterlimit="10" d="M 1182.499982 906.601549 L 1182.499982 1258.164044 " transform="matrix(0.2, 0, 0, -0.2, 0, 356)"/>
<path fill="none" stroke-width="7.9701" stroke-linecap="butt" stroke-linejoin="miter" stroke="rgb(0%, 0%, 0%)" stroke-opacity="1" stroke-miterlimit="10" d="M 979.999985 906.601549 L 979.999985 877.343737 " transform="matrix(0.2, 0, 0, -0.2, 0, 356)"/>
<path fill="none" stroke-width="7.9701" stroke-linecap="butt" stroke-linejoin="miter" stroke="rgb(0%, 0%, 0%)" stroke-opacity="1" stroke-miterlimit="10" d="M 979.999985 818.867175 L 979.999985 789.609363 " transform="matrix(0.2, 0, 0, -0.2, 0, 356)"/>
<path fill="none" stroke-width="7.9701" stroke-linecap="butt" stroke-linejoin="miter" stroke="rgb(0%, 0%, 0%)" stroke-opacity="1" stroke-miterlimit="10" d="M 979.999985 789.609363 L 979.999985 760.351551 " transform="matrix(0.2, 0, 0, -0.2, 0, 356)"/>
<path fill="none" stroke-width="7.9701" stroke-linecap="butt" stroke-linejoin="miter" stroke="rgb(0%, 0%, 0%)" stroke-opacity="1" stroke-miterlimit="10" d="M 979.999985 701.835927 L 979.999985 672.617177 " transform="matrix(0.2, 0, 0, -0.2, 0, 356)"/>
<path fill="none" stroke-width="7.9701" stroke-linecap="butt" stroke-linejoin="miter" stroke="rgb(0%, 0%, 0%)" stroke-opacity="1" stroke-miterlimit="10" d="M 979.999985 672.617177 L 979.999985 643.359365 " transform="matrix(0.2, 0, 0, -0.2, 0, 356)"/>
<path fill="none" stroke-width="7.9701" stroke-linecap="butt" stroke-linejoin="miter" stroke="rgb(0%, 0%, 0%)" stroke-opacity="1" stroke-miterlimit="10" d="M 979.999985 584.843741 L 979.999985 555.585929 " transform="matrix(0.2, 0, 0, -0.2, 0, 356)"/>
<path fill="none" stroke-width="7.9701" stroke-linecap="butt" stroke-linejoin="miter" stroke="rgb(0%, 0%, 0%)" stroke-opacity="1" stroke-miterlimit="10" d="M 979.999985 555.585929 L 979.999985 526.36718 " transform="matrix(0.2, 0, 0, -0.2, 0, 356)"/>
<path fill="none" stroke-width="7.9701" stroke-linecap="butt" stroke-linejoin="miter" stroke="rgb(0%, 0%, 0%)" stroke-opacity="1" stroke-miterlimit="10" d="M 979.999985 467.851556 L 979.999985 438.593743 " transform="matrix(0.2, 0, 0, -0.2, 0, 356)"/>
<path fill="none" stroke-width="7.9701" stroke-linecap="butt" stroke-linejoin="miter" stroke="rgb(0%, 0%, 0%)" stroke-opacity="1" stroke-miterlimit="10" d="M 979.999985 438.593743 L 979.999985 409.335931 " transform="matrix(0.2, 0, 0, -0.2, 0, 356)"/>
<path fill="none" stroke-width="7.9701" stroke-linecap="butt" stroke-linejoin="miter" stroke="rgb(0%, 0%, 0%)" stroke-opacity="1" stroke-miterlimit="10" d="M 979.999985 350.85937 L 979.999985 321.601558 " transform="matrix(0.2, 0, 0, -0.2, 0, 356)"/>
<path fill="none" stroke-width="7.9701" stroke-linecap="butt" stroke-linejoin="miter" stroke="rgb(0%, 0%, 0%)" stroke-opacity="1" stroke-miterlimit="10" d="M 1182.499982 906.601549 L 1182.499982 877.343737 " transform="matrix(0.2, 0, 0, -0.2, 0, 356)"/>
<path fill="none" stroke-width="7.9701" stroke-linecap="butt" stroke-linejoin="miter" stroke="rgb(0%, 0%, 0%)" stroke-opacity="1" stroke-miterlimit="10" d="M 1182.499982 818.867175 L 1182.499982 789.609363 " transform="matrix(0.2, 0, 0, -0.2, 0, 356)"/>
<path fill="none" stroke-width="7.9701" stroke-linecap="butt" stroke-linejoin="miter" stroke="rgb(0%, 0%, 0%)" stroke-opacity="1" stroke-miterlimit="10" d="M 1182.499982 789.609363 L 1182.499982 760.351551 " transform="matrix(0.2, 0, 0, -0.2, 0, 356)"/>
<path fill="none" stroke-width="7.9701" stroke-linecap="butt" stroke-linejoin="miter" stroke="rgb(0%, 0%, 0%)" stroke-opacity="1" stroke-miterlimit="10" d="M 1182.499982 701.835927 L 1182.499982 672.617177 " transform="matrix(0.2, 0, 0, -0.2, 0, 356)"/>
<path fill="none" stroke-width="7.9701" stroke-linecap="butt" stroke-linejoin="miter" stroke="rgb(0%, 0%, 0%)" stroke-opacity="1" stroke-miterlimit="10" d="M 1182.499982 672.617177 L 1182.499982 643.359365 " transform="matrix(0.2, 0, 0, -0.2, 0, 356)"/>
<path fill="none" stroke-width="7.9701" stroke-linecap="butt" stroke-linejoin="miter" stroke="rgb(0%, 0%, 0%)" stroke-opacity="1" stroke-miterlimit="10" d="M 1182.499982 584.843741 L 1182.499982 555.585929 " transform="matrix(0.2, 0, 0, -0.2, 0, 356)"/>
<path fill="none" stroke-width="7.9701" stroke-linecap="butt" stroke-linejoin="miter" stroke="rgb(0%, 0%, 0%)" stroke-opacity="1" stroke-miterlimit="10" d="M 1182.499982 555.585929 L 1182.499982 526.36718 " transform="matrix(0.2, 0, 0, -0.2, 0, 356)"/>
<path fill="none" stroke-width="7.9701" stroke-linecap="butt" stroke-linejoin="miter" stroke="rgb(0%, 0%, 0%)" stroke-opacity="1" stroke-miterlimit="10" d="M 1182.499982 467.851556 L 1182.499982 438.593743 " transform="matrix(0.2, 0, 0, -0.2, 0, 356)"/>
<path fill="none" stroke-width="7.9701" stroke-linecap="butt" stroke-linejoin="miter" stroke="rgb(0%, 0%, 0%)" stroke-opacity="1" stroke-miterlimit="10" d="M 1182.499982 438.593743 L 1182.499982 409.335931 " transform="matrix(0.2, 0, 0, -0.2, 0, 356)"/>
<path fill="none" stroke-width="7.9701" stroke-linecap="butt" stroke-linejoin="miter" stroke="rgb(0%, 0%, 0%)" stroke-opacity="1" stroke-miterlimit="10" d="M 1182.499982 350.85937 L 1182.499982 321.601558 " transform="matrix(0.2, 0, 0, -0.2, 0, 356)"/>
<path fill-rule="nonzero" fill="rgb(0%, 0%, 0%)" fill-opacity="1" d="M 215.503906 182.863281 C 215.503906 182.863281 215.503906 182.644531 215.222656 182.644531 C 214.910156 182.644531 212.816406 182.832031 212.441406 182.863281 C 212.285156 182.894531 212.160156 182.988281 212.160156 183.300781 C 212.160156 183.550781 212.347656 183.550781 212.660156 183.550781 C 213.722656 183.550781 213.753906 183.707031 213.753906 183.925781 L 213.691406 184.363281 L 212.378906 189.519531 C 212.003906 188.707031 211.378906 188.113281 210.378906 188.113281 C 207.816406 188.113281 205.128906 191.332031 205.128906 194.519531 C 205.128906 196.582031 206.316406 198.019531 208.035156 198.019531 C 208.472656 198.019531 209.566406 197.925781 210.847656 196.363281 C 211.035156 197.300781 211.816406 198.019531 212.847656 198.019531 C 213.597656 198.019531 214.097656 197.519531 214.472656 196.800781 C 214.847656 196.019531 215.128906 194.707031 215.128906 194.644531 C 215.128906 194.425781 214.910156 194.425781 214.847656 194.425781 C 214.628906 194.425781 214.628906 194.519531 214.535156 194.832031 C 214.191406 196.238281 213.785156 197.519531 212.878906 197.519531 C 212.316406 197.519531 212.222656 196.957031 212.222656 196.519531 C 212.222656 195.988281 212.285156 195.863281 212.378906 195.488281 Z M 210.972656 195.175781 C 210.847656 195.582031 210.847656 195.613281 210.535156 195.988281 C 209.566406 197.175781 208.691406 197.519531 208.066406 197.519531 C 206.972656 197.519531 206.660156 196.332031 206.660156 195.488281 C 206.660156 194.394531 207.378906 191.707031 207.878906 190.707031 C 208.566406 189.425781 209.535156 188.613281 210.410156 188.613281 C 211.816406 188.613281 212.128906 190.394531 212.128906 190.519531 C 212.128906 190.644531 212.097656 190.800781 212.066406 190.894531 Z M 210.972656 195.175781 "/>
<path fill-rule="nonzero" fill="rgb(0%, 0%, 0%)" fill-opacity="1" d="M 222.8125 191.175781 C 222.9375 190.613281 223.4375 188.613281 224.96875 188.613281 C 225.09375 188.613281 225.59375 188.613281 226.0625 188.894531 C 225.46875 188.988281 225.03125 189.550781 225.03125 190.082031 C 225.03125 190.425781 225.25 190.832031 225.84375 190.832031 C 226.34375 190.832031 227.03125 190.425781 227.03125 189.582031 C 227.03125 188.425781 225.75 188.113281 225 188.113281 C 223.71875 188.113281 222.96875 189.269531 222.71875 189.800781 C 222.15625 188.332031 220.96875 188.113281 220.34375 188.113281 C 218.09375 188.113281 216.84375 190.957031 216.84375 191.488281 C 216.84375 191.707031 217.0625 191.707031 217.09375 191.707031 C 217.28125 191.707031 217.34375 191.675781 217.375 191.457031 C 218.125 189.144531 219.5625 188.613281 220.3125 188.613281 C 220.71875 188.613281 221.5 188.800781 221.5 190.082031 C 221.5 190.738281 221.125 192.207031 220.3125 195.269531 C 219.96875 196.613281 219.1875 197.519531 218.25 197.519531 C 218.09375 197.519531 217.59375 197.519531 217.15625 197.238281 C 217.6875 197.144531 218.15625 196.675781 218.15625 196.082031 C 218.15625 195.488281 217.6875 195.300781 217.375 195.300781 C 216.71875 195.300781 216.15625 195.863281 216.15625 196.582031 C 216.15625 197.582031 217.25 198.019531 218.21875 198.019531 C 219.65625 198.019531 220.4375 196.488281 220.5 196.363281 C 220.78125 197.144531 221.5625 198.019531 222.875 198.019531 C 225.09375 198.019531 226.34375 195.207031 226.34375 194.644531 C 226.34375 194.425781 226.15625 194.425781 226.09375 194.425781 C 225.90625 194.425781 225.84375 194.519531 225.8125 194.675781 C 225.09375 197.019531 223.59375 197.519531 222.90625 197.519531 C 222.0625 197.519531 221.71875 196.832031 221.71875 196.082031 C 221.71875 195.613281 221.84375 195.144531 222.0625 194.175781 Z M 222.8125 191.175781 "/>
<path fill-rule="nonzero" fill="rgb(0%, 0%, 0%)" fill-opacity="1" d="M 255.722656 130.136719 C 255.722656 130.136719 255.722656 129.917969 255.441406 129.917969 C 255.128906 129.917969 253.035156 130.105469 252.660156 130.136719 C 252.503906 130.167969 252.378906 130.261719 252.378906 130.574219 C 252.378906 130.824219 252.566406 130.824219 252.878906 130.824219 C 253.941406 130.824219 253.972656 130.980469 253.972656 131.199219 L 253.910156 131.636719 L 252.597656 136.792969 C 252.222656 135.980469 251.597656 135.386719 250.597656 135.386719 C 248.035156 135.386719 245.347656 138.605469 245.347656 141.792969 C 245.347656 143.855469 246.535156 145.292969 248.253906 145.292969 C 248.691406 145.292969 249.785156 145.199219 251.066406 143.636719 C 251.253906 144.574219 252.035156 145.292969 253.066406 145.292969 C 253.816406 145.292969 254.316406 144.792969 254.691406 144.074219 C 255.066406 143.292969 255.347656 141.980469 255.347656 141.917969 C 255.347656 141.699219 255.128906 141.699219 255.066406 141.699219 C 254.847656 141.699219 254.847656 141.792969 254.753906 142.105469 C 254.410156 143.511719 254.003906 144.792969 253.097656 144.792969 C 252.535156 144.792969 252.441406 144.230469 252.441406 143.792969 C 252.441406 143.261719 252.503906 143.136719 252.597656 142.761719 Z M 251.191406 142.449219 C 251.066406 142.855469 251.066406 142.886719 250.753906 143.261719 C 249.785156 144.449219 248.910156 144.792969 248.285156 144.792969 C 247.191406 144.792969 246.878906 143.605469 246.878906 142.761719 C 246.878906 141.667969 247.597656 138.980469 248.097656 137.980469 C 248.785156 136.699219 249.753906 135.886719 250.628906 135.886719 C 252.035156 135.886719 252.347656 137.667969 252.347656 137.792969 C 252.347656 137.917969 252.316406 138.074219 252.285156 138.167969 Z M 251.191406 142.449219 "/>
<path fill-rule="nonzero" fill="rgb(0%, 0%, 0%)" fill-opacity="1" d="M 266.34375 136.730469 C 266.4375 136.417969 266.4375 136.386719 266.4375 136.230469 C 266.4375 135.824219 266.125 135.636719 265.8125 135.636719 C 265.59375 135.636719 265.25 135.761719 265.03125 136.105469 C 265 136.199219 264.8125 136.886719 264.75 137.292969 C 264.59375 137.855469 264.4375 138.449219 264.3125 139.011719 L 263.3125 142.949219 C 263.21875 143.261719 262.28125 144.792969 260.84375 144.792969 C 259.75 144.792969 259.5 143.855469 259.5 143.042969 C 259.5 142.042969 259.875 140.667969 260.625 138.761719 C 260.96875 137.855469 261.0625 137.636719 261.0625 137.199219 C 261.0625 136.199219 260.34375 135.386719 259.25 135.386719 C 257.1875 135.386719 256.375 138.574219 256.375 138.761719 C 256.375 138.980469 256.59375 138.980469 256.65625 138.980469 C 256.875 138.980469 256.875 138.949219 257 138.574219 C 257.59375 136.542969 258.46875 135.886719 259.1875 135.886719 C 259.375 135.886719 259.75 135.886719 259.75 136.574219 C 259.75 137.136719 259.53125 137.699219 259.375 138.105469 C 258.5 140.417969 258.09375 141.667969 258.09375 142.699219 C 258.09375 144.636719 259.46875 145.292969 260.78125 145.292969 C 261.625 145.292969 262.34375 144.917969 262.96875 144.292969 C 262.6875 145.449219 262.4375 146.511719 261.5625 147.667969 C 261 148.386719 260.15625 149.042969 259.15625 149.042969 C 258.84375 149.042969 257.875 148.980469 257.5 148.105469 C 257.84375 148.105469 258.125 148.105469 258.4375 147.855469 C 258.65625 147.667969 258.875 147.386719 258.875 146.949219 C 258.875 146.292969 258.28125 146.199219 258.0625 146.199219 C 257.5625 146.199219 256.84375 146.542969 256.84375 147.605469 C 256.84375 148.699219 257.8125 149.511719 259.15625 149.511719 C 261.40625 149.511719 263.65625 147.542969 264.25 145.074219 Z M 266.34375 136.730469 "/>
<path fill="none" stroke-width="11.9553" stroke-linecap="butt" stroke-linejoin="miter" stroke="rgb(0%, 0%, 0%)" stroke-opacity="1" stroke-miterlimit="10" d="M 777.499988 583.164054 L 807.890613 629.882803 L 838.281238 677.226552 L 868.6328 725.234364 L 899.023424 773.867176 L 929.374986 823.124988 L 959.765611 873.007799 L 990.117173 923.515611 L 1020.507797 974.687485 L 1050.898422 1026.445297 L 1081.249984 1078.867171 L 1111.640608 1131.914046 L 1142.031233 1185.624982 L 1172.382795 1239.921857 L 1202.77342 1294.882793 L 1233.124982 1350.46873 L 1263.515606 1406.679667 L 1293.906231 1463.515603 L 1324.257793 1521.015602 L 1354.648417 1579.101539 L 1385.039042 1637.851538 " transform="matrix(0.2, 0, 0, -0.2, 0, 356)"/>
<path fill-rule="nonzero" fill="rgb(100%, 100%, 100%)" fill-opacity="1" d="M 4.695312 291.703125 L 33.976562 291.703125 L 33.976562 318.585938 L 4.695312 318.585938 Z M 4.695312 291.703125 "/>
<path fill-rule="nonzero" fill="rgb(0%, 0%, 0%)" fill-opacity="1" d="M 26.875 303.058594 C 26.875 299.527344 24.5625 297.183594 21.3125 297.183594 C 16.59375 297.183594 11.78125 302.121094 11.78125 307.214844 C 11.78125 310.839844 14.21875 313.027344 17.375 313.027344 C 22 313.027344 26.875 308.246094 26.875 303.058594 Z M 17.5 312.464844 C 15.34375 312.464844 13.8125 310.714844 13.8125 307.839844 C 13.8125 306.871094 14.125 303.683594 15.8125 301.121094 C 17.3125 298.871094 19.4375 297.714844 21.15625 297.714844 C 22.96875 297.714844 24.90625 298.933594 24.90625 302.183594 C 24.90625 303.777344 24.34375 307.183594 22.15625 309.839844 C 21.125 311.183594 19.34375 312.464844 17.5 312.464844 Z M 17.5 312.464844 "/>
<path fill-rule="nonzero" fill="rgb(100%, 100%, 100%)" fill-opacity="1" d="M 338.15625 291.703125 L 370.078125 291.703125 L 370.078125 318.585938 L 338.15625 318.585938 Z M 338.15625 291.703125 "/>
<path fill-rule="nonzero" fill="rgb(0%, 0%, 0%)" fill-opacity="1" d="M 354.773438 303.589844 L 352.929688 299.246094 C 352.867188 299.089844 352.804688 298.996094 352.804688 298.964844 C 352.804688 298.839844 353.179688 298.433594 354.117188 298.339844 C 354.335938 298.308594 354.554688 298.308594 354.554688 297.933594 C 354.554688 297.652344 354.273438 297.652344 354.210938 297.652344 C 353.304688 297.652344 352.367188 297.714844 351.460938 297.714844 C 350.929688 297.714844 349.554688 297.652344 349.023438 297.652344 C 348.898438 297.652344 348.617188 297.652344 348.617188 298.089844 C 348.617188 298.339844 348.835938 298.339844 349.117188 298.339844 C 350.429688 298.339844 350.585938 298.558594 350.773438 299.027344 L 353.335938 305.121094 L 348.742188 310.058594 L 348.460938 310.308594 C 347.398438 311.464844 346.367188 311.808594 345.242188 311.871094 C 344.960938 311.902344 344.773438 311.902344 344.773438 312.308594 C 344.773438 312.339844 344.773438 312.558594 345.054688 312.558594 C 345.710938 312.558594 346.429688 312.496094 347.117188 312.496094 C 347.898438 312.496094 348.773438 312.558594 349.554688 312.558594 C 349.679688 312.558594 349.929688 312.558594 349.929688 312.121094 C 349.929688 311.902344 349.710938 311.871094 349.679688 311.871094 C 349.492188 311.871094 348.804688 311.808594 348.804688 311.214844 C 348.804688 310.871094 349.117188 310.496094 349.398438 310.214844 L 351.617188 307.871094 L 353.585938 305.746094 L 355.773438 310.933594 C 355.867188 311.183594 355.898438 311.214844 355.898438 311.246094 C 355.898438 311.433594 355.492188 311.808594 354.617188 311.871094 C 354.398438 311.902344 354.179688 311.933594 354.179688 312.308594 C 354.179688 312.558594 354.429688 312.558594 354.523438 312.558594 C 355.117188 312.558594 356.648438 312.496094 357.273438 312.496094 C 357.804688 312.496094 359.148438 312.558594 359.679688 312.558594 C 359.835938 312.558594 360.117188 312.558594 360.117188 312.152344 C 360.117188 311.871094 359.898438 311.871094 359.710938 311.871094 C 358.242188 311.871094 358.210938 311.808594 357.835938 310.933594 C 356.992188 308.902344 355.523438 305.496094 355.023438 304.183594 C 356.492188 302.652344 358.804688 300.058594 359.492188 299.464844 C 360.117188 298.933594 360.960938 298.402344 362.273438 298.339844 C 362.554688 298.308594 362.742188 298.308594 362.742188 297.902344 C 362.742188 297.871094 362.742188 297.652344 362.460938 297.652344 C 361.804688 297.652344 361.085938 297.714844 360.398438 297.714844 C 359.585938 297.714844 358.773438 297.652344 357.992188 297.652344 C 357.867188 297.652344 357.585938 297.652344 357.585938 298.089844 C 357.585938 298.246094 357.679688 298.308594 357.835938 298.339844 C 358.023438 298.371094 358.710938 298.402344 358.710938 299.027344 C 358.710938 299.308594 358.460938 299.589844 358.304688 299.808594 Z M 354.773438 303.589844 "/>
<path fill-rule="nonzero" fill="rgb(100%, 100%, 100%)" fill-opacity="1" d="M 4.453125 -5.757812 L 33.976562 -5.757812 L 33.976562 21.125 L 4.453125 21.125 Z M 4.453125 -5.757812 "/>
<path fill-rule="nonzero" fill="rgb(0%, 0%, 0%)" fill-opacity="1" d="M 23.511719 2.695312 L 23.792969 2.382812 C 24.449219 1.726562 25.167969 0.976562 26.667969 0.882812 C 26.917969 0.851562 27.105469 0.851562 27.105469 0.476562 C 27.105469 0.289062 26.980469 0.195312 26.824219 0.195312 C 26.261719 0.195312 25.605469 0.257812 25.042969 0.257812 C 24.324219 0.257812 23.542969 0.195312 22.855469 0.195312 C 22.730469 0.195312 22.449219 0.195312 22.449219 0.632812 C 22.449219 0.851562 22.636719 0.882812 22.761719 0.882812 C 22.917969 0.882812 23.542969 0.914062 23.542969 1.382812 C 23.542969 1.757812 23.042969 2.320312 22.949219 2.414062 L 17.886719 8.257812 L 15.511719 1.789062 C 15.355469 1.476562 15.355469 1.414062 15.355469 1.414062 C 15.355469 0.882812 16.449219 0.882812 16.667969 0.882812 C 16.949219 0.882812 17.167969 0.882812 17.167969 0.445312 C 17.167969 0.195312 16.917969 0.195312 16.855469 0.195312 C 16.230469 0.195312 14.699219 0.257812 14.105469 0.257812 C 13.542969 0.257812 12.199219 0.195312 11.667969 0.195312 C 11.542969 0.195312 11.230469 0.195312 11.230469 0.632812 C 11.230469 0.882812 11.449219 0.882812 11.730469 0.882812 C 13.042969 0.882812 13.136719 1.070312 13.324219 1.632812 L 16.011719 8.789062 C 16.042969 8.851562 16.105469 9.101562 16.105469 9.164062 C 16.105469 9.226562 15.230469 12.757812 15.136719 13.132812 C 14.855469 14.351562 14.824219 14.414062 13.074219 14.414062 C 12.667969 14.414062 12.480469 14.414062 12.480469 14.851562 C 12.480469 15.101562 12.761719 15.101562 12.792969 15.101562 C 13.417969 15.101562 14.917969 15.039062 15.542969 15.039062 C 16.136719 15.039062 17.730469 15.101562 18.324219 15.101562 C 18.480469 15.101562 18.761719 15.101562 18.761719 14.664062 C 18.761719 14.414062 18.542969 14.414062 18.136719 14.414062 C 18.105469 14.414062 17.667969 14.414062 17.292969 14.382812 C 16.855469 14.351562 16.730469 14.289062 16.730469 14.039062 C 16.730469 13.882812 16.917969 13.101562 17.011719 12.664062 L 17.792969 9.570312 C 17.886719 9.164062 17.917969 9.101562 18.105469 8.914062 Z M 23.511719 2.695312 "/>
<path fill="none" stroke-width="11.9553" stroke-linecap="butt" stroke-linejoin="miter" stroke="rgb(0%, 0%, 0%)" stroke-opacity="1" stroke-miterlimit="10" d="M 8.007812 321.601558 L 1790.039036 321.601558 " transform="matrix(0.2, 0, 0, -0.2, 0, 356)"/>
<path fill="none" stroke-width="11.9553" stroke-linecap="butt" stroke-linejoin="miter" stroke="rgb(0%, 0%, 0%)" stroke-opacity="1" stroke-miterlimit="10" d="M 169.999997 177.617185 L 169.999997 1761.601536 " transform="matrix(0.2, 0, 0, -0.2, 0, 356)"/>
<path fill-rule="nonzero" fill="rgb(0%, 0%, 0%)" fill-opacity="1" d="M 157.839844 348.300781 C 159.027344 347.894531 161.027344 347.300781 161.027344 345.363281 C 161.027344 343.050781 158.308594 341.988281 156.339844 341.988281 C 155.402344 341.988281 154.433594 342.207031 153.589844 342.707031 C 153.464844 342.769531 153.308594 342.957031 153.152344 342.957031 C 152.839844 342.957031 152.277344 341.988281 151.964844 341.988281 C 151.777344 341.988281 151.746094 342.207031 151.746094 342.300781 L 151.746094 345.863281 C 151.746094 345.988281 151.839844 346.144531 152.027344 346.144531 C 152.339844 346.144531 152.308594 345.519531 152.402344 345.175781 C 152.871094 343.457031 154.433594 342.707031 155.933594 342.613281 L 156.339844 342.613281 C 157.683594 342.613281 159.246094 343.488281 159.246094 345.363281 C 159.246094 347.175781 157.464844 348.113281 155.808594 348.113281 C 155.496094 348.113281 155.183594 348.113281 154.871094 348.113281 L 154.714844 348.113281 C 154.527344 348.113281 154.308594 348.113281 154.308594 348.332031 L 154.308594 348.363281 C 154.339844 348.550781 154.527344 348.582031 154.714844 348.582031 L 156.558594 348.582031 C 158.121094 348.707031 159.558594 349.738281 159.714844 351.363281 L 159.714844 351.582031 C 159.714844 353.425781 157.996094 354.582031 156.246094 354.582031 C 154.339844 354.582031 152.371094 353.957031 152.058594 351.582031 C 152.058594 351.425781 151.996094 351.238281 151.777344 351.238281 C 151.558594 351.269531 151.527344 351.425781 151.527344 351.582031 C 151.527344 354.175781 154.121094 355.207031 156.371094 355.207031 C 158.433594 355.207031 161.308594 354.238281 161.558594 351.769531 L 161.558594 351.644531 C 161.558594 349.675781 159.496094 348.707031 157.839844 348.300781 Z M 157.839844 348.300781 "/>
<path fill-rule="nonzero" fill="rgb(0%, 0%, 0%)" fill-opacity="1" d="M 169.933594 341.988281 C 166.558594 342.394531 163.871094 345.050781 163.871094 348.644531 C 163.871094 351.925781 166.464844 355.175781 170.339844 355.175781 C 173.839844 355.175781 176.808594 352.269531 176.808594 348.644531 C 176.808594 345.457031 174.308594 341.988281 170.371094 341.988281 C 170.246094 341.988281 170.089844 341.988281 169.933594 341.988281 Z M 165.746094 348.863281 L 165.746094 348.519531 C 165.746094 346.019531 166.652344 343.082031 169.808594 342.550781 C 169.996094 342.519531 170.152344 342.519531 170.339844 342.519531 C 173.152344 342.519531 174.902344 345.238281 174.902344 348.269531 C 174.902344 350.675781 174.183594 353.738281 171.214844 354.519531 C 170.933594 354.582031 170.652344 354.613281 170.371094 354.613281 L 170.183594 354.613281 C 167.589844 354.519531 166.183594 352.050781 165.839844 349.644531 Z M 165.746094 348.863281 "/>
<path fill-rule="nonzero" fill="rgb(0%, 0%, 0%)" fill-opacity="1" d="M 179.265625 342.332031 L 179.265625 342.925781 L 179.703125 342.925781 C 180.296875 342.925781 180.921875 343.019531 180.921875 343.894531 L 180.921875 353.363281 C 180.921875 354.207031 180.203125 354.238281 179.546875 354.238281 L 179.265625 354.238281 L 179.265625 354.832031 L 185.046875 354.832031 C 185.453125 354.832031 185.828125 354.863281 186.234375 354.863281 C 188.234375 354.863281 190.578125 353.925781 190.796875 351.519531 L 190.796875 351.332031 C 190.796875 348.800781 187.921875 347.769531 186.015625 347.769531 C 184.765625 347.769531 183.578125 347.894531 182.390625 347.988281 L 182.390625 343.769531 C 182.390625 343.332031 182.453125 342.925781 183.234375 342.925781 L 185.546875 342.925781 C 186.515625 342.925781 187.609375 342.988281 188.328125 343.707031 C 189.015625 344.425781 189.109375 345.644531 189.203125 346.582031 L 189.734375 346.582031 L 189.265625 342.332031 Z M 182.390625 348.613281 C 182.640625 348.613281 182.890625 348.550781 183.140625 348.519531 L 184.515625 348.457031 C 184.796875 348.425781 185.078125 348.394531 185.390625 348.394531 C 186.953125 348.394531 188.921875 349.394531 188.921875 351.238281 C 188.921875 352.988281 187.578125 354.269531 185.578125 354.269531 C 185.296875 354.269531 184.984375 354.238281 184.734375 354.238281 L 183.203125 354.238281 C 182.734375 354.238281 182.484375 354.207031 182.390625 353.582031 Z M 182.390625 348.613281 "/>
<path fill-rule="nonzero" fill="rgb(0%, 0%, 0%)" fill-opacity="1" d="M 193.148438 342.332031 L 193.148438 342.925781 L 193.617188 342.925781 C 194.210938 342.925781 194.804688 343.019531 194.804688 343.894531 L 194.804688 353.363281 C 194.804688 354.207031 194.117188 354.238281 193.429688 354.238281 L 193.148438 354.238281 L 193.148438 354.832031 L 198.054688 354.832031 L 198.054688 354.238281 L 197.617188 354.238281 C 196.992188 354.238281 196.398438 354.175781 196.398438 353.300781 L 196.398438 349.113281 L 200.117188 349.113281 C 201.898438 348.988281 204.179688 347.800781 204.179688 345.769531 C 204.179688 343.550781 201.835938 342.488281 199.929688 342.332031 Z M 196.367188 348.582031 L 196.367188 343.582031 C 196.460938 342.988281 196.710938 342.925781 197.117188 342.925781 L 198.554688 342.925781 C 200.179688 342.925781 202.304688 342.988281 202.304688 345.769531 C 202.304688 346.425781 202.210938 347.113281 201.804688 347.613281 C 201.148438 348.394531 200.054688 348.582031 199.085938 348.582031 Z M 196.367188 348.582031 "/>
<path fill-rule="nonzero" fill="rgb(0%, 0%, 0%)" fill-opacity="1" d="M 208.875 352.550781 C 208.375 352.644531 207.875 353.082031 207.875 353.675781 C 207.875 354.300781 208.40625 354.832031 209.03125 354.832031 C 209.65625 354.832031 210.21875 354.363281 210.21875 353.707031 C 210.21875 353.082031 209.6875 352.519531 209.0625 352.519531 C 209 352.519531 208.9375 352.550781 208.875 352.550781 Z M 208.875 352.550781 "/>
<path fill-rule="nonzero" fill="rgb(0%, 0%, 0%)" fill-opacity="1" d="M 230.871094 347.050781 L 230.902344 347.050781 C 230.902344 349.175781 230.871094 351.550781 229.464844 353.300781 C 228.777344 354.144531 227.808594 354.707031 226.683594 354.707031 C 225.777344 354.707031 224.808594 354.519531 224.214844 353.800781 C 224.777344 353.800781 225.371094 353.582031 225.371094 352.832031 C 225.371094 352.332031 225.058594 351.800781 224.402344 351.800781 C 223.871094 351.800781 223.402344 352.175781 223.371094 352.738281 L 223.371094 352.832031 C 223.371094 354.613281 225.089844 355.332031 226.777344 355.332031 C 228.808594 355.332031 230.371094 354.113281 231.371094 352.519531 C 232.496094 350.863281 232.871094 348.894531 232.871094 346.957031 C 232.871094 344.144531 232.402344 340.425781 229.402344 339.207031 C 228.902344 339.019531 228.339844 338.957031 227.808594 338.957031 C 224.839844 338.957031 222.808594 341.582031 222.808594 344.332031 C 222.808594 346.832031 224.558594 349.613281 227.496094 349.613281 C 228.996094 349.613281 230.433594 348.675781 230.871094 347.050781 Z M 230.839844 344.238281 C 230.839844 344.457031 230.871094 344.707031 230.871094 344.957031 C 230.777344 346.707031 229.964844 349.113281 227.652344 349.113281 C 225.277344 349.113281 224.777344 346.488281 224.777344 344.644531 L 224.777344 343.488281 C 224.808594 341.800781 225.527344 339.519531 227.808594 339.519531 C 230.308594 339.519531 230.839844 342.488281 230.839844 344.019531 Z M 230.839844 344.238281 "/>
<path fill-rule="nonzero" fill="rgb(0%, 0%, 0%)" fill-opacity="1" d="M 237.671875 352.550781 C 237.171875 352.644531 236.671875 353.082031 236.671875 353.675781 C 236.671875 354.300781 237.203125 354.832031 237.828125 354.832031 C 238.453125 354.832031 239.015625 354.363281 239.015625 353.707031 C 239.015625 353.082031 238.484375 352.519531 237.859375 352.519531 C 237.796875 352.519531 237.734375 352.550781 237.671875 352.550781 Z M 237.671875 352.550781 "/>
</svg>
