<?xml version="1.0" encoding="UTF-8"?>
<svg xmlns="http://www.w3.org/2000/svg" xmlns:xlink="http://www.w3.org/1999/xlink" width="364" height="356" viewBox="0 0 364 356">
<path fill="none" stroke-width="11.9553" stroke-linecap="butt" stroke-linejoin="miter" stroke="rgb(0%, 0%, 0%)" stroke-opacity="1" stroke-miterlimit="10" d="M 979.999985 1086.601546 L 1182.499982 1086.601546 " transform="matrix(0.2, 0, 0, -0.2, 0, 356)"/>
<path fill="none" stroke-width="11.9553" stroke-linecap="butt" stroke-linejoin="miter" stroke="rgb(0%, 0%, 0%)" stroke-opacity="1" stroke-miterlimit="10" d="M 1182.499982 1086.601546 L 1182.499982 1185.039045 " transform="matrix(0.2, 0, 0, -0.2, 0, 356)"/>
<path fill="none" stroke-width="7.9701" stroke-linecap="butt" stroke-linejoin="miter" stroke="rgb(0%, 0%, 0%)" stroke-opacity="1" stroke-miterlimit="10" d="M 979.999985 1086.601546 L 979.999985 1059.296859 " transform="matrix(0.2, 0, 0, -0.2, 0, 356)"/>
<path fill="none" stroke-width="7.9701" stroke-linecap="butt" stroke-linejoin="miter" stroke="rgb(0%, 0%, 0%)" stroke-opacity="1" stroke-miterlimit="10" d="M 979.999985 1004.648423 L 979.999985 977.343735 " transform="matrix(0.2, 0, 0, -0.2, 0, 356)"/>
<path fill="none" stroke-width="7.9701" stroke-linecap="butt" stroke-linejoin="miter" stroke="rgb(0%, 0%, 0%)" stroke-opacity="1" stroke-miterlimit="10" d="M 979.999985 977.343735 L 979.999985 949.999986 " transform="matrix(0.2, 0, 0, -0.2, 0, 356)"/>
<path fill="none" stroke-width="7.9701" stroke-linecap="butt" stroke-linejoin="miter" stroke="rgb(0%, 0%, 0%)" stroke-opacity="1" stroke-miterlimit="10" d="M 979.999985 895.351549 L 979.999985 868.046862 " transform="matrix(0.2, 0, 0, -0.2, 0, 356)"/>
<path fill="none" stroke-width="7.9701" stroke-linecap="butt" stroke-linejoin="miter" stroke="rgb(0%, 0%, 0%)" stroke-opacity="1" stroke-miterlimit="10" d="M 979.999985 868.046862 L 979.999985 840.703112 " transform="matrix(0.2, 0, 0, -0.2, 0, 356)"/>
<path fill="none" stroke-width="7.9701" stroke-linecap="butt" stroke-linejoin="miter" stroke="rgb(0%, 0%, 0%)" stroke-opacity="1" stroke-miterlimit="10" d="M 979.999985 786.054676 L 979.999985 758.749989 " transform="matrix(0.2, 0, 0, -0.2, 0, 356)"/>
<path fill="none" stroke-width="7.9701" stroke-linecap="butt" stroke-linejoin="miter" stroke="rgb(0%, 0%, 0%)" stroke-opacity="1" stroke-miterlimit="10" d="M 979.999985 758.749989 L 979.999985 731.445302 " transform="matrix(0.2, 0, 0, -0.2, 0, 356)"/>
<path fill="none" stroke-width="7.9701" stroke-linecap="butt" stroke-linejoin="miter" stroke="rgb(0%, 0%, 0%)" stroke-opacity="1" stroke-miterlimit="10" d="M 979.999985 676.796865 L 979.999985 649.453115 " transform="matrix(0.2, 0, 0, -0.2, 0, 356)"/>
<path fill="none" stroke-width="7.9701" stroke-linecap="butt" stroke-linejoin="miter" stroke="rgb(0%, 0%, 0%)" stroke-opacity="1" stroke-miterlimit="10" d="M 979.999985 649.453115 L 979.999985 622.148428 " transform="matrix(0.2, 0, 0, -0.2, 0, 356)"/>
<path fill="none" stroke-width="7.9701" stroke-linecap="butt" stroke-linejoin="miter" stroke="rgb(0%, 0%, 0%)" stroke-opacity="1" stroke-miterlimit="10" d="M 979.999985 567.499992 L 979.999985 540.195304 " transform="matrix(0.2, 0, 0, -0.2, 0, 356)"/>
<path fill="none" stroke-width="7.9701" stroke-linecap="butt" stroke-linejoin="miter" stroke="rgb(0%, 0%, 0%)" stroke-opacity="1" stroke-miterlimit="10" d="M 979.999985 540.195304 L 979.999985 512.851555 " transform="matrix(0.2, 0, 0, -0.2, 0, 356)"/>
<path fill="none" stroke-width="7.9701" stroke-linecap="butt" stroke-linejoin="miter" stroke="rgb(0%, 0%, 0%)" stroke-opacity="1" stroke-miterlimit="10" d="M 979.999985 458.203118 L 979.999985 430.898431 " transform="matrix(0.2, 0, 0, -0.2, 0, 356)"/>
<path fill="none" stroke-width="7.9701" stroke-linecap="butt" stroke-linejoin="miter" stroke="rgb(0%, 0%, 0%)" stroke-opacity="1" stroke-miterlimit="10" d="M 979.999985 430.898431 L 979.999985 403.554681 " transform="matrix(0.2, 0, 0, -0.2, 0, 356)"/>
<path fill="none" stroke-width="7.9701" stroke-linecap="butt" stroke-linejoin="miter" stroke="rgb(0%, 0%, 0%)" stroke-opacity="1" stroke-miterlimit="10" d="M 979.999985 348.906245 L 979.999985 321.601558 " transform="matrix(0.2, 0, 0, -0.2, 0, 356)"/>
<path fill="none" stroke-width="7.9701" stroke-linecap="butt" stroke-linejoin="miter" stroke="rgb(0%, 0%, 0%)" stroke-opacity="1" stroke-miterlimit="10" d="M 1182.499982 1086.601546 L 1182.499982 1059.296859 " transform="matrix(0.2, 0, 0, -0.2, 0, 356)"/>
<path fill="none" stroke-width="7.9701" stroke-linecap="butt" stroke-linejoin="miter" stroke="rgb(0%, 0%, 0%)" stroke-opacity="1" stroke-miterlimit="10" d="M 1182.499982 1004.648423 L 1182.499982 977.343735 " transform="matrix(0.2, 0, 0, -0.2, 0, 356)"/>
<path fill="none" stroke-width="7.9701" stroke-linecap="butt" stroke-linejoin="miter" stroke="rgb(0%, 0%, 0%)" stroke-opacity="1" stroke-miterlimit="10" d="M 1182.499982 977.343735 L 1182.499982 949.999986 " transform="matrix(0.2, 0, 0, -0.2, 0, 356)"/>
<path fill="none" stroke-width="7.9701" stroke-linecap="butt" stroke-linejoin="miter" stroke="rgb(0%, 0%, 0%)" stroke-opacity="1" stroke-miterlimit="10" d="M 1182.499982 895.351549 L 1182.499982 868.046862 " transform="matrix(0.2, 0, 0, -0.2, 0, 356)"/>
<path fill="none" stroke-width="7.9701" stroke-linecap="butt" stroke-linejoin="miter" stroke="rgb(0%, 0%, 0%)" stroke-opacity="1" stroke-miterlimit="10" d="M 1182.499982 868.046862 L 1182.499982 840.703112 " transform="matrix(0.2, 0, 0, -0.2, 0, 356)"/>
<path fill="none" stroke-width="7.9701" stroke-linecap="butt" stroke-linejoin="miter" stroke="rgb(0%, 0%, 0%)" stroke-opacity="1" stroke-miterlimit="10" d="M 1182.499982 786.054676 L 1182.499982 758.749989 " transform="matrix(0.2, 0, 0, -0.2, 0, 356)"/>
<path fill="none" stroke-width="7.9701" stroke-linecap="butt" stroke-linejoin="miter" stroke="rgb(0%, 0%, 0%)" stroke-opacity="1" stroke-miterlimit="10" d="M 1182.499982 758.749989 L 1182.499982 731.445302 " transform="matrix(0.2, 0, 0, -0.2, 0, 356)"/>
<path fill="none" stroke-width="7.9701" stroke-linecap="butt" stroke-linejoin="miter" stroke="rgb(0%, 0%, 0%)" stroke-opacity="1" stroke-miterlimit="10" d="M 1182.499982 676.796865 L 1182.499982 649.453115 " transform="matrix(0.2, 0, 0, -0.2, 0, 356)"/>
<path fill="none" stroke-width="7.9701" stroke-linecap="butt" stroke-linejoin="miter" stroke="rgb(0%, 0%, 0%)" stroke-opacity="1" stroke-miterlimit="10" d="M 1182.499982 649.453115 L 1182.499982 622.148428 " transform="matrix(0.2, 0, 0, -0.2, 0, 356)"/>
<path fill="none" stroke-width="7.9701" stroke-linecap="butt" stroke-linejoin="miter" stroke="rgb(0%, 0%, 0%)" stroke-opacity="1" stroke-miterlimit="10" d="M 1182.499982 567.499992 L 1182.499982 540.195304 " transform="matrix(0.2, 0, 0, -0.2, 0, 356)"/>
<path fill="none" stroke-width="7.9701" stroke-linecap="butt" stroke-linejoin="miter" stroke="rgb(0%, 0%, 0%)" stroke-opacity="1" stroke-miterlimit="10" d="M 1182.499982 540.195304 L 1182.499982 512.851555 " transform="matrix(0.2, 0, 0, -0.2, 0, 356)"/>
<path fill="none" stroke-width="7.9701" stroke-linecap="butt" stroke-linejoin="miter" stroke="rgb(0%, 0%, 0%)" stroke-opacity="1" stroke-miterlimit="10" d="M 1182.499982 458.203118 L 1182.499982 430.898431 " transform="matrix(0.2, 0, 0, -0.2, 0, 356)"/>
<path fill="none" stroke-width="7.9701" stroke-linecap="butt" stroke-linejoin="miter" stroke="rgb(0%, 0%, 0%)" stroke-opacity="1" stroke-miterlimit="10" d="M 1182.499982 430.898431 L 1182.499982 403.554681 " transform="matrix(0.2, 0, 0, -0.2, 0, 356)"/>
<path fill="none" stroke-width="7.9701" stroke-linecap="butt" stroke-linejoin="miter" stroke="rgb(0%, 0%, 0%)" stroke-opacity="1" stroke-miterlimit="10" d="M 1182.499982 348.906245 L 1182.499982 321.601558 " transform="matrix(0.2, 0, 0, -0.2, 0, 356)"/>
<path fill-rule="nonzero" fill="rgb(0%, 0%, 0%)" fill-opacity="1" d="M 215.503906 146.863281 C 215.503906 146.863281 215.503906 146.644531 215.222656 146.644531 C 214.910156 146.644531 212.816406 146.832031 212.441406 146.863281 C 212.285156 146.894531 212.160156 146.988281 212.160156 147.300781 C 212.160156 147.550781 212.347656 147.550781 212.660156 147.550781 C 213.722656 147.550781 213.753906 147.707031 213.753906 147.925781 L 213.691406 148.363281 L 212.378906 153.519531 C 212.003906 152.707031 211.378906 152.113281 210.378906 152.113281 C 207.816406 152.113281 205.128906 155.332031 205.128906 158.519531 C 205.128906 160.582031 206.316406 162.019531 208.035156 162.019531 C 208.472656 162.019531 209.566406 161.925781 210.847656 160.363281 C 211.035156 161.300781 211.816406 162.019531 212.847656 162.019531 C 213.597656 162.019531 214.097656 161.519531 214.472656 160.800781 C 214.847656 160.019531 215.128906 158.707031 215.128906 158.644531 C 215.128906 158.425781 214.910156 158.425781 214.847656 158.425781 C 214.628906 158.425781 214.628906 158.519531 214.535156 158.832031 C 214.191406 160.238281 213.785156 161.519531 212.878906 161.519531 C 212.316406 161.519531 212.222656 160.957031 212.222656 160.519531 C 212.222656 159.988281 212.285156 159.863281 212.378906 159.488281 Z M 210.972656 159.175781 C 210.847656 159.582031 210.847656 159.613281 210.535156 159.988281 C 209.566406 161.175781 208.691406 161.519531 208.066406 161.519531 C 206.972656 161.519531 206.660156 160.332031 206.660156 159.488281 C 206.660156 158.394531 207.378906 155.707031 207.878906 154.707031 C 208.566406 153.425781 209.535156 152.613281 210.410156 152.613281 C 211.816406 152.613281 212.128906 154.394531 212.128906 154.519531 C 212.128906 154.644531 212.097656 154.800781 212.066406 154.894531 Z M 210.972656 159.175781 "/>
<path fill-rule="nonzero" fill="rgb(0%, 0%, 0%)" fill-opacity="1" d="M 222.8125 155.175781 C 222.9375 154.613281 223.4375 152.613281 224.96875 152.613281 C 225.09375 152.613281 225.59375 152.613281 226.0625 152.894531 C 225.46875 152.988281 225.03125 153.550781 225.03125 154.082031 C 225.03125 154.425781 225.25 154.832031 225.84375 154.832031 C 226.34375 154.832031 227.03125 154.425781 227.03125 153.582031 C 227.03125 152.425781 225.75 152.113281 225 152.113281 C 223.71875 152.113281 222.96875 153.269531 222.71875 153.800781 C 222.15625 152.332031 220.96875 152.113281 220.34375 152.113281 C 218.09375 152.113281 216.84375 154.957031 216.84375 155.488281 C 216.84375 155.707031 217.0625 155.707031 217.09375 155.707031 C 217.28125 155.707031 217.34375 155.675781 217.375 155.457031 C 218.125 153.144531 219.5625 152.613281 220.3125 152.613281 C 220.71875 152.613281 221.5 152.800781 221.5 154.082031 C 221.5 154.738281 221.125 156.207031 220.3125 159.269531 C 219.96875 160.613281 219.1875 161.519531 218.25 161.519531 C 218.09375 161.519531 217.59375 161.519531 217.15625 161.238281 C 217.6875 161.144531 218.15625 160.675781 218.15625 160.082031 C 218.15625 159.488281 217.6875 159.300781 217.375 159.300781 C 216.71875 159.300781 216.15625 159.863281 216.15625 160.582031 C 216.15625 161.582031 217.25 162.019531 218.21875 162.019531 C 219.65625 162.019531 220.4375 160.488281 220.5 160.363281 C 220.78125 161.144531 221.5625 162.019531 222.875 162.019531 C 225.09375 162.019531 226.34375 159.207031 226.34375 158.644531 C 226.34375 158.425781 226.15625 158.425781 226.09375 158.425781 C 225.90625 158.425781 225.84375 158.519531 225.8125 158.675781 C 225.09375 161.019531 223.59375 161.519531 222.90625 161.519531 C 222.0625 161.519531 221.71875 160.832031 221.71875 160.082031 C 221.71875 159.613281 221.84375 159.144531 222.0625 158.175781 Z M 222.8125 155.175781 "/>
<path fill-rule="nonzero" fill="rgb(0%, 0%, 0%)" fill-opacity="1" d="M 255.722656 119.449219 C 255.722656 119.449219 255.722656 119.230469 255.441406 119.230469 C 255.128906 119.230469 253.035156 119.417969 252.660156 119.449219 C 252.503906 119.480469 252.378906 119.574219 252.378906 119.886719 C 252.378906 120.136719 252.566406 120.136719 252.878906 120.136719 C 253.941406 120.136719 253.972656 120.292969 253.972656 120.511719 L 253.910156 120.949219 L 252.597656 126.105469 C 252.222656 125.292969 251.597656 124.699219 250.597656 124.699219 C 248.035156 124.699219 245.347656 127.917969 245.347656 131.105469 C 245.347656 133.167969 246.535156 134.605469 248.253906 134.605469 C 248.691406 134.605469 249.785156 134.511719 251.066406 132.949219 C 251.253906 133.886719 252.035156 134.605469 253.066406 134.605469 C 253.816406 134.605469 254.316406 134.105469 254.691406 133.386719 C 255.066406 132.605469 255.347656 131.292969 255.347656 131.230469 C 255.347656 131.011719 255.128906 131.011719 255.066406 131.011719 C 254.847656 131.011719 254.847656 131.105469 254.753906 131.417969 C 254.410156 132.824219 254.003906 134.105469 253.097656 134.105469 C 252.535156 134.105469 252.441406 133.542969 252.441406 133.105469 C 252.441406 132.574219 252.503906 132.449219 252.597656 132.074219 Z M 251.191406 131.761719 C 251.066406 132.167969 251.066406 132.199219 250.753906 132.574219 C 249.785156 133.761719 248.910156 134.105469 248.285156 134.105469 C 247.191406 134.105469 246.878906 132.917969 246.878906 132.074219 C 246.878906 130.980469 247.597656 128.292969 248.097656 127.292969 C 248.785156 126.011719 249.753906 125.199219 250.628906 125.199219 C 252.035156 125.199219 252.347656 126.980469 252.347656 127.105469 C 252.347656 127.230469 252.316406 127.386719 252.285156 127.480469 Z M 251.191406 131.761719 "/>
<path fill-rule="nonzero" fill="rgb(0%, 0%, 0%)" fill-opacity="1" d="M 266.34375 126.042969 C 266.4375 125.730469 266.4375 125.699219 266.4375 125.542969 C 266.4375 125.136719 266.125 124.949219 265.8125 124.949219 C 265.59375 124.949219 265.25 125.074219 265.03125 125.417969 C 265 125.511719 264.8125 126.199219 264.75 126.605469 C 264.59375 127.167969 264.4375 127.761719 264.3125 128.324219 L 263.3125 132.261719 C 263.21875 132.574219 262.28125 134.105469 260.84375 134.105469 C 259.75 134.105469 259.5 133.167969 259.5 132.355469 C 259.5 131.355469 259.875 129.980469 260.625 128.074219 C 260.96875 127.167969 261.0625 126.949219 261.0625 126.511719 C 261.0625 125.511719 260.34375 124.699219 259.25 124.699219 C 257.1875 124.699219 256.375 127.886719 256.375 128.074219 C 256.375 128.292969 256.59375 128.292969 256.65625 128.292969 C 256.875 128.292969 256.875 128.261719 257 127.886719 C 257.59375 125.855469 258.46875 125.199219 259.1875 125.199219 C 259.375 125.199219 259.75 125.199219 259.75 125.886719 C 259.75 126.449219 259.53125 127.011719 259.375 127.417969 C 258.5 129.730469 258.09375 130.980469 258.09375 132.011719 C 258.09375 133.949219 259.46875 134.605469 260.78125 134.605469 C 261.625 134.605469 262.34375 134.230469 262.96875 133.605469 C 262.6875 134.761719 262.4375 135.824219 261.5625 136.980469 C 261 137.699219 260.15625 138.355469 259.15625 138.355469 C 258.84375 138.355469 257.875 138.292969 257.5 137.417969 C 257.84375 137.417969 258.125 137.417969 258.4375 137.167969 C 258.65625 136.980469 258.875 136.699219 258.875 136.261719 C 258.875 135.605469 258.28125 135.511719 258.0625 135.511719 C 257.5625 135.511719 256.84375 135.855469 256.84375 136.917969 C 256.84375 138.011719 257.8125 138.824219 259.15625 138.824219 C 261.40625 138.824219 263.65625 136.855469 264.25 134.386719 Z M 266.34375 126.042969 "/>
<path fill="none" stroke-width="11.9553" stroke-linecap="butt" stroke-linejoin="miter" stroke="rgb(0%, 0%, 0%)" stroke-opacity="1" stroke-miterlimit="10" d="M 372.499994 892.539049 L 423.124994 902.929674 L 473.749993 914.335924 L 524.374992 926.835924 L 574.999991 940.351548 L 625.624991 954.960923 L 676.24999 970.585923 L 726.874989 987.304673 L 777.499988 1005.039048 L 828.124988 1023.867172 L 878.749987 1043.710922 L 929.374986 1064.648422 L 979.999985 1086.601546 L 1030.624985 1109.648421 L 1081.249984 1133.710921 L 1131.874983 1158.86717 L 1182.499982 1185.039045 L 1233.124982 1212.304669 L 1283.789043 1240.585919 L 1334.37498 1269.960919 L 1385.039042 1300.351543 " transform="matrix(0.2, 0, 0, -0.2, 0, 356)"/>
<path fill-rule="nonzero" fill="rgb(100%, 100%, 100%)" fill-opacity="1" d="M 4.695312 291.703125 L 33.976562 291.703125 L 33.976562 318.585938 L 4.695312 318.585938 Z M 4.695312 291.703125 "/>
<path fill-rule="nonzero" fill="rgb(0%, 0%, 0%)" fill-opacity="1" d="M 26.875 303.058594 C 26.875 299.527344 24.5625 297.183594 21.3125 297.183594 C 16.59375 297.183594 11.78125 302.121094 11.78125 307.214844 C 11.78125 310.839844 14.21875 313.027344 17.375 313.027344 C 22 313.027344 26.875 308.246094 26.875 303.058594 Z M 17.5 312.464844 C 15.34375 312.464844 13.8125 310.714844 13.8125 307.839844 C 13.8125 306.871094 14.125 303.683594 15.8125 301.121094 C 17.3125 298.871094 19.4375 297.714844 21.15625 297.714844 C 22.96875 297.714844 24.90625 298.933594 24.90625 302.183594 C 24.90625 303.777344 24.34375 307.183594 22.15625 309.839844 C 21.125 311.183594 19.34375 312.464844 17.5 312.464844 Z M 17.5 312.464844 "/>
<path fill-rule="nonzero" fill="rgb(100%, 100%, 100%)" fill-opacity="1" d="M 338.15625 291.703125 L 370.078125 291.703125 L 370.078125 318.585938 L 338.15625 318.585938 Z M 338.15625 291.703125 "/>
<path fill-rule="nonzero" fill="rgb(0%, 0%, 0%)" fill-opacity="1" d="M 354.773438 303.589844 L 352.929688 299.246094 C 352.867188 299.089844 352.804688 298.996094 352.804688 298.964844 C 352.804688 298.839844 353.179688 298.433594 354.117188 298.339844 C 354.335938 298.308594 354.554688 298.308594 354.554688 297.933594 C 354.554688 297.652344 354.273438 297.652344 354.210938 297.652344 C 353.304688 297.652344 352.367188 297.714844 351.460938 297.714844 C 350.929688 297.714844 349.554688 297.652344 349.023438 297.652344 C 348.898438 297.652344 348.617188 297.652344 348.617188 298.089844 C 348.617188 298.339844 348.835938 298.339844 349.117188 298.339844 C 350.429688 298.339844 350.585938 298.558594 350.773438 299.027344 L 353.335938 305.121094 L 348.742188 310.058594 L 348.460938 310.308594 C 347.398438 311.464844 346.367188 311.808594 345.242188 311.871094 C 344.960938 311.902344 344.773438 311.902344 344.773438 312.308594 C 344.773438 312.339844 344.773438 312.558594 345.054688 312.558594 C 345.710938 312.558594 346.429688 312.496094 347.117188 312.496094 C 347.898438 312.496094 348.773438 312.558594 349.554688 312.558594 C 349.679688 312.558594 349.929688 312.558594 349.929688 312.121094 C 349.929688 311.902344 349.710938 311.871094 349.679688 311.871094 C 349.492188 311.871094 348.804688 311.808594 348.804688 311.214844 C 348.804688 310.871094 349.117188 310.496094 349.398438 310.214844 L 351.617188 307.871094 L 353.585938 305.746094 L 355.773438 310.933594 C 355.867188 311.183594 355.898438 311.214844 355.898438 311.246094 C 355.898438 311.433594 355.492188 311.808594 354.617188 311.871094 C 354.398438 311.902344 354.179688 311.933594 354.179688 312.308594 C 354.179688 312.558594 354.429688 312.558594 354.523438 312.558594 C 355.117188 312.558594 356.648438 312.496094 357.273438 312.496094 C 357.804688 312.496094 359.148438 312.558594 359.679688 312.558594 C 359.835938 312.558594 360.117188 312.558594 360.117188 312.152344 C 360.117188 311.871094 359.898438 311.871094 359.710938 311.871094 C 358.242188 311.871094 358.210938 311.808594 357.835938 310.933594 C 356.992188 308.902344 355.523438 305.496094 355.023438 304.183594 C 356.492188 302.652344 358.804688 300.058594 359.492188 299.464844 C 360.117188 298.933594 360.960938 298.402344 362.273438 298.339844 C 362.554688 298.308594 362.742188 298.308594 362.742188 297.902344 C 362.742188 297.871094 362.742188 297.652344 362.460938 297.652344 C 361.804688 297.652344 361.085938 297.714844 360.398438 297.714844 C 359.585938 297.714844 358.773438 297.652344 357.992188 297.652344 C 357.867188 297.652344 357.585938 297.652344 357.585938 298.089844 C 357.585938 298.246094 357.679688 298.308594 357.835938 298.339844 C 358.023438 298.371094 358.710938 298.402344 358.710938 299.027344 C 358.710938 299.308594 358.460938 299.589844 358.304688 299.808594 Z M 354.773438 303.589844 "/>
<path fill-rule="nonzero" fill="rgb(100%, 100%, 100%)" fill-opacity="1" d="M 4.453125 -5.757812 L 33.976562 -5.757812 L 33.976562 21.125 L 4.453125 21.125 Z M 4.453125 -5.757812 "/>
<path fill-rule="nonzero" fill="rgb(0%, 0%, 0%)" fill-opacity="1" d="M 23.511719 2.695312 L 23.792969 2.382812 C 24.449219 1.726562 25.167969 0.976562 26.667969 0.882812 C 26.917969 0.851562 27.105469 0.851562 27.105469 0.476562 C 27.105469 0.289062 26.980469 0.195312 26.824219 0.195312 C 26.261719 0.195312 25.605469 0.257812 25.042969 0.257812 C 24.324219 0.257812 23.542969 0.195312 22.855469 0.195312 C 22.730469 0.195312 22.449219 0.195312 22.449219 0.632812 C 22.449219 0.851562 22.636719 0.882812 22.761719 0.882812 C 22.917969 0.882812 23.542969 0.914062 23.542969 1.382812 C 23.542969 1.757812 23.042969 2.320312 22.949219 2.414062 L 17.886719 8.257812 L 15.511719 1.789062 C 15.355469 1.476562 15.355469 1.414062 15.355469 1.414062 C 15.355469 0.882812 16.449219 0.882812 16.667969 0.882812 C 16.949219 0.882812 17.167969 0.882812 17.167969 0.445312 C 17.167969 0.195312 16.917969 0.195312 16.855469 0.195312 C 16.230469 0.195312 14.699219 0.257812 14.105469 0.257812 C 13.542969 0.257812 12.199219 0.195312 11.667969 0.195312 C 11.542969 0.195312 11.230469 0.195312 11.230469 0.632812 C 11.230469 0.882812 11.449219 0.882812 11.730469 0.882812 C 13.042969 0.882812 13.136719 1.070312 13.324219 1.632812 L 16.011719 8.789062 C 16.042969 8.851562 16.105469 9.101562 16.105469 9.164062 C 16.105469 9.226562 15.230469 12.757812 15.136719 13.132812 C 14.855469 14.351562 14.824219 14.414062 13.074219 14.414062 C 12.667969 14.414062 12.480469 14.414062 12.480469 14.851562 C 12.480469 15.101562 12.761719 15.101562 12.792969 15.101562 C 13.417969 15.101562 14.917969 15.039062 15.542969 15.039062 C 16.136719 15.039062 17.730469 15.101562 18.324219 15.101562 C 18.480469 15.101562 18.761719 15.101562 18.761719 14.664062 C 18.761719 14.414062 18.542969 14.414062 18.136719 14.414062 C 18.105469 14.414062 17.667969 14.414062 17.292969 14.382812 C 16.855469 14.351562 16.730469 14.289062 16.730469 14.039062 C 16.730469 13.882812 16.917969 13.101562 17.011719 12.664062 L 17.792969 9.570312 C 17.886719 9.164062 17.917969 9.101562 18.105469 8.914062 Z M 23.511719 2.695312 "/>
<path fill="none" stroke-width="11.9553" stroke-linecap="butt" stroke-linejoin="miter" stroke="rgb(0%, 0%, 0%)" stroke-opacity="1" stroke-miterlimit="10" d="M 8.007812 321.601558 L 1790.039036 321.601558 " transform="matrix(0.2, 0, 0, -0.2, 0, 356)"/>
<path fill="none" stroke-width="11.9553" stroke-linecap="butt" stroke-linejoin="miter" stroke="rgb(0%, 0%, 0%)" stroke-opacity="1" stroke-miterlimit="10" d="M 169.999997 177.617185 L 169.999997 1761.601536 " transform="matrix(0.2, 0, 0, -0.2, 0, 356)"/>
<path fill-rule="nonzero" fill="rgb(0%, 0%, 0%)" fill-opacity="1" d="M 151.597656 348.300781 C 152.785156 347.894531 154.785156 347.300781 154.785156 345.363281 C 154.785156 343.050781 152.066406 341.988281 150.097656 341.988281 C 149.160156 341.988281 148.191406 342.207031 147.347656 342.707031 C 147.222656 342.769531 147.066406 342.957031 146.910156 342.957031 C 146.597656 342.957031 146.035156 341.988281 145.722656 341.988281 C 145.535156 341.988281 145.503906 342.207031 145.503906 342.300781 L 145.503906 345.863281 C 145.503906 345.988281 145.597656 346.144531 145.785156 346.144531 C 146.097656 346.144531 146.066406 345.519531 146.160156 345.175781 C 146.628906 343.457031 148.191406 342.707031 149.691406 342.613281 L 150.097656 342.613281 C 151.441406 342.613281 153.003906 343.488281 153.003906 345.363281 C 153.003906 347.175781 151.222656 348.113281 149.566406 348.113281 C 149.253906 348.113281 148.941406 348.113281 148.628906 348.113281 L 148.472656 348.113281 C 148.285156 348.113281 148.066406 348.113281 148.066406 348.332031 L 148.066406 348.363281 C 148.097656 348.550781 148.285156 348.582031 148.472656 348.582031 L 150.316406 348.582031 C 151.878906 348.707031 153.316406 349.738281 153.472656 351.363281 L 153.472656 351.582031 C 153.472656 353.425781 151.753906 354.582031 150.003906 354.582031 C 148.097656 354.582031 146.128906 353.957031 145.816406 351.582031 C 145.816406 351.425781 145.753906 351.238281 145.535156 351.238281 C 145.316406 351.269531 145.285156 351.425781 145.285156 351.582031 C 145.285156 354.175781 147.878906 355.207031 150.128906 355.207031 C 152.191406 355.207031 155.066406 354.238281 155.316406 351.769531 L 155.316406 351.644531 C 155.316406 349.675781 153.253906 348.707031 151.597656 348.300781 Z M 151.597656 348.300781 "/>
<path fill-rule="nonzero" fill="rgb(0%, 0%, 0%)" fill-opacity="1" d="M 163.695312 341.988281 C 160.320312 342.394531 157.632812 345.050781 157.632812 348.644531 C 157.632812 351.925781 160.226562 355.175781 164.101562 355.175781 C 167.601562 355.175781 170.570312 352.269531 170.570312 348.644531 C 170.570312 345.457031 168.070312 341.988281 164.132812 341.988281 C 164.007812 341.988281 163.851562 341.988281 163.695312 341.988281 Z M 159.507812 348.863281 L 159.507812 348.519531 C 159.507812 346.019531 160.414062 343.082031 163.570312 342.550781 C 163.757812 342.519531 163.914062 342.519531 164.101562 342.519531 C 166.914062 342.519531 168.664062 345.238281 168.664062 348.269531 C 168.664062 350.675781 167.945312 353.738281 164.976562 354.519531 C 164.695312 354.582031 164.414062 354.613281 164.132812 354.613281 L 163.945312 354.613281 C 161.351562 354.519531 159.945312 352.050781 159.601562 349.644531 Z M 159.507812 348.863281 "/>
<path fill-rule="nonzero" fill="rgb(0%, 0%, 0%)" fill-opacity="1" d="M 173.027344 342.332031 L 173.027344 342.925781 L 173.464844 342.925781 C 174.058594 342.925781 174.683594 343.019531 174.683594 343.894531 L 174.683594 353.363281 C 174.683594 354.207031 173.964844 354.238281 173.308594 354.238281 L 173.027344 354.238281 L 173.027344 354.832031 L 178.808594 354.832031 C 179.214844 354.832031 179.589844 354.863281 179.996094 354.863281 C 181.996094 354.863281 184.339844 353.925781 184.558594 351.519531 L 184.558594 351.332031 C 184.558594 348.800781 181.683594 347.769531 179.777344 347.769531 C 178.527344 347.769531 177.339844 347.894531 176.152344 347.988281 L 176.152344 343.769531 C 176.152344 343.332031 176.214844 342.925781 176.996094 342.925781 L 179.308594 342.925781 C 180.277344 342.925781 181.371094 342.988281 182.089844 343.707031 C 182.777344 344.425781 182.871094 345.644531 182.964844 346.582031 L 183.496094 346.582031 L 183.027344 342.332031 Z M 176.152344 348.613281 C 176.402344 348.613281 176.652344 348.550781 176.902344 348.519531 L 178.277344 348.457031 C 178.558594 348.425781 178.839844 348.394531 179.152344 348.394531 C 180.714844 348.394531 182.683594 349.394531 182.683594 351.238281 C 182.683594 352.988281 181.339844 354.269531 179.339844 354.269531 C 179.058594 354.269531 178.746094 354.238281 178.496094 354.238281 L 176.964844 354.238281 C 176.496094 354.238281 176.246094 354.207031 176.152344 353.582031 Z M 176.152344 348.613281 "/>
<path fill-rule="nonzero" fill="rgb(0%, 0%, 0%)" fill-opacity="1" d="M 186.90625 342.332031 L 186.90625 342.925781 L 187.375 342.925781 C 187.96875 342.925781 188.5625 343.019531 188.5625 343.894531 L 188.5625 353.363281 C 188.5625 354.207031 187.875 354.238281 187.1875 354.238281 L 186.90625 354.238281 L 186.90625 354.832031 L 191.8125 354.832031 L 191.8125 354.238281 L 191.375 354.238281 C 190.75 354.238281 190.15625 354.175781 190.15625 353.300781 L 190.15625 349.113281 L 193.875 349.113281 C 195.65625 348.988281 197.9375 347.800781 197.9375 345.769531 C 197.9375 343.550781 195.59375 342.488281 193.6875 342.332031 Z M 190.125 348.582031 L 190.125 343.582031 C 190.21875 342.988281 190.46875 342.925781 190.875 342.925781 L 192.3125 342.925781 C 193.9375 342.925781 196.0625 342.988281 196.0625 345.769531 C 196.0625 346.425781 195.96875 347.113281 195.5625 347.613281 C 194.90625 348.394531 193.8125 348.582031 192.84375 348.582031 Z M 190.125 348.582031 "/>
<path fill-rule="nonzero" fill="rgb(0%, 0%, 0%)" fill-opacity="1" d="M 202.632812 352.550781 C 202.132812 352.644531 201.632812 353.082031 201.632812 353.675781 C 201.632812 354.300781 202.164062 354.832031 202.789062 354.832031 C 203.414062 354.832031 203.976562 354.363281 203.976562 353.707031 C 203.976562 353.082031 203.445312 352.519531 202.820312 352.519531 C 202.757812 352.519531 202.695312 352.550781 202.632812 352.550781 Z M 202.632812 352.550781 "/>
<path fill-rule="nonzero" fill="rgb(0%, 0%, 0%)" fill-opacity="1" d="M 217.816406 340.457031 L 217.816406 341.175781 C 218.910156 341.175781 219.941406 340.988281 220.972656 340.519531 L 220.972656 353.082031 C 220.972656 354.019531 220.066406 354.175781 219.097656 354.175781 C 218.691406 354.175781 218.285156 354.144531 217.941406 354.144531 L 217.941406 354.832031 L 225.660156 354.832031 L 225.660156 354.144531 C 225.285156 354.144531 224.847656 354.175781 224.441406 354.175781 C 223.503906 354.175781 222.628906 354.019531 222.628906 353.113281 L 222.628906 339.300781 C 222.628906 339.144531 222.597656 338.957031 222.347656 338.957031 C 222.035156 338.957031 221.691406 339.394531 221.378906 339.582031 C 220.316406 340.269531 219.035156 340.457031 217.816406 340.457031 Z M 217.816406 340.457031 "/>
<path fill-rule="nonzero" fill="rgb(0%, 0%, 0%)" fill-opacity="1" d="M 233.996094 338.957031 C 229.433594 339.363281 229.277344 344.832031 229.277344 347.269531 C 229.277344 349.519531 229.496094 352.175781 230.964844 353.894531 C 231.777344 354.800781 233.027344 355.363281 234.246094 355.363281 C 239.121094 355.363281 239.339844 349.519531 239.339844 347.082031 C 239.339844 344.832031 239.152344 342.144531 237.652344 340.457031 C 236.839844 339.519531 235.621094 338.925781 234.339844 338.925781 C 234.214844 338.925781 234.089844 338.957031 233.996094 338.957031 Z M 231.121094 348.582031 C 231.089844 348.394531 231.089844 348.175781 231.089844 347.957031 L 231.089844 346.925781 C 231.089844 345.738281 231.121094 344.550781 231.246094 343.363281 C 231.339844 342.457031 231.464844 341.488281 231.996094 340.707031 C 232.527344 339.925781 233.371094 339.425781 234.308594 339.425781 C 236.433594 339.425781 237.183594 341.488281 237.371094 343.207031 C 237.496094 344.300781 237.496094 345.394531 237.496094 346.488281 C 237.496094 347.488281 237.496094 348.519531 237.433594 349.519531 C 237.371094 351.457031 237.246094 354.269531 234.777344 354.800781 C 234.621094 354.832031 234.464844 354.863281 234.308594 354.863281 C 231.277344 354.863281 231.339844 350.988281 231.121094 348.582031 Z M 231.121094 348.582031 "/>
<path fill-rule="nonzero" fill="rgb(0%, 0%, 0%)" fill-opacity="1" d="M 244.140625 352.550781 C 243.640625 352.644531 243.140625 353.082031 243.140625 353.675781 C 243.140625 354.300781 243.671875 354.832031 244.296875 354.832031 C 244.921875 354.832031 245.484375 354.363281 245.484375 353.707031 C 245.484375 353.082031 244.953125 352.519531 244.328125 352.519531 C 244.265625 352.519531 244.203125 352.550781 244.140625 352.550781 Z M 244.140625 352.550781 "/>
</svg>
