<?xml version="1.0" encoding="UTF-8"?>
<svg xmlns="http://www.w3.org/2000/svg" xmlns:xlink="http://www.w3.org/1999/xlink" width="418" height="356" viewBox="0 0 418 356">
<path fill="none" stroke-width="11.9553" stroke-linecap="butt" stroke-linejoin="miter" stroke="rgb(0%, 0%, 0%)" stroke-opacity="1" stroke-miterlimit="10" d="M 562.499992 872.851549 L 764.999989 872.851549 " transform="matrix(0.2, 0, 0, -0.2, 0, 356)"/>
<path fill="none" stroke-width="11.9553" stroke-linecap="butt" stroke-linejoin="miter" stroke="rgb(0%, 0%, 0%)" stroke-opacity="1" stroke-miterlimit="10" d="M 764.999989 974.101548 L 764.999989 872.851549 " transform="matrix(0.2, 0, 0, -0.2, 0, 356)"/>
<path fill="none" stroke-width="11.9553" stroke-linecap="butt" stroke-linejoin="miter" stroke="rgb(0%, 0%, 0%)" stroke-opacity="1" stroke-miterlimit="10" d="M 1147.499983 1165.351545 L 1350.039042 1165.351545 " transform="matrix(0.2, 0, 0, -0.2, 0, 356)"/>
<path fill="none" stroke-width="11.9553" stroke-linecap="butt" stroke-linejoin="miter" stroke="rgb(0%, 0%, 0%)" stroke-opacity="1" stroke-miterlimit="10" d="M 1350.039042 1266.601544 L 1350.039042 1165.351545 " transform="matrix(0.2, 0, 0, -0.2, 0, 356)"/>
<path fill="none" stroke-width="11.9553" stroke-linecap="butt" stroke-linejoin="miter" stroke="rgb(0%, 0%, 0%)" stroke-opacity="1" stroke-miterlimit="10" d="M 1732.539037 1457.851541 L 1935.039034 1457.851541 " transform="matrix(0.2, 0, 0, -0.2, 0, 356)"/>
<path fill="none" stroke-width="11.9553" stroke-linecap="butt" stroke-linejoin="miter" stroke="rgb(0%, 0%, 0%)" stroke-opacity="1" stroke-miterlimit="10" d="M 1935.039034 1559.101539 L 1935.039034 1457.851541 " transform="matrix(0.2, 0, 0, -0.2, 0, 356)"/>
<path fill="none" stroke-width="7.9701" stroke-linecap="butt" stroke-linejoin="miter" stroke="rgb(0%, 0%, 0%)" stroke-opacity="1" stroke-miterlimit="10" d="M 562.499992 872.851549 L 562.499992 845.312487 " transform="matrix(0.2, 0, 0, -0.2, 0, 356)"/>
<path fill="none" stroke-width="7.9701" stroke-linecap="butt" stroke-linejoin="miter" stroke="rgb(0%, 0%, 0%)" stroke-opacity="1" stroke-miterlimit="10" d="M 562.499992 790.156238 L 562.499992 762.617176 " transform="matrix(0.2, 0, 0, -0.2, 0, 356)"/>
<path fill="none" stroke-width="7.9701" stroke-linecap="butt" stroke-linejoin="miter" stroke="rgb(0%, 0%, 0%)" stroke-opacity="1" stroke-miterlimit="10" d="M 562.499992 762.617176 L 562.499992 735.039052 " transform="matrix(0.2, 0, 0, -0.2, 0, 356)"/>
<path fill="none" stroke-width="7.9701" stroke-linecap="butt" stroke-linejoin="miter" stroke="rgb(0%, 0%, 0%)" stroke-opacity="1" stroke-miterlimit="10" d="M 562.499992 679.921865 L 562.499992 652.34374 " transform="matrix(0.2, 0, 0, -0.2, 0, 356)"/>
<path fill="none" stroke-width="7.9701" stroke-linecap="butt" stroke-linejoin="miter" stroke="rgb(0%, 0%, 0%)" stroke-opacity="1" stroke-miterlimit="10" d="M 562.499992 652.34374 L 562.499992 624.804678 " transform="matrix(0.2, 0, 0, -0.2, 0, 356)"/>
<path fill="none" stroke-width="7.9701" stroke-linecap="butt" stroke-linejoin="miter" stroke="rgb(0%, 0%, 0%)" stroke-opacity="1" stroke-miterlimit="10" d="M 562.499992 569.648429 L 562.499992 542.109367 " transform="matrix(0.2, 0, 0, -0.2, 0, 356)"/>
<path fill="none" stroke-width="7.9701" stroke-linecap="butt" stroke-linejoin="miter" stroke="rgb(0%, 0%, 0%)" stroke-opacity="1" stroke-miterlimit="10" d="M 562.499992 542.109367 L 562.499992 514.531242 " transform="matrix(0.2, 0, 0, -0.2, 0, 356)"/>
<path fill="none" stroke-width="7.9701" stroke-linecap="butt" stroke-linejoin="miter" stroke="rgb(0%, 0%, 0%)" stroke-opacity="1" stroke-miterlimit="10" d="M 562.499992 459.414056 L 562.499992 431.835931 " transform="matrix(0.2, 0, 0, -0.2, 0, 356)"/>
<path fill="none" stroke-width="7.9701" stroke-linecap="butt" stroke-linejoin="miter" stroke="rgb(0%, 0%, 0%)" stroke-opacity="1" stroke-miterlimit="10" d="M 562.499992 431.835931 L 562.499992 404.296869 " transform="matrix(0.2, 0, 0, -0.2, 0, 356)"/>
<path fill="none" stroke-width="7.9701" stroke-linecap="butt" stroke-linejoin="miter" stroke="rgb(0%, 0%, 0%)" stroke-opacity="1" stroke-miterlimit="10" d="M 562.499992 349.179682 L 562.499992 321.601558 " transform="matrix(0.2, 0, 0, -0.2, 0, 356)"/>
<path fill="none" stroke-width="7.9701" stroke-linecap="butt" stroke-linejoin="miter" stroke="rgb(0%, 0%, 0%)" stroke-opacity="1" stroke-miterlimit="10" d="M 764.999989 872.851549 L 764.999989 845.312487 " transform="matrix(0.2, 0, 0, -0.2, 0, 356)"/>
<path fill="none" stroke-width="7.9701" stroke-linecap="butt" stroke-linejoin="miter" stroke="rgb(0%, 0%, 0%)" stroke-opacity="1" stroke-miterlimit="10" d="M 764.999989 790.156238 L 764.999989 762.617176 " transform="matrix(0.2, 0, 0, -0.2, 0, 356)"/>
<path fill="none" stroke-width="7.9701" stroke-linecap="butt" stroke-linejoin="miter" stroke="rgb(0%, 0%, 0%)" stroke-opacity="1" stroke-miterlimit="10" d="M 764.999989 762.617176 L 764.999989 735.039052 " transform="matrix(0.2, 0, 0, -0.2, 0, 356)"/>
<path fill="none" stroke-width="7.9701" stroke-linecap="butt" stroke-linejoin="miter" stroke="rgb(0%, 0%, 0%)" stroke-opacity="1" stroke-miterlimit="10" d="M 764.999989 679.921865 L 764.999989 652.34374 " transform="matrix(0.2, 0, 0, -0.2, 0, 356)"/>
<path fill="none" stroke-width="7.9701" stroke-linecap="butt" stroke-linejoin="miter" stroke="rgb(0%, 0%, 0%)" stroke-opacity="1" stroke-miterlimit="10" d="M 764.999989 652.34374 L 764.999989 624.804678 " transform="matrix(0.2, 0, 0, -0.2, 0, 356)"/>
<path fill="none" stroke-width="7.9701" stroke-linecap="butt" stroke-linejoin="miter" stroke="rgb(0%, 0%, 0%)" stroke-opacity="1" stroke-miterlimit="10" d="M 764.999989 569.648429 L 764.999989 542.109367 " transform="matrix(0.2, 0, 0, -0.2, 0, 356)"/>
<path fill="none" stroke-width="7.9701" stroke-linecap="butt" stroke-linejoin="miter" stroke="rgb(0%, 0%, 0%)" stroke-opacity="1" stroke-miterlimit="10" d="M 764.999989 542.109367 L 764.999989 514.531242 " transform="matrix(0.2, 0, 0, -0.2, 0, 356)"/>
<path fill="none" stroke-width="7.9701" stroke-linecap="butt" stroke-linejoin="miter" stroke="rgb(0%, 0%, 0%)" stroke-opacity="1" stroke-miterlimit="10" d="M 764.999989 459.414056 L 764.999989 431.835931 " transform="matrix(0.2, 0, 0, -0.2, 0, 356)"/>
<path fill="none" stroke-width="7.9701" stroke-linecap="butt" stroke-linejoin="miter" stroke="rgb(0%, 0%, 0%)" stroke-opacity="1" stroke-miterlimit="10" d="M 764.999989 431.835931 L 764.999989 404.296869 " transform="matrix(0.2, 0, 0, -0.2, 0, 356)"/>
<path fill="none" stroke-width="7.9701" stroke-linecap="butt" stroke-linejoin="miter" stroke="rgb(0%, 0%, 0%)" stroke-opacity="1" stroke-miterlimit="10" d="M 764.999989 349.179682 L 764.999989 321.601558 " transform="matrix(0.2, 0, 0, -0.2, 0, 356)"/>
<path fill="none" stroke-width="7.9701" stroke-linecap="butt" stroke-linejoin="miter" stroke="rgb(0%, 0%, 0%)" stroke-opacity="1" stroke-miterlimit="10" d="M 1147.499983 1165.351545 L 1147.499983 1138.984358 " transform="matrix(0.2, 0, 0, -0.2, 0, 356)"/>
<path fill="none" stroke-width="7.9701" stroke-linecap="butt" stroke-linejoin="miter" stroke="rgb(0%, 0%, 0%)" stroke-opacity="1" stroke-miterlimit="10" d="M 1147.499983 1086.249984 L 1147.499983 1059.882797 " transform="matrix(0.2, 0, 0, -0.2, 0, 356)"/>
<path fill="none" stroke-width="7.9701" stroke-linecap="butt" stroke-linejoin="miter" stroke="rgb(0%, 0%, 0%)" stroke-opacity="1" stroke-miterlimit="10" d="M 1147.499983 1059.882797 L 1147.499983 1033.51561 " transform="matrix(0.2, 0, 0, -0.2, 0, 356)"/>
<path fill="none" stroke-width="7.9701" stroke-linecap="butt" stroke-linejoin="miter" stroke="rgb(0%, 0%, 0%)" stroke-opacity="1" stroke-miterlimit="10" d="M 1147.499983 980.781235 L 1147.499983 954.414048 " transform="matrix(0.2, 0, 0, -0.2, 0, 356)"/>
<path fill="none" stroke-width="7.9701" stroke-linecap="butt" stroke-linejoin="miter" stroke="rgb(0%, 0%, 0%)" stroke-opacity="1" stroke-miterlimit="10" d="M 1147.499983 954.414048 L 1147.499983 928.046861 " transform="matrix(0.2, 0, 0, -0.2, 0, 356)"/>
<path fill="none" stroke-width="7.9701" stroke-linecap="butt" stroke-linejoin="miter" stroke="rgb(0%, 0%, 0%)" stroke-opacity="1" stroke-miterlimit="10" d="M 1147.499983 875.312487 L 1147.499983 848.9453 " transform="matrix(0.2, 0, 0, -0.2, 0, 356)"/>
<path fill="none" stroke-width="7.9701" stroke-linecap="butt" stroke-linejoin="miter" stroke="rgb(0%, 0%, 0%)" stroke-opacity="1" stroke-miterlimit="10" d="M 1147.499983 848.9453 L 1147.499983 822.578113 " transform="matrix(0.2, 0, 0, -0.2, 0, 356)"/>
<path fill="none" stroke-width="7.9701" stroke-linecap="butt" stroke-linejoin="miter" stroke="rgb(0%, 0%, 0%)" stroke-opacity="1" stroke-miterlimit="10" d="M 1147.499983 769.843739 L 1147.499983 743.476551 " transform="matrix(0.2, 0, 0, -0.2, 0, 356)"/>
<path fill="none" stroke-width="7.9701" stroke-linecap="butt" stroke-linejoin="miter" stroke="rgb(0%, 0%, 0%)" stroke-opacity="1" stroke-miterlimit="10" d="M 1147.499983 743.476551 L 1147.499983 717.109364 " transform="matrix(0.2, 0, 0, -0.2, 0, 356)"/>
<path fill="none" stroke-width="7.9701" stroke-linecap="butt" stroke-linejoin="miter" stroke="rgb(0%, 0%, 0%)" stroke-opacity="1" stroke-miterlimit="10" d="M 1147.499983 664.37499 L 1147.499983 638.007803 " transform="matrix(0.2, 0, 0, -0.2, 0, 356)"/>
<path fill="none" stroke-width="7.9701" stroke-linecap="butt" stroke-linejoin="miter" stroke="rgb(0%, 0%, 0%)" stroke-opacity="1" stroke-miterlimit="10" d="M 1147.499983 638.007803 L 1147.499983 611.640616 " transform="matrix(0.2, 0, 0, -0.2, 0, 356)"/>
<path fill="none" stroke-width="7.9701" stroke-linecap="butt" stroke-linejoin="miter" stroke="rgb(0%, 0%, 0%)" stroke-opacity="1" stroke-miterlimit="10" d="M 1147.499983 558.906242 L 1147.499983 532.539055 " transform="matrix(0.2, 0, 0, -0.2, 0, 356)"/>
<path fill="none" stroke-width="7.9701" stroke-linecap="butt" stroke-linejoin="miter" stroke="rgb(0%, 0%, 0%)" stroke-opacity="1" stroke-miterlimit="10" d="M 1147.499983 532.539055 L 1147.499983 506.171867 " transform="matrix(0.2, 0, 0, -0.2, 0, 356)"/>
<path fill="none" stroke-width="7.9701" stroke-linecap="butt" stroke-linejoin="miter" stroke="rgb(0%, 0%, 0%)" stroke-opacity="1" stroke-miterlimit="10" d="M 1147.499983 453.437493 L 1147.499983 427.070306 " transform="matrix(0.2, 0, 0, -0.2, 0, 356)"/>
<path fill="none" stroke-width="7.9701" stroke-linecap="butt" stroke-linejoin="miter" stroke="rgb(0%, 0%, 0%)" stroke-opacity="1" stroke-miterlimit="10" d="M 1147.499983 427.070306 L 1147.499983 400.703119 " transform="matrix(0.2, 0, 0, -0.2, 0, 356)"/>
<path fill="none" stroke-width="7.9701" stroke-linecap="butt" stroke-linejoin="miter" stroke="rgb(0%, 0%, 0%)" stroke-opacity="1" stroke-miterlimit="10" d="M 1147.499983 347.968745 L 1147.499983 321.601558 " transform="matrix(0.2, 0, 0, -0.2, 0, 356)"/>
<path fill="none" stroke-width="7.9701" stroke-linecap="butt" stroke-linejoin="miter" stroke="rgb(0%, 0%, 0%)" stroke-opacity="1" stroke-miterlimit="10" d="M 1350.039042 1165.351545 L 1350.039042 1138.984358 " transform="matrix(0.2, 0, 0, -0.2, 0, 356)"/>
<path fill="none" stroke-width="7.9701" stroke-linecap="butt" stroke-linejoin="miter" stroke="rgb(0%, 0%, 0%)" stroke-opacity="1" stroke-miterlimit="10" d="M 1350.039042 1086.249984 L 1350.039042 1059.882797 " transform="matrix(0.2, 0, 0, -0.2, 0, 356)"/>
<path fill="none" stroke-width="7.9701" stroke-linecap="butt" stroke-linejoin="miter" stroke="rgb(0%, 0%, 0%)" stroke-opacity="1" stroke-miterlimit="10" d="M 1350.039042 1059.882797 L 1350.039042 1033.51561 " transform="matrix(0.2, 0, 0, -0.2, 0, 356)"/>
<path fill="none" stroke-width="7.9701" stroke-linecap="butt" stroke-linejoin="miter" stroke="rgb(0%, 0%, 0%)" stroke-opacity="1" stroke-miterlimit="10" d="M 1350.039042 980.781235 L 1350.039042 954.414048 " transform="matrix(0.2, 0, 0, -0.2, 0, 356)"/>
<path fill="none" stroke-width="7.9701" stroke-linecap="butt" stroke-linejoin="miter" stroke="rgb(0%, 0%, 0%)" stroke-opacity="1" stroke-miterlimit="10" d="M 1350.039042 954.414048 L 1350.039042 928.046861 " transform="matrix(0.2, 0, 0, -0.2, 0, 356)"/>
<path fill="none" stroke-width="7.9701" stroke-linecap="butt" stroke-linejoin="miter" stroke="rgb(0%, 0%, 0%)" stroke-opacity="1" stroke-miterlimit="10" d="M 1350.039042 875.312487 L 1350.039042 848.9453 " transform="matrix(0.2, 0, 0, -0.2, 0, 356)"/>
<path fill="none" stroke-width="7.9701" stroke-linecap="butt" stroke-linejoin="miter" stroke="rgb(0%, 0%, 0%)" stroke-opacity="1" stroke-miterlimit="10" d="M 1350.039042 848.9453 L 1350.039042 822.578113 " transform="matrix(0.2, 0, 0, -0.2, 0, 356)"/>
<path fill="none" stroke-width="7.9701" stroke-linecap="butt" stroke-linejoin="miter" stroke="rgb(0%, 0%, 0%)" stroke-opacity="1" stroke-miterlimit="10" d="M 1350.039042 769.843739 L 1350.039042 743.476551 " transform="matrix(0.2, 0, 0, -0.2, 0, 356)"/>
<path fill="none" stroke-width="7.9701" stroke-linecap="butt" stroke-linejoin="miter" stroke="rgb(0%, 0%, 0%)" stroke-opacity="1" stroke-miterlimit="10" d="M 1350.039042 743.476551 L 1350.039042 717.109364 " transform="matrix(0.2, 0, 0, -0.2, 0, 356)"/>
<path fill="none" stroke-width="7.9701" stroke-linecap="butt" stroke-linejoin="miter" stroke="rgb(0%, 0%, 0%)" stroke-opacity="1" stroke-miterlimit="10" d="M 1350.039042 664.37499 L 1350.039042 638.007803 " transform="matrix(0.2, 0, 0, -0.2, 0, 356)"/>
<path fill="none" stroke-width="7.9701" stroke-linecap="butt" stroke-linejoin="miter" stroke="rgb(0%, 0%, 0%)" stroke-opacity="1" stroke-miterlimit="10" d="M 1350.039042 638.007803 L 1350.039042 611.640616 " transform="matrix(0.2, 0, 0, -0.2, 0, 356)"/>
<path fill="none" stroke-width="7.9701" stroke-linecap="butt" stroke-linejoin="miter" stroke="rgb(0%, 0%, 0%)" stroke-opacity="1" stroke-miterlimit="10" d="M 1350.039042 558.906242 L 1350.039042 532.539055 " transform="matrix(0.2, 0, 0, -0.2, 0, 356)"/>
<path fill="none" stroke-width="7.9701" stroke-linecap="butt" stroke-linejoin="miter" stroke="rgb(0%, 0%, 0%)" stroke-opacity="1" stroke-miterlimit="10" d="M 1350.039042 532.539055 L 1350.039042 506.171867 " transform="matrix(0.2, 0, 0, -0.2, 0, 356)"/>
<path fill="none" stroke-width="7.9701" stroke-linecap="butt" stroke-linejoin="miter" stroke="rgb(0%, 0%, 0%)" stroke-opacity="1" stroke-miterlimit="10" d="M 1350.039042 453.437493 L 1350.039042 427.070306 " transform="matrix(0.2, 0, 0, -0.2, 0, 356)"/>
<path fill="none" stroke-width="7.9701" stroke-linecap="butt" stroke-linejoin="miter" stroke="rgb(0%, 0%, 0%)" stroke-opacity="1" stroke-miterlimit="10" d="M 1350.039042 427.070306 L 1350.039042 400.703119 " transform="matrix(0.2, 0, 0, -0.2, 0, 356)"/>
<path fill="none" stroke-width="7.9701" stroke-linecap="butt" stroke-linejoin="miter" stroke="rgb(0%, 0%, 0%)" stroke-opacity="1" stroke-miterlimit="10" d="M 1350.039042 347.968745 L 1350.039042 321.601558 " transform="matrix(0.2, 0, 0, -0.2, 0, 356)"/>
<path fill="none" stroke-width="7.9701" stroke-linecap="butt" stroke-linejoin="miter" stroke="rgb(0%, 0%, 0%)" stroke-opacity="1" stroke-miterlimit="10" d="M 1732.539037 1457.851541 L 1732.539037 1429.453104 " transform="matrix(0.2, 0, 0, -0.2, 0, 356)"/>
<path fill="none" stroke-width="7.9701" stroke-linecap="butt" stroke-linejoin="miter" stroke="rgb(0%, 0%, 0%)" stroke-opacity="1" stroke-miterlimit="10" d="M 1732.539037 1372.65623 L 1732.539037 1344.21873 " transform="matrix(0.2, 0, 0, -0.2, 0, 356)"/>
<path fill="none" stroke-width="7.9701" stroke-linecap="butt" stroke-linejoin="miter" stroke="rgb(0%, 0%, 0%)" stroke-opacity="1" stroke-miterlimit="10" d="M 1732.539037 1344.21873 L 1732.539037 1315.820293 " transform="matrix(0.2, 0, 0, -0.2, 0, 356)"/>
<path fill="none" stroke-width="7.9701" stroke-linecap="butt" stroke-linejoin="miter" stroke="rgb(0%, 0%, 0%)" stroke-opacity="1" stroke-miterlimit="10" d="M 1732.539037 1259.023419 L 1732.539037 1230.624982 " transform="matrix(0.2, 0, 0, -0.2, 0, 356)"/>
<path fill="none" stroke-width="7.9701" stroke-linecap="butt" stroke-linejoin="miter" stroke="rgb(0%, 0%, 0%)" stroke-opacity="1" stroke-miterlimit="10" d="M 1732.539037 1230.624982 L 1732.539037 1202.226545 " transform="matrix(0.2, 0, 0, -0.2, 0, 356)"/>
<path fill="none" stroke-width="7.9701" stroke-linecap="butt" stroke-linejoin="miter" stroke="rgb(0%, 0%, 0%)" stroke-opacity="1" stroke-miterlimit="10" d="M 1732.539037 1145.390608 L 1732.539037 1116.992171 " transform="matrix(0.2, 0, 0, -0.2, 0, 356)"/>
<path fill="none" stroke-width="7.9701" stroke-linecap="butt" stroke-linejoin="miter" stroke="rgb(0%, 0%, 0%)" stroke-opacity="1" stroke-miterlimit="10" d="M 1732.539037 1116.992171 L 1732.539037 1088.593734 " transform="matrix(0.2, 0, 0, -0.2, 0, 356)"/>
<path fill="none" stroke-width="7.9701" stroke-linecap="butt" stroke-linejoin="miter" stroke="rgb(0%, 0%, 0%)" stroke-opacity="1" stroke-miterlimit="10" d="M 1732.539037 1031.757797 L 1732.539037 1003.35936 " transform="matrix(0.2, 0, 0, -0.2, 0, 356)"/>
<path fill="none" stroke-width="7.9701" stroke-linecap="butt" stroke-linejoin="miter" stroke="rgb(0%, 0%, 0%)" stroke-opacity="1" stroke-miterlimit="10" d="M 1732.539037 1003.35936 L 1732.539037 974.960923 " transform="matrix(0.2, 0, 0, -0.2, 0, 356)"/>
<path fill="none" stroke-width="7.9701" stroke-linecap="butt" stroke-linejoin="miter" stroke="rgb(0%, 0%, 0%)" stroke-opacity="1" stroke-miterlimit="10" d="M 1732.539037 918.164049 L 1732.539037 889.726549 " transform="matrix(0.2, 0, 0, -0.2, 0, 356)"/>
<path fill="none" stroke-width="7.9701" stroke-linecap="butt" stroke-linejoin="miter" stroke="rgb(0%, 0%, 0%)" stroke-opacity="1" stroke-miterlimit="10" d="M 1732.539037 889.726549 L 1732.539037 861.328112 " transform="matrix(0.2, 0, 0, -0.2, 0, 356)"/>
<path fill="none" stroke-width="7.9701" stroke-linecap="butt" stroke-linejoin="miter" stroke="rgb(0%, 0%, 0%)" stroke-opacity="1" stroke-miterlimit="10" d="M 1732.539037 804.531238 L 1732.539037 776.093738 " transform="matrix(0.2, 0, 0, -0.2, 0, 356)"/>
<path fill="none" stroke-width="7.9701" stroke-linecap="butt" stroke-linejoin="miter" stroke="rgb(0%, 0%, 0%)" stroke-opacity="1" stroke-miterlimit="10" d="M 1732.539037 776.093738 L 1732.539037 747.695301 " transform="matrix(0.2, 0, 0, -0.2, 0, 356)"/>
<path fill="none" stroke-width="7.9701" stroke-linecap="butt" stroke-linejoin="miter" stroke="rgb(0%, 0%, 0%)" stroke-opacity="1" stroke-miterlimit="10" d="M 1732.539037 690.898427 L 1732.539037 662.460928 " transform="matrix(0.2, 0, 0, -0.2, 0, 356)"/>
<path fill="none" stroke-width="7.9701" stroke-linecap="butt" stroke-linejoin="miter" stroke="rgb(0%, 0%, 0%)" stroke-opacity="1" stroke-miterlimit="10" d="M 1732.539037 662.460928 L 1732.539037 634.062491 " transform="matrix(0.2, 0, 0, -0.2, 0, 356)"/>
<path fill="none" stroke-width="7.9701" stroke-linecap="butt" stroke-linejoin="miter" stroke="rgb(0%, 0%, 0%)" stroke-opacity="1" stroke-miterlimit="10" d="M 1732.539037 577.265616 L 1732.539037 548.867179 " transform="matrix(0.2, 0, 0, -0.2, 0, 356)"/>
<path fill="none" stroke-width="7.9701" stroke-linecap="butt" stroke-linejoin="miter" stroke="rgb(0%, 0%, 0%)" stroke-opacity="1" stroke-miterlimit="10" d="M 1732.539037 548.867179 L 1732.539037 520.42968 " transform="matrix(0.2, 0, 0, -0.2, 0, 356)"/>
<path fill="none" stroke-width="7.9701" stroke-linecap="butt" stroke-linejoin="miter" stroke="rgb(0%, 0%, 0%)" stroke-opacity="1" stroke-miterlimit="10" d="M 1732.539037 463.632806 L 1732.539037 435.234369 " transform="matrix(0.2, 0, 0, -0.2, 0, 356)"/>
<path fill="none" stroke-width="7.9701" stroke-linecap="butt" stroke-linejoin="miter" stroke="rgb(0%, 0%, 0%)" stroke-opacity="1" stroke-miterlimit="10" d="M 1732.539037 435.234369 L 1732.539037 406.835931 " transform="matrix(0.2, 0, 0, -0.2, 0, 356)"/>
<path fill="none" stroke-width="7.9701" stroke-linecap="butt" stroke-linejoin="miter" stroke="rgb(0%, 0%, 0%)" stroke-opacity="1" stroke-miterlimit="10" d="M 1732.539037 349.999995 L 1732.539037 321.601558 " transform="matrix(0.2, 0, 0, -0.2, 0, 356)"/>
<path fill="none" stroke-width="7.9701" stroke-linecap="butt" stroke-linejoin="miter" stroke="rgb(0%, 0%, 0%)" stroke-opacity="1" stroke-miterlimit="10" d="M 1935.039034 1457.851541 L 1935.039034 1429.453104 " transform="matrix(0.2, 0, 0, -0.2, 0, 356)"/>
<path fill="none" stroke-width="7.9701" stroke-linecap="butt" stroke-linejoin="miter" stroke="rgb(0%, 0%, 0%)" stroke-opacity="1" stroke-miterlimit="10" d="M 1935.039034 1372.65623 L 1935.039034 1344.21873 " transform="matrix(0.2, 0, 0, -0.2, 0, 356)"/>
<path fill="none" stroke-width="7.9701" stroke-linecap="butt" stroke-linejoin="miter" stroke="rgb(0%, 0%, 0%)" stroke-opacity="1" stroke-miterlimit="10" d="M 1935.039034 1344.21873 L 1935.039034 1315.820293 " transform="matrix(0.2, 0, 0, -0.2, 0, 356)"/>
<path fill="none" stroke-width="7.9701" stroke-linecap="butt" stroke-linejoin="miter" stroke="rgb(0%, 0%, 0%)" stroke-opacity="1" stroke-miterlimit="10" d="M 1935.039034 1259.023419 L 1935.039034 1230.624982 " transform="matrix(0.2, 0, 0, -0.2, 0, 356)"/>
<path fill="none" stroke-width="7.9701" stroke-linecap="butt" stroke-linejoin="miter" stroke="rgb(0%, 0%, 0%)" stroke-opacity="1" stroke-miterlimit="10" d="M 1935.039034 1230.624982 L 1935.039034 1202.226545 " transform="matrix(0.2, 0, 0, -0.2, 0, 356)"/>
<path fill="none" stroke-width="7.9701" stroke-linecap="butt" stroke-linejoin="miter" stroke="rgb(0%, 0%, 0%)" stroke-opacity="1" stroke-miterlimit="10" d="M 1935.039034 1145.390608 L 1935.039034 1116.992171 " transform="matrix(0.2, 0, 0, -0.2, 0, 356)"/>
<path fill="none" stroke-width="7.9701" stroke-linecap="butt" stroke-linejoin="miter" stroke="rgb(0%, 0%, 0%)" stroke-opacity="1" stroke-miterlimit="10" d="M 1935.039034 1116.992171 L 1935.039034 1088.593734 " transform="matrix(0.2, 0, 0, -0.2, 0, 356)"/>
<path fill="none" stroke-width="7.9701" stroke-linecap="butt" stroke-linejoin="miter" stroke="rgb(0%, 0%, 0%)" stroke-opacity="1" stroke-miterlimit="10" d="M 1935.039034 1031.757797 L 1935.039034 1003.35936 " transform="matrix(0.2, 0, 0, -0.2, 0, 356)"/>
<path fill="none" stroke-width="7.9701" stroke-linecap="butt" stroke-linejoin="miter" stroke="rgb(0%, 0%, 0%)" stroke-opacity="1" stroke-miterlimit="10" d="M 1935.039034 1003.35936 L 1935.039034 974.960923 " transform="matrix(0.2, 0, 0, -0.2, 0, 356)"/>
<path fill="none" stroke-width="7.9701" stroke-linecap="butt" stroke-linejoin="miter" stroke="rgb(0%, 0%, 0%)" stroke-opacity="1" stroke-miterlimit="10" d="M 1935.039034 918.164049 L 1935.039034 889.726549 " transform="matrix(0.2, 0, 0, -0.2, 0, 356)"/>
<path fill="none" stroke-width="7.9701" stroke-linecap="butt" stroke-linejoin="miter" stroke="rgb(0%, 0%, 0%)" stroke-opacity="1" stroke-miterlimit="10" d="M 1935.039034 889.726549 L 1935.039034 861.328112 " transform="matrix(0.2, 0, 0, -0.2, 0, 356)"/>
<path fill="none" stroke-width="7.9701" stroke-linecap="butt" stroke-linejoin="miter" stroke="rgb(0%, 0%, 0%)" stroke-opacity="1" stroke-miterlimit="10" d="M 1935.039034 804.531238 L 1935.039034 776.093738 " transform="matrix(0.2, 0, 0, -0.2, 0, 356)"/>
<path fill="none" stroke-width="7.9701" stroke-linecap="butt" stroke-linejoin="miter" stroke="rgb(0%, 0%, 0%)" stroke-opacity="1" stroke-miterlimit="10" d="M 1935.039034 776.093738 L 1935.039034 747.695301 " transform="matrix(0.2, 0, 0, -0.2, 0, 356)"/>
<path fill="none" stroke-width="7.9701" stroke-linecap="butt" stroke-linejoin="miter" stroke="rgb(0%, 0%, 0%)" stroke-opacity="1" stroke-miterlimit="10" d="M 1935.039034 690.898427 L 1935.039034 662.460928 " transform="matrix(0.2, 0, 0, -0.2, 0, 356)"/>
<path fill="none" stroke-width="7.9701" stroke-linecap="butt" stroke-linejoin="miter" stroke="rgb(0%, 0%, 0%)" stroke-opacity="1" stroke-miterlimit="10" d="M 1935.039034 662.460928 L 1935.039034 634.062491 " transform="matrix(0.2, 0, 0, -0.2, 0, 356)"/>
<path fill="none" stroke-width="7.9701" stroke-linecap="butt" stroke-linejoin="miter" stroke="rgb(0%, 0%, 0%)" stroke-opacity="1" stroke-miterlimit="10" d="M 1935.039034 577.265616 L 1935.039034 548.867179 " transform="matrix(0.2, 0, 0, -0.2, 0, 356)"/>
<path fill="none" stroke-width="7.9701" stroke-linecap="butt" stroke-linejoin="miter" stroke="rgb(0%, 0%, 0%)" stroke-opacity="1" stroke-miterlimit="10" d="M 1935.039034 548.867179 L 1935.039034 520.42968 " transform="matrix(0.2, 0, 0, -0.2, 0, 356)"/>
<path fill="none" stroke-width="7.9701" stroke-linecap="butt" stroke-linejoin="miter" stroke="rgb(0%, 0%, 0%)" stroke-opacity="1" stroke-miterlimit="10" d="M 1935.039034 463.632806 L 1935.039034 435.234369 " transform="matrix(0.2, 0, 0, -0.2, 0, 356)"/>
<path fill="none" stroke-width="7.9701" stroke-linecap="butt" stroke-linejoin="miter" stroke="rgb(0%, 0%, 0%)" stroke-opacity="1" stroke-miterlimit="10" d="M 1935.039034 435.234369 L 1935.039034 406.835931 " transform="matrix(0.2, 0, 0, -0.2, 0, 356)"/>
<path fill="none" stroke-width="7.9701" stroke-linecap="butt" stroke-linejoin="miter" stroke="rgb(0%, 0%, 0%)" stroke-opacity="1" stroke-miterlimit="10" d="M 1935.039034 349.999995 L 1935.039034 321.601558 " transform="matrix(0.2, 0, 0, -0.2, 0, 356)"/>
<path fill-rule="nonzero" fill="rgb(0%, 0%, 0%)" fill-opacity="1" d="M 132 189.613281 C 132 189.613281 132 189.394531 131.71875 189.394531 C 131.40625 189.394531 129.3125 189.582031 128.9375 189.613281 C 128.78125 189.644531 128.65625 189.738281 128.65625 190.050781 C 128.65625 190.300781 128.84375 190.300781 129.15625 190.300781 C 130.21875 190.300781 130.25 190.457031 130.25 190.675781 L 130.1875 191.113281 L 128.875 196.269531 C 128.5 195.457031 127.875 194.863281 126.875 194.863281 C 124.3125 194.863281 121.625 198.082031 121.625 201.269531 C 121.625 203.332031 122.8125 204.769531 124.53125 204.769531 C 124.96875 204.769531 126.0625 204.675781 127.34375 203.113281 C 127.53125 204.050781 128.3125 204.769531 129.34375 204.769531 C 130.09375 204.769531 130.59375 204.269531 130.96875 203.550781 C 131.34375 202.769531 131.625 201.457031 131.625 201.394531 C 131.625 201.175781 131.40625 201.175781 131.34375 201.175781 C 131.125 201.175781 131.125 201.269531 131.03125 201.582031 C 130.6875 202.988281 130.28125 204.269531 129.375 204.269531 C 128.8125 204.269531 128.71875 203.707031 128.71875 203.269531 C 128.71875 202.738281 128.78125 202.613281 128.875 202.238281 Z M 127.46875 201.925781 C 127.34375 202.332031 127.34375 202.363281 127.03125 202.738281 C 126.0625 203.925781 125.1875 204.269531 124.5625 204.269531 C 123.46875 204.269531 123.15625 203.082031 123.15625 202.238281 C 123.15625 201.144531 123.875 198.457031 124.375 197.457031 C 125.0625 196.175781 126.03125 195.363281 126.90625 195.363281 C 128.3125 195.363281 128.625 197.144531 128.625 197.269531 C 128.625 197.394531 128.59375 197.550781 128.5625 197.644531 Z M 127.46875 201.925781 "/>
<path fill-rule="nonzero" fill="rgb(0%, 0%, 0%)" fill-opacity="1" d="M 139.3125 197.925781 C 139.4375 197.363281 139.9375 195.363281 141.46875 195.363281 C 141.59375 195.363281 142.09375 195.363281 142.5625 195.644531 C 141.96875 195.738281 141.53125 196.300781 141.53125 196.832031 C 141.53125 197.175781 141.75 197.582031 142.34375 197.582031 C 142.84375 197.582031 143.53125 197.175781 143.53125 196.332031 C 143.53125 195.175781 142.25 194.863281 141.5 194.863281 C 140.21875 194.863281 139.46875 196.019531 139.21875 196.550781 C 138.65625 195.082031 137.46875 194.863281 136.84375 194.863281 C 134.59375 194.863281 133.34375 197.707031 133.34375 198.238281 C 133.34375 198.457031 133.5625 198.457031 133.59375 198.457031 C 133.78125 198.457031 133.84375 198.425781 133.875 198.207031 C 134.625 195.894531 136.0625 195.363281 136.8125 195.363281 C 137.21875 195.363281 138 195.550781 138 196.832031 C 138 197.488281 137.625 198.957031 136.8125 202.019531 C 136.46875 203.363281 135.6875 204.269531 134.75 204.269531 C 134.59375 204.269531 134.09375 204.269531 133.65625 203.988281 C 134.1875 203.894531 134.65625 203.425781 134.65625 202.832031 C 134.65625 202.238281 134.1875 202.050781 133.875 202.050781 C 133.21875 202.050781 132.65625 202.613281 132.65625 203.332031 C 132.65625 204.332031 133.75 204.769531 134.71875 204.769531 C 136.15625 204.769531 136.9375 203.238281 137 203.113281 C 137.28125 203.894531 138.0625 204.769531 139.375 204.769531 C 141.59375 204.769531 142.84375 201.957031 142.84375 201.394531 C 142.84375 201.175781 142.65625 201.175781 142.59375 201.175781 C 142.40625 201.175781 142.34375 201.269531 142.3125 201.425781 C 141.59375 203.769531 140.09375 204.269531 139.40625 204.269531 C 138.5625 204.269531 138.21875 203.582031 138.21875 202.832031 C 138.21875 202.363281 138.34375 201.894531 138.5625 200.925781 Z M 139.3125 197.925781 "/>
<path fill-rule="nonzero" fill="rgb(0%, 0%, 0%)" fill-opacity="1" d="M 172.222656 161.917969 C 172.222656 161.917969 172.222656 161.699219 171.941406 161.699219 C 171.628906 161.699219 169.535156 161.886719 169.160156 161.917969 C 169.003906 161.949219 168.878906 162.042969 168.878906 162.355469 C 168.878906 162.605469 169.066406 162.605469 169.378906 162.605469 C 170.441406 162.605469 170.472656 162.761719 170.472656 162.980469 L 170.410156 163.417969 L 169.097656 168.574219 C 168.722656 167.761719 168.097656 167.167969 167.097656 167.167969 C 164.535156 167.167969 161.847656 170.386719 161.847656 173.574219 C 161.847656 175.636719 163.035156 177.074219 164.753906 177.074219 C 165.191406 177.074219 166.285156 176.980469 167.566406 175.417969 C 167.753906 176.355469 168.535156 177.074219 169.566406 177.074219 C 170.316406 177.074219 170.816406 176.574219 171.191406 175.855469 C 171.566406 175.074219 171.847656 173.761719 171.847656 173.699219 C 171.847656 173.480469 171.628906 173.480469 171.566406 173.480469 C 171.347656 173.480469 171.347656 173.574219 171.253906 173.886719 C 170.910156 175.292969 170.503906 176.574219 169.597656 176.574219 C 169.035156 176.574219 168.941406 176.011719 168.941406 175.574219 C 168.941406 175.042969 169.003906 174.917969 169.097656 174.542969 Z M 167.691406 174.230469 C 167.566406 174.636719 167.566406 174.667969 167.253906 175.042969 C 166.285156 176.230469 165.410156 176.574219 164.785156 176.574219 C 163.691406 176.574219 163.378906 175.386719 163.378906 174.542969 C 163.378906 173.449219 164.097656 170.761719 164.597656 169.761719 C 165.285156 168.480469 166.253906 167.667969 167.128906 167.667969 C 168.535156 167.667969 168.847656 169.449219 168.847656 169.574219 C 168.847656 169.699219 168.816406 169.855469 168.785156 169.949219 Z M 167.691406 174.230469 "/>
<path fill-rule="nonzero" fill="rgb(0%, 0%, 0%)" fill-opacity="1" d="M 182.84375 168.511719 C 182.9375 168.199219 182.9375 168.167969 182.9375 168.011719 C 182.9375 167.605469 182.625 167.417969 182.3125 167.417969 C 182.09375 167.417969 181.75 167.542969 181.53125 167.886719 C 181.5 167.980469 181.3125 168.667969 181.25 169.074219 C 181.09375 169.636719 180.9375 170.230469 180.8125 170.792969 L 179.8125 174.730469 C 179.71875 175.042969 178.78125 176.574219 177.34375 176.574219 C 176.25 176.574219 176 175.636719 176 174.824219 C 176 173.824219 176.375 172.449219 177.125 170.542969 C 177.46875 169.636719 177.5625 169.417969 177.5625 168.980469 C 177.5625 167.980469 176.84375 167.167969 175.75 167.167969 C 173.6875 167.167969 172.875 170.355469 172.875 170.542969 C 172.875 170.761719 173.09375 170.761719 173.15625 170.761719 C 173.375 170.761719 173.375 170.730469 173.5 170.355469 C 174.09375 168.324219 174.96875 167.667969 175.6875 167.667969 C 175.875 167.667969 176.25 167.667969 176.25 168.355469 C 176.25 168.917969 176.03125 169.480469 175.875 169.886719 C 175 172.199219 174.59375 173.449219 174.59375 174.480469 C 174.59375 176.417969 175.96875 177.074219 177.28125 177.074219 C 178.125 177.074219 178.84375 176.699219 179.46875 176.074219 C 179.1875 177.230469 178.9375 178.292969 178.0625 179.449219 C 177.5 180.167969 176.65625 180.824219 175.65625 180.824219 C 175.34375 180.824219 174.375 180.761719 174 179.886719 C 174.34375 179.886719 174.625 179.886719 174.9375 179.636719 C 175.15625 179.449219 175.375 179.167969 175.375 178.730469 C 175.375 178.074219 174.78125 177.980469 174.5625 177.980469 C 174.0625 177.980469 173.34375 178.324219 173.34375 179.386719 C 173.34375 180.480469 174.3125 181.292969 175.65625 181.292969 C 177.90625 181.292969 180.15625 179.324219 180.75 176.855469 Z M 182.84375 168.511719 "/>
<path fill-rule="nonzero" fill="rgb(0%, 0%, 0%)" fill-opacity="1" d="M 249.003906 131.109375 C 249.003906 131.109375 249.003906 130.890625 248.722656 130.890625 C 248.410156 130.890625 246.316406 131.078125 245.941406 131.109375 C 245.785156 131.140625 245.660156 131.234375 245.660156 131.546875 C 245.660156 131.796875 245.847656 131.796875 246.160156 131.796875 C 247.222656 131.796875 247.253906 131.953125 247.253906 132.171875 L 247.191406 132.609375 L 245.878906 137.765625 C 245.503906 136.953125 244.878906 136.359375 243.878906 136.359375 C 241.316406 136.359375 238.628906 139.578125 238.628906 142.765625 C 238.628906 144.828125 239.816406 146.265625 241.535156 146.265625 C 241.972656 146.265625 243.066406 146.171875 244.347656 144.609375 C 244.535156 145.546875 245.316406 146.265625 246.347656 146.265625 C 247.097656 146.265625 247.597656 145.765625 247.972656 145.046875 C 248.347656 144.265625 248.628906 142.953125 248.628906 142.890625 C 248.628906 142.671875 248.410156 142.671875 248.347656 142.671875 C 248.128906 142.671875 248.128906 142.765625 248.035156 143.078125 C 247.691406 144.484375 247.285156 145.765625 246.378906 145.765625 C 245.816406 145.765625 245.722656 145.203125 245.722656 144.765625 C 245.722656 144.234375 245.785156 144.109375 245.878906 143.734375 Z M 244.472656 143.421875 C 244.347656 143.828125 244.347656 143.859375 244.035156 144.234375 C 243.066406 145.421875 242.191406 145.765625 241.566406 145.765625 C 240.472656 145.765625 240.160156 144.578125 240.160156 143.734375 C 240.160156 142.640625 240.878906 139.953125 241.378906 138.953125 C 242.066406 137.671875 243.035156 136.859375 243.910156 136.859375 C 245.316406 136.859375 245.628906 138.640625 245.628906 138.765625 C 245.628906 138.890625 245.597656 139.046875 245.566406 139.140625 Z M 244.472656 143.421875 "/>
<path fill-rule="nonzero" fill="rgb(0%, 0%, 0%)" fill-opacity="1" d="M 256.3125 139.421875 C 256.4375 138.859375 256.9375 136.859375 258.46875 136.859375 C 258.59375 136.859375 259.09375 136.859375 259.5625 137.140625 C 258.96875 137.234375 258.53125 137.796875 258.53125 138.328125 C 258.53125 138.671875 258.75 139.078125 259.34375 139.078125 C 259.84375 139.078125 260.53125 138.671875 260.53125 137.828125 C 260.53125 136.671875 259.25 136.359375 258.5 136.359375 C 257.21875 136.359375 256.46875 137.515625 256.21875 138.046875 C 255.65625 136.578125 254.46875 136.359375 253.84375 136.359375 C 251.59375 136.359375 250.34375 139.203125 250.34375 139.734375 C 250.34375 139.953125 250.5625 139.953125 250.59375 139.953125 C 250.78125 139.953125 250.84375 139.921875 250.875 139.703125 C 251.625 137.390625 253.0625 136.859375 253.8125 136.859375 C 254.21875 136.859375 255 137.046875 255 138.328125 C 255 138.984375 254.625 140.453125 253.8125 143.515625 C 253.46875 144.859375 252.6875 145.765625 251.75 145.765625 C 251.59375 145.765625 251.09375 145.765625 250.65625 145.484375 C 251.1875 145.390625 251.65625 144.921875 251.65625 144.328125 C 251.65625 143.734375 251.1875 143.546875 250.875 143.546875 C 250.21875 143.546875 249.65625 144.109375 249.65625 144.828125 C 249.65625 145.828125 250.75 146.265625 251.71875 146.265625 C 253.15625 146.265625 253.9375 144.734375 254 144.609375 C 254.28125 145.390625 255.0625 146.265625 256.375 146.265625 C 258.59375 146.265625 259.84375 143.453125 259.84375 142.890625 C 259.84375 142.671875 259.65625 142.671875 259.59375 142.671875 C 259.40625 142.671875 259.34375 142.765625 259.3125 142.921875 C 258.59375 145.265625 257.09375 145.765625 256.40625 145.765625 C 255.5625 145.765625 255.21875 145.078125 255.21875 144.328125 C 255.21875 143.859375 255.34375 143.390625 255.5625 142.421875 Z M 256.3125 139.421875 "/>
<path fill-rule="nonzero" fill="rgb(0%, 0%, 0%)" fill-opacity="1" d="M 289.222656 103.417969 C 289.222656 103.417969 289.222656 103.199219 288.941406 103.199219 C 288.628906 103.199219 286.535156 103.386719 286.160156 103.417969 C 286.003906 103.449219 285.878906 103.542969 285.878906 103.855469 C 285.878906 104.105469 286.066406 104.105469 286.378906 104.105469 C 287.441406 104.105469 287.472656 104.261719 287.472656 104.480469 L 287.410156 104.917969 L 286.097656 110.074219 C 285.722656 109.261719 285.097656 108.667969 284.097656 108.667969 C 281.535156 108.667969 278.847656 111.886719 278.847656 115.074219 C 278.847656 117.136719 280.035156 118.574219 281.753906 118.574219 C 282.191406 118.574219 283.285156 118.480469 284.566406 116.917969 C 284.753906 117.855469 285.535156 118.574219 286.566406 118.574219 C 287.316406 118.574219 287.816406 118.074219 288.191406 117.355469 C 288.566406 116.574219 288.847656 115.261719 288.847656 115.199219 C 288.847656 114.980469 288.628906 114.980469 288.566406 114.980469 C 288.347656 114.980469 288.347656 115.074219 288.253906 115.386719 C 287.910156 116.792969 287.503906 118.074219 286.597656 118.074219 C 286.035156 118.074219 285.941406 117.511719 285.941406 117.074219 C 285.941406 116.542969 286.003906 116.417969 286.097656 116.042969 Z M 284.691406 115.730469 C 284.566406 116.136719 284.566406 116.167969 284.253906 116.542969 C 283.285156 117.730469 282.410156 118.074219 281.785156 118.074219 C 280.691406 118.074219 280.378906 116.886719 280.378906 116.042969 C 280.378906 114.949219 281.097656 112.261719 281.597656 111.261719 C 282.285156 109.980469 283.253906 109.167969 284.128906 109.167969 C 285.535156 109.167969 285.847656 110.949219 285.847656 111.074219 C 285.847656 111.199219 285.816406 111.355469 285.785156 111.449219 Z M 284.691406 115.730469 "/>
<path fill-rule="nonzero" fill="rgb(0%, 0%, 0%)" fill-opacity="1" d="M 299.847656 110.011719 C 299.941406 109.699219 299.941406 109.667969 299.941406 109.511719 C 299.941406 109.105469 299.628906 108.917969 299.316406 108.917969 C 299.097656 108.917969 298.753906 109.042969 298.535156 109.386719 C 298.503906 109.480469 298.316406 110.167969 298.253906 110.574219 C 298.097656 111.136719 297.941406 111.730469 297.816406 112.292969 L 296.816406 116.230469 C 296.722656 116.542969 295.785156 118.074219 294.347656 118.074219 C 293.253906 118.074219 293.003906 117.136719 293.003906 116.324219 C 293.003906 115.324219 293.378906 113.949219 294.128906 112.042969 C 294.472656 111.136719 294.566406 110.917969 294.566406 110.480469 C 294.566406 109.480469 293.847656 108.667969 292.753906 108.667969 C 290.691406 108.667969 289.878906 111.855469 289.878906 112.042969 C 289.878906 112.261719 290.097656 112.261719 290.160156 112.261719 C 290.378906 112.261719 290.378906 112.230469 290.503906 111.855469 C 291.097656 109.824219 291.972656 109.167969 292.691406 109.167969 C 292.878906 109.167969 293.253906 109.167969 293.253906 109.855469 C 293.253906 110.417969 293.035156 110.980469 292.878906 111.386719 C 292.003906 113.699219 291.597656 114.949219 291.597656 115.980469 C 291.597656 117.917969 292.972656 118.574219 294.285156 118.574219 C 295.128906 118.574219 295.847656 118.199219 296.472656 117.574219 C 296.191406 118.730469 295.941406 119.792969 295.066406 120.949219 C 294.503906 121.667969 293.660156 122.324219 292.660156 122.324219 C 292.347656 122.324219 291.378906 122.261719 291.003906 121.386719 C 291.347656 121.386719 291.628906 121.386719 291.941406 121.136719 C 292.160156 120.949219 292.378906 120.667969 292.378906 120.230469 C 292.378906 119.574219 291.785156 119.480469 291.566406 119.480469 C 291.066406 119.480469 290.347656 119.824219 290.347656 120.886719 C 290.347656 121.980469 291.316406 122.792969 292.660156 122.792969 C 294.910156 122.792969 297.160156 120.824219 297.753906 118.355469 Z M 299.847656 110.011719 "/>
<path fill-rule="nonzero" fill="rgb(0%, 0%, 0%)" fill-opacity="1" d="M 366.003906 72.609375 C 366.003906 72.609375 366.003906 72.390625 365.722656 72.390625 C 365.410156 72.390625 363.316406 72.578125 362.941406 72.609375 C 362.785156 72.640625 362.660156 72.734375 362.660156 73.046875 C 362.660156 73.296875 362.847656 73.296875 363.160156 73.296875 C 364.222656 73.296875 364.253906 73.453125 364.253906 73.671875 L 364.191406 74.109375 L 362.878906 79.265625 C 362.503906 78.453125 361.878906 77.859375 360.878906 77.859375 C 358.316406 77.859375 355.628906 81.078125 355.628906 84.265625 C 355.628906 86.328125 356.816406 87.765625 358.535156 87.765625 C 358.972656 87.765625 360.066406 87.671875 361.347656 86.109375 C 361.535156 87.046875 362.316406 87.765625 363.347656 87.765625 C 364.097656 87.765625 364.597656 87.265625 364.972656 86.546875 C 365.347656 85.765625 365.628906 84.453125 365.628906 84.390625 C 365.628906 84.171875 365.410156 84.171875 365.347656 84.171875 C 365.128906 84.171875 365.128906 84.265625 365.035156 84.578125 C 364.691406 85.984375 364.285156 87.265625 363.378906 87.265625 C 362.816406 87.265625 362.722656 86.703125 362.722656 86.265625 C 362.722656 85.734375 362.785156 85.609375 362.878906 85.234375 Z M 361.472656 84.921875 C 361.347656 85.328125 361.347656 85.359375 361.035156 85.734375 C 360.066406 86.921875 359.191406 87.265625 358.566406 87.265625 C 357.472656 87.265625 357.160156 86.078125 357.160156 85.234375 C 357.160156 84.140625 357.878906 81.453125 358.378906 80.453125 C 359.066406 79.171875 360.035156 78.359375 360.910156 78.359375 C 362.316406 78.359375 362.628906 80.140625 362.628906 80.265625 C 362.628906 80.390625 362.597656 80.546875 362.566406 80.640625 Z M 361.472656 84.921875 "/>
<path fill-rule="nonzero" fill="rgb(0%, 0%, 0%)" fill-opacity="1" d="M 373.316406 80.921875 C 373.441406 80.359375 373.941406 78.359375 375.472656 78.359375 C 375.597656 78.359375 376.097656 78.359375 376.566406 78.640625 C 375.972656 78.734375 375.535156 79.296875 375.535156 79.828125 C 375.535156 80.171875 375.753906 80.578125 376.347656 80.578125 C 376.847656 80.578125 377.535156 80.171875 377.535156 79.328125 C 377.535156 78.171875 376.253906 77.859375 375.503906 77.859375 C 374.222656 77.859375 373.472656 79.015625 373.222656 79.546875 C 372.660156 78.078125 371.472656 77.859375 370.847656 77.859375 C 368.597656 77.859375 367.347656 80.703125 367.347656 81.234375 C 367.347656 81.453125 367.566406 81.453125 367.597656 81.453125 C 367.785156 81.453125 367.847656 81.421875 367.878906 81.203125 C 368.628906 78.890625 370.066406 78.359375 370.816406 78.359375 C 371.222656 78.359375 372.003906 78.546875 372.003906 79.828125 C 372.003906 80.484375 371.628906 81.953125 370.816406 85.015625 C 370.472656 86.359375 369.691406 87.265625 368.753906 87.265625 C 368.597656 87.265625 368.097656 87.265625 367.660156 86.984375 C 368.191406 86.890625 368.660156 86.421875 368.660156 85.828125 C 368.660156 85.234375 368.191406 85.046875 367.878906 85.046875 C 367.222656 85.046875 366.660156 85.609375 366.660156 86.328125 C 366.660156 87.328125 367.753906 87.765625 368.722656 87.765625 C 370.160156 87.765625 370.941406 86.234375 371.003906 86.109375 C 371.285156 86.890625 372.066406 87.765625 373.378906 87.765625 C 375.597656 87.765625 376.847656 84.953125 376.847656 84.390625 C 376.847656 84.171875 376.660156 84.171875 376.597656 84.171875 C 376.410156 84.171875 376.347656 84.265625 376.316406 84.421875 C 375.597656 86.765625 374.097656 87.265625 373.410156 87.265625 C 372.566406 87.265625 372.222656 86.578125 372.222656 85.828125 C 372.222656 85.359375 372.347656 84.890625 372.566406 83.921875 Z M 373.316406 80.921875 "/>
<path fill-rule="nonzero" fill="rgb(0%, 0%, 0%)" fill-opacity="1" d="M 406.222656 44.914062 C 406.222656 44.914062 406.222656 44.695312 405.941406 44.695312 C 405.628906 44.695312 403.535156 44.882812 403.160156 44.914062 C 403.003906 44.945312 402.878906 45.039062 402.878906 45.351562 C 402.878906 45.601562 403.066406 45.601562 403.378906 45.601562 C 404.441406 45.601562 404.472656 45.757812 404.472656 45.976562 L 404.410156 46.414062 L 403.097656 51.570312 C 402.722656 50.757812 402.097656 50.164062 401.097656 50.164062 C 398.535156 50.164062 395.847656 53.382812 395.847656 56.570312 C 395.847656 58.632812 397.035156 60.070312 398.753906 60.070312 C 399.191406 60.070312 400.285156 59.976562 401.566406 58.414062 C 401.753906 59.351562 402.535156 60.070312 403.566406 60.070312 C 404.316406 60.070312 404.816406 59.570312 405.191406 58.851562 C 405.566406 58.070312 405.847656 56.757812 405.847656 56.695312 C 405.847656 56.476562 405.628906 56.476562 405.566406 56.476562 C 405.347656 56.476562 405.347656 56.570312 405.253906 56.882812 C 404.910156 58.289062 404.503906 59.570312 403.597656 59.570312 C 403.035156 59.570312 402.941406 59.007812 402.941406 58.570312 C 402.941406 58.039062 403.003906 57.914062 403.097656 57.539062 Z M 401.691406 57.226562 C 401.566406 57.632812 401.566406 57.664062 401.253906 58.039062 C 400.285156 59.226562 399.410156 59.570312 398.785156 59.570312 C 397.691406 59.570312 397.378906 58.382812 397.378906 57.539062 C 397.378906 56.445312 398.097656 53.757812 398.597656 52.757812 C 399.285156 51.476562 400.253906 50.664062 401.128906 50.664062 C 402.535156 50.664062 402.847656 52.445312 402.847656 52.570312 C 402.847656 52.695312 402.816406 52.851562 402.785156 52.945312 Z M 401.691406 57.226562 "/>
<path fill-rule="nonzero" fill="rgb(0%, 0%, 0%)" fill-opacity="1" d="M 416.847656 51.507812 C 416.941406 51.195312 416.941406 51.164062 416.941406 51.007812 C 416.941406 50.601562 416.628906 50.414062 416.316406 50.414062 C 416.097656 50.414062 415.753906 50.539062 415.535156 50.882812 C 415.503906 50.976562 415.316406 51.664062 415.253906 52.070312 C 415.097656 52.632812 414.941406 53.226562 414.816406 53.789062 L 413.816406 57.726562 C 413.722656 58.039062 412.785156 59.570312 411.347656 59.570312 C 410.253906 59.570312 410.003906 58.632812 410.003906 57.820312 C 410.003906 56.820312 410.378906 55.445312 411.128906 53.539062 C 411.472656 52.632812 411.566406 52.414062 411.566406 51.976562 C 411.566406 50.976562 410.847656 50.164062 409.753906 50.164062 C 407.691406 50.164062 406.878906 53.351562 406.878906 53.539062 C 406.878906 53.757812 407.097656 53.757812 407.160156 53.757812 C 407.378906 53.757812 407.378906 53.726562 407.503906 53.351562 C 408.097656 51.320312 408.972656 50.664062 409.691406 50.664062 C 409.878906 50.664062 410.253906 50.664062 410.253906 51.351562 C 410.253906 51.914062 410.035156 52.476562 409.878906 52.882812 C 409.003906 55.195312 408.597656 56.445312 408.597656 57.476562 C 408.597656 59.414062 409.972656 60.070312 411.285156 60.070312 C 412.128906 60.070312 412.847656 59.695312 413.472656 59.070312 C 413.191406 60.226562 412.941406 61.289062 412.066406 62.445312 C 411.503906 63.164062 410.660156 63.820312 409.660156 63.820312 C 409.347656 63.820312 408.378906 63.757812 408.003906 62.882812 C 408.347656 62.882812 408.628906 62.882812 408.941406 62.632812 C 409.160156 62.445312 409.378906 62.164062 409.378906 61.726562 C 409.378906 61.070312 408.785156 60.976562 408.566406 60.976562 C 408.066406 60.976562 407.347656 61.320312 407.347656 62.382812 C 407.347656 63.476562 408.316406 64.289062 409.660156 64.289062 C 411.910156 64.289062 414.160156 62.320312 414.753906 59.851562 Z M 416.847656 51.507812 "/>
<path fill="none" stroke-width="11.9553" stroke-linecap="butt" stroke-linejoin="miter" stroke="rgb(0%, 0%, 0%)" stroke-opacity="1" stroke-miterlimit="10" d="M 292.499996 737.851552 L 1980.039033 1581.601539 " transform="matrix(0.2, 0, 0, -0.2, 0, 356)"/>
<path fill-rule="nonzero" fill="rgb(100%, 100%, 100%)" fill-opacity="1" d="M 6.695312 291.703125 L 35.976562 291.703125 L 35.976562 318.585938 L 6.695312 318.585938 Z M 6.695312 291.703125 "/>
<path fill-rule="nonzero" fill="rgb(0%, 0%, 0%)" fill-opacity="1" d="M 28.875 303.058594 C 28.875 299.527344 26.5625 297.183594 23.3125 297.183594 C 18.59375 297.183594 13.78125 302.121094 13.78125 307.214844 C 13.78125 310.839844 16.21875 313.027344 19.375 313.027344 C 24 313.027344 28.875 308.246094 28.875 303.058594 Z M 19.5 312.464844 C 17.34375 312.464844 15.8125 310.714844 15.8125 307.839844 C 15.8125 306.871094 16.125 303.683594 17.8125 301.121094 C 19.3125 298.871094 21.4375 297.714844 23.15625 297.714844 C 24.96875 297.714844 26.90625 298.933594 26.90625 302.183594 C 26.90625 303.777344 26.34375 307.183594 24.15625 309.839844 C 23.125 311.183594 21.34375 312.464844 19.5 312.464844 Z M 19.5 312.464844 "/>
<path fill-rule="nonzero" fill="rgb(100%, 100%, 100%)" fill-opacity="1" d="M 376.15625 291.703125 L 408.078125 291.703125 L 408.078125 318.585938 L 376.15625 318.585938 Z M 376.15625 291.703125 "/>
<path fill-rule="nonzero" fill="rgb(0%, 0%, 0%)" fill-opacity="1" d="M 392.777344 303.589844 L 390.933594 299.246094 C 390.871094 299.089844 390.808594 298.996094 390.808594 298.964844 C 390.808594 298.839844 391.183594 298.433594 392.121094 298.339844 C 392.339844 298.308594 392.558594 298.308594 392.558594 297.933594 C 392.558594 297.652344 392.277344 297.652344 392.214844 297.652344 C 391.308594 297.652344 390.371094 297.714844 389.464844 297.714844 C 388.933594 297.714844 387.558594 297.652344 387.027344 297.652344 C 386.902344 297.652344 386.621094 297.652344 386.621094 298.089844 C 386.621094 298.339844 386.839844 298.339844 387.121094 298.339844 C 388.433594 298.339844 388.589844 298.558594 388.777344 299.027344 L 391.339844 305.121094 L 386.746094 310.058594 L 386.464844 310.308594 C 385.402344 311.464844 384.371094 311.808594 383.246094 311.871094 C 382.964844 311.902344 382.777344 311.902344 382.777344 312.308594 C 382.777344 312.339844 382.777344 312.558594 383.058594 312.558594 C 383.714844 312.558594 384.433594 312.496094 385.121094 312.496094 C 385.902344 312.496094 386.777344 312.558594 387.558594 312.558594 C 387.683594 312.558594 387.933594 312.558594 387.933594 312.121094 C 387.933594 311.902344 387.714844 311.871094 387.683594 311.871094 C 387.496094 311.871094 386.808594 311.808594 386.808594 311.214844 C 386.808594 310.871094 387.121094 310.496094 387.402344 310.214844 L 389.621094 307.871094 L 391.589844 305.746094 L 393.777344 310.933594 C 393.871094 311.183594 393.902344 311.214844 393.902344 311.246094 C 393.902344 311.433594 393.496094 311.808594 392.621094 311.871094 C 392.402344 311.902344 392.183594 311.933594 392.183594 312.308594 C 392.183594 312.558594 392.433594 312.558594 392.527344 312.558594 C 393.121094 312.558594 394.652344 312.496094 395.277344 312.496094 C 395.808594 312.496094 397.152344 312.558594 397.683594 312.558594 C 397.839844 312.558594 398.121094 312.558594 398.121094 312.152344 C 398.121094 311.871094 397.902344 311.871094 397.714844 311.871094 C 396.246094 311.871094 396.214844 311.808594 395.839844 310.933594 C 394.996094 308.902344 393.527344 305.496094 393.027344 304.183594 C 394.496094 302.652344 396.808594 300.058594 397.496094 299.464844 C 398.121094 298.933594 398.964844 298.402344 400.277344 298.339844 C 400.558594 298.308594 400.746094 298.308594 400.746094 297.902344 C 400.746094 297.871094 400.746094 297.652344 400.464844 297.652344 C 399.808594 297.652344 399.089844 297.714844 398.402344 297.714844 C 397.589844 297.714844 396.777344 297.652344 395.996094 297.652344 C 395.871094 297.652344 395.589844 297.652344 395.589844 298.089844 C 395.589844 298.246094 395.683594 298.308594 395.839844 298.339844 C 396.027344 298.371094 396.714844 298.402344 396.714844 299.027344 C 396.714844 299.308594 396.464844 299.589844 396.308594 299.808594 Z M 392.777344 303.589844 "/>
<path fill-rule="nonzero" fill="rgb(100%, 100%, 100%)" fill-opacity="1" d="M 6.453125 -5.757812 L 35.976562 -5.757812 L 35.976562 21.125 L 6.453125 21.125 Z M 6.453125 -5.757812 "/>
<path fill-rule="nonzero" fill="rgb(0%, 0%, 0%)" fill-opacity="1" d="M 25.511719 2.695312 L 25.792969 2.382812 C 26.449219 1.726562 27.167969 0.976562 28.667969 0.882812 C 28.917969 0.851562 29.105469 0.851562 29.105469 0.476562 C 29.105469 0.289062 28.980469 0.195312 28.824219 0.195312 C 28.261719 0.195312 27.605469 0.257812 27.042969 0.257812 C 26.324219 0.257812 25.542969 0.195312 24.855469 0.195312 C 24.730469 0.195312 24.449219 0.195312 24.449219 0.632812 C 24.449219 0.851562 24.636719 0.882812 24.761719 0.882812 C 24.917969 0.882812 25.542969 0.914062 25.542969 1.382812 C 25.542969 1.757812 25.042969 2.320312 24.949219 2.414062 L 19.886719 8.257812 L 17.511719 1.789062 C 17.355469 1.476562 17.355469 1.414062 17.355469 1.414062 C 17.355469 0.882812 18.449219 0.882812 18.667969 0.882812 C 18.949219 0.882812 19.167969 0.882812 19.167969 0.445312 C 19.167969 0.195312 18.917969 0.195312 18.855469 0.195312 C 18.230469 0.195312 16.699219 0.257812 16.105469 0.257812 C 15.542969 0.257812 14.199219 0.195312 13.667969 0.195312 C 13.542969 0.195312 13.230469 0.195312 13.230469 0.632812 C 13.230469 0.882812 13.449219 0.882812 13.730469 0.882812 C 15.042969 0.882812 15.136719 1.070312 15.324219 1.632812 L 18.011719 8.789062 C 18.042969 8.851562 18.105469 9.101562 18.105469 9.164062 C 18.105469 9.226562 17.230469 12.757812 17.136719 13.132812 C 16.855469 14.351562 16.824219 14.414062 15.074219 14.414062 C 14.667969 14.414062 14.480469 14.414062 14.480469 14.851562 C 14.480469 15.101562 14.761719 15.101562 14.792969 15.101562 C 15.417969 15.101562 16.917969 15.039062 17.542969 15.039062 C 18.136719 15.039062 19.730469 15.101562 20.324219 15.101562 C 20.480469 15.101562 20.761719 15.101562 20.761719 14.664062 C 20.761719 14.414062 20.542969 14.414062 20.136719 14.414062 C 20.105469 14.414062 19.667969 14.414062 19.292969 14.382812 C 18.855469 14.351562 18.730469 14.289062 18.730469 14.039062 C 18.730469 13.882812 18.917969 13.101562 19.011719 12.664062 L 19.792969 9.570312 C 19.886719 9.164062 19.917969 9.101562 20.105469 8.914062 Z M 25.511719 2.695312 "/>
<path fill="none" stroke-width="11.9553" stroke-linecap="butt" stroke-linejoin="miter" stroke="rgb(0%, 0%, 0%)" stroke-opacity="1" stroke-miterlimit="10" d="M 0 321.601558 L 1980.039033 321.601558 " transform="matrix(0.2, 0, 0, -0.2, 0, 356)"/>
<path fill="none" stroke-width="11.9553" stroke-linecap="butt" stroke-linejoin="miter" stroke="rgb(0%, 0%, 0%)" stroke-opacity="1" stroke-miterlimit="10" d="M 179.999997 177.617185 L 179.999997 1761.601536 " transform="matrix(0.2, 0, 0, -0.2, 0, 356)"/>
<path fill-rule="nonzero" fill="rgb(0%, 0%, 0%)" fill-opacity="1" d="M 171.601562 348.300781 C 172.789062 347.894531 174.789062 347.300781 174.789062 345.363281 C 174.789062 343.050781 172.070312 341.988281 170.101562 341.988281 C 169.164062 341.988281 168.195312 342.207031 167.351562 342.707031 C 167.226562 342.769531 167.070312 342.957031 166.914062 342.957031 C 166.601562 342.957031 166.039062 341.988281 165.726562 341.988281 C 165.539062 341.988281 165.507812 342.207031 165.507812 342.300781 L 165.507812 345.863281 C 165.507812 345.988281 165.601562 346.144531 165.789062 346.144531 C 166.101562 346.144531 166.070312 345.519531 166.164062 345.175781 C 166.632812 343.457031 168.195312 342.707031 169.695312 342.613281 L 170.101562 342.613281 C 171.445312 342.613281 173.007812 343.488281 173.007812 345.363281 C 173.007812 347.175781 171.226562 348.113281 169.570312 348.113281 C 169.257812 348.113281 168.945312 348.113281 168.632812 348.113281 L 168.476562 348.113281 C 168.289062 348.113281 168.070312 348.113281 168.070312 348.332031 L 168.070312 348.363281 C 168.101562 348.550781 168.289062 348.582031 168.476562 348.582031 L 170.320312 348.582031 C 171.882812 348.707031 173.320312 349.738281 173.476562 351.363281 L 173.476562 351.582031 C 173.476562 353.425781 171.757812 354.582031 170.007812 354.582031 C 168.101562 354.582031 166.132812 353.957031 165.820312 351.582031 C 165.820312 351.425781 165.757812 351.238281 165.539062 351.238281 C 165.320312 351.269531 165.289062 351.425781 165.289062 351.582031 C 165.289062 354.175781 167.882812 355.207031 170.132812 355.207031 C 172.195312 355.207031 175.070312 354.238281 175.320312 351.769531 L 175.320312 351.644531 C 175.320312 349.675781 173.257812 348.707031 171.601562 348.300781 Z M 171.601562 348.300781 "/>
<path fill-rule="nonzero" fill="rgb(0%, 0%, 0%)" fill-opacity="1" d="M 183.695312 341.988281 C 180.320312 342.394531 177.632812 345.050781 177.632812 348.644531 C 177.632812 351.925781 180.226562 355.175781 184.101562 355.175781 C 187.601562 355.175781 190.570312 352.269531 190.570312 348.644531 C 190.570312 345.457031 188.070312 341.988281 184.132812 341.988281 C 184.007812 341.988281 183.851562 341.988281 183.695312 341.988281 Z M 179.507812 348.863281 L 179.507812 348.519531 C 179.507812 346.019531 180.414062 343.082031 183.570312 342.550781 C 183.757812 342.519531 183.914062 342.519531 184.101562 342.519531 C 186.914062 342.519531 188.664062 345.238281 188.664062 348.269531 C 188.664062 350.675781 187.945312 353.738281 184.976562 354.519531 C 184.695312 354.582031 184.414062 354.613281 184.132812 354.613281 L 183.945312 354.613281 C 181.351562 354.519531 179.945312 352.050781 179.601562 349.644531 Z M 179.507812 348.863281 "/>
<path fill-rule="nonzero" fill="rgb(0%, 0%, 0%)" fill-opacity="1" d="M 193.027344 342.332031 L 193.027344 342.925781 L 193.464844 342.925781 C 194.058594 342.925781 194.683594 343.019531 194.683594 343.894531 L 194.683594 353.363281 C 194.683594 354.207031 193.964844 354.238281 193.308594 354.238281 L 193.027344 354.238281 L 193.027344 354.832031 L 198.808594 354.832031 C 199.214844 354.832031 199.589844 354.863281 199.996094 354.863281 C 201.996094 354.863281 204.339844 353.925781 204.558594 351.519531 L 204.558594 351.332031 C 204.558594 348.800781 201.683594 347.769531 199.777344 347.769531 C 198.527344 347.769531 197.339844 347.894531 196.152344 347.988281 L 196.152344 343.769531 C 196.152344 343.332031 196.214844 342.925781 196.996094 342.925781 L 199.308594 342.925781 C 200.277344 342.925781 201.371094 342.988281 202.089844 343.707031 C 202.777344 344.425781 202.871094 345.644531 202.964844 346.582031 L 203.496094 346.582031 L 203.027344 342.332031 Z M 196.152344 348.613281 C 196.402344 348.613281 196.652344 348.550781 196.902344 348.519531 L 198.277344 348.457031 C 198.558594 348.425781 198.839844 348.394531 199.152344 348.394531 C 200.714844 348.394531 202.683594 349.394531 202.683594 351.238281 C 202.683594 352.988281 201.339844 354.269531 199.339844 354.269531 C 199.058594 354.269531 198.746094 354.238281 198.496094 354.238281 L 196.964844 354.238281 C 196.496094 354.238281 196.246094 354.207031 196.152344 353.582031 Z M 196.152344 348.613281 "/>
<path fill-rule="nonzero" fill="rgb(0%, 0%, 0%)" fill-opacity="1" d="M 206.90625 342.332031 L 206.90625 342.925781 L 207.375 342.925781 C 207.96875 342.925781 208.5625 343.019531 208.5625 343.894531 L 208.5625 353.363281 C 208.5625 354.207031 207.875 354.238281 207.1875 354.238281 L 206.90625 354.238281 L 206.90625 354.832031 L 211.8125 354.832031 L 211.8125 354.238281 L 211.375 354.238281 C 210.75 354.238281 210.15625 354.175781 210.15625 353.300781 L 210.15625 349.113281 L 213.875 349.113281 C 215.65625 348.988281 217.9375 347.800781 217.9375 345.769531 C 217.9375 343.550781 215.59375 342.488281 213.6875 342.332031 Z M 210.125 348.582031 L 210.125 343.582031 C 210.21875 342.988281 210.46875 342.925781 210.875 342.925781 L 212.3125 342.925781 C 213.9375 342.925781 216.0625 342.988281 216.0625 345.769531 C 216.0625 346.425781 215.96875 347.113281 215.5625 347.613281 C 214.90625 348.394531 213.8125 348.582031 212.84375 348.582031 Z M 210.125 348.582031 "/>
<path fill-rule="nonzero" fill="rgb(0%, 0%, 0%)" fill-opacity="1" d="M 222.636719 352.550781 C 222.136719 352.644531 221.636719 353.082031 221.636719 353.675781 C 221.636719 354.300781 222.167969 354.832031 222.792969 354.832031 C 223.417969 354.832031 223.980469 354.363281 223.980469 353.707031 C 223.980469 353.082031 223.449219 352.519531 222.824219 352.519531 C 222.761719 352.519531 222.699219 352.550781 222.636719 352.550781 Z M 222.636719 352.550781 "/>
<path fill-rule="nonzero" fill="rgb(0%, 0%, 0%)" fill-opacity="1" d="M 237.816406 340.457031 L 237.816406 341.175781 C 238.910156 341.175781 239.941406 340.988281 240.972656 340.519531 L 240.972656 353.082031 C 240.972656 354.019531 240.066406 354.175781 239.097656 354.175781 C 238.691406 354.175781 238.285156 354.144531 237.941406 354.144531 L 237.941406 354.832031 L 245.660156 354.832031 L 245.660156 354.144531 C 245.285156 354.144531 244.847656 354.175781 244.441406 354.175781 C 243.503906 354.175781 242.628906 354.019531 242.628906 353.113281 L 242.628906 339.300781 C 242.628906 339.144531 242.597656 338.957031 242.347656 338.957031 C 242.035156 338.957031 241.691406 339.394531 241.378906 339.582031 C 240.316406 340.269531 239.035156 340.457031 237.816406 340.457031 Z M 237.816406 340.457031 "/>
<path fill-rule="nonzero" fill="rgb(0%, 0%, 0%)" fill-opacity="1" d="M 250.246094 342.332031 C 250.652344 340.769531 252.058594 339.644531 253.683594 339.644531 C 255.933594 339.644531 257.183594 341.613281 257.183594 343.550781 C 257.183594 345.238281 256.246094 346.738281 255.214844 347.988281 C 253.527344 350.082031 251.496094 351.957031 249.714844 353.925781 C 249.558594 354.113281 249.402344 354.269531 249.402344 354.519531 C 249.402344 354.613281 249.433594 354.738281 249.433594 354.832031 L 258.558594 354.832031 L 259.183594 350.832031 L 258.652344 350.832031 C 258.464844 351.800781 258.527344 353.082031 257.527344 353.082031 C 257.308594 353.113281 257.121094 353.113281 256.933594 353.113281 L 256.339844 353.113281 C 255.996094 353.144531 255.621094 353.144531 255.308594 353.144531 L 251.152344 353.144531 C 252.652344 351.644531 254.277344 350.175781 255.902344 348.800781 C 257.433594 347.488281 259.027344 345.957031 259.183594 343.832031 L 259.183594 343.519531 C 259.183594 340.800781 256.839844 338.957031 253.996094 338.957031 C 251.652344 338.957031 249.433594 340.863281 249.433594 343.300781 C 249.433594 344.113281 249.902344 344.582031 250.589844 344.582031 C 251.214844 344.582031 251.714844 344.113281 251.714844 343.425781 C 251.714844 342.800781 251.246094 342.300781 250.527344 342.300781 C 250.433594 342.300781 250.339844 342.300781 250.246094 342.332031 Z M 250.246094 342.332031 "/>
<path fill-rule="nonzero" fill="rgb(0%, 0%, 0%)" fill-opacity="1" d="M 264.144531 352.550781 C 263.644531 352.644531 263.144531 353.082031 263.144531 353.675781 C 263.144531 354.300781 263.675781 354.832031 264.300781 354.832031 C 264.925781 354.832031 265.488281 354.363281 265.488281 353.707031 C 265.488281 353.082031 264.957031 352.519531 264.332031 352.519531 C 264.269531 352.519531 264.207031 352.550781 264.144531 352.550781 Z M 264.144531 352.550781 "/>
</svg>
