<?xml version="1.0" encoding="UTF-8"?>
<svg xmlns="http://www.w3.org/2000/svg" xmlns:xlink="http://www.w3.org/1999/xlink" width="418" height="356" viewBox="0 0 418 356">
<path fill="none" stroke-width="11.9553" stroke-linecap="butt" stroke-linejoin="miter" stroke="rgb(0%, 0%, 0%)" stroke-opacity="1" stroke-miterlimit="10" d="M 562.499992 493.046868 L 764.999989 493.046868 " transform="matrix(0.2, 0, 0, -0.2, 0, 356)"/>
<path fill="none" stroke-width="11.9553" stroke-linecap="butt" stroke-linejoin="miter" stroke="rgb(0%, 0%, 0%)" stroke-opacity="1" stroke-miterlimit="10" d="M 764.999989 557.148429 L 764.999989 493.046868 " transform="matrix(0.2, 0, 0, -0.2, 0, 356)"/>
<path fill="none" stroke-width="11.9553" stroke-linecap="butt" stroke-linejoin="miter" stroke="rgb(0%, 0%, 0%)" stroke-opacity="1" stroke-miterlimit="10" d="M 1147.499983 695.46874 L 1350.039042 695.46874 " transform="matrix(0.2, 0, 0, -0.2, 0, 356)"/>
<path fill="none" stroke-width="11.9553" stroke-linecap="butt" stroke-linejoin="miter" stroke="rgb(0%, 0%, 0%)" stroke-opacity="1" stroke-miterlimit="10" d="M 1350.039042 783.476551 L 1350.039042 695.46874 " transform="matrix(0.2, 0, 0, -0.2, 0, 356)"/>
<path fill="none" stroke-width="11.9553" stroke-linecap="butt" stroke-linejoin="miter" stroke="rgb(0%, 0%, 0%)" stroke-opacity="1" stroke-miterlimit="10" d="M 1732.539037 1018.007797 L 1935.039034 1018.007797 " transform="matrix(0.2, 0, 0, -0.2, 0, 356)"/>
<path fill="none" stroke-width="11.9553" stroke-linecap="butt" stroke-linejoin="miter" stroke="rgb(0%, 0%, 0%)" stroke-opacity="1" stroke-miterlimit="10" d="M 1935.039034 1300.664043 L 1935.039034 1018.007797 " transform="matrix(0.2, 0, 0, -0.2, 0, 356)"/>
<path fill="none" stroke-width="7.9701" stroke-linecap="butt" stroke-linejoin="miter" stroke="rgb(0%, 0%, 0%)" stroke-opacity="1" stroke-miterlimit="10" d="M 562.499992 493.046868 L 562.499992 471.640618 " transform="matrix(0.2, 0, 0, -0.2, 0, 356)"/>
<path fill="none" stroke-width="7.9701" stroke-linecap="butt" stroke-linejoin="miter" stroke="rgb(0%, 0%, 0%)" stroke-opacity="1" stroke-miterlimit="10" d="M 562.499992 428.789056 L 562.499992 407.343744 " transform="matrix(0.2, 0, 0, -0.2, 0, 356)"/>
<path fill="none" stroke-width="7.9701" stroke-linecap="butt" stroke-linejoin="miter" stroke="rgb(0%, 0%, 0%)" stroke-opacity="1" stroke-miterlimit="10" d="M 562.499992 407.343744 L 562.499992 385.898432 " transform="matrix(0.2, 0, 0, -0.2, 0, 356)"/>
<path fill="none" stroke-width="7.9701" stroke-linecap="butt" stroke-linejoin="miter" stroke="rgb(0%, 0%, 0%)" stroke-opacity="1" stroke-miterlimit="10" d="M 562.499992 343.04687 L 562.499992 321.601558 " transform="matrix(0.2, 0, 0, -0.2, 0, 356)"/>
<path fill="none" stroke-width="7.9701" stroke-linecap="butt" stroke-linejoin="miter" stroke="rgb(0%, 0%, 0%)" stroke-opacity="1" stroke-miterlimit="10" d="M 764.999989 493.046868 L 764.999989 471.640618 " transform="matrix(0.2, 0, 0, -0.2, 0, 356)"/>
<path fill="none" stroke-width="7.9701" stroke-linecap="butt" stroke-linejoin="miter" stroke="rgb(0%, 0%, 0%)" stroke-opacity="1" stroke-miterlimit="10" d="M 764.999989 428.789056 L 764.999989 407.343744 " transform="matrix(0.2, 0, 0, -0.2, 0, 356)"/>
<path fill="none" stroke-width="7.9701" stroke-linecap="butt" stroke-linejoin="miter" stroke="rgb(0%, 0%, 0%)" stroke-opacity="1" stroke-miterlimit="10" d="M 764.999989 407.343744 L 764.999989 385.898432 " transform="matrix(0.2, 0, 0, -0.2, 0, 356)"/>
<path fill="none" stroke-width="7.9701" stroke-linecap="butt" stroke-linejoin="miter" stroke="rgb(0%, 0%, 0%)" stroke-opacity="1" stroke-miterlimit="10" d="M 764.999989 343.04687 L 764.999989 321.601558 " transform="matrix(0.2, 0, 0, -0.2, 0, 356)"/>
<path fill="none" stroke-width="7.9701" stroke-linecap="butt" stroke-linejoin="miter" stroke="rgb(0%, 0%, 0%)" stroke-opacity="1" stroke-miterlimit="10" d="M 1147.499983 695.46874 L 1147.499983 672.109365 " transform="matrix(0.2, 0, 0, -0.2, 0, 356)"/>
<path fill="none" stroke-width="7.9701" stroke-linecap="butt" stroke-linejoin="miter" stroke="rgb(0%, 0%, 0%)" stroke-opacity="1" stroke-miterlimit="10" d="M 1147.499983 625.351553 L 1147.499983 601.992179 " transform="matrix(0.2, 0, 0, -0.2, 0, 356)"/>
<path fill="none" stroke-width="7.9701" stroke-linecap="butt" stroke-linejoin="miter" stroke="rgb(0%, 0%, 0%)" stroke-opacity="1" stroke-miterlimit="10" d="M 1147.499983 601.992179 L 1147.499983 578.632804 " transform="matrix(0.2, 0, 0, -0.2, 0, 356)"/>
<path fill="none" stroke-width="7.9701" stroke-linecap="butt" stroke-linejoin="miter" stroke="rgb(0%, 0%, 0%)" stroke-opacity="1" stroke-miterlimit="10" d="M 1147.499983 531.914055 L 1147.499983 508.515617 " transform="matrix(0.2, 0, 0, -0.2, 0, 356)"/>
<path fill="none" stroke-width="7.9701" stroke-linecap="butt" stroke-linejoin="miter" stroke="rgb(0%, 0%, 0%)" stroke-opacity="1" stroke-miterlimit="10" d="M 1147.499983 508.515617 L 1147.499983 485.156243 " transform="matrix(0.2, 0, 0, -0.2, 0, 356)"/>
<path fill="none" stroke-width="7.9701" stroke-linecap="butt" stroke-linejoin="miter" stroke="rgb(0%, 0%, 0%)" stroke-opacity="1" stroke-miterlimit="10" d="M 1147.499983 438.437493 L 1147.499983 415.078119 " transform="matrix(0.2, 0, 0, -0.2, 0, 356)"/>
<path fill="none" stroke-width="7.9701" stroke-linecap="butt" stroke-linejoin="miter" stroke="rgb(0%, 0%, 0%)" stroke-opacity="1" stroke-miterlimit="10" d="M 1147.499983 415.078119 L 1147.499983 391.718744 " transform="matrix(0.2, 0, 0, -0.2, 0, 356)"/>
<path fill="none" stroke-width="7.9701" stroke-linecap="butt" stroke-linejoin="miter" stroke="rgb(0%, 0%, 0%)" stroke-opacity="1" stroke-miterlimit="10" d="M 1147.499983 344.960932 L 1147.499983 321.601558 " transform="matrix(0.2, 0, 0, -0.2, 0, 356)"/>
<path fill="none" stroke-width="7.9701" stroke-linecap="butt" stroke-linejoin="miter" stroke="rgb(0%, 0%, 0%)" stroke-opacity="1" stroke-miterlimit="10" d="M 1350.039042 695.46874 L 1350.039042 672.109365 " transform="matrix(0.2, 0, 0, -0.2, 0, 356)"/>
<path fill="none" stroke-width="7.9701" stroke-linecap="butt" stroke-linejoin="miter" stroke="rgb(0%, 0%, 0%)" stroke-opacity="1" stroke-miterlimit="10" d="M 1350.039042 625.351553 L 1350.039042 601.992179 " transform="matrix(0.2, 0, 0, -0.2, 0, 356)"/>
<path fill="none" stroke-width="7.9701" stroke-linecap="butt" stroke-linejoin="miter" stroke="rgb(0%, 0%, 0%)" stroke-opacity="1" stroke-miterlimit="10" d="M 1350.039042 601.992179 L 1350.039042 578.632804 " transform="matrix(0.2, 0, 0, -0.2, 0, 356)"/>
<path fill="none" stroke-width="7.9701" stroke-linecap="butt" stroke-linejoin="miter" stroke="rgb(0%, 0%, 0%)" stroke-opacity="1" stroke-miterlimit="10" d="M 1350.039042 531.914055 L 1350.039042 508.515617 " transform="matrix(0.2, 0, 0, -0.2, 0, 356)"/>
<path fill="none" stroke-width="7.9701" stroke-linecap="butt" stroke-linejoin="miter" stroke="rgb(0%, 0%, 0%)" stroke-opacity="1" stroke-miterlimit="10" d="M 1350.039042 508.515617 L 1350.039042 485.156243 " transform="matrix(0.2, 0, 0, -0.2, 0, 356)"/>
<path fill="none" stroke-width="7.9701" stroke-linecap="butt" stroke-linejoin="miter" stroke="rgb(0%, 0%, 0%)" stroke-opacity="1" stroke-miterlimit="10" d="M 1350.039042 438.437493 L 1350.039042 415.078119 " transform="matrix(0.2, 0, 0, -0.2, 0, 356)"/>
<path fill="none" stroke-width="7.9701" stroke-linecap="butt" stroke-linejoin="miter" stroke="rgb(0%, 0%, 0%)" stroke-opacity="1" stroke-miterlimit="10" d="M 1350.039042 415.078119 L 1350.039042 391.718744 " transform="matrix(0.2, 0, 0, -0.2, 0, 356)"/>
<path fill="none" stroke-width="7.9701" stroke-linecap="butt" stroke-linejoin="miter" stroke="rgb(0%, 0%, 0%)" stroke-opacity="1" stroke-miterlimit="10" d="M 1350.039042 344.960932 L 1350.039042 321.601558 " transform="matrix(0.2, 0, 0, -0.2, 0, 356)"/>
<path fill="none" stroke-width="7.9701" stroke-linecap="butt" stroke-linejoin="miter" stroke="rgb(0%, 0%, 0%)" stroke-opacity="1" stroke-miterlimit="10" d="M 1732.539037 1018.007797 L 1732.539037 988.98436 " transform="matrix(0.2, 0, 0, -0.2, 0, 356)"/>
<path fill="none" stroke-width="7.9701" stroke-linecap="butt" stroke-linejoin="miter" stroke="rgb(0%, 0%, 0%)" stroke-opacity="1" stroke-miterlimit="10" d="M 1732.539037 930.937486 L 1732.539037 901.953112 " transform="matrix(0.2, 0, 0, -0.2, 0, 356)"/>
<path fill="none" stroke-width="7.9701" stroke-linecap="butt" stroke-linejoin="miter" stroke="rgb(0%, 0%, 0%)" stroke-opacity="1" stroke-miterlimit="10" d="M 1732.539037 901.953112 L 1732.539037 872.929674 " transform="matrix(0.2, 0, 0, -0.2, 0, 356)"/>
<path fill="none" stroke-width="7.9701" stroke-linecap="butt" stroke-linejoin="miter" stroke="rgb(0%, 0%, 0%)" stroke-opacity="1" stroke-miterlimit="10" d="M 1732.539037 814.8828 L 1732.539037 785.859363 " transform="matrix(0.2, 0, 0, -0.2, 0, 356)"/>
<path fill="none" stroke-width="7.9701" stroke-linecap="butt" stroke-linejoin="miter" stroke="rgb(0%, 0%, 0%)" stroke-opacity="1" stroke-miterlimit="10" d="M 1732.539037 785.859363 L 1732.539037 756.835926 " transform="matrix(0.2, 0, 0, -0.2, 0, 356)"/>
<path fill="none" stroke-width="7.9701" stroke-linecap="butt" stroke-linejoin="miter" stroke="rgb(0%, 0%, 0%)" stroke-opacity="1" stroke-miterlimit="10" d="M 1732.539037 698.828115 L 1732.539037 669.804678 " transform="matrix(0.2, 0, 0, -0.2, 0, 356)"/>
<path fill="none" stroke-width="7.9701" stroke-linecap="butt" stroke-linejoin="miter" stroke="rgb(0%, 0%, 0%)" stroke-opacity="1" stroke-miterlimit="10" d="M 1732.539037 669.804678 L 1732.539037 640.78124 " transform="matrix(0.2, 0, 0, -0.2, 0, 356)"/>
<path fill="none" stroke-width="7.9701" stroke-linecap="butt" stroke-linejoin="miter" stroke="rgb(0%, 0%, 0%)" stroke-opacity="1" stroke-miterlimit="10" d="M 1732.539037 582.734366 L 1732.539037 553.749992 " transform="matrix(0.2, 0, 0, -0.2, 0, 356)"/>
<path fill="none" stroke-width="7.9701" stroke-linecap="butt" stroke-linejoin="miter" stroke="rgb(0%, 0%, 0%)" stroke-opacity="1" stroke-miterlimit="10" d="M 1732.539037 553.749992 L 1732.539037 524.726555 " transform="matrix(0.2, 0, 0, -0.2, 0, 356)"/>
<path fill="none" stroke-width="7.9701" stroke-linecap="butt" stroke-linejoin="miter" stroke="rgb(0%, 0%, 0%)" stroke-opacity="1" stroke-miterlimit="10" d="M 1732.539037 466.679681 L 1732.539037 437.656243 " transform="matrix(0.2, 0, 0, -0.2, 0, 356)"/>
<path fill="none" stroke-width="7.9701" stroke-linecap="butt" stroke-linejoin="miter" stroke="rgb(0%, 0%, 0%)" stroke-opacity="1" stroke-miterlimit="10" d="M 1732.539037 437.656243 L 1732.539037 408.632806 " transform="matrix(0.2, 0, 0, -0.2, 0, 356)"/>
<path fill="none" stroke-width="7.9701" stroke-linecap="butt" stroke-linejoin="miter" stroke="rgb(0%, 0%, 0%)" stroke-opacity="1" stroke-miterlimit="10" d="M 1732.539037 350.624995 L 1732.539037 321.601558 " transform="matrix(0.2, 0, 0, -0.2, 0, 356)"/>
<path fill="none" stroke-width="7.9701" stroke-linecap="butt" stroke-linejoin="miter" stroke="rgb(0%, 0%, 0%)" stroke-opacity="1" stroke-miterlimit="10" d="M 1935.039034 1018.007797 L 1935.039034 988.98436 " transform="matrix(0.2, 0, 0, -0.2, 0, 356)"/>
<path fill="none" stroke-width="7.9701" stroke-linecap="butt" stroke-linejoin="miter" stroke="rgb(0%, 0%, 0%)" stroke-opacity="1" stroke-miterlimit="10" d="M 1935.039034 930.937486 L 1935.039034 901.953112 " transform="matrix(0.2, 0, 0, -0.2, 0, 356)"/>
<path fill="none" stroke-width="7.9701" stroke-linecap="butt" stroke-linejoin="miter" stroke="rgb(0%, 0%, 0%)" stroke-opacity="1" stroke-miterlimit="10" d="M 1935.039034 901.953112 L 1935.039034 872.929674 " transform="matrix(0.2, 0, 0, -0.2, 0, 356)"/>
<path fill="none" stroke-width="7.9701" stroke-linecap="butt" stroke-linejoin="miter" stroke="rgb(0%, 0%, 0%)" stroke-opacity="1" stroke-miterlimit="10" d="M 1935.039034 814.8828 L 1935.039034 785.859363 " transform="matrix(0.2, 0, 0, -0.2, 0, 356)"/>
<path fill="none" stroke-width="7.9701" stroke-linecap="butt" stroke-linejoin="miter" stroke="rgb(0%, 0%, 0%)" stroke-opacity="1" stroke-miterlimit="10" d="M 1935.039034 785.859363 L 1935.039034 756.835926 " transform="matrix(0.2, 0, 0, -0.2, 0, 356)"/>
<path fill="none" stroke-width="7.9701" stroke-linecap="butt" stroke-linejoin="miter" stroke="rgb(0%, 0%, 0%)" stroke-opacity="1" stroke-miterlimit="10" d="M 1935.039034 698.828115 L 1935.039034 669.804678 " transform="matrix(0.2, 0, 0, -0.2, 0, 356)"/>
<path fill="none" stroke-width="7.9701" stroke-linecap="butt" stroke-linejoin="miter" stroke="rgb(0%, 0%, 0%)" stroke-opacity="1" stroke-miterlimit="10" d="M 1935.039034 669.804678 L 1935.039034 640.78124 " transform="matrix(0.2, 0, 0, -0.2, 0, 356)"/>
<path fill="none" stroke-width="7.9701" stroke-linecap="butt" stroke-linejoin="miter" stroke="rgb(0%, 0%, 0%)" stroke-opacity="1" stroke-miterlimit="10" d="M 1935.039034 582.734366 L 1935.039034 553.749992 " transform="matrix(0.2, 0, 0, -0.2, 0, 356)"/>
<path fill="none" stroke-width="7.9701" stroke-linecap="butt" stroke-linejoin="miter" stroke="rgb(0%, 0%, 0%)" stroke-opacity="1" stroke-miterlimit="10" d="M 1935.039034 553.749992 L 1935.039034 524.726555 " transform="matrix(0.2, 0, 0, -0.2, 0, 356)"/>
<path fill="none" stroke-width="7.9701" stroke-linecap="butt" stroke-linejoin="miter" stroke="rgb(0%, 0%, 0%)" stroke-opacity="1" stroke-miterlimit="10" d="M 1935.039034 466.679681 L 1935.039034 437.656243 " transform="matrix(0.2, 0, 0, -0.2, 0, 356)"/>
<path fill="none" stroke-width="7.9701" stroke-linecap="butt" stroke-linejoin="miter" stroke="rgb(0%, 0%, 0%)" stroke-opacity="1" stroke-miterlimit="10" d="M 1935.039034 437.656243 L 1935.039034 408.632806 " transform="matrix(0.2, 0, 0, -0.2, 0, 356)"/>
<path fill="none" stroke-width="7.9701" stroke-linecap="butt" stroke-linejoin="miter" stroke="rgb(0%, 0%, 0%)" stroke-opacity="1" stroke-miterlimit="10" d="M 1935.039034 350.624995 L 1935.039034 321.601558 " transform="matrix(0.2, 0, 0, -0.2, 0, 356)"/>
<path fill-rule="nonzero" fill="rgb(0%, 0%, 0%)" fill-opacity="1" d="M 132 265.570312 C 132 265.570312 132 265.351562 131.71875 265.351562 C 131.40625 265.351562 129.3125 265.539062 128.9375 265.570312 C 128.78125 265.601562 128.65625 265.695312 128.65625 266.007812 C 128.65625 266.257812 128.84375 266.257812 129.15625 266.257812 C 130.21875 266.257812 130.25 266.414062 130.25 266.632812 L 130.1875 267.070312 L 128.875 272.226562 C 128.5 271.414062 127.875 270.820312 126.875 270.820312 C 124.3125 270.820312 121.625 274.039062 121.625 277.226562 C 121.625 279.289062 122.8125 280.726562 124.53125 280.726562 C 124.96875 280.726562 126.0625 280.632812 127.34375 279.070312 C 127.53125 280.007812 128.3125 280.726562 129.34375 280.726562 C 130.09375 280.726562 130.59375 280.226562 130.96875 279.507812 C 131.34375 278.726562 131.625 277.414062 131.625 277.351562 C 131.625 277.132812 131.40625 277.132812 131.34375 277.132812 C 131.125 277.132812 131.125 277.226562 131.03125 277.539062 C 130.6875 278.945312 130.28125 280.226562 129.375 280.226562 C 128.8125 280.226562 128.71875 279.664062 128.71875 279.226562 C 128.71875 278.695312 128.78125 278.570312 128.875 278.195312 Z M 127.46875 277.882812 C 127.34375 278.289062 127.34375 278.320312 127.03125 278.695312 C 126.0625 279.882812 125.1875 280.226562 124.5625 280.226562 C 123.46875 280.226562 123.15625 279.039062 123.15625 278.195312 C 123.15625 277.101562 123.875 274.414062 124.375 273.414062 C 125.0625 272.132812 126.03125 271.320312 126.90625 271.320312 C 128.3125 271.320312 128.625 273.101562 128.625 273.226562 C 128.625 273.351562 128.59375 273.507812 128.5625 273.601562 Z M 127.46875 277.882812 "/>
<path fill-rule="nonzero" fill="rgb(0%, 0%, 0%)" fill-opacity="1" d="M 139.3125 273.882812 C 139.4375 273.320312 139.9375 271.320312 141.46875 271.320312 C 141.59375 271.320312 142.09375 271.320312 142.5625 271.601562 C 141.96875 271.695312 141.53125 272.257812 141.53125 272.789062 C 141.53125 273.132812 141.75 273.539062 142.34375 273.539062 C 142.84375 273.539062 143.53125 273.132812 143.53125 272.289062 C 143.53125 271.132812 142.25 270.820312 141.5 270.820312 C 140.21875 270.820312 139.46875 271.976562 139.21875 272.507812 C 138.65625 271.039062 137.46875 270.820312 136.84375 270.820312 C 134.59375 270.820312 133.34375 273.664062 133.34375 274.195312 C 133.34375 274.414062 133.5625 274.414062 133.59375 274.414062 C 133.78125 274.414062 133.84375 274.382812 133.875 274.164062 C 134.625 271.851562 136.0625 271.320312 136.8125 271.320312 C 137.21875 271.320312 138 271.507812 138 272.789062 C 138 273.445312 137.625 274.914062 136.8125 277.976562 C 136.46875 279.320312 135.6875 280.226562 134.75 280.226562 C 134.59375 280.226562 134.09375 280.226562 133.65625 279.945312 C 134.1875 279.851562 134.65625 279.382812 134.65625 278.789062 C 134.65625 278.195312 134.1875 278.007812 133.875 278.007812 C 133.21875 278.007812 132.65625 278.570312 132.65625 279.289062 C 132.65625 280.289062 133.75 280.726562 134.71875 280.726562 C 136.15625 280.726562 136.9375 279.195312 137 279.070312 C 137.28125 279.851562 138.0625 280.726562 139.375 280.726562 C 141.59375 280.726562 142.84375 277.914062 142.84375 277.351562 C 142.84375 277.132812 142.65625 277.132812 142.59375 277.132812 C 142.40625 277.132812 142.34375 277.226562 142.3125 277.382812 C 141.59375 279.726562 140.09375 280.226562 139.40625 280.226562 C 138.5625 280.226562 138.21875 279.539062 138.21875 278.789062 C 138.21875 278.320312 138.34375 277.851562 138.5625 276.882812 Z M 139.3125 273.882812 "/>
<path fill-rule="nonzero" fill="rgb(0%, 0%, 0%)" fill-opacity="1" d="M 172.222656 241.59375 C 172.222656 241.59375 172.222656 241.375 171.941406 241.375 C 171.628906 241.375 169.535156 241.5625 169.160156 241.59375 C 169.003906 241.625 168.878906 241.71875 168.878906 242.03125 C 168.878906 242.28125 169.066406 242.28125 169.378906 242.28125 C 170.441406 242.28125 170.472656 242.4375 170.472656 242.65625 L 170.410156 243.09375 L 169.097656 248.25 C 168.722656 247.4375 168.097656 246.84375 167.097656 246.84375 C 164.535156 246.84375 161.847656 250.0625 161.847656 253.25 C 161.847656 255.3125 163.035156 256.75 164.753906 256.75 C 165.191406 256.75 166.285156 256.65625 167.566406 255.09375 C 167.753906 256.03125 168.535156 256.75 169.566406 256.75 C 170.316406 256.75 170.816406 256.25 171.191406 255.53125 C 171.566406 254.75 171.847656 253.4375 171.847656 253.375 C 171.847656 253.15625 171.628906 253.15625 171.566406 253.15625 C 171.347656 253.15625 171.347656 253.25 171.253906 253.5625 C 170.910156 254.96875 170.503906 256.25 169.597656 256.25 C 169.035156 256.25 168.941406 255.6875 168.941406 255.25 C 168.941406 254.71875 169.003906 254.59375 169.097656 254.21875 Z M 167.691406 253.90625 C 167.566406 254.3125 167.566406 254.34375 167.253906 254.71875 C 166.285156 255.90625 165.410156 256.25 164.785156 256.25 C 163.691406 256.25 163.378906 255.0625 163.378906 254.21875 C 163.378906 253.125 164.097656 250.4375 164.597656 249.4375 C 165.285156 248.15625 166.253906 247.34375 167.128906 247.34375 C 168.535156 247.34375 168.847656 249.125 168.847656 249.25 C 168.847656 249.375 168.816406 249.53125 168.785156 249.625 Z M 167.691406 253.90625 "/>
<path fill-rule="nonzero" fill="rgb(0%, 0%, 0%)" fill-opacity="1" d="M 182.84375 248.1875 C 182.9375 247.875 182.9375 247.84375 182.9375 247.6875 C 182.9375 247.28125 182.625 247.09375 182.3125 247.09375 C 182.09375 247.09375 181.75 247.21875 181.53125 247.5625 C 181.5 247.65625 181.3125 248.34375 181.25 248.75 C 181.09375 249.3125 180.9375 249.90625 180.8125 250.46875 L 179.8125 254.40625 C 179.71875 254.71875 178.78125 256.25 177.34375 256.25 C 176.25 256.25 176 255.3125 176 254.5 C 176 253.5 176.375 252.125 177.125 250.21875 C 177.46875 249.3125 177.5625 249.09375 177.5625 248.65625 C 177.5625 247.65625 176.84375 246.84375 175.75 246.84375 C 173.6875 246.84375 172.875 250.03125 172.875 250.21875 C 172.875 250.4375 173.09375 250.4375 173.15625 250.4375 C 173.375 250.4375 173.375 250.40625 173.5 250.03125 C 174.09375 248 174.96875 247.34375 175.6875 247.34375 C 175.875 247.34375 176.25 247.34375 176.25 248.03125 C 176.25 248.59375 176.03125 249.15625 175.875 249.5625 C 175 251.875 174.59375 253.125 174.59375 254.15625 C 174.59375 256.09375 175.96875 256.75 177.28125 256.75 C 178.125 256.75 178.84375 256.375 179.46875 255.75 C 179.1875 256.90625 178.9375 257.96875 178.0625 259.125 C 177.5 259.84375 176.65625 260.5 175.65625 260.5 C 175.34375 260.5 174.375 260.4375 174 259.5625 C 174.34375 259.5625 174.625 259.5625 174.9375 259.3125 C 175.15625 259.125 175.375 258.84375 175.375 258.40625 C 175.375 257.75 174.78125 257.65625 174.5625 257.65625 C 174.0625 257.65625 173.34375 258 173.34375 259.0625 C 173.34375 260.15625 174.3125 260.96875 175.65625 260.96875 C 177.90625 260.96875 180.15625 259 180.75 256.53125 Z M 182.84375 248.1875 "/>
<path fill-rule="nonzero" fill="rgb(0%, 0%, 0%)" fill-opacity="1" d="M 249.003906 225.089844 C 249.003906 225.089844 249.003906 224.871094 248.722656 224.871094 C 248.410156 224.871094 246.316406 225.058594 245.941406 225.089844 C 245.785156 225.121094 245.660156 225.214844 245.660156 225.527344 C 245.660156 225.777344 245.847656 225.777344 246.160156 225.777344 C 247.222656 225.777344 247.253906 225.933594 247.253906 226.152344 L 247.191406 226.589844 L 245.878906 231.746094 C 245.503906 230.933594 244.878906 230.339844 243.878906 230.339844 C 241.316406 230.339844 238.628906 233.558594 238.628906 236.746094 C 238.628906 238.808594 239.816406 240.246094 241.535156 240.246094 C 241.972656 240.246094 243.066406 240.152344 244.347656 238.589844 C 244.535156 239.527344 245.316406 240.246094 246.347656 240.246094 C 247.097656 240.246094 247.597656 239.746094 247.972656 239.027344 C 248.347656 238.246094 248.628906 236.933594 248.628906 236.871094 C 248.628906 236.652344 248.410156 236.652344 248.347656 236.652344 C 248.128906 236.652344 248.128906 236.746094 248.035156 237.058594 C 247.691406 238.464844 247.285156 239.746094 246.378906 239.746094 C 245.816406 239.746094 245.722656 239.183594 245.722656 238.746094 C 245.722656 238.214844 245.785156 238.089844 245.878906 237.714844 Z M 244.472656 237.402344 C 244.347656 237.808594 244.347656 237.839844 244.035156 238.214844 C 243.066406 239.402344 242.191406 239.746094 241.566406 239.746094 C 240.472656 239.746094 240.160156 238.558594 240.160156 237.714844 C 240.160156 236.621094 240.878906 233.933594 241.378906 232.933594 C 242.066406 231.652344 243.035156 230.839844 243.910156 230.839844 C 245.316406 230.839844 245.628906 232.621094 245.628906 232.746094 C 245.628906 232.871094 245.597656 233.027344 245.566406 233.121094 Z M 244.472656 237.402344 "/>
<path fill-rule="nonzero" fill="rgb(0%, 0%, 0%)" fill-opacity="1" d="M 256.3125 233.402344 C 256.4375 232.839844 256.9375 230.839844 258.46875 230.839844 C 258.59375 230.839844 259.09375 230.839844 259.5625 231.121094 C 258.96875 231.214844 258.53125 231.777344 258.53125 232.308594 C 258.53125 232.652344 258.75 233.058594 259.34375 233.058594 C 259.84375 233.058594 260.53125 232.652344 260.53125 231.808594 C 260.53125 230.652344 259.25 230.339844 258.5 230.339844 C 257.21875 230.339844 256.46875 231.496094 256.21875 232.027344 C 255.65625 230.558594 254.46875 230.339844 253.84375 230.339844 C 251.59375 230.339844 250.34375 233.183594 250.34375 233.714844 C 250.34375 233.933594 250.5625 233.933594 250.59375 233.933594 C 250.78125 233.933594 250.84375 233.902344 250.875 233.683594 C 251.625 231.371094 253.0625 230.839844 253.8125 230.839844 C 254.21875 230.839844 255 231.027344 255 232.308594 C 255 232.964844 254.625 234.433594 253.8125 237.496094 C 253.46875 238.839844 252.6875 239.746094 251.75 239.746094 C 251.59375 239.746094 251.09375 239.746094 250.65625 239.464844 C 251.1875 239.371094 251.65625 238.902344 251.65625 238.308594 C 251.65625 237.714844 251.1875 237.527344 250.875 237.527344 C 250.21875 237.527344 249.65625 238.089844 249.65625 238.808594 C 249.65625 239.808594 250.75 240.246094 251.71875 240.246094 C 253.15625 240.246094 253.9375 238.714844 254 238.589844 C 254.28125 239.371094 255.0625 240.246094 256.375 240.246094 C 258.59375 240.246094 259.84375 237.433594 259.84375 236.871094 C 259.84375 236.652344 259.65625 236.652344 259.59375 236.652344 C 259.40625 236.652344 259.34375 236.746094 259.3125 236.902344 C 258.59375 239.246094 257.09375 239.746094 256.40625 239.746094 C 255.5625 239.746094 255.21875 239.058594 255.21875 238.308594 C 255.21875 237.839844 255.34375 237.371094 255.5625 236.402344 Z M 256.3125 233.402344 "/>
<path fill-rule="nonzero" fill="rgb(0%, 0%, 0%)" fill-opacity="1" d="M 289.222656 198.71875 C 289.222656 198.71875 289.222656 198.5 288.941406 198.5 C 288.628906 198.5 286.535156 198.6875 286.160156 198.71875 C 286.003906 198.75 285.878906 198.84375 285.878906 199.15625 C 285.878906 199.40625 286.066406 199.40625 286.378906 199.40625 C 287.441406 199.40625 287.472656 199.5625 287.472656 199.78125 L 287.410156 200.21875 L 286.097656 205.375 C 285.722656 204.5625 285.097656 203.96875 284.097656 203.96875 C 281.535156 203.96875 278.847656 207.1875 278.847656 210.375 C 278.847656 212.4375 280.035156 213.875 281.753906 213.875 C 282.191406 213.875 283.285156 213.78125 284.566406 212.21875 C 284.753906 213.15625 285.535156 213.875 286.566406 213.875 C 287.316406 213.875 287.816406 213.375 288.191406 212.65625 C 288.566406 211.875 288.847656 210.5625 288.847656 210.5 C 288.847656 210.28125 288.628906 210.28125 288.566406 210.28125 C 288.347656 210.28125 288.347656 210.375 288.253906 210.6875 C 287.910156 212.09375 287.503906 213.375 286.597656 213.375 C 286.035156 213.375 285.941406 212.8125 285.941406 212.375 C 285.941406 211.84375 286.003906 211.71875 286.097656 211.34375 Z M 284.691406 211.03125 C 284.566406 211.4375 284.566406 211.46875 284.253906 211.84375 C 283.285156 213.03125 282.410156 213.375 281.785156 213.375 C 280.691406 213.375 280.378906 212.1875 280.378906 211.34375 C 280.378906 210.25 281.097656 207.5625 281.597656 206.5625 C 282.285156 205.28125 283.253906 204.46875 284.128906 204.46875 C 285.535156 204.46875 285.847656 206.25 285.847656 206.375 C 285.847656 206.5 285.816406 206.65625 285.785156 206.75 Z M 284.691406 211.03125 "/>
<path fill-rule="nonzero" fill="rgb(0%, 0%, 0%)" fill-opacity="1" d="M 299.847656 205.3125 C 299.941406 205 299.941406 204.96875 299.941406 204.8125 C 299.941406 204.40625 299.628906 204.21875 299.316406 204.21875 C 299.097656 204.21875 298.753906 204.34375 298.535156 204.6875 C 298.503906 204.78125 298.316406 205.46875 298.253906 205.875 C 298.097656 206.4375 297.941406 207.03125 297.816406 207.59375 L 296.816406 211.53125 C 296.722656 211.84375 295.785156 213.375 294.347656 213.375 C 293.253906 213.375 293.003906 212.4375 293.003906 211.625 C 293.003906 210.625 293.378906 209.25 294.128906 207.34375 C 294.472656 206.4375 294.566406 206.21875 294.566406 205.78125 C 294.566406 204.78125 293.847656 203.96875 292.753906 203.96875 C 290.691406 203.96875 289.878906 207.15625 289.878906 207.34375 C 289.878906 207.5625 290.097656 207.5625 290.160156 207.5625 C 290.378906 207.5625 290.378906 207.53125 290.503906 207.15625 C 291.097656 205.125 291.972656 204.46875 292.691406 204.46875 C 292.878906 204.46875 293.253906 204.46875 293.253906 205.15625 C 293.253906 205.71875 293.035156 206.28125 292.878906 206.6875 C 292.003906 209 291.597656 210.25 291.597656 211.28125 C 291.597656 213.21875 292.972656 213.875 294.285156 213.875 C 295.128906 213.875 295.847656 213.5 296.472656 212.875 C 296.191406 214.03125 295.941406 215.09375 295.066406 216.25 C 294.503906 216.96875 293.660156 217.625 292.660156 217.625 C 292.347656 217.625 291.378906 217.5625 291.003906 216.6875 C 291.347656 216.6875 291.628906 216.6875 291.941406 216.4375 C 292.160156 216.25 292.378906 215.96875 292.378906 215.53125 C 292.378906 214.875 291.785156 214.78125 291.566406 214.78125 C 291.066406 214.78125 290.347656 215.125 290.347656 216.1875 C 290.347656 217.28125 291.316406 218.09375 292.660156 218.09375 C 294.910156 218.09375 297.160156 216.125 297.753906 213.65625 Z M 299.847656 205.3125 "/>
<path fill-rule="nonzero" fill="rgb(0%, 0%, 0%)" fill-opacity="1" d="M 366.003906 160.582031 C 366.003906 160.582031 366.003906 160.363281 365.722656 160.363281 C 365.410156 160.363281 363.316406 160.550781 362.941406 160.582031 C 362.785156 160.613281 362.660156 160.707031 362.660156 161.019531 C 362.660156 161.269531 362.847656 161.269531 363.160156 161.269531 C 364.222656 161.269531 364.253906 161.425781 364.253906 161.644531 L 364.191406 162.082031 L 362.878906 167.238281 C 362.503906 166.425781 361.878906 165.832031 360.878906 165.832031 C 358.316406 165.832031 355.628906 169.050781 355.628906 172.238281 C 355.628906 174.300781 356.816406 175.738281 358.535156 175.738281 C 358.972656 175.738281 360.066406 175.644531 361.347656 174.082031 C 361.535156 175.019531 362.316406 175.738281 363.347656 175.738281 C 364.097656 175.738281 364.597656 175.238281 364.972656 174.519531 C 365.347656 173.738281 365.628906 172.425781 365.628906 172.363281 C 365.628906 172.144531 365.410156 172.144531 365.347656 172.144531 C 365.128906 172.144531 365.128906 172.238281 365.035156 172.550781 C 364.691406 173.957031 364.285156 175.238281 363.378906 175.238281 C 362.816406 175.238281 362.722656 174.675781 362.722656 174.238281 C 362.722656 173.707031 362.785156 173.582031 362.878906 173.207031 Z M 361.472656 172.894531 C 361.347656 173.300781 361.347656 173.332031 361.035156 173.707031 C 360.066406 174.894531 359.191406 175.238281 358.566406 175.238281 C 357.472656 175.238281 357.160156 174.050781 357.160156 173.207031 C 357.160156 172.113281 357.878906 169.425781 358.378906 168.425781 C 359.066406 167.144531 360.035156 166.332031 360.910156 166.332031 C 362.316406 166.332031 362.628906 168.113281 362.628906 168.238281 C 362.628906 168.363281 362.597656 168.519531 362.566406 168.613281 Z M 361.472656 172.894531 "/>
<path fill-rule="nonzero" fill="rgb(0%, 0%, 0%)" fill-opacity="1" d="M 373.316406 168.894531 C 373.441406 168.332031 373.941406 166.332031 375.472656 166.332031 C 375.597656 166.332031 376.097656 166.332031 376.566406 166.613281 C 375.972656 166.707031 375.535156 167.269531 375.535156 167.800781 C 375.535156 168.144531 375.753906 168.550781 376.347656 168.550781 C 376.847656 168.550781 377.535156 168.144531 377.535156 167.300781 C 377.535156 166.144531 376.253906 165.832031 375.503906 165.832031 C 374.222656 165.832031 373.472656 166.988281 373.222656 167.519531 C 372.660156 166.050781 371.472656 165.832031 370.847656 165.832031 C 368.597656 165.832031 367.347656 168.675781 367.347656 169.207031 C 367.347656 169.425781 367.566406 169.425781 367.597656 169.425781 C 367.785156 169.425781 367.847656 169.394531 367.878906 169.175781 C 368.628906 166.863281 370.066406 166.332031 370.816406 166.332031 C 371.222656 166.332031 372.003906 166.519531 372.003906 167.800781 C 372.003906 168.457031 371.628906 169.925781 370.816406 172.988281 C 370.472656 174.332031 369.691406 175.238281 368.753906 175.238281 C 368.597656 175.238281 368.097656 175.238281 367.660156 174.957031 C 368.191406 174.863281 368.660156 174.394531 368.660156 173.800781 C 368.660156 173.207031 368.191406 173.019531 367.878906 173.019531 C 367.222656 173.019531 366.660156 173.582031 366.660156 174.300781 C 366.660156 175.300781 367.753906 175.738281 368.722656 175.738281 C 370.160156 175.738281 370.941406 174.207031 371.003906 174.082031 C 371.285156 174.863281 372.066406 175.738281 373.378906 175.738281 C 375.597656 175.738281 376.847656 172.925781 376.847656 172.363281 C 376.847656 172.144531 376.660156 172.144531 376.597656 172.144531 C 376.410156 172.144531 376.347656 172.238281 376.316406 172.394531 C 375.597656 174.738281 374.097656 175.238281 373.410156 175.238281 C 372.566406 175.238281 372.222656 174.550781 372.222656 173.800781 C 372.222656 173.332031 372.347656 172.863281 372.566406 171.894531 Z M 373.316406 168.894531 "/>
<path fill-rule="nonzero" fill="rgb(0%, 0%, 0%)" fill-opacity="1" d="M 406.222656 114.746094 C 406.222656 114.746094 406.222656 114.527344 405.941406 114.527344 C 405.628906 114.527344 403.535156 114.714844 403.160156 114.746094 C 403.003906 114.777344 402.878906 114.871094 402.878906 115.183594 C 402.878906 115.433594 403.066406 115.433594 403.378906 115.433594 C 404.441406 115.433594 404.472656 115.589844 404.472656 115.808594 L 404.410156 116.246094 L 403.097656 121.402344 C 402.722656 120.589844 402.097656 119.996094 401.097656 119.996094 C 398.535156 119.996094 395.847656 123.214844 395.847656 126.402344 C 395.847656 128.464844 397.035156 129.902344 398.753906 129.902344 C 399.191406 129.902344 400.285156 129.808594 401.566406 128.246094 C 401.753906 129.183594 402.535156 129.902344 403.566406 129.902344 C 404.316406 129.902344 404.816406 129.402344 405.191406 128.683594 C 405.566406 127.902344 405.847656 126.589844 405.847656 126.527344 C 405.847656 126.308594 405.628906 126.308594 405.566406 126.308594 C 405.347656 126.308594 405.347656 126.402344 405.253906 126.714844 C 404.910156 128.121094 404.503906 129.402344 403.597656 129.402344 C 403.035156 129.402344 402.941406 128.839844 402.941406 128.402344 C 402.941406 127.871094 403.003906 127.746094 403.097656 127.371094 Z M 401.691406 127.058594 C 401.566406 127.464844 401.566406 127.496094 401.253906 127.871094 C 400.285156 129.058594 399.410156 129.402344 398.785156 129.402344 C 397.691406 129.402344 397.378906 128.214844 397.378906 127.371094 C 397.378906 126.277344 398.097656 123.589844 398.597656 122.589844 C 399.285156 121.308594 400.253906 120.496094 401.128906 120.496094 C 402.535156 120.496094 402.847656 122.277344 402.847656 122.402344 C 402.847656 122.527344 402.816406 122.683594 402.785156 122.777344 Z M 401.691406 127.058594 "/>
<path fill-rule="nonzero" fill="rgb(0%, 0%, 0%)" fill-opacity="1" d="M 416.847656 121.339844 C 416.941406 121.027344 416.941406 120.996094 416.941406 120.839844 C 416.941406 120.433594 416.628906 120.246094 416.316406 120.246094 C 416.097656 120.246094 415.753906 120.371094 415.535156 120.714844 C 415.503906 120.808594 415.316406 121.496094 415.253906 121.902344 C 415.097656 122.464844 414.941406 123.058594 414.816406 123.621094 L 413.816406 127.558594 C 413.722656 127.871094 412.785156 129.402344 411.347656 129.402344 C 410.253906 129.402344 410.003906 128.464844 410.003906 127.652344 C 410.003906 126.652344 410.378906 125.277344 411.128906 123.371094 C 411.472656 122.464844 411.566406 122.246094 411.566406 121.808594 C 411.566406 120.808594 410.847656 119.996094 409.753906 119.996094 C 407.691406 119.996094 406.878906 123.183594 406.878906 123.371094 C 406.878906 123.589844 407.097656 123.589844 407.160156 123.589844 C 407.378906 123.589844 407.378906 123.558594 407.503906 123.183594 C 408.097656 121.152344 408.972656 120.496094 409.691406 120.496094 C 409.878906 120.496094 410.253906 120.496094 410.253906 121.183594 C 410.253906 121.746094 410.035156 122.308594 409.878906 122.714844 C 409.003906 125.027344 408.597656 126.277344 408.597656 127.308594 C 408.597656 129.246094 409.972656 129.902344 411.285156 129.902344 C 412.128906 129.902344 412.847656 129.527344 413.472656 128.902344 C 413.191406 130.058594 412.941406 131.121094 412.066406 132.277344 C 411.503906 132.996094 410.660156 133.652344 409.660156 133.652344 C 409.347656 133.652344 408.378906 133.589844 408.003906 132.714844 C 408.347656 132.714844 408.628906 132.714844 408.941406 132.464844 C 409.160156 132.277344 409.378906 131.996094 409.378906 131.558594 C 409.378906 130.902344 408.785156 130.808594 408.566406 130.808594 C 408.066406 130.808594 407.347656 131.152344 407.347656 132.214844 C 407.347656 133.308594 408.316406 134.121094 409.660156 134.121094 C 411.910156 134.121094 414.160156 132.152344 414.753906 129.683594 Z M 416.847656 121.339844 "/>
<path fill="none" stroke-width="11.9553" stroke-linecap="butt" stroke-linejoin="miter" stroke="rgb(0%, 0%, 0%)" stroke-opacity="1" stroke-miterlimit="10" d="M 292.499996 414.140619 L 348.749995 430.078119 L 376.874994 438.124993 L 404.999994 446.249993 L 447.187493 458.554681 L 461.249993 462.695306 L 503.437492 475.234368 L 531.562492 483.671868 L 559.687492 492.187493 L 573.749991 496.52343 L 587.812491 500.820305 L 601.874991 505.156242 L 644.06249 518.281242 L 686.24999 531.640617 L 700.31249 536.132805 L 728.437489 545.195304 L 742.499989 549.765617 L 770.624989 558.984367 L 784.687488 563.632804 L 798.749988 568.320304 L 826.874988 577.773429 L 840.937487 582.539054 L 869.062487 592.148429 L 897.187487 601.914054 L 911.249986 606.835928 L 925.312486 611.796866 L 939.374986 616.796866 L 953.437486 621.835928 L 967.499986 626.914053 L 995.624985 637.148428 L 1009.687485 642.34374 L 1037.812485 652.81249 L 1051.874984 658.12499 L 1065.937484 663.476553 L 1079.999984 668.867178 L 1108.124983 679.804677 L 1122.187483 685.351552 L 1136.249983 690.93749 L 1150.312483 696.601552 L 1164.374983 702.304677 L 1178.437482 708.046864 L 1192.499982 713.867177 L 1206.562482 719.726552 L 1220.624982 725.664052 L 1234.687482 731.640614 L 1248.749981 737.695302 L 1262.812481 743.828114 L 1276.874981 750.039051 L 1290.937481 756.289051 L 1305.039043 762.656239 L 1319.06248 769.062489 L 1333.12498 775.585926 L 1347.18748 782.148426 L 1361.289042 788.828113 L 1375.31248 795.585926 L 1389.374979 802.460926 L 1403.437479 809.41405 L 1417.539041 816.484363 L 1431.562479 823.6328 L 1445.624978 830.898425 L 1459.687478 838.3203 L 1473.789041 845.8203 L 1487.812478 853.47655 L 1501.874978 861.249987 L 1515.937477 869.179675 L 1530.03904 877.265612 L 1544.062477 885.507799 L 1558.124977 893.945299 L 1572.226539 902.539049 L 1586.289039 911.328111 L 1600.312476 920.312486 L 1614.374976 929.531236 L 1628.476538 938.945299 L 1642.539038 948.632798 L 1656.562475 958.593736 L 1670.624975 968.828111 L 1684.726537 979.374985 L 1698.789037 990.273423 L 1712.812474 1001.523423 L 1726.874974 1013.20311 L 1740.976537 1025.312485 L 1755.039036 1037.929672 L 1769.062474 1051.093734 L 1783.124973 1064.882797 L 1797.226536 1079.335921 L 1811.289036 1094.609359 L 1825.312473 1110.781233 L 1839.374973 1128.007796 L 1853.476535 1146.484358 L 1867.539035 1166.484358 L 1881.601534 1188.359357 L 1895.664034 1212.539044 L 1909.726534 1239.804669 L 1923.789034 1271.249981 L 1937.851534 1308.828105 L 1951.914033 1356.40623 L 1965.976533 1423.984354 L 1980.039033 1561.874977 " transform="matrix(0.2, 0, 0, -0.2, 0, 356)"/>
<path fill-rule="nonzero" fill="rgb(100%, 100%, 100%)" fill-opacity="1" d="M 6.695312 291.703125 L 35.976562 291.703125 L 35.976562 318.585938 L 6.695312 318.585938 Z M 6.695312 291.703125 "/>
<path fill-rule="nonzero" fill="rgb(0%, 0%, 0%)" fill-opacity="1" d="M 28.875 303.058594 C 28.875 299.527344 26.5625 297.183594 23.3125 297.183594 C 18.59375 297.183594 13.78125 302.121094 13.78125 307.214844 C 13.78125 310.839844 16.21875 313.027344 19.375 313.027344 C 24 313.027344 28.875 308.246094 28.875 303.058594 Z M 19.5 312.464844 C 17.34375 312.464844 15.8125 310.714844 15.8125 307.839844 C 15.8125 306.871094 16.125 303.683594 17.8125 301.121094 C 19.3125 298.871094 21.4375 297.714844 23.15625 297.714844 C 24.96875 297.714844 26.90625 298.933594 26.90625 302.183594 C 26.90625 303.777344 26.34375 307.183594 24.15625 309.839844 C 23.125 311.183594 21.34375 312.464844 19.5 312.464844 Z M 19.5 312.464844 "/>
<path fill-rule="nonzero" fill="rgb(100%, 100%, 100%)" fill-opacity="1" d="M 376.15625 291.703125 L 408.078125 291.703125 L 408.078125 318.585938 L 376.15625 318.585938 Z M 376.15625 291.703125 "/>
<path fill-rule="nonzero" fill="rgb(0%, 0%, 0%)" fill-opacity="1" d="M 392.777344 303.589844 L 390.933594 299.246094 C 390.871094 299.089844 390.808594 298.996094 390.808594 298.964844 C 390.808594 298.839844 391.183594 298.433594 392.121094 298.339844 C 392.339844 298.308594 392.558594 298.308594 392.558594 297.933594 C 392.558594 297.652344 392.277344 297.652344 392.214844 297.652344 C 391.308594 297.652344 390.371094 297.714844 389.464844 297.714844 C 388.933594 297.714844 387.558594 297.652344 387.027344 297.652344 C 386.902344 297.652344 386.621094 297.652344 386.621094 298.089844 C 386.621094 298.339844 386.839844 298.339844 387.121094 298.339844 C 388.433594 298.339844 388.589844 298.558594 388.777344 299.027344 L 391.339844 305.121094 L 386.746094 310.058594 L 386.464844 310.308594 C 385.402344 311.464844 384.371094 311.808594 383.246094 311.871094 C 382.964844 311.902344 382.777344 311.902344 382.777344 312.308594 C 382.777344 312.339844 382.777344 312.558594 383.058594 312.558594 C 383.714844 312.558594 384.433594 312.496094 385.121094 312.496094 C 385.902344 312.496094 386.777344 312.558594 387.558594 312.558594 C 387.683594 312.558594 387.933594 312.558594 387.933594 312.121094 C 387.933594 311.902344 387.714844 311.871094 387.683594 311.871094 C 387.496094 311.871094 386.808594 311.808594 386.808594 311.214844 C 386.808594 310.871094 387.121094 310.496094 387.402344 310.214844 L 389.621094 307.871094 L 391.589844 305.746094 L 393.777344 310.933594 C 393.871094 311.183594 393.902344 311.214844 393.902344 311.246094 C 393.902344 311.433594 393.496094 311.808594 392.621094 311.871094 C 392.402344 311.902344 392.183594 311.933594 392.183594 312.308594 C 392.183594 312.558594 392.433594 312.558594 392.527344 312.558594 C 393.121094 312.558594 394.652344 312.496094 395.277344 312.496094 C 395.808594 312.496094 397.152344 312.558594 397.683594 312.558594 C 397.839844 312.558594 398.121094 312.558594 398.121094 312.152344 C 398.121094 311.871094 397.902344 311.871094 397.714844 311.871094 C 396.246094 311.871094 396.214844 311.808594 395.839844 310.933594 C 394.996094 308.902344 393.527344 305.496094 393.027344 304.183594 C 394.496094 302.652344 396.808594 300.058594 397.496094 299.464844 C 398.121094 298.933594 398.964844 298.402344 400.277344 298.339844 C 400.558594 298.308594 400.746094 298.308594 400.746094 297.902344 C 400.746094 297.871094 400.746094 297.652344 400.464844 297.652344 C 399.808594 297.652344 399.089844 297.714844 398.402344 297.714844 C 397.589844 297.714844 396.777344 297.652344 395.996094 297.652344 C 395.871094 297.652344 395.589844 297.652344 395.589844 298.089844 C 395.589844 298.246094 395.683594 298.308594 395.839844 298.339844 C 396.027344 298.371094 396.714844 298.402344 396.714844 299.027344 C 396.714844 299.308594 396.464844 299.589844 396.308594 299.808594 Z M 392.777344 303.589844 "/>
<path fill-rule="nonzero" fill="rgb(100%, 100%, 100%)" fill-opacity="1" d="M 6.453125 -5.757812 L 35.976562 -5.757812 L 35.976562 21.125 L 6.453125 21.125 Z M 6.453125 -5.757812 "/>
<path fill-rule="nonzero" fill="rgb(0%, 0%, 0%)" fill-opacity="1" d="M 25.511719 2.695312 L 25.792969 2.382812 C 26.449219 1.726562 27.167969 0.976562 28.667969 0.882812 C 28.917969 0.851562 29.105469 0.851562 29.105469 0.476562 C 29.105469 0.289062 28.980469 0.195312 28.824219 0.195312 C 28.261719 0.195312 27.605469 0.257812 27.042969 0.257812 C 26.324219 0.257812 25.542969 0.195312 24.855469 0.195312 C 24.730469 0.195312 24.449219 0.195312 24.449219 0.632812 C 24.449219 0.851562 24.636719 0.882812 24.761719 0.882812 C 24.917969 0.882812 25.542969 0.914062 25.542969 1.382812 C 25.542969 1.757812 25.042969 2.320312 24.949219 2.414062 L 19.886719 8.257812 L 17.511719 1.789062 C 17.355469 1.476562 17.355469 1.414062 17.355469 1.414062 C 17.355469 0.882812 18.449219 0.882812 18.667969 0.882812 C 18.949219 0.882812 19.167969 0.882812 19.167969 0.445312 C 19.167969 0.195312 18.917969 0.195312 18.855469 0.195312 C 18.230469 0.195312 16.699219 0.257812 16.105469 0.257812 C 15.542969 0.257812 14.199219 0.195312 13.667969 0.195312 C 13.542969 0.195312 13.230469 0.195312 13.230469 0.632812 C 13.230469 0.882812 13.449219 0.882812 13.730469 0.882812 C 15.042969 0.882812 15.136719 1.070312 15.324219 1.632812 L 18.011719 8.789062 C 18.042969 8.851562 18.105469 9.101562 18.105469 9.164062 C 18.105469 9.226562 17.230469 12.757812 17.136719 13.132812 C 16.855469 14.351562 16.824219 14.414062 15.074219 14.414062 C 14.667969 14.414062 14.480469 14.414062 14.480469 14.851562 C 14.480469 15.101562 14.761719 15.101562 14.792969 15.101562 C 15.417969 15.101562 16.917969 15.039062 17.542969 15.039062 C 18.136719 15.039062 19.730469 15.101562 20.324219 15.101562 C 20.480469 15.101562 20.761719 15.101562 20.761719 14.664062 C 20.761719 14.414062 20.542969 14.414062 20.136719 14.414062 C 20.105469 14.414062 19.667969 14.414062 19.292969 14.382812 C 18.855469 14.351562 18.730469 14.289062 18.730469 14.039062 C 18.730469 13.882812 18.917969 13.101562 19.011719 12.664062 L 19.792969 9.570312 C 19.886719 9.164062 19.917969 9.101562 20.105469 8.914062 Z M 25.511719 2.695312 "/>
<path fill="none" stroke-width="11.9553" stroke-linecap="butt" stroke-linejoin="miter" stroke="rgb(0%, 0%, 0%)" stroke-opacity="1" stroke-miterlimit="10" d="M 0 321.601558 L 1980.039033 321.601558 " transform="matrix(0.2, 0, 0, -0.2, 0, 356)"/>
<path fill="none" stroke-width="11.9553" stroke-linecap="butt" stroke-linejoin="miter" stroke="rgb(0%, 0%, 0%)" stroke-opacity="1" stroke-miterlimit="10" d="M 179.999997 177.617185 L 179.999997 1761.601536 " transform="matrix(0.2, 0, 0, -0.2, 0, 356)"/>
<path fill-rule="nonzero" fill="rgb(0%, 0%, 0%)" fill-opacity="1" d="M 171.601562 348.300781 C 172.789062 347.894531 174.789062 347.300781 174.789062 345.363281 C 174.789062 343.050781 172.070312 341.988281 170.101562 341.988281 C 169.164062 341.988281 168.195312 342.207031 167.351562 342.707031 C 167.226562 342.769531 167.070312 342.957031 166.914062 342.957031 C 166.601562 342.957031 166.039062 341.988281 165.726562 341.988281 C 165.539062 341.988281 165.507812 342.207031 165.507812 342.300781 L 165.507812 345.863281 C 165.507812 345.988281 165.601562 346.144531 165.789062 346.144531 C 166.101562 346.144531 166.070312 345.519531 166.164062 345.175781 C 166.632812 343.457031 168.195312 342.707031 169.695312 342.613281 L 170.101562 342.613281 C 171.445312 342.613281 173.007812 343.488281 173.007812 345.363281 C 173.007812 347.175781 171.226562 348.113281 169.570312 348.113281 C 169.257812 348.113281 168.945312 348.113281 168.632812 348.113281 L 168.476562 348.113281 C 168.289062 348.113281 168.070312 348.113281 168.070312 348.332031 L 168.070312 348.363281 C 168.101562 348.550781 168.289062 348.582031 168.476562 348.582031 L 170.320312 348.582031 C 171.882812 348.707031 173.320312 349.738281 173.476562 351.363281 L 173.476562 351.582031 C 173.476562 353.425781 171.757812 354.582031 170.007812 354.582031 C 168.101562 354.582031 166.132812 353.957031 165.820312 351.582031 C 165.820312 351.425781 165.757812 351.238281 165.539062 351.238281 C 165.320312 351.269531 165.289062 351.425781 165.289062 351.582031 C 165.289062 354.175781 167.882812 355.207031 170.132812 355.207031 C 172.195312 355.207031 175.070312 354.238281 175.320312 351.769531 L 175.320312 351.644531 C 175.320312 349.675781 173.257812 348.707031 171.601562 348.300781 Z M 171.601562 348.300781 "/>
<path fill-rule="nonzero" fill="rgb(0%, 0%, 0%)" fill-opacity="1" d="M 183.695312 341.988281 C 180.320312 342.394531 177.632812 345.050781 177.632812 348.644531 C 177.632812 351.925781 180.226562 355.175781 184.101562 355.175781 C 187.601562 355.175781 190.570312 352.269531 190.570312 348.644531 C 190.570312 345.457031 188.070312 341.988281 184.132812 341.988281 C 184.007812 341.988281 183.851562 341.988281 183.695312 341.988281 Z M 179.507812 348.863281 L 179.507812 348.519531 C 179.507812 346.019531 180.414062 343.082031 183.570312 342.550781 C 183.757812 342.519531 183.914062 342.519531 184.101562 342.519531 C 186.914062 342.519531 188.664062 345.238281 188.664062 348.269531 C 188.664062 350.675781 187.945312 353.738281 184.976562 354.519531 C 184.695312 354.582031 184.414062 354.613281 184.132812 354.613281 L 183.945312 354.613281 C 181.351562 354.519531 179.945312 352.050781 179.601562 349.644531 Z M 179.507812 348.863281 "/>
<path fill-rule="nonzero" fill="rgb(0%, 0%, 0%)" fill-opacity="1" d="M 193.027344 342.332031 L 193.027344 342.925781 L 193.464844 342.925781 C 194.058594 342.925781 194.683594 343.019531 194.683594 343.894531 L 194.683594 353.363281 C 194.683594 354.207031 193.964844 354.238281 193.308594 354.238281 L 193.027344 354.238281 L 193.027344 354.832031 L 198.808594 354.832031 C 199.214844 354.832031 199.589844 354.863281 199.996094 354.863281 C 201.996094 354.863281 204.339844 353.925781 204.558594 351.519531 L 204.558594 351.332031 C 204.558594 348.800781 201.683594 347.769531 199.777344 347.769531 C 198.527344 347.769531 197.339844 347.894531 196.152344 347.988281 L 196.152344 343.769531 C 196.152344 343.332031 196.214844 342.925781 196.996094 342.925781 L 199.308594 342.925781 C 200.277344 342.925781 201.371094 342.988281 202.089844 343.707031 C 202.777344 344.425781 202.871094 345.644531 202.964844 346.582031 L 203.496094 346.582031 L 203.027344 342.332031 Z M 196.152344 348.613281 C 196.402344 348.613281 196.652344 348.550781 196.902344 348.519531 L 198.277344 348.457031 C 198.558594 348.425781 198.839844 348.394531 199.152344 348.394531 C 200.714844 348.394531 202.683594 349.394531 202.683594 351.238281 C 202.683594 352.988281 201.339844 354.269531 199.339844 354.269531 C 199.058594 354.269531 198.746094 354.238281 198.496094 354.238281 L 196.964844 354.238281 C 196.496094 354.238281 196.246094 354.207031 196.152344 353.582031 Z M 196.152344 348.613281 "/>
<path fill-rule="nonzero" fill="rgb(0%, 0%, 0%)" fill-opacity="1" d="M 206.90625 342.332031 L 206.90625 342.925781 L 207.375 342.925781 C 207.96875 342.925781 208.5625 343.019531 208.5625 343.894531 L 208.5625 353.363281 C 208.5625 354.207031 207.875 354.238281 207.1875 354.238281 L 206.90625 354.238281 L 206.90625 354.832031 L 211.8125 354.832031 L 211.8125 354.238281 L 211.375 354.238281 C 210.75 354.238281 210.15625 354.175781 210.15625 353.300781 L 210.15625 349.113281 L 213.875 349.113281 C 215.65625 348.988281 217.9375 347.800781 217.9375 345.769531 C 217.9375 343.550781 215.59375 342.488281 213.6875 342.332031 Z M 210.125 348.582031 L 210.125 343.582031 C 210.21875 342.988281 210.46875 342.925781 210.875 342.925781 L 212.3125 342.925781 C 213.9375 342.925781 216.0625 342.988281 216.0625 345.769531 C 216.0625 346.425781 215.96875 347.113281 215.5625 347.613281 C 214.90625 348.394531 213.8125 348.582031 212.84375 348.582031 Z M 210.125 348.582031 "/>
<path fill-rule="nonzero" fill="rgb(0%, 0%, 0%)" fill-opacity="1" d="M 222.636719 352.550781 C 222.136719 352.644531 221.636719 353.082031 221.636719 353.675781 C 221.636719 354.300781 222.167969 354.832031 222.792969 354.832031 C 223.417969 354.832031 223.980469 354.363281 223.980469 353.707031 C 223.980469 353.082031 223.449219 352.519531 222.824219 352.519531 C 222.761719 352.519531 222.699219 352.550781 222.636719 352.550781 Z M 222.636719 352.550781 "/>
<path fill-rule="nonzero" fill="rgb(0%, 0%, 0%)" fill-opacity="1" d="M 237.816406 340.457031 L 237.816406 341.175781 C 238.910156 341.175781 239.941406 340.988281 240.972656 340.519531 L 240.972656 353.082031 C 240.972656 354.019531 240.066406 354.175781 239.097656 354.175781 C 238.691406 354.175781 238.285156 354.144531 237.941406 354.144531 L 237.941406 354.832031 L 245.660156 354.832031 L 245.660156 354.144531 C 245.285156 354.144531 244.847656 354.175781 244.441406 354.175781 C 243.503906 354.175781 242.628906 354.019531 242.628906 353.113281 L 242.628906 339.300781 C 242.628906 339.144531 242.597656 338.957031 242.347656 338.957031 C 242.035156 338.957031 241.691406 339.394531 241.378906 339.582031 C 240.316406 340.269531 239.035156 340.457031 237.816406 340.457031 Z M 237.816406 340.457031 "/>
<path fill-rule="nonzero" fill="rgb(0%, 0%, 0%)" fill-opacity="1" d="M 250.746094 341.113281 C 251.433594 340.050781 252.808594 339.519531 254.089844 339.519531 C 255.527344 339.519531 256.683594 340.425781 256.683594 342.269531 C 256.683594 343.800781 255.933594 345.675781 254.339844 346.082031 C 253.777344 346.238281 252.277344 346.082031 252.277344 346.519531 C 252.277344 346.707031 252.464844 346.769531 252.652344 346.769531 L 253.933594 346.769531 C 256.277344 346.769531 257.152344 348.738281 257.152344 350.550781 C 257.152344 352.300781 256.527344 354.707031 254.121094 354.707031 C 252.527344 354.707031 250.996094 353.988281 250.121094 352.582031 L 250.339844 352.582031 C 251.027344 352.582031 251.621094 352.175781 251.621094 351.425781 C 251.621094 350.707031 251.089844 350.238281 250.402344 350.238281 L 250.308594 350.238281 C 249.652344 350.269531 249.214844 350.800781 249.214844 351.425781 C 249.214844 353.894531 251.777344 355.332031 254.214844 355.332031 C 256.808594 355.332031 259.371094 353.488281 259.371094 350.738281 C 259.371094 348.613281 257.339844 346.550781 255.121094 346.457031 C 256.996094 345.800781 258.683594 344.425781 258.683594 342.269531 C 258.683594 340.082031 256.277344 338.957031 254.246094 338.957031 C 252.371094 338.957031 249.902344 339.863281 249.902344 342.113281 C 249.902344 342.675781 250.152344 343.175781 250.902344 343.300781 L 250.996094 343.300781 C 251.652344 343.300781 252.121094 342.863281 252.121094 342.207031 C 252.121094 341.488281 251.558594 341.082031 250.964844 341.082031 C 250.902344 341.082031 250.839844 341.113281 250.746094 341.113281 Z M 250.746094 341.113281 "/>
<path fill-rule="nonzero" fill="rgb(0%, 0%, 0%)" fill-opacity="1" d="M 264.144531 352.550781 C 263.644531 352.644531 263.144531 353.082031 263.144531 353.675781 C 263.144531 354.300781 263.675781 354.832031 264.300781 354.832031 C 264.925781 354.832031 265.488281 354.363281 265.488281 353.707031 C 265.488281 353.082031 264.957031 352.519531 264.332031 352.519531 C 264.269531 352.519531 264.207031 352.550781 264.144531 352.550781 Z M 264.144531 352.550781 "/>
</svg>
