<?xml version="1.0" encoding="UTF-8"?>
<svg xmlns="http://www.w3.org/2000/svg" xmlns:xlink="http://www.w3.org/1999/xlink" width="314" height="144" viewBox="0 0 314 144">
<path fill="none" stroke-width="11.9553" stroke-linecap="butt" stroke-linejoin="miter" stroke="rgb(0%, 0%, 0%)" stroke-opacity="1" stroke-miterlimit="10" d="M 43.984374 197.617185 L 1556.015602 197.617185 L 1556.015602 701.601552 Z M 43.984374 197.617185 " transform="matrix(0.2, 0, 0, -0.2, 0, 144)"/>
<path fill="none" stroke-width="7.9701" stroke-linecap="butt" stroke-linejoin="miter" stroke="rgb(0%, 0%, 0%)" stroke-opacity="1" stroke-miterlimit="10" d="M 43.984374 197.617185 L 73.085936 197.617185 " transform="matrix(0.2, 0, 0, -0.2, 0, 144)"/>
<path fill="none" stroke-width="7.9701" stroke-linecap="butt" stroke-linejoin="miter" stroke="rgb(0%, 0%, 0%)" stroke-opacity="1" stroke-miterlimit="10" d="M 131.210936 197.617185 L 160.312498 197.617185 " transform="matrix(0.2, 0, 0, -0.2, 0, 144)"/>
<path fill="none" stroke-width="7.9701" stroke-linecap="butt" stroke-linejoin="miter" stroke="rgb(0%, 0%, 0%)" stroke-opacity="1" stroke-miterlimit="10" d="M 160.312498 197.617185 L 189.374997 197.617185 " transform="matrix(0.2, 0, 0, -0.2, 0, 144)"/>
<path fill="none" stroke-width="7.9701" stroke-linecap="butt" stroke-linejoin="miter" stroke="rgb(0%, 0%, 0%)" stroke-opacity="1" stroke-miterlimit="10" d="M 247.539059 197.617185 L 276.601558 197.617185 " transform="matrix(0.2, 0, 0, -0.2, 0, 144)"/>
<path fill="none" stroke-width="7.9701" stroke-linecap="butt" stroke-linejoin="miter" stroke="rgb(0%, 0%, 0%)" stroke-opacity="1" stroke-miterlimit="10" d="M 276.601558 197.617185 L 305.70312 197.617185 " transform="matrix(0.2, 0, 0, -0.2, 0, 144)"/>
<path fill="none" stroke-width="7.9701" stroke-linecap="butt" stroke-linejoin="miter" stroke="rgb(0%, 0%, 0%)" stroke-opacity="1" stroke-miterlimit="10" d="M 363.867182 197.617185 L 392.929682 197.617185 " transform="matrix(0.2, 0, 0, -0.2, 0, 144)"/>
<path fill="none" stroke-width="7.9701" stroke-linecap="butt" stroke-linejoin="miter" stroke="rgb(0%, 0%, 0%)" stroke-opacity="1" stroke-miterlimit="10" d="M 392.929682 197.617185 L 421.992181 197.617185 " transform="matrix(0.2, 0, 0, -0.2, 0, 144)"/>
<path fill="none" stroke-width="7.9701" stroke-linecap="butt" stroke-linejoin="miter" stroke="rgb(0%, 0%, 0%)" stroke-opacity="1" stroke-miterlimit="10" d="M 480.156243 197.617185 L 509.218742 197.617185 " transform="matrix(0.2, 0, 0, -0.2, 0, 144)"/>
<path fill="none" stroke-width="7.9701" stroke-linecap="butt" stroke-linejoin="miter" stroke="rgb(0%, 0%, 0%)" stroke-opacity="1" stroke-miterlimit="10" d="M 509.218742 197.617185 L 538.320304 197.617185 " transform="matrix(0.2, 0, 0, -0.2, 0, 144)"/>
<path fill="none" stroke-width="7.9701" stroke-linecap="butt" stroke-linejoin="miter" stroke="rgb(0%, 0%, 0%)" stroke-opacity="1" stroke-miterlimit="10" d="M 596.484366 197.617185 L 625.546866 197.617185 " transform="matrix(0.2, 0, 0, -0.2, 0, 144)"/>
<path fill="none" stroke-width="7.9701" stroke-linecap="butt" stroke-linejoin="miter" stroke="rgb(0%, 0%, 0%)" stroke-opacity="1" stroke-miterlimit="10" d="M 625.546866 197.617185 L 654.648428 197.617185 " transform="matrix(0.2, 0, 0, -0.2, 0, 144)"/>
<path fill="none" stroke-width="7.9701" stroke-linecap="butt" stroke-linejoin="miter" stroke="rgb(0%, 0%, 0%)" stroke-opacity="1" stroke-miterlimit="10" d="M 712.773427 197.617185 L 741.874989 197.617185 " transform="matrix(0.2, 0, 0, -0.2, 0, 144)"/>
<path fill="none" stroke-width="7.9701" stroke-linecap="butt" stroke-linejoin="miter" stroke="rgb(0%, 0%, 0%)" stroke-opacity="1" stroke-miterlimit="10" d="M 741.874989 197.617185 L 770.937489 197.617185 " transform="matrix(0.2, 0, 0, -0.2, 0, 144)"/>
<path fill="none" stroke-width="7.9701" stroke-linecap="butt" stroke-linejoin="miter" stroke="rgb(0%, 0%, 0%)" stroke-opacity="1" stroke-miterlimit="10" d="M 829.062488 197.617185 L 858.16405 197.617185 " transform="matrix(0.2, 0, 0, -0.2, 0, 144)"/>
<path fill="none" stroke-width="7.9701" stroke-linecap="butt" stroke-linejoin="miter" stroke="rgb(0%, 0%, 0%)" stroke-opacity="1" stroke-miterlimit="10" d="M 858.16405 197.617185 L 887.226549 197.617185 " transform="matrix(0.2, 0, 0, -0.2, 0, 144)"/>
<path fill="none" stroke-width="7.9701" stroke-linecap="butt" stroke-linejoin="miter" stroke="rgb(0%, 0%, 0%)" stroke-opacity="1" stroke-miterlimit="10" d="M 945.390611 197.617185 L 974.492173 197.617185 " transform="matrix(0.2, 0, 0, -0.2, 0, 144)"/>
<path fill="none" stroke-width="7.9701" stroke-linecap="butt" stroke-linejoin="miter" stroke="rgb(0%, 0%, 0%)" stroke-opacity="1" stroke-miterlimit="10" d="M 974.492173 197.617185 L 1003.554673 197.617185 " transform="matrix(0.2, 0, 0, -0.2, 0, 144)"/>
<path fill="none" stroke-width="7.9701" stroke-linecap="butt" stroke-linejoin="miter" stroke="rgb(0%, 0%, 0%)" stroke-opacity="1" stroke-miterlimit="10" d="M 1061.718734 197.617185 L 1090.781234 197.617185 " transform="matrix(0.2, 0, 0, -0.2, 0, 144)"/>
<path fill="none" stroke-width="7.9701" stroke-linecap="butt" stroke-linejoin="miter" stroke="rgb(0%, 0%, 0%)" stroke-opacity="1" stroke-miterlimit="10" d="M 1090.781234 197.617185 L 1119.843733 197.617185 " transform="matrix(0.2, 0, 0, -0.2, 0, 144)"/>
<path fill="none" stroke-width="7.9701" stroke-linecap="butt" stroke-linejoin="miter" stroke="rgb(0%, 0%, 0%)" stroke-opacity="1" stroke-miterlimit="10" d="M 1178.007795 197.617185 L 1207.109357 197.617185 " transform="matrix(0.2, 0, 0, -0.2, 0, 144)"/>
<path fill="none" stroke-width="7.9701" stroke-linecap="butt" stroke-linejoin="miter" stroke="rgb(0%, 0%, 0%)" stroke-opacity="1" stroke-miterlimit="10" d="M 1207.109357 197.617185 L 1236.171857 197.617185 " transform="matrix(0.2, 0, 0, -0.2, 0, 144)"/>
<path fill="none" stroke-width="7.9701" stroke-linecap="butt" stroke-linejoin="miter" stroke="rgb(0%, 0%, 0%)" stroke-opacity="1" stroke-miterlimit="10" d="M 1294.335918 197.617185 L 1323.398418 197.617185 " transform="matrix(0.2, 0, 0, -0.2, 0, 144)"/>
<path fill="none" stroke-width="7.9701" stroke-linecap="butt" stroke-linejoin="miter" stroke="rgb(0%, 0%, 0%)" stroke-opacity="1" stroke-miterlimit="10" d="M 1323.398418 197.617185 L 1352.460917 197.617185 " transform="matrix(0.2, 0, 0, -0.2, 0, 144)"/>
<path fill="none" stroke-width="7.9701" stroke-linecap="butt" stroke-linejoin="miter" stroke="rgb(0%, 0%, 0%)" stroke-opacity="1" stroke-miterlimit="10" d="M 1410.624979 197.617185 L 1439.726541 197.617185 " transform="matrix(0.2, 0, 0, -0.2, 0, 144)"/>
<path fill="none" stroke-width="7.9701" stroke-linecap="butt" stroke-linejoin="miter" stroke="rgb(0%, 0%, 0%)" stroke-opacity="1" stroke-miterlimit="10" d="M 1439.726541 197.617185 L 1468.789041 197.617185 " transform="matrix(0.2, 0, 0, -0.2, 0, 144)"/>
<path fill="none" stroke-width="7.9701" stroke-linecap="butt" stroke-linejoin="miter" stroke="rgb(0%, 0%, 0%)" stroke-opacity="1" stroke-miterlimit="10" d="M 1526.953102 197.617185 L 1556.015602 197.617185 " transform="matrix(0.2, 0, 0, -0.2, 0, 144)"/>
<path fill="none" stroke-width="7.9701" stroke-linecap="butt" stroke-linejoin="miter" stroke="rgb(0%, 0%, 0%)" stroke-opacity="1" stroke-miterlimit="10" d="M 1556.015602 197.617185 L 1556.015602 222.812497 " transform="matrix(0.2, 0, 0, -0.2, 0, 144)"/>
<path fill="none" stroke-width="7.9701" stroke-linecap="butt" stroke-linejoin="miter" stroke="rgb(0%, 0%, 0%)" stroke-opacity="1" stroke-miterlimit="10" d="M 1556.015602 273.203121 L 1556.015602 298.398433 " transform="matrix(0.2, 0, 0, -0.2, 0, 144)"/>
<path fill="none" stroke-width="7.9701" stroke-linecap="butt" stroke-linejoin="miter" stroke="rgb(0%, 0%, 0%)" stroke-opacity="1" stroke-miterlimit="10" d="M 1556.015602 298.398433 L 1556.015602 323.593745 " transform="matrix(0.2, 0, 0, -0.2, 0, 144)"/>
<path fill="none" stroke-width="7.9701" stroke-linecap="butt" stroke-linejoin="miter" stroke="rgb(0%, 0%, 0%)" stroke-opacity="1" stroke-miterlimit="10" d="M 1556.015602 373.984369 L 1556.015602 399.218744 " transform="matrix(0.2, 0, 0, -0.2, 0, 144)"/>
<path fill="none" stroke-width="7.9701" stroke-linecap="butt" stroke-linejoin="miter" stroke="rgb(0%, 0%, 0%)" stroke-opacity="1" stroke-miterlimit="10" d="M 1556.015602 399.218744 L 1556.015602 424.414056 " transform="matrix(0.2, 0, 0, -0.2, 0, 144)"/>
<path fill="none" stroke-width="7.9701" stroke-linecap="butt" stroke-linejoin="miter" stroke="rgb(0%, 0%, 0%)" stroke-opacity="1" stroke-miterlimit="10" d="M 1556.015602 474.80468 L 1556.015602 499.999993 " transform="matrix(0.2, 0, 0, -0.2, 0, 144)"/>
<path fill="none" stroke-width="7.9701" stroke-linecap="butt" stroke-linejoin="miter" stroke="rgb(0%, 0%, 0%)" stroke-opacity="1" stroke-miterlimit="10" d="M 1556.015602 499.999993 L 1556.015602 525.195305 " transform="matrix(0.2, 0, 0, -0.2, 0, 144)"/>
<path fill="none" stroke-width="7.9701" stroke-linecap="butt" stroke-linejoin="miter" stroke="rgb(0%, 0%, 0%)" stroke-opacity="1" stroke-miterlimit="10" d="M 1556.015602 575.585929 L 1556.015602 600.820304 " transform="matrix(0.2, 0, 0, -0.2, 0, 144)"/>
<path fill="none" stroke-width="7.9701" stroke-linecap="butt" stroke-linejoin="miter" stroke="rgb(0%, 0%, 0%)" stroke-opacity="1" stroke-miterlimit="10" d="M 1556.015602 600.820304 L 1556.015602 626.015616 " transform="matrix(0.2, 0, 0, -0.2, 0, 144)"/>
<path fill="none" stroke-width="7.9701" stroke-linecap="butt" stroke-linejoin="miter" stroke="rgb(0%, 0%, 0%)" stroke-opacity="1" stroke-miterlimit="10" d="M 1556.015602 676.40624 L 1556.015602 701.601552 " transform="matrix(0.2, 0, 0, -0.2, 0, 144)"/>
<path fill="none" stroke-width="7.9701" stroke-linecap="butt" stroke-linejoin="miter" stroke="rgb(0%, 0%, 0%)" stroke-opacity="1" stroke-miterlimit="10" d="M 1556.015602 701.601552 L 1526.953102 701.601552 " transform="matrix(0.2, 0, 0, -0.2, 0, 144)"/>
<path fill="none" stroke-width="7.9701" stroke-linecap="butt" stroke-linejoin="miter" stroke="rgb(0%, 0%, 0%)" stroke-opacity="1" stroke-miterlimit="10" d="M 1468.789041 701.601552 L 1439.726541 701.601552 " transform="matrix(0.2, 0, 0, -0.2, 0, 144)"/>
<path fill="none" stroke-width="7.9701" stroke-linecap="butt" stroke-linejoin="miter" stroke="rgb(0%, 0%, 0%)" stroke-opacity="1" stroke-miterlimit="10" d="M 1439.726541 701.601552 L 1410.624979 701.601552 " transform="matrix(0.2, 0, 0, -0.2, 0, 144)"/>
<path fill="none" stroke-width="7.9701" stroke-linecap="butt" stroke-linejoin="miter" stroke="rgb(0%, 0%, 0%)" stroke-opacity="1" stroke-miterlimit="10" d="M 1352.460917 701.601552 L 1323.398418 701.601552 " transform="matrix(0.2, 0, 0, -0.2, 0, 144)"/>
<path fill="none" stroke-width="7.9701" stroke-linecap="butt" stroke-linejoin="miter" stroke="rgb(0%, 0%, 0%)" stroke-opacity="1" stroke-miterlimit="10" d="M 1323.398418 701.601552 L 1294.335918 701.601552 " transform="matrix(0.2, 0, 0, -0.2, 0, 144)"/>
<path fill="none" stroke-width="7.9701" stroke-linecap="butt" stroke-linejoin="miter" stroke="rgb(0%, 0%, 0%)" stroke-opacity="1" stroke-miterlimit="10" d="M 1236.171857 701.601552 L 1207.109357 701.601552 " transform="matrix(0.2, 0, 0, -0.2, 0, 144)"/>
<path fill="none" stroke-width="7.9701" stroke-linecap="butt" stroke-linejoin="miter" stroke="rgb(0%, 0%, 0%)" stroke-opacity="1" stroke-miterlimit="10" d="M 1207.109357 701.601552 L 1178.007795 701.601552 " transform="matrix(0.2, 0, 0, -0.2, 0, 144)"/>
<path fill="none" stroke-width="7.9701" stroke-linecap="butt" stroke-linejoin="miter" stroke="rgb(0%, 0%, 0%)" stroke-opacity="1" stroke-miterlimit="10" d="M 1119.843733 701.601552 L 1090.781234 701.601552 " transform="matrix(0.2, 0, 0, -0.2, 0, 144)"/>
<path fill="none" stroke-width="7.9701" stroke-linecap="butt" stroke-linejoin="miter" stroke="rgb(0%, 0%, 0%)" stroke-opacity="1" stroke-miterlimit="10" d="M 1090.781234 701.601552 L 1061.718734 701.601552 " transform="matrix(0.2, 0, 0, -0.2, 0, 144)"/>
<path fill="none" stroke-width="7.9701" stroke-linecap="butt" stroke-linejoin="miter" stroke="rgb(0%, 0%, 0%)" stroke-opacity="1" stroke-miterlimit="10" d="M 1003.554673 701.601552 L 974.492173 701.601552 " transform="matrix(0.2, 0, 0, -0.2, 0, 144)"/>
<path fill="none" stroke-width="7.9701" stroke-linecap="butt" stroke-linejoin="miter" stroke="rgb(0%, 0%, 0%)" stroke-opacity="1" stroke-miterlimit="10" d="M 974.492173 701.601552 L 945.390611 701.601552 " transform="matrix(0.2, 0, 0, -0.2, 0, 144)"/>
<path fill="none" stroke-width="7.9701" stroke-linecap="butt" stroke-linejoin="miter" stroke="rgb(0%, 0%, 0%)" stroke-opacity="1" stroke-miterlimit="10" d="M 887.226549 701.601552 L 858.16405 701.601552 " transform="matrix(0.2, 0, 0, -0.2, 0, 144)"/>
<path fill="none" stroke-width="7.9701" stroke-linecap="butt" stroke-linejoin="miter" stroke="rgb(0%, 0%, 0%)" stroke-opacity="1" stroke-miterlimit="10" d="M 858.16405 701.601552 L 829.062488 701.601552 " transform="matrix(0.2, 0, 0, -0.2, 0, 144)"/>
<path fill="none" stroke-width="7.9701" stroke-linecap="butt" stroke-linejoin="miter" stroke="rgb(0%, 0%, 0%)" stroke-opacity="1" stroke-miterlimit="10" d="M 770.937489 701.601552 L 741.874989 701.601552 " transform="matrix(0.2, 0, 0, -0.2, 0, 144)"/>
<path fill="none" stroke-width="7.9701" stroke-linecap="butt" stroke-linejoin="miter" stroke="rgb(0%, 0%, 0%)" stroke-opacity="1" stroke-miterlimit="10" d="M 741.874989 701.601552 L 712.773427 701.601552 " transform="matrix(0.2, 0, 0, -0.2, 0, 144)"/>
<path fill="none" stroke-width="7.9701" stroke-linecap="butt" stroke-linejoin="miter" stroke="rgb(0%, 0%, 0%)" stroke-opacity="1" stroke-miterlimit="10" d="M 654.648428 701.601552 L 625.546866 701.601552 " transform="matrix(0.2, 0, 0, -0.2, 0, 144)"/>
<path fill="none" stroke-width="7.9701" stroke-linecap="butt" stroke-linejoin="miter" stroke="rgb(0%, 0%, 0%)" stroke-opacity="1" stroke-miterlimit="10" d="M 625.546866 701.601552 L 596.484366 701.601552 " transform="matrix(0.2, 0, 0, -0.2, 0, 144)"/>
<path fill="none" stroke-width="7.9701" stroke-linecap="butt" stroke-linejoin="miter" stroke="rgb(0%, 0%, 0%)" stroke-opacity="1" stroke-miterlimit="10" d="M 538.320304 701.601552 L 509.218742 701.601552 " transform="matrix(0.2, 0, 0, -0.2, 0, 144)"/>
<path fill="none" stroke-width="7.9701" stroke-linecap="butt" stroke-linejoin="miter" stroke="rgb(0%, 0%, 0%)" stroke-opacity="1" stroke-miterlimit="10" d="M 509.218742 701.601552 L 480.156243 701.601552 " transform="matrix(0.2, 0, 0, -0.2, 0, 144)"/>
<path fill="none" stroke-width="7.9701" stroke-linecap="butt" stroke-linejoin="miter" stroke="rgb(0%, 0%, 0%)" stroke-opacity="1" stroke-miterlimit="10" d="M 421.992181 701.601552 L 392.929682 701.601552 " transform="matrix(0.2, 0, 0, -0.2, 0, 144)"/>
<path fill="none" stroke-width="7.9701" stroke-linecap="butt" stroke-linejoin="miter" stroke="rgb(0%, 0%, 0%)" stroke-opacity="1" stroke-miterlimit="10" d="M 392.929682 701.601552 L 363.867182 701.601552 " transform="matrix(0.2, 0, 0, -0.2, 0, 144)"/>
<path fill="none" stroke-width="7.9701" stroke-linecap="butt" stroke-linejoin="miter" stroke="rgb(0%, 0%, 0%)" stroke-opacity="1" stroke-miterlimit="10" d="M 305.70312 701.601552 L 276.601558 701.601552 " transform="matrix(0.2, 0, 0, -0.2, 0, 144)"/>
<path fill="none" stroke-width="7.9701" stroke-linecap="butt" stroke-linejoin="miter" stroke="rgb(0%, 0%, 0%)" stroke-opacity="1" stroke-miterlimit="10" d="M 276.601558 701.601552 L 247.539059 701.601552 " transform="matrix(0.2, 0, 0, -0.2, 0, 144)"/>
<path fill="none" stroke-width="7.9701" stroke-linecap="butt" stroke-linejoin="miter" stroke="rgb(0%, 0%, 0%)" stroke-opacity="1" stroke-miterlimit="10" d="M 189.374997 701.601552 L 160.312498 701.601552 " transform="matrix(0.2, 0, 0, -0.2, 0, 144)"/>
<path fill="none" stroke-width="7.9701" stroke-linecap="butt" stroke-linejoin="miter" stroke="rgb(0%, 0%, 0%)" stroke-opacity="1" stroke-miterlimit="10" d="M 160.312498 701.601552 L 131.210936 701.601552 " transform="matrix(0.2, 0, 0, -0.2, 0, 144)"/>
<path fill="none" stroke-width="7.9701" stroke-linecap="butt" stroke-linejoin="miter" stroke="rgb(0%, 0%, 0%)" stroke-opacity="1" stroke-miterlimit="10" d="M 73.085936 701.601552 L 43.984374 701.601552 " transform="matrix(0.2, 0, 0, -0.2, 0, 144)"/>
<path fill="none" stroke-width="7.9701" stroke-linecap="butt" stroke-linejoin="miter" stroke="rgb(0%, 0%, 0%)" stroke-opacity="1" stroke-miterlimit="10" d="M 43.984374 701.601552 L 43.984374 676.40624 " transform="matrix(0.2, 0, 0, -0.2, 0, 144)"/>
<path fill="none" stroke-width="7.9701" stroke-linecap="butt" stroke-linejoin="miter" stroke="rgb(0%, 0%, 0%)" stroke-opacity="1" stroke-miterlimit="10" d="M 43.984374 626.015616 L 43.984374 600.820304 " transform="matrix(0.2, 0, 0, -0.2, 0, 144)"/>
<path fill="none" stroke-width="7.9701" stroke-linecap="butt" stroke-linejoin="miter" stroke="rgb(0%, 0%, 0%)" stroke-opacity="1" stroke-miterlimit="10" d="M 43.984374 600.820304 L 43.984374 575.585929 " transform="matrix(0.2, 0, 0, -0.2, 0, 144)"/>
<path fill="none" stroke-width="7.9701" stroke-linecap="butt" stroke-linejoin="miter" stroke="rgb(0%, 0%, 0%)" stroke-opacity="1" stroke-miterlimit="10" d="M 43.984374 525.195305 L 43.984374 499.999993 " transform="matrix(0.2, 0, 0, -0.2, 0, 144)"/>
<path fill="none" stroke-width="7.9701" stroke-linecap="butt" stroke-linejoin="miter" stroke="rgb(0%, 0%, 0%)" stroke-opacity="1" stroke-miterlimit="10" d="M 43.984374 499.999993 L 43.984374 474.80468 " transform="matrix(0.2, 0, 0, -0.2, 0, 144)"/>
<path fill="none" stroke-width="7.9701" stroke-linecap="butt" stroke-linejoin="miter" stroke="rgb(0%, 0%, 0%)" stroke-opacity="1" stroke-miterlimit="10" d="M 43.984374 424.414056 L 43.984374 399.218744 " transform="matrix(0.2, 0, 0, -0.2, 0, 144)"/>
<path fill="none" stroke-width="7.9701" stroke-linecap="butt" stroke-linejoin="miter" stroke="rgb(0%, 0%, 0%)" stroke-opacity="1" stroke-miterlimit="10" d="M 43.984374 399.218744 L 43.984374 373.984369 " transform="matrix(0.2, 0, 0, -0.2, 0, 144)"/>
<path fill="none" stroke-width="7.9701" stroke-linecap="butt" stroke-linejoin="miter" stroke="rgb(0%, 0%, 0%)" stroke-opacity="1" stroke-miterlimit="10" d="M 43.984374 323.593745 L 43.984374 298.398433 " transform="matrix(0.2, 0, 0, -0.2, 0, 144)"/>
<path fill="none" stroke-width="7.9701" stroke-linecap="butt" stroke-linejoin="miter" stroke="rgb(0%, 0%, 0%)" stroke-opacity="1" stroke-miterlimit="10" d="M 43.984374 298.398433 L 43.984374 273.203121 " transform="matrix(0.2, 0, 0, -0.2, 0, 144)"/>
<path fill="none" stroke-width="7.9701" stroke-linecap="butt" stroke-linejoin="miter" stroke="rgb(0%, 0%, 0%)" stroke-opacity="1" stroke-miterlimit="10" d="M 43.984374 222.812497 L 43.984374 197.617185 " transform="matrix(0.2, 0, 0, -0.2, 0, 144)"/>
<path fill="none" stroke-width="7.9701" stroke-linecap="butt" stroke-linejoin="miter" stroke="rgb(0%, 0%, 0%)" stroke-opacity="1" stroke-miterlimit="10" d="M 548.007804 197.617185 L 548.007804 222.812497 " transform="matrix(0.2, 0, 0, -0.2, 0, 144)"/>
<path fill="none" stroke-width="7.9701" stroke-linecap="butt" stroke-linejoin="miter" stroke="rgb(0%, 0%, 0%)" stroke-opacity="1" stroke-miterlimit="10" d="M 548.007804 273.203121 L 548.007804 298.398433 " transform="matrix(0.2, 0, 0, -0.2, 0, 144)"/>
<path fill="none" stroke-width="7.9701" stroke-linecap="butt" stroke-linejoin="miter" stroke="rgb(0%, 0%, 0%)" stroke-opacity="1" stroke-miterlimit="10" d="M 548.007804 298.398433 L 548.007804 323.593745 " transform="matrix(0.2, 0, 0, -0.2, 0, 144)"/>
<path fill="none" stroke-width="7.9701" stroke-linecap="butt" stroke-linejoin="miter" stroke="rgb(0%, 0%, 0%)" stroke-opacity="1" stroke-miterlimit="10" d="M 548.007804 373.984369 L 548.007804 399.218744 " transform="matrix(0.2, 0, 0, -0.2, 0, 144)"/>
<path fill="none" stroke-width="7.9701" stroke-linecap="butt" stroke-linejoin="miter" stroke="rgb(0%, 0%, 0%)" stroke-opacity="1" stroke-miterlimit="10" d="M 548.007804 399.218744 L 548.007804 424.414056 " transform="matrix(0.2, 0, 0, -0.2, 0, 144)"/>
<path fill="none" stroke-width="7.9701" stroke-linecap="butt" stroke-linejoin="miter" stroke="rgb(0%, 0%, 0%)" stroke-opacity="1" stroke-miterlimit="10" d="M 548.007804 474.80468 L 548.007804 499.999993 " transform="matrix(0.2, 0, 0, -0.2, 0, 144)"/>
<path fill="none" stroke-width="7.9701" stroke-linecap="butt" stroke-linejoin="miter" stroke="rgb(0%, 0%, 0%)" stroke-opacity="1" stroke-miterlimit="10" d="M 548.007804 499.999993 L 548.007804 525.195305 " transform="matrix(0.2, 0, 0, -0.2, 0, 144)"/>
<path fill="none" stroke-width="7.9701" stroke-linecap="butt" stroke-linejoin="miter" stroke="rgb(0%, 0%, 0%)" stroke-opacity="1" stroke-miterlimit="10" d="M 548.007804 575.585929 L 548.007804 600.820304 " transform="matrix(0.2, 0, 0, -0.2, 0, 144)"/>
<path fill="none" stroke-width="7.9701" stroke-linecap="butt" stroke-linejoin="miter" stroke="rgb(0%, 0%, 0%)" stroke-opacity="1" stroke-miterlimit="10" d="M 548.007804 600.820304 L 548.007804 626.015616 " transform="matrix(0.2, 0, 0, -0.2, 0, 144)"/>
<path fill="none" stroke-width="7.9701" stroke-linecap="butt" stroke-linejoin="miter" stroke="rgb(0%, 0%, 0%)" stroke-opacity="1" stroke-miterlimit="10" d="M 548.007804 676.40624 L 548.007804 701.601552 " transform="matrix(0.2, 0, 0, -0.2, 0, 144)"/>
<path fill="none" stroke-width="7.9701" stroke-linecap="butt" stroke-linejoin="miter" stroke="rgb(0%, 0%, 0%)" stroke-opacity="1" stroke-miterlimit="10" d="M 1051.992172 197.617185 L 1051.992172 222.812497 " transform="matrix(0.2, 0, 0, -0.2, 0, 144)"/>
<path fill="none" stroke-width="7.9701" stroke-linecap="butt" stroke-linejoin="miter" stroke="rgb(0%, 0%, 0%)" stroke-opacity="1" stroke-miterlimit="10" d="M 1051.992172 273.203121 L 1051.992172 298.398433 " transform="matrix(0.2, 0, 0, -0.2, 0, 144)"/>
<path fill="none" stroke-width="7.9701" stroke-linecap="butt" stroke-linejoin="miter" stroke="rgb(0%, 0%, 0%)" stroke-opacity="1" stroke-miterlimit="10" d="M 1051.992172 298.398433 L 1051.992172 323.593745 " transform="matrix(0.2, 0, 0, -0.2, 0, 144)"/>
<path fill="none" stroke-width="7.9701" stroke-linecap="butt" stroke-linejoin="miter" stroke="rgb(0%, 0%, 0%)" stroke-opacity="1" stroke-miterlimit="10" d="M 1051.992172 373.984369 L 1051.992172 399.218744 " transform="matrix(0.2, 0, 0, -0.2, 0, 144)"/>
<path fill="none" stroke-width="7.9701" stroke-linecap="butt" stroke-linejoin="miter" stroke="rgb(0%, 0%, 0%)" stroke-opacity="1" stroke-miterlimit="10" d="M 1051.992172 399.218744 L 1051.992172 424.414056 " transform="matrix(0.2, 0, 0, -0.2, 0, 144)"/>
<path fill="none" stroke-width="7.9701" stroke-linecap="butt" stroke-linejoin="miter" stroke="rgb(0%, 0%, 0%)" stroke-opacity="1" stroke-miterlimit="10" d="M 1051.992172 474.80468 L 1051.992172 499.999993 " transform="matrix(0.2, 0, 0, -0.2, 0, 144)"/>
<path fill="none" stroke-width="7.9701" stroke-linecap="butt" stroke-linejoin="miter" stroke="rgb(0%, 0%, 0%)" stroke-opacity="1" stroke-miterlimit="10" d="M 1051.992172 499.999993 L 1051.992172 525.195305 " transform="matrix(0.2, 0, 0, -0.2, 0, 144)"/>
<path fill="none" stroke-width="7.9701" stroke-linecap="butt" stroke-linejoin="miter" stroke="rgb(0%, 0%, 0%)" stroke-opacity="1" stroke-miterlimit="10" d="M 1051.992172 575.585929 L 1051.992172 600.820304 " transform="matrix(0.2, 0, 0, -0.2, 0, 144)"/>
<path fill="none" stroke-width="7.9701" stroke-linecap="butt" stroke-linejoin="miter" stroke="rgb(0%, 0%, 0%)" stroke-opacity="1" stroke-miterlimit="10" d="M 1051.992172 600.820304 L 1051.992172 626.015616 " transform="matrix(0.2, 0, 0, -0.2, 0, 144)"/>
<path fill="none" stroke-width="7.9701" stroke-linecap="butt" stroke-linejoin="miter" stroke="rgb(0%, 0%, 0%)" stroke-opacity="1" stroke-miterlimit="10" d="M 1051.992172 676.40624 L 1051.992172 701.601552 " transform="matrix(0.2, 0, 0, -0.2, 0, 144)"/>
<path fill-rule="nonzero" fill="rgb(0%, 0%, 0%)" fill-opacity="1" d="M 115.601562 137.1875 C 116.789062 136.78125 118.789062 136.1875 118.789062 134.25 C 118.789062 131.9375 116.070312 130.875 114.101562 130.875 C 113.164062 130.875 112.195312 131.09375 111.351562 131.59375 C 111.226562 131.65625 111.070312 131.84375 110.914062 131.84375 C 110.601562 131.84375 110.039062 130.875 109.726562 130.875 C 109.539062 130.875 109.507812 131.09375 109.507812 131.1875 L 109.507812 134.75 C 109.507812 134.875 109.601562 135.03125 109.789062 135.03125 C 110.101562 135.03125 110.070312 134.40625 110.164062 134.0625 C 110.632812 132.34375 112.195312 131.59375 113.695312 131.5 L 114.101562 131.5 C 115.445312 131.5 117.007812 132.375 117.007812 134.25 C 117.007812 136.0625 115.226562 137 113.570312 137 C 113.257812 137 112.945312 137 112.632812 137 L 112.476562 137 C 112.289062 137 112.070312 137 112.070312 137.21875 L 112.070312 137.25 C 112.101562 137.4375 112.289062 137.46875 112.476562 137.46875 L 114.320312 137.46875 C 115.882812 137.59375 117.320312 138.625 117.476562 140.25 L 117.476562 140.46875 C 117.476562 142.3125 115.757812 143.46875 114.007812 143.46875 C 112.101562 143.46875 110.132812 142.84375 109.820312 140.46875 C 109.820312 140.3125 109.757812 140.125 109.539062 140.125 C 109.320312 140.15625 109.289062 140.3125 109.289062 140.46875 C 109.289062 143.0625 111.882812 144.09375 114.132812 144.09375 C 116.195312 144.09375 119.070312 143.125 119.320312 140.65625 L 119.320312 140.53125 C 119.320312 138.5625 117.257812 137.59375 115.601562 137.1875 Z M 115.601562 137.1875 "/>
<path fill-rule="nonzero" fill="rgb(0%, 0%, 0%)" fill-opacity="1" d="M 127.695312 130.875 C 124.320312 131.28125 121.632812 133.9375 121.632812 137.53125 C 121.632812 140.8125 124.226562 144.0625 128.101562 144.0625 C 131.601562 144.0625 134.570312 141.15625 134.570312 137.53125 C 134.570312 134.34375 132.070312 130.875 128.132812 130.875 C 128.007812 130.875 127.851562 130.875 127.695312 130.875 Z M 123.507812 137.75 L 123.507812 137.40625 C 123.507812 134.90625 124.414062 131.96875 127.570312 131.4375 C 127.757812 131.40625 127.914062 131.40625 128.101562 131.40625 C 130.914062 131.40625 132.664062 134.125 132.664062 137.15625 C 132.664062 139.5625 131.945312 142.625 128.976562 143.40625 C 128.695312 143.46875 128.414062 143.5 128.132812 143.5 L 127.945312 143.5 C 125.351562 143.40625 123.945312 140.9375 123.601562 138.53125 Z M 123.507812 137.75 "/>
<path fill-rule="nonzero" fill="rgb(0%, 0%, 0%)" fill-opacity="1" d="M 137.027344 131.21875 L 137.027344 131.8125 L 137.464844 131.8125 C 138.058594 131.8125 138.683594 131.90625 138.683594 132.78125 L 138.683594 142.25 C 138.683594 143.09375 137.964844 143.125 137.308594 143.125 L 137.027344 143.125 L 137.027344 143.71875 L 142.808594 143.71875 C 143.214844 143.71875 143.589844 143.75 143.996094 143.75 C 145.996094 143.75 148.339844 142.8125 148.558594 140.40625 L 148.558594 140.21875 C 148.558594 137.6875 145.683594 136.65625 143.777344 136.65625 C 142.527344 136.65625 141.339844 136.78125 140.152344 136.875 L 140.152344 132.65625 C 140.152344 132.21875 140.214844 131.8125 140.996094 131.8125 L 143.308594 131.8125 C 144.277344 131.8125 145.371094 131.875 146.089844 132.59375 C 146.777344 133.3125 146.871094 134.53125 146.964844 135.46875 L 147.496094 135.46875 L 147.027344 131.21875 Z M 140.152344 137.5 C 140.402344 137.5 140.652344 137.4375 140.902344 137.40625 L 142.277344 137.34375 C 142.558594 137.3125 142.839844 137.28125 143.152344 137.28125 C 144.714844 137.28125 146.683594 138.28125 146.683594 140.125 C 146.683594 141.875 145.339844 143.15625 143.339844 143.15625 C 143.058594 143.15625 142.746094 143.125 142.496094 143.125 L 140.964844 143.125 C 140.496094 143.125 140.246094 143.09375 140.152344 142.46875 Z M 140.152344 137.5 "/>
<path fill-rule="nonzero" fill="rgb(0%, 0%, 0%)" fill-opacity="1" d="M 150.90625 131.21875 L 150.90625 131.8125 L 151.375 131.8125 C 151.96875 131.8125 152.5625 131.90625 152.5625 132.78125 L 152.5625 142.25 C 152.5625 143.09375 151.875 143.125 151.1875 143.125 L 150.90625 143.125 L 150.90625 143.71875 L 155.8125 143.71875 L 155.8125 143.125 L 155.375 143.125 C 154.75 143.125 154.15625 143.0625 154.15625 142.1875 L 154.15625 138 L 157.875 138 C 159.65625 137.875 161.9375 136.6875 161.9375 134.65625 C 161.9375 132.4375 159.59375 131.375 157.6875 131.21875 Z M 154.125 137.46875 L 154.125 132.46875 C 154.21875 131.875 154.46875 131.8125 154.875 131.8125 L 156.3125 131.8125 C 157.9375 131.8125 160.0625 131.875 160.0625 134.65625 C 160.0625 135.3125 159.96875 136 159.5625 136.5 C 158.90625 137.28125 157.8125 137.46875 156.84375 137.46875 Z M 154.125 137.46875 "/>
<path fill-rule="nonzero" fill="rgb(0%, 0%, 0%)" fill-opacity="1" d="M 166.636719 141.4375 C 166.136719 141.53125 165.636719 141.96875 165.636719 142.5625 C 165.636719 143.1875 166.167969 143.71875 166.792969 143.71875 C 167.417969 143.71875 167.980469 143.25 167.980469 142.59375 C 167.980469 141.96875 167.449219 141.40625 166.824219 141.40625 C 166.761719 141.40625 166.699219 141.4375 166.636719 141.4375 Z M 166.636719 141.4375 "/>
<path fill-rule="nonzero" fill="rgb(0%, 0%, 0%)" fill-opacity="1" d="M 181.535156 131.21875 C 181.941406 129.65625 183.347656 128.53125 184.972656 128.53125 C 187.222656 128.53125 188.472656 130.5 188.472656 132.4375 C 188.472656 134.125 187.535156 135.625 186.503906 136.875 C 184.816406 138.96875 182.785156 140.84375 181.003906 142.8125 C 180.847656 143 180.691406 143.15625 180.691406 143.40625 C 180.691406 143.5 180.722656 143.625 180.722656 143.71875 L 189.847656 143.71875 L 190.472656 139.71875 L 189.941406 139.71875 C 189.753906 140.6875 189.816406 141.96875 188.816406 141.96875 C 188.597656 142 188.410156 142 188.222656 142 L 187.628906 142 C 187.285156 142.03125 186.910156 142.03125 186.597656 142.03125 L 182.441406 142.03125 C 183.941406 140.53125 185.566406 139.0625 187.191406 137.6875 C 188.722656 136.375 190.316406 134.84375 190.472656 132.71875 L 190.472656 132.40625 C 190.472656 129.6875 188.128906 127.84375 185.285156 127.84375 C 182.941406 127.84375 180.722656 129.75 180.722656 132.1875 C 180.722656 133 181.191406 133.46875 181.878906 133.46875 C 182.503906 133.46875 183.003906 133 183.003906 132.3125 C 183.003906 131.6875 182.535156 131.1875 181.816406 131.1875 C 181.722656 131.1875 181.628906 131.1875 181.535156 131.21875 Z M 181.535156 131.21875 "/>
<path fill-rule="nonzero" fill="rgb(0%, 0%, 0%)" fill-opacity="1" d="M 194.527344 129.34375 L 194.527344 130.0625 C 195.621094 130.0625 196.652344 129.875 197.683594 129.40625 L 197.683594 141.96875 C 197.683594 142.90625 196.777344 143.0625 195.808594 143.0625 C 195.402344 143.0625 194.996094 143.03125 194.652344 143.03125 L 194.652344 143.71875 L 202.371094 143.71875 L 202.371094 143.03125 C 201.996094 143.03125 201.558594 143.0625 201.152344 143.0625 C 200.214844 143.0625 199.339844 142.90625 199.339844 142 L 199.339844 128.1875 C 199.339844 128.03125 199.308594 127.84375 199.058594 127.84375 C 198.746094 127.84375 198.402344 128.28125 198.089844 128.46875 C 197.027344 129.15625 195.746094 129.34375 194.527344 129.34375 Z M 194.527344 129.34375 "/>
<path fill-rule="nonzero" fill="rgb(0%, 0%, 0%)" fill-opacity="1" d="M 208.144531 141.4375 C 207.644531 141.53125 207.144531 141.96875 207.144531 142.5625 C 207.144531 143.1875 207.675781 143.71875 208.300781 143.71875 C 208.925781 143.71875 209.488281 143.25 209.488281 142.59375 C 209.488281 141.96875 208.957031 141.40625 208.332031 141.40625 C 208.269531 141.40625 208.207031 141.4375 208.144531 141.4375 Z M 208.144531 141.4375 "/>
</svg>
