<?xml version="1.0" encoding="UTF-8"?>
<svg xmlns="http://www.w3.org/2000/svg" xmlns:xlink="http://www.w3.org/1999/xlink" width="376" height="476" viewBox="0 0 376 476">
<path fill-rule="nonzero" fill="rgb(0%, 0%, 0%)" fill-opacity="1" d="M 130.886719 273.3125 C 130.886719 272.8125 130.886719 272.75 130.386719 272.75 C 129.042969 274.15625 127.105469 274.15625 126.417969 274.15625 L 126.417969 274.8125 C 126.855469 274.8125 128.136719 274.8125 129.292969 274.25 L 129.292969 285.5625 C 129.292969 286.34375 129.199219 286.59375 127.261719 286.59375 L 126.542969 286.59375 L 126.542969 287.28125 C 127.324219 287.21875 129.199219 287.21875 130.074219 287.21875 C 130.949219 287.21875 132.855469 287.21875 133.605469 287.28125 L 133.605469 286.59375 L 132.917969 286.59375 C 130.949219 286.59375 130.886719 286.375 130.886719 285.5625 Z M 130.886719 273.3125 "/>
<path fill-rule="nonzero" fill="rgb(0%, 0%, 0%)" fill-opacity="1" d="M 175.265625 285.59375 L 177.578125 283.34375 C 180.984375 280.34375 182.265625 279.15625 182.265625 277 C 182.265625 274.5 180.328125 272.75 177.640625 272.75 C 175.203125 272.75 173.578125 274.75 173.578125 276.6875 C 173.578125 277.9375 174.671875 277.9375 174.734375 277.9375 C 175.109375 277.9375 175.859375 277.65625 175.859375 276.78125 C 175.859375 276.1875 175.484375 275.625 174.703125 275.625 C 174.546875 275.625 174.484375 275.625 174.421875 275.65625 C 174.921875 274.25 176.109375 273.4375 177.359375 273.4375 C 179.359375 273.4375 180.296875 275.1875 180.296875 277 C 180.296875 278.71875 179.203125 280.46875 178.015625 281.8125 L 173.828125 286.46875 C 173.578125 286.71875 173.578125 286.75 173.578125 287.28125 L 181.671875 287.28125 L 182.265625 283.5 L 181.734375 283.5 C 181.609375 284.125 181.484375 285.09375 181.265625 285.4375 C 181.109375 285.59375 179.671875 285.59375 179.171875 285.59375 Z M 175.265625 285.59375 "/>
<path fill-rule="nonzero" fill="rgb(0%, 0%, 0%)" fill-opacity="1" d="M 226.796875 279.59375 C 228.609375 279 229.859375 277.5 229.859375 275.75 C 229.859375 273.96875 227.953125 272.75 225.859375 272.75 C 223.640625 272.75 221.984375 274.0625 221.984375 275.71875 C 221.984375 276.4375 222.484375 276.84375 223.109375 276.84375 C 223.765625 276.84375 224.203125 276.375 224.203125 275.75 C 224.203125 274.65625 223.203125 274.65625 222.859375 274.65625 C 223.546875 273.59375 224.984375 273.3125 225.765625 273.3125 C 226.671875 273.3125 227.859375 273.78125 227.859375 275.75 C 227.859375 276 227.828125 277.28125 227.234375 278.21875 C 226.578125 279.28125 225.859375 279.34375 225.296875 279.375 C 225.140625 279.375 224.609375 279.4375 224.453125 279.4375 C 224.265625 279.4375 224.140625 279.46875 224.140625 279.6875 C 224.140625 279.9375 224.265625 279.9375 224.640625 279.9375 L 225.609375 279.9375 C 227.390625 279.9375 228.203125 281.40625 228.203125 283.5625 C 228.203125 286.53125 226.703125 287.15625 225.734375 287.15625 C 224.796875 287.15625 223.171875 286.78125 222.390625 285.5 C 223.171875 285.59375 223.828125 285.125 223.828125 284.28125 C 223.828125 283.5 223.265625 283.0625 222.609375 283.0625 C 222.109375 283.0625 221.390625 283.375 221.390625 284.34375 C 221.390625 286.3125 223.421875 287.75 225.796875 287.75 C 228.453125 287.75 230.453125 285.78125 230.453125 283.5625 C 230.453125 281.75 229.078125 280.0625 226.796875 279.59375 Z M 226.796875 279.59375 "/>
<path fill-rule="nonzero" fill="rgb(0%, 0%, 0%)" fill-opacity="1" d="M 274.890625 283.6875 L 274.890625 285.59375 C 274.890625 286.375 274.859375 286.59375 273.234375 286.59375 L 272.796875 286.59375 L 272.796875 287.28125 C 273.671875 287.21875 274.796875 287.21875 275.734375 287.21875 C 276.640625 287.21875 277.796875 287.21875 278.703125 287.28125 L 278.703125 286.59375 L 278.234375 286.59375 C 276.609375 286.59375 276.578125 286.375 276.578125 285.59375 L 276.578125 283.6875 L 278.765625 283.6875 L 278.765625 283 L 276.578125 283 L 276.578125 273.09375 C 276.578125 272.65625 276.578125 272.5 276.234375 272.5 C 276.046875 272.5 275.953125 272.5 275.796875 272.78125 L 269.109375 283 L 269.109375 283.6875 Z M 275.015625 283 L 269.703125 283 L 275.015625 274.875 Z M 275.015625 283 "/>
<path fill-rule="nonzero" fill="rgb(0%, 0%, 0%)" fill-opacity="1" d="M 326.265625 282.90625 C 326.265625 280.3125 324.484375 278.125 322.140625 278.125 C 321.078125 278.125 320.140625 278.46875 319.359375 279.21875 L 319.359375 274.96875 C 319.796875 275.125 320.515625 275.25 321.203125 275.25 C 323.890625 275.25 325.421875 273.28125 325.421875 273 C 325.421875 272.875 325.359375 272.75 325.203125 272.75 C 325.203125 272.75 325.140625 272.75 325.046875 272.8125 C 324.609375 273.03125 323.515625 273.4375 322.078125 273.4375 C 321.203125 273.4375 320.203125 273.3125 319.171875 272.84375 C 318.984375 272.78125 318.953125 272.78125 318.890625 272.78125 C 318.671875 272.78125 318.671875 272.9375 318.671875 273.3125 L 318.671875 279.75 C 318.671875 280.15625 318.671875 280.3125 318.984375 280.3125 C 319.140625 280.3125 319.203125 280.25 319.265625 280.125 C 319.515625 279.78125 320.328125 278.59375 322.078125 278.59375 C 323.234375 278.59375 323.765625 279.59375 323.953125 280 C 324.296875 280.8125 324.328125 281.65625 324.328125 282.75 C 324.328125 283.5 324.328125 284.8125 323.828125 285.71875 C 323.296875 286.59375 322.484375 287.15625 321.484375 287.15625 C 319.890625 287.15625 318.640625 286 318.265625 284.71875 C 318.328125 284.71875 318.390625 284.75 318.640625 284.75 C 319.359375 284.75 319.734375 284.21875 319.734375 283.6875 C 319.734375 283.15625 319.359375 282.625 318.640625 282.625 C 318.328125 282.625 317.578125 282.78125 317.578125 283.78125 C 317.578125 285.65625 319.078125 287.75 321.515625 287.75 C 324.046875 287.75 326.265625 285.65625 326.265625 282.90625 Z M 326.265625 282.90625 "/>
<path fill="none" stroke-width="11.9553" stroke-linecap="butt" stroke-linejoin="miter" stroke="rgb(0%, 0%, 0%)" stroke-opacity="1" stroke-miterlimit="10" d="M 409.999994 372.148432 L 409.999994 2077.421844 " transform="matrix(0.2, 0, 0, -0.2, 0, 476)"/>
<path fill-rule="nonzero" fill="rgb(0%, 0%, 0%)" fill-opacity="1" d="M 75.976562 400.875 L 87.976562 400.875 L 87.976562 402.078125 L 75.976562 402.078125 Z M 75.976562 400.875 "/>
<path fill-rule="nonzero" fill="rgb(0%, 0%, 0%)" fill-opacity="1" d="M 75.976562 366.773438 L 87.976562 366.773438 L 87.976562 367.976562 L 75.976562 367.976562 Z M 75.976562 366.773438 "/>
<path fill-rule="nonzero" fill="rgb(0%, 0%, 0%)" fill-opacity="1" d="M 75.976562 332.664062 L 87.976562 332.664062 L 87.976562 333.867188 L 75.976562 333.867188 Z M 75.976562 332.664062 "/>
<path fill-rule="nonzero" fill="rgb(0%, 0%, 0%)" fill-opacity="1" d="M 75.976562 298.5625 L 87.976562 298.5625 L 87.976562 299.765625 L 75.976562 299.765625 Z M 75.976562 298.5625 "/>
<path fill-rule="nonzero" fill="rgb(0%, 0%, 0%)" fill-opacity="1" d="M 75.976562 264.453125 L 87.976562 264.453125 L 87.976562 265.65625 L 75.976562 265.65625 Z M 75.976562 264.453125 "/>
<path fill-rule="nonzero" fill="rgb(0%, 0%, 0%)" fill-opacity="1" d="M 75.976562 230.351562 L 87.976562 230.351562 L 87.976562 231.554688 L 75.976562 231.554688 Z M 75.976562 230.351562 "/>
<path fill-rule="nonzero" fill="rgb(0%, 0%, 0%)" fill-opacity="1" d="M 75.976562 196.242188 L 87.976562 196.242188 L 87.976562 197.445312 L 75.976562 197.445312 Z M 75.976562 196.242188 "/>
<path fill-rule="nonzero" fill="rgb(0%, 0%, 0%)" fill-opacity="1" d="M 75.976562 162.140625 L 87.976562 162.140625 L 87.976562 163.34375 L 75.976562 163.34375 Z M 75.976562 162.140625 "/>
<path fill-rule="nonzero" fill="rgb(0%, 0%, 0%)" fill-opacity="1" d="M 75.976562 128.03125 L 87.976562 128.03125 L 87.976562 129.234375 L 75.976562 129.234375 Z M 75.976562 128.03125 "/>
<path fill-rule="nonzero" fill="rgb(0%, 0%, 0%)" fill-opacity="1" d="M 75.976562 93.929688 L 87.976562 93.929688 L 87.976562 95.132812 L 75.976562 95.132812 Z M 75.976562 93.929688 "/>
<path fill-rule="nonzero" fill="rgb(0%, 0%, 0%)" fill-opacity="1" d="M 75.976562 59.820312 L 87.976562 59.820312 L 87.976562 61.023438 L 75.976562 61.023438 Z M 75.976562 59.820312 "/>
<path fill-rule="nonzero" fill="rgb(0%, 0%, 0%)" fill-opacity="1" d="M 69.636719 224.039062 C 69.636719 223.539062 69.636719 223.476562 69.136719 223.476562 C 67.792969 224.882812 65.855469 224.882812 65.167969 224.882812 L 65.167969 225.539062 C 65.605469 225.539062 66.886719 225.539062 68.042969 224.976562 L 68.042969 236.289062 C 68.042969 237.070312 67.949219 237.320312 66.011719 237.320312 L 65.292969 237.320312 L 65.292969 238.007812 C 66.074219 237.945312 67.949219 237.945312 68.824219 237.945312 C 69.699219 237.945312 71.605469 237.945312 72.355469 238.007812 L 72.355469 237.320312 L 71.667969 237.320312 C 69.699219 237.320312 69.636719 237.101562 69.636719 236.289062 Z M 69.636719 224.039062 "/>
<path fill-rule="nonzero" fill="rgb(0%, 0%, 0%)" fill-opacity="1" d="M 66.011719 202.214844 L 68.324219 199.964844 C 71.730469 196.964844 73.011719 195.777344 73.011719 193.621094 C 73.011719 191.121094 71.074219 189.371094 68.386719 189.371094 C 65.949219 189.371094 64.324219 191.371094 64.324219 193.308594 C 64.324219 194.558594 65.417969 194.558594 65.480469 194.558594 C 65.855469 194.558594 66.605469 194.277344 66.605469 193.402344 C 66.605469 192.808594 66.230469 192.246094 65.449219 192.246094 C 65.292969 192.246094 65.230469 192.246094 65.167969 192.277344 C 65.667969 190.871094 66.855469 190.058594 68.105469 190.058594 C 70.105469 190.058594 71.042969 191.808594 71.042969 193.621094 C 71.042969 195.339844 69.949219 197.089844 68.761719 198.433594 L 64.574219 203.089844 C 64.324219 203.339844 64.324219 203.371094 64.324219 203.902344 L 72.417969 203.902344 L 73.011719 200.121094 L 72.480469 200.121094 C 72.355469 200.746094 72.230469 201.714844 72.011719 202.058594 C 71.855469 202.214844 70.417969 202.214844 69.917969 202.214844 Z M 66.011719 202.214844 "/>
<path fill-rule="nonzero" fill="rgb(0%, 0%, 0%)" fill-opacity="1" d="M 69.542969 162.105469 C 71.355469 161.511719 72.605469 160.011719 72.605469 158.261719 C 72.605469 156.480469 70.699219 155.261719 68.605469 155.261719 C 66.386719 155.261719 64.730469 156.574219 64.730469 158.230469 C 64.730469 158.949219 65.230469 159.355469 65.855469 159.355469 C 66.511719 159.355469 66.949219 158.886719 66.949219 158.261719 C 66.949219 157.167969 65.949219 157.167969 65.605469 157.167969 C 66.292969 156.105469 67.730469 155.824219 68.511719 155.824219 C 69.417969 155.824219 70.605469 156.292969 70.605469 158.261719 C 70.605469 158.511719 70.574219 159.792969 69.980469 160.730469 C 69.324219 161.792969 68.605469 161.855469 68.042969 161.886719 C 67.886719 161.886719 67.355469 161.949219 67.199219 161.949219 C 67.011719 161.949219 66.886719 161.980469 66.886719 162.199219 C 66.886719 162.449219 67.011719 162.449219 67.386719 162.449219 L 68.355469 162.449219 C 70.136719 162.449219 70.949219 163.917969 70.949219 166.074219 C 70.949219 169.042969 69.449219 169.667969 68.480469 169.667969 C 67.542969 169.667969 65.917969 169.292969 65.136719 168.011719 C 65.917969 168.105469 66.574219 167.636719 66.574219 166.792969 C 66.574219 166.011719 66.011719 165.574219 65.355469 165.574219 C 64.855469 165.574219 64.136719 165.886719 64.136719 166.855469 C 64.136719 168.824219 66.167969 170.261719 68.542969 170.261719 C 71.199219 170.261719 73.199219 168.292969 73.199219 166.074219 C 73.199219 164.261719 71.824219 162.574219 69.542969 162.105469 Z M 69.542969 162.105469 "/>
<path fill-rule="nonzero" fill="rgb(0%, 0%, 0%)" fill-opacity="1" d="M 69.636719 132.09375 L 69.636719 134 C 69.636719 134.78125 69.605469 135 67.980469 135 L 67.542969 135 L 67.542969 135.6875 C 68.417969 135.625 69.542969 135.625 70.480469 135.625 C 71.386719 135.625 72.542969 135.625 73.449219 135.6875 L 73.449219 135 L 72.980469 135 C 71.355469 135 71.324219 134.78125 71.324219 134 L 71.324219 132.09375 L 73.511719 132.09375 L 73.511719 131.40625 L 71.324219 131.40625 L 71.324219 121.5 C 71.324219 121.0625 71.324219 120.90625 70.980469 120.90625 C 70.792969 120.90625 70.699219 120.90625 70.542969 121.1875 L 63.855469 131.40625 L 63.855469 132.09375 Z M 69.761719 131.40625 L 64.449219 131.40625 L 69.761719 123.28125 Z M 69.761719 131.40625 "/>
<path fill-rule="nonzero" fill="rgb(0%, 0%, 0%)" fill-opacity="1" d="M 73.011719 97.207031 C 73.011719 94.613281 71.230469 92.425781 68.886719 92.425781 C 67.824219 92.425781 66.886719 92.769531 66.105469 93.519531 L 66.105469 89.269531 C 66.542969 89.425781 67.261719 89.550781 67.949219 89.550781 C 70.636719 89.550781 72.167969 87.582031 72.167969 87.300781 C 72.167969 87.175781 72.105469 87.050781 71.949219 87.050781 C 71.949219 87.050781 71.886719 87.050781 71.792969 87.113281 C 71.355469 87.332031 70.261719 87.738281 68.824219 87.738281 C 67.949219 87.738281 66.949219 87.613281 65.917969 87.144531 C 65.730469 87.082031 65.699219 87.082031 65.636719 87.082031 C 65.417969 87.082031 65.417969 87.238281 65.417969 87.613281 L 65.417969 94.050781 C 65.417969 94.457031 65.417969 94.613281 65.730469 94.613281 C 65.886719 94.613281 65.949219 94.550781 66.011719 94.425781 C 66.261719 94.082031 67.074219 92.894531 68.824219 92.894531 C 69.980469 92.894531 70.511719 93.894531 70.699219 94.300781 C 71.042969 95.113281 71.074219 95.957031 71.074219 97.050781 C 71.074219 97.800781 71.074219 99.113281 70.574219 100.019531 C 70.042969 100.894531 69.230469 101.457031 68.230469 101.457031 C 66.636719 101.457031 65.386719 100.300781 65.011719 99.019531 C 65.074219 99.019531 65.136719 99.050781 65.386719 99.050781 C 66.105469 99.050781 66.480469 98.519531 66.480469 97.988281 C 66.480469 97.457031 66.105469 96.925781 65.386719 96.925781 C 65.074219 96.925781 64.324219 97.082031 64.324219 98.082031 C 64.324219 99.957031 65.824219 102.050781 68.261719 102.050781 C 70.792969 102.050781 73.011719 99.957031 73.011719 97.207031 Z M 73.011719 97.207031 "/>
<path fill-rule="nonzero" fill="rgb(0%, 0%, 0%)" fill-opacity="1" d="M 66.105469 60.320312 L 66.105469 59.789062 C 66.105469 54.289062 68.824219 53.507812 69.917969 53.507812 C 70.449219 53.507812 71.355469 53.632812 71.855469 54.382812 C 71.511719 54.382812 70.636719 54.382812 70.636719 55.351562 C 70.636719 56.039062 71.167969 56.351562 71.636719 56.351562 C 72.011719 56.351562 72.667969 56.164062 72.667969 55.320312 C 72.667969 54.007812 71.699219 52.945312 69.886719 52.945312 C 67.105469 52.945312 64.136719 55.757812 64.136719 60.570312 C 64.136719 66.414062 66.667969 67.945312 68.699219 67.945312 C 71.136719 67.945312 73.199219 65.914062 73.199219 63.039062 C 73.199219 60.257812 71.261719 58.164062 68.824219 58.164062 C 67.355469 58.164062 66.542969 59.289062 66.105469 60.320312 Z M 68.699219 67.351562 C 67.324219 67.351562 66.667969 66.039062 66.542969 65.695312 C 66.167969 64.695312 66.167969 62.945312 66.167969 62.539062 C 66.167969 60.851562 66.855469 58.664062 68.824219 58.664062 C 69.167969 58.664062 70.167969 58.664062 70.855469 60.007812 C 71.230469 60.820312 71.230469 61.945312 71.230469 63.007812 C 71.230469 64.039062 71.230469 65.132812 70.855469 65.914062 C 70.199219 67.226562 69.199219 67.351562 68.699219 67.351562 Z M 68.699219 67.351562 "/>
<path fill-rule="nonzero" fill="rgb(0%, 0%, 0%)" fill-opacity="1" d="M 104.34375 402.78125 C 104.71875 402.78125 105.09375 402.78125 105.09375 402.375 C 105.09375 401.9375 104.71875 401.9375 104.34375 401.9375 L 92.53125 401.9375 C 92.15625 401.9375 91.78125 401.9375 91.78125 402.375 C 91.78125 402.78125 92.15625 402.78125 92.53125 402.78125 Z M 104.34375 402.78125 "/>
<path fill-rule="nonzero" fill="rgb(0%, 0%, 0%)" fill-opacity="1" d="M 113.417969 404.21875 L 113.417969 406.125 C 113.417969 406.90625 113.386719 407.125 111.761719 407.125 L 111.324219 407.125 L 111.324219 407.8125 C 112.199219 407.75 113.324219 407.75 114.261719 407.75 C 115.167969 407.75 116.324219 407.75 117.230469 407.8125 L 117.230469 407.125 L 116.761719 407.125 C 115.136719 407.125 115.105469 406.90625 115.105469 406.125 L 115.105469 404.21875 L 117.292969 404.21875 L 117.292969 403.53125 L 115.105469 403.53125 L 115.105469 393.625 C 115.105469 393.1875 115.105469 393.03125 114.761719 393.03125 C 114.574219 393.03125 114.480469 393.03125 114.324219 393.3125 L 107.636719 403.53125 L 107.636719 404.21875 Z M 113.542969 403.53125 L 108.230469 403.53125 L 113.542969 395.40625 Z M 113.542969 403.53125 "/>
<path fill-rule="nonzero" fill="rgb(0%, 0%, 0%)" fill-opacity="1" d="M 104.34375 368.679688 C 104.71875 368.679688 105.09375 368.679688 105.09375 368.273438 C 105.09375 367.835938 104.71875 367.835938 104.34375 367.835938 L 92.53125 367.835938 C 92.15625 367.835938 91.78125 367.835938 91.78125 368.273438 C 91.78125 368.679688 92.15625 368.679688 92.53125 368.679688 Z M 104.34375 368.679688 "/>
<path fill-rule="nonzero" fill="rgb(0%, 0%, 0%)" fill-opacity="1" d="M 113.324219 366.023438 C 115.136719 365.429688 116.386719 363.929688 116.386719 362.179688 C 116.386719 360.398438 114.480469 359.179688 112.386719 359.179688 C 110.167969 359.179688 108.511719 360.492188 108.511719 362.148438 C 108.511719 362.867188 109.011719 363.273438 109.636719 363.273438 C 110.292969 363.273438 110.730469 362.804688 110.730469 362.179688 C 110.730469 361.085938 109.730469 361.085938 109.386719 361.085938 C 110.074219 360.023438 111.511719 359.742188 112.292969 359.742188 C 113.199219 359.742188 114.386719 360.210938 114.386719 362.179688 C 114.386719 362.429688 114.355469 363.710938 113.761719 364.648438 C 113.105469 365.710938 112.386719 365.773438 111.824219 365.804688 C 111.667969 365.804688 111.136719 365.867188 110.980469 365.867188 C 110.792969 365.867188 110.667969 365.898438 110.667969 366.117188 C 110.667969 366.367188 110.792969 366.367188 111.167969 366.367188 L 112.136719 366.367188 C 113.917969 366.367188 114.730469 367.835938 114.730469 369.992188 C 114.730469 372.960938 113.230469 373.585938 112.261719 373.585938 C 111.324219 373.585938 109.699219 373.210938 108.917969 371.929688 C 109.699219 372.023438 110.355469 371.554688 110.355469 370.710938 C 110.355469 369.929688 109.792969 369.492188 109.136719 369.492188 C 108.636719 369.492188 107.917969 369.804688 107.917969 370.773438 C 107.917969 372.742188 109.949219 374.179688 112.324219 374.179688 C 114.980469 374.179688 116.980469 372.210938 116.980469 369.992188 C 116.980469 368.179688 115.605469 366.492188 113.324219 366.023438 Z M 113.324219 366.023438 "/>
<path fill-rule="nonzero" fill="rgb(0%, 0%, 0%)" fill-opacity="1" d="M 104.34375 334.574219 C 104.71875 334.574219 105.09375 334.574219 105.09375 334.167969 C 105.09375 333.730469 104.71875 333.730469 104.34375 333.730469 L 92.53125 333.730469 C 92.15625 333.730469 91.78125 333.730469 91.78125 334.167969 C 91.78125 334.574219 92.15625 334.574219 92.53125 334.574219 Z M 104.34375 334.574219 "/>
<path fill-rule="nonzero" fill="rgb(0%, 0%, 0%)" fill-opacity="1" d="M 109.792969 337.917969 L 112.105469 335.667969 C 115.511719 332.667969 116.792969 331.480469 116.792969 329.324219 C 116.792969 326.824219 114.855469 325.074219 112.167969 325.074219 C 109.730469 325.074219 108.105469 327.074219 108.105469 329.011719 C 108.105469 330.261719 109.199219 330.261719 109.261719 330.261719 C 109.636719 330.261719 110.386719 329.980469 110.386719 329.105469 C 110.386719 328.511719 110.011719 327.949219 109.230469 327.949219 C 109.074219 327.949219 109.011719 327.949219 108.949219 327.980469 C 109.449219 326.574219 110.636719 325.761719 111.886719 325.761719 C 113.886719 325.761719 114.824219 327.511719 114.824219 329.324219 C 114.824219 331.042969 113.730469 332.792969 112.542969 334.136719 L 108.355469 338.792969 C 108.105469 339.042969 108.105469 339.074219 108.105469 339.605469 L 116.199219 339.605469 L 116.792969 335.824219 L 116.261719 335.824219 C 116.136719 336.449219 116.011719 337.417969 115.792969 337.761719 C 115.636719 337.917969 114.199219 337.917969 113.699219 337.917969 Z M 109.792969 337.917969 "/>
<path fill-rule="nonzero" fill="rgb(0%, 0%, 0%)" fill-opacity="1" d="M 104.34375 300.464844 C 104.71875 300.464844 105.09375 300.464844 105.09375 300.058594 C 105.09375 299.621094 104.71875 299.621094 104.34375 299.621094 L 92.53125 299.621094 C 92.15625 299.621094 91.78125 299.621094 91.78125 300.058594 C 91.78125 300.464844 92.15625 300.464844 92.53125 300.464844 Z M 104.34375 300.464844 "/>
<path fill-rule="nonzero" fill="rgb(0%, 0%, 0%)" fill-opacity="1" d="M 113.417969 291.527344 C 113.417969 291.027344 113.417969 290.964844 112.917969 290.964844 C 111.574219 292.371094 109.636719 292.371094 108.949219 292.371094 L 108.949219 293.027344 C 109.386719 293.027344 110.667969 293.027344 111.824219 292.464844 L 111.824219 303.777344 C 111.824219 304.558594 111.730469 304.808594 109.792969 304.808594 L 109.074219 304.808594 L 109.074219 305.496094 C 109.855469 305.433594 111.730469 305.433594 112.605469 305.433594 C 113.480469 305.433594 115.386719 305.433594 116.136719 305.496094 L 116.136719 304.808594 L 115.449219 304.808594 C 113.480469 304.808594 113.417969 304.589844 113.417969 303.777344 Z M 113.417969 291.527344 "/>
<path fill="none" stroke-width="7.9701" stroke-linecap="butt" stroke-linejoin="miter" stroke="rgb(0%, 0%, 0%)" stroke-opacity="1" stroke-miterlimit="10" d="M 169.999997 1054.257797 L 169.999997 1027.851547 " transform="matrix(0.2, 0, 0, -0.2, 0, 476)"/>
<path fill="none" stroke-width="7.9701" stroke-linecap="butt" stroke-linejoin="miter" stroke="rgb(0%, 0%, 0%)" stroke-opacity="1" stroke-miterlimit="10" d="M 169.999997 975.07811 L 169.999997 948.671861 " transform="matrix(0.2, 0, 0, -0.2, 0, 476)"/>
<path fill="none" stroke-width="7.9701" stroke-linecap="butt" stroke-linejoin="miter" stroke="rgb(0%, 0%, 0%)" stroke-opacity="1" stroke-miterlimit="10" d="M 169.999997 948.671861 L 169.999997 922.304674 " transform="matrix(0.2, 0, 0, -0.2, 0, 476)"/>
<path fill="none" stroke-width="7.9701" stroke-linecap="butt" stroke-linejoin="miter" stroke="rgb(0%, 0%, 0%)" stroke-opacity="1" stroke-miterlimit="10" d="M 169.999997 869.492175 L 169.999997 843.124987 " transform="matrix(0.2, 0, 0, -0.2, 0, 476)"/>
<path fill="none" stroke-width="7.9701" stroke-linecap="butt" stroke-linejoin="miter" stroke="rgb(0%, 0%, 0%)" stroke-opacity="1" stroke-miterlimit="10" d="M 169.999997 843.124987 L 169.999997 816.718738 " transform="matrix(0.2, 0, 0, -0.2, 0, 476)"/>
<path fill="none" stroke-width="7.9701" stroke-linecap="butt" stroke-linejoin="miter" stroke="rgb(0%, 0%, 0%)" stroke-opacity="1" stroke-miterlimit="10" d="M 169.999997 763.945301 L 169.999997 737.539052 " transform="matrix(0.2, 0, 0, -0.2, 0, 476)"/>
<path fill="none" stroke-width="7.9701" stroke-linecap="butt" stroke-linejoin="miter" stroke="rgb(0%, 0%, 0%)" stroke-opacity="1" stroke-miterlimit="10" d="M 169.999997 737.539052 L 169.999997 711.132802 " transform="matrix(0.2, 0, 0, -0.2, 0, 476)"/>
<path fill="none" stroke-width="7.9701" stroke-linecap="butt" stroke-linejoin="miter" stroke="rgb(0%, 0%, 0%)" stroke-opacity="1" stroke-miterlimit="10" d="M 169.999997 658.359365 L 169.999997 631.992178 " transform="matrix(0.2, 0, 0, -0.2, 0, 476)"/>
<path fill="none" stroke-width="7.9701" stroke-linecap="butt" stroke-linejoin="miter" stroke="rgb(0%, 0%, 0%)" stroke-opacity="1" stroke-miterlimit="10" d="M 169.999997 631.992178 L 169.999997 605.585928 " transform="matrix(0.2, 0, 0, -0.2, 0, 476)"/>
<path fill="none" stroke-width="7.9701" stroke-linecap="butt" stroke-linejoin="miter" stroke="rgb(0%, 0%, 0%)" stroke-opacity="1" stroke-miterlimit="10" d="M 169.999997 552.812492 L 169.999997 526.406242 " transform="matrix(0.2, 0, 0, -0.2, 0, 476)"/>
<path fill="none" stroke-width="7.9701" stroke-linecap="butt" stroke-linejoin="miter" stroke="rgb(0%, 0%, 0%)" stroke-opacity="1" stroke-miterlimit="10" d="M 169.999997 526.406242 L 169.999997 500.039055 " transform="matrix(0.2, 0, 0, -0.2, 0, 476)"/>
<path fill="none" stroke-width="7.9701" stroke-linecap="butt" stroke-linejoin="miter" stroke="rgb(0%, 0%, 0%)" stroke-opacity="1" stroke-miterlimit="10" d="M 169.999997 447.226556 L 169.999997 420.859369 " transform="matrix(0.2, 0, 0, -0.2, 0, 476)"/>
<path fill="none" stroke-width="7.9701" stroke-linecap="butt" stroke-linejoin="miter" stroke="rgb(0%, 0%, 0%)" stroke-opacity="1" stroke-miterlimit="10" d="M 169.999997 420.859369 L 169.999997 394.453119 " transform="matrix(0.2, 0, 0, -0.2, 0, 476)"/>
<path fill="none" stroke-width="7.9701" stroke-linecap="butt" stroke-linejoin="miter" stroke="rgb(0%, 0%, 0%)" stroke-opacity="1" stroke-miterlimit="10" d="M 169.999997 341.679682 L 169.999997 315.273433 " transform="matrix(0.2, 0, 0, -0.2, 0, 476)"/>
<path fill="none" stroke-width="7.9701" stroke-linecap="butt" stroke-linejoin="miter" stroke="rgb(0%, 0%, 0%)" stroke-opacity="1" stroke-miterlimit="10" d="M 169.999997 315.273433 L 189.999997 315.273433 " transform="matrix(0.2, 0, 0, -0.2, 0, 476)"/>
<path fill="none" stroke-width="7.9701" stroke-linecap="butt" stroke-linejoin="miter" stroke="rgb(0%, 0%, 0%)" stroke-opacity="1" stroke-miterlimit="10" d="M 229.999997 315.273433 L 249.999996 315.273433 " transform="matrix(0.2, 0, 0, -0.2, 0, 476)"/>
<path fill="none" stroke-width="7.9701" stroke-linecap="butt" stroke-linejoin="miter" stroke="rgb(0%, 0%, 0%)" stroke-opacity="1" stroke-miterlimit="10" d="M 249.999996 315.273433 L 269.999996 315.273433 " transform="matrix(0.2, 0, 0, -0.2, 0, 476)"/>
<path fill="none" stroke-width="7.9701" stroke-linecap="butt" stroke-linejoin="miter" stroke="rgb(0%, 0%, 0%)" stroke-opacity="1" stroke-miterlimit="10" d="M 309.999995 315.273433 L 329.999995 315.273433 " transform="matrix(0.2, 0, 0, -0.2, 0, 476)"/>
<path fill="none" stroke-width="7.9701" stroke-linecap="butt" stroke-linejoin="miter" stroke="rgb(0%, 0%, 0%)" stroke-opacity="1" stroke-miterlimit="10" d="M 329.999995 315.273433 L 349.999995 315.273433 " transform="matrix(0.2, 0, 0, -0.2, 0, 476)"/>
<path fill="none" stroke-width="7.9701" stroke-linecap="butt" stroke-linejoin="miter" stroke="rgb(0%, 0%, 0%)" stroke-opacity="1" stroke-miterlimit="10" d="M 389.999994 315.273433 L 409.999994 315.273433 " transform="matrix(0.2, 0, 0, -0.2, 0, 476)"/>
<path fill="none" stroke-width="7.9701" stroke-linecap="butt" stroke-linejoin="miter" stroke="rgb(0%, 0%, 0%)" stroke-opacity="1" stroke-miterlimit="10" d="M 409.999994 1054.257797 L 409.999994 1075.546859 " transform="matrix(0.2, 0, 0, -0.2, 0, 476)"/>
<path fill="none" stroke-width="7.9701" stroke-linecap="butt" stroke-linejoin="miter" stroke="rgb(0%, 0%, 0%)" stroke-opacity="1" stroke-miterlimit="10" d="M 409.999994 1118.203108 L 409.999994 1139.492171 " transform="matrix(0.2, 0, 0, -0.2, 0, 476)"/>
<path fill="none" stroke-width="7.9701" stroke-linecap="butt" stroke-linejoin="miter" stroke="rgb(0%, 0%, 0%)" stroke-opacity="1" stroke-miterlimit="10" d="M 409.999994 1139.492171 L 409.999994 1160.820295 " transform="matrix(0.2, 0, 0, -0.2, 0, 476)"/>
<path fill="none" stroke-width="7.9701" stroke-linecap="butt" stroke-linejoin="miter" stroke="rgb(0%, 0%, 0%)" stroke-opacity="1" stroke-miterlimit="10" d="M 409.999994 1203.476545 L 409.999994 1224.765607 " transform="matrix(0.2, 0, 0, -0.2, 0, 476)"/>
<path fill="none" stroke-width="7.9701" stroke-linecap="butt" stroke-linejoin="miter" stroke="rgb(0%, 0%, 0%)" stroke-opacity="1" stroke-miterlimit="10" d="M 649.99999 1054.257797 L 649.99999 1079.101546 " transform="matrix(0.2, 0, 0, -0.2, 0, 476)"/>
<path fill="none" stroke-width="7.9701" stroke-linecap="butt" stroke-linejoin="miter" stroke="rgb(0%, 0%, 0%)" stroke-opacity="1" stroke-miterlimit="10" d="M 649.99999 1128.867171 L 649.99999 1153.71092 " transform="matrix(0.2, 0, 0, -0.2, 0, 476)"/>
<path fill="none" stroke-width="7.9701" stroke-linecap="butt" stroke-linejoin="miter" stroke="rgb(0%, 0%, 0%)" stroke-opacity="1" stroke-miterlimit="10" d="M 649.99999 1153.71092 L 649.99999 1178.593732 " transform="matrix(0.2, 0, 0, -0.2, 0, 476)"/>
<path fill="none" stroke-width="7.9701" stroke-linecap="butt" stroke-linejoin="miter" stroke="rgb(0%, 0%, 0%)" stroke-opacity="1" stroke-miterlimit="10" d="M 649.99999 1228.320294 L 649.99999 1253.203106 " transform="matrix(0.2, 0, 0, -0.2, 0, 476)"/>
<path fill="none" stroke-width="7.9701" stroke-linecap="butt" stroke-linejoin="miter" stroke="rgb(0%, 0%, 0%)" stroke-opacity="1" stroke-miterlimit="10" d="M 649.99999 1253.203106 L 649.99999 1278.085918 " transform="matrix(0.2, 0, 0, -0.2, 0, 476)"/>
<path fill="none" stroke-width="7.9701" stroke-linecap="butt" stroke-linejoin="miter" stroke="rgb(0%, 0%, 0%)" stroke-opacity="1" stroke-miterlimit="10" d="M 649.99999 1327.773418 L 649.99999 1352.65623 " transform="matrix(0.2, 0, 0, -0.2, 0, 476)"/>
<path fill="none" stroke-width="7.9701" stroke-linecap="butt" stroke-linejoin="miter" stroke="rgb(0%, 0%, 0%)" stroke-opacity="1" stroke-miterlimit="10" d="M 649.99999 1352.65623 L 649.99999 1377.539042 " transform="matrix(0.2, 0, 0, -0.2, 0, 476)"/>
<path fill="none" stroke-width="7.9701" stroke-linecap="butt" stroke-linejoin="miter" stroke="rgb(0%, 0%, 0%)" stroke-opacity="1" stroke-miterlimit="10" d="M 649.99999 1427.265604 L 649.99999 1452.148416 " transform="matrix(0.2, 0, 0, -0.2, 0, 476)"/>
<path fill="none" stroke-width="7.9701" stroke-linecap="butt" stroke-linejoin="miter" stroke="rgb(0%, 0%, 0%)" stroke-opacity="1" stroke-miterlimit="10" d="M 889.999987 1054.257797 L 889.999987 1077.929671 " transform="matrix(0.2, 0, 0, -0.2, 0, 476)"/>
<path fill="none" stroke-width="7.9701" stroke-linecap="butt" stroke-linejoin="miter" stroke="rgb(0%, 0%, 0%)" stroke-opacity="1" stroke-miterlimit="10" d="M 889.999987 1125.273421 L 889.999987 1148.984358 " transform="matrix(0.2, 0, 0, -0.2, 0, 476)"/>
<path fill="none" stroke-width="7.9701" stroke-linecap="butt" stroke-linejoin="miter" stroke="rgb(0%, 0%, 0%)" stroke-opacity="1" stroke-miterlimit="10" d="M 889.999987 1148.984358 L 889.999987 1172.656233 " transform="matrix(0.2, 0, 0, -0.2, 0, 476)"/>
<path fill="none" stroke-width="7.9701" stroke-linecap="butt" stroke-linejoin="miter" stroke="rgb(0%, 0%, 0%)" stroke-opacity="1" stroke-miterlimit="10" d="M 889.999987 1220.039044 L 889.999987 1243.710919 " transform="matrix(0.2, 0, 0, -0.2, 0, 476)"/>
<path fill="none" stroke-width="7.9701" stroke-linecap="butt" stroke-linejoin="miter" stroke="rgb(0%, 0%, 0%)" stroke-opacity="1" stroke-miterlimit="10" d="M 889.999987 1243.710919 L 889.999987 1267.382794 " transform="matrix(0.2, 0, 0, -0.2, 0, 476)"/>
<path fill="none" stroke-width="7.9701" stroke-linecap="butt" stroke-linejoin="miter" stroke="rgb(0%, 0%, 0%)" stroke-opacity="1" stroke-miterlimit="10" d="M 889.999987 1314.765605 L 889.999987 1338.476543 " transform="matrix(0.2, 0, 0, -0.2, 0, 476)"/>
<path fill="none" stroke-width="7.9701" stroke-linecap="butt" stroke-linejoin="miter" stroke="rgb(0%, 0%, 0%)" stroke-opacity="1" stroke-miterlimit="10" d="M 889.999987 1338.476543 L 866.015612 1338.476543 " transform="matrix(0.2, 0, 0, -0.2, 0, 476)"/>
<path fill="none" stroke-width="7.9701" stroke-linecap="butt" stroke-linejoin="miter" stroke="rgb(0%, 0%, 0%)" stroke-opacity="1" stroke-miterlimit="10" d="M 818.0078 1338.476543 L 794.023426 1338.476543 " transform="matrix(0.2, 0, 0, -0.2, 0, 476)"/>
<path fill="none" stroke-width="7.9701" stroke-linecap="butt" stroke-linejoin="miter" stroke="rgb(0%, 0%, 0%)" stroke-opacity="1" stroke-miterlimit="10" d="M 794.023426 1338.476543 L 769.999989 1338.476543 " transform="matrix(0.2, 0, 0, -0.2, 0, 476)"/>
<path fill="none" stroke-width="7.9701" stroke-linecap="butt" stroke-linejoin="miter" stroke="rgb(0%, 0%, 0%)" stroke-opacity="1" stroke-miterlimit="10" d="M 721.992177 1338.476543 L 698.007802 1338.476543 " transform="matrix(0.2, 0, 0, -0.2, 0, 476)"/>
<path fill="none" stroke-width="7.9701" stroke-linecap="butt" stroke-linejoin="miter" stroke="rgb(0%, 0%, 0%)" stroke-opacity="1" stroke-miterlimit="10" d="M 698.007802 1338.476543 L 674.023427 1338.476543 " transform="matrix(0.2, 0, 0, -0.2, 0, 476)"/>
<path fill="none" stroke-width="7.9701" stroke-linecap="butt" stroke-linejoin="miter" stroke="rgb(0%, 0%, 0%)" stroke-opacity="1" stroke-miterlimit="10" d="M 626.015616 1338.476543 L 601.992179 1338.476543 " transform="matrix(0.2, 0, 0, -0.2, 0, 476)"/>
<path fill="none" stroke-width="7.9701" stroke-linecap="butt" stroke-linejoin="miter" stroke="rgb(0%, 0%, 0%)" stroke-opacity="1" stroke-miterlimit="10" d="M 601.992179 1338.476543 L 578.007804 1338.476543 " transform="matrix(0.2, 0, 0, -0.2, 0, 476)"/>
<path fill="none" stroke-width="7.9701" stroke-linecap="butt" stroke-linejoin="miter" stroke="rgb(0%, 0%, 0%)" stroke-opacity="1" stroke-miterlimit="10" d="M 529.999992 1338.476543 L 506.015617 1338.476543 " transform="matrix(0.2, 0, 0, -0.2, 0, 476)"/>
<path fill="none" stroke-width="7.9701" stroke-linecap="butt" stroke-linejoin="miter" stroke="rgb(0%, 0%, 0%)" stroke-opacity="1" stroke-miterlimit="10" d="M 506.015617 1338.476543 L 481.99218 1338.476543 " transform="matrix(0.2, 0, 0, -0.2, 0, 476)"/>
<path fill="none" stroke-width="7.9701" stroke-linecap="butt" stroke-linejoin="miter" stroke="rgb(0%, 0%, 0%)" stroke-opacity="1" stroke-miterlimit="10" d="M 434.023431 1338.476543 L 409.999994 1338.476543 " transform="matrix(0.2, 0, 0, -0.2, 0, 476)"/>
<path fill="none" stroke-width="7.9701" stroke-linecap="butt" stroke-linejoin="miter" stroke="rgb(0%, 0%, 0%)" stroke-opacity="1" stroke-miterlimit="10" d="M 1130.039046 1054.257797 L 1130.039046 1075.546859 " transform="matrix(0.2, 0, 0, -0.2, 0, 476)"/>
<path fill="none" stroke-width="7.9701" stroke-linecap="butt" stroke-linejoin="miter" stroke="rgb(0%, 0%, 0%)" stroke-opacity="1" stroke-miterlimit="10" d="M 1130.039046 1118.203108 L 1130.039046 1139.492171 " transform="matrix(0.2, 0, 0, -0.2, 0, 476)"/>
<path fill="none" stroke-width="7.9701" stroke-linecap="butt" stroke-linejoin="miter" stroke="rgb(0%, 0%, 0%)" stroke-opacity="1" stroke-miterlimit="10" d="M 1130.039046 1139.492171 L 1130.039046 1160.820295 " transform="matrix(0.2, 0, 0, -0.2, 0, 476)"/>
<path fill="none" stroke-width="7.9701" stroke-linecap="butt" stroke-linejoin="miter" stroke="rgb(0%, 0%, 0%)" stroke-opacity="1" stroke-miterlimit="10" d="M 1130.039046 1203.476545 L 1130.039046 1224.765607 " transform="matrix(0.2, 0, 0, -0.2, 0, 476)"/>
<path fill="none" stroke-width="7.9701" stroke-linecap="butt" stroke-linejoin="miter" stroke="rgb(0%, 0%, 0%)" stroke-opacity="1" stroke-miterlimit="10" d="M 1130.039046 1224.765607 L 1104.296859 1224.765607 " transform="matrix(0.2, 0, 0, -0.2, 0, 476)"/>
<path fill="none" stroke-width="7.9701" stroke-linecap="butt" stroke-linejoin="miter" stroke="rgb(0%, 0%, 0%)" stroke-opacity="1" stroke-miterlimit="10" d="M 1052.851547 1224.765607 L 1027.148422 1224.765607 " transform="matrix(0.2, 0, 0, -0.2, 0, 476)"/>
<path fill="none" stroke-width="7.9701" stroke-linecap="butt" stroke-linejoin="miter" stroke="rgb(0%, 0%, 0%)" stroke-opacity="1" stroke-miterlimit="10" d="M 1027.148422 1224.765607 L 1001.445298 1224.765607 " transform="matrix(0.2, 0, 0, -0.2, 0, 476)"/>
<path fill="none" stroke-width="7.9701" stroke-linecap="butt" stroke-linejoin="miter" stroke="rgb(0%, 0%, 0%)" stroke-opacity="1" stroke-miterlimit="10" d="M 949.999986 1224.765607 L 924.296861 1224.765607 " transform="matrix(0.2, 0, 0, -0.2, 0, 476)"/>
<path fill="none" stroke-width="7.9701" stroke-linecap="butt" stroke-linejoin="miter" stroke="rgb(0%, 0%, 0%)" stroke-opacity="1" stroke-miterlimit="10" d="M 924.296861 1224.765607 L 898.593737 1224.765607 " transform="matrix(0.2, 0, 0, -0.2, 0, 476)"/>
<path fill="none" stroke-width="7.9701" stroke-linecap="butt" stroke-linejoin="miter" stroke="rgb(0%, 0%, 0%)" stroke-opacity="1" stroke-miterlimit="10" d="M 847.148425 1224.765607 L 821.4453 1224.765607 " transform="matrix(0.2, 0, 0, -0.2, 0, 476)"/>
<path fill="none" stroke-width="7.9701" stroke-linecap="butt" stroke-linejoin="miter" stroke="rgb(0%, 0%, 0%)" stroke-opacity="1" stroke-miterlimit="10" d="M 821.4453 1224.765607 L 795.703113 1224.765607 " transform="matrix(0.2, 0, 0, -0.2, 0, 476)"/>
<path fill="none" stroke-width="7.9701" stroke-linecap="butt" stroke-linejoin="miter" stroke="rgb(0%, 0%, 0%)" stroke-opacity="1" stroke-miterlimit="10" d="M 744.296864 1224.765607 L 718.593739 1224.765607 " transform="matrix(0.2, 0, 0, -0.2, 0, 476)"/>
<path fill="none" stroke-width="7.9701" stroke-linecap="butt" stroke-linejoin="miter" stroke="rgb(0%, 0%, 0%)" stroke-opacity="1" stroke-miterlimit="10" d="M 718.593739 1224.765607 L 692.851552 1224.765607 " transform="matrix(0.2, 0, 0, -0.2, 0, 476)"/>
<path fill="none" stroke-width="7.9701" stroke-linecap="butt" stroke-linejoin="miter" stroke="rgb(0%, 0%, 0%)" stroke-opacity="1" stroke-miterlimit="10" d="M 641.445303 1224.765607 L 615.742178 1224.765607 " transform="matrix(0.2, 0, 0, -0.2, 0, 476)"/>
<path fill="none" stroke-width="7.9701" stroke-linecap="butt" stroke-linejoin="miter" stroke="rgb(0%, 0%, 0%)" stroke-opacity="1" stroke-miterlimit="10" d="M 615.742178 1224.765607 L 589.999991 1224.765607 " transform="matrix(0.2, 0, 0, -0.2, 0, 476)"/>
<path fill="none" stroke-width="7.9701" stroke-linecap="butt" stroke-linejoin="miter" stroke="rgb(0%, 0%, 0%)" stroke-opacity="1" stroke-miterlimit="10" d="M 538.593742 1224.765607 L 512.851555 1224.765607 " transform="matrix(0.2, 0, 0, -0.2, 0, 476)"/>
<path fill="none" stroke-width="7.9701" stroke-linecap="butt" stroke-linejoin="miter" stroke="rgb(0%, 0%, 0%)" stroke-opacity="1" stroke-miterlimit="10" d="M 512.851555 1224.765607 L 487.14843 1224.765607 " transform="matrix(0.2, 0, 0, -0.2, 0, 476)"/>
<path fill="none" stroke-width="7.9701" stroke-linecap="butt" stroke-linejoin="miter" stroke="rgb(0%, 0%, 0%)" stroke-opacity="1" stroke-miterlimit="10" d="M 435.742181 1224.765607 L 409.999994 1224.765607 " transform="matrix(0.2, 0, 0, -0.2, 0, 476)"/>
<path fill="none" stroke-width="7.9701" stroke-linecap="butt" stroke-linejoin="miter" stroke="rgb(0%, 0%, 0%)" stroke-opacity="1" stroke-miterlimit="10" d="M 1369.99998 1054.257797 L 1369.99998 1079.101546 " transform="matrix(0.2, 0, 0, -0.2, 0, 476)"/>
<path fill="none" stroke-width="7.9701" stroke-linecap="butt" stroke-linejoin="miter" stroke="rgb(0%, 0%, 0%)" stroke-opacity="1" stroke-miterlimit="10" d="M 1369.99998 1128.867171 L 1369.99998 1153.71092 " transform="matrix(0.2, 0, 0, -0.2, 0, 476)"/>
<path fill="none" stroke-width="7.9701" stroke-linecap="butt" stroke-linejoin="miter" stroke="rgb(0%, 0%, 0%)" stroke-opacity="1" stroke-miterlimit="10" d="M 1369.99998 1153.71092 L 1369.99998 1178.593732 " transform="matrix(0.2, 0, 0, -0.2, 0, 476)"/>
<path fill="none" stroke-width="7.9701" stroke-linecap="butt" stroke-linejoin="miter" stroke="rgb(0%, 0%, 0%)" stroke-opacity="1" stroke-miterlimit="10" d="M 1369.99998 1228.320294 L 1369.99998 1253.203106 " transform="matrix(0.2, 0, 0, -0.2, 0, 476)"/>
<path fill="none" stroke-width="7.9701" stroke-linecap="butt" stroke-linejoin="miter" stroke="rgb(0%, 0%, 0%)" stroke-opacity="1" stroke-miterlimit="10" d="M 1369.99998 1253.203106 L 1369.99998 1278.085918 " transform="matrix(0.2, 0, 0, -0.2, 0, 476)"/>
<path fill="none" stroke-width="7.9701" stroke-linecap="butt" stroke-linejoin="miter" stroke="rgb(0%, 0%, 0%)" stroke-opacity="1" stroke-miterlimit="10" d="M 1369.99998 1327.773418 L 1369.99998 1352.65623 " transform="matrix(0.2, 0, 0, -0.2, 0, 476)"/>
<path fill="none" stroke-width="7.9701" stroke-linecap="butt" stroke-linejoin="miter" stroke="rgb(0%, 0%, 0%)" stroke-opacity="1" stroke-miterlimit="10" d="M 1369.99998 1352.65623 L 1369.99998 1377.539042 " transform="matrix(0.2, 0, 0, -0.2, 0, 476)"/>
<path fill="none" stroke-width="7.9701" stroke-linecap="butt" stroke-linejoin="miter" stroke="rgb(0%, 0%, 0%)" stroke-opacity="1" stroke-miterlimit="10" d="M 1369.99998 1427.265604 L 1369.99998 1452.148416 " transform="matrix(0.2, 0, 0, -0.2, 0, 476)"/>
<path fill="none" stroke-width="7.9701" stroke-linecap="butt" stroke-linejoin="miter" stroke="rgb(0%, 0%, 0%)" stroke-opacity="1" stroke-miterlimit="10" d="M 1369.99998 1452.148416 L 1343.359355 1452.148416 " transform="matrix(0.2, 0, 0, -0.2, 0, 476)"/>
<path fill="none" stroke-width="7.9701" stroke-linecap="butt" stroke-linejoin="miter" stroke="rgb(0%, 0%, 0%)" stroke-opacity="1" stroke-miterlimit="10" d="M 1289.999981 1452.148416 L 1263.359356 1452.148416 " transform="matrix(0.2, 0, 0, -0.2, 0, 476)"/>
<path fill="none" stroke-width="7.9701" stroke-linecap="butt" stroke-linejoin="miter" stroke="rgb(0%, 0%, 0%)" stroke-opacity="1" stroke-miterlimit="10" d="M 1263.359356 1452.148416 L 1236.679669 1452.148416 " transform="matrix(0.2, 0, 0, -0.2, 0, 476)"/>
<path fill="none" stroke-width="7.9701" stroke-linecap="butt" stroke-linejoin="miter" stroke="rgb(0%, 0%, 0%)" stroke-opacity="1" stroke-miterlimit="10" d="M 1183.359357 1452.148416 L 1156.67967 1452.148416 " transform="matrix(0.2, 0, 0, -0.2, 0, 476)"/>
<path fill="none" stroke-width="7.9701" stroke-linecap="butt" stroke-linejoin="miter" stroke="rgb(0%, 0%, 0%)" stroke-opacity="1" stroke-miterlimit="10" d="M 1156.67967 1452.148416 L 1130.039046 1452.148416 " transform="matrix(0.2, 0, 0, -0.2, 0, 476)"/>
<path fill="none" stroke-width="7.9701" stroke-linecap="butt" stroke-linejoin="miter" stroke="rgb(0%, 0%, 0%)" stroke-opacity="1" stroke-miterlimit="10" d="M 1076.679671 1452.148416 L 1049.999984 1452.148416 " transform="matrix(0.2, 0, 0, -0.2, 0, 476)"/>
<path fill="none" stroke-width="7.9701" stroke-linecap="butt" stroke-linejoin="miter" stroke="rgb(0%, 0%, 0%)" stroke-opacity="1" stroke-miterlimit="10" d="M 1049.999984 1452.148416 L 1023.35936 1452.148416 " transform="matrix(0.2, 0, 0, -0.2, 0, 476)"/>
<path fill="none" stroke-width="7.9701" stroke-linecap="butt" stroke-linejoin="miter" stroke="rgb(0%, 0%, 0%)" stroke-opacity="1" stroke-miterlimit="10" d="M 970.039048 1452.148416 L 943.359361 1452.148416 " transform="matrix(0.2, 0, 0, -0.2, 0, 476)"/>
<path fill="none" stroke-width="7.9701" stroke-linecap="butt" stroke-linejoin="miter" stroke="rgb(0%, 0%, 0%)" stroke-opacity="1" stroke-miterlimit="10" d="M 943.359361 1452.148416 L 916.679674 1452.148416 " transform="matrix(0.2, 0, 0, -0.2, 0, 476)"/>
<path fill="none" stroke-width="7.9701" stroke-linecap="butt" stroke-linejoin="miter" stroke="rgb(0%, 0%, 0%)" stroke-opacity="1" stroke-miterlimit="10" d="M 863.359362 1452.148416 L 836.679675 1452.148416 " transform="matrix(0.2, 0, 0, -0.2, 0, 476)"/>
<path fill="none" stroke-width="7.9701" stroke-linecap="butt" stroke-linejoin="miter" stroke="rgb(0%, 0%, 0%)" stroke-opacity="1" stroke-miterlimit="10" d="M 836.679675 1452.148416 L 809.999988 1452.148416 " transform="matrix(0.2, 0, 0, -0.2, 0, 476)"/>
<path fill="none" stroke-width="7.9701" stroke-linecap="butt" stroke-linejoin="miter" stroke="rgb(0%, 0%, 0%)" stroke-opacity="1" stroke-miterlimit="10" d="M 756.679676 1452.148416 L 729.999989 1452.148416 " transform="matrix(0.2, 0, 0, -0.2, 0, 476)"/>
<path fill="none" stroke-width="7.9701" stroke-linecap="butt" stroke-linejoin="miter" stroke="rgb(0%, 0%, 0%)" stroke-opacity="1" stroke-miterlimit="10" d="M 729.999989 1452.148416 L 703.359365 1452.148416 " transform="matrix(0.2, 0, 0, -0.2, 0, 476)"/>
<path fill="none" stroke-width="7.9701" stroke-linecap="butt" stroke-linejoin="miter" stroke="rgb(0%, 0%, 0%)" stroke-opacity="1" stroke-miterlimit="10" d="M 649.99999 1452.148416 L 623.359366 1452.148416 " transform="matrix(0.2, 0, 0, -0.2, 0, 476)"/>
<path fill="none" stroke-width="7.9701" stroke-linecap="butt" stroke-linejoin="miter" stroke="rgb(0%, 0%, 0%)" stroke-opacity="1" stroke-miterlimit="10" d="M 623.359366 1452.148416 L 596.679679 1452.148416 " transform="matrix(0.2, 0, 0, -0.2, 0, 476)"/>
<path fill="none" stroke-width="7.9701" stroke-linecap="butt" stroke-linejoin="miter" stroke="rgb(0%, 0%, 0%)" stroke-opacity="1" stroke-miterlimit="10" d="M 543.320304 1452.148416 L 516.67968 1452.148416 " transform="matrix(0.2, 0, 0, -0.2, 0, 476)"/>
<path fill="none" stroke-width="7.9701" stroke-linecap="butt" stroke-linejoin="miter" stroke="rgb(0%, 0%, 0%)" stroke-opacity="1" stroke-miterlimit="10" d="M 516.67968 1452.148416 L 489.999993 1452.148416 " transform="matrix(0.2, 0, 0, -0.2, 0, 476)"/>
<path fill="none" stroke-width="7.9701" stroke-linecap="butt" stroke-linejoin="miter" stroke="rgb(0%, 0%, 0%)" stroke-opacity="1" stroke-miterlimit="10" d="M 436.679681 1452.148416 L 409.999994 1452.148416 " transform="matrix(0.2, 0, 0, -0.2, 0, 476)"/>
<path fill="none" stroke-width="7.9701" stroke-linecap="butt" stroke-linejoin="miter" stroke="rgb(0%, 0%, 0%)" stroke-opacity="1" stroke-miterlimit="10" d="M 1610.039039 1054.257797 L 1610.039039 1083.945296 " transform="matrix(0.2, 0, 0, -0.2, 0, 476)"/>
<path fill="none" stroke-width="7.9701" stroke-linecap="butt" stroke-linejoin="miter" stroke="rgb(0%, 0%, 0%)" stroke-opacity="1" stroke-miterlimit="10" d="M 1610.039039 1143.39842 L 1610.039039 1173.08592 " transform="matrix(0.2, 0, 0, -0.2, 0, 476)"/>
<path fill="none" stroke-width="7.9701" stroke-linecap="butt" stroke-linejoin="miter" stroke="rgb(0%, 0%, 0%)" stroke-opacity="1" stroke-miterlimit="10" d="M 1610.039039 1173.08592 L 1610.039039 1202.812482 " transform="matrix(0.2, 0, 0, -0.2, 0, 476)"/>
<path fill="none" stroke-width="7.9701" stroke-linecap="butt" stroke-linejoin="miter" stroke="rgb(0%, 0%, 0%)" stroke-opacity="1" stroke-miterlimit="10" d="M 1610.039039 1262.226544 L 1610.039039 1291.953106 " transform="matrix(0.2, 0, 0, -0.2, 0, 476)"/>
<path fill="none" stroke-width="7.9701" stroke-linecap="butt" stroke-linejoin="miter" stroke="rgb(0%, 0%, 0%)" stroke-opacity="1" stroke-miterlimit="10" d="M 1610.039039 1291.953106 L 1610.039039 1321.640605 " transform="matrix(0.2, 0, 0, -0.2, 0, 476)"/>
<path fill="none" stroke-width="7.9701" stroke-linecap="butt" stroke-linejoin="miter" stroke="rgb(0%, 0%, 0%)" stroke-opacity="1" stroke-miterlimit="10" d="M 1610.039039 1381.093729 L 1610.039039 1410.781229 " transform="matrix(0.2, 0, 0, -0.2, 0, 476)"/>
<path fill="none" stroke-width="7.9701" stroke-linecap="butt" stroke-linejoin="miter" stroke="rgb(0%, 0%, 0%)" stroke-opacity="1" stroke-miterlimit="10" d="M 1610.039039 1410.781229 L 1610.039039 1440.507791 " transform="matrix(0.2, 0, 0, -0.2, 0, 476)"/>
<path fill="none" stroke-width="7.9701" stroke-linecap="butt" stroke-linejoin="miter" stroke="rgb(0%, 0%, 0%)" stroke-opacity="1" stroke-miterlimit="10" d="M 1610.039039 1499.921853 L 1610.039039 1529.648415 " transform="matrix(0.2, 0, 0, -0.2, 0, 476)"/>
<path fill="none" stroke-width="7.9701" stroke-linecap="butt" stroke-linejoin="miter" stroke="rgb(0%, 0%, 0%)" stroke-opacity="1" stroke-miterlimit="10" d="M 1610.039039 1529.648415 L 1610.039039 1559.374977 " transform="matrix(0.2, 0, 0, -0.2, 0, 476)"/>
<path fill="none" stroke-width="7.9701" stroke-linecap="butt" stroke-linejoin="miter" stroke="rgb(0%, 0%, 0%)" stroke-opacity="1" stroke-miterlimit="10" d="M 1610.039039 1618.789038 L 1610.039039 1648.5156 " transform="matrix(0.2, 0, 0, -0.2, 0, 476)"/>
<path fill="none" stroke-width="7.9701" stroke-linecap="butt" stroke-linejoin="miter" stroke="rgb(0%, 0%, 0%)" stroke-opacity="1" stroke-miterlimit="10" d="M 1610.039039 1648.5156 L 1610.039039 1678.242162 " transform="matrix(0.2, 0, 0, -0.2, 0, 476)"/>
<path fill="none" stroke-width="7.9701" stroke-linecap="butt" stroke-linejoin="miter" stroke="rgb(0%, 0%, 0%)" stroke-opacity="1" stroke-miterlimit="10" d="M 1610.039039 1737.656224 L 1610.039039 1767.343724 " transform="matrix(0.2, 0, 0, -0.2, 0, 476)"/>
<path fill="none" stroke-width="7.9701" stroke-linecap="butt" stroke-linejoin="miter" stroke="rgb(0%, 0%, 0%)" stroke-opacity="1" stroke-miterlimit="10" d="M 1610.039039 1767.343724 L 1610.039039 1797.070286 " transform="matrix(0.2, 0, 0, -0.2, 0, 476)"/>
<path fill="none" stroke-width="7.9701" stroke-linecap="butt" stroke-linejoin="miter" stroke="rgb(0%, 0%, 0%)" stroke-opacity="1" stroke-miterlimit="10" d="M 1610.039039 1856.484347 L 1610.039039 1886.210909 " transform="matrix(0.2, 0, 0, -0.2, 0, 476)"/>
<path fill="none" stroke-width="7.9701" stroke-linecap="butt" stroke-linejoin="miter" stroke="rgb(0%, 0%, 0%)" stroke-opacity="1" stroke-miterlimit="10" d="M 1610.039039 1886.210909 L 1610.039039 1915.937471 " transform="matrix(0.2, 0, 0, -0.2, 0, 476)"/>
<path fill="none" stroke-width="7.9701" stroke-linecap="butt" stroke-linejoin="miter" stroke="rgb(0%, 0%, 0%)" stroke-opacity="1" stroke-miterlimit="10" d="M 1610.039039 1975.351533 L 1610.039039 2005.078095 " transform="matrix(0.2, 0, 0, -0.2, 0, 476)"/>
<path fill="none" stroke-width="7.9701" stroke-linecap="butt" stroke-linejoin="miter" stroke="rgb(0%, 0%, 0%)" stroke-opacity="1" stroke-miterlimit="10" d="M 1610.039039 2005.078095 L 1610.039039 2034.765595 " transform="matrix(0.2, 0, 0, -0.2, 0, 476)"/>
<path fill="none" stroke-width="7.9701" stroke-linecap="butt" stroke-linejoin="miter" stroke="rgb(0%, 0%, 0%)" stroke-opacity="1" stroke-miterlimit="10" d="M 1610.039039 2094.218719 L 1610.039039 2123.945281 " transform="matrix(0.2, 0, 0, -0.2, 0, 476)"/>
<path fill="none" stroke-width="7.9701" stroke-linecap="butt" stroke-linejoin="miter" stroke="rgb(0%, 0%, 0%)" stroke-opacity="1" stroke-miterlimit="10" d="M 1610.039039 2123.945281 L 1610.039039 2153.63278 " transform="matrix(0.2, 0, 0, -0.2, 0, 476)"/>
<path fill="none" stroke-width="7.9701" stroke-linecap="butt" stroke-linejoin="miter" stroke="rgb(0%, 0%, 0%)" stroke-opacity="1" stroke-miterlimit="10" d="M 1610.039039 2213.046842 L 1610.039039 2242.773404 " transform="matrix(0.2, 0, 0, -0.2, 0, 476)"/>
<path fill="none" stroke-width="7.9701" stroke-linecap="butt" stroke-linejoin="miter" stroke="rgb(0%, 0%, 0%)" stroke-opacity="1" stroke-miterlimit="10" d="M 1610.039039 2242.773404 L 1610.039039 2272.499966 " transform="matrix(0.2, 0, 0, -0.2, 0, 476)"/>
<path fill="none" stroke-width="7.9701" stroke-linecap="butt" stroke-linejoin="miter" stroke="rgb(0%, 0%, 0%)" stroke-opacity="1" stroke-miterlimit="10" d="M 1610.039039 2331.914028 L 1610.039039 2361.64059 " transform="matrix(0.2, 0, 0, -0.2, 0, 476)"/>
<path fill="none" stroke-width="7.9701" stroke-linecap="butt" stroke-linejoin="miter" stroke="rgb(0%, 0%, 0%)" stroke-opacity="1" stroke-miterlimit="10" d="M 1610.039039 2361.64059 L 1582.734351 2361.64059 " transform="matrix(0.2, 0, 0, -0.2, 0, 476)"/>
<path fill="none" stroke-width="7.9701" stroke-linecap="butt" stroke-linejoin="miter" stroke="rgb(0%, 0%, 0%)" stroke-opacity="1" stroke-miterlimit="10" d="M 1528.203102 2361.64059 L 1500.937478 2361.64059 " transform="matrix(0.2, 0, 0, -0.2, 0, 476)"/>
<path fill="none" stroke-width="7.9701" stroke-linecap="butt" stroke-linejoin="miter" stroke="rgb(0%, 0%, 0%)" stroke-opacity="1" stroke-miterlimit="10" d="M 1500.937478 2361.64059 L 1473.632791 2361.64059 " transform="matrix(0.2, 0, 0, -0.2, 0, 476)"/>
<path fill="none" stroke-width="7.9701" stroke-linecap="butt" stroke-linejoin="miter" stroke="rgb(0%, 0%, 0%)" stroke-opacity="1" stroke-miterlimit="10" d="M 1419.101541 2361.64059 L 1391.835917 2361.64059 " transform="matrix(0.2, 0, 0, -0.2, 0, 476)"/>
<path fill="none" stroke-width="7.9701" stroke-linecap="butt" stroke-linejoin="miter" stroke="rgb(0%, 0%, 0%)" stroke-opacity="1" stroke-miterlimit="10" d="M 1391.835917 2361.64059 L 1364.570292 2361.64059 " transform="matrix(0.2, 0, 0, -0.2, 0, 476)"/>
<path fill="none" stroke-width="7.9701" stroke-linecap="butt" stroke-linejoin="miter" stroke="rgb(0%, 0%, 0%)" stroke-opacity="1" stroke-miterlimit="10" d="M 1310.039043 2361.64059 L 1282.734356 2361.64059 " transform="matrix(0.2, 0, 0, -0.2, 0, 476)"/>
<path fill="none" stroke-width="7.9701" stroke-linecap="butt" stroke-linejoin="miter" stroke="rgb(0%, 0%, 0%)" stroke-opacity="1" stroke-miterlimit="10" d="M 1282.734356 2361.64059 L 1255.468731 2361.64059 " transform="matrix(0.2, 0, 0, -0.2, 0, 476)"/>
<path fill="none" stroke-width="7.9701" stroke-linecap="butt" stroke-linejoin="miter" stroke="rgb(0%, 0%, 0%)" stroke-opacity="1" stroke-miterlimit="10" d="M 1200.937482 2361.64059 L 1173.632795 2361.64059 " transform="matrix(0.2, 0, 0, -0.2, 0, 476)"/>
<path fill="none" stroke-width="7.9701" stroke-linecap="butt" stroke-linejoin="miter" stroke="rgb(0%, 0%, 0%)" stroke-opacity="1" stroke-miterlimit="10" d="M 1173.632795 2361.64059 L 1146.36717 2361.64059 " transform="matrix(0.2, 0, 0, -0.2, 0, 476)"/>
<path fill="none" stroke-width="7.9701" stroke-linecap="butt" stroke-linejoin="miter" stroke="rgb(0%, 0%, 0%)" stroke-opacity="1" stroke-miterlimit="10" d="M 1091.835921 2361.64059 L 1064.531234 2361.64059 " transform="matrix(0.2, 0, 0, -0.2, 0, 476)"/>
<path fill="none" stroke-width="7.9701" stroke-linecap="butt" stroke-linejoin="miter" stroke="rgb(0%, 0%, 0%)" stroke-opacity="1" stroke-miterlimit="10" d="M 1064.531234 2361.64059 L 1037.304672 2361.64059 " transform="matrix(0.2, 0, 0, -0.2, 0, 476)"/>
<path fill="none" stroke-width="7.9701" stroke-linecap="butt" stroke-linejoin="miter" stroke="rgb(0%, 0%, 0%)" stroke-opacity="1" stroke-miterlimit="10" d="M 982.73436 2361.64059 L 955.468736 2361.64059 " transform="matrix(0.2, 0, 0, -0.2, 0, 476)"/>
<path fill="none" stroke-width="7.9701" stroke-linecap="butt" stroke-linejoin="miter" stroke="rgb(0%, 0%, 0%)" stroke-opacity="1" stroke-miterlimit="10" d="M 955.468736 2361.64059 L 928.203111 2361.64059 " transform="matrix(0.2, 0, 0, -0.2, 0, 476)"/>
<path fill="none" stroke-width="7.9701" stroke-linecap="butt" stroke-linejoin="miter" stroke="rgb(0%, 0%, 0%)" stroke-opacity="1" stroke-miterlimit="10" d="M 873.632799 2361.64059 L 846.367175 2361.64059 " transform="matrix(0.2, 0, 0, -0.2, 0, 476)"/>
<path fill="none" stroke-width="7.9701" stroke-linecap="butt" stroke-linejoin="miter" stroke="rgb(0%, 0%, 0%)" stroke-opacity="1" stroke-miterlimit="10" d="M 846.367175 2361.64059 L 819.10155 2361.64059 " transform="matrix(0.2, 0, 0, -0.2, 0, 476)"/>
<path fill="none" stroke-width="7.9701" stroke-linecap="butt" stroke-linejoin="miter" stroke="rgb(0%, 0%, 0%)" stroke-opacity="1" stroke-miterlimit="10" d="M 764.531239 2361.64059 L 737.265614 2361.64059 " transform="matrix(0.2, 0, 0, -0.2, 0, 476)"/>
<path fill="none" stroke-width="7.9701" stroke-linecap="butt" stroke-linejoin="miter" stroke="rgb(0%, 0%, 0%)" stroke-opacity="1" stroke-miterlimit="10" d="M 737.265614 2361.64059 L 709.999989 2361.64059 " transform="matrix(0.2, 0, 0, -0.2, 0, 476)"/>
<path fill="none" stroke-width="7.9701" stroke-linecap="butt" stroke-linejoin="miter" stroke="rgb(0%, 0%, 0%)" stroke-opacity="1" stroke-miterlimit="10" d="M 655.46874 2361.64059 L 628.203116 2361.64059 " transform="matrix(0.2, 0, 0, -0.2, 0, 476)"/>
<path fill="none" stroke-width="7.9701" stroke-linecap="butt" stroke-linejoin="miter" stroke="rgb(0%, 0%, 0%)" stroke-opacity="1" stroke-miterlimit="10" d="M 628.203116 2361.64059 L 600.937491 2361.64059 " transform="matrix(0.2, 0, 0, -0.2, 0, 476)"/>
<path fill="none" stroke-width="7.9701" stroke-linecap="butt" stroke-linejoin="miter" stroke="rgb(0%, 0%, 0%)" stroke-opacity="1" stroke-miterlimit="10" d="M 546.367179 2361.64059 L 519.101555 2361.64059 " transform="matrix(0.2, 0, 0, -0.2, 0, 476)"/>
<path fill="none" stroke-width="7.9701" stroke-linecap="butt" stroke-linejoin="miter" stroke="rgb(0%, 0%, 0%)" stroke-opacity="1" stroke-miterlimit="10" d="M 519.101555 2361.64059 L 491.83593 2361.64059 " transform="matrix(0.2, 0, 0, -0.2, 0, 476)"/>
<path fill="none" stroke-width="7.9701" stroke-linecap="butt" stroke-linejoin="miter" stroke="rgb(0%, 0%, 0%)" stroke-opacity="1" stroke-miterlimit="10" d="M 437.265618 2361.64059 L 409.999994 2361.64059 " transform="matrix(0.2, 0, 0, -0.2, 0, 476)"/>
<path fill-rule="nonzero" fill="rgb(0%, 0%, 0%)" fill-opacity="1" d="M 34.457031 250.230469 C 34.832031 250.230469 35.207031 250.230469 35.207031 249.824219 C 35.207031 249.386719 34.832031 249.386719 34.457031 249.386719 L 22.644531 249.386719 C 22.269531 249.386719 21.894531 249.386719 21.894531 249.824219 C 21.894531 250.230469 22.269531 250.230469 22.644531 250.230469 Z M 34.457031 250.230469 "/>
<path fill-rule="nonzero" fill="rgb(0%, 0%, 0%)" fill-opacity="1" d="M 43.527344 241.292969 C 43.527344 240.792969 43.527344 240.730469 43.027344 240.730469 C 41.683594 242.136719 39.746094 242.136719 39.058594 242.136719 L 39.058594 242.792969 C 39.496094 242.792969 40.777344 242.792969 41.933594 242.230469 L 41.933594 253.542969 C 41.933594 254.324219 41.839844 254.574219 39.902344 254.574219 L 39.183594 254.574219 L 39.183594 255.261719 C 39.964844 255.199219 41.839844 255.199219 42.714844 255.199219 C 43.589844 255.199219 45.496094 255.199219 46.246094 255.261719 L 46.246094 254.574219 L 45.558594 254.574219 C 43.589844 254.574219 43.527344 254.355469 43.527344 253.542969 Z M 43.527344 241.292969 "/>
<path fill-rule="nonzero" fill="rgb(100%, 100%, 100%)" fill-opacity="1" d="M 350.15625 265.179688 L 382.078125 265.179688 L 382.078125 292.0625 L 350.15625 292.0625 Z M 350.15625 265.179688 "/>
<path fill-rule="nonzero" fill="rgb(0%, 0%, 0%)" fill-opacity="1" d="M 366.777344 277.0625 L 364.933594 272.71875 C 364.871094 272.5625 364.808594 272.46875 364.808594 272.4375 C 364.808594 272.3125 365.183594 271.90625 366.121094 271.8125 C 366.339844 271.78125 366.558594 271.78125 366.558594 271.40625 C 366.558594 271.125 366.277344 271.125 366.214844 271.125 C 365.308594 271.125 364.371094 271.1875 363.464844 271.1875 C 362.933594 271.1875 361.558594 271.125 361.027344 271.125 C 360.902344 271.125 360.621094 271.125 360.621094 271.5625 C 360.621094 271.8125 360.839844 271.8125 361.121094 271.8125 C 362.433594 271.8125 362.589844 272.03125 362.777344 272.5 L 365.339844 278.59375 L 360.746094 283.53125 L 360.464844 283.78125 C 359.402344 284.9375 358.371094 285.28125 357.246094 285.34375 C 356.964844 285.375 356.777344 285.375 356.777344 285.78125 C 356.777344 285.8125 356.777344 286.03125 357.058594 286.03125 C 357.714844 286.03125 358.433594 285.96875 359.121094 285.96875 C 359.902344 285.96875 360.777344 286.03125 361.558594 286.03125 C 361.683594 286.03125 361.933594 286.03125 361.933594 285.59375 C 361.933594 285.375 361.714844 285.34375 361.683594 285.34375 C 361.496094 285.34375 360.808594 285.28125 360.808594 284.6875 C 360.808594 284.34375 361.121094 283.96875 361.402344 283.6875 L 363.621094 281.34375 L 365.589844 279.21875 L 367.777344 284.40625 C 367.871094 284.65625 367.902344 284.6875 367.902344 284.71875 C 367.902344 284.90625 367.496094 285.28125 366.621094 285.34375 C 366.402344 285.375 366.183594 285.40625 366.183594 285.78125 C 366.183594 286.03125 366.433594 286.03125 366.527344 286.03125 C 367.121094 286.03125 368.652344 285.96875 369.277344 285.96875 C 369.808594 285.96875 371.152344 286.03125 371.683594 286.03125 C 371.839844 286.03125 372.121094 286.03125 372.121094 285.625 C 372.121094 285.34375 371.902344 285.34375 371.714844 285.34375 C 370.246094 285.34375 370.214844 285.28125 369.839844 284.40625 C 368.996094 282.375 367.527344 278.96875 367.027344 277.65625 C 368.496094 276.125 370.808594 273.53125 371.496094 272.9375 C 372.121094 272.40625 372.964844 271.875 374.277344 271.8125 C 374.558594 271.78125 374.746094 271.78125 374.746094 271.375 C 374.746094 271.34375 374.746094 271.125 374.464844 271.125 C 373.808594 271.125 373.089844 271.1875 372.402344 271.1875 C 371.589844 271.1875 370.777344 271.125 369.996094 271.125 C 369.871094 271.125 369.589844 271.125 369.589844 271.5625 C 369.589844 271.71875 369.683594 271.78125 369.839844 271.8125 C 370.027344 271.84375 370.714844 271.875 370.714844 272.5 C 370.714844 272.78125 370.464844 273.0625 370.308594 273.28125 Z M 366.777344 277.0625 "/>
<path fill-rule="nonzero" fill="rgb(100%, 100%, 100%)" fill-opacity="1" d="M 52.453125 -5.757812 L 81.976562 -5.757812 L 81.976562 21.125 L 52.453125 21.125 Z M 52.453125 -5.757812 "/>
<path fill-rule="nonzero" fill="rgb(0%, 0%, 0%)" fill-opacity="1" d="M 71.511719 2.691406 L 71.792969 2.378906 C 72.449219 1.722656 73.167969 0.972656 74.667969 0.878906 C 74.917969 0.847656 75.105469 0.847656 75.105469 0.472656 C 75.105469 0.285156 74.980469 0.191406 74.824219 0.191406 C 74.261719 0.191406 73.605469 0.253906 73.042969 0.253906 C 72.324219 0.253906 71.542969 0.191406 70.855469 0.191406 C 70.730469 0.191406 70.449219 0.191406 70.449219 0.628906 C 70.449219 0.847656 70.636719 0.878906 70.761719 0.878906 C 70.917969 0.878906 71.542969 0.910156 71.542969 1.378906 C 71.542969 1.753906 71.042969 2.316406 70.949219 2.410156 L 65.886719 8.253906 L 63.511719 1.785156 C 63.355469 1.472656 63.355469 1.410156 63.355469 1.410156 C 63.355469 0.878906 64.449219 0.878906 64.667969 0.878906 C 64.949219 0.878906 65.167969 0.878906 65.167969 0.441406 C 65.167969 0.191406 64.917969 0.191406 64.855469 0.191406 C 64.230469 0.191406 62.699219 0.253906 62.105469 0.253906 C 61.542969 0.253906 60.199219 0.191406 59.667969 0.191406 C 59.542969 0.191406 59.230469 0.191406 59.230469 0.628906 C 59.230469 0.878906 59.449219 0.878906 59.730469 0.878906 C 61.042969 0.878906 61.136719 1.066406 61.324219 1.628906 L 64.011719 8.785156 C 64.042969 8.847656 64.105469 9.097656 64.105469 9.160156 C 64.105469 9.222656 63.230469 12.753906 63.136719 13.128906 C 62.855469 14.347656 62.824219 14.410156 61.074219 14.410156 C 60.667969 14.410156 60.480469 14.410156 60.480469 14.847656 C 60.480469 15.097656 60.761719 15.097656 60.792969 15.097656 C 61.417969 15.097656 62.917969 15.035156 63.542969 15.035156 C 64.136719 15.035156 65.730469 15.097656 66.324219 15.097656 C 66.480469 15.097656 66.761719 15.097656 66.761719 14.660156 C 66.761719 14.410156 66.542969 14.410156 66.136719 14.410156 C 66.105469 14.410156 65.667969 14.410156 65.292969 14.378906 C 64.855469 14.347656 64.730469 14.285156 64.730469 14.035156 C 64.730469 13.878906 64.917969 13.097656 65.011719 12.660156 L 65.792969 9.566406 C 65.886719 9.160156 65.917969 9.097656 66.105469 8.910156 Z M 71.511719 2.691406 "/>
<path fill="none" stroke-width="11.9553" stroke-linecap="butt" stroke-linejoin="miter" stroke="rgb(0%, 0%, 0%)" stroke-opacity="1" stroke-miterlimit="10" d="M 1.992187 1054.257797 L 1850.039035 1054.257797 " transform="matrix(0.2, 0, 0, -0.2, 0, 476)"/>
<path fill="none" stroke-width="11.9553" stroke-linecap="butt" stroke-linejoin="miter" stroke="rgb(0%, 0%, 0%)" stroke-opacity="1" stroke-miterlimit="10" d="M 409.999994 167.499998 L 409.999994 2361.64059 " transform="matrix(0.2, 0, 0, -0.2, 0, 476)"/>
<path fill-rule="nonzero" fill="rgb(100%, 100%, 100%)" fill-opacity="1" d="M 67.335938 267.171875 L 96.617188 267.171875 L 96.617188 294.054688 L 67.335938 294.054688 Z M 67.335938 267.171875 "/>
<path fill-rule="nonzero" fill="rgb(0%, 0%, 0%)" fill-opacity="1" d="M 89.515625 278.523438 C 89.515625 274.992188 87.203125 272.648438 83.953125 272.648438 C 79.234375 272.648438 74.421875 277.585938 74.421875 282.679688 C 74.421875 286.304688 76.859375 288.492188 80.015625 288.492188 C 84.640625 288.492188 89.515625 283.710938 89.515625 278.523438 Z M 80.140625 287.929688 C 77.984375 287.929688 76.453125 286.179688 76.453125 283.304688 C 76.453125 282.335938 76.765625 279.148438 78.453125 276.585938 C 79.953125 274.335938 82.078125 273.179688 83.796875 273.179688 C 85.609375 273.179688 87.546875 274.398438 87.546875 277.648438 C 87.546875 279.242188 86.984375 282.648438 84.796875 285.304688 C 83.765625 286.648438 81.984375 287.929688 80.140625 287.929688 Z M 80.140625 287.929688 "/>
<path fill="none" stroke-width="11.9553" stroke-linecap="butt" stroke-linejoin="miter" stroke="rgb(0%, 0%, 0%)" stroke-opacity="1" stroke-miterlimit="10" d="M 139.999998 136.640623 L 151.249998 205.546872 L 162.499998 272.148433 L 173.749997 336.48437 L 184.999997 398.554682 L 196.249997 458.437493 L 207.499997 516.171867 L 218.749997 571.757804 L 229.999997 625.273428 L 241.249996 676.679677 L 252.499996 726.093739 L 263.749996 773.515613 L 274.999996 818.984363 L 286.249996 862.499987 L 297.499996 904.179674 L 308.749995 943.984361 L 319.999995 981.95311 L 331.249995 1018.164047 L 342.499995 1052.656234 L 353.749995 1085.390609 L 364.999995 1116.484358 L 376.249994 1145.937483 L 387.499994 1173.749983 L 398.749994 1200.039045 L 409.999994 1224.765607 L 421.249994 1248.007794 L 432.499994 1269.765606 L 443.749993 1290.117168 L 454.999993 1309.06248 L 466.249993 1326.679668 L 477.499993 1342.929667 L 488.749993 1357.929667 L 499.999993 1371.640605 L 511.249992 1384.140604 L 522.499992 1395.507792 L 533.749992 1405.664042 L 544.999992 1414.765604 L 556.249992 1422.734354 L 567.499992 1429.687479 L 578.749991 1435.624979 L 589.999991 1440.585916 L 601.249991 1444.648416 L 612.499991 1447.773416 L 623.749991 1450.039041 L 634.999991 1451.445291 L 646.24999 1452.109353 L 657.49999 1451.953103 L 668.74999 1451.132791 L 679.99999 1449.609353 L 691.24999 1447.382791 L 702.49999 1444.570291 L 713.749989 1441.171854 L 724.999989 1437.226541 L 736.249989 1432.734354 L 747.499989 1427.812479 L 758.749989 1422.421854 L 769.999989 1416.601541 L 781.249988 1410.429666 L 792.499988 1403.945292 L 803.749988 1397.109354 L 814.999988 1389.999979 L 826.249988 1382.695292 L 837.499988 1375.15623 L 848.749987 1367.460917 L 859.999987 1359.648417 L 871.249987 1351.757792 L 882.499987 1343.789042 L 893.749987 1335.78123 L 904.999987 1327.81248 L 916.249986 1319.882793 L 927.499986 1312.03123 L 938.749986 1304.296856 L 949.999986 1296.718731 L 961.249986 1289.335918 L 972.499986 1282.148418 L 983.749985 1275.234356 L 994.999985 1268.593731 L 1006.249985 1262.304669 L 1017.499985 1256.406231 L 1028.749985 1250.859356 L 1039.999985 1245.742169 L 1051.249984 1241.132794 L 1062.499984 1236.992169 L 1073.749984 1233.398419 L 1084.999984 1230.390607 L 1096.249984 1228.007794 L 1107.499983 1226.210919 L 1118.749983 1225.117169 L 1130.039046 1224.765607 L 1141.289045 1225.156232 L 1152.539045 1226.328107 L 1163.789045 1228.320294 L 1175.039045 1231.132794 L 1186.289045 1234.882794 L 1197.539045 1239.531232 L 1208.789044 1245.156231 L 1220.039044 1251.757794 L 1231.289044 1259.374981 L 1242.539044 1268.085919 L 1253.789044 1277.890606 L 1265.039044 1288.828106 L 1276.289043 1300.976543 L 1287.539043 1314.296855 L 1298.789043 1328.828105 L 1310.039043 1344.68748 L 1321.289043 1361.835917 L 1332.539043 1380.312479 L 1343.789042 1400.195292 L 1355.039042 1421.484354 L 1366.289042 1444.218728 L 1377.539042 1468.476541 L 1388.789042 1494.218728 L 1400.039042 1521.523415 L 1411.289041 1550.429664 L 1422.539041 1580.976539 L 1433.789041 1613.164038 L 1445.039041 1647.070288 L 1456.289041 1682.695287 L 1467.539041 1720.078099 L 1478.78904 1759.257786 L 1490.03904 1800.312473 " transform="matrix(0.2, 0, 0, -0.2, 0, 476)"/>
<path fill-rule="nonzero" fill="rgb(0%, 0%, 0%)" fill-opacity="1" d="M 145.601562 468.386719 C 146.789062 467.980469 148.789062 467.386719 148.789062 465.449219 C 148.789062 463.136719 146.070312 462.074219 144.101562 462.074219 C 143.164062 462.074219 142.195312 462.292969 141.351562 462.792969 C 141.226562 462.855469 141.070312 463.042969 140.914062 463.042969 C 140.601562 463.042969 140.039062 462.074219 139.726562 462.074219 C 139.539062 462.074219 139.507812 462.292969 139.507812 462.386719 L 139.507812 465.949219 C 139.507812 466.074219 139.601562 466.230469 139.789062 466.230469 C 140.101562 466.230469 140.070312 465.605469 140.164062 465.261719 C 140.632812 463.542969 142.195312 462.792969 143.695312 462.699219 L 144.101562 462.699219 C 145.445312 462.699219 147.007812 463.574219 147.007812 465.449219 C 147.007812 467.261719 145.226562 468.199219 143.570312 468.199219 C 143.257812 468.199219 142.945312 468.199219 142.632812 468.199219 L 142.476562 468.199219 C 142.289062 468.199219 142.070312 468.199219 142.070312 468.417969 L 142.070312 468.449219 C 142.101562 468.636719 142.289062 468.667969 142.476562 468.667969 L 144.320312 468.667969 C 145.882812 468.792969 147.320312 469.824219 147.476562 471.449219 L 147.476562 471.667969 C 147.476562 473.511719 145.757812 474.667969 144.007812 474.667969 C 142.101562 474.667969 140.132812 474.042969 139.820312 471.667969 C 139.820312 471.511719 139.757812 471.324219 139.539062 471.324219 C 139.320312 471.355469 139.289062 471.511719 139.289062 471.667969 C 139.289062 474.261719 141.882812 475.292969 144.132812 475.292969 C 146.195312 475.292969 149.070312 474.324219 149.320312 471.855469 L 149.320312 471.730469 C 149.320312 469.761719 147.257812 468.792969 145.601562 468.386719 Z M 145.601562 468.386719 "/>
<path fill-rule="nonzero" fill="rgb(0%, 0%, 0%)" fill-opacity="1" d="M 157.695312 462.074219 C 154.320312 462.480469 151.632812 465.136719 151.632812 468.730469 C 151.632812 472.011719 154.226562 475.261719 158.101562 475.261719 C 161.601562 475.261719 164.570312 472.355469 164.570312 468.730469 C 164.570312 465.542969 162.070312 462.074219 158.132812 462.074219 C 158.007812 462.074219 157.851562 462.074219 157.695312 462.074219 Z M 153.507812 468.949219 L 153.507812 468.605469 C 153.507812 466.105469 154.414062 463.167969 157.570312 462.636719 C 157.757812 462.605469 157.914062 462.605469 158.101562 462.605469 C 160.914062 462.605469 162.664062 465.324219 162.664062 468.355469 C 162.664062 470.761719 161.945312 473.824219 158.976562 474.605469 C 158.695312 474.667969 158.414062 474.699219 158.132812 474.699219 L 157.945312 474.699219 C 155.351562 474.605469 153.945312 472.136719 153.601562 469.730469 Z M 153.507812 468.949219 "/>
<path fill-rule="nonzero" fill="rgb(0%, 0%, 0%)" fill-opacity="1" d="M 167.027344 462.417969 L 167.027344 463.011719 L 167.464844 463.011719 C 168.058594 463.011719 168.683594 463.105469 168.683594 463.980469 L 168.683594 473.449219 C 168.683594 474.292969 167.964844 474.324219 167.308594 474.324219 L 167.027344 474.324219 L 167.027344 474.917969 L 172.808594 474.917969 C 173.214844 474.917969 173.589844 474.949219 173.996094 474.949219 C 175.996094 474.949219 178.339844 474.011719 178.558594 471.605469 L 178.558594 471.417969 C 178.558594 468.886719 175.683594 467.855469 173.777344 467.855469 C 172.527344 467.855469 171.339844 467.980469 170.152344 468.074219 L 170.152344 463.855469 C 170.152344 463.417969 170.214844 463.011719 170.996094 463.011719 L 173.308594 463.011719 C 174.277344 463.011719 175.371094 463.074219 176.089844 463.792969 C 176.777344 464.511719 176.871094 465.730469 176.964844 466.667969 L 177.496094 466.667969 L 177.027344 462.417969 Z M 170.152344 468.699219 C 170.402344 468.699219 170.652344 468.636719 170.902344 468.605469 L 172.277344 468.542969 C 172.558594 468.511719 172.839844 468.480469 173.152344 468.480469 C 174.714844 468.480469 176.683594 469.480469 176.683594 471.324219 C 176.683594 473.074219 175.339844 474.355469 173.339844 474.355469 C 173.058594 474.355469 172.746094 474.324219 172.496094 474.324219 L 170.964844 474.324219 C 170.496094 474.324219 170.246094 474.292969 170.152344 473.667969 Z M 170.152344 468.699219 "/>
<path fill-rule="nonzero" fill="rgb(0%, 0%, 0%)" fill-opacity="1" d="M 180.90625 462.417969 L 180.90625 463.011719 L 181.375 463.011719 C 181.96875 463.011719 182.5625 463.105469 182.5625 463.980469 L 182.5625 473.449219 C 182.5625 474.292969 181.875 474.324219 181.1875 474.324219 L 180.90625 474.324219 L 180.90625 474.917969 L 185.8125 474.917969 L 185.8125 474.324219 L 185.375 474.324219 C 184.75 474.324219 184.15625 474.261719 184.15625 473.386719 L 184.15625 469.199219 L 187.875 469.199219 C 189.65625 469.074219 191.9375 467.886719 191.9375 465.855469 C 191.9375 463.636719 189.59375 462.574219 187.6875 462.417969 Z M 184.125 468.667969 L 184.125 463.667969 C 184.21875 463.074219 184.46875 463.011719 184.875 463.011719 L 186.3125 463.011719 C 187.9375 463.011719 190.0625 463.074219 190.0625 465.855469 C 190.0625 466.511719 189.96875 467.199219 189.5625 467.699219 C 188.90625 468.480469 187.8125 468.667969 186.84375 468.667969 Z M 184.125 468.667969 "/>
<path fill-rule="nonzero" fill="rgb(0%, 0%, 0%)" fill-opacity="1" d="M 196.636719 472.636719 C 196.136719 472.730469 195.636719 473.167969 195.636719 473.761719 C 195.636719 474.386719 196.167969 474.917969 196.792969 474.917969 C 197.417969 474.917969 197.980469 474.449219 197.980469 473.792969 C 197.980469 473.167969 197.449219 472.605469 196.824219 472.605469 C 196.761719 472.605469 196.699219 472.636719 196.636719 472.636719 Z M 196.636719 472.636719 "/>
<path fill-rule="nonzero" fill="rgb(0%, 0%, 0%)" fill-opacity="1" d="M 211.535156 462.417969 C 211.941406 460.855469 213.347656 459.730469 214.972656 459.730469 C 217.222656 459.730469 218.472656 461.699219 218.472656 463.636719 C 218.472656 465.324219 217.535156 466.824219 216.503906 468.074219 C 214.816406 470.167969 212.785156 472.042969 211.003906 474.011719 C 210.847656 474.199219 210.691406 474.355469 210.691406 474.605469 C 210.691406 474.699219 210.722656 474.824219 210.722656 474.917969 L 219.847656 474.917969 L 220.472656 470.917969 L 219.941406 470.917969 C 219.753906 471.886719 219.816406 473.167969 218.816406 473.167969 C 218.597656 473.199219 218.410156 473.199219 218.222656 473.199219 L 217.628906 473.199219 C 217.285156 473.230469 216.910156 473.230469 216.597656 473.230469 L 212.441406 473.230469 C 213.941406 471.730469 215.566406 470.261719 217.191406 468.886719 C 218.722656 467.574219 220.316406 466.042969 220.472656 463.917969 L 220.472656 463.605469 C 220.472656 460.886719 218.128906 459.042969 215.285156 459.042969 C 212.941406 459.042969 210.722656 460.949219 210.722656 463.386719 C 210.722656 464.199219 211.191406 464.667969 211.878906 464.667969 C 212.503906 464.667969 213.003906 464.199219 213.003906 463.511719 C 213.003906 462.886719 212.535156 462.386719 211.816406 462.386719 C 211.722656 462.386719 211.628906 462.386719 211.535156 462.417969 Z M 211.535156 462.417969 "/>
<path fill-rule="nonzero" fill="rgb(0%, 0%, 0%)" fill-opacity="1" d="M 226.902344 466.855469 C 225.371094 467.792969 223.214844 468.699219 223.214844 471.324219 C 223.214844 473.824219 225.652344 475.417969 228.277344 475.417969 C 230.589844 475.417969 233.371094 473.980469 233.371094 471.042969 C 233.371094 470.042969 233.058594 469.105469 232.433594 468.355469 C 231.683594 467.449219 230.589844 466.949219 229.621094 466.292969 C 231.089844 465.636719 232.683594 464.386719 232.683594 462.542969 C 232.683594 460.261719 230.496094 459.167969 228.621094 459.042969 L 228.339844 459.042969 C 226.183594 459.042969 223.902344 460.480469 223.902344 462.949219 C 223.902344 464.699219 225.183594 466.011719 226.902344 466.855469 Z M 224.308594 471.574219 C 224.308594 471.480469 224.308594 471.386719 224.308594 471.292969 C 224.308594 469.574219 225.652344 468.199219 227.058594 467.386719 C 227.152344 467.355469 227.277344 467.261719 227.402344 467.261719 C 227.589844 467.261719 227.746094 467.386719 227.871094 467.480469 C 228.621094 467.980469 229.402344 468.480469 230.183594 468.949219 C 231.152344 469.574219 232.277344 470.324219 232.277344 471.542969 C 232.277344 473.667969 230.214844 474.792969 228.339844 474.792969 C 226.496094 474.792969 224.621094 473.667969 224.308594 471.574219 Z M 224.902344 462.292969 C 224.902344 460.480469 226.652344 459.605469 228.246094 459.605469 C 229.871094 459.605469 231.433594 460.542969 231.714844 462.355469 L 231.714844 462.574219 C 231.714844 464.011719 230.527344 465.199219 229.433594 465.792969 C 229.339844 465.855469 229.246094 465.949219 229.121094 465.949219 C 228.902344 465.949219 228.277344 465.449219 227.902344 465.230469 C 226.714844 464.417969 225.121094 463.792969 224.902344 462.292969 Z M 224.902344 462.292969 "/>
<path fill-rule="nonzero" fill="rgb(0%, 0%, 0%)" fill-opacity="1" d="M 238.144531 472.636719 C 237.644531 472.730469 237.144531 473.167969 237.144531 473.761719 C 237.144531 474.386719 237.675781 474.917969 238.300781 474.917969 C 238.925781 474.917969 239.488281 474.449219 239.488281 473.792969 C 239.488281 473.167969 238.957031 472.605469 238.332031 472.605469 C 238.269531 472.605469 238.207031 472.636719 238.144531 472.636719 Z M 238.144531 472.636719 "/>
</svg>
