<?xml version="1.0" encoding="UTF-8"?>
<svg xmlns="http://www.w3.org/2000/svg" xmlns:xlink="http://www.w3.org/1999/xlink" width="392" height="356" viewBox="0 0 392 356">
<path fill="none" stroke-width="11.9553" stroke-linecap="butt" stroke-linejoin="miter" stroke="rgb(0%, 0%, 0%)" stroke-opacity="1" stroke-miterlimit="10" d="M 7.5 771.601551 L 1830.039035 1581.601539 " transform="matrix(0.2, 0, 0, -0.2, 0, 356)"/>
<path fill="none" stroke-width="11.9553" stroke-linecap="butt" stroke-linejoin="miter" stroke="rgb(0%, 0%, 0%)" stroke-opacity="1" stroke-miterlimit="10" d="M 209.999997 861.60155 L 493.515618 861.60155 " transform="matrix(0.2, 0, 0, -0.2, 0, 356)"/>
<path fill="none" stroke-width="11.9553" stroke-linecap="butt" stroke-linejoin="miter" stroke="rgb(0%, 0%, 0%)" stroke-opacity="1" stroke-miterlimit="10" d="M 493.515618 987.617173 L 493.515618 861.60155 " transform="matrix(0.2, 0, 0, -0.2, 0, 356)"/>
<path fill="none" stroke-width="7.9701" stroke-linecap="butt" stroke-linejoin="miter" stroke="rgb(0%, 0%, 0%)" stroke-opacity="1" stroke-miterlimit="10" d="M 493.515618 861.60155 L 493.515618 834.609363 " transform="matrix(0.2, 0, 0, -0.2, 0, 356)"/>
<path fill="none" stroke-width="7.9701" stroke-linecap="butt" stroke-linejoin="miter" stroke="rgb(0%, 0%, 0%)" stroke-opacity="1" stroke-miterlimit="10" d="M 493.515618 780.585926 L 493.515618 753.593739 " transform="matrix(0.2, 0, 0, -0.2, 0, 356)"/>
<path fill="none" stroke-width="7.9701" stroke-linecap="butt" stroke-linejoin="miter" stroke="rgb(0%, 0%, 0%)" stroke-opacity="1" stroke-miterlimit="10" d="M 493.515618 753.593739 L 493.515618 726.601552 " transform="matrix(0.2, 0, 0, -0.2, 0, 356)"/>
<path fill="none" stroke-width="7.9701" stroke-linecap="butt" stroke-linejoin="miter" stroke="rgb(0%, 0%, 0%)" stroke-opacity="1" stroke-miterlimit="10" d="M 493.515618 672.617177 L 493.515618 645.585928 " transform="matrix(0.2, 0, 0, -0.2, 0, 356)"/>
<path fill="none" stroke-width="7.9701" stroke-linecap="butt" stroke-linejoin="miter" stroke="rgb(0%, 0%, 0%)" stroke-opacity="1" stroke-miterlimit="10" d="M 493.515618 645.585928 L 493.515618 618.593741 " transform="matrix(0.2, 0, 0, -0.2, 0, 356)"/>
<path fill="none" stroke-width="7.9701" stroke-linecap="butt" stroke-linejoin="miter" stroke="rgb(0%, 0%, 0%)" stroke-opacity="1" stroke-miterlimit="10" d="M 493.515618 564.609367 L 493.515618 537.617179 " transform="matrix(0.2, 0, 0, -0.2, 0, 356)"/>
<path fill="none" stroke-width="7.9701" stroke-linecap="butt" stroke-linejoin="miter" stroke="rgb(0%, 0%, 0%)" stroke-opacity="1" stroke-miterlimit="10" d="M 493.515618 537.617179 L 493.515618 510.58593 " transform="matrix(0.2, 0, 0, -0.2, 0, 356)"/>
<path fill="none" stroke-width="7.9701" stroke-linecap="butt" stroke-linejoin="miter" stroke="rgb(0%, 0%, 0%)" stroke-opacity="1" stroke-miterlimit="10" d="M 493.515618 456.601556 L 493.515618 429.609369 " transform="matrix(0.2, 0, 0, -0.2, 0, 356)"/>
<path fill="none" stroke-width="7.9701" stroke-linecap="butt" stroke-linejoin="miter" stroke="rgb(0%, 0%, 0%)" stroke-opacity="1" stroke-miterlimit="10" d="M 493.515618 429.609369 L 493.515618 402.617182 " transform="matrix(0.2, 0, 0, -0.2, 0, 356)"/>
<path fill="none" stroke-width="7.9701" stroke-linecap="butt" stroke-linejoin="miter" stroke="rgb(0%, 0%, 0%)" stroke-opacity="1" stroke-miterlimit="10" d="M 493.515618 348.593745 L 493.515618 321.601558 " transform="matrix(0.2, 0, 0, -0.2, 0, 356)"/>
<path fill="none" stroke-width="11.9553" stroke-linecap="butt" stroke-linejoin="miter" stroke="rgb(0%, 0%, 0%)" stroke-opacity="1" stroke-miterlimit="10" d="M 493.515618 987.617173 L 777.031238 987.617173 " transform="matrix(0.2, 0, 0, -0.2, 0, 356)"/>
<path fill="none" stroke-width="11.9553" stroke-linecap="butt" stroke-linejoin="miter" stroke="rgb(0%, 0%, 0%)" stroke-opacity="1" stroke-miterlimit="10" d="M 777.031238 1113.593733 L 777.031238 987.617173 " transform="matrix(0.2, 0, 0, -0.2, 0, 356)"/>
<path fill="none" stroke-width="7.9701" stroke-linecap="butt" stroke-linejoin="miter" stroke="rgb(0%, 0%, 0%)" stroke-opacity="1" stroke-miterlimit="10" d="M 777.031238 987.617173 L 777.031238 959.843736 " transform="matrix(0.2, 0, 0, -0.2, 0, 356)"/>
<path fill="none" stroke-width="7.9701" stroke-linecap="butt" stroke-linejoin="miter" stroke="rgb(0%, 0%, 0%)" stroke-opacity="1" stroke-miterlimit="10" d="M 777.031238 904.335924 L 777.031238 876.601549 " transform="matrix(0.2, 0, 0, -0.2, 0, 356)"/>
<path fill="none" stroke-width="7.9701" stroke-linecap="butt" stroke-linejoin="miter" stroke="rgb(0%, 0%, 0%)" stroke-opacity="1" stroke-miterlimit="10" d="M 777.031238 876.601549 L 777.031238 848.867175 " transform="matrix(0.2, 0, 0, -0.2, 0, 356)"/>
<path fill="none" stroke-width="7.9701" stroke-linecap="butt" stroke-linejoin="miter" stroke="rgb(0%, 0%, 0%)" stroke-opacity="1" stroke-miterlimit="10" d="M 777.031238 793.359363 L 777.031238 765.585926 " transform="matrix(0.2, 0, 0, -0.2, 0, 356)"/>
<path fill="none" stroke-width="7.9701" stroke-linecap="butt" stroke-linejoin="miter" stroke="rgb(0%, 0%, 0%)" stroke-opacity="1" stroke-miterlimit="10" d="M 777.031238 765.585926 L 777.031238 737.851552 " transform="matrix(0.2, 0, 0, -0.2, 0, 356)"/>
<path fill="none" stroke-width="7.9701" stroke-linecap="butt" stroke-linejoin="miter" stroke="rgb(0%, 0%, 0%)" stroke-opacity="1" stroke-miterlimit="10" d="M 777.031238 682.34374 L 777.031238 654.609365 " transform="matrix(0.2, 0, 0, -0.2, 0, 356)"/>
<path fill="none" stroke-width="7.9701" stroke-linecap="butt" stroke-linejoin="miter" stroke="rgb(0%, 0%, 0%)" stroke-opacity="1" stroke-miterlimit="10" d="M 777.031238 654.609365 L 777.031238 626.874991 " transform="matrix(0.2, 0, 0, -0.2, 0, 356)"/>
<path fill="none" stroke-width="7.9701" stroke-linecap="butt" stroke-linejoin="miter" stroke="rgb(0%, 0%, 0%)" stroke-opacity="1" stroke-miterlimit="10" d="M 777.031238 571.367179 L 777.031238 543.593742 " transform="matrix(0.2, 0, 0, -0.2, 0, 356)"/>
<path fill="none" stroke-width="7.9701" stroke-linecap="butt" stroke-linejoin="miter" stroke="rgb(0%, 0%, 0%)" stroke-opacity="1" stroke-miterlimit="10" d="M 777.031238 543.593742 L 777.031238 515.859367 " transform="matrix(0.2, 0, 0, -0.2, 0, 356)"/>
<path fill="none" stroke-width="7.9701" stroke-linecap="butt" stroke-linejoin="miter" stroke="rgb(0%, 0%, 0%)" stroke-opacity="1" stroke-miterlimit="10" d="M 777.031238 460.351556 L 777.031238 432.617181 " transform="matrix(0.2, 0, 0, -0.2, 0, 356)"/>
<path fill="none" stroke-width="7.9701" stroke-linecap="butt" stroke-linejoin="miter" stroke="rgb(0%, 0%, 0%)" stroke-opacity="1" stroke-miterlimit="10" d="M 777.031238 432.617181 L 777.031238 404.843744 " transform="matrix(0.2, 0, 0, -0.2, 0, 356)"/>
<path fill="none" stroke-width="7.9701" stroke-linecap="butt" stroke-linejoin="miter" stroke="rgb(0%, 0%, 0%)" stroke-opacity="1" stroke-miterlimit="10" d="M 777.031238 349.335932 L 777.031238 321.601558 " transform="matrix(0.2, 0, 0, -0.2, 0, 356)"/>
<path fill="none" stroke-width="11.9553" stroke-linecap="butt" stroke-linejoin="miter" stroke="rgb(0%, 0%, 0%)" stroke-opacity="1" stroke-miterlimit="10" d="M 777.031238 1113.593733 L 1060.507797 1113.593733 " transform="matrix(0.2, 0, 0, -0.2, 0, 356)"/>
<path fill="none" stroke-width="11.9553" stroke-linecap="butt" stroke-linejoin="miter" stroke="rgb(0%, 0%, 0%)" stroke-opacity="1" stroke-miterlimit="10" d="M 1060.507797 1239.609357 L 1060.507797 1113.593733 " transform="matrix(0.2, 0, 0, -0.2, 0, 356)"/>
<path fill="none" stroke-width="7.9701" stroke-linecap="butt" stroke-linejoin="miter" stroke="rgb(0%, 0%, 0%)" stroke-opacity="1" stroke-miterlimit="10" d="M 1060.507797 1113.593733 L 1060.507797 1085.312484 " transform="matrix(0.2, 0, 0, -0.2, 0, 356)"/>
<path fill="none" stroke-width="7.9701" stroke-linecap="butt" stroke-linejoin="miter" stroke="rgb(0%, 0%, 0%)" stroke-opacity="1" stroke-miterlimit="10" d="M 1060.507797 1028.749985 L 1060.507797 1000.468735 " transform="matrix(0.2, 0, 0, -0.2, 0, 356)"/>
<path fill="none" stroke-width="7.9701" stroke-linecap="butt" stroke-linejoin="miter" stroke="rgb(0%, 0%, 0%)" stroke-opacity="1" stroke-miterlimit="10" d="M 1060.507797 1000.468735 L 1060.507797 972.187486 " transform="matrix(0.2, 0, 0, -0.2, 0, 356)"/>
<path fill="none" stroke-width="7.9701" stroke-linecap="butt" stroke-linejoin="miter" stroke="rgb(0%, 0%, 0%)" stroke-opacity="1" stroke-miterlimit="10" d="M 1060.507797 915.585924 L 1060.507797 887.343737 " transform="matrix(0.2, 0, 0, -0.2, 0, 356)"/>
<path fill="none" stroke-width="7.9701" stroke-linecap="butt" stroke-linejoin="miter" stroke="rgb(0%, 0%, 0%)" stroke-opacity="1" stroke-miterlimit="10" d="M 1060.507797 887.343737 L 1060.507797 859.023425 " transform="matrix(0.2, 0, 0, -0.2, 0, 356)"/>
<path fill="none" stroke-width="7.9701" stroke-linecap="butt" stroke-linejoin="miter" stroke="rgb(0%, 0%, 0%)" stroke-opacity="1" stroke-miterlimit="10" d="M 1060.507797 802.460926 L 1060.507797 774.179676 " transform="matrix(0.2, 0, 0, -0.2, 0, 356)"/>
<path fill="none" stroke-width="7.9701" stroke-linecap="butt" stroke-linejoin="miter" stroke="rgb(0%, 0%, 0%)" stroke-opacity="1" stroke-miterlimit="10" d="M 1060.507797 774.179676 L 1060.507797 745.898426 " transform="matrix(0.2, 0, 0, -0.2, 0, 356)"/>
<path fill="none" stroke-width="7.9701" stroke-linecap="butt" stroke-linejoin="miter" stroke="rgb(0%, 0%, 0%)" stroke-opacity="1" stroke-miterlimit="10" d="M 1060.507797 689.296865 L 1060.507797 661.054678 " transform="matrix(0.2, 0, 0, -0.2, 0, 356)"/>
<path fill="none" stroke-width="7.9701" stroke-linecap="butt" stroke-linejoin="miter" stroke="rgb(0%, 0%, 0%)" stroke-opacity="1" stroke-miterlimit="10" d="M 1060.507797 661.054678 L 1060.507797 632.734366 " transform="matrix(0.2, 0, 0, -0.2, 0, 356)"/>
<path fill="none" stroke-width="7.9701" stroke-linecap="butt" stroke-linejoin="miter" stroke="rgb(0%, 0%, 0%)" stroke-opacity="1" stroke-miterlimit="10" d="M 1060.507797 576.171866 L 1060.507797 547.890617 " transform="matrix(0.2, 0, 0, -0.2, 0, 356)"/>
<path fill="none" stroke-width="7.9701" stroke-linecap="butt" stroke-linejoin="miter" stroke="rgb(0%, 0%, 0%)" stroke-opacity="1" stroke-miterlimit="10" d="M 1060.507797 547.890617 L 1060.507797 519.609367 " transform="matrix(0.2, 0, 0, -0.2, 0, 356)"/>
<path fill="none" stroke-width="7.9701" stroke-linecap="butt" stroke-linejoin="miter" stroke="rgb(0%, 0%, 0%)" stroke-opacity="1" stroke-miterlimit="10" d="M 1060.507797 463.007806 L 1060.507797 434.765619 " transform="matrix(0.2, 0, 0, -0.2, 0, 356)"/>
<path fill="none" stroke-width="7.9701" stroke-linecap="butt" stroke-linejoin="miter" stroke="rgb(0%, 0%, 0%)" stroke-opacity="1" stroke-miterlimit="10" d="M 1060.507797 434.765619 L 1060.507797 406.445306 " transform="matrix(0.2, 0, 0, -0.2, 0, 356)"/>
<path fill="none" stroke-width="7.9701" stroke-linecap="butt" stroke-linejoin="miter" stroke="rgb(0%, 0%, 0%)" stroke-opacity="1" stroke-miterlimit="10" d="M 1060.507797 349.882807 L 1060.507797 321.601558 " transform="matrix(0.2, 0, 0, -0.2, 0, 356)"/>
<path fill="none" stroke-width="11.9553" stroke-linecap="butt" stroke-linejoin="miter" stroke="rgb(0%, 0%, 0%)" stroke-opacity="1" stroke-miterlimit="10" d="M 1060.507797 1239.609357 L 1344.023417 1239.609357 " transform="matrix(0.2, 0, 0, -0.2, 0, 356)"/>
<path fill="none" stroke-width="11.9553" stroke-linecap="butt" stroke-linejoin="miter" stroke="rgb(0%, 0%, 0%)" stroke-opacity="1" stroke-miterlimit="10" d="M 1344.023417 1365.62498 L 1344.023417 1239.609357 " transform="matrix(0.2, 0, 0, -0.2, 0, 356)"/>
<path fill="none" stroke-width="7.9701" stroke-linecap="butt" stroke-linejoin="miter" stroke="rgb(0%, 0%, 0%)" stroke-opacity="1" stroke-miterlimit="10" d="M 1344.023417 1239.609357 L 1344.023417 1210.937482 " transform="matrix(0.2, 0, 0, -0.2, 0, 356)"/>
<path fill="none" stroke-width="7.9701" stroke-linecap="butt" stroke-linejoin="miter" stroke="rgb(0%, 0%, 0%)" stroke-opacity="1" stroke-miterlimit="10" d="M 1344.023417 1153.55467 L 1344.023417 1124.843733 " transform="matrix(0.2, 0, 0, -0.2, 0, 356)"/>
<path fill="none" stroke-width="7.9701" stroke-linecap="butt" stroke-linejoin="miter" stroke="rgb(0%, 0%, 0%)" stroke-opacity="1" stroke-miterlimit="10" d="M 1344.023417 1124.843733 L 1344.023417 1096.171859 " transform="matrix(0.2, 0, 0, -0.2, 0, 356)"/>
<path fill="none" stroke-width="7.9701" stroke-linecap="butt" stroke-linejoin="miter" stroke="rgb(0%, 0%, 0%)" stroke-opacity="1" stroke-miterlimit="10" d="M 1344.023417 1038.789047 L 1344.023417 1010.117172 " transform="matrix(0.2, 0, 0, -0.2, 0, 356)"/>
<path fill="none" stroke-width="7.9701" stroke-linecap="butt" stroke-linejoin="miter" stroke="rgb(0%, 0%, 0%)" stroke-opacity="1" stroke-miterlimit="10" d="M 1344.023417 1010.117172 L 1344.023417 981.445298 " transform="matrix(0.2, 0, 0, -0.2, 0, 356)"/>
<path fill="none" stroke-width="7.9701" stroke-linecap="butt" stroke-linejoin="miter" stroke="rgb(0%, 0%, 0%)" stroke-opacity="1" stroke-miterlimit="10" d="M 1344.023417 924.062486 L 1344.023417 895.351549 " transform="matrix(0.2, 0, 0, -0.2, 0, 356)"/>
<path fill="none" stroke-width="7.9701" stroke-linecap="butt" stroke-linejoin="miter" stroke="rgb(0%, 0%, 0%)" stroke-opacity="1" stroke-miterlimit="10" d="M 1344.023417 895.351549 L 1344.023417 866.679675 " transform="matrix(0.2, 0, 0, -0.2, 0, 356)"/>
<path fill="none" stroke-width="7.9701" stroke-linecap="butt" stroke-linejoin="miter" stroke="rgb(0%, 0%, 0%)" stroke-opacity="1" stroke-miterlimit="10" d="M 1344.023417 809.296863 L 1344.023417 780.585926 " transform="matrix(0.2, 0, 0, -0.2, 0, 356)"/>
<path fill="none" stroke-width="7.9701" stroke-linecap="butt" stroke-linejoin="miter" stroke="rgb(0%, 0%, 0%)" stroke-opacity="1" stroke-miterlimit="10" d="M 1344.023417 780.585926 L 1344.023417 751.914051 " transform="matrix(0.2, 0, 0, -0.2, 0, 356)"/>
<path fill="none" stroke-width="7.9701" stroke-linecap="butt" stroke-linejoin="miter" stroke="rgb(0%, 0%, 0%)" stroke-opacity="1" stroke-miterlimit="10" d="M 1344.023417 694.53124 L 1344.023417 665.859365 " transform="matrix(0.2, 0, 0, -0.2, 0, 356)"/>
<path fill="none" stroke-width="7.9701" stroke-linecap="butt" stroke-linejoin="miter" stroke="rgb(0%, 0%, 0%)" stroke-opacity="1" stroke-miterlimit="10" d="M 1344.023417 665.859365 L 1344.023417 637.148428 " transform="matrix(0.2, 0, 0, -0.2, 0, 356)"/>
<path fill="none" stroke-width="7.9701" stroke-linecap="butt" stroke-linejoin="miter" stroke="rgb(0%, 0%, 0%)" stroke-opacity="1" stroke-miterlimit="10" d="M 1344.023417 579.804679 L 1344.023417 551.093742 " transform="matrix(0.2, 0, 0, -0.2, 0, 356)"/>
<path fill="none" stroke-width="7.9701" stroke-linecap="butt" stroke-linejoin="miter" stroke="rgb(0%, 0%, 0%)" stroke-opacity="1" stroke-miterlimit="10" d="M 1344.023417 551.093742 L 1344.023417 522.421867 " transform="matrix(0.2, 0, 0, -0.2, 0, 356)"/>
<path fill="none" stroke-width="7.9701" stroke-linecap="butt" stroke-linejoin="miter" stroke="rgb(0%, 0%, 0%)" stroke-opacity="1" stroke-miterlimit="10" d="M 1344.023417 465.039056 L 1344.023417 436.367181 " transform="matrix(0.2, 0, 0, -0.2, 0, 356)"/>
<path fill="none" stroke-width="7.9701" stroke-linecap="butt" stroke-linejoin="miter" stroke="rgb(0%, 0%, 0%)" stroke-opacity="1" stroke-miterlimit="10" d="M 1344.023417 436.367181 L 1344.023417 407.656244 " transform="matrix(0.2, 0, 0, -0.2, 0, 356)"/>
<path fill="none" stroke-width="7.9701" stroke-linecap="butt" stroke-linejoin="miter" stroke="rgb(0%, 0%, 0%)" stroke-opacity="1" stroke-miterlimit="10" d="M 1344.023417 350.273432 L 1344.023417 321.601558 " transform="matrix(0.2, 0, 0, -0.2, 0, 356)"/>
<path fill="none" stroke-width="11.9553" stroke-linecap="butt" stroke-linejoin="miter" stroke="rgb(0%, 0%, 0%)" stroke-opacity="1" stroke-miterlimit="10" d="M 1344.023417 1365.62498 L 1627.539038 1365.62498 " transform="matrix(0.2, 0, 0, -0.2, 0, 356)"/>
<path fill="none" stroke-width="11.9553" stroke-linecap="butt" stroke-linejoin="miter" stroke="rgb(0%, 0%, 0%)" stroke-opacity="1" stroke-miterlimit="10" d="M 1627.539038 1491.60154 L 1627.539038 1365.62498 " transform="matrix(0.2, 0, 0, -0.2, 0, 356)"/>
<path fill="none" stroke-width="7.9701" stroke-linecap="butt" stroke-linejoin="miter" stroke="rgb(0%, 0%, 0%)" stroke-opacity="1" stroke-miterlimit="10" d="M 1627.539038 1365.62498 L 1627.539038 1336.601543 " transform="matrix(0.2, 0, 0, -0.2, 0, 356)"/>
<path fill="none" stroke-width="7.9701" stroke-linecap="butt" stroke-linejoin="miter" stroke="rgb(0%, 0%, 0%)" stroke-opacity="1" stroke-miterlimit="10" d="M 1627.539038 1278.593731 L 1627.539038 1249.609356 " transform="matrix(0.2, 0, 0, -0.2, 0, 356)"/>
<path fill="none" stroke-width="7.9701" stroke-linecap="butt" stroke-linejoin="miter" stroke="rgb(0%, 0%, 0%)" stroke-opacity="1" stroke-miterlimit="10" d="M 1627.539038 1249.609356 L 1627.539038 1220.624982 " transform="matrix(0.2, 0, 0, -0.2, 0, 356)"/>
<path fill="none" stroke-width="7.9701" stroke-linecap="butt" stroke-linejoin="miter" stroke="rgb(0%, 0%, 0%)" stroke-opacity="1" stroke-miterlimit="10" d="M 1627.539038 1162.61717 L 1627.539038 1133.593733 " transform="matrix(0.2, 0, 0, -0.2, 0, 356)"/>
<path fill="none" stroke-width="7.9701" stroke-linecap="butt" stroke-linejoin="miter" stroke="rgb(0%, 0%, 0%)" stroke-opacity="1" stroke-miterlimit="10" d="M 1627.539038 1133.593733 L 1627.539038 1104.609359 " transform="matrix(0.2, 0, 0, -0.2, 0, 356)"/>
<path fill="none" stroke-width="7.9701" stroke-linecap="butt" stroke-linejoin="miter" stroke="rgb(0%, 0%, 0%)" stroke-opacity="1" stroke-miterlimit="10" d="M 1627.539038 1046.601547 L 1627.539038 1017.617172 " transform="matrix(0.2, 0, 0, -0.2, 0, 356)"/>
<path fill="none" stroke-width="7.9701" stroke-linecap="butt" stroke-linejoin="miter" stroke="rgb(0%, 0%, 0%)" stroke-opacity="1" stroke-miterlimit="10" d="M 1627.539038 1017.617172 L 1627.539038 988.593735 " transform="matrix(0.2, 0, 0, -0.2, 0, 356)"/>
<path fill="none" stroke-width="7.9701" stroke-linecap="butt" stroke-linejoin="miter" stroke="rgb(0%, 0%, 0%)" stroke-opacity="1" stroke-miterlimit="10" d="M 1627.539038 930.624986 L 1627.539038 901.601549 " transform="matrix(0.2, 0, 0, -0.2, 0, 356)"/>
<path fill="none" stroke-width="7.9701" stroke-linecap="butt" stroke-linejoin="miter" stroke="rgb(0%, 0%, 0%)" stroke-opacity="1" stroke-miterlimit="10" d="M 1627.539038 901.601549 L 1627.539038 872.617174 " transform="matrix(0.2, 0, 0, -0.2, 0, 356)"/>
<path fill="none" stroke-width="7.9701" stroke-linecap="butt" stroke-linejoin="miter" stroke="rgb(0%, 0%, 0%)" stroke-opacity="1" stroke-miterlimit="10" d="M 1627.539038 814.609363 L 1627.539038 785.585926 " transform="matrix(0.2, 0, 0, -0.2, 0, 356)"/>
<path fill="none" stroke-width="7.9701" stroke-linecap="butt" stroke-linejoin="miter" stroke="rgb(0%, 0%, 0%)" stroke-opacity="1" stroke-miterlimit="10" d="M 1627.539038 785.585926 L 1627.539038 756.601551 " transform="matrix(0.2, 0, 0, -0.2, 0, 356)"/>
<path fill="none" stroke-width="7.9701" stroke-linecap="butt" stroke-linejoin="miter" stroke="rgb(0%, 0%, 0%)" stroke-opacity="1" stroke-miterlimit="10" d="M 1627.539038 698.59374 L 1627.539038 669.609365 " transform="matrix(0.2, 0, 0, -0.2, 0, 356)"/>
<path fill="none" stroke-width="7.9701" stroke-linecap="butt" stroke-linejoin="miter" stroke="rgb(0%, 0%, 0%)" stroke-opacity="1" stroke-miterlimit="10" d="M 1627.539038 669.609365 L 1627.539038 640.585928 " transform="matrix(0.2, 0, 0, -0.2, 0, 356)"/>
<path fill="none" stroke-width="7.9701" stroke-linecap="butt" stroke-linejoin="miter" stroke="rgb(0%, 0%, 0%)" stroke-opacity="1" stroke-miterlimit="10" d="M 1627.539038 582.617179 L 1627.539038 553.593742 " transform="matrix(0.2, 0, 0, -0.2, 0, 356)"/>
<path fill="none" stroke-width="7.9701" stroke-linecap="butt" stroke-linejoin="miter" stroke="rgb(0%, 0%, 0%)" stroke-opacity="1" stroke-miterlimit="10" d="M 1627.539038 553.593742 L 1627.539038 524.609367 " transform="matrix(0.2, 0, 0, -0.2, 0, 356)"/>
<path fill="none" stroke-width="7.9701" stroke-linecap="butt" stroke-linejoin="miter" stroke="rgb(0%, 0%, 0%)" stroke-opacity="1" stroke-miterlimit="10" d="M 1627.539038 466.601556 L 1627.539038 437.617181 " transform="matrix(0.2, 0, 0, -0.2, 0, 356)"/>
<path fill="none" stroke-width="7.9701" stroke-linecap="butt" stroke-linejoin="miter" stroke="rgb(0%, 0%, 0%)" stroke-opacity="1" stroke-miterlimit="10" d="M 1627.539038 437.617181 L 1627.539038 408.593744 " transform="matrix(0.2, 0, 0, -0.2, 0, 356)"/>
<path fill="none" stroke-width="7.9701" stroke-linecap="butt" stroke-linejoin="miter" stroke="rgb(0%, 0%, 0%)" stroke-opacity="1" stroke-miterlimit="10" d="M 1627.539038 350.585932 L 1627.539038 321.601558 " transform="matrix(0.2, 0, 0, -0.2, 0, 356)"/>
<path fill="none" stroke-width="7.9701" stroke-linecap="butt" stroke-linejoin="miter" stroke="rgb(0%, 0%, 0%)" stroke-opacity="1" stroke-miterlimit="10" d="M 89.570311 861.60155 L 118.632811 861.60155 " transform="matrix(0.2, 0, 0, -0.2, 0, 356)"/>
<path fill="none" stroke-width="7.9701" stroke-linecap="butt" stroke-linejoin="miter" stroke="rgb(0%, 0%, 0%)" stroke-opacity="1" stroke-miterlimit="10" d="M 176.796872 861.60155 L 205.859372 861.60155 " transform="matrix(0.2, 0, 0, -0.2, 0, 356)"/>
<path fill="none" stroke-width="7.9701" stroke-linecap="butt" stroke-linejoin="miter" stroke="rgb(0%, 0%, 0%)" stroke-opacity="1" stroke-miterlimit="10" d="M 205.859372 861.60155 L 234.921871 861.60155 " transform="matrix(0.2, 0, 0, -0.2, 0, 356)"/>
<path fill="none" stroke-width="7.9701" stroke-linecap="butt" stroke-linejoin="miter" stroke="rgb(0%, 0%, 0%)" stroke-opacity="1" stroke-miterlimit="10" d="M 293.085933 861.60155 L 322.187495 861.60155 " transform="matrix(0.2, 0, 0, -0.2, 0, 356)"/>
<path fill="none" stroke-width="7.9701" stroke-linecap="butt" stroke-linejoin="miter" stroke="rgb(0%, 0%, 0%)" stroke-opacity="1" stroke-miterlimit="10" d="M 322.187495 861.60155 L 351.249995 861.60155 " transform="matrix(0.2, 0, 0, -0.2, 0, 356)"/>
<path fill="none" stroke-width="7.9701" stroke-linecap="butt" stroke-linejoin="miter" stroke="rgb(0%, 0%, 0%)" stroke-opacity="1" stroke-miterlimit="10" d="M 409.414056 861.60155 L 438.476556 861.60155 " transform="matrix(0.2, 0, 0, -0.2, 0, 356)"/>
<path fill="none" stroke-width="7.9701" stroke-linecap="butt" stroke-linejoin="miter" stroke="rgb(0%, 0%, 0%)" stroke-opacity="1" stroke-miterlimit="10" d="M 438.476556 861.60155 L 467.539056 861.60155 " transform="matrix(0.2, 0, 0, -0.2, 0, 356)"/>
<path fill="none" stroke-width="7.9701" stroke-linecap="butt" stroke-linejoin="miter" stroke="rgb(0%, 0%, 0%)" stroke-opacity="1" stroke-miterlimit="10" d="M 525.703117 861.60155 L 554.765617 861.60155 " transform="matrix(0.2, 0, 0, -0.2, 0, 356)"/>
<path fill="none" stroke-width="7.9701" stroke-linecap="butt" stroke-linejoin="miter" stroke="rgb(0%, 0%, 0%)" stroke-opacity="1" stroke-miterlimit="10" d="M 554.765617 861.60155 L 583.867179 861.60155 " transform="matrix(0.2, 0, 0, -0.2, 0, 356)"/>
<path fill="none" stroke-width="7.9701" stroke-linecap="butt" stroke-linejoin="miter" stroke="rgb(0%, 0%, 0%)" stroke-opacity="1" stroke-miterlimit="10" d="M 641.992178 861.60155 L 671.09374 861.60155 " transform="matrix(0.2, 0, 0, -0.2, 0, 356)"/>
<path fill="none" stroke-width="7.9701" stroke-linecap="butt" stroke-linejoin="miter" stroke="rgb(0%, 0%, 0%)" stroke-opacity="1" stroke-miterlimit="10" d="M 671.09374 861.60155 L 700.15624 861.60155 " transform="matrix(0.2, 0, 0, -0.2, 0, 356)"/>
<path fill="none" stroke-width="7.9701" stroke-linecap="butt" stroke-linejoin="miter" stroke="rgb(0%, 0%, 0%)" stroke-opacity="1" stroke-miterlimit="10" d="M 758.320301 861.60155 L 787.382801 861.60155 " transform="matrix(0.2, 0, 0, -0.2, 0, 356)"/>
<path fill="none" stroke-width="7.9701" stroke-linecap="butt" stroke-linejoin="miter" stroke="rgb(0%, 0%, 0%)" stroke-opacity="1" stroke-miterlimit="10" d="M 787.382801 861.60155 L 816.484363 861.60155 " transform="matrix(0.2, 0, 0, -0.2, 0, 356)"/>
<path fill="none" stroke-width="7.9701" stroke-linecap="butt" stroke-linejoin="miter" stroke="rgb(0%, 0%, 0%)" stroke-opacity="1" stroke-miterlimit="10" d="M 874.609362 861.60155 L 903.710924 861.60155 " transform="matrix(0.2, 0, 0, -0.2, 0, 356)"/>
<path fill="none" stroke-width="7.9701" stroke-linecap="butt" stroke-linejoin="miter" stroke="rgb(0%, 0%, 0%)" stroke-opacity="1" stroke-miterlimit="10" d="M 903.710924 861.60155 L 932.773424 861.60155 " transform="matrix(0.2, 0, 0, -0.2, 0, 356)"/>
<path fill="none" stroke-width="7.9701" stroke-linecap="butt" stroke-linejoin="miter" stroke="rgb(0%, 0%, 0%)" stroke-opacity="1" stroke-miterlimit="10" d="M 990.937485 861.60155 L 1019.999985 861.60155 " transform="matrix(0.2, 0, 0, -0.2, 0, 356)"/>
<path fill="none" stroke-width="7.9701" stroke-linecap="butt" stroke-linejoin="miter" stroke="rgb(0%, 0%, 0%)" stroke-opacity="1" stroke-miterlimit="10" d="M 1019.999985 861.60155 L 1049.062484 861.60155 " transform="matrix(0.2, 0, 0, -0.2, 0, 356)"/>
<path fill="none" stroke-width="7.9701" stroke-linecap="butt" stroke-linejoin="miter" stroke="rgb(0%, 0%, 0%)" stroke-opacity="1" stroke-miterlimit="10" d="M 1107.226546 861.60155 L 1136.328108 861.60155 " transform="matrix(0.2, 0, 0, -0.2, 0, 356)"/>
<path fill="none" stroke-width="7.9701" stroke-linecap="butt" stroke-linejoin="miter" stroke="rgb(0%, 0%, 0%)" stroke-opacity="1" stroke-miterlimit="10" d="M 1136.328108 861.60155 L 1165.390608 861.60155 " transform="matrix(0.2, 0, 0, -0.2, 0, 356)"/>
<path fill="none" stroke-width="7.9701" stroke-linecap="butt" stroke-linejoin="miter" stroke="rgb(0%, 0%, 0%)" stroke-opacity="1" stroke-miterlimit="10" d="M 1223.554669 861.60155 L 1252.617169 861.60155 " transform="matrix(0.2, 0, 0, -0.2, 0, 356)"/>
<path fill="none" stroke-width="7.9701" stroke-linecap="butt" stroke-linejoin="miter" stroke="rgb(0%, 0%, 0%)" stroke-opacity="1" stroke-miterlimit="10" d="M 1252.617169 861.60155 L 1281.718731 861.60155 " transform="matrix(0.2, 0, 0, -0.2, 0, 356)"/>
<path fill="none" stroke-width="7.9701" stroke-linecap="butt" stroke-linejoin="miter" stroke="rgb(0%, 0%, 0%)" stroke-opacity="1" stroke-miterlimit="10" d="M 1339.84373 861.60155 L 1368.945292 861.60155 " transform="matrix(0.2, 0, 0, -0.2, 0, 356)"/>
<path fill="none" stroke-width="7.9701" stroke-linecap="butt" stroke-linejoin="miter" stroke="rgb(0%, 0%, 0%)" stroke-opacity="1" stroke-miterlimit="10" d="M 1368.945292 861.60155 L 1398.007792 861.60155 " transform="matrix(0.2, 0, 0, -0.2, 0, 356)"/>
<path fill="none" stroke-width="7.9701" stroke-linecap="butt" stroke-linejoin="miter" stroke="rgb(0%, 0%, 0%)" stroke-opacity="1" stroke-miterlimit="10" d="M 1456.171853 861.60155 L 1485.234353 861.60155 " transform="matrix(0.2, 0, 0, -0.2, 0, 356)"/>
<path fill="none" stroke-width="7.9701" stroke-linecap="butt" stroke-linejoin="miter" stroke="rgb(0%, 0%, 0%)" stroke-opacity="1" stroke-miterlimit="10" d="M 1485.234353 861.60155 L 1514.296852 861.60155 " transform="matrix(0.2, 0, 0, -0.2, 0, 356)"/>
<path fill="none" stroke-width="7.9701" stroke-linecap="butt" stroke-linejoin="miter" stroke="rgb(0%, 0%, 0%)" stroke-opacity="1" stroke-miterlimit="10" d="M 1572.460914 861.60155 L 1601.562476 861.60155 " transform="matrix(0.2, 0, 0, -0.2, 0, 356)"/>
<path fill="none" stroke-width="7.9701" stroke-linecap="butt" stroke-linejoin="miter" stroke="rgb(0%, 0%, 0%)" stroke-opacity="1" stroke-miterlimit="10" d="M 1601.562476 861.60155 L 1630.624976 861.60155 " transform="matrix(0.2, 0, 0, -0.2, 0, 356)"/>
<path fill="none" stroke-width="7.9701" stroke-linecap="butt" stroke-linejoin="miter" stroke="rgb(0%, 0%, 0%)" stroke-opacity="1" stroke-miterlimit="10" d="M 1688.789037 861.60155 L 1717.851537 861.60155 " transform="matrix(0.2, 0, 0, -0.2, 0, 356)"/>
<path fill="none" stroke-width="7.9701" stroke-linecap="butt" stroke-linejoin="miter" stroke="rgb(0%, 0%, 0%)" stroke-opacity="1" stroke-miterlimit="10" d="M 1717.851537 861.60155 L 1746.914036 861.60155 " transform="matrix(0.2, 0, 0, -0.2, 0, 356)"/>
<path fill="none" stroke-width="7.9701" stroke-linecap="butt" stroke-linejoin="miter" stroke="rgb(0%, 0%, 0%)" stroke-opacity="1" stroke-miterlimit="10" d="M 1805.078098 861.60155 L 1834.140598 861.60155 " transform="matrix(0.2, 0, 0, -0.2, 0, 356)"/>
<path fill="none" stroke-width="7.9701" stroke-linecap="butt" stroke-linejoin="miter" stroke="rgb(0%, 0%, 0%)" stroke-opacity="1" stroke-miterlimit="10" d="M 1834.140598 861.60155 L 1863.24216 861.60155 " transform="matrix(0.2, 0, 0, -0.2, 0, 356)"/>
<path fill="none" stroke-width="7.9701" stroke-linecap="butt" stroke-linejoin="miter" stroke="rgb(0%, 0%, 0%)" stroke-opacity="1" stroke-miterlimit="10" d="M 1921.406221 861.60155 L 1950.468721 861.60155 " transform="matrix(0.2, 0, 0, -0.2, 0, 356)"/>
<path fill-rule="nonzero" fill="rgb(100%, 100%, 100%)" fill-opacity="1" d="M 12.695312 291.703125 L 41.976562 291.703125 L 41.976562 318.585938 L 12.695312 318.585938 Z M 12.695312 291.703125 "/>
<path fill-rule="nonzero" fill="rgb(0%, 0%, 0%)" fill-opacity="1" d="M 34.875 303.058594 C 34.875 299.527344 32.5625 297.183594 29.3125 297.183594 C 24.59375 297.183594 19.78125 302.121094 19.78125 307.214844 C 19.78125 310.839844 22.21875 313.027344 25.375 313.027344 C 30 313.027344 34.875 308.246094 34.875 303.058594 Z M 25.5 312.464844 C 23.34375 312.464844 21.8125 310.714844 21.8125 307.839844 C 21.8125 306.871094 22.125 303.683594 23.8125 301.121094 C 25.3125 298.871094 27.4375 297.714844 29.15625 297.714844 C 30.96875 297.714844 32.90625 298.933594 32.90625 302.183594 C 32.90625 303.777344 32.34375 307.183594 30.15625 309.839844 C 29.125 311.183594 27.34375 312.464844 25.5 312.464844 Z M 25.5 312.464844 "/>
<path fill-rule="nonzero" fill="rgb(100%, 100%, 100%)" fill-opacity="1" d="M 346.15625 291.703125 L 378.078125 291.703125 L 378.078125 318.585938 L 346.15625 318.585938 Z M 346.15625 291.703125 "/>
<path fill-rule="nonzero" fill="rgb(0%, 0%, 0%)" fill-opacity="1" d="M 362.773438 303.589844 L 360.929688 299.246094 C 360.867188 299.089844 360.804688 298.996094 360.804688 298.964844 C 360.804688 298.839844 361.179688 298.433594 362.117188 298.339844 C 362.335938 298.308594 362.554688 298.308594 362.554688 297.933594 C 362.554688 297.652344 362.273438 297.652344 362.210938 297.652344 C 361.304688 297.652344 360.367188 297.714844 359.460938 297.714844 C 358.929688 297.714844 357.554688 297.652344 357.023438 297.652344 C 356.898438 297.652344 356.617188 297.652344 356.617188 298.089844 C 356.617188 298.339844 356.835938 298.339844 357.117188 298.339844 C 358.429688 298.339844 358.585938 298.558594 358.773438 299.027344 L 361.335938 305.121094 L 356.742188 310.058594 L 356.460938 310.308594 C 355.398438 311.464844 354.367188 311.808594 353.242188 311.871094 C 352.960938 311.902344 352.773438 311.902344 352.773438 312.308594 C 352.773438 312.339844 352.773438 312.558594 353.054688 312.558594 C 353.710938 312.558594 354.429688 312.496094 355.117188 312.496094 C 355.898438 312.496094 356.773438 312.558594 357.554688 312.558594 C 357.679688 312.558594 357.929688 312.558594 357.929688 312.121094 C 357.929688 311.902344 357.710938 311.871094 357.679688 311.871094 C 357.492188 311.871094 356.804688 311.808594 356.804688 311.214844 C 356.804688 310.871094 357.117188 310.496094 357.398438 310.214844 L 359.617188 307.871094 L 361.585938 305.746094 L 363.773438 310.933594 C 363.867188 311.183594 363.898438 311.214844 363.898438 311.246094 C 363.898438 311.433594 363.492188 311.808594 362.617188 311.871094 C 362.398438 311.902344 362.179688 311.933594 362.179688 312.308594 C 362.179688 312.558594 362.429688 312.558594 362.523438 312.558594 C 363.117188 312.558594 364.648438 312.496094 365.273438 312.496094 C 365.804688 312.496094 367.148438 312.558594 367.679688 312.558594 C 367.835938 312.558594 368.117188 312.558594 368.117188 312.152344 C 368.117188 311.871094 367.898438 311.871094 367.710938 311.871094 C 366.242188 311.871094 366.210938 311.808594 365.835938 310.933594 C 364.992188 308.902344 363.523438 305.496094 363.023438 304.183594 C 364.492188 302.652344 366.804688 300.058594 367.492188 299.464844 C 368.117188 298.933594 368.960938 298.402344 370.273438 298.339844 C 370.554688 298.308594 370.742188 298.308594 370.742188 297.902344 C 370.742188 297.871094 370.742188 297.652344 370.460938 297.652344 C 369.804688 297.652344 369.085938 297.714844 368.398438 297.714844 C 367.585938 297.714844 366.773438 297.652344 365.992188 297.652344 C 365.867188 297.652344 365.585938 297.652344 365.585938 298.089844 C 365.585938 298.246094 365.679688 298.308594 365.835938 298.339844 C 366.023438 298.371094 366.710938 298.402344 366.710938 299.027344 C 366.710938 299.308594 366.460938 299.589844 366.304688 299.808594 Z M 362.773438 303.589844 "/>
<path fill-rule="nonzero" fill="rgb(100%, 100%, 100%)" fill-opacity="1" d="M 12.453125 -5.757812 L 41.976562 -5.757812 L 41.976562 21.125 L 12.453125 21.125 Z M 12.453125 -5.757812 "/>
<path fill-rule="nonzero" fill="rgb(0%, 0%, 0%)" fill-opacity="1" d="M 31.511719 2.695312 L 31.792969 2.382812 C 32.449219 1.726562 33.167969 0.976562 34.667969 0.882812 C 34.917969 0.851562 35.105469 0.851562 35.105469 0.476562 C 35.105469 0.289062 34.980469 0.195312 34.824219 0.195312 C 34.261719 0.195312 33.605469 0.257812 33.042969 0.257812 C 32.324219 0.257812 31.542969 0.195312 30.855469 0.195312 C 30.730469 0.195312 30.449219 0.195312 30.449219 0.632812 C 30.449219 0.851562 30.636719 0.882812 30.761719 0.882812 C 30.917969 0.882812 31.542969 0.914062 31.542969 1.382812 C 31.542969 1.757812 31.042969 2.320312 30.949219 2.414062 L 25.886719 8.257812 L 23.511719 1.789062 C 23.355469 1.476562 23.355469 1.414062 23.355469 1.414062 C 23.355469 0.882812 24.449219 0.882812 24.667969 0.882812 C 24.949219 0.882812 25.167969 0.882812 25.167969 0.445312 C 25.167969 0.195312 24.917969 0.195312 24.855469 0.195312 C 24.230469 0.195312 22.699219 0.257812 22.105469 0.257812 C 21.542969 0.257812 20.199219 0.195312 19.667969 0.195312 C 19.542969 0.195312 19.230469 0.195312 19.230469 0.632812 C 19.230469 0.882812 19.449219 0.882812 19.730469 0.882812 C 21.042969 0.882812 21.136719 1.070312 21.324219 1.632812 L 24.011719 8.789062 C 24.042969 8.851562 24.105469 9.101562 24.105469 9.164062 C 24.105469 9.226562 23.230469 12.757812 23.136719 13.132812 C 22.855469 14.351562 22.824219 14.414062 21.074219 14.414062 C 20.667969 14.414062 20.480469 14.414062 20.480469 14.851562 C 20.480469 15.101562 20.761719 15.101562 20.792969 15.101562 C 21.417969 15.101562 22.917969 15.039062 23.542969 15.039062 C 24.136719 15.039062 25.730469 15.101562 26.324219 15.101562 C 26.480469 15.101562 26.761719 15.101562 26.761719 14.664062 C 26.761719 14.414062 26.542969 14.414062 26.136719 14.414062 C 26.105469 14.414062 25.667969 14.414062 25.292969 14.382812 C 24.855469 14.351562 24.730469 14.289062 24.730469 14.039062 C 24.730469 13.882812 24.917969 13.101562 25.011719 12.664062 L 25.792969 9.570312 C 25.886719 9.164062 25.917969 9.101562 26.105469 8.914062 Z M 31.511719 2.695312 "/>
<path fill="none" stroke-width="11.9553" stroke-linecap="butt" stroke-linejoin="miter" stroke="rgb(0%, 0%, 0%)" stroke-opacity="1" stroke-miterlimit="10" d="M 48.007812 321.601558 L 1830.039035 321.601558 " transform="matrix(0.2, 0, 0, -0.2, 0, 356)"/>
<path fill="none" stroke-width="11.9553" stroke-linecap="butt" stroke-linejoin="miter" stroke="rgb(0%, 0%, 0%)" stroke-opacity="1" stroke-miterlimit="10" d="M 209.999997 177.617185 L 209.999997 1761.601536 " transform="matrix(0.2, 0, 0, -0.2, 0, 356)"/>
<path fill-rule="nonzero" fill="rgb(0%, 0%, 0%)" fill-opacity="1" d="M 159.597656 348.300781 C 160.785156 347.894531 162.785156 347.300781 162.785156 345.363281 C 162.785156 343.050781 160.066406 341.988281 158.097656 341.988281 C 157.160156 341.988281 156.191406 342.207031 155.347656 342.707031 C 155.222656 342.769531 155.066406 342.957031 154.910156 342.957031 C 154.597656 342.957031 154.035156 341.988281 153.722656 341.988281 C 153.535156 341.988281 153.503906 342.207031 153.503906 342.300781 L 153.503906 345.863281 C 153.503906 345.988281 153.597656 346.144531 153.785156 346.144531 C 154.097656 346.144531 154.066406 345.519531 154.160156 345.175781 C 154.628906 343.457031 156.191406 342.707031 157.691406 342.613281 L 158.097656 342.613281 C 159.441406 342.613281 161.003906 343.488281 161.003906 345.363281 C 161.003906 347.175781 159.222656 348.113281 157.566406 348.113281 C 157.253906 348.113281 156.941406 348.113281 156.628906 348.113281 L 156.472656 348.113281 C 156.285156 348.113281 156.066406 348.113281 156.066406 348.332031 L 156.066406 348.363281 C 156.097656 348.550781 156.285156 348.582031 156.472656 348.582031 L 158.316406 348.582031 C 159.878906 348.707031 161.316406 349.738281 161.472656 351.363281 L 161.472656 351.582031 C 161.472656 353.425781 159.753906 354.582031 158.003906 354.582031 C 156.097656 354.582031 154.128906 353.957031 153.816406 351.582031 C 153.816406 351.425781 153.753906 351.238281 153.535156 351.238281 C 153.316406 351.269531 153.285156 351.425781 153.285156 351.582031 C 153.285156 354.175781 155.878906 355.207031 158.128906 355.207031 C 160.191406 355.207031 163.066406 354.238281 163.316406 351.769531 L 163.316406 351.644531 C 163.316406 349.675781 161.253906 348.707031 159.597656 348.300781 Z M 159.597656 348.300781 "/>
<path fill-rule="nonzero" fill="rgb(0%, 0%, 0%)" fill-opacity="1" d="M 171.695312 341.988281 C 168.320312 342.394531 165.632812 345.050781 165.632812 348.644531 C 165.632812 351.925781 168.226562 355.175781 172.101562 355.175781 C 175.601562 355.175781 178.570312 352.269531 178.570312 348.644531 C 178.570312 345.457031 176.070312 341.988281 172.132812 341.988281 C 172.007812 341.988281 171.851562 341.988281 171.695312 341.988281 Z M 167.507812 348.863281 L 167.507812 348.519531 C 167.507812 346.019531 168.414062 343.082031 171.570312 342.550781 C 171.757812 342.519531 171.914062 342.519531 172.101562 342.519531 C 174.914062 342.519531 176.664062 345.238281 176.664062 348.269531 C 176.664062 350.675781 175.945312 353.738281 172.976562 354.519531 C 172.695312 354.582031 172.414062 354.613281 172.132812 354.613281 L 171.945312 354.613281 C 169.351562 354.519531 167.945312 352.050781 167.601562 349.644531 Z M 167.507812 348.863281 "/>
<path fill-rule="nonzero" fill="rgb(0%, 0%, 0%)" fill-opacity="1" d="M 181.027344 342.332031 L 181.027344 342.925781 L 181.464844 342.925781 C 182.058594 342.925781 182.683594 343.019531 182.683594 343.894531 L 182.683594 353.363281 C 182.683594 354.207031 181.964844 354.238281 181.308594 354.238281 L 181.027344 354.238281 L 181.027344 354.832031 L 186.808594 354.832031 C 187.214844 354.832031 187.589844 354.863281 187.996094 354.863281 C 189.996094 354.863281 192.339844 353.925781 192.558594 351.519531 L 192.558594 351.332031 C 192.558594 348.800781 189.683594 347.769531 187.777344 347.769531 C 186.527344 347.769531 185.339844 347.894531 184.152344 347.988281 L 184.152344 343.769531 C 184.152344 343.332031 184.214844 342.925781 184.996094 342.925781 L 187.308594 342.925781 C 188.277344 342.925781 189.371094 342.988281 190.089844 343.707031 C 190.777344 344.425781 190.871094 345.644531 190.964844 346.582031 L 191.496094 346.582031 L 191.027344 342.332031 Z M 184.152344 348.613281 C 184.402344 348.613281 184.652344 348.550781 184.902344 348.519531 L 186.277344 348.457031 C 186.558594 348.425781 186.839844 348.394531 187.152344 348.394531 C 188.714844 348.394531 190.683594 349.394531 190.683594 351.238281 C 190.683594 352.988281 189.339844 354.269531 187.339844 354.269531 C 187.058594 354.269531 186.746094 354.238281 186.496094 354.238281 L 184.964844 354.238281 C 184.496094 354.238281 184.246094 354.207031 184.152344 353.582031 Z M 184.152344 348.613281 "/>
<path fill-rule="nonzero" fill="rgb(0%, 0%, 0%)" fill-opacity="1" d="M 194.90625 342.332031 L 194.90625 342.925781 L 195.375 342.925781 C 195.96875 342.925781 196.5625 343.019531 196.5625 343.894531 L 196.5625 353.363281 C 196.5625 354.207031 195.875 354.238281 195.1875 354.238281 L 194.90625 354.238281 L 194.90625 354.832031 L 199.8125 354.832031 L 199.8125 354.238281 L 199.375 354.238281 C 198.75 354.238281 198.15625 354.175781 198.15625 353.300781 L 198.15625 349.113281 L 201.875 349.113281 C 203.65625 348.988281 205.9375 347.800781 205.9375 345.769531 C 205.9375 343.550781 203.59375 342.488281 201.6875 342.332031 Z M 198.125 348.582031 L 198.125 343.582031 C 198.21875 342.988281 198.46875 342.925781 198.875 342.925781 L 200.3125 342.925781 C 201.9375 342.925781 204.0625 342.988281 204.0625 345.769531 C 204.0625 346.425781 203.96875 347.113281 203.5625 347.613281 C 202.90625 348.394531 201.8125 348.582031 200.84375 348.582031 Z M 198.125 348.582031 "/>
<path fill-rule="nonzero" fill="rgb(0%, 0%, 0%)" fill-opacity="1" d="M 210.632812 352.550781 C 210.132812 352.644531 209.632812 353.082031 209.632812 353.675781 C 209.632812 354.300781 210.164062 354.832031 210.789062 354.832031 C 211.414062 354.832031 211.976562 354.363281 211.976562 353.707031 C 211.976562 353.082031 211.445312 352.519531 210.820312 352.519531 C 210.757812 352.519531 210.695312 352.550781 210.632812 352.550781 Z M 210.632812 352.550781 "/>
<path fill-rule="nonzero" fill="rgb(0%, 0%, 0%)" fill-opacity="1" d="M 226.035156 341.113281 C 226.722656 340.050781 228.097656 339.519531 229.378906 339.519531 C 230.816406 339.519531 231.972656 340.425781 231.972656 342.269531 C 231.972656 343.800781 231.222656 345.675781 229.628906 346.082031 C 229.066406 346.238281 227.566406 346.082031 227.566406 346.519531 C 227.566406 346.707031 227.753906 346.769531 227.941406 346.769531 L 229.222656 346.769531 C 231.566406 346.769531 232.441406 348.738281 232.441406 350.550781 C 232.441406 352.300781 231.816406 354.707031 229.410156 354.707031 C 227.816406 354.707031 226.285156 353.988281 225.410156 352.582031 L 225.628906 352.582031 C 226.316406 352.582031 226.910156 352.175781 226.910156 351.425781 C 226.910156 350.707031 226.378906 350.238281 225.691406 350.238281 L 225.597656 350.238281 C 224.941406 350.269531 224.503906 350.800781 224.503906 351.425781 C 224.503906 353.894531 227.066406 355.332031 229.503906 355.332031 C 232.097656 355.332031 234.660156 353.488281 234.660156 350.738281 C 234.660156 348.613281 232.628906 346.550781 230.410156 346.457031 C 232.285156 345.800781 233.972656 344.425781 233.972656 342.269531 C 233.972656 340.082031 231.566406 338.957031 229.535156 338.957031 C 227.660156 338.957031 225.191406 339.863281 225.191406 342.113281 C 225.191406 342.675781 225.441406 343.175781 226.191406 343.300781 L 226.285156 343.300781 C 226.941406 343.300781 227.410156 342.863281 227.410156 342.207031 C 227.410156 341.488281 226.847656 341.082031 226.253906 341.082031 C 226.191406 341.082031 226.128906 341.113281 226.035156 341.113281 Z M 226.035156 341.113281 "/>
<path fill-rule="nonzero" fill="rgb(0%, 0%, 0%)" fill-opacity="1" d="M 238.527344 340.457031 L 238.527344 341.175781 C 239.621094 341.175781 240.652344 340.988281 241.683594 340.519531 L 241.683594 353.082031 C 241.683594 354.019531 240.777344 354.175781 239.808594 354.175781 C 239.402344 354.175781 238.996094 354.144531 238.652344 354.144531 L 238.652344 354.832031 L 246.371094 354.832031 L 246.371094 354.144531 C 245.996094 354.144531 245.558594 354.175781 245.152344 354.175781 C 244.214844 354.175781 243.339844 354.019531 243.339844 353.113281 L 243.339844 339.300781 C 243.339844 339.144531 243.308594 338.957031 243.058594 338.957031 C 242.746094 338.957031 242.402344 339.394531 242.089844 339.582031 C 241.027344 340.269531 239.746094 340.457031 238.527344 340.457031 Z M 238.527344 340.457031 "/>
<path fill-rule="nonzero" fill="rgb(0%, 0%, 0%)" fill-opacity="1" d="M 252.140625 352.550781 C 251.640625 352.644531 251.140625 353.082031 251.140625 353.675781 C 251.140625 354.300781 251.671875 354.832031 252.296875 354.832031 C 252.921875 354.832031 253.484375 354.363281 253.484375 353.707031 C 253.484375 353.082031 252.953125 352.519531 252.328125 352.519531 C 252.265625 352.519531 252.203125 352.550781 252.140625 352.550781 Z M 252.140625 352.550781 "/>
</svg>
