<?xml version="1.0" encoding="UTF-8"?>
<svg xmlns="http://www.w3.org/2000/svg" xmlns:xlink="http://www.w3.org/1999/xlink" width="390" height="320" viewBox="0 0 390 320">
<path fill="none" stroke-width="11.9553" stroke-linecap="butt" stroke-linejoin="miter" stroke="rgb(0%, 0%, 0%)" stroke-opacity="1" stroke-miterlimit="10" d="M 119.999998 699.609365 L 160.19531 710.546864 L 200.35156 721.757802 L 240.546871 733.320302 L 280.703121 745.234364 L 320.898433 757.460926 L 361.054682 770.078114 L 401.249994 783.007801 L 441.445306 796.367176 L 481.601555 810.078113 L 521.796867 824.179675 L 561.992179 838.710925 L 602.148429 853.671862 L 642.34374 869.023425 L 682.49999 884.843737 L 722.695302 901.132799 L 762.851551 917.890611 L 803.046863 935.117174 L 843.203112 952.851548 L 883.398424 971.054673 L 923.593736 989.843735 L 963.749986 1009.14061 L 1003.945298 1029.023422 L 1044.101547 1049.492172 L 1084.296859 1070.507797 L 1124.492171 1092.148421 L 1164.64842 1114.414046 L 1204.843732 1137.304671 L 1245.039044 1160.89842 L 1285.195293 1185.156232 L 1325.351543 1210.117169 L 1365.546855 1235.781232 L 1405.703104 1262.187481 L 1445.898416 1289.374981 L 1486.093728 1317.34373 L 1526.28904 1346.09373 L 1566.445289 1375.703105 L 1606.601539 1406.171854 L 1646.79685 1437.539041 L 1686.992162 1469.765603 L 1727.187474 1502.968728 " transform="matrix(0.2, 0, 0, -0.2, 0, 320)"/>
<path fill="none" stroke-width="7.9701" stroke-linecap="butt" stroke-linejoin="miter" stroke="rgb(0%, 0%, 0%)" stroke-opacity="1" stroke-miterlimit="10" d="M 377.148432 321.601558 L 377.148432 349.960932 " transform="matrix(0.2, 0, 0, -0.2, 0, 320)"/>
<path fill="none" stroke-width="7.9701" stroke-linecap="butt" stroke-linejoin="miter" stroke="rgb(0%, 0%, 0%)" stroke-opacity="1" stroke-miterlimit="10" d="M 377.148432 406.640619 L 377.148432 434.999994 " transform="matrix(0.2, 0, 0, -0.2, 0, 320)"/>
<path fill="none" stroke-width="7.9701" stroke-linecap="butt" stroke-linejoin="miter" stroke="rgb(0%, 0%, 0%)" stroke-opacity="1" stroke-miterlimit="10" d="M 377.148432 434.999994 L 377.148432 463.359368 " transform="matrix(0.2, 0, 0, -0.2, 0, 320)"/>
<path fill="none" stroke-width="7.9701" stroke-linecap="butt" stroke-linejoin="miter" stroke="rgb(0%, 0%, 0%)" stroke-opacity="1" stroke-miterlimit="10" d="M 377.148432 520.039055 L 377.148432 548.398429 " transform="matrix(0.2, 0, 0, -0.2, 0, 320)"/>
<path fill="none" stroke-width="7.9701" stroke-linecap="butt" stroke-linejoin="miter" stroke="rgb(0%, 0%, 0%)" stroke-opacity="1" stroke-miterlimit="10" d="M 377.148432 548.398429 L 377.148432 576.757804 " transform="matrix(0.2, 0, 0, -0.2, 0, 320)"/>
<path fill="none" stroke-width="7.9701" stroke-linecap="butt" stroke-linejoin="miter" stroke="rgb(0%, 0%, 0%)" stroke-opacity="1" stroke-miterlimit="10" d="M 377.148432 633.437491 L 377.148432 661.796865 " transform="matrix(0.2, 0, 0, -0.2, 0, 320)"/>
<path fill="none" stroke-width="7.9701" stroke-linecap="butt" stroke-linejoin="miter" stroke="rgb(0%, 0%, 0%)" stroke-opacity="1" stroke-miterlimit="10" d="M 377.148432 661.796865 L 377.148432 690.15624 " transform="matrix(0.2, 0, 0, -0.2, 0, 320)"/>
<path fill="none" stroke-width="7.9701" stroke-linecap="butt" stroke-linejoin="miter" stroke="rgb(0%, 0%, 0%)" stroke-opacity="1" stroke-miterlimit="10" d="M 377.148432 746.835926 L 377.148432 775.195301 " transform="matrix(0.2, 0, 0, -0.2, 0, 320)"/>
<path fill="none" stroke-width="11.9553" stroke-linecap="butt" stroke-linejoin="miter" stroke="rgb(0%, 0%, 0%)" stroke-opacity="1" stroke-miterlimit="10" d="M 119.999998 699.609365 L 377.148432 699.609365 " transform="matrix(0.2, 0, 0, -0.2, 0, 320)"/>
<path fill="none" stroke-width="11.9553" stroke-linecap="butt" stroke-linejoin="miter" stroke="rgb(0%, 0%, 0%)" stroke-opacity="1" stroke-miterlimit="10" d="M 377.148432 775.195301 L 377.148432 699.609365 " transform="matrix(0.2, 0, 0, -0.2, 0, 320)"/>
<path fill="none" stroke-width="7.9701" stroke-linecap="butt" stroke-linejoin="miter" stroke="rgb(0%, 0%, 0%)" stroke-opacity="1" stroke-miterlimit="10" d="M 634.296866 321.601558 L 634.296866 348.82812 " transform="matrix(0.2, 0, 0, -0.2, 0, 320)"/>
<path fill="none" stroke-width="7.9701" stroke-linecap="butt" stroke-linejoin="miter" stroke="rgb(0%, 0%, 0%)" stroke-opacity="1" stroke-miterlimit="10" d="M 634.296866 403.242181 L 634.296866 430.468744 " transform="matrix(0.2, 0, 0, -0.2, 0, 320)"/>
<path fill="none" stroke-width="7.9701" stroke-linecap="butt" stroke-linejoin="miter" stroke="rgb(0%, 0%, 0%)" stroke-opacity="1" stroke-miterlimit="10" d="M 634.296866 430.468744 L 634.296866 457.695306 " transform="matrix(0.2, 0, 0, -0.2, 0, 320)"/>
<path fill="none" stroke-width="7.9701" stroke-linecap="butt" stroke-linejoin="miter" stroke="rgb(0%, 0%, 0%)" stroke-opacity="1" stroke-miterlimit="10" d="M 634.296866 512.109367 L 634.296866 539.335929 " transform="matrix(0.2, 0, 0, -0.2, 0, 320)"/>
<path fill="none" stroke-width="7.9701" stroke-linecap="butt" stroke-linejoin="miter" stroke="rgb(0%, 0%, 0%)" stroke-opacity="1" stroke-miterlimit="10" d="M 634.296866 539.335929 L 634.296866 566.562492 " transform="matrix(0.2, 0, 0, -0.2, 0, 320)"/>
<path fill="none" stroke-width="7.9701" stroke-linecap="butt" stroke-linejoin="miter" stroke="rgb(0%, 0%, 0%)" stroke-opacity="1" stroke-miterlimit="10" d="M 634.296866 620.976553 L 634.296866 648.203115 " transform="matrix(0.2, 0, 0, -0.2, 0, 320)"/>
<path fill="none" stroke-width="7.9701" stroke-linecap="butt" stroke-linejoin="miter" stroke="rgb(0%, 0%, 0%)" stroke-opacity="1" stroke-miterlimit="10" d="M 634.296866 648.203115 L 634.296866 675.390615 " transform="matrix(0.2, 0, 0, -0.2, 0, 320)"/>
<path fill="none" stroke-width="7.9701" stroke-linecap="butt" stroke-linejoin="miter" stroke="rgb(0%, 0%, 0%)" stroke-opacity="1" stroke-miterlimit="10" d="M 634.296866 729.843739 L 634.296866 757.070301 " transform="matrix(0.2, 0, 0, -0.2, 0, 320)"/>
<path fill="none" stroke-width="7.9701" stroke-linecap="butt" stroke-linejoin="miter" stroke="rgb(0%, 0%, 0%)" stroke-opacity="1" stroke-miterlimit="10" d="M 634.296866 757.070301 L 634.296866 784.257801 " transform="matrix(0.2, 0, 0, -0.2, 0, 320)"/>
<path fill="none" stroke-width="7.9701" stroke-linecap="butt" stroke-linejoin="miter" stroke="rgb(0%, 0%, 0%)" stroke-opacity="1" stroke-miterlimit="10" d="M 634.296866 838.710925 L 634.296866 865.937487 " transform="matrix(0.2, 0, 0, -0.2, 0, 320)"/>
<path fill="none" stroke-width="11.9553" stroke-linecap="butt" stroke-linejoin="miter" stroke="rgb(0%, 0%, 0%)" stroke-opacity="1" stroke-miterlimit="10" d="M 377.148432 775.195301 L 634.296866 775.195301 " transform="matrix(0.2, 0, 0, -0.2, 0, 320)"/>
<path fill="none" stroke-width="11.9553" stroke-linecap="butt" stroke-linejoin="miter" stroke="rgb(0%, 0%, 0%)" stroke-opacity="1" stroke-miterlimit="10" d="M 634.296866 865.937487 L 634.296866 775.195301 " transform="matrix(0.2, 0, 0, -0.2, 0, 320)"/>
<path fill="none" stroke-width="7.9701" stroke-linecap="butt" stroke-linejoin="miter" stroke="rgb(0%, 0%, 0%)" stroke-opacity="1" stroke-miterlimit="10" d="M 891.445299 321.601558 L 891.445299 348.82812 " transform="matrix(0.2, 0, 0, -0.2, 0, 320)"/>
<path fill="none" stroke-width="7.9701" stroke-linecap="butt" stroke-linejoin="miter" stroke="rgb(0%, 0%, 0%)" stroke-opacity="1" stroke-miterlimit="10" d="M 891.445299 403.242181 L 891.445299 430.468744 " transform="matrix(0.2, 0, 0, -0.2, 0, 320)"/>
<path fill="none" stroke-width="7.9701" stroke-linecap="butt" stroke-linejoin="miter" stroke="rgb(0%, 0%, 0%)" stroke-opacity="1" stroke-miterlimit="10" d="M 891.445299 430.468744 L 891.445299 457.695306 " transform="matrix(0.2, 0, 0, -0.2, 0, 320)"/>
<path fill="none" stroke-width="7.9701" stroke-linecap="butt" stroke-linejoin="miter" stroke="rgb(0%, 0%, 0%)" stroke-opacity="1" stroke-miterlimit="10" d="M 891.445299 512.109367 L 891.445299 539.335929 " transform="matrix(0.2, 0, 0, -0.2, 0, 320)"/>
<path fill="none" stroke-width="7.9701" stroke-linecap="butt" stroke-linejoin="miter" stroke="rgb(0%, 0%, 0%)" stroke-opacity="1" stroke-miterlimit="10" d="M 891.445299 539.335929 L 891.445299 566.562492 " transform="matrix(0.2, 0, 0, -0.2, 0, 320)"/>
<path fill="none" stroke-width="7.9701" stroke-linecap="butt" stroke-linejoin="miter" stroke="rgb(0%, 0%, 0%)" stroke-opacity="1" stroke-miterlimit="10" d="M 891.445299 620.976553 L 891.445299 648.203115 " transform="matrix(0.2, 0, 0, -0.2, 0, 320)"/>
<path fill="none" stroke-width="7.9701" stroke-linecap="butt" stroke-linejoin="miter" stroke="rgb(0%, 0%, 0%)" stroke-opacity="1" stroke-miterlimit="10" d="M 891.445299 648.203115 L 891.445299 675.390615 " transform="matrix(0.2, 0, 0, -0.2, 0, 320)"/>
<path fill="none" stroke-width="7.9701" stroke-linecap="butt" stroke-linejoin="miter" stroke="rgb(0%, 0%, 0%)" stroke-opacity="1" stroke-miterlimit="10" d="M 891.445299 729.843739 L 891.445299 757.070301 " transform="matrix(0.2, 0, 0, -0.2, 0, 320)"/>
<path fill="none" stroke-width="7.9701" stroke-linecap="butt" stroke-linejoin="miter" stroke="rgb(0%, 0%, 0%)" stroke-opacity="1" stroke-miterlimit="10" d="M 891.445299 757.070301 L 891.445299 784.257801 " transform="matrix(0.2, 0, 0, -0.2, 0, 320)"/>
<path fill="none" stroke-width="7.9701" stroke-linecap="butt" stroke-linejoin="miter" stroke="rgb(0%, 0%, 0%)" stroke-opacity="1" stroke-miterlimit="10" d="M 891.445299 838.710925 L 891.445299 865.937487 " transform="matrix(0.2, 0, 0, -0.2, 0, 320)"/>
<path fill="none" stroke-width="7.9701" stroke-linecap="butt" stroke-linejoin="miter" stroke="rgb(0%, 0%, 0%)" stroke-opacity="1" stroke-miterlimit="10" d="M 891.445299 865.937487 L 891.445299 893.124987 " transform="matrix(0.2, 0, 0, -0.2, 0, 320)"/>
<path fill="none" stroke-width="7.9701" stroke-linecap="butt" stroke-linejoin="miter" stroke="rgb(0%, 0%, 0%)" stroke-opacity="1" stroke-miterlimit="10" d="M 891.445299 947.578111 L 891.445299 974.804673 " transform="matrix(0.2, 0, 0, -0.2, 0, 320)"/>
<path fill="none" stroke-width="11.9553" stroke-linecap="butt" stroke-linejoin="miter" stroke="rgb(0%, 0%, 0%)" stroke-opacity="1" stroke-miterlimit="10" d="M 634.296866 865.937487 L 891.445299 865.937487 " transform="matrix(0.2, 0, 0, -0.2, 0, 320)"/>
<path fill="none" stroke-width="11.9553" stroke-linecap="butt" stroke-linejoin="miter" stroke="rgb(0%, 0%, 0%)" stroke-opacity="1" stroke-miterlimit="10" d="M 891.445299 974.804673 L 891.445299 865.937487 " transform="matrix(0.2, 0, 0, -0.2, 0, 320)"/>
<path fill="none" stroke-width="7.9701" stroke-linecap="butt" stroke-linejoin="miter" stroke="rgb(0%, 0%, 0%)" stroke-opacity="1" stroke-miterlimit="10" d="M 1148.593733 321.601558 L 1148.593733 349.60937 " transform="matrix(0.2, 0, 0, -0.2, 0, 320)"/>
<path fill="none" stroke-width="7.9701" stroke-linecap="butt" stroke-linejoin="miter" stroke="rgb(0%, 0%, 0%)" stroke-opacity="1" stroke-miterlimit="10" d="M 1148.593733 405.585931 L 1148.593733 433.554681 " transform="matrix(0.2, 0, 0, -0.2, 0, 320)"/>
<path fill="none" stroke-width="7.9701" stroke-linecap="butt" stroke-linejoin="miter" stroke="rgb(0%, 0%, 0%)" stroke-opacity="1" stroke-miterlimit="10" d="M 1148.593733 433.554681 L 1148.593733 461.562493 " transform="matrix(0.2, 0, 0, -0.2, 0, 320)"/>
<path fill="none" stroke-width="7.9701" stroke-linecap="butt" stroke-linejoin="miter" stroke="rgb(0%, 0%, 0%)" stroke-opacity="1" stroke-miterlimit="10" d="M 1148.593733 517.539055 L 1148.593733 545.546867 " transform="matrix(0.2, 0, 0, -0.2, 0, 320)"/>
<path fill="none" stroke-width="7.9701" stroke-linecap="butt" stroke-linejoin="miter" stroke="rgb(0%, 0%, 0%)" stroke-opacity="1" stroke-miterlimit="10" d="M 1148.593733 545.546867 L 1148.593733 573.554679 " transform="matrix(0.2, 0, 0, -0.2, 0, 320)"/>
<path fill="none" stroke-width="7.9701" stroke-linecap="butt" stroke-linejoin="miter" stroke="rgb(0%, 0%, 0%)" stroke-opacity="1" stroke-miterlimit="10" d="M 1148.593733 629.531241 L 1148.593733 657.539053 " transform="matrix(0.2, 0, 0, -0.2, 0, 320)"/>
<path fill="none" stroke-width="7.9701" stroke-linecap="butt" stroke-linejoin="miter" stroke="rgb(0%, 0%, 0%)" stroke-opacity="1" stroke-miterlimit="10" d="M 1148.593733 657.539053 L 1148.593733 685.507802 " transform="matrix(0.2, 0, 0, -0.2, 0, 320)"/>
<path fill="none" stroke-width="7.9701" stroke-linecap="butt" stroke-linejoin="miter" stroke="rgb(0%, 0%, 0%)" stroke-opacity="1" stroke-miterlimit="10" d="M 1148.593733 741.523426 L 1148.593733 769.492176 " transform="matrix(0.2, 0, 0, -0.2, 0, 320)"/>
<path fill="none" stroke-width="7.9701" stroke-linecap="butt" stroke-linejoin="miter" stroke="rgb(0%, 0%, 0%)" stroke-opacity="1" stroke-miterlimit="10" d="M 1148.593733 769.492176 L 1148.593733 797.499988 " transform="matrix(0.2, 0, 0, -0.2, 0, 320)"/>
<path fill="none" stroke-width="7.9701" stroke-linecap="butt" stroke-linejoin="miter" stroke="rgb(0%, 0%, 0%)" stroke-opacity="1" stroke-miterlimit="10" d="M 1148.593733 853.47655 L 1148.593733 881.484362 " transform="matrix(0.2, 0, 0, -0.2, 0, 320)"/>
<path fill="none" stroke-width="7.9701" stroke-linecap="butt" stroke-linejoin="miter" stroke="rgb(0%, 0%, 0%)" stroke-opacity="1" stroke-miterlimit="10" d="M 1148.593733 881.484362 L 1148.593733 909.492174 " transform="matrix(0.2, 0, 0, -0.2, 0, 320)"/>
<path fill="none" stroke-width="7.9701" stroke-linecap="butt" stroke-linejoin="miter" stroke="rgb(0%, 0%, 0%)" stroke-opacity="1" stroke-miterlimit="10" d="M 1148.593733 965.468736 L 1148.593733 993.437485 " transform="matrix(0.2, 0, 0, -0.2, 0, 320)"/>
<path fill="none" stroke-width="7.9701" stroke-linecap="butt" stroke-linejoin="miter" stroke="rgb(0%, 0%, 0%)" stroke-opacity="1" stroke-miterlimit="10" d="M 1148.593733 993.437485 L 1148.593733 1021.445297 " transform="matrix(0.2, 0, 0, -0.2, 0, 320)"/>
<path fill="none" stroke-width="7.9701" stroke-linecap="butt" stroke-linejoin="miter" stroke="rgb(0%, 0%, 0%)" stroke-opacity="1" stroke-miterlimit="10" d="M 1148.593733 1077.421859 L 1148.593733 1105.429671 " transform="matrix(0.2, 0, 0, -0.2, 0, 320)"/>
<path fill="none" stroke-width="11.9553" stroke-linecap="butt" stroke-linejoin="miter" stroke="rgb(0%, 0%, 0%)" stroke-opacity="1" stroke-miterlimit="10" d="M 891.445299 974.804673 L 1148.593733 974.804673 " transform="matrix(0.2, 0, 0, -0.2, 0, 320)"/>
<path fill="none" stroke-width="11.9553" stroke-linecap="butt" stroke-linejoin="miter" stroke="rgb(0%, 0%, 0%)" stroke-opacity="1" stroke-miterlimit="10" d="M 1148.593733 1105.429671 L 1148.593733 974.804673 " transform="matrix(0.2, 0, 0, -0.2, 0, 320)"/>
<path fill="none" stroke-width="7.9701" stroke-linecap="butt" stroke-linejoin="miter" stroke="rgb(0%, 0%, 0%)" stroke-opacity="1" stroke-miterlimit="10" d="M 1405.703104 321.601558 L 1405.703104 350.976557 " transform="matrix(0.2, 0, 0, -0.2, 0, 320)"/>
<path fill="none" stroke-width="7.9701" stroke-linecap="butt" stroke-linejoin="miter" stroke="rgb(0%, 0%, 0%)" stroke-opacity="1" stroke-miterlimit="10" d="M 1405.703104 409.765619 L 1405.703104 439.179681 " transform="matrix(0.2, 0, 0, -0.2, 0, 320)"/>
<path fill="none" stroke-width="7.9701" stroke-linecap="butt" stroke-linejoin="miter" stroke="rgb(0%, 0%, 0%)" stroke-opacity="1" stroke-miterlimit="10" d="M 1405.703104 439.179681 L 1405.703104 468.554681 " transform="matrix(0.2, 0, 0, -0.2, 0, 320)"/>
<path fill="none" stroke-width="7.9701" stroke-linecap="butt" stroke-linejoin="miter" stroke="rgb(0%, 0%, 0%)" stroke-opacity="1" stroke-miterlimit="10" d="M 1405.703104 527.343742 L 1405.703104 556.757804 " transform="matrix(0.2, 0, 0, -0.2, 0, 320)"/>
<path fill="none" stroke-width="7.9701" stroke-linecap="butt" stroke-linejoin="miter" stroke="rgb(0%, 0%, 0%)" stroke-opacity="1" stroke-miterlimit="10" d="M 1405.703104 556.757804 L 1405.703104 586.132804 " transform="matrix(0.2, 0, 0, -0.2, 0, 320)"/>
<path fill="none" stroke-width="7.9701" stroke-linecap="butt" stroke-linejoin="miter" stroke="rgb(0%, 0%, 0%)" stroke-opacity="1" stroke-miterlimit="10" d="M 1405.703104 644.921865 L 1405.703104 674.335927 " transform="matrix(0.2, 0, 0, -0.2, 0, 320)"/>
<path fill="none" stroke-width="7.9701" stroke-linecap="butt" stroke-linejoin="miter" stroke="rgb(0%, 0%, 0%)" stroke-opacity="1" stroke-miterlimit="10" d="M 1405.703104 674.335927 L 1405.703104 703.710927 " transform="matrix(0.2, 0, 0, -0.2, 0, 320)"/>
<path fill="none" stroke-width="7.9701" stroke-linecap="butt" stroke-linejoin="miter" stroke="rgb(0%, 0%, 0%)" stroke-opacity="1" stroke-miterlimit="10" d="M 1405.703104 762.499989 L 1405.703104 791.914051 " transform="matrix(0.2, 0, 0, -0.2, 0, 320)"/>
<path fill="none" stroke-width="7.9701" stroke-linecap="butt" stroke-linejoin="miter" stroke="rgb(0%, 0%, 0%)" stroke-opacity="1" stroke-miterlimit="10" d="M 1405.703104 791.914051 L 1405.703104 821.28905 " transform="matrix(0.2, 0, 0, -0.2, 0, 320)"/>
<path fill="none" stroke-width="7.9701" stroke-linecap="butt" stroke-linejoin="miter" stroke="rgb(0%, 0%, 0%)" stroke-opacity="1" stroke-miterlimit="10" d="M 1405.703104 880.078112 L 1405.703104 909.492174 " transform="matrix(0.2, 0, 0, -0.2, 0, 320)"/>
<path fill="none" stroke-width="7.9701" stroke-linecap="butt" stroke-linejoin="miter" stroke="rgb(0%, 0%, 0%)" stroke-opacity="1" stroke-miterlimit="10" d="M 1405.703104 909.492174 L 1405.703104 938.867174 " transform="matrix(0.2, 0, 0, -0.2, 0, 320)"/>
<path fill="none" stroke-width="7.9701" stroke-linecap="butt" stroke-linejoin="miter" stroke="rgb(0%, 0%, 0%)" stroke-opacity="1" stroke-miterlimit="10" d="M 1405.703104 997.656235 L 1405.703104 1027.031235 " transform="matrix(0.2, 0, 0, -0.2, 0, 320)"/>
<path fill="none" stroke-width="7.9701" stroke-linecap="butt" stroke-linejoin="miter" stroke="rgb(0%, 0%, 0%)" stroke-opacity="1" stroke-miterlimit="10" d="M 1405.703104 1027.031235 L 1405.703104 1056.445297 " transform="matrix(0.2, 0, 0, -0.2, 0, 320)"/>
<path fill="none" stroke-width="7.9701" stroke-linecap="butt" stroke-linejoin="miter" stroke="rgb(0%, 0%, 0%)" stroke-opacity="1" stroke-miterlimit="10" d="M 1405.703104 1115.234358 L 1405.703104 1144.609358 " transform="matrix(0.2, 0, 0, -0.2, 0, 320)"/>
<path fill="none" stroke-width="7.9701" stroke-linecap="butt" stroke-linejoin="miter" stroke="rgb(0%, 0%, 0%)" stroke-opacity="1" stroke-miterlimit="10" d="M 1405.703104 1144.609358 L 1405.703104 1174.02342 " transform="matrix(0.2, 0, 0, -0.2, 0, 320)"/>
<path fill="none" stroke-width="7.9701" stroke-linecap="butt" stroke-linejoin="miter" stroke="rgb(0%, 0%, 0%)" stroke-opacity="1" stroke-miterlimit="10" d="M 1405.703104 1232.812482 L 1405.703104 1262.187481 " transform="matrix(0.2, 0, 0, -0.2, 0, 320)"/>
<path fill="none" stroke-width="11.9553" stroke-linecap="butt" stroke-linejoin="miter" stroke="rgb(0%, 0%, 0%)" stroke-opacity="1" stroke-miterlimit="10" d="M 1148.593733 1105.429671 L 1405.703104 1105.429671 " transform="matrix(0.2, 0, 0, -0.2, 0, 320)"/>
<path fill="none" stroke-width="11.9553" stroke-linecap="butt" stroke-linejoin="miter" stroke="rgb(0%, 0%, 0%)" stroke-opacity="1" stroke-miterlimit="10" d="M 1405.703104 1262.187481 L 1405.703104 1105.429671 " transform="matrix(0.2, 0, 0, -0.2, 0, 320)"/>
<path fill="none" stroke-width="7.9701" stroke-linecap="butt" stroke-linejoin="miter" stroke="rgb(0%, 0%, 0%)" stroke-opacity="1" stroke-miterlimit="10" d="M 1662.8906 321.601558 L 1662.8906 349.804682 " transform="matrix(0.2, 0, 0, -0.2, 0, 320)"/>
<path fill="none" stroke-width="7.9701" stroke-linecap="butt" stroke-linejoin="miter" stroke="rgb(0%, 0%, 0%)" stroke-opacity="1" stroke-miterlimit="10" d="M 1662.8906 406.249994 L 1662.8906 434.492181 " transform="matrix(0.2, 0, 0, -0.2, 0, 320)"/>
<path fill="none" stroke-width="7.9701" stroke-linecap="butt" stroke-linejoin="miter" stroke="rgb(0%, 0%, 0%)" stroke-opacity="1" stroke-miterlimit="10" d="M 1662.8906 434.492181 L 1662.8906 462.695306 " transform="matrix(0.2, 0, 0, -0.2, 0, 320)"/>
<path fill="none" stroke-width="7.9701" stroke-linecap="butt" stroke-linejoin="miter" stroke="rgb(0%, 0%, 0%)" stroke-opacity="1" stroke-miterlimit="10" d="M 1662.8906 519.140617 L 1662.8906 547.343742 " transform="matrix(0.2, 0, 0, -0.2, 0, 320)"/>
<path fill="none" stroke-width="7.9701" stroke-linecap="butt" stroke-linejoin="miter" stroke="rgb(0%, 0%, 0%)" stroke-opacity="1" stroke-miterlimit="10" d="M 1662.8906 547.343742 L 1662.8906 575.546866 " transform="matrix(0.2, 0, 0, -0.2, 0, 320)"/>
<path fill="none" stroke-width="7.9701" stroke-linecap="butt" stroke-linejoin="miter" stroke="rgb(0%, 0%, 0%)" stroke-opacity="1" stroke-miterlimit="10" d="M 1662.8906 631.992178 L 1662.8906 660.234365 " transform="matrix(0.2, 0, 0, -0.2, 0, 320)"/>
<path fill="none" stroke-width="7.9701" stroke-linecap="butt" stroke-linejoin="miter" stroke="rgb(0%, 0%, 0%)" stroke-opacity="1" stroke-miterlimit="10" d="M 1662.8906 660.234365 L 1662.8906 688.43749 " transform="matrix(0.2, 0, 0, -0.2, 0, 320)"/>
<path fill="none" stroke-width="7.9701" stroke-linecap="butt" stroke-linejoin="miter" stroke="rgb(0%, 0%, 0%)" stroke-opacity="1" stroke-miterlimit="10" d="M 1662.8906 744.843739 L 1662.8906 773.085926 " transform="matrix(0.2, 0, 0, -0.2, 0, 320)"/>
<path fill="none" stroke-width="7.9701" stroke-linecap="butt" stroke-linejoin="miter" stroke="rgb(0%, 0%, 0%)" stroke-opacity="1" stroke-miterlimit="10" d="M 1662.8906 773.085926 L 1662.8906 801.289051 " transform="matrix(0.2, 0, 0, -0.2, 0, 320)"/>
<path fill="none" stroke-width="7.9701" stroke-linecap="butt" stroke-linejoin="miter" stroke="rgb(0%, 0%, 0%)" stroke-opacity="1" stroke-miterlimit="10" d="M 1662.8906 857.734362 L 1662.8906 885.937487 " transform="matrix(0.2, 0, 0, -0.2, 0, 320)"/>
<path fill="none" stroke-width="7.9701" stroke-linecap="butt" stroke-linejoin="miter" stroke="rgb(0%, 0%, 0%)" stroke-opacity="1" stroke-miterlimit="10" d="M 1662.8906 885.937487 L 1662.8906 914.179674 " transform="matrix(0.2, 0, 0, -0.2, 0, 320)"/>
<path fill="none" stroke-width="7.9701" stroke-linecap="butt" stroke-linejoin="miter" stroke="rgb(0%, 0%, 0%)" stroke-opacity="1" stroke-miterlimit="10" d="M 1662.8906 970.624986 L 1662.8906 998.82811 " transform="matrix(0.2, 0, 0, -0.2, 0, 320)"/>
<path fill="none" stroke-width="7.9701" stroke-linecap="butt" stroke-linejoin="miter" stroke="rgb(0%, 0%, 0%)" stroke-opacity="1" stroke-miterlimit="10" d="M 1662.8906 998.82811 L 1662.8906 1027.031235 " transform="matrix(0.2, 0, 0, -0.2, 0, 320)"/>
<path fill="none" stroke-width="7.9701" stroke-linecap="butt" stroke-linejoin="miter" stroke="rgb(0%, 0%, 0%)" stroke-opacity="1" stroke-miterlimit="10" d="M 1662.8906 1083.476546 L 1662.8906 1111.718733 " transform="matrix(0.2, 0, 0, -0.2, 0, 320)"/>
<path fill="none" stroke-width="7.9701" stroke-linecap="butt" stroke-linejoin="miter" stroke="rgb(0%, 0%, 0%)" stroke-opacity="1" stroke-miterlimit="10" d="M 1662.8906 1111.718733 L 1662.8906 1139.921858 " transform="matrix(0.2, 0, 0, -0.2, 0, 320)"/>
<path fill="none" stroke-width="7.9701" stroke-linecap="butt" stroke-linejoin="miter" stroke="rgb(0%, 0%, 0%)" stroke-opacity="1" stroke-miterlimit="10" d="M 1662.8906 1196.36717 L 1662.8906 1224.570294 " transform="matrix(0.2, 0, 0, -0.2, 0, 320)"/>
<path fill="none" stroke-width="7.9701" stroke-linecap="butt" stroke-linejoin="miter" stroke="rgb(0%, 0%, 0%)" stroke-opacity="1" stroke-miterlimit="10" d="M 1662.8906 1224.570294 L 1662.8906 1252.773419 " transform="matrix(0.2, 0, 0, -0.2, 0, 320)"/>
<path fill="none" stroke-width="7.9701" stroke-linecap="butt" stroke-linejoin="miter" stroke="rgb(0%, 0%, 0%)" stroke-opacity="1" stroke-miterlimit="10" d="M 1662.8906 1309.21873 L 1662.8906 1337.421855 " transform="matrix(0.2, 0, 0, -0.2, 0, 320)"/>
<path fill="none" stroke-width="7.9701" stroke-linecap="butt" stroke-linejoin="miter" stroke="rgb(0%, 0%, 0%)" stroke-opacity="1" stroke-miterlimit="10" d="M 1662.8906 1337.421855 L 1662.8906 1365.664042 " transform="matrix(0.2, 0, 0, -0.2, 0, 320)"/>
<path fill="none" stroke-width="7.9701" stroke-linecap="butt" stroke-linejoin="miter" stroke="rgb(0%, 0%, 0%)" stroke-opacity="1" stroke-miterlimit="10" d="M 1662.8906 1422.109354 L 1662.8906 1450.312478 " transform="matrix(0.2, 0, 0, -0.2, 0, 320)"/>
<path fill="none" stroke-width="11.9553" stroke-linecap="butt" stroke-linejoin="miter" stroke="rgb(0%, 0%, 0%)" stroke-opacity="1" stroke-miterlimit="10" d="M 1405.703104 1262.187481 L 1662.8906 1262.187481 " transform="matrix(0.2, 0, 0, -0.2, 0, 320)"/>
<path fill="none" stroke-width="11.9553" stroke-linecap="butt" stroke-linejoin="miter" stroke="rgb(0%, 0%, 0%)" stroke-opacity="1" stroke-miterlimit="10" d="M 1662.8906 1450.312478 L 1662.8906 1262.187481 " transform="matrix(0.2, 0, 0, -0.2, 0, 320)"/>
<path fill-rule="nonzero" fill="rgb(0%, 0%, 0%)" fill-opacity="1" d="M 76.316406 263.839844 C 76.316406 263.339844 76.316406 263.277344 75.816406 263.277344 C 74.472656 264.683594 72.535156 264.683594 71.847656 264.683594 L 71.847656 265.339844 C 72.285156 265.339844 73.566406 265.339844 74.722656 264.777344 L 74.722656 276.089844 C 74.722656 276.871094 74.628906 277.121094 72.691406 277.121094 L 71.972656 277.121094 L 71.972656 277.808594 C 72.753906 277.746094 74.628906 277.746094 75.503906 277.746094 C 76.378906 277.746094 78.285156 277.746094 79.035156 277.808594 L 79.035156 277.121094 L 78.347656 277.121094 C 76.378906 277.121094 76.316406 276.902344 76.316406 276.089844 Z M 76.316406 263.839844 "/>
<path fill-rule="nonzero" fill="rgb(0%, 0%, 0%)" fill-opacity="1" d="M 124.117188 276.121094 L 126.429688 273.871094 C 129.835938 270.871094 131.117188 269.683594 131.117188 267.527344 C 131.117188 265.027344 129.179688 263.277344 126.492188 263.277344 C 124.054688 263.277344 122.429688 265.277344 122.429688 267.214844 C 122.429688 268.464844 123.523438 268.464844 123.585938 268.464844 C 123.960938 268.464844 124.710938 268.183594 124.710938 267.308594 C 124.710938 266.714844 124.335938 266.152344 123.554688 266.152344 C 123.398438 266.152344 123.335938 266.152344 123.273438 266.183594 C 123.773438 264.777344 124.960938 263.964844 126.210938 263.964844 C 128.210938 263.964844 129.148438 265.714844 129.148438 267.527344 C 129.148438 269.246094 128.054688 270.996094 126.867188 272.339844 L 122.679688 276.996094 C 122.429688 277.246094 122.429688 277.277344 122.429688 277.808594 L 130.523438 277.808594 L 131.117188 274.027344 L 130.585938 274.027344 C 130.460938 274.652344 130.335938 275.621094 130.117188 275.964844 C 129.960938 276.121094 128.523438 276.121094 128.023438 276.121094 Z M 124.117188 276.121094 "/>
<path fill-rule="nonzero" fill="rgb(0%, 0%, 0%)" fill-opacity="1" d="M 179.078125 270.121094 C 180.890625 269.527344 182.140625 268.027344 182.140625 266.277344 C 182.140625 264.496094 180.234375 263.277344 178.140625 263.277344 C 175.921875 263.277344 174.265625 264.589844 174.265625 266.246094 C 174.265625 266.964844 174.765625 267.371094 175.390625 267.371094 C 176.046875 267.371094 176.484375 266.902344 176.484375 266.277344 C 176.484375 265.183594 175.484375 265.183594 175.140625 265.183594 C 175.828125 264.121094 177.265625 263.839844 178.046875 263.839844 C 178.953125 263.839844 180.140625 264.308594 180.140625 266.277344 C 180.140625 266.527344 180.109375 267.808594 179.515625 268.746094 C 178.859375 269.808594 178.140625 269.871094 177.578125 269.902344 C 177.421875 269.902344 176.890625 269.964844 176.734375 269.964844 C 176.546875 269.964844 176.421875 269.996094 176.421875 270.214844 C 176.421875 270.464844 176.546875 270.464844 176.921875 270.464844 L 177.890625 270.464844 C 179.671875 270.464844 180.484375 271.933594 180.484375 274.089844 C 180.484375 277.058594 178.984375 277.683594 178.015625 277.683594 C 177.078125 277.683594 175.453125 277.308594 174.671875 276.027344 C 175.453125 276.121094 176.109375 275.652344 176.109375 274.808594 C 176.109375 274.027344 175.546875 273.589844 174.890625 273.589844 C 174.390625 273.589844 173.671875 273.902344 173.671875 274.871094 C 173.671875 276.839844 175.703125 278.277344 178.078125 278.277344 C 180.734375 278.277344 182.734375 276.308594 182.734375 274.089844 C 182.734375 272.277344 181.359375 270.589844 179.078125 270.121094 Z M 179.078125 270.121094 "/>
<path fill-rule="nonzero" fill="rgb(0%, 0%, 0%)" fill-opacity="1" d="M 230.601562 274.214844 L 230.601562 276.121094 C 230.601562 276.902344 230.570312 277.121094 228.945312 277.121094 L 228.507812 277.121094 L 228.507812 277.808594 C 229.382812 277.746094 230.507812 277.746094 231.445312 277.746094 C 232.351562 277.746094 233.507812 277.746094 234.414062 277.808594 L 234.414062 277.121094 L 233.945312 277.121094 C 232.320312 277.121094 232.289062 276.902344 232.289062 276.121094 L 232.289062 274.214844 L 234.476562 274.214844 L 234.476562 273.527344 L 232.289062 273.527344 L 232.289062 263.621094 C 232.289062 263.183594 232.289062 263.027344 231.945312 263.027344 C 231.757812 263.027344 231.664062 263.027344 231.507812 263.308594 L 224.820312 273.527344 L 224.820312 274.214844 Z M 230.726562 273.527344 L 225.414062 273.527344 L 230.726562 265.402344 Z M 230.726562 273.527344 "/>
<path fill-rule="nonzero" fill="rgb(0%, 0%, 0%)" fill-opacity="1" d="M 285.40625 273.433594 C 285.40625 270.839844 283.625 268.652344 281.28125 268.652344 C 280.21875 268.652344 279.28125 268.996094 278.5 269.746094 L 278.5 265.496094 C 278.9375 265.652344 279.65625 265.777344 280.34375 265.777344 C 283.03125 265.777344 284.5625 263.808594 284.5625 263.527344 C 284.5625 263.402344 284.5 263.277344 284.34375 263.277344 C 284.34375 263.277344 284.28125 263.277344 284.1875 263.339844 C 283.75 263.558594 282.65625 263.964844 281.21875 263.964844 C 280.34375 263.964844 279.34375 263.839844 278.3125 263.371094 C 278.125 263.308594 278.09375 263.308594 278.03125 263.308594 C 277.8125 263.308594 277.8125 263.464844 277.8125 263.839844 L 277.8125 270.277344 C 277.8125 270.683594 277.8125 270.839844 278.125 270.839844 C 278.28125 270.839844 278.34375 270.777344 278.40625 270.652344 C 278.65625 270.308594 279.46875 269.121094 281.21875 269.121094 C 282.375 269.121094 282.90625 270.121094 283.09375 270.527344 C 283.4375 271.339844 283.46875 272.183594 283.46875 273.277344 C 283.46875 274.027344 283.46875 275.339844 282.96875 276.246094 C 282.4375 277.121094 281.625 277.683594 280.625 277.683594 C 279.03125 277.683594 277.78125 276.527344 277.40625 275.246094 C 277.46875 275.246094 277.53125 275.277344 277.78125 275.277344 C 278.5 275.277344 278.875 274.746094 278.875 274.214844 C 278.875 273.683594 278.5 273.152344 277.78125 273.152344 C 277.46875 273.152344 276.71875 273.308594 276.71875 274.308594 C 276.71875 276.183594 278.21875 278.277344 280.65625 278.277344 C 283.1875 278.277344 285.40625 276.183594 285.40625 273.433594 Z M 285.40625 273.433594 "/>
<path fill-rule="nonzero" fill="rgb(0%, 0%, 0%)" fill-opacity="1" d="M 329.929688 270.652344 L 329.929688 270.121094 C 329.929688 264.621094 332.648438 263.839844 333.742188 263.839844 C 334.273438 263.839844 335.179688 263.964844 335.679688 264.714844 C 335.335938 264.714844 334.460938 264.714844 334.460938 265.683594 C 334.460938 266.371094 334.992188 266.683594 335.460938 266.683594 C 335.835938 266.683594 336.492188 266.496094 336.492188 265.652344 C 336.492188 264.339844 335.523438 263.277344 333.710938 263.277344 C 330.929688 263.277344 327.960938 266.089844 327.960938 270.902344 C 327.960938 276.746094 330.492188 278.277344 332.523438 278.277344 C 334.960938 278.277344 337.023438 276.246094 337.023438 273.371094 C 337.023438 270.589844 335.085938 268.496094 332.648438 268.496094 C 331.179688 268.496094 330.367188 269.621094 329.929688 270.652344 Z M 332.523438 277.683594 C 331.148438 277.683594 330.492188 276.371094 330.367188 276.027344 C 329.992188 275.027344 329.992188 273.277344 329.992188 272.871094 C 329.992188 271.183594 330.679688 268.996094 332.648438 268.996094 C 332.992188 268.996094 333.992188 268.996094 334.679688 270.339844 C 335.054688 271.152344 335.054688 272.277344 335.054688 273.339844 C 335.054688 274.371094 335.054688 275.464844 334.679688 276.246094 C 334.023438 277.558594 333.023438 277.683594 332.523438 277.683594 Z M 332.523438 277.683594 "/>
<path fill-rule="nonzero" fill="rgb(100%, 100%, 100%)" fill-opacity="1" d="M -4.679688 204.460938 L 16.679688 204.460938 L 16.679688 231.578125 L -4.679688 231.578125 Z M -4.679688 204.460938 "/>
<path fill-rule="nonzero" fill="rgb(0%, 0%, 0%)" fill-opacity="1" d="M 6.324219 210.652344 C 6.324219 210.652344 6.324219 210.433594 6.042969 210.433594 C 5.542969 210.433594 3.949219 210.589844 3.386719 210.652344 C 3.199219 210.652344 2.949219 210.683594 2.949219 211.089844 C 2.949219 211.339844 3.167969 211.339844 3.480469 211.339844 C 4.542969 211.339844 4.574219 211.496094 4.574219 211.714844 C 4.574219 211.871094 4.386719 212.589844 4.261719 213.058594 L 2.480469 220.183594 C 2.230469 221.246094 2.136719 221.621094 2.136719 222.371094 C 2.136719 224.433594 3.292969 225.808594 4.886719 225.808594 C 7.480469 225.808594 10.167969 222.558594 10.167969 219.402344 C 10.167969 217.433594 9.011719 215.902344 7.261719 215.902344 C 6.261719 215.902344 5.355469 216.558594 4.699219 217.214844 Z M 4.261719 218.902344 C 4.386719 218.433594 4.386719 218.371094 4.605469 218.152344 C 5.667969 216.714844 6.636719 216.402344 7.199219 216.402344 C 8.011719 216.402344 8.574219 217.058594 8.574219 218.433594 C 8.574219 219.746094 7.855469 222.246094 7.480469 223.058594 C 6.761719 224.527344 5.761719 225.308594 4.886719 225.308594 C 4.167969 225.308594 3.449219 224.714844 3.449219 223.121094 C 3.449219 222.714844 3.449219 222.277344 3.792969 220.902344 Z M 4.261719 218.902344 "/>
<path fill-rule="nonzero" fill="rgb(0%, 0%, 0%)" fill-opacity="1" d="M 20.382812 182.296875 L 20.203125 182.40625 L 20.03125 182.53125 L 19.875 182.65625 L 19.71875 182.789062 L 19.570312 182.929688 L 19.421875 183.078125 L 19.289062 183.226562 L 19.039062 183.554688 L 18.921875 183.71875 L 18.8125 183.898438 L 18.710938 184.078125 L 18.617188 184.273438 L 18.523438 184.460938 L 18.4375 184.664062 L 18.28125 185.070312 L 18.210938 185.289062 L 18.148438 185.507812 L 18.085938 185.734375 L 18.03125 185.960938 L 17.976562 186.195312 L 17.9375 186.4375 L 17.890625 186.679688 L 17.851562 186.921875 L 17.789062 187.4375 L 17.765625 187.695312 L 17.742188 187.960938 L 17.726562 188.226562 L 17.710938 188.5 L 17.695312 188.78125 L 17.679688 189.34375 L 17.679688 190.21875 L 17.6875 190.523438 L 17.6875 190.820312 L 17.703125 191.125 L 17.710938 191.4375 L 17.726562 191.75 L 17.734375 192.0625 L 17.757812 192.375 L 17.773438 192.695312 L 17.789062 193.023438 L 17.8125 193.34375 L 17.835938 193.671875 L 17.851562 194 L 17.898438 194.671875 L 17.929688 195.007812 L 17.976562 195.679688 L 18.023438 196.367188 L 18.046875 196.71875 L 18.070312 197.0625 L 18.09375 197.414062 L 18.117188 197.757812 L 18.1875 198.8125 L 18.21875 199.53125 L 18.234375 199.882812 L 18.265625 200.601562 L 18.273438 200.953125 L 18.289062 201.3125 L 18.289062 201.671875 L 18.296875 202.039062 L 18.296875 203.117188 L 18.273438 204.195312 L 18.25 204.554688 L 18.234375 204.90625 L 18.1875 205.625 L 18.15625 205.984375 L 18.125 206.335938 L 18.085938 206.695312 L 18.046875 207.046875 L 18 207.398438 L 17.953125 207.757812 L 17.898438 208.101562 L 17.773438 208.804688 L 17.703125 209.148438 L 17.546875 209.835938 L 17.460938 210.179688 L 17.375 210.515625 L 17.273438 210.859375 L 17.171875 211.1875 L 17.0625 211.523438 L 16.945312 211.859375 L 16.828125 212.1875 L 16.695312 212.515625 L 16.5625 212.835938 L 16.421875 213.15625 L 16.273438 213.476562 L 16.117188 213.796875 L 15.960938 214.109375 L 15.789062 214.414062 L 15.609375 214.726562 L 15.429688 215.03125 L 15.039062 215.625 L 14.828125 215.921875 L 14.390625 216.5 L 14.15625 216.78125 L 13.914062 217.0625 L 13.664062 217.335938 L 13.40625 217.609375 L 13.140625 217.882812 L 13.40625 218.148438 L 13.664062 218.421875 L 13.914062 218.695312 L 14.15625 218.976562 L 14.390625 219.257812 L 14.828125 219.835938 L 15.039062 220.132812 L 15.429688 220.726562 L 15.609375 221.039062 L 15.789062 221.34375 L 15.960938 221.65625 L 16.117188 221.960938 L 16.273438 222.28125 L 16.421875 222.601562 L 16.5625 222.921875 L 16.695312 223.242188 L 16.828125 223.570312 L 16.945312 223.90625 L 17.0625 224.234375 L 17.171875 224.5625 L 17.273438 224.90625 L 17.375 225.242188 L 17.460938 225.578125 L 17.546875 225.921875 L 17.703125 226.609375 L 17.773438 226.953125 L 17.898438 227.65625 L 17.953125 228.007812 L 18.046875 228.710938 L 18.085938 229.0625 L 18.125 229.421875 L 18.15625 229.773438 L 18.1875 230.132812 L 18.234375 230.851562 L 18.25 231.203125 L 18.273438 231.570312 L 18.28125 231.921875 L 18.289062 232.289062 L 18.296875 232.648438 L 18.296875 233.726562 L 18.289062 234.085938 L 18.289062 234.445312 L 18.273438 234.804688 L 18.265625 235.164062 L 18.25 235.515625 L 18.21875 236.234375 L 18.1875 236.9375 L 18.164062 237.296875 L 18.09375 238.351562 L 18.070312 238.695312 L 18.046875 239.046875 L 17.976562 240.078125 L 17.953125 240.414062 L 17.929688 240.757812 L 17.898438 241.085938 L 17.875 241.429688 L 17.851562 241.757812 L 17.835938 242.085938 L 17.789062 242.742188 L 17.757812 243.382812 L 17.734375 243.695312 L 17.726562 244.015625 L 17.710938 244.320312 L 17.703125 244.632812 L 17.6875 244.9375 L 17.6875 245.234375 L 17.679688 245.539062 L 17.679688 246.414062 L 17.695312 246.976562 L 17.710938 247.257812 L 17.726562 247.53125 L 17.742188 247.796875 L 17.789062 248.328125 L 17.820312 248.578125 L 17.851562 248.835938 L 17.890625 249.078125 L 17.9375 249.328125 L 17.976562 249.5625 L 18.03125 249.796875 L 18.085938 250.023438 L 18.148438 250.25 L 18.210938 250.46875 L 18.28125 250.6875 L 18.359375 250.898438 L 18.4375 251.101562 L 18.523438 251.296875 L 18.617188 251.492188 L 18.710938 251.679688 L 18.8125 251.859375 L 18.921875 252.03125 L 19.039062 252.203125 L 19.289062 252.53125 L 19.421875 252.679688 L 19.570312 252.828125 L 19.71875 252.96875 L 19.875 253.101562 L 20.03125 253.226562 L 20.203125 253.351562 L 20.382812 253.460938 L 20.148438 253.3125 L 19.929688 253.164062 L 19.71875 253.007812 L 19.515625 252.84375 L 19.320312 252.671875 L 19.132812 252.5 L 18.953125 252.320312 L 18.78125 252.140625 L 18.625 251.945312 L 18.46875 251.757812 L 18.1875 251.351562 L 18.054688 251.148438 L 17.929688 250.9375 L 17.8125 250.71875 L 17.703125 250.492188 L 17.601562 250.265625 L 17.507812 250.039062 L 17.414062 249.804688 L 17.257812 249.320312 L 17.1875 249.078125 L 17.117188 248.820312 L 17.0625 248.570312 L 17.007812 248.3125 L 16.960938 248.054688 L 16.914062 247.789062 L 16.875 247.515625 L 16.8125 246.96875 L 16.789062 246.6875 L 16.757812 246.125 L 16.742188 245.828125 L 16.734375 245.539062 L 16.734375 244.648438 L 16.742188 244.34375 L 16.757812 244.039062 L 16.765625 243.734375 L 16.78125 243.421875 L 16.804688 243.109375 L 16.820312 242.796875 L 16.851562 242.476562 L 16.898438 241.835938 L 16.929688 241.515625 L 16.992188 240.859375 L 17.03125 240.53125 L 17.0625 240.203125 L 17.140625 239.53125 L 17.171875 239.195312 L 17.210938 238.859375 L 17.257812 238.523438 L 17.296875 238.179688 L 17.335938 237.84375 L 17.492188 236.46875 L 17.523438 236.125 L 17.5625 235.773438 L 17.640625 235.085938 L 17.671875 234.734375 L 17.703125 234.390625 L 17.765625 233.6875 L 17.789062 233.34375 L 17.835938 232.640625 L 17.859375 232.296875 L 17.890625 231.59375 L 17.898438 231.25 L 17.90625 230.898438 L 17.914062 230.554688 L 17.914062 229.515625 L 17.898438 229.171875 L 17.890625 228.828125 L 17.875 228.484375 L 17.828125 227.796875 L 17.796875 227.460938 L 17.757812 227.117188 L 17.71875 226.78125 L 17.625 226.109375 L 17.570312 225.773438 L 17.507812 225.445312 L 17.4375 225.109375 L 17.367188 224.78125 L 17.289062 224.453125 L 17.203125 224.132812 L 17.109375 223.8125 L 16.90625 223.171875 L 16.789062 222.851562 L 16.671875 222.539062 L 16.546875 222.226562 L 16.414062 221.914062 L 16.273438 221.609375 L 16.125 221.304688 L 15.96875 221.007812 L 15.804688 220.703125 L 15.632812 220.40625 L 15.453125 220.117188 L 15.265625 219.820312 L 15.0625 219.539062 L 14.859375 219.25 L 14.640625 218.96875 L 14.414062 218.695312 L 14.179688 218.421875 L 13.9375 218.148438 L 13.6875 217.882812 L 13.9375 217.609375 L 14.179688 217.335938 L 14.414062 217.0625 L 14.640625 216.789062 L 14.859375 216.507812 L 15.0625 216.226562 L 15.265625 215.9375 L 15.453125 215.640625 L 15.632812 215.351562 L 15.804688 215.054688 L 15.96875 214.757812 L 16.125 214.453125 L 16.273438 214.148438 L 16.414062 213.84375 L 16.546875 213.53125 L 16.671875 213.21875 L 16.789062 212.90625 L 16.90625 212.585938 L 17.007812 212.273438 L 17.109375 211.945312 L 17.203125 211.625 L 17.289062 211.304688 L 17.367188 210.976562 L 17.507812 210.320312 L 17.570312 209.984375 L 17.625 209.648438 L 17.71875 208.976562 L 17.796875 208.304688 L 17.828125 207.960938 L 17.851562 207.617188 L 17.875 207.28125 L 17.890625 206.9375 L 17.898438 206.59375 L 17.914062 206.242188 L 17.914062 205.203125 L 17.90625 204.859375 L 17.898438 204.507812 L 17.890625 204.164062 L 17.859375 203.460938 L 17.835938 203.117188 L 17.8125 202.765625 L 17.789062 202.421875 L 17.765625 202.070312 L 17.734375 201.71875 L 17.703125 201.375 L 17.640625 200.671875 L 17.601562 200.328125 L 17.5625 199.976562 L 17.523438 199.632812 L 17.492188 199.289062 L 17.335938 197.914062 L 17.296875 197.578125 L 17.257812 197.234375 L 17.210938 196.898438 L 17.171875 196.5625 L 17.140625 196.226562 L 17.101562 195.890625 L 17.0625 195.5625 L 17.03125 195.226562 L 16.992188 194.898438 L 16.929688 194.242188 L 16.898438 193.921875 L 16.851562 193.28125 L 16.820312 192.960938 L 16.804688 192.648438 L 16.78125 192.335938 L 16.765625 192.023438 L 16.757812 191.71875 L 16.742188 191.414062 L 16.734375 191.109375 L 16.734375 190.21875 L 16.742188 189.929688 L 16.773438 189.351562 L 16.789062 189.070312 L 16.8125 188.789062 L 16.875 188.242188 L 16.914062 187.96875 L 16.960938 187.710938 L 17.007812 187.445312 L 17.0625 187.1875 L 17.117188 186.9375 L 17.1875 186.679688 L 17.257812 186.4375 L 17.414062 185.953125 L 17.507812 185.71875 L 17.601562 185.492188 L 17.703125 185.265625 L 17.8125 185.046875 L 17.929688 184.828125 L 18.054688 184.609375 L 18.1875 184.40625 L 18.328125 184.203125 L 18.46875 184.007812 L 18.78125 183.617188 L 18.953125 183.4375 L 19.132812 183.257812 L 19.320312 183.085938 L 19.515625 182.914062 L 19.71875 182.75 L 19.929688 182.59375 L 20.148438 182.445312 L 20.382812 182.296875 "/>
<path fill="none" stroke-width="3.985" stroke-linecap="butt" stroke-linejoin="miter" stroke="rgb(0%, 0%, 0%)" stroke-opacity="1" stroke-miterlimit="10" d="M 101.914061 688.515615 L 101.015623 687.96874 L 100.156249 687.34374 L 99.374999 686.71874 L 98.593749 686.054677 L 97.851561 685.351552 L 97.109374 684.609365 L 96.445311 683.867177 L 95.195311 682.226552 L 94.609374 681.40624 L 94.062499 680.507802 L 93.554686 679.609365 L 93.085936 678.632802 L 92.617186 677.695302 L 92.187499 676.679677 L 91.406249 674.648427 L 91.054686 673.554677 L 90.742186 672.460927 L 90.429686 671.328115 L 90.156249 670.195303 L 89.882811 669.023428 L 89.687499 667.81249 L 89.453124 666.601553 L 89.257811 665.390615 L 88.945311 662.81249 L 88.828124 661.523428 L 88.710936 660.195303 L 88.632811 658.867178 L 88.554686 657.49999 L 88.476561 656.09374 L 88.398436 653.28124 L 88.398436 648.90624 L 88.437499 647.382803 L 88.437499 645.898428 L 88.515624 644.37499 L 88.554686 642.81249 L 88.632811 641.24999 L 88.671874 639.68749 L 88.789061 638.12499 L 88.867186 636.523428 L 88.945311 634.882803 L 89.062499 633.281241 L 89.179686 631.640616 L 89.257811 629.999991 L 89.492186 626.640616 L 89.648436 624.960928 L 89.882811 621.601553 L 90.117186 618.164053 L 90.234374 616.406241 L 90.351561 614.687491 L 90.468749 612.929678 L 90.585936 611.210928 L 90.937499 605.937491 L 91.093749 602.343741 L 91.171874 600.585929 L 91.328124 596.992179 L 91.367186 595.234366 L 91.445311 593.437491 L 91.445311 591.640616 L 91.484374 589.804679 L 91.484374 584.414054 L 91.367186 579.023429 L 91.249999 577.226554 L 91.171874 575.468741 L 90.937499 571.874991 L 90.781249 570.078117 L 90.624999 568.320304 L 90.429686 566.523429 L 90.234374 564.765617 L 89.999999 563.007804 L 89.765624 561.210929 L 89.492186 559.492179 L 88.867186 555.976554 L 88.515624 554.257804 L 87.734374 550.820304 L 87.304686 549.101554 L 86.874999 547.421867 L 86.367186 545.703117 L 85.859374 544.062492 L 85.312499 542.382804 L 84.726561 540.703117 L 84.140624 539.062492 L 83.476561 537.421867 L 82.812499 535.820305 L 82.109374 534.218742 L 81.367186 532.61718 L 80.585936 531.015617 L 79.804686 529.453117 L 78.945311 527.92968 L 78.046874 526.36718 L 77.148436 524.843742 L 75.195311 521.874992 L 74.140624 520.390617 L 71.953124 517.499992 L 70.781249 516.093742 L 69.570311 514.687492 L 68.320311 513.320305 L 67.031249 511.953117 L 65.703124 510.58593 L 67.031249 509.257805 L 68.320311 507.890617 L 69.570311 506.52343 L 70.781249 505.11718 L 71.953124 503.71093 L 74.140624 500.820305 L 75.195311 499.33593 L 77.148436 496.36718 L 78.046874 494.80468 L 78.945311 493.281243 L 79.804686 491.718743 L 80.585936 490.195305 L 81.367186 488.593743 L 82.109374 486.99218 L 82.812499 485.390618 L 83.476561 483.789055 L 84.140624 482.14843 L 84.726561 480.468743 L 85.312499 478.828118 L 85.859374 477.187493 L 86.367186 475.468743 L 86.874999 473.789055 L 87.304686 472.109368 L 87.734374 470.390618 L 88.515624 466.953118 L 88.867186 465.234368 L 89.492186 461.718743 L 89.765624 459.960931 L 90.234374 456.445306 L 90.429686 454.687493 L 90.624999 452.890618 L 90.781249 451.132806 L 90.937499 449.335931 L 91.171874 445.742181 L 91.249999 443.984368 L 91.367186 442.148431 L 91.406249 440.390618 L 91.445311 438.554681 L 91.484374 436.757806 L 91.484374 431.367181 L 91.445311 429.570306 L 91.445311 427.773431 L 91.367186 425.976556 L 91.328124 424.179681 L 91.249999 422.421869 L 91.093749 418.828119 L 90.937499 415.312494 L 90.820311 413.515619 L 90.468749 408.242181 L 90.351561 406.523431 L 90.234374 404.765619 L 89.882811 399.609369 L 89.765624 397.929682 L 89.648436 396.210932 L 89.492186 394.570307 L 89.374999 392.851557 L 89.257811 391.210932 L 89.179686 389.570307 L 88.945311 386.289057 L 88.789061 383.085932 L 88.671874 381.523432 L 88.632811 379.921869 L 88.554686 378.398432 L 88.515624 376.835932 L 88.437499 375.312494 L 88.437499 373.828119 L 88.398436 372.304682 L 88.398436 367.929682 L 88.476561 365.117182 L 88.554686 363.710932 L 88.632811 362.343745 L 88.710936 361.01562 L 88.945311 358.35937 L 89.101561 357.10937 L 89.257811 355.820307 L 89.453124 354.60937 L 89.687499 353.35937 L 89.882811 352.187495 L 90.156249 351.01562 L 90.429686 349.882807 L 90.742186 348.749995 L 91.054686 347.656245 L 91.406249 346.562495 L 91.796874 345.507807 L 92.187499 344.492182 L 92.617186 343.51562 L 93.085936 342.539057 L 93.554686 341.601557 L 94.062499 340.70312 L 94.609374 339.843745 L 95.195311 338.98437 L 96.445311 337.343745 L 97.109374 336.601557 L 97.851561 335.85937 L 98.593749 335.156245 L 99.374999 334.492183 L 100.156249 333.867183 L 101.015623 333.242183 L 101.914061 332.695308 L 100.742186 333.437495 L 99.648436 334.179683 L 98.593749 334.960933 L 97.578124 335.781245 L 96.601561 336.64062 L 95.664061 337.499995 L 94.765624 338.398432 L 93.906249 339.29687 L 93.124999 340.273432 L 92.343749 341.210932 L 90.937499 343.242182 L 90.273436 344.257807 L 89.648436 345.312495 L 89.062499 346.406245 L 88.515624 347.539057 L 88.007811 348.67187 L 87.539061 349.804682 L 87.070311 350.976557 L 86.289061 353.398432 L 85.937499 354.60937 L 85.585936 355.898432 L 85.312499 357.148432 L 85.039061 358.437495 L 84.804686 359.726557 L 84.570311 361.054682 L 84.374999 362.42187 L 84.062499 365.156245 L 83.945311 366.562495 L 83.789061 369.374994 L 83.710936 370.859369 L 83.671874 372.304682 L 83.671874 376.757807 L 83.710936 378.281244 L 83.789061 379.804682 L 83.828124 381.328119 L 83.906249 382.890619 L 84.023436 384.453119 L 84.101561 386.015619 L 84.257811 387.617182 L 84.492186 390.820307 L 84.648436 392.421869 L 84.960936 395.703119 L 85.156249 397.343744 L 85.312499 398.984369 L 85.703124 402.343744 L 85.859374 404.023431 L 86.054686 405.703119 L 86.289061 407.382806 L 86.484374 409.101556 L 86.679686 410.781244 L 87.460936 417.656244 L 87.617186 419.374994 L 87.812499 421.132806 L 88.203124 424.570306 L 88.359374 426.328119 L 88.515624 428.046869 L 88.828124 431.562494 L 88.945311 433.281244 L 89.179686 436.796868 L 89.296874 438.515618 L 89.453124 442.031243 L 89.492186 443.749993 L 89.531249 445.507806 L 89.570311 447.226556 L 89.570311 452.421868 L 89.492186 454.140618 L 89.453124 455.859368 L 89.374999 457.578118 L 89.140624 461.015618 L 88.984374 462.695306 L 88.789061 464.414056 L 88.593749 466.093743 L 88.124999 469.453118 L 87.851561 471.132805 L 87.539061 472.77343 L 87.187499 474.453118 L 86.835936 476.093743 L 86.445311 477.734368 L 86.015624 479.33593 L 85.546874 480.937493 L 84.531249 484.140618 L 83.945311 485.74218 L 83.359374 487.30468 L 82.734374 488.86718 L 82.070311 490.42968 L 81.367186 491.953118 L 80.624999 493.476555 L 79.843749 494.96093 L 79.023436 496.484368 L 78.164061 497.968743 L 77.265624 499.414055 L 76.328124 500.89843 L 75.312499 502.30468 L 74.296874 503.749992 L 73.203124 505.156242 L 72.070311 506.52343 L 70.898436 507.890617 L 69.687499 509.257805 L 68.437499 510.58593 L 69.687499 511.953117 L 70.898436 513.320305 L 72.070311 514.687492 L 73.203124 516.05468 L 74.296874 517.46093 L 75.312499 518.86718 L 76.328124 520.312492 L 77.265624 521.796867 L 78.164061 523.24218 L 79.023436 524.726555 L 79.843749 526.21093 L 80.624999 527.734367 L 81.367186 529.257805 L 82.070311 530.781242 L 82.734374 532.343742 L 83.359374 533.906242 L 83.945311 535.468742 L 84.531249 537.070304 L 85.039061 538.632804 L 85.546874 540.273429 L 86.015624 541.874992 L 86.445311 543.476554 L 86.835936 545.117179 L 87.539061 548.398429 L 87.851561 550.078117 L 88.124999 551.757804 L 88.593749 555.117179 L 88.984374 558.476554 L 89.140624 560.195304 L 89.257811 561.914054 L 89.374999 563.593742 L 89.453124 565.312492 L 89.492186 567.031242 L 89.570311 568.789054 L 89.570311 573.984366 L 89.531249 575.703116 L 89.492186 577.460929 L 89.453124 579.179679 L 89.296874 582.695304 L 89.179686 584.414054 L 89.062499 586.171866 L 88.945311 587.890616 L 88.828124 589.648429 L 88.671874 591.406241 L 88.515624 593.124991 L 88.203124 596.640616 L 88.007811 598.359366 L 87.812499 600.117179 L 87.617186 601.835929 L 87.460936 603.554679 L 86.679686 610.429678 L 86.484374 612.109366 L 86.289061 613.828116 L 86.054686 615.507803 L 85.859374 617.187491 L 85.703124 618.867178 L 85.507811 620.546866 L 85.312499 622.187491 L 85.156249 623.867178 L 84.960936 625.507803 L 84.648436 628.789053 L 84.492186 630.390616 L 84.257811 633.593741 L 84.101561 635.195303 L 84.023436 636.757803 L 83.906249 638.320303 L 83.828124 639.882803 L 83.789061 641.40624 L 83.710936 642.929678 L 83.671874 644.453115 L 83.671874 648.90624 L 83.710936 650.351553 L 83.867186 653.242178 L 83.945311 654.648428 L 84.062499 656.054678 L 84.374999 658.789053 L 84.570311 660.15624 L 84.804686 661.445303 L 85.039061 662.773428 L 85.312499 664.06249 L 85.585936 665.31249 L 85.937499 666.601553 L 86.289061 667.81249 L 87.070311 670.234365 L 87.539061 671.40624 L 88.007811 672.539052 L 88.515624 673.671865 L 89.062499 674.765615 L 89.648436 675.859365 L 90.273436 676.953115 L 90.937499 677.96874 L 91.640624 678.984365 L 92.343749 679.960927 L 93.906249 681.914052 L 94.765624 682.81249 L 95.664061 683.710927 L 96.601561 684.570302 L 97.578124 685.429677 L 98.593749 686.24999 L 99.648436 687.03124 L 100.742186 687.773427 Z M 101.914061 688.515615 " transform="matrix(0.2, 0, 0, -0.2, 0, 320)"/>
<path fill-rule="nonzero" fill="rgb(100%, 100%, 100%)" fill-opacity="1" d="M -5.304688 255.703125 L 23.976562 255.703125 L 23.976562 282.585938 L -5.304688 282.585938 Z M -5.304688 255.703125 "/>
<path fill-rule="nonzero" fill="rgb(0%, 0%, 0%)" fill-opacity="1" d="M 16.875 267.058594 C 16.875 263.527344 14.5625 261.183594 11.3125 261.183594 C 6.59375 261.183594 1.78125 266.121094 1.78125 271.214844 C 1.78125 274.839844 4.21875 277.027344 7.375 277.027344 C 12 277.027344 16.875 272.246094 16.875 267.058594 Z M 7.5 276.464844 C 5.34375 276.464844 3.8125 274.714844 3.8125 271.839844 C 3.8125 270.871094 4.125 267.683594 5.8125 265.121094 C 7.3125 262.871094 9.4375 261.714844 11.15625 261.714844 C 12.96875 261.714844 14.90625 262.933594 14.90625 266.183594 C 14.90625 267.777344 14.34375 271.183594 12.15625 273.839844 C 11.125 275.183594 9.34375 276.464844 7.5 276.464844 Z M 7.5 276.464844 "/>
<path fill-rule="nonzero" fill="rgb(100%, 100%, 100%)" fill-opacity="1" d="M 364.15625 255.703125 L 396.078125 255.703125 L 396.078125 282.585938 L 364.15625 282.585938 Z M 364.15625 255.703125 "/>
<path fill-rule="nonzero" fill="rgb(0%, 0%, 0%)" fill-opacity="1" d="M 380.777344 267.589844 L 378.933594 263.246094 C 378.871094 263.089844 378.808594 262.996094 378.808594 262.964844 C 378.808594 262.839844 379.183594 262.433594 380.121094 262.339844 C 380.339844 262.308594 380.558594 262.308594 380.558594 261.933594 C 380.558594 261.652344 380.277344 261.652344 380.214844 261.652344 C 379.308594 261.652344 378.371094 261.714844 377.464844 261.714844 C 376.933594 261.714844 375.558594 261.652344 375.027344 261.652344 C 374.902344 261.652344 374.621094 261.652344 374.621094 262.089844 C 374.621094 262.339844 374.839844 262.339844 375.121094 262.339844 C 376.433594 262.339844 376.589844 262.558594 376.777344 263.027344 L 379.339844 269.121094 L 374.746094 274.058594 L 374.464844 274.308594 C 373.402344 275.464844 372.371094 275.808594 371.246094 275.871094 C 370.964844 275.902344 370.777344 275.902344 370.777344 276.308594 C 370.777344 276.339844 370.777344 276.558594 371.058594 276.558594 C 371.714844 276.558594 372.433594 276.496094 373.121094 276.496094 C 373.902344 276.496094 374.777344 276.558594 375.558594 276.558594 C 375.683594 276.558594 375.933594 276.558594 375.933594 276.121094 C 375.933594 275.902344 375.714844 275.871094 375.683594 275.871094 C 375.496094 275.871094 374.808594 275.808594 374.808594 275.214844 C 374.808594 274.871094 375.121094 274.496094 375.402344 274.214844 L 377.621094 271.871094 L 379.589844 269.746094 L 381.777344 274.933594 C 381.871094 275.183594 381.902344 275.214844 381.902344 275.246094 C 381.902344 275.433594 381.496094 275.808594 380.621094 275.871094 C 380.402344 275.902344 380.183594 275.933594 380.183594 276.308594 C 380.183594 276.558594 380.433594 276.558594 380.527344 276.558594 C 381.121094 276.558594 382.652344 276.496094 383.277344 276.496094 C 383.808594 276.496094 385.152344 276.558594 385.683594 276.558594 C 385.839844 276.558594 386.121094 276.558594 386.121094 276.152344 C 386.121094 275.871094 385.902344 275.871094 385.714844 275.871094 C 384.246094 275.871094 384.214844 275.808594 383.839844 274.933594 C 382.996094 272.902344 381.527344 269.496094 381.027344 268.183594 C 382.496094 266.652344 384.808594 264.058594 385.496094 263.464844 C 386.121094 262.933594 386.964844 262.402344 388.277344 262.339844 C 388.558594 262.308594 388.746094 262.308594 388.746094 261.902344 C 388.746094 261.871094 388.746094 261.652344 388.464844 261.652344 C 387.808594 261.652344 387.089844 261.714844 386.402344 261.714844 C 385.589844 261.714844 384.777344 261.652344 383.996094 261.652344 C 383.871094 261.652344 383.589844 261.652344 383.589844 262.089844 C 383.589844 262.246094 383.683594 262.308594 383.839844 262.339844 C 384.027344 262.371094 384.714844 262.402344 384.714844 263.027344 C 384.714844 263.308594 384.464844 263.589844 384.308594 263.808594 Z M 380.777344 267.589844 "/>
<path fill-rule="nonzero" fill="rgb(100%, 100%, 100%)" fill-opacity="1" d="M -5.546875 -5.757812 L 23.976562 -5.757812 L 23.976562 21.125 L -5.546875 21.125 Z M -5.546875 -5.757812 "/>
<path fill-rule="nonzero" fill="rgb(0%, 0%, 0%)" fill-opacity="1" d="M 13.511719 2.695312 L 13.792969 2.382812 C 14.449219 1.726562 15.167969 0.976562 16.667969 0.882812 C 16.917969 0.851562 17.105469 0.851562 17.105469 0.476562 C 17.105469 0.289062 16.980469 0.195312 16.824219 0.195312 C 16.261719 0.195312 15.605469 0.257812 15.042969 0.257812 C 14.324219 0.257812 13.542969 0.195312 12.855469 0.195312 C 12.730469 0.195312 12.449219 0.195312 12.449219 0.632812 C 12.449219 0.851562 12.636719 0.882812 12.761719 0.882812 C 12.917969 0.882812 13.542969 0.914062 13.542969 1.382812 C 13.542969 1.757812 13.042969 2.320312 12.949219 2.414062 L 7.886719 8.257812 L 5.511719 1.789062 C 5.355469 1.476562 5.355469 1.414062 5.355469 1.414062 C 5.355469 0.882812 6.449219 0.882812 6.667969 0.882812 C 6.949219 0.882812 7.167969 0.882812 7.167969 0.445312 C 7.167969 0.195312 6.917969 0.195312 6.855469 0.195312 C 6.230469 0.195312 4.699219 0.257812 4.105469 0.257812 C 3.542969 0.257812 2.199219 0.195312 1.667969 0.195312 C 1.542969 0.195312 1.230469 0.195312 1.230469 0.632812 C 1.230469 0.882812 1.449219 0.882812 1.730469 0.882812 C 3.042969 0.882812 3.136719 1.070312 3.324219 1.632812 L 6.011719 8.789062 C 6.042969 8.851562 6.105469 9.101562 6.105469 9.164062 C 6.105469 9.226562 5.230469 12.757812 5.136719 13.132812 C 4.855469 14.351562 4.824219 14.414062 3.074219 14.414062 C 2.667969 14.414062 2.480469 14.414062 2.480469 14.851562 C 2.480469 15.101562 2.761719 15.101562 2.792969 15.101562 C 3.417969 15.101562 4.917969 15.039062 5.542969 15.039062 C 6.136719 15.039062 7.730469 15.101562 8.324219 15.101562 C 8.480469 15.101562 8.761719 15.101562 8.761719 14.664062 C 8.761719 14.414062 8.542969 14.414062 8.136719 14.414062 C 8.105469 14.414062 7.667969 14.414062 7.292969 14.382812 C 6.855469 14.351562 6.730469 14.289062 6.730469 14.039062 C 6.730469 13.882812 6.917969 13.101562 7.011719 12.664062 L 7.792969 9.570312 C 7.886719 9.164062 7.917969 9.101562 8.105469 8.914062 Z M 13.511719 2.695312 "/>
<path fill="none" stroke-width="11.9553" stroke-linecap="butt" stroke-linejoin="miter" stroke="rgb(0%, 0%, 0%)" stroke-opacity="1" stroke-miterlimit="10" d="M 68.554686 321.601558 L 1920.039034 321.601558 " transform="matrix(0.2, 0, 0, -0.2, 0, 320)"/>
<path fill="none" stroke-width="11.9553" stroke-linecap="butt" stroke-linejoin="miter" stroke="rgb(0%, 0%, 0%)" stroke-opacity="1" stroke-miterlimit="10" d="M 119.999998 258.593746 L 119.999998 1581.601539 " transform="matrix(0.2, 0, 0, -0.2, 0, 320)"/>
<path fill-rule="nonzero" fill="rgb(0%, 0%, 0%)" fill-opacity="1" d="M 159.601562 312.300781 C 160.789062 311.894531 162.789062 311.300781 162.789062 309.363281 C 162.789062 307.050781 160.070312 305.988281 158.101562 305.988281 C 157.164062 305.988281 156.195312 306.207031 155.351562 306.707031 C 155.226562 306.769531 155.070312 306.957031 154.914062 306.957031 C 154.601562 306.957031 154.039062 305.988281 153.726562 305.988281 C 153.539062 305.988281 153.507812 306.207031 153.507812 306.300781 L 153.507812 309.863281 C 153.507812 309.988281 153.601562 310.144531 153.789062 310.144531 C 154.101562 310.144531 154.070312 309.519531 154.164062 309.175781 C 154.632812 307.457031 156.195312 306.707031 157.695312 306.613281 L 158.101562 306.613281 C 159.445312 306.613281 161.007812 307.488281 161.007812 309.363281 C 161.007812 311.175781 159.226562 312.113281 157.570312 312.113281 C 157.257812 312.113281 156.945312 312.113281 156.632812 312.113281 L 156.476562 312.113281 C 156.289062 312.113281 156.070312 312.113281 156.070312 312.332031 L 156.070312 312.363281 C 156.101562 312.550781 156.289062 312.582031 156.476562 312.582031 L 158.320312 312.582031 C 159.882812 312.707031 161.320312 313.738281 161.476562 315.363281 L 161.476562 315.582031 C 161.476562 317.425781 159.757812 318.582031 158.007812 318.582031 C 156.101562 318.582031 154.132812 317.957031 153.820312 315.582031 C 153.820312 315.425781 153.757812 315.238281 153.539062 315.238281 C 153.320312 315.269531 153.289062 315.425781 153.289062 315.582031 C 153.289062 318.175781 155.882812 319.207031 158.132812 319.207031 C 160.195312 319.207031 163.070312 318.238281 163.320312 315.769531 L 163.320312 315.644531 C 163.320312 313.675781 161.257812 312.707031 159.601562 312.300781 Z M 159.601562 312.300781 "/>
<path fill-rule="nonzero" fill="rgb(0%, 0%, 0%)" fill-opacity="1" d="M 171.695312 305.988281 C 168.320312 306.394531 165.632812 309.050781 165.632812 312.644531 C 165.632812 315.925781 168.226562 319.175781 172.101562 319.175781 C 175.601562 319.175781 178.570312 316.269531 178.570312 312.644531 C 178.570312 309.457031 176.070312 305.988281 172.132812 305.988281 C 172.007812 305.988281 171.851562 305.988281 171.695312 305.988281 Z M 167.507812 312.863281 L 167.507812 312.519531 C 167.507812 310.019531 168.414062 307.082031 171.570312 306.550781 C 171.757812 306.519531 171.914062 306.519531 172.101562 306.519531 C 174.914062 306.519531 176.664062 309.238281 176.664062 312.269531 C 176.664062 314.675781 175.945312 317.738281 172.976562 318.519531 C 172.695312 318.582031 172.414062 318.613281 172.132812 318.613281 L 171.945312 318.613281 C 169.351562 318.519531 167.945312 316.050781 167.601562 313.644531 Z M 167.507812 312.863281 "/>
<path fill-rule="nonzero" fill="rgb(0%, 0%, 0%)" fill-opacity="1" d="M 181.027344 306.332031 L 181.027344 306.925781 L 181.464844 306.925781 C 182.058594 306.925781 182.683594 307.019531 182.683594 307.894531 L 182.683594 317.363281 C 182.683594 318.207031 181.964844 318.238281 181.308594 318.238281 L 181.027344 318.238281 L 181.027344 318.832031 L 186.808594 318.832031 C 187.214844 318.832031 187.589844 318.863281 187.996094 318.863281 C 189.996094 318.863281 192.339844 317.925781 192.558594 315.519531 L 192.558594 315.332031 C 192.558594 312.800781 189.683594 311.769531 187.777344 311.769531 C 186.527344 311.769531 185.339844 311.894531 184.152344 311.988281 L 184.152344 307.769531 C 184.152344 307.332031 184.214844 306.925781 184.996094 306.925781 L 187.308594 306.925781 C 188.277344 306.925781 189.371094 306.988281 190.089844 307.707031 C 190.777344 308.425781 190.871094 309.644531 190.964844 310.582031 L 191.496094 310.582031 L 191.027344 306.332031 Z M 184.152344 312.613281 C 184.402344 312.613281 184.652344 312.550781 184.902344 312.519531 L 186.277344 312.457031 C 186.558594 312.425781 186.839844 312.394531 187.152344 312.394531 C 188.714844 312.394531 190.683594 313.394531 190.683594 315.238281 C 190.683594 316.988281 189.339844 318.269531 187.339844 318.269531 C 187.058594 318.269531 186.746094 318.238281 186.496094 318.238281 L 184.964844 318.238281 C 184.496094 318.238281 184.246094 318.207031 184.152344 317.582031 Z M 184.152344 312.613281 "/>
<path fill-rule="nonzero" fill="rgb(0%, 0%, 0%)" fill-opacity="1" d="M 194.90625 306.332031 L 194.90625 306.925781 L 195.375 306.925781 C 195.96875 306.925781 196.5625 307.019531 196.5625 307.894531 L 196.5625 317.363281 C 196.5625 318.207031 195.875 318.238281 195.1875 318.238281 L 194.90625 318.238281 L 194.90625 318.832031 L 199.8125 318.832031 L 199.8125 318.238281 L 199.375 318.238281 C 198.75 318.238281 198.15625 318.175781 198.15625 317.300781 L 198.15625 313.113281 L 201.875 313.113281 C 203.65625 312.988281 205.9375 311.800781 205.9375 309.769531 C 205.9375 307.550781 203.59375 306.488281 201.6875 306.332031 Z M 198.125 312.582031 L 198.125 307.582031 C 198.21875 306.988281 198.46875 306.925781 198.875 306.925781 L 200.3125 306.925781 C 201.9375 306.925781 204.0625 306.988281 204.0625 309.769531 C 204.0625 310.425781 203.96875 311.113281 203.5625 311.613281 C 202.90625 312.394531 201.8125 312.582031 200.84375 312.582031 Z M 198.125 312.582031 "/>
<path fill-rule="nonzero" fill="rgb(0%, 0%, 0%)" fill-opacity="1" d="M 210.636719 316.550781 C 210.136719 316.644531 209.636719 317.082031 209.636719 317.675781 C 209.636719 318.300781 210.167969 318.832031 210.792969 318.832031 C 211.417969 318.832031 211.980469 318.363281 211.980469 317.707031 C 211.980469 317.082031 211.449219 316.519531 210.824219 316.519531 C 210.761719 316.519531 210.699219 316.550781 210.636719 316.550781 Z M 210.636719 316.550781 "/>
<path fill-rule="nonzero" fill="rgb(0%, 0%, 0%)" fill-opacity="1" d="M 224.191406 314.832031 L 230.785156 314.832031 L 230.785156 317.113281 C 230.785156 318.144531 229.972656 318.144531 228.410156 318.144531 L 228.410156 318.832031 L 234.847656 318.832031 L 234.847656 318.144531 C 234.566406 318.144531 234.253906 318.175781 233.941406 318.175781 C 233.128906 318.175781 232.472656 318.050781 232.472656 317.113281 L 232.472656 314.832031 L 235.003906 314.832031 L 235.003906 314.144531 L 232.472656 314.144531 L 232.472656 303.019531 L 232.378906 302.738281 L 231.910156 302.738281 L 231.597656 303.144531 L 224.191406 314.144531 Z M 224.785156 314.144531 L 230.878906 305.082031 L 230.878906 314.144531 Z M 224.785156 314.144531 "/>
<path fill-rule="nonzero" fill="rgb(0%, 0%, 0%)" fill-opacity="1" d="M 241.996094 302.957031 C 237.433594 303.363281 237.277344 308.832031 237.277344 311.269531 C 237.277344 313.519531 237.496094 316.175781 238.964844 317.894531 C 239.777344 318.800781 241.027344 319.363281 242.246094 319.363281 C 247.121094 319.363281 247.339844 313.519531 247.339844 311.082031 C 247.339844 308.832031 247.152344 306.144531 245.652344 304.457031 C 244.839844 303.519531 243.621094 302.925781 242.339844 302.925781 C 242.214844 302.925781 242.089844 302.957031 241.996094 302.957031 Z M 239.121094 312.582031 C 239.089844 312.394531 239.089844 312.175781 239.089844 311.957031 L 239.089844 310.925781 C 239.089844 309.738281 239.121094 308.550781 239.246094 307.363281 C 239.339844 306.457031 239.464844 305.488281 239.996094 304.707031 C 240.527344 303.925781 241.371094 303.425781 242.308594 303.425781 C 244.433594 303.425781 245.183594 305.488281 245.371094 307.207031 C 245.496094 308.300781 245.496094 309.394531 245.496094 310.488281 C 245.496094 311.488281 245.496094 312.519531 245.433594 313.519531 C 245.371094 315.457031 245.246094 318.269531 242.777344 318.800781 C 242.621094 318.832031 242.464844 318.863281 242.308594 318.863281 C 239.277344 318.863281 239.339844 314.988281 239.121094 312.582031 Z M 239.121094 312.582031 "/>
<path fill-rule="nonzero" fill="rgb(0%, 0%, 0%)" fill-opacity="1" d="M 252.144531 316.550781 C 251.644531 316.644531 251.144531 317.082031 251.144531 317.675781 C 251.144531 318.300781 251.675781 318.832031 252.300781 318.832031 C 252.925781 318.832031 253.488281 318.363281 253.488281 317.707031 C 253.488281 317.082031 252.957031 316.519531 252.332031 316.519531 C 252.269531 316.519531 252.207031 316.550781 252.144531 316.550781 Z M 252.144531 316.550781 "/>
</svg>
