<?xml version="1.0" encoding="UTF-8"?>
<svg xmlns="http://www.w3.org/2000/svg" xmlns:xlink="http://www.w3.org/1999/xlink" width="432" height="320" viewBox="0 0 432 320">
<path fill="none" stroke-width="11.9553" stroke-linecap="butt" stroke-linejoin="miter" stroke="rgb(0%, 0%, 0%)" stroke-opacity="1" stroke-miterlimit="10" d="M 149.999998 1329.609355 L 192.421872 1287.031231 L 234.843747 1246.289044 L 277.304683 1207.226545 L 319.726558 1169.80467 L 362.148432 1133.984358 L 404.570306 1099.687484 L 446.992181 1066.796859 L 489.453118 1035.351547 L 531.83593 1005.195298 L 574.296866 976.32811 L 616.718741 948.671861 L 659.140615 922.187486 L 701.56249 896.835924 L 744.023426 872.539049 L 786.445301 849.2578 L 828.867175 826.992175 L 871.28905 805.624988 L 913.710924 785.195301 L 956.132798 765.585926 L 998.593735 746.835926 L 1041.015609 728.906239 L 1083.437484 711.679677 L 1125.859358 695.234365 L 1168.281233 679.453115 L 1210.703107 664.335928 L 1253.164044 649.84374 L 1295.585918 635.976553 L 1338.007793 622.695303 L 1380.429667 609.999991 L 1422.851541 597.812491 L 1465.312478 586.132804 L 1507.734353 574.960929 L 1550.156227 564.257804 L 1592.578101 554.023429 L 1635.039038 544.218742 L 1677.460913 534.80468 L 1719.882787 525.820305 L 1762.304661 517.187492 L 1804.726536 508.906242 L 1847.187472 501.015618 " transform="matrix(0.2, 0, 0, -0.2, 0, 320)"/>
<path fill="none" stroke-width="7.9701" stroke-linecap="butt" stroke-linejoin="miter" stroke="rgb(0%, 0%, 0%)" stroke-opacity="1" stroke-miterlimit="10" d="M 432.851556 321.601558 L 432.851556 348.593745 " transform="matrix(0.2, 0, 0, -0.2, 0, 320)"/>
<path fill="none" stroke-width="7.9701" stroke-linecap="butt" stroke-linejoin="miter" stroke="rgb(0%, 0%, 0%)" stroke-opacity="1" stroke-miterlimit="10" d="M 432.851556 402.617182 L 432.851556 429.609369 " transform="matrix(0.2, 0, 0, -0.2, 0, 320)"/>
<path fill="none" stroke-width="7.9701" stroke-linecap="butt" stroke-linejoin="miter" stroke="rgb(0%, 0%, 0%)" stroke-opacity="1" stroke-miterlimit="10" d="M 432.851556 429.609369 L 432.851556 456.601556 " transform="matrix(0.2, 0, 0, -0.2, 0, 320)"/>
<path fill="none" stroke-width="7.9701" stroke-linecap="butt" stroke-linejoin="miter" stroke="rgb(0%, 0%, 0%)" stroke-opacity="1" stroke-miterlimit="10" d="M 432.851556 510.58593 L 432.851556 537.617179 " transform="matrix(0.2, 0, 0, -0.2, 0, 320)"/>
<path fill="none" stroke-width="7.9701" stroke-linecap="butt" stroke-linejoin="miter" stroke="rgb(0%, 0%, 0%)" stroke-opacity="1" stroke-miterlimit="10" d="M 432.851556 537.617179 L 432.851556 564.609367 " transform="matrix(0.2, 0, 0, -0.2, 0, 320)"/>
<path fill="none" stroke-width="7.9701" stroke-linecap="butt" stroke-linejoin="miter" stroke="rgb(0%, 0%, 0%)" stroke-opacity="1" stroke-miterlimit="10" d="M 432.851556 618.593741 L 432.851556 645.585928 " transform="matrix(0.2, 0, 0, -0.2, 0, 320)"/>
<path fill="none" stroke-width="7.9701" stroke-linecap="butt" stroke-linejoin="miter" stroke="rgb(0%, 0%, 0%)" stroke-opacity="1" stroke-miterlimit="10" d="M 432.851556 645.585928 L 432.851556 672.617177 " transform="matrix(0.2, 0, 0, -0.2, 0, 320)"/>
<path fill="none" stroke-width="7.9701" stroke-linecap="butt" stroke-linejoin="miter" stroke="rgb(0%, 0%, 0%)" stroke-opacity="1" stroke-miterlimit="10" d="M 432.851556 726.601552 L 432.851556 753.593739 " transform="matrix(0.2, 0, 0, -0.2, 0, 320)"/>
<path fill="none" stroke-width="7.9701" stroke-linecap="butt" stroke-linejoin="miter" stroke="rgb(0%, 0%, 0%)" stroke-opacity="1" stroke-miterlimit="10" d="M 432.851556 753.593739 L 432.851556 780.585926 " transform="matrix(0.2, 0, 0, -0.2, 0, 320)"/>
<path fill="none" stroke-width="7.9701" stroke-linecap="butt" stroke-linejoin="miter" stroke="rgb(0%, 0%, 0%)" stroke-opacity="1" stroke-miterlimit="10" d="M 432.851556 834.609363 L 432.851556 861.60155 " transform="matrix(0.2, 0, 0, -0.2, 0, 320)"/>
<path fill="none" stroke-width="7.9701" stroke-linecap="butt" stroke-linejoin="miter" stroke="rgb(0%, 0%, 0%)" stroke-opacity="1" stroke-miterlimit="10" d="M 432.851556 861.60155 L 432.851556 888.593737 " transform="matrix(0.2, 0, 0, -0.2, 0, 320)"/>
<path fill="none" stroke-width="7.9701" stroke-linecap="butt" stroke-linejoin="miter" stroke="rgb(0%, 0%, 0%)" stroke-opacity="1" stroke-miterlimit="10" d="M 432.851556 942.617173 L 432.851556 969.609361 " transform="matrix(0.2, 0, 0, -0.2, 0, 320)"/>
<path fill="none" stroke-width="7.9701" stroke-linecap="butt" stroke-linejoin="miter" stroke="rgb(0%, 0%, 0%)" stroke-opacity="1" stroke-miterlimit="10" d="M 432.851556 969.609361 L 432.851556 996.601548 " transform="matrix(0.2, 0, 0, -0.2, 0, 320)"/>
<path fill="none" stroke-width="7.9701" stroke-linecap="butt" stroke-linejoin="miter" stroke="rgb(0%, 0%, 0%)" stroke-opacity="1" stroke-miterlimit="10" d="M 432.851556 1050.624984 L 432.851556 1077.617171 " transform="matrix(0.2, 0, 0, -0.2, 0, 320)"/>
<path fill="none" stroke-width="11.9553" stroke-linecap="butt" stroke-linejoin="miter" stroke="rgb(0%, 0%, 0%)" stroke-opacity="1" stroke-miterlimit="10" d="M 149.999998 1329.609355 L 432.851556 1329.609355 " transform="matrix(0.2, 0, 0, -0.2, 0, 320)"/>
<path fill="none" stroke-width="11.9553" stroke-linecap="butt" stroke-linejoin="miter" stroke="rgb(0%, 0%, 0%)" stroke-opacity="1" stroke-miterlimit="10" d="M 432.851556 1077.617171 L 432.851556 1329.609355 " transform="matrix(0.2, 0, 0, -0.2, 0, 320)"/>
<path fill="none" stroke-width="7.9701" stroke-linecap="butt" stroke-linejoin="miter" stroke="rgb(0%, 0%, 0%)" stroke-opacity="1" stroke-miterlimit="10" d="M 715.742177 321.601558 L 715.742177 349.960932 " transform="matrix(0.2, 0, 0, -0.2, 0, 320)"/>
<path fill="none" stroke-width="7.9701" stroke-linecap="butt" stroke-linejoin="miter" stroke="rgb(0%, 0%, 0%)" stroke-opacity="1" stroke-miterlimit="10" d="M 715.742177 406.640619 L 715.742177 434.999994 " transform="matrix(0.2, 0, 0, -0.2, 0, 320)"/>
<path fill="none" stroke-width="7.9701" stroke-linecap="butt" stroke-linejoin="miter" stroke="rgb(0%, 0%, 0%)" stroke-opacity="1" stroke-miterlimit="10" d="M 715.742177 434.999994 L 715.742177 463.359368 " transform="matrix(0.2, 0, 0, -0.2, 0, 320)"/>
<path fill="none" stroke-width="7.9701" stroke-linecap="butt" stroke-linejoin="miter" stroke="rgb(0%, 0%, 0%)" stroke-opacity="1" stroke-miterlimit="10" d="M 715.742177 520.039055 L 715.742177 548.398429 " transform="matrix(0.2, 0, 0, -0.2, 0, 320)"/>
<path fill="none" stroke-width="7.9701" stroke-linecap="butt" stroke-linejoin="miter" stroke="rgb(0%, 0%, 0%)" stroke-opacity="1" stroke-miterlimit="10" d="M 715.742177 548.398429 L 715.742177 576.757804 " transform="matrix(0.2, 0, 0, -0.2, 0, 320)"/>
<path fill="none" stroke-width="7.9701" stroke-linecap="butt" stroke-linejoin="miter" stroke="rgb(0%, 0%, 0%)" stroke-opacity="1" stroke-miterlimit="10" d="M 715.742177 633.437491 L 715.742177 661.796865 " transform="matrix(0.2, 0, 0, -0.2, 0, 320)"/>
<path fill="none" stroke-width="7.9701" stroke-linecap="butt" stroke-linejoin="miter" stroke="rgb(0%, 0%, 0%)" stroke-opacity="1" stroke-miterlimit="10" d="M 715.742177 661.796865 L 715.742177 690.15624 " transform="matrix(0.2, 0, 0, -0.2, 0, 320)"/>
<path fill="none" stroke-width="7.9701" stroke-linecap="butt" stroke-linejoin="miter" stroke="rgb(0%, 0%, 0%)" stroke-opacity="1" stroke-miterlimit="10" d="M 715.742177 746.835926 L 715.742177 775.195301 " transform="matrix(0.2, 0, 0, -0.2, 0, 320)"/>
<path fill="none" stroke-width="7.9701" stroke-linecap="butt" stroke-linejoin="miter" stroke="rgb(0%, 0%, 0%)" stroke-opacity="1" stroke-miterlimit="10" d="M 715.742177 775.195301 L 715.742177 803.554676 " transform="matrix(0.2, 0, 0, -0.2, 0, 320)"/>
<path fill="none" stroke-width="7.9701" stroke-linecap="butt" stroke-linejoin="miter" stroke="rgb(0%, 0%, 0%)" stroke-opacity="1" stroke-miterlimit="10" d="M 715.742177 860.273425 L 715.742177 888.593737 " transform="matrix(0.2, 0, 0, -0.2, 0, 320)"/>
<path fill="none" stroke-width="11.9553" stroke-linecap="butt" stroke-linejoin="miter" stroke="rgb(0%, 0%, 0%)" stroke-opacity="1" stroke-miterlimit="10" d="M 432.851556 1077.617171 L 715.742177 1077.617171 " transform="matrix(0.2, 0, 0, -0.2, 0, 320)"/>
<path fill="none" stroke-width="11.9553" stroke-linecap="butt" stroke-linejoin="miter" stroke="rgb(0%, 0%, 0%)" stroke-opacity="1" stroke-miterlimit="10" d="M 715.742177 888.593737 L 715.742177 1077.617171 " transform="matrix(0.2, 0, 0, -0.2, 0, 320)"/>
<path fill="none" stroke-width="7.9701" stroke-linecap="butt" stroke-linejoin="miter" stroke="rgb(0%, 0%, 0%)" stroke-opacity="1" stroke-miterlimit="10" d="M 998.593735 321.601558 L 998.593735 348.164057 " transform="matrix(0.2, 0, 0, -0.2, 0, 320)"/>
<path fill="none" stroke-width="7.9701" stroke-linecap="butt" stroke-linejoin="miter" stroke="rgb(0%, 0%, 0%)" stroke-opacity="1" stroke-miterlimit="10" d="M 998.593735 401.328119 L 998.593735 427.929681 " transform="matrix(0.2, 0, 0, -0.2, 0, 320)"/>
<path fill="none" stroke-width="7.9701" stroke-linecap="butt" stroke-linejoin="miter" stroke="rgb(0%, 0%, 0%)" stroke-opacity="1" stroke-miterlimit="10" d="M 998.593735 427.929681 L 998.593735 454.492181 " transform="matrix(0.2, 0, 0, -0.2, 0, 320)"/>
<path fill="none" stroke-width="7.9701" stroke-linecap="butt" stroke-linejoin="miter" stroke="rgb(0%, 0%, 0%)" stroke-opacity="1" stroke-miterlimit="10" d="M 998.593735 507.656242 L 998.593735 534.218742 " transform="matrix(0.2, 0, 0, -0.2, 0, 320)"/>
<path fill="none" stroke-width="7.9701" stroke-linecap="butt" stroke-linejoin="miter" stroke="rgb(0%, 0%, 0%)" stroke-opacity="1" stroke-miterlimit="10" d="M 998.593735 534.218742 L 998.593735 560.820304 " transform="matrix(0.2, 0, 0, -0.2, 0, 320)"/>
<path fill="none" stroke-width="7.9701" stroke-linecap="butt" stroke-linejoin="miter" stroke="rgb(0%, 0%, 0%)" stroke-opacity="1" stroke-miterlimit="10" d="M 998.593735 613.945303 L 998.593735 640.546865 " transform="matrix(0.2, 0, 0, -0.2, 0, 320)"/>
<path fill="none" stroke-width="7.9701" stroke-linecap="butt" stroke-linejoin="miter" stroke="rgb(0%, 0%, 0%)" stroke-opacity="1" stroke-miterlimit="10" d="M 998.593735 640.546865 L 998.593735 667.109365 " transform="matrix(0.2, 0, 0, -0.2, 0, 320)"/>
<path fill="none" stroke-width="7.9701" stroke-linecap="butt" stroke-linejoin="miter" stroke="rgb(0%, 0%, 0%)" stroke-opacity="1" stroke-miterlimit="10" d="M 998.593735 720.273427 L 998.593735 746.835926 " transform="matrix(0.2, 0, 0, -0.2, 0, 320)"/>
<path fill="none" stroke-width="11.9553" stroke-linecap="butt" stroke-linejoin="miter" stroke="rgb(0%, 0%, 0%)" stroke-opacity="1" stroke-miterlimit="10" d="M 715.742177 888.593737 L 998.593735 888.593737 " transform="matrix(0.2, 0, 0, -0.2, 0, 320)"/>
<path fill="none" stroke-width="11.9553" stroke-linecap="butt" stroke-linejoin="miter" stroke="rgb(0%, 0%, 0%)" stroke-opacity="1" stroke-miterlimit="10" d="M 998.593735 746.835926 L 998.593735 888.593737 " transform="matrix(0.2, 0, 0, -0.2, 0, 320)"/>
<path fill="none" stroke-width="7.9701" stroke-linecap="butt" stroke-linejoin="miter" stroke="rgb(0%, 0%, 0%)" stroke-opacity="1" stroke-miterlimit="10" d="M 1281.445293 321.601558 L 1281.445293 348.164057 " transform="matrix(0.2, 0, 0, -0.2, 0, 320)"/>
<path fill="none" stroke-width="7.9701" stroke-linecap="butt" stroke-linejoin="miter" stroke="rgb(0%, 0%, 0%)" stroke-opacity="1" stroke-miterlimit="10" d="M 1281.445293 401.328119 L 1281.445293 427.929681 " transform="matrix(0.2, 0, 0, -0.2, 0, 320)"/>
<path fill="none" stroke-width="7.9701" stroke-linecap="butt" stroke-linejoin="miter" stroke="rgb(0%, 0%, 0%)" stroke-opacity="1" stroke-miterlimit="10" d="M 1281.445293 427.929681 L 1281.445293 454.492181 " transform="matrix(0.2, 0, 0, -0.2, 0, 320)"/>
<path fill="none" stroke-width="7.9701" stroke-linecap="butt" stroke-linejoin="miter" stroke="rgb(0%, 0%, 0%)" stroke-opacity="1" stroke-miterlimit="10" d="M 1281.445293 507.656242 L 1281.445293 534.218742 " transform="matrix(0.2, 0, 0, -0.2, 0, 320)"/>
<path fill="none" stroke-width="7.9701" stroke-linecap="butt" stroke-linejoin="miter" stroke="rgb(0%, 0%, 0%)" stroke-opacity="1" stroke-miterlimit="10" d="M 1281.445293 534.218742 L 1281.445293 560.820304 " transform="matrix(0.2, 0, 0, -0.2, 0, 320)"/>
<path fill="none" stroke-width="7.9701" stroke-linecap="butt" stroke-linejoin="miter" stroke="rgb(0%, 0%, 0%)" stroke-opacity="1" stroke-miterlimit="10" d="M 1281.445293 613.945303 L 1281.445293 640.546865 " transform="matrix(0.2, 0, 0, -0.2, 0, 320)"/>
<path fill="none" stroke-width="11.9553" stroke-linecap="butt" stroke-linejoin="miter" stroke="rgb(0%, 0%, 0%)" stroke-opacity="1" stroke-miterlimit="10" d="M 998.593735 746.835926 L 1281.445293 746.835926 " transform="matrix(0.2, 0, 0, -0.2, 0, 320)"/>
<path fill="none" stroke-width="11.9553" stroke-linecap="butt" stroke-linejoin="miter" stroke="rgb(0%, 0%, 0%)" stroke-opacity="1" stroke-miterlimit="10" d="M 1281.445293 640.546865 L 1281.445293 746.835926 " transform="matrix(0.2, 0, 0, -0.2, 0, 320)"/>
<path fill="none" stroke-width="7.9701" stroke-linecap="butt" stroke-linejoin="miter" stroke="rgb(0%, 0%, 0%)" stroke-opacity="1" stroke-miterlimit="10" d="M 1564.296852 321.601558 L 1564.296852 341.523432 " transform="matrix(0.2, 0, 0, -0.2, 0, 320)"/>
<path fill="none" stroke-width="7.9701" stroke-linecap="butt" stroke-linejoin="miter" stroke="rgb(0%, 0%, 0%)" stroke-opacity="1" stroke-miterlimit="10" d="M 1564.296852 381.406244 L 1564.296852 401.328119 " transform="matrix(0.2, 0, 0, -0.2, 0, 320)"/>
<path fill="none" stroke-width="7.9701" stroke-linecap="butt" stroke-linejoin="miter" stroke="rgb(0%, 0%, 0%)" stroke-opacity="1" stroke-miterlimit="10" d="M 1564.296852 401.328119 L 1564.296852 421.289056 " transform="matrix(0.2, 0, 0, -0.2, 0, 320)"/>
<path fill="none" stroke-width="7.9701" stroke-linecap="butt" stroke-linejoin="miter" stroke="rgb(0%, 0%, 0%)" stroke-opacity="1" stroke-miterlimit="10" d="M 1564.296852 461.132806 L 1564.296852 481.05468 " transform="matrix(0.2, 0, 0, -0.2, 0, 320)"/>
<path fill="none" stroke-width="7.9701" stroke-linecap="butt" stroke-linejoin="miter" stroke="rgb(0%, 0%, 0%)" stroke-opacity="1" stroke-miterlimit="10" d="M 1564.296852 481.05468 L 1564.296852 501.015618 " transform="matrix(0.2, 0, 0, -0.2, 0, 320)"/>
<path fill="none" stroke-width="7.9701" stroke-linecap="butt" stroke-linejoin="miter" stroke="rgb(0%, 0%, 0%)" stroke-opacity="1" stroke-miterlimit="10" d="M 1564.296852 540.859367 L 1564.296852 560.820304 " transform="matrix(0.2, 0, 0, -0.2, 0, 320)"/>
<path fill="none" stroke-width="11.9553" stroke-linecap="butt" stroke-linejoin="miter" stroke="rgb(0%, 0%, 0%)" stroke-opacity="1" stroke-miterlimit="10" d="M 1281.445293 640.546865 L 1564.296852 640.546865 " transform="matrix(0.2, 0, 0, -0.2, 0, 320)"/>
<path fill="none" stroke-width="11.9553" stroke-linecap="butt" stroke-linejoin="miter" stroke="rgb(0%, 0%, 0%)" stroke-opacity="1" stroke-miterlimit="10" d="M 1564.296852 560.820304 L 1564.296852 640.546865 " transform="matrix(0.2, 0, 0, -0.2, 0, 320)"/>
<path fill="none" stroke-width="7.9701" stroke-linecap="butt" stroke-linejoin="miter" stroke="rgb(0%, 0%, 0%)" stroke-opacity="1" stroke-miterlimit="10" d="M 1847.187472 321.601558 L 1847.187472 344.023432 " transform="matrix(0.2, 0, 0, -0.2, 0, 320)"/>
<path fill="none" stroke-width="7.9701" stroke-linecap="butt" stroke-linejoin="miter" stroke="rgb(0%, 0%, 0%)" stroke-opacity="1" stroke-miterlimit="10" d="M 1847.187472 388.867182 L 1847.187472 411.289056 " transform="matrix(0.2, 0, 0, -0.2, 0, 320)"/>
<path fill="none" stroke-width="7.9701" stroke-linecap="butt" stroke-linejoin="miter" stroke="rgb(0%, 0%, 0%)" stroke-opacity="1" stroke-miterlimit="10" d="M 1847.187472 411.289056 L 1847.187472 433.710931 " transform="matrix(0.2, 0, 0, -0.2, 0, 320)"/>
<path fill="none" stroke-width="7.9701" stroke-linecap="butt" stroke-linejoin="miter" stroke="rgb(0%, 0%, 0%)" stroke-opacity="1" stroke-miterlimit="10" d="M 1847.187472 478.55468 L 1847.187472 501.015618 " transform="matrix(0.2, 0, 0, -0.2, 0, 320)"/>
<path fill="none" stroke-width="11.9553" stroke-linecap="butt" stroke-linejoin="miter" stroke="rgb(0%, 0%, 0%)" stroke-opacity="1" stroke-miterlimit="10" d="M 1564.296852 560.820304 L 1847.187472 560.820304 " transform="matrix(0.2, 0, 0, -0.2, 0, 320)"/>
<path fill="none" stroke-width="11.9553" stroke-linecap="butt" stroke-linejoin="miter" stroke="rgb(0%, 0%, 0%)" stroke-opacity="1" stroke-miterlimit="10" d="M 1847.187472 501.015618 L 1847.187472 560.820304 " transform="matrix(0.2, 0, 0, -0.2, 0, 320)"/>
<path fill-rule="nonzero" fill="rgb(0%, 0%, 0%)" fill-opacity="1" d="M 87.457031 263.839844 C 87.457031 263.339844 87.457031 263.277344 86.957031 263.277344 C 85.613281 264.683594 83.675781 264.683594 82.988281 264.683594 L 82.988281 265.339844 C 83.425781 265.339844 84.707031 265.339844 85.863281 264.777344 L 85.863281 276.089844 C 85.863281 276.871094 85.769531 277.121094 83.832031 277.121094 L 83.113281 277.121094 L 83.113281 277.808594 C 83.894531 277.746094 85.769531 277.746094 86.644531 277.746094 C 87.519531 277.746094 89.425781 277.746094 90.175781 277.808594 L 90.175781 277.121094 L 89.488281 277.121094 C 87.519531 277.121094 87.457031 276.902344 87.457031 276.089844 Z M 87.457031 263.839844 "/>
<path fill-rule="nonzero" fill="rgb(0%, 0%, 0%)" fill-opacity="1" d="M 140.40625 276.121094 L 142.71875 273.871094 C 146.125 270.871094 147.40625 269.683594 147.40625 267.527344 C 147.40625 265.027344 145.46875 263.277344 142.78125 263.277344 C 140.34375 263.277344 138.71875 265.277344 138.71875 267.214844 C 138.71875 268.464844 139.8125 268.464844 139.875 268.464844 C 140.25 268.464844 141 268.183594 141 267.308594 C 141 266.714844 140.625 266.152344 139.84375 266.152344 C 139.6875 266.152344 139.625 266.152344 139.5625 266.183594 C 140.0625 264.777344 141.25 263.964844 142.5 263.964844 C 144.5 263.964844 145.4375 265.714844 145.4375 267.527344 C 145.4375 269.246094 144.34375 270.996094 143.15625 272.339844 L 138.96875 276.996094 C 138.71875 277.246094 138.71875 277.277344 138.71875 277.808594 L 146.8125 277.808594 L 147.40625 274.027344 L 146.875 274.027344 C 146.75 274.652344 146.625 275.621094 146.40625 275.964844 C 146.25 276.121094 144.8125 276.121094 144.3125 276.121094 Z M 140.40625 276.121094 "/>
<path fill-rule="nonzero" fill="rgb(0%, 0%, 0%)" fill-opacity="1" d="M 200.507812 270.121094 C 202.320312 269.527344 203.570312 268.027344 203.570312 266.277344 C 203.570312 264.496094 201.664062 263.277344 199.570312 263.277344 C 197.351562 263.277344 195.695312 264.589844 195.695312 266.246094 C 195.695312 266.964844 196.195312 267.371094 196.820312 267.371094 C 197.476562 267.371094 197.914062 266.902344 197.914062 266.277344 C 197.914062 265.183594 196.914062 265.183594 196.570312 265.183594 C 197.257812 264.121094 198.695312 263.839844 199.476562 263.839844 C 200.382812 263.839844 201.570312 264.308594 201.570312 266.277344 C 201.570312 266.527344 201.539062 267.808594 200.945312 268.746094 C 200.289062 269.808594 199.570312 269.871094 199.007812 269.902344 C 198.851562 269.902344 198.320312 269.964844 198.164062 269.964844 C 197.976562 269.964844 197.851562 269.996094 197.851562 270.214844 C 197.851562 270.464844 197.976562 270.464844 198.351562 270.464844 L 199.320312 270.464844 C 201.101562 270.464844 201.914062 271.933594 201.914062 274.089844 C 201.914062 277.058594 200.414062 277.683594 199.445312 277.683594 C 198.507812 277.683594 196.882812 277.308594 196.101562 276.027344 C 196.882812 276.121094 197.539062 275.652344 197.539062 274.808594 C 197.539062 274.027344 196.976562 273.589844 196.320312 273.589844 C 195.820312 273.589844 195.101562 273.902344 195.101562 274.871094 C 195.101562 276.839844 197.132812 278.277344 199.507812 278.277344 C 202.164062 278.277344 204.164062 276.308594 204.164062 274.089844 C 204.164062 272.277344 202.789062 270.589844 200.507812 270.121094 Z M 200.507812 270.121094 "/>
<path fill-rule="nonzero" fill="rgb(0%, 0%, 0%)" fill-opacity="1" d="M 257.175781 274.214844 L 257.175781 276.121094 C 257.175781 276.902344 257.144531 277.121094 255.519531 277.121094 L 255.082031 277.121094 L 255.082031 277.808594 C 255.957031 277.746094 257.082031 277.746094 258.019531 277.746094 C 258.925781 277.746094 260.082031 277.746094 260.988281 277.808594 L 260.988281 277.121094 L 260.519531 277.121094 C 258.894531 277.121094 258.863281 276.902344 258.863281 276.121094 L 258.863281 274.214844 L 261.050781 274.214844 L 261.050781 273.527344 L 258.863281 273.527344 L 258.863281 263.621094 C 258.863281 263.183594 258.863281 263.027344 258.519531 263.027344 C 258.332031 263.027344 258.238281 263.027344 258.082031 263.308594 L 251.394531 273.527344 L 251.394531 274.214844 Z M 257.300781 273.527344 L 251.988281 273.527344 L 257.300781 265.402344 Z M 257.300781 273.527344 "/>
<path fill-rule="nonzero" fill="rgb(0%, 0%, 0%)" fill-opacity="1" d="M 317.125 273.433594 C 317.125 270.839844 315.34375 268.652344 313 268.652344 C 311.9375 268.652344 311 268.996094 310.21875 269.746094 L 310.21875 265.496094 C 310.65625 265.652344 311.375 265.777344 312.0625 265.777344 C 314.75 265.777344 316.28125 263.808594 316.28125 263.527344 C 316.28125 263.402344 316.21875 263.277344 316.0625 263.277344 C 316.0625 263.277344 316 263.277344 315.90625 263.339844 C 315.46875 263.558594 314.375 263.964844 312.9375 263.964844 C 312.0625 263.964844 311.0625 263.839844 310.03125 263.371094 C 309.84375 263.308594 309.8125 263.308594 309.75 263.308594 C 309.53125 263.308594 309.53125 263.464844 309.53125 263.839844 L 309.53125 270.277344 C 309.53125 270.683594 309.53125 270.839844 309.84375 270.839844 C 310 270.839844 310.0625 270.777344 310.125 270.652344 C 310.375 270.308594 311.1875 269.121094 312.9375 269.121094 C 314.09375 269.121094 314.625 270.121094 314.8125 270.527344 C 315.15625 271.339844 315.1875 272.183594 315.1875 273.277344 C 315.1875 274.027344 315.1875 275.339844 314.6875 276.246094 C 314.15625 277.121094 313.34375 277.683594 312.34375 277.683594 C 310.75 277.683594 309.5 276.527344 309.125 275.246094 C 309.1875 275.246094 309.25 275.277344 309.5 275.277344 C 310.21875 275.277344 310.59375 274.746094 310.59375 274.214844 C 310.59375 273.683594 310.21875 273.152344 309.5 273.152344 C 309.1875 273.152344 308.4375 273.308594 308.4375 274.308594 C 308.4375 276.183594 309.9375 278.277344 312.375 278.277344 C 314.90625 278.277344 317.125 276.183594 317.125 273.433594 Z M 317.125 273.433594 "/>
<path fill-rule="nonzero" fill="rgb(0%, 0%, 0%)" fill-opacity="1" d="M 366.789062 270.652344 L 366.789062 270.121094 C 366.789062 264.621094 369.507812 263.839844 370.601562 263.839844 C 371.132812 263.839844 372.039062 263.964844 372.539062 264.714844 C 372.195312 264.714844 371.320312 264.714844 371.320312 265.683594 C 371.320312 266.371094 371.851562 266.683594 372.320312 266.683594 C 372.695312 266.683594 373.351562 266.496094 373.351562 265.652344 C 373.351562 264.339844 372.382812 263.277344 370.570312 263.277344 C 367.789062 263.277344 364.820312 266.089844 364.820312 270.902344 C 364.820312 276.746094 367.351562 278.277344 369.382812 278.277344 C 371.820312 278.277344 373.882812 276.246094 373.882812 273.371094 C 373.882812 270.589844 371.945312 268.496094 369.507812 268.496094 C 368.039062 268.496094 367.226562 269.621094 366.789062 270.652344 Z M 369.382812 277.683594 C 368.007812 277.683594 367.351562 276.371094 367.226562 276.027344 C 366.851562 275.027344 366.851562 273.277344 366.851562 272.871094 C 366.851562 271.183594 367.539062 268.996094 369.507812 268.996094 C 369.851562 268.996094 370.851562 268.996094 371.539062 270.339844 C 371.914062 271.152344 371.914062 272.277344 371.914062 273.339844 C 371.914062 274.371094 371.914062 275.464844 371.539062 276.246094 C 370.882812 277.558594 369.882812 277.683594 369.382812 277.683594 Z M 369.382812 277.683594 "/>
<path fill-rule="nonzero" fill="rgb(100%, 100%, 100%)" fill-opacity="1" d="M -6.101562 141.460938 L 15.257812 141.460938 L 15.257812 168.578125 L -6.101562 168.578125 Z M -6.101562 141.460938 "/>
<path fill-rule="nonzero" fill="rgb(0%, 0%, 0%)" fill-opacity="1" d="M 4.902344 147.652344 C 4.902344 147.652344 4.902344 147.433594 4.621094 147.433594 C 4.121094 147.433594 2.527344 147.589844 1.964844 147.652344 C 1.777344 147.652344 1.527344 147.683594 1.527344 148.089844 C 1.527344 148.339844 1.746094 148.339844 2.058594 148.339844 C 3.121094 148.339844 3.152344 148.496094 3.152344 148.714844 C 3.152344 148.871094 2.964844 149.589844 2.839844 150.058594 L 1.058594 157.183594 C 0.808594 158.246094 0.714844 158.621094 0.714844 159.371094 C 0.714844 161.433594 1.871094 162.808594 3.464844 162.808594 C 6.058594 162.808594 8.746094 159.558594 8.746094 156.402344 C 8.746094 154.433594 7.589844 152.902344 5.839844 152.902344 C 4.839844 152.902344 3.933594 153.558594 3.277344 154.214844 Z M 2.839844 155.902344 C 2.964844 155.433594 2.964844 155.371094 3.183594 155.152344 C 4.246094 153.714844 5.214844 153.402344 5.777344 153.402344 C 6.589844 153.402344 7.152344 154.058594 7.152344 155.433594 C 7.152344 156.746094 6.433594 159.246094 6.058594 160.058594 C 5.339844 161.527344 4.339844 162.308594 3.464844 162.308594 C 2.746094 162.308594 2.027344 161.714844 2.027344 160.121094 C 2.027344 159.714844 2.027344 159.277344 2.371094 157.902344 Z M 2.839844 155.902344 "/>
<path fill-rule="nonzero" fill="rgb(0%, 0%, 0%)" fill-opacity="1" d="M 27.445312 57.109375 L 27.132812 57.273438 L 26.835938 57.46875 L 26.546875 57.695312 L 26.265625 57.945312 L 26 58.226562 L 25.734375 58.53125 L 25.492188 58.867188 L 25.257812 59.226562 L 25.03125 59.617188 L 24.8125 60.03125 L 24.601562 60.46875 L 24.40625 60.921875 L 24.210938 61.40625 L 24.039062 61.921875 L 23.867188 62.453125 L 23.703125 63.007812 L 23.546875 63.585938 L 23.40625 64.1875 L 23.265625 64.804688 L 23.132812 65.445312 L 23.015625 66.109375 L 22.898438 66.789062 L 22.796875 67.484375 L 22.6875 68.210938 L 22.59375 68.945312 L 22.515625 69.703125 L 22.429688 70.476562 L 22.351562 71.265625 L 22.289062 72.070312 L 22.226562 72.898438 L 22.171875 73.734375 L 22.117188 74.59375 L 22.070312 75.460938 L 22.03125 76.34375 L 21.992188 77.242188 L 21.960938 78.148438 L 21.929688 79.070312 L 21.90625 80.007812 L 21.890625 80.960938 L 21.859375 82.882812 L 21.851562 83.867188 L 21.84375 84.859375 L 21.84375 87.890625 L 21.851562 88.914062 L 21.851562 89.953125 L 21.859375 90.992188 L 21.875 92.039062 L 21.882812 93.101562 L 21.898438 94.15625 L 21.929688 96.296875 L 21.945312 97.375 L 21.960938 98.460938 L 21.976562 99.539062 L 21.992188 100.625 L 22.070312 106.09375 L 22.085938 107.195312 L 22.101562 109.382812 L 22.117188 110.476562 L 22.117188 111.570312 L 22.125 112.671875 L 22.125 114.84375 L 22.117188 115.921875 L 22.117188 117.007812 L 22.085938 119.148438 L 22.054688 121.273438 L 22.03125 122.328125 L 22 123.375 L 21.96875 124.414062 L 21.929688 125.445312 L 21.890625 126.46875 L 21.835938 127.484375 L 21.789062 128.492188 L 21.664062 130.476562 L 21.59375 131.453125 L 21.515625 132.421875 L 21.4375 133.375 L 21.351562 134.320312 L 21.25 135.25 L 21.148438 136.164062 L 21.039062 137.070312 L 20.921875 137.960938 L 20.804688 138.84375 L 20.671875 139.703125 L 20.53125 140.554688 L 20.382812 141.390625 L 20.226562 142.203125 L 20.0625 143.007812 L 19.890625 143.789062 L 19.710938 144.554688 L 19.515625 145.304688 L 19.320312 146.039062 L 19.109375 146.75 L 18.890625 147.4375 L 18.664062 148.117188 L 18.421875 148.765625 L 18.171875 149.398438 L 17.914062 150.015625 L 17.640625 150.601562 L 17.359375 151.171875 L 17.070312 151.71875 L 16.765625 152.242188 L 16.453125 152.742188 L 16.125 153.21875 L 15.78125 153.671875 L 15.429688 154.101562 L 15.070312 154.5 L 14.6875 154.882812 L 15.070312 155.257812 L 15.429688 155.65625 L 15.78125 156.085938 L 16.125 156.539062 L 16.453125 157.015625 L 16.765625 157.515625 L 17.070312 158.039062 L 17.359375 158.585938 L 17.640625 159.15625 L 17.914062 159.742188 L 18.171875 160.351562 L 18.421875 160.984375 L 18.664062 161.640625 L 18.890625 162.3125 L 19.109375 163.007812 L 19.320312 163.71875 L 19.515625 164.453125 L 19.710938 165.203125 L 19.890625 165.96875 L 20.0625 166.75 L 20.226562 167.554688 L 20.382812 168.367188 L 20.53125 169.203125 L 20.671875 170.054688 L 20.804688 170.914062 L 20.921875 171.796875 L 21.039062 172.6875 L 21.148438 173.59375 L 21.25 174.507812 L 21.351562 175.4375 L 21.4375 176.382812 L 21.515625 177.335938 L 21.59375 178.304688 L 21.664062 179.28125 L 21.789062 181.265625 L 21.835938 182.273438 L 21.890625 183.289062 L 21.929688 184.3125 L 21.96875 185.34375 L 22 186.382812 L 22.03125 187.429688 L 22.054688 188.484375 L 22.085938 190.609375 L 22.101562 191.679688 L 22.117188 192.757812 L 22.117188 193.835938 L 22.125 194.914062 L 22.125 197.09375 L 22.117188 198.1875 L 22.117188 199.273438 L 22.101562 200.375 L 22.085938 202.5625 L 22.070312 203.664062 L 22.007812 208.039062 L 21.992188 209.125 L 21.976562 210.21875 L 21.960938 211.304688 L 21.945312 212.382812 L 21.929688 213.453125 L 21.914062 214.53125 L 21.882812 216.65625 L 21.875 217.710938 L 21.859375 218.765625 L 21.851562 219.804688 L 21.851562 220.835938 L 21.84375 221.867188 L 21.84375 224.898438 L 21.851562 225.890625 L 21.859375 226.867188 L 21.875 227.84375 L 21.890625 228.804688 L 21.90625 229.75 L 21.929688 230.6875 L 21.960938 231.609375 L 21.992188 232.515625 L 22.03125 233.414062 L 22.070312 234.296875 L 22.117188 235.171875 L 22.171875 236.023438 L 22.226562 236.859375 L 22.289062 237.6875 L 22.351562 238.492188 L 22.429688 239.28125 L 22.515625 240.054688 L 22.59375 240.8125 L 22.6875 241.546875 L 22.796875 242.273438 L 22.898438 242.96875 L 23.015625 243.648438 L 23.132812 244.3125 L 23.265625 244.953125 L 23.40625 245.570312 L 23.546875 246.171875 L 23.703125 246.75 L 23.867188 247.304688 L 24.039062 247.835938 L 24.210938 248.34375 L 24.40625 248.828125 L 24.601562 249.289062 L 24.8125 249.726562 L 25.03125 250.140625 L 25.257812 250.53125 L 25.492188 250.890625 L 25.734375 251.226562 L 26 251.53125 L 26.265625 251.8125 L 26.546875 252.0625 L 26.835938 252.289062 L 27.132812 252.484375 L 27.445312 252.648438 L 27.007812 252.40625 L 26.585938 252.140625 L 26.179688 251.84375 L 25.789062 251.53125 L 25.414062 251.179688 L 25.046875 250.8125 L 24.695312 250.414062 L 24.367188 250 L 24.046875 249.5625 L 23.734375 249.09375 L 23.445312 248.601562 L 23.164062 248.09375 L 22.898438 247.5625 L 22.640625 247.007812 L 22.398438 246.4375 L 22.171875 245.835938 L 21.953125 245.226562 L 21.75 244.585938 L 21.554688 243.9375 L 21.367188 243.257812 L 21.195312 242.570312 L 21.03125 241.859375 L 20.882812 241.132812 L 20.734375 240.382812 L 20.609375 239.625 L 20.484375 238.84375 L 20.367188 238.054688 L 20.265625 237.242188 L 20.171875 236.421875 L 20.085938 235.578125 L 20.007812 234.726562 L 19.9375 233.859375 L 19.875 232.984375 L 19.820312 232.09375 L 19.773438 231.1875 L 19.726562 230.273438 L 19.695312 229.34375 L 19.664062 228.40625 L 19.648438 227.453125 L 19.632812 226.492188 L 19.625 225.523438 L 19.617188 224.546875 L 19.625 223.554688 L 19.625 222.554688 L 19.640625 221.554688 L 19.671875 219.523438 L 19.703125 218.492188 L 19.726562 217.460938 L 19.757812 216.421875 L 19.796875 215.382812 L 19.828125 214.328125 L 19.867188 213.28125 L 20.007812 210.09375 L 20.101562 207.953125 L 20.210938 205.8125 L 20.265625 204.734375 L 20.3125 203.65625 L 20.367188 202.585938 L 20.421875 201.507812 L 20.476562 200.4375 L 20.53125 199.359375 L 20.578125 198.289062 L 20.632812 197.210938 L 20.679688 196.148438 L 20.726562 195.078125 L 20.773438 194.023438 L 20.8125 192.960938 L 20.859375 191.90625 L 20.898438 190.851562 L 20.992188 187.734375 L 21.023438 186.703125 L 21.039062 185.6875 L 21.0625 184.671875 L 21.070312 183.664062 L 21.078125 182.664062 L 21.085938 181.679688 L 21.085938 180.695312 L 21.078125 179.71875 L 21.0625 178.757812 L 21.046875 177.804688 L 21.023438 176.867188 L 20.992188 175.9375 L 20.953125 175.015625 L 20.914062 174.109375 L 20.859375 173.210938 L 20.796875 172.328125 L 20.734375 171.460938 L 20.65625 170.601562 L 20.484375 168.929688 L 20.382812 168.117188 L 20.273438 167.320312 L 20.15625 166.539062 L 20.023438 165.773438 L 19.890625 165.023438 L 19.742188 164.296875 L 19.585938 163.578125 L 19.414062 162.882812 L 19.234375 162.203125 L 19.046875 161.546875 L 18.84375 160.90625 L 18.632812 160.289062 L 18.40625 159.6875 L 18.171875 159.101562 L 17.921875 158.546875 L 17.65625 158.007812 L 17.382812 157.492188 L 17.101562 157 L 16.796875 156.53125 L 16.484375 156.078125 L 16.15625 155.65625 L 15.8125 155.257812 L 15.453125 154.882812 L 15.8125 154.5 L 16.15625 154.101562 L 16.484375 153.679688 L 16.796875 153.226562 L 17.101562 152.757812 L 17.382812 152.265625 L 17.65625 151.75 L 17.921875 151.210938 L 18.171875 150.648438 L 18.40625 150.070312 L 18.632812 149.46875 L 18.84375 148.851562 L 19.046875 148.210938 L 19.234375 147.554688 L 19.414062 146.875 L 19.585938 146.179688 L 19.742188 145.460938 L 19.890625 144.726562 L 20.023438 143.976562 L 20.15625 143.21875 L 20.273438 142.4375 L 20.382812 141.632812 L 20.484375 140.828125 L 20.570312 140 L 20.65625 139.15625 L 20.734375 138.296875 L 20.796875 137.429688 L 20.859375 136.546875 L 20.914062 135.648438 L 20.953125 134.742188 L 20.992188 133.820312 L 21.023438 132.890625 L 21.046875 131.953125 L 21.0625 131 L 21.078125 130.03125 L 21.085938 129.0625 L 21.085938 128.078125 L 21.070312 126.09375 L 21.0625 125.085938 L 21.039062 124.070312 L 21.023438 123.046875 L 20.992188 122.023438 L 20.898438 118.90625 L 20.859375 117.851562 L 20.8125 116.796875 L 20.773438 115.742188 L 20.726562 114.671875 L 20.679688 113.609375 L 20.632812 112.539062 L 20.578125 111.46875 L 20.53125 110.398438 L 20.476562 109.320312 L 20.421875 108.25 L 20.3125 106.09375 L 20.265625 105.023438 L 20.210938 103.945312 L 20.101562 101.804688 L 20.007812 99.664062 L 19.867188 96.476562 L 19.828125 95.429688 L 19.796875 94.375 L 19.757812 93.328125 L 19.726562 92.296875 L 19.703125 91.257812 L 19.671875 90.234375 L 19.65625 89.210938 L 19.640625 88.203125 L 19.625 87.203125 L 19.625 86.203125 L 19.617188 85.210938 L 19.625 84.234375 L 19.632812 83.265625 L 19.648438 82.304688 L 19.664062 81.351562 L 19.695312 80.414062 L 19.726562 79.484375 L 19.773438 78.570312 L 19.820312 77.664062 L 19.875 76.773438 L 19.9375 75.890625 L 20.007812 75.03125 L 20.085938 74.171875 L 20.171875 73.335938 L 20.265625 72.515625 L 20.367188 71.703125 L 20.484375 70.914062 L 20.609375 70.132812 L 20.734375 69.375 L 20.882812 68.625 L 21.03125 67.898438 L 21.195312 67.1875 L 21.367188 66.5 L 21.554688 65.820312 L 21.75 65.171875 L 21.953125 64.539062 L 22.171875 63.921875 L 22.398438 63.320312 L 22.640625 62.75 L 22.898438 62.195312 L 23.164062 61.664062 L 23.445312 61.148438 L 23.734375 60.664062 L 24.046875 60.203125 L 24.367188 59.757812 L 24.695312 59.335938 L 25.046875 58.945312 L 25.414062 58.570312 L 25.789062 58.234375 L 26.179688 57.90625 L 26.585938 57.617188 L 27.007812 57.351562 L 27.445312 57.109375 "/>
<path fill="none" stroke-width="3.985" stroke-linecap="butt" stroke-linejoin="miter" stroke="rgb(0%, 0%, 0%)" stroke-opacity="1" stroke-miterlimit="10" d="M 137.22656 1314.453105 L 135.66406 1313.632793 L 134.179686 1312.65623 L 132.734373 1311.523418 L 131.328123 1310.273418 L 129.999998 1308.867168 L 128.671873 1307.343731 L 127.460936 1305.664043 L 126.289061 1303.867168 L 125.156248 1301.914043 L 124.062498 1299.843731 L 123.007811 1297.656231 L 122.031248 1295.390606 L 121.054686 1292.968731 L 120.195311 1290.390606 L 119.335936 1287.734356 L 118.515623 1284.960918 L 117.734373 1282.070293 L 117.031248 1279.062481 L 116.328123 1275.976543 L 115.664061 1272.773419 L 115.078123 1269.453106 L 114.492186 1266.054669 L 113.984373 1262.578106 L 113.437498 1258.945294 L 112.968748 1255.273419 L 112.578123 1251.484356 L 112.148436 1247.617169 L 111.757811 1243.671856 L 111.445311 1239.648419 L 111.132811 1235.507794 L 110.859373 1231.328107 L 110.585936 1227.031232 L 110.351561 1222.695294 L 110.156248 1218.281232 L 109.960936 1213.789044 L 109.804686 1209.257794 L 109.648436 1204.64842 L 109.531248 1199.96092 L 109.453123 1195.195295 L 109.296873 1185.58592 L 109.257811 1180.664045 L 109.218748 1175.703107 L 109.218748 1160.546858 L 109.257811 1155.42967 L 109.257811 1150.234358 L 109.296873 1145.039045 L 109.374998 1139.804671 L 109.414061 1134.492171 L 109.492186 1129.218733 L 109.648436 1118.515608 L 109.726561 1113.124983 L 109.804686 1107.695296 L 109.882811 1102.304671 L 109.960936 1096.874984 L 110.351561 1069.531234 L 110.429686 1064.023422 L 110.507811 1053.085922 L 110.585936 1047.617172 L 110.585936 1042.148422 L 110.624998 1036.64061 L 110.624998 1025.781235 L 110.585936 1020.39061 L 110.585936 1014.960922 L 110.429686 1004.257798 L 110.273436 993.632798 L 110.156248 988.35936 L 109.999998 983.124985 L 109.843748 977.929673 L 109.648436 972.773423 L 109.453123 967.656236 L 109.179686 962.578111 L 108.945311 957.539048 L 108.320311 947.617173 L 107.968748 942.734361 L 107.578123 937.890611 L 107.187498 933.124986 L 106.757811 928.398424 L 106.249998 923.749986 L 105.742186 919.179674 L 105.195311 914.648424 L 104.609373 910.195299 L 104.023436 905.781237 L 103.359373 901.484362 L 102.656248 897.226549 L 101.914061 893.046862 L 101.132811 888.984362 L 100.312499 884.960924 L 99.453124 881.054674 L 98.554686 877.226549 L 97.578124 873.476549 L 96.601561 869.804675 L 95.546874 866.249987 L 94.453124 862.812487 L 93.320311 859.41405 L 92.109374 856.171862 L 90.859374 853.0078 L 89.570311 849.921862 L 88.203124 846.992175 L 86.796874 844.140612 L 85.351561 841.406237 L 83.828124 838.78905 L 82.265624 836.28905 L 80.624999 833.906238 L 78.906249 831.640613 L 77.148436 829.492175 L 75.351561 827.499988 L 73.437499 825.585925 L 75.351561 823.710925 L 77.148436 821.718738 L 78.906249 819.5703 L 80.624999 817.304675 L 82.265624 814.921863 L 83.828124 812.421863 L 85.351561 809.804675 L 86.796874 807.0703 L 88.203124 804.218738 L 89.570311 801.289051 L 90.859374 798.242176 L 92.109374 795.078113 L 93.320311 791.796863 L 94.453124 788.437488 L 95.546874 784.960926 L 96.601561 781.406238 L 97.578124 777.734363 L 98.554686 773.984363 L 99.453124 770.156239 L 100.312499 766.249989 L 101.132811 762.226551 L 101.914061 758.164051 L 102.656248 753.984364 L 103.359373 749.726551 L 104.023436 745.429676 L 104.609373 741.015614 L 105.195311 736.562489 L 105.742186 732.031239 L 106.249998 727.460927 L 106.757811 722.812489 L 107.187498 718.085927 L 107.578123 713.320302 L 107.968748 708.476552 L 108.320311 703.59374 L 108.945311 693.671865 L 109.179686 688.632802 L 109.453123 683.554677 L 109.648436 678.43749 L 109.843748 673.28124 L 109.999998 668.085928 L 110.156248 662.851553 L 110.273436 657.578115 L 110.429686 646.953115 L 110.507811 641.601553 L 110.585936 636.210928 L 110.585936 630.820303 L 110.624998 625.429678 L 110.624998 614.531241 L 110.585936 609.062491 L 110.585936 603.632804 L 110.507811 598.124991 L 110.429686 587.187491 L 110.351561 581.679679 L 110.039061 559.804679 L 109.960936 554.374992 L 109.882811 548.906242 L 109.804686 543.476554 L 109.726561 538.085929 L 109.648436 532.734367 L 109.570311 527.343742 L 109.414061 516.718742 L 109.374998 511.445305 L 109.296873 506.171867 L 109.257811 500.976555 L 109.257811 495.820305 L 109.218748 490.664055 L 109.218748 475.507805 L 109.257811 470.546868 L 109.296873 465.664056 L 109.374998 460.781243 L 109.453123 455.976556 L 109.531248 451.249993 L 109.648436 446.562493 L 109.804686 441.953118 L 109.960936 437.421868 L 110.156248 432.929681 L 110.351561 428.515619 L 110.585936 424.140619 L 110.859373 419.882806 L 111.132811 415.703119 L 111.445311 411.562494 L 111.757811 407.539056 L 112.148436 403.593744 L 112.578123 399.726557 L 112.968748 395.937494 L 113.437498 392.265619 L 113.984373 388.632807 L 114.492186 385.156244 L 115.078123 381.757807 L 115.664061 378.437494 L 116.328123 375.234369 L 117.031248 372.148432 L 117.734373 369.140619 L 118.515623 366.249995 L 119.335936 363.476557 L 120.195311 360.820307 L 121.054686 358.281245 L 122.031248 355.85937 L 123.007811 353.554682 L 124.062498 351.367182 L 125.156248 349.29687 L 126.289061 347.343745 L 127.460936 345.54687 L 128.671873 343.867182 L 129.999998 342.343745 L 131.328123 340.937495 L 132.734373 339.687495 L 134.179686 338.554682 L 135.66406 337.57812 L 137.22656 336.757807 L 135.03906 337.968745 L 132.929686 339.29687 L 130.898436 340.781245 L 128.945311 342.343745 L 127.070311 344.101557 L 125.234373 345.937495 L 123.476561 347.929682 L 121.835936 349.999995 L 120.234373 352.187495 L 118.671873 354.531245 L 117.226561 356.992182 L 115.820311 359.531245 L 114.492186 362.187495 L 113.203123 364.960932 L 111.992186 367.812495 L 110.859373 370.820307 L 109.765623 373.867182 L 108.749998 377.070307 L 107.773436 380.312494 L 106.835936 383.710932 L 105.976561 387.148432 L 105.156248 390.703119 L 104.414061 394.335932 L 103.671873 398.085932 L 103.046873 401.874994 L 102.421873 405.781244 L 101.835936 409.726556 L 101.328123 413.789056 L 100.859373 417.890619 L 100.429686 422.109369 L 100.039061 426.367181 L 99.687499 430.703119 L 99.374999 435.078119 L 99.101561 439.531243 L 98.867186 444.062493 L 98.632811 448.632806 L 98.476561 453.281243 L 98.320311 457.968743 L 98.242186 462.734368 L 98.164061 467.539056 L 98.124999 472.382805 L 98.085936 477.265618 L 98.124999 482.226555 L 98.124999 487.226555 L 98.203124 492.226555 L 98.359374 502.382805 L 98.515624 507.539055 L 98.632811 512.695305 L 98.789061 517.890617 L 98.984374 523.08593 L 99.140624 528.359367 L 99.335936 533.593742 L 100.039061 549.531242 L 100.507811 560.234367 L 101.054686 570.937491 L 101.328123 576.328116 L 101.562498 581.718741 L 101.835936 587.070304 L 102.109373 592.460929 L 102.382811 597.812491 L 102.656248 603.203116 L 102.890623 608.554678 L 103.164061 613.945303 L 103.398436 619.257803 L 103.632811 624.609366 L 103.867186 629.882803 L 104.062498 635.195303 L 104.296873 640.46874 L 104.492186 645.742178 L 104.960936 661.328115 L 105.117186 666.484365 L 105.195311 671.56249 L 105.312498 676.640615 L 105.351561 681.679677 L 105.390623 686.679677 L 105.429686 691.601552 L 105.429686 696.523427 L 105.390623 701.40624 L 105.312498 706.210927 L 105.234373 710.976552 L 105.117186 715.664052 L 104.960936 720.312489 L 104.765623 724.921864 L 104.570311 729.453114 L 104.296873 733.945302 L 103.984373 738.359364 L 103.671873 742.695301 L 103.281248 746.992176 L 102.421873 755.351551 L 101.914061 759.414051 L 101.367186 763.398426 L 100.781248 767.304676 L 100.117186 771.132801 L 99.453124 774.882801 L 98.710936 778.515613 L 97.929686 782.109363 L 97.070311 785.585926 L 96.171874 788.984363 L 95.234374 792.265613 L 94.218749 795.468738 L 93.164061 798.554676 L 92.031249 801.562488 L 90.859374 804.492176 L 89.609374 807.265613 L 88.281249 809.960925 L 86.914061 812.53905 L 85.507811 814.999988 L 83.984374 817.343738 L 82.421874 819.609363 L 80.781249 821.718738 L 79.062499 823.710925 L 77.265624 825.585925 L 79.062499 827.499988 L 80.781249 829.492175 L 82.421874 831.60155 L 83.984374 833.867175 L 85.507811 836.210925 L 86.914061 838.671863 L 88.281249 841.249987 L 89.609374 843.9453 L 90.859374 846.7578 L 92.031249 849.648425 L 93.164061 852.656237 L 94.218749 855.742175 L 95.234374 858.9453 L 96.171874 862.22655 L 97.070311 865.624987 L 97.929686 869.10155 L 98.710936 872.695299 L 99.453124 876.367174 L 100.117186 880.117174 L 100.781248 883.906237 L 101.367186 887.812487 L 101.914061 891.835924 L 102.421873 895.859362 L 102.851561 899.999987 L 103.281248 904.218737 L 103.671873 908.515611 L 103.984373 912.851549 L 104.296873 917.265611 L 104.570311 921.757799 L 104.765623 926.289049 L 104.960936 930.898424 L 105.117186 935.546861 L 105.234373 940.234361 L 105.312498 944.999986 L 105.390623 949.843736 L 105.429686 954.687486 L 105.429686 959.609361 L 105.351561 969.531236 L 105.312498 974.570298 L 105.195311 979.648423 L 105.117186 984.76561 L 104.960936 989.882798 L 104.492186 1005.468735 L 104.296873 1010.742172 L 104.062498 1016.01561 L 103.867186 1021.289047 L 103.632811 1026.64061 L 103.398436 1031.95311 L 103.164061 1037.304672 L 102.890623 1042.656234 L 102.656248 1048.007797 L 102.382811 1053.398422 L 102.109373 1058.749984 L 101.562498 1069.531234 L 101.328123 1074.882796 L 101.054686 1080.273421 L 100.507811 1090.976546 L 100.039061 1101.679671 L 99.335936 1117.617171 L 99.140624 1122.851546 L 98.984374 1128.124983 L 98.789061 1133.359358 L 98.632811 1138.515608 L 98.515624 1143.71092 L 98.359374 1148.828108 L 98.281249 1153.945295 L 98.203124 1158.984358 L 98.124999 1163.984358 L 98.124999 1168.984358 L 98.085936 1173.945295 L 98.124999 1178.828107 L 98.164061 1183.671857 L 98.242186 1188.476545 L 98.320311 1193.24217 L 98.476561 1197.92967 L 98.632811 1202.578107 L 98.867186 1207.14842 L 99.101561 1211.679669 L 99.374999 1216.132794 L 99.687499 1220.546857 L 100.039061 1224.843732 L 100.429686 1229.140607 L 100.859373 1233.320294 L 101.328123 1237.421857 L 101.835936 1241.484357 L 102.421873 1245.429669 L 103.046873 1249.335919 L 103.671873 1253.124981 L 104.414061 1256.874981 L 105.156248 1260.507794 L 105.976561 1264.062481 L 106.835936 1267.499981 L 107.773436 1270.898419 L 108.749998 1274.140606 L 109.765623 1277.304668 L 110.859373 1280.390606 L 111.992186 1283.398418 L 113.203123 1286.249981 L 114.492186 1289.023418 L 115.820311 1291.679668 L 117.226561 1294.257793 L 118.671873 1296.679668 L 120.234373 1298.984356 L 121.835936 1301.210918 L 123.476561 1303.320293 L 125.234373 1305.273418 L 127.070311 1307.148418 L 128.945311 1308.828105 L 130.898436 1310.46873 L 132.929686 1311.914043 L 135.03906 1313.242168 Z M 137.22656 1314.453105 " transform="matrix(0.2, 0, 0, -0.2, 0, 320)"/>
<path fill-rule="nonzero" fill="rgb(100%, 100%, 100%)" fill-opacity="1" d="M 0.695312 255.703125 L 29.976562 255.703125 L 29.976562 282.585938 L 0.695312 282.585938 Z M 0.695312 255.703125 "/>
<path fill-rule="nonzero" fill="rgb(0%, 0%, 0%)" fill-opacity="1" d="M 22.875 267.058594 C 22.875 263.527344 20.5625 261.183594 17.3125 261.183594 C 12.59375 261.183594 7.78125 266.121094 7.78125 271.214844 C 7.78125 274.839844 10.21875 277.027344 13.375 277.027344 C 18 277.027344 22.875 272.246094 22.875 267.058594 Z M 13.5 276.464844 C 11.34375 276.464844 9.8125 274.714844 9.8125 271.839844 C 9.8125 270.871094 10.125 267.683594 11.8125 265.121094 C 13.3125 262.871094 15.4375 261.714844 17.15625 261.714844 C 18.96875 261.714844 20.90625 262.933594 20.90625 266.183594 C 20.90625 267.777344 20.34375 271.183594 18.15625 273.839844 C 17.125 275.183594 15.34375 276.464844 13.5 276.464844 Z M 13.5 276.464844 "/>
<path fill-rule="nonzero" fill="rgb(100%, 100%, 100%)" fill-opacity="1" d="M 406.15625 255.703125 L 438.078125 255.703125 L 438.078125 282.585938 L 406.15625 282.585938 Z M 406.15625 255.703125 "/>
<path fill-rule="nonzero" fill="rgb(0%, 0%, 0%)" fill-opacity="1" d="M 422.777344 267.589844 L 420.933594 263.246094 C 420.871094 263.089844 420.808594 262.996094 420.808594 262.964844 C 420.808594 262.839844 421.183594 262.433594 422.121094 262.339844 C 422.339844 262.308594 422.558594 262.308594 422.558594 261.933594 C 422.558594 261.652344 422.277344 261.652344 422.214844 261.652344 C 421.308594 261.652344 420.371094 261.714844 419.464844 261.714844 C 418.933594 261.714844 417.558594 261.652344 417.027344 261.652344 C 416.902344 261.652344 416.621094 261.652344 416.621094 262.089844 C 416.621094 262.339844 416.839844 262.339844 417.121094 262.339844 C 418.433594 262.339844 418.589844 262.558594 418.777344 263.027344 L 421.339844 269.121094 L 416.746094 274.058594 L 416.464844 274.308594 C 415.402344 275.464844 414.371094 275.808594 413.246094 275.871094 C 412.964844 275.902344 412.777344 275.902344 412.777344 276.308594 C 412.777344 276.339844 412.777344 276.558594 413.058594 276.558594 C 413.714844 276.558594 414.433594 276.496094 415.121094 276.496094 C 415.902344 276.496094 416.777344 276.558594 417.558594 276.558594 C 417.683594 276.558594 417.933594 276.558594 417.933594 276.121094 C 417.933594 275.902344 417.714844 275.871094 417.683594 275.871094 C 417.496094 275.871094 416.808594 275.808594 416.808594 275.214844 C 416.808594 274.871094 417.121094 274.496094 417.402344 274.214844 L 419.621094 271.871094 L 421.589844 269.746094 L 423.777344 274.933594 C 423.871094 275.183594 423.902344 275.214844 423.902344 275.246094 C 423.902344 275.433594 423.496094 275.808594 422.621094 275.871094 C 422.402344 275.902344 422.183594 275.933594 422.183594 276.308594 C 422.183594 276.558594 422.433594 276.558594 422.527344 276.558594 C 423.121094 276.558594 424.652344 276.496094 425.277344 276.496094 C 425.808594 276.496094 427.152344 276.558594 427.683594 276.558594 C 427.839844 276.558594 428.121094 276.558594 428.121094 276.152344 C 428.121094 275.871094 427.902344 275.871094 427.714844 275.871094 C 426.246094 275.871094 426.214844 275.808594 425.839844 274.933594 C 424.996094 272.902344 423.527344 269.496094 423.027344 268.183594 C 424.496094 266.652344 426.808594 264.058594 427.496094 263.464844 C 428.121094 262.933594 428.964844 262.402344 430.277344 262.339844 C 430.558594 262.308594 430.746094 262.308594 430.746094 261.902344 C 430.746094 261.871094 430.746094 261.652344 430.464844 261.652344 C 429.808594 261.652344 429.089844 261.714844 428.402344 261.714844 C 427.589844 261.714844 426.777344 261.652344 425.996094 261.652344 C 425.871094 261.652344 425.589844 261.652344 425.589844 262.089844 C 425.589844 262.246094 425.683594 262.308594 425.839844 262.339844 C 426.027344 262.371094 426.714844 262.402344 426.714844 263.027344 C 426.714844 263.308594 426.464844 263.589844 426.308594 263.808594 Z M 422.777344 267.589844 "/>
<path fill-rule="nonzero" fill="rgb(100%, 100%, 100%)" fill-opacity="1" d="M 0.453125 -5.757812 L 29.976562 -5.757812 L 29.976562 21.125 L 0.453125 21.125 Z M 0.453125 -5.757812 "/>
<path fill-rule="nonzero" fill="rgb(0%, 0%, 0%)" fill-opacity="1" d="M 19.511719 2.695312 L 19.792969 2.382812 C 20.449219 1.726562 21.167969 0.976562 22.667969 0.882812 C 22.917969 0.851562 23.105469 0.851562 23.105469 0.476562 C 23.105469 0.289062 22.980469 0.195312 22.824219 0.195312 C 22.261719 0.195312 21.605469 0.257812 21.042969 0.257812 C 20.324219 0.257812 19.542969 0.195312 18.855469 0.195312 C 18.730469 0.195312 18.449219 0.195312 18.449219 0.632812 C 18.449219 0.851562 18.636719 0.882812 18.761719 0.882812 C 18.917969 0.882812 19.542969 0.914062 19.542969 1.382812 C 19.542969 1.757812 19.042969 2.320312 18.949219 2.414062 L 13.886719 8.257812 L 11.511719 1.789062 C 11.355469 1.476562 11.355469 1.414062 11.355469 1.414062 C 11.355469 0.882812 12.449219 0.882812 12.667969 0.882812 C 12.949219 0.882812 13.167969 0.882812 13.167969 0.445312 C 13.167969 0.195312 12.917969 0.195312 12.855469 0.195312 C 12.230469 0.195312 10.699219 0.257812 10.105469 0.257812 C 9.542969 0.257812 8.199219 0.195312 7.667969 0.195312 C 7.542969 0.195312 7.230469 0.195312 7.230469 0.632812 C 7.230469 0.882812 7.449219 0.882812 7.730469 0.882812 C 9.042969 0.882812 9.136719 1.070312 9.324219 1.632812 L 12.011719 8.789062 C 12.042969 8.851562 12.105469 9.101562 12.105469 9.164062 C 12.105469 9.226562 11.230469 12.757812 11.136719 13.132812 C 10.855469 14.351562 10.824219 14.414062 9.074219 14.414062 C 8.667969 14.414062 8.480469 14.414062 8.480469 14.851562 C 8.480469 15.101562 8.761719 15.101562 8.792969 15.101562 C 9.417969 15.101562 10.917969 15.039062 11.542969 15.039062 C 12.136719 15.039062 13.730469 15.101562 14.324219 15.101562 C 14.480469 15.101562 14.761719 15.101562 14.761719 14.664062 C 14.761719 14.414062 14.542969 14.414062 14.136719 14.414062 C 14.105469 14.414062 13.667969 14.414062 13.292969 14.382812 C 12.855469 14.351562 12.730469 14.289062 12.730469 14.039062 C 12.730469 13.882812 12.917969 13.101562 13.011719 12.664062 L 13.792969 9.570312 C 13.886719 9.164062 13.917969 9.101562 14.105469 8.914062 Z M 19.511719 2.695312 "/>
<path fill="none" stroke-width="11.9553" stroke-linecap="butt" stroke-linejoin="miter" stroke="rgb(0%, 0%, 0%)" stroke-opacity="1" stroke-miterlimit="10" d="M 93.437499 321.601558 L 2130.039031 321.601558 " transform="matrix(0.2, 0, 0, -0.2, 0, 320)"/>
<path fill="none" stroke-width="11.9553" stroke-linecap="butt" stroke-linejoin="miter" stroke="rgb(0%, 0%, 0%)" stroke-opacity="1" stroke-miterlimit="10" d="M 149.999998 119.999998 L 149.999998 1581.601539 " transform="matrix(0.2, 0, 0, -0.2, 0, 320)"/>
<path fill-rule="nonzero" fill="rgb(0%, 0%, 0%)" fill-opacity="1" d="M 183.601562 312.300781 C 184.789062 311.894531 186.789062 311.300781 186.789062 309.363281 C 186.789062 307.050781 184.070312 305.988281 182.101562 305.988281 C 181.164062 305.988281 180.195312 306.207031 179.351562 306.707031 C 179.226562 306.769531 179.070312 306.957031 178.914062 306.957031 C 178.601562 306.957031 178.039062 305.988281 177.726562 305.988281 C 177.539062 305.988281 177.507812 306.207031 177.507812 306.300781 L 177.507812 309.863281 C 177.507812 309.988281 177.601562 310.144531 177.789062 310.144531 C 178.101562 310.144531 178.070312 309.519531 178.164062 309.175781 C 178.632812 307.457031 180.195312 306.707031 181.695312 306.613281 L 182.101562 306.613281 C 183.445312 306.613281 185.007812 307.488281 185.007812 309.363281 C 185.007812 311.175781 183.226562 312.113281 181.570312 312.113281 C 181.257812 312.113281 180.945312 312.113281 180.632812 312.113281 L 180.476562 312.113281 C 180.289062 312.113281 180.070312 312.113281 180.070312 312.332031 L 180.070312 312.363281 C 180.101562 312.550781 180.289062 312.582031 180.476562 312.582031 L 182.320312 312.582031 C 183.882812 312.707031 185.320312 313.738281 185.476562 315.363281 L 185.476562 315.582031 C 185.476562 317.425781 183.757812 318.582031 182.007812 318.582031 C 180.101562 318.582031 178.132812 317.957031 177.820312 315.582031 C 177.820312 315.425781 177.757812 315.238281 177.539062 315.238281 C 177.320312 315.269531 177.289062 315.425781 177.289062 315.582031 C 177.289062 318.175781 179.882812 319.207031 182.132812 319.207031 C 184.195312 319.207031 187.070312 318.238281 187.320312 315.769531 L 187.320312 315.644531 C 187.320312 313.675781 185.257812 312.707031 183.601562 312.300781 Z M 183.601562 312.300781 "/>
<path fill-rule="nonzero" fill="rgb(0%, 0%, 0%)" fill-opacity="1" d="M 195.695312 305.988281 C 192.320312 306.394531 189.632812 309.050781 189.632812 312.644531 C 189.632812 315.925781 192.226562 319.175781 196.101562 319.175781 C 199.601562 319.175781 202.570312 316.269531 202.570312 312.644531 C 202.570312 309.457031 200.070312 305.988281 196.132812 305.988281 C 196.007812 305.988281 195.851562 305.988281 195.695312 305.988281 Z M 191.507812 312.863281 L 191.507812 312.519531 C 191.507812 310.019531 192.414062 307.082031 195.570312 306.550781 C 195.757812 306.519531 195.914062 306.519531 196.101562 306.519531 C 198.914062 306.519531 200.664062 309.238281 200.664062 312.269531 C 200.664062 314.675781 199.945312 317.738281 196.976562 318.519531 C 196.695312 318.582031 196.414062 318.613281 196.132812 318.613281 L 195.945312 318.613281 C 193.351562 318.519531 191.945312 316.050781 191.601562 313.644531 Z M 191.507812 312.863281 "/>
<path fill-rule="nonzero" fill="rgb(0%, 0%, 0%)" fill-opacity="1" d="M 205.027344 306.332031 L 205.027344 306.925781 L 205.464844 306.925781 C 206.058594 306.925781 206.683594 307.019531 206.683594 307.894531 L 206.683594 317.363281 C 206.683594 318.207031 205.964844 318.238281 205.308594 318.238281 L 205.027344 318.238281 L 205.027344 318.832031 L 210.808594 318.832031 C 211.214844 318.832031 211.589844 318.863281 211.996094 318.863281 C 213.996094 318.863281 216.339844 317.925781 216.558594 315.519531 L 216.558594 315.332031 C 216.558594 312.800781 213.683594 311.769531 211.777344 311.769531 C 210.527344 311.769531 209.339844 311.894531 208.152344 311.988281 L 208.152344 307.769531 C 208.152344 307.332031 208.214844 306.925781 208.996094 306.925781 L 211.308594 306.925781 C 212.277344 306.925781 213.371094 306.988281 214.089844 307.707031 C 214.777344 308.425781 214.871094 309.644531 214.964844 310.582031 L 215.496094 310.582031 L 215.027344 306.332031 Z M 208.152344 312.613281 C 208.402344 312.613281 208.652344 312.550781 208.902344 312.519531 L 210.277344 312.457031 C 210.558594 312.425781 210.839844 312.394531 211.152344 312.394531 C 212.714844 312.394531 214.683594 313.394531 214.683594 315.238281 C 214.683594 316.988281 213.339844 318.269531 211.339844 318.269531 C 211.058594 318.269531 210.746094 318.238281 210.496094 318.238281 L 208.964844 318.238281 C 208.496094 318.238281 208.246094 318.207031 208.152344 317.582031 Z M 208.152344 312.613281 "/>
<path fill-rule="nonzero" fill="rgb(0%, 0%, 0%)" fill-opacity="1" d="M 218.90625 306.332031 L 218.90625 306.925781 L 219.375 306.925781 C 219.96875 306.925781 220.5625 307.019531 220.5625 307.894531 L 220.5625 317.363281 C 220.5625 318.207031 219.875 318.238281 219.1875 318.238281 L 218.90625 318.238281 L 218.90625 318.832031 L 223.8125 318.832031 L 223.8125 318.238281 L 223.375 318.238281 C 222.75 318.238281 222.15625 318.175781 222.15625 317.300781 L 222.15625 313.113281 L 225.875 313.113281 C 227.65625 312.988281 229.9375 311.800781 229.9375 309.769531 C 229.9375 307.550781 227.59375 306.488281 225.6875 306.332031 Z M 222.125 312.582031 L 222.125 307.582031 C 222.21875 306.988281 222.46875 306.925781 222.875 306.925781 L 224.3125 306.925781 C 225.9375 306.925781 228.0625 306.988281 228.0625 309.769531 C 228.0625 310.425781 227.96875 311.113281 227.5625 311.613281 C 226.90625 312.394531 225.8125 312.582031 224.84375 312.582031 Z M 222.125 312.582031 "/>
<path fill-rule="nonzero" fill="rgb(0%, 0%, 0%)" fill-opacity="1" d="M 234.636719 316.550781 C 234.136719 316.644531 233.636719 317.082031 233.636719 317.675781 C 233.636719 318.300781 234.167969 318.832031 234.792969 318.832031 C 235.417969 318.832031 235.980469 318.363281 235.980469 317.707031 C 235.980469 317.082031 235.449219 316.519531 234.824219 316.519531 C 234.761719 316.519531 234.699219 316.550781 234.636719 316.550781 Z M 234.636719 316.550781 "/>
<path fill-rule="nonzero" fill="rgb(0%, 0%, 0%)" fill-opacity="1" d="M 248.191406 314.832031 L 254.785156 314.832031 L 254.785156 317.113281 C 254.785156 318.144531 253.972656 318.144531 252.410156 318.144531 L 252.410156 318.832031 L 258.847656 318.832031 L 258.847656 318.144531 C 258.566406 318.144531 258.253906 318.175781 257.941406 318.175781 C 257.128906 318.175781 256.472656 318.050781 256.472656 317.113281 L 256.472656 314.832031 L 259.003906 314.832031 L 259.003906 314.144531 L 256.472656 314.144531 L 256.472656 303.019531 L 256.378906 302.738281 L 255.910156 302.738281 L 255.597656 303.144531 L 248.191406 314.144531 Z M 248.785156 314.144531 L 254.878906 305.082031 L 254.878906 314.144531 Z M 248.785156 314.144531 "/>
<path fill-rule="nonzero" fill="rgb(0%, 0%, 0%)" fill-opacity="1" d="M 262.246094 306.332031 C 262.652344 304.769531 264.058594 303.644531 265.683594 303.644531 C 267.933594 303.644531 269.183594 305.613281 269.183594 307.550781 C 269.183594 309.238281 268.246094 310.738281 267.214844 311.988281 C 265.527344 314.082031 263.496094 315.957031 261.714844 317.925781 C 261.558594 318.113281 261.402344 318.269531 261.402344 318.519531 C 261.402344 318.613281 261.433594 318.738281 261.433594 318.832031 L 270.558594 318.832031 L 271.183594 314.832031 L 270.652344 314.832031 C 270.464844 315.800781 270.527344 317.082031 269.527344 317.082031 C 269.308594 317.113281 269.121094 317.113281 268.933594 317.113281 L 268.339844 317.113281 C 267.996094 317.144531 267.621094 317.144531 267.308594 317.144531 L 263.152344 317.144531 C 264.652344 315.644531 266.277344 314.175781 267.902344 312.800781 C 269.433594 311.488281 271.027344 309.957031 271.183594 307.832031 L 271.183594 307.519531 C 271.183594 304.800781 268.839844 302.957031 265.996094 302.957031 C 263.652344 302.957031 261.433594 304.863281 261.433594 307.300781 C 261.433594 308.113281 261.902344 308.582031 262.589844 308.582031 C 263.214844 308.582031 263.714844 308.113281 263.714844 307.425781 C 263.714844 306.800781 263.246094 306.300781 262.527344 306.300781 C 262.433594 306.300781 262.339844 306.300781 262.246094 306.332031 Z M 262.246094 306.332031 "/>
<path fill-rule="nonzero" fill="rgb(0%, 0%, 0%)" fill-opacity="1" d="M 276.144531 316.550781 C 275.644531 316.644531 275.144531 317.082031 275.144531 317.675781 C 275.144531 318.300781 275.675781 318.832031 276.300781 318.832031 C 276.925781 318.832031 277.488281 318.363281 277.488281 317.707031 C 277.488281 317.082031 276.957031 316.519531 276.332031 316.519531 C 276.269531 316.519531 276.207031 316.550781 276.144531 316.550781 Z M 276.144531 316.550781 "/>
</svg>
