<?xml version="1.0" encoding="UTF-8"?>
<svg xmlns="http://www.w3.org/2000/svg" xmlns:xlink="http://www.w3.org/1999/xlink" width="542" height="124" viewBox="0 0 542 124">
<path fill="none" stroke-width="11.9553" stroke-linecap="butt" stroke-linejoin="miter" stroke="rgb(0%, 0%, 0%)" stroke-opacity="1" stroke-miterlimit="10" d="M 0 561.601554 L 2700.039022 561.601554 " transform="matrix(0.2, 0, 0, -0.2, 0, 124)"/>
<path fill-rule="nonzero" fill="rgb(0%, 0%, 0%)" fill-opacity="1" d="M 269.5 5.703125 L 270.703125 5.703125 L 270.703125 17.703125 L 269.5 17.703125 Z M 269.5 5.703125 "/>
<path fill-rule="nonzero" fill="rgb(0%, 0%, 0%)" fill-opacity="1" d="M 404.5 5.703125 L 405.703125 5.703125 L 405.703125 17.703125 L 404.5 17.703125 Z M 404.5 5.703125 "/>
<path fill-rule="nonzero" fill="rgb(0%, 0%, 0%)" fill-opacity="1" d="M 472 5.703125 L 473.203125 5.703125 L 473.203125 17.703125 L 472 17.703125 Z M 472 5.703125 "/>
<path fill-rule="nonzero" fill="rgb(0%, 0%, 0%)" fill-opacity="1" d="M 505.75 5.703125 L 506.953125 5.703125 L 506.953125 17.703125 L 505.75 17.703125 Z M 505.75 5.703125 "/>
<path fill-rule="nonzero" fill="rgb(0%, 0%, 0%)" fill-opacity="1" d="M 522.625 5.703125 L 523.828125 5.703125 L 523.828125 17.703125 L 522.625 17.703125 Z M 522.625 5.703125 "/>
<path fill-rule="nonzero" fill="rgb(0%, 0%, 0%)" fill-opacity="1" d="M -0.507812 -0.296875 L 0.695312 -0.296875 L 0.695312 23.703125 L -0.507812 23.703125 Z M -0.507812 -0.296875 "/>
<path fill-rule="nonzero" fill="rgb(0%, 0%, 0%)" fill-opacity="1" d="M 539.5 -0.296875 L 540.703125 -0.296875 L 540.703125 23.703125 L 539.5 23.703125 Z M 539.5 -0.296875 "/>
<path fill-rule="nonzero" fill="rgb(100%, 100%, 100%)" fill-opacity="1" d="M 123.460938 39.679688 L 146.5 39.679688 L 146.5 65.835938 L 123.460938 65.835938 Z M 123.460938 39.679688 "/>
<path fill-rule="nonzero" fill="rgb(0%, 0%, 0%)" fill-opacity="1" d="M 135.886719 45.851562 C 135.886719 45.351562 135.886719 45.289062 135.386719 45.289062 C 134.042969 46.695312 132.105469 46.695312 131.417969 46.695312 L 131.417969 47.351562 C 131.855469 47.351562 133.136719 47.351562 134.292969 46.789062 L 134.292969 58.101562 C 134.292969 58.882812 134.199219 59.132812 132.261719 59.132812 L 131.542969 59.132812 L 131.542969 59.820312 C 132.324219 59.757812 134.199219 59.757812 135.074219 59.757812 C 135.949219 59.757812 137.855469 59.757812 138.605469 59.820312 L 138.605469 59.132812 L 137.917969 59.132812 C 135.949219 59.132812 135.886719 58.914062 135.886719 58.101562 Z M 135.886719 45.851562 "/>
<path fill-rule="nonzero" fill="rgb(0%, 0%, 0%)" fill-opacity="1" d="M 3.859375 15.796875 L 4.070312 16.304688 L 4.328125 16.789062 L 4.617188 17.257812 L 4.953125 17.710938 L 5.320312 18.140625 L 5.726562 18.554688 L 6.164062 18.953125 L 6.648438 19.335938 L 7.164062 19.703125 L 7.710938 20.054688 L 8.289062 20.390625 L 8.90625 20.710938 L 9.554688 21.015625 L 10.242188 21.304688 L 10.953125 21.578125 L 11.695312 21.84375 L 12.46875 22.085938 L 13.273438 22.328125 L 14.109375 22.546875 L 14.96875 22.757812 L 15.859375 22.953125 L 16.773438 23.140625 L 17.71875 23.3125 L 18.6875 23.46875 L 19.679688 23.625 L 20.695312 23.765625 L 21.742188 23.890625 L 22.804688 24.015625 L 23.890625 24.125 L 25 24.226562 L 26.132812 24.320312 L 27.289062 24.398438 L 28.460938 24.476562 L 29.648438 24.546875 L 30.859375 24.601562 L 32.085938 24.65625 L 33.335938 24.703125 L 34.601562 24.734375 L 35.882812 24.773438 L 37.171875 24.796875 L 38.484375 24.8125 L 39.8125 24.828125 L 41.148438 24.84375 L 45.234375 24.84375 L 46.625 24.835938 L 48.023438 24.820312 L 49.429688 24.8125 L 50.84375 24.789062 L 52.273438 24.773438 L 53.703125 24.75 L 55.140625 24.734375 L 56.585938 24.703125 L 58.046875 24.679688 L 59.5 24.65625 L 60.96875 24.625 L 62.429688 24.601562 L 63.90625 24.570312 L 65.375 24.546875 L 68.328125 24.5 L 69.8125 24.476562 L 71.289062 24.453125 L 72.765625 24.4375 L 74.25 24.421875 L 75.726562 24.40625 L 78.664062 24.390625 L 81.601562 24.390625 L 83.054688 24.398438 L 84.515625 24.40625 L 85.960938 24.421875 L 88.835938 24.46875 L 90.257812 24.5 L 91.679688 24.539062 L 93.085938 24.59375 L 94.484375 24.640625 L 95.867188 24.703125 L 97.242188 24.773438 L 98.609375 24.851562 L 99.960938 24.9375 L 101.304688 25.03125 L 102.625 25.132812 L 103.9375 25.242188 L 105.234375 25.367188 L 106.515625 25.5 L 107.78125 25.640625 L 109.03125 25.796875 L 110.257812 25.960938 L 111.46875 26.132812 L 112.664062 26.320312 L 113.835938 26.523438 L 114.992188 26.734375 L 116.117188 26.960938 L 117.234375 27.195312 L 118.320312 27.445312 L 119.390625 27.710938 L 120.4375 27.992188 L 121.453125 28.28125 L 122.445312 28.59375 L 123.414062 28.914062 L 124.359375 29.25 L 125.28125 29.609375 L 126.171875 29.976562 L 127.03125 30.359375 L 127.867188 30.765625 L 128.679688 31.1875 L 129.453125 31.625 L 130.195312 32.078125 L 130.914062 32.546875 L 131.601562 33.039062 L 132.25 33.546875 L 132.867188 34.078125 L 133.453125 34.625 L 134.007812 35.195312 L 134.523438 35.78125 L 135 36.390625 L 135.484375 35.78125 L 136 35.195312 L 136.554688 34.625 L 137.132812 34.078125 L 137.757812 33.546875 L 138.40625 33.039062 L 139.09375 32.546875 L 139.804688 32.078125 L 140.546875 31.625 L 141.328125 31.1875 L 142.132812 30.765625 L 142.96875 30.359375 L 143.828125 29.976562 L 144.71875 29.609375 L 145.640625 29.25 L 146.585938 28.914062 L 147.554688 28.59375 L 148.546875 28.28125 L 149.570312 27.992188 L 150.609375 27.710938 L 151.679688 27.445312 L 152.765625 27.195312 L 153.882812 26.960938 L 155.015625 26.734375 L 156.171875 26.523438 L 157.34375 26.320312 L 158.53125 26.132812 L 159.75 25.960938 L 160.976562 25.796875 L 162.226562 25.640625 L 163.484375 25.5 L 164.773438 25.367188 L 166.0625 25.242188 L 167.375 25.132812 L 168.703125 25.03125 L 170.039062 24.9375 L 171.390625 24.851562 L 172.757812 24.773438 L 174.132812 24.703125 L 175.523438 24.640625 L 176.921875 24.59375 L 178.328125 24.539062 L 179.742188 24.5 L 181.171875 24.46875 L 182.601562 24.445312 L 184.046875 24.421875 L 185.492188 24.40625 L 186.945312 24.398438 L 188.40625 24.390625 L 191.335938 24.390625 L 192.804688 24.398438 L 194.28125 24.40625 L 198.710938 24.453125 L 200.195312 24.476562 L 206.101562 24.570312 L 207.570312 24.601562 L 209.039062 24.625 L 210.507812 24.65625 L 213.414062 24.703125 L 214.859375 24.734375 L 216.304688 24.75 L 217.734375 24.773438 L 219.15625 24.789062 L 220.578125 24.8125 L 221.984375 24.820312 L 223.375 24.835938 L 224.765625 24.84375 L 228.859375 24.84375 L 230.195312 24.828125 L 231.523438 24.8125 L 232.828125 24.796875 L 234.125 24.773438 L 235.40625 24.734375 L 236.664062 24.703125 L 237.914062 24.65625 L 239.140625 24.601562 L 240.351562 24.546875 L 241.546875 24.476562 L 242.71875 24.398438 L 243.867188 24.320312 L 245 24.226562 L 246.109375 24.125 L 247.203125 24.015625 L 248.265625 23.890625 L 249.304688 23.765625 L 250.320312 23.625 L 251.320312 23.46875 L 252.289062 23.3125 L 253.226562 23.140625 L 254.148438 22.953125 L 255.039062 22.757812 L 255.890625 22.546875 L 256.726562 22.328125 L 257.53125 22.085938 L 258.304688 21.84375 L 259.046875 21.578125 L 259.765625 21.304688 L 260.445312 21.015625 L 261.09375 20.710938 L 261.710938 20.390625 L 262.296875 20.054688 L 262.84375 19.703125 L 263.359375 19.335938 L 263.835938 18.953125 L 264.28125 18.554688 L 264.6875 18.140625 L 265.054688 17.710938 L 265.382812 17.257812 L 265.679688 16.789062 L 265.929688 16.304688 L 266.140625 15.796875 L 265.835938 16.507812 L 265.492188 17.1875 L 265.109375 17.84375 L 264.695312 18.476562 L 264.242188 19.085938 L 263.757812 19.671875 L 263.234375 20.234375 L 262.6875 20.773438 L 262.101562 21.289062 L 261.484375 21.78125 L 260.835938 22.257812 L 260.15625 22.710938 L 259.445312 23.140625 L 258.710938 23.554688 L 257.945312 23.945312 L 257.148438 24.3125 L 256.328125 24.664062 L 255.46875 25 L 254.59375 25.3125 L 253.695312 25.609375 L 252.765625 25.890625 L 251.8125 26.148438 L 250.835938 26.398438 L 249.835938 26.625 L 248.8125 26.835938 L 247.765625 27.039062 L 246.703125 27.21875 L 245.609375 27.390625 L 244.5 27.539062 L 243.375 27.679688 L 242.21875 27.804688 L 241.054688 27.921875 L 239.875 28.023438 L 238.671875 28.109375 L 237.445312 28.1875 L 236.210938 28.25 L 234.960938 28.304688 L 233.6875 28.351562 L 232.40625 28.382812 L 231.117188 28.40625 L 229.804688 28.421875 L 228.484375 28.429688 L 227.148438 28.429688 L 225.804688 28.421875 L 224.445312 28.398438 L 223.078125 28.375 L 221.703125 28.34375 L 220.3125 28.304688 L 218.921875 28.257812 L 216.109375 28.148438 L 214.6875 28.09375 L 213.265625 28.023438 L 211.835938 27.953125 L 210.398438 27.882812 L 207.523438 27.726562 L 206.078125 27.648438 L 204.625 27.5625 L 203.179688 27.484375 L 200.273438 27.3125 L 198.820312 27.21875 L 197.367188 27.140625 L 195.914062 27.054688 L 194.46875 26.96875 L 193.015625 26.882812 L 191.570312 26.804688 L 190.132812 26.71875 L 188.695312 26.648438 L 187.265625 26.570312 L 185.835938 26.5 L 184.414062 26.4375 L 182.992188 26.367188 L 181.585938 26.3125 L 180.1875 26.257812 L 178.789062 26.210938 L 177.40625 26.171875 L 176.03125 26.132812 L 174.664062 26.109375 L 173.304688 26.085938 L 171.960938 26.070312 L 170.632812 26.0625 L 169.3125 26.070312 L 168.007812 26.078125 L 166.710938 26.09375 L 165.429688 26.125 L 164.164062 26.171875 L 162.914062 26.21875 L 161.679688 26.28125 L 160.460938 26.351562 L 159.265625 26.4375 L 158.078125 26.53125 L 156.914062 26.640625 L 155.773438 26.757812 L 154.648438 26.890625 L 153.539062 27.039062 L 152.453125 27.203125 L 151.390625 27.382812 L 150.34375 27.570312 L 149.328125 27.773438 L 148.328125 28 L 147.351562 28.234375 L 146.40625 28.492188 L 145.484375 28.765625 L 144.585938 29.054688 L 143.710938 29.359375 L 142.859375 29.6875 L 142.046875 30.03125 L 141.25 30.390625 L 140.492188 30.773438 L 139.757812 31.171875 L 139.054688 31.59375 L 138.382812 32.039062 L 137.734375 32.5 L 137.125 32.984375 L 136.546875 33.492188 L 136 34.023438 L 135.484375 34.578125 L 135 35.148438 L 134.523438 34.578125 L 134.007812 34.023438 L 133.460938 33.492188 L 132.882812 32.984375 L 132.265625 32.5 L 131.625 32.039062 L 130.953125 31.59375 L 130.25 31.171875 L 129.515625 30.773438 L 128.75 30.390625 L 127.960938 30.03125 L 127.140625 29.6875 L 126.296875 29.359375 L 125.421875 29.054688 L 124.523438 28.765625 L 123.59375 28.492188 L 122.648438 28.234375 L 121.671875 28 L 120.679688 27.773438 L 119.65625 27.570312 L 118.617188 27.382812 L 117.554688 27.203125 L 116.46875 27.039062 L 115.359375 26.890625 L 114.234375 26.757812 L 113.085938 26.640625 L 111.921875 26.53125 L 110.742188 26.4375 L 109.539062 26.351562 L 108.320312 26.28125 L 107.085938 26.21875 L 105.835938 26.171875 L 104.570312 26.125 L 103.289062 26.09375 L 102 26.078125 L 100.695312 26.070312 L 99.375 26.0625 L 98.039062 26.070312 L 96.695312 26.085938 L 95.34375 26.109375 L 93.976562 26.132812 L 92.601562 26.171875 L 91.210938 26.210938 L 89.820312 26.257812 L 88.421875 26.3125 L 87.007812 26.367188 L 85.59375 26.4375 L 84.171875 26.5 L 82.742188 26.570312 L 81.3125 26.648438 L 79.875 26.71875 L 78.429688 26.804688 L 76.984375 26.882812 L 75.539062 26.96875 L 72.632812 27.140625 L 71.179688 27.21875 L 69.726562 27.3125 L 68.273438 27.398438 L 66.828125 27.484375 L 65.375 27.5625 L 63.929688 27.648438 L 61.039062 27.804688 L 59.601562 27.882812 L 58.164062 27.953125 L 56.734375 28.023438 L 55.3125 28.09375 L 52.484375 28.203125 L 51.085938 28.257812 L 49.6875 28.304688 L 48.304688 28.34375 L 46.921875 28.375 L 44.203125 28.421875 L 42.859375 28.429688 L 41.523438 28.429688 L 40.195312 28.421875 L 38.890625 28.40625 L 37.59375 28.382812 L 36.3125 28.351562 L 35.046875 28.304688 L 33.789062 28.25 L 32.554688 28.1875 L 31.335938 28.109375 L 30.132812 28.023438 L 28.945312 27.921875 L 27.78125 27.804688 L 26.632812 27.679688 L 25.5 27.539062 L 24.390625 27.390625 L 23.304688 27.21875 L 22.234375 27.039062 L 21.1875 26.835938 L 20.164062 26.625 L 19.164062 26.398438 L 18.1875 26.148438 L 17.234375 25.890625 L 16.3125 25.609375 L 15.40625 25.3125 L 14.53125 25 L 13.679688 24.664062 L 12.859375 24.3125 L 12.0625 23.945312 L 11.296875 23.554688 L 10.554688 23.140625 L 9.84375 22.710938 L 9.164062 22.257812 L 8.515625 21.78125 L 7.90625 21.289062 L 7.320312 20.773438 L 6.765625 20.234375 L 6.25 19.671875 L 5.757812 19.085938 L 5.3125 18.476562 L 4.890625 17.84375 L 4.515625 17.1875 L 4.164062 16.507812 L 3.859375 15.796875 "/>
<path fill="none" stroke-width="3.985" stroke-linecap="butt" stroke-linejoin="miter" stroke="rgb(0%, 0%, 0%)" stroke-opacity="1" stroke-miterlimit="10" d="M 19.296875 541.015617 L 20.351562 538.476554 L 21.640625 536.05468 L 23.085937 533.71093 L 24.765625 531.445305 L 26.601562 529.296867 L 28.632812 527.226555 L 30.820312 525.234367 L 33.242187 523.320305 L 35.820312 521.484367 L 38.554687 519.726555 L 41.445312 518.046867 L 44.531249 516.445305 L 47.773437 514.921867 L 51.210937 513.476555 L 54.765624 512.109367 L 58.476562 510.781242 L 62.343749 509.570305 L 66.367187 508.359367 L 70.546874 507.265617 L 74.843749 506.21093 L 79.296874 505.234367 L 83.867186 504.296867 L 88.593749 503.437492 L 93.437499 502.656243 L 98.398436 501.874993 L 103.476561 501.171868 L 108.710936 500.546868 L 114.023436 499.921868 L 119.453123 499.374993 L 124.999998 498.86718 L 130.664061 498.39843 L 136.44531 498.007805 L 142.304685 497.61718 L 148.242185 497.265618 L 154.296873 496.99218 L 160.429685 496.718743 L 166.679685 496.484368 L 173.00781 496.328118 L 179.41406 496.132805 L 185.859372 496.015618 L 192.421872 495.937493 L 199.062497 495.859368 L 205.742184 495.781243 L 226.171872 495.781243 L 233.124997 495.820305 L 240.117184 495.89843 L 247.148434 495.937493 L 254.218746 496.05468 L 261.367184 496.132805 L 268.515621 496.249993 L 275.703121 496.328118 L 282.929683 496.484368 L 290.234371 496.601555 L 297.499996 496.718743 L 304.843745 496.874993 L 312.148433 496.99218 L 319.531245 497.14843 L 326.874995 497.265618 L 341.64062 497.499993 L 349.062495 497.61718 L 356.445307 497.734368 L 363.82812 497.812493 L 371.249994 497.890618 L 378.632807 497.968743 L 393.320307 498.046868 L 408.007806 498.046868 L 415.273431 498.007805 L 422.578119 497.968743 L 429.804681 497.890618 L 444.179681 497.656243 L 451.289056 497.499993 L 458.398431 497.30468 L 465.429681 497.031243 L 472.421868 496.796868 L 479.33593 496.484368 L 486.21093 496.132805 L 493.046868 495.74218 L 499.80468 495.312493 L 506.52343 494.843743 L 513.124992 494.33593 L 519.687492 493.789055 L 526.171867 493.164055 L 532.578117 492.499993 L 538.906242 491.796868 L 545.156242 491.015618 L 551.289054 490.195305 L 557.343742 489.33593 L 563.320304 488.39843 L 569.179679 487.382805 L 574.960929 486.328118 L 580.585929 485.195305 L 586.171866 484.02343 L 591.601554 482.77343 L 596.953116 481.445305 L 602.187491 480.039055 L 607.265616 478.593743 L 612.226553 477.031243 L 617.070303 475.42968 L 621.796866 473.749993 L 626.406241 471.953118 L 630.859366 470.11718 L 635.156241 468.203118 L 639.335928 466.171868 L 643.398428 464.062493 L 647.265615 461.874993 L 650.976553 459.609368 L 654.570303 457.265618 L 658.007803 454.804681 L 661.24999 452.265618 L 664.335928 449.609368 L 667.265615 446.874993 L 670.039053 444.023431 L 672.617177 441.093743 L 674.99999 438.046868 L 677.421865 441.093743 L 679.99999 444.023431 L 682.773427 446.874993 L 685.664052 449.609368 L 688.789052 452.265618 L 692.03124 454.804681 L 695.46874 457.265618 L 699.023427 459.609368 L 702.734365 461.874993 L 706.640614 464.062493 L 710.664052 466.171868 L 714.843739 468.203118 L 719.140614 470.11718 L 723.593739 471.953118 L 728.203114 473.749993 L 732.929677 475.42968 L 737.773427 477.031243 L 742.734364 478.593743 L 747.851551 480.039055 L 753.046864 481.445305 L 758.398426 482.77343 L 763.828114 484.02343 L 769.414051 485.195305 L 775.078113 486.328118 L 780.859363 487.382805 L 786.718738 488.39843 L 792.656238 489.33593 L 798.749988 490.195305 L 804.882801 491.015618 L 811.1328 491.796868 L 817.421863 492.499993 L 823.867175 493.164055 L 830.312488 493.789055 L 836.874988 494.33593 L 843.515612 494.843743 L 850.1953 495.312493 L 856.953112 495.74218 L 863.78905 496.132805 L 870.66405 496.484368 L 877.617174 496.796868 L 884.609362 497.031243 L 891.640612 497.30468 L 898.710924 497.499993 L 905.859362 497.656243 L 913.007799 497.77343 L 920.234361 497.890618 L 927.460924 497.968743 L 934.726549 498.007805 L 942.031236 498.046868 L 956.679673 498.046868 L 964.023423 498.007805 L 971.406236 497.968743 L 993.554673 497.734368 L 1000.976548 497.61718 L 1030.507797 497.14843 L 1037.851547 496.99218 L 1045.195297 496.874993 L 1052.539047 496.718743 L 1067.070297 496.484368 L 1074.296859 496.328118 L 1081.523421 496.249993 L 1088.671859 496.132805 L 1095.781234 496.05468 L 1102.890609 495.937493 L 1109.921858 495.89843 L 1116.874983 495.820305 L 1123.828108 495.781243 L 1144.296858 495.781243 L 1150.976545 495.859368 L 1157.61717 495.937493 L 1164.140608 496.015618 L 1170.624983 496.132805 L 1177.031232 496.328118 L 1183.320295 496.484368 L 1189.570295 496.718743 L 1195.703107 496.99218 L 1201.757795 497.265618 L 1207.734357 497.61718 L 1213.593732 498.007805 L 1219.335919 498.39843 L 1224.999982 498.86718 L 1230.546857 499.374993 L 1236.015607 499.921868 L 1241.328107 500.546868 L 1246.523419 501.171868 L 1251.601544 501.874993 L 1256.601544 502.656243 L 1261.445294 503.437492 L 1266.132794 504.296867 L 1270.742169 505.234367 L 1275.195293 506.21093 L 1279.453106 507.265617 L 1283.632793 508.359367 L 1287.656231 509.570305 L 1291.523418 510.781242 L 1295.234356 512.109367 L 1298.828106 513.476555 L 1302.226543 514.921867 L 1305.468731 516.445305 L 1308.554668 518.046867 L 1311.484355 519.726555 L 1314.21873 521.484367 L 1316.796855 523.320305 L 1319.179668 525.234367 L 1321.40623 527.226555 L 1323.43748 529.296867 L 1325.273418 531.445305 L 1326.914043 533.71093 L 1328.398418 536.05468 L 1329.648418 538.476554 L 1330.703105 541.015617 L 1329.179668 537.460929 L 1327.460918 534.062492 L 1325.546855 530.781242 L 1323.476543 527.61718 L 1321.210918 524.570305 L 1318.789043 521.640617 L 1316.171855 518.828117 L 1313.43748 516.132805 L 1310.507793 513.55468 L 1307.421856 511.093742 L 1304.179668 508.71093 L 1300.781231 506.445305 L 1297.226543 504.296867 L 1293.554668 502.226555 L 1289.726543 500.27343 L 1285.742168 498.437493 L 1281.640606 496.67968 L 1277.343731 494.999993 L 1272.968731 493.437493 L 1268.476544 491.953118 L 1263.828106 490.546868 L 1259.062481 489.257805 L 1254.179669 488.007805 L 1249.179669 486.874993 L 1244.062481 485.820305 L 1238.828107 484.80468 L 1233.515607 483.906243 L 1228.046857 483.046868 L 1222.499982 482.30468 L 1216.874982 481.601555 L 1211.093732 480.976555 L 1205.27342 480.390618 L 1199.374982 479.882805 L 1193.359357 479.453118 L 1187.226545 479.062493 L 1181.05467 478.749993 L 1174.80467 478.476555 L 1168.437483 478.24218 L 1162.031233 478.08593 L 1155.58592 477.968743 L 1149.02342 477.890618 L 1142.421858 477.851555 L 1135.742171 477.851555 L 1129.023421 477.890618 L 1122.226546 478.007805 L 1115.390608 478.124993 L 1108.515608 478.281243 L 1101.562484 478.476555 L 1094.609359 478.71093 L 1080.546859 479.257805 L 1073.437484 479.531243 L 1066.328109 479.882805 L 1059.179672 480.234368 L 1051.992172 480.58593 L 1037.617172 481.36718 L 1030.39061 481.757805 L 1023.124985 482.187493 L 1015.898422 482.578118 L 1001.367173 483.437493 L 994.101548 483.906243 L 986.835923 484.296868 L 979.570298 484.726555 L 972.343736 485.156243 L 965.078111 485.58593 L 957.851548 485.976555 L 950.664048 486.406243 L 943.476548 486.757805 L 936.328111 487.14843 L 929.179674 487.499993 L 922.070299 487.812493 L 914.960924 488.164055 L 907.929674 488.437493 L 900.937487 488.71093 L 893.945299 488.945305 L 887.031237 489.140618 L 880.156237 489.33593 L 873.320299 489.453118 L 866.523425 489.570305 L 859.804675 489.64843 L 853.16405 489.687493 L 846.562487 489.64843 L 840.03905 489.609368 L 833.554675 489.531243 L 827.148425 489.374993 L 820.8203 489.140618 L 814.5703 488.906243 L 808.398425 488.593743 L 802.304676 488.24218 L 796.328113 487.812493 L 790.390613 487.343743 L 784.570301 486.796868 L 778.867176 486.21093 L 773.242176 485.546868 L 767.695301 484.80468 L 762.265614 483.984368 L 756.953114 483.08593 L 751.718739 482.14843 L 746.640614 481.132805 L 741.640614 479.999993 L 736.757802 478.828118 L 732.031239 477.539055 L 727.421864 476.171868 L 722.929677 474.726555 L 718.554677 473.203118 L 714.296864 471.562493 L 710.234364 469.843743 L 706.249989 468.046868 L 702.460927 466.132806 L 698.789052 464.140618 L 695.273427 462.031243 L 691.914052 459.804681 L 688.671865 457.499993 L 685.62499 455.078118 L 682.734365 452.539056 L 679.99999 449.882806 L 677.421865 447.109368 L 674.99999 444.257806 L 672.617177 447.109368 L 670.039053 449.882806 L 667.304678 452.539056 L 664.414053 455.078118 L 661.328115 457.499993 L 658.12499 459.804681 L 654.765615 462.031243 L 651.24999 464.140618 L 647.578115 466.132806 L 643.74999 468.046868 L 639.804678 469.843743 L 635.703116 471.562493 L 631.484366 473.203118 L 627.109366 474.726555 L 622.617178 476.171868 L 617.968741 477.539055 L 613.242178 478.828118 L 608.359366 479.999993 L 603.398429 481.132805 L 598.281241 482.14843 L 593.085929 483.08593 L 587.773429 483.984368 L 582.343741 484.80468 L 576.796866 485.546868 L 571.171866 486.21093 L 565.429679 486.796868 L 559.609367 487.343743 L 553.710929 487.812493 L 547.695304 488.24218 L 541.601554 488.593743 L 535.42968 488.906243 L 529.17968 489.140618 L 522.851555 489.374993 L 516.445305 489.531243 L 509.999992 489.609368 L 503.476555 489.64843 L 496.874993 489.687493 L 490.195305 489.64843 L 483.476555 489.570305 L 476.718743 489.453118 L 469.882805 489.33593 L 463.007806 489.140618 L 456.054681 488.945305 L 449.101556 488.71093 L 442.109368 488.437493 L 435.039056 488.164055 L 427.968744 487.812493 L 420.859369 487.499993 L 413.710931 487.14843 L 406.562494 486.757805 L 399.374994 486.406243 L 392.148432 485.976555 L 384.921869 485.58593 L 377.695307 485.156243 L 363.164057 484.296868 L 355.898432 483.906243 L 348.632807 483.437493 L 341.367182 483.007805 L 334.14062 482.578118 L 326.874995 482.187493 L 319.648433 481.757805 L 305.195308 480.976555 L 298.007808 480.58593 L 290.820308 480.234368 L 283.671871 479.882805 L 276.562496 479.531243 L 262.421871 478.984368 L 255.429684 478.71093 L 248.437496 478.476555 L 241.523434 478.281243 L 234.609372 478.124993 L 221.015622 477.890618 L 214.296872 477.851555 L 207.617184 477.851555 L 200.97656 477.890618 L 194.453122 477.968743 L 187.968747 478.08593 L 181.562497 478.24218 L 175.234372 478.476555 L 168.94531 478.749993 L 162.773435 479.062493 L 156.679685 479.453118 L 150.66406 479.882805 L 144.72656 480.390618 L 138.906248 480.976555 L 133.164061 481.601555 L 127.499998 482.30468 L 121.953123 483.046868 L 116.523436 483.906243 L 111.171873 484.80468 L 105.937498 485.820305 L 100.820311 486.874993 L 95.820311 488.007805 L 90.937499 489.257805 L 86.171874 490.546868 L 81.562499 491.953118 L 77.031249 493.437493 L 72.656249 494.999993 L 68.398436 496.67968 L 64.296874 498.437493 L 60.312499 500.27343 L 56.484374 502.226555 L 52.773437 504.296867 L 49.218749 506.445305 L 45.820312 508.71093 L 42.578124 511.093742 L 39.531249 513.55468 L 36.601562 516.132805 L 33.828124 518.828117 L 31.25 521.640617 L 28.789062 524.570305 L 26.5625 527.61718 L 24.453125 530.781242 L 22.578125 534.062492 L 20.820312 537.460929 Z M 19.296875 541.015617 " transform="matrix(0.2, 0, 0, -0.2, 0, 124)"/>
<path fill-rule="nonzero" fill="rgb(100%, 100%, 100%)" fill-opacity="1" d="M 316.601562 37.039062 L 358.601562 37.039062 L 358.601562 68.960938 L 316.601562 68.960938 Z M 316.601562 37.039062 "/>
<path fill-rule="nonzero" fill="rgb(0%, 0%, 0%)" fill-opacity="1" d="M 328.5 45.148438 C 328.5 44.648438 328.5 44.617188 328.03125 44.617188 C 326.78125 45.898438 325.03125 45.898438 324.40625 45.898438 L 324.40625 46.523438 C 324.8125 46.523438 325.96875 46.523438 327 45.992188 L 327 56.335938 C 327 57.054688 326.9375 57.273438 325.15625 57.273438 L 324.53125 57.273438 L 324.53125 57.898438 C 325.21875 57.835938 326.9375 57.835938 327.75 57.835938 C 328.53125 57.835938 330.28125 57.835938 330.96875 57.898438 L 330.96875 57.273438 L 330.34375 57.273438 C 328.53125 57.273438 328.5 57.054688 328.5 56.335938 Z M 328.5 45.148438 "/>
<path fill-rule="nonzero" fill="rgb(0%, 0%, 0%)" fill-opacity="1" d="M 341.453125 43.710938 C 341.546875 43.429688 341.546875 43.367188 341.546875 43.335938 C 341.546875 43.117188 341.390625 42.929688 341.171875 42.929688 C 341.015625 42.929688 340.890625 42.992188 340.828125 43.117188 L 333.890625 62.117188 C 333.796875 62.398438 333.796875 62.460938 333.796875 62.492188 C 333.796875 62.710938 333.984375 62.898438 334.203125 62.898438 C 334.453125 62.898438 334.515625 62.742188 334.640625 62.398438 Z M 341.453125 43.710938 "/>
<path fill-rule="nonzero" fill="rgb(0%, 0%, 0%)" fill-opacity="1" d="M 345.316406 56.367188 L 347.441406 54.304688 C 350.535156 51.554688 351.722656 50.492188 351.722656 48.492188 C 351.722656 46.210938 349.941406 44.617188 347.503906 44.617188 C 345.253906 44.617188 343.785156 46.460938 343.785156 48.242188 C 343.785156 49.335938 344.785156 49.335938 344.847656 49.335938 C 345.191406 49.335938 345.878906 49.117188 345.878906 48.273438 C 345.878906 47.773438 345.503906 47.242188 344.816406 47.242188 C 344.660156 47.242188 344.628906 47.242188 344.566406 47.273438 C 345.003906 45.960938 346.097656 45.242188 347.253906 45.242188 C 349.066406 45.242188 349.910156 46.867188 349.910156 48.492188 C 349.910156 50.085938 348.941406 51.648438 347.816406 52.898438 L 344.003906 57.148438 C 343.785156 57.367188 343.785156 57.429688 343.785156 57.898438 L 351.191406 57.898438 L 351.722656 54.429688 L 351.253906 54.429688 C 351.128906 55.023438 351.003906 55.898438 350.785156 56.210938 C 350.660156 56.367188 349.347656 56.367188 348.910156 56.367188 Z M 345.316406 56.367188 "/>
<path fill-rule="nonzero" fill="rgb(0%, 0%, 0%)" fill-opacity="1" d="M 273.867188 15.796875 L 274.0625 16.304688 L 274.273438 16.789062 L 274.492188 17.257812 L 274.734375 17.710938 L 274.976562 18.140625 L 275.234375 18.554688 L 275.507812 18.953125 L 275.789062 19.335938 L 276.078125 19.703125 L 276.382812 20.054688 L 276.695312 20.390625 L 277.023438 20.710938 L 277.359375 21.015625 L 277.703125 21.304688 L 278.054688 21.578125 L 278.421875 21.84375 L 278.789062 22.085938 L 279.179688 22.328125 L 279.570312 22.546875 L 279.96875 22.757812 L 280.382812 22.953125 L 280.804688 23.140625 L 281.234375 23.3125 L 281.671875 23.46875 L 282.117188 23.625 L 282.570312 23.765625 L 283.492188 24.015625 L 283.976562 24.125 L 284.460938 24.226562 L 284.953125 24.320312 L 285.445312 24.398438 L 285.953125 24.476562 L 286.46875 24.546875 L 286.984375 24.601562 L 287.515625 24.65625 L 288.046875 24.703125 L 288.578125 24.734375 L 289.125 24.773438 L 289.679688 24.796875 L 290.789062 24.828125 L 291.359375 24.84375 L 293.085938 24.84375 L 293.679688 24.835938 L 294.265625 24.820312 L 294.859375 24.8125 L 295.460938 24.789062 L 296.054688 24.773438 L 296.664062 24.75 L 297.273438 24.734375 L 297.882812 24.703125 L 298.507812 24.679688 L 299.125 24.65625 L 299.742188 24.625 L 300.375 24.601562 L 301 24.570312 L 303.53125 24.476562 L 304.171875 24.453125 L 306.09375 24.40625 L 306.742188 24.398438 L 307.382812 24.390625 L 308.679688 24.390625 L 309.320312 24.398438 L 309.96875 24.40625 L 310.617188 24.421875 L 311.257812 24.445312 L 311.90625 24.46875 L 312.554688 24.5 L 313.195312 24.539062 L 313.84375 24.59375 L 314.484375 24.640625 L 315.125 24.703125 L 315.765625 24.773438 L 316.40625 24.851562 L 317.046875 24.9375 L 317.679688 25.03125 L 318.3125 25.132812 L 318.945312 25.242188 L 319.578125 25.367188 L 320.203125 25.5 L 320.828125 25.640625 L 321.453125 25.796875 L 322.070312 25.960938 L 322.6875 26.132812 L 323.296875 26.320312 L 323.90625 26.523438 L 324.515625 26.734375 L 325.117188 26.960938 L 325.710938 27.195312 L 326.304688 27.445312 L 326.890625 27.710938 L 327.476562 27.992188 L 328.054688 28.28125 L 328.632812 28.59375 L 329.203125 28.914062 L 329.765625 29.25 L 330.328125 29.609375 L 330.882812 29.976562 L 331.429688 30.359375 L 331.96875 30.765625 L 332.507812 31.1875 L 333.039062 31.625 L 333.5625 32.078125 L 334.078125 32.546875 L 334.59375 33.039062 L 335.09375 33.546875 L 335.59375 34.078125 L 336.078125 34.625 L 336.5625 35.195312 L 337.039062 35.78125 L 337.507812 36.390625 L 337.96875 35.78125 L 338.445312 35.195312 L 338.929688 34.625 L 339.421875 34.078125 L 339.914062 33.546875 L 340.421875 33.039062 L 340.929688 32.546875 L 341.445312 32.078125 L 341.96875 31.625 L 342.5 31.1875 L 343.039062 30.765625 L 343.578125 30.359375 L 344.125 29.976562 L 344.679688 29.609375 L 345.242188 29.25 L 345.804688 28.914062 L 346.375 28.59375 L 346.953125 28.28125 L 347.53125 27.992188 L 348.117188 27.710938 L 348.703125 27.445312 L 349.296875 27.195312 L 349.890625 26.960938 L 350.492188 26.734375 L 351.101562 26.523438 L 351.710938 26.320312 L 352.320312 26.132812 L 352.9375 25.960938 L 353.554688 25.796875 L 354.179688 25.640625 L 354.804688 25.5 L 355.429688 25.367188 L 356.0625 25.242188 L 356.695312 25.132812 L 357.328125 25.03125 L 357.960938 24.9375 L 358.601562 24.851562 L 359.242188 24.773438 L 359.882812 24.703125 L 360.523438 24.640625 L 361.171875 24.59375 L 361.8125 24.539062 L 362.460938 24.5 L 363.101562 24.46875 L 363.75 24.445312 L 364.390625 24.421875 L 365.039062 24.40625 L 365.6875 24.398438 L 366.328125 24.390625 L 367.625 24.390625 L 368.265625 24.398438 L 368.914062 24.40625 L 370.835938 24.453125 L 371.476562 24.476562 L 374.007812 24.570312 L 374.632812 24.601562 L 375.265625 24.625 L 375.882812 24.65625 L 376.5 24.679688 L 377.125 24.703125 L 377.734375 24.734375 L 378.34375 24.75 L 378.953125 24.773438 L 379.554688 24.789062 L 380.148438 24.8125 L 380.742188 24.820312 L 381.335938 24.835938 L 381.921875 24.84375 L 383.648438 24.84375 L 384.21875 24.828125 L 385.328125 24.796875 L 385.882812 24.773438 L 386.429688 24.734375 L 386.960938 24.703125 L 387.492188 24.65625 L 388.023438 24.601562 L 388.539062 24.546875 L 389.054688 24.476562 L 389.5625 24.398438 L 390.054688 24.320312 L 390.546875 24.226562 L 391.03125 24.125 L 391.515625 24.015625 L 391.976562 23.890625 L 392.445312 23.765625 L 392.890625 23.625 L 393.34375 23.46875 L 393.78125 23.3125 L 394.203125 23.140625 L 394.625 22.953125 L 395.039062 22.757812 L 395.4375 22.546875 L 395.828125 22.328125 L 396.21875 22.085938 L 396.585938 21.84375 L 396.953125 21.578125 L 397.304688 21.304688 L 397.65625 21.015625 L 397.984375 20.710938 L 398.3125 20.390625 L 398.625 20.054688 L 398.929688 19.703125 L 399.21875 19.335938 L 399.5 18.953125 L 399.773438 18.554688 L 400.03125 18.140625 L 400.273438 17.710938 L 400.515625 17.257812 L 400.734375 16.789062 L 400.945312 16.304688 L 401.140625 15.796875 L 400.851562 16.507812 L 400.546875 17.1875 L 400.234375 17.84375 L 399.914062 18.476562 L 399.585938 19.085938 L 399.25 19.671875 L 398.898438 20.234375 L 398.546875 20.773438 L 398.1875 21.289062 L 397.8125 21.78125 L 397.4375 22.257812 L 397.046875 22.710938 L 396.65625 23.140625 L 396.257812 23.554688 L 395.84375 23.945312 L 395.429688 24.3125 L 395.007812 24.664062 L 394.578125 25 L 394.140625 25.3125 L 393.695312 25.609375 L 393.242188 25.890625 L 392.789062 26.148438 L 392.328125 26.398438 L 391.859375 26.625 L 391.382812 26.835938 L 390.898438 27.039062 L 390.414062 27.21875 L 389.921875 27.390625 L 389.421875 27.539062 L 388.921875 27.679688 L 388.40625 27.804688 L 387.898438 27.921875 L 387.375 28.023438 L 386.859375 28.109375 L 386.328125 28.1875 L 385.789062 28.25 L 385.257812 28.304688 L 384.710938 28.351562 L 384.164062 28.382812 L 383.617188 28.40625 L 383.0625 28.421875 L 382.5 28.429688 L 381.9375 28.429688 L 381.375 28.421875 L 380.234375 28.375 L 379.65625 28.34375 L 379.078125 28.304688 L 378.492188 28.257812 L 376.734375 28.09375 L 375.546875 27.953125 L 374.945312 27.882812 L 373.140625 27.648438 L 372.539062 27.5625 L 371.929688 27.484375 L 370.710938 27.3125 L 370.101562 27.21875 L 369.492188 27.140625 L 368.875 27.054688 L 368.265625 26.96875 L 367.648438 26.882812 L 367.039062 26.804688 L 366.421875 26.71875 L 365.804688 26.648438 L 365.195312 26.570312 L 364.578125 26.5 L 363.960938 26.4375 L 363.34375 26.367188 L 362.734375 26.3125 L 362.117188 26.257812 L 361.507812 26.210938 L 360.890625 26.171875 L 360.28125 26.132812 L 359.664062 26.109375 L 359.054688 26.085938 L 358.445312 26.070312 L 357.84375 26.0625 L 357.234375 26.070312 L 356.632812 26.078125 L 356.03125 26.09375 L 355.429688 26.125 L 354.828125 26.171875 L 354.234375 26.21875 L 353.632812 26.28125 L 353.046875 26.351562 L 352.460938 26.4375 L 351.867188 26.53125 L 351.289062 26.640625 L 350.703125 26.757812 L 350.125 26.890625 L 349.554688 27.039062 L 348.976562 27.203125 L 348.414062 27.382812 L 347.84375 27.570312 L 347.289062 27.773438 L 346.726562 28 L 346.179688 28.234375 L 345.632812 28.492188 L 345.085938 28.765625 L 344.539062 29.054688 L 344.007812 29.359375 L 343.476562 29.6875 L 342.953125 30.03125 L 342.429688 30.390625 L 341.90625 30.773438 L 341.398438 31.171875 L 340.890625 31.59375 L 340.390625 32.039062 L 339.898438 32.5 L 339.40625 32.984375 L 338.921875 33.492188 L 338.445312 34.023438 L 337.96875 34.578125 L 337.507812 35.148438 L 337.039062 34.578125 L 336.5625 34.023438 L 336.085938 33.492188 L 335.601562 32.984375 L 335.109375 32.5 L 334.617188 32.039062 L 334.117188 31.59375 L 333.609375 31.171875 L 333.101562 30.773438 L 332.578125 30.390625 L 332.054688 30.03125 L 331.53125 29.6875 L 331 29.359375 L 330.46875 29.054688 L 329.921875 28.765625 L 329.375 28.492188 L 328.828125 28.234375 L 328.28125 28 L 327.71875 27.773438 L 327.164062 27.570312 L 326.59375 27.382812 L 326.03125 27.203125 L 325.453125 27.039062 L 324.882812 26.890625 L 324.304688 26.757812 L 323.71875 26.640625 L 323.140625 26.53125 L 322.554688 26.4375 L 321.960938 26.351562 L 321.375 26.28125 L 320.773438 26.21875 L 320.179688 26.171875 L 319.578125 26.125 L 318.984375 26.09375 L 318.375 26.078125 L 317.171875 26.0625 L 316.5625 26.070312 L 315.953125 26.085938 L 314.734375 26.132812 L 314.117188 26.171875 L 313.507812 26.210938 L 312.890625 26.257812 L 312.28125 26.3125 L 311.664062 26.367188 L 311.046875 26.4375 L 310.4375 26.5 L 309.8125 26.570312 L 309.203125 26.648438 L 308.585938 26.71875 L 307.96875 26.804688 L 307.359375 26.882812 L 306.742188 26.96875 L 306.132812 27.054688 L 305.515625 27.140625 L 304.90625 27.21875 L 304.296875 27.3125 L 303.078125 27.484375 L 302.46875 27.5625 L 301.867188 27.648438 L 300.0625 27.882812 L 299.460938 27.953125 L 298.273438 28.09375 L 296.515625 28.257812 L 295.929688 28.304688 L 295.351562 28.34375 L 294.773438 28.375 L 293.632812 28.421875 L 293.070312 28.429688 L 292.507812 28.429688 L 291.945312 28.421875 L 291.390625 28.40625 L 290.84375 28.382812 L 290.296875 28.351562 L 289.75 28.304688 L 289.21875 28.25 L 288.679688 28.1875 L 288.15625 28.109375 L 287.632812 28.023438 L 287.109375 27.921875 L 286.601562 27.804688 L 286.085938 27.679688 L 285.585938 27.539062 L 285.085938 27.390625 L 284.59375 27.21875 L 284.109375 27.039062 L 283.625 26.835938 L 283.148438 26.625 L 282.679688 26.398438 L 282.21875 26.148438 L 281.765625 25.890625 L 281.3125 25.609375 L 280.867188 25.3125 L 280.429688 25 L 280.007812 24.664062 L 279.578125 24.3125 L 279.164062 23.945312 L 278.757812 23.554688 L 278.351562 23.140625 L 277.960938 22.710938 L 277.570312 22.257812 L 277.195312 21.78125 L 276.820312 21.289062 L 276.460938 20.773438 L 276.109375 20.234375 L 275.757812 19.671875 L 275.421875 19.085938 L 275.09375 18.476562 L 274.773438 17.84375 L 274.460938 17.1875 L 274.15625 16.507812 L 273.867188 15.796875 "/>
<path fill="none" stroke-width="3.985" stroke-linecap="butt" stroke-linejoin="miter" stroke="rgb(0%, 0%, 0%)" stroke-opacity="1" stroke-miterlimit="10" d="M 1369.335917 541.015617 L 1370.31248 538.476554 L 1371.367167 536.05468 L 1372.460917 533.71093 L 1373.671855 531.445305 L 1374.882792 529.296867 L 1376.171854 527.226555 L 1377.539042 525.234367 L 1378.945292 523.320305 L 1380.390604 521.484367 L 1381.914042 519.726555 L 1383.476542 518.046867 L 1385.117167 516.445305 L 1386.796854 514.921867 L 1388.515604 513.476555 L 1390.273417 512.109367 L 1392.109354 510.781242 L 1393.945292 509.570305 L 1395.898417 508.359367 L 1397.851542 507.265617 L 1399.843729 506.21093 L 1401.914042 505.234367 L 1404.023417 504.296867 L 1406.171854 503.437492 L 1408.359354 502.656243 L 1410.585916 501.874993 L 1412.851541 501.171868 L 1417.460916 499.921868 L 1419.882791 499.374993 L 1422.304666 498.86718 L 1424.765604 498.39843 L 1427.226541 498.007805 L 1429.765604 497.61718 L 1432.343729 497.265618 L 1434.921854 496.99218 L 1437.578104 496.718743 L 1440.234354 496.484368 L 1442.890603 496.328118 L 1445.624978 496.132805 L 1448.398416 496.015618 L 1453.945291 495.859368 L 1456.796853 495.781243 L 1465.429666 495.781243 L 1468.398416 495.820305 L 1471.328103 495.89843 L 1474.296853 495.937493 L 1477.304665 496.05468 L 1480.273415 496.132805 L 1483.32029 496.249993 L 1486.367165 496.328118 L 1489.41404 496.484368 L 1492.53904 496.601555 L 1495.624978 496.718743 L 1498.710915 496.874993 L 1501.874978 496.99218 L 1504.999978 497.14843 L 1517.656227 497.61718 L 1520.859352 497.734368 L 1530.468727 497.968743 L 1533.710915 498.007805 L 1536.91404 498.046868 L 1543.398415 498.046868 L 1546.601539 498.007805 L 1549.843727 497.968743 L 1553.085914 497.890618 L 1556.289039 497.77343 L 1559.531227 497.656243 L 1562.773414 497.499993 L 1565.976539 497.30468 L 1569.218727 497.031243 L 1572.421852 496.796868 L 1575.624977 496.484368 L 1578.828101 496.132805 L 1582.031226 495.74218 L 1585.234351 495.312493 L 1588.398414 494.843743 L 1591.562476 494.33593 L 1594.726539 493.789055 L 1597.890601 493.164055 L 1601.015601 492.499993 L 1604.140601 491.796868 L 1607.265601 491.015618 L 1610.351539 490.195305 L 1613.437476 489.33593 L 1616.484351 488.39843 L 1619.531226 487.382805 L 1622.578101 486.328118 L 1625.585913 485.195305 L 1628.554663 484.02343 L 1631.523413 482.77343 L 1634.453101 481.445305 L 1637.382788 480.039055 L 1640.273413 478.593743 L 1643.164038 477.031243 L 1646.0156 475.42968 L 1648.8281 473.749993 L 1651.6406 471.953118 L 1654.414038 470.11718 L 1657.148413 468.203118 L 1659.843725 466.171868 L 1662.539038 464.062493 L 1665.195288 461.874993 L 1667.812475 459.609368 L 1670.3906 457.265618 L 1672.968725 454.804681 L 1675.468725 452.265618 L 1677.968725 449.609368 L 1680.3906 446.874993 L 1682.812475 444.023431 L 1685.195287 441.093743 L 1687.539037 438.046868 L 1689.843725 441.093743 L 1692.226537 444.023431 L 1694.648412 446.874993 L 1697.10935 449.609368 L 1699.570287 452.265618 L 1702.10935 454.804681 L 1704.648412 457.265618 L 1707.226537 459.609368 L 1709.843725 461.874993 L 1712.499974 464.062493 L 1715.195287 466.171868 L 1717.890599 468.203118 L 1720.624974 470.11718 L 1723.398412 471.953118 L 1726.210912 473.749993 L 1729.023412 475.42968 L 1731.874974 477.031243 L 1734.765599 478.593743 L 1737.656224 480.039055 L 1740.585912 481.445305 L 1743.515599 482.77343 L 1746.484349 484.02343 L 1749.453099 485.195305 L 1752.460911 486.328118 L 1755.507786 487.382805 L 1758.554661 488.39843 L 1761.601536 489.33593 L 1764.687474 490.195305 L 1767.773411 491.015618 L 1770.898411 491.796868 L 1774.023411 492.499993 L 1777.148411 493.164055 L 1780.312473 493.789055 L 1783.476536 494.33593 L 1786.640598 494.843743 L 1789.804661 495.312493 L 1793.007786 495.74218 L 1796.210911 496.132805 L 1799.414036 496.484368 L 1802.617161 496.796868 L 1805.859348 497.031243 L 1809.062473 497.30468 L 1812.30466 497.499993 L 1815.507785 497.656243 L 1818.749973 497.77343 L 1821.953098 497.890618 L 1825.195285 497.968743 L 1828.437473 498.007805 L 1831.640598 498.046868 L 1838.124973 498.046868 L 1841.328098 498.007805 L 1844.570285 497.968743 L 1854.17966 497.734368 L 1857.382785 497.61718 L 1870.039035 497.14843 L 1873.164035 496.99218 L 1876.328097 496.874993 L 1879.414034 496.718743 L 1882.499972 496.601555 L 1885.624972 496.484368 L 1888.671847 496.328118 L 1891.718722 496.249993 L 1894.765597 496.132805 L 1897.773409 496.05468 L 1900.742159 495.937493 L 1903.710909 495.89843 L 1906.679659 495.820305 L 1909.609347 495.781243 L 1918.242159 495.781243 L 1921.093721 495.859368 L 1926.640596 496.015618 L 1929.414034 496.132805 L 1932.148409 496.328118 L 1934.804659 496.484368 L 1937.460909 496.718743 L 1940.117159 496.99218 L 1942.695284 497.265618 L 1945.273409 497.61718 L 1947.812471 498.007805 L 1950.273408 498.39843 L 1952.734346 498.86718 L 1955.156221 499.374993 L 1957.578096 499.921868 L 1959.882783 500.546868 L 1962.226533 501.171868 L 1964.453096 501.874993 L 1966.718721 502.656243 L 1968.906221 503.437492 L 1971.015596 504.296867 L 1973.124971 505.234367 L 1975.195283 506.21093 L 1977.187471 507.265617 L 1979.140596 508.359367 L 1981.09372 509.570305 L 1982.929658 510.781242 L 1984.765595 512.109367 L 1986.523408 513.476555 L 1988.28122 514.921867 L 1989.921845 516.445305 L 1991.56247 518.046867 L 1993.12497 519.726555 L 1994.648408 521.484367 L 1996.09372 523.320305 L 1997.49997 525.234367 L 1998.867158 527.226555 L 2000.15622 529.296867 L 2001.367158 531.445305 L 2002.578095 533.71093 L 2003.671845 536.05468 L 2004.726533 538.476554 L 2005.703095 541.015617 L 2004.257783 537.460929 L 2002.734345 534.062492 L 2001.171845 530.781242 L 1999.570283 527.61718 L 1997.929658 524.570305 L 1996.24997 521.640617 L 1994.492158 518.828117 L 1992.734345 516.132805 L 1990.93747 513.55468 L 1989.06247 511.093742 L 1987.18747 508.71093 L 1985.234345 506.445305 L 1983.28122 504.296867 L 1981.289033 502.226555 L 1979.218721 500.27343 L 1977.148408 498.437493 L 1975.039033 496.67968 L 1972.890596 494.999993 L 1970.703096 493.437493 L 1968.476533 491.953118 L 1966.210908 490.546868 L 1963.945283 489.257805 L 1961.640596 488.007805 L 1959.296846 486.874993 L 1956.914033 485.820305 L 1954.492158 484.80468 L 1952.070283 483.906243 L 1949.609346 483.046868 L 1947.109346 482.30468 L 1944.609346 481.601555 L 1942.031221 480.976555 L 1939.492159 480.390618 L 1936.874971 479.882805 L 1934.296846 479.453118 L 1931.640596 479.062493 L 1928.945284 478.749993 L 1926.289034 478.476555 L 1923.554659 478.24218 L 1920.820284 478.08593 L 1918.085909 477.968743 L 1915.312471 477.890618 L 1912.499972 477.851555 L 1909.687472 477.851555 L 1906.874972 477.890618 L 1901.171847 478.124993 L 1898.281222 478.281243 L 1895.390597 478.476555 L 1892.460909 478.71093 L 1883.671847 479.531243 L 1877.734347 480.234368 L 1874.726535 480.58593 L 1865.703097 481.757805 L 1862.695285 482.187493 L 1859.64841 482.578118 L 1853.55466 483.437493 L 1850.507785 483.906243 L 1847.46091 484.296868 L 1844.374973 484.726555 L 1841.328098 485.156243 L 1838.24216 485.58593 L 1835.195285 485.976555 L 1832.109348 486.406243 L 1829.02341 486.757805 L 1825.976535 487.14843 L 1822.890598 487.499993 L 1819.80466 487.812493 L 1816.718723 488.164055 L 1813.671848 488.437493 L 1810.585911 488.71093 L 1807.539036 488.945305 L 1804.453098 489.140618 L 1801.406223 489.33593 L 1798.320286 489.453118 L 1795.273411 489.570305 L 1792.226536 489.64843 L 1789.218723 489.687493 L 1786.171848 489.64843 L 1783.164036 489.609368 L 1780.156223 489.531243 L 1777.148411 489.374993 L 1774.140599 489.140618 L 1771.171849 488.906243 L 1768.164036 488.593743 L 1765.234349 488.24218 L 1762.304661 487.812493 L 1759.335911 487.343743 L 1756.445286 486.796868 L 1753.515599 486.21093 L 1750.624974 485.546868 L 1747.773411 484.80468 L 1744.882786 483.984368 L 1742.070287 483.08593 L 1739.218724 482.14843 L 1736.445287 481.132805 L 1733.632787 479.999993 L 1730.898412 478.828118 L 1728.164037 477.539055 L 1725.429662 476.171868 L 1722.695287 474.726555 L 1720.039037 473.203118 L 1717.382787 471.562493 L 1714.765599 469.843743 L 1712.148412 468.046868 L 1709.531225 466.132806 L 1706.992162 464.140618 L 1704.4531 462.031243 L 1701.9531 459.804681 L 1699.492162 457.499993 L 1697.031225 455.078118 L 1694.60935 452.539056 L 1692.226537 449.882806 L 1689.843725 447.109368 L 1687.539037 444.257806 L 1685.195287 447.109368 L 1682.812475 449.882806 L 1680.429662 452.539056 L 1678.007787 455.078118 L 1675.54685 457.499993 L 1673.085913 459.804681 L 1670.585913 462.031243 L 1668.04685 464.140618 L 1665.507788 466.132806 L 1662.8906 468.046868 L 1660.273413 469.843743 L 1657.656225 471.562493 L 1654.999975 473.203118 L 1652.343725 474.726555 L 1649.60935 476.171868 L 1646.874975 477.539055 L 1644.140601 478.828118 L 1641.406226 479.999993 L 1638.593726 481.132805 L 1635.820288 482.14843 L 1632.968726 483.08593 L 1630.156226 483.984368 L 1627.265601 484.80468 L 1624.414038 485.546868 L 1621.523413 486.21093 L 1618.593726 486.796868 L 1615.703101 487.343743 L 1612.773413 487.812493 L 1609.804664 488.24218 L 1606.874976 488.593743 L 1603.867164 488.906243 L 1600.898414 489.140618 L 1597.890601 489.374993 L 1594.921851 489.531243 L 1591.874976 489.609368 L 1585.859351 489.687493 L 1582.812476 489.64843 L 1579.765601 489.570305 L 1573.671852 489.33593 L 1570.585914 489.140618 L 1567.539039 488.945305 L 1564.453102 488.71093 L 1561.406227 488.437493 L 1558.320289 488.164055 L 1555.234352 487.812493 L 1552.187477 487.499993 L 1549.062477 487.14843 L 1546.015602 486.757805 L 1542.929665 486.406243 L 1539.843727 485.976555 L 1536.796852 485.58593 L 1533.710915 485.156243 L 1530.66404 484.726555 L 1527.578102 484.296868 L 1524.531227 483.906243 L 1521.484352 483.437493 L 1515.390602 482.578118 L 1512.343727 482.187493 L 1509.335915 481.757805 L 1500.312478 480.58593 L 1497.304665 480.234368 L 1491.367165 479.531243 L 1482.578103 478.71093 L 1479.648415 478.476555 L 1476.75779 478.281243 L 1473.867166 478.124993 L 1468.164041 477.890618 L 1465.351541 477.851555 L 1462.539041 477.851555 L 1459.726541 477.890618 L 1456.953103 477.968743 L 1454.218728 478.08593 L 1451.484353 478.24218 L 1448.749978 478.476555 L 1446.093728 478.749993 L 1443.398416 479.062493 L 1440.781229 479.453118 L 1438.164041 479.882805 L 1435.546854 480.390618 L 1433.007791 480.976555 L 1430.429666 481.601555 L 1427.929666 482.30468 L 1425.429666 483.046868 L 1422.968729 483.906243 L 1420.546854 484.80468 L 1418.124979 485.820305 L 1415.742166 486.874993 L 1413.398416 488.007805 L 1411.093729 489.257805 L 1408.828104 490.546868 L 1406.562479 491.953118 L 1404.335917 493.437493 L 1402.148417 494.999993 L 1400.039042 496.67968 L 1397.890604 498.437493 L 1395.820292 500.27343 L 1393.789042 502.226555 L 1391.757792 504.296867 L 1389.804667 506.445305 L 1387.851542 508.71093 L 1385.976542 511.093742 L 1384.101542 513.55468 L 1382.304667 516.132805 L 1380.546854 518.828117 L 1378.789042 521.640617 L 1377.109354 524.570305 L 1375.46873 527.61718 L 1373.867167 530.781242 L 1372.304667 534.062492 L 1370.78123 537.460929 Z M 1369.335917 541.015617 " transform="matrix(0.2, 0, 0, -0.2, 0, 124)"/>
<path fill-rule="nonzero" fill="rgb(100%, 100%, 100%)" fill-opacity="1" d="M 417.851562 37.039062 L 459.851562 37.039062 L 459.851562 68.960938 L 417.851562 68.960938 Z M 417.851562 37.039062 "/>
<path fill-rule="nonzero" fill="rgb(0%, 0%, 0%)" fill-opacity="1" d="M 429.75 45.148438 C 429.75 44.648438 429.75 44.617188 429.28125 44.617188 C 428.03125 45.898438 426.28125 45.898438 425.65625 45.898438 L 425.65625 46.523438 C 426.0625 46.523438 427.21875 46.523438 428.25 45.992188 L 428.25 56.335938 C 428.25 57.054688 428.1875 57.273438 426.40625 57.273438 L 425.78125 57.273438 L 425.78125 57.898438 C 426.46875 57.835938 428.1875 57.835938 429 57.835938 C 429.78125 57.835938 431.53125 57.835938 432.21875 57.898438 L 432.21875 57.273438 L 431.59375 57.273438 C 429.78125 57.273438 429.75 57.054688 429.75 56.335938 Z M 429.75 45.148438 "/>
<path fill-rule="nonzero" fill="rgb(0%, 0%, 0%)" fill-opacity="1" d="M 442.707031 43.710938 C 442.800781 43.429688 442.800781 43.367188 442.800781 43.335938 C 442.800781 43.117188 442.644531 42.929688 442.425781 42.929688 C 442.269531 42.929688 442.144531 42.992188 442.082031 43.117188 L 435.144531 62.117188 C 435.050781 62.398438 435.050781 62.460938 435.050781 62.492188 C 435.050781 62.710938 435.238281 62.898438 435.457031 62.898438 C 435.707031 62.898438 435.769531 62.742188 435.894531 62.398438 Z M 442.707031 43.710938 "/>
<path fill-rule="nonzero" fill="rgb(0%, 0%, 0%)" fill-opacity="1" d="M 449.910156 54.617188 L 449.910156 56.335938 C 449.910156 57.054688 449.847656 57.273438 448.378906 57.273438 L 447.972656 57.273438 L 447.972656 57.898438 C 448.785156 57.835938 449.816406 57.835938 450.660156 57.835938 C 451.503906 57.835938 452.535156 57.835938 453.378906 57.898438 L 453.378906 57.273438 L 452.941406 57.273438 C 451.472656 57.273438 451.441406 57.054688 451.441406 56.335938 L 451.441406 54.617188 L 453.410156 54.617188 L 453.410156 53.992188 L 451.441406 53.992188 L 451.441406 44.929688 C 451.441406 44.523438 451.441406 44.398438 451.097656 44.398438 C 450.941406 44.398438 450.878906 44.398438 450.722656 44.648438 L 444.597656 53.992188 L 444.597656 54.617188 Z M 450.003906 53.992188 L 445.160156 53.992188 L 450.003906 46.554688 Z M 450.003906 53.992188 "/>
<path fill-rule="nonzero" fill="rgb(0%, 0%, 0%)" fill-opacity="1" d="M 406.9375 15.796875 L 407.039062 16 L 407.140625 16.195312 L 407.257812 16.375 L 407.367188 16.554688 L 407.492188 16.71875 L 407.625 16.882812 L 407.757812 17.039062 L 407.898438 17.1875 L 408.195312 17.453125 L 408.351562 17.578125 L 408.515625 17.695312 L 408.679688 17.804688 L 408.851562 17.914062 L 409.210938 18.101562 L 409.398438 18.1875 L 409.789062 18.34375 L 409.984375 18.40625 L 410.40625 18.53125 L 410.617188 18.585938 L 410.835938 18.632812 L 411.289062 18.710938 L 411.515625 18.742188 L 411.757812 18.773438 L 411.992188 18.804688 L 412.476562 18.835938 L 412.726562 18.851562 L 412.984375 18.859375 L 413.234375 18.867188 L 413.5 18.875 L 413.765625 18.875 L 414.023438 18.867188 L 414.296875 18.867188 L 414.570312 18.859375 L 414.84375 18.84375 L 415.117188 18.835938 L 415.679688 18.804688 L 415.96875 18.789062 L 416.546875 18.742188 L 416.84375 18.71875 L 417.132812 18.695312 L 417.429688 18.671875 L 417.734375 18.648438 L 418.03125 18.617188 L 418.335938 18.59375 L 418.945312 18.53125 L 419.257812 18.507812 L 419.5625 18.476562 L 419.875 18.453125 L 420.1875 18.421875 L 420.507812 18.398438 L 420.820312 18.367188 L 421.132812 18.34375 L 422.09375 18.273438 L 422.40625 18.257812 L 422.726562 18.234375 L 423.054688 18.21875 L 423.375 18.203125 L 423.695312 18.195312 L 424.015625 18.179688 L 424.34375 18.171875 L 424.664062 18.171875 L 424.984375 18.164062 L 425.3125 18.164062 L 425.953125 18.179688 L 426.28125 18.1875 L 426.601562 18.195312 L 426.921875 18.21875 L 427.242188 18.234375 L 427.570312 18.265625 L 427.890625 18.289062 L 428.203125 18.320312 L 428.53125 18.359375 L 428.84375 18.40625 L 429.164062 18.453125 L 429.789062 18.5625 L 430.109375 18.625 L 430.421875 18.695312 L 430.726562 18.765625 L 431.039062 18.84375 L 431.34375 18.929688 L 431.648438 19.023438 L 431.960938 19.117188 L 432.257812 19.21875 L 432.5625 19.335938 L 433.15625 19.570312 L 433.453125 19.703125 L 433.742188 19.84375 L 434.320312 20.140625 L 434.882812 20.46875 L 435.171875 20.648438 L 435.445312 20.828125 L 435.71875 21.023438 L 435.992188 21.226562 L 436.257812 21.429688 L 436.523438 21.648438 L 437.039062 22.117188 L 437.296875 22.359375 L 437.546875 22.617188 L 438.046875 23.148438 L 438.28125 23.4375 L 438.523438 23.726562 L 438.757812 24.03125 L 438.984375 23.726562 L 439.46875 23.148438 L 439.710938 22.882812 L 439.960938 22.617188 L 440.210938 22.359375 L 440.46875 22.117188 L 440.726562 21.882812 L 440.992188 21.648438 L 441.257812 21.429688 L 441.789062 21.023438 L 442.070312 20.828125 L 442.34375 20.648438 L 442.625 20.46875 L 442.90625 20.304688 L 443.195312 20.140625 L 443.476562 19.992188 L 443.773438 19.84375 L 444.0625 19.703125 L 444.359375 19.570312 L 444.953125 19.335938 L 445.257812 19.21875 L 445.554688 19.117188 L 446.164062 18.929688 L 446.46875 18.84375 L 446.78125 18.765625 L 447.40625 18.625 L 447.71875 18.5625 L 448.039062 18.507812 L 448.351562 18.453125 L 448.671875 18.40625 L 448.984375 18.359375 L 449.304688 18.320312 L 449.625 18.289062 L 449.945312 18.265625 L 450.265625 18.234375 L 450.585938 18.21875 L 450.90625 18.195312 L 451.234375 18.1875 L 451.875 18.171875 L 452.203125 18.164062 L 452.523438 18.164062 L 452.84375 18.171875 L 453.171875 18.171875 L 453.492188 18.179688 L 453.8125 18.195312 L 454.140625 18.203125 L 454.78125 18.234375 L 455.101562 18.257812 L 455.421875 18.273438 L 456.0625 18.320312 L 456.375 18.34375 L 456.695312 18.367188 L 457.007812 18.398438 L 457.320312 18.421875 L 457.632812 18.453125 L 457.945312 18.476562 L 458.257812 18.507812 L 458.5625 18.53125 L 458.867188 18.5625 L 459.179688 18.59375 L 459.476562 18.617188 L 459.78125 18.648438 L 460.671875 18.71875 L 460.960938 18.742188 L 461.257812 18.765625 L 461.539062 18.789062 L 461.828125 18.804688 L 462.390625 18.835938 L 462.671875 18.84375 L 462.945312 18.859375 L 463.21875 18.867188 L 463.484375 18.867188 L 463.75 18.875 L 464.015625 18.875 L 464.53125 18.859375 L 464.78125 18.851562 L 465.28125 18.820312 L 465.523438 18.804688 L 466.226562 18.710938 L 466.453125 18.671875 L 466.671875 18.632812 L 466.890625 18.585938 L 467.109375 18.53125 L 467.3125 18.46875 L 467.523438 18.40625 L 467.71875 18.34375 L 467.921875 18.265625 L 468.109375 18.1875 L 468.296875 18.101562 L 468.65625 17.914062 L 468.828125 17.804688 L 468.992188 17.695312 L 469.15625 17.578125 L 469.3125 17.453125 L 469.46875 17.320312 L 469.609375 17.1875 L 469.757812 17.039062 L 469.890625 16.882812 L 470.140625 16.554688 L 470.257812 16.375 L 470.367188 16.195312 L 470.476562 16 L 470.578125 15.796875 L 470.445312 16.0625 L 470.3125 16.3125 L 470.179688 16.554688 L 470.03125 16.789062 L 469.882812 17.007812 L 469.726562 17.21875 L 469.578125 17.421875 L 469.414062 17.617188 L 469.242188 17.796875 L 468.898438 18.140625 L 468.71875 18.296875 L 468.53125 18.445312 L 468.34375 18.585938 L 468.148438 18.71875 L 467.953125 18.84375 L 467.75 18.960938 L 467.539062 19.070312 L 467.335938 19.171875 L 467.117188 19.265625 L 466.90625 19.351562 L 466.679688 19.4375 L 466.460938 19.507812 L 466.226562 19.570312 L 466 19.632812 L 465.765625 19.6875 L 465.523438 19.742188 L 465.039062 19.820312 L 464.539062 19.882812 L 464.289062 19.90625 L 464.023438 19.921875 L 463.765625 19.9375 L 463.507812 19.945312 L 462.976562 19.945312 L 462.703125 19.9375 L 462.429688 19.9375 L 462.15625 19.921875 L 461.875 19.90625 L 461.601562 19.890625 L 461.3125 19.867188 L 461.03125 19.84375 L 460.742188 19.820312 L 460.460938 19.789062 L 460.164062 19.757812 L 459.875 19.726562 L 459.578125 19.6875 L 459.289062 19.648438 L 458.695312 19.570312 L 458.390625 19.53125 L 458.09375 19.484375 L 457.789062 19.445312 L 457.484375 19.398438 L 457.179688 19.359375 L 456.570312 19.265625 L 456.257812 19.21875 L 455.953125 19.171875 L 455.640625 19.132812 L 455.328125 19.085938 L 455.015625 19.046875 L 454.703125 19 L 453.453125 18.84375 L 452.203125 18.71875 L 451.882812 18.695312 L 451.257812 18.648438 L 450.632812 18.617188 L 450.007812 18.601562 L 449.382812 18.601562 L 449.078125 18.609375 L 448.765625 18.617188 L 448.460938 18.632812 L 448.148438 18.648438 L 447.84375 18.671875 L 447.539062 18.703125 L 446.929688 18.78125 L 446.625 18.828125 L 446.328125 18.875 L 445.734375 19 L 445.140625 19.140625 L 444.851562 19.226562 L 444.554688 19.320312 L 444.265625 19.414062 L 443.976562 19.515625 L 443.414062 19.75 L 442.851562 20.015625 L 442.578125 20.15625 L 442.03125 20.46875 L 441.765625 20.640625 L 441.492188 20.820312 L 441.234375 21.007812 L 440.96875 21.203125 L 440.710938 21.40625 L 440.453125 21.625 L 440.203125 21.851562 L 439.953125 22.085938 L 439.710938 22.328125 L 439.46875 22.585938 L 439.226562 22.851562 L 438.984375 23.125 L 438.757812 23.414062 L 438.523438 23.125 L 438.289062 22.851562 L 438.046875 22.585938 L 437.804688 22.328125 L 437.554688 22.085938 L 437.304688 21.851562 L 437.054688 21.625 L 436.796875 21.40625 L 436.539062 21.203125 L 436.28125 21.007812 L 436.015625 20.820312 L 435.75 20.640625 L 435.476562 20.46875 L 435.210938 20.3125 L 434.9375 20.15625 L 434.65625 20.015625 L 434.375 19.882812 L 434.101562 19.75 L 433.8125 19.632812 L 433.53125 19.515625 L 433.242188 19.414062 L 432.664062 19.226562 L 432.367188 19.140625 L 432.078125 19.070312 L 431.78125 19 L 431.1875 18.875 L 430.578125 18.78125 L 430.28125 18.742188 L 429.96875 18.703125 L 429.671875 18.671875 L 429.359375 18.648438 L 429.054688 18.632812 L 428.742188 18.617188 L 428.4375 18.609375 L 428.125 18.601562 L 427.507812 18.601562 L 427.195312 18.609375 L 426.875 18.617188 L 426.570312 18.632812 L 426.257812 18.648438 L 425.9375 18.671875 L 425.3125 18.71875 L 424.6875 18.78125 L 424.367188 18.8125 L 424.054688 18.84375 L 422.804688 19 L 422.492188 19.046875 L 422.179688 19.085938 L 421.875 19.132812 L 421.5625 19.171875 L 421.25 19.21875 L 420.640625 19.3125 L 420.328125 19.359375 L 420.03125 19.398438 L 419.71875 19.445312 L 419.421875 19.484375 L 419.117188 19.53125 L 417.632812 19.726562 L 416.765625 19.820312 L 416.476562 19.84375 L 415.914062 19.890625 L 415.632812 19.90625 L 415.359375 19.921875 L 415.078125 19.9375 L 414.8125 19.9375 L 414.539062 19.945312 L 414.007812 19.945312 L 413.742188 19.9375 L 413.226562 19.90625 L 412.96875 19.882812 L 412.71875 19.851562 L 412.476562 19.820312 L 412.226562 19.78125 L 411.984375 19.742188 L 411.515625 19.632812 L 411.28125 19.570312 L 411.054688 19.507812 L 410.828125 19.4375 L 410.390625 19.265625 L 410.179688 19.171875 L 409.96875 19.070312 L 409.765625 18.960938 L 409.5625 18.84375 L 409.367188 18.71875 L 409.171875 18.585938 L 408.976562 18.445312 L 408.796875 18.296875 L 408.617188 18.140625 L 408.4375 17.96875 L 408.265625 17.796875 L 408.101562 17.617188 L 407.9375 17.421875 L 407.78125 17.21875 L 407.625 17.007812 L 407.476562 16.789062 L 407.335938 16.554688 L 407.195312 16.3125 L 407.0625 16.0625 L 406.9375 15.796875 "/>
<path fill="none" stroke-width="3.985" stroke-linecap="butt" stroke-linejoin="miter" stroke="rgb(0%, 0%, 0%)" stroke-opacity="1" stroke-miterlimit="10" d="M 2034.68747 541.015617 L 2035.195282 539.999992 L 2035.703095 539.023429 L 2036.289032 538.124992 L 2036.835907 537.226554 L 2037.460907 536.406242 L 2038.12497 535.58593 L 2038.789032 534.80468 L 2039.492157 534.062492 L 2040.976532 532.734367 L 2041.757782 532.109367 L 2042.578095 531.52343 L 2043.398407 530.976555 L 2044.257782 530.42968 L 2046.054657 529.49218 L 2046.992157 529.062492 L 2048.945282 528.281242 L 2049.921844 527.968742 L 2052.031219 527.343742 L 2053.085907 527.070305 L 2054.179657 526.83593 L 2056.445282 526.445305 L 2057.578094 526.289055 L 2058.789032 526.132805 L 2059.960907 525.976555 L 2062.382782 525.820305 L 2063.632782 525.74218 L 2064.921844 525.703117 L 2066.171844 525.664055 L 2067.499969 525.624992 L 2068.828094 525.624992 L 2070.117157 525.664055 L 2071.484344 525.664055 L 2072.851532 525.703117 L 2074.218719 525.781242 L 2075.585907 525.820305 L 2078.398407 525.976555 L 2079.843719 526.05468 L 2082.734344 526.289055 L 2084.218719 526.406242 L 2085.664031 526.52343 L 2087.148406 526.640617 L 2088.671844 526.757805 L 2090.156219 526.914055 L 2091.679656 527.031242 L 2094.726531 527.343742 L 2096.289031 527.46093 L 2097.812469 527.61718 L 2099.374969 527.734367 L 2100.937469 527.890617 L 2102.539031 528.007805 L 2104.101531 528.164055 L 2105.664031 528.281242 L 2110.468719 528.632805 L 2112.031219 528.71093 L 2113.632781 528.828117 L 2115.273406 528.906242 L 2116.874968 528.984367 L 2118.476531 529.02343 L 2120.078093 529.101555 L 2121.718718 529.140617 L 2123.320281 529.140617 L 2124.921843 529.17968 L 2126.562468 529.17968 L 2129.765593 529.101555 L 2131.406218 529.062492 L 2133.007781 529.02343 L 2134.609343 528.906242 L 2136.210906 528.828117 L 2137.851531 528.671867 L 2139.453093 528.55468 L 2141.015593 528.39843 L 2142.656218 528.203117 L 2144.218718 527.968742 L 2145.820281 527.734367 L 2148.94528 527.187492 L 2150.546843 526.874992 L 2152.109343 526.52343 L 2153.63278 526.171867 L 2155.19528 525.781242 L 2156.718718 525.351555 L 2158.242155 524.882805 L 2159.804655 524.414055 L 2161.28903 523.906242 L 2162.812468 523.320305 L 2165.781218 522.14843 L 2167.265593 521.484367 L 2168.710905 520.781242 L 2171.60153 519.296867 L 2174.41403 517.656242 L 2175.859343 516.757805 L 2177.22653 515.859367 L 2178.593718 514.882805 L 2179.960905 513.86718 L 2181.28903 512.851555 L 2182.617155 511.757805 L 2185.19528 509.414055 L 2186.484342 508.203117 L 2187.734342 506.914055 L 2190.234342 504.257805 L 2191.406217 502.812493 L 2192.617155 501.36718 L 2193.78903 499.843743 L 2194.921842 501.36718 L 2197.343717 504.257805 L 2198.554655 505.58593 L 2199.804655 506.914055 L 2201.054655 508.203117 L 2202.343717 509.414055 L 2203.63278 510.58593 L 2204.960905 511.757805 L 2206.28903 512.851555 L 2208.94528 514.882805 L 2210.35153 515.859367 L 2211.718717 516.757805 L 2213.124967 517.656242 L 2214.531217 518.476555 L 2215.976529 519.296867 L 2217.382779 520.039055 L 2218.867154 520.781242 L 2220.312467 521.484367 L 2221.796842 522.14843 L 2224.765592 523.320305 L 2226.289029 523.906242 L 2227.773404 524.414055 L 2230.820279 525.351555 L 2232.343717 525.781242 L 2233.906217 526.171867 L 2237.031217 526.874992 L 2238.593717 527.187492 L 2240.195279 527.46093 L 2241.757779 527.734367 L 2243.359342 527.968742 L 2244.921842 528.203117 L 2246.523404 528.39843 L 2248.124967 528.55468 L 2249.726529 528.671867 L 2251.328091 528.828117 L 2252.929654 528.906242 L 2254.531216 529.02343 L 2256.171841 529.062492 L 2259.374966 529.140617 L 2261.015591 529.17968 L 2262.617154 529.17968 L 2264.218716 529.140617 L 2265.859341 529.140617 L 2267.460904 529.101555 L 2269.062466 529.02343 L 2270.703091 528.984367 L 2273.906216 528.828117 L 2275.507779 528.71093 L 2277.109341 528.632805 L 2280.312466 528.39843 L 2281.874966 528.281242 L 2283.476528 528.164055 L 2285.039028 528.007805 L 2286.601528 527.890617 L 2288.164028 527.734367 L 2289.726528 527.61718 L 2291.289028 527.46093 L 2292.812466 527.343742 L 2294.335903 527.187492 L 2295.898403 527.031242 L 2297.382778 526.914055 L 2298.906216 526.757805 L 2303.359341 526.406242 L 2304.804653 526.289055 L 2306.289028 526.171867 L 2307.695278 526.05468 L 2309.140591 525.976555 L 2311.953091 525.820305 L 2313.359341 525.781242 L 2314.726528 525.703117 L 2316.093715 525.664055 L 2317.42184 525.664055 L 2318.749965 525.624992 L 2320.07809 525.624992 L 2322.656215 525.703117 L 2323.906215 525.74218 L 2326.406215 525.89843 L 2327.617153 525.976555 L 2331.132778 526.445305 L 2332.26559 526.640617 L 2333.35934 526.83593 L 2334.45309 527.070305 L 2335.54684 527.343742 L 2336.562465 527.656242 L 2337.617153 527.968742 L 2338.593715 528.281242 L 2339.60934 528.671867 L 2340.54684 529.062492 L 2341.48434 529.49218 L 2343.281215 530.42968 L 2344.14059 530.976555 L 2344.960903 531.52343 L 2345.781215 532.109367 L 2346.562465 532.734367 L 2347.343715 533.39843 L 2348.04684 534.062492 L 2348.789028 534.80468 L 2349.45309 535.58593 L 2350.70309 537.226554 L 2351.289027 538.124992 L 2351.835902 539.023429 L 2352.382777 539.999992 L 2352.89059 541.015617 L 2352.226527 539.687492 L 2351.562465 538.437492 L 2350.898402 537.226554 L 2350.156215 536.05468 L 2349.414027 534.96093 L 2348.632778 533.906242 L 2347.89059 532.890617 L 2347.070278 531.914055 L 2346.210903 531.015617 L 2344.492153 529.296867 L 2343.593715 528.515617 L 2342.656215 527.77343 L 2341.718715 527.070305 L 2340.742153 526.406242 L 2339.76559 525.781242 L 2338.749965 525.195305 L 2337.695278 524.64843 L 2336.679653 524.140617 L 2335.585903 523.671867 L 2334.531215 523.24218 L 2333.398403 522.812492 L 2332.304653 522.46093 L 2331.132778 522.14843 L 2329.999965 521.83593 L 2328.82809 521.562492 L 2327.617153 521.289055 L 2325.195278 520.89843 L 2322.695278 520.58593 L 2321.445278 520.468742 L 2320.117153 520.390617 L 2318.82809 520.312492 L 2317.539028 520.27343 L 2314.882778 520.27343 L 2313.515591 520.312492 L 2312.148403 520.312492 L 2310.781216 520.390617 L 2309.374966 520.468742 L 2308.007778 520.546867 L 2306.562466 520.664055 L 2305.156216 520.781242 L 2303.710903 520.89843 L 2302.304653 521.05468 L 2300.820278 521.21093 L 2299.374966 521.36718 L 2297.890591 521.562492 L 2296.445278 521.757805 L 2293.476528 522.14843 L 2291.953091 522.343742 L 2290.468716 522.578117 L 2288.945278 522.77343 L 2287.421841 523.007805 L 2285.898403 523.203117 L 2282.851528 523.671867 L 2281.289029 523.906242 L 2279.765591 524.140617 L 2278.203091 524.33593 L 2276.640591 524.570305 L 2275.078091 524.765617 L 2273.515591 524.999992 L 2267.265591 525.781242 L 2261.015591 526.406242 L 2259.414029 526.52343 L 2256.289029 526.757805 L 2253.164029 526.914055 L 2250.039029 526.99218 L 2246.914029 526.99218 L 2245.390592 526.953117 L 2243.828092 526.914055 L 2242.304654 526.83593 L 2240.742154 526.757805 L 2239.218717 526.640617 L 2237.695279 526.484367 L 2234.648404 526.093742 L 2233.124967 525.859367 L 2231.640592 525.624992 L 2228.671842 524.999992 L 2225.703092 524.296867 L 2224.257779 523.86718 L 2222.773404 523.39843 L 2221.328092 522.92968 L 2219.882779 522.421867 L 2217.070279 521.249992 L 2214.25778 519.921867 L 2212.890592 519.218742 L 2210.156217 517.656242 L 2208.828092 516.796867 L 2207.460905 515.89843 L 2206.171842 514.96093 L 2204.843717 513.984367 L 2203.554655 512.968742 L 2202.265592 511.874992 L 2201.015592 510.74218 L 2199.765592 509.570305 L 2198.554655 508.359367 L 2197.343717 507.070305 L 2196.13278 505.74218 L 2194.921842 504.374992 L 2193.78903 502.92968 L 2192.617155 504.374992 L 2191.44528 505.74218 L 2190.234342 507.070305 L 2189.023405 508.359367 L 2187.773405 509.570305 L 2186.523405 510.74218 L 2185.273405 511.874992 L 2183.984342 512.968742 L 2182.69528 513.984367 L 2181.406217 514.96093 L 2180.078093 515.89843 L 2178.749968 516.796867 L 2177.38278 517.656242 L 2176.054655 518.437492 L 2174.687468 519.218742 L 2173.281218 519.921867 L 2171.874968 520.58593 L 2170.50778 521.249992 L 2169.062468 521.83593 L 2167.656218 522.421867 L 2166.210905 522.92968 L 2163.32028 523.86718 L 2161.835905 524.296867 L 2160.390593 524.64843 L 2158.906218 524.999992 L 2155.937468 525.624992 L 2152.890593 526.093742 L 2151.406218 526.289055 L 2149.843718 526.484367 L 2148.359343 526.640617 L 2146.796843 526.757805 L 2145.273406 526.83593 L 2143.710906 526.914055 L 2142.187468 526.953117 L 2140.624968 526.99218 L 2137.539031 526.99218 L 2135.976531 526.953117 L 2134.374968 526.914055 L 2132.851531 526.83593 L 2131.289031 526.757805 L 2129.687468 526.640617 L 2126.562468 526.406242 L 2123.437468 526.093742 L 2121.835906 525.937492 L 2120.273406 525.781242 L 2114.023406 524.999992 L 2112.460906 524.765617 L 2110.898406 524.570305 L 2109.374969 524.33593 L 2107.812469 524.140617 L 2106.249969 523.906242 L 2103.203094 523.437492 L 2101.640594 523.203117 L 2100.156219 523.007805 L 2098.593719 522.77343 L 2097.109344 522.578117 L 2095.585906 522.343742 L 2088.164031 521.36718 L 2083.828094 520.89843 L 2082.382781 520.781242 L 2079.570282 520.546867 L 2078.164032 520.468742 L 2076.796844 520.390617 L 2075.390594 520.312492 L 2074.062469 520.312492 L 2072.695282 520.27343 L 2070.039032 520.27343 L 2068.710907 520.312492 L 2066.132782 520.468742 L 2064.843719 520.58593 L 2063.593719 520.74218 L 2062.382782 520.89843 L 2061.132782 521.093742 L 2059.921844 521.289055 L 2057.578094 521.83593 L 2056.406219 522.14843 L 2055.273407 522.46093 L 2054.140594 522.812492 L 2051.953094 523.671867 L 2050.898407 524.140617 L 2049.843719 524.64843 L 2048.828094 525.195305 L 2047.812469 525.781242 L 2046.835907 526.406242 L 2045.859345 527.070305 L 2044.882782 527.77343 L 2043.984345 528.515617 L 2043.085907 529.296867 L 2042.18747 530.156242 L 2041.328095 531.015617 L 2040.507782 531.914055 L 2039.68747 532.890617 L 2038.90622 533.906242 L 2038.12497 534.96093 L 2037.382782 536.05468 L 2036.679657 537.226554 L 2035.976532 538.437492 L 2035.31247 539.687492 Z M 2034.68747 541.015617 " transform="matrix(0.2, 0, 0, -0.2, 0, 124)"/>
<path fill-rule="nonzero" fill="rgb(0%, 0%, 0%)" fill-opacity="1" d="M 480.378906 45.691406 C 480.378906 45.191406 480.378906 45.160156 479.910156 45.160156 C 478.660156 46.441406 476.910156 46.441406 476.285156 46.441406 L 476.285156 47.066406 C 476.691406 47.066406 477.847656 47.066406 478.878906 46.535156 L 478.878906 56.878906 C 478.878906 57.597656 478.816406 57.816406 477.035156 57.816406 L 476.410156 57.816406 L 476.410156 58.441406 C 477.097656 58.378906 478.816406 58.378906 479.628906 58.378906 C 480.410156 58.378906 482.160156 58.378906 482.847656 58.441406 L 482.847656 57.816406 L 482.222656 57.816406 C 480.410156 57.816406 480.378906 57.597656 480.378906 56.878906 Z M 480.378906 45.691406 "/>
<path fill-rule="nonzero" fill="rgb(0%, 0%, 0%)" fill-opacity="1" d="M 493.332031 44.253906 C 493.425781 43.972656 493.425781 43.910156 493.425781 43.878906 C 493.425781 43.660156 493.269531 43.472656 493.050781 43.472656 C 492.894531 43.472656 492.769531 43.535156 492.707031 43.660156 L 485.769531 62.660156 C 485.675781 62.941406 485.675781 63.003906 485.675781 63.035156 C 485.675781 63.253906 485.863281 63.441406 486.082031 63.441406 C 486.332031 63.441406 486.394531 63.285156 486.519531 62.941406 Z M 493.332031 44.253906 "/>
<path fill-rule="nonzero" fill="rgb(0%, 0%, 0%)" fill-opacity="1" d="M 497.910156 49.316406 C 497.003906 48.722656 496.910156 48.066406 496.910156 47.722656 C 496.910156 46.503906 498.222656 45.660156 499.628906 45.660156 C 501.066406 45.660156 502.347656 46.691406 502.347656 48.128906 C 502.347656 49.285156 501.566406 50.222656 500.378906 50.910156 Z M 500.816406 51.222656 C 502.253906 50.472656 503.222656 49.441406 503.222656 48.128906 C 503.222656 46.285156 501.472656 45.160156 499.660156 45.160156 C 497.660156 45.160156 496.035156 46.628906 496.035156 48.503906 C 496.035156 48.847656 496.066406 49.753906 496.910156 50.691406 C 497.128906 50.910156 497.878906 51.410156 498.378906 51.753906 C 497.222656 52.347656 495.503906 53.441406 495.503906 55.441406 C 495.503906 57.535156 497.535156 58.878906 499.628906 58.878906 C 501.878906 58.878906 503.785156 57.222656 503.785156 55.097656 C 503.785156 54.378906 503.566406 53.472656 502.785156 52.628906 C 502.410156 52.222656 502.097656 52.035156 500.816406 51.222656 Z M 498.816406 52.066406 L 501.285156 53.628906 C 501.847656 54.003906 502.785156 54.597656 502.785156 55.816406 C 502.785156 57.285156 501.285156 58.316406 499.660156 58.316406 C 497.941406 58.316406 496.503906 57.097656 496.503906 55.441406 C 496.503906 54.285156 497.128906 53.003906 498.816406 52.066406 Z M 498.816406 52.066406 "/>
<path fill-rule="nonzero" fill="rgb(0%, 0%, 0%)" fill-opacity="1" d="M 225.601562 116.386719 C 226.789062 115.980469 228.789062 115.386719 228.789062 113.449219 C 228.789062 111.136719 226.070312 110.074219 224.101562 110.074219 C 223.164062 110.074219 222.195312 110.292969 221.351562 110.792969 C 221.226562 110.855469 221.070312 111.042969 220.914062 111.042969 C 220.601562 111.042969 220.039062 110.074219 219.726562 110.074219 C 219.539062 110.074219 219.507812 110.292969 219.507812 110.386719 L 219.507812 113.949219 C 219.507812 114.074219 219.601562 114.230469 219.789062 114.230469 C 220.101562 114.230469 220.070312 113.605469 220.164062 113.261719 C 220.632812 111.542969 222.195312 110.792969 223.695312 110.699219 L 224.101562 110.699219 C 225.445312 110.699219 227.007812 111.574219 227.007812 113.449219 C 227.007812 115.261719 225.226562 116.199219 223.570312 116.199219 C 223.257812 116.199219 222.945312 116.199219 222.632812 116.199219 L 222.476562 116.199219 C 222.289062 116.199219 222.070312 116.199219 222.070312 116.417969 L 222.070312 116.449219 C 222.101562 116.636719 222.289062 116.667969 222.476562 116.667969 L 224.320312 116.667969 C 225.882812 116.792969 227.320312 117.824219 227.476562 119.449219 L 227.476562 119.667969 C 227.476562 121.511719 225.757812 122.667969 224.007812 122.667969 C 222.101562 122.667969 220.132812 122.042969 219.820312 119.667969 C 219.820312 119.511719 219.757812 119.324219 219.539062 119.324219 C 219.320312 119.355469 219.289062 119.511719 219.289062 119.667969 C 219.289062 122.261719 221.882812 123.292969 224.132812 123.292969 C 226.195312 123.292969 229.070312 122.324219 229.320312 119.855469 L 229.320312 119.730469 C 229.320312 117.761719 227.257812 116.792969 225.601562 116.386719 Z M 225.601562 116.386719 "/>
<path fill-rule="nonzero" fill="rgb(0%, 0%, 0%)" fill-opacity="1" d="M 237.695312 110.074219 C 234.320312 110.480469 231.632812 113.136719 231.632812 116.730469 C 231.632812 120.011719 234.226562 123.261719 238.101562 123.261719 C 241.601562 123.261719 244.570312 120.355469 244.570312 116.730469 C 244.570312 113.542969 242.070312 110.074219 238.132812 110.074219 C 238.007812 110.074219 237.851562 110.074219 237.695312 110.074219 Z M 233.507812 116.949219 L 233.507812 116.605469 C 233.507812 114.105469 234.414062 111.167969 237.570312 110.636719 C 237.757812 110.605469 237.914062 110.605469 238.101562 110.605469 C 240.914062 110.605469 242.664062 113.324219 242.664062 116.355469 C 242.664062 118.761719 241.945312 121.824219 238.976562 122.605469 C 238.695312 122.667969 238.414062 122.699219 238.132812 122.699219 L 237.945312 122.699219 C 235.351562 122.605469 233.945312 120.136719 233.601562 117.730469 Z M 233.507812 116.949219 "/>
<path fill-rule="nonzero" fill="rgb(0%, 0%, 0%)" fill-opacity="1" d="M 247.027344 110.417969 L 247.027344 111.011719 L 247.464844 111.011719 C 248.058594 111.011719 248.683594 111.105469 248.683594 111.980469 L 248.683594 121.449219 C 248.683594 122.292969 247.964844 122.324219 247.308594 122.324219 L 247.027344 122.324219 L 247.027344 122.917969 L 252.808594 122.917969 C 253.214844 122.917969 253.589844 122.949219 253.996094 122.949219 C 255.996094 122.949219 258.339844 122.011719 258.558594 119.605469 L 258.558594 119.417969 C 258.558594 116.886719 255.683594 115.855469 253.777344 115.855469 C 252.527344 115.855469 251.339844 115.980469 250.152344 116.074219 L 250.152344 111.855469 C 250.152344 111.417969 250.214844 111.011719 250.996094 111.011719 L 253.308594 111.011719 C 254.277344 111.011719 255.371094 111.074219 256.089844 111.792969 C 256.777344 112.511719 256.871094 113.730469 256.964844 114.667969 L 257.496094 114.667969 L 257.027344 110.417969 Z M 250.152344 116.699219 C 250.402344 116.699219 250.652344 116.636719 250.902344 116.605469 L 252.277344 116.542969 C 252.558594 116.511719 252.839844 116.480469 253.152344 116.480469 C 254.714844 116.480469 256.683594 117.480469 256.683594 119.324219 C 256.683594 121.074219 255.339844 122.355469 253.339844 122.355469 C 253.058594 122.355469 252.746094 122.324219 252.496094 122.324219 L 250.964844 122.324219 C 250.496094 122.324219 250.246094 122.292969 250.152344 121.667969 Z M 250.152344 116.699219 "/>
<path fill-rule="nonzero" fill="rgb(0%, 0%, 0%)" fill-opacity="1" d="M 260.910156 110.417969 L 260.910156 111.011719 L 261.378906 111.011719 C 261.972656 111.011719 262.566406 111.105469 262.566406 111.980469 L 262.566406 121.449219 C 262.566406 122.292969 261.878906 122.324219 261.191406 122.324219 L 260.910156 122.324219 L 260.910156 122.917969 L 265.816406 122.917969 L 265.816406 122.324219 L 265.378906 122.324219 C 264.753906 122.324219 264.160156 122.261719 264.160156 121.386719 L 264.160156 117.199219 L 267.878906 117.199219 C 269.660156 117.074219 271.941406 115.886719 271.941406 113.855469 C 271.941406 111.636719 269.597656 110.574219 267.691406 110.417969 Z M 264.128906 116.667969 L 264.128906 111.667969 C 264.222656 111.074219 264.472656 111.011719 264.878906 111.011719 L 266.316406 111.011719 C 267.941406 111.011719 270.066406 111.074219 270.066406 113.855469 C 270.066406 114.511719 269.972656 115.199219 269.566406 115.699219 C 268.910156 116.480469 267.816406 116.667969 266.847656 116.667969 Z M 264.128906 116.667969 "/>
<path fill-rule="nonzero" fill="rgb(0%, 0%, 0%)" fill-opacity="1" d="M 276.636719 120.636719 C 276.136719 120.730469 275.636719 121.167969 275.636719 121.761719 C 275.636719 122.386719 276.167969 122.917969 276.792969 122.917969 C 277.417969 122.917969 277.980469 122.449219 277.980469 121.792969 C 277.980469 121.167969 277.449219 120.605469 276.824219 120.605469 C 276.761719 120.605469 276.699219 120.636719 276.636719 120.636719 Z M 276.636719 120.636719 "/>
<path fill-rule="nonzero" fill="rgb(0%, 0%, 0%)" fill-opacity="1" d="M 290.195312 118.917969 L 296.789062 118.917969 L 296.789062 121.199219 C 296.789062 122.230469 295.976562 122.230469 294.414062 122.230469 L 294.414062 122.917969 L 300.851562 122.917969 L 300.851562 122.230469 C 300.570312 122.230469 300.257812 122.261719 299.945312 122.261719 C 299.132812 122.261719 298.476562 122.136719 298.476562 121.199219 L 298.476562 118.917969 L 301.007812 118.917969 L 301.007812 118.230469 L 298.476562 118.230469 L 298.476562 107.105469 L 298.382812 106.824219 L 297.914062 106.824219 L 297.601562 107.230469 L 290.195312 118.230469 Z M 290.789062 118.230469 L 296.882812 109.167969 L 296.882812 118.230469 Z M 290.789062 118.230469 "/>
<path fill-rule="nonzero" fill="rgb(0%, 0%, 0%)" fill-opacity="1" d="M 305.246094 115.292969 C 305.246094 113.042969 305.339844 110.480469 307.027344 108.792969 C 307.683594 108.136719 308.527344 107.667969 309.496094 107.605469 L 309.714844 107.605469 C 310.558594 107.605469 311.433594 107.855469 311.964844 108.574219 C 311.902344 108.542969 311.839844 108.542969 311.746094 108.542969 C 311.214844 108.542969 310.746094 108.949219 310.746094 109.542969 C 310.746094 110.105469 311.152344 110.574219 311.746094 110.574219 C 312.277344 110.574219 312.777344 110.167969 312.777344 109.574219 C 312.777344 107.824219 311.246094 107.042969 309.652344 107.042969 C 305.652344 107.042969 303.277344 111.417969 303.277344 115.167969 C 303.277344 118.386719 303.933594 123.417969 308.464844 123.417969 C 310.371094 123.417969 311.839844 122.230469 312.746094 120.699219 C 313.183594 119.855469 313.339844 118.917969 313.339844 118.011719 C 313.339844 115.480469 311.527344 112.730469 308.621094 112.730469 C 307.371094 112.730469 306.371094 113.324219 305.746094 114.324219 C 305.558594 114.605469 305.339844 114.949219 305.246094 115.292969 Z M 305.277344 117.605469 L 305.277344 117.417969 C 305.277344 115.542969 306.339844 113.230469 308.496094 113.230469 C 310.214844 113.230469 311.183594 114.855469 311.339844 116.386719 C 311.371094 117.011719 311.371094 117.636719 311.371094 118.261719 C 311.371094 119.730469 311.246094 121.480469 309.871094 122.355469 C 309.433594 122.636719 308.933594 122.792969 308.402344 122.792969 C 306.121094 122.792969 305.433594 120.449219 305.308594 118.355469 C 305.308594 118.105469 305.308594 117.855469 305.277344 117.605469 Z M 305.277344 117.605469 "/>
<path fill-rule="nonzero" fill="rgb(0%, 0%, 0%)" fill-opacity="1" d="M 318.144531 120.636719 C 317.644531 120.730469 317.144531 121.167969 317.144531 121.761719 C 317.144531 122.386719 317.675781 122.917969 318.300781 122.917969 C 318.925781 122.917969 319.488281 122.449219 319.488281 121.792969 C 319.488281 121.167969 318.957031 120.605469 318.332031 120.605469 C 318.269531 120.605469 318.207031 120.636719 318.144531 120.636719 Z M 318.144531 120.636719 "/>
</svg>
