<?xml version="1.0" encoding="UTF-8"?>
<svg xmlns="http://www.w3.org/2000/svg" xmlns:xlink="http://www.w3.org/1999/xlink" width="548" height="572" viewBox="0 0 548 572">
<path fill="none" stroke-width="7.9701" stroke-linecap="butt" stroke-linejoin="miter" stroke="rgb(0%, 0%, 0%)" stroke-opacity="1" stroke-miterlimit="10" d="M 189.999997 1077.617171 L 214.062497 1093.476546 " transform="matrix(0.2, 0, 0, -0.2, 0, 572)"/>
<path fill="none" stroke-width="7.9701" stroke-linecap="butt" stroke-linejoin="miter" stroke="rgb(0%, 0%, 0%)" stroke-opacity="1" stroke-miterlimit="10" d="M 262.148434 1125.234358 L 286.210933 1141.093733 " transform="matrix(0.2, 0, 0, -0.2, 0, 572)"/>
<path fill="none" stroke-width="7.9701" stroke-linecap="butt" stroke-linejoin="miter" stroke="rgb(0%, 0%, 0%)" stroke-opacity="1" stroke-miterlimit="10" d="M 286.210933 1141.093733 L 310.273433 1156.99217 " transform="matrix(0.2, 0, 0, -0.2, 0, 572)"/>
<path fill="none" stroke-width="7.9701" stroke-linecap="butt" stroke-linejoin="miter" stroke="rgb(0%, 0%, 0%)" stroke-opacity="1" stroke-miterlimit="10" d="M 358.398432 1188.749982 L 382.421869 1204.609357 " transform="matrix(0.2, 0, 0, -0.2, 0, 572)"/>
<path fill="none" stroke-width="7.9701" stroke-linecap="butt" stroke-linejoin="miter" stroke="rgb(0%, 0%, 0%)" stroke-opacity="1" stroke-miterlimit="10" d="M 382.421869 1204.609357 L 406.484369 1220.507794 " transform="matrix(0.2, 0, 0, -0.2, 0, 572)"/>
<path fill="none" stroke-width="7.9701" stroke-linecap="butt" stroke-linejoin="miter" stroke="rgb(0%, 0%, 0%)" stroke-opacity="1" stroke-miterlimit="10" d="M 454.609368 1252.265606 L 478.671868 1268.124981 " transform="matrix(0.2, 0, 0, -0.2, 0, 572)"/>
<path fill="none" stroke-width="7.9701" stroke-linecap="butt" stroke-linejoin="miter" stroke="rgb(0%, 0%, 0%)" stroke-opacity="1" stroke-miterlimit="10" d="M 478.671868 1268.124981 L 502.695305 1283.984356 " transform="matrix(0.2, 0, 0, -0.2, 0, 572)"/>
<path fill="none" stroke-width="7.9701" stroke-linecap="butt" stroke-linejoin="miter" stroke="rgb(0%, 0%, 0%)" stroke-opacity="1" stroke-miterlimit="10" d="M 550.820304 1315.742168 L 574.882804 1331.640605 " transform="matrix(0.2, 0, 0, -0.2, 0, 572)"/>
<path fill="none" stroke-width="7.9701" stroke-linecap="butt" stroke-linejoin="miter" stroke="rgb(0%, 0%, 0%)" stroke-opacity="1" stroke-miterlimit="10" d="M 574.882804 1331.640605 L 598.945304 1347.49998 " transform="matrix(0.2, 0, 0, -0.2, 0, 572)"/>
<path fill="none" stroke-width="7.9701" stroke-linecap="butt" stroke-linejoin="miter" stroke="rgb(0%, 0%, 0%)" stroke-opacity="1" stroke-miterlimit="10" d="M 647.03124 1379.257792 L 671.09374 1395.117167 " transform="matrix(0.2, 0, 0, -0.2, 0, 572)"/>
<path fill="none" stroke-width="7.9701" stroke-linecap="butt" stroke-linejoin="miter" stroke="rgb(0%, 0%, 0%)" stroke-opacity="1" stroke-miterlimit="10" d="M 671.09374 1395.117167 L 695.15624 1411.015604 " transform="matrix(0.2, 0, 0, -0.2, 0, 572)"/>
<path fill="none" stroke-width="7.9701" stroke-linecap="butt" stroke-linejoin="miter" stroke="rgb(0%, 0%, 0%)" stroke-opacity="1" stroke-miterlimit="10" d="M 743.242176 1442.773416 L 767.304676 1458.632791 " transform="matrix(0.2, 0, 0, -0.2, 0, 572)"/>
<path fill="none" stroke-width="7.9701" stroke-linecap="butt" stroke-linejoin="miter" stroke="rgb(0%, 0%, 0%)" stroke-opacity="1" stroke-miterlimit="10" d="M 767.304676 1458.632791 L 791.367176 1474.531228 " transform="matrix(0.2, 0, 0, -0.2, 0, 572)"/>
<path fill="none" stroke-width="7.9701" stroke-linecap="butt" stroke-linejoin="miter" stroke="rgb(0%, 0%, 0%)" stroke-opacity="1" stroke-miterlimit="10" d="M 839.492175 1506.28904 L 863.515612 1522.148415 " transform="matrix(0.2, 0, 0, -0.2, 0, 572)"/>
<path fill="none" stroke-width="7.9701" stroke-linecap="butt" stroke-linejoin="miter" stroke="rgb(0%, 0%, 0%)" stroke-opacity="1" stroke-miterlimit="10" d="M 863.515612 1522.148415 L 887.578112 1538.00779 " transform="matrix(0.2, 0, 0, -0.2, 0, 572)"/>
<path fill="none" stroke-width="7.9701" stroke-linecap="butt" stroke-linejoin="miter" stroke="rgb(0%, 0%, 0%)" stroke-opacity="1" stroke-miterlimit="10" d="M 935.703111 1569.765602 L 959.765611 1585.664039 " transform="matrix(0.2, 0, 0, -0.2, 0, 572)"/>
<path fill="none" stroke-width="7.9701" stroke-linecap="butt" stroke-linejoin="miter" stroke="rgb(0%, 0%, 0%)" stroke-opacity="1" stroke-miterlimit="10" d="M 959.765611 1585.664039 L 983.789048 1601.523414 " transform="matrix(0.2, 0, 0, -0.2, 0, 572)"/>
<path fill="none" stroke-width="7.9701" stroke-linecap="butt" stroke-linejoin="miter" stroke="rgb(0%, 0%, 0%)" stroke-opacity="1" stroke-miterlimit="10" d="M 1031.914047 1633.281226 L 1055.976547 1649.1406 " transform="matrix(0.2, 0, 0, -0.2, 0, 572)"/>
<path fill="none" stroke-width="7.9701" stroke-linecap="butt" stroke-linejoin="miter" stroke="rgb(0%, 0%, 0%)" stroke-opacity="1" stroke-miterlimit="10" d="M 1055.976547 1649.1406 L 1080.039046 1665.039038 " transform="matrix(0.2, 0, 0, -0.2, 0, 572)"/>
<path fill="none" stroke-width="7.9701" stroke-linecap="butt" stroke-linejoin="miter" stroke="rgb(0%, 0%, 0%)" stroke-opacity="1" stroke-miterlimit="10" d="M 1128.124983 1696.79685 L 1152.187483 1712.656224 " transform="matrix(0.2, 0, 0, -0.2, 0, 572)"/>
<path fill="none" stroke-width="7.9701" stroke-linecap="butt" stroke-linejoin="miter" stroke="rgb(0%, 0%, 0%)" stroke-opacity="1" stroke-miterlimit="10" d="M 1152.187483 1712.656224 L 1176.249982 1728.554662 " transform="matrix(0.2, 0, 0, -0.2, 0, 572)"/>
<path fill="none" stroke-width="7.9701" stroke-linecap="butt" stroke-linejoin="miter" stroke="rgb(0%, 0%, 0%)" stroke-opacity="1" stroke-miterlimit="10" d="M 1224.374982 1760.273411 L 1248.398419 1776.171849 " transform="matrix(0.2, 0, 0, -0.2, 0, 572)"/>
<path fill="none" stroke-width="7.9701" stroke-linecap="butt" stroke-linejoin="miter" stroke="rgb(0%, 0%, 0%)" stroke-opacity="1" stroke-miterlimit="10" d="M 1248.398419 1776.171849 L 1272.460919 1792.031223 " transform="matrix(0.2, 0, 0, -0.2, 0, 572)"/>
<path fill="none" stroke-width="7.9701" stroke-linecap="butt" stroke-linejoin="miter" stroke="rgb(0%, 0%, 0%)" stroke-opacity="1" stroke-miterlimit="10" d="M 1320.585918 1823.789035 L 1344.648417 1839.687473 " transform="matrix(0.2, 0, 0, -0.2, 0, 572)"/>
<path fill="none" stroke-width="7.9701" stroke-linecap="butt" stroke-linejoin="miter" stroke="rgb(0%, 0%, 0%)" stroke-opacity="1" stroke-miterlimit="10" d="M 1344.648417 1839.687473 L 1368.710917 1855.546847 " transform="matrix(0.2, 0, 0, -0.2, 0, 572)"/>
<path fill="none" stroke-width="7.9701" stroke-linecap="butt" stroke-linejoin="miter" stroke="rgb(0%, 0%, 0%)" stroke-opacity="1" stroke-miterlimit="10" d="M 1416.796854 1887.304659 L 1440.859354 1903.164034 " transform="matrix(0.2, 0, 0, -0.2, 0, 572)"/>
<path fill="none" stroke-width="7.9701" stroke-linecap="butt" stroke-linejoin="miter" stroke="rgb(0%, 0%, 0%)" stroke-opacity="1" stroke-miterlimit="10" d="M 1440.859354 1903.164034 L 1464.882791 1919.023409 " transform="matrix(0.2, 0, 0, -0.2, 0, 572)"/>
<path fill="none" stroke-width="7.9701" stroke-linecap="butt" stroke-linejoin="miter" stroke="rgb(0%, 0%, 0%)" stroke-opacity="1" stroke-miterlimit="10" d="M 1513.00779 1950.781221 L 1537.07029 1966.679658 " transform="matrix(0.2, 0, 0, -0.2, 0, 572)"/>
<path fill="none" stroke-width="7.9701" stroke-linecap="butt" stroke-linejoin="miter" stroke="rgb(0%, 0%, 0%)" stroke-opacity="1" stroke-miterlimit="10" d="M 1537.07029 1966.679658 L 1561.132789 1982.539033 " transform="matrix(0.2, 0, 0, -0.2, 0, 572)"/>
<path fill="none" stroke-width="7.9701" stroke-linecap="butt" stroke-linejoin="miter" stroke="rgb(0%, 0%, 0%)" stroke-opacity="1" stroke-miterlimit="10" d="M 1609.257789 2014.296845 L 1633.281226 2030.195282 " transform="matrix(0.2, 0, 0, -0.2, 0, 572)"/>
<path fill="none" stroke-width="7.9701" stroke-linecap="butt" stroke-linejoin="miter" stroke="rgb(0%, 0%, 0%)" stroke-opacity="1" stroke-miterlimit="10" d="M 1633.281226 2030.195282 L 1657.343725 2046.054657 " transform="matrix(0.2, 0, 0, -0.2, 0, 572)"/>
<path fill="none" stroke-width="7.9701" stroke-linecap="butt" stroke-linejoin="miter" stroke="rgb(0%, 0%, 0%)" stroke-opacity="1" stroke-miterlimit="10" d="M 1705.468725 2077.812469 L 1729.492162 2093.671844 " transform="matrix(0.2, 0, 0, -0.2, 0, 572)"/>
<path fill="none" stroke-width="7.9701" stroke-linecap="butt" stroke-linejoin="miter" stroke="rgb(0%, 0%, 0%)" stroke-opacity="1" stroke-miterlimit="10" d="M 1729.492162 2093.671844 L 1753.554661 2109.570281 " transform="matrix(0.2, 0, 0, -0.2, 0, 572)"/>
<path fill="none" stroke-width="7.9701" stroke-linecap="butt" stroke-linejoin="miter" stroke="rgb(0%, 0%, 0%)" stroke-opacity="1" stroke-miterlimit="10" d="M 1801.679661 2141.328093 L 1825.74216 2157.187468 " transform="matrix(0.2, 0, 0, -0.2, 0, 572)"/>
<path fill="none" stroke-width="7.9701" stroke-linecap="butt" stroke-linejoin="miter" stroke="rgb(0%, 0%, 0%)" stroke-opacity="1" stroke-miterlimit="10" d="M 1825.74216 2157.187468 L 1849.80466 2173.085905 " transform="matrix(0.2, 0, 0, -0.2, 0, 572)"/>
<path fill="none" stroke-width="7.9701" stroke-linecap="butt" stroke-linejoin="miter" stroke="rgb(0%, 0%, 0%)" stroke-opacity="1" stroke-miterlimit="10" d="M 1897.890597 2204.804655 L 1921.953096 2220.703092 " transform="matrix(0.2, 0, 0, -0.2, 0, 572)"/>
<path fill="none" stroke-width="7.9701" stroke-linecap="butt" stroke-linejoin="miter" stroke="rgb(0%, 0%, 0%)" stroke-opacity="1" stroke-miterlimit="10" d="M 1921.953096 2220.703092 L 1946.015596 2236.562467 " transform="matrix(0.2, 0, 0, -0.2, 0, 572)"/>
<path fill="none" stroke-width="7.9701" stroke-linecap="butt" stroke-linejoin="miter" stroke="rgb(0%, 0%, 0%)" stroke-opacity="1" stroke-miterlimit="10" d="M 1994.101533 2268.320279 L 2018.164032 2284.218716 " transform="matrix(0.2, 0, 0, -0.2, 0, 572)"/>
<path fill="none" stroke-width="7.9701" stroke-linecap="butt" stroke-linejoin="miter" stroke="rgb(0%, 0%, 0%)" stroke-opacity="1" stroke-miterlimit="10" d="M 2018.164032 2284.218716 L 2042.226532 2300.078091 " transform="matrix(0.2, 0, 0, -0.2, 0, 572)"/>
<path fill="none" stroke-width="7.9701" stroke-linecap="butt" stroke-linejoin="miter" stroke="rgb(0%, 0%, 0%)" stroke-opacity="1" stroke-miterlimit="10" d="M 2090.312469 2331.835903 L 2114.374968 2347.695278 " transform="matrix(0.2, 0, 0, -0.2, 0, 572)"/>
<path fill="none" stroke-width="7.9701" stroke-linecap="butt" stroke-linejoin="miter" stroke="rgb(0%, 0%, 0%)" stroke-opacity="1" stroke-miterlimit="10" d="M 2114.374968 2347.695278 L 2138.437468 2363.593715 " transform="matrix(0.2, 0, 0, -0.2, 0, 572)"/>
<path fill="none" stroke-width="7.9701" stroke-linecap="butt" stroke-linejoin="miter" stroke="rgb(0%, 0%, 0%)" stroke-opacity="1" stroke-miterlimit="10" d="M 2186.562467 2395.351527 L 2210.624967 2411.210902 " transform="matrix(0.2, 0, 0, -0.2, 0, 572)"/>
<path fill="none" stroke-width="7.9701" stroke-linecap="butt" stroke-linejoin="miter" stroke="rgb(0%, 0%, 0%)" stroke-opacity="1" stroke-miterlimit="10" d="M 2210.624967 2411.210902 L 2234.648404 2427.109339 " transform="matrix(0.2, 0, 0, -0.2, 0, 572)"/>
<path fill="none" stroke-width="7.9701" stroke-linecap="butt" stroke-linejoin="miter" stroke="rgb(0%, 0%, 0%)" stroke-opacity="1" stroke-miterlimit="10" d="M 2282.773403 2458.828088 L 2306.835903 2474.726526 " transform="matrix(0.2, 0, 0, -0.2, 0, 572)"/>
<path fill="none" stroke-width="7.9701" stroke-linecap="butt" stroke-linejoin="miter" stroke="rgb(0%, 0%, 0%)" stroke-opacity="1" stroke-miterlimit="10" d="M 2306.835903 2474.726526 L 2330.898403 2490.5859 " transform="matrix(0.2, 0, 0, -0.2, 0, 572)"/>
<path fill="none" stroke-width="7.9701" stroke-linecap="butt" stroke-linejoin="miter" stroke="rgb(0%, 0%, 0%)" stroke-opacity="1" stroke-miterlimit="10" d="M 2378.98434 2522.343712 L 2403.046839 2538.203087 " transform="matrix(0.2, 0, 0, -0.2, 0, 572)"/>
<path fill="none" stroke-width="7.9701" stroke-linecap="butt" stroke-linejoin="miter" stroke="rgb(0%, 0%, 0%)" stroke-opacity="1" stroke-miterlimit="10" d="M 2403.046839 2538.203087 L 2427.109339 2554.101524 " transform="matrix(0.2, 0, 0, -0.2, 0, 572)"/>
<path fill="none" stroke-width="7.9701" stroke-linecap="butt" stroke-linejoin="miter" stroke="rgb(0%, 0%, 0%)" stroke-opacity="1" stroke-miterlimit="10" d="M 2475.195276 2585.859336 L 2499.257775 2601.718711 " transform="matrix(0.2, 0, 0, -0.2, 0, 572)"/>
<path fill="none" stroke-width="7.9701" stroke-linecap="butt" stroke-linejoin="miter" stroke="rgb(0%, 0%, 0%)" stroke-opacity="1" stroke-miterlimit="10" d="M 2499.257775 2601.718711 L 2523.320275 2617.617148 " transform="matrix(0.2, 0, 0, -0.2, 0, 572)"/>
<path fill="none" stroke-width="7.9701" stroke-linecap="butt" stroke-linejoin="miter" stroke="rgb(0%, 0%, 0%)" stroke-opacity="1" stroke-miterlimit="10" d="M 2571.445274 2649.374961 L 2595.507774 2665.234335 " transform="matrix(0.2, 0, 0, -0.2, 0, 572)"/>
<path fill="none" stroke-width="7.9701" stroke-linecap="butt" stroke-linejoin="miter" stroke="rgb(0%, 0%, 0%)" stroke-opacity="1" stroke-miterlimit="10" d="M 189.999997 1077.617171 L 218.632809 1077.617171 " transform="matrix(0.2, 0, 0, -0.2, 0, 572)"/>
<path fill="none" stroke-width="7.9701" stroke-linecap="butt" stroke-linejoin="miter" stroke="rgb(0%, 0%, 0%)" stroke-opacity="1" stroke-miterlimit="10" d="M 275.898433 1077.617171 L 304.531245 1077.617171 " transform="matrix(0.2, 0, 0, -0.2, 0, 572)"/>
<path fill="none" stroke-width="7.9701" stroke-linecap="butt" stroke-linejoin="miter" stroke="rgb(0%, 0%, 0%)" stroke-opacity="1" stroke-miterlimit="10" d="M 304.531245 1077.617171 L 333.20312 1077.617171 " transform="matrix(0.2, 0, 0, -0.2, 0, 572)"/>
<path fill="none" stroke-width="7.9701" stroke-linecap="butt" stroke-linejoin="miter" stroke="rgb(0%, 0%, 0%)" stroke-opacity="1" stroke-miterlimit="10" d="M 390.468744 1077.617171 L 419.101556 1077.617171 " transform="matrix(0.2, 0, 0, -0.2, 0, 572)"/>
<path fill="none" stroke-width="7.9701" stroke-linecap="butt" stroke-linejoin="miter" stroke="rgb(0%, 0%, 0%)" stroke-opacity="1" stroke-miterlimit="10" d="M 419.101556 1077.617171 L 419.101556 1096.523421 " transform="matrix(0.2, 0, 0, -0.2, 0, 572)"/>
<path fill="none" stroke-width="7.9701" stroke-linecap="butt" stroke-linejoin="miter" stroke="rgb(0%, 0%, 0%)" stroke-opacity="1" stroke-miterlimit="10" d="M 419.101556 1134.296858 L 419.101556 1153.203108 " transform="matrix(0.2, 0, 0, -0.2, 0, 572)"/>
<path fill="none" stroke-width="7.9701" stroke-linecap="butt" stroke-linejoin="miter" stroke="rgb(0%, 0%, 0%)" stroke-opacity="1" stroke-miterlimit="10" d="M 419.101556 1153.203108 L 419.101556 1172.109358 " transform="matrix(0.2, 0, 0, -0.2, 0, 572)"/>
<path fill="none" stroke-width="7.9701" stroke-linecap="butt" stroke-linejoin="miter" stroke="rgb(0%, 0%, 0%)" stroke-opacity="1" stroke-miterlimit="10" d="M 419.101556 1209.921857 L 419.101556 1228.828107 " transform="matrix(0.2, 0, 0, -0.2, 0, 572)"/>
<path fill="none" stroke-width="7.9701" stroke-linecap="butt" stroke-linejoin="miter" stroke="rgb(0%, 0%, 0%)" stroke-opacity="1" stroke-miterlimit="10" d="M 419.101556 1228.828107 L 447.734368 1228.828107 " transform="matrix(0.2, 0, 0, -0.2, 0, 572)"/>
<path fill="none" stroke-width="7.9701" stroke-linecap="butt" stroke-linejoin="miter" stroke="rgb(0%, 0%, 0%)" stroke-opacity="1" stroke-miterlimit="10" d="M 504.999992 1228.828107 L 533.632805 1228.828107 " transform="matrix(0.2, 0, 0, -0.2, 0, 572)"/>
<path fill="none" stroke-width="7.9701" stroke-linecap="butt" stroke-linejoin="miter" stroke="rgb(0%, 0%, 0%)" stroke-opacity="1" stroke-miterlimit="10" d="M 533.632805 1228.828107 L 562.265617 1228.828107 " transform="matrix(0.2, 0, 0, -0.2, 0, 572)"/>
<path fill="none" stroke-width="7.9701" stroke-linecap="butt" stroke-linejoin="miter" stroke="rgb(0%, 0%, 0%)" stroke-opacity="1" stroke-miterlimit="10" d="M 619.531241 1228.828107 L 648.203115 1228.828107 " transform="matrix(0.2, 0, 0, -0.2, 0, 572)"/>
<path fill="none" stroke-width="7.9701" stroke-linecap="butt" stroke-linejoin="miter" stroke="rgb(0%, 0%, 0%)" stroke-opacity="1" stroke-miterlimit="10" d="M 648.203115 1228.828107 L 648.203115 1247.695294 " transform="matrix(0.2, 0, 0, -0.2, 0, 572)"/>
<path fill="none" stroke-width="7.9701" stroke-linecap="butt" stroke-linejoin="miter" stroke="rgb(0%, 0%, 0%)" stroke-opacity="1" stroke-miterlimit="10" d="M 648.203115 1285.507793 L 648.203115 1304.414043 " transform="matrix(0.2, 0, 0, -0.2, 0, 572)"/>
<path fill="none" stroke-width="7.9701" stroke-linecap="butt" stroke-linejoin="miter" stroke="rgb(0%, 0%, 0%)" stroke-opacity="1" stroke-miterlimit="10" d="M 648.203115 1304.414043 L 648.203115 1323.320293 " transform="matrix(0.2, 0, 0, -0.2, 0, 572)"/>
<path fill="none" stroke-width="7.9701" stroke-linecap="butt" stroke-linejoin="miter" stroke="rgb(0%, 0%, 0%)" stroke-opacity="1" stroke-miterlimit="10" d="M 648.203115 1361.132792 L 648.203115 1380.039042 " transform="matrix(0.2, 0, 0, -0.2, 0, 572)"/>
<path fill="none" stroke-width="7.9701" stroke-linecap="butt" stroke-linejoin="miter" stroke="rgb(0%, 0%, 0%)" stroke-opacity="1" stroke-miterlimit="10" d="M 648.203115 1380.039042 L 676.835927 1380.039042 " transform="matrix(0.2, 0, 0, -0.2, 0, 572)"/>
<path fill="none" stroke-width="7.9701" stroke-linecap="butt" stroke-linejoin="miter" stroke="rgb(0%, 0%, 0%)" stroke-opacity="1" stroke-miterlimit="10" d="M 734.101552 1380.039042 L 762.734364 1380.039042 " transform="matrix(0.2, 0, 0, -0.2, 0, 572)"/>
<path fill="none" stroke-width="7.9701" stroke-linecap="butt" stroke-linejoin="miter" stroke="rgb(0%, 0%, 0%)" stroke-opacity="1" stroke-miterlimit="10" d="M 762.734364 1380.039042 L 791.367176 1380.039042 " transform="matrix(0.2, 0, 0, -0.2, 0, 572)"/>
<path fill="none" stroke-width="7.9701" stroke-linecap="butt" stroke-linejoin="miter" stroke="rgb(0%, 0%, 0%)" stroke-opacity="1" stroke-miterlimit="10" d="M 848.6328 1380.039042 L 877.265612 1380.039042 " transform="matrix(0.2, 0, 0, -0.2, 0, 572)"/>
<path fill="none" stroke-width="7.9701" stroke-linecap="butt" stroke-linejoin="miter" stroke="rgb(0%, 0%, 0%)" stroke-opacity="1" stroke-miterlimit="10" d="M 877.265612 1380.039042 L 877.265612 1398.906229 " transform="matrix(0.2, 0, 0, -0.2, 0, 572)"/>
<path fill="none" stroke-width="7.9701" stroke-linecap="butt" stroke-linejoin="miter" stroke="rgb(0%, 0%, 0%)" stroke-opacity="1" stroke-miterlimit="10" d="M 877.265612 1436.718729 L 877.265612 1455.624978 " transform="matrix(0.2, 0, 0, -0.2, 0, 572)"/>
<path fill="none" stroke-width="7.9701" stroke-linecap="butt" stroke-linejoin="miter" stroke="rgb(0%, 0%, 0%)" stroke-opacity="1" stroke-miterlimit="10" d="M 877.265612 1455.624978 L 877.265612 1474.531228 " transform="matrix(0.2, 0, 0, -0.2, 0, 572)"/>
<path fill="none" stroke-width="7.9701" stroke-linecap="butt" stroke-linejoin="miter" stroke="rgb(0%, 0%, 0%)" stroke-opacity="1" stroke-miterlimit="10" d="M 877.265612 1512.304665 L 877.265612 1531.210915 " transform="matrix(0.2, 0, 0, -0.2, 0, 572)"/>
<path fill="none" stroke-width="7.9701" stroke-linecap="butt" stroke-linejoin="miter" stroke="rgb(0%, 0%, 0%)" stroke-opacity="1" stroke-miterlimit="10" d="M 877.265612 1531.210915 L 905.937487 1531.210915 " transform="matrix(0.2, 0, 0, -0.2, 0, 572)"/>
<path fill="none" stroke-width="7.9701" stroke-linecap="butt" stroke-linejoin="miter" stroke="rgb(0%, 0%, 0%)" stroke-opacity="1" stroke-miterlimit="10" d="M 963.203111 1531.210915 L 991.835923 1531.210915 " transform="matrix(0.2, 0, 0, -0.2, 0, 572)"/>
<path fill="none" stroke-width="7.9701" stroke-linecap="butt" stroke-linejoin="miter" stroke="rgb(0%, 0%, 0%)" stroke-opacity="1" stroke-miterlimit="10" d="M 991.835923 1531.210915 L 1020.468735 1531.210915 " transform="matrix(0.2, 0, 0, -0.2, 0, 572)"/>
<path fill="none" stroke-width="7.9701" stroke-linecap="butt" stroke-linejoin="miter" stroke="rgb(0%, 0%, 0%)" stroke-opacity="1" stroke-miterlimit="10" d="M 1077.734359 1531.210915 L 1106.367171 1531.210915 " transform="matrix(0.2, 0, 0, -0.2, 0, 572)"/>
<path fill="none" stroke-width="7.9701" stroke-linecap="butt" stroke-linejoin="miter" stroke="rgb(0%, 0%, 0%)" stroke-opacity="1" stroke-miterlimit="10" d="M 1106.367171 1531.210915 L 1106.367171 1550.117164 " transform="matrix(0.2, 0, 0, -0.2, 0, 572)"/>
<path fill="none" stroke-width="7.9701" stroke-linecap="butt" stroke-linejoin="miter" stroke="rgb(0%, 0%, 0%)" stroke-opacity="1" stroke-miterlimit="10" d="M 1106.367171 1587.890601 L 1106.367171 1606.835914 " transform="matrix(0.2, 0, 0, -0.2, 0, 572)"/>
<path fill="none" stroke-width="7.9701" stroke-linecap="butt" stroke-linejoin="miter" stroke="rgb(0%, 0%, 0%)" stroke-opacity="1" stroke-miterlimit="10" d="M 1106.367171 1606.835914 L 1106.367171 1625.703101 " transform="matrix(0.2, 0, 0, -0.2, 0, 572)"/>
<path fill="none" stroke-width="7.9701" stroke-linecap="butt" stroke-linejoin="miter" stroke="rgb(0%, 0%, 0%)" stroke-opacity="1" stroke-miterlimit="10" d="M 1106.367171 1663.5156 L 1106.367171 1682.42185 " transform="matrix(0.2, 0, 0, -0.2, 0, 572)"/>
<path fill="none" stroke-width="7.9701" stroke-linecap="butt" stroke-linejoin="miter" stroke="rgb(0%, 0%, 0%)" stroke-opacity="1" stroke-miterlimit="10" d="M 1106.367171 1682.42185 L 1134.999983 1682.42185 " transform="matrix(0.2, 0, 0, -0.2, 0, 572)"/>
<path fill="none" stroke-width="7.9701" stroke-linecap="butt" stroke-linejoin="miter" stroke="rgb(0%, 0%, 0%)" stroke-opacity="1" stroke-miterlimit="10" d="M 1192.30467 1682.42185 L 1220.937482 1682.42185 " transform="matrix(0.2, 0, 0, -0.2, 0, 572)"/>
<path fill="none" stroke-width="7.9701" stroke-linecap="butt" stroke-linejoin="miter" stroke="rgb(0%, 0%, 0%)" stroke-opacity="1" stroke-miterlimit="10" d="M 1220.937482 1682.42185 L 1249.570294 1682.42185 " transform="matrix(0.2, 0, 0, -0.2, 0, 572)"/>
<path fill="none" stroke-width="7.9701" stroke-linecap="butt" stroke-linejoin="miter" stroke="rgb(0%, 0%, 0%)" stroke-opacity="1" stroke-miterlimit="10" d="M 1306.835918 1682.42185 L 1335.46873 1682.42185 " transform="matrix(0.2, 0, 0, -0.2, 0, 572)"/>
<path fill="none" stroke-width="7.9701" stroke-linecap="butt" stroke-linejoin="miter" stroke="rgb(0%, 0%, 0%)" stroke-opacity="1" stroke-miterlimit="10" d="M 1335.46873 1682.42185 L 1335.46873 1701.3281 " transform="matrix(0.2, 0, 0, -0.2, 0, 572)"/>
<path fill="none" stroke-width="7.9701" stroke-linecap="butt" stroke-linejoin="miter" stroke="rgb(0%, 0%, 0%)" stroke-opacity="1" stroke-miterlimit="10" d="M 1335.46873 1739.101537 L 1335.46873 1758.007786 " transform="matrix(0.2, 0, 0, -0.2, 0, 572)"/>
<path fill="none" stroke-width="7.9701" stroke-linecap="butt" stroke-linejoin="miter" stroke="rgb(0%, 0%, 0%)" stroke-opacity="1" stroke-miterlimit="10" d="M 1335.46873 1758.007786 L 1335.46873 1776.914036 " transform="matrix(0.2, 0, 0, -0.2, 0, 572)"/>
<path fill="none" stroke-width="7.9701" stroke-linecap="butt" stroke-linejoin="miter" stroke="rgb(0%, 0%, 0%)" stroke-opacity="1" stroke-miterlimit="10" d="M 1335.46873 1814.726535 L 1335.46873 1833.632785 " transform="matrix(0.2, 0, 0, -0.2, 0, 572)"/>
<path fill="none" stroke-width="7.9701" stroke-linecap="butt" stroke-linejoin="miter" stroke="rgb(0%, 0%, 0%)" stroke-opacity="1" stroke-miterlimit="10" d="M 1335.46873 1833.632785 L 1364.101542 1833.632785 " transform="matrix(0.2, 0, 0, -0.2, 0, 572)"/>
<path fill="none" stroke-width="7.9701" stroke-linecap="butt" stroke-linejoin="miter" stroke="rgb(0%, 0%, 0%)" stroke-opacity="1" stroke-miterlimit="10" d="M 1421.406229 1833.632785 L 1450.039041 1833.632785 " transform="matrix(0.2, 0, 0, -0.2, 0, 572)"/>
<path fill="none" stroke-width="7.9701" stroke-linecap="butt" stroke-linejoin="miter" stroke="rgb(0%, 0%, 0%)" stroke-opacity="1" stroke-miterlimit="10" d="M 1450.039041 1833.632785 L 1478.63279 1833.632785 " transform="matrix(0.2, 0, 0, -0.2, 0, 572)"/>
<path fill="none" stroke-width="7.9701" stroke-linecap="butt" stroke-linejoin="miter" stroke="rgb(0%, 0%, 0%)" stroke-opacity="1" stroke-miterlimit="10" d="M 1535.937477 1833.632785 L 1564.570289 1833.632785 " transform="matrix(0.2, 0, 0, -0.2, 0, 572)"/>
<path fill="none" stroke-width="7.9701" stroke-linecap="butt" stroke-linejoin="miter" stroke="rgb(0%, 0%, 0%)" stroke-opacity="1" stroke-miterlimit="10" d="M 1564.570289 1833.632785 L 1564.570289 1852.539035 " transform="matrix(0.2, 0, 0, -0.2, 0, 572)"/>
<path fill="none" stroke-width="7.9701" stroke-linecap="butt" stroke-linejoin="miter" stroke="rgb(0%, 0%, 0%)" stroke-opacity="1" stroke-miterlimit="10" d="M 1564.570289 1890.312472 L 1564.570289 1909.218722 " transform="matrix(0.2, 0, 0, -0.2, 0, 572)"/>
<path fill="none" stroke-width="7.9701" stroke-linecap="butt" stroke-linejoin="miter" stroke="rgb(0%, 0%, 0%)" stroke-opacity="1" stroke-miterlimit="10" d="M 1564.570289 1909.218722 L 1564.570289 1928.124971 " transform="matrix(0.2, 0, 0, -0.2, 0, 572)"/>
<path fill="none" stroke-width="7.9701" stroke-linecap="butt" stroke-linejoin="miter" stroke="rgb(0%, 0%, 0%)" stroke-opacity="1" stroke-miterlimit="10" d="M 1564.570289 1965.937471 L 1564.570289 1984.804658 " transform="matrix(0.2, 0, 0, -0.2, 0, 572)"/>
<path fill="none" stroke-width="7.9701" stroke-linecap="butt" stroke-linejoin="miter" stroke="rgb(0%, 0%, 0%)" stroke-opacity="1" stroke-miterlimit="10" d="M 1564.570289 1984.804658 L 1593.203101 1984.804658 " transform="matrix(0.2, 0, 0, -0.2, 0, 572)"/>
<path fill="none" stroke-width="7.9701" stroke-linecap="butt" stroke-linejoin="miter" stroke="rgb(0%, 0%, 0%)" stroke-opacity="1" stroke-miterlimit="10" d="M 1650.468725 1984.804658 L 1679.101537 1984.804658 " transform="matrix(0.2, 0, 0, -0.2, 0, 572)"/>
<path fill="none" stroke-width="7.9701" stroke-linecap="butt" stroke-linejoin="miter" stroke="rgb(0%, 0%, 0%)" stroke-opacity="1" stroke-miterlimit="10" d="M 1679.101537 1984.804658 L 1707.73435 1984.804658 " transform="matrix(0.2, 0, 0, -0.2, 0, 572)"/>
<path fill="none" stroke-width="7.9701" stroke-linecap="butt" stroke-linejoin="miter" stroke="rgb(0%, 0%, 0%)" stroke-opacity="1" stroke-miterlimit="10" d="M 1765.039036 1984.804658 L 1793.632786 1984.804658 " transform="matrix(0.2, 0, 0, -0.2, 0, 572)"/>
<path fill="none" stroke-width="7.9701" stroke-linecap="butt" stroke-linejoin="miter" stroke="rgb(0%, 0%, 0%)" stroke-opacity="1" stroke-miterlimit="10" d="M 1793.632786 1984.804658 L 1793.632786 2003.710908 " transform="matrix(0.2, 0, 0, -0.2, 0, 572)"/>
<path fill="none" stroke-width="7.9701" stroke-linecap="butt" stroke-linejoin="miter" stroke="rgb(0%, 0%, 0%)" stroke-opacity="1" stroke-miterlimit="10" d="M 1793.632786 2041.523407 L 1793.632786 2060.429657 " transform="matrix(0.2, 0, 0, -0.2, 0, 572)"/>
<path fill="none" stroke-width="7.9701" stroke-linecap="butt" stroke-linejoin="miter" stroke="rgb(0%, 0%, 0%)" stroke-opacity="1" stroke-miterlimit="10" d="M 1793.632786 2060.429657 L 1793.632786 2079.335907 " transform="matrix(0.2, 0, 0, -0.2, 0, 572)"/>
<path fill="none" stroke-width="7.9701" stroke-linecap="butt" stroke-linejoin="miter" stroke="rgb(0%, 0%, 0%)" stroke-opacity="1" stroke-miterlimit="10" d="M 1793.632786 2117.109343 L 1793.632786 2136.015593 " transform="matrix(0.2, 0, 0, -0.2, 0, 572)"/>
<path fill="none" stroke-width="7.9701" stroke-linecap="butt" stroke-linejoin="miter" stroke="rgb(0%, 0%, 0%)" stroke-opacity="1" stroke-miterlimit="10" d="M 1793.632786 2136.015593 L 1822.30466 2136.015593 " transform="matrix(0.2, 0, 0, -0.2, 0, 572)"/>
<path fill="none" stroke-width="7.9701" stroke-linecap="butt" stroke-linejoin="miter" stroke="rgb(0%, 0%, 0%)" stroke-opacity="1" stroke-miterlimit="10" d="M 1879.570284 2136.015593 L 1908.203097 2136.015593 " transform="matrix(0.2, 0, 0, -0.2, 0, 572)"/>
<path fill="none" stroke-width="7.9701" stroke-linecap="butt" stroke-linejoin="miter" stroke="rgb(0%, 0%, 0%)" stroke-opacity="1" stroke-miterlimit="10" d="M 1908.203097 2136.015593 L 1936.835909 2136.015593 " transform="matrix(0.2, 0, 0, -0.2, 0, 572)"/>
<path fill="none" stroke-width="7.9701" stroke-linecap="butt" stroke-linejoin="miter" stroke="rgb(0%, 0%, 0%)" stroke-opacity="1" stroke-miterlimit="10" d="M 1994.101533 2136.015593 L 2022.734345 2136.015593 " transform="matrix(0.2, 0, 0, -0.2, 0, 572)"/>
<path fill="none" stroke-width="7.9701" stroke-linecap="butt" stroke-linejoin="miter" stroke="rgb(0%, 0%, 0%)" stroke-opacity="1" stroke-miterlimit="10" d="M 2022.734345 2136.015593 L 2022.734345 2154.921843 " transform="matrix(0.2, 0, 0, -0.2, 0, 572)"/>
<path fill="none" stroke-width="7.9701" stroke-linecap="butt" stroke-linejoin="miter" stroke="rgb(0%, 0%, 0%)" stroke-opacity="1" stroke-miterlimit="10" d="M 2022.734345 2192.734342 L 2022.734345 2211.640592 " transform="matrix(0.2, 0, 0, -0.2, 0, 572)"/>
<path fill="none" stroke-width="7.9701" stroke-linecap="butt" stroke-linejoin="miter" stroke="rgb(0%, 0%, 0%)" stroke-opacity="1" stroke-miterlimit="10" d="M 2022.734345 2211.640592 L 2022.734345 2230.507779 " transform="matrix(0.2, 0, 0, -0.2, 0, 572)"/>
<path fill="none" stroke-width="7.9701" stroke-linecap="butt" stroke-linejoin="miter" stroke="rgb(0%, 0%, 0%)" stroke-opacity="1" stroke-miterlimit="10" d="M 2022.734345 2268.320279 L 2022.734345 2287.226528 " transform="matrix(0.2, 0, 0, -0.2, 0, 572)"/>
<path fill="none" stroke-width="7.9701" stroke-linecap="butt" stroke-linejoin="miter" stroke="rgb(0%, 0%, 0%)" stroke-opacity="1" stroke-miterlimit="10" d="M 2022.734345 2287.226528 L 2051.406219 2287.226528 " transform="matrix(0.2, 0, 0, -0.2, 0, 572)"/>
<path fill="none" stroke-width="7.9701" stroke-linecap="butt" stroke-linejoin="miter" stroke="rgb(0%, 0%, 0%)" stroke-opacity="1" stroke-miterlimit="10" d="M 2108.671844 2287.226528 L 2137.304656 2287.226528 " transform="matrix(0.2, 0, 0, -0.2, 0, 572)"/>
<path fill="none" stroke-width="7.9701" stroke-linecap="butt" stroke-linejoin="miter" stroke="rgb(0%, 0%, 0%)" stroke-opacity="1" stroke-miterlimit="10" d="M 2137.304656 2287.226528 L 2165.937468 2287.226528 " transform="matrix(0.2, 0, 0, -0.2, 0, 572)"/>
<path fill="none" stroke-width="7.9701" stroke-linecap="butt" stroke-linejoin="miter" stroke="rgb(0%, 0%, 0%)" stroke-opacity="1" stroke-miterlimit="10" d="M 2223.203092 2287.226528 L 2251.835904 2287.226528 " transform="matrix(0.2, 0, 0, -0.2, 0, 572)"/>
<path fill="none" stroke-width="7.9701" stroke-linecap="butt" stroke-linejoin="miter" stroke="rgb(0%, 0%, 0%)" stroke-opacity="1" stroke-miterlimit="10" d="M 2251.835904 2287.226528 L 2251.835904 2306.132778 " transform="matrix(0.2, 0, 0, -0.2, 0, 572)"/>
<path fill="none" stroke-width="7.9701" stroke-linecap="butt" stroke-linejoin="miter" stroke="rgb(0%, 0%, 0%)" stroke-opacity="1" stroke-miterlimit="10" d="M 2251.835904 2343.906215 L 2251.835904 2362.812465 " transform="matrix(0.2, 0, 0, -0.2, 0, 572)"/>
<path fill="none" stroke-width="7.9701" stroke-linecap="butt" stroke-linejoin="miter" stroke="rgb(0%, 0%, 0%)" stroke-opacity="1" stroke-miterlimit="10" d="M 2251.835904 2362.812465 L 2251.835904 2381.718715 " transform="matrix(0.2, 0, 0, -0.2, 0, 572)"/>
<path fill="none" stroke-width="7.9701" stroke-linecap="butt" stroke-linejoin="miter" stroke="rgb(0%, 0%, 0%)" stroke-opacity="1" stroke-miterlimit="10" d="M 2251.835904 2419.531214 L 2251.835904 2438.437464 " transform="matrix(0.2, 0, 0, -0.2, 0, 572)"/>
<path fill="none" stroke-width="7.9701" stroke-linecap="butt" stroke-linejoin="miter" stroke="rgb(0%, 0%, 0%)" stroke-opacity="1" stroke-miterlimit="10" d="M 2251.835904 2438.437464 L 2280.468716 2438.437464 " transform="matrix(0.2, 0, 0, -0.2, 0, 572)"/>
<path fill="none" stroke-width="7.9701" stroke-linecap="butt" stroke-linejoin="miter" stroke="rgb(0%, 0%, 0%)" stroke-opacity="1" stroke-miterlimit="10" d="M 2337.73434 2438.437464 L 2366.406215 2438.437464 " transform="matrix(0.2, 0, 0, -0.2, 0, 572)"/>
<path fill="none" stroke-width="7.9701" stroke-linecap="butt" stroke-linejoin="miter" stroke="rgb(0%, 0%, 0%)" stroke-opacity="1" stroke-miterlimit="10" d="M 2366.406215 2438.437464 L 2395.039027 2438.437464 " transform="matrix(0.2, 0, 0, -0.2, 0, 572)"/>
<path fill="none" stroke-width="7.9701" stroke-linecap="butt" stroke-linejoin="miter" stroke="rgb(0%, 0%, 0%)" stroke-opacity="1" stroke-miterlimit="10" d="M 2452.304651 2438.437464 L 2480.937463 2438.437464 " transform="matrix(0.2, 0, 0, -0.2, 0, 572)"/>
<path fill="none" stroke-width="7.9701" stroke-linecap="butt" stroke-linejoin="miter" stroke="rgb(0%, 0%, 0%)" stroke-opacity="1" stroke-miterlimit="10" d="M 2480.937463 2438.437464 L 2480.937463 2457.304651 " transform="matrix(0.2, 0, 0, -0.2, 0, 572)"/>
<path fill="none" stroke-width="7.9701" stroke-linecap="butt" stroke-linejoin="miter" stroke="rgb(0%, 0%, 0%)" stroke-opacity="1" stroke-miterlimit="10" d="M 2480.937463 2495.11715 L 2480.937463 2514.0234 " transform="matrix(0.2, 0, 0, -0.2, 0, 572)"/>
<path fill="none" stroke-width="7.9701" stroke-linecap="butt" stroke-linejoin="miter" stroke="rgb(0%, 0%, 0%)" stroke-opacity="1" stroke-miterlimit="10" d="M 2480.937463 2514.0234 L 2480.937463 2532.92965 " transform="matrix(0.2, 0, 0, -0.2, 0, 572)"/>
<path fill="none" stroke-width="7.9701" stroke-linecap="butt" stroke-linejoin="miter" stroke="rgb(0%, 0%, 0%)" stroke-opacity="1" stroke-miterlimit="10" d="M 2480.937463 2570.742149 L 2480.937463 2589.648399 " transform="matrix(0.2, 0, 0, -0.2, 0, 572)"/>
<path fill="none" stroke-width="7.9701" stroke-linecap="butt" stroke-linejoin="miter" stroke="rgb(0%, 0%, 0%)" stroke-opacity="1" stroke-miterlimit="10" d="M 2480.937463 321.601558 L 2480.937463 350.664057 " transform="matrix(0.2, 0, 0, -0.2, 0, 572)"/>
<path fill="none" stroke-width="7.9701" stroke-linecap="butt" stroke-linejoin="miter" stroke="rgb(0%, 0%, 0%)" stroke-opacity="1" stroke-miterlimit="10" d="M 2480.937463 408.828119 L 2480.937463 437.929681 " transform="matrix(0.2, 0, 0, -0.2, 0, 572)"/>
<path fill="none" stroke-width="7.9701" stroke-linecap="butt" stroke-linejoin="miter" stroke="rgb(0%, 0%, 0%)" stroke-opacity="1" stroke-miterlimit="10" d="M 2480.937463 437.929681 L 2480.937463 466.992181 " transform="matrix(0.2, 0, 0, -0.2, 0, 572)"/>
<path fill="none" stroke-width="7.9701" stroke-linecap="butt" stroke-linejoin="miter" stroke="rgb(0%, 0%, 0%)" stroke-opacity="1" stroke-miterlimit="10" d="M 2480.937463 525.156242 L 2480.937463 554.218742 " transform="matrix(0.2, 0, 0, -0.2, 0, 572)"/>
<path fill="none" stroke-width="7.9701" stroke-linecap="butt" stroke-linejoin="miter" stroke="rgb(0%, 0%, 0%)" stroke-opacity="1" stroke-miterlimit="10" d="M 2480.937463 554.218742 L 2480.937463 583.281241 " transform="matrix(0.2, 0, 0, -0.2, 0, 572)"/>
<path fill="none" stroke-width="7.9701" stroke-linecap="butt" stroke-linejoin="miter" stroke="rgb(0%, 0%, 0%)" stroke-opacity="1" stroke-miterlimit="10" d="M 2480.937463 641.445303 L 2480.937463 670.546865 " transform="matrix(0.2, 0, 0, -0.2, 0, 572)"/>
<path fill="none" stroke-width="7.9701" stroke-linecap="butt" stroke-linejoin="miter" stroke="rgb(0%, 0%, 0%)" stroke-opacity="1" stroke-miterlimit="10" d="M 2480.937463 670.546865 L 2480.937463 699.609365 " transform="matrix(0.2, 0, 0, -0.2, 0, 572)"/>
<path fill="none" stroke-width="7.9701" stroke-linecap="butt" stroke-linejoin="miter" stroke="rgb(0%, 0%, 0%)" stroke-opacity="1" stroke-miterlimit="10" d="M 2480.937463 757.773426 L 2480.937463 786.835926 " transform="matrix(0.2, 0, 0, -0.2, 0, 572)"/>
<path fill="none" stroke-width="7.9701" stroke-linecap="butt" stroke-linejoin="miter" stroke="rgb(0%, 0%, 0%)" stroke-opacity="1" stroke-miterlimit="10" d="M 2480.937463 786.835926 L 2480.937463 815.898425 " transform="matrix(0.2, 0, 0, -0.2, 0, 572)"/>
<path fill="none" stroke-width="7.9701" stroke-linecap="butt" stroke-linejoin="miter" stroke="rgb(0%, 0%, 0%)" stroke-opacity="1" stroke-miterlimit="10" d="M 2480.937463 874.062487 L 2480.937463 903.164049 " transform="matrix(0.2, 0, 0, -0.2, 0, 572)"/>
<path fill="none" stroke-width="7.9701" stroke-linecap="butt" stroke-linejoin="miter" stroke="rgb(0%, 0%, 0%)" stroke-opacity="1" stroke-miterlimit="10" d="M 2480.937463 903.164049 L 2480.937463 932.226549 " transform="matrix(0.2, 0, 0, -0.2, 0, 572)"/>
<path fill="none" stroke-width="7.9701" stroke-linecap="butt" stroke-linejoin="miter" stroke="rgb(0%, 0%, 0%)" stroke-opacity="1" stroke-miterlimit="10" d="M 2480.937463 990.39061 L 2480.937463 1019.45311 " transform="matrix(0.2, 0, 0, -0.2, 0, 572)"/>
<path fill="none" stroke-width="7.9701" stroke-linecap="butt" stroke-linejoin="miter" stroke="rgb(0%, 0%, 0%)" stroke-opacity="1" stroke-miterlimit="10" d="M 2480.937463 1019.45311 L 2480.937463 1048.515609 " transform="matrix(0.2, 0, 0, -0.2, 0, 572)"/>
<path fill="none" stroke-width="7.9701" stroke-linecap="butt" stroke-linejoin="miter" stroke="rgb(0%, 0%, 0%)" stroke-opacity="1" stroke-miterlimit="10" d="M 2480.937463 1106.679671 L 2480.937463 1135.742171 " transform="matrix(0.2, 0, 0, -0.2, 0, 572)"/>
<path fill="none" stroke-width="7.9701" stroke-linecap="butt" stroke-linejoin="miter" stroke="rgb(0%, 0%, 0%)" stroke-opacity="1" stroke-miterlimit="10" d="M 2480.937463 1135.742171 L 2480.937463 1164.843733 " transform="matrix(0.2, 0, 0, -0.2, 0, 572)"/>
<path fill="none" stroke-width="7.9701" stroke-linecap="butt" stroke-linejoin="miter" stroke="rgb(0%, 0%, 0%)" stroke-opacity="1" stroke-miterlimit="10" d="M 2480.937463 1223.007794 L 2480.937463 1252.070294 " transform="matrix(0.2, 0, 0, -0.2, 0, 572)"/>
<path fill="none" stroke-width="7.9701" stroke-linecap="butt" stroke-linejoin="miter" stroke="rgb(0%, 0%, 0%)" stroke-opacity="1" stroke-miterlimit="10" d="M 2480.937463 1252.070294 L 2480.937463 1281.132793 " transform="matrix(0.2, 0, 0, -0.2, 0, 572)"/>
<path fill="none" stroke-width="7.9701" stroke-linecap="butt" stroke-linejoin="miter" stroke="rgb(0%, 0%, 0%)" stroke-opacity="1" stroke-miterlimit="10" d="M 2480.937463 1339.296855 L 2480.937463 1368.398417 " transform="matrix(0.2, 0, 0, -0.2, 0, 572)"/>
<path fill="none" stroke-width="7.9701" stroke-linecap="butt" stroke-linejoin="miter" stroke="rgb(0%, 0%, 0%)" stroke-opacity="1" stroke-miterlimit="10" d="M 2480.937463 1368.398417 L 2480.937463 1397.460917 " transform="matrix(0.2, 0, 0, -0.2, 0, 572)"/>
<path fill="none" stroke-width="7.9701" stroke-linecap="butt" stroke-linejoin="miter" stroke="rgb(0%, 0%, 0%)" stroke-opacity="1" stroke-miterlimit="10" d="M 2480.937463 1455.624978 L 2480.937463 1484.687478 " transform="matrix(0.2, 0, 0, -0.2, 0, 572)"/>
<path fill="none" stroke-width="7.9701" stroke-linecap="butt" stroke-linejoin="miter" stroke="rgb(0%, 0%, 0%)" stroke-opacity="1" stroke-miterlimit="10" d="M 2480.937463 1484.687478 L 2480.937463 1513.78904 " transform="matrix(0.2, 0, 0, -0.2, 0, 572)"/>
<path fill="none" stroke-width="7.9701" stroke-linecap="butt" stroke-linejoin="miter" stroke="rgb(0%, 0%, 0%)" stroke-opacity="1" stroke-miterlimit="10" d="M 2480.937463 1571.914039 L 2480.937463 1601.015601 " transform="matrix(0.2, 0, 0, -0.2, 0, 572)"/>
<path fill="none" stroke-width="7.9701" stroke-linecap="butt" stroke-linejoin="miter" stroke="rgb(0%, 0%, 0%)" stroke-opacity="1" stroke-miterlimit="10" d="M 2480.937463 1601.015601 L 2480.937463 1630.078101 " transform="matrix(0.2, 0, 0, -0.2, 0, 572)"/>
<path fill="none" stroke-width="7.9701" stroke-linecap="butt" stroke-linejoin="miter" stroke="rgb(0%, 0%, 0%)" stroke-opacity="1" stroke-miterlimit="10" d="M 2480.937463 1688.242162 L 2480.937463 1717.304662 " transform="matrix(0.2, 0, 0, -0.2, 0, 572)"/>
<path fill="none" stroke-width="7.9701" stroke-linecap="butt" stroke-linejoin="miter" stroke="rgb(0%, 0%, 0%)" stroke-opacity="1" stroke-miterlimit="10" d="M 2480.937463 1717.304662 L 2480.937463 1746.406224 " transform="matrix(0.2, 0, 0, -0.2, 0, 572)"/>
<path fill="none" stroke-width="7.9701" stroke-linecap="butt" stroke-linejoin="miter" stroke="rgb(0%, 0%, 0%)" stroke-opacity="1" stroke-miterlimit="10" d="M 2480.937463 1804.531223 L 2480.937463 1833.632785 " transform="matrix(0.2, 0, 0, -0.2, 0, 572)"/>
<path fill="none" stroke-width="11.9553" stroke-linecap="butt" stroke-linejoin="miter" stroke="rgb(0%, 0%, 0%)" stroke-opacity="1" stroke-miterlimit="10" d="M 189.999997 321.601558 L 2595.507774 1909.218722 " transform="matrix(0.2, 0, 0, -0.2, 0, 572)"/>
<path fill="none" stroke-width="11.9553" stroke-linecap="butt" stroke-linejoin="miter" stroke="rgb(0%, 0%, 0%)" stroke-opacity="1" stroke-miterlimit="10" d="M 189.999997 321.601558 L 419.101556 321.601558 " transform="matrix(0.2, 0, 0, -0.2, 0, 572)"/>
<path fill="none" stroke-width="11.9553" stroke-linecap="butt" stroke-linejoin="miter" stroke="rgb(0%, 0%, 0%)" stroke-opacity="1" stroke-miterlimit="10" d="M 419.101556 321.601558 L 419.101556 472.812493 " transform="matrix(0.2, 0, 0, -0.2, 0, 572)"/>
<path fill="none" stroke-width="11.9553" stroke-linecap="butt" stroke-linejoin="miter" stroke="rgb(0%, 0%, 0%)" stroke-opacity="1" stroke-miterlimit="10" d="M 419.101556 472.812493 L 648.203115 472.812493 " transform="matrix(0.2, 0, 0, -0.2, 0, 572)"/>
<path fill="none" stroke-width="11.9553" stroke-linecap="butt" stroke-linejoin="miter" stroke="rgb(0%, 0%, 0%)" stroke-opacity="1" stroke-miterlimit="10" d="M 648.203115 472.812493 L 648.203115 624.023428 " transform="matrix(0.2, 0, 0, -0.2, 0, 572)"/>
<path fill="none" stroke-width="11.9553" stroke-linecap="butt" stroke-linejoin="miter" stroke="rgb(0%, 0%, 0%)" stroke-opacity="1" stroke-miterlimit="10" d="M 648.203115 624.023428 L 877.265612 624.023428 " transform="matrix(0.2, 0, 0, -0.2, 0, 572)"/>
<path fill="none" stroke-width="11.9553" stroke-linecap="butt" stroke-linejoin="miter" stroke="rgb(0%, 0%, 0%)" stroke-opacity="1" stroke-miterlimit="10" d="M 877.265612 624.023428 L 877.265612 775.195301 " transform="matrix(0.2, 0, 0, -0.2, 0, 572)"/>
<path fill="none" stroke-width="11.9553" stroke-linecap="butt" stroke-linejoin="miter" stroke="rgb(0%, 0%, 0%)" stroke-opacity="1" stroke-miterlimit="10" d="M 877.265612 775.195301 L 1106.367171 775.195301 " transform="matrix(0.2, 0, 0, -0.2, 0, 572)"/>
<path fill="none" stroke-width="11.9553" stroke-linecap="butt" stroke-linejoin="miter" stroke="rgb(0%, 0%, 0%)" stroke-opacity="1" stroke-miterlimit="10" d="M 1106.367171 775.195301 L 1106.367171 926.406236 " transform="matrix(0.2, 0, 0, -0.2, 0, 572)"/>
<path fill="none" stroke-width="11.9553" stroke-linecap="butt" stroke-linejoin="miter" stroke="rgb(0%, 0%, 0%)" stroke-opacity="1" stroke-miterlimit="10" d="M 1106.367171 926.406236 L 1335.46873 926.406236 " transform="matrix(0.2, 0, 0, -0.2, 0, 572)"/>
<path fill="none" stroke-width="11.9553" stroke-linecap="butt" stroke-linejoin="miter" stroke="rgb(0%, 0%, 0%)" stroke-opacity="1" stroke-miterlimit="10" d="M 1335.46873 926.406236 L 1335.46873 1077.617171 " transform="matrix(0.2, 0, 0, -0.2, 0, 572)"/>
<path fill="none" stroke-width="11.9553" stroke-linecap="butt" stroke-linejoin="miter" stroke="rgb(0%, 0%, 0%)" stroke-opacity="1" stroke-miterlimit="10" d="M 1335.46873 1077.617171 L 1564.570289 1077.617171 " transform="matrix(0.2, 0, 0, -0.2, 0, 572)"/>
<path fill="none" stroke-width="11.9553" stroke-linecap="butt" stroke-linejoin="miter" stroke="rgb(0%, 0%, 0%)" stroke-opacity="1" stroke-miterlimit="10" d="M 1564.570289 1077.617171 L 1564.570289 1228.828107 " transform="matrix(0.2, 0, 0, -0.2, 0, 572)"/>
<path fill="none" stroke-width="11.9553" stroke-linecap="butt" stroke-linejoin="miter" stroke="rgb(0%, 0%, 0%)" stroke-opacity="1" stroke-miterlimit="10" d="M 1564.570289 1228.828107 L 1793.632786 1228.828107 " transform="matrix(0.2, 0, 0, -0.2, 0, 572)"/>
<path fill="none" stroke-width="11.9553" stroke-linecap="butt" stroke-linejoin="miter" stroke="rgb(0%, 0%, 0%)" stroke-opacity="1" stroke-miterlimit="10" d="M 1793.632786 1228.828107 L 1793.632786 1380.039042 " transform="matrix(0.2, 0, 0, -0.2, 0, 572)"/>
<path fill="none" stroke-width="11.9553" stroke-linecap="butt" stroke-linejoin="miter" stroke="rgb(0%, 0%, 0%)" stroke-opacity="1" stroke-miterlimit="10" d="M 1793.632786 1380.039042 L 2022.734345 1380.039042 " transform="matrix(0.2, 0, 0, -0.2, 0, 572)"/>
<path fill="none" stroke-width="11.9553" stroke-linecap="butt" stroke-linejoin="miter" stroke="rgb(0%, 0%, 0%)" stroke-opacity="1" stroke-miterlimit="10" d="M 2022.734345 1380.039042 L 2022.734345 1531.210915 " transform="matrix(0.2, 0, 0, -0.2, 0, 572)"/>
<path fill="none" stroke-width="11.9553" stroke-linecap="butt" stroke-linejoin="miter" stroke="rgb(0%, 0%, 0%)" stroke-opacity="1" stroke-miterlimit="10" d="M 2022.734345 1531.210915 L 2251.835904 1531.210915 " transform="matrix(0.2, 0, 0, -0.2, 0, 572)"/>
<path fill="none" stroke-width="11.9553" stroke-linecap="butt" stroke-linejoin="miter" stroke="rgb(0%, 0%, 0%)" stroke-opacity="1" stroke-miterlimit="10" d="M 2251.835904 1531.210915 L 2251.835904 1682.42185 " transform="matrix(0.2, 0, 0, -0.2, 0, 572)"/>
<path fill="none" stroke-width="11.9553" stroke-linecap="butt" stroke-linejoin="miter" stroke="rgb(0%, 0%, 0%)" stroke-opacity="1" stroke-miterlimit="10" d="M 2251.835904 1682.42185 L 2480.937463 1682.42185 " transform="matrix(0.2, 0, 0, -0.2, 0, 572)"/>
<path fill="none" stroke-width="11.9553" stroke-linecap="butt" stroke-linejoin="miter" stroke="rgb(0%, 0%, 0%)" stroke-opacity="1" stroke-miterlimit="10" d="M 2480.937463 1682.42185 L 2480.937463 1833.632785 " transform="matrix(0.2, 0, 0, -0.2, 0, 572)"/>
<path fill-rule="nonzero" fill="rgb(100%, 100%, 100%)" fill-opacity="1" d="M -7.0625 421.546875 L 14.539062 421.546875 L 14.539062 442.90625 L -7.0625 442.90625 Z M -7.0625 421.546875 "/>
<path fill-rule="nonzero" fill="rgb(0%, 0%, 0%)" fill-opacity="1" d="M 7.589844 428.597656 C 7.246094 428.597656 6.933594 428.597656 6.652344 428.910156 C 6.308594 429.222656 6.246094 429.597656 6.246094 429.753906 C 6.246094 430.285156 6.652344 430.503906 7.058594 430.503906 C 7.683594 430.503906 8.277344 429.972656 8.277344 429.128906 C 8.277344 428.035156 7.246094 427.222656 5.714844 427.222656 C 2.746094 427.222656 -0.128906 430.347656 -0.128906 433.441406 C -0.128906 435.410156 1.121094 437.128906 3.402344 437.128906 C 6.527344 437.128906 8.339844 434.816406 8.339844 434.535156 C 8.339844 434.410156 8.214844 434.253906 8.089844 434.253906 C 7.964844 434.253906 7.933594 434.316406 7.808594 434.472656 C 6.089844 436.628906 3.683594 436.628906 3.433594 436.628906 C 2.058594 436.628906 1.464844 435.566406 1.464844 434.253906 C 1.464844 433.378906 1.902344 431.253906 2.652344 429.910156 C 3.339844 428.660156 4.527344 427.722656 5.714844 427.722656 C 6.464844 427.722656 7.308594 428.003906 7.589844 428.597656 Z M 7.589844 428.597656 "/>
<path fill-rule="nonzero" fill="rgb(0%, 0%, 0%)" fill-opacity="1" d="M 34.195312 360.664062 L 33.726562 360.875 L 33.28125 361.109375 L 32.84375 361.351562 L 32.429688 361.609375 L 32.03125 361.882812 L 31.648438 362.171875 L 31.273438 362.46875 L 30.921875 362.78125 L 30.585938 363.101562 L 30.257812 363.445312 L 29.953125 363.789062 L 29.65625 364.15625 L 29.375 364.523438 L 29.109375 364.914062 L 28.851562 365.3125 L 28.609375 365.71875 L 28.382812 366.140625 L 28.164062 366.570312 L 27.960938 367.015625 L 27.765625 367.460938 L 27.585938 367.929688 L 27.414062 368.398438 L 27.257812 368.882812 L 27.101562 369.375 L 26.960938 369.875 L 26.835938 370.390625 L 26.71875 370.914062 L 26.601562 371.445312 L 26.507812 371.976562 L 26.40625 372.523438 L 26.25 373.648438 L 26.179688 374.21875 L 26.117188 374.804688 L 26.0625 375.390625 L 26.015625 375.984375 L 25.96875 376.585938 L 25.9375 377.195312 L 25.90625 377.8125 L 25.882812 378.429688 L 25.851562 379.695312 L 25.84375 380.335938 L 25.835938 380.984375 L 25.835938 382.296875 L 25.84375 382.960938 L 25.859375 383.632812 L 25.867188 384.304688 L 25.890625 384.984375 L 25.90625 385.664062 L 25.921875 386.351562 L 25.945312 387.046875 L 25.96875 387.734375 L 26.039062 389.84375 L 26.109375 391.976562 L 26.140625 392.695312 L 26.15625 393.414062 L 26.179688 394.132812 L 26.195312 394.851562 L 26.21875 395.578125 L 26.226562 396.304688 L 26.242188 397.03125 L 26.257812 398.484375 L 26.257812 399.945312 L 26.25 400.671875 L 26.242188 401.40625 L 26.210938 402.859375 L 26.1875 403.59375 L 26.15625 404.320312 L 26.117188 405.046875 L 26.023438 406.5 L 25.96875 407.21875 L 25.90625 407.9375 L 25.835938 408.664062 L 25.757812 409.375 L 25.671875 410.09375 L 25.46875 411.515625 L 25.359375 412.21875 L 25.234375 412.921875 L 25.101562 413.625 L 24.960938 414.320312 L 24.8125 415.015625 L 24.648438 415.703125 L 24.476562 416.390625 L 24.289062 417.0625 L 24.09375 417.742188 L 23.882812 418.414062 L 23.664062 419.078125 L 23.4375 419.742188 L 23.1875 420.398438 L 22.929688 421.046875 L 22.664062 421.6875 L 22.375 422.328125 L 22.078125 422.960938 L 21.765625 423.585938 L 21.4375 424.203125 L 21.101562 424.820312 L 20.742188 425.421875 L 20.367188 426.023438 L 19.984375 426.617188 L 19.578125 427.195312 L 19.15625 427.773438 L 18.71875 428.34375 L 18.265625 428.90625 L 17.796875 429.453125 L 17.3125 430 L 16.804688 430.53125 L 16.28125 431.054688 L 15.734375 431.570312 L 15.179688 432.078125 L 15.734375 432.585938 L 16.28125 433.101562 L 16.804688 433.625 L 17.3125 434.164062 L 17.796875 434.703125 L 18.265625 435.257812 L 18.71875 435.8125 L 19.15625 436.382812 L 19.578125 436.960938 L 19.984375 437.546875 L 20.367188 438.132812 L 20.742188 438.734375 L 21.101562 439.335938 L 21.4375 439.953125 L 21.765625 440.570312 L 22.078125 441.195312 L 22.375 441.828125 L 22.664062 442.46875 L 22.929688 443.109375 L 23.1875 443.765625 L 23.4375 444.421875 L 23.664062 445.078125 L 23.882812 445.742188 L 24.09375 446.414062 L 24.289062 447.09375 L 24.476562 447.773438 L 24.648438 448.453125 L 24.8125 449.140625 L 24.960938 449.835938 L 25.101562 450.539062 L 25.234375 451.234375 L 25.359375 451.9375 L 25.46875 452.648438 L 25.570312 453.351562 L 25.671875 454.0625 L 25.757812 454.78125 L 25.835938 455.5 L 25.90625 456.21875 L 25.96875 456.9375 L 26.023438 457.664062 L 26.070312 458.382812 L 26.117188 459.109375 L 26.15625 459.835938 L 26.1875 460.570312 L 26.210938 461.296875 L 26.226562 462.023438 L 26.242188 462.757812 L 26.257812 464.210938 L 26.257812 465.671875 L 26.25 466.398438 L 26.242188 467.132812 L 26.226562 467.851562 L 26.21875 468.578125 L 26.195312 469.304688 L 26.179688 470.03125 L 26.15625 470.742188 L 26.140625 471.460938 L 26.109375 472.179688 L 26.085938 472.898438 L 26.0625 473.609375 L 26.039062 474.3125 L 26.015625 475.023438 L 25.992188 475.71875 L 25.96875 476.421875 L 25.945312 477.109375 L 25.921875 477.804688 L 25.90625 478.492188 L 25.890625 479.171875 L 25.867188 479.851562 L 25.859375 480.523438 L 25.84375 481.195312 L 25.835938 481.859375 L 25.835938 483.171875 L 25.84375 483.820312 L 25.851562 484.460938 L 25.882812 485.726562 L 25.90625 486.34375 L 25.9375 486.960938 L 25.96875 487.570312 L 26.0625 488.773438 L 26.117188 489.359375 L 26.179688 489.9375 L 26.25 490.507812 L 26.328125 491.078125 L 26.40625 491.632812 L 26.507812 492.179688 L 26.601562 492.71875 L 26.71875 493.25 L 26.835938 493.765625 L 26.960938 494.28125 L 27.101562 494.78125 L 27.257812 495.273438 L 27.414062 495.757812 L 27.585938 496.234375 L 27.765625 496.695312 L 27.960938 497.148438 L 28.164062 497.585938 L 28.382812 498.015625 L 28.609375 498.4375 L 28.851562 498.851562 L 29.109375 499.242188 L 29.375 499.632812 L 29.65625 500.007812 L 29.953125 500.367188 L 30.257812 500.71875 L 30.585938 501.054688 L 30.921875 501.375 L 31.273438 501.6875 L 31.648438 501.992188 L 32.03125 502.273438 L 32.429688 502.546875 L 32.84375 502.804688 L 33.28125 503.046875 L 33.726562 503.28125 L 34.195312 503.492188 L 33.539062 503.179688 L 32.914062 502.84375 L 32.304688 502.507812 L 31.71875 502.15625 L 31.15625 501.796875 L 30.617188 501.421875 L 30.09375 501.039062 L 29.601562 500.648438 L 29.117188 500.25 L 28.664062 499.835938 L 28.226562 499.414062 L 27.8125 498.984375 L 27.414062 498.546875 L 27.03125 498.101562 L 26.671875 497.648438 L 26.328125 497.179688 L 26.007812 496.710938 L 25.695312 496.226562 L 25.40625 495.742188 L 25.132812 495.242188 L 24.875 494.734375 L 24.632812 494.226562 L 24.40625 493.703125 L 24.195312 493.179688 L 24 492.640625 L 23.8125 492.101562 L 23.648438 491.554688 L 23.492188 490.992188 L 23.351562 490.4375 L 23.21875 489.867188 L 23.101562 489.289062 L 23 488.710938 L 22.90625 488.125 L 22.820312 487.53125 L 22.75 486.929688 L 22.6875 486.328125 L 22.640625 485.71875 L 22.601562 485.109375 L 22.5625 484.484375 L 22.53125 483.234375 L 22.523438 482.601562 L 22.523438 481.960938 L 22.554688 480.679688 L 22.578125 480.03125 L 22.609375 479.375 L 22.6875 478.0625 L 22.734375 477.398438 L 22.78125 476.726562 L 22.84375 476.0625 L 22.898438 475.390625 L 22.960938 474.710938 L 23.171875 472.671875 L 23.25 471.984375 L 23.320312 471.296875 L 23.476562 469.921875 L 23.5625 469.234375 L 23.875 466.453125 L 23.953125 465.765625 L 24.03125 465.0625 L 24.3125 462.28125 L 24.367188 461.585938 L 24.429688 460.890625 L 24.484375 460.195312 L 24.53125 459.5 L 24.609375 458.109375 L 24.648438 457.421875 L 24.671875 456.734375 L 24.703125 455.359375 L 24.710938 454.671875 L 24.710938 453.992188 L 24.679688 452.632812 L 24.65625 451.953125 L 24.617188 451.28125 L 24.570312 450.617188 L 24.515625 449.945312 L 24.445312 449.28125 L 24.367188 448.617188 L 24.28125 447.960938 L 24.179688 447.3125 L 24.070312 446.664062 L 23.945312 446.015625 L 23.8125 445.367188 L 23.664062 444.734375 L 23.5 444.101562 L 23.320312 443.46875 L 23.132812 442.84375 L 22.921875 442.226562 L 22.703125 441.617188 L 22.46875 441 L 22.21875 440.398438 L 21.953125 439.804688 L 21.664062 439.210938 L 21.367188 438.617188 L 21.046875 438.039062 L 20.71875 437.460938 L 20.359375 436.898438 L 19.992188 436.328125 L 19.601562 435.773438 L 19.195312 435.226562 L 18.765625 434.6875 L 18.3125 434.148438 L 17.84375 433.617188 L 17.359375 433.101562 L 16.851562 432.585938 L 16.320312 432.078125 L 16.851562 431.570312 L 17.359375 431.0625 L 17.84375 430.539062 L 18.3125 430.007812 L 18.765625 429.476562 L 19.195312 428.929688 L 19.601562 428.382812 L 19.992188 427.828125 L 20.359375 427.265625 L 20.71875 426.695312 L 21.046875 426.117188 L 21.367188 425.539062 L 21.664062 424.953125 L 21.953125 424.359375 L 22.21875 423.757812 L 22.46875 423.15625 L 22.703125 422.546875 L 22.921875 421.929688 L 23.132812 421.3125 L 23.320312 420.6875 L 23.5 420.0625 L 23.664062 419.421875 L 23.8125 418.789062 L 23.945312 418.148438 L 24.070312 417.5 L 24.179688 416.851562 L 24.28125 416.195312 L 24.367188 415.539062 L 24.445312 414.875 L 24.515625 414.210938 L 24.570312 413.546875 L 24.617188 412.875 L 24.65625 412.203125 L 24.679688 411.523438 L 24.695312 410.84375 L 24.710938 410.171875 L 24.710938 409.484375 L 24.703125 408.804688 L 24.671875 407.429688 L 24.648438 406.734375 L 24.609375 406.046875 L 24.570312 405.351562 L 24.53125 404.664062 L 24.484375 403.96875 L 24.429688 403.273438 L 24.367188 402.578125 L 24.3125 401.875 L 24.03125 399.09375 L 23.640625 395.617188 L 23.5625 394.929688 L 23.476562 394.234375 L 23.320312 392.859375 L 23.25 392.171875 L 23.171875 391.484375 L 22.960938 389.445312 L 22.898438 388.773438 L 22.84375 388.101562 L 22.78125 387.429688 L 22.6875 386.101562 L 22.648438 385.4375 L 22.609375 384.78125 L 22.578125 384.125 L 22.554688 383.476562 L 22.523438 382.195312 L 22.523438 381.554688 L 22.53125 380.921875 L 22.5625 379.671875 L 22.640625 378.4375 L 22.6875 377.828125 L 22.75 377.226562 L 22.820312 376.625 L 22.90625 376.03125 L 23 375.445312 L 23.101562 374.867188 L 23.21875 374.296875 L 23.351562 373.726562 L 23.492188 373.164062 L 23.648438 372.609375 L 23.8125 372.0625 L 24 371.515625 L 24.195312 370.984375 L 24.40625 370.453125 L 24.632812 369.9375 L 24.875 369.421875 L 25.132812 368.914062 L 25.40625 368.421875 L 25.695312 367.929688 L 26.007812 367.445312 L 26.328125 366.976562 L 26.671875 366.507812 L 27.03125 366.054688 L 27.414062 365.609375 L 27.8125 365.171875 L 28.226562 364.742188 L 28.664062 364.320312 L 29.117188 363.90625 L 29.601562 363.507812 L 30.09375 363.117188 L 30.617188 362.734375 L 31.15625 362.367188 L 31.71875 362.007812 L 32.304688 361.648438 L 32.914062 361.3125 L 33.539062 360.984375 L 34.195312 360.664062 "/>
<path fill="none" stroke-width="3.985" stroke-linecap="butt" stroke-linejoin="miter" stroke="rgb(0%, 0%, 0%)" stroke-opacity="1" stroke-miterlimit="10" d="M 170.97656 1056.679672 L 168.63281 1055.624984 L 166.406248 1054.453109 L 164.218748 1053.242172 L 162.148435 1051.953109 L 160.156248 1050.585922 L 158.242185 1049.140609 L 156.367185 1047.656234 L 154.609373 1046.093734 L 152.929685 1044.492172 L 151.28906 1042.773422 L 149.765623 1041.054672 L 148.281248 1039.218735 L 146.874998 1037.382797 L 145.546873 1035.429672 L 144.25781 1033.437485 L 143.046873 1031.406235 L 141.91406 1029.29686 L 140.82031 1027.148422 L 139.804685 1024.92186 L 138.828123 1022.695297 L 137.929685 1020.351547 L 137.07031 1018.007797 L 136.28906 1015.585922 L 135.50781 1013.124985 L 134.804685 1010.624985 L 134.179686 1008.04686 L 133.593748 1005.429673 L 133.007811 1002.773423 L 132.539061 1000.117173 L 132.031248 997.382798 L 131.249998 991.757798 L 130.898436 988.906235 L 130.585936 985.976548 L 130.312498 983.04686 L 130.078123 980.07811 L 129.843748 977.070298 L 129.687498 974.023423 L 129.531248 970.937486 L 129.414061 967.851548 L 129.257811 961.523423 L 129.218748 958.320298 L 129.179686 955.078111 L 129.179686 948.515611 L 129.218748 945.195298 L 129.296873 941.835923 L 129.335936 938.476549 L 129.453123 935.078111 L 129.531248 931.679674 L 129.609373 928.242174 L 129.726561 924.765611 L 129.843748 921.328111 L 130.195311 910.781236 L 130.546873 900.117174 L 130.703123 896.523424 L 130.781248 892.929674 L 130.898436 889.335924 L 130.976561 885.742174 L 131.093748 882.109362 L 131.132811 878.476549 L 131.210936 874.843737 L 131.289061 867.578112 L 131.289061 860.273425 L 131.249998 856.640612 L 131.210936 852.968737 L 131.054686 845.703112 L 130.937498 842.031237 L 130.781248 838.398425 L 130.585936 834.765613 L 130.117186 827.499988 L 129.843748 823.906238 L 129.531248 820.312488 L 129.179686 816.679675 L 128.789061 813.124988 L 128.359373 809.531238 L 127.343748 802.421863 L 126.796873 798.906238 L 126.171873 795.390613 L 125.507811 791.874988 L 124.804686 788.398426 L 124.062498 784.921863 L 123.242186 781.484363 L 122.382811 778.046863 L 121.445311 774.687488 L 120.468748 771.289051 L 119.414061 767.929676 L 118.320311 764.609364 L 117.187498 761.289051 L 115.937498 758.007801 L 114.648436 754.765614 L 113.320311 751.562489 L 111.874998 748.359364 L 110.390623 745.195301 L 108.828123 742.070301 L 107.187498 738.984364 L 105.507811 735.898427 L 103.710936 732.890614 L 101.835936 729.882802 L 99.921874 726.914052 L 97.890624 724.023427 L 95.781249 721.132802 L 93.593749 718.281239 L 91.328124 715.468739 L 88.984374 712.734364 L 86.562499 709.999989 L 84.023436 707.343739 L 81.406249 704.726552 L 78.671874 702.148427 L 75.898436 699.609365 L 78.671874 697.070302 L 81.406249 694.492177 L 84.023436 691.87499 L 86.562499 689.179677 L 88.984374 686.484365 L 91.328124 683.710927 L 93.593749 680.93749 L 95.781249 678.085927 L 97.890624 675.195302 L 99.921874 672.265615 L 101.835936 669.335928 L 103.710936 666.328115 L 105.507811 663.320303 L 107.187498 660.234365 L 108.828123 657.148428 L 110.390623 654.023428 L 111.874998 650.859365 L 113.320311 647.65624 L 114.648436 644.453115 L 115.937498 641.171865 L 117.187498 637.890615 L 118.320311 634.609366 L 119.414061 631.289053 L 120.468748 627.929678 L 121.445311 624.531241 L 122.382811 621.132803 L 123.242186 617.734366 L 124.062498 614.296866 L 124.804686 610.820303 L 125.507811 607.304678 L 126.171873 603.828116 L 126.796873 600.312491 L 127.343748 596.757804 L 127.851561 593.242179 L 128.359373 589.687491 L 128.789061 586.093741 L 129.179686 582.499991 L 129.531248 578.906241 L 129.843748 575.312491 L 130.117186 571.679679 L 130.351561 568.085929 L 130.585936 564.453117 L 130.781248 560.820304 L 130.937498 557.148429 L 131.054686 553.515617 L 131.132811 549.882804 L 131.210936 546.210929 L 131.289061 538.945304 L 131.289061 531.640617 L 131.249998 528.007805 L 131.210936 524.33593 L 131.132811 520.74218 L 131.093748 517.109367 L 130.976561 513.476555 L 130.898436 509.843742 L 130.781248 506.289055 L 130.703123 502.695305 L 130.546873 499.101555 L 130.429686 495.507805 L 130.312498 491.953118 L 130.195311 488.437493 L 130.078123 484.882805 L 129.960936 481.406243 L 129.843748 477.890618 L 129.726561 474.453118 L 129.609373 470.976555 L 129.531248 467.539056 L 129.453123 464.140618 L 129.335936 460.742181 L 129.296873 457.382806 L 129.218748 454.023431 L 129.179686 450.703118 L 129.179686 444.140618 L 129.218748 440.898431 L 129.257811 437.695306 L 129.414061 431.367181 L 129.531248 428.281244 L 129.687498 425.195306 L 129.843748 422.148431 L 130.312498 416.132806 L 130.585936 413.203119 L 130.898436 410.312494 L 131.249998 407.460931 L 131.640623 404.609369 L 132.031248 401.835932 L 132.539061 399.101557 L 133.007811 396.406244 L 133.593748 393.749994 L 134.179686 391.171869 L 134.804685 388.593744 L 135.50781 386.093744 L 136.28906 383.632807 L 137.07031 381.210932 L 137.929685 378.828119 L 138.828123 376.523432 L 139.804685 374.257807 L 140.82031 372.070307 L 141.91406 369.921869 L 143.046873 367.812495 L 144.25781 365.742182 L 145.546873 363.789057 L 146.874998 361.835932 L 148.281248 359.960932 L 149.765623 358.164057 L 151.28906 356.406245 L 152.929685 354.726557 L 154.609373 353.124995 L 156.367185 351.562495 L 158.242185 350.039057 L 160.156248 348.632807 L 162.148435 347.26562 L 164.218748 345.976557 L 166.406248 344.76562 L 168.63281 343.593745 L 170.97656 342.539057 L 167.69531 344.101557 L 164.57031 345.781245 L 161.523435 347.460932 L 158.593748 349.218745 L 155.781248 351.01562 L 153.085935 352.89062 L 150.468748 354.804682 L 148.00781 356.757807 L 145.585935 358.749995 L 143.32031 360.820307 L 141.13281 362.929682 L 139.062498 365.07812 L 137.07031 367.26562 L 135.156248 369.492182 L 133.359373 371.757807 L 131.640623 374.101557 L 130.039061 376.445307 L 128.476561 378.867182 L 127.031248 381.289057 L 125.664061 383.789057 L 124.374998 386.328119 L 123.164061 388.867182 L 122.031248 391.484369 L 120.976561 394.101557 L 119.999998 396.796869 L 119.062498 399.492182 L 118.242186 402.226557 L 117.460936 405.039056 L 116.757811 407.812494 L 116.093748 410.664056 L 115.507811 413.554681 L 114.999998 416.445306 L 114.531248 419.374994 L 114.101561 422.343744 L 113.749998 425.351556 L 113.437498 428.359369 L 113.203123 431.406244 L 113.007811 434.453119 L 112.812498 437.578118 L 112.656248 443.828118 L 112.617186 446.992181 L 112.617186 450.195306 L 112.773436 456.601556 L 112.890623 459.843743 L 113.046873 463.124993 L 113.437498 469.687493 L 113.671873 473.007805 L 113.906248 476.36718 L 114.218748 479.687493 L 114.492186 483.046868 L 114.804686 486.445305 L 115.859373 496.640618 L 116.249998 500.078118 L 116.601561 503.515617 L 117.382811 510.390617 L 117.812498 513.828117 L 119.374998 527.734367 L 119.765623 531.171867 L 120.156248 534.687492 L 121.562498 548.593742 L 121.835936 552.070304 L 122.148436 555.546867 L 122.421873 559.023429 L 122.656248 562.499992 L 123.046873 569.453117 L 123.242186 572.890616 L 123.359373 576.328116 L 123.515623 583.203116 L 123.554686 586.640616 L 123.554686 590.039054 L 123.398436 596.835929 L 123.281248 600.234366 L 123.085936 603.593741 L 122.851561 606.914053 L 122.578123 610.273428 L 122.226561 613.593741 L 121.835936 616.914053 L 121.406248 620.195303 L 120.898436 623.437491 L 120.351561 626.679678 L 119.726561 629.921866 L 119.062498 633.164053 L 118.320311 636.328116 L 117.499998 639.492178 L 116.601561 642.65624 L 115.664061 645.78124 L 114.609373 648.867178 L 113.515623 651.914053 L 112.343748 654.99999 L 111.093748 658.007803 L 109.765623 660.976553 L 108.320311 663.945303 L 106.835936 666.914053 L 105.234373 669.804678 L 103.593748 672.695302 L 101.796873 675.507802 L 99.960936 678.359365 L 98.007811 681.132802 L 95.976561 683.867177 L 93.828124 686.56249 L 91.562499 689.257802 L 89.218749 691.914052 L 86.796874 694.492177 L 84.257811 697.070302 L 81.601561 699.609365 L 84.257811 702.148427 L 86.796874 704.687489 L 89.218749 707.304677 L 91.562499 709.960927 L 93.828124 712.617177 L 95.976561 715.351552 L 98.007811 718.085927 L 99.960936 720.859364 L 101.796873 723.671864 L 103.593748 726.523427 L 105.234373 729.414052 L 106.835936 732.304677 L 108.320311 735.234364 L 109.765623 738.203114 L 111.093748 741.210926 L 112.343748 744.218739 L 113.515623 747.265614 L 114.609373 750.351551 L 115.664061 753.437489 L 116.601561 756.562489 L 117.499998 759.687489 L 118.320311 762.890614 L 119.062498 766.054676 L 119.726561 769.257801 L 120.351561 772.499988 L 120.898436 775.742176 L 121.406248 779.023426 L 121.835936 782.304676 L 122.226561 785.624988 L 122.578123 788.945301 L 122.851561 792.265613 L 123.085936 795.624988 L 123.281248 798.984363 L 123.398436 802.382801 L 123.476561 805.781238 L 123.554686 809.140613 L 123.554686 812.578113 L 123.515623 815.97655 L 123.359373 822.85155 L 123.242186 826.328113 L 123.046873 829.765613 L 122.851561 833.242175 L 122.656248 836.679675 L 122.421873 840.156237 L 122.148436 843.6328 L 121.835936 847.109362 L 121.562498 850.624987 L 120.156248 864.531237 L 118.203123 881.914049 L 117.812498 885.351549 L 117.382811 888.828112 L 116.601561 895.703112 L 116.249998 899.140612 L 115.859373 902.578112 L 114.804686 912.773424 L 114.492186 916.132799 L 114.218748 919.492174 L 113.906248 922.851549 L 113.437498 929.492174 L 113.242186 932.812486 L 113.046873 936.093736 L 112.890623 939.374986 L 112.773436 942.617173 L 112.617186 949.023423 L 112.617186 952.226548 L 112.656248 955.390611 L 112.812498 961.640611 L 113.203123 967.812486 L 113.437498 970.859361 L 113.749998 973.867173 L 114.101561 976.874985 L 114.531248 979.843735 L 114.999998 982.773423 L 115.507811 985.664048 L 116.093748 988.51561 L 116.757811 991.367173 L 117.460936 994.179673 L 118.242186 996.95311 L 119.062498 999.687485 L 119.999998 1002.42186 L 120.976561 1005.07811 L 122.031248 1007.73436 L 123.164061 1010.312485 L 124.374998 1012.89061 L 125.664061 1015.429672 L 127.031248 1017.89061 L 128.476561 1020.351547 L 130.039061 1022.773422 L 131.640623 1025.117172 L 133.359373 1027.460922 L 135.156248 1029.726547 L 137.07031 1031.95311 L 139.062498 1034.14061 L 141.13281 1036.289047 L 143.32031 1038.398422 L 145.585935 1040.468734 L 148.00781 1042.460922 L 150.468748 1044.414047 L 153.085935 1046.328109 L 155.781248 1048.164047 L 158.593748 1049.960922 L 161.523435 1051.757797 L 164.57031 1053.437484 L 167.69531 1055.078109 Z M 170.97656 1056.679672 " transform="matrix(0.2, 0, 0, -0.2, 0, 572)"/>
<path fill-rule="nonzero" fill="rgb(100%, 100%, 100%)" fill-opacity="1" d="M 8.695312 507.703125 L 37.976562 507.703125 L 37.976562 534.585938 L 8.695312 534.585938 Z M 8.695312 507.703125 "/>
<path fill-rule="nonzero" fill="rgb(0%, 0%, 0%)" fill-opacity="1" d="M 30.875 519.058594 C 30.875 515.527344 28.5625 513.183594 25.3125 513.183594 C 20.59375 513.183594 15.78125 518.121094 15.78125 523.214844 C 15.78125 526.839844 18.21875 529.027344 21.375 529.027344 C 26 529.027344 30.875 524.246094 30.875 519.058594 Z M 21.5 528.464844 C 19.34375 528.464844 17.8125 526.714844 17.8125 523.839844 C 17.8125 522.871094 18.125 519.683594 19.8125 517.121094 C 21.3125 514.871094 23.4375 513.714844 25.15625 513.714844 C 26.96875 513.714844 28.90625 514.933594 28.90625 518.183594 C 28.90625 519.777344 28.34375 523.183594 26.15625 525.839844 C 25.125 527.183594 23.34375 528.464844 21.5 528.464844 Z M 21.5 528.464844 "/>
<path fill-rule="nonzero" fill="rgb(100%, 100%, 100%)" fill-opacity="1" d="M 522.15625 507.703125 L 554.078125 507.703125 L 554.078125 534.585938 L 522.15625 534.585938 Z M 522.15625 507.703125 "/>
<path fill-rule="nonzero" fill="rgb(0%, 0%, 0%)" fill-opacity="1" d="M 538.777344 519.589844 L 536.933594 515.246094 C 536.871094 515.089844 536.808594 514.996094 536.808594 514.964844 C 536.808594 514.839844 537.183594 514.433594 538.121094 514.339844 C 538.339844 514.308594 538.558594 514.308594 538.558594 513.933594 C 538.558594 513.652344 538.277344 513.652344 538.214844 513.652344 C 537.308594 513.652344 536.371094 513.714844 535.464844 513.714844 C 534.933594 513.714844 533.558594 513.652344 533.027344 513.652344 C 532.902344 513.652344 532.621094 513.652344 532.621094 514.089844 C 532.621094 514.339844 532.839844 514.339844 533.121094 514.339844 C 534.433594 514.339844 534.589844 514.558594 534.777344 515.027344 L 537.339844 521.121094 L 532.746094 526.058594 L 532.464844 526.308594 C 531.402344 527.464844 530.371094 527.808594 529.246094 527.871094 C 528.964844 527.902344 528.777344 527.902344 528.777344 528.308594 C 528.777344 528.339844 528.777344 528.558594 529.058594 528.558594 C 529.714844 528.558594 530.433594 528.496094 531.121094 528.496094 C 531.902344 528.496094 532.777344 528.558594 533.558594 528.558594 C 533.683594 528.558594 533.933594 528.558594 533.933594 528.121094 C 533.933594 527.902344 533.714844 527.871094 533.683594 527.871094 C 533.496094 527.871094 532.808594 527.808594 532.808594 527.214844 C 532.808594 526.871094 533.121094 526.496094 533.402344 526.214844 L 535.621094 523.871094 L 537.589844 521.746094 L 539.777344 526.933594 C 539.871094 527.183594 539.902344 527.214844 539.902344 527.246094 C 539.902344 527.433594 539.496094 527.808594 538.621094 527.871094 C 538.402344 527.902344 538.183594 527.933594 538.183594 528.308594 C 538.183594 528.558594 538.433594 528.558594 538.527344 528.558594 C 539.121094 528.558594 540.652344 528.496094 541.277344 528.496094 C 541.808594 528.496094 543.152344 528.558594 543.683594 528.558594 C 543.839844 528.558594 544.121094 528.558594 544.121094 528.152344 C 544.121094 527.871094 543.902344 527.871094 543.714844 527.871094 C 542.246094 527.871094 542.214844 527.808594 541.839844 526.933594 C 540.996094 524.902344 539.527344 521.496094 539.027344 520.183594 C 540.496094 518.652344 542.808594 516.058594 543.496094 515.464844 C 544.121094 514.933594 544.964844 514.402344 546.277344 514.339844 C 546.558594 514.308594 546.746094 514.308594 546.746094 513.902344 C 546.746094 513.871094 546.746094 513.652344 546.464844 513.652344 C 545.808594 513.652344 545.089844 513.714844 544.402344 513.714844 C 543.589844 513.714844 542.777344 513.652344 541.996094 513.652344 C 541.871094 513.652344 541.589844 513.652344 541.589844 514.089844 C 541.589844 514.246094 541.683594 514.308594 541.839844 514.339844 C 542.027344 514.371094 542.714844 514.402344 542.714844 515.027344 C 542.714844 515.308594 542.464844 515.589844 542.308594 515.808594 Z M 538.777344 519.589844 "/>
<path fill-rule="nonzero" fill="rgb(100%, 100%, 100%)" fill-opacity="1" d="M 8.453125 -5.757812 L 37.976562 -5.757812 L 37.976562 21.125 L 8.453125 21.125 Z M 8.453125 -5.757812 "/>
<path fill-rule="nonzero" fill="rgb(0%, 0%, 0%)" fill-opacity="1" d="M 27.511719 2.691406 L 27.792969 2.378906 C 28.449219 1.722656 29.167969 0.972656 30.667969 0.878906 C 30.917969 0.847656 31.105469 0.847656 31.105469 0.472656 C 31.105469 0.285156 30.980469 0.191406 30.824219 0.191406 C 30.261719 0.191406 29.605469 0.253906 29.042969 0.253906 C 28.324219 0.253906 27.542969 0.191406 26.855469 0.191406 C 26.730469 0.191406 26.449219 0.191406 26.449219 0.628906 C 26.449219 0.847656 26.636719 0.878906 26.761719 0.878906 C 26.917969 0.878906 27.542969 0.910156 27.542969 1.378906 C 27.542969 1.753906 27.042969 2.316406 26.949219 2.410156 L 21.886719 8.253906 L 19.511719 1.785156 C 19.355469 1.472656 19.355469 1.410156 19.355469 1.410156 C 19.355469 0.878906 20.449219 0.878906 20.667969 0.878906 C 20.949219 0.878906 21.167969 0.878906 21.167969 0.441406 C 21.167969 0.191406 20.917969 0.191406 20.855469 0.191406 C 20.230469 0.191406 18.699219 0.253906 18.105469 0.253906 C 17.542969 0.253906 16.199219 0.191406 15.667969 0.191406 C 15.542969 0.191406 15.230469 0.191406 15.230469 0.628906 C 15.230469 0.878906 15.449219 0.878906 15.730469 0.878906 C 17.042969 0.878906 17.136719 1.066406 17.324219 1.628906 L 20.011719 8.785156 C 20.042969 8.847656 20.105469 9.097656 20.105469 9.160156 C 20.105469 9.222656 19.230469 12.753906 19.136719 13.128906 C 18.855469 14.347656 18.824219 14.410156 17.074219 14.410156 C 16.667969 14.410156 16.480469 14.410156 16.480469 14.847656 C 16.480469 15.097656 16.761719 15.097656 16.792969 15.097656 C 17.417969 15.097656 18.917969 15.035156 19.542969 15.035156 C 20.136719 15.035156 21.730469 15.097656 22.324219 15.097656 C 22.480469 15.097656 22.761719 15.097656 22.761719 14.660156 C 22.761719 14.410156 22.542969 14.410156 22.136719 14.410156 C 22.105469 14.410156 21.667969 14.410156 21.292969 14.378906 C 20.855469 14.347656 20.730469 14.285156 20.730469 14.035156 C 20.730469 13.878906 20.917969 13.097656 21.011719 12.660156 L 21.792969 9.566406 C 21.886719 9.160156 21.917969 9.097656 22.105469 8.910156 Z M 27.511719 2.691406 "/>
<path fill="none" stroke-width="11.9553" stroke-linecap="butt" stroke-linejoin="miter" stroke="rgb(0%, 0%, 0%)" stroke-opacity="1" stroke-miterlimit="10" d="M 98.359374 321.601558 L 2710.039022 321.601558 " transform="matrix(0.2, 0, 0, -0.2, 0, 572)"/>
<path fill="none" stroke-width="11.9553" stroke-linecap="butt" stroke-linejoin="miter" stroke="rgb(0%, 0%, 0%)" stroke-opacity="1" stroke-miterlimit="10" d="M 189.999997 220.820309 L 189.999997 2841.640583 " transform="matrix(0.2, 0, 0, -0.2, 0, 572)"/>
<path fill-rule="nonzero" fill="rgb(0%, 0%, 0%)" fill-opacity="1" d="M 245.601562 564.300781 C 246.789062 563.894531 248.789062 563.300781 248.789062 561.363281 C 248.789062 559.050781 246.070312 557.988281 244.101562 557.988281 C 243.164062 557.988281 242.195312 558.207031 241.351562 558.707031 C 241.226562 558.769531 241.070312 558.957031 240.914062 558.957031 C 240.601562 558.957031 240.039062 557.988281 239.726562 557.988281 C 239.539062 557.988281 239.507812 558.207031 239.507812 558.300781 L 239.507812 561.863281 C 239.507812 561.988281 239.601562 562.144531 239.789062 562.144531 C 240.101562 562.144531 240.070312 561.519531 240.164062 561.175781 C 240.632812 559.457031 242.195312 558.707031 243.695312 558.613281 L 244.101562 558.613281 C 245.445312 558.613281 247.007812 559.488281 247.007812 561.363281 C 247.007812 563.175781 245.226562 564.113281 243.570312 564.113281 C 243.257812 564.113281 242.945312 564.113281 242.632812 564.113281 L 242.476562 564.113281 C 242.289062 564.113281 242.070312 564.113281 242.070312 564.332031 L 242.070312 564.363281 C 242.101562 564.550781 242.289062 564.582031 242.476562 564.582031 L 244.320312 564.582031 C 245.882812 564.707031 247.320312 565.738281 247.476562 567.363281 L 247.476562 567.582031 C 247.476562 569.425781 245.757812 570.582031 244.007812 570.582031 C 242.101562 570.582031 240.132812 569.957031 239.820312 567.582031 C 239.820312 567.425781 239.757812 567.238281 239.539062 567.238281 C 239.320312 567.269531 239.289062 567.425781 239.289062 567.582031 C 239.289062 570.175781 241.882812 571.207031 244.132812 571.207031 C 246.195312 571.207031 249.070312 570.238281 249.320312 567.769531 L 249.320312 567.644531 C 249.320312 565.675781 247.257812 564.707031 245.601562 564.300781 Z M 245.601562 564.300781 "/>
<path fill-rule="nonzero" fill="rgb(0%, 0%, 0%)" fill-opacity="1" d="M 257.695312 557.988281 C 254.320312 558.394531 251.632812 561.050781 251.632812 564.644531 C 251.632812 567.925781 254.226562 571.175781 258.101562 571.175781 C 261.601562 571.175781 264.570312 568.269531 264.570312 564.644531 C 264.570312 561.457031 262.070312 557.988281 258.132812 557.988281 C 258.007812 557.988281 257.851562 557.988281 257.695312 557.988281 Z M 253.507812 564.863281 L 253.507812 564.519531 C 253.507812 562.019531 254.414062 559.082031 257.570312 558.550781 C 257.757812 558.519531 257.914062 558.519531 258.101562 558.519531 C 260.914062 558.519531 262.664062 561.238281 262.664062 564.269531 C 262.664062 566.675781 261.945312 569.738281 258.976562 570.519531 C 258.695312 570.582031 258.414062 570.613281 258.132812 570.613281 L 257.945312 570.613281 C 255.351562 570.519531 253.945312 568.050781 253.601562 565.644531 Z M 253.507812 564.863281 "/>
<path fill-rule="nonzero" fill="rgb(0%, 0%, 0%)" fill-opacity="1" d="M 267.027344 558.332031 L 267.027344 558.925781 L 267.464844 558.925781 C 268.058594 558.925781 268.683594 559.019531 268.683594 559.894531 L 268.683594 569.363281 C 268.683594 570.207031 267.964844 570.238281 267.308594 570.238281 L 267.027344 570.238281 L 267.027344 570.832031 L 272.808594 570.832031 C 273.214844 570.832031 273.589844 570.863281 273.996094 570.863281 C 275.996094 570.863281 278.339844 569.925781 278.558594 567.519531 L 278.558594 567.332031 C 278.558594 564.800781 275.683594 563.769531 273.777344 563.769531 C 272.527344 563.769531 271.339844 563.894531 270.152344 563.988281 L 270.152344 559.769531 C 270.152344 559.332031 270.214844 558.925781 270.996094 558.925781 L 273.308594 558.925781 C 274.277344 558.925781 275.371094 558.988281 276.089844 559.707031 C 276.777344 560.425781 276.871094 561.644531 276.964844 562.582031 L 277.496094 562.582031 L 277.027344 558.332031 Z M 270.152344 564.613281 C 270.402344 564.613281 270.652344 564.550781 270.902344 564.519531 L 272.277344 564.457031 C 272.558594 564.425781 272.839844 564.394531 273.152344 564.394531 C 274.714844 564.394531 276.683594 565.394531 276.683594 567.238281 C 276.683594 568.988281 275.339844 570.269531 273.339844 570.269531 C 273.058594 570.269531 272.746094 570.238281 272.496094 570.238281 L 270.964844 570.238281 C 270.496094 570.238281 270.246094 570.207031 270.152344 569.582031 Z M 270.152344 564.613281 "/>
<path fill-rule="nonzero" fill="rgb(0%, 0%, 0%)" fill-opacity="1" d="M 280.910156 558.332031 L 280.910156 558.925781 L 281.378906 558.925781 C 281.972656 558.925781 282.566406 559.019531 282.566406 559.894531 L 282.566406 569.363281 C 282.566406 570.207031 281.878906 570.238281 281.191406 570.238281 L 280.910156 570.238281 L 280.910156 570.832031 L 285.816406 570.832031 L 285.816406 570.238281 L 285.378906 570.238281 C 284.753906 570.238281 284.160156 570.175781 284.160156 569.300781 L 284.160156 565.113281 L 287.878906 565.113281 C 289.660156 564.988281 291.941406 563.800781 291.941406 561.769531 C 291.941406 559.550781 289.597656 558.488281 287.691406 558.332031 Z M 284.128906 564.582031 L 284.128906 559.582031 C 284.222656 558.988281 284.472656 558.925781 284.878906 558.925781 L 286.316406 558.925781 C 287.941406 558.925781 290.066406 558.988281 290.066406 561.769531 C 290.066406 562.425781 289.972656 563.113281 289.566406 563.613281 C 288.910156 564.394531 287.816406 564.582031 286.847656 564.582031 Z M 284.128906 564.582031 "/>
<path fill-rule="nonzero" fill="rgb(0%, 0%, 0%)" fill-opacity="1" d="M 296.636719 568.550781 C 296.136719 568.644531 295.636719 569.082031 295.636719 569.675781 C 295.636719 570.300781 296.167969 570.832031 296.792969 570.832031 C 297.417969 570.832031 297.980469 570.363281 297.980469 569.707031 C 297.980469 569.082031 297.449219 568.519531 296.824219 568.519531 C 296.761719 568.519531 296.699219 568.550781 296.636719 568.550781 Z M 296.636719 568.550781 "/>
<path fill-rule="nonzero" fill="rgb(0%, 0%, 0%)" fill-opacity="1" d="M 310.195312 566.832031 L 316.789062 566.832031 L 316.789062 569.113281 C 316.789062 570.144531 315.976562 570.144531 314.414062 570.144531 L 314.414062 570.832031 L 320.851562 570.832031 L 320.851562 570.144531 C 320.570312 570.144531 320.257812 570.175781 319.945312 570.175781 C 319.132812 570.175781 318.476562 570.050781 318.476562 569.113281 L 318.476562 566.832031 L 321.007812 566.832031 L 321.007812 566.144531 L 318.476562 566.144531 L 318.476562 555.019531 L 318.382812 554.738281 L 317.914062 554.738281 L 317.601562 555.144531 L 310.195312 566.144531 Z M 310.789062 566.144531 L 316.882812 557.082031 L 316.882812 566.144531 Z M 310.789062 566.144531 "/>
<path fill-rule="nonzero" fill="rgb(0%, 0%, 0%)" fill-opacity="1" d="M 326.902344 562.769531 C 325.371094 563.707031 323.214844 564.613281 323.214844 567.238281 C 323.214844 569.738281 325.652344 571.332031 328.277344 571.332031 C 330.589844 571.332031 333.371094 569.894531 333.371094 566.957031 C 333.371094 565.957031 333.058594 565.019531 332.433594 564.269531 C 331.683594 563.363281 330.589844 562.863281 329.621094 562.207031 C 331.089844 561.550781 332.683594 560.300781 332.683594 558.457031 C 332.683594 556.175781 330.496094 555.082031 328.621094 554.957031 L 328.339844 554.957031 C 326.183594 554.957031 323.902344 556.394531 323.902344 558.863281 C 323.902344 560.613281 325.183594 561.925781 326.902344 562.769531 Z M 324.308594 567.488281 C 324.308594 567.394531 324.308594 567.300781 324.308594 567.207031 C 324.308594 565.488281 325.652344 564.113281 327.058594 563.300781 C 327.152344 563.269531 327.277344 563.175781 327.402344 563.175781 C 327.589844 563.175781 327.746094 563.300781 327.871094 563.394531 C 328.621094 563.894531 329.402344 564.394531 330.183594 564.863281 C 331.152344 565.488281 332.277344 566.238281 332.277344 567.457031 C 332.277344 569.582031 330.214844 570.707031 328.339844 570.707031 C 326.496094 570.707031 324.621094 569.582031 324.308594 567.488281 Z M 324.902344 558.207031 C 324.902344 556.394531 326.652344 555.519531 328.246094 555.519531 C 329.871094 555.519531 331.433594 556.457031 331.714844 558.269531 L 331.714844 558.488281 C 331.714844 559.925781 330.527344 561.113281 329.433594 561.707031 C 329.339844 561.769531 329.246094 561.863281 329.121094 561.863281 C 328.902344 561.863281 328.277344 561.363281 327.902344 561.144531 C 326.714844 560.332031 325.121094 559.707031 324.902344 558.207031 Z M 324.902344 558.207031 "/>
<path fill-rule="nonzero" fill="rgb(0%, 0%, 0%)" fill-opacity="1" d="M 338.144531 568.550781 C 337.644531 568.644531 337.144531 569.082031 337.144531 569.675781 C 337.144531 570.300781 337.675781 570.832031 338.300781 570.832031 C 338.925781 570.832031 339.488281 570.363281 339.488281 569.707031 C 339.488281 569.082031 338.957031 568.519531 338.332031 568.519531 C 338.269531 568.519531 338.207031 568.550781 338.144531 568.550781 Z M 338.144531 568.550781 "/>
</svg>
