<?xml version="1.0" encoding="UTF-8"?>
<svg xmlns="http://www.w3.org/2000/svg" xmlns:xlink="http://www.w3.org/1999/xlink" width="474" height="320" viewBox="0 0 474 320">
<path fill="none" stroke-width="11.9553" stroke-linecap="butt" stroke-linejoin="miter" stroke="rgb(0%, 0%, 0%)" stroke-opacity="1" stroke-miterlimit="10" d="M 0 321.601558 L 179.999997 321.601558 " transform="matrix(0.2, 0, 0, -0.2, 0, 320)"/>
<path fill-rule="nonzero" fill="rgb(0%, 0%, 0%)" fill-opacity="1" d="M -0.507812 249.703125 L 0.695312 249.703125 L 0.695312 261.703125 L -0.507812 261.703125 Z M -0.507812 249.703125 "/>
<path fill-rule="nonzero" fill="rgb(0%, 0%, 0%)" fill-opacity="1" d="M 71.5 249.703125 L 72.703125 249.703125 L 72.703125 261.703125 L 71.5 261.703125 Z M 71.5 249.703125 "/>
<path fill="none" stroke-width="11.9553" stroke-linecap="butt" stroke-linejoin="miter" stroke="rgb(0%, 0%, 0%)" stroke-opacity="1" stroke-miterlimit="10" d="M 359.999995 321.601558 L 719.999989 321.601558 L 719.999989 393.593744 Z M 359.999995 321.601558 " transform="matrix(0.2, 0, 0, -0.2, 0, 320)"/>
<path fill="none" stroke-width="7.9701" stroke-linecap="butt" stroke-linejoin="miter" stroke="rgb(0%, 0%, 0%)" stroke-opacity="1" stroke-miterlimit="10" d="M 539.999992 321.601558 L 539.999992 337.343745 " transform="matrix(0.2, 0, 0, -0.2, 0, 320)"/>
<path fill="none" stroke-width="7.9701" stroke-linecap="butt" stroke-linejoin="miter" stroke="rgb(0%, 0%, 0%)" stroke-opacity="1" stroke-miterlimit="10" d="M 539.999992 368.867182 L 539.999992 384.609369 " transform="matrix(0.2, 0, 0, -0.2, 0, 320)"/>
<path fill="none" stroke-width="7.9701" stroke-linecap="butt" stroke-linejoin="miter" stroke="rgb(0%, 0%, 0%)" stroke-opacity="1" stroke-miterlimit="10" d="M 539.999992 384.609369 L 539.999992 400.351557 " transform="matrix(0.2, 0, 0, -0.2, 0, 320)"/>
<path fill="none" stroke-width="7.9701" stroke-linecap="butt" stroke-linejoin="miter" stroke="rgb(0%, 0%, 0%)" stroke-opacity="1" stroke-miterlimit="10" d="M 539.999992 431.835931 L 539.999992 447.617181 " transform="matrix(0.2, 0, 0, -0.2, 0, 320)"/>
<path fill="none" stroke-width="11.9553" stroke-linecap="butt" stroke-linejoin="miter" stroke="rgb(0%, 0%, 0%)" stroke-opacity="1" stroke-miterlimit="10" d="M 719.999989 393.593744 L 1079.999984 393.593744 L 1079.999984 537.617179 Z M 719.999989 393.593744 " transform="matrix(0.2, 0, 0, -0.2, 0, 320)"/>
<path fill="none" stroke-width="7.9701" stroke-linecap="butt" stroke-linejoin="miter" stroke="rgb(0%, 0%, 0%)" stroke-opacity="1" stroke-miterlimit="10" d="M 899.999987 321.601558 L 899.999987 350.85937 " transform="matrix(0.2, 0, 0, -0.2, 0, 320)"/>
<path fill="none" stroke-width="7.9701" stroke-linecap="butt" stroke-linejoin="miter" stroke="rgb(0%, 0%, 0%)" stroke-opacity="1" stroke-miterlimit="10" d="M 899.999987 409.335931 L 899.999987 438.593743 " transform="matrix(0.2, 0, 0, -0.2, 0, 320)"/>
<path fill="none" stroke-width="7.9701" stroke-linecap="butt" stroke-linejoin="miter" stroke="rgb(0%, 0%, 0%)" stroke-opacity="1" stroke-miterlimit="10" d="M 899.999987 438.593743 L 899.999987 467.851556 " transform="matrix(0.2, 0, 0, -0.2, 0, 320)"/>
<path fill="none" stroke-width="7.9701" stroke-linecap="butt" stroke-linejoin="miter" stroke="rgb(0%, 0%, 0%)" stroke-opacity="1" stroke-miterlimit="10" d="M 899.999987 526.36718 L 899.999987 555.585929 " transform="matrix(0.2, 0, 0, -0.2, 0, 320)"/>
<path fill="none" stroke-width="11.9553" stroke-linecap="butt" stroke-linejoin="miter" stroke="rgb(0%, 0%, 0%)" stroke-opacity="1" stroke-miterlimit="10" d="M 1079.999984 537.617179 L 1440.039041 537.617179 L 1440.039041 753.593739 Z M 1079.999984 537.617179 " transform="matrix(0.2, 0, 0, -0.2, 0, 320)"/>
<path fill="none" stroke-width="7.9701" stroke-linecap="butt" stroke-linejoin="miter" stroke="rgb(0%, 0%, 0%)" stroke-opacity="1" stroke-miterlimit="10" d="M 1260.039044 321.601558 L 1260.039044 347.460932 " transform="matrix(0.2, 0, 0, -0.2, 0, 320)"/>
<path fill="none" stroke-width="7.9701" stroke-linecap="butt" stroke-linejoin="miter" stroke="rgb(0%, 0%, 0%)" stroke-opacity="1" stroke-miterlimit="10" d="M 1260.039044 399.218744 L 1260.039044 425.117181 " transform="matrix(0.2, 0, 0, -0.2, 0, 320)"/>
<path fill="none" stroke-width="7.9701" stroke-linecap="butt" stroke-linejoin="miter" stroke="rgb(0%, 0%, 0%)" stroke-opacity="1" stroke-miterlimit="10" d="M 1260.039044 425.117181 L 1260.039044 450.976556 " transform="matrix(0.2, 0, 0, -0.2, 0, 320)"/>
<path fill="none" stroke-width="7.9701" stroke-linecap="butt" stroke-linejoin="miter" stroke="rgb(0%, 0%, 0%)" stroke-opacity="1" stroke-miterlimit="10" d="M 1260.039044 502.734368 L 1260.039044 528.593742 " transform="matrix(0.2, 0, 0, -0.2, 0, 320)"/>
<path fill="none" stroke-width="7.9701" stroke-linecap="butt" stroke-linejoin="miter" stroke="rgb(0%, 0%, 0%)" stroke-opacity="1" stroke-miterlimit="10" d="M 1260.039044 528.593742 L 1260.039044 554.492179 " transform="matrix(0.2, 0, 0, -0.2, 0, 320)"/>
<path fill="none" stroke-width="7.9701" stroke-linecap="butt" stroke-linejoin="miter" stroke="rgb(0%, 0%, 0%)" stroke-opacity="1" stroke-miterlimit="10" d="M 1260.039044 606.210928 L 1260.039044 632.109366 " transform="matrix(0.2, 0, 0, -0.2, 0, 320)"/>
<path fill="none" stroke-width="7.9701" stroke-linecap="butt" stroke-linejoin="miter" stroke="rgb(0%, 0%, 0%)" stroke-opacity="1" stroke-miterlimit="10" d="M 1260.039044 632.109366 L 1260.039044 657.96874 " transform="matrix(0.2, 0, 0, -0.2, 0, 320)"/>
<path fill="none" stroke-width="7.9701" stroke-linecap="butt" stroke-linejoin="miter" stroke="rgb(0%, 0%, 0%)" stroke-opacity="1" stroke-miterlimit="10" d="M 1260.039044 709.726552 L 1260.039044 735.585927 " transform="matrix(0.2, 0, 0, -0.2, 0, 320)"/>
<path fill="none" stroke-width="11.9553" stroke-linecap="butt" stroke-linejoin="miter" stroke="rgb(0%, 0%, 0%)" stroke-opacity="1" stroke-miterlimit="10" d="M 1440.039041 753.593739 L 1800.039036 753.593739 L 1800.039036 1041.601547 Z M 1440.039041 753.593739 " transform="matrix(0.2, 0, 0, -0.2, 0, 320)"/>
<path fill="none" stroke-width="7.9701" stroke-linecap="butt" stroke-linejoin="miter" stroke="rgb(0%, 0%, 0%)" stroke-opacity="1" stroke-miterlimit="10" d="M 1620.039038 321.601558 L 1620.039038 349.335932 " transform="matrix(0.2, 0, 0, -0.2, 0, 320)"/>
<path fill="none" stroke-width="7.9701" stroke-linecap="butt" stroke-linejoin="miter" stroke="rgb(0%, 0%, 0%)" stroke-opacity="1" stroke-miterlimit="10" d="M 1620.039038 404.843744 L 1620.039038 432.617181 " transform="matrix(0.2, 0, 0, -0.2, 0, 320)"/>
<path fill="none" stroke-width="7.9701" stroke-linecap="butt" stroke-linejoin="miter" stroke="rgb(0%, 0%, 0%)" stroke-opacity="1" stroke-miterlimit="10" d="M 1620.039038 432.617181 L 1620.039038 460.351556 " transform="matrix(0.2, 0, 0, -0.2, 0, 320)"/>
<path fill="none" stroke-width="7.9701" stroke-linecap="butt" stroke-linejoin="miter" stroke="rgb(0%, 0%, 0%)" stroke-opacity="1" stroke-miterlimit="10" d="M 1620.039038 515.859367 L 1620.039038 543.593742 " transform="matrix(0.2, 0, 0, -0.2, 0, 320)"/>
<path fill="none" stroke-width="7.9701" stroke-linecap="butt" stroke-linejoin="miter" stroke="rgb(0%, 0%, 0%)" stroke-opacity="1" stroke-miterlimit="10" d="M 1620.039038 543.593742 L 1620.039038 571.367179 " transform="matrix(0.2, 0, 0, -0.2, 0, 320)"/>
<path fill="none" stroke-width="7.9701" stroke-linecap="butt" stroke-linejoin="miter" stroke="rgb(0%, 0%, 0%)" stroke-opacity="1" stroke-miterlimit="10" d="M 1620.039038 626.874991 L 1620.039038 654.609365 " transform="matrix(0.2, 0, 0, -0.2, 0, 320)"/>
<path fill="none" stroke-width="7.9701" stroke-linecap="butt" stroke-linejoin="miter" stroke="rgb(0%, 0%, 0%)" stroke-opacity="1" stroke-miterlimit="10" d="M 1620.039038 654.609365 L 1620.039038 682.34374 " transform="matrix(0.2, 0, 0, -0.2, 0, 320)"/>
<path fill="none" stroke-width="7.9701" stroke-linecap="butt" stroke-linejoin="miter" stroke="rgb(0%, 0%, 0%)" stroke-opacity="1" stroke-miterlimit="10" d="M 1620.039038 737.851552 L 1620.039038 765.585926 " transform="matrix(0.2, 0, 0, -0.2, 0, 320)"/>
<path fill="none" stroke-width="7.9701" stroke-linecap="butt" stroke-linejoin="miter" stroke="rgb(0%, 0%, 0%)" stroke-opacity="1" stroke-miterlimit="10" d="M 1620.039038 765.585926 L 1620.039038 793.359363 " transform="matrix(0.2, 0, 0, -0.2, 0, 320)"/>
<path fill="none" stroke-width="7.9701" stroke-linecap="butt" stroke-linejoin="miter" stroke="rgb(0%, 0%, 0%)" stroke-opacity="1" stroke-miterlimit="10" d="M 1620.039038 848.867175 L 1620.039038 876.601549 " transform="matrix(0.2, 0, 0, -0.2, 0, 320)"/>
<path fill="none" stroke-width="7.9701" stroke-linecap="butt" stroke-linejoin="miter" stroke="rgb(0%, 0%, 0%)" stroke-opacity="1" stroke-miterlimit="10" d="M 1620.039038 876.601549 L 1620.039038 904.335924 " transform="matrix(0.2, 0, 0, -0.2, 0, 320)"/>
<path fill="none" stroke-width="7.9701" stroke-linecap="butt" stroke-linejoin="miter" stroke="rgb(0%, 0%, 0%)" stroke-opacity="1" stroke-miterlimit="10" d="M 1620.039038 959.843736 L 1620.039038 987.617173 " transform="matrix(0.2, 0, 0, -0.2, 0, 320)"/>
<path fill="none" stroke-width="11.9553" stroke-linecap="butt" stroke-linejoin="miter" stroke="rgb(0%, 0%, 0%)" stroke-opacity="1" stroke-miterlimit="10" d="M 1800.039036 1041.601547 L 2160.03903 1041.601547 L 2160.03903 1401.601542 Z M 1800.039036 1041.601547 " transform="matrix(0.2, 0, 0, -0.2, 0, 320)"/>
<path fill="none" stroke-width="7.9701" stroke-linecap="butt" stroke-linejoin="miter" stroke="rgb(0%, 0%, 0%)" stroke-opacity="1" stroke-miterlimit="10" d="M 1980.039033 321.601558 L 1980.039033 349.101557 " transform="matrix(0.2, 0, 0, -0.2, 0, 320)"/>
<path fill="none" stroke-width="7.9701" stroke-linecap="butt" stroke-linejoin="miter" stroke="rgb(0%, 0%, 0%)" stroke-opacity="1" stroke-miterlimit="10" d="M 1980.039033 404.101556 L 1980.039033 431.601556 " transform="matrix(0.2, 0, 0, -0.2, 0, 320)"/>
<path fill="none" stroke-width="7.9701" stroke-linecap="butt" stroke-linejoin="miter" stroke="rgb(0%, 0%, 0%)" stroke-opacity="1" stroke-miterlimit="10" d="M 1980.039033 431.601556 L 1980.039033 459.101556 " transform="matrix(0.2, 0, 0, -0.2, 0, 320)"/>
<path fill="none" stroke-width="7.9701" stroke-linecap="butt" stroke-linejoin="miter" stroke="rgb(0%, 0%, 0%)" stroke-opacity="1" stroke-miterlimit="10" d="M 1980.039033 514.101555 L 1980.039033 541.601554 " transform="matrix(0.2, 0, 0, -0.2, 0, 320)"/>
<path fill="none" stroke-width="7.9701" stroke-linecap="butt" stroke-linejoin="miter" stroke="rgb(0%, 0%, 0%)" stroke-opacity="1" stroke-miterlimit="10" d="M 1980.039033 541.601554 L 1980.039033 569.101554 " transform="matrix(0.2, 0, 0, -0.2, 0, 320)"/>
<path fill="none" stroke-width="7.9701" stroke-linecap="butt" stroke-linejoin="miter" stroke="rgb(0%, 0%, 0%)" stroke-opacity="1" stroke-miterlimit="10" d="M 1980.039033 624.101553 L 1980.039033 651.601553 " transform="matrix(0.2, 0, 0, -0.2, 0, 320)"/>
<path fill="none" stroke-width="7.9701" stroke-linecap="butt" stroke-linejoin="miter" stroke="rgb(0%, 0%, 0%)" stroke-opacity="1" stroke-miterlimit="10" d="M 1980.039033 651.601553 L 1980.039033 679.101552 " transform="matrix(0.2, 0, 0, -0.2, 0, 320)"/>
<path fill="none" stroke-width="7.9701" stroke-linecap="butt" stroke-linejoin="miter" stroke="rgb(0%, 0%, 0%)" stroke-opacity="1" stroke-miterlimit="10" d="M 1980.039033 734.101552 L 1980.039033 761.601551 " transform="matrix(0.2, 0, 0, -0.2, 0, 320)"/>
<path fill="none" stroke-width="7.9701" stroke-linecap="butt" stroke-linejoin="miter" stroke="rgb(0%, 0%, 0%)" stroke-opacity="1" stroke-miterlimit="10" d="M 1980.039033 761.601551 L 1980.039033 789.101551 " transform="matrix(0.2, 0, 0, -0.2, 0, 320)"/>
<path fill="none" stroke-width="7.9701" stroke-linecap="butt" stroke-linejoin="miter" stroke="rgb(0%, 0%, 0%)" stroke-opacity="1" stroke-miterlimit="10" d="M 1980.039033 844.10155 L 1980.039033 871.60155 " transform="matrix(0.2, 0, 0, -0.2, 0, 320)"/>
<path fill="none" stroke-width="7.9701" stroke-linecap="butt" stroke-linejoin="miter" stroke="rgb(0%, 0%, 0%)" stroke-opacity="1" stroke-miterlimit="10" d="M 1980.039033 871.60155 L 1980.039033 899.101549 " transform="matrix(0.2, 0, 0, -0.2, 0, 320)"/>
<path fill="none" stroke-width="7.9701" stroke-linecap="butt" stroke-linejoin="miter" stroke="rgb(0%, 0%, 0%)" stroke-opacity="1" stroke-miterlimit="10" d="M 1980.039033 954.101548 L 1980.039033 981.601548 " transform="matrix(0.2, 0, 0, -0.2, 0, 320)"/>
<path fill="none" stroke-width="7.9701" stroke-linecap="butt" stroke-linejoin="miter" stroke="rgb(0%, 0%, 0%)" stroke-opacity="1" stroke-miterlimit="10" d="M 1980.039033 981.601548 L 1980.039033 1009.101547 " transform="matrix(0.2, 0, 0, -0.2, 0, 320)"/>
<path fill="none" stroke-width="7.9701" stroke-linecap="butt" stroke-linejoin="miter" stroke="rgb(0%, 0%, 0%)" stroke-opacity="1" stroke-miterlimit="10" d="M 1980.039033 1064.101547 L 1980.039033 1091.601546 " transform="matrix(0.2, 0, 0, -0.2, 0, 320)"/>
<path fill="none" stroke-width="7.9701" stroke-linecap="butt" stroke-linejoin="miter" stroke="rgb(0%, 0%, 0%)" stroke-opacity="1" stroke-miterlimit="10" d="M 1980.039033 1091.601546 L 1980.039033 1119.101546 " transform="matrix(0.2, 0, 0, -0.2, 0, 320)"/>
<path fill="none" stroke-width="7.9701" stroke-linecap="butt" stroke-linejoin="miter" stroke="rgb(0%, 0%, 0%)" stroke-opacity="1" stroke-miterlimit="10" d="M 1980.039033 1174.101545 L 1980.039033 1201.601545 " transform="matrix(0.2, 0, 0, -0.2, 0, 320)"/>
<path fill="none" stroke-width="7.9701" stroke-linecap="butt" stroke-linejoin="miter" stroke="rgb(0%, 0%, 0%)" stroke-opacity="1" stroke-miterlimit="10" d="M 1980.039033 1201.601545 L 1980.039033 1229.101544 " transform="matrix(0.2, 0, 0, -0.2, 0, 320)"/>
<path fill="none" stroke-width="7.9701" stroke-linecap="butt" stroke-linejoin="miter" stroke="rgb(0%, 0%, 0%)" stroke-opacity="1" stroke-miterlimit="10" d="M 1980.039033 1284.101543 L 1980.039033 1311.601543 " transform="matrix(0.2, 0, 0, -0.2, 0, 320)"/>
<path fill-rule="nonzero" fill="rgb(0%, 0%, 0%)" fill-opacity="1" d="M 108.886719 263.839844 C 108.886719 263.339844 108.886719 263.277344 108.386719 263.277344 C 107.042969 264.683594 105.105469 264.683594 104.417969 264.683594 L 104.417969 265.339844 C 104.855469 265.339844 106.136719 265.339844 107.292969 264.777344 L 107.292969 276.089844 C 107.292969 276.871094 107.199219 277.121094 105.261719 277.121094 L 104.542969 277.121094 L 104.542969 277.808594 C 105.324219 277.746094 107.199219 277.746094 108.074219 277.746094 C 108.949219 277.746094 110.855469 277.746094 111.605469 277.808594 L 111.605469 277.121094 L 110.917969 277.121094 C 108.949219 277.121094 108.886719 276.902344 108.886719 276.089844 Z M 108.886719 263.839844 "/>
<path fill-rule="nonzero" fill="rgb(0%, 0%, 0%)" fill-opacity="1" d="M 177.261719 276.121094 L 179.574219 273.871094 C 182.980469 270.871094 184.261719 269.683594 184.261719 267.527344 C 184.261719 265.027344 182.324219 263.277344 179.636719 263.277344 C 177.199219 263.277344 175.574219 265.277344 175.574219 267.214844 C 175.574219 268.464844 176.667969 268.464844 176.730469 268.464844 C 177.105469 268.464844 177.855469 268.183594 177.855469 267.308594 C 177.855469 266.714844 177.480469 266.152344 176.699219 266.152344 C 176.542969 266.152344 176.480469 266.152344 176.417969 266.183594 C 176.917969 264.777344 178.105469 263.964844 179.355469 263.964844 C 181.355469 263.964844 182.292969 265.714844 182.292969 267.527344 C 182.292969 269.246094 181.199219 270.996094 180.011719 272.339844 L 175.824219 276.996094 C 175.574219 277.246094 175.574219 277.277344 175.574219 277.808594 L 183.667969 277.808594 L 184.261719 274.027344 L 183.730469 274.027344 C 183.605469 274.652344 183.480469 275.621094 183.261719 275.964844 C 183.105469 276.121094 181.667969 276.121094 181.167969 276.121094 Z M 177.261719 276.121094 "/>
<path fill-rule="nonzero" fill="rgb(0%, 0%, 0%)" fill-opacity="1" d="M 252.796875 270.121094 C 254.609375 269.527344 255.859375 268.027344 255.859375 266.277344 C 255.859375 264.496094 253.953125 263.277344 251.859375 263.277344 C 249.640625 263.277344 247.984375 264.589844 247.984375 266.246094 C 247.984375 266.964844 248.484375 267.371094 249.109375 267.371094 C 249.765625 267.371094 250.203125 266.902344 250.203125 266.277344 C 250.203125 265.183594 249.203125 265.183594 248.859375 265.183594 C 249.546875 264.121094 250.984375 263.839844 251.765625 263.839844 C 252.671875 263.839844 253.859375 264.308594 253.859375 266.277344 C 253.859375 266.527344 253.828125 267.808594 253.234375 268.746094 C 252.578125 269.808594 251.859375 269.871094 251.296875 269.902344 C 251.140625 269.902344 250.609375 269.964844 250.453125 269.964844 C 250.265625 269.964844 250.140625 269.996094 250.140625 270.214844 C 250.140625 270.464844 250.265625 270.464844 250.640625 270.464844 L 251.609375 270.464844 C 253.390625 270.464844 254.203125 271.933594 254.203125 274.089844 C 254.203125 277.058594 252.703125 277.683594 251.734375 277.683594 C 250.796875 277.683594 249.171875 277.308594 248.390625 276.027344 C 249.171875 276.121094 249.828125 275.652344 249.828125 274.808594 C 249.828125 274.027344 249.265625 273.589844 248.609375 273.589844 C 248.109375 273.589844 247.390625 273.902344 247.390625 274.871094 C 247.390625 276.839844 249.421875 278.277344 251.796875 278.277344 C 254.453125 278.277344 256.453125 276.308594 256.453125 274.089844 C 256.453125 272.277344 255.078125 270.589844 252.796875 270.121094 Z M 252.796875 270.121094 "/>
<path fill-rule="nonzero" fill="rgb(0%, 0%, 0%)" fill-opacity="1" d="M 324.890625 274.214844 L 324.890625 276.121094 C 324.890625 276.902344 324.859375 277.121094 323.234375 277.121094 L 322.796875 277.121094 L 322.796875 277.808594 C 323.671875 277.746094 324.796875 277.746094 325.734375 277.746094 C 326.640625 277.746094 327.796875 277.746094 328.703125 277.808594 L 328.703125 277.121094 L 328.234375 277.121094 C 326.609375 277.121094 326.578125 276.902344 326.578125 276.121094 L 326.578125 274.214844 L 328.765625 274.214844 L 328.765625 273.527344 L 326.578125 273.527344 L 326.578125 263.621094 C 326.578125 263.183594 326.578125 263.027344 326.234375 263.027344 C 326.046875 263.027344 325.953125 263.027344 325.796875 263.308594 L 319.109375 273.527344 L 319.109375 274.214844 Z M 325.015625 273.527344 L 319.703125 273.527344 L 325.015625 265.402344 Z M 325.015625 273.527344 "/>
<path fill-rule="nonzero" fill="rgb(0%, 0%, 0%)" fill-opacity="1" d="M 400.265625 273.433594 C 400.265625 270.839844 398.484375 268.652344 396.140625 268.652344 C 395.078125 268.652344 394.140625 268.996094 393.359375 269.746094 L 393.359375 265.496094 C 393.796875 265.652344 394.515625 265.777344 395.203125 265.777344 C 397.890625 265.777344 399.421875 263.808594 399.421875 263.527344 C 399.421875 263.402344 399.359375 263.277344 399.203125 263.277344 C 399.203125 263.277344 399.140625 263.277344 399.046875 263.339844 C 398.609375 263.558594 397.515625 263.964844 396.078125 263.964844 C 395.203125 263.964844 394.203125 263.839844 393.171875 263.371094 C 392.984375 263.308594 392.953125 263.308594 392.890625 263.308594 C 392.671875 263.308594 392.671875 263.464844 392.671875 263.839844 L 392.671875 270.277344 C 392.671875 270.683594 392.671875 270.839844 392.984375 270.839844 C 393.140625 270.839844 393.203125 270.777344 393.265625 270.652344 C 393.515625 270.308594 394.328125 269.121094 396.078125 269.121094 C 397.234375 269.121094 397.765625 270.121094 397.953125 270.527344 C 398.296875 271.339844 398.328125 272.183594 398.328125 273.277344 C 398.328125 274.027344 398.328125 275.339844 397.828125 276.246094 C 397.296875 277.121094 396.484375 277.683594 395.484375 277.683594 C 393.890625 277.683594 392.640625 276.527344 392.265625 275.246094 C 392.328125 275.246094 392.390625 275.277344 392.640625 275.277344 C 393.359375 275.277344 393.734375 274.746094 393.734375 274.214844 C 393.734375 273.683594 393.359375 273.152344 392.640625 273.152344 C 392.328125 273.152344 391.578125 273.308594 391.578125 274.308594 C 391.578125 276.183594 393.078125 278.277344 395.515625 278.277344 C 398.046875 278.277344 400.265625 276.183594 400.265625 273.433594 Z M 400.265625 273.433594 "/>
<path fill-rule="nonzero" fill="rgb(0%, 0%, 0%)" fill-opacity="1" d="M 430.199219 24.800781 L 433.917969 24.800781 C 437.011719 24.800781 440.042969 22.550781 440.042969 20.113281 C 440.042969 18.425781 438.605469 16.800781 435.761719 16.800781 L 428.699219 16.800781 C 428.261719 16.800781 428.042969 16.800781 428.042969 17.238281 C 428.042969 17.488281 428.230469 17.488281 428.667969 17.488281 C 428.949219 17.488281 429.355469 17.519531 429.605469 17.519531 C 429.949219 17.582031 430.074219 17.644531 430.074219 17.863281 C 430.074219 17.957031 430.074219 18.019531 430.011719 18.300781 L 427.074219 30.019531 C 426.855469 30.863281 426.824219 31.019531 425.074219 31.019531 C 424.730469 31.019531 424.480469 31.019531 424.480469 31.457031 C 424.480469 31.707031 424.730469 31.707031 424.792969 31.707031 C 425.417969 31.707031 426.949219 31.644531 427.574219 31.644531 C 428.042969 31.644531 428.511719 31.675781 428.980469 31.675781 C 429.449219 31.675781 429.917969 31.707031 430.386719 31.707031 C 430.542969 31.707031 430.824219 31.707031 430.824219 31.269531 C 430.824219 31.019531 430.636719 31.019531 430.199219 31.019531 C 429.417969 31.019531 428.792969 31.019531 428.792969 30.644531 C 428.792969 30.519531 428.855469 30.394531 428.855469 30.269531 Z M 431.792969 18.300781 C 431.980469 17.550781 432.011719 17.488281 432.949219 17.488281 L 435.042969 17.488281 C 436.855469 17.488281 438.011719 18.082031 438.011719 19.582031 C 438.011719 20.425781 437.574219 22.300781 436.730469 23.082031 C 435.636719 24.082031 434.324219 24.238281 433.386719 24.238281 L 430.292969 24.238281 Z M 431.792969 18.300781 "/>
<path fill-rule="nonzero" fill="rgb(100%, 100%, 100%)" fill-opacity="1" d="M 6.695312 255.703125 L 35.976562 255.703125 L 35.976562 282.585938 L 6.695312 282.585938 Z M 6.695312 255.703125 "/>
<path fill-rule="nonzero" fill="rgb(0%, 0%, 0%)" fill-opacity="1" d="M 28.875 267.058594 C 28.875 263.527344 26.5625 261.183594 23.3125 261.183594 C 18.59375 261.183594 13.78125 266.121094 13.78125 271.214844 C 13.78125 274.839844 16.21875 277.027344 19.375 277.027344 C 24 277.027344 28.875 272.246094 28.875 267.058594 Z M 19.5 276.464844 C 17.34375 276.464844 15.8125 274.714844 15.8125 271.839844 C 15.8125 270.871094 16.125 267.683594 17.8125 265.121094 C 19.3125 262.871094 21.4375 261.714844 23.15625 261.714844 C 24.96875 261.714844 26.90625 262.933594 26.90625 266.183594 C 26.90625 267.777344 26.34375 271.183594 24.15625 273.839844 C 23.125 275.183594 21.34375 276.464844 19.5 276.464844 Z M 19.5 276.464844 "/>
<path fill-rule="nonzero" fill="rgb(100%, 100%, 100%)" fill-opacity="1" d="M 448.15625 255.703125 L 480.078125 255.703125 L 480.078125 282.585938 L 448.15625 282.585938 Z M 448.15625 255.703125 "/>
<path fill-rule="nonzero" fill="rgb(0%, 0%, 0%)" fill-opacity="1" d="M 464.777344 267.589844 L 462.933594 263.246094 C 462.871094 263.089844 462.808594 262.996094 462.808594 262.964844 C 462.808594 262.839844 463.183594 262.433594 464.121094 262.339844 C 464.339844 262.308594 464.558594 262.308594 464.558594 261.933594 C 464.558594 261.652344 464.277344 261.652344 464.214844 261.652344 C 463.308594 261.652344 462.371094 261.714844 461.464844 261.714844 C 460.933594 261.714844 459.558594 261.652344 459.027344 261.652344 C 458.902344 261.652344 458.621094 261.652344 458.621094 262.089844 C 458.621094 262.339844 458.839844 262.339844 459.121094 262.339844 C 460.433594 262.339844 460.589844 262.558594 460.777344 263.027344 L 463.339844 269.121094 L 458.746094 274.058594 L 458.464844 274.308594 C 457.402344 275.464844 456.371094 275.808594 455.246094 275.871094 C 454.964844 275.902344 454.777344 275.902344 454.777344 276.308594 C 454.777344 276.339844 454.777344 276.558594 455.058594 276.558594 C 455.714844 276.558594 456.433594 276.496094 457.121094 276.496094 C 457.902344 276.496094 458.777344 276.558594 459.558594 276.558594 C 459.683594 276.558594 459.933594 276.558594 459.933594 276.121094 C 459.933594 275.902344 459.714844 275.871094 459.683594 275.871094 C 459.496094 275.871094 458.808594 275.808594 458.808594 275.214844 C 458.808594 274.871094 459.121094 274.496094 459.402344 274.214844 L 461.621094 271.871094 L 463.589844 269.746094 L 465.777344 274.933594 C 465.871094 275.183594 465.902344 275.214844 465.902344 275.246094 C 465.902344 275.433594 465.496094 275.808594 464.621094 275.871094 C 464.402344 275.902344 464.183594 275.933594 464.183594 276.308594 C 464.183594 276.558594 464.433594 276.558594 464.527344 276.558594 C 465.121094 276.558594 466.652344 276.496094 467.277344 276.496094 C 467.808594 276.496094 469.152344 276.558594 469.683594 276.558594 C 469.839844 276.558594 470.121094 276.558594 470.121094 276.152344 C 470.121094 275.871094 469.902344 275.871094 469.714844 275.871094 C 468.246094 275.871094 468.214844 275.808594 467.839844 274.933594 C 466.996094 272.902344 465.527344 269.496094 465.027344 268.183594 C 466.496094 266.652344 468.808594 264.058594 469.496094 263.464844 C 470.121094 262.933594 470.964844 262.402344 472.277344 262.339844 C 472.558594 262.308594 472.746094 262.308594 472.746094 261.902344 C 472.746094 261.871094 472.746094 261.652344 472.464844 261.652344 C 471.808594 261.652344 471.089844 261.714844 470.402344 261.714844 C 469.589844 261.714844 468.777344 261.652344 467.996094 261.652344 C 467.871094 261.652344 467.589844 261.652344 467.589844 262.089844 C 467.589844 262.246094 467.683594 262.308594 467.839844 262.339844 C 468.027344 262.371094 468.714844 262.402344 468.714844 263.027344 C 468.714844 263.308594 468.464844 263.589844 468.308594 263.808594 Z M 464.777344 267.589844 "/>
<path fill-rule="nonzero" fill="rgb(100%, 100%, 100%)" fill-opacity="1" d="M 6.453125 -5.757812 L 35.976562 -5.757812 L 35.976562 21.125 L 6.453125 21.125 Z M 6.453125 -5.757812 "/>
<path fill-rule="nonzero" fill="rgb(0%, 0%, 0%)" fill-opacity="1" d="M 25.511719 2.695312 L 25.792969 2.382812 C 26.449219 1.726562 27.167969 0.976562 28.667969 0.882812 C 28.917969 0.851562 29.105469 0.851562 29.105469 0.476562 C 29.105469 0.289062 28.980469 0.195312 28.824219 0.195312 C 28.261719 0.195312 27.605469 0.257812 27.042969 0.257812 C 26.324219 0.257812 25.542969 0.195312 24.855469 0.195312 C 24.730469 0.195312 24.449219 0.195312 24.449219 0.632812 C 24.449219 0.851562 24.636719 0.882812 24.761719 0.882812 C 24.917969 0.882812 25.542969 0.914062 25.542969 1.382812 C 25.542969 1.757812 25.042969 2.320312 24.949219 2.414062 L 19.886719 8.257812 L 17.511719 1.789062 C 17.355469 1.476562 17.355469 1.414062 17.355469 1.414062 C 17.355469 0.882812 18.449219 0.882812 18.667969 0.882812 C 18.949219 0.882812 19.167969 0.882812 19.167969 0.445312 C 19.167969 0.195312 18.917969 0.195312 18.855469 0.195312 C 18.230469 0.195312 16.699219 0.257812 16.105469 0.257812 C 15.542969 0.257812 14.199219 0.195312 13.667969 0.195312 C 13.542969 0.195312 13.230469 0.195312 13.230469 0.632812 C 13.230469 0.882812 13.449219 0.882812 13.730469 0.882812 C 15.042969 0.882812 15.136719 1.070312 15.324219 1.632812 L 18.011719 8.789062 C 18.042969 8.851562 18.105469 9.101562 18.105469 9.164062 C 18.105469 9.226562 17.230469 12.757812 17.136719 13.132812 C 16.855469 14.351562 16.824219 14.414062 15.074219 14.414062 C 14.667969 14.414062 14.480469 14.414062 14.480469 14.851562 C 14.480469 15.101562 14.761719 15.101562 14.792969 15.101562 C 15.417969 15.101562 16.917969 15.039062 17.542969 15.039062 C 18.136719 15.039062 19.730469 15.101562 20.324219 15.101562 C 20.480469 15.101562 20.761719 15.101562 20.761719 14.664062 C 20.761719 14.414062 20.542969 14.414062 20.136719 14.414062 C 20.105469 14.414062 19.667969 14.414062 19.292969 14.382812 C 18.855469 14.351562 18.730469 14.289062 18.730469 14.039062 C 18.730469 13.882812 18.917969 13.101562 19.011719 12.664062 L 19.792969 9.570312 C 19.886719 9.164062 19.917969 9.101562 20.105469 8.914062 Z M 25.511719 2.695312 "/>
<path fill="none" stroke-width="11.9553" stroke-linecap="butt" stroke-linejoin="miter" stroke="rgb(0%, 0%, 0%)" stroke-opacity="1" stroke-miterlimit="10" d="M 108.007811 321.601558 L 2340.039028 321.601558 " transform="matrix(0.2, 0, 0, -0.2, 0, 320)"/>
<path fill="none" stroke-width="11.9553" stroke-linecap="butt" stroke-linejoin="miter" stroke="rgb(0%, 0%, 0%)" stroke-opacity="1" stroke-miterlimit="10" d="M 179.999997 249.609371 L 179.999997 1581.601539 " transform="matrix(0.2, 0, 0, -0.2, 0, 320)"/>
<path fill-rule="nonzero" fill="rgb(0%, 0%, 0%)" fill-opacity="1" d="M 207.597656 312.300781 C 208.785156 311.894531 210.785156 311.300781 210.785156 309.363281 C 210.785156 307.050781 208.066406 305.988281 206.097656 305.988281 C 205.160156 305.988281 204.191406 306.207031 203.347656 306.707031 C 203.222656 306.769531 203.066406 306.957031 202.910156 306.957031 C 202.597656 306.957031 202.035156 305.988281 201.722656 305.988281 C 201.535156 305.988281 201.503906 306.207031 201.503906 306.300781 L 201.503906 309.863281 C 201.503906 309.988281 201.597656 310.144531 201.785156 310.144531 C 202.097656 310.144531 202.066406 309.519531 202.160156 309.175781 C 202.628906 307.457031 204.191406 306.707031 205.691406 306.613281 L 206.097656 306.613281 C 207.441406 306.613281 209.003906 307.488281 209.003906 309.363281 C 209.003906 311.175781 207.222656 312.113281 205.566406 312.113281 C 205.253906 312.113281 204.941406 312.113281 204.628906 312.113281 L 204.472656 312.113281 C 204.285156 312.113281 204.066406 312.113281 204.066406 312.332031 L 204.066406 312.363281 C 204.097656 312.550781 204.285156 312.582031 204.472656 312.582031 L 206.316406 312.582031 C 207.878906 312.707031 209.316406 313.738281 209.472656 315.363281 L 209.472656 315.582031 C 209.472656 317.425781 207.753906 318.582031 206.003906 318.582031 C 204.097656 318.582031 202.128906 317.957031 201.816406 315.582031 C 201.816406 315.425781 201.753906 315.238281 201.535156 315.238281 C 201.316406 315.269531 201.285156 315.425781 201.285156 315.582031 C 201.285156 318.175781 203.878906 319.207031 206.128906 319.207031 C 208.191406 319.207031 211.066406 318.238281 211.316406 315.769531 L 211.316406 315.644531 C 211.316406 313.675781 209.253906 312.707031 207.597656 312.300781 Z M 207.597656 312.300781 "/>
<path fill-rule="nonzero" fill="rgb(0%, 0%, 0%)" fill-opacity="1" d="M 219.695312 305.988281 C 216.320312 306.394531 213.632812 309.050781 213.632812 312.644531 C 213.632812 315.925781 216.226562 319.175781 220.101562 319.175781 C 223.601562 319.175781 226.570312 316.269531 226.570312 312.644531 C 226.570312 309.457031 224.070312 305.988281 220.132812 305.988281 C 220.007812 305.988281 219.851562 305.988281 219.695312 305.988281 Z M 215.507812 312.863281 L 215.507812 312.519531 C 215.507812 310.019531 216.414062 307.082031 219.570312 306.550781 C 219.757812 306.519531 219.914062 306.519531 220.101562 306.519531 C 222.914062 306.519531 224.664062 309.238281 224.664062 312.269531 C 224.664062 314.675781 223.945312 317.738281 220.976562 318.519531 C 220.695312 318.582031 220.414062 318.613281 220.132812 318.613281 L 219.945312 318.613281 C 217.351562 318.519531 215.945312 316.050781 215.601562 313.644531 Z M 215.507812 312.863281 "/>
<path fill-rule="nonzero" fill="rgb(0%, 0%, 0%)" fill-opacity="1" d="M 229.027344 306.332031 L 229.027344 306.925781 L 229.464844 306.925781 C 230.058594 306.925781 230.683594 307.019531 230.683594 307.894531 L 230.683594 317.363281 C 230.683594 318.207031 229.964844 318.238281 229.308594 318.238281 L 229.027344 318.238281 L 229.027344 318.832031 L 234.808594 318.832031 C 235.214844 318.832031 235.589844 318.863281 235.996094 318.863281 C 237.996094 318.863281 240.339844 317.925781 240.558594 315.519531 L 240.558594 315.332031 C 240.558594 312.800781 237.683594 311.769531 235.777344 311.769531 C 234.527344 311.769531 233.339844 311.894531 232.152344 311.988281 L 232.152344 307.769531 C 232.152344 307.332031 232.214844 306.925781 232.996094 306.925781 L 235.308594 306.925781 C 236.277344 306.925781 237.371094 306.988281 238.089844 307.707031 C 238.777344 308.425781 238.871094 309.644531 238.964844 310.582031 L 239.496094 310.582031 L 239.027344 306.332031 Z M 232.152344 312.613281 C 232.402344 312.613281 232.652344 312.550781 232.902344 312.519531 L 234.277344 312.457031 C 234.558594 312.425781 234.839844 312.394531 235.152344 312.394531 C 236.714844 312.394531 238.683594 313.394531 238.683594 315.238281 C 238.683594 316.988281 237.339844 318.269531 235.339844 318.269531 C 235.058594 318.269531 234.746094 318.238281 234.496094 318.238281 L 232.964844 318.238281 C 232.496094 318.238281 232.246094 318.207031 232.152344 317.582031 Z M 232.152344 312.613281 "/>
<path fill-rule="nonzero" fill="rgb(0%, 0%, 0%)" fill-opacity="1" d="M 242.90625 306.332031 L 242.90625 306.925781 L 243.375 306.925781 C 243.96875 306.925781 244.5625 307.019531 244.5625 307.894531 L 244.5625 317.363281 C 244.5625 318.207031 243.875 318.238281 243.1875 318.238281 L 242.90625 318.238281 L 242.90625 318.832031 L 247.8125 318.832031 L 247.8125 318.238281 L 247.375 318.238281 C 246.75 318.238281 246.15625 318.175781 246.15625 317.300781 L 246.15625 313.113281 L 249.875 313.113281 C 251.65625 312.988281 253.9375 311.800781 253.9375 309.769531 C 253.9375 307.550781 251.59375 306.488281 249.6875 306.332031 Z M 246.125 312.582031 L 246.125 307.582031 C 246.21875 306.988281 246.46875 306.925781 246.875 306.925781 L 248.3125 306.925781 C 249.9375 306.925781 252.0625 306.988281 252.0625 309.769531 C 252.0625 310.425781 251.96875 311.113281 251.5625 311.613281 C 250.90625 312.394531 249.8125 312.582031 248.84375 312.582031 Z M 246.125 312.582031 "/>
<path fill-rule="nonzero" fill="rgb(0%, 0%, 0%)" fill-opacity="1" d="M 258.632812 316.550781 C 258.132812 316.644531 257.632812 317.082031 257.632812 317.675781 C 257.632812 318.300781 258.164062 318.832031 258.789062 318.832031 C 259.414062 318.832031 259.976562 318.363281 259.976562 317.707031 C 259.976562 317.082031 259.445312 316.519531 258.820312 316.519531 C 258.757812 316.519531 258.695312 316.550781 258.632812 316.550781 Z M 258.632812 316.550781 "/>
<path fill-rule="nonzero" fill="rgb(0%, 0%, 0%)" fill-opacity="1" d="M 272.191406 314.832031 L 278.785156 314.832031 L 278.785156 317.113281 C 278.785156 318.144531 277.972656 318.144531 276.410156 318.144531 L 276.410156 318.832031 L 282.847656 318.832031 L 282.847656 318.144531 C 282.566406 318.144531 282.253906 318.175781 281.941406 318.175781 C 281.128906 318.175781 280.472656 318.050781 280.472656 317.113281 L 280.472656 314.832031 L 283.003906 314.832031 L 283.003906 314.144531 L 280.472656 314.144531 L 280.472656 303.019531 L 280.378906 302.738281 L 279.910156 302.738281 L 279.597656 303.144531 L 272.191406 314.144531 Z M 272.785156 314.144531 L 278.878906 305.082031 L 278.878906 314.144531 Z M 272.785156 314.144531 "/>
<path fill-rule="nonzero" fill="rgb(0%, 0%, 0%)" fill-opacity="1" d="M 293.339844 311.050781 L 293.371094 311.050781 C 293.371094 313.175781 293.339844 315.550781 291.933594 317.300781 C 291.246094 318.144531 290.277344 318.707031 289.152344 318.707031 C 288.246094 318.707031 287.277344 318.519531 286.683594 317.800781 C 287.246094 317.800781 287.839844 317.582031 287.839844 316.832031 C 287.839844 316.332031 287.527344 315.800781 286.871094 315.800781 C 286.339844 315.800781 285.871094 316.175781 285.839844 316.738281 L 285.839844 316.832031 C 285.839844 318.613281 287.558594 319.332031 289.246094 319.332031 C 291.277344 319.332031 292.839844 318.113281 293.839844 316.519531 C 294.964844 314.863281 295.339844 312.894531 295.339844 310.957031 C 295.339844 308.144531 294.871094 304.425781 291.871094 303.207031 C 291.371094 303.019531 290.808594 302.957031 290.277344 302.957031 C 287.308594 302.957031 285.277344 305.582031 285.277344 308.332031 C 285.277344 310.832031 287.027344 313.613281 289.964844 313.613281 C 291.464844 313.613281 292.902344 312.675781 293.339844 311.050781 Z M 293.308594 308.238281 C 293.308594 308.457031 293.339844 308.707031 293.339844 308.957031 C 293.246094 310.707031 292.433594 313.113281 290.121094 313.113281 C 287.746094 313.113281 287.246094 310.488281 287.246094 308.644531 L 287.246094 307.488281 C 287.277344 305.800781 287.996094 303.519531 290.277344 303.519531 C 292.777344 303.519531 293.308594 306.488281 293.308594 308.019531 Z M 293.308594 308.238281 "/>
<path fill-rule="nonzero" fill="rgb(0%, 0%, 0%)" fill-opacity="1" d="M 300.144531 316.550781 C 299.644531 316.644531 299.144531 317.082031 299.144531 317.675781 C 299.144531 318.300781 299.675781 318.832031 300.300781 318.832031 C 300.925781 318.832031 301.488281 318.363281 301.488281 317.707031 C 301.488281 317.082031 300.957031 316.519531 300.332031 316.519531 C 300.269531 316.519531 300.207031 316.550781 300.144531 316.550781 Z M 300.144531 316.550781 "/>
</svg>
