<?xml version="1.0" encoding="UTF-8"?>
<svg xmlns="http://www.w3.org/2000/svg" xmlns:xlink="http://www.w3.org/1999/xlink" width="48" height="232" viewBox="0 0 48 232">
<path fill="none" stroke-width="11.9553" stroke-linecap="butt" stroke-linejoin="miter" stroke="rgb(0%, 0%, 0%)" stroke-opacity="1" stroke-miterlimit="10" d="M 11.992187 11.601562 L 228.007809 11.601562 L 228.007809 1145.624983 L 11.992187 1037.617172 Z M 11.992187 11.601562 " transform="matrix(0.2, 0, 0, -0.2, 0, 232)"/>
<path fill="none" stroke-width="7.9701" stroke-linecap="butt" stroke-linejoin="miter" stroke="rgb(0%, 0%, 0%)" stroke-opacity="1" stroke-miterlimit="10" d="M 11.992187 1091.601546 L 25.507812 1091.601546 " transform="matrix(0.2, 0, 0, -0.2, 0, 232)"/>
<path fill="none" stroke-width="7.9701" stroke-linecap="butt" stroke-linejoin="miter" stroke="rgb(0%, 0%, 0%)" stroke-opacity="1" stroke-miterlimit="10" d="M 52.499999 1091.601546 L 66.015624 1091.601546 " transform="matrix(0.2, 0, 0, -0.2, 0, 232)"/>
<path fill="none" stroke-width="7.9701" stroke-linecap="butt" stroke-linejoin="miter" stroke="rgb(0%, 0%, 0%)" stroke-opacity="1" stroke-miterlimit="10" d="M 66.015624 1091.601546 L 79.492186 1091.601546 " transform="matrix(0.2, 0, 0, -0.2, 0, 232)"/>
<path fill="none" stroke-width="7.9701" stroke-linecap="butt" stroke-linejoin="miter" stroke="rgb(0%, 0%, 0%)" stroke-opacity="1" stroke-miterlimit="10" d="M 106.523436 1091.601546 L 119.999998 1091.601546 " transform="matrix(0.2, 0, 0, -0.2, 0, 232)"/>
<path fill="none" stroke-width="7.9701" stroke-linecap="butt" stroke-linejoin="miter" stroke="rgb(0%, 0%, 0%)" stroke-opacity="1" stroke-miterlimit="10" d="M 119.999998 1091.601546 L 133.515623 1091.601546 " transform="matrix(0.2, 0, 0, -0.2, 0, 232)"/>
<path fill="none" stroke-width="7.9701" stroke-linecap="butt" stroke-linejoin="miter" stroke="rgb(0%, 0%, 0%)" stroke-opacity="1" stroke-miterlimit="10" d="M 160.50781 1091.601546 L 174.023435 1091.601546 " transform="matrix(0.2, 0, 0, -0.2, 0, 232)"/>
<path fill="none" stroke-width="7.9701" stroke-linecap="butt" stroke-linejoin="miter" stroke="rgb(0%, 0%, 0%)" stroke-opacity="1" stroke-miterlimit="10" d="M 174.023435 1091.601546 L 187.499997 1091.601546 " transform="matrix(0.2, 0, 0, -0.2, 0, 232)"/>
<path fill="none" stroke-width="7.9701" stroke-linecap="butt" stroke-linejoin="miter" stroke="rgb(0%, 0%, 0%)" stroke-opacity="1" stroke-miterlimit="10" d="M 214.492184 1091.601546 L 228.007809 1091.601546 " transform="matrix(0.2, 0, 0, -0.2, 0, 232)"/>
<path fill="none" stroke-width="7.9701" stroke-linecap="butt" stroke-linejoin="miter" stroke="rgb(0%, 0%, 0%)" stroke-opacity="1" stroke-miterlimit="10" d="M 119.999998 11.601562 L 119.999998 25.820312 " transform="matrix(0.2, 0, 0, -0.2, 0, 232)"/>
<path fill="none" stroke-width="7.9701" stroke-linecap="butt" stroke-linejoin="miter" stroke="rgb(0%, 0%, 0%)" stroke-opacity="1" stroke-miterlimit="10" d="M 119.999998 54.218749 L 119.999998 68.437499 " transform="matrix(0.2, 0, 0, -0.2, 0, 232)"/>
<path fill="none" stroke-width="7.9701" stroke-linecap="butt" stroke-linejoin="miter" stroke="rgb(0%, 0%, 0%)" stroke-opacity="1" stroke-miterlimit="10" d="M 119.999998 68.437499 L 119.999998 82.656249 " transform="matrix(0.2, 0, 0, -0.2, 0, 232)"/>
<path fill="none" stroke-width="7.9701" stroke-linecap="butt" stroke-linejoin="miter" stroke="rgb(0%, 0%, 0%)" stroke-opacity="1" stroke-miterlimit="10" d="M 119.999998 111.054686 L 119.999998 125.273436 " transform="matrix(0.2, 0, 0, -0.2, 0, 232)"/>
<path fill="none" stroke-width="7.9701" stroke-linecap="butt" stroke-linejoin="miter" stroke="rgb(0%, 0%, 0%)" stroke-opacity="1" stroke-miterlimit="10" d="M 119.999998 125.273436 L 119.999998 139.492185 " transform="matrix(0.2, 0, 0, -0.2, 0, 232)"/>
<path fill="none" stroke-width="7.9701" stroke-linecap="butt" stroke-linejoin="miter" stroke="rgb(0%, 0%, 0%)" stroke-opacity="1" stroke-miterlimit="10" d="M 119.999998 167.929685 L 119.999998 182.148435 " transform="matrix(0.2, 0, 0, -0.2, 0, 232)"/>
<path fill="none" stroke-width="7.9701" stroke-linecap="butt" stroke-linejoin="miter" stroke="rgb(0%, 0%, 0%)" stroke-opacity="1" stroke-miterlimit="10" d="M 119.999998 182.148435 L 119.999998 196.328122 " transform="matrix(0.2, 0, 0, -0.2, 0, 232)"/>
<path fill="none" stroke-width="7.9701" stroke-linecap="butt" stroke-linejoin="miter" stroke="rgb(0%, 0%, 0%)" stroke-opacity="1" stroke-miterlimit="10" d="M 119.999998 224.765622 L 119.999998 238.984371 " transform="matrix(0.2, 0, 0, -0.2, 0, 232)"/>
<path fill="none" stroke-width="7.9701" stroke-linecap="butt" stroke-linejoin="miter" stroke="rgb(0%, 0%, 0%)" stroke-opacity="1" stroke-miterlimit="10" d="M 119.999998 238.984371 L 119.999998 253.164059 " transform="matrix(0.2, 0, 0, -0.2, 0, 232)"/>
<path fill="none" stroke-width="7.9701" stroke-linecap="butt" stroke-linejoin="miter" stroke="rgb(0%, 0%, 0%)" stroke-opacity="1" stroke-miterlimit="10" d="M 119.999998 281.601558 L 119.999998 295.820308 " transform="matrix(0.2, 0, 0, -0.2, 0, 232)"/>
<path fill="none" stroke-width="7.9701" stroke-linecap="butt" stroke-linejoin="miter" stroke="rgb(0%, 0%, 0%)" stroke-opacity="1" stroke-miterlimit="10" d="M 119.999998 295.820308 L 119.999998 310.039058 " transform="matrix(0.2, 0, 0, -0.2, 0, 232)"/>
<path fill="none" stroke-width="7.9701" stroke-linecap="butt" stroke-linejoin="miter" stroke="rgb(0%, 0%, 0%)" stroke-opacity="1" stroke-miterlimit="10" d="M 119.999998 338.437495 L 119.999998 352.656245 " transform="matrix(0.2, 0, 0, -0.2, 0, 232)"/>
<path fill="none" stroke-width="7.9701" stroke-linecap="butt" stroke-linejoin="miter" stroke="rgb(0%, 0%, 0%)" stroke-opacity="1" stroke-miterlimit="10" d="M 119.999998 352.656245 L 119.999998 366.874995 " transform="matrix(0.2, 0, 0, -0.2, 0, 232)"/>
<path fill="none" stroke-width="7.9701" stroke-linecap="butt" stroke-linejoin="miter" stroke="rgb(0%, 0%, 0%)" stroke-opacity="1" stroke-miterlimit="10" d="M 119.999998 395.312494 L 119.999998 409.492181 " transform="matrix(0.2, 0, 0, -0.2, 0, 232)"/>
<path fill="none" stroke-width="7.9701" stroke-linecap="butt" stroke-linejoin="miter" stroke="rgb(0%, 0%, 0%)" stroke-opacity="1" stroke-miterlimit="10" d="M 119.999998 409.492181 L 119.999998 423.710931 " transform="matrix(0.2, 0, 0, -0.2, 0, 232)"/>
<path fill="none" stroke-width="7.9701" stroke-linecap="butt" stroke-linejoin="miter" stroke="rgb(0%, 0%, 0%)" stroke-opacity="1" stroke-miterlimit="10" d="M 119.999998 452.148431 L 119.999998 466.328118 " transform="matrix(0.2, 0, 0, -0.2, 0, 232)"/>
<path fill="none" stroke-width="7.9701" stroke-linecap="butt" stroke-linejoin="miter" stroke="rgb(0%, 0%, 0%)" stroke-opacity="1" stroke-miterlimit="10" d="M 119.999998 466.328118 L 119.999998 480.546868 " transform="matrix(0.2, 0, 0, -0.2, 0, 232)"/>
<path fill="none" stroke-width="7.9701" stroke-linecap="butt" stroke-linejoin="miter" stroke="rgb(0%, 0%, 0%)" stroke-opacity="1" stroke-miterlimit="10" d="M 119.999998 508.984367 L 119.999998 523.203117 " transform="matrix(0.2, 0, 0, -0.2, 0, 232)"/>
<path fill="none" stroke-width="7.9701" stroke-linecap="butt" stroke-linejoin="miter" stroke="rgb(0%, 0%, 0%)" stroke-opacity="1" stroke-miterlimit="10" d="M 119.999998 523.203117 L 119.999998 537.382804 " transform="matrix(0.2, 0, 0, -0.2, 0, 232)"/>
<path fill="none" stroke-width="7.9701" stroke-linecap="butt" stroke-linejoin="miter" stroke="rgb(0%, 0%, 0%)" stroke-opacity="1" stroke-miterlimit="10" d="M 119.999998 565.820304 L 119.999998 580.039054 " transform="matrix(0.2, 0, 0, -0.2, 0, 232)"/>
<path fill="none" stroke-width="7.9701" stroke-linecap="butt" stroke-linejoin="miter" stroke="rgb(0%, 0%, 0%)" stroke-opacity="1" stroke-miterlimit="10" d="M 119.999998 580.039054 L 119.999998 594.218741 " transform="matrix(0.2, 0, 0, -0.2, 0, 232)"/>
<path fill="none" stroke-width="7.9701" stroke-linecap="butt" stroke-linejoin="miter" stroke="rgb(0%, 0%, 0%)" stroke-opacity="1" stroke-miterlimit="10" d="M 119.999998 622.656241 L 119.999998 636.874991 " transform="matrix(0.2, 0, 0, -0.2, 0, 232)"/>
<path fill="none" stroke-width="7.9701" stroke-linecap="butt" stroke-linejoin="miter" stroke="rgb(0%, 0%, 0%)" stroke-opacity="1" stroke-miterlimit="10" d="M 119.999998 636.874991 L 119.999998 651.09374 " transform="matrix(0.2, 0, 0, -0.2, 0, 232)"/>
<path fill="none" stroke-width="7.9701" stroke-linecap="butt" stroke-linejoin="miter" stroke="rgb(0%, 0%, 0%)" stroke-opacity="1" stroke-miterlimit="10" d="M 119.999998 679.492177 L 119.999998 693.710927 " transform="matrix(0.2, 0, 0, -0.2, 0, 232)"/>
<path fill="none" stroke-width="7.9701" stroke-linecap="butt" stroke-linejoin="miter" stroke="rgb(0%, 0%, 0%)" stroke-opacity="1" stroke-miterlimit="10" d="M 119.999998 693.710927 L 119.999998 707.929677 " transform="matrix(0.2, 0, 0, -0.2, 0, 232)"/>
<path fill="none" stroke-width="7.9701" stroke-linecap="butt" stroke-linejoin="miter" stroke="rgb(0%, 0%, 0%)" stroke-opacity="1" stroke-miterlimit="10" d="M 119.999998 736.328114 L 119.999998 750.546864 " transform="matrix(0.2, 0, 0, -0.2, 0, 232)"/>
<path fill="none" stroke-width="7.9701" stroke-linecap="butt" stroke-linejoin="miter" stroke="rgb(0%, 0%, 0%)" stroke-opacity="1" stroke-miterlimit="10" d="M 119.999998 750.546864 L 119.999998 764.765614 " transform="matrix(0.2, 0, 0, -0.2, 0, 232)"/>
<path fill="none" stroke-width="7.9701" stroke-linecap="butt" stroke-linejoin="miter" stroke="rgb(0%, 0%, 0%)" stroke-opacity="1" stroke-miterlimit="10" d="M 119.999998 793.203113 L 119.999998 807.3828 " transform="matrix(0.2, 0, 0, -0.2, 0, 232)"/>
<path fill="none" stroke-width="7.9701" stroke-linecap="butt" stroke-linejoin="miter" stroke="rgb(0%, 0%, 0%)" stroke-opacity="1" stroke-miterlimit="10" d="M 119.999998 807.3828 L 119.999998 821.60155 " transform="matrix(0.2, 0, 0, -0.2, 0, 232)"/>
<path fill="none" stroke-width="7.9701" stroke-linecap="butt" stroke-linejoin="miter" stroke="rgb(0%, 0%, 0%)" stroke-opacity="1" stroke-miterlimit="10" d="M 119.999998 850.03905 L 119.999998 864.218737 " transform="matrix(0.2, 0, 0, -0.2, 0, 232)"/>
<path fill="none" stroke-width="7.9701" stroke-linecap="butt" stroke-linejoin="miter" stroke="rgb(0%, 0%, 0%)" stroke-opacity="1" stroke-miterlimit="10" d="M 119.999998 864.218737 L 119.999998 878.437487 " transform="matrix(0.2, 0, 0, -0.2, 0, 232)"/>
<path fill="none" stroke-width="7.9701" stroke-linecap="butt" stroke-linejoin="miter" stroke="rgb(0%, 0%, 0%)" stroke-opacity="1" stroke-miterlimit="10" d="M 119.999998 906.874986 L 119.999998 921.093736 " transform="matrix(0.2, 0, 0, -0.2, 0, 232)"/>
<path fill="none" stroke-width="7.9701" stroke-linecap="butt" stroke-linejoin="miter" stroke="rgb(0%, 0%, 0%)" stroke-opacity="1" stroke-miterlimit="10" d="M 119.999998 921.093736 L 119.999998 935.273424 " transform="matrix(0.2, 0, 0, -0.2, 0, 232)"/>
<path fill="none" stroke-width="7.9701" stroke-linecap="butt" stroke-linejoin="miter" stroke="rgb(0%, 0%, 0%)" stroke-opacity="1" stroke-miterlimit="10" d="M 119.999998 963.710923 L 119.999998 977.929673 " transform="matrix(0.2, 0, 0, -0.2, 0, 232)"/>
<path fill="none" stroke-width="7.9701" stroke-linecap="butt" stroke-linejoin="miter" stroke="rgb(0%, 0%, 0%)" stroke-opacity="1" stroke-miterlimit="10" d="M 119.999998 977.929673 L 119.999998 992.148423 " transform="matrix(0.2, 0, 0, -0.2, 0, 232)"/>
<path fill="none" stroke-width="7.9701" stroke-linecap="butt" stroke-linejoin="miter" stroke="rgb(0%, 0%, 0%)" stroke-opacity="1" stroke-miterlimit="10" d="M 119.999998 1020.54686 L 119.999998 1034.76561 " transform="matrix(0.2, 0, 0, -0.2, 0, 232)"/>
<path fill="none" stroke-width="7.9701" stroke-linecap="butt" stroke-linejoin="miter" stroke="rgb(0%, 0%, 0%)" stroke-opacity="1" stroke-miterlimit="10" d="M 119.999998 1034.76561 L 119.999998 1048.984359 " transform="matrix(0.2, 0, 0, -0.2, 0, 232)"/>
<path fill="none" stroke-width="7.9701" stroke-linecap="butt" stroke-linejoin="miter" stroke="rgb(0%, 0%, 0%)" stroke-opacity="1" stroke-miterlimit="10" d="M 119.999998 1077.382796 L 119.999998 1091.601546 " transform="matrix(0.2, 0, 0, -0.2, 0, 232)"/>
</svg>
