<?xml version="1.0" encoding="UTF-8"?>
<svg xmlns="http://www.w3.org/2000/svg" xmlns:xlink="http://www.w3.org/1999/xlink" width="302" height="212" viewBox="0 0 302 212">
<path fill="none" stroke-width="11.9553" stroke-linecap="butt" stroke-linejoin="miter" stroke="rgb(0%, 0%, 0%)" stroke-opacity="1" stroke-miterlimit="10" d="M 132.851561 527.30468 L 132.851561 835.898425 " transform="matrix(0.2, 0, 0, -0.2, 0, 212)"/>
<path fill-rule="nonzero" fill="rgb(0%, 0%, 0%)" fill-opacity="1" d="M 20.546875 105.835938 L 32.546875 105.835938 L 32.546875 107.039062 L 20.546875 107.039062 Z M 20.546875 105.835938 "/>
<path fill-rule="nonzero" fill="rgb(0%, 0%, 0%)" fill-opacity="1" d="M 20.546875 85.265625 L 32.546875 85.265625 L 32.546875 86.46875 L 20.546875 86.46875 Z M 20.546875 85.265625 "/>
<path fill-rule="nonzero" fill="rgb(0%, 0%, 0%)" fill-opacity="1" d="M 20.546875 64.695312 L 32.546875 64.695312 L 32.546875 65.898438 L 20.546875 65.898438 Z M 20.546875 64.695312 "/>
<path fill-rule="nonzero" fill="rgb(0%, 0%, 0%)" fill-opacity="1" d="M 20.546875 44.125 L 32.546875 44.125 L 32.546875 45.328125 L 20.546875 45.328125 Z M 20.546875 44.125 "/>
<path fill="none" stroke-width="11.9553" stroke-linecap="butt" stroke-linejoin="miter" stroke="rgb(0%, 0%, 0%)" stroke-opacity="1" stroke-miterlimit="10" d="M 132.851561 424.453119 L 1418.593729 853.046862 " transform="matrix(0.2, 0, 0, -0.2, 0, 212)"/>
<path fill="none" stroke-width="7.9701" stroke-linecap="butt" stroke-linejoin="miter" stroke="rgb(0%, 0%, 0%)" stroke-opacity="1" stroke-miterlimit="10" d="M 235.742184 424.453119 L 235.742184 433.007806 " transform="matrix(0.2, 0, 0, -0.2, 0, 212)"/>
<path fill="none" stroke-width="7.9701" stroke-linecap="butt" stroke-linejoin="miter" stroke="rgb(0%, 0%, 0%)" stroke-opacity="1" stroke-miterlimit="10" d="M 235.742184 450.195306 L 235.742184 458.749993 " transform="matrix(0.2, 0, 0, -0.2, 0, 212)"/>
<path fill="none" stroke-width="7.9701" stroke-linecap="butt" stroke-linejoin="miter" stroke="rgb(0%, 0%, 0%)" stroke-opacity="1" stroke-miterlimit="10" d="M 338.593745 424.453119 L 338.593745 441.601556 " transform="matrix(0.2, 0, 0, -0.2, 0, 212)"/>
<path fill="none" stroke-width="7.9701" stroke-linecap="butt" stroke-linejoin="miter" stroke="rgb(0%, 0%, 0%)" stroke-opacity="1" stroke-miterlimit="10" d="M 338.593745 475.89843 L 338.593745 493.046868 " transform="matrix(0.2, 0, 0, -0.2, 0, 212)"/>
<path fill="none" stroke-width="7.9701" stroke-linecap="butt" stroke-linejoin="miter" stroke="rgb(0%, 0%, 0%)" stroke-opacity="1" stroke-miterlimit="10" d="M 441.445306 424.453119 L 441.445306 450.195306 " transform="matrix(0.2, 0, 0, -0.2, 0, 212)"/>
<path fill="none" stroke-width="7.9701" stroke-linecap="butt" stroke-linejoin="miter" stroke="rgb(0%, 0%, 0%)" stroke-opacity="1" stroke-miterlimit="10" d="M 441.445306 501.601555 L 441.445306 527.30468 " transform="matrix(0.2, 0, 0, -0.2, 0, 212)"/>
<path fill="none" stroke-width="7.9701" stroke-linecap="butt" stroke-linejoin="miter" stroke="rgb(0%, 0%, 0%)" stroke-opacity="1" stroke-miterlimit="10" d="M 544.296867 424.453119 L 544.296867 441.601556 " transform="matrix(0.2, 0, 0, -0.2, 0, 212)"/>
<path fill="none" stroke-width="7.9701" stroke-linecap="butt" stroke-linejoin="miter" stroke="rgb(0%, 0%, 0%)" stroke-opacity="1" stroke-miterlimit="10" d="M 544.296867 475.89843 L 544.296867 493.046868 " transform="matrix(0.2, 0, 0, -0.2, 0, 212)"/>
<path fill="none" stroke-width="7.9701" stroke-linecap="butt" stroke-linejoin="miter" stroke="rgb(0%, 0%, 0%)" stroke-opacity="1" stroke-miterlimit="10" d="M 544.296867 493.046868 L 544.296867 510.156242 " transform="matrix(0.2, 0, 0, -0.2, 0, 212)"/>
<path fill="none" stroke-width="7.9701" stroke-linecap="butt" stroke-linejoin="miter" stroke="rgb(0%, 0%, 0%)" stroke-opacity="1" stroke-miterlimit="10" d="M 544.296867 544.453117 L 544.296867 561.601554 " transform="matrix(0.2, 0, 0, -0.2, 0, 212)"/>
<path fill="none" stroke-width="7.9701" stroke-linecap="butt" stroke-linejoin="miter" stroke="rgb(0%, 0%, 0%)" stroke-opacity="1" stroke-miterlimit="10" d="M 647.148428 424.453119 L 647.148428 445.898431 " transform="matrix(0.2, 0, 0, -0.2, 0, 212)"/>
<path fill="none" stroke-width="7.9701" stroke-linecap="butt" stroke-linejoin="miter" stroke="rgb(0%, 0%, 0%)" stroke-opacity="1" stroke-miterlimit="10" d="M 647.148428 488.749993 L 647.148428 510.156242 " transform="matrix(0.2, 0, 0, -0.2, 0, 212)"/>
<path fill="none" stroke-width="7.9701" stroke-linecap="butt" stroke-linejoin="miter" stroke="rgb(0%, 0%, 0%)" stroke-opacity="1" stroke-miterlimit="10" d="M 647.148428 510.156242 L 647.148428 531.601555 " transform="matrix(0.2, 0, 0, -0.2, 0, 212)"/>
<path fill="none" stroke-width="7.9701" stroke-linecap="butt" stroke-linejoin="miter" stroke="rgb(0%, 0%, 0%)" stroke-opacity="1" stroke-miterlimit="10" d="M 647.148428 574.453116 L 647.148428 595.898429 " transform="matrix(0.2, 0, 0, -0.2, 0, 212)"/>
<path fill="none" stroke-width="7.9701" stroke-linecap="butt" stroke-linejoin="miter" stroke="rgb(0%, 0%, 0%)" stroke-opacity="1" stroke-miterlimit="10" d="M 749.999989 424.453119 L 749.999989 450.195306 " transform="matrix(0.2, 0, 0, -0.2, 0, 212)"/>
<path fill="none" stroke-width="7.9701" stroke-linecap="butt" stroke-linejoin="miter" stroke="rgb(0%, 0%, 0%)" stroke-opacity="1" stroke-miterlimit="10" d="M 749.999989 501.601555 L 749.999989 527.30468 " transform="matrix(0.2, 0, 0, -0.2, 0, 212)"/>
<path fill="none" stroke-width="7.9701" stroke-linecap="butt" stroke-linejoin="miter" stroke="rgb(0%, 0%, 0%)" stroke-opacity="1" stroke-miterlimit="10" d="M 749.999989 527.30468 L 749.999989 553.046867 " transform="matrix(0.2, 0, 0, -0.2, 0, 212)"/>
<path fill="none" stroke-width="7.9701" stroke-linecap="butt" stroke-linejoin="miter" stroke="rgb(0%, 0%, 0%)" stroke-opacity="1" stroke-miterlimit="10" d="M 749.999989 604.453116 L 749.999989 630.195303 " transform="matrix(0.2, 0, 0, -0.2, 0, 212)"/>
<path fill="none" stroke-width="7.9701" stroke-linecap="butt" stroke-linejoin="miter" stroke="rgb(0%, 0%, 0%)" stroke-opacity="1" stroke-miterlimit="10" d="M 852.85155 424.453119 L 852.85155 444.453118 " transform="matrix(0.2, 0, 0, -0.2, 0, 212)"/>
<path fill="none" stroke-width="7.9701" stroke-linecap="butt" stroke-linejoin="miter" stroke="rgb(0%, 0%, 0%)" stroke-opacity="1" stroke-miterlimit="10" d="M 852.85155 484.453118 L 852.85155 504.453117 " transform="matrix(0.2, 0, 0, -0.2, 0, 212)"/>
<path fill="none" stroke-width="7.9701" stroke-linecap="butt" stroke-linejoin="miter" stroke="rgb(0%, 0%, 0%)" stroke-opacity="1" stroke-miterlimit="10" d="M 852.85155 504.453117 L 852.85155 524.453117 " transform="matrix(0.2, 0, 0, -0.2, 0, 212)"/>
<path fill="none" stroke-width="7.9701" stroke-linecap="butt" stroke-linejoin="miter" stroke="rgb(0%, 0%, 0%)" stroke-opacity="1" stroke-miterlimit="10" d="M 852.85155 564.453117 L 852.85155 584.453116 " transform="matrix(0.2, 0, 0, -0.2, 0, 212)"/>
<path fill="none" stroke-width="7.9701" stroke-linecap="butt" stroke-linejoin="miter" stroke="rgb(0%, 0%, 0%)" stroke-opacity="1" stroke-miterlimit="10" d="M 852.85155 584.453116 L 852.85155 604.453116 " transform="matrix(0.2, 0, 0, -0.2, 0, 212)"/>
<path fill="none" stroke-width="7.9701" stroke-linecap="butt" stroke-linejoin="miter" stroke="rgb(0%, 0%, 0%)" stroke-opacity="1" stroke-miterlimit="10" d="M 852.85155 644.453115 L 852.85155 664.453115 " transform="matrix(0.2, 0, 0, -0.2, 0, 212)"/>
<path fill="none" stroke-width="7.9701" stroke-linecap="butt" stroke-linejoin="miter" stroke="rgb(0%, 0%, 0%)" stroke-opacity="1" stroke-miterlimit="10" d="M 955.703111 424.453119 L 955.703111 447.304681 " transform="matrix(0.2, 0, 0, -0.2, 0, 212)"/>
<path fill="none" stroke-width="7.9701" stroke-linecap="butt" stroke-linejoin="miter" stroke="rgb(0%, 0%, 0%)" stroke-opacity="1" stroke-miterlimit="10" d="M 955.703111 493.046868 L 955.703111 515.89843 " transform="matrix(0.2, 0, 0, -0.2, 0, 212)"/>
<path fill="none" stroke-width="7.9701" stroke-linecap="butt" stroke-linejoin="miter" stroke="rgb(0%, 0%, 0%)" stroke-opacity="1" stroke-miterlimit="10" d="M 955.703111 515.89843 L 955.703111 538.749992 " transform="matrix(0.2, 0, 0, -0.2, 0, 212)"/>
<path fill="none" stroke-width="7.9701" stroke-linecap="butt" stroke-linejoin="miter" stroke="rgb(0%, 0%, 0%)" stroke-opacity="1" stroke-miterlimit="10" d="M 955.703111 584.453116 L 955.703111 607.304678 " transform="matrix(0.2, 0, 0, -0.2, 0, 212)"/>
<path fill="none" stroke-width="7.9701" stroke-linecap="butt" stroke-linejoin="miter" stroke="rgb(0%, 0%, 0%)" stroke-opacity="1" stroke-miterlimit="10" d="M 955.703111 607.304678 L 955.703111 630.195303 " transform="matrix(0.2, 0, 0, -0.2, 0, 212)"/>
<path fill="none" stroke-width="7.9701" stroke-linecap="butt" stroke-linejoin="miter" stroke="rgb(0%, 0%, 0%)" stroke-opacity="1" stroke-miterlimit="10" d="M 955.703111 675.898427 L 955.703111 698.74999 " transform="matrix(0.2, 0, 0, -0.2, 0, 212)"/>
<path fill="none" stroke-width="7.9701" stroke-linecap="butt" stroke-linejoin="miter" stroke="rgb(0%, 0%, 0%)" stroke-opacity="1" stroke-miterlimit="10" d="M 1058.593734 424.453119 L 1058.593734 450.195306 " transform="matrix(0.2, 0, 0, -0.2, 0, 212)"/>
<path fill="none" stroke-width="7.9701" stroke-linecap="butt" stroke-linejoin="miter" stroke="rgb(0%, 0%, 0%)" stroke-opacity="1" stroke-miterlimit="10" d="M 1058.593734 501.601555 L 1058.593734 527.30468 " transform="matrix(0.2, 0, 0, -0.2, 0, 212)"/>
<path fill="none" stroke-width="7.9701" stroke-linecap="butt" stroke-linejoin="miter" stroke="rgb(0%, 0%, 0%)" stroke-opacity="1" stroke-miterlimit="10" d="M 1058.593734 527.30468 L 1058.593734 553.046867 " transform="matrix(0.2, 0, 0, -0.2, 0, 212)"/>
<path fill="none" stroke-width="7.9701" stroke-linecap="butt" stroke-linejoin="miter" stroke="rgb(0%, 0%, 0%)" stroke-opacity="1" stroke-miterlimit="10" d="M 1058.593734 604.453116 L 1058.593734 630.195303 " transform="matrix(0.2, 0, 0, -0.2, 0, 212)"/>
<path fill="none" stroke-width="7.9701" stroke-linecap="butt" stroke-linejoin="miter" stroke="rgb(0%, 0%, 0%)" stroke-opacity="1" stroke-miterlimit="10" d="M 1058.593734 630.195303 L 1058.593734 655.898428 " transform="matrix(0.2, 0, 0, -0.2, 0, 212)"/>
<path fill="none" stroke-width="7.9701" stroke-linecap="butt" stroke-linejoin="miter" stroke="rgb(0%, 0%, 0%)" stroke-opacity="1" stroke-miterlimit="10" d="M 1058.593734 707.304677 L 1058.593734 733.046864 " transform="matrix(0.2, 0, 0, -0.2, 0, 212)"/>
<path fill="none" stroke-width="7.9701" stroke-linecap="butt" stroke-linejoin="miter" stroke="rgb(0%, 0%, 0%)" stroke-opacity="1" stroke-miterlimit="10" d="M 1161.445295 424.453119 L 1161.445295 453.046868 " transform="matrix(0.2, 0, 0, -0.2, 0, 212)"/>
<path fill="none" stroke-width="7.9701" stroke-linecap="butt" stroke-linejoin="miter" stroke="rgb(0%, 0%, 0%)" stroke-opacity="1" stroke-miterlimit="10" d="M 1161.445295 510.156242 L 1161.445295 538.749992 " transform="matrix(0.2, 0, 0, -0.2, 0, 212)"/>
<path fill="none" stroke-width="7.9701" stroke-linecap="butt" stroke-linejoin="miter" stroke="rgb(0%, 0%, 0%)" stroke-opacity="1" stroke-miterlimit="10" d="M 1161.445295 538.749992 L 1161.445295 567.304679 " transform="matrix(0.2, 0, 0, -0.2, 0, 212)"/>
<path fill="none" stroke-width="7.9701" stroke-linecap="butt" stroke-linejoin="miter" stroke="rgb(0%, 0%, 0%)" stroke-opacity="1" stroke-miterlimit="10" d="M 1161.445295 624.453116 L 1161.445295 653.007803 " transform="matrix(0.2, 0, 0, -0.2, 0, 212)"/>
<path fill="none" stroke-width="7.9701" stroke-linecap="butt" stroke-linejoin="miter" stroke="rgb(0%, 0%, 0%)" stroke-opacity="1" stroke-miterlimit="10" d="M 1161.445295 653.007803 L 1161.445295 681.601552 " transform="matrix(0.2, 0, 0, -0.2, 0, 212)"/>
<path fill="none" stroke-width="7.9701" stroke-linecap="butt" stroke-linejoin="miter" stroke="rgb(0%, 0%, 0%)" stroke-opacity="1" stroke-miterlimit="10" d="M 1161.445295 738.749989 L 1161.445295 767.304676 " transform="matrix(0.2, 0, 0, -0.2, 0, 212)"/>
<path fill="none" stroke-width="7.9701" stroke-linecap="butt" stroke-linejoin="miter" stroke="rgb(0%, 0%, 0%)" stroke-opacity="1" stroke-miterlimit="10" d="M 1264.296856 424.453119 L 1264.296856 448.046868 " transform="matrix(0.2, 0, 0, -0.2, 0, 212)"/>
<path fill="none" stroke-width="7.9701" stroke-linecap="butt" stroke-linejoin="miter" stroke="rgb(0%, 0%, 0%)" stroke-opacity="1" stroke-miterlimit="10" d="M 1264.296856 495.195305 L 1264.296856 518.749992 " transform="matrix(0.2, 0, 0, -0.2, 0, 212)"/>
<path fill="none" stroke-width="7.9701" stroke-linecap="butt" stroke-linejoin="miter" stroke="rgb(0%, 0%, 0%)" stroke-opacity="1" stroke-miterlimit="10" d="M 1264.296856 518.749992 L 1264.296856 542.304679 " transform="matrix(0.2, 0, 0, -0.2, 0, 212)"/>
<path fill="none" stroke-width="7.9701" stroke-linecap="butt" stroke-linejoin="miter" stroke="rgb(0%, 0%, 0%)" stroke-opacity="1" stroke-miterlimit="10" d="M 1264.296856 589.453116 L 1264.296856 613.007803 " transform="matrix(0.2, 0, 0, -0.2, 0, 212)"/>
<path fill="none" stroke-width="7.9701" stroke-linecap="butt" stroke-linejoin="miter" stroke="rgb(0%, 0%, 0%)" stroke-opacity="1" stroke-miterlimit="10" d="M 1264.296856 613.007803 L 1264.296856 636.601553 " transform="matrix(0.2, 0, 0, -0.2, 0, 212)"/>
<path fill="none" stroke-width="7.9701" stroke-linecap="butt" stroke-linejoin="miter" stroke="rgb(0%, 0%, 0%)" stroke-opacity="1" stroke-miterlimit="10" d="M 1264.296856 683.74999 L 1264.296856 707.304677 " transform="matrix(0.2, 0, 0, -0.2, 0, 212)"/>
<path fill="none" stroke-width="7.9701" stroke-linecap="butt" stroke-linejoin="miter" stroke="rgb(0%, 0%, 0%)" stroke-opacity="1" stroke-miterlimit="10" d="M 1264.296856 707.304677 L 1264.296856 730.898427 " transform="matrix(0.2, 0, 0, -0.2, 0, 212)"/>
<path fill="none" stroke-width="7.9701" stroke-linecap="butt" stroke-linejoin="miter" stroke="rgb(0%, 0%, 0%)" stroke-opacity="1" stroke-miterlimit="10" d="M 1264.296856 778.046863 L 1264.296856 801.601551 " transform="matrix(0.2, 0, 0, -0.2, 0, 212)"/>
<path fill="none" stroke-width="11.9553" stroke-linecap="butt" stroke-linejoin="miter" stroke="rgb(0%, 0%, 0%)" stroke-opacity="1" stroke-miterlimit="10" d="M 1367.148417 424.453119 L 1367.148417 835.898425 " transform="matrix(0.2, 0, 0, -0.2, 0, 212)"/>
<path fill-rule="nonzero" fill="rgb(100%, 100%, 100%)" fill-opacity="1" d="M 133.179688 149.796875 L 167.023438 149.796875 L 167.023438 175.953125 L 133.179688 175.953125 Z M 133.179688 149.796875 "/>
<path fill-rule="nonzero" fill="rgb(0%, 0%, 0%)" fill-opacity="1" d="M 145.609375 155.964844 C 145.609375 155.464844 145.609375 155.402344 145.109375 155.402344 C 143.765625 156.808594 141.828125 156.808594 141.140625 156.808594 L 141.140625 157.464844 C 141.578125 157.464844 142.859375 157.464844 144.015625 156.902344 L 144.015625 168.214844 C 144.015625 168.996094 143.921875 169.246094 141.984375 169.246094 L 141.265625 169.246094 L 141.265625 169.933594 C 142.046875 169.871094 143.921875 169.871094 144.796875 169.871094 C 145.671875 169.871094 147.578125 169.871094 148.328125 169.933594 L 148.328125 169.246094 L 147.640625 169.246094 C 145.671875 169.246094 145.609375 169.027344 145.609375 168.214844 Z M 145.609375 155.964844 "/>
<path fill-rule="nonzero" fill="rgb(0%, 0%, 0%)" fill-opacity="1" d="M 152.78125 168.246094 L 155.09375 165.996094 C 158.5 162.996094 159.78125 161.808594 159.78125 159.652344 C 159.78125 157.152344 157.84375 155.402344 155.15625 155.402344 C 152.71875 155.402344 151.09375 157.402344 151.09375 159.339844 C 151.09375 160.589844 152.1875 160.589844 152.25 160.589844 C 152.625 160.589844 153.375 160.308594 153.375 159.433594 C 153.375 158.839844 153 158.277344 152.21875 158.277344 C 152.0625 158.277344 152 158.277344 151.9375 158.308594 C 152.4375 156.902344 153.625 156.089844 154.875 156.089844 C 156.875 156.089844 157.8125 157.839844 157.8125 159.652344 C 157.8125 161.371094 156.71875 163.121094 155.53125 164.464844 L 151.34375 169.121094 C 151.09375 169.371094 151.09375 169.402344 151.09375 169.933594 L 159.1875 169.933594 L 159.78125 166.152344 L 159.25 166.152344 C 159.125 166.777344 159 167.746094 158.78125 168.089844 C 158.625 168.246094 157.1875 168.246094 156.6875 168.246094 Z M 152.78125 168.246094 "/>
<path fill-rule="nonzero" fill="rgb(0%, 0%, 0%)" fill-opacity="1" d="M 30.554688 131.09375 L 30.773438 131.585938 L 31.023438 132.054688 L 31.3125 132.507812 L 31.632812 132.945312 L 31.976562 133.359375 L 32.367188 133.765625 L 32.78125 134.148438 L 33.226562 134.523438 L 33.710938 134.875 L 34.21875 135.210938 L 34.757812 135.539062 L 35.320312 135.84375 L 35.921875 136.140625 L 36.539062 136.421875 L 37.195312 136.6875 L 37.875 136.945312 L 38.578125 137.1875 L 39.304688 137.414062 L 40.0625 137.625 L 40.84375 137.828125 L 41.648438 138.015625 L 42.476562 138.195312 L 43.328125 138.367188 L 44.203125 138.523438 L 45.101562 138.671875 L 46.015625 138.804688 L 46.953125 138.929688 L 47.914062 139.046875 L 48.890625 139.15625 L 49.890625 139.25 L 50.914062 139.335938 L 51.945312 139.421875 L 53 139.492188 L 54.070312 139.554688 L 55.15625 139.617188 L 56.257812 139.664062 L 57.375 139.710938 L 58.507812 139.742188 L 59.65625 139.773438 L 60.8125 139.804688 L 61.992188 139.820312 L 63.179688 139.835938 L 64.375 139.84375 L 65.585938 139.851562 L 66.804688 139.851562 L 68.039062 139.84375 L 69.28125 139.835938 L 70.53125 139.828125 L 73.0625 139.796875 L 74.34375 139.78125 L 75.625 139.757812 L 76.921875 139.742188 L 78.210938 139.710938 L 80.820312 139.664062 L 82.132812 139.640625 L 83.453125 139.617188 L 84.773438 139.585938 L 86.09375 139.5625 L 87.421875 139.539062 L 88.742188 139.515625 L 90.078125 139.492188 L 91.40625 139.476562 L 92.734375 139.453125 L 94.0625 139.4375 L 95.382812 139.429688 L 96.710938 139.414062 L 98.039062 139.40625 L 100.671875 139.40625 L 101.992188 139.414062 L 103.296875 139.421875 L 104.601562 139.4375 L 105.90625 139.460938 L 107.195312 139.484375 L 108.484375 139.523438 L 109.765625 139.554688 L 111.039062 139.601562 L 112.304688 139.65625 L 113.5625 139.710938 L 116.046875 139.851562 L 117.273438 139.9375 L 118.484375 140.023438 L 119.695312 140.125 L 120.890625 140.234375 L 122.070312 140.351562 L 123.234375 140.484375 L 124.390625 140.617188 L 125.53125 140.773438 L 126.65625 140.929688 L 127.765625 141.101562 L 128.859375 141.28125 L 129.9375 141.46875 L 131 141.679688 L 132.046875 141.898438 L 133.070312 142.125 L 134.078125 142.367188 L 135.0625 142.625 L 136.039062 142.898438 L 136.984375 143.179688 L 137.914062 143.476562 L 138.820312 143.789062 L 139.703125 144.117188 L 140.5625 144.453125 L 141.40625 144.8125 L 142.226562 145.1875 L 143.015625 145.578125 L 143.789062 145.984375 L 144.53125 146.40625 L 145.25 146.84375 L 145.9375 147.304688 L 146.601562 147.78125 L 147.242188 148.273438 L 147.851562 148.78125 L 148.429688 149.3125 L 148.984375 149.859375 L 149.507812 150.429688 L 150 151.023438 L 150.492188 150.429688 L 151.015625 149.859375 L 151.570312 149.3125 L 152.15625 148.78125 L 152.765625 148.273438 L 153.398438 147.78125 L 154.0625 147.304688 L 154.757812 146.84375 L 155.476562 146.40625 L 156.21875 145.984375 L 156.984375 145.578125 L 157.78125 145.1875 L 158.59375 144.8125 L 159.4375 144.453125 L 160.296875 144.117188 L 161.1875 143.789062 L 162.09375 143.476562 L 163.015625 143.179688 L 163.96875 142.898438 L 164.9375 142.625 L 165.929688 142.367188 L 166.9375 142.125 L 167.960938 141.898438 L 169.007812 141.679688 L 170.0625 141.46875 L 171.148438 141.28125 L 172.234375 141.101562 L 173.351562 140.929688 L 174.476562 140.773438 L 175.609375 140.617188 L 177.9375 140.351562 L 179.117188 140.234375 L 180.3125 140.125 L 181.515625 140.023438 L 182.726562 139.9375 L 183.960938 139.851562 L 185.195312 139.78125 L 186.445312 139.710938 L 188.960938 139.601562 L 190.234375 139.554688 L 191.515625 139.523438 L 192.804688 139.484375 L 195.398438 139.4375 L 196.703125 139.421875 L 199.328125 139.40625 L 201.96875 139.40625 L 203.289062 139.414062 L 204.617188 139.429688 L 205.945312 139.4375 L 207.273438 139.453125 L 208.601562 139.476562 L 209.929688 139.492188 L 211.257812 139.515625 L 212.578125 139.539062 L 213.90625 139.5625 L 215.226562 139.585938 L 216.554688 139.617188 L 219.179688 139.664062 L 221.789062 139.710938 L 223.085938 139.742188 L 224.375 139.757812 L 225.65625 139.78125 L 226.9375 139.796875 L 228.210938 139.8125 L 229.46875 139.828125 L 230.71875 139.835938 L 231.960938 139.84375 L 233.195312 139.851562 L 234.421875 139.851562 L 236.828125 139.835938 L 238.015625 139.820312 L 239.1875 139.804688 L 240.351562 139.773438 L 241.492188 139.742188 L 242.625 139.710938 L 243.742188 139.664062 L 244.851562 139.617188 L 245.9375 139.554688 L 247.007812 139.492188 L 248.054688 139.421875 L 249.09375 139.335938 L 250.109375 139.25 L 251.109375 139.15625 L 252.085938 139.046875 L 253.046875 138.929688 L 253.984375 138.804688 L 254.90625 138.671875 L 255.796875 138.523438 L 256.671875 138.367188 L 257.523438 138.195312 L 258.351562 138.015625 L 259.15625 137.828125 L 259.945312 137.625 L 260.695312 137.414062 L 261.429688 137.1875 L 262.132812 136.945312 L 262.8125 136.6875 L 263.460938 136.421875 L 264.085938 136.140625 L 264.679688 135.84375 L 265.25 135.539062 L 265.789062 135.210938 L 266.296875 134.875 L 266.773438 134.523438 L 267.21875 134.148438 L 267.640625 133.765625 L 268.023438 133.359375 L 268.375 132.945312 L 268.695312 132.507812 L 268.976562 132.054688 L 269.226562 131.585938 L 269.445312 131.09375 L 269.132812 131.78125 L 268.789062 132.4375 L 268.40625 133.070312 L 268.007812 133.6875 L 267.5625 134.273438 L 267.101562 134.84375 L 266.601562 135.390625 L 266.078125 135.90625 L 265.53125 136.414062 L 264.953125 136.890625 L 264.34375 137.34375 L 263.710938 137.78125 L 263.054688 138.203125 L 262.375 138.601562 L 261.664062 138.976562 L 260.9375 139.335938 L 260.179688 139.671875 L 259.398438 140 L 258.601562 140.304688 L 257.773438 140.585938 L 256.929688 140.859375 L 256.0625 141.109375 L 255.179688 141.351562 L 254.273438 141.570312 L 253.34375 141.78125 L 252.398438 141.96875 L 251.4375 142.148438 L 250.453125 142.3125 L 249.453125 142.460938 L 248.429688 142.59375 L 247.390625 142.71875 L 246.34375 142.828125 L 245.28125 142.921875 L 244.195312 143.007812 L 243.101562 143.085938 L 241.992188 143.148438 L 240.867188 143.203125 L 239.726562 143.242188 L 238.578125 143.273438 L 237.414062 143.296875 L 236.242188 143.3125 L 235.0625 143.320312 L 233.867188 143.320312 L 231.445312 143.289062 L 230.21875 143.265625 L 228.984375 143.234375 L 227.742188 143.195312 L 226.5 143.148438 L 225.242188 143.101562 L 222.710938 142.992188 L 221.4375 142.929688 L 220.164062 142.859375 L 218.882812 142.789062 L 217.59375 142.71875 L 216.296875 142.640625 L 215.007812 142.5625 L 212.414062 142.40625 L 211.117188 142.320312 L 209.8125 142.234375 L 208.515625 142.148438 L 207.210938 142.070312 L 205.914062 141.984375 L 204.617188 141.90625 L 203.3125 141.820312 L 202.023438 141.742188 L 200.726562 141.664062 L 199.4375 141.59375 L 198.148438 141.515625 L 195.585938 141.390625 L 194.3125 141.328125 L 193.046875 141.273438 L 191.789062 141.21875 L 190.53125 141.171875 L 189.289062 141.132812 L 188.046875 141.101562 L 186.8125 141.070312 L 184.375 141.039062 L 183.171875 141.03125 L 181.976562 141.03125 L 179.617188 141.0625 L 178.460938 141.09375 L 177.3125 141.132812 L 176.179688 141.179688 L 175.054688 141.234375 L 173.945312 141.304688 L 172.851562 141.390625 L 171.765625 141.476562 L 170.703125 141.585938 L 169.65625 141.703125 L 168.625 141.828125 L 167.601562 141.976562 L 166.609375 142.132812 L 165.625 142.304688 L 164.664062 142.484375 L 163.71875 142.6875 L 162.789062 142.898438 L 161.890625 143.132812 L 161 143.375 L 160.132812 143.640625 L 159.289062 143.921875 L 158.46875 144.21875 L 157.671875 144.53125 L 156.898438 144.867188 L 156.140625 145.21875 L 155.414062 145.585938 L 154.710938 145.976562 L 154.03125 146.382812 L 153.375 146.8125 L 152.742188 147.257812 L 152.140625 147.726562 L 151.5625 148.21875 L 151.015625 148.734375 L 150.492188 149.265625 L 150 149.820312 L 149.507812 149.265625 L 148.992188 148.734375 L 148.4375 148.21875 L 147.867188 147.726562 L 147.265625 147.257812 L 146.632812 146.8125 L 145.976562 146.382812 L 145.296875 145.976562 L 144.59375 145.585938 L 143.859375 145.21875 L 143.109375 144.867188 L 142.328125 144.53125 L 141.53125 144.21875 L 140.710938 143.921875 L 139.867188 143.640625 L 139 143.375 L 138.117188 143.132812 L 137.210938 142.898438 L 136.289062 142.6875 L 135.34375 142.484375 L 134.382812 142.304688 L 133.398438 142.132812 L 132.398438 141.976562 L 131.382812 141.828125 L 130.351562 141.703125 L 129.296875 141.585938 L 128.234375 141.476562 L 127.15625 141.390625 L 126.0625 141.304688 L 124.953125 141.234375 L 123.828125 141.179688 L 122.6875 141.132812 L 121.539062 141.09375 L 120.382812 141.0625 L 119.210938 141.046875 L 118.023438 141.03125 L 116.828125 141.03125 L 115.625 141.039062 L 114.414062 141.054688 L 113.1875 141.070312 L 111.960938 141.101562 L 110.71875 141.132812 L 109.46875 141.171875 L 108.21875 141.21875 L 105.6875 141.328125 L 104.414062 141.390625 L 101.851562 141.515625 L 100.570312 141.59375 L 99.28125 141.664062 L 96.6875 141.820312 L 95.390625 141.90625 L 94.09375 141.984375 L 92.789062 142.070312 L 91.492188 142.148438 L 90.1875 142.234375 L 88.890625 142.320312 L 87.585938 142.40625 L 84.992188 142.5625 L 82.414062 142.71875 L 81.125 142.789062 L 78.5625 142.929688 L 77.289062 142.992188 L 74.757812 143.101562 L 72.257812 143.195312 L 71.015625 143.234375 L 69.78125 143.265625 L 68.5625 143.289062 L 67.34375 143.304688 L 66.140625 143.320312 L 64.945312 143.320312 L 63.757812 143.3125 L 62.585938 143.296875 L 61.421875 143.273438 L 60.273438 143.242188 L 59.140625 143.203125 L 58.015625 143.148438 L 56.90625 143.085938 L 55.804688 143.007812 L 54.726562 142.921875 L 53.65625 142.828125 L 52.609375 142.71875 L 51.570312 142.59375 L 50.554688 142.460938 L 49.554688 142.3125 L 48.570312 142.148438 L 47.609375 141.96875 L 46.664062 141.78125 L 45.734375 141.570312 L 44.828125 141.351562 L 43.9375 141.109375 L 43.070312 140.859375 L 42.226562 140.585938 L 41.40625 140.304688 L 40.601562 140 L 39.820312 139.671875 L 39.070312 139.335938 L 38.335938 138.976562 L 37.632812 138.601562 L 36.945312 138.203125 L 36.289062 137.78125 L 35.65625 137.34375 L 35.054688 136.890625 L 34.476562 136.414062 L 33.921875 135.90625 L 33.398438 135.390625 L 32.90625 134.84375 L 32.4375 134.273438 L 32 133.6875 L 31.59375 133.070312 L 31.21875 132.4375 L 30.867188 131.78125 L 30.554688 131.09375 "/>
<path fill="none" stroke-width="3.985" stroke-linecap="butt" stroke-linejoin="miter" stroke="rgb(0%, 0%, 0%)" stroke-opacity="1" stroke-miterlimit="10" d="M 152.773435 404.531244 L 153.867185 402.070307 L 155.117185 399.726557 L 156.562498 397.460932 L 158.16406 395.273432 L 159.88281 393.203119 L 161.835935 391.171869 L 163.906248 389.257807 L 166.13281 387.382807 L 168.554685 385.624994 L 171.093747 383.945307 L 173.78906 382.304682 L 176.60156 380.781244 L 179.609372 379.296869 L 182.69531 377.890619 L 185.97656 376.562494 L 189.374997 375.273432 L 192.890622 374.062494 L 196.523435 372.929682 L 200.312497 371.874994 L 204.218747 370.859369 L 208.242184 369.921869 L 212.382809 369.023432 L 216.640622 368.164057 L 221.015622 367.382807 L 225.507809 366.64062 L 230.078122 365.976557 L 234.765622 365.351557 L 239.570309 364.76562 L 244.453121 364.218745 L 249.453121 363.749995 L 254.570309 363.320307 L 259.726559 362.89062 L 264.999996 362.539057 L 270.351558 362.226557 L 275.781246 361.914057 L 281.289058 361.679682 L 286.874996 361.445307 L 292.539058 361.289057 L 298.281246 361.132807 L 304.062495 360.976557 L 309.960933 360.898432 L 315.898433 360.820307 L 321.874995 360.781245 L 327.929683 360.742182 L 334.023433 360.742182 L 340.195307 360.781245 L 346.406245 360.820307 L 352.656245 360.85937 L 365.312495 361.01562 L 371.718744 361.093745 L 378.124994 361.210932 L 384.609369 361.289057 L 391.054682 361.445307 L 404.101556 361.679682 L 410.664056 361.79687 L 417.265619 361.914057 L 423.867181 362.070307 L 430.468744 362.187495 L 437.109368 362.304682 L 443.710931 362.42187 L 450.390618 362.539057 L 457.031243 362.617182 L 463.671868 362.73437 L 470.312493 362.812495 L 476.914055 362.851557 L 483.55468 362.929682 L 490.195305 362.968745 L 503.359367 362.968745 L 509.96093 362.929682 L 516.484367 362.89062 L 523.007805 362.812495 L 529.531242 362.695307 L 535.976555 362.57812 L 542.421867 362.382807 L 548.828117 362.226557 L 555.195304 361.992182 L 561.523429 361.718745 L 567.812492 361.445307 L 580.234366 360.742182 L 586.367179 360.312495 L 592.421866 359.882807 L 598.476554 359.374995 L 604.453116 358.82812 L 610.351553 358.242182 L 616.171866 357.57812 L 621.953116 356.914057 L 627.656241 356.132807 L 633.281241 355.351557 L 638.828115 354.492182 L 644.296865 353.593745 L 649.68749 352.656245 L 654.99999 351.601557 L 660.234365 350.507807 L 665.351553 349.374995 L 670.390615 348.164057 L 675.31249 346.874995 L 680.195302 345.507807 L 684.921865 344.101557 L 689.570302 342.617182 L 694.101552 341.054682 L 698.515615 339.414057 L 702.81249 337.73437 L 707.031239 335.937495 L 711.132802 334.062495 L 715.078114 332.10937 L 718.945302 330.07812 L 722.656239 327.968745 L 726.249989 325.781245 L 729.687489 323.476558 L 733.007802 321.093745 L 736.210927 318.632808 L 739.257801 316.093745 L 742.148426 313.437495 L 744.921864 310.70312 L 747.539051 307.851558 L 749.999989 304.882808 L 752.460926 307.851558 L 755.078114 310.70312 L 757.851551 313.437495 L 760.781239 316.093745 L 763.828114 318.632808 L 766.992176 321.093745 L 770.312489 323.476558 L 773.789051 325.781245 L 777.382801 327.968745 L 781.093738 330.07812 L 784.921863 332.10937 L 788.906238 334.062495 L 792.968738 335.937495 L 797.187488 337.73437 L 801.484363 339.414057 L 805.937488 341.054682 L 810.468738 342.617182 L 815.078113 344.101557 L 819.843738 345.507807 L 824.687488 346.874995 L 829.648425 348.164057 L 834.687488 349.374995 L 839.804675 350.507807 L 845.03905 351.601557 L 850.312487 352.656245 L 855.742175 353.593745 L 861.171862 354.492182 L 866.7578 355.351557 L 872.3828 356.132807 L 878.046862 356.914057 L 889.687487 358.242182 L 895.585924 358.82812 L 901.562487 359.374995 L 907.578111 359.882807 L 913.632799 360.312495 L 919.804674 360.742182 L 925.976549 361.093745 L 932.226549 361.445307 L 944.804673 361.992182 L 951.171861 362.226557 L 957.578111 362.382807 L 964.023423 362.57812 L 976.992173 362.812495 L 983.51561 362.89062 L 996.64061 362.968745 L 1009.843735 362.968745 L 1016.445297 362.929682 L 1023.085922 362.851557 L 1029.726547 362.812495 L 1036.367172 362.73437 L 1043.007797 362.617182 L 1049.648422 362.539057 L 1056.289047 362.42187 L 1062.890609 362.304682 L 1069.531234 362.187495 L 1076.132796 362.070307 L 1082.773421 361.914057 L 1095.898421 361.679682 L 1108.945296 361.445307 L 1115.429671 361.289057 L 1121.874983 361.210932 L 1128.281233 361.093745 L 1134.687483 361.01562 L 1141.05467 360.937495 L 1147.343733 360.85937 L 1153.593733 360.820307 L 1159.80467 360.781245 L 1165.976545 360.742182 L 1172.109358 360.742182 L 1184.140607 360.820307 L 1190.078107 360.898432 L 1195.937482 360.976557 L 1201.757795 361.132807 L 1207.46092 361.289057 L 1213.124982 361.445307 L 1218.710919 361.679682 L 1224.257794 361.914057 L 1229.687482 362.226557 L 1235.039044 362.539057 L 1240.273419 362.89062 L 1245.468731 363.320307 L 1250.546856 363.749995 L 1255.546856 364.218745 L 1260.429669 364.76562 L 1265.234356 365.351557 L 1269.921856 365.976557 L 1274.531231 366.64062 L 1278.984356 367.382807 L 1283.359356 368.164057 L 1287.617168 369.023432 L 1291.757793 369.921869 L 1295.781231 370.859369 L 1299.726543 371.874994 L 1303.476543 372.929682 L 1307.148418 374.062494 L 1310.664043 375.273432 L 1314.06248 376.562494 L 1317.304668 377.890619 L 1320.429668 379.296869 L 1323.398418 380.781244 L 1326.24998 382.304682 L 1328.945293 383.945307 L 1331.484355 385.624994 L 1333.867168 387.382807 L 1336.09373 389.257807 L 1338.203105 391.171869 L 1340.117168 393.203119 L 1341.87498 395.273432 L 1343.476542 397.460932 L 1344.882792 399.726557 L 1346.132792 402.070307 L 1347.226542 404.531244 L 1345.664042 401.093744 L 1343.945292 397.812494 L 1342.03123 394.648432 L 1340.039043 391.562494 L 1337.81248 388.632807 L 1335.507793 385.781244 L 1333.007793 383.046869 L 1330.390605 380.468744 L 1327.65623 377.929682 L 1324.765605 375.546869 L 1321.71873 373.281244 L 1318.554668 371.093744 L 1315.273418 368.98437 L 1311.87498 366.992182 L 1308.320293 365.117182 L 1304.687481 363.320307 L 1300.898418 361.64062 L 1296.992168 359.999995 L 1293.007793 358.476557 L 1288.867168 357.070307 L 1284.648418 355.70312 L 1280.312481 354.45312 L 1275.898418 353.242182 L 1271.367169 352.148432 L 1266.718731 351.093745 L 1261.992169 350.156245 L 1257.187481 349.257807 L 1252.265606 348.437495 L 1247.265606 347.695307 L 1242.148419 347.031245 L 1236.953107 346.406245 L 1231.718732 345.85937 L 1226.406232 345.39062 L 1220.976544 344.960932 L 1215.507794 344.570307 L 1209.960919 344.257807 L 1204.33592 343.98437 L 1198.632795 343.789057 L 1192.890607 343.632807 L 1187.070295 343.51562 L 1181.21092 343.437495 L 1175.312482 343.398432 L 1169.33592 343.398432 L 1157.226545 343.554682 L 1151.093733 343.67187 L 1144.921858 343.82812 L 1138.710921 344.023432 L 1132.499983 344.257807 L 1126.210921 344.492182 L 1113.554671 345.039057 L 1107.187484 345.351557 L 1100.820296 345.70312 L 1094.414046 346.054682 L 1087.968734 346.406245 L 1081.484359 346.79687 L 1075.039046 347.187495 L 1062.070297 347.968745 L 1055.585922 348.398432 L 1049.062484 348.82812 L 1042.578109 349.257807 L 1036.054672 349.648432 L 1029.570297 350.07812 L 1023.085922 350.468745 L 1016.562485 350.898432 L 1010.117172 351.289057 L 1003.632798 351.679682 L 997.187485 352.031245 L 990.742173 352.42187 L 977.929673 353.04687 L 971.562486 353.35937 L 965.234361 353.632807 L 958.945298 353.906245 L 952.656236 354.14062 L 946.445298 354.335932 L 940.234361 354.492182 L 934.062486 354.648432 L 921.874986 354.804682 L 915.859361 354.843745 L 909.882799 354.843745 L 898.085924 354.687495 L 892.304674 354.531245 L 886.562487 354.335932 L 880.898424 354.101557 L 875.273424 353.82812 L 869.72655 353.476557 L 864.2578 353.04687 L 858.828112 352.617182 L 853.515612 352.070307 L 848.281237 351.48437 L 843.124987 350.85937 L 838.0078 350.117182 L 833.046863 349.335932 L 828.124988 348.476557 L 823.3203 347.57812 L 818.593738 346.562495 L 813.9453 345.507807 L 809.453113 344.335932 L 804.999988 343.124995 L 800.664051 341.79687 L 796.445301 340.39062 L 792.343738 338.906245 L 788.359363 337.343745 L 784.492176 335.664057 L 780.703113 333.906245 L 777.070301 332.070308 L 773.554676 330.117183 L 770.156239 328.085933 L 766.874989 325.937495 L 763.710926 323.710933 L 760.703114 321.367183 L 757.812489 318.906245 L 755.078114 316.32812 L 752.460926 313.67187 L 749.999989 310.898433 L 747.539051 313.67187 L 744.960926 316.32812 L 742.187489 318.906245 L 739.335926 321.367183 L 736.328114 323.710933 L 733.164052 325.937495 L 729.882802 328.085933 L 726.484364 330.117183 L 722.968739 332.070308 L 719.296864 333.906245 L 715.546864 335.664057 L 711.640614 337.343745 L 707.656239 338.906245 L 703.554677 340.39062 L 699.335927 341.79687 L 694.99999 343.124995 L 690.585927 344.335932 L 686.054677 345.507807 L 681.445302 346.562495 L 676.71874 347.57812 L 671.914052 348.476557 L 666.992178 349.335932 L 661.992178 350.117182 L 656.914053 350.85937 L 651.757803 351.48437 L 646.484365 352.070307 L 641.171865 352.617182 L 635.781241 353.04687 L 630.312491 353.476557 L 624.765616 353.82812 L 619.140616 354.101557 L 613.437491 354.335932 L 607.695303 354.531245 L 601.914054 354.687495 L 596.054679 354.76562 L 590.117179 354.843745 L 584.140616 354.843745 L 578.124991 354.804682 L 572.070304 354.726557 L 565.937492 354.648432 L 559.804679 354.492182 L 553.593742 354.335932 L 547.343742 354.14062 L 541.093742 353.906245 L 528.437492 353.35937 L 522.070305 353.04687 L 509.257805 352.42187 L 502.851555 352.031245 L 496.406243 351.679682 L 483.437493 350.898432 L 476.953118 350.468745 L 470.468743 350.07812 L 463.945306 349.648432 L 457.460931 349.257807 L 450.937493 348.82812 L 444.453118 348.398432 L 437.929681 347.968745 L 424.960931 347.187495 L 412.070306 346.406245 L 405.624994 346.054682 L 392.812494 345.351557 L 386.445307 345.039057 L 373.789057 344.492182 L 361.289057 344.023432 L 355.07812 343.82812 L 348.906245 343.67187 L 342.812495 343.554682 L 336.718745 343.476557 L 330.70312 343.398432 L 324.726558 343.398432 L 318.789058 343.437495 L 312.929683 343.51562 L 307.10937 343.632807 L 301.367183 343.789057 L 295.703121 343.98437 L 290.078121 344.257807 L 284.531246 344.570307 L 279.023433 344.960932 L 273.632808 345.39062 L 268.281246 345.85937 L 263.046871 346.406245 L 257.851559 347.031245 L 252.773434 347.695307 L 247.773434 348.437495 L 242.851559 349.257807 L 238.046871 350.156245 L 233.320309 351.093745 L 228.671872 352.148432 L 224.140622 353.242182 L 219.687497 354.45312 L 215.351559 355.70312 L 211.132809 357.070307 L 207.031247 358.476557 L 203.007809 359.999995 L 199.10156 361.64062 L 195.35156 363.320307 L 191.679685 365.117182 L 188.16406 366.992182 L 184.72656 368.98437 L 181.44531 371.093744 L 178.281247 373.281244 L 175.273435 375.546869 L 172.38281 377.929682 L 169.609372 380.468744 L 166.992185 383.046869 L 164.531248 385.781244 L 162.187498 388.632807 L 159.999998 391.562494 L 157.968748 394.648432 L 156.093748 397.812494 L 154.335935 401.093744 Z M 152.773435 404.531244 " transform="matrix(0.2, 0, 0, -0.2, 0, 212)"/>
<path fill-rule="nonzero" fill="rgb(100%, 100%, 100%)" fill-opacity="1" d="M 285.796875 72.789062 L 308.835938 72.789062 L 308.835938 98.945312 L 285.796875 98.945312 Z M 285.796875 72.789062 "/>
<path fill-rule="nonzero" fill="rgb(0%, 0%, 0%)" fill-opacity="1" d="M 298.230469 89.332031 L 298.230469 91.238281 C 298.230469 92.019531 298.199219 92.238281 296.574219 92.238281 L 296.136719 92.238281 L 296.136719 92.925781 C 297.011719 92.863281 298.136719 92.863281 299.074219 92.863281 C 299.980469 92.863281 301.136719 92.863281 302.042969 92.925781 L 302.042969 92.238281 L 301.574219 92.238281 C 299.949219 92.238281 299.917969 92.019531 299.917969 91.238281 L 299.917969 89.332031 L 302.105469 89.332031 L 302.105469 88.644531 L 299.917969 88.644531 L 299.917969 78.738281 C 299.917969 78.300781 299.917969 78.144531 299.574219 78.144531 C 299.386719 78.144531 299.292969 78.144531 299.136719 78.425781 L 292.449219 88.644531 L 292.449219 89.332031 Z M 298.355469 88.644531 L 293.042969 88.644531 L 298.355469 80.519531 Z M 298.355469 88.644531 "/>
<path fill-rule="nonzero" fill="rgb(0%, 0%, 0%)" fill-opacity="1" d="M 277.421875 125.117188 L 277.609375 125.015625 L 277.796875 124.898438 L 277.976562 124.78125 L 278.148438 124.648438 L 278.3125 124.507812 L 278.46875 124.359375 L 278.617188 124.203125 L 278.757812 124.039062 L 278.890625 123.867188 L 279.023438 123.6875 L 279.257812 123.3125 L 279.359375 123.109375 L 279.460938 122.898438 L 279.554688 122.679688 L 279.648438 122.453125 L 279.726562 122.226562 L 279.804688 121.992188 L 279.882812 121.75 L 279.945312 121.5 L 280.007812 121.242188 L 280.0625 120.976562 L 280.109375 120.710938 L 280.203125 120.148438 L 280.234375 119.867188 L 280.273438 119.570312 L 280.296875 119.273438 L 280.34375 118.664062 L 280.359375 118.351562 L 280.375 118.03125 L 280.382812 117.703125 L 280.390625 117.382812 L 280.390625 116.367188 L 280.382812 116.023438 L 280.382812 115.671875 L 280.367188 115.320312 L 280.359375 114.960938 L 280.34375 114.601562 L 280.3125 113.867188 L 280.289062 113.5 L 280.242188 112.75 L 280.171875 111.601562 L 280.125 110.820312 L 280.0625 110.039062 L 280.015625 109.242188 L 279.984375 108.84375 L 279.960938 108.4375 L 279.929688 108.039062 L 279.8125 106.007812 L 279.796875 105.59375 L 279.78125 105.1875 L 279.757812 104.78125 L 279.75 104.367188 L 279.734375 103.960938 L 279.726562 103.546875 L 279.71875 103.140625 L 279.710938 102.726562 L 279.710938 101.507812 L 279.71875 101.09375 L 279.726562 100.6875 L 279.742188 100.289062 L 279.757812 99.882812 L 279.78125 99.476562 L 279.828125 98.679688 L 279.859375 98.28125 L 279.898438 97.890625 L 279.9375 97.492188 L 279.984375 97.101562 L 280.09375 96.320312 L 280.21875 95.554688 L 280.289062 95.179688 L 280.367188 94.796875 L 280.453125 94.429688 L 280.539062 94.054688 L 280.632812 93.6875 L 280.734375 93.328125 L 280.953125 92.609375 L 281.070312 92.257812 L 281.203125 91.90625 L 281.328125 91.5625 L 281.773438 90.554688 L 281.9375 90.226562 L 282.109375 89.90625 L 282.289062 89.585938 L 282.476562 89.28125 L 282.671875 88.96875 L 282.867188 88.664062 L 283.078125 88.367188 L 283.296875 88.078125 L 283.765625 87.515625 L 284.015625 87.242188 L 284.53125 86.710938 L 284.8125 86.453125 L 285.09375 86.203125 L 285.382812 85.960938 L 285.09375 85.71875 L 284.53125 85.21875 L 284.015625 84.6875 L 283.765625 84.414062 L 283.296875 83.851562 L 283.078125 83.5625 L 282.867188 83.265625 L 282.476562 82.65625 L 282.289062 82.335938 L 282.109375 82.023438 L 281.9375 81.703125 L 281.773438 81.375 L 281.328125 80.367188 L 281.203125 80.023438 L 281.070312 79.671875 L 280.953125 79.320312 L 280.734375 78.601562 L 280.632812 78.242188 L 280.539062 77.875 L 280.453125 77.5 L 280.367188 77.132812 L 280.289062 76.757812 L 280.21875 76.375 L 280.09375 75.609375 L 279.984375 74.828125 L 279.9375 74.4375 L 279.898438 74.046875 L 279.859375 73.648438 L 279.828125 73.25 L 279.804688 72.851562 L 279.78125 72.445312 L 279.757812 72.046875 L 279.726562 71.234375 L 279.710938 70.421875 L 279.710938 69.195312 L 279.726562 68.382812 L 279.734375 67.96875 L 279.75 67.5625 L 279.757812 67.148438 L 279.78125 66.742188 L 279.796875 66.328125 L 279.8125 65.921875 L 279.929688 63.890625 L 279.960938 63.492188 L 279.984375 63.085938 L 280.015625 62.6875 L 280.039062 62.289062 L 280.0625 61.898438 L 280.09375 61.5 L 280.125 61.109375 L 280.171875 60.328125 L 280.242188 59.179688 L 280.289062 58.429688 L 280.3125 58.0625 L 280.34375 57.328125 L 280.359375 56.96875 L 280.367188 56.609375 L 280.382812 56.257812 L 280.382812 55.90625 L 280.390625 55.5625 L 280.390625 54.546875 L 280.382812 54.21875 L 280.375 53.898438 L 280.359375 53.578125 L 280.34375 53.265625 L 280.296875 52.65625 L 280.273438 52.359375 L 280.234375 52.0625 L 280.203125 51.78125 L 280.15625 51.5 L 280.0625 50.953125 L 280.007812 50.6875 L 279.882812 50.1875 L 279.804688 49.9375 L 279.648438 49.46875 L 279.460938 49.03125 L 279.359375 48.820312 L 279.257812 48.617188 L 279.023438 48.242188 L 278.890625 48.0625 L 278.757812 47.890625 L 278.617188 47.726562 L 278.46875 47.570312 L 278.3125 47.421875 L 278.148438 47.28125 L 277.976562 47.15625 L 277.796875 47.03125 L 277.421875 46.8125 L 277.671875 46.945312 L 277.914062 47.085938 L 278.148438 47.234375 L 278.375 47.398438 L 278.585938 47.5625 L 278.992188 47.90625 L 279.171875 48.09375 L 279.351562 48.289062 L 279.523438 48.492188 L 279.679688 48.695312 L 279.835938 48.914062 L 279.976562 49.132812 L 280.117188 49.359375 L 280.242188 49.59375 L 280.359375 49.828125 L 280.476562 50.078125 L 280.578125 50.328125 L 280.679688 50.585938 L 280.773438 50.851562 L 280.859375 51.117188 L 280.9375 51.390625 L 281.007812 51.671875 L 281.070312 51.953125 L 281.132812 52.25 L 281.1875 52.539062 L 281.234375 52.84375 L 281.273438 53.148438 L 281.3125 53.460938 L 281.34375 53.773438 L 281.390625 54.414062 L 281.421875 55.070312 L 281.429688 55.40625 L 281.429688 56.4375 L 281.421875 56.789062 L 281.40625 57.140625 L 281.398438 57.5 L 281.375 57.859375 L 281.359375 58.21875 L 281.335938 58.585938 L 281.304688 58.953125 L 281.28125 59.328125 L 281.21875 60.078125 L 281.179688 60.460938 L 281.148438 60.835938 L 281.109375 61.226562 L 281.03125 61.992188 L 280.992188 62.382812 L 280.945312 62.773438 L 280.90625 63.164062 L 280.859375 63.5625 L 280.820312 63.953125 L 280.773438 64.351562 L 280.726562 64.742188 L 280.6875 65.140625 L 280.640625 65.539062 L 280.601562 65.9375 L 280.554688 66.34375 L 280.4375 67.539062 L 280.398438 67.945312 L 280.335938 68.742188 L 280.304688 69.148438 L 280.242188 69.945312 L 280.195312 70.742188 L 280.179688 71.140625 L 280.164062 71.53125 L 280.148438 71.929688 L 280.132812 72.710938 L 280.132812 73.492188 L 280.148438 74.273438 L 280.15625 74.65625 L 280.179688 75.039062 L 280.203125 75.414062 L 280.234375 75.796875 L 280.265625 76.171875 L 280.304688 76.539062 L 280.351562 76.914062 L 280.398438 77.28125 L 280.453125 77.640625 L 280.515625 78.007812 L 280.578125 78.359375 L 280.65625 78.71875 L 280.734375 79.070312 L 280.820312 79.421875 L 280.921875 79.765625 L 281.125 80.4375 L 281.242188 80.773438 L 281.367188 81.101562 L 281.5 81.429688 L 281.640625 81.75 L 281.78125 82.0625 L 281.9375 82.375 L 282.101562 82.6875 L 282.273438 82.984375 L 282.648438 83.578125 L 282.84375 83.867188 L 283.054688 84.148438 L 283.273438 84.421875 L 283.5 84.695312 L 283.734375 84.960938 L 283.984375 85.21875 L 284.242188 85.476562 L 284.789062 85.960938 L 284.515625 86.203125 L 284.242188 86.453125 L 283.984375 86.710938 L 283.734375 86.96875 L 283.5 87.234375 L 283.273438 87.507812 L 283.054688 87.78125 L 282.84375 88.0625 L 282.648438 88.351562 L 282.273438 88.945312 L 282.101562 89.242188 L 281.9375 89.554688 L 281.78125 89.867188 L 281.640625 90.179688 L 281.5 90.5 L 281.367188 90.828125 L 281.242188 91.15625 L 281.125 91.484375 L 281.023438 91.828125 L 280.921875 92.164062 L 280.820312 92.515625 L 280.734375 92.859375 L 280.65625 93.210938 L 280.578125 93.570312 L 280.453125 94.289062 L 280.398438 94.648438 L 280.351562 95.015625 L 280.304688 95.390625 L 280.265625 95.765625 L 280.234375 96.132812 L 280.203125 96.515625 L 280.179688 96.890625 L 280.15625 97.273438 L 280.148438 97.664062 L 280.140625 98.046875 L 280.132812 98.4375 L 280.132812 99.210938 L 280.140625 99.609375 L 280.148438 100 L 280.164062 100.398438 L 280.179688 100.789062 L 280.195312 101.1875 L 280.242188 101.984375 L 280.273438 102.382812 L 280.304688 102.789062 L 280.398438 103.984375 L 280.4375 104.390625 L 280.554688 105.585938 L 280.601562 105.984375 L 280.640625 106.390625 L 280.6875 106.789062 L 280.726562 107.1875 L 280.773438 107.578125 L 280.820312 107.976562 L 280.859375 108.367188 L 280.90625 108.765625 L 280.945312 109.15625 L 280.992188 109.546875 L 281.03125 109.9375 L 281.070312 110.320312 L 281.109375 110.710938 L 281.148438 111.09375 L 281.179688 111.46875 L 281.21875 111.851562 L 281.28125 112.601562 L 281.304688 112.976562 L 281.335938 113.34375 L 281.359375 113.710938 L 281.375 114.070312 L 281.398438 114.429688 L 281.40625 114.789062 L 281.421875 115.140625 L 281.429688 115.492188 L 281.429688 116.523438 L 281.421875 116.859375 L 281.390625 117.515625 L 281.34375 118.15625 L 281.3125 118.46875 L 281.273438 118.78125 L 281.234375 119.085938 L 281.1875 119.390625 L 281.132812 119.679688 L 281.007812 120.257812 L 280.9375 120.539062 L 280.859375 120.8125 L 280.773438 121.078125 L 280.679688 121.34375 L 280.578125 121.601562 L 280.476562 121.851562 L 280.359375 122.101562 L 280.242188 122.335938 L 280.117188 122.570312 L 279.835938 123.023438 L 279.679688 123.234375 L 279.523438 123.4375 L 279.351562 123.640625 L 279.171875 123.835938 L 278.992188 124.023438 L 278.789062 124.203125 L 278.585938 124.367188 L 278.375 124.539062 L 278.148438 124.695312 L 277.914062 124.84375 L 277.671875 124.984375 L 277.421875 125.117188 "/>
<path fill="none" stroke-width="3.985" stroke-linecap="butt" stroke-linejoin="miter" stroke="rgb(0%, 0%, 0%)" stroke-opacity="1" stroke-miterlimit="10" d="M 1387.109354 434.414056 L 1388.046854 434.921869 L 1388.984354 435.507806 L 1389.882792 436.093744 L 1390.742167 436.757806 L 1391.562479 437.460931 L 1392.343729 438.203118 L 1393.085917 438.984368 L 1393.789042 439.804681 L 1394.453104 440.664056 L 1395.117167 441.562493 L 1396.289042 443.437493 L 1396.796854 444.453118 L 1397.304667 445.507806 L 1397.773417 446.601556 L 1398.242167 447.734368 L 1398.632792 448.867181 L 1399.023417 450.039056 L 1399.414042 451.249993 L 1399.726542 452.499993 L 1400.039042 453.789056 L 1400.312479 455.117181 L 1400.546854 456.445306 L 1401.015604 459.257806 L 1401.171854 460.664056 L 1401.367167 462.148431 L 1401.484354 463.632806 L 1401.718729 466.679681 L 1401.796854 468.242181 L 1401.874979 469.843743 L 1401.914042 471.484368 L 1401.953104 473.08593 L 1401.953104 478.164055 L 1401.914042 479.882805 L 1401.914042 481.640618 L 1401.835917 483.39843 L 1401.796854 485.195305 L 1401.718729 486.99218 L 1401.562479 490.664055 L 1401.445292 492.499993 L 1401.210917 496.249993 L 1400.859354 501.99218 L 1400.624979 505.89843 L 1400.312479 509.80468 L 1400.078104 513.789055 L 1399.921854 515.781242 L 1399.804667 517.812492 L 1399.648417 519.80468 L 1399.062479 529.96093 L 1398.984354 532.031242 L 1398.906229 534.062492 L 1398.789042 536.093742 L 1398.749979 538.164054 L 1398.671854 540.195304 L 1398.632792 542.265617 L 1398.593729 544.296867 L 1398.554667 546.367179 L 1398.554667 552.460929 L 1398.593729 554.531242 L 1398.632792 556.562492 L 1398.710917 558.554679 L 1398.789042 560.585929 L 1398.906229 562.617179 L 1399.140604 566.601554 L 1399.296854 568.593742 L 1399.492167 570.546866 L 1399.687479 572.539054 L 1399.921854 574.492179 L 1400.468729 578.398429 L 1401.093729 582.226554 L 1401.445292 584.101554 L 1401.835917 586.015616 L 1402.265604 587.851554 L 1402.695292 589.726554 L 1403.164042 591.562491 L 1403.671854 593.359366 L 1404.765604 596.953116 L 1405.351542 598.710929 L 1406.015604 600.468741 L 1406.640604 602.187491 L 1408.867167 607.226553 L 1409.687479 608.867178 L 1410.546854 610.468741 L 1411.445291 612.070303 L 1412.382791 613.593741 L 1413.359354 615.156241 L 1414.335916 616.679678 L 1415.390604 618.164053 L 1416.484354 619.609366 L 1418.828104 622.421866 L 1420.078104 623.789053 L 1422.656229 626.445303 L 1424.062479 627.734366 L 1425.468729 628.984366 L 1426.914041 630.195303 L 1425.468729 631.406241 L 1422.656229 633.906241 L 1420.078104 636.562491 L 1418.828104 637.929678 L 1416.484354 640.742178 L 1415.390604 642.18749 L 1414.335916 643.671865 L 1412.382791 646.71874 L 1411.445291 648.320303 L 1410.546854 649.882803 L 1409.687479 651.484365 L 1408.867167 653.12499 L 1406.640604 658.164053 L 1406.015604 659.882803 L 1405.351542 661.640615 L 1404.765604 663.398428 L 1403.671854 666.992178 L 1403.164042 668.789053 L 1402.695292 670.62499 L 1402.265604 672.49999 L 1401.835917 674.335927 L 1401.445292 676.210927 L 1401.093729 678.12499 L 1400.468729 681.953115 L 1399.921854 685.859365 L 1399.687479 687.81249 L 1399.492167 689.765615 L 1399.296854 691.757802 L 1399.140604 693.74999 L 1399.023417 695.742177 L 1398.906229 697.773427 L 1398.789042 699.765615 L 1398.632792 703.828115 L 1398.554667 707.890614 L 1398.554667 714.023427 L 1398.632792 718.085927 L 1398.671854 720.156239 L 1398.749979 722.187489 L 1398.789042 724.257802 L 1398.906229 726.289052 L 1398.984354 728.359364 L 1399.062479 730.390614 L 1399.648417 740.546864 L 1399.804667 742.539051 L 1399.921854 744.570301 L 1400.078104 746.562489 L 1400.195292 748.554676 L 1400.312479 750.507801 L 1400.468729 752.499989 L 1400.624979 754.453114 L 1400.859354 758.359364 L 1401.210917 764.101551 L 1401.445292 767.851551 L 1401.562479 769.687489 L 1401.718729 773.359363 L 1401.796854 775.156238 L 1401.835917 776.953113 L 1401.914042 778.710926 L 1401.914042 780.468738 L 1401.953104 782.187488 L 1401.953104 787.265613 L 1401.914042 788.906238 L 1401.874979 790.507801 L 1401.796854 792.109363 L 1401.718729 793.671863 L 1401.484354 796.718738 L 1401.367167 798.203113 L 1401.171854 799.687488 L 1401.015604 801.093738 L 1400.781229 802.499988 L 1400.312479 805.234363 L 1400.039042 806.562488 L 1399.414042 809.062488 L 1399.023417 810.312488 L 1398.242167 812.656238 L 1397.304667 814.843738 L 1396.796854 815.898425 L 1396.289042 816.91405 L 1395.117167 818.78905 L 1394.453104 819.687488 L 1393.789042 820.546863 L 1393.085917 821.367175 L 1392.343729 822.148425 L 1391.562479 822.890613 L 1390.742167 823.593738 L 1389.882792 824.218738 L 1388.984354 824.843738 L 1387.109354 825.937488 L 1388.359354 825.273425 L 1389.570292 824.5703 L 1390.742167 823.828113 L 1391.874979 823.0078 L 1392.929667 822.187488 L 1394.960917 820.468738 L 1395.859354 819.531238 L 1396.757792 818.554675 L 1397.617167 817.53905 L 1398.398417 816.523425 L 1399.179667 815.429675 L 1399.882792 814.335925 L 1400.585917 813.203113 L 1401.210917 812.031238 L 1401.796854 810.859363 L 1402.382792 809.609363 L 1402.890604 808.359363 L 1403.398417 807.0703 L 1403.867167 805.742175 L 1404.296854 804.414051 L 1404.687479 803.046863 L 1405.039042 801.640613 L 1405.351542 800.234363 L 1405.664042 798.749988 L 1405.937479 797.304676 L 1406.171854 795.781238 L 1406.367167 794.257801 L 1406.562479 792.695301 L 1406.718729 791.132801 L 1406.953104 787.929676 L 1407.109354 784.648426 L 1407.148417 782.968738 L 1407.148417 777.812488 L 1407.109354 776.054676 L 1407.031229 774.296863 L 1406.992167 772.499988 L 1406.874979 770.703114 L 1406.796854 768.906239 L 1406.679667 767.070301 L 1406.523417 765.234364 L 1406.406229 763.359364 L 1406.093729 759.609364 L 1405.898417 757.695301 L 1405.742167 755.820301 L 1405.546854 753.867176 L 1405.156229 750.039051 L 1404.960917 748.085926 L 1404.726542 746.132801 L 1404.531229 744.179676 L 1404.296854 742.187489 L 1404.101542 740.234364 L 1403.867167 738.242176 L 1403.632792 736.289052 L 1403.437479 734.296864 L 1403.203104 732.304677 L 1403.007792 730.312489 L 1402.773417 728.281239 L 1402.187479 722.304677 L 1401.992167 720.273427 L 1401.679667 716.289052 L 1401.523417 714.257802 L 1401.210917 710.273427 L 1400.976542 706.289052 L 1400.898417 704.296865 L 1400.820292 702.34374 L 1400.742167 700.351552 L 1400.664042 696.445302 L 1400.664042 692.539052 L 1400.742167 688.632802 L 1400.781229 686.71874 L 1400.898417 684.804677 L 1401.015604 682.929677 L 1401.171854 681.015615 L 1401.328104 679.140615 L 1401.523417 677.304677 L 1401.757792 675.429677 L 1401.992167 673.59374 L 1402.265604 671.796865 L 1402.578104 669.960928 L 1402.890604 668.203115 L 1403.281229 666.40624 L 1403.671854 664.648428 L 1404.101542 662.890615 L 1404.609354 661.171865 L 1405.624979 657.81249 L 1406.210917 656.132803 L 1406.835917 654.492178 L 1407.499979 652.851553 L 1408.203104 651.24999 L 1408.906229 649.68749 L 1409.687479 648.12499 L 1410.507791 646.56249 L 1411.367166 645.078115 L 1413.242166 642.109365 L 1414.218729 640.664053 L 1415.273416 639.257803 L 1416.367166 637.890615 L 1417.499979 636.523428 L 1418.671854 635.195303 L 1419.921854 633.906241 L 1421.210916 632.617178 L 1423.945291 630.195303 L 1422.578104 628.984366 L 1421.210916 627.734366 L 1419.921854 626.445303 L 1418.671854 625.156241 L 1417.499979 623.828116 L 1416.367166 622.460928 L 1415.273416 621.093741 L 1414.218729 619.687491 L 1413.242166 618.242178 L 1411.367166 615.273428 L 1410.507791 613.789053 L 1409.687479 612.226553 L 1408.906229 610.664053 L 1408.203104 609.101553 L 1407.499979 607.499991 L 1406.835917 605.859366 L 1406.210917 604.218741 L 1405.624979 602.578116 L 1405.117167 600.859366 L 1404.609354 599.179679 L 1404.101542 597.421866 L 1403.671854 595.703116 L 1403.281229 593.945304 L 1402.890604 592.148429 L 1402.265604 588.554679 L 1401.992167 586.757804 L 1401.757792 584.921866 L 1401.523417 583.046866 L 1401.328104 581.171866 L 1401.171854 579.335929 L 1401.015604 577.421866 L 1400.898417 575.546866 L 1400.781229 573.632804 L 1400.742167 571.679679 L 1400.703104 569.765617 L 1400.664042 567.812492 L 1400.664042 563.945304 L 1400.703104 561.953117 L 1400.742167 559.999992 L 1400.820292 558.007804 L 1400.898417 556.054679 L 1400.976542 554.062492 L 1401.210917 550.078117 L 1401.367167 548.085929 L 1401.523417 546.054679 L 1401.992167 540.078117 L 1402.187479 538.046867 L 1402.773417 532.070305 L 1403.007792 530.078117 L 1403.203104 528.046867 L 1403.437479 526.05468 L 1403.632792 524.062492 L 1403.867167 522.109367 L 1404.101542 520.11718 L 1404.296854 518.164055 L 1404.531229 516.171867 L 1404.726542 514.218742 L 1404.960917 512.265617 L 1405.156229 510.312492 L 1405.351542 508.39843 L 1405.546854 506.445305 L 1405.742167 504.531242 L 1405.898417 502.656243 L 1406.093729 500.74218 L 1406.406229 496.99218 L 1406.523417 495.11718 L 1406.679667 493.281243 L 1406.796854 491.445305 L 1406.874979 489.64843 L 1406.992167 487.851555 L 1407.031229 486.05468 L 1407.109354 484.296868 L 1407.148417 482.539055 L 1407.148417 477.382805 L 1407.109354 475.703118 L 1406.953104 472.421868 L 1406.718729 469.218743 L 1406.562479 467.656243 L 1406.367167 466.093743 L 1406.171854 464.570306 L 1405.937479 463.046868 L 1405.664042 461.601556 L 1405.039042 458.710931 L 1404.687479 457.304681 L 1404.296854 455.937493 L 1403.867167 454.609368 L 1403.398417 453.281243 L 1402.890604 451.992181 L 1402.382792 450.742181 L 1401.796854 449.492181 L 1401.210917 448.320306 L 1400.585917 447.148431 L 1399.179667 444.882806 L 1398.398417 443.828118 L 1397.617167 442.812493 L 1396.757792 441.796868 L 1395.859354 440.820306 L 1394.960917 439.882806 L 1393.945292 438.984368 L 1392.929667 438.164056 L 1391.874979 437.304681 L 1390.742167 436.523431 L 1389.570292 435.781244 L 1388.359354 435.078119 Z M 1387.109354 434.414056 " transform="matrix(0.2, 0, 0, -0.2, 0, 212)"/>
<path fill-rule="nonzero" fill="rgb(100%, 100%, 100%)" fill-opacity="1" d="M -2.734375 127.132812 L 26.546875 127.132812 L 26.546875 154.015625 L -2.734375 154.015625 Z M -2.734375 127.132812 "/>
<path fill-rule="nonzero" fill="rgb(0%, 0%, 0%)" fill-opacity="1" d="M 19.445312 138.488281 C 19.445312 134.957031 17.132812 132.613281 13.882812 132.613281 C 9.164062 132.613281 4.351562 137.550781 4.351562 142.644531 C 4.351562 146.269531 6.789062 148.457031 9.945312 148.457031 C 14.570312 148.457031 19.445312 143.675781 19.445312 138.488281 Z M 10.070312 147.894531 C 7.914062 147.894531 6.382812 146.144531 6.382812 143.269531 C 6.382812 142.300781 6.695312 139.113281 8.382812 136.550781 C 9.882812 134.300781 12.007812 133.144531 13.726562 133.144531 C 15.539062 133.144531 17.476562 134.363281 17.476562 137.613281 C 17.476562 139.207031 16.914062 142.613281 14.726562 145.269531 C 13.695312 146.613281 11.914062 147.894531 10.070312 147.894531 Z M 10.070312 147.894531 "/>
<path fill-rule="nonzero" fill="rgb(100%, 100%, 100%)" fill-opacity="1" d="M 277.757812 127.132812 L 302.234375 127.132812 L 302.234375 148.492188 L 277.757812 148.492188 Z M 277.757812 127.132812 "/>
<path fill-rule="nonzero" fill="rgb(0%, 0%, 0%)" fill-opacity="1" d="M 291.0625 135.875 C 291.1875 135.3125 291.6875 133.3125 293.21875 133.3125 C 293.34375 133.3125 293.84375 133.3125 294.3125 133.59375 C 293.71875 133.6875 293.28125 134.25 293.28125 134.78125 C 293.28125 135.125 293.5 135.53125 294.09375 135.53125 C 294.59375 135.53125 295.28125 135.125 295.28125 134.28125 C 295.28125 133.125 294 132.8125 293.25 132.8125 C 291.96875 132.8125 291.21875 133.96875 290.96875 134.5 C 290.40625 133.03125 289.21875 132.8125 288.59375 132.8125 C 286.34375 132.8125 285.09375 135.65625 285.09375 136.1875 C 285.09375 136.40625 285.3125 136.40625 285.34375 136.40625 C 285.53125 136.40625 285.59375 136.375 285.625 136.15625 C 286.375 133.84375 287.8125 133.3125 288.5625 133.3125 C 288.96875 133.3125 289.75 133.5 289.75 134.78125 C 289.75 135.4375 289.375 136.90625 288.5625 139.96875 C 288.21875 141.3125 287.4375 142.21875 286.5 142.21875 C 286.34375 142.21875 285.84375 142.21875 285.40625 141.9375 C 285.9375 141.84375 286.40625 141.375 286.40625 140.78125 C 286.40625 140.1875 285.9375 140 285.625 140 C 284.96875 140 284.40625 140.5625 284.40625 141.28125 C 284.40625 142.28125 285.5 142.71875 286.46875 142.71875 C 287.90625 142.71875 288.6875 141.1875 288.75 141.0625 C 289.03125 141.84375 289.8125 142.71875 291.125 142.71875 C 293.34375 142.71875 294.59375 139.90625 294.59375 139.34375 C 294.59375 139.125 294.40625 139.125 294.34375 139.125 C 294.15625 139.125 294.09375 139.21875 294.0625 139.375 C 293.34375 141.71875 291.84375 142.21875 291.15625 142.21875 C 290.3125 142.21875 289.96875 141.53125 289.96875 140.78125 C 289.96875 140.3125 290.09375 139.84375 290.3125 138.875 Z M 291.0625 135.875 "/>
<path fill-rule="nonzero" fill="rgb(100%, 100%, 100%)" fill-opacity="1" d="M 3.023438 -5.273438 L 26.546875 -5.273438 L 26.546875 20.40625 L 3.023438 20.40625 Z M 3.023438 -5.273438 "/>
<path fill-rule="nonzero" fill="rgb(0%, 0%, 0%)" fill-opacity="1" d="M 19.644531 1.992188 C 19.738281 1.679688 19.738281 1.648438 19.738281 1.492188 C 19.738281 1.085938 19.425781 0.898438 19.113281 0.898438 C 18.894531 0.898438 18.550781 1.023438 18.332031 1.367188 C 18.300781 1.460938 18.113281 2.148438 18.050781 2.554688 C 17.894531 3.117188 17.738281 3.710938 17.613281 4.273438 L 16.613281 8.210938 C 16.519531 8.523438 15.582031 10.054688 14.144531 10.054688 C 13.050781 10.054688 12.800781 9.117188 12.800781 8.304688 C 12.800781 7.304688 13.175781 5.929688 13.925781 4.023438 C 14.269531 3.117188 14.363281 2.898438 14.363281 2.460938 C 14.363281 1.460938 13.644531 0.648438 12.550781 0.648438 C 10.488281 0.648438 9.675781 3.835938 9.675781 4.023438 C 9.675781 4.242188 9.894531 4.242188 9.957031 4.242188 C 10.175781 4.242188 10.175781 4.210938 10.300781 3.835938 C 10.894531 1.804688 11.769531 1.148438 12.488281 1.148438 C 12.675781 1.148438 13.050781 1.148438 13.050781 1.835938 C 13.050781 2.398438 12.832031 2.960938 12.675781 3.367188 C 11.800781 5.679688 11.394531 6.929688 11.394531 7.960938 C 11.394531 9.898438 12.769531 10.554688 14.082031 10.554688 C 14.925781 10.554688 15.644531 10.179688 16.269531 9.554688 C 15.988281 10.710938 15.738281 11.773438 14.863281 12.929688 C 14.300781 13.648438 13.457031 14.304688 12.457031 14.304688 C 12.144531 14.304688 11.175781 14.242188 10.800781 13.367188 C 11.144531 13.367188 11.425781 13.367188 11.738281 13.117188 C 11.957031 12.929688 12.175781 12.648438 12.175781 12.210938 C 12.175781 11.554688 11.582031 11.460938 11.363281 11.460938 C 10.863281 11.460938 10.144531 11.804688 10.144531 12.867188 C 10.144531 13.960938 11.113281 14.773438 12.457031 14.773438 C 14.707031 14.773438 16.957031 12.804688 17.550781 10.335938 Z M 19.644531 1.992188 "/>
<path fill="none" stroke-width="11.9553" stroke-linecap="butt" stroke-linejoin="miter" stroke="rgb(0%, 0%, 0%)" stroke-opacity="1" stroke-miterlimit="10" d="M 9.414062 424.453119 L 1470.039041 424.453119 " transform="matrix(0.2, 0, 0, -0.2, 0, 212)"/>
<path fill="none" stroke-width="11.9553" stroke-linecap="butt" stroke-linejoin="miter" stroke="rgb(0%, 0%, 0%)" stroke-opacity="1" stroke-miterlimit="10" d="M 132.851561 301.015621 L 132.851561 1041.601547 " transform="matrix(0.2, 0, 0, -0.2, 0, 212)"/>
<path fill-rule="nonzero" fill="rgb(0%, 0%, 0%)" fill-opacity="1" d="M 105.597656 204.300781 C 106.785156 203.894531 108.785156 203.300781 108.785156 201.363281 C 108.785156 199.050781 106.066406 197.988281 104.097656 197.988281 C 103.160156 197.988281 102.191406 198.207031 101.347656 198.707031 C 101.222656 198.769531 101.066406 198.957031 100.910156 198.957031 C 100.597656 198.957031 100.035156 197.988281 99.722656 197.988281 C 99.535156 197.988281 99.503906 198.207031 99.503906 198.300781 L 99.503906 201.863281 C 99.503906 201.988281 99.597656 202.144531 99.785156 202.144531 C 100.097656 202.144531 100.066406 201.519531 100.160156 201.175781 C 100.628906 199.457031 102.191406 198.707031 103.691406 198.613281 L 104.097656 198.613281 C 105.441406 198.613281 107.003906 199.488281 107.003906 201.363281 C 107.003906 203.175781 105.222656 204.113281 103.566406 204.113281 C 103.253906 204.113281 102.941406 204.113281 102.628906 204.113281 L 102.472656 204.113281 C 102.285156 204.113281 102.066406 204.113281 102.066406 204.332031 L 102.066406 204.363281 C 102.097656 204.550781 102.285156 204.582031 102.472656 204.582031 L 104.316406 204.582031 C 105.878906 204.707031 107.316406 205.738281 107.472656 207.363281 L 107.472656 207.582031 C 107.472656 209.425781 105.753906 210.582031 104.003906 210.582031 C 102.097656 210.582031 100.128906 209.957031 99.816406 207.582031 C 99.816406 207.425781 99.753906 207.238281 99.535156 207.238281 C 99.316406 207.269531 99.285156 207.425781 99.285156 207.582031 C 99.285156 210.175781 101.878906 211.207031 104.128906 211.207031 C 106.191406 211.207031 109.066406 210.238281 109.316406 207.769531 L 109.316406 207.644531 C 109.316406 205.675781 107.253906 204.707031 105.597656 204.300781 Z M 105.597656 204.300781 "/>
<path fill-rule="nonzero" fill="rgb(0%, 0%, 0%)" fill-opacity="1" d="M 117.695312 197.988281 C 114.320312 198.394531 111.632812 201.050781 111.632812 204.644531 C 111.632812 207.925781 114.226562 211.175781 118.101562 211.175781 C 121.601562 211.175781 124.570312 208.269531 124.570312 204.644531 C 124.570312 201.457031 122.070312 197.988281 118.132812 197.988281 C 118.007812 197.988281 117.851562 197.988281 117.695312 197.988281 Z M 113.507812 204.863281 L 113.507812 204.519531 C 113.507812 202.019531 114.414062 199.082031 117.570312 198.550781 C 117.757812 198.519531 117.914062 198.519531 118.101562 198.519531 C 120.914062 198.519531 122.664062 201.238281 122.664062 204.269531 C 122.664062 206.675781 121.945312 209.738281 118.976562 210.519531 C 118.695312 210.582031 118.414062 210.613281 118.132812 210.613281 L 117.945312 210.613281 C 115.351562 210.519531 113.945312 208.050781 113.601562 205.644531 Z M 113.507812 204.863281 "/>
<path fill-rule="nonzero" fill="rgb(0%, 0%, 0%)" fill-opacity="1" d="M 127.027344 198.332031 L 127.027344 198.925781 L 127.464844 198.925781 C 128.058594 198.925781 128.683594 199.019531 128.683594 199.894531 L 128.683594 209.363281 C 128.683594 210.207031 127.964844 210.238281 127.308594 210.238281 L 127.027344 210.238281 L 127.027344 210.832031 L 132.808594 210.832031 C 133.214844 210.832031 133.589844 210.863281 133.996094 210.863281 C 135.996094 210.863281 138.339844 209.925781 138.558594 207.519531 L 138.558594 207.332031 C 138.558594 204.800781 135.683594 203.769531 133.777344 203.769531 C 132.527344 203.769531 131.339844 203.894531 130.152344 203.988281 L 130.152344 199.769531 C 130.152344 199.332031 130.214844 198.925781 130.996094 198.925781 L 133.308594 198.925781 C 134.277344 198.925781 135.371094 198.988281 136.089844 199.707031 C 136.777344 200.425781 136.871094 201.644531 136.964844 202.582031 L 137.496094 202.582031 L 137.027344 198.332031 Z M 130.152344 204.613281 C 130.402344 204.613281 130.652344 204.550781 130.902344 204.519531 L 132.277344 204.457031 C 132.558594 204.425781 132.839844 204.394531 133.152344 204.394531 C 134.714844 204.394531 136.683594 205.394531 136.683594 207.238281 C 136.683594 208.988281 135.339844 210.269531 133.339844 210.269531 C 133.058594 210.269531 132.746094 210.238281 132.496094 210.238281 L 130.964844 210.238281 C 130.496094 210.238281 130.246094 210.207031 130.152344 209.582031 Z M 130.152344 204.613281 "/>
<path fill-rule="nonzero" fill="rgb(0%, 0%, 0%)" fill-opacity="1" d="M 140.90625 198.332031 L 140.90625 198.925781 L 141.375 198.925781 C 141.96875 198.925781 142.5625 199.019531 142.5625 199.894531 L 142.5625 209.363281 C 142.5625 210.207031 141.875 210.238281 141.1875 210.238281 L 140.90625 210.238281 L 140.90625 210.832031 L 145.8125 210.832031 L 145.8125 210.238281 L 145.375 210.238281 C 144.75 210.238281 144.15625 210.175781 144.15625 209.300781 L 144.15625 205.113281 L 147.875 205.113281 C 149.65625 204.988281 151.9375 203.800781 151.9375 201.769531 C 151.9375 199.550781 149.59375 198.488281 147.6875 198.332031 Z M 144.125 204.582031 L 144.125 199.582031 C 144.21875 198.988281 144.46875 198.925781 144.875 198.925781 L 146.3125 198.925781 C 147.9375 198.925781 150.0625 198.988281 150.0625 201.769531 C 150.0625 202.425781 149.96875 203.113281 149.5625 203.613281 C 148.90625 204.394531 147.8125 204.582031 146.84375 204.582031 Z M 144.125 204.582031 "/>
<path fill-rule="nonzero" fill="rgb(0%, 0%, 0%)" fill-opacity="1" d="M 156.632812 208.550781 C 156.132812 208.644531 155.632812 209.082031 155.632812 209.675781 C 155.632812 210.300781 156.164062 210.832031 156.789062 210.832031 C 157.414062 210.832031 157.976562 210.363281 157.976562 209.707031 C 157.976562 209.082031 157.445312 208.519531 156.820312 208.519531 C 156.757812 208.519531 156.695312 208.550781 156.632812 208.550781 Z M 156.632812 208.550781 "/>
<path fill-rule="nonzero" fill="rgb(0%, 0%, 0%)" fill-opacity="1" d="M 171.410156 207.894531 C 171.503906 207.925781 171.660156 207.957031 171.816406 207.957031 C 172.472656 207.957031 172.847656 207.457031 172.847656 206.863281 C 172.847656 206.269531 172.378906 205.832031 171.816406 205.832031 C 171.222656 205.832031 170.722656 206.269531 170.722656 206.957031 C 170.722656 209.269531 172.628906 211.332031 175.191406 211.332031 C 178.097656 211.332031 180.472656 208.988281 180.472656 206.019531 C 180.472656 203.644531 179.128906 201.582031 176.722656 200.894531 C 176.472656 200.832031 176.191406 200.832031 175.910156 200.832031 C 174.660156 200.832031 173.535156 201.238281 172.660156 202.144531 L 172.660156 197.144531 C 173.410156 197.269531 174.097656 197.488281 174.878906 197.488281 C 176.472656 197.488281 178.066406 196.894531 179.253906 195.613281 C 179.378906 195.457031 179.535156 195.363281 179.535156 195.175781 L 179.535156 195.144531 C 179.503906 195.019531 179.410156 194.957031 179.316406 194.957031 C 179.253906 194.957031 179.253906 194.957031 179.191406 194.988281 C 178.035156 195.394531 177.035156 195.707031 175.816406 195.707031 C 174.753906 195.707031 173.628906 195.550781 172.660156 195.113281 C 172.535156 195.050781 172.441406 194.988281 172.285156 194.957031 L 172.222656 194.957031 C 172.128906 194.957031 172.035156 195.050781 172.035156 195.175781 L 172.035156 202.769531 C 172.035156 202.988281 172.066406 203.175781 172.316406 203.175781 C 172.597656 203.175781 172.753906 202.738281 172.941406 202.550781 C 173.691406 201.769531 174.691406 201.332031 175.785156 201.300781 C 176.941406 201.300781 177.660156 202.082031 178.097656 203.019531 C 178.535156 203.957031 178.535156 205.113281 178.535156 206.144531 C 178.535156 207.800781 178.191406 209.550781 176.472656 210.394531 C 176.035156 210.613281 175.566406 210.707031 175.128906 210.707031 C 173.410156 210.707031 171.910156 209.519531 171.410156 207.894531 Z M 171.410156 207.894531 "/>
<path fill-rule="nonzero" fill="rgb(0%, 0%, 0%)" fill-opacity="1" d="M 184.746094 197.113281 C 185.433594 196.050781 186.808594 195.519531 188.089844 195.519531 C 189.527344 195.519531 190.683594 196.425781 190.683594 198.269531 C 190.683594 199.800781 189.933594 201.675781 188.339844 202.082031 C 187.777344 202.238281 186.277344 202.082031 186.277344 202.519531 C 186.277344 202.707031 186.464844 202.769531 186.652344 202.769531 L 187.933594 202.769531 C 190.277344 202.769531 191.152344 204.738281 191.152344 206.550781 C 191.152344 208.300781 190.527344 210.707031 188.121094 210.707031 C 186.527344 210.707031 184.996094 209.988281 184.121094 208.582031 L 184.339844 208.582031 C 185.027344 208.582031 185.621094 208.175781 185.621094 207.425781 C 185.621094 206.707031 185.089844 206.238281 184.402344 206.238281 L 184.308594 206.238281 C 183.652344 206.269531 183.214844 206.800781 183.214844 207.425781 C 183.214844 209.894531 185.777344 211.332031 188.214844 211.332031 C 190.808594 211.332031 193.371094 209.488281 193.371094 206.738281 C 193.371094 204.613281 191.339844 202.550781 189.121094 202.457031 C 190.996094 201.800781 192.683594 200.425781 192.683594 198.269531 C 192.683594 196.082031 190.277344 194.957031 188.246094 194.957031 C 186.371094 194.957031 183.902344 195.863281 183.902344 198.113281 C 183.902344 198.675781 184.152344 199.175781 184.902344 199.300781 L 184.996094 199.300781 C 185.652344 199.300781 186.121094 198.863281 186.121094 198.207031 C 186.121094 197.488281 185.558594 197.082031 184.964844 197.082031 C 184.902344 197.082031 184.839844 197.113281 184.746094 197.113281 Z M 184.746094 197.113281 "/>
<path fill-rule="nonzero" fill="rgb(0%, 0%, 0%)" fill-opacity="1" d="M 198.140625 208.550781 C 197.640625 208.644531 197.140625 209.082031 197.140625 209.675781 C 197.140625 210.300781 197.671875 210.832031 198.296875 210.832031 C 198.921875 210.832031 199.484375 210.363281 199.484375 209.707031 C 199.484375 209.082031 198.953125 208.519531 198.328125 208.519531 C 198.265625 208.519531 198.203125 208.550781 198.140625 208.550781 Z M 198.140625 208.550781 "/>
</svg>
