<?xml version="1.0" encoding="UTF-8"?>
<svg xmlns="http://www.w3.org/2000/svg" xmlns:xlink="http://www.w3.org/1999/xlink" width="426" height="376" viewBox="0 0 426 376">
<path fill="none" stroke-width="11.9553" stroke-linecap="butt" stroke-linejoin="miter" stroke="rgb(0%, 0%, 0%)" stroke-opacity="1" stroke-miterlimit="10" d="M 446.484368 1773.046849 L 487.343743 1628.437476 L 528.164055 1511.44529 L 569.023429 1414.804666 L 609.843741 1333.632793 L 650.703115 1264.531231 L 691.523427 1204.96092 L 732.382802 1153.08592 L 773.203113 1107.499983 L 814.062488 1067.109359 L 854.8828 1031.093735 L 895.742174 998.82811 L 936.562486 969.648423 L 977.382798 943.203111 L 1018.242172 919.140611 L 1059.062484 897.109362 L 1099.921859 876.835924 L 1140.742171 858.203112 L 1181.601545 840.97655 L 1222.421857 824.960925 L 1263.242169 810.117175 L 1304.101543 796.249988 L 1344.921855 783.320301 L 1385.781229 771.210926 L 1426.601541 759.804676 L 1467.460916 749.101551 L 1508.281228 739.023426 L 1549.140602 729.531239 L 1589.960914 720.546864 L 1630.781226 712.031239 L 1671.6406 703.984365 L 1712.460912 696.328115 L 1753.320286 689.023427 L 1794.140598 682.109365 L 1834.999973 675.507802 L 1875.859347 669.179678 L 1916.679659 663.203115 L 1957.499971 657.421865 L 1998.359345 651.914053 L 2039.179657 646.640615 L 2080.039032 641.601553 " transform="matrix(0.2, 0, 0, -0.2, 0, 376)"/>
<path fill="none" stroke-width="11.9553" stroke-linecap="butt" stroke-linejoin="miter" stroke="rgb(0%, 0%, 0%)" stroke-opacity="1" stroke-miterlimit="10" d="M 594.999991 401.601557 L 594.999991 1361.601542 " transform="matrix(0.2, 0, 0, -0.2, 0, 376)"/>
<path fill="none" stroke-width="11.9553" stroke-linecap="butt" stroke-linejoin="miter" stroke="rgb(0%, 0%, 0%)" stroke-opacity="1" stroke-miterlimit="10" d="M 718.749989 401.601557 L 718.749989 1169.609358 " transform="matrix(0.2, 0, 0, -0.2, 0, 376)"/>
<path fill="none" stroke-width="11.9553" stroke-linecap="butt" stroke-linejoin="miter" stroke="rgb(0%, 0%, 0%)" stroke-opacity="1" stroke-miterlimit="10" d="M 842.499987 401.601557 L 842.499987 1041.601547 " transform="matrix(0.2, 0, 0, -0.2, 0, 376)"/>
<path fill="none" stroke-width="11.9553" stroke-linecap="butt" stroke-linejoin="miter" stroke="rgb(0%, 0%, 0%)" stroke-opacity="1" stroke-miterlimit="10" d="M 966.249986 401.601557 L 966.249986 950.195298 " transform="matrix(0.2, 0, 0, -0.2, 0, 376)"/>
<path fill="none" stroke-width="11.9553" stroke-linecap="butt" stroke-linejoin="miter" stroke="rgb(0%, 0%, 0%)" stroke-opacity="1" stroke-miterlimit="10" d="M 1089.999984 401.601557 L 1089.999984 881.601549 " transform="matrix(0.2, 0, 0, -0.2, 0, 376)"/>
<path fill="none" stroke-width="11.9553" stroke-linecap="butt" stroke-linejoin="miter" stroke="rgb(0%, 0%, 0%)" stroke-opacity="1" stroke-miterlimit="10" d="M 1213.789044 401.601557 L 1213.789044 828.281238 " transform="matrix(0.2, 0, 0, -0.2, 0, 376)"/>
<path fill="none" stroke-width="11.9553" stroke-linecap="butt" stroke-linejoin="miter" stroke="rgb(0%, 0%, 0%)" stroke-opacity="1" stroke-miterlimit="10" d="M 1337.539043 401.601557 L 1337.539043 785.624988 " transform="matrix(0.2, 0, 0, -0.2, 0, 376)"/>
<path fill="none" stroke-width="11.9553" stroke-linecap="butt" stroke-linejoin="miter" stroke="rgb(0%, 0%, 0%)" stroke-opacity="1" stroke-miterlimit="10" d="M 1461.289041 401.601557 L 1461.289041 750.703114 " transform="matrix(0.2, 0, 0, -0.2, 0, 376)"/>
<path fill="none" stroke-width="11.9553" stroke-linecap="butt" stroke-linejoin="miter" stroke="rgb(0%, 0%, 0%)" stroke-opacity="1" stroke-miterlimit="10" d="M 1585.039039 401.601557 L 1585.039039 721.601552 " transform="matrix(0.2, 0, 0, -0.2, 0, 376)"/>
<path fill="none" stroke-width="7.9701" stroke-linecap="butt" stroke-linejoin="miter" stroke="rgb(0%, 0%, 0%)" stroke-opacity="1" stroke-miterlimit="10" d="M 99.999999 401.601557 L 99.999999 429.296869 " transform="matrix(0.2, 0, 0, -0.2, 0, 376)"/>
<path fill="none" stroke-width="7.9701" stroke-linecap="butt" stroke-linejoin="miter" stroke="rgb(0%, 0%, 0%)" stroke-opacity="1" stroke-miterlimit="10" d="M 99.999999 484.687493 L 99.999999 512.382805 " transform="matrix(0.2, 0, 0, -0.2, 0, 376)"/>
<path fill="none" stroke-width="7.9701" stroke-linecap="butt" stroke-linejoin="miter" stroke="rgb(0%, 0%, 0%)" stroke-opacity="1" stroke-miterlimit="10" d="M 99.999999 512.382805 L 99.999999 540.078117 " transform="matrix(0.2, 0, 0, -0.2, 0, 376)"/>
<path fill="none" stroke-width="7.9701" stroke-linecap="butt" stroke-linejoin="miter" stroke="rgb(0%, 0%, 0%)" stroke-opacity="1" stroke-miterlimit="10" d="M 99.999999 595.429679 L 99.999999 623.124991 " transform="matrix(0.2, 0, 0, -0.2, 0, 376)"/>
<path fill="none" stroke-width="7.9701" stroke-linecap="butt" stroke-linejoin="miter" stroke="rgb(0%, 0%, 0%)" stroke-opacity="1" stroke-miterlimit="10" d="M 99.999999 623.124991 L 99.999999 650.859365 " transform="matrix(0.2, 0, 0, -0.2, 0, 376)"/>
<path fill="none" stroke-width="7.9701" stroke-linecap="butt" stroke-linejoin="miter" stroke="rgb(0%, 0%, 0%)" stroke-opacity="1" stroke-miterlimit="10" d="M 99.999999 706.210927 L 99.999999 733.906239 " transform="matrix(0.2, 0, 0, -0.2, 0, 376)"/>
<path fill="none" stroke-width="7.9701" stroke-linecap="butt" stroke-linejoin="miter" stroke="rgb(0%, 0%, 0%)" stroke-opacity="1" stroke-miterlimit="10" d="M 99.999999 733.906239 L 99.999999 761.601551 " transform="matrix(0.2, 0, 0, -0.2, 0, 376)"/>
<path fill="none" stroke-width="7.9701" stroke-linecap="butt" stroke-linejoin="miter" stroke="rgb(0%, 0%, 0%)" stroke-opacity="1" stroke-miterlimit="10" d="M 99.999999 816.992175 L 99.999999 844.687487 " transform="matrix(0.2, 0, 0, -0.2, 0, 376)"/>
<path fill="none" stroke-width="7.9701" stroke-linecap="butt" stroke-linejoin="miter" stroke="rgb(0%, 0%, 0%)" stroke-opacity="1" stroke-miterlimit="10" d="M 99.999999 844.687487 L 99.999999 872.3828 " transform="matrix(0.2, 0, 0, -0.2, 0, 376)"/>
<path fill="none" stroke-width="7.9701" stroke-linecap="butt" stroke-linejoin="miter" stroke="rgb(0%, 0%, 0%)" stroke-opacity="1" stroke-miterlimit="10" d="M 99.999999 927.773424 L 99.999999 955.429673 " transform="matrix(0.2, 0, 0, -0.2, 0, 376)"/>
<path fill="none" stroke-width="7.9701" stroke-linecap="butt" stroke-linejoin="miter" stroke="rgb(0%, 0%, 0%)" stroke-opacity="1" stroke-miterlimit="10" d="M 99.999999 955.429673 L 99.999999 983.164048 " transform="matrix(0.2, 0, 0, -0.2, 0, 376)"/>
<path fill="none" stroke-width="7.9701" stroke-linecap="butt" stroke-linejoin="miter" stroke="rgb(0%, 0%, 0%)" stroke-opacity="1" stroke-miterlimit="10" d="M 99.999999 1038.51561 L 99.999999 1066.210922 " transform="matrix(0.2, 0, 0, -0.2, 0, 376)"/>
<path fill="none" stroke-width="7.9701" stroke-linecap="butt" stroke-linejoin="miter" stroke="rgb(0%, 0%, 0%)" stroke-opacity="1" stroke-miterlimit="10" d="M 99.999999 1066.210922 L 99.999999 1093.906234 " transform="matrix(0.2, 0, 0, -0.2, 0, 376)"/>
<path fill="none" stroke-width="7.9701" stroke-linecap="butt" stroke-linejoin="miter" stroke="rgb(0%, 0%, 0%)" stroke-opacity="1" stroke-miterlimit="10" d="M 99.999999 1149.296858 L 99.999999 1176.99217 " transform="matrix(0.2, 0, 0, -0.2, 0, 376)"/>
<path fill="none" stroke-width="7.9701" stroke-linecap="butt" stroke-linejoin="miter" stroke="rgb(0%, 0%, 0%)" stroke-opacity="1" stroke-miterlimit="10" d="M 99.999999 1176.99217 L 99.999999 1204.687482 " transform="matrix(0.2, 0, 0, -0.2, 0, 376)"/>
<path fill="none" stroke-width="7.9701" stroke-linecap="butt" stroke-linejoin="miter" stroke="rgb(0%, 0%, 0%)" stroke-opacity="1" stroke-miterlimit="10" d="M 99.999999 1260.078106 L 99.999999 1287.773418 " transform="matrix(0.2, 0, 0, -0.2, 0, 376)"/>
<path fill="none" stroke-width="7.9701" stroke-linecap="butt" stroke-linejoin="miter" stroke="rgb(0%, 0%, 0%)" stroke-opacity="1" stroke-miterlimit="10" d="M 99.999999 1287.773418 L 99.999999 1315.46873 " transform="matrix(0.2, 0, 0, -0.2, 0, 376)"/>
<path fill="none" stroke-width="7.9701" stroke-linecap="butt" stroke-linejoin="miter" stroke="rgb(0%, 0%, 0%)" stroke-opacity="1" stroke-miterlimit="10" d="M 99.999999 1370.859355 L 99.999999 1398.554667 " transform="matrix(0.2, 0, 0, -0.2, 0, 376)"/>
<path fill="none" stroke-width="7.9701" stroke-linecap="butt" stroke-linejoin="miter" stroke="rgb(0%, 0%, 0%)" stroke-opacity="1" stroke-miterlimit="10" d="M 99.999999 1398.554667 L 99.999999 1426.210916 " transform="matrix(0.2, 0, 0, -0.2, 0, 376)"/>
<path fill="none" stroke-width="7.9701" stroke-linecap="butt" stroke-linejoin="miter" stroke="rgb(0%, 0%, 0%)" stroke-opacity="1" stroke-miterlimit="10" d="M 99.999999 1481.60154 L 99.999999 1509.296853 " transform="matrix(0.2, 0, 0, -0.2, 0, 376)"/>
<path fill="none" stroke-width="7.9701" stroke-linecap="butt" stroke-linejoin="miter" stroke="rgb(0%, 0%, 0%)" stroke-opacity="1" stroke-miterlimit="10" d="M 99.999999 1509.296853 L 99.999999 1536.992165 " transform="matrix(0.2, 0, 0, -0.2, 0, 376)"/>
<path fill="none" stroke-width="7.9701" stroke-linecap="butt" stroke-linejoin="miter" stroke="rgb(0%, 0%, 0%)" stroke-opacity="1" stroke-miterlimit="10" d="M 99.999999 1592.382789 L 99.999999 1620.078101 " transform="matrix(0.2, 0, 0, -0.2, 0, 376)"/>
<path fill="none" stroke-width="7.9701" stroke-linecap="butt" stroke-linejoin="miter" stroke="rgb(0%, 0%, 0%)" stroke-opacity="1" stroke-miterlimit="10" d="M 99.999999 1620.078101 L 99.999999 1647.773413 " transform="matrix(0.2, 0, 0, -0.2, 0, 376)"/>
<path fill="none" stroke-width="7.9701" stroke-linecap="butt" stroke-linejoin="miter" stroke="rgb(0%, 0%, 0%)" stroke-opacity="1" stroke-miterlimit="10" d="M 99.999999 1703.164037 L 99.999999 1730.859349 " transform="matrix(0.2, 0, 0, -0.2, 0, 376)"/>
<path fill="none" stroke-width="7.9701" stroke-linecap="butt" stroke-linejoin="miter" stroke="rgb(0%, 0%, 0%)" stroke-opacity="1" stroke-miterlimit="10" d="M 99.999999 1730.859349 L 99.999999 1758.554661 " transform="matrix(0.2, 0, 0, -0.2, 0, 376)"/>
<path fill="none" stroke-width="7.9701" stroke-linecap="butt" stroke-linejoin="miter" stroke="rgb(0%, 0%, 0%)" stroke-opacity="1" stroke-miterlimit="10" d="M 99.999999 1813.906223 L 99.999999 1841.601535 " transform="matrix(0.2, 0, 0, -0.2, 0, 376)"/>
<path fill-rule="nonzero" fill="rgb(100%, 100%, 100%)" fill-opacity="1" d="M 57.71875 320.46875 L 81.242188 320.46875 L 81.242188 341.828125 L 57.71875 341.828125 Z M 57.71875 320.46875 "/>
<path fill-rule="nonzero" fill="rgb(0%, 0%, 0%)" fill-opacity="1" d="M 71.867188 327.550781 C 71.492188 326.738281 70.867188 326.144531 69.867188 326.144531 C 67.304688 326.144531 64.617188 329.363281 64.617188 332.550781 C 64.617188 334.613281 65.804688 336.050781 67.523438 336.050781 C 67.960938 336.050781 69.054688 335.957031 70.335938 334.394531 C 70.523438 335.332031 71.304688 336.050781 72.335938 336.050781 C 73.085938 336.050781 73.585938 335.550781 73.960938 334.832031 C 74.335938 334.050781 74.617188 332.738281 74.617188 332.675781 C 74.617188 332.457031 74.398438 332.457031 74.335938 332.457031 C 74.117188 332.457031 74.117188 332.550781 74.023438 332.863281 C 73.679688 334.269531 73.273438 335.550781 72.367188 335.550781 C 71.804688 335.550781 71.710938 334.988281 71.710938 334.550781 C 71.710938 334.082031 71.773438 333.894531 72.023438 332.957031 C 72.242188 332.019531 72.304688 331.800781 72.492188 330.988281 L 73.273438 327.925781 C 73.429688 327.300781 73.429688 327.269531 73.429688 327.175781 C 73.429688 326.800781 73.179688 326.582031 72.804688 326.582031 C 72.273438 326.582031 71.929688 327.082031 71.867188 327.550781 Z M 70.460938 333.207031 C 70.335938 333.613281 70.335938 333.644531 70.023438 334.019531 C 69.054688 335.207031 68.179688 335.550781 67.554688 335.550781 C 66.460938 335.550781 66.148438 334.363281 66.148438 333.519531 C 66.148438 332.425781 66.867188 329.738281 67.367188 328.738281 C 68.054688 327.457031 69.023438 326.644531 69.898438 326.644531 C 71.304688 326.644531 71.617188 328.425781 71.617188 328.550781 C 71.617188 328.675781 71.585938 328.832031 71.554688 328.925781 Z M 70.460938 333.207031 "/>
<path fill-rule="nonzero" fill="rgb(0%, 0%, 0%)" fill-opacity="1" d="M 24.046875 299.601562 L 24.25 300.085938 L 24.460938 300.554688 L 24.671875 301 L 24.890625 301.429688 L 25.109375 301.835938 L 25.335938 302.234375 L 25.5625 302.617188 L 25.796875 302.984375 L 26.03125 303.328125 L 26.273438 303.664062 L 26.515625 303.984375 L 26.765625 304.289062 L 27.015625 304.578125 L 27.265625 304.851562 L 27.53125 305.117188 L 27.789062 305.367188 L 28.054688 305.601562 L 28.328125 305.828125 L 28.59375 306.039062 L 28.875 306.234375 L 29.15625 306.421875 L 29.4375 306.601562 L 29.726562 306.765625 L 30.015625 306.921875 L 30.3125 307.0625 L 30.609375 307.195312 L 30.90625 307.320312 L 31.210938 307.4375 L 31.523438 307.539062 L 31.828125 307.640625 L 32.148438 307.726562 L 32.460938 307.804688 L 32.78125 307.875 L 33.4375 308 L 34.09375 308.09375 L 34.429688 308.125 L 34.773438 308.15625 L 35.109375 308.179688 L 35.453125 308.203125 L 35.804688 308.210938 L 36.15625 308.226562 L 37.21875 308.226562 L 37.585938 308.21875 L 37.953125 308.203125 L 38.3125 308.195312 L 38.6875 308.179688 L 39.054688 308.164062 L 39.429688 308.140625 L 39.8125 308.117188 L 40.1875 308.09375 L 40.570312 308.070312 L 40.960938 308.046875 L 41.34375 308.023438 L 41.734375 307.992188 L 42.132812 307.96875 L 42.523438 307.945312 L 43.320312 307.898438 L 43.726562 307.875 L 44.125 307.859375 L 44.53125 307.835938 L 44.9375 307.820312 L 46.179688 307.796875 L 47.4375 307.796875 L 47.867188 307.8125 L 48.289062 307.820312 L 49.148438 307.867188 L 49.578125 307.90625 L 50.007812 307.9375 L 50.445312 307.984375 L 51.320312 308.09375 L 51.757812 308.15625 L 52.648438 308.3125 L 53.539062 308.5 L 53.984375 308.609375 L 54.4375 308.726562 L 54.890625 308.851562 L 55.34375 308.984375 L 55.796875 309.132812 L 56.25 309.289062 L 56.710938 309.453125 L 57.164062 309.640625 L 57.632812 309.828125 L 58.085938 310.03125 L 58.554688 310.242188 L 59.015625 310.46875 L 59.484375 310.710938 L 59.953125 310.960938 L 60.421875 311.226562 L 60.890625 311.507812 L 61.359375 311.796875 L 61.828125 312.109375 L 62.304688 312.429688 L 62.773438 312.765625 L 63.25 313.117188 L 63.726562 313.484375 L 64.203125 313.867188 L 64.679688 314.273438 L 65.15625 314.6875 L 65.640625 315.117188 L 66.117188 315.570312 L 66.59375 316.039062 L 67.078125 316.523438 L 67.5625 317.023438 L 68.046875 317.546875 L 68.53125 318.085938 L 69.015625 318.648438 L 69.5 319.226562 L 69.984375 318.648438 L 70.46875 318.085938 L 70.953125 317.546875 L 71.4375 317.023438 L 71.921875 316.523438 L 72.40625 316.039062 L 72.882812 315.570312 L 73.359375 315.117188 L 73.84375 314.6875 L 74.320312 314.273438 L 74.796875 313.867188 L 75.273438 313.484375 L 75.75 313.117188 L 76.226562 312.765625 L 76.695312 312.429688 L 77.171875 312.109375 L 77.640625 311.796875 L 78.117188 311.507812 L 78.578125 311.226562 L 79.046875 310.960938 L 79.515625 310.710938 L 79.984375 310.46875 L 80.445312 310.242188 L 80.914062 310.03125 L 81.375 309.828125 L 81.835938 309.640625 L 82.289062 309.453125 L 82.75 309.289062 L 83.203125 309.132812 L 83.664062 308.984375 L 84.109375 308.851562 L 84.5625 308.726562 L 85.015625 308.609375 L 85.460938 308.5 L 85.914062 308.40625 L 86.359375 308.3125 L 86.796875 308.234375 L 87.242188 308.15625 L 87.679688 308.09375 L 88.554688 307.984375 L 88.992188 307.9375 L 89.429688 307.90625 L 89.859375 307.867188 L 90.289062 307.84375 L 90.710938 307.820312 L 91.140625 307.8125 L 91.5625 307.796875 L 92.820312 307.796875 L 94.0625 307.820312 L 94.46875 307.835938 L 94.875 307.859375 L 95.28125 307.875 L 96.875 307.96875 L 97.265625 307.992188 L 97.65625 308.023438 L 98.039062 308.046875 L 98.429688 308.070312 L 98.8125 308.09375 L 99.1875 308.117188 L 99.570312 308.140625 L 99.945312 308.164062 L 100.3125 308.179688 L 100.6875 308.195312 L 101.054688 308.203125 L 101.414062 308.21875 L 101.78125 308.226562 L 102.84375 308.226562 L 103.195312 308.210938 L 103.546875 308.203125 L 104.234375 308.15625 L 104.90625 308.09375 L 105.234375 308.046875 L 105.570312 308 L 105.898438 307.9375 L 106.21875 307.875 L 106.539062 307.804688 L 106.851562 307.726562 L 107.171875 307.640625 L 107.476562 307.539062 L 107.789062 307.4375 L 108.09375 307.320312 L 108.390625 307.195312 L 108.6875 307.0625 L 108.984375 306.921875 L 109.273438 306.765625 L 109.5625 306.601562 L 109.84375 306.421875 L 110.125 306.234375 L 110.40625 306.039062 L 110.679688 305.828125 L 110.945312 305.601562 L 111.210938 305.367188 L 111.476562 305.117188 L 111.734375 304.851562 L 111.984375 304.578125 L 112.234375 304.289062 L 112.484375 303.984375 L 112.726562 303.664062 L 112.96875 303.328125 L 113.203125 302.984375 L 113.4375 302.617188 L 113.664062 302.234375 L 113.890625 301.835938 L 114.109375 301.429688 L 114.328125 301 L 114.539062 300.554688 L 114.75 300.085938 L 114.953125 299.601562 L 114.648438 300.28125 L 114.34375 300.929688 L 114.039062 301.554688 L 113.734375 302.164062 L 113.429688 302.742188 L 113.117188 303.296875 L 112.8125 303.835938 L 112.5 304.351562 L 112.195312 304.84375 L 111.882812 305.3125 L 111.570312 305.765625 L 111.257812 306.195312 L 110.9375 306.601562 L 110.625 306.992188 L 110.3125 307.367188 L 109.992188 307.71875 L 109.679688 308.054688 L 109.359375 308.375 L 109.039062 308.671875 L 108.71875 308.953125 L 108.398438 309.21875 L 108.078125 309.46875 L 107.75 309.710938 L 107.429688 309.921875 L 107.101562 310.132812 L 106.78125 310.3125 L 106.453125 310.492188 L 106.117188 310.65625 L 105.789062 310.796875 L 105.460938 310.929688 L 105.132812 311.054688 L 104.796875 311.164062 L 104.460938 311.257812 L 103.789062 311.414062 L 103.453125 311.476562 L 103.117188 311.53125 L 102.773438 311.570312 L 102.4375 311.601562 L 102.09375 311.625 L 101.742188 311.640625 L 101.398438 311.648438 L 100.710938 311.632812 L 100.359375 311.617188 L 100.007812 311.59375 L 99.65625 311.5625 L 99.304688 311.523438 L 98.945312 311.476562 L 98.59375 311.429688 L 98.234375 311.382812 L 97.882812 311.320312 L 97.515625 311.257812 L 97.15625 311.195312 L 96.796875 311.125 L 96.429688 311.054688 L 94.960938 310.742188 L 94.585938 310.65625 L 94.210938 310.578125 L 93.835938 310.492188 L 93.460938 310.414062 L 93.085938 310.328125 L 92.703125 310.25 L 92.328125 310.171875 L 91.5625 310.015625 L 91.171875 309.945312 L 90.789062 309.875 L 90.398438 309.804688 L 90.007812 309.742188 L 89.609375 309.6875 L 89.21875 309.625 L 88.421875 309.53125 L 88.023438 309.492188 L 87.625 309.460938 L 87.21875 309.429688 L 86.40625 309.398438 L 86 309.390625 L 85.59375 309.390625 L 84.765625 309.421875 L 84.351562 309.453125 L 83.929688 309.484375 L 83.515625 309.539062 L 83.09375 309.59375 L 82.664062 309.664062 L 82.242188 309.742188 L 81.8125 309.835938 L 81.382812 309.9375 L 80.953125 310.054688 L 80.523438 310.179688 L 80.085938 310.320312 L 79.648438 310.476562 L 79.210938 310.640625 L 78.773438 310.820312 L 78.328125 311.023438 L 77.882812 311.234375 L 77.4375 311.460938 L 76.984375 311.703125 L 76.53125 311.960938 L 76.078125 312.242188 L 75.625 312.53125 L 75.164062 312.84375 L 74.703125 313.171875 L 74.242188 313.515625 L 73.78125 313.875 L 73.3125 314.257812 L 72.84375 314.664062 L 72.375 315.085938 L 71.898438 315.523438 L 71.429688 315.992188 L 70.945312 316.46875 L 70.46875 316.976562 L 69.984375 317.5 L 69.5 318.054688 L 69.015625 317.5 L 68.53125 316.976562 L 68.054688 316.46875 L 67.578125 315.992188 L 67.101562 315.523438 L 66.625 315.085938 L 66.15625 314.664062 L 65.6875 314.257812 L 65.21875 313.875 L 64.757812 313.515625 L 64.296875 313.171875 L 63.835938 312.84375 L 63.375 312.53125 L 62.921875 312.242188 L 62.46875 311.960938 L 62.015625 311.703125 L 61.5625 311.460938 L 61.117188 311.234375 L 60.671875 311.023438 L 60.226562 310.820312 L 59.789062 310.640625 L 59.351562 310.476562 L 58.914062 310.320312 L 58.476562 310.179688 L 58.046875 310.054688 L 57.617188 309.9375 L 57.1875 309.835938 L 56.757812 309.742188 L 56.335938 309.664062 L 55.914062 309.59375 L 55.484375 309.539062 L 55.070312 309.484375 L 54.648438 309.453125 L 54.234375 309.421875 L 53.820312 309.40625 L 53.414062 309.390625 L 53 309.390625 L 52.59375 309.398438 L 51.78125 309.429688 L 51.375 309.460938 L 50.976562 309.492188 L 50.578125 309.53125 L 49.78125 309.625 L 49.390625 309.6875 L 48.992188 309.742188 L 48.601562 309.804688 L 48.21875 309.875 L 47.828125 309.945312 L 47.445312 310.015625 L 47.054688 310.09375 L 46.671875 310.171875 L 46.296875 310.25 L 45.914062 310.328125 L 45.539062 310.414062 L 45.164062 310.492188 L 44.789062 310.578125 L 44.414062 310.65625 L 44.046875 310.742188 L 43.671875 310.820312 L 42.570312 311.054688 L 42.203125 311.125 L 41.84375 311.195312 L 40.765625 311.382812 L 40.40625 311.429688 L 40.054688 311.476562 L 39.695312 311.523438 L 39.34375 311.5625 L 38.992188 311.59375 L 38.640625 311.617188 L 38.289062 311.632812 L 37.601562 311.648438 L 37.257812 311.640625 L 36.914062 311.625 L 36.570312 311.601562 L 36.226562 311.570312 L 35.890625 311.53125 L 35.546875 311.476562 L 35.210938 311.414062 L 34.539062 311.257812 L 34.203125 311.164062 L 33.867188 311.054688 L 33.539062 310.929688 L 33.210938 310.796875 L 32.882812 310.65625 L 32.554688 310.492188 L 31.898438 310.132812 L 31.570312 309.921875 L 31.25 309.710938 L 30.921875 309.46875 L 30.601562 309.21875 L 30.28125 308.953125 L 29.960938 308.671875 L 29.640625 308.375 L 29.320312 308.054688 L 29.007812 307.71875 L 28.6875 307.367188 L 28.375 306.992188 L 28.0625 306.601562 L 27.742188 306.195312 L 27.4375 305.765625 L 27.117188 305.3125 L 26.8125 304.84375 L 26.5 304.351562 L 26.1875 303.835938 L 25.882812 303.296875 L 25.570312 302.742188 L 25.265625 302.164062 L 24.960938 301.554688 L 24.65625 300.929688 L 24.351562 300.28125 L 24.046875 299.601562 "/>
<path fill="none" stroke-width="3.985" stroke-linecap="butt" stroke-linejoin="miter" stroke="rgb(0%, 0%, 0%)" stroke-opacity="1" stroke-miterlimit="10" d="M 120.234373 381.992182 L 121.249998 379.570307 L 122.304686 377.226557 L 123.359373 374.999994 L 124.453123 372.851557 L 125.546873 370.820307 L 126.679686 368.82812 L 127.812498 366.914057 L 128.984373 365.07812 L 130.156248 363.35937 L 131.367186 361.679682 L 132.578123 360.07812 L 133.828123 358.554682 L 135.078123 357.10937 L 136.328123 355.742182 L 137.656248 354.414057 L 138.94531 353.164057 L 140.273435 351.992182 L 141.640623 350.85937 L 142.968748 349.804682 L 144.374998 348.82812 L 145.781248 347.89062 L 147.187498 346.992182 L 148.63281 346.17187 L 150.078123 345.39062 L 151.562498 344.687495 L 153.046873 344.023432 L 154.531248 343.398432 L 156.054685 342.812495 L 157.617185 342.304682 L 159.140623 341.79687 L 160.742185 341.367182 L 162.304685 340.976557 L 163.906248 340.624995 L 167.187498 339.999995 L 170.468747 339.531245 L 172.148435 339.374995 L 173.867185 339.218745 L 175.546872 339.101557 L 177.265622 338.98437 L 179.023435 338.945307 L 180.781247 338.867182 L 186.093747 338.867182 L 187.929685 338.906245 L 189.765622 338.98437 L 191.562497 339.023432 L 193.437497 339.101557 L 195.273435 339.179682 L 197.148435 339.29687 L 199.062497 339.414057 L 200.937497 339.531245 L 202.851559 339.648432 L 204.804684 339.76562 L 206.718747 339.882807 L 208.671872 340.039057 L 210.664059 340.156245 L 212.617184 340.273432 L 216.601559 340.507807 L 218.632809 340.624995 L 220.624997 340.70312 L 222.656247 340.820307 L 224.687497 340.898432 L 230.898434 341.01562 L 237.187496 341.01562 L 239.335934 340.937495 L 241.445309 340.898432 L 245.742184 340.664057 L 247.890621 340.468745 L 250.039059 340.312495 L 252.226559 340.07812 L 256.601559 339.531245 L 258.789059 339.218745 L 263.242184 338.437495 L 267.695309 337.499995 L 269.921871 336.95312 L 272.187496 336.367182 L 274.453121 335.742182 L 276.718746 335.07812 L 278.984371 334.335933 L 281.249996 333.554683 L 283.554683 332.73437 L 285.820308 331.79687 L 288.164058 330.85937 L 290.429683 329.843745 L 292.773433 328.789058 L 295.078121 327.656245 L 297.421871 326.445308 L 299.765621 325.195308 L 302.10937 323.867183 L 304.45312 322.460933 L 306.79687 321.01562 L 309.14062 319.45312 L 311.523433 317.851558 L 313.867183 316.17187 L 316.249995 314.414058 L 318.632808 312.57812 L 321.01562 310.664058 L 323.398433 308.632808 L 325.781245 306.562495 L 328.20312 304.414058 L 330.585933 302.148433 L 332.968745 299.804683 L 335.39062 297.382808 L 337.812495 294.882808 L 340.23437 292.265621 L 342.656245 289.570308 L 345.07812 286.757808 L 347.499995 283.867183 L 349.92187 286.757808 L 352.343745 289.570308 L 354.76562 292.265621 L 357.187495 294.882808 L 359.60937 297.382808 L 362.031245 299.804683 L 364.414057 302.148433 L 366.79687 304.414058 L 369.218744 306.562495 L 371.601557 308.632808 L 373.984369 310.664058 L 376.367182 312.57812 L 378.749994 314.414058 L 381.132807 316.17187 L 383.476557 317.851558 L 385.859369 319.45312 L 388.203119 321.01562 L 390.585932 322.460933 L 392.890619 323.867183 L 395.234369 325.195308 L 397.578119 326.445308 L 399.921869 327.656245 L 402.226557 328.789058 L 404.570306 329.843745 L 406.874994 330.85937 L 409.179681 331.79687 L 411.445306 332.73437 L 413.749994 333.554683 L 416.015619 334.335933 L 418.320306 335.07812 L 420.546869 335.742182 L 422.812494 336.367182 L 425.078119 336.95312 L 427.304681 337.499995 L 429.570306 337.968745 L 431.796869 338.437495 L 433.984369 338.82812 L 436.210931 339.218745 L 438.398431 339.531245 L 442.773431 340.07812 L 444.960931 340.312495 L 447.148431 340.468745 L 449.296868 340.664057 L 451.445306 340.781245 L 453.554681 340.898432 L 455.703118 340.937495 L 457.812493 341.01562 L 464.101556 341.01562 L 470.312493 340.898432 L 472.343743 340.820307 L 474.374993 340.70312 L 476.406243 340.624995 L 484.374993 340.156245 L 486.328118 340.039057 L 488.281243 339.882807 L 490.195305 339.76562 L 492.14843 339.648432 L 494.062493 339.531245 L 495.937493 339.414057 L 497.851555 339.29687 L 499.726555 339.179682 L 501.562493 339.101557 L 503.437492 339.023432 L 505.27343 338.98437 L 507.070305 338.906245 L 508.906242 338.867182 L 514.218742 338.867182 L 515.976555 338.945307 L 517.734367 338.98437 L 521.171867 339.218745 L 524.531242 339.531245 L 526.171867 339.76562 L 527.851555 339.999995 L 529.49218 340.312495 L 531.093742 340.624995 L 532.695305 340.976557 L 534.257805 341.367182 L 535.859367 341.79687 L 537.382804 342.304682 L 538.945304 342.812495 L 540.468742 343.398432 L 541.953117 344.023432 L 543.437492 344.687495 L 544.921867 345.39062 L 546.367179 346.17187 L 547.812492 346.992182 L 549.218742 347.89062 L 550.624992 348.82812 L 552.031242 349.804682 L 553.398429 350.85937 L 554.726554 351.992182 L 556.054679 353.164057 L 557.382804 354.414057 L 558.671867 355.742182 L 559.921867 357.10937 L 561.171867 358.554682 L 562.421867 360.07812 L 563.632804 361.679682 L 564.843742 363.35937 L 566.015617 365.07812 L 567.187492 366.914057 L 568.320304 368.82812 L 569.453117 370.820307 L 570.546866 372.851557 L 571.640616 374.999994 L 572.695304 377.226557 L 573.749991 379.570307 L 574.765616 381.992182 L 573.242179 378.593744 L 571.718741 375.351557 L 570.195304 372.226557 L 568.671867 369.179682 L 567.148429 366.289057 L 565.585929 363.51562 L 564.062492 360.820307 L 562.499992 358.242182 L 560.976554 355.781245 L 559.414054 353.437495 L 557.851554 351.17187 L 556.289054 349.023432 L 554.687492 346.992182 L 553.124992 345.039057 L 551.562492 343.164057 L 549.960929 341.406245 L 548.398429 339.726557 L 546.796867 338.124995 L 545.195304 336.64062 L 543.593742 335.23437 L 541.992179 333.906245 L 540.390617 332.656245 L 538.749992 331.445308 L 537.148429 330.39062 L 535.507805 329.335933 L 533.906242 328.437495 L 532.265617 327.539058 L 530.58593 326.718745 L 528.945305 326.01562 L 527.30468 325.351558 L 525.664055 324.726558 L 523.984367 324.179683 L 522.30468 323.710933 L 518.945305 322.929683 L 517.265617 322.617183 L 515.58593 322.343745 L 513.86718 322.148433 L 512.187492 321.992183 L 510.468742 321.874995 L 508.71093 321.79687 L 506.99218 321.757808 L 503.55468 321.835933 L 501.796868 321.914058 L 500.039055 322.031245 L 498.281243 322.187495 L 496.52343 322.382808 L 494.726555 322.617183 L 492.968743 322.851558 L 491.171868 323.085933 L 489.414055 323.398433 L 487.578118 323.710933 L 485.781243 324.023433 L 483.984368 324.374995 L 482.14843 324.726558 L 474.80468 326.289058 L 472.92968 326.718745 L 471.05468 327.10937 L 469.179681 327.539058 L 467.304681 327.929683 L 465.429681 328.35937 L 463.515618 328.749995 L 461.640618 329.14062 L 457.812493 329.92187 L 455.859368 330.273433 L 453.945306 330.624995 L 451.992181 330.976558 L 450.039056 331.289058 L 448.046868 331.562495 L 446.093743 331.874995 L 442.109368 332.343745 L 440.117181 332.539058 L 438.124993 332.695308 L 436.093744 332.851558 L 432.031244 333.007808 L 429.999994 333.04687 L 427.968744 333.04687 L 423.828119 332.89062 L 421.757806 332.73437 L 419.648431 332.57812 L 417.578119 332.304683 L 415.468744 332.031245 L 413.320306 331.679683 L 411.210931 331.289058 L 409.062494 330.820308 L 406.914056 330.312495 L 404.765619 329.726558 L 402.617182 329.101558 L 400.429682 328.398433 L 398.242182 327.617183 L 396.054682 326.79687 L 393.867182 325.898433 L 391.640619 324.882808 L 389.414057 323.82812 L 387.187494 322.695308 L 384.921869 321.48437 L 382.656244 320.195308 L 380.390619 318.789058 L 378.124994 317.343745 L 375.820307 315.781245 L 373.515619 314.14062 L 371.210932 312.42187 L 368.906245 310.624995 L 366.562495 308.710933 L 364.218745 306.679683 L 361.874995 304.570308 L 359.492182 302.382808 L 357.148432 300.039058 L 354.726557 297.656246 L 352.343745 295.117183 L 349.92187 292.499996 L 347.499995 289.726558 L 345.07812 292.499996 L 342.656245 295.117183 L 340.273432 297.656246 L 337.89062 300.039058 L 335.507808 302.382808 L 333.124995 304.570308 L 330.781245 306.679683 L 328.437495 308.710933 L 326.093745 310.624995 L 323.789058 312.42187 L 321.48437 314.14062 L 319.179683 315.781245 L 316.874995 317.343745 L 314.60937 318.789058 L 312.343745 320.195308 L 310.07812 321.48437 L 307.812495 322.695308 L 305.585933 323.82812 L 303.35937 324.882808 L 301.132808 325.898433 L 298.945308 326.79687 L 296.757808 327.617183 L 294.570308 328.398433 L 292.382808 329.101558 L 290.234371 329.726558 L 288.085933 330.312495 L 285.937496 330.820308 L 283.789058 331.289058 L 281.679683 331.679683 L 279.570308 332.031245 L 277.421871 332.304683 L 275.351558 332.57812 L 273.242183 332.73437 L 271.171871 332.89062 L 269.101558 332.968745 L 267.070309 333.04687 L 264.999996 333.04687 L 262.968746 333.007808 L 258.906246 332.851558 L 256.874996 332.695308 L 254.882809 332.539058 L 252.890621 332.343745 L 248.906246 331.874995 L 246.953121 331.562495 L 244.960934 331.289058 L 243.007809 330.976558 L 241.093746 330.624995 L 239.140621 330.273433 L 237.226559 329.92187 L 235.273434 329.531245 L 233.359372 329.14062 L 231.484372 328.749995 L 229.570309 328.35937 L 227.695309 327.929683 L 225.820309 327.539058 L 223.945309 327.10937 L 222.070309 326.718745 L 220.234372 326.289058 L 218.359372 325.898433 L 212.851559 324.726558 L 211.015622 324.374995 L 209.218747 324.023433 L 203.828122 323.085933 L 202.031247 322.851558 L 200.273435 322.617183 L 198.47656 322.382808 L 196.718747 322.187495 L 194.960935 322.031245 L 193.203122 321.914058 L 191.44531 321.835933 L 188.00781 321.757808 L 186.28906 321.79687 L 184.57031 321.874995 L 182.85156 321.992183 L 181.13281 322.148433 L 179.453122 322.343745 L 177.734372 322.617183 L 176.054685 322.929683 L 172.69531 323.710933 L 171.015622 324.179683 L 169.335935 324.726558 L 167.69531 325.351558 L 166.054685 326.01562 L 164.41406 326.718745 L 162.773435 327.539058 L 159.492185 329.335933 L 157.85156 330.39062 L 156.249998 331.445308 L 154.609373 332.656245 L 153.00781 333.906245 L 151.406248 335.23437 L 149.804685 336.64062 L 148.203123 338.124995 L 146.60156 339.726557 L 145.03906 341.406245 L 143.437498 343.164057 L 141.874998 345.039057 L 140.312498 346.992182 L 138.710935 349.023432 L 137.187498 351.17187 L 135.585935 353.437495 L 134.062498 355.781245 L 132.499998 358.242182 L 130.937498 360.820307 L 129.414061 363.51562 L 127.851561 366.289057 L 126.328123 369.179682 L 124.804686 372.226557 L 123.281248 375.351557 L 121.757811 378.593744 Z M 120.234373 381.992182 " transform="matrix(0.2, 0, 0, -0.2, 0, 376)"/>
<path fill-rule="nonzero" fill="rgb(100%, 100%, 100%)" fill-opacity="1" d="M 205.734375 320.46875 L 230.210938 320.46875 L 230.210938 341.828125 L 205.734375 341.828125 Z M 205.734375 320.46875 "/>
<path fill-rule="nonzero" fill="rgb(0%, 0%, 0%)" fill-opacity="1" d="M 219.042969 329.207031 C 219.167969 328.644531 219.667969 326.644531 221.199219 326.644531 C 221.324219 326.644531 221.824219 326.644531 222.292969 326.925781 C 221.699219 327.019531 221.261719 327.582031 221.261719 328.113281 C 221.261719 328.457031 221.480469 328.863281 222.074219 328.863281 C 222.574219 328.863281 223.261719 328.457031 223.261719 327.613281 C 223.261719 326.457031 221.980469 326.144531 221.230469 326.144531 C 219.949219 326.144531 219.199219 327.300781 218.949219 327.832031 C 218.386719 326.363281 217.199219 326.144531 216.574219 326.144531 C 214.324219 326.144531 213.074219 328.988281 213.074219 329.519531 C 213.074219 329.738281 213.292969 329.738281 213.324219 329.738281 C 213.511719 329.738281 213.574219 329.707031 213.605469 329.488281 C 214.355469 327.175781 215.792969 326.644531 216.542969 326.644531 C 216.949219 326.644531 217.730469 326.832031 217.730469 328.113281 C 217.730469 328.769531 217.355469 330.238281 216.542969 333.300781 C 216.199219 334.644531 215.417969 335.550781 214.480469 335.550781 C 214.324219 335.550781 213.824219 335.550781 213.386719 335.269531 C 213.917969 335.175781 214.386719 334.707031 214.386719 334.113281 C 214.386719 333.519531 213.917969 333.332031 213.605469 333.332031 C 212.949219 333.332031 212.386719 333.894531 212.386719 334.613281 C 212.386719 335.613281 213.480469 336.050781 214.449219 336.050781 C 215.886719 336.050781 216.667969 334.519531 216.730469 334.394531 C 217.011719 335.175781 217.792969 336.050781 219.105469 336.050781 C 221.324219 336.050781 222.574219 333.238281 222.574219 332.675781 C 222.574219 332.457031 222.386719 332.457031 222.324219 332.457031 C 222.136719 332.457031 222.074219 332.550781 222.042969 332.707031 C 221.324219 335.050781 219.824219 335.550781 219.136719 335.550781 C 218.292969 335.550781 217.949219 334.863281 217.949219 334.113281 C 217.949219 333.644531 218.074219 333.175781 218.292969 332.207031 Z M 219.042969 329.207031 "/>
<path fill-rule="nonzero" fill="rgb(0%, 0%, 0%)" fill-opacity="1" d="M 123.046875 299.601562 L 123.265625 300.085938 L 123.5 300.554688 L 123.765625 301 L 124.054688 301.429688 L 124.359375 301.835938 L 124.695312 302.234375 L 125.046875 302.617188 L 125.429688 302.984375 L 125.828125 303.328125 L 126.242188 303.664062 L 126.6875 303.984375 L 127.148438 304.289062 L 127.632812 304.578125 L 128.132812 304.851562 L 128.65625 305.117188 L 129.195312 305.367188 L 129.757812 305.601562 L 130.335938 305.828125 L 130.929688 306.039062 L 131.546875 306.234375 L 132.171875 306.421875 L 132.820312 306.601562 L 133.484375 306.765625 L 134.164062 306.921875 L 134.859375 307.0625 L 135.578125 307.195312 L 136.304688 307.320312 L 137.046875 307.4375 L 137.796875 307.539062 L 138.570312 307.640625 L 139.351562 307.726562 L 140.148438 307.804688 L 140.953125 307.875 L 142.609375 308 L 143.453125 308.046875 L 144.3125 308.09375 L 145.179688 308.125 L 146.0625 308.15625 L 146.945312 308.179688 L 147.84375 308.203125 L 148.75 308.210938 L 149.671875 308.226562 L 152.46875 308.226562 L 153.414062 308.21875 L 154.375 308.203125 L 155.335938 308.195312 L 156.304688 308.179688 L 157.28125 308.164062 L 159.25 308.117188 L 161.234375 308.070312 L 162.242188 308.046875 L 163.242188 308.023438 L 164.25 307.992188 L 165.257812 307.96875 L 167.289062 307.921875 L 168.3125 307.898438 L 169.328125 307.875 L 170.351562 307.859375 L 171.375 307.835938 L 172.390625 307.820312 L 175.460938 307.796875 L 178.515625 307.796875 L 179.53125 307.8125 L 180.546875 307.820312 L 182.5625 307.867188 L 183.5625 307.90625 L 184.5625 307.9375 L 185.5625 307.984375 L 186.554688 308.039062 L 187.539062 308.09375 L 188.515625 308.15625 L 190.453125 308.3125 L 191.414062 308.40625 L 192.367188 308.5 L 193.3125 308.609375 L 194.257812 308.726562 L 195.1875 308.851562 L 196.109375 308.984375 L 197.023438 309.132812 L 197.929688 309.289062 L 198.820312 309.453125 L 199.703125 309.640625 L 200.578125 309.828125 L 201.445312 310.03125 L 202.296875 310.242188 L 203.140625 310.46875 L 203.96875 310.710938 L 204.789062 310.960938 L 205.59375 311.226562 L 206.382812 311.507812 L 207.15625 311.796875 L 207.929688 312.109375 L 208.679688 312.429688 L 209.414062 312.765625 L 210.132812 313.117188 L 210.84375 313.484375 L 211.53125 313.867188 L 212.210938 314.273438 L 212.867188 314.6875 L 213.507812 315.117188 L 214.132812 315.570312 L 214.742188 316.039062 L 215.328125 316.523438 L 215.90625 317.023438 L 216.460938 317.546875 L 216.992188 318.085938 L 217.507812 318.648438 L 218 319.226562 L 218.492188 318.648438 L 219.015625 318.085938 L 219.546875 317.546875 L 220.101562 317.023438 L 220.671875 316.523438 L 221.265625 316.039062 L 221.867188 315.570312 L 222.492188 315.117188 L 223.140625 314.6875 L 223.796875 314.273438 L 224.476562 313.867188 L 225.164062 313.484375 L 225.875 313.117188 L 226.59375 312.765625 L 227.328125 312.429688 L 228.078125 312.109375 L 228.84375 311.796875 L 229.625 311.507812 L 230.414062 311.226562 L 231.21875 310.960938 L 232.039062 310.710938 L 232.867188 310.46875 L 233.703125 310.242188 L 234.5625 310.03125 L 235.429688 309.828125 L 236.296875 309.640625 L 237.179688 309.453125 L 238.078125 309.289062 L 238.984375 309.132812 L 239.898438 308.984375 L 240.820312 308.851562 L 241.75 308.726562 L 242.6875 308.609375 L 243.632812 308.5 L 244.59375 308.40625 L 245.546875 308.3125 L 246.515625 308.234375 L 247.492188 308.15625 L 248.46875 308.09375 L 249.453125 308.039062 L 250.445312 307.984375 L 251.4375 307.9375 L 252.4375 307.90625 L 253.445312 307.867188 L 255.460938 307.820312 L 256.46875 307.8125 L 257.484375 307.796875 L 260.546875 307.796875 L 261.5625 307.804688 L 263.609375 307.820312 L 264.632812 307.835938 L 265.65625 307.859375 L 266.679688 307.875 L 271.757812 307.992188 L 272.757812 308.023438 L 273.765625 308.046875 L 275.765625 308.09375 L 276.757812 308.117188 L 277.742188 308.140625 L 278.71875 308.164062 L 280.671875 308.195312 L 281.632812 308.203125 L 282.585938 308.21875 L 283.539062 308.226562 L 286.335938 308.226562 L 287.25 308.210938 L 288.15625 308.203125 L 289.054688 308.179688 L 289.945312 308.15625 L 290.828125 308.125 L 291.695312 308.09375 L 292.546875 308.046875 L 293.390625 308 L 294.226562 307.9375 L 295.046875 307.875 L 295.859375 307.804688 L 296.648438 307.726562 L 297.4375 307.640625 L 298.203125 307.539062 L 298.960938 307.4375 L 299.703125 307.320312 L 300.429688 307.195312 L 301.140625 307.0625 L 301.835938 306.921875 L 302.523438 306.765625 L 303.179688 306.601562 L 303.828125 306.421875 L 304.460938 306.234375 L 305.078125 306.039062 L 305.671875 305.828125 L 306.25 305.601562 L 306.804688 305.367188 L 307.351562 305.117188 L 307.875 304.851562 L 308.375 304.578125 L 308.851562 304.289062 L 309.320312 303.984375 L 309.757812 303.664062 L 310.179688 303.328125 L 310.578125 302.984375 L 310.953125 302.617188 L 311.3125 302.234375 L 311.640625 301.835938 L 311.953125 301.429688 L 312.242188 301 L 312.5 300.554688 L 312.742188 300.085938 L 312.953125 299.601562 L 312.640625 300.28125 L 312.304688 300.929688 L 311.953125 301.554688 L 311.570312 302.164062 L 311.179688 302.742188 L 310.765625 303.296875 L 310.328125 303.835938 L 309.875 304.351562 L 309.398438 304.84375 L 308.90625 305.3125 L 308.398438 305.765625 L 307.875 306.195312 L 307.328125 306.601562 L 306.765625 306.992188 L 306.1875 307.367188 L 305.59375 307.71875 L 304.976562 308.054688 L 304.351562 308.375 L 303.710938 308.671875 L 303.054688 308.953125 L 302.382812 309.21875 L 301.695312 309.46875 L 301 309.710938 L 300.28125 309.921875 L 299.554688 310.132812 L 298.8125 310.3125 L 298.0625 310.492188 L 297.296875 310.65625 L 296.523438 310.796875 L 295.726562 310.929688 L 294.929688 311.054688 L 294.117188 311.164062 L 293.289062 311.257812 L 292.460938 311.335938 L 291.617188 311.414062 L 290.765625 311.476562 L 289.898438 311.53125 L 289.03125 311.570312 L 288.148438 311.601562 L 287.257812 311.625 L 286.359375 311.640625 L 285.460938 311.648438 L 284.546875 311.640625 L 283.625 311.632812 L 282.703125 311.617188 L 281.765625 311.59375 L 280.828125 311.5625 L 279.882812 311.523438 L 278.9375 311.476562 L 277.015625 311.382812 L 274.109375 311.195312 L 272.15625 311.054688 L 269.203125 310.820312 L 268.210938 310.742188 L 267.21875 310.65625 L 266.234375 310.578125 L 265.234375 310.492188 L 264.242188 310.414062 L 263.25 310.328125 L 259.28125 310.015625 L 258.296875 309.945312 L 257.304688 309.875 L 256.320312 309.804688 L 255.34375 309.742188 L 254.359375 309.6875 L 253.382812 309.625 L 252.40625 309.578125 L 251.4375 309.53125 L 250.476562 309.492188 L 248.554688 309.429688 L 247.601562 309.414062 L 246.65625 309.398438 L 245.71875 309.390625 L 244.789062 309.390625 L 243.859375 309.40625 L 242.9375 309.421875 L 242.023438 309.453125 L 241.117188 309.484375 L 240.21875 309.539062 L 239.328125 309.59375 L 238.445312 309.664062 L 237.570312 309.742188 L 236.703125 309.835938 L 235.851562 309.9375 L 235.007812 310.054688 L 234.171875 310.179688 L 233.351562 310.320312 L 232.53125 310.476562 L 231.734375 310.640625 L 230.9375 310.820312 L 230.15625 311.023438 L 229.390625 311.234375 L 228.632812 311.460938 L 227.890625 311.703125 L 227.164062 311.960938 L 226.445312 312.242188 L 225.742188 312.53125 L 225.054688 312.84375 L 224.382812 313.171875 L 223.71875 313.515625 L 223.078125 313.875 L 222.445312 314.257812 L 221.828125 314.664062 L 221.234375 315.085938 L 220.65625 315.523438 L 220.085938 315.992188 L 219.539062 316.46875 L 219.007812 316.976562 L 218.492188 317.5 L 218 318.054688 L 217.507812 317.5 L 216.992188 316.976562 L 216.460938 316.46875 L 215.921875 315.992188 L 215.351562 315.523438 L 214.773438 315.085938 L 214.171875 314.664062 L 213.5625 314.257812 L 212.929688 313.875 L 212.289062 313.515625 L 211.625 313.171875 L 210.953125 312.84375 L 210.265625 312.53125 L 209.5625 312.242188 L 208.84375 311.960938 L 208.109375 311.703125 L 207.367188 311.460938 L 206.617188 311.234375 L 205.84375 311.023438 L 205.070312 310.820312 L 204.273438 310.640625 L 203.46875 310.476562 L 202.65625 310.320312 L 201.828125 310.179688 L 201 310.054688 L 200.148438 309.9375 L 199.296875 309.835938 L 198.4375 309.742188 L 197.5625 309.664062 L 196.679688 309.59375 L 195.789062 309.539062 L 194.890625 309.484375 L 193.984375 309.453125 L 193.070312 309.421875 L 192.148438 309.40625 L 191.21875 309.390625 L 190.289062 309.390625 L 189.34375 309.398438 L 188.398438 309.414062 L 187.445312 309.429688 L 186.492188 309.460938 L 185.53125 309.492188 L 184.5625 309.53125 L 182.625 309.625 L 181.648438 309.6875 L 180.664062 309.742188 L 179.6875 309.804688 L 178.695312 309.875 L 177.710938 309.945312 L 176.71875 310.015625 L 175.734375 310.09375 L 174.734375 310.171875 L 173.75 310.25 L 172.757812 310.328125 L 171.757812 310.414062 L 170.773438 310.492188 L 169.773438 310.578125 L 168.78125 310.65625 L 167.796875 310.742188 L 165.8125 310.898438 L 164.828125 310.976562 L 163.851562 311.054688 L 161.898438 311.195312 L 160.921875 311.257812 L 158.984375 311.382812 L 158.03125 311.429688 L 157.070312 311.476562 L 156.125 311.523438 L 155.179688 311.5625 L 154.242188 311.59375 L 153.304688 311.617188 L 152.382812 311.632812 L 151.460938 311.640625 L 150.546875 311.648438 L 149.640625 311.640625 L 148.742188 311.625 L 147.859375 311.601562 L 146.976562 311.570312 L 146.101562 311.53125 L 145.242188 311.476562 L 144.390625 311.414062 L 143.546875 311.335938 L 142.710938 311.257812 L 141.890625 311.164062 L 141.078125 311.054688 L 140.273438 310.929688 L 139.484375 310.796875 L 138.710938 310.65625 L 137.945312 310.492188 L 137.1875 310.3125 L 136.445312 310.132812 L 135.71875 309.921875 L 135.007812 309.710938 L 134.304688 309.46875 L 133.617188 309.21875 L 132.953125 308.953125 L 132.296875 308.671875 L 131.648438 308.375 L 131.023438 308.054688 L 130.414062 307.71875 L 129.820312 307.367188 L 129.242188 306.992188 L 128.679688 306.601562 L 128.132812 306.195312 L 127.601562 305.765625 L 127.09375 305.3125 L 126.609375 304.84375 L 126.132812 304.351562 L 125.679688 303.835938 L 125.242188 303.296875 L 124.828125 302.742188 L 124.429688 302.164062 L 124.054688 301.554688 L 123.695312 300.929688 L 123.359375 300.28125 L 123.046875 299.601562 "/>
<path fill="none" stroke-width="3.985" stroke-linecap="butt" stroke-linejoin="miter" stroke="rgb(0%, 0%, 0%)" stroke-opacity="1" stroke-miterlimit="10" d="M 615.234366 381.992182 L 616.328116 379.570307 L 617.499991 377.226557 L 618.828116 374.999994 L 620.273428 372.851557 L 621.796866 370.820307 L 623.476553 368.82812 L 625.234366 366.914057 L 627.148428 365.07812 L 629.140616 363.35937 L 631.210928 361.679682 L 633.437491 360.07812 L 635.742178 358.554682 L 638.164053 357.10937 L 640.664053 355.742182 L 643.28124 354.414057 L 645.976553 353.164057 L 648.789053 351.992182 L 651.679678 350.85937 L 654.648428 349.804682 L 657.734365 348.82812 L 660.859365 347.89062 L 664.101553 346.992182 L 667.421865 346.17187 L 670.820303 345.39062 L 674.296865 344.687495 L 677.890615 344.023432 L 681.523427 343.398432 L 685.234365 342.812495 L 688.984365 342.304682 L 692.851552 341.79687 L 696.757802 341.367182 L 700.742177 340.976557 L 704.765614 340.624995 L 713.046864 339.999995 L 717.265614 339.76562 L 721.562489 339.531245 L 725.898427 339.374995 L 730.312489 339.218745 L 734.726552 339.101557 L 739.218739 338.98437 L 743.749989 338.945307 L 748.359364 338.867182 L 762.343739 338.867182 L 767.070301 338.906245 L 771.874988 338.98437 L 776.679676 339.023432 L 781.523426 339.101557 L 786.406238 339.179682 L 796.249988 339.414057 L 806.171863 339.648432 L 811.210925 339.76562 L 816.210925 339.882807 L 821.249988 340.039057 L 826.28905 340.156245 L 836.4453 340.39062 L 841.562487 340.507807 L 846.640612 340.624995 L 851.7578 340.70312 L 856.874987 340.820307 L 861.953112 340.898432 L 877.304674 341.01562 L 892.578112 341.01562 L 897.656237 340.937495 L 902.734362 340.898432 L 912.812486 340.664057 L 917.812486 340.468745 L 922.812486 340.312495 L 927.812486 340.07812 L 932.773424 339.804682 L 937.695299 339.531245 L 942.578111 339.218745 L 952.265611 338.437495 L 957.070298 337.968745 L 961.835923 337.499995 L 966.562486 336.95312 L 971.289048 336.367182 L 975.937485 335.742182 L 980.54686 335.07812 L 985.117173 334.335933 L 989.648423 333.554683 L 994.101548 332.73437 L 998.51561 331.79687 L 1002.89061 330.85937 L 1007.226547 329.843745 L 1011.48436 328.789058 L 1015.70311 327.656245 L 1019.843735 326.445308 L 1023.945297 325.195308 L 1027.968735 323.867183 L 1031.914047 322.460933 L 1035.781235 321.01562 L 1039.648422 319.45312 L 1043.398422 317.851558 L 1047.070297 316.17187 L 1050.664047 314.414058 L 1054.218734 312.57812 L 1057.656234 310.664058 L 1061.054672 308.632808 L 1064.335922 306.562495 L 1067.539047 304.414058 L 1070.664047 302.148433 L 1073.710922 299.804683 L 1076.640609 297.382808 L 1079.531234 294.882808 L 1082.304671 292.265621 L 1084.960921 289.570308 L 1087.539046 286.757808 L 1089.999984 283.867183 L 1092.460921 286.757808 L 1095.078109 289.570308 L 1097.734359 292.265621 L 1100.507796 294.882808 L 1103.359359 297.382808 L 1106.328109 299.804683 L 1109.335921 302.148433 L 1112.460921 304.414058 L 1115.703108 306.562495 L 1118.984358 308.632808 L 1122.382796 310.664058 L 1125.820296 312.57812 L 1129.374983 314.414058 L 1132.968733 316.17187 L 1136.640608 317.851558 L 1140.390608 319.45312 L 1144.218733 321.01562 L 1148.124983 322.460933 L 1152.070295 323.867183 L 1156.093733 325.195308 L 1160.195295 326.445308 L 1164.33592 327.656245 L 1168.515608 328.789058 L 1172.812483 329.843745 L 1177.14842 330.85937 L 1181.484357 331.79687 L 1185.89842 332.73437 L 1190.390607 333.554683 L 1194.921857 334.335933 L 1199.49217 335.07812 L 1204.101545 335.742182 L 1208.749982 336.367182 L 1213.437482 336.95312 L 1218.164044 337.499995 L 1222.968732 337.968745 L 1227.734357 338.437495 L 1232.578107 338.82812 L 1237.460919 339.218745 L 1242.343731 339.531245 L 1247.265606 339.804682 L 1252.226544 340.07812 L 1257.187481 340.312495 L 1262.187481 340.468745 L 1267.226544 340.664057 L 1277.304668 340.898432 L 1282.343731 340.937495 L 1287.421856 341.01562 L 1302.734356 341.01562 L 1307.812481 340.976557 L 1318.046855 340.898432 L 1323.164043 340.820307 L 1328.28123 340.70312 L 1333.398418 340.624995 L 1358.789042 340.039057 L 1363.789042 339.882807 L 1368.828105 339.76562 L 1378.828104 339.531245 L 1383.789042 339.414057 L 1388.710917 339.29687 L 1393.593729 339.179682 L 1403.359354 339.023432 L 1408.164042 338.98437 L 1412.929666 338.906245 L 1417.695291 338.867182 L 1431.679666 338.867182 L 1436.249979 338.945307 L 1440.781229 338.98437 L 1445.273416 339.101557 L 1449.726541 339.218745 L 1454.140603 339.374995 L 1458.476541 339.531245 L 1462.734353 339.76562 L 1466.953103 339.999995 L 1471.132791 340.312495 L 1475.234353 340.624995 L 1479.296853 340.976557 L 1483.242165 341.367182 L 1487.187478 341.79687 L 1491.015603 342.304682 L 1494.804665 342.812495 L 1498.515603 343.398432 L 1502.148415 344.023432 L 1505.703103 344.687495 L 1509.179665 345.39062 L 1512.617165 346.17187 L 1515.898415 346.992182 L 1519.140602 347.89062 L 1522.304665 348.82812 L 1525.390602 349.804682 L 1528.359352 350.85937 L 1531.249977 351.992182 L 1534.023415 353.164057 L 1536.75779 354.414057 L 1539.374977 355.742182 L 1541.874977 357.10937 L 1544.257789 358.554682 L 1546.601539 360.07812 L 1548.789039 361.679682 L 1550.898414 363.35937 L 1552.890602 365.07812 L 1554.765602 366.914057 L 1556.562477 368.82812 L 1558.203102 370.820307 L 1559.765602 372.851557 L 1561.210914 374.999994 L 1562.499977 377.226557 L 1563.710914 379.570307 L 1564.765602 381.992182 L 1563.203102 378.593744 L 1561.523414 375.351557 L 1559.765602 372.226557 L 1557.851539 369.179682 L 1555.898414 366.289057 L 1553.828102 363.51562 L 1551.640602 360.820307 L 1549.374977 358.242182 L 1546.992164 355.781245 L 1544.531227 353.437495 L 1541.992165 351.17187 L 1539.374977 349.023432 L 1536.640602 346.992182 L 1533.828102 345.039057 L 1530.937477 343.164057 L 1527.968727 341.406245 L 1524.88279 339.726557 L 1521.75779 338.124995 L 1518.554665 336.64062 L 1515.273415 335.23437 L 1511.91404 333.906245 L 1508.47654 332.656245 L 1504.999978 331.445308 L 1501.406228 330.39062 L 1497.773415 329.335933 L 1494.062478 328.437495 L 1490.312478 327.539058 L 1486.484353 326.718745 L 1482.617165 326.01562 L 1478.63279 325.351558 L 1474.648416 324.726558 L 1470.585916 324.179683 L 1466.445291 323.710933 L 1462.304666 323.320308 L 1458.085916 322.929683 L 1453.828103 322.617183 L 1449.492166 322.343745 L 1445.156228 322.148433 L 1440.742166 321.992183 L 1436.289041 321.874995 L 1431.796854 321.79687 L 1427.304666 321.757808 L 1422.734354 321.79687 L 1418.124979 321.835933 L 1413.515604 321.914058 L 1408.828104 322.031245 L 1404.140604 322.187495 L 1399.414042 322.382808 L 1394.687479 322.617183 L 1385.078104 323.085933 L 1370.546855 324.023433 L 1360.78123 324.726558 L 1346.015605 325.898433 L 1341.054668 326.289058 L 1336.09373 326.718745 L 1331.171855 327.10937 L 1326.171855 327.539058 L 1321.210918 327.929683 L 1316.24998 328.35937 L 1296.406231 329.92187 L 1291.484356 330.273433 L 1286.523418 330.624995 L 1281.601543 330.976558 L 1276.718731 331.289058 L 1271.796856 331.562495 L 1266.914044 331.874995 L 1262.031231 332.10937 L 1257.187481 332.343745 L 1252.382794 332.539058 L 1242.773419 332.851558 L 1238.007794 332.929683 L 1233.281232 333.007808 L 1228.593732 333.04687 L 1223.945294 333.04687 L 1219.296857 332.968745 L 1214.687482 332.89062 L 1210.117169 332.73437 L 1205.58592 332.57812 L 1201.093732 332.304683 L 1196.640607 332.031245 L 1192.226545 331.679683 L 1187.851545 331.289058 L 1183.515607 330.820308 L 1179.257795 330.312495 L 1175.039045 329.726558 L 1170.859358 329.101558 L 1166.757795 328.398433 L 1162.656233 327.617183 L 1158.671858 326.79687 L 1154.687483 325.898433 L 1150.781233 324.882808 L 1146.953108 323.82812 L 1143.164045 322.695308 L 1139.453108 321.48437 L 1135.820296 320.195308 L 1132.226546 318.789058 L 1128.710921 317.343745 L 1125.273421 315.781245 L 1121.914046 314.14062 L 1118.593733 312.42187 L 1115.390608 310.624995 L 1112.226546 308.710933 L 1109.140608 306.679683 L 1106.171859 304.570308 L 1103.281234 302.382808 L 1100.429671 300.039058 L 1097.695296 297.656246 L 1095.039046 295.117183 L 1092.460921 292.499996 L 1089.999984 289.726558 L 1087.539046 292.499996 L 1084.960921 295.117183 L 1082.304671 297.656246 L 1079.609359 300.039058 L 1076.757796 302.382808 L 1073.867171 304.570308 L 1070.859359 306.679683 L 1067.812484 308.710933 L 1064.648422 310.624995 L 1061.445297 312.42187 L 1058.124984 314.14062 L 1054.765609 315.781245 L 1051.328109 317.343745 L 1047.812484 318.789058 L 1044.218734 320.195308 L 1040.546859 321.48437 L 1036.835922 322.695308 L 1033.085922 323.82812 L 1029.218735 324.882808 L 1025.351547 325.898433 L 1021.367172 326.79687 L 1017.343735 327.617183 L 1013.281235 328.398433 L 1009.14061 329.101558 L 1004.999985 329.726558 L 1000.742173 330.312495 L 996.48436 330.820308 L 992.187485 331.289058 L 987.812485 331.679683 L 983.398423 332.031245 L 978.945298 332.304683 L 974.45311 332.57812 L 969.921861 332.73437 L 965.351548 332.89062 L 960.742173 332.968745 L 956.093736 333.04687 L 951.445298 333.04687 L 946.718736 333.007808 L 941.992173 332.929683 L 937.226549 332.851558 L 932.460924 332.695308 L 927.656236 332.539058 L 922.812486 332.343745 L 913.124986 331.874995 L 908.242174 331.562495 L 903.320299 331.289058 L 898.437487 330.976558 L 893.476549 330.624995 L 888.554674 330.273433 L 883.593737 329.92187 L 878.671862 329.531245 L 873.671862 329.14062 L 868.749987 328.749995 L 863.78905 328.35937 L 858.78905 327.929683 L 853.867175 327.539058 L 848.867175 327.10937 L 843.906237 326.718745 L 838.984362 326.289058 L 829.062488 325.507808 L 824.140613 325.117183 L 819.2578 324.726558 L 809.492175 324.023433 L 804.609363 323.710933 L 794.921863 323.085933 L 790.156238 322.851558 L 785.351551 322.617183 L 780.624988 322.382808 L 775.898426 322.187495 L 771.210926 322.031245 L 766.523426 321.914058 L 761.914051 321.835933 L 757.304676 321.79687 L 752.734364 321.757808 L 748.203114 321.79687 L 743.710926 321.874995 L 739.296864 321.992183 L 734.882802 322.148433 L 730.507802 322.343745 L 726.210927 322.617183 L 721.953114 322.929683 L 717.734364 323.320308 L 713.554677 323.710933 L 709.453114 324.179683 L 705.390614 324.726558 L 701.367177 325.351558 L 697.421865 326.01562 L 693.554677 326.718745 L 689.726552 327.539058 L 685.93749 328.437495 L 682.226552 329.335933 L 678.59374 330.39062 L 675.039052 331.445308 L 671.523427 332.656245 L 668.085928 333.906245 L 664.765615 335.23437 L 661.484365 336.64062 L 658.242178 338.124995 L 655.117178 339.726557 L 652.070303 341.406245 L 649.101553 343.164057 L 646.210928 345.039057 L 643.398428 346.992182 L 640.664053 349.023432 L 638.007803 351.17187 L 635.468741 353.437495 L 633.046866 355.781245 L 630.664053 358.242182 L 628.398428 360.820307 L 626.210928 363.51562 L 624.140616 366.289057 L 622.148428 369.179682 L 620.273428 372.226557 L 618.476553 375.351557 L 616.796866 378.593744 Z M 615.234366 381.992182 " transform="matrix(0.2, 0, 0, -0.2, 0, 376)"/>
<path fill-rule="nonzero" fill="rgb(100%, 100%, 100%)" fill-opacity="1" d="M 68.390625 171.382812 L 96.710938 171.382812 L 96.710938 228.265625 L 68.390625 228.265625 Z M 68.390625 171.382812 "/>
<path fill-rule="nonzero" fill="rgb(0%, 0%, 0%)" fill-opacity="1" d="M 82.992188 177.570312 C 82.992188 177.570312 82.992188 177.351562 82.710938 177.351562 C 82.210938 177.351562 80.617188 177.507812 80.054688 177.570312 C 79.867188 177.570312 79.617188 177.601562 79.617188 178.007812 C 79.617188 178.257812 79.835938 178.257812 80.148438 178.257812 C 81.210938 178.257812 81.242188 178.414062 81.242188 178.632812 C 81.242188 178.789062 81.054688 179.507812 80.929688 179.976562 L 79.148438 187.101562 C 78.898438 188.164062 78.804688 188.539062 78.804688 189.289062 C 78.804688 191.351562 79.960938 192.726562 81.554688 192.726562 C 84.148438 192.726562 86.835938 189.476562 86.835938 186.320312 C 86.835938 184.351562 85.679688 182.820312 83.929688 182.820312 C 82.929688 182.820312 82.023438 183.476562 81.367188 184.132812 Z M 80.929688 185.820312 C 81.054688 185.351562 81.054688 185.289062 81.273438 185.070312 C 82.335938 183.632812 83.304688 183.320312 83.867188 183.320312 C 84.679688 183.320312 85.242188 183.976562 85.242188 185.351562 C 85.242188 186.664062 84.523438 189.164062 84.148438 189.976562 C 83.429688 191.445312 82.429688 192.226562 81.554688 192.226562 C 80.835938 192.226562 80.117188 191.632812 80.117188 190.039062 C 80.117188 189.632812 80.117188 189.195312 80.460938 187.820312 Z M 80.929688 185.820312 "/>
<path fill-rule="nonzero" fill="rgb(0%, 0%, 0%)" fill-opacity="1" d="M 76.789062 201.140625 L 88.546875 201.140625 L 88.546875 202.101562 L 76.789062 202.101562 Z M 76.789062 201.140625 "/>
<path fill-rule="nonzero" fill="rgb(0%, 0%, 0%)" fill-opacity="1" d="M 84.941406 213.988281 C 84.566406 213.175781 83.941406 212.582031 82.941406 212.582031 C 80.378906 212.582031 77.691406 215.800781 77.691406 218.988281 C 77.691406 221.050781 78.878906 222.488281 80.597656 222.488281 C 81.035156 222.488281 82.128906 222.394531 83.410156 220.832031 C 83.597656 221.769531 84.378906 222.488281 85.410156 222.488281 C 86.160156 222.488281 86.660156 221.988281 87.035156 221.269531 C 87.410156 220.488281 87.691406 219.175781 87.691406 219.113281 C 87.691406 218.894531 87.472656 218.894531 87.410156 218.894531 C 87.191406 218.894531 87.191406 218.988281 87.097656 219.300781 C 86.753906 220.707031 86.347656 221.988281 85.441406 221.988281 C 84.878906 221.988281 84.785156 221.425781 84.785156 220.988281 C 84.785156 220.519531 84.847656 220.332031 85.097656 219.394531 C 85.316406 218.457031 85.378906 218.238281 85.566406 217.425781 L 86.347656 214.363281 C 86.503906 213.738281 86.503906 213.707031 86.503906 213.613281 C 86.503906 213.238281 86.253906 213.019531 85.878906 213.019531 C 85.347656 213.019531 85.003906 213.519531 84.941406 213.988281 Z M 83.535156 219.644531 C 83.410156 220.050781 83.410156 220.082031 83.097656 220.457031 C 82.128906 221.644531 81.253906 221.988281 80.628906 221.988281 C 79.535156 221.988281 79.222656 220.800781 79.222656 219.957031 C 79.222656 218.863281 79.941406 216.175781 80.441406 215.175781 C 81.128906 213.894531 82.097656 213.082031 82.972656 213.082031 C 84.378906 213.082031 84.691406 214.863281 84.691406 214.988281 C 84.691406 215.113281 84.660156 215.269531 84.628906 215.363281 Z M 83.535156 219.644531 "/>
<path fill-rule="nonzero" fill="rgb(0%, 0%, 0%)" fill-opacity="1" d="M 114.953125 107.601562 L 114.453125 107.8125 L 113.976562 108.039062 L 113.515625 108.296875 L 113.078125 108.578125 L 112.648438 108.875 L 112.242188 109.195312 L 111.851562 109.539062 L 111.476562 109.90625 L 111.109375 110.296875 L 110.765625 110.703125 L 110.4375 111.132812 L 110.125 111.578125 L 109.828125 112.046875 L 109.539062 112.53125 L 109.273438 113.039062 L 109.015625 113.5625 L 108.765625 114.109375 L 108.539062 114.671875 L 108.320312 115.242188 L 108.109375 115.84375 L 107.921875 116.453125 L 107.742188 117.078125 L 107.570312 117.726562 L 107.414062 118.382812 L 107.257812 119.0625 L 107.125 119.75 L 106.992188 120.453125 L 106.875 121.171875 L 106.765625 121.90625 L 106.671875 122.648438 L 106.578125 123.40625 L 106.492188 124.1875 L 106.421875 124.96875 L 106.359375 125.765625 L 106.296875 126.570312 L 106.25 127.390625 L 106.203125 128.21875 L 106.164062 129.0625 L 106.132812 129.914062 L 106.109375 130.773438 L 106.085938 131.648438 L 106.070312 132.523438 L 106.0625 133.414062 L 106.0625 136.132812 L 106.078125 137.976562 L 106.109375 139.851562 L 106.132812 140.796875 L 106.148438 141.75 L 106.171875 142.703125 L 106.195312 143.671875 L 106.226562 144.632812 L 106.25 145.601562 L 106.273438 146.578125 L 106.304688 147.554688 L 106.421875 152.476562 L 106.445312 153.46875 L 106.492188 156.445312 L 106.507812 158.429688 L 106.507812 160.40625 L 106.492188 162.375 L 106.476562 163.359375 L 106.429688 165.3125 L 106.398438 166.289062 L 106.359375 167.257812 L 106.3125 168.21875 L 106.257812 169.179688 L 106.203125 170.132812 L 106.132812 171.085938 L 106.054688 172.03125 L 105.976562 172.96875 L 105.882812 173.898438 L 105.78125 174.820312 L 105.671875 175.742188 L 105.546875 176.648438 L 105.414062 177.554688 L 105.28125 178.445312 L 105.125 179.335938 L 104.960938 180.210938 L 104.796875 181.078125 L 104.609375 181.9375 L 104.414062 182.789062 L 104.203125 183.625 L 103.984375 184.445312 L 103.75 185.265625 L 103.507812 186.070312 L 103.242188 186.859375 L 102.96875 187.640625 L 102.679688 188.414062 L 102.382812 189.164062 L 102.0625 189.90625 L 101.726562 190.632812 L 101.382812 191.351562 L 101.015625 192.046875 L 100.640625 192.734375 L 100.242188 193.40625 L 99.828125 194.0625 L 99.398438 194.695312 L 98.953125 195.320312 L 98.492188 195.929688 L 98.007812 196.515625 L 97.507812 197.085938 L 96.984375 197.640625 L 96.445312 198.179688 L 95.890625 198.695312 L 95.3125 199.195312 L 94.71875 199.679688 L 95.3125 200.15625 L 95.890625 200.65625 L 96.445312 201.179688 L 96.984375 201.710938 L 97.507812 202.265625 L 98.007812 202.835938 L 98.492188 203.429688 L 98.953125 204.039062 L 99.398438 204.65625 L 99.828125 205.296875 L 100.242188 205.953125 L 100.640625 206.625 L 101.015625 207.304688 L 101.382812 208.007812 L 101.726562 208.71875 L 102.0625 209.445312 L 102.382812 210.195312 L 102.679688 210.945312 L 102.96875 211.710938 L 103.242188 212.492188 L 103.507812 213.289062 L 103.75 214.09375 L 103.984375 214.90625 L 104.203125 215.734375 L 104.414062 216.570312 L 104.609375 217.421875 L 104.796875 218.28125 L 104.960938 219.148438 L 105.125 220.023438 L 105.28125 220.914062 L 105.414062 221.804688 L 105.546875 222.703125 L 105.671875 223.617188 L 105.78125 224.53125 L 105.882812 225.460938 L 105.976562 226.390625 L 106.054688 227.328125 L 106.132812 228.273438 L 106.203125 229.21875 L 106.3125 231.140625 L 106.359375 232.101562 L 106.398438 233.070312 L 106.429688 234.046875 L 106.476562 236 L 106.492188 236.984375 L 106.507812 238.953125 L 106.507812 240.929688 L 106.492188 242.914062 L 106.445312 245.890625 L 106.421875 246.875 L 106.398438 247.867188 L 106.304688 251.804688 L 106.273438 252.78125 L 106.226562 254.71875 L 106.195312 255.6875 L 106.148438 257.609375 L 106.132812 258.5625 L 106.109375 259.507812 L 106.09375 260.445312 L 106.078125 261.375 L 106.070312 262.304688 L 106.0625 263.226562 L 106.0625 265.945312 L 106.070312 266.828125 L 106.085938 267.710938 L 106.132812 269.445312 L 106.164062 270.296875 L 106.203125 271.132812 L 106.25 271.960938 L 106.296875 272.78125 L 106.359375 273.59375 L 106.421875 274.390625 L 106.492188 275.171875 L 106.578125 275.945312 L 106.671875 276.703125 L 106.765625 277.453125 L 106.875 278.1875 L 106.992188 278.90625 L 107.125 279.609375 L 107.257812 280.296875 L 107.414062 280.976562 L 107.570312 281.632812 L 107.742188 282.28125 L 107.921875 282.90625 L 108.109375 283.515625 L 108.320312 284.109375 L 108.539062 284.6875 L 108.765625 285.25 L 109.015625 285.796875 L 109.273438 286.320312 L 109.539062 286.820312 L 109.828125 287.3125 L 110.125 287.78125 L 110.4375 288.226562 L 110.765625 288.65625 L 111.109375 289.0625 L 111.476562 289.445312 L 111.851562 289.8125 L 112.242188 290.164062 L 112.648438 290.484375 L 113.078125 290.78125 L 113.515625 291.0625 L 113.976562 291.3125 L 114.453125 291.546875 L 114.953125 291.757812 L 114.257812 291.453125 L 113.585938 291.125 L 112.9375 290.78125 L 112.320312 290.414062 L 111.71875 290.03125 L 111.148438 289.632812 L 110.59375 289.203125 L 110.0625 288.765625 L 109.554688 288.304688 L 109.070312 287.828125 L 108.601562 287.335938 L 108.164062 286.828125 L 107.734375 286.296875 L 107.328125 285.75 L 106.945312 285.1875 L 106.585938 284.617188 L 106.234375 284.023438 L 105.90625 283.414062 L 105.601562 282.796875 L 105.3125 282.15625 L 105.039062 281.5 L 104.78125 280.835938 L 104.539062 280.15625 L 104.3125 279.46875 L 104.101562 278.757812 L 103.90625 278.039062 L 103.726562 277.3125 L 103.5625 276.570312 L 103.414062 275.8125 L 103.273438 275.046875 L 103.148438 274.273438 L 103.039062 273.484375 L 102.9375 272.6875 L 102.851562 271.882812 L 102.773438 271.0625 L 102.710938 270.234375 L 102.65625 269.398438 L 102.617188 268.554688 L 102.578125 267.703125 L 102.554688 266.835938 L 102.539062 265.96875 L 102.539062 264.203125 L 102.546875 263.3125 L 102.570312 262.414062 L 102.59375 261.507812 L 102.625 260.601562 L 102.664062 259.6875 L 102.703125 258.757812 L 102.757812 257.835938 L 102.8125 256.90625 L 102.867188 255.96875 L 102.9375 255.03125 L 103 254.085938 L 103.078125 253.140625 L 103.148438 252.1875 L 103.304688 250.28125 L 103.390625 249.328125 L 103.46875 248.367188 L 103.726562 245.484375 L 103.804688 244.523438 L 103.890625 243.554688 L 103.976562 242.59375 L 104.054688 241.632812 L 104.140625 240.671875 L 104.21875 239.710938 L 104.289062 238.75 L 104.367188 237.789062 L 104.429688 236.835938 L 104.5 235.882812 L 104.5625 234.9375 L 104.617188 233.984375 L 104.671875 233.039062 L 104.71875 232.101562 L 104.757812 231.164062 L 104.820312 229.304688 L 104.84375 228.382812 L 104.859375 226.554688 L 104.859375 225.648438 L 104.851562 224.75 L 104.828125 223.859375 L 104.796875 222.96875 L 104.757812 222.09375 L 104.710938 221.21875 L 104.65625 220.359375 L 104.578125 219.5 L 104.5 218.65625 L 104.40625 217.8125 L 104.296875 216.984375 L 104.179688 216.171875 L 104.046875 215.359375 L 103.90625 214.554688 L 103.742188 213.773438 L 103.570312 212.992188 L 103.382812 212.21875 L 103.179688 211.46875 L 102.960938 210.71875 L 102.726562 209.992188 L 102.476562 209.273438 L 102.210938 208.5625 L 101.929688 207.867188 L 101.625 207.1875 L 101.304688 206.515625 L 100.96875 205.859375 L 100.609375 205.226562 L 100.234375 204.59375 L 99.84375 203.984375 L 99.429688 203.390625 L 98.992188 202.8125 L 98.53125 202.25 L 98.054688 201.703125 L 97.5625 201.171875 L 97.039062 200.65625 L 96.5 200.15625 L 95.929688 199.679688 L 96.5 199.195312 L 97.039062 198.703125 L 97.5625 198.1875 L 98.054688 197.65625 L 98.53125 197.109375 L 98.992188 196.546875 L 99.429688 195.960938 L 99.84375 195.367188 L 100.234375 194.757812 L 100.609375 194.132812 L 100.96875 193.492188 L 101.304688 192.835938 L 101.625 192.171875 L 101.929688 191.492188 L 102.210938 190.796875 L 102.476562 190.085938 L 102.726562 189.367188 L 102.960938 188.640625 L 103.179688 187.890625 L 103.382812 187.132812 L 103.570312 186.367188 L 103.742188 185.585938 L 103.90625 184.796875 L 104.046875 184 L 104.179688 183.1875 L 104.296875 182.367188 L 104.40625 181.539062 L 104.5 180.703125 L 104.578125 179.859375 L 104.65625 179 L 104.710938 178.132812 L 104.757812 177.265625 L 104.796875 176.390625 L 104.828125 175.5 L 104.851562 174.609375 L 104.859375 173.710938 L 104.859375 172.804688 L 104.851562 171.890625 L 104.84375 170.96875 L 104.820312 170.046875 L 104.789062 169.125 L 104.757812 168.1875 L 104.71875 167.257812 L 104.671875 166.3125 L 104.617188 165.375 L 104.5625 164.421875 L 104.5 163.476562 L 104.429688 162.523438 L 104.367188 161.5625 L 104.289062 160.609375 L 104.21875 159.648438 L 104.140625 158.6875 L 104.054688 157.726562 L 103.976562 156.765625 L 103.890625 155.796875 L 103.804688 154.835938 L 103.726562 153.875 L 103.46875 150.992188 L 103.390625 150.03125 L 103.304688 149.078125 L 103.148438 147.171875 L 103.078125 146.21875 L 103 145.273438 L 102.9375 144.328125 L 102.867188 143.390625 L 102.8125 142.453125 L 102.703125 140.59375 L 102.664062 139.671875 L 102.625 138.757812 L 102.59375 137.84375 L 102.546875 136.046875 L 102.539062 135.148438 L 102.539062 133.390625 L 102.554688 132.523438 L 102.578125 131.65625 L 102.617188 130.804688 L 102.65625 129.960938 L 102.710938 129.125 L 102.773438 128.296875 L 102.851562 127.476562 L 102.9375 126.671875 L 103.039062 125.875 L 103.148438 125.085938 L 103.273438 124.304688 L 103.414062 123.539062 L 103.5625 122.789062 L 103.726562 122.046875 L 103.90625 121.3125 L 104.101562 120.601562 L 104.3125 119.890625 L 104.539062 119.195312 L 104.78125 118.523438 L 105.039062 117.851562 L 105.3125 117.203125 L 105.601562 116.5625 L 105.90625 115.945312 L 106.234375 115.335938 L 106.585938 114.742188 L 106.945312 114.171875 L 107.328125 113.609375 L 107.734375 113.0625 L 108.164062 112.53125 L 108.601562 112.023438 L 109.070312 111.53125 L 109.554688 111.046875 L 110.0625 110.59375 L 110.59375 110.148438 L 111.148438 109.726562 L 111.71875 109.320312 L 112.320312 108.9375 L 112.9375 108.578125 L 113.585938 108.234375 L 114.257812 107.90625 L 114.953125 107.601562 "/>
<path fill="none" stroke-width="3.985" stroke-linecap="butt" stroke-linejoin="miter" stroke="rgb(0%, 0%, 0%)" stroke-opacity="1" stroke-miterlimit="10" d="M 574.765616 1341.992168 L 572.265616 1340.93748 L 569.882804 1339.804668 L 567.578117 1338.515605 L 565.390617 1337.109355 L 563.242179 1335.62498 L 561.210929 1334.023418 L 559.257804 1332.304668 L 557.382804 1330.46873 L 555.546867 1328.515605 L 553.828117 1326.484355 L 552.187492 1324.335918 L 550.624992 1322.109355 L 549.140617 1319.765605 L 547.695304 1317.34373 L 546.367179 1314.804668 L 545.078117 1312.18748 L 543.828117 1309.453105 L 542.695304 1306.640606 L 541.601554 1303.789043 L 540.546867 1300.781231 L 539.609367 1297.734356 L 538.710929 1294.609356 L 537.851554 1291.367168 L 537.070304 1288.085918 L 536.289055 1284.687481 L 535.624992 1281.249981 L 534.96093 1277.734356 L 534.374992 1274.140606 L 533.828117 1270.468731 L 533.359367 1266.757794 L 532.890617 1262.968731 L 532.46093 1259.062481 L 532.109367 1255.156231 L 531.796867 1251.171856 L 531.484367 1247.148419 L 531.249992 1243.046856 L 531.015617 1238.906232 L 530.820305 1234.687482 L 530.664055 1230.429669 L 530.546867 1226.132794 L 530.42968 1221.757794 L 530.351555 1217.382794 L 530.312492 1212.929669 L 530.312492 1199.33592 L 530.390617 1190.11717 L 530.546867 1180.74217 L 530.664055 1176.015607 L 530.74218 1171.249983 L 530.859367 1166.484358 L 530.976555 1161.640608 L 531.132805 1156.83592 L 531.249992 1151.99217 L 531.36718 1147.109358 L 531.52343 1142.226545 L 532.109367 1117.617171 L 532.226555 1112.656233 L 532.46093 1097.773421 L 532.539055 1087.851546 L 532.539055 1077.968734 L 532.46093 1068.124984 L 532.382805 1063.203109 L 532.14843 1053.437484 L 531.99218 1048.554672 L 531.796867 1043.710922 L 531.562492 1038.906235 L 531.289055 1034.101547 L 531.015617 1029.335922 L 530.664055 1024.570297 L 530.27343 1019.843735 L 529.882805 1015.156235 L 529.414055 1010.507797 L 528.906242 1005.898423 L 528.359367 1001.289048 L 527.734367 996.757798 L 527.070305 992.226548 L 526.406242 987.773423 L 525.624992 983.320298 L 524.80468 978.945298 L 523.984367 974.60936 L 523.046867 970.312486 L 522.070305 966.054673 L 521.015617 961.874986 L 519.921867 957.773423 L 518.749992 953.671861 L 517.539055 949.648423 L 516.21093 945.703111 L 514.843742 941.796861 L 513.39843 937.929674 L 511.914055 934.179674 L 510.312492 930.468736 L 508.632805 926.835924 L 506.914055 923.242174 L 505.078117 919.765611 L 503.203118 916.328111 L 501.21093 912.968736 L 499.140618 909.687486 L 496.99218 906.523424 L 494.765618 903.398424 L 492.46093 900.351549 L 490.039055 897.421862 L 487.539055 894.570299 L 484.921868 891.796862 L 482.226555 889.101549 L 479.453118 886.523424 L 476.562493 884.023424 L 473.593743 881.601549 L 476.562493 879.218737 L 479.453118 876.718737 L 482.226555 874.101549 L 484.921868 871.4453 L 487.539055 868.671862 L 490.039055 865.8203 L 492.46093 862.85155 L 494.765618 859.804675 L 496.99218 856.718737 L 499.140618 853.515612 L 501.21093 850.234362 L 503.203118 846.874987 L 505.078117 843.47655 L 506.914055 839.960925 L 508.632805 836.406238 L 510.312492 832.773425 L 511.914055 829.023425 L 513.39843 825.273425 L 514.843742 821.4453 L 516.21093 817.53905 L 517.539055 813.554675 L 518.749992 809.531238 L 519.921867 805.468738 L 521.015617 801.328113 L 522.070305 797.148426 L 523.046867 792.890613 L 523.984367 788.593738 L 524.80468 784.257801 L 525.624992 779.882801 L 526.406242 775.429676 L 527.070305 770.976551 L 527.734367 766.484364 L 528.359367 761.914051 L 528.906242 757.343739 L 529.414055 752.695301 L 529.882805 748.046864 L 530.27343 743.359364 L 530.664055 738.632801 L 531.015617 733.906239 L 531.562492 724.296864 L 531.796867 719.492177 L 531.99218 714.648427 L 532.14843 709.765614 L 532.382805 699.99999 L 532.46093 695.078115 L 532.539055 685.234365 L 532.539055 675.351552 L 532.46093 665.429678 L 532.226555 650.546865 L 532.109367 645.62499 L 531.99218 640.664053 L 531.52343 620.976553 L 531.36718 616.093741 L 531.132805 606.406241 L 530.976555 601.562491 L 530.74218 591.953116 L 530.664055 587.187491 L 530.546867 582.460929 L 530.468742 577.773429 L 530.390617 573.124991 L 530.351555 568.476554 L 530.312492 563.867179 L 530.312492 550.273429 L 530.351555 545.859367 L 530.42968 541.445304 L 530.664055 532.77343 L 530.820305 528.515617 L 531.015617 524.33593 L 531.249992 520.195305 L 531.484367 516.093742 L 531.796867 512.031242 L 532.109367 508.046867 L 532.46093 504.140617 L 532.890617 500.27343 L 533.359367 496.484368 L 533.828117 492.734368 L 534.374992 489.062493 L 534.96093 485.468743 L 535.624992 481.953118 L 536.289055 478.515618 L 537.070304 475.11718 L 537.851554 471.83593 L 538.710929 468.593743 L 539.609367 465.468743 L 540.546867 462.421868 L 541.601554 459.453118 L 542.695304 456.562493 L 543.828117 453.749993 L 545.078117 451.015618 L 546.367179 448.398431 L 547.695304 445.898431 L 549.140617 443.437493 L 550.624992 441.093743 L 552.187492 438.867181 L 553.828117 436.718743 L 555.546867 434.687494 L 557.382804 432.773431 L 559.257804 430.937494 L 561.210929 429.179681 L 563.242179 427.578119 L 565.390617 426.093744 L 567.578117 424.687494 L 569.882804 423.437494 L 572.265616 422.265619 L 574.765616 421.210931 L 571.289054 422.734369 L 567.929679 424.374994 L 564.687492 426.093744 L 561.601554 427.929681 L 558.593742 429.843744 L 555.742179 431.835931 L 552.968742 433.984369 L 550.312492 436.171869 L 547.773429 438.476556 L 545.351554 440.859368 L 543.007804 443.320306 L 540.820304 445.859368 L 538.671867 448.515618 L 536.640617 451.249993 L 534.726555 454.062493 L 532.92968 456.914056 L 531.171867 459.882806 L 529.531242 462.929681 L 528.007805 466.015618 L 526.562492 469.218743 L 525.195305 472.499993 L 523.906242 475.820305 L 522.695305 479.218743 L 521.562492 482.656243 L 520.507805 486.21093 L 519.531242 489.80468 L 518.632805 493.437493 L 517.812492 497.14843 L 517.070305 500.937493 L 516.36718 504.765617 L 515.74218 508.632805 L 515.195305 512.578117 L 514.687492 516.562492 L 514.257805 520.58593 L 513.86718 524.687492 L 513.55468 528.828117 L 513.281242 533.007805 L 513.08593 537.226554 L 512.890617 541.484367 L 512.77343 545.820304 L 512.695305 550.156242 L 512.695305 558.984367 L 512.734367 563.437492 L 512.851555 567.929679 L 512.968742 572.460929 L 513.124992 576.992179 L 513.320305 581.562491 L 513.515617 586.210929 L 513.789055 590.820304 L 514.062492 595.468741 L 514.33593 600.156241 L 514.687492 604.843741 L 514.999992 609.570303 L 515.390617 614.296866 L 515.74218 619.062491 L 516.52343 628.593741 L 516.953117 633.359366 L 517.343742 638.164053 L 518.632805 652.578115 L 519.02343 657.382803 L 519.453117 662.226553 L 519.882805 667.03124 L 520.27343 671.835927 L 520.703117 676.640615 L 521.093742 681.445302 L 521.445305 686.24999 L 521.83593 691.054677 L 522.14843 695.820302 L 522.499992 700.585927 L 522.812492 705.312489 L 523.08593 710.078114 L 523.359367 714.804677 L 523.593742 719.492177 L 523.789055 724.179677 L 524.101555 733.476552 L 524.218742 738.085927 L 524.296867 747.226551 L 524.296867 751.757801 L 524.257805 756.249989 L 524.140617 760.703114 L 523.984367 765.156239 L 523.789055 769.531239 L 523.55468 773.906238 L 523.281242 778.203113 L 522.890617 782.499988 L 522.499992 786.718738 L 522.031242 790.937488 L 521.484367 795.078113 L 520.89843 799.140613 L 520.234367 803.203113 L 519.531242 807.22655 L 518.71093 811.1328 L 517.851555 815.03905 L 516.914055 818.906238 L 515.89843 822.656238 L 514.80468 826.406238 L 513.632805 830.03905 L 512.382805 833.6328 L 511.05468 837.187488 L 509.64843 840.66405 L 508.124992 844.062487 L 506.52343 847.421862 L 504.843742 850.703112 L 503.046868 853.867175 L 501.171868 857.031237 L 499.218743 860.078112 L 497.14843 863.046862 L 494.96093 865.937487 L 492.656243 868.749987 L 490.27343 871.484362 L 487.812493 874.140612 L 485.195305 876.718737 L 482.499993 879.218737 L 479.64843 881.601549 L 482.499993 884.023424 L 485.195305 886.484362 L 487.812493 889.062487 L 490.27343 891.718737 L 492.656243 894.453112 L 494.96093 897.265612 L 497.14843 900.195299 L 499.218743 903.164049 L 501.171868 906.210924 L 503.046868 909.335924 L 504.843742 912.539049 L 506.52343 915.820299 L 508.124992 919.140611 L 509.64843 922.539049 L 511.05468 926.015611 L 512.382805 929.570299 L 513.632805 933.164049 L 514.80468 936.796861 L 515.89843 940.546861 L 516.914055 944.335923 L 517.851555 948.164048 L 518.71093 952.070298 L 519.531242 956.015611 L 520.234367 959.999986 L 520.89843 964.062486 L 521.484367 968.164048 L 522.031242 972.304673 L 522.499992 976.48436 L 522.890617 980.70311 L 523.281242 984.999985 L 523.55468 989.335923 L 523.789055 993.67186 L 523.984367 998.04686 L 524.140617 1002.499985 L 524.257805 1006.95311 L 524.296867 1011.445297 L 524.296867 1015.976547 L 524.257805 1020.54686 L 524.218742 1025.156235 L 524.101555 1029.76561 L 523.945305 1034.374985 L 523.789055 1039.062485 L 523.593742 1043.710922 L 523.359367 1048.437484 L 523.08593 1053.124984 L 522.812492 1057.890609 L 522.499992 1062.617172 L 522.14843 1067.382797 L 521.83593 1072.187484 L 521.445305 1076.953109 L 521.093742 1081.757796 L 520.703117 1086.562484 L 520.27343 1091.367171 L 519.882805 1096.171859 L 519.453117 1101.015609 L 519.02343 1105.820296 L 518.632805 1110.624983 L 517.343742 1125.039046 L 516.953117 1129.843733 L 516.52343 1134.609358 L 515.74218 1144.140608 L 515.390617 1148.906233 L 514.999992 1153.632795 L 514.687492 1158.359358 L 514.33593 1163.046858 L 514.062492 1167.734358 L 513.515617 1177.031232 L 513.320305 1181.640607 L 513.124992 1186.21092 L 512.968742 1190.781232 L 512.734367 1199.765607 L 512.695305 1204.257795 L 512.695305 1213.046857 L 512.77343 1217.382794 L 512.890617 1221.718732 L 513.08593 1225.976544 L 513.281242 1230.195294 L 513.55468 1234.374982 L 513.86718 1238.515607 L 514.257805 1242.617169 L 514.687492 1246.640606 L 515.195305 1250.624981 L 515.74218 1254.570294 L 516.36718 1258.476544 L 517.070305 1262.304669 L 517.812492 1266.054669 L 518.632805 1269.765606 L 519.531242 1273.437481 L 520.507805 1276.992168 L 521.562492 1280.546856 L 522.695305 1284.023418 L 523.906242 1287.382793 L 525.195305 1290.742168 L 526.562492 1293.984356 L 528.007805 1297.187481 L 529.531242 1300.273418 L 531.171867 1303.320293 L 532.92968 1306.289043 L 534.726555 1309.140605 L 536.640617 1311.953105 L 538.671867 1314.68748 L 540.820304 1317.34373 L 543.007804 1319.882793 L 545.351554 1322.34373 L 547.773429 1324.765605 L 550.312492 1327.03123 L 552.968742 1329.257793 L 555.742179 1331.367168 L 558.593742 1333.398418 L 561.601554 1335.31248 L 564.687492 1337.109355 L 567.929679 1338.828105 L 571.289054 1340.46873 Z M 574.765616 1341.992168 " transform="matrix(0.2, 0, 0, -0.2, 0, 376)"/>
<path fill-rule="nonzero" fill="rgb(0%, 0%, 0%)" fill-opacity="1" d="M 416.757812 309.5625 L 414.914062 305.21875 C 414.851562 305.0625 414.789062 304.96875 414.789062 304.9375 C 414.789062 304.8125 415.164062 304.40625 416.101562 304.3125 C 416.320312 304.28125 416.539062 304.28125 416.539062 303.90625 C 416.539062 303.625 416.257812 303.625 416.195312 303.625 C 415.289062 303.625 414.351562 303.6875 413.445312 303.6875 C 412.914062 303.6875 411.539062 303.625 411.007812 303.625 C 410.882812 303.625 410.601562 303.625 410.601562 304.0625 C 410.601562 304.3125 410.820312 304.3125 411.101562 304.3125 C 412.414062 304.3125 412.570312 304.53125 412.757812 305 L 415.320312 311.09375 L 410.726562 316.03125 L 410.445312 316.28125 C 409.382812 317.4375 408.351562 317.78125 407.226562 317.84375 C 406.945312 317.875 406.757812 317.875 406.757812 318.28125 C 406.757812 318.3125 406.757812 318.53125 407.039062 318.53125 C 407.695312 318.53125 408.414062 318.46875 409.101562 318.46875 C 409.882812 318.46875 410.757812 318.53125 411.539062 318.53125 C 411.664062 318.53125 411.914062 318.53125 411.914062 318.09375 C 411.914062 317.875 411.695312 317.84375 411.664062 317.84375 C 411.476562 317.84375 410.789062 317.78125 410.789062 317.1875 C 410.789062 316.84375 411.101562 316.46875 411.382812 316.1875 L 413.601562 313.84375 L 415.570312 311.71875 L 417.757812 316.90625 C 417.851562 317.15625 417.882812 317.1875 417.882812 317.21875 C 417.882812 317.40625 417.476562 317.78125 416.601562 317.84375 C 416.382812 317.875 416.164062 317.90625 416.164062 318.28125 C 416.164062 318.53125 416.414062 318.53125 416.507812 318.53125 C 417.101562 318.53125 418.632812 318.46875 419.257812 318.46875 C 419.789062 318.46875 421.132812 318.53125 421.664062 318.53125 C 421.820312 318.53125 422.101562 318.53125 422.101562 318.125 C 422.101562 317.84375 421.882812 317.84375 421.695312 317.84375 C 420.226562 317.84375 420.195312 317.78125 419.820312 316.90625 C 418.976562 314.875 417.507812 311.46875 417.007812 310.15625 C 418.476562 308.625 420.789062 306.03125 421.476562 305.4375 C 422.101562 304.90625 422.945312 304.375 424.257812 304.3125 C 424.539062 304.28125 424.726562 304.28125 424.726562 303.875 C 424.726562 303.84375 424.726562 303.625 424.445312 303.625 C 423.789062 303.625 423.070312 303.6875 422.382812 303.6875 C 421.570312 303.6875 420.757812 303.625 419.976562 303.625 C 419.851562 303.625 419.570312 303.625 419.570312 304.0625 C 419.570312 304.21875 419.664062 304.28125 419.820312 304.3125 C 420.007812 304.34375 420.695312 304.375 420.695312 305 C 420.695312 305.28125 420.445312 305.5625 420.289062 305.78125 Z M 416.757812 309.5625 "/>
<path fill-rule="nonzero" fill="rgb(0%, 0%, 0%)" fill-opacity="1" d="M 140 2.710938 L 140.28125 2.398438 C 140.9375 1.742188 141.65625 0.992188 143.15625 0.898438 C 143.40625 0.867188 143.59375 0.867188 143.59375 0.492188 C 143.59375 0.304688 143.46875 0.210938 143.3125 0.210938 C 142.75 0.210938 142.09375 0.273438 141.53125 0.273438 C 140.8125 0.273438 140.03125 0.210938 139.34375 0.210938 C 139.21875 0.210938 138.9375 0.210938 138.9375 0.648438 C 138.9375 0.867188 139.125 0.898438 139.25 0.898438 C 139.40625 0.898438 140.03125 0.929688 140.03125 1.398438 C 140.03125 1.773438 139.53125 2.335938 139.4375 2.429688 L 134.375 8.273438 L 132 1.804688 C 131.84375 1.492188 131.84375 1.429688 131.84375 1.429688 C 131.84375 0.898438 132.9375 0.898438 133.15625 0.898438 C 133.4375 0.898438 133.65625 0.898438 133.65625 0.460938 C 133.65625 0.210938 133.40625 0.210938 133.34375 0.210938 C 132.71875 0.210938 131.1875 0.273438 130.59375 0.273438 C 130.03125 0.273438 128.6875 0.210938 128.15625 0.210938 C 128.03125 0.210938 127.71875 0.210938 127.71875 0.648438 C 127.71875 0.898438 127.9375 0.898438 128.21875 0.898438 C 129.53125 0.898438 129.625 1.085938 129.8125 1.648438 L 132.5 8.804688 C 132.53125 8.867188 132.59375 9.117188 132.59375 9.179688 C 132.59375 9.242188 131.71875 12.773438 131.625 13.148438 C 131.34375 14.367188 131.3125 14.429688 129.5625 14.429688 C 129.15625 14.429688 128.96875 14.429688 128.96875 14.867188 C 128.96875 15.117188 129.25 15.117188 129.28125 15.117188 C 129.90625 15.117188 131.40625 15.054688 132.03125 15.054688 C 132.625 15.054688 134.21875 15.117188 134.8125 15.117188 C 134.96875 15.117188 135.25 15.117188 135.25 14.679688 C 135.25 14.429688 135.03125 14.429688 134.625 14.429688 C 134.59375 14.429688 134.15625 14.429688 133.78125 14.398438 C 133.34375 14.367188 133.21875 14.304688 133.21875 14.054688 C 133.21875 13.898438 133.40625 13.117188 133.5 12.679688 L 134.28125 9.585938 C 134.375 9.179688 134.40625 9.117188 134.59375 8.929688 Z M 140 2.710938 "/>
<path fill-rule="nonzero" fill="rgb(0%, 0%, 0%)" fill-opacity="1" d="M 126.515625 324.96875 C 126.515625 321.4375 124.203125 319.09375 120.953125 319.09375 C 116.234375 319.09375 111.421875 324.03125 111.421875 329.125 C 111.421875 332.75 113.859375 334.9375 117.015625 334.9375 C 121.640625 334.9375 126.515625 330.15625 126.515625 324.96875 Z M 117.140625 334.375 C 114.984375 334.375 113.453125 332.625 113.453125 329.75 C 113.453125 328.78125 113.765625 325.59375 115.453125 323.03125 C 116.953125 320.78125 119.078125 319.625 120.796875 319.625 C 122.609375 319.625 124.546875 320.84375 124.546875 324.09375 C 124.546875 325.6875 123.984375 329.09375 121.796875 331.75 C 120.765625 333.09375 118.984375 334.375 117.140625 334.375 Z M 117.140625 334.375 "/>
<path fill="none" stroke-width="11.9553" stroke-linecap="butt" stroke-linejoin="miter" stroke="rgb(0%, 0%, 0%)" stroke-opacity="1" stroke-miterlimit="10" d="M 1.015625 401.601557 L 2080.039032 401.601557 " transform="matrix(0.2, 0, 0, -0.2, 0, 376)"/>
<path fill="none" stroke-width="11.9553" stroke-linecap="butt" stroke-linejoin="miter" stroke="rgb(0%, 0%, 0%)" stroke-opacity="1" stroke-miterlimit="10" d="M 594.999991 305.585933 L 594.999991 1841.601535 " transform="matrix(0.2, 0, 0, -0.2, 0, 376)"/>
<path fill-rule="nonzero" fill="rgb(0%, 0%, 0%)" fill-opacity="1" d="M 173.601562 368.238281 C 174.789062 367.832031 176.789062 367.238281 176.789062 365.300781 C 176.789062 362.988281 174.070312 361.925781 172.101562 361.925781 C 171.164062 361.925781 170.195312 362.144531 169.351562 362.644531 C 169.226562 362.707031 169.070312 362.894531 168.914062 362.894531 C 168.601562 362.894531 168.039062 361.925781 167.726562 361.925781 C 167.539062 361.925781 167.507812 362.144531 167.507812 362.238281 L 167.507812 365.800781 C 167.507812 365.925781 167.601562 366.082031 167.789062 366.082031 C 168.101562 366.082031 168.070312 365.457031 168.164062 365.113281 C 168.632812 363.394531 170.195312 362.644531 171.695312 362.550781 L 172.101562 362.550781 C 173.445312 362.550781 175.007812 363.425781 175.007812 365.300781 C 175.007812 367.113281 173.226562 368.050781 171.570312 368.050781 C 171.257812 368.050781 170.945312 368.050781 170.632812 368.050781 L 170.476562 368.050781 C 170.289062 368.050781 170.070312 368.050781 170.070312 368.269531 L 170.070312 368.300781 C 170.101562 368.488281 170.289062 368.519531 170.476562 368.519531 L 172.320312 368.519531 C 173.882812 368.644531 175.320312 369.675781 175.476562 371.300781 L 175.476562 371.519531 C 175.476562 373.363281 173.757812 374.519531 172.007812 374.519531 C 170.101562 374.519531 168.132812 373.894531 167.820312 371.519531 C 167.820312 371.363281 167.757812 371.175781 167.539062 371.175781 C 167.320312 371.207031 167.289062 371.363281 167.289062 371.519531 C 167.289062 374.113281 169.882812 375.144531 172.132812 375.144531 C 174.195312 375.144531 177.070312 374.175781 177.320312 371.707031 L 177.320312 371.582031 C 177.320312 369.613281 175.257812 368.644531 173.601562 368.238281 Z M 173.601562 368.238281 "/>
<path fill-rule="nonzero" fill="rgb(0%, 0%, 0%)" fill-opacity="1" d="M 185.695312 361.925781 C 182.320312 362.332031 179.632812 364.988281 179.632812 368.582031 C 179.632812 371.863281 182.226562 375.113281 186.101562 375.113281 C 189.601562 375.113281 192.570312 372.207031 192.570312 368.582031 C 192.570312 365.394531 190.070312 361.925781 186.132812 361.925781 C 186.007812 361.925781 185.851562 361.925781 185.695312 361.925781 Z M 181.507812 368.800781 L 181.507812 368.457031 C 181.507812 365.957031 182.414062 363.019531 185.570312 362.488281 C 185.757812 362.457031 185.914062 362.457031 186.101562 362.457031 C 188.914062 362.457031 190.664062 365.175781 190.664062 368.207031 C 190.664062 370.613281 189.945312 373.675781 186.976562 374.457031 C 186.695312 374.519531 186.414062 374.550781 186.132812 374.550781 L 185.945312 374.550781 C 183.351562 374.457031 181.945312 371.988281 181.601562 369.582031 Z M 181.507812 368.800781 "/>
<path fill-rule="nonzero" fill="rgb(0%, 0%, 0%)" fill-opacity="1" d="M 195.027344 362.269531 L 195.027344 362.863281 L 195.464844 362.863281 C 196.058594 362.863281 196.683594 362.957031 196.683594 363.832031 L 196.683594 373.300781 C 196.683594 374.144531 195.964844 374.175781 195.308594 374.175781 L 195.027344 374.175781 L 195.027344 374.769531 L 200.808594 374.769531 C 201.214844 374.769531 201.589844 374.800781 201.996094 374.800781 C 203.996094 374.800781 206.339844 373.863281 206.558594 371.457031 L 206.558594 371.269531 C 206.558594 368.738281 203.683594 367.707031 201.777344 367.707031 C 200.527344 367.707031 199.339844 367.832031 198.152344 367.925781 L 198.152344 363.707031 C 198.152344 363.269531 198.214844 362.863281 198.996094 362.863281 L 201.308594 362.863281 C 202.277344 362.863281 203.371094 362.925781 204.089844 363.644531 C 204.777344 364.363281 204.871094 365.582031 204.964844 366.519531 L 205.496094 366.519531 L 205.027344 362.269531 Z M 198.152344 368.550781 C 198.402344 368.550781 198.652344 368.488281 198.902344 368.457031 L 200.277344 368.394531 C 200.558594 368.363281 200.839844 368.332031 201.152344 368.332031 C 202.714844 368.332031 204.683594 369.332031 204.683594 371.175781 C 204.683594 372.925781 203.339844 374.207031 201.339844 374.207031 C 201.058594 374.207031 200.746094 374.175781 200.496094 374.175781 L 198.964844 374.175781 C 198.496094 374.175781 198.246094 374.144531 198.152344 373.519531 Z M 198.152344 368.550781 "/>
<path fill-rule="nonzero" fill="rgb(0%, 0%, 0%)" fill-opacity="1" d="M 208.90625 362.269531 L 208.90625 362.863281 L 209.375 362.863281 C 209.96875 362.863281 210.5625 362.957031 210.5625 363.832031 L 210.5625 373.300781 C 210.5625 374.144531 209.875 374.175781 209.1875 374.175781 L 208.90625 374.175781 L 208.90625 374.769531 L 213.8125 374.769531 L 213.8125 374.175781 L 213.375 374.175781 C 212.75 374.175781 212.15625 374.113281 212.15625 373.238281 L 212.15625 369.050781 L 215.875 369.050781 C 217.65625 368.925781 219.9375 367.738281 219.9375 365.707031 C 219.9375 363.488281 217.59375 362.425781 215.6875 362.269531 Z M 212.125 368.519531 L 212.125 363.519531 C 212.21875 362.925781 212.46875 362.863281 212.875 362.863281 L 214.3125 362.863281 C 215.9375 362.863281 218.0625 362.925781 218.0625 365.707031 C 218.0625 366.363281 217.96875 367.050781 217.5625 367.550781 C 216.90625 368.332031 215.8125 368.519531 214.84375 368.519531 Z M 212.125 368.519531 "/>
<path fill-rule="nonzero" fill="rgb(0%, 0%, 0%)" fill-opacity="1" d="M 224.636719 372.488281 C 224.136719 372.582031 223.636719 373.019531 223.636719 373.613281 C 223.636719 374.238281 224.167969 374.769531 224.792969 374.769531 C 225.417969 374.769531 225.980469 374.300781 225.980469 373.644531 C 225.980469 373.019531 225.449219 372.457031 224.824219 372.457031 C 224.761719 372.457031 224.699219 372.488281 224.636719 372.488281 Z M 224.636719 372.488281 "/>
<path fill-rule="nonzero" fill="rgb(0%, 0%, 0%)" fill-opacity="1" d="M 239.410156 371.832031 C 239.503906 371.863281 239.660156 371.894531 239.816406 371.894531 C 240.472656 371.894531 240.847656 371.394531 240.847656 370.800781 C 240.847656 370.207031 240.378906 369.769531 239.816406 369.769531 C 239.222656 369.769531 238.722656 370.207031 238.722656 370.894531 C 238.722656 373.207031 240.628906 375.269531 243.191406 375.269531 C 246.097656 375.269531 248.472656 372.925781 248.472656 369.957031 C 248.472656 367.582031 247.128906 365.519531 244.722656 364.832031 C 244.472656 364.769531 244.191406 364.769531 243.910156 364.769531 C 242.660156 364.769531 241.535156 365.175781 240.660156 366.082031 L 240.660156 361.082031 C 241.410156 361.207031 242.097656 361.425781 242.878906 361.425781 C 244.472656 361.425781 246.066406 360.832031 247.253906 359.550781 C 247.378906 359.394531 247.535156 359.300781 247.535156 359.113281 L 247.535156 359.082031 C 247.503906 358.957031 247.410156 358.894531 247.316406 358.894531 C 247.253906 358.894531 247.253906 358.894531 247.191406 358.925781 C 246.035156 359.332031 245.035156 359.644531 243.816406 359.644531 C 242.753906 359.644531 241.628906 359.488281 240.660156 359.050781 C 240.535156 358.988281 240.441406 358.925781 240.285156 358.894531 L 240.222656 358.894531 C 240.128906 358.894531 240.035156 358.988281 240.035156 359.113281 L 240.035156 366.707031 C 240.035156 366.925781 240.066406 367.113281 240.316406 367.113281 C 240.597656 367.113281 240.753906 366.675781 240.941406 366.488281 C 241.691406 365.707031 242.691406 365.269531 243.785156 365.238281 C 244.941406 365.238281 245.660156 366.019531 246.097656 366.957031 C 246.535156 367.894531 246.535156 369.050781 246.535156 370.082031 C 246.535156 371.738281 246.191406 373.488281 244.472656 374.332031 C 244.035156 374.550781 243.566406 374.644531 243.128906 374.644531 C 241.410156 374.644531 239.910156 373.457031 239.410156 371.832031 Z M 239.410156 371.832031 "/>
<path fill-rule="nonzero" fill="rgb(0%, 0%, 0%)" fill-opacity="1" d="M 252.121094 371.832031 C 252.214844 371.863281 252.371094 371.894531 252.527344 371.894531 C 253.183594 371.894531 253.558594 371.394531 253.558594 370.800781 C 253.558594 370.207031 253.089844 369.769531 252.527344 369.769531 C 251.933594 369.769531 251.433594 370.207031 251.433594 370.894531 C 251.433594 373.207031 253.339844 375.269531 255.902344 375.269531 C 258.808594 375.269531 261.183594 372.925781 261.183594 369.957031 C 261.183594 367.582031 259.839844 365.519531 257.433594 364.832031 C 257.183594 364.769531 256.902344 364.769531 256.621094 364.769531 C 255.371094 364.769531 254.246094 365.175781 253.371094 366.082031 L 253.371094 361.082031 C 254.121094 361.207031 254.808594 361.425781 255.589844 361.425781 C 257.183594 361.425781 258.777344 360.832031 259.964844 359.550781 C 260.089844 359.394531 260.246094 359.300781 260.246094 359.113281 L 260.246094 359.082031 C 260.214844 358.957031 260.121094 358.894531 260.027344 358.894531 C 259.964844 358.894531 259.964844 358.894531 259.902344 358.925781 C 258.746094 359.332031 257.746094 359.644531 256.527344 359.644531 C 255.464844 359.644531 254.339844 359.488281 253.371094 359.050781 C 253.246094 358.988281 253.152344 358.925781 252.996094 358.894531 L 252.933594 358.894531 C 252.839844 358.894531 252.746094 358.988281 252.746094 359.113281 L 252.746094 366.707031 C 252.746094 366.925781 252.777344 367.113281 253.027344 367.113281 C 253.308594 367.113281 253.464844 366.675781 253.652344 366.488281 C 254.402344 365.707031 255.402344 365.269531 256.496094 365.238281 C 257.652344 365.238281 258.371094 366.019531 258.808594 366.957031 C 259.246094 367.894531 259.246094 369.050781 259.246094 370.082031 C 259.246094 371.738281 258.902344 373.488281 257.183594 374.332031 C 256.746094 374.550781 256.277344 374.644531 255.839844 374.644531 C 254.121094 374.644531 252.621094 373.457031 252.121094 371.832031 Z M 252.121094 371.832031 "/>
<path fill-rule="nonzero" fill="rgb(0%, 0%, 0%)" fill-opacity="1" d="M 266.144531 372.488281 C 265.644531 372.582031 265.144531 373.019531 265.144531 373.613281 C 265.144531 374.238281 265.675781 374.769531 266.300781 374.769531 C 266.925781 374.769531 267.488281 374.300781 267.488281 373.644531 C 267.488281 373.019531 266.957031 372.457031 266.332031 372.457031 C 266.269531 372.457031 266.207031 372.488281 266.144531 372.488281 Z M 266.144531 372.488281 "/>
</svg>
