<?xml version="1.0" encoding="UTF-8"?>
<svg xmlns="http://www.w3.org/2000/svg" xmlns:xlink="http://www.w3.org/1999/xlink" width="360" height="316" viewBox="0 0 360 316">
<path fill="none" stroke-width="11.9553" stroke-linecap="butt" stroke-linejoin="miter" stroke="rgb(0%, 0%, 0%)" stroke-opacity="1" stroke-miterlimit="10" d="M 447.226556 1561.601539 L 448.437493 1553.359352 L 483.86718 1377.070292 L 519.296867 1244.335919 L 554.765617 1141.406233 L 590.195304 1059.726547 L 625.624991 993.593735 L 661.054678 939.179674 L 696.523427 893.789049 L 731.953114 855.429675 L 767.382801 822.656238 L 802.812488 794.414051 L 838.281238 769.843739 L 873.710924 748.359364 L 909.140611 729.414052 L 944.570298 712.578114 L 979.999985 697.617177 L 1015.468735 684.179677 L 1050.898422 672.070302 L 1086.328109 661.132803 L 1121.757796 651.171865 L 1157.187483 642.148428 L 1192.61717 633.867178 L 1228.085919 626.289053 L 1263.515606 619.296866 L 1298.945293 612.890616 L 1334.37498 606.914053 L 1369.84373 601.406241 L 1405.273417 596.289054 L 1440.703104 591.523429 L 1476.132791 587.109366 L 1511.562477 582.929679 L 1547.031227 579.062491 L 1582.460914 575.390616 L 1617.890601 571.992179 L 1653.35935 568.749992 L 1688.789037 565.742179 " transform="matrix(0.2, 0, 0, -0.2, 0, 316)"/>
<path fill="none" stroke-width="11.9553" stroke-linecap="butt" stroke-linejoin="miter" stroke="rgb(0%, 0%, 0%)" stroke-opacity="1" stroke-miterlimit="10" d="M 493.984368 481.601555 L 493.984368 1335.429668 " transform="matrix(0.2, 0, 0, -0.2, 0, 316)"/>
<path fill="none" stroke-width="11.9553" stroke-linecap="butt" stroke-linejoin="miter" stroke="rgb(0%, 0%, 0%)" stroke-opacity="1" stroke-miterlimit="10" d="M 580.078116 481.601555 L 580.078116 1081.289046 " transform="matrix(0.2, 0, 0, -0.2, 0, 316)"/>
<path fill="none" stroke-width="11.9553" stroke-linecap="butt" stroke-linejoin="miter" stroke="rgb(0%, 0%, 0%)" stroke-opacity="1" stroke-miterlimit="10" d="M 666.132803 481.601555 L 666.132803 932.226549 " transform="matrix(0.2, 0, 0, -0.2, 0, 316)"/>
<path fill="none" stroke-width="11.9553" stroke-linecap="butt" stroke-linejoin="miter" stroke="rgb(0%, 0%, 0%)" stroke-opacity="1" stroke-miterlimit="10" d="M 752.187489 481.601555 L 752.187489 836.093738 " transform="matrix(0.2, 0, 0, -0.2, 0, 316)"/>
<path fill="none" stroke-width="11.9553" stroke-linecap="butt" stroke-linejoin="miter" stroke="rgb(0%, 0%, 0%)" stroke-opacity="1" stroke-miterlimit="10" d="M 838.281238 481.601555 L 838.281238 769.843739 " transform="matrix(0.2, 0, 0, -0.2, 0, 316)"/>
<path fill="none" stroke-width="11.9553" stroke-linecap="butt" stroke-linejoin="miter" stroke="rgb(0%, 0%, 0%)" stroke-opacity="1" stroke-miterlimit="10" d="M 924.335924 481.601555 L 924.335924 721.953114 " transform="matrix(0.2, 0, 0, -0.2, 0, 316)"/>
<path fill="none" stroke-width="11.9553" stroke-linecap="butt" stroke-linejoin="miter" stroke="rgb(0%, 0%, 0%)" stroke-opacity="1" stroke-miterlimit="10" d="M 1010.39061 481.601555 L 1010.39061 686.015615 " transform="matrix(0.2, 0, 0, -0.2, 0, 316)"/>
<path fill="none" stroke-width="11.9553" stroke-linecap="butt" stroke-linejoin="miter" stroke="rgb(0%, 0%, 0%)" stroke-opacity="1" stroke-miterlimit="10" d="M 1096.445296 481.601555 L 1096.445296 658.203115 " transform="matrix(0.2, 0, 0, -0.2, 0, 316)"/>
<path fill="none" stroke-width="11.9553" stroke-linecap="butt" stroke-linejoin="miter" stroke="rgb(0%, 0%, 0%)" stroke-opacity="1" stroke-miterlimit="10" d="M 1182.499982 481.601555 L 1182.499982 636.171866 " transform="matrix(0.2, 0, 0, -0.2, 0, 316)"/>
<path fill="none" stroke-width="7.9701" stroke-linecap="butt" stroke-linejoin="miter" stroke="rgb(0%, 0%, 0%)" stroke-opacity="1" stroke-miterlimit="10" d="M 169.999997 351.992182 L 169.999997 368.20312 " transform="matrix(0.2, 0, 0, -0.2, 0, 316)"/>
<path fill="none" stroke-width="7.9701" stroke-linecap="butt" stroke-linejoin="miter" stroke="rgb(0%, 0%, 0%)" stroke-opacity="1" stroke-miterlimit="10" d="M 169.999997 400.585932 L 169.999997 416.796869 " transform="matrix(0.2, 0, 0, -0.2, 0, 316)"/>
<path fill="none" stroke-width="7.9701" stroke-linecap="butt" stroke-linejoin="miter" stroke="rgb(0%, 0%, 0%)" stroke-opacity="1" stroke-miterlimit="10" d="M 169.999997 416.796869 L 169.999997 433.007806 " transform="matrix(0.2, 0, 0, -0.2, 0, 316)"/>
<path fill="none" stroke-width="7.9701" stroke-linecap="butt" stroke-linejoin="miter" stroke="rgb(0%, 0%, 0%)" stroke-opacity="1" stroke-miterlimit="10" d="M 169.999997 465.390618 L 169.999997 481.601555 " transform="matrix(0.2, 0, 0, -0.2, 0, 316)"/>
<path fill="none" stroke-width="7.9701" stroke-linecap="butt" stroke-linejoin="miter" stroke="rgb(0%, 0%, 0%)" stroke-opacity="1" stroke-miterlimit="10" d="M 1182.499982 351.992182 L 1182.499982 368.20312 " transform="matrix(0.2, 0, 0, -0.2, 0, 316)"/>
<path fill="none" stroke-width="7.9701" stroke-linecap="butt" stroke-linejoin="miter" stroke="rgb(0%, 0%, 0%)" stroke-opacity="1" stroke-miterlimit="10" d="M 1182.499982 400.585932 L 1182.499982 416.796869 " transform="matrix(0.2, 0, 0, -0.2, 0, 316)"/>
<path fill="none" stroke-width="7.9701" stroke-linecap="butt" stroke-linejoin="miter" stroke="rgb(0%, 0%, 0%)" stroke-opacity="1" stroke-miterlimit="10" d="M 1182.499982 416.796869 L 1182.499982 433.007806 " transform="matrix(0.2, 0, 0, -0.2, 0, 316)"/>
<path fill="none" stroke-width="7.9701" stroke-linecap="butt" stroke-linejoin="miter" stroke="rgb(0%, 0%, 0%)" stroke-opacity="1" stroke-miterlimit="10" d="M 1182.499982 465.390618 L 1182.499982 481.601555 " transform="matrix(0.2, 0, 0, -0.2, 0, 316)"/>
<path fill-rule="nonzero" fill="rgb(100%, 100%, 100%)" fill-opacity="1" d="M 50.054688 231.695312 L 82.9375 231.695312 L 82.9375 257.132812 L 50.054688 257.132812 Z M 50.054688 231.695312 "/>
<path fill-rule="nonzero" fill="rgb(0%, 0%, 0%)" fill-opacity="1" d="M 66.300781 238.902344 C 66.300781 237.746094 65.738281 237.371094 65.332031 237.371094 C 64.800781 237.371094 64.269531 237.964844 64.269531 238.433594 C 64.269531 238.714844 64.363281 238.839844 64.613281 239.089844 C 65.082031 239.527344 65.363281 240.089844 65.363281 240.871094 C 65.363281 241.777344 64.019531 246.777344 61.457031 246.777344 C 60.363281 246.777344 59.863281 246.027344 59.863281 244.902344 C 59.863281 243.683594 60.457031 242.089844 61.113281 240.277344 C 61.269531 239.902344 61.394531 239.589844 61.394531 239.183594 C 61.394531 238.183594 60.675781 237.371094 59.582031 237.371094 C 57.550781 237.371094 56.707031 240.558594 56.707031 240.746094 C 56.707031 240.964844 56.925781 240.964844 56.988281 240.964844 C 57.207031 240.964844 57.207031 240.933594 57.332031 240.558594 C 57.957031 238.371094 58.894531 237.871094 59.519531 237.871094 C 59.707031 237.871094 60.082031 237.871094 60.082031 238.558594 C 60.082031 239.121094 59.863281 239.683594 59.707031 240.089844 C 58.738281 242.621094 58.457031 243.621094 58.457031 244.558594 C 58.457031 246.933594 60.394531 247.277344 61.394531 247.277344 C 65.050781 247.277344 66.300781 240.058594 66.300781 238.902344 Z M 66.300781 238.902344 "/>
<path fill-rule="nonzero" fill="rgb(0%, 0%, 0%)" fill-opacity="1" d="M 72.078125 239.640625 C 72.078125 239.203125 72.078125 239.171875 71.640625 239.171875 C 70.515625 240.296875 68.859375 240.296875 68.296875 240.296875 L 68.296875 240.859375 C 68.640625 240.859375 69.734375 240.859375 70.703125 240.390625 L 70.703125 249.671875 C 70.703125 250.328125 70.671875 250.546875 68.984375 250.546875 L 68.421875 250.546875 L 68.421875 251.109375 C 69.046875 251.046875 70.671875 251.046875 71.390625 251.046875 C 72.140625 251.046875 73.734375 251.046875 74.390625 251.109375 L 74.390625 250.546875 L 73.828125 250.546875 C 72.140625 250.546875 72.078125 250.328125 72.078125 249.671875 Z M 72.078125 239.640625 "/>
<path fill-rule="nonzero" fill="rgb(0%, 0%, 0%)" fill-opacity="1" d="M 35.929688 223.796875 L 36.03125 224 L 36.132812 224.195312 L 36.242188 224.375 L 36.359375 224.554688 L 36.476562 224.71875 L 36.609375 224.882812 L 36.742188 225.039062 L 36.875 225.1875 L 37.015625 225.320312 L 37.164062 225.453125 L 37.3125 225.578125 L 37.46875 225.695312 L 37.632812 225.8125 L 37.796875 225.914062 L 38.140625 226.101562 L 38.320312 226.1875 L 38.695312 226.34375 L 38.882812 226.414062 L 39.078125 226.46875 L 39.28125 226.53125 L 39.484375 226.585938 L 39.695312 226.632812 L 40.117188 226.710938 L 40.335938 226.742188 L 40.789062 226.804688 L 41.015625 226.820312 L 41.484375 226.851562 L 42.210938 226.875 L 42.710938 226.875 L 43.226562 226.859375 L 43.484375 226.84375 L 43.75 226.835938 L 44.28125 226.804688 L 44.554688 226.789062 L 44.820312 226.765625 L 45.101562 226.742188 L 45.375 226.71875 L 46.21875 226.648438 L 46.5 226.617188 L 46.789062 226.59375 L 47.078125 226.5625 L 47.367188 226.539062 L 47.664062 226.507812 L 47.953125 226.476562 L 48.546875 226.429688 L 49.140625 226.367188 L 49.4375 226.34375 L 49.742188 226.320312 L 50.039062 226.296875 L 50.34375 226.273438 L 50.953125 226.242188 L 51.25 226.21875 L 51.5625 226.203125 L 52.171875 226.1875 L 52.476562 226.171875 L 52.78125 226.171875 L 53.09375 226.164062 L 53.398438 226.164062 L 53.703125 226.171875 L 54.015625 226.179688 L 54.625 226.195312 L 54.9375 226.21875 L 55.851562 226.289062 L 56.15625 226.320312 L 56.460938 226.367188 L 56.765625 226.40625 L 57.070312 226.453125 L 57.375 226.507812 L 57.671875 226.5625 L 57.976562 226.625 L 58.570312 226.765625 L 58.867188 226.84375 L 59.164062 226.929688 L 59.460938 227.023438 L 59.75 227.117188 L 60.046875 227.226562 L 60.335938 227.335938 L 60.625 227.453125 L 60.914062 227.578125 L 61.195312 227.703125 L 61.476562 227.84375 L 62.039062 228.140625 L 62.585938 228.46875 L 63.132812 228.828125 L 63.398438 229.023438 L 63.664062 229.226562 L 63.929688 229.4375 L 64.1875 229.648438 L 64.703125 230.117188 L 64.953125 230.359375 L 65.203125 230.617188 L 65.445312 230.882812 L 65.6875 231.15625 L 65.929688 231.4375 L 66.164062 231.726562 L 66.398438 232.03125 L 66.632812 231.726562 L 66.867188 231.4375 L 67.109375 231.15625 L 67.351562 230.882812 L 67.601562 230.617188 L 67.84375 230.359375 L 68.101562 230.117188 L 68.351562 229.882812 L 68.609375 229.648438 L 68.875 229.4375 L 69.132812 229.226562 L 69.398438 229.023438 L 69.671875 228.828125 L 69.9375 228.648438 L 70.210938 228.46875 L 70.484375 228.304688 L 70.765625 228.140625 L 71.039062 227.992188 L 71.320312 227.84375 L 71.609375 227.703125 L 71.890625 227.578125 L 72.179688 227.453125 L 72.46875 227.335938 L 73.046875 227.117188 L 73.640625 226.929688 L 73.929688 226.84375 L 74.226562 226.765625 L 74.523438 226.695312 L 74.828125 226.625 L 75.125 226.5625 L 75.734375 226.453125 L 76.03125 226.40625 L 76.335938 226.367188 L 76.640625 226.320312 L 76.945312 226.289062 L 77.257812 226.265625 L 78.171875 226.195312 L 78.476562 226.1875 L 78.789062 226.179688 L 79.09375 226.171875 L 79.40625 226.164062 L 79.710938 226.164062 L 80.015625 226.171875 L 80.320312 226.171875 L 80.632812 226.1875 L 81.242188 226.203125 L 81.546875 226.21875 L 81.851562 226.242188 L 82.460938 226.273438 L 82.757812 226.296875 L 83.0625 226.320312 L 83.359375 226.34375 L 83.664062 226.367188 L 84.257812 226.429688 L 84.554688 226.453125 L 84.84375 226.476562 L 85.140625 226.507812 L 85.429688 226.539062 L 85.71875 226.5625 L 86.007812 226.59375 L 86.296875 226.617188 L 86.578125 226.648438 L 86.867188 226.671875 L 87.148438 226.695312 L 87.421875 226.71875 L 87.703125 226.742188 L 88.25 226.789062 L 88.523438 226.804688 L 89.054688 226.835938 L 89.3125 226.84375 L 89.570312 226.859375 L 90.085938 226.875 L 90.585938 226.875 L 90.835938 226.867188 L 91.078125 226.859375 L 91.3125 226.851562 L 91.554688 226.835938 L 91.78125 226.820312 L 92.015625 226.804688 L 92.242188 226.773438 L 92.679688 226.710938 L 92.898438 226.671875 L 93.109375 226.632812 L 93.3125 226.585938 L 93.523438 226.53125 L 93.71875 226.46875 L 93.914062 226.414062 L 94.109375 226.34375 L 94.296875 226.265625 L 94.476562 226.1875 L 94.65625 226.101562 L 95 225.914062 L 95.171875 225.8125 L 95.484375 225.578125 L 95.632812 225.453125 L 95.78125 225.320312 L 95.921875 225.1875 L 96.0625 225.039062 L 96.195312 224.882812 L 96.320312 224.71875 L 96.4375 224.554688 L 96.554688 224.375 L 96.664062 224.195312 L 96.773438 224 L 96.867188 223.796875 L 96.742188 224.0625 L 96.609375 224.3125 L 96.476562 224.554688 L 96.335938 224.789062 L 96.1875 225.007812 L 96.039062 225.21875 L 95.882812 225.421875 L 95.726562 225.617188 L 95.5625 225.796875 L 95.398438 225.96875 L 95.226562 226.140625 L 95.046875 226.296875 L 94.867188 226.445312 L 94.6875 226.585938 L 94.5 226.71875 L 94.3125 226.84375 L 94.117188 226.960938 L 93.921875 227.070312 L 93.71875 227.171875 L 93.515625 227.265625 L 93.09375 227.4375 L 92.882812 227.507812 L 92.664062 227.578125 L 92.445312 227.640625 L 92.21875 227.6875 L 91.992188 227.742188 L 91.765625 227.78125 L 91.53125 227.820312 L 91.296875 227.851562 L 91.054688 227.882812 L 90.8125 227.90625 L 90.328125 227.9375 L 90.078125 227.945312 L 89.320312 227.945312 L 89.0625 227.9375 L 88.796875 227.921875 L 88.539062 227.90625 L 88.273438 227.890625 L 88.007812 227.867188 L 87.734375 227.84375 L 87.46875 227.820312 L 86.648438 227.726562 L 84.960938 227.492188 L 84.382812 227.398438 L 84.101562 227.359375 L 83.8125 227.3125 L 83.515625 227.265625 L 83.226562 227.21875 L 82.9375 227.179688 L 82.640625 227.132812 L 82.351562 227.085938 L 82.054688 227.046875 L 81.757812 227 L 81.460938 226.960938 L 81.171875 226.921875 L 80.578125 226.84375 L 80.28125 226.8125 L 79.976562 226.78125 L 79.6875 226.75 L 79.382812 226.71875 L 78.789062 226.671875 L 78.492188 226.65625 L 78.195312 226.632812 L 77.898438 226.617188 L 77.304688 226.601562 L 76.710938 226.601562 L 76.117188 226.617188 L 75.828125 226.632812 L 75.53125 226.65625 L 75.242188 226.679688 L 74.945312 226.703125 L 74.367188 226.78125 L 74.070312 226.828125 L 73.789062 226.875 L 73.210938 227 L 72.929688 227.070312 L 72.648438 227.148438 L 72.359375 227.226562 L 72.085938 227.320312 L 71.804688 227.414062 L 71.523438 227.523438 L 71.25 227.632812 L 70.976562 227.75 L 70.703125 227.882812 L 70.4375 228.015625 L 70.164062 228.15625 L 69.632812 228.46875 L 69.367188 228.640625 L 69.109375 228.820312 L 68.851562 229.007812 L 68.59375 229.203125 L 68.34375 229.40625 L 68.085938 229.625 L 67.84375 229.851562 L 67.59375 230.085938 L 67.351562 230.328125 L 67.109375 230.585938 L 66.867188 230.851562 L 66.632812 231.125 L 66.398438 231.414062 L 66.171875 231.125 L 65.929688 230.851562 L 65.695312 230.585938 L 65.453125 230.328125 L 65.210938 230.085938 L 64.960938 229.851562 L 64.710938 229.625 L 64.460938 229.40625 L 64.203125 229.203125 L 63.953125 229.007812 L 63.695312 228.820312 L 63.429688 228.640625 L 63.171875 228.46875 L 62.640625 228.15625 L 62.367188 228.015625 L 61.820312 227.75 L 61.546875 227.632812 L 61 227.414062 L 60.4375 227.226562 L 60.15625 227.148438 L 59.867188 227.070312 L 59.585938 227 L 59.304688 226.9375 L 59.015625 226.875 L 58.4375 226.78125 L 58.148438 226.742188 L 57.851562 226.703125 L 57.273438 226.65625 L 56.976562 226.632812 L 56.679688 226.617188 L 56.382812 226.609375 L 56.09375 226.601562 L 55.5 226.601562 L 54.90625 226.617188 L 54.609375 226.632812 L 54.3125 226.65625 L 54.007812 226.671875 L 53.414062 226.71875 L 52.226562 226.84375 L 51.039062 227 L 50.742188 227.046875 L 50.453125 227.085938 L 50.15625 227.132812 L 49.867188 227.179688 L 49.570312 227.21875 L 48.703125 227.359375 L 48.414062 227.398438 L 48.125 227.445312 L 47.84375 227.492188 L 47.554688 227.53125 L 46.429688 227.6875 L 46.15625 227.726562 L 45.335938 227.820312 L 45.0625 227.84375 L 44.53125 227.890625 L 44 227.921875 L 43.742188 227.9375 L 43.484375 227.945312 L 42.726562 227.945312 L 42.476562 227.9375 L 42.226562 227.921875 L 41.984375 227.90625 L 41.742188 227.882812 L 41.273438 227.820312 L 40.804688 227.742188 L 40.578125 227.6875 L 40.359375 227.640625 L 40.140625 227.578125 L 39.703125 227.4375 L 39.492188 227.351562 L 39.289062 227.265625 L 39.078125 227.171875 L 38.882812 227.070312 L 38.6875 226.960938 L 38.492188 226.84375 L 38.296875 226.71875 L 38.109375 226.585938 L 37.929688 226.445312 L 37.75 226.296875 L 37.578125 226.140625 L 37.40625 225.96875 L 37.242188 225.796875 L 37.078125 225.617188 L 36.921875 225.421875 L 36.765625 225.21875 L 36.617188 225.007812 L 36.46875 224.789062 L 36.328125 224.554688 L 36.1875 224.3125 L 35.929688 223.796875 "/>
<path fill="none" stroke-width="3.985" stroke-linecap="butt" stroke-linejoin="miter" stroke="rgb(0%, 0%, 0%)" stroke-opacity="1" stroke-miterlimit="10" d="M 179.648435 461.015618 L 180.156247 459.999993 L 180.66406 459.023431 L 181.210935 458.124993 L 181.796872 457.226556 L 182.38281 456.406243 L 183.046872 455.585931 L 183.710935 454.804681 L 184.374997 454.062493 L 185.078122 453.398431 L 185.82031 452.734368 L 186.562497 452.109368 L 187.343747 451.523431 L 188.16406 450.937493 L 188.984372 450.429681 L 190.703122 449.492181 L 191.60156 449.062493 L 193.47656 448.281243 L 194.41406 447.929681 L 195.390622 447.656243 L 196.406247 447.343743 L 197.421872 447.070306 L 198.47656 446.835931 L 200.585935 446.445306 L 201.679684 446.289056 L 203.945309 445.976556 L 205.078122 445.898431 L 207.421872 445.742181 L 211.054684 445.624993 L 213.554684 445.624993 L 216.132809 445.703118 L 217.421872 445.781243 L 218.749997 445.820306 L 221.406247 445.976556 L 222.773434 446.054681 L 224.101559 446.171868 L 225.507809 446.289056 L 226.874997 446.406243 L 231.093747 446.757806 L 232.499997 446.914056 L 233.945309 447.031243 L 235.390621 447.187493 L 236.835934 447.304681 L 238.320309 447.460931 L 239.765621 447.617181 L 242.734371 447.851556 L 245.703121 448.164056 L 247.187496 448.281243 L 248.710934 448.398431 L 250.195309 448.515618 L 251.718746 448.632806 L 254.765621 448.789056 L 256.249996 448.906243 L 257.812496 448.984368 L 260.859371 449.062493 L 262.382809 449.140618 L 263.906246 449.140618 L 265.468746 449.179681 L 266.992184 449.179681 L 268.515621 449.140618 L 270.078121 449.101556 L 273.124996 449.023431 L 274.687496 448.906243 L 279.257808 448.554681 L 280.781246 448.398431 L 282.304683 448.164056 L 283.828121 447.968743 L 285.351558 447.734368 L 286.874996 447.460931 L 288.359371 447.187493 L 289.882808 446.874993 L 292.851558 446.171868 L 294.335933 445.781243 L 295.820308 445.351556 L 297.304683 444.882806 L 298.749996 444.414056 L 300.234371 443.867181 L 301.679683 443.320306 L 303.124995 442.734368 L 304.570308 442.109368 L 305.976558 441.484368 L 307.382808 440.781243 L 310.195308 439.296868 L 312.929683 437.656243 L 315.664058 435.859369 L 316.992183 434.882806 L 318.320308 433.867181 L 319.648433 432.812494 L 320.937495 431.757806 L 323.51562 429.414056 L 324.76562 428.203119 L 326.01562 426.914056 L 327.226558 425.585931 L 328.437495 424.218744 L 329.648433 422.812494 L 330.820308 421.367181 L 331.992183 419.843744 L 333.164058 421.367181 L 334.335933 422.812494 L 335.54687 424.218744 L 336.757807 425.585931 L 338.007807 426.914056 L 339.218745 428.203119 L 340.507807 429.414056 L 341.757807 430.585931 L 343.04687 431.757806 L 344.374995 432.812494 L 345.664057 433.867181 L 346.992182 434.882806 L 348.35937 435.859369 L 349.687495 436.757806 L 351.054682 437.656243 L 352.42187 438.476556 L 353.82812 439.296868 L 355.195307 440.039056 L 356.601557 440.781243 L 358.04687 441.484368 L 359.45312 442.109368 L 360.898432 442.734368 L 362.343745 443.320306 L 365.23437 444.414056 L 368.20312 445.351556 L 369.648432 445.781243 L 371.132807 446.171868 L 372.617182 446.523431 L 374.140619 446.874993 L 375.624994 447.187493 L 378.671869 447.734368 L 380.156244 447.968743 L 381.679682 448.164056 L 383.203119 448.398431 L 384.726557 448.554681 L 386.289057 448.671868 L 390.859369 449.023431 L 392.382807 449.062493 L 393.945307 449.101556 L 395.468744 449.140618 L 397.031244 449.179681 L 398.554682 449.179681 L 400.078119 449.140618 L 401.601557 449.140618 L 403.164056 449.062493 L 406.210931 448.984368 L 407.734369 448.906243 L 409.257806 448.789056 L 412.304681 448.632806 L 413.789056 448.515618 L 415.312494 448.398431 L 416.796869 448.281243 L 418.320306 448.164056 L 421.289056 447.851556 L 422.773431 447.734368 L 424.218744 447.617181 L 425.703119 447.460931 L 427.148431 447.304681 L 428.593744 447.187493 L 430.039056 447.031243 L 431.484369 446.914056 L 432.890619 446.757806 L 434.335931 446.640618 L 435.742181 446.523431 L 437.109368 446.406243 L 438.515618 446.289056 L 441.249993 446.054681 L 442.617181 445.976556 L 445.273431 445.820306 L 446.562493 445.781243 L 447.851556 445.703118 L 450.429681 445.624993 L 452.929681 445.624993 L 454.179681 445.664056 L 455.390618 445.703118 L 456.562493 445.742181 L 457.773431 445.820306 L 458.906243 445.898431 L 460.078118 445.976556 L 461.210931 446.132806 L 463.398431 446.445306 L 464.492181 446.640618 L 465.546868 446.835931 L 466.562493 447.070306 L 467.617181 447.343743 L 468.593743 447.656243 L 469.570306 447.929681 L 470.546868 448.281243 L 471.484368 448.671868 L 472.382805 449.062493 L 473.281243 449.492181 L 474.999993 450.429681 L 475.859368 450.937493 L 477.421868 452.109368 L 478.164055 452.734368 L 478.906243 453.398431 L 479.609368 454.062493 L 480.312493 454.804681 L 480.976555 455.585931 L 481.601555 456.406243 L 482.187493 457.226556 L 482.77343 458.124993 L 483.320305 459.023431 L 483.86718 459.999993 L 484.33593 461.015618 L 483.71093 459.687493 L 483.046868 458.437493 L 482.382805 457.226556 L 481.67968 456.054681 L 480.937493 454.960931 L 480.195305 453.906243 L 479.414055 452.890618 L 478.632805 451.914056 L 477.812493 451.015618 L 476.99218 450.156243 L 476.132805 449.296868 L 475.234368 448.515618 L 474.33593 447.773431 L 473.437493 447.070306 L 472.499993 446.406243 L 471.562493 445.781243 L 470.58593 445.195306 L 469.609368 444.648431 L 468.593743 444.140618 L 467.578118 443.671868 L 465.468743 442.812493 L 464.414056 442.460931 L 463.320306 442.109368 L 462.226556 441.796868 L 461.093743 441.562493 L 459.960931 441.289056 L 458.828118 441.093743 L 457.656243 440.898431 L 456.484368 440.742181 L 455.273431 440.585931 L 454.062493 440.468743 L 451.640618 440.312493 L 450.390618 440.273431 L 446.601556 440.273431 L 445.312493 440.312493 L 443.984368 440.390618 L 442.695306 440.468743 L 441.367181 440.546868 L 440.039056 440.664056 L 438.671868 440.781243 L 437.343743 440.898431 L 433.242181 441.367181 L 424.804681 442.539056 L 421.914056 443.007806 L 420.507806 443.203118 L 419.062494 443.437493 L 417.578119 443.671868 L 416.132806 443.906243 L 414.687494 444.101556 L 413.203119 444.335931 L 411.757806 444.570306 L 410.273431 444.765618 L 408.789056 444.999993 L 407.304681 445.195306 L 405.859369 445.390618 L 402.890619 445.781243 L 401.406244 445.937493 L 399.882807 446.093743 L 398.437494 446.249993 L 396.914057 446.406243 L 393.945307 446.640618 L 392.460932 446.718743 L 390.976557 446.835931 L 389.492182 446.914056 L 386.523432 446.992181 L 383.554682 446.992181 L 380.585932 446.914056 L 379.140619 446.835931 L 377.656244 446.718743 L 376.210932 446.601556 L 374.726557 446.484368 L 371.835932 446.093743 L 370.351557 445.859368 L 368.945307 445.624993 L 366.054682 444.999993 L 364.648432 444.648431 L 363.242182 444.257806 L 361.79687 443.867181 L 360.429682 443.398431 L 359.023432 442.929681 L 357.617182 442.382806 L 356.249995 441.835931 L 354.882807 441.249993 L 353.51562 440.585931 L 352.187495 439.921868 L 350.820307 439.218743 L 348.164057 437.656243 L 346.835932 436.796868 L 345.54687 435.898431 L 344.257807 434.960931 L 342.968745 433.984369 L 341.718745 432.968744 L 340.429682 431.874994 L 339.218745 430.742181 L 337.968745 429.570306 L 336.757807 428.359369 L 335.54687 427.070306 L 334.335933 425.742181 L 333.164058 424.374994 L 331.992183 422.929681 L 330.85937 424.374994 L 329.648433 425.742181 L 328.476558 427.070306 L 327.26562 428.359369 L 326.054683 429.570306 L 324.804683 430.742181 L 323.554683 431.874994 L 322.304683 432.968744 L 321.01562 433.984369 L 319.76562 434.960931 L 318.476558 435.898431 L 317.148433 436.796868 L 315.85937 437.656243 L 313.20312 439.218743 L 311.835933 439.921868 L 309.101558 441.249993 L 307.73437 441.835931 L 304.999995 442.929681 L 302.187495 443.867181 L 300.781246 444.257806 L 299.335933 444.648431 L 297.929683 444.999993 L 296.523433 445.312493 L 295.078121 445.624993 L 292.187496 446.093743 L 290.742183 446.289056 L 289.257808 446.484368 L 286.367183 446.718743 L 284.882808 446.835931 L 283.398433 446.914056 L 281.914058 446.953118 L 280.468746 446.992181 L 277.499996 446.992181 L 274.531246 446.914056 L 273.046871 446.835931 L 271.562496 446.718743 L 270.039058 446.640618 L 267.070309 446.406243 L 261.132809 445.781243 L 255.195309 444.999993 L 253.710934 444.765618 L 252.265621 444.570306 L 250.781246 444.335931 L 249.335934 444.101556 L 247.851559 443.906243 L 243.515621 443.203118 L 242.070309 443.007806 L 240.624996 442.773431 L 239.218746 442.539056 L 237.773434 442.343743 L 232.148434 441.562493 L 230.781247 441.367181 L 226.679684 440.898431 L 225.312497 440.781243 L 222.656247 440.546868 L 219.999997 440.390618 L 218.710934 440.312493 L 217.421872 440.273431 L 213.632809 440.273431 L 212.382809 440.312493 L 211.132809 440.390618 L 209.921872 440.468743 L 208.710934 440.585931 L 206.367184 440.898431 L 204.023434 441.289056 L 202.890622 441.562493 L 201.796872 441.796868 L 200.703122 442.109368 L 198.515622 442.812493 L 197.460935 443.242181 L 196.44531 443.671868 L 195.390622 444.140618 L 194.41406 444.648431 L 193.437497 445.195306 L 192.460935 445.781243 L 191.484372 446.406243 L 190.546872 447.070306 L 189.648435 447.773431 L 188.749997 448.515618 L 187.890622 449.296868 L 187.031247 450.156243 L 186.210935 451.015618 L 185.390622 451.914056 L 184.609372 452.890618 L 183.828122 453.906243 L 183.085935 454.960931 L 182.343747 456.054681 L 181.640622 457.226556 L 180.937497 458.437493 Z M 179.648435 461.015618 " transform="matrix(0.2, 0, 0, -0.2, 0, 316)"/>
<path fill-rule="nonzero" fill="rgb(100%, 100%, 100%)" fill-opacity="1" d="M 118.90625 269.96875 L 151.789062 269.96875 L 151.789062 295.40625 L 118.90625 295.40625 Z M 118.90625 269.96875 "/>
<path fill-rule="nonzero" fill="rgb(0%, 0%, 0%)" fill-opacity="1" d="M 135.148438 277.175781 C 135.148438 276.019531 134.585938 275.644531 134.179688 275.644531 C 133.648438 275.644531 133.117188 276.238281 133.117188 276.707031 C 133.117188 276.988281 133.210938 277.113281 133.460938 277.363281 C 133.929688 277.800781 134.210938 278.363281 134.210938 279.144531 C 134.210938 280.050781 132.867188 285.050781 130.304688 285.050781 C 129.210938 285.050781 128.710938 284.300781 128.710938 283.175781 C 128.710938 281.957031 129.304688 280.363281 129.960938 278.550781 C 130.117188 278.175781 130.242188 277.863281 130.242188 277.457031 C 130.242188 276.457031 129.523438 275.644531 128.429688 275.644531 C 126.398438 275.644531 125.554688 278.832031 125.554688 279.019531 C 125.554688 279.238281 125.773438 279.238281 125.835938 279.238281 C 126.054688 279.238281 126.054688 279.207031 126.179688 278.832031 C 126.804688 276.644531 127.742188 276.144531 128.367188 276.144531 C 128.554688 276.144531 128.929688 276.144531 128.929688 276.832031 C 128.929688 277.394531 128.710938 277.957031 128.554688 278.363281 C 127.585938 280.894531 127.304688 281.894531 127.304688 282.832031 C 127.304688 285.207031 129.242188 285.550781 130.242188 285.550781 C 133.898438 285.550781 135.148438 278.332031 135.148438 277.175781 Z M 135.148438 277.175781 "/>
<path fill-rule="nonzero" fill="rgb(0%, 0%, 0%)" fill-opacity="1" d="M 143.773438 286.195312 L 143.273438 286.195312 C 143.242188 286.445312 143.085938 287.507812 142.867188 287.789062 C 142.742188 287.945312 141.523438 287.945312 141.148438 287.945312 L 137.960938 287.945312 L 139.742188 286.257812 C 142.679688 283.726562 143.773438 282.757812 143.773438 280.945312 C 143.773438 278.882812 142.085938 277.445312 139.867188 277.445312 C 137.804688 277.445312 136.398438 279.070312 136.398438 280.695312 C 136.398438 281.601562 137.179688 281.695312 137.335938 281.695312 C 137.742188 281.695312 138.273438 281.414062 138.273438 280.757812 C 138.273438 280.226562 137.898438 279.820312 137.335938 279.820312 C 137.242188 279.820312 137.210938 279.820312 137.117188 279.851562 C 137.554688 278.570312 138.710938 278.007812 139.679688 278.007812 C 141.492188 278.007812 142.117188 279.695312 142.117188 280.945312 C 142.117188 282.757812 140.742188 284.257812 139.898438 285.195312 L 136.617188 288.726562 C 136.398438 288.945312 136.398438 288.976562 136.398438 289.382812 L 143.273438 289.382812 Z M 143.773438 286.195312 "/>
<path fill-rule="nonzero" fill="rgb(0%, 0%, 0%)" fill-opacity="1" d="M 37.859375 249.71875 L 38.070312 250.226562 L 38.296875 250.710938 L 38.554688 251.179688 L 38.84375 251.632812 L 39.148438 252.0625 L 39.476562 252.476562 L 39.835938 252.882812 L 40.21875 253.257812 L 40.617188 253.625 L 41.046875 253.976562 L 41.492188 254.3125 L 41.960938 254.632812 L 42.453125 254.9375 L 42.96875 255.226562 L 43.5 255.5 L 44.054688 255.765625 L 44.632812 256.007812 L 45.226562 256.242188 L 45.835938 256.46875 L 46.46875 256.679688 L 47.117188 256.875 L 47.789062 257.054688 L 48.46875 257.234375 L 49.171875 257.398438 L 49.898438 257.546875 L 50.632812 257.6875 L 51.382812 257.8125 L 52.148438 257.9375 L 52.929688 258.046875 L 53.726562 258.148438 L 54.539062 258.242188 L 55.367188 258.320312 L 56.203125 258.398438 L 57.921875 258.523438 L 58.796875 258.578125 L 59.6875 258.617188 L 60.585938 258.664062 L 61.5 258.6875 L 62.421875 258.71875 L 63.351562 258.734375 L 64.296875 258.75 L 65.25 258.757812 L 66.210938 258.765625 L 68.164062 258.765625 L 69.148438 258.757812 L 70.140625 258.742188 L 71.140625 258.726562 L 72.148438 258.710938 L 73.164062 258.695312 L 74.179688 258.671875 L 75.210938 258.648438 L 76.234375 258.625 L 77.273438 258.601562 L 78.3125 258.570312 L 79.351562 258.546875 L 80.398438 258.523438 L 81.453125 258.492188 L 82.5 258.46875 L 84.609375 258.421875 L 85.671875 258.398438 L 86.726562 258.375 L 88.851562 258.34375 L 89.90625 258.328125 L 90.96875 258.320312 L 92.023438 258.3125 L 94.132812 258.3125 L 95.1875 258.320312 L 96.234375 258.328125 L 98.328125 258.359375 L 100.40625 258.421875 L 101.4375 258.460938 L 102.460938 258.507812 L 103.484375 258.5625 L 104.492188 258.625 L 105.507812 258.695312 L 106.507812 258.773438 L 107.5 258.851562 L 108.492188 258.953125 L 109.46875 259.054688 L 110.4375 259.164062 L 111.40625 259.289062 L 112.359375 259.421875 L 113.304688 259.5625 L 114.234375 259.71875 L 115.164062 259.882812 L 116.078125 260.054688 L 116.976562 260.242188 L 117.867188 260.445312 L 118.75 260.65625 L 119.617188 260.882812 L 120.46875 261.117188 L 121.3125 261.367188 L 122.140625 261.632812 L 122.953125 261.914062 L 123.75 262.203125 L 124.539062 262.515625 L 125.3125 262.835938 L 126.0625 263.171875 L 126.804688 263.53125 L 127.523438 263.898438 L 128.234375 264.28125 L 128.921875 264.6875 L 129.585938 265.109375 L 130.242188 265.539062 L 130.882812 266 L 131.492188 266.46875 L 132.09375 266.960938 L 132.671875 267.46875 L 133.226562 268 L 133.765625 268.546875 L 134.28125 269.109375 L 134.773438 269.703125 L 135.25 270.304688 L 135.726562 269.703125 L 136.21875 269.109375 L 136.742188 268.546875 L 137.273438 268 L 137.835938 267.46875 L 138.414062 266.960938 L 139.007812 266.46875 L 139.625 266 L 140.257812 265.539062 L 140.914062 265.109375 L 141.585938 264.6875 L 142.273438 264.28125 L 142.976562 263.898438 L 143.703125 263.53125 L 144.4375 263.171875 L 145.195312 262.835938 L 145.96875 262.515625 L 146.75 262.203125 L 147.546875 261.914062 L 148.359375 261.632812 L 149.1875 261.367188 L 150.03125 261.117188 L 150.890625 260.882812 L 151.757812 260.65625 L 152.632812 260.445312 L 153.523438 260.242188 L 154.429688 260.054688 L 155.34375 259.882812 L 156.265625 259.71875 L 157.203125 259.5625 L 158.148438 259.421875 L 159.101562 259.289062 L 160.0625 259.164062 L 161.03125 259.054688 L 163 258.851562 L 163.992188 258.773438 L 165 258.695312 L 166.007812 258.625 L 167.023438 258.5625 L 168.039062 258.507812 L 169.070312 258.460938 L 170.101562 258.421875 L 171.132812 258.390625 L 172.171875 258.359375 L 174.265625 258.328125 L 175.3125 258.320312 L 176.367188 258.3125 L 178.476562 258.3125 L 179.539062 258.320312 L 180.59375 258.328125 L 181.65625 258.34375 L 182.710938 258.359375 L 183.773438 258.375 L 184.828125 258.398438 L 185.890625 258.421875 L 189.054688 258.492188 L 190.101562 258.523438 L 192.195312 258.570312 L 193.226562 258.601562 L 194.265625 258.625 L 195.296875 258.648438 L 196.320312 258.671875 L 197.335938 258.695312 L 198.351562 258.710938 L 199.359375 258.726562 L 201.359375 258.757812 L 202.34375 258.765625 L 204.289062 258.765625 L 205.25 258.757812 L 206.203125 258.75 L 207.148438 258.734375 L 208.078125 258.71875 L 209 258.6875 L 209.914062 258.664062 L 210.8125 258.617188 L 211.703125 258.578125 L 212.578125 258.523438 L 213.445312 258.460938 L 214.296875 258.398438 L 215.132812 258.320312 L 215.960938 258.242188 L 216.773438 258.148438 L 217.570312 258.046875 L 218.351562 257.9375 L 219.117188 257.8125 L 219.875 257.6875 L 220.609375 257.546875 L 221.328125 257.398438 L 222.03125 257.234375 L 222.71875 257.054688 L 223.382812 256.875 L 224.03125 256.679688 L 224.664062 256.46875 L 225.28125 256.242188 L 225.875 256.007812 L 226.445312 255.765625 L 227 255.5 L 227.53125 255.226562 L 228.046875 254.9375 L 228.539062 254.632812 L 229.007812 254.3125 L 229.460938 253.976562 L 229.882812 253.625 L 230.289062 253.257812 L 230.664062 252.882812 L 231.023438 252.476562 L 231.351562 252.0625 L 231.664062 251.632812 L 231.945312 251.179688 L 232.203125 250.710938 L 232.4375 250.226562 L 232.640625 249.71875 L 232.34375 250.429688 L 232.015625 251.109375 L 231.671875 251.765625 L 231.304688 252.398438 L 230.914062 253.007812 L 230.5 253.59375 L 230.0625 254.15625 L 229.617188 254.695312 L 229.140625 255.210938 L 228.648438 255.703125 L 228.132812 256.179688 L 227.601562 256.632812 L 227.046875 257.0625 L 226.476562 257.476562 L 225.890625 257.859375 L 225.289062 258.234375 L 224.664062 258.585938 L 224.023438 258.921875 L 223.367188 259.234375 L 222.695312 259.53125 L 222.007812 259.8125 L 221.296875 260.070312 L 220.578125 260.3125 L 219.84375 260.546875 L 219.09375 260.757812 L 218.328125 260.960938 L 217.554688 261.140625 L 216.765625 261.304688 L 215.960938 261.460938 L 215.140625 261.601562 L 214.3125 261.726562 L 213.476562 261.84375 L 212.625 261.945312 L 211.757812 262.03125 L 210.882812 262.109375 L 210 262.179688 L 208.203125 262.273438 L 207.289062 262.304688 L 206.359375 262.328125 L 205.429688 262.34375 L 204.492188 262.351562 L 203.539062 262.351562 L 202.585938 262.335938 L 201.625 262.320312 L 200.65625 262.296875 L 199.679688 262.265625 L 198.695312 262.226562 L 197.703125 262.179688 L 196.710938 262.125 L 195.710938 262.070312 L 194.710938 262.007812 L 193.703125 261.945312 L 191.671875 261.804688 L 190.65625 261.726562 L 188.609375 261.570312 L 187.578125 261.484375 L 186.554688 261.40625 L 185.523438 261.3125 L 184.492188 261.226562 L 183.460938 261.148438 L 179.335938 260.804688 L 178.304688 260.726562 L 177.273438 260.640625 L 176.25 260.570312 L 175.226562 260.492188 L 173.179688 260.351562 L 172.171875 260.289062 L 171.15625 260.234375 L 170.148438 260.179688 L 169.148438 260.132812 L 167.148438 260.054688 L 165.179688 260.007812 L 164.203125 259.992188 L 163.234375 259.984375 L 161.3125 260 L 160.367188 260.023438 L 159.429688 260.046875 L 158.492188 260.085938 L 157.570312 260.140625 L 156.65625 260.203125 L 155.75 260.273438 L 154.859375 260.351562 L 153.976562 260.453125 L 153.101562 260.5625 L 152.234375 260.679688 L 151.382812 260.8125 L 150.546875 260.960938 L 149.71875 261.125 L 148.898438 261.296875 L 148.09375 261.492188 L 147.304688 261.695312 L 146.53125 261.921875 L 145.765625 262.15625 L 145.015625 262.414062 L 144.28125 262.679688 L 143.5625 262.976562 L 142.859375 263.28125 L 142.171875 263.609375 L 141.492188 263.945312 L 140.835938 264.3125 L 140.195312 264.695312 L 139.578125 265.09375 L 138.96875 265.515625 L 138.382812 265.960938 L 137.8125 266.421875 L 137.265625 266.90625 L 136.726562 267.414062 L 136.21875 267.945312 L 135.726562 268.5 L 135.25 269.070312 L 134.78125 268.5 L 134.28125 267.945312 L 133.773438 267.414062 L 133.234375 266.90625 L 132.6875 266.421875 L 132.117188 265.960938 L 131.53125 265.515625 L 130.929688 265.09375 L 130.304688 264.695312 L 129.664062 264.3125 L 129.007812 263.945312 L 128.335938 263.609375 L 127.648438 263.28125 L 126.9375 262.976562 L 126.21875 262.679688 L 125.484375 262.414062 L 124.734375 262.15625 L 123.976562 261.921875 L 123.195312 261.695312 L 122.40625 261.492188 L 121.601562 261.296875 L 120.789062 261.125 L 119.960938 260.960938 L 119.117188 260.8125 L 118.265625 260.679688 L 117.40625 260.5625 L 116.53125 260.453125 L 115.648438 260.351562 L 114.75 260.273438 L 113.84375 260.203125 L 112.929688 260.140625 L 112.007812 260.085938 L 111.078125 260.046875 L 109.1875 260 L 108.234375 259.992188 L 107.265625 259.984375 L 106.296875 259.992188 L 105.320312 260.007812 L 103.351562 260.054688 L 102.359375 260.09375 L 101.359375 260.132812 L 100.351562 260.179688 L 98.335938 260.289062 L 97.320312 260.351562 L 96.296875 260.421875 L 95.28125 260.492188 L 94.257812 260.570312 L 93.226562 260.640625 L 92.203125 260.726562 L 91.171875 260.804688 L 87.046875 261.148438 L 86.007812 261.226562 L 84.976562 261.3125 L 83.953125 261.40625 L 82.921875 261.484375 L 81.898438 261.570312 L 80.867188 261.648438 L 79.851562 261.726562 L 78.828125 261.804688 L 77.8125 261.875 L 76.804688 261.945312 L 74.789062 262.070312 L 73.789062 262.125 L 72.796875 262.179688 L 71.8125 262.226562 L 70.828125 262.265625 L 69.851562 262.296875 L 68.882812 262.320312 L 67.914062 262.335938 L 66.960938 262.351562 L 66.015625 262.351562 L 65.070312 262.34375 L 64.140625 262.328125 L 63.210938 262.304688 L 62.304688 262.273438 L 61.398438 262.226562 L 60.5 262.179688 L 59.617188 262.109375 L 58.742188 262.03125 L 57.882812 261.945312 L 57.03125 261.84375 L 56.1875 261.726562 L 55.359375 261.601562 L 54.539062 261.460938 L 53.734375 261.304688 L 52.945312 261.140625 L 52.171875 260.960938 L 51.40625 260.757812 L 50.65625 260.546875 L 49.921875 260.3125 L 49.203125 260.070312 L 48.5 259.8125 L 47.8125 259.53125 L 47.132812 259.234375 L 46.476562 258.921875 L 45.835938 258.585938 L 45.21875 258.234375 L 44.609375 257.859375 L 44.023438 257.476562 L 43.453125 257.0625 L 42.898438 256.632812 L 42.367188 256.179688 L 41.851562 255.703125 L 41.359375 255.210938 L 40.890625 254.695312 L 40.4375 254.15625 L 40 253.59375 L 39.585938 253.007812 L 39.203125 252.398438 L 38.828125 251.765625 L 38.484375 251.109375 L 38.164062 250.429688 L 37.859375 249.71875 "/>
<path fill="none" stroke-width="3.985" stroke-linecap="butt" stroke-linejoin="miter" stroke="rgb(0%, 0%, 0%)" stroke-opacity="1" stroke-miterlimit="10" d="M 189.296872 331.406245 L 190.35156 328.867183 L 191.484372 326.445308 L 192.773435 324.101558 L 194.218747 321.835933 L 195.742185 319.687495 L 197.38281 317.617183 L 199.179685 315.585933 L 201.093747 313.710933 L 203.085934 311.874995 L 205.234372 310.117183 L 207.460934 308.437495 L 209.804684 306.835933 L 212.265622 305.312495 L 214.843747 303.867183 L 217.499997 302.499995 L 220.273434 301.171871 L 223.164059 299.960933 L 226.132809 298.789058 L 229.179684 297.656246 L 232.343747 296.601558 L 235.585934 295.624996 L 238.945309 294.726558 L 242.343746 293.828121 L 245.859371 293.007808 L 249.492184 292.265621 L 253.164059 291.562496 L 256.914059 290.937496 L 260.742184 290.312496 L 264.648434 289.765621 L 268.632808 289.257808 L 272.695308 288.789058 L 276.835933 288.398433 L 281.015621 288.007808 L 289.609371 287.382808 L 293.984371 287.109371 L 298.437496 286.914058 L 302.929683 286.679683 L 307.499995 286.562496 L 312.10937 286.406246 L 316.757808 286.328121 L 321.48437 286.249996 L 326.249995 286.210933 L 331.054683 286.171871 L 340.820307 286.171871 L 345.742182 286.210933 L 350.70312 286.289058 L 355.70312 286.367183 L 360.742182 286.445308 L 365.820307 286.523433 L 370.898432 286.640621 L 376.054682 286.757808 L 381.171869 286.874996 L 386.367182 286.992183 L 391.562494 287.148433 L 396.757807 287.265621 L 401.992182 287.382808 L 407.265619 287.539058 L 412.499994 287.656246 L 423.046869 287.890621 L 428.359369 288.007808 L 433.632806 288.124996 L 444.257806 288.281246 L 449.531243 288.359371 L 454.843743 288.398433 L 460.117181 288.437496 L 470.664055 288.437496 L 475.937493 288.398433 L 481.171868 288.359371 L 491.640618 288.203121 L 502.031243 287.890621 L 507.187492 287.695308 L 512.30468 287.460933 L 517.421867 287.187496 L 522.46093 286.874996 L 527.539055 286.523433 L 532.539055 286.132808 L 537.499992 285.742183 L 542.460929 285.234371 L 547.343742 284.726558 L 552.187492 284.179683 L 557.031242 283.554683 L 561.796867 282.890621 L 566.523429 282.187496 L 571.171866 281.406246 L 575.820304 280.585933 L 580.390616 279.726558 L 584.882804 278.789058 L 589.335929 277.773433 L 593.749991 276.718746 L 598.085929 275.585933 L 602.343741 274.414058 L 606.562491 273.164058 L 610.703116 271.835933 L 614.765616 270.429683 L 618.749991 268.984371 L 622.695303 267.421871 L 626.562491 265.820309 L 630.312491 264.140621 L 634.023428 262.343746 L 637.617178 260.507809 L 641.171865 258.593746 L 644.609365 256.562496 L 647.929678 254.453121 L 651.210928 252.304684 L 654.414053 249.999996 L 657.460928 247.656246 L 660.46874 245.195309 L 663.359365 242.656246 L 666.132803 239.999996 L 668.828115 237.265621 L 671.40624 234.453122 L 673.867177 231.484372 L 676.24999 228.476559 L 678.632802 231.484372 L 681.09374 234.453122 L 683.710927 237.265621 L 686.367177 239.999996 L 689.179677 242.656246 L 692.070302 245.195309 L 695.039052 247.656246 L 698.12499 249.999996 L 701.289052 252.304684 L 704.570302 254.453121 L 707.929677 256.562496 L 711.367177 258.593746 L 714.882802 260.507809 L 718.515614 262.343746 L 722.187489 264.140621 L 725.976552 265.820309 L 729.843739 267.421871 L 733.749989 268.984371 L 737.734364 270.429683 L 741.796864 271.835933 L 745.937489 273.164058 L 750.156239 274.414058 L 754.453114 275.585933 L 758.789051 276.718746 L 763.164051 277.773433 L 767.617176 278.789058 L 772.148426 279.726558 L 776.718738 280.585933 L 781.328113 281.406246 L 786.015613 282.187496 L 790.742176 282.890621 L 795.507801 283.554683 L 800.312488 284.179683 L 805.156238 284.726558 L 814.999988 285.742183 L 819.960925 286.132808 L 824.999988 286.523433 L 830.03905 286.874996 L 835.117175 287.187496 L 840.1953 287.460933 L 845.35155 287.695308 L 850.5078 287.890621 L 855.66405 288.046871 L 860.859362 288.203121 L 871.328112 288.359371 L 876.562487 288.398433 L 881.835924 288.437496 L 892.382799 288.437496 L 897.695299 288.398433 L 902.968737 288.359371 L 908.281236 288.281246 L 913.554674 288.203121 L 918.867174 288.124996 L 924.140611 288.007808 L 929.453111 287.890621 L 945.273423 287.539058 L 950.507798 287.382808 L 960.976548 287.148433 L 966.132798 286.992183 L 971.328111 286.874996 L 976.48436 286.757808 L 981.601548 286.640621 L 986.679673 286.523433 L 991.757798 286.445308 L 996.79686 286.367183 L 1006.79686 286.210933 L 1011.718735 286.171871 L 1021.445297 286.171871 L 1026.249985 286.210933 L 1031.01561 286.249996 L 1035.742172 286.328121 L 1040.390609 286.406246 L 1044.999984 286.562496 L 1049.570297 286.679683 L 1054.062484 286.914058 L 1058.515609 287.109371 L 1062.890609 287.382808 L 1067.226547 287.695308 L 1071.484359 288.007808 L 1075.664046 288.398433 L 1079.804671 288.789058 L 1083.867171 289.257808 L 1087.851546 289.765621 L 1091.757796 290.312496 L 1095.585921 290.937496 L 1099.374984 291.562496 L 1103.046859 292.265621 L 1106.640609 293.007808 L 1110.156233 293.828121 L 1113.593733 294.726558 L 1116.914046 295.624996 L 1120.156233 296.601558 L 1123.320296 297.656246 L 1126.406233 298.789058 L 1129.374983 299.960933 L 1132.226546 301.171871 L 1134.999983 302.499995 L 1137.656233 303.867183 L 1140.234358 305.312495 L 1142.695295 306.835933 L 1145.039045 308.437495 L 1147.30467 310.117183 L 1149.414045 311.874995 L 1151.445295 313.710933 L 1153.320295 315.585933 L 1155.11717 317.617183 L 1156.757795 319.687495 L 1158.320295 321.835933 L 1159.726545 324.101558 L 1161.015608 326.445308 L 1162.187483 328.867183 L 1163.203108 331.406245 L 1161.718733 327.851558 L 1160.078108 324.45312 L 1158.359358 321.17187 L 1156.52342 318.007808 L 1154.570295 314.960933 L 1152.499983 312.031245 L 1150.312483 309.218745 L 1148.08592 306.523433 L 1145.703108 303.945308 L 1143.24217 301.484371 L 1140.664046 299.101558 L 1138.007796 296.835933 L 1135.234358 294.687496 L 1132.382796 292.617183 L 1129.453108 290.703121 L 1126.445296 288.828121 L 1123.320296 287.070308 L 1120.117171 285.390621 L 1116.835921 283.828121 L 1113.476546 282.343746 L 1110.039046 280.937496 L 1106.484359 279.648433 L 1102.890609 278.437496 L 1099.218734 277.265621 L 1095.468734 276.210933 L 1091.640609 275.195308 L 1087.773421 274.296871 L 1083.828109 273.476558 L 1079.804671 272.695308 L 1075.703109 271.992183 L 1071.562484 271.367183 L 1067.382797 270.781246 L 1063.124984 270.273433 L 1058.789047 269.843746 L 1054.414047 269.453121 L 1049.999984 269.101558 L 1041.015609 268.632808 L 1036.445297 268.476558 L 1031.79686 268.359371 L 1027.148422 268.281246 L 1022.460922 268.242184 L 1017.695297 268.242184 L 1012.929672 268.320309 L 1008.124985 268.398434 L 1003.281235 268.515621 L 998.398423 268.671871 L 993.476548 268.867183 L 988.51561 269.101558 L 983.554673 269.374996 L 978.554673 269.648433 L 973.554673 269.960933 L 968.515611 270.273433 L 958.359361 270.976558 L 953.281236 271.367183 L 943.046861 272.148433 L 937.890611 272.578121 L 932.773424 272.968746 L 927.617174 273.437496 L 922.460924 273.867183 L 917.304674 274.257808 L 896.679674 275.976558 L 891.523424 276.367183 L 886.367174 276.796871 L 881.249987 277.148433 L 876.132799 277.539058 L 865.898425 278.242183 L 860.859362 278.554683 L 855.781237 278.828121 L 850.742175 279.101558 L 845.742175 279.335933 L 835.742175 279.726558 L 825.898425 279.960933 L 821.015613 280.039058 L 816.171863 280.078121 L 806.562488 279.999996 L 801.835926 279.882808 L 797.148426 279.765621 L 792.460926 279.570308 L 787.851551 279.296871 L 783.281238 278.984371 L 778.749988 278.632808 L 774.296863 278.242183 L 769.882801 277.734371 L 765.507801 277.187496 L 761.171864 276.601558 L 756.914051 275.937496 L 752.734364 275.195308 L 748.593739 274.374996 L 744.492176 273.515621 L 740.468739 272.539058 L 736.523427 271.523433 L 732.656239 270.390621 L 728.828114 269.218746 L 725.078114 267.929684 L 721.406239 266.601559 L 717.812489 265.117184 L 714.296864 263.593746 L 710.859364 261.953121 L 707.460927 260.273434 L 704.179677 258.437496 L 700.976552 256.523434 L 697.890615 254.531246 L 694.84374 252.421871 L 691.914052 250.195309 L 689.06249 247.890621 L 686.328115 245.468746 L 683.632802 242.929684 L 681.09374 240.273434 L 678.632802 237.499996 L 676.24999 234.648434 L 673.90624 237.499996 L 671.40624 240.273434 L 668.867178 242.929684 L 666.171865 245.468746 L 663.43749 247.890621 L 660.585928 250.195309 L 657.65624 252.421871 L 654.648428 254.531246 L 651.523428 256.523434 L 648.320303 258.437496 L 645.039053 260.273434 L 641.679678 261.953121 L 638.242178 263.593746 L 634.687491 265.117184 L 631.093741 266.601559 L 627.421866 267.929684 L 623.671866 269.218746 L 619.882803 270.390621 L 615.976553 271.523433 L 612.031241 272.539058 L 608.007803 273.515621 L 603.945304 274.374996 L 599.804679 275.195308 L 595.585929 275.937496 L 591.328116 276.601558 L 587.031241 277.187496 L 582.656241 277.734371 L 578.242179 278.242183 L 573.749991 278.632808 L 569.218742 278.984371 L 564.648429 279.296871 L 560.039054 279.570308 L 555.390617 279.765621 L 545.937492 279.999996 L 541.171867 280.039058 L 536.328117 280.078121 L 531.484367 280.039058 L 526.601555 279.960933 L 516.757805 279.726558 L 511.796867 279.531246 L 506.796867 279.335933 L 501.757805 279.101558 L 491.67968 278.554683 L 486.601555 278.242183 L 481.484368 277.890621 L 476.406243 277.539058 L 471.289055 277.148433 L 466.132806 276.796871 L 461.015618 276.367183 L 455.859368 275.976558 L 435.234369 274.257808 L 430.039056 273.867183 L 424.882806 273.437496 L 419.765619 272.968746 L 414.609369 272.578121 L 409.492181 272.148433 L 404.335931 271.757808 L 399.257807 271.367183 L 394.140619 270.976558 L 389.062494 270.624996 L 384.023432 270.273433 L 373.945307 269.648433 L 368.945307 269.374996 L 363.98437 269.101558 L 359.062495 268.867183 L 354.14062 268.671871 L 349.257807 268.515621 L 344.414057 268.398434 L 339.570307 268.320309 L 334.804683 268.242184 L 330.07812 268.242184 L 325.351558 268.281246 L 320.70312 268.359371 L 316.054683 268.476558 L 311.523433 268.632808 L 306.992183 268.867183 L 302.499995 269.101558 L 298.085933 269.453121 L 293.710933 269.843746 L 289.414058 270.273433 L 285.156246 270.781246 L 280.937496 271.367183 L 276.796871 271.992183 L 272.695308 272.695308 L 268.671871 273.476558 L 264.726559 274.296871 L 260.859371 275.195308 L 257.031246 276.210933 L 253.281246 277.265621 L 249.609371 278.437496 L 246.015621 279.648433 L 242.499996 280.937496 L 239.062496 282.343746 L 235.664059 283.828121 L 232.382809 285.390621 L 229.179684 287.070308 L 226.093747 288.828121 L 223.046872 290.703121 L 220.117184 292.617183 L 217.265622 294.687496 L 214.492184 296.835933 L 211.835934 299.101558 L 209.257809 301.484371 L 206.796872 303.945308 L 204.453122 306.523433 L 202.187497 309.218745 L 199.999997 312.031245 L 197.929685 314.960933 L 196.015622 318.007808 L 194.140622 321.17187 L 192.421872 324.45312 L 190.82031 327.851558 Z M 189.296872 331.406245 " transform="matrix(0.2, 0, 0, -0.2, 0, 316)"/>
<path fill-rule="nonzero" fill="rgb(100%, 100%, 100%)" fill-opacity="1" d="M 47.46875 121.359375 L 80.828125 121.359375 L 80.828125 147.039062 L 47.46875 147.039062 Z M 47.46875 121.359375 "/>
<path fill-rule="nonzero" fill="rgb(0%, 0%, 0%)" fill-opacity="1" d="M 54.464844 139.59375 C 54.308594 140.34375 54.246094 140.5 53.308594 140.5 C 53.027344 140.5 52.808594 140.5 52.808594 140.90625 C 52.808594 141.09375 52.902344 141.15625 53.089844 141.15625 C 53.683594 141.15625 54.308594 141.09375 54.902344 141.09375 C 55.621094 141.09375 56.371094 141.15625 57.058594 141.15625 C 57.183594 141.15625 57.464844 141.15625 57.464844 140.71875 C 57.464844 140.5 57.246094 140.5 56.933594 140.5 C 55.839844 140.5 55.839844 140.34375 55.839844 140.15625 C 55.839844 139.875 56.777344 136.3125 56.933594 135.78125 C 57.214844 136.40625 57.808594 137.1875 58.933594 137.1875 C 61.464844 137.1875 64.183594 134 64.183594 130.78125 C 64.183594 128.75 62.933594 127.28125 61.277344 127.28125 C 60.183594 127.28125 59.152344 128.09375 58.433594 128.9375 C 58.214844 127.75 57.277344 127.28125 56.464844 127.28125 C 55.464844 127.28125 55.058594 128.15625 54.839844 128.53125 C 54.464844 129.28125 54.183594 130.59375 54.183594 130.65625 C 54.183594 130.875 54.402344 130.875 54.433594 130.875 C 54.652344 130.875 54.683594 130.84375 54.808594 130.375 C 55.183594 128.8125 55.621094 127.78125 56.402344 127.78125 C 56.777344 127.78125 57.058594 127.9375 57.058594 128.78125 C 57.058594 129.28125 56.996094 129.53125 56.933594 129.90625 Z M 58.308594 130.125 C 58.464844 129.53125 59.058594 128.9375 59.464844 128.59375 C 60.214844 127.9375 60.839844 127.78125 61.214844 127.78125 C 62.089844 127.78125 62.621094 128.53125 62.621094 129.8125 C 62.621094 131.125 61.902344 133.625 61.496094 134.4375 C 60.746094 135.96875 59.714844 136.6875 58.902344 136.6875 C 57.464844 136.6875 57.183594 134.875 57.183594 134.75 C 57.183594 134.71875 57.183594 134.65625 57.246094 134.40625 Z M 58.308594 130.125 "/>
<path fill-rule="nonzero" fill="rgb(0%, 0%, 0%)" fill-opacity="1" d="M 69.972656 129.546875 C 69.972656 129.109375 69.972656 129.078125 69.535156 129.078125 C 68.410156 130.203125 66.753906 130.203125 66.191406 130.203125 L 66.191406 130.765625 C 66.535156 130.765625 67.628906 130.765625 68.597656 130.296875 L 68.597656 139.578125 C 68.597656 140.234375 68.566406 140.453125 66.878906 140.453125 L 66.316406 140.453125 L 66.316406 141.015625 C 66.941406 140.953125 68.566406 140.953125 69.285156 140.953125 C 70.035156 140.953125 71.628906 140.953125 72.285156 141.015625 L 72.285156 140.453125 L 71.722656 140.453125 C 70.035156 140.453125 69.972656 140.234375 69.972656 139.578125 Z M 69.972656 129.546875 "/>
<path fill-rule="nonzero" fill="rgb(0%, 0%, 0%)" fill-opacity="1" d="M 94.9375 53.03125 L 94.46875 53.25 L 94.007812 53.484375 L 93.570312 53.734375 L 93.148438 54.007812 L 92.742188 54.289062 L 92.351562 54.601562 L 91.976562 54.921875 L 91.617188 55.257812 L 91.273438 55.609375 L 90.945312 55.984375 L 90.632812 56.375 L 90.335938 56.78125 L 90.046875 57.195312 L 89.78125 57.632812 L 89.515625 58.078125 L 89.273438 58.539062 L 89.039062 59.023438 L 88.820312 59.515625 L 88.617188 60.023438 L 88.414062 60.539062 L 88.234375 61.070312 L 88.054688 61.617188 L 87.898438 62.179688 L 87.742188 62.75 L 87.601562 63.335938 L 87.46875 63.929688 L 87.351562 64.539062 L 87.234375 65.15625 L 87.132812 65.789062 L 87.039062 66.421875 L 86.953125 67.078125 L 86.875 67.734375 L 86.804688 68.40625 L 86.742188 69.09375 L 86.6875 69.78125 L 86.632812 70.484375 L 86.59375 71.195312 L 86.5625 71.90625 L 86.53125 72.632812 L 86.507812 73.367188 L 86.484375 74.109375 L 86.46875 74.859375 L 86.460938 75.617188 L 86.460938 77.929688 L 86.46875 78.710938 L 86.476562 79.507812 L 86.492188 80.296875 L 86.523438 81.90625 L 86.546875 82.710938 L 86.5625 83.53125 L 86.609375 85.171875 L 86.632812 86 L 86.664062 86.828125 L 86.710938 88.5 L 86.734375 89.34375 L 86.757812 90.179688 L 86.78125 91.023438 L 86.804688 91.875 L 86.820312 92.71875 L 86.84375 93.570312 L 86.851562 94.421875 L 86.867188 95.273438 L 86.875 96.125 L 86.882812 96.96875 L 86.890625 97.820312 L 86.882812 98.671875 L 86.882812 99.523438 L 86.851562 101.226562 L 86.835938 102.070312 L 86.8125 102.914062 L 86.78125 103.757812 L 86.742188 104.601562 L 86.648438 106.273438 L 86.585938 107.109375 L 86.523438 107.9375 L 86.453125 108.765625 L 86.375 109.585938 L 86.1875 111.210938 L 86.078125 112.023438 L 85.96875 112.828125 L 85.84375 113.625 L 85.710938 114.421875 L 85.570312 115.210938 L 85.414062 115.984375 L 85.25 116.765625 L 85.070312 117.53125 L 84.882812 118.289062 L 84.6875 119.046875 L 84.476562 119.796875 L 84.25 120.53125 L 84.015625 121.265625 L 83.765625 121.984375 L 83.507812 122.703125 L 83.234375 123.40625 L 82.945312 124.101562 L 82.640625 124.789062 L 82.328125 125.46875 L 81.992188 126.140625 L 81.648438 126.796875 L 81.289062 127.445312 L 80.90625 128.078125 L 80.515625 128.703125 L 80.101562 129.320312 L 79.679688 129.921875 L 79.234375 130.515625 L 78.773438 131.09375 L 78.296875 131.65625 L 77.804688 132.210938 L 77.289062 132.75 L 76.757812 133.28125 L 76.210938 133.796875 L 75.640625 134.296875 L 76.210938 134.796875 L 76.757812 135.3125 L 77.289062 135.84375 L 77.804688 136.382812 L 78.296875 136.9375 L 78.773438 137.5 L 79.234375 138.085938 L 79.679688 138.671875 L 80.101562 139.273438 L 80.515625 139.890625 L 80.90625 140.515625 L 81.289062 141.15625 L 81.648438 141.804688 L 81.992188 142.460938 L 82.328125 143.125 L 82.640625 143.804688 L 82.945312 144.492188 L 83.234375 145.1875 L 83.507812 145.898438 L 83.765625 146.609375 L 84.015625 147.328125 L 84.25 148.0625 L 84.476562 148.804688 L 84.6875 149.546875 L 84.882812 150.304688 L 85.070312 151.0625 L 85.25 151.828125 L 85.414062 152.609375 L 85.570312 153.390625 L 85.710938 154.179688 L 85.84375 154.96875 L 85.96875 155.765625 L 86.078125 156.570312 L 86.1875 157.382812 L 86.375 159.007812 L 86.453125 159.828125 L 86.523438 160.65625 L 86.585938 161.492188 L 86.648438 162.320312 L 86.742188 163.992188 L 86.78125 164.835938 L 86.8125 165.679688 L 86.835938 166.523438 L 86.851562 167.367188 L 86.882812 169.070312 L 86.882812 169.921875 L 86.890625 170.773438 L 86.867188 173.328125 L 86.851562 174.179688 L 86.84375 175.023438 L 86.820312 175.875 L 86.804688 176.71875 L 86.78125 177.5625 L 86.757812 178.414062 L 86.734375 179.257812 L 86.664062 181.765625 L 86.632812 182.59375 L 86.609375 183.421875 L 86.5625 185.0625 L 86.546875 185.882812 L 86.523438 186.6875 L 86.492188 188.296875 L 86.476562 189.09375 L 86.46875 189.882812 L 86.460938 190.664062 L 86.460938 192.976562 L 86.46875 193.734375 L 86.484375 194.484375 L 86.507812 195.226562 L 86.53125 195.960938 L 86.5625 196.6875 L 86.59375 197.40625 L 86.632812 198.109375 L 86.6875 198.8125 L 86.742188 199.507812 L 86.804688 200.1875 L 86.875 200.851562 L 86.953125 201.515625 L 87.039062 202.171875 L 87.132812 202.8125 L 87.234375 203.4375 L 87.351562 204.0625 L 87.46875 204.664062 L 87.601562 205.265625 L 87.742188 205.84375 L 87.898438 206.414062 L 88.054688 206.976562 L 88.234375 207.523438 L 88.414062 208.054688 L 88.617188 208.578125 L 88.820312 209.085938 L 89.039062 209.578125 L 89.273438 210.054688 L 89.515625 210.515625 L 89.78125 210.96875 L 90.046875 211.398438 L 90.335938 211.820312 L 90.632812 212.21875 L 90.945312 212.609375 L 91.273438 212.984375 L 91.617188 213.335938 L 91.976562 213.679688 L 92.351562 214 L 92.742188 214.304688 L 93.148438 214.59375 L 93.570312 214.859375 L 94.007812 215.117188 L 94.46875 215.34375 L 94.9375 215.5625 L 94.273438 215.242188 L 93.640625 214.914062 L 93.023438 214.570312 L 92.429688 214.203125 L 91.859375 213.828125 L 91.304688 213.445312 L 90.78125 213.039062 L 90.273438 212.617188 L 89.789062 212.1875 L 89.328125 211.742188 L 88.882812 211.289062 L 88.460938 210.820312 L 88.054688 210.335938 L 87.671875 209.84375 L 87.304688 209.335938 L 86.953125 208.8125 L 86.625 208.289062 L 86.3125 207.742188 L 86.015625 207.1875 L 85.742188 206.625 L 85.476562 206.046875 L 85.234375 205.46875 L 85.007812 204.867188 L 84.789062 204.265625 L 84.585938 203.648438 L 84.40625 203.023438 L 84.234375 202.390625 L 84.070312 201.742188 L 83.929688 201.09375 L 83.796875 200.429688 L 83.679688 199.765625 L 83.570312 199.085938 L 83.476562 198.398438 L 83.398438 197.703125 L 83.328125 197.007812 L 83.265625 196.296875 L 83.210938 195.578125 L 83.171875 194.859375 L 83.140625 194.132812 L 83.117188 193.398438 L 83.101562 192.65625 L 83.09375 191.90625 L 83.101562 191.15625 L 83.109375 190.398438 L 83.125 189.632812 L 83.148438 188.859375 L 83.179688 188.085938 L 83.21875 187.3125 L 83.257812 186.53125 L 83.304688 185.742188 L 83.414062 184.164062 L 83.476562 183.359375 L 83.539062 182.5625 L 83.75 180.148438 L 84.0625 176.898438 L 84.148438 176.078125 L 84.226562 175.257812 L 84.3125 174.4375 L 84.625 171.15625 L 84.695312 170.335938 L 84.773438 169.523438 L 84.835938 168.703125 L 84.90625 167.882812 L 84.96875 167.070312 L 85.03125 166.25 L 85.078125 165.4375 L 85.132812 164.625 L 85.25 162.210938 L 85.273438 161.40625 L 85.296875 160.609375 L 85.304688 159.8125 L 85.3125 159.023438 L 85.3125 158.234375 L 85.304688 157.445312 L 85.257812 155.898438 L 85.21875 155.125 L 85.171875 154.359375 L 85.109375 153.59375 L 85.046875 152.84375 L 84.96875 152.09375 L 84.78125 150.609375 L 84.664062 149.882812 L 84.539062 149.15625 L 84.398438 148.4375 L 84.25 147.726562 L 84.085938 147.023438 L 83.90625 146.320312 L 83.710938 145.632812 L 83.5 144.953125 L 83.28125 144.28125 L 83.039062 143.617188 L 82.78125 142.953125 L 82.515625 142.3125 L 82.226562 141.671875 L 81.921875 141.046875 L 81.601562 140.421875 L 81.257812 139.8125 L 80.898438 139.210938 L 80.523438 138.625 L 80.125 138.046875 L 79.710938 137.476562 L 79.28125 136.914062 L 78.828125 136.367188 L 78.34375 135.835938 L 77.851562 135.3125 L 77.335938 134.796875 L 76.796875 134.296875 L 77.335938 133.796875 L 77.851562 133.28125 L 78.34375 132.765625 L 78.828125 132.226562 L 79.28125 131.679688 L 79.710938 131.117188 L 80.125 130.554688 L 80.523438 129.96875 L 80.898438 129.382812 L 81.257812 128.78125 L 81.601562 128.171875 L 81.921875 127.554688 L 82.226562 126.921875 L 82.515625 126.28125 L 82.78125 125.640625 L 83.039062 124.984375 L 83.28125 124.3125 L 83.5 123.640625 L 83.710938 122.960938 L 83.90625 122.273438 L 84.085938 121.578125 L 84.25 120.875 L 84.398438 120.164062 L 84.539062 119.4375 L 84.664062 118.71875 L 84.78125 117.984375 L 84.875 117.25 L 84.96875 116.507812 L 85.046875 115.757812 L 85.109375 115 L 85.171875 114.234375 L 85.21875 113.46875 L 85.257812 112.703125 L 85.28125 111.929688 L 85.304688 111.148438 L 85.3125 110.359375 L 85.3125 109.570312 L 85.304688 108.78125 L 85.296875 107.984375 L 85.25 106.390625 L 85.210938 105.585938 L 85.171875 104.773438 L 85.132812 103.96875 L 85.078125 103.15625 L 85.03125 102.34375 L 84.96875 101.53125 L 84.90625 100.710938 L 84.835938 99.890625 L 84.773438 99.070312 L 84.695312 98.257812 L 84.625 97.4375 L 84.3125 94.15625 L 84.226562 93.335938 L 84.148438 92.515625 L 84.0625 91.703125 L 83.984375 90.882812 L 83.828125 89.257812 L 83.75 88.453125 L 83.679688 87.640625 L 83.539062 86.03125 L 83.414062 84.4375 L 83.359375 83.640625 L 83.304688 82.851562 L 83.257812 82.0625 L 83.21875 81.28125 L 83.179688 80.507812 L 83.148438 79.734375 L 83.125 78.960938 L 83.109375 78.195312 L 83.101562 77.4375 L 83.09375 76.6875 L 83.101562 75.945312 L 83.117188 75.203125 L 83.140625 74.46875 L 83.171875 73.734375 L 83.210938 73.015625 L 83.265625 72.296875 L 83.328125 71.59375 L 83.398438 70.890625 L 83.476562 70.195312 L 83.570312 69.507812 L 83.679688 68.828125 L 83.796875 68.164062 L 83.929688 67.5 L 84.070312 66.851562 L 84.234375 66.203125 L 84.40625 65.570312 L 84.585938 64.945312 L 84.789062 64.328125 L 85.007812 63.726562 L 85.234375 63.132812 L 85.476562 62.539062 L 85.742188 61.96875 L 86.015625 61.40625 L 86.3125 60.851562 L 86.625 60.3125 L 86.953125 59.78125 L 87.304688 59.257812 L 87.671875 58.757812 L 88.054688 58.257812 L 88.460938 57.773438 L 88.882812 57.304688 L 89.328125 56.851562 L 89.789062 56.40625 L 90.273438 55.976562 L 90.78125 55.554688 L 91.304688 55.15625 L 91.859375 54.765625 L 92.429688 54.390625 L 93.023438 54.03125 L 93.640625 53.679688 L 94.273438 53.351562 L 94.9375 53.03125 "/>
<path fill="none" stroke-width="3.985" stroke-linecap="butt" stroke-linejoin="miter" stroke="rgb(0%, 0%, 0%)" stroke-opacity="1" stroke-miterlimit="10" d="M 474.687493 1314.84373 L 472.343743 1313.74998 L 470.039055 1312.578105 L 467.851556 1311.328105 L 465.742181 1309.960918 L 463.710931 1308.554668 L 461.757806 1306.992168 L 459.882806 1305.390606 L 458.085931 1303.710918 L 456.367181 1301.953106 L 454.726556 1300.078106 L 453.164056 1298.124981 L 451.679681 1296.093731 L 450.234368 1294.023418 L 448.906243 1291.835918 L 447.578118 1289.609356 L 446.367181 1287.304668 L 445.195306 1284.882793 L 444.101556 1282.421856 L 443.085931 1279.882793 L 442.070306 1277.304668 L 441.171868 1274.648419 L 440.273431 1271.914044 L 439.492181 1269.101544 L 438.710931 1266.249981 L 438.007806 1263.320294 L 437.343743 1260.351544 L 436.757806 1257.304669 L 436.171869 1254.218731 L 435.664056 1251.054669 L 435.195306 1247.890606 L 434.765619 1244.609356 L 434.374994 1241.328107 L 434.023431 1237.968732 L 433.710931 1234.531232 L 433.437494 1231.093732 L 433.164056 1227.578107 L 432.968744 1224.023419 L 432.812494 1220.468732 L 432.656244 1216.835919 L 432.539056 1213.164044 L 432.421869 1209.453107 L 432.343744 1205.703107 L 432.304681 1201.914045 L 432.304681 1190.351545 L 432.343744 1186.445295 L 432.382806 1182.46092 L 432.460931 1178.515607 L 432.617181 1170.468733 L 432.734369 1166.445295 L 432.812494 1162.343733 L 433.046869 1154.140608 L 433.164056 1149.999983 L 433.320306 1145.859358 L 433.554681 1137.499983 L 433.671869 1133.281233 L 433.789056 1129.101546 L 433.906244 1124.882796 L 434.023431 1120.624983 L 434.101556 1116.406233 L 434.218744 1112.148421 L 434.257806 1107.890608 L 434.335931 1103.632796 L 434.374994 1099.374984 L 434.414056 1095.156234 L 434.453119 1090.898421 L 434.414056 1086.640609 L 434.414056 1082.382796 L 434.257806 1073.867171 L 434.179681 1069.648422 L 434.062494 1065.429672 L 433.906244 1061.210922 L 433.710931 1056.992172 L 433.242181 1048.632797 L 432.929681 1044.453109 L 432.617181 1040.312484 L 432.265619 1036.17186 L 431.874994 1032.070297 L 430.937494 1023.945297 L 430.390619 1019.882797 L 429.843744 1015.85936 L 429.218744 1011.874985 L 428.554681 1007.89061 L 427.851556 1003.945298 L 427.070306 1000.07811 L 426.249994 996.17186 L 425.351556 992.343735 L 424.414056 988.554673 L 423.437494 984.76561 L 422.382806 981.01561 L 421.249994 977.343735 L 420.078119 973.67186 L 418.828119 970.078111 L 417.539056 966.484361 L 416.171869 962.968736 L 414.726556 959.492173 L 413.203119 956.054673 L 411.640619 952.656236 L 409.960931 949.296861 L 408.242181 946.015611 L 406.445306 942.773423 L 404.531244 939.609361 L 402.578119 936.484361 L 400.507807 933.398424 L 398.398432 930.390611 L 396.171869 927.421861 L 393.867182 924.531236 L 391.484369 921.718736 L 389.023432 918.945299 L 386.445307 916.249986 L 383.789057 913.593736 L 381.054682 911.015611 L 378.203119 908.515611 L 381.054682 906.015611 L 383.789057 903.437487 L 386.445307 900.781237 L 389.023432 898.085924 L 391.484369 895.312487 L 393.867182 892.499987 L 396.171869 889.570299 L 398.398432 886.640612 L 400.507807 883.632799 L 402.578119 880.546862 L 404.531244 877.421862 L 406.445306 874.218737 L 408.242181 870.97655 L 409.960931 867.6953 L 411.640619 864.374987 L 413.203119 860.97655 L 414.726556 857.53905 L 416.171869 854.062487 L 417.539056 850.5078 L 418.828119 846.953112 L 420.078119 843.359362 L 421.249994 839.687487 L 422.382806 835.97655 L 423.437494 832.265613 L 424.414056 828.47655 L 425.351556 824.687488 L 426.249994 820.859363 L 427.070306 816.953113 L 427.851556 813.046863 L 428.554681 809.10155 L 429.218744 805.156238 L 429.843744 801.171863 L 430.390619 797.148426 L 430.937494 793.085926 L 431.874994 784.960926 L 432.265619 780.859363 L 432.617181 776.718738 L 432.929681 772.539051 L 433.242181 768.398426 L 433.710931 760.039051 L 433.906244 755.820301 L 434.062494 751.601551 L 434.179681 747.382801 L 434.257806 743.164051 L 434.414056 734.648427 L 434.414056 730.390614 L 434.453119 726.132802 L 434.335931 713.359364 L 434.257806 709.101552 L 434.218744 704.882802 L 434.101556 700.62499 L 434.023431 696.40624 L 433.906244 692.18749 L 433.789056 687.929677 L 433.671869 683.710927 L 433.320306 671.171865 L 433.164056 667.03124 L 433.046869 662.890615 L 432.812494 654.68749 L 432.734369 650.585928 L 432.617181 646.56249 L 432.460931 638.515615 L 432.382806 634.531241 L 432.343744 630.585928 L 432.304681 626.679678 L 432.304681 615.117178 L 432.343744 611.328116 L 432.421869 607.578116 L 432.539056 603.867179 L 432.656244 600.195304 L 432.812494 596.562491 L 432.968744 592.968741 L 433.164056 589.453116 L 433.437494 585.937491 L 433.710931 582.460929 L 434.023431 579.062491 L 434.374994 575.742179 L 434.765619 572.421866 L 435.195306 569.140617 L 435.664056 565.937492 L 436.171869 562.812492 L 436.757806 559.687492 L 437.343743 556.679679 L 438.007806 553.671867 L 438.710931 550.781242 L 439.492181 547.929679 L 440.273431 545.117179 L 441.171868 542.382804 L 442.070306 539.726554 L 443.085931 537.109367 L 444.101556 534.570305 L 445.195306 532.109367 L 446.367181 529.726555 L 447.578118 527.421867 L 448.906243 525.156242 L 450.234368 523.007805 L 451.679681 520.89843 L 453.164056 518.906242 L 454.726556 516.953117 L 456.367181 515.078117 L 458.085931 513.320305 L 459.882806 511.601555 L 461.757806 509.999992 L 463.710931 508.476555 L 465.742181 507.031242 L 467.851556 505.703117 L 470.039055 504.414055 L 472.343743 503.281243 L 474.687493 502.187493 L 471.36718 503.789055 L 468.203118 505.42968 L 465.117181 507.14843 L 462.148431 508.984367 L 459.296868 510.859367 L 456.523431 512.77343 L 453.906243 514.80468 L 451.367181 516.914055 L 448.945306 519.062492 L 446.640618 521.289055 L 444.414056 523.55468 L 442.304681 525.89843 L 440.273431 528.320305 L 438.359368 530.781242 L 436.523431 533.320305 L 434.765619 535.937492 L 433.124994 538.554679 L 431.562494 541.289054 L 430.078119 544.062492 L 428.710931 546.874992 L 427.382806 549.765617 L 426.171869 552.656242 L 425.039056 555.664054 L 423.945306 558.671867 L 422.929681 561.757804 L 422.031244 564.882804 L 421.171869 568.046867 L 420.351556 571.289054 L 419.648431 574.531241 L 418.984369 577.851554 L 418.398431 581.171866 L 417.851556 584.570304 L 417.382806 588.007804 L 416.992181 591.484366 L 416.640619 594.960929 L 416.328119 598.515616 L 416.054681 602.109366 L 415.859369 605.703116 L 415.703119 609.335928 L 415.585931 613.007803 L 415.507806 616.718741 L 415.468744 620.468741 L 415.507806 624.218741 L 415.546869 628.007803 L 415.624994 631.835928 L 415.742181 635.703116 L 415.898431 639.570303 L 416.093744 643.43749 L 416.289056 647.34374 L 416.523431 651.289053 L 417.070306 659.179678 L 417.382806 663.203115 L 417.695306 667.18749 L 418.749994 679.257802 L 420.312494 695.507802 L 420.742181 699.609365 L 421.132806 703.710927 L 421.562494 707.812489 L 423.124994 724.218739 L 423.476556 728.320302 L 423.867181 732.382802 L 424.179681 736.484364 L 424.531244 740.585926 L 424.843744 744.648426 L 425.156244 748.749989 L 425.390619 752.812489 L 425.664056 756.874989 L 426.249994 768.945301 L 426.367181 772.968738 L 426.484369 776.953113 L 426.523431 780.937488 L 426.562494 784.882801 L 426.562494 788.828113 L 426.523431 792.773426 L 426.289056 800.507801 L 426.093744 804.374988 L 425.859369 808.203113 L 425.546869 812.031238 L 425.234369 815.781238 L 424.843744 819.531238 L 423.906244 826.953113 L 423.320306 830.585925 L 422.695306 834.218738 L 421.992181 837.812488 L 421.249994 841.367175 L 420.429681 844.8828 L 419.531244 848.398425 L 418.554681 851.835925 L 417.499994 855.234362 L 416.406244 858.593737 L 415.195306 861.91405 L 413.906244 865.234362 L 412.578119 868.437487 L 411.132806 871.640612 L 409.609369 874.765612 L 408.007806 877.890612 L 406.289056 880.937487 L 404.492181 883.945299 L 402.617182 886.874987 L 400.624994 889.765612 L 398.554682 892.617174 L 396.406244 895.429674 L 394.140619 898.164049 L 391.718744 900.820299 L 389.257807 903.437487 L 386.679682 906.015611 L 383.984369 908.515611 L 386.679682 911.015611 L 389.257807 913.593736 L 391.718744 916.171861 L 394.140619 918.867174 L 396.406244 921.601549 L 398.554682 924.414049 L 400.624994 927.226549 L 402.617182 930.156236 L 404.492181 933.085924 L 406.289056 936.093736 L 408.007806 939.140611 L 409.609369 942.226548 L 411.132806 945.390611 L 412.578119 948.593736 L 413.906244 951.796861 L 415.195306 955.078111 L 416.406244 958.437486 L 417.499994 961.796861 L 418.554681 965.195298 L 419.531244 968.632798 L 420.429681 972.109361 L 421.249994 975.624985 L 421.992181 979.179673 L 422.695306 982.812485 L 423.320306 986.406235 L 423.906244 990.07811 L 424.374994 993.749985 L 424.843744 997.460923 L 425.234369 1001.210923 L 425.546869 1004.999985 L 425.859369 1008.82811 L 426.093744 1012.656235 L 426.289056 1016.48436 L 426.406244 1020.351547 L 426.523431 1024.257797 L 426.562494 1028.20311 L 426.562494 1032.148422 L 426.523431 1036.093735 L 426.484369 1040.07811 L 426.249994 1048.046859 L 426.054681 1052.070297 L 425.859369 1056.132797 L 425.664056 1060.156234 L 425.390619 1064.218734 L 425.156244 1068.281234 L 424.843744 1072.343734 L 424.531244 1076.445296 L 424.179681 1080.546859 L 423.867181 1084.648421 L 423.476556 1088.710921 L 423.124994 1092.812484 L 421.562494 1109.218733 L 421.132806 1113.320296 L 420.742181 1117.421858 L 420.312494 1121.484358 L 419.921869 1125.585921 L 419.140619 1133.710921 L 418.749994 1137.734358 L 418.398431 1141.796858 L 417.695306 1149.843733 L 417.070306 1157.812483 L 416.796869 1161.796858 L 416.523431 1165.74217 L 416.289056 1169.687483 L 416.093744 1173.593733 L 415.898431 1177.46092 L 415.742181 1181.328107 L 415.624994 1185.195295 L 415.546869 1189.02342 L 415.507806 1192.812482 L 415.468744 1196.562482 L 415.507806 1200.27342 L 415.585931 1203.984357 L 415.703119 1207.656232 L 415.859369 1211.328107 L 416.054681 1214.921857 L 416.328119 1218.515607 L 416.640619 1222.031232 L 416.992181 1225.546857 L 417.382806 1229.023419 L 417.851556 1232.460919 L 418.398431 1235.859357 L 418.984369 1239.179669 L 419.648431 1242.499981 L 420.351556 1245.742169 L 421.171869 1248.984356 L 422.031244 1252.148419 L 422.929681 1255.273419 L 423.945306 1258.359356 L 425.039056 1261.367169 L 426.171869 1264.335919 L 427.382806 1267.304669 L 428.710931 1270.156231 L 430.078119 1272.968731 L 431.562494 1275.742168 L 433.124994 1278.437481 L 434.765619 1281.093731 L 436.523431 1283.710918 L 438.359368 1286.210918 L 440.273431 1288.710918 L 442.304681 1291.132793 L 444.414056 1293.476543 L 446.640618 1295.742168 L 448.945306 1297.968731 L 451.367181 1300.117168 L 453.906243 1302.226543 L 456.523431 1304.218731 L 459.296868 1306.171856 L 462.148431 1308.046856 L 465.117181 1309.84373 L 468.203118 1311.601543 L 471.36718 1313.242168 Z M 474.687493 1314.84373 " transform="matrix(0.2, 0, 0, -0.2, 0, 316)"/>
<path fill-rule="nonzero" fill="rgb(0%, 0%, 0%)" fill-opacity="1" d="M 245.332031 213.714844 C 245.175781 214.464844 245.113281 214.621094 244.175781 214.621094 C 243.894531 214.621094 243.675781 214.621094 243.675781 215.027344 C 243.675781 215.214844 243.769531 215.277344 243.957031 215.277344 C 244.550781 215.277344 245.175781 215.214844 245.769531 215.214844 C 246.488281 215.214844 247.238281 215.277344 247.925781 215.277344 C 248.050781 215.277344 248.332031 215.277344 248.332031 214.839844 C 248.332031 214.621094 248.113281 214.621094 247.800781 214.621094 C 246.707031 214.621094 246.707031 214.464844 246.707031 214.277344 C 246.707031 213.996094 247.644531 210.433594 247.800781 209.902344 C 248.082031 210.527344 248.675781 211.308594 249.800781 211.308594 C 252.332031 211.308594 255.050781 208.121094 255.050781 204.902344 C 255.050781 202.871094 253.800781 201.402344 252.144531 201.402344 C 251.050781 201.402344 250.019531 202.214844 249.300781 203.058594 C 249.082031 201.871094 248.144531 201.402344 247.332031 201.402344 C 246.332031 201.402344 245.925781 202.277344 245.707031 202.652344 C 245.332031 203.402344 245.050781 204.714844 245.050781 204.777344 C 245.050781 204.996094 245.269531 204.996094 245.300781 204.996094 C 245.519531 204.996094 245.550781 204.964844 245.675781 204.496094 C 246.050781 202.933594 246.488281 201.902344 247.269531 201.902344 C 247.644531 201.902344 247.925781 202.058594 247.925781 202.902344 C 247.925781 203.402344 247.863281 203.652344 247.800781 204.027344 Z M 249.175781 204.246094 C 249.332031 203.652344 249.925781 203.058594 250.332031 202.714844 C 251.082031 202.058594 251.707031 201.902344 252.082031 201.902344 C 252.957031 201.902344 253.488281 202.652344 253.488281 203.933594 C 253.488281 205.246094 252.769531 207.746094 252.363281 208.558594 C 251.613281 210.089844 250.582031 210.808594 249.769531 210.808594 C 248.332031 210.808594 248.050781 208.996094 248.050781 208.871094 C 248.050781 208.839844 248.050781 208.777344 248.113281 208.527344 Z M 249.175781 204.246094 "/>
<path fill-rule="nonzero" fill="rgb(0%, 0%, 0%)" fill-opacity="1" d="M 263.683594 211.949219 L 263.183594 211.949219 C 263.152344 212.199219 262.996094 213.261719 262.777344 213.542969 C 262.652344 213.699219 261.433594 213.699219 261.058594 213.699219 L 257.871094 213.699219 L 259.652344 212.011719 C 262.589844 209.480469 263.683594 208.511719 263.683594 206.699219 C 263.683594 204.636719 261.996094 203.199219 259.777344 203.199219 C 257.714844 203.199219 256.308594 204.824219 256.308594 206.449219 C 256.308594 207.355469 257.089844 207.449219 257.246094 207.449219 C 257.652344 207.449219 258.183594 207.167969 258.183594 206.511719 C 258.183594 205.980469 257.808594 205.574219 257.246094 205.574219 C 257.152344 205.574219 257.121094 205.574219 257.027344 205.605469 C 257.464844 204.324219 258.621094 203.761719 259.589844 203.761719 C 261.402344 203.761719 262.027344 205.449219 262.027344 206.699219 C 262.027344 208.511719 260.652344 210.011719 259.808594 210.949219 L 256.527344 214.480469 C 256.308594 214.699219 256.308594 214.730469 256.308594 215.136719 L 263.183594 215.136719 Z M 263.683594 211.949219 "/>
<path fill-rule="nonzero" fill="rgb(100%, 100%, 100%)" fill-opacity="1" d="M 4.695312 219.703125 L 33.976562 219.703125 L 33.976562 246.585938 L 4.695312 246.585938 Z M 4.695312 219.703125 "/>
<path fill-rule="nonzero" fill="rgb(0%, 0%, 0%)" fill-opacity="1" d="M 26.875 231.058594 C 26.875 227.527344 24.5625 225.183594 21.3125 225.183594 C 16.59375 225.183594 11.78125 230.121094 11.78125 235.214844 C 11.78125 238.839844 14.21875 241.027344 17.375 241.027344 C 22 241.027344 26.875 236.246094 26.875 231.058594 Z M 17.5 240.464844 C 15.34375 240.464844 13.8125 238.714844 13.8125 235.839844 C 13.8125 234.871094 14.125 231.683594 15.8125 229.121094 C 17.3125 226.871094 19.4375 225.714844 21.15625 225.714844 C 22.96875 225.714844 24.90625 226.933594 24.90625 230.183594 C 24.90625 231.777344 24.34375 235.183594 22.15625 237.839844 C 21.125 239.183594 19.34375 240.464844 17.5 240.464844 Z M 17.5 240.464844 "/>
<path fill-rule="nonzero" fill="rgb(100%, 100%, 100%)" fill-opacity="1" d="M 342.234375 219.703125 L 365.757812 219.703125 L 365.757812 241.0625 L 342.234375 241.0625 Z M 342.234375 219.703125 "/>
<path fill-rule="nonzero" fill="rgb(0%, 0%, 0%)" fill-opacity="1" d="M 358.480469 226.914062 C 358.480469 225.757812 357.917969 225.382812 357.511719 225.382812 C 356.980469 225.382812 356.449219 225.976562 356.449219 226.445312 C 356.449219 226.726562 356.542969 226.851562 356.792969 227.101562 C 357.261719 227.539062 357.542969 228.101562 357.542969 228.882812 C 357.542969 229.789062 356.199219 234.789062 353.636719 234.789062 C 352.542969 234.789062 352.042969 234.039062 352.042969 232.914062 C 352.042969 231.695312 352.636719 230.101562 353.292969 228.289062 C 353.449219 227.914062 353.574219 227.601562 353.574219 227.195312 C 353.574219 226.195312 352.855469 225.382812 351.761719 225.382812 C 349.730469 225.382812 348.886719 228.570312 348.886719 228.757812 C 348.886719 228.976562 349.105469 228.976562 349.167969 228.976562 C 349.386719 228.976562 349.386719 228.945312 349.511719 228.570312 C 350.136719 226.382812 351.074219 225.882812 351.699219 225.882812 C 351.886719 225.882812 352.261719 225.882812 352.261719 226.570312 C 352.261719 227.132812 352.042969 227.695312 351.886719 228.101562 C 350.917969 230.632812 350.636719 231.632812 350.636719 232.570312 C 350.636719 234.945312 352.574219 235.289062 353.574219 235.289062 C 357.230469 235.289062 358.480469 228.070312 358.480469 226.914062 Z M 358.480469 226.914062 "/>
<path fill-rule="nonzero" fill="rgb(100%, 100%, 100%)" fill-opacity="1" d="M 10.9375 -5.273438 L 33.976562 -5.273438 L 33.976562 20.40625 L 10.9375 20.40625 Z M 10.9375 -5.273438 "/>
<path fill-rule="nonzero" fill="rgb(0%, 0%, 0%)" fill-opacity="1" d="M 17.929688 12.957031 C 17.773438 13.707031 17.710938 13.863281 16.773438 13.863281 C 16.492188 13.863281 16.273438 13.863281 16.273438 14.269531 C 16.273438 14.457031 16.367188 14.519531 16.554688 14.519531 C 17.148438 14.519531 17.773438 14.457031 18.367188 14.457031 C 19.085938 14.457031 19.835938 14.519531 20.523438 14.519531 C 20.648438 14.519531 20.929688 14.519531 20.929688 14.082031 C 20.929688 13.863281 20.710938 13.863281 20.398438 13.863281 C 19.304688 13.863281 19.304688 13.707031 19.304688 13.519531 C 19.304688 13.238281 20.242188 9.675781 20.398438 9.144531 C 20.679688 9.769531 21.273438 10.550781 22.398438 10.550781 C 24.929688 10.550781 27.648438 7.363281 27.648438 4.144531 C 27.648438 2.113281 26.398438 0.644531 24.742188 0.644531 C 23.648438 0.644531 22.617188 1.457031 21.898438 2.300781 C 21.679688 1.113281 20.742188 0.644531 19.929688 0.644531 C 18.929688 0.644531 18.523438 1.519531 18.304688 1.894531 C 17.929688 2.644531 17.648438 3.957031 17.648438 4.019531 C 17.648438 4.238281 17.867188 4.238281 17.898438 4.238281 C 18.117188 4.238281 18.148438 4.207031 18.273438 3.738281 C 18.648438 2.175781 19.085938 1.144531 19.867188 1.144531 C 20.242188 1.144531 20.523438 1.300781 20.523438 2.144531 C 20.523438 2.644531 20.460938 2.894531 20.398438 3.269531 Z M 21.773438 3.488281 C 21.929688 2.894531 22.523438 2.300781 22.929688 1.957031 C 23.679688 1.300781 24.304688 1.144531 24.679688 1.144531 C 25.554688 1.144531 26.085938 1.894531 26.085938 3.175781 C 26.085938 4.488281 25.367188 6.988281 24.960938 7.800781 C 24.210938 9.332031 23.179688 10.050781 22.367188 10.050781 C 20.929688 10.050781 20.648438 8.238281 20.648438 8.113281 C 20.648438 8.082031 20.648438 8.019531 20.710938 7.769531 Z M 21.773438 3.488281 "/>
<path fill="none" stroke-width="11.9553" stroke-linecap="butt" stroke-linejoin="miter" stroke="rgb(0%, 0%, 0%)" stroke-opacity="1" stroke-miterlimit="10" d="M 8.007812 481.601555 L 1790.039036 481.601555 " transform="matrix(0.2, 0, 0, -0.2, 0, 316)"/>
<path fill="none" stroke-width="11.9553" stroke-linecap="butt" stroke-linejoin="miter" stroke="rgb(0%, 0%, 0%)" stroke-opacity="1" stroke-miterlimit="10" d="M 169.999997 481.601555 L 169.999997 1561.601539 " transform="matrix(0.2, 0, 0, -0.2, 0, 316)"/>
<path fill-rule="nonzero" fill="rgb(0%, 0%, 0%)" fill-opacity="1" d="M 151.597656 308.179688 C 152.785156 307.773438 154.785156 307.179688 154.785156 305.242188 C 154.785156 302.929688 152.066406 301.867188 150.097656 301.867188 C 149.160156 301.867188 148.191406 302.085938 147.347656 302.585938 C 147.222656 302.648438 147.066406 302.835938 146.910156 302.835938 C 146.597656 302.835938 146.035156 301.867188 145.722656 301.867188 C 145.535156 301.867188 145.503906 302.085938 145.503906 302.179688 L 145.503906 305.742188 C 145.503906 305.867188 145.597656 306.023438 145.785156 306.023438 C 146.097656 306.023438 146.066406 305.398438 146.160156 305.054688 C 146.628906 303.335938 148.191406 302.585938 149.691406 302.492188 L 150.097656 302.492188 C 151.441406 302.492188 153.003906 303.367188 153.003906 305.242188 C 153.003906 307.054688 151.222656 307.992188 149.566406 307.992188 C 149.253906 307.992188 148.941406 307.992188 148.628906 307.992188 L 148.472656 307.992188 C 148.285156 307.992188 148.066406 307.992188 148.066406 308.210938 L 148.066406 308.242188 C 148.097656 308.429688 148.285156 308.460938 148.472656 308.460938 L 150.316406 308.460938 C 151.878906 308.585938 153.316406 309.617188 153.472656 311.242188 L 153.472656 311.460938 C 153.472656 313.304688 151.753906 314.460938 150.003906 314.460938 C 148.097656 314.460938 146.128906 313.835938 145.816406 311.460938 C 145.816406 311.304688 145.753906 311.117188 145.535156 311.117188 C 145.316406 311.148438 145.285156 311.304688 145.285156 311.460938 C 145.285156 314.054688 147.878906 315.085938 150.128906 315.085938 C 152.191406 315.085938 155.066406 314.117188 155.316406 311.648438 L 155.316406 311.523438 C 155.316406 309.554688 153.253906 308.585938 151.597656 308.179688 Z M 151.597656 308.179688 "/>
<path fill-rule="nonzero" fill="rgb(0%, 0%, 0%)" fill-opacity="1" d="M 163.695312 301.867188 C 160.320312 302.273438 157.632812 304.929688 157.632812 308.523438 C 157.632812 311.804688 160.226562 315.054688 164.101562 315.054688 C 167.601562 315.054688 170.570312 312.148438 170.570312 308.523438 C 170.570312 305.335938 168.070312 301.867188 164.132812 301.867188 C 164.007812 301.867188 163.851562 301.867188 163.695312 301.867188 Z M 159.507812 308.742188 L 159.507812 308.398438 C 159.507812 305.898438 160.414062 302.960938 163.570312 302.429688 C 163.757812 302.398438 163.914062 302.398438 164.101562 302.398438 C 166.914062 302.398438 168.664062 305.117188 168.664062 308.148438 C 168.664062 310.554688 167.945312 313.617188 164.976562 314.398438 C 164.695312 314.460938 164.414062 314.492188 164.132812 314.492188 L 163.945312 314.492188 C 161.351562 314.398438 159.945312 311.929688 159.601562 309.523438 Z M 159.507812 308.742188 "/>
<path fill-rule="nonzero" fill="rgb(0%, 0%, 0%)" fill-opacity="1" d="M 173.027344 302.210938 L 173.027344 302.804688 L 173.464844 302.804688 C 174.058594 302.804688 174.683594 302.898438 174.683594 303.773438 L 174.683594 313.242188 C 174.683594 314.085938 173.964844 314.117188 173.308594 314.117188 L 173.027344 314.117188 L 173.027344 314.710938 L 178.808594 314.710938 C 179.214844 314.710938 179.589844 314.742188 179.996094 314.742188 C 181.996094 314.742188 184.339844 313.804688 184.558594 311.398438 L 184.558594 311.210938 C 184.558594 308.679688 181.683594 307.648438 179.777344 307.648438 C 178.527344 307.648438 177.339844 307.773438 176.152344 307.867188 L 176.152344 303.648438 C 176.152344 303.210938 176.214844 302.804688 176.996094 302.804688 L 179.308594 302.804688 C 180.277344 302.804688 181.371094 302.867188 182.089844 303.585938 C 182.777344 304.304688 182.871094 305.523438 182.964844 306.460938 L 183.496094 306.460938 L 183.027344 302.210938 Z M 176.152344 308.492188 C 176.402344 308.492188 176.652344 308.429688 176.902344 308.398438 L 178.277344 308.335938 C 178.558594 308.304688 178.839844 308.273438 179.152344 308.273438 C 180.714844 308.273438 182.683594 309.273438 182.683594 311.117188 C 182.683594 312.867188 181.339844 314.148438 179.339844 314.148438 C 179.058594 314.148438 178.746094 314.117188 178.496094 314.117188 L 176.964844 314.117188 C 176.496094 314.117188 176.246094 314.085938 176.152344 313.460938 Z M 176.152344 308.492188 "/>
<path fill-rule="nonzero" fill="rgb(0%, 0%, 0%)" fill-opacity="1" d="M 186.90625 302.210938 L 186.90625 302.804688 L 187.375 302.804688 C 187.96875 302.804688 188.5625 302.898438 188.5625 303.773438 L 188.5625 313.242188 C 188.5625 314.085938 187.875 314.117188 187.1875 314.117188 L 186.90625 314.117188 L 186.90625 314.710938 L 191.8125 314.710938 L 191.8125 314.117188 L 191.375 314.117188 C 190.75 314.117188 190.15625 314.054688 190.15625 313.179688 L 190.15625 308.992188 L 193.875 308.992188 C 195.65625 308.867188 197.9375 307.679688 197.9375 305.648438 C 197.9375 303.429688 195.59375 302.367188 193.6875 302.210938 Z M 190.125 308.460938 L 190.125 303.460938 C 190.21875 302.867188 190.46875 302.804688 190.875 302.804688 L 192.3125 302.804688 C 193.9375 302.804688 196.0625 302.867188 196.0625 305.648438 C 196.0625 306.304688 195.96875 306.992188 195.5625 307.492188 C 194.90625 308.273438 193.8125 308.460938 192.84375 308.460938 Z M 190.125 308.460938 "/>
<path fill-rule="nonzero" fill="rgb(0%, 0%, 0%)" fill-opacity="1" d="M 202.632812 312.429688 C 202.132812 312.523438 201.632812 312.960938 201.632812 313.554688 C 201.632812 314.179688 202.164062 314.710938 202.789062 314.710938 C 203.414062 314.710938 203.976562 314.242188 203.976562 313.585938 C 203.976562 312.960938 203.445312 312.398438 202.820312 312.398438 C 202.757812 312.398438 202.695312 312.429688 202.632812 312.429688 Z M 202.632812 312.429688 "/>
<path fill-rule="nonzero" fill="rgb(0%, 0%, 0%)" fill-opacity="1" d="M 217.410156 311.773438 C 217.503906 311.804688 217.660156 311.835938 217.816406 311.835938 C 218.472656 311.835938 218.847656 311.335938 218.847656 310.742188 C 218.847656 310.148438 218.378906 309.710938 217.816406 309.710938 C 217.222656 309.710938 216.722656 310.148438 216.722656 310.835938 C 216.722656 313.148438 218.628906 315.210938 221.191406 315.210938 C 224.097656 315.210938 226.472656 312.867188 226.472656 309.898438 C 226.472656 307.523438 225.128906 305.460938 222.722656 304.773438 C 222.472656 304.710938 222.191406 304.710938 221.910156 304.710938 C 220.660156 304.710938 219.535156 305.117188 218.660156 306.023438 L 218.660156 301.023438 C 219.410156 301.148438 220.097656 301.367188 220.878906 301.367188 C 222.472656 301.367188 224.066406 300.773438 225.253906 299.492188 C 225.378906 299.335938 225.535156 299.242188 225.535156 299.054688 L 225.535156 299.023438 C 225.503906 298.898438 225.410156 298.835938 225.316406 298.835938 C 225.253906 298.835938 225.253906 298.835938 225.191406 298.867188 C 224.035156 299.273438 223.035156 299.585938 221.816406 299.585938 C 220.753906 299.585938 219.628906 299.429688 218.660156 298.992188 C 218.535156 298.929688 218.441406 298.867188 218.285156 298.835938 L 218.222656 298.835938 C 218.128906 298.835938 218.035156 298.929688 218.035156 299.054688 L 218.035156 306.648438 C 218.035156 306.867188 218.066406 307.054688 218.316406 307.054688 C 218.597656 307.054688 218.753906 306.617188 218.941406 306.429688 C 219.691406 305.648438 220.691406 305.210938 221.785156 305.179688 C 222.941406 305.179688 223.660156 305.960938 224.097656 306.898438 C 224.535156 307.835938 224.535156 308.992188 224.535156 310.023438 C 224.535156 311.679688 224.191406 313.429688 222.472656 314.273438 C 222.035156 314.492188 221.566406 314.585938 221.128906 314.585938 C 219.410156 314.585938 217.910156 313.398438 217.410156 311.773438 Z M 217.410156 311.773438 "/>
<path fill-rule="nonzero" fill="rgb(0%, 0%, 0%)" fill-opacity="1" d="M 232.902344 306.648438 C 231.371094 307.585938 229.214844 308.492188 229.214844 311.117188 C 229.214844 313.617188 231.652344 315.210938 234.277344 315.210938 C 236.589844 315.210938 239.371094 313.773438 239.371094 310.835938 C 239.371094 309.835938 239.058594 308.898438 238.433594 308.148438 C 237.683594 307.242188 236.589844 306.742188 235.621094 306.085938 C 237.089844 305.429688 238.683594 304.179688 238.683594 302.335938 C 238.683594 300.054688 236.496094 298.960938 234.621094 298.835938 L 234.339844 298.835938 C 232.183594 298.835938 229.902344 300.273438 229.902344 302.742188 C 229.902344 304.492188 231.183594 305.804688 232.902344 306.648438 Z M 230.308594 311.367188 C 230.308594 311.273438 230.308594 311.179688 230.308594 311.085938 C 230.308594 309.367188 231.652344 307.992188 233.058594 307.179688 C 233.152344 307.148438 233.277344 307.054688 233.402344 307.054688 C 233.589844 307.054688 233.746094 307.179688 233.871094 307.273438 C 234.621094 307.773438 235.402344 308.273438 236.183594 308.742188 C 237.152344 309.367188 238.277344 310.117188 238.277344 311.335938 C 238.277344 313.460938 236.214844 314.585938 234.339844 314.585938 C 232.496094 314.585938 230.621094 313.460938 230.308594 311.367188 Z M 230.902344 302.085938 C 230.902344 300.273438 232.652344 299.398438 234.246094 299.398438 C 235.871094 299.398438 237.433594 300.335938 237.714844 302.148438 L 237.714844 302.367188 C 237.714844 303.804688 236.527344 304.992188 235.433594 305.585938 C 235.339844 305.648438 235.246094 305.742188 235.121094 305.742188 C 234.902344 305.742188 234.277344 305.242188 233.902344 305.023438 C 232.714844 304.210938 231.121094 303.585938 230.902344 302.085938 Z M 230.902344 302.085938 "/>
<path fill-rule="nonzero" fill="rgb(0%, 0%, 0%)" fill-opacity="1" d="M 244.140625 312.429688 C 243.640625 312.523438 243.140625 312.960938 243.140625 313.554688 C 243.140625 314.179688 243.671875 314.710938 244.296875 314.710938 C 244.921875 314.710938 245.484375 314.242188 245.484375 313.585938 C 245.484375 312.960938 244.953125 312.398438 244.328125 312.398438 C 244.265625 312.398438 244.203125 312.429688 244.140625 312.429688 Z M 244.140625 312.429688 "/>
</svg>
