<?xml version="1.0" encoding="UTF-8"?>
<svg xmlns="http://www.w3.org/2000/svg" xmlns:xlink="http://www.w3.org/1999/xlink" width="484" height="208" viewBox="0 0 484 208">
<path fill="none" stroke-width="11.9553" stroke-linecap="butt" stroke-linejoin="miter" stroke="rgb(0%, 0%, 0%)" stroke-opacity="1" stroke-miterlimit="10" d="M 173.203122 255.312496 L 225.039059 316.01562 L 276.874996 373.632807 L 328.710933 428.124994 L 380.546869 479.49218 L 432.382806 527.77343 L 484.257805 572.890616 L 536.093742 614.960928 L 587.929679 653.867178 L 639.765615 689.648427 L 691.601552 722.343739 L 743.437489 751.953114 L 795.273426 778.398426 L 847.109362 801.757801 L 898.984362 821.992175 L 950.820298 839.140612 L 1002.656235 853.124987 L 1054.492172 864.023425 L 1106.328109 871.796862 L 1158.164045 876.484362 L 1209.999982 878.046862 L 1261.874981 876.484362 L 1313.671855 871.796862 L 1365.546855 864.023425 L 1417.382791 853.124987 L 1469.218728 839.140612 L 1521.054665 821.992175 L 1572.890602 801.757801 L 1624.726538 778.398426 L 1676.562475 751.953114 L 1728.437474 722.343739 L 1780.273411 689.648427 L 1832.109348 653.867178 L 1883.945284 614.960928 L 1935.781221 572.890616 L 1987.617158 527.77343 L 2039.453095 479.49218 L 2091.289031 428.124994 L 2143.124968 373.632807 L 2194.960905 316.01562 L 2246.835904 255.312496 " transform="matrix(0.2, 0, 0, -0.2, 0, 208)"/>
<path fill="none" stroke-width="11.9553" stroke-linecap="butt" stroke-linejoin="miter" stroke="rgb(0%, 0%, 0%)" stroke-opacity="1" stroke-miterlimit="10" d="M 561.992179 445.585931 L 561.992179 634.765616 " transform="matrix(0.2, 0, 0, -0.2, 0, 208)"/>
<path fill="none" stroke-width="11.9553" stroke-linecap="butt" stroke-linejoin="miter" stroke="rgb(0%, 0%, 0%)" stroke-opacity="1" stroke-miterlimit="10" d="M 778.007801 445.585931 L 778.007801 769.921864 " transform="matrix(0.2, 0, 0, -0.2, 0, 208)"/>
<path fill="none" stroke-width="11.9553" stroke-linecap="butt" stroke-linejoin="miter" stroke="rgb(0%, 0%, 0%)" stroke-opacity="1" stroke-miterlimit="10" d="M 994.023423 445.585931 L 994.023423 851.015612 " transform="matrix(0.2, 0, 0, -0.2, 0, 208)"/>
<path fill="none" stroke-width="11.9553" stroke-linecap="butt" stroke-linejoin="miter" stroke="rgb(0%, 0%, 0%)" stroke-opacity="1" stroke-miterlimit="10" d="M 1209.999982 445.585931 L 1209.999982 878.046862 " transform="matrix(0.2, 0, 0, -0.2, 0, 208)"/>
<path fill="none" stroke-width="11.9553" stroke-linecap="butt" stroke-linejoin="miter" stroke="rgb(0%, 0%, 0%)" stroke-opacity="1" stroke-miterlimit="10" d="M 1426.015604 445.585931 L 1426.015604 851.015612 " transform="matrix(0.2, 0, 0, -0.2, 0, 208)"/>
<path fill="none" stroke-width="11.9553" stroke-linecap="butt" stroke-linejoin="miter" stroke="rgb(0%, 0%, 0%)" stroke-opacity="1" stroke-miterlimit="10" d="M 1642.031226 445.585931 L 1642.031226 769.921864 " transform="matrix(0.2, 0, 0, -0.2, 0, 208)"/>
<path fill="none" stroke-width="11.9553" stroke-linecap="butt" stroke-linejoin="miter" stroke="rgb(0%, 0%, 0%)" stroke-opacity="1" stroke-miterlimit="10" d="M 1858.007785 445.585931 L 1858.007785 634.765616 " transform="matrix(0.2, 0, 0, -0.2, 0, 208)"/>
<path fill-rule="nonzero" fill="rgb(0%, 0%, 0%)" fill-opacity="1" d="M 431.304688 98.316406 C 431.523438 97.441406 431.898438 96.753906 433.648438 96.691406 C 433.773438 96.691406 434.023438 96.660156 434.023438 96.253906 C 434.023438 96.222656 434.023438 96.003906 433.742188 96.003906 C 433.023438 96.003906 432.242188 96.066406 431.523438 96.066406 C 430.804688 96.066406 430.023438 96.003906 429.304688 96.003906 C 429.179688 96.003906 428.929688 96.003906 428.929688 96.441406 C 428.929688 96.691406 429.148438 96.691406 429.304688 96.691406 C 430.554688 96.722656 430.804688 97.160156 430.804688 97.660156 C 430.804688 97.722656 430.742188 98.035156 430.742188 98.097656 L 428.273438 107.816406 L 423.460938 96.441406 C 423.304688 96.035156 423.273438 96.003906 422.773438 96.003906 L 419.835938 96.003906 C 419.398438 96.003906 419.210938 96.003906 419.210938 96.441406 C 419.210938 96.691406 419.398438 96.691406 419.835938 96.691406 C 419.929688 96.691406 421.304688 96.691406 421.304688 96.878906 L 418.367188 108.597656 C 418.148438 109.472656 417.804688 110.160156 416.023438 110.222656 C 415.898438 110.222656 415.648438 110.253906 415.648438 110.660156 C 415.648438 110.816406 415.773438 110.910156 415.929688 110.910156 C 416.648438 110.910156 417.398438 110.847656 418.117188 110.847656 C 418.867188 110.847656 419.648438 110.910156 420.367188 110.910156 C 420.460938 110.910156 420.773438 110.910156 420.773438 110.472656 C 420.773438 110.253906 420.554688 110.222656 420.335938 110.222656 C 419.054688 110.191406 418.898438 109.722656 418.898438 109.285156 C 418.898438 109.128906 418.898438 109.003906 418.960938 108.785156 L 421.835938 97.253906 C 421.929688 97.378906 421.929688 97.441406 422.054688 97.660156 L 427.492188 110.503906 C 427.617188 110.878906 427.710938 110.910156 427.898438 110.910156 C 428.117188 110.910156 428.117188 110.847656 428.242188 110.441406 Z M 431.304688 98.316406 "/>
<path fill-rule="nonzero" fill="rgb(0%, 0%, 0%)" fill-opacity="1" d="M 250.429688 11.203125 C 250.648438 10.421875 250.679688 10.203125 252.304688 10.203125 C 252.804688 10.203125 253.023438 10.203125 253.023438 9.765625 C 253.023438 9.515625 252.804688 9.515625 252.429688 9.515625 L 249.554688 9.515625 C 248.992188 9.515625 248.960938 9.515625 248.710938 9.953125 L 240.742188 22.359375 L 239.023438 10.015625 C 238.960938 9.515625 238.929688 9.515625 238.367188 9.515625 L 235.367188 9.515625 C 234.960938 9.515625 234.710938 9.515625 234.710938 9.953125 C 234.710938 10.203125 234.898438 10.203125 235.335938 10.203125 C 235.617188 10.203125 236.023438 10.234375 236.273438 10.234375 C 236.648438 10.296875 236.773438 10.359375 236.773438 10.578125 C 236.773438 10.671875 236.742188 10.734375 236.679688 11.015625 L 233.898438 22.109375 C 233.679688 22.984375 233.304688 23.671875 231.554688 23.734375 C 231.429688 23.734375 231.148438 23.765625 231.148438 24.171875 C 231.148438 24.359375 231.304688 24.421875 231.460938 24.421875 C 232.148438 24.421875 232.929688 24.359375 233.648438 24.359375 C 234.398438 24.359375 235.179688 24.421875 235.898438 24.421875 C 235.992188 24.421875 236.273438 24.421875 236.273438 23.984375 C 236.273438 23.734375 236.054688 23.734375 235.898438 23.734375 C 234.648438 23.734375 234.398438 23.296875 234.398438 22.796875 C 234.398438 22.640625 234.429688 22.515625 234.492188 22.296875 L 237.460938 10.390625 L 237.492188 10.390625 L 239.367188 23.921875 C 239.398438 24.171875 239.429688 24.421875 239.679688 24.421875 C 239.929688 24.421875 240.054688 24.171875 240.179688 24.015625 L 248.992188 10.234375 L 245.867188 22.734375 C 245.648438 23.578125 245.617188 23.734375 243.898438 23.734375 C 243.523438 23.734375 243.273438 23.734375 243.273438 24.171875 C 243.273438 24.421875 243.554688 24.421875 243.617188 24.421875 C 244.210938 24.421875 245.710938 24.359375 246.304688 24.359375 C 247.210938 24.359375 248.148438 24.421875 249.054688 24.421875 C 249.179688 24.421875 249.460938 24.421875 249.460938 23.984375 C 249.460938 23.734375 249.273438 23.734375 248.835938 23.734375 C 248.054688 23.734375 247.429688 23.734375 247.429688 23.359375 C 247.429688 23.265625 247.429688 23.234375 247.554688 22.828125 Z M 250.429688 11.203125 "/>
<path fill-rule="nonzero" fill="rgb(100%, 100%, 100%)" fill-opacity="1" d="M 230.460938 145.578125 L 253.5 145.578125 L 253.5 171.734375 L 230.460938 171.734375 Z M 230.460938 145.578125 "/>
<path fill-rule="nonzero" fill="rgb(0%, 0%, 0%)" fill-opacity="1" d="M 242.886719 151.742188 C 242.886719 151.242188 242.886719 151.179688 242.386719 151.179688 C 241.042969 152.585938 239.105469 152.585938 238.417969 152.585938 L 238.417969 153.242188 C 238.855469 153.242188 240.136719 153.242188 241.292969 152.679688 L 241.292969 163.992188 C 241.292969 164.773438 241.199219 165.023438 239.261719 165.023438 L 238.542969 165.023438 L 238.542969 165.710938 C 239.324219 165.648438 241.199219 165.648438 242.074219 165.648438 C 242.949219 165.648438 244.855469 165.648438 245.605469 165.710938 L 245.605469 165.023438 L 244.917969 165.023438 C 242.949219 165.023438 242.886719 164.804688 242.886719 163.992188 Z M 242.886719 151.742188 "/>
<path fill-rule="nonzero" fill="rgb(0%, 0%, 0%)" fill-opacity="1" d="M 73.1875 122.867188 L 73.414062 123.351562 L 73.6875 123.828125 L 74.03125 124.28125 L 74.414062 124.71875 L 74.859375 125.140625 L 75.351562 125.539062 L 75.890625 125.929688 L 76.484375 126.296875 L 77.125 126.648438 L 77.8125 126.992188 L 78.546875 127.3125 L 79.328125 127.625 L 80.15625 127.914062 L 81.023438 128.195312 L 81.9375 128.46875 L 82.898438 128.71875 L 83.890625 128.960938 L 84.929688 129.1875 L 86.007812 129.40625 L 87.125 129.601562 L 88.28125 129.796875 L 89.46875 129.976562 L 90.703125 130.140625 L 91.960938 130.296875 L 93.257812 130.445312 L 94.59375 130.578125 L 95.953125 130.710938 L 97.351562 130.820312 L 98.78125 130.929688 L 100.234375 131.03125 L 101.71875 131.117188 L 103.234375 131.195312 L 104.773438 131.273438 L 106.335938 131.335938 L 107.929688 131.390625 L 109.546875 131.445312 L 111.1875 131.484375 L 112.851562 131.523438 L 114.539062 131.554688 L 116.242188 131.578125 L 117.96875 131.601562 L 119.71875 131.609375 L 121.476562 131.625 L 123.257812 131.625 L 125.054688 131.632812 L 126.875 131.625 L 128.703125 131.617188 L 130.539062 131.609375 L 132.398438 131.59375 L 134.265625 131.578125 L 136.148438 131.5625 L 138.03125 131.539062 L 139.929688 131.515625 L 141.835938 131.492188 L 143.757812 131.46875 L 145.671875 131.445312 L 147.601562 131.421875 L 149.539062 131.390625 L 151.46875 131.367188 L 153.414062 131.335938 L 155.351562 131.3125 L 157.296875 131.289062 L 159.242188 131.273438 L 161.179688 131.25 L 163.125 131.234375 L 165.0625 131.21875 L 167.007812 131.203125 L 170.867188 131.1875 L 176.609375 131.1875 L 178.515625 131.203125 L 180.40625 131.21875 L 182.289062 131.234375 L 184.15625 131.265625 L 186.015625 131.296875 L 187.859375 131.335938 L 189.6875 131.382812 L 191.507812 131.429688 L 193.3125 131.492188 L 195.09375 131.5625 L 196.859375 131.632812 L 198.609375 131.710938 L 200.34375 131.804688 L 202.054688 131.90625 L 203.742188 132.015625 L 205.40625 132.132812 L 207.054688 132.265625 L 208.679688 132.398438 L 210.28125 132.546875 L 211.851562 132.710938 L 213.398438 132.875 L 214.914062 133.0625 L 216.40625 133.25 L 217.867188 133.453125 L 219.296875 133.671875 L 220.703125 133.90625 L 222.070312 134.148438 L 223.414062 134.40625 L 224.71875 134.671875 L 225.984375 134.960938 L 227.21875 135.257812 L 228.421875 135.570312 L 229.585938 135.898438 L 230.710938 136.234375 L 231.796875 136.59375 L 232.84375 136.96875 L 233.851562 137.359375 L 234.8125 137.765625 L 235.742188 138.1875 L 236.617188 138.632812 L 237.453125 139.085938 L 238.242188 139.5625 L 238.992188 140.054688 L 239.6875 140.570312 L 240.34375 141.09375 L 240.945312 141.648438 L 241.5 142.210938 L 242 142.804688 L 242.507812 142.210938 L 243.054688 141.648438 L 243.664062 141.09375 L 244.3125 140.570312 L 245.015625 140.054688 L 245.757812 139.5625 L 246.546875 139.085938 L 247.382812 138.632812 L 248.265625 138.1875 L 249.1875 137.765625 L 250.15625 137.359375 L 251.15625 136.96875 L 252.210938 136.59375 L 253.296875 136.234375 L 254.421875 135.898438 L 255.578125 135.570312 L 256.78125 135.257812 L 258.015625 134.960938 L 259.289062 134.671875 L 260.59375 134.40625 L 261.929688 134.148438 L 263.304688 133.90625 L 264.703125 133.671875 L 266.132812 133.453125 L 267.601562 133.25 L 269.09375 133.0625 L 270.609375 132.875 L 272.15625 132.710938 L 273.726562 132.546875 L 275.328125 132.398438 L 276.945312 132.265625 L 278.59375 132.132812 L 280.257812 132.015625 L 281.953125 131.90625 L 283.664062 131.804688 L 285.390625 131.710938 L 287.140625 131.632812 L 288.914062 131.5625 L 290.695312 131.492188 L 292.492188 131.429688 L 294.3125 131.382812 L 296.148438 131.335938 L 297.992188 131.296875 L 299.851562 131.265625 L 301.71875 131.234375 L 303.601562 131.21875 L 305.492188 131.203125 L 307.390625 131.1875 L 313.140625 131.1875 L 317 131.203125 L 318.9375 131.21875 L 320.882812 131.234375 L 322.820312 131.25 L 324.765625 131.273438 L 326.710938 131.289062 L 328.648438 131.3125 L 330.59375 131.335938 L 332.53125 131.367188 L 334.46875 131.390625 L 336.398438 131.421875 L 338.328125 131.445312 L 340.25 131.46875 L 342.164062 131.492188 L 344.070312 131.515625 L 345.96875 131.539062 L 347.859375 131.5625 L 349.742188 131.578125 L 351.609375 131.59375 L 353.460938 131.609375 L 355.304688 131.617188 L 357.132812 131.625 L 358.945312 131.632812 L 360.742188 131.625 L 362.523438 131.625 L 364.289062 131.609375 L 366.03125 131.601562 L 367.765625 131.578125 L 369.46875 131.554688 L 371.148438 131.523438 L 372.8125 131.484375 L 374.460938 131.445312 L 376.070312 131.390625 L 377.671875 131.335938 L 379.234375 131.273438 L 380.773438 131.195312 L 382.289062 131.117188 L 383.773438 131.03125 L 385.226562 130.929688 L 386.65625 130.820312 L 388.046875 130.710938 L 389.414062 130.578125 L 390.742188 130.445312 L 392.039062 130.296875 L 393.304688 130.140625 L 394.53125 129.976562 L 395.71875 129.796875 L 396.875 129.601562 L 397.992188 129.40625 L 399.070312 129.1875 L 400.109375 128.960938 L 401.109375 128.71875 L 402.0625 128.46875 L 402.976562 128.195312 L 403.851562 127.914062 L 404.679688 127.625 L 405.453125 127.3125 L 406.195312 126.992188 L 406.882812 126.648438 L 407.523438 126.296875 L 408.109375 125.929688 L 408.65625 125.539062 L 409.148438 125.140625 L 409.59375 124.71875 L 409.976562 124.28125 L 410.3125 123.828125 L 410.59375 123.351562 L 410.820312 122.867188 L 410.492188 123.554688 L 410.125 124.210938 L 409.695312 124.851562 L 409.21875 125.460938 L 408.6875 126.054688 L 408.117188 126.617188 L 407.492188 127.164062 L 406.828125 127.6875 L 406.117188 128.1875 L 405.359375 128.664062 L 404.554688 129.125 L 403.710938 129.5625 L 402.820312 129.976562 L 401.890625 130.375 L 400.921875 130.757812 L 399.914062 131.109375 L 398.867188 131.453125 L 397.773438 131.773438 L 396.65625 132.078125 L 395.492188 132.367188 L 394.296875 132.640625 L 393.070312 132.890625 L 391.804688 133.132812 L 390.507812 133.351562 L 389.179688 133.554688 L 387.820312 133.75 L 386.429688 133.929688 L 385.015625 134.085938 L 383.5625 134.242188 L 382.09375 134.375 L 380.585938 134.492188 L 379.054688 134.609375 L 377.507812 134.703125 L 375.929688 134.789062 L 374.328125 134.859375 L 372.703125 134.929688 L 371.054688 134.976562 L 369.382812 135.023438 L 367.695312 135.054688 L 365.992188 135.078125 L 364.265625 135.09375 L 362.523438 135.101562 L 360.757812 135.09375 L 358.984375 135.085938 L 357.195312 135.070312 L 355.390625 135.046875 L 353.570312 135.015625 L 351.742188 134.976562 L 349.898438 134.929688 L 348.046875 134.882812 L 346.179688 134.828125 L 344.304688 134.773438 L 342.429688 134.703125 L 340.539062 134.640625 L 338.648438 134.570312 L 336.742188 134.492188 L 334.835938 134.421875 L 332.929688 134.34375 L 331.015625 134.257812 L 327.1875 134.101562 L 325.265625 134.015625 L 321.4375 133.84375 L 319.515625 133.765625 L 317.609375 133.679688 L 313.796875 133.523438 L 311.898438 133.445312 L 310.007812 133.367188 L 306.242188 133.226562 L 304.375 133.164062 L 302.515625 133.101562 L 300.671875 133.046875 L 298.828125 133 L 297.007812 132.953125 L 295.195312 132.914062 L 293.398438 132.875 L 291.609375 132.851562 L 289.84375 132.828125 L 288.09375 132.8125 L 284.640625 132.8125 L 282.945312 132.820312 L 281.265625 132.84375 L 279.609375 132.867188 L 277.96875 132.90625 L 276.359375 132.953125 L 274.765625 133.015625 L 273.203125 133.085938 L 271.65625 133.164062 L 270.140625 133.257812 L 268.648438 133.359375 L 267.1875 133.484375 L 265.757812 133.609375 L 264.351562 133.75 L 262.96875 133.90625 L 261.632812 134.078125 L 260.3125 134.265625 L 259.039062 134.46875 L 257.789062 134.679688 L 256.570312 134.914062 L 255.398438 135.15625 L 254.257812 135.421875 L 253.148438 135.703125 L 252.078125 136 L 251.054688 136.3125 L 250.0625 136.648438 L 249.109375 137 L 248.203125 137.367188 L 247.335938 137.757812 L 246.507812 138.164062 L 245.726562 138.59375 L 244.992188 139.039062 L 244.296875 139.515625 L 243.65625 140 L 243.054688 140.515625 L 242.507812 141.054688 L 242 141.609375 L 241.5 141.054688 L 240.945312 140.515625 L 240.351562 140 L 239.703125 139.515625 L 239.015625 139.039062 L 238.273438 138.59375 L 237.492188 138.164062 L 236.671875 137.757812 L 235.796875 137.367188 L 234.890625 137 L 233.945312 136.648438 L 232.953125 136.3125 L 231.921875 136 L 230.851562 135.703125 L 229.75 135.421875 L 228.609375 135.15625 L 227.429688 134.914062 L 226.210938 134.679688 L 224.96875 134.46875 L 223.6875 134.265625 L 222.375 134.078125 L 221.03125 133.90625 L 219.65625 133.75 L 218.25 133.609375 L 216.8125 133.484375 L 215.351562 133.359375 L 213.867188 133.257812 L 212.34375 133.164062 L 210.804688 133.085938 L 209.234375 133.015625 L 207.648438 132.953125 L 206.03125 132.90625 L 204.398438 132.867188 L 202.742188 132.84375 L 201.0625 132.820312 L 199.359375 132.8125 L 195.914062 132.8125 L 194.164062 132.828125 L 192.390625 132.851562 L 190.609375 132.875 L 188.8125 132.914062 L 187 132.953125 L 185.171875 133 L 183.335938 133.046875 L 181.484375 133.101562 L 179.625 133.164062 L 177.757812 133.226562 L 175.882812 133.296875 L 174 133.367188 L 168.304688 133.601562 L 166.398438 133.679688 L 164.484375 133.765625 L 162.570312 133.84375 L 160.65625 133.929688 L 158.734375 134.015625 L 156.820312 134.101562 L 152.992188 134.257812 L 151.078125 134.34375 L 149.164062 134.421875 L 147.257812 134.492188 L 145.359375 134.570312 L 143.460938 134.640625 L 141.578125 134.703125 L 139.695312 134.773438 L 137.820312 134.828125 L 135.960938 134.882812 L 134.101562 134.929688 L 132.265625 134.976562 L 130.429688 135.015625 L 128.609375 135.046875 L 126.8125 135.070312 L 125.015625 135.085938 L 123.242188 135.09375 L 121.484375 135.101562 L 119.734375 135.09375 L 118.015625 135.078125 L 116.304688 135.054688 L 114.617188 135.023438 L 112.953125 134.976562 L 111.304688 134.929688 L 109.679688 134.859375 L 108.078125 134.789062 L 106.5 134.703125 L 104.945312 134.609375 L 103.414062 134.492188 L 101.914062 134.375 L 100.4375 134.242188 L 98.992188 134.085938 L 97.570312 133.929688 L 96.179688 133.75 L 94.820312 133.554688 L 93.492188 133.351562 L 92.195312 133.132812 L 90.9375 132.890625 L 89.703125 132.640625 L 88.507812 132.367188 L 87.351562 132.078125 L 86.226562 131.773438 L 85.140625 131.453125 L 84.09375 131.109375 L 83.085938 130.757812 L 82.109375 130.375 L 81.1875 129.976562 L 80.296875 129.5625 L 79.453125 129.125 L 78.648438 128.664062 L 77.890625 128.1875 L 77.179688 127.6875 L 76.507812 127.164062 L 75.890625 126.617188 L 75.3125 126.054688 L 74.789062 125.460938 L 74.3125 124.851562 L 73.882812 124.210938 L 73.507812 123.554688 L 73.1875 122.867188 "/>
<path fill="none" stroke-width="3.985" stroke-linecap="butt" stroke-linejoin="miter" stroke="rgb(0%, 0%, 0%)" stroke-opacity="1" stroke-miterlimit="10" d="M 365.937495 425.664056 L 367.070307 423.242181 L 368.437495 420.859369 L 370.156244 418.593744 L 372.070307 416.406244 L 374.296869 414.296869 L 376.757807 412.304681 L 379.453119 410.351556 L 382.421869 408.515619 L 385.624994 406.757806 L 389.062494 405.039056 L 392.734369 403.437494 L 396.640619 401.874994 L 400.781244 400.429682 L 405.117181 399.023432 L 409.687494 397.656244 L 414.492181 396.406244 L 419.453119 395.195307 L 424.648431 394.062494 L 430.039056 392.968744 L 435.624994 391.992182 L 441.406243 391.015619 L 447.343743 390.117182 L 453.515618 389.296869 L 459.804681 388.515619 L 466.289056 387.773432 L 472.968743 387.109369 L 479.765618 386.445307 L 486.757805 385.898432 L 493.906243 385.351557 L 501.171868 384.843744 L 508.593742 384.414057 L 516.171867 384.023432 L 523.86718 383.632807 L 531.67968 383.320307 L 539.648429 383.046869 L 547.734367 382.773432 L 555.937492 382.578119 L 564.257804 382.382807 L 572.695304 382.226557 L 581.210929 382.109369 L 589.843741 381.992182 L 598.593741 381.953119 L 607.382803 381.874994 L 616.289053 381.874994 L 625.273428 381.835932 L 634.374991 381.874994 L 643.515615 381.914057 L 652.695303 381.953119 L 661.992178 382.031244 L 671.328115 382.109369 L 680.742177 382.187494 L 690.15624 382.304682 L 699.648427 382.421869 L 709.179677 382.539057 L 718.789052 382.656244 L 728.359364 382.773432 L 738.007802 382.890619 L 747.695301 383.046869 L 757.343739 383.164057 L 767.070301 383.320307 L 776.757801 383.437494 L 786.484363 383.554682 L 796.210926 383.632807 L 805.898425 383.749994 L 815.624988 383.828119 L 825.312488 383.906244 L 835.03905 383.984369 L 854.335925 384.062494 L 883.046862 384.062494 L 892.578112 383.984369 L 902.031237 383.906244 L 911.445299 383.828119 L 920.781236 383.671869 L 930.078111 383.515619 L 939.296861 383.320307 L 948.437486 383.085932 L 957.539048 382.851557 L 966.562486 382.539057 L 975.468735 382.187494 L 984.29686 381.835932 L 993.04686 381.445307 L 1001.718735 380.976557 L 1010.273422 380.468744 L 1018.710922 379.921869 L 1027.031235 379.335932 L 1035.273422 378.671869 L 1043.398422 378.007807 L 1051.406234 377.265619 L 1059.257797 376.445307 L 1066.992172 375.624994 L 1074.570296 374.687494 L 1082.031234 373.749994 L 1089.335921 372.734369 L 1096.484359 371.640619 L 1103.515609 370.468744 L 1110.351546 369.257807 L 1117.070296 367.968745 L 1123.593733 366.64062 L 1129.921858 365.195307 L 1136.093733 363.710932 L 1142.109358 362.148432 L 1147.92967 360.507807 L 1153.55467 358.82812 L 1158.984358 357.031245 L 1164.218733 355.156245 L 1169.257795 353.20312 L 1174.062483 351.17187 L 1178.71092 349.062495 L 1183.08592 346.835932 L 1187.265607 344.570307 L 1191.21092 342.187495 L 1194.96092 339.726557 L 1198.437482 337.148432 L 1201.718732 334.531245 L 1204.726545 331.757808 L 1207.499982 328.945308 L 1209.999982 325.976558 L 1212.539044 328.945308 L 1215.273419 331.757808 L 1218.320294 334.531245 L 1221.562482 337.148432 L 1225.078107 339.726557 L 1228.789044 342.187495 L 1232.734357 344.570307 L 1236.914044 346.835932 L 1241.328107 349.062495 L 1245.937481 351.17187 L 1250.781231 353.20312 L 1255.781231 355.156245 L 1261.054669 357.031245 L 1266.484356 358.82812 L 1272.109356 360.507807 L 1277.890606 362.148432 L 1283.906231 363.710932 L 1290.078106 365.195307 L 1296.445293 366.64062 L 1302.968731 367.968745 L 1309.648418 369.257807 L 1316.523418 370.468744 L 1323.515605 371.640619 L 1330.664043 372.734369 L 1338.007793 373.749994 L 1345.46873 374.687494 L 1353.046855 375.624994 L 1360.78123 376.445307 L 1368.632792 377.265619 L 1376.640604 378.007807 L 1384.726542 378.671869 L 1392.968729 379.335932 L 1401.289042 379.921869 L 1409.765604 380.468744 L 1418.320291 380.976557 L 1426.953104 381.445307 L 1435.703104 381.835932 L 1444.570291 382.187494 L 1453.476541 382.539057 L 1462.460916 382.851557 L 1471.562478 383.085932 L 1480.742165 383.320307 L 1489.960915 383.515619 L 1499.25779 383.671869 L 1508.593728 383.828119 L 1518.00779 383.906244 L 1527.460915 383.984369 L 1536.953102 384.062494 L 1565.703102 384.062494 L 1584.999976 383.984369 L 1594.687476 383.906244 L 1604.414039 383.828119 L 1614.101538 383.749994 L 1623.828101 383.632807 L 1633.554663 383.554682 L 1643.242163 383.437494 L 1652.968725 383.320307 L 1662.656225 383.164057 L 1672.343725 383.046869 L 1681.992162 382.890619 L 1691.6406 382.773432 L 1701.249975 382.656244 L 1710.820287 382.539057 L 1720.351537 382.421869 L 1729.843724 382.304682 L 1739.296849 382.187494 L 1748.710911 382.109369 L 1758.046849 382.031244 L 1767.304661 381.953119 L 1776.523411 381.914057 L 1785.664036 381.874994 L 1794.726536 381.835932 L 1803.710911 381.874994 L 1812.61716 381.874994 L 1821.445285 381.953119 L 1830.156223 381.992182 L 1838.828098 382.109369 L 1847.343722 382.226557 L 1855.74216 382.382807 L 1864.062472 382.578119 L 1872.30466 382.773432 L 1880.351534 383.046869 L 1888.359347 383.320307 L 1896.171847 383.632807 L 1903.867159 384.023432 L 1911.445284 384.414057 L 1918.867159 384.843744 L 1926.132784 385.351557 L 1933.281221 385.898432 L 1940.234346 386.445307 L 1947.070283 387.109369 L 1953.710908 387.773432 L 1960.195283 388.515619 L 1966.523408 389.296869 L 1972.656221 390.117182 L 1978.593721 391.015619 L 1984.37497 391.992182 L 1989.960908 392.968744 L 1995.351533 394.062494 L 2000.546845 395.195307 L 2005.546845 396.406244 L 2010.31247 397.656244 L 2014.882782 399.023432 L 2019.257782 400.429682 L 2023.398407 401.874994 L 2027.265595 403.437494 L 2030.976532 405.039056 L 2034.414032 406.757806 L 2037.617157 408.515619 L 2040.546845 410.351556 L 2043.28122 412.304681 L 2045.742157 414.296869 L 2047.968719 416.406244 L 2049.882782 418.593744 L 2051.562469 420.859369 L 2052.968719 423.242181 L 2054.101532 425.664056 L 2052.460907 422.226556 L 2050.624969 418.945306 L 2048.476532 415.742181 L 2046.09372 412.695306 L 2043.43747 409.726556 L 2040.585907 406.914056 L 2037.460907 404.179681 L 2034.140595 401.562494 L 2030.585907 399.062494 L 2026.796845 396.679682 L 2022.773407 394.374994 L 2018.554657 392.187494 L 2014.101532 390.117182 L 2009.453095 388.124994 L 2004.609345 386.210932 L 1999.570283 384.453119 L 1994.335908 382.734369 L 1988.867158 381.132807 L 1983.28122 379.609369 L 1977.460908 378.164057 L 1971.484346 376.796869 L 1965.351533 375.546869 L 1959.023408 374.335932 L 1952.539033 373.242182 L 1945.898409 372.226557 L 1939.101534 371.249994 L 1932.148409 370.351557 L 1925.078096 369.570307 L 1917.812471 368.789057 L 1910.468722 368.124995 L 1902.929659 367.539057 L 1895.273409 366.95312 L 1887.539034 366.48437 L 1879.648409 366.054682 L 1871.640597 365.70312 L 1863.515597 365.351557 L 1855.27341 365.117182 L 1846.914035 364.882807 L 1838.476535 364.726557 L 1829.96091 364.60937 L 1821.328098 364.531245 L 1812.61716 364.492182 L 1803.789036 364.531245 L 1794.921848 364.570307 L 1785.976536 364.648432 L 1776.953099 364.76562 L 1767.851536 364.92187 L 1758.710911 365.117182 L 1749.492161 365.351557 L 1740.234349 365.585932 L 1730.898412 365.85937 L 1721.523412 366.132807 L 1712.148412 366.48437 L 1702.695287 366.79687 L 1693.242162 367.148432 L 1683.710912 367.539057 L 1674.179663 367.89062 L 1664.648413 368.281245 L 1655.0781 368.710932 L 1635.937476 369.492182 L 1626.328101 369.921869 L 1607.187476 370.781244 L 1597.578101 371.171869 L 1588.046851 371.601557 L 1568.984352 372.382807 L 1559.492164 372.773432 L 1550.039039 373.164057 L 1531.210915 373.867182 L 1521.874977 374.179682 L 1512.578102 374.492182 L 1503.359353 374.765619 L 1494.140603 374.999994 L 1485.03904 375.234369 L 1475.976541 375.429682 L 1466.992166 375.624994 L 1458.046853 375.742182 L 1449.218728 375.859369 L 1440.468729 375.937494 L 1423.203104 375.937494 L 1414.726541 375.898432 L 1406.328104 375.781244 L 1398.046854 375.664057 L 1389.843729 375.468744 L 1381.796854 375.234369 L 1373.828105 374.921869 L 1366.015605 374.570307 L 1358.28123 374.179682 L 1350.703105 373.710932 L 1343.242167 373.203119 L 1335.93748 372.578119 L 1328.789043 371.953119 L 1321.757793 371.249994 L 1314.84373 370.468744 L 1308.164043 369.609369 L 1301.562481 368.67187 L 1295.195293 367.656245 L 1288.945293 366.601557 L 1282.851543 365.429682 L 1276.992168 364.218745 L 1271.289044 362.89062 L 1265.742169 361.48437 L 1260.390606 359.999995 L 1255.273419 358.437495 L 1250.312481 356.757807 L 1245.546856 354.999995 L 1241.015607 353.164057 L 1236.679669 351.210932 L 1232.539044 349.179682 L 1228.632794 347.031245 L 1224.960919 344.804682 L 1221.484357 342.42187 L 1218.281232 339.999995 L 1215.273419 337.42187 L 1212.539044 334.726558 L 1209.999982 331.95312 L 1207.499982 334.726558 L 1204.726545 337.42187 L 1201.757795 339.999995 L 1198.515607 342.42187 L 1195.078107 344.804682 L 1191.36717 347.031245 L 1187.46092 349.179682 L 1183.359357 351.210932 L 1178.984357 353.164057 L 1174.453107 354.999995 L 1169.726545 356.757807 L 1164.765608 358.437495 L 1159.609358 359.999995 L 1154.257795 361.48437 L 1148.749983 362.89062 L 1143.046858 364.218745 L 1137.148421 365.429682 L 1131.054671 366.601557 L 1124.843733 367.656245 L 1118.437483 368.67187 L 1111.874983 369.609369 L 1105.156234 370.468744 L 1098.281234 371.249994 L 1091.249984 371.953119 L 1084.062484 372.578119 L 1076.757796 373.203119 L 1069.335922 373.710932 L 1061.718734 374.179682 L 1054.023422 374.570307 L 1046.171859 374.921869 L 1038.242172 375.234369 L 1030.156235 375.468744 L 1021.992172 375.664057 L 1013.710922 375.781244 L 1005.312485 375.898432 L 996.79686 375.937494 L 979.570298 375.937494 L 970.820298 375.859369 L 961.953111 375.742182 L 953.046861 375.624994 L 944.062486 375.429682 L 934.999986 375.234369 L 925.859361 374.999994 L 916.679674 374.765619 L 907.421861 374.492182 L 898.124987 374.179682 L 888.789049 373.867182 L 879.414049 373.515619 L 869.999987 373.164057 L 841.523425 371.992182 L 831.992175 371.601557 L 822.421863 371.171869 L 812.85155 370.781244 L 803.281238 370.351557 L 793.671863 369.921869 L 784.101551 369.492182 L 764.960926 368.710932 L 755.390614 368.281245 L 745.820301 367.89062 L 736.289052 367.539057 L 726.796864 367.148432 L 717.304677 366.79687 L 707.890614 366.48437 L 698.476552 366.132807 L 689.101552 365.85937 L 679.804677 365.585932 L 670.507803 365.351557 L 661.328115 365.117182 L 652.148428 364.92187 L 643.046865 364.76562 L 634.062491 364.648432 L 625.078116 364.570307 L 616.210928 364.531245 L 607.421866 364.492182 L 598.671866 364.531245 L 590.078116 364.60937 L 581.523429 364.726557 L 573.085929 364.882807 L 564.765617 365.117182 L 556.523429 365.351557 L 548.398429 365.70312 L 540.390617 366.054682 L 532.499992 366.48437 L 524.726555 366.95312 L 517.070305 367.539057 L 509.570305 368.124995 L 502.187493 368.789057 L 494.96093 369.570307 L 487.851555 370.351557 L 480.89843 371.249994 L 474.101555 372.226557 L 467.460931 373.242182 L 460.976556 374.335932 L 454.687493 375.546869 L 448.515618 376.796869 L 442.539056 378.164057 L 436.757806 379.609369 L 431.132806 381.132807 L 425.703119 382.734369 L 420.468744 384.453119 L 415.429681 386.210932 L 410.546869 388.124994 L 405.937494 390.117182 L 401.484369 392.187494 L 397.265619 394.374994 L 393.242182 396.679682 L 389.453119 399.062494 L 385.898432 401.562494 L 382.539057 404.179681 L 379.453119 406.914056 L 376.562494 409.726556 L 373.945307 412.695306 L 371.562494 415.742181 L 369.414057 418.945306 L 367.539057 422.226556 Z M 365.937495 425.664056 " transform="matrix(0.2, 0, 0, -0.2, 0, 208)"/>
<path fill-rule="nonzero" fill="rgb(100%, 100%, 100%)" fill-opacity="1" d="M 248.976562 59.820312 L 290.976562 59.820312 L 290.976562 91.742188 L 248.976562 91.742188 Z M 248.976562 59.820312 "/>
<path fill-rule="nonzero" fill="rgb(0%, 0%, 0%)" fill-opacity="1" d="M 260.878906 67.925781 C 260.878906 67.425781 260.878906 67.394531 260.410156 67.394531 C 259.160156 68.675781 257.410156 68.675781 256.785156 68.675781 L 256.785156 69.300781 C 257.191406 69.300781 258.347656 69.300781 259.378906 68.769531 L 259.378906 79.113281 C 259.378906 79.832031 259.316406 80.050781 257.535156 80.050781 L 256.910156 80.050781 L 256.910156 80.675781 C 257.597656 80.613281 259.316406 80.613281 260.128906 80.613281 C 260.910156 80.613281 262.660156 80.613281 263.347656 80.675781 L 263.347656 80.050781 L 262.722656 80.050781 C 260.910156 80.050781 260.878906 79.832031 260.878906 79.113281 Z M 260.878906 67.925781 "/>
<path fill-rule="nonzero" fill="rgb(0%, 0%, 0%)" fill-opacity="1" d="M 273.832031 66.488281 C 273.925781 66.207031 273.925781 66.144531 273.925781 66.113281 C 273.925781 65.894531 273.769531 65.707031 273.550781 65.707031 C 273.394531 65.707031 273.269531 65.769531 273.207031 65.894531 L 266.269531 84.894531 C 266.175781 85.175781 266.175781 85.238281 266.175781 85.269531 C 266.175781 85.488281 266.363281 85.675781 266.582031 85.675781 C 266.832031 85.675781 266.894531 85.519531 267.019531 85.175781 Z M 273.832031 66.488281 "/>
<path fill-rule="nonzero" fill="rgb(0%, 0%, 0%)" fill-opacity="1" d="M 281.039062 77.394531 L 281.039062 79.113281 C 281.039062 79.832031 280.976562 80.050781 279.507812 80.050781 L 279.101562 80.050781 L 279.101562 80.675781 C 279.914062 80.613281 280.945312 80.613281 281.789062 80.613281 C 282.632812 80.613281 283.664062 80.613281 284.507812 80.675781 L 284.507812 80.050781 L 284.070312 80.050781 C 282.601562 80.050781 282.570312 79.832031 282.570312 79.113281 L 282.570312 77.394531 L 284.539062 77.394531 L 284.539062 76.769531 L 282.570312 76.769531 L 282.570312 67.707031 C 282.570312 67.300781 282.570312 67.175781 282.226562 67.175781 C 282.070312 67.175781 282.007812 67.175781 281.851562 67.425781 L 275.726562 76.769531 L 275.726562 77.394531 Z M 281.132812 76.769531 L 276.289062 76.769531 L 281.132812 69.332031 Z M 281.132812 76.769531 "/>
<path fill-rule="nonzero" fill="rgb(0%, 0%, 0%)" fill-opacity="1" d="M 245.984375 116.890625 L 246.179688 116.78125 L 246.367188 116.664062 L 246.546875 116.546875 L 246.71875 116.414062 L 246.882812 116.265625 L 247.039062 116.117188 L 247.1875 115.953125 L 247.328125 115.789062 L 247.460938 115.609375 L 247.585938 115.421875 L 247.710938 115.226562 L 247.820312 115.023438 L 247.929688 114.8125 L 248.03125 114.585938 L 248.125 114.359375 L 248.210938 114.125 L 248.296875 113.882812 L 248.375 113.632812 L 248.445312 113.375 L 248.507812 113.109375 L 248.570312 112.835938 L 248.625 112.5625 L 248.679688 112.273438 L 248.726562 111.984375 L 248.765625 111.6875 L 248.804688 111.382812 L 248.867188 110.757812 L 248.890625 110.4375 L 248.90625 110.101562 L 248.929688 109.773438 L 248.9375 109.429688 L 248.953125 109.085938 L 248.960938 108.742188 L 248.960938 107.664062 L 248.953125 107.296875 L 248.9375 106.546875 L 248.90625 105.78125 L 248.859375 104.609375 L 248.835938 104.203125 L 248.8125 103.804688 L 248.765625 102.992188 L 248.742188 102.578125 L 248.710938 102.164062 L 248.664062 101.335938 L 248.632812 100.914062 L 248.609375 100.492188 L 248.578125 100.0625 L 248.554688 99.640625 L 248.523438 99.210938 L 248.5 98.789062 L 248.476562 98.351562 L 248.429688 97.492188 L 248.40625 97.054688 L 248.382812 96.625 L 248.367188 96.1875 L 248.34375 95.75 L 248.328125 95.320312 L 248.3125 94.882812 L 248.304688 94.445312 L 248.289062 94.007812 L 248.289062 93.578125 L 248.28125 93.140625 L 248.28125 91.84375 L 248.289062 91.40625 L 248.296875 90.984375 L 248.3125 90.546875 L 248.328125 90.125 L 248.34375 89.695312 L 248.367188 89.273438 L 248.429688 88.429688 L 248.46875 88.015625 L 248.507812 87.59375 L 248.554688 87.1875 L 248.601562 86.773438 L 248.65625 86.367188 L 248.71875 85.960938 L 248.789062 85.554688 L 248.859375 85.15625 L 249.015625 84.375 L 249.101562 83.984375 L 249.203125 83.601562 L 249.296875 83.21875 L 249.515625 82.46875 L 249.765625 81.734375 L 249.898438 81.382812 L 250.039062 81.023438 L 250.1875 80.679688 L 250.34375 80.328125 L 250.671875 79.65625 L 250.851562 79.328125 L 251.039062 79.007812 L 251.234375 78.6875 L 251.4375 78.382812 L 251.648438 78.078125 L 251.867188 77.78125 L 252.09375 77.484375 L 252.578125 76.921875 L 252.835938 76.65625 L 253.101562 76.390625 L 253.375 76.132812 L 253.65625 75.882812 L 253.953125 75.640625 L 253.65625 75.390625 L 253.375 75.140625 L 253.101562 74.882812 L 252.835938 74.617188 L 252.578125 74.351562 L 252.09375 73.789062 L 251.867188 73.492188 L 251.648438 73.195312 L 251.4375 72.890625 L 251.234375 72.578125 L 251.039062 72.265625 L 250.851562 71.9375 L 250.671875 71.617188 L 250.507812 71.28125 L 250.34375 70.9375 L 250.1875 70.59375 L 250.039062 70.25 L 249.898438 69.890625 L 249.765625 69.539062 L 249.515625 68.804688 L 249.296875 68.054688 L 249.203125 67.671875 L 249.101562 67.289062 L 249.015625 66.898438 L 248.859375 66.117188 L 248.789062 65.710938 L 248.71875 65.3125 L 248.65625 64.90625 L 248.601562 64.5 L 248.507812 63.671875 L 248.429688 62.84375 L 248.367188 62 L 248.34375 61.570312 L 248.328125 61.148438 L 248.296875 60.289062 L 248.28125 59.429688 L 248.28125 58.132812 L 248.289062 57.695312 L 248.289062 57.257812 L 248.304688 56.828125 L 248.3125 56.390625 L 248.34375 55.515625 L 248.367188 55.085938 L 248.382812 54.648438 L 248.40625 54.21875 L 248.429688 53.78125 L 248.453125 53.351562 L 248.476562 52.914062 L 248.523438 52.054688 L 248.554688 51.632812 L 248.578125 51.203125 L 248.609375 50.78125 L 248.632812 50.359375 L 248.664062 49.9375 L 248.6875 49.523438 L 248.710938 49.101562 L 248.742188 48.695312 L 248.765625 48.28125 L 248.835938 47.0625 L 248.859375 46.664062 L 248.90625 45.492188 L 248.9375 44.726562 L 248.953125 43.976562 L 248.960938 43.609375 L 248.960938 42.53125 L 248.953125 42.1875 L 248.9375 41.84375 L 248.929688 41.5 L 248.90625 41.171875 L 248.890625 40.835938 L 248.867188 40.515625 L 248.804688 39.890625 L 248.765625 39.585938 L 248.726562 39.289062 L 248.679688 39 L 248.625 38.710938 L 248.570312 38.429688 L 248.445312 37.898438 L 248.375 37.640625 L 248.296875 37.390625 L 248.210938 37.148438 L 248.125 36.914062 L 248.03125 36.6875 L 247.929688 36.460938 L 247.820312 36.25 L 247.710938 36.046875 L 247.585938 35.851562 L 247.460938 35.664062 L 247.328125 35.484375 L 247.1875 35.320312 L 247.039062 35.15625 L 246.882812 35.007812 L 246.71875 34.859375 L 246.546875 34.726562 L 246.367188 34.601562 L 246.179688 34.492188 L 245.984375 34.382812 L 246.484375 34.664062 L 246.71875 34.8125 L 247.15625 35.140625 L 247.359375 35.320312 L 247.554688 35.507812 L 247.742188 35.695312 L 247.921875 35.898438 L 248.085938 36.101562 L 248.25 36.320312 L 248.546875 36.773438 L 248.679688 37.007812 L 248.929688 37.507812 L 249.039062 37.765625 L 249.148438 38.03125 L 249.242188 38.296875 L 249.335938 38.578125 L 249.421875 38.859375 L 249.5 39.148438 L 249.570312 39.445312 L 249.640625 39.75 L 249.695312 40.054688 L 249.75 40.367188 L 249.84375 41.007812 L 249.875 41.335938 L 249.9375 42.007812 L 249.953125 42.351562 L 249.976562 42.703125 L 249.984375 43.054688 L 250 43.773438 L 250 44.140625 L 249.992188 44.507812 L 249.976562 45.257812 L 249.945312 46.023438 L 249.921875 46.40625 L 249.898438 46.796875 L 249.875 47.195312 L 249.84375 47.585938 L 249.8125 47.992188 L 249.78125 48.390625 L 249.75 48.796875 L 249.710938 49.195312 L 249.679688 49.609375 L 249.640625 50.015625 L 249.601562 50.429688 L 249.554688 50.84375 L 249.515625 51.265625 L 249.46875 51.679688 L 249.429688 52.101562 L 249.382812 52.523438 L 249.34375 52.945312 L 249.296875 53.367188 L 249.257812 53.789062 L 249.210938 54.21875 L 249.171875 54.640625 L 249.125 55.0625 L 249.046875 55.921875 L 249.007812 56.34375 L 248.96875 56.773438 L 248.9375 57.195312 L 248.898438 57.625 L 248.867188 58.046875 L 248.84375 58.476562 L 248.8125 58.898438 L 248.765625 59.742188 L 248.742188 60.171875 L 248.726562 60.585938 L 248.710938 61.007812 L 248.703125 61.421875 L 248.703125 61.84375 L 248.695312 62.257812 L 248.703125 62.664062 L 248.703125 63.078125 L 248.710938 63.484375 L 248.742188 64.296875 L 248.773438 64.695312 L 248.796875 65.09375 L 248.828125 65.492188 L 248.867188 65.882812 L 248.914062 66.273438 L 248.960938 66.65625 L 249.023438 67.039062 L 249.078125 67.421875 L 249.21875 68.171875 L 249.390625 68.90625 L 249.484375 69.265625 L 249.585938 69.617188 L 249.695312 69.96875 L 249.8125 70.320312 L 249.929688 70.65625 L 250.0625 71 L 250.203125 71.328125 L 250.351562 71.65625 L 250.507812 71.976562 L 250.671875 72.296875 L 250.84375 72.609375 L 251.023438 72.914062 L 251.210938 73.210938 L 251.40625 73.507812 L 251.617188 73.796875 L 251.835938 74.078125 L 252.0625 74.351562 L 252.304688 74.625 L 252.546875 74.890625 L 252.804688 75.140625 L 253.351562 75.640625 L 253.078125 75.882812 L 252.804688 76.132812 L 252.546875 76.382812 L 252.304688 76.648438 L 252.0625 76.921875 L 251.835938 77.195312 L 251.617188 77.476562 L 251.40625 77.765625 L 251.210938 78.0625 L 251.023438 78.359375 L 250.84375 78.664062 L 250.671875 78.976562 L 250.507812 79.296875 L 250.351562 79.617188 L 250.203125 79.945312 L 250.0625 80.273438 L 249.929688 80.617188 L 249.8125 80.953125 L 249.695312 81.304688 L 249.585938 81.65625 L 249.484375 82.007812 L 249.390625 82.367188 L 249.21875 83.101562 L 249.078125 83.851562 L 249.023438 84.234375 L 248.960938 84.609375 L 248.867188 85.390625 L 248.828125 85.78125 L 248.796875 86.179688 L 248.773438 86.578125 L 248.742188 86.976562 L 248.710938 87.789062 L 248.703125 88.195312 L 248.703125 88.601562 L 248.695312 89.015625 L 248.703125 89.429688 L 248.703125 89.84375 L 248.710938 90.265625 L 248.726562 90.6875 L 248.742188 91.101562 L 248.765625 91.523438 L 248.789062 91.953125 L 248.8125 92.375 L 248.84375 92.796875 L 248.867188 93.21875 L 248.898438 93.648438 L 248.9375 94.078125 L 248.96875 94.5 L 249.007812 94.929688 L 249.046875 95.351562 L 249.085938 95.78125 L 249.125 96.203125 L 249.171875 96.632812 L 249.210938 97.054688 L 249.257812 97.484375 L 249.296875 97.90625 L 249.34375 98.328125 L 249.382812 98.75 L 249.429688 99.171875 L 249.46875 99.585938 L 249.515625 100.007812 L 249.554688 100.421875 L 249.601562 100.84375 L 249.640625 101.25 L 249.679688 101.664062 L 249.710938 102.070312 L 249.75 102.476562 L 249.8125 103.289062 L 249.84375 103.6875 L 249.875 104.078125 L 249.945312 105.25 L 249.976562 106.015625 L 249.992188 106.765625 L 250 107.132812 L 250 107.5 L 249.984375 108.21875 L 249.976562 108.570312 L 249.953125 108.914062 L 249.9375 109.265625 L 249.875 109.9375 L 249.84375 110.265625 L 249.75 110.90625 L 249.695312 111.21875 L 249.640625 111.523438 L 249.570312 111.828125 L 249.5 112.117188 L 249.421875 112.414062 L 249.335938 112.695312 L 249.242188 112.976562 L 249.148438 113.242188 L 249.039062 113.507812 L 248.929688 113.765625 L 248.679688 114.265625 L 248.546875 114.5 L 248.25 114.953125 L 248.085938 115.171875 L 247.921875 115.375 L 247.742188 115.578125 L 247.554688 115.765625 L 247.359375 115.953125 L 247.15625 116.132812 L 246.71875 116.460938 L 246.484375 116.609375 L 245.984375 116.890625 "/>
<path fill="none" stroke-width="3.985" stroke-linecap="butt" stroke-linejoin="miter" stroke="rgb(0%, 0%, 0%)" stroke-opacity="1" stroke-miterlimit="10" d="M 1229.921857 455.546868 L 1230.898419 456.093743 L 1231.835919 456.679681 L 1232.734357 457.265618 L 1233.593732 457.929681 L 1234.414044 458.671868 L 1235.195294 459.414056 L 1235.937482 460.234368 L 1236.640607 461.054681 L 1237.304669 461.953118 L 1237.929669 462.890618 L 1238.554669 463.867181 L 1239.101544 464.882806 L 1239.648419 465.937493 L 1240.156232 467.070306 L 1240.624982 468.203118 L 1241.054669 469.374993 L 1241.484357 470.58593 L 1241.874981 471.83593 L 1242.226544 473.124993 L 1242.539044 474.453118 L 1242.851544 475.820305 L 1243.124981 477.187493 L 1243.398419 478.632805 L 1243.632794 480.078118 L 1243.828106 481.562493 L 1244.023419 483.08593 L 1244.335919 486.21093 L 1244.453106 487.812493 L 1244.531231 489.49218 L 1244.648419 491.132805 L 1244.687481 492.851555 L 1244.765606 494.570305 L 1244.804669 496.289055 L 1244.804669 501.67968 L 1244.765606 503.515617 L 1244.687481 507.265617 L 1244.531231 511.093742 L 1244.296856 516.953117 L 1244.179669 518.984367 L 1244.062481 520.976555 L 1243.828106 525.039055 L 1243.710919 527.109367 L 1243.554669 529.17968 L 1243.320294 533.320305 L 1243.164044 535.42968 L 1243.046856 537.539054 L 1242.890606 539.687492 L 1242.773419 541.796867 L 1242.617169 543.945304 L 1242.499981 546.054679 L 1242.382794 548.242179 L 1242.148419 552.539054 L 1242.031231 554.726554 L 1241.914044 556.874992 L 1241.835919 559.062492 L 1241.718731 561.249992 L 1241.640606 563.398429 L 1241.562481 565.585929 L 1241.523419 567.773429 L 1241.445294 569.960929 L 1241.445294 572.109366 L 1241.406232 574.296866 L 1241.406232 580.781241 L 1241.445294 582.968741 L 1241.484357 585.078116 L 1241.562481 587.265616 L 1241.640606 589.374991 L 1241.718731 591.523429 L 1241.835919 593.632804 L 1242.148419 597.851554 L 1242.343731 599.921866 L 1242.539044 602.031241 L 1242.773419 604.062491 L 1243.007794 606.132803 L 1243.281231 608.164053 L 1243.593731 610.195303 L 1243.945294 612.226553 L 1244.296856 614.218741 L 1245.078106 618.124991 L 1245.507794 620.078116 L 1246.015606 621.992178 L 1246.484356 623.906241 L 1247.578106 627.656241 L 1248.828106 631.328116 L 1249.492169 633.085928 L 1250.195294 634.882803 L 1250.937481 636.601553 L 1251.718731 638.359365 L 1253.359356 641.71874 L 1254.257794 643.359365 L 1255.195294 644.960928 L 1256.171856 646.56249 L 1257.187481 648.085928 L 1258.242169 649.609365 L 1259.335919 651.09374 L 1260.468731 652.578115 L 1262.890606 655.390615 L 1264.179669 656.71874 L 1265.507794 658.046865 L 1266.874981 659.335928 L 1268.281231 660.585928 L 1269.765606 661.796865 L 1268.281231 663.046865 L 1266.874981 664.296865 L 1265.507794 665.585928 L 1264.179669 666.914053 L 1262.890606 668.242178 L 1260.468731 671.054678 L 1259.335919 672.539052 L 1258.242169 674.023427 L 1257.187481 675.546865 L 1256.171856 677.109365 L 1255.195294 678.671865 L 1254.257794 680.31249 L 1253.359356 681.914052 L 1252.539044 683.59374 L 1251.718731 685.31249 L 1250.937481 687.03124 L 1250.195294 688.74999 L 1249.492169 690.546865 L 1248.828106 692.304677 L 1247.578106 695.976552 L 1246.484356 699.726552 L 1246.015606 701.640615 L 1245.507794 703.554677 L 1245.078106 705.507802 L 1244.296856 709.414052 L 1243.945294 711.445302 L 1243.593731 713.437489 L 1243.281231 715.468739 L 1243.007794 717.499989 L 1242.539044 721.640614 L 1242.148419 725.781239 L 1241.835919 729.999989 L 1241.718731 732.148427 L 1241.640606 734.257802 L 1241.484357 738.554676 L 1241.406232 742.851551 L 1241.406232 749.335926 L 1241.445294 751.523426 L 1241.445294 753.710926 L 1241.523419 755.859364 L 1241.562481 758.046864 L 1241.718731 762.421864 L 1241.835919 764.570301 L 1241.914044 766.757801 L 1242.031231 768.906239 L 1242.148419 771.093739 L 1242.265606 773.242176 L 1242.382794 775.429676 L 1242.617169 779.726551 L 1242.773419 781.835926 L 1242.890606 783.984363 L 1243.046856 786.093738 L 1243.164044 788.203113 L 1243.320294 790.312488 L 1243.437481 792.382801 L 1243.554669 794.492176 L 1243.710919 796.523426 L 1243.828106 798.593738 L 1244.179669 804.687488 L 1244.296856 806.679675 L 1244.531231 812.53905 L 1244.687481 816.367175 L 1244.765606 820.117175 L 1244.804669 821.953113 L 1244.804669 827.343738 L 1244.765606 829.062488 L 1244.687481 830.781238 L 1244.648419 832.499988 L 1244.531231 834.140613 L 1244.453106 835.8203 L 1244.335919 837.421863 L 1244.023419 840.546862 L 1243.828106 842.0703 L 1243.632794 843.554675 L 1243.398419 844.999987 L 1243.124981 846.4453 L 1242.851544 847.85155 L 1242.226544 850.5078 L 1241.874981 851.796862 L 1241.484357 853.046862 L 1241.054669 854.2578 L 1240.624982 855.429675 L 1240.156232 856.562487 L 1239.648419 857.6953 L 1239.101544 858.749987 L 1238.554669 859.765612 L 1237.929669 860.742175 L 1237.304669 861.679675 L 1236.640607 862.578112 L 1235.937482 863.398425 L 1235.195294 864.218737 L 1234.414044 864.960925 L 1233.593732 865.703112 L 1232.734357 866.367175 L 1231.835919 866.992175 L 1230.898419 867.53905 L 1229.921857 868.085925 L 1232.421857 866.679675 L 1233.593732 865.937487 L 1235.781232 864.296862 L 1236.796857 863.398425 L 1237.773419 862.460925 L 1238.710919 861.523425 L 1239.609357 860.5078 L 1240.429669 859.492175 L 1241.249982 858.398425 L 1242.734356 856.1328 L 1243.398419 854.960925 L 1244.648419 852.460925 L 1245.195294 851.171862 L 1245.742169 849.843737 L 1246.210919 848.515612 L 1246.679669 847.109362 L 1247.109356 845.703112 L 1247.499981 844.2578 L 1247.851544 842.773425 L 1248.203106 841.249987 L 1248.476544 839.72655 L 1248.749981 838.16405 L 1249.218731 834.960925 L 1249.374981 833.3203 L 1249.687481 829.960925 L 1249.765606 828.242175 L 1249.882794 826.484363 L 1249.921856 824.72655 L 1249.999981 821.1328 L 1249.999981 819.296863 L 1249.960919 817.460925 L 1249.882794 813.710925 L 1249.726544 809.8828 L 1249.609356 807.968738 L 1249.492169 806.015613 L 1249.374981 804.023426 L 1249.218731 802.070301 L 1249.062481 800.039051 L 1248.906231 798.046863 L 1248.749981 796.015613 L 1248.554669 794.023426 L 1248.398419 791.953113 L 1248.203106 789.921863 L 1248.007794 787.851551 L 1247.773419 785.781238 L 1247.578106 783.671863 L 1247.343731 781.601551 L 1247.148419 779.492176 L 1246.914044 777.382801 L 1246.718731 775.273426 L 1246.484356 773.164051 L 1246.289044 771.054676 L 1246.054669 768.906239 L 1245.859356 766.796864 L 1245.624981 764.687489 L 1245.234356 760.390614 L 1245.039044 758.281239 L 1244.843731 756.132801 L 1244.687481 754.023426 L 1244.492169 751.874989 L 1244.335919 749.765614 L 1244.218731 747.617176 L 1244.062481 745.507801 L 1243.828106 741.289051 L 1243.710919 739.140614 L 1243.632794 737.070302 L 1243.554669 734.960927 L 1243.515606 732.890614 L 1243.515606 730.781239 L 1243.476544 728.710927 L 1243.515606 726.679677 L 1243.515606 724.609364 L 1243.554669 722.578114 L 1243.710919 718.515614 L 1243.867169 716.523427 L 1243.984356 714.531239 L 1244.140606 712.539052 L 1244.335919 710.585927 L 1244.570294 708.632802 L 1244.804669 706.718739 L 1245.117169 704.804677 L 1245.390606 702.890615 L 1246.093731 699.140615 L 1246.953106 695.46874 L 1247.421856 693.671865 L 1247.929669 691.914052 L 1248.476544 690.15624 L 1249.062481 688.398427 L 1249.648419 686.71874 L 1250.312481 684.99999 L 1251.015606 683.359365 L 1251.757794 681.71874 L 1252.539044 680.117177 L 1253.359356 678.515615 L 1254.218731 676.953115 L 1255.117169 675.429677 L 1256.054669 673.945302 L 1257.031231 672.460927 L 1258.085919 671.015615 L 1259.179669 669.609365 L 1260.312481 668.242178 L 1261.523419 666.87499 L 1262.734356 665.546865 L 1264.023419 664.296865 L 1266.757794 661.796865 L 1265.390606 660.585928 L 1264.023419 659.335928 L 1262.734356 658.085928 L 1261.523419 656.757803 L 1260.312481 655.390615 L 1259.179669 654.023428 L 1258.085919 652.617178 L 1257.031231 651.171865 L 1256.054669 649.68749 L 1255.117169 648.203115 L 1254.218731 646.679678 L 1253.359356 645.117178 L 1252.539044 643.515615 L 1251.757794 641.914053 L 1251.015606 640.273428 L 1250.312481 638.632803 L 1249.648419 636.914053 L 1249.062481 635.234366 L 1248.476544 633.476553 L 1247.929669 631.718741 L 1247.421856 629.960928 L 1246.953106 628.164053 L 1246.093731 624.492178 L 1245.390606 620.742178 L 1245.117169 618.828116 L 1244.804669 616.953116 L 1244.335919 613.046866 L 1244.140606 611.093741 L 1243.984356 609.101553 L 1243.867169 607.109366 L 1243.710919 605.117178 L 1243.554669 601.054679 L 1243.515606 599.023429 L 1243.515606 596.992179 L 1243.476544 594.921866 L 1243.515606 592.851554 L 1243.515606 590.781241 L 1243.554669 588.671866 L 1243.632794 586.562491 L 1243.710919 584.492179 L 1243.828106 582.382804 L 1243.945294 580.234366 L 1244.062481 578.124991 L 1244.218731 576.015616 L 1244.335919 573.906241 L 1244.492169 571.757804 L 1244.687481 569.609367 L 1244.843731 567.499992 L 1245.039044 565.351554 L 1245.234356 563.242179 L 1245.429669 561.093742 L 1245.624981 558.984367 L 1245.859356 556.835929 L 1246.054669 554.726554 L 1246.289044 552.578117 L 1246.484356 550.468742 L 1246.718731 548.359367 L 1246.914044 546.249992 L 1247.148419 544.140617 L 1247.343731 542.070304 L 1247.578106 539.960929 L 1247.773419 537.890617 L 1248.007794 535.781242 L 1248.203106 533.749992 L 1248.398419 531.67968 L 1248.554669 529.64843 L 1248.749981 527.61718 L 1249.062481 523.55468 L 1249.218731 521.562492 L 1249.374981 519.609367 L 1249.726544 513.749992 L 1249.882794 509.921867 L 1249.960919 506.171867 L 1249.999981 504.33593 L 1249.999981 502.499993 L 1249.921856 498.906243 L 1249.882794 497.14843 L 1249.765606 495.42968 L 1249.687481 493.671868 L 1249.374981 490.312493 L 1249.218731 488.671868 L 1248.749981 485.468743 L 1248.476544 483.906243 L 1248.203106 482.382805 L 1247.851544 480.859368 L 1247.499981 479.414055 L 1247.109356 477.92968 L 1246.679669 476.52343 L 1246.210919 475.11718 L 1245.742169 473.789055 L 1245.195294 472.46093 L 1244.648419 471.171868 L 1243.398419 468.671868 L 1242.734356 467.499993 L 1241.249982 465.234368 L 1240.429669 464.140618 L 1239.609357 463.124993 L 1238.710919 462.109368 L 1237.773419 461.171868 L 1236.796857 460.234368 L 1235.781232 459.335931 L 1233.593732 457.695306 L 1232.421857 456.953118 Z M 1229.921857 455.546868 " transform="matrix(0.2, 0, 0, -0.2, 0, 208)"/>
<path fill-rule="nonzero" fill="rgb(100%, 100%, 100%)" fill-opacity="1" d="M 39.898438 118.90625 L 69.179688 118.90625 L 69.179688 145.789062 L 39.898438 145.789062 Z M 39.898438 118.90625 "/>
<path fill-rule="nonzero" fill="rgb(0%, 0%, 0%)" fill-opacity="1" d="M 62.078125 130.261719 C 62.078125 126.730469 59.765625 124.386719 56.515625 124.386719 C 51.796875 124.386719 46.984375 129.324219 46.984375 134.417969 C 46.984375 138.042969 49.421875 140.230469 52.578125 140.230469 C 57.203125 140.230469 62.078125 135.449219 62.078125 130.261719 Z M 52.703125 139.667969 C 50.546875 139.667969 49.015625 137.917969 49.015625 135.042969 C 49.015625 134.074219 49.328125 130.886719 51.015625 128.324219 C 52.515625 126.074219 54.640625 124.917969 56.359375 124.917969 C 58.171875 124.917969 60.109375 126.136719 60.109375 129.386719 C 60.109375 130.980469 59.546875 134.386719 57.359375 137.042969 C 56.328125 138.386719 54.546875 139.667969 52.703125 139.667969 Z M 52.703125 139.667969 "/>
<path fill-rule="nonzero" fill="rgb(100%, 100%, 100%)" fill-opacity="1" d="M 39.65625 -5.75 L 69.179688 -5.75 L 69.179688 21.132812 L 39.65625 21.132812 Z M 39.65625 -5.75 "/>
<path fill-rule="nonzero" fill="rgb(0%, 0%, 0%)" fill-opacity="1" d="M 58.710938 2.699219 L 58.992188 2.386719 C 59.648438 1.730469 60.367188 0.980469 61.867188 0.886719 C 62.117188 0.855469 62.304688 0.855469 62.304688 0.480469 C 62.304688 0.292969 62.179688 0.199219 62.023438 0.199219 C 61.460938 0.199219 60.804688 0.261719 60.242188 0.261719 C 59.523438 0.261719 58.742188 0.199219 58.054688 0.199219 C 57.929688 0.199219 57.648438 0.199219 57.648438 0.636719 C 57.648438 0.855469 57.835938 0.886719 57.960938 0.886719 C 58.117188 0.886719 58.742188 0.917969 58.742188 1.386719 C 58.742188 1.761719 58.242188 2.324219 58.148438 2.417969 L 53.085938 8.261719 L 50.710938 1.792969 C 50.554688 1.480469 50.554688 1.417969 50.554688 1.417969 C 50.554688 0.886719 51.648438 0.886719 51.867188 0.886719 C 52.148438 0.886719 52.367188 0.886719 52.367188 0.449219 C 52.367188 0.199219 52.117188 0.199219 52.054688 0.199219 C 51.429688 0.199219 49.898438 0.261719 49.304688 0.261719 C 48.742188 0.261719 47.398438 0.199219 46.867188 0.199219 C 46.742188 0.199219 46.429688 0.199219 46.429688 0.636719 C 46.429688 0.886719 46.648438 0.886719 46.929688 0.886719 C 48.242188 0.886719 48.335938 1.074219 48.523438 1.636719 L 51.210938 8.792969 C 51.242188 8.855469 51.304688 9.105469 51.304688 9.167969 C 51.304688 9.230469 50.429688 12.761719 50.335938 13.136719 C 50.054688 14.355469 50.023438 14.417969 48.273438 14.417969 C 47.867188 14.417969 47.679688 14.417969 47.679688 14.855469 C 47.679688 15.105469 47.960938 15.105469 47.992188 15.105469 C 48.617188 15.105469 50.117188 15.042969 50.742188 15.042969 C 51.335938 15.042969 52.929688 15.105469 53.523438 15.105469 C 53.679688 15.105469 53.960938 15.105469 53.960938 14.667969 C 53.960938 14.417969 53.742188 14.417969 53.335938 14.417969 C 53.304688 14.417969 52.867188 14.417969 52.492188 14.386719 C 52.054688 14.355469 51.929688 14.292969 51.929688 14.042969 C 51.929688 13.886719 52.117188 13.105469 52.210938 12.667969 L 52.992188 9.574219 C 53.085938 9.167969 53.117188 9.105469 53.304688 8.917969 Z M 58.710938 2.699219 "/>
<path fill="none" stroke-width="11.9553" stroke-linecap="butt" stroke-linejoin="miter" stroke="rgb(0%, 0%, 0%)" stroke-opacity="1" stroke-miterlimit="10" d="M 0.390625 445.585931 L 2419.648401 445.585931 " transform="matrix(0.2, 0, 0, -0.2, 0, 208)"/>
<path fill="none" stroke-width="11.9553" stroke-linecap="butt" stroke-linejoin="miter" stroke="rgb(0%, 0%, 0%)" stroke-opacity="1" stroke-miterlimit="10" d="M 346.01562 99.648436 L 346.01562 1021.601547 " transform="matrix(0.2, 0, 0, -0.2, 0, 208)"/>
<path fill-rule="nonzero" fill="rgb(0%, 0%, 0%)" fill-opacity="1" d="M 197.597656 199.410156 C 198.785156 199.003906 200.785156 198.410156 200.785156 196.472656 C 200.785156 194.160156 198.066406 193.097656 196.097656 193.097656 C 195.160156 193.097656 194.191406 193.316406 193.347656 193.816406 C 193.222656 193.878906 193.066406 194.066406 192.910156 194.066406 C 192.597656 194.066406 192.035156 193.097656 191.722656 193.097656 C 191.535156 193.097656 191.503906 193.316406 191.503906 193.410156 L 191.503906 196.972656 C 191.503906 197.097656 191.597656 197.253906 191.785156 197.253906 C 192.097656 197.253906 192.066406 196.628906 192.160156 196.285156 C 192.628906 194.566406 194.191406 193.816406 195.691406 193.722656 L 196.097656 193.722656 C 197.441406 193.722656 199.003906 194.597656 199.003906 196.472656 C 199.003906 198.285156 197.222656 199.222656 195.566406 199.222656 C 195.253906 199.222656 194.941406 199.222656 194.628906 199.222656 L 194.472656 199.222656 C 194.285156 199.222656 194.066406 199.222656 194.066406 199.441406 L 194.066406 199.472656 C 194.097656 199.660156 194.285156 199.691406 194.472656 199.691406 L 196.316406 199.691406 C 197.878906 199.816406 199.316406 200.847656 199.472656 202.472656 L 199.472656 202.691406 C 199.472656 204.535156 197.753906 205.691406 196.003906 205.691406 C 194.097656 205.691406 192.128906 205.066406 191.816406 202.691406 C 191.816406 202.535156 191.753906 202.347656 191.535156 202.347656 C 191.316406 202.378906 191.285156 202.535156 191.285156 202.691406 C 191.285156 205.285156 193.878906 206.316406 196.128906 206.316406 C 198.191406 206.316406 201.066406 205.347656 201.316406 202.878906 L 201.316406 202.753906 C 201.316406 200.785156 199.253906 199.816406 197.597656 199.410156 Z M 197.597656 199.410156 "/>
<path fill-rule="nonzero" fill="rgb(0%, 0%, 0%)" fill-opacity="1" d="M 209.695312 193.097656 C 206.320312 193.503906 203.632812 196.160156 203.632812 199.753906 C 203.632812 203.035156 206.226562 206.285156 210.101562 206.285156 C 213.601562 206.285156 216.570312 203.378906 216.570312 199.753906 C 216.570312 196.566406 214.070312 193.097656 210.132812 193.097656 C 210.007812 193.097656 209.851562 193.097656 209.695312 193.097656 Z M 205.507812 199.972656 L 205.507812 199.628906 C 205.507812 197.128906 206.414062 194.191406 209.570312 193.660156 C 209.757812 193.628906 209.914062 193.628906 210.101562 193.628906 C 212.914062 193.628906 214.664062 196.347656 214.664062 199.378906 C 214.664062 201.785156 213.945312 204.847656 210.976562 205.628906 C 210.695312 205.691406 210.414062 205.722656 210.132812 205.722656 L 209.945312 205.722656 C 207.351562 205.628906 205.945312 203.160156 205.601562 200.753906 Z M 205.507812 199.972656 "/>
<path fill-rule="nonzero" fill="rgb(0%, 0%, 0%)" fill-opacity="1" d="M 219.027344 193.441406 L 219.027344 194.035156 L 219.464844 194.035156 C 220.058594 194.035156 220.683594 194.128906 220.683594 195.003906 L 220.683594 204.472656 C 220.683594 205.316406 219.964844 205.347656 219.308594 205.347656 L 219.027344 205.347656 L 219.027344 205.941406 L 224.808594 205.941406 C 225.214844 205.941406 225.589844 205.972656 225.996094 205.972656 C 227.996094 205.972656 230.339844 205.035156 230.558594 202.628906 L 230.558594 202.441406 C 230.558594 199.910156 227.683594 198.878906 225.777344 198.878906 C 224.527344 198.878906 223.339844 199.003906 222.152344 199.097656 L 222.152344 194.878906 C 222.152344 194.441406 222.214844 194.035156 222.996094 194.035156 L 225.308594 194.035156 C 226.277344 194.035156 227.371094 194.097656 228.089844 194.816406 C 228.777344 195.535156 228.871094 196.753906 228.964844 197.691406 L 229.496094 197.691406 L 229.027344 193.441406 Z M 222.152344 199.722656 C 222.402344 199.722656 222.652344 199.660156 222.902344 199.628906 L 224.277344 199.566406 C 224.558594 199.535156 224.839844 199.503906 225.152344 199.503906 C 226.714844 199.503906 228.683594 200.503906 228.683594 202.347656 C 228.683594 204.097656 227.339844 205.378906 225.339844 205.378906 C 225.058594 205.378906 224.746094 205.347656 224.496094 205.347656 L 222.964844 205.347656 C 222.496094 205.347656 222.246094 205.316406 222.152344 204.691406 Z M 222.152344 199.722656 "/>
<path fill-rule="nonzero" fill="rgb(0%, 0%, 0%)" fill-opacity="1" d="M 232.90625 193.441406 L 232.90625 194.035156 L 233.375 194.035156 C 233.96875 194.035156 234.5625 194.128906 234.5625 195.003906 L 234.5625 204.472656 C 234.5625 205.316406 233.875 205.347656 233.1875 205.347656 L 232.90625 205.347656 L 232.90625 205.941406 L 237.8125 205.941406 L 237.8125 205.347656 L 237.375 205.347656 C 236.75 205.347656 236.15625 205.285156 236.15625 204.410156 L 236.15625 200.222656 L 239.875 200.222656 C 241.65625 200.097656 243.9375 198.910156 243.9375 196.878906 C 243.9375 194.660156 241.59375 193.597656 239.6875 193.441406 Z M 236.125 199.691406 L 236.125 194.691406 C 236.21875 194.097656 236.46875 194.035156 236.875 194.035156 L 238.3125 194.035156 C 239.9375 194.035156 242.0625 194.097656 242.0625 196.878906 C 242.0625 197.535156 241.96875 198.222656 241.5625 198.722656 C 240.90625 199.503906 239.8125 199.691406 238.84375 199.691406 Z M 236.125 199.691406 "/>
<path fill-rule="nonzero" fill="rgb(0%, 0%, 0%)" fill-opacity="1" d="M 248.632812 203.660156 C 248.132812 203.753906 247.632812 204.191406 247.632812 204.785156 C 247.632812 205.410156 248.164062 205.941406 248.789062 205.941406 C 249.414062 205.941406 249.976562 205.472656 249.976562 204.816406 C 249.976562 204.191406 249.445312 203.628906 248.820312 203.628906 C 248.757812 203.628906 248.695312 203.660156 248.632812 203.660156 Z M 248.632812 203.660156 "/>
<path fill-rule="nonzero" fill="rgb(0%, 0%, 0%)" fill-opacity="1" d="M 264.535156 198.316406 C 264.535156 196.066406 264.628906 193.503906 266.316406 191.816406 C 266.972656 191.160156 267.816406 190.691406 268.785156 190.628906 L 269.003906 190.628906 C 269.847656 190.628906 270.722656 190.878906 271.253906 191.597656 C 271.191406 191.566406 271.128906 191.566406 271.035156 191.566406 C 270.503906 191.566406 270.035156 191.972656 270.035156 192.566406 C 270.035156 193.128906 270.441406 193.597656 271.035156 193.597656 C 271.566406 193.597656 272.066406 193.191406 272.066406 192.597656 C 272.066406 190.847656 270.535156 190.066406 268.941406 190.066406 C 264.941406 190.066406 262.566406 194.441406 262.566406 198.191406 C 262.566406 201.410156 263.222656 206.441406 267.753906 206.441406 C 269.660156 206.441406 271.128906 205.253906 272.035156 203.722656 C 272.472656 202.878906 272.628906 201.941406 272.628906 201.035156 C 272.628906 198.503906 270.816406 195.753906 267.910156 195.753906 C 266.660156 195.753906 265.660156 196.347656 265.035156 197.347656 C 264.847656 197.628906 264.628906 197.972656 264.535156 198.316406 Z M 264.566406 200.628906 L 264.566406 200.441406 C 264.566406 198.566406 265.628906 196.253906 267.785156 196.253906 C 269.503906 196.253906 270.472656 197.878906 270.628906 199.410156 C 270.660156 200.035156 270.660156 200.660156 270.660156 201.285156 C 270.660156 202.753906 270.535156 204.503906 269.160156 205.378906 C 268.722656 205.660156 268.222656 205.816406 267.691406 205.816406 C 265.410156 205.816406 264.722656 203.472656 264.597656 201.378906 C 264.597656 201.128906 264.597656 200.878906 264.566406 200.628906 Z M 264.566406 200.628906 "/>
<path fill-rule="nonzero" fill="rgb(0%, 0%, 0%)" fill-opacity="1" d="M 279.996094 190.066406 C 275.433594 190.472656 275.277344 195.941406 275.277344 198.378906 C 275.277344 200.628906 275.496094 203.285156 276.964844 205.003906 C 277.777344 205.910156 279.027344 206.472656 280.246094 206.472656 C 285.121094 206.472656 285.339844 200.628906 285.339844 198.191406 C 285.339844 195.941406 285.152344 193.253906 283.652344 191.566406 C 282.839844 190.628906 281.621094 190.035156 280.339844 190.035156 C 280.214844 190.035156 280.089844 190.066406 279.996094 190.066406 Z M 277.121094 199.691406 C 277.089844 199.503906 277.089844 199.285156 277.089844 199.066406 L 277.089844 198.035156 C 277.089844 196.847656 277.121094 195.660156 277.246094 194.472656 C 277.339844 193.566406 277.464844 192.597656 277.996094 191.816406 C 278.527344 191.035156 279.371094 190.535156 280.308594 190.535156 C 282.433594 190.535156 283.183594 192.597656 283.371094 194.316406 C 283.496094 195.410156 283.496094 196.503906 283.496094 197.597656 C 283.496094 198.597656 283.496094 199.628906 283.433594 200.628906 C 283.371094 202.566406 283.246094 205.378906 280.777344 205.910156 C 280.621094 205.941406 280.464844 205.972656 280.308594 205.972656 C 277.277344 205.972656 277.339844 202.097656 277.121094 199.691406 Z M 277.121094 199.691406 "/>
<path fill-rule="nonzero" fill="rgb(0%, 0%, 0%)" fill-opacity="1" d="M 290.140625 203.660156 C 289.640625 203.753906 289.140625 204.191406 289.140625 204.785156 C 289.140625 205.410156 289.671875 205.941406 290.296875 205.941406 C 290.921875 205.941406 291.484375 205.472656 291.484375 204.816406 C 291.484375 204.191406 290.953125 203.628906 290.328125 203.628906 C 290.265625 203.628906 290.203125 203.660156 290.140625 203.660156 Z M 290.140625 203.660156 "/>
</svg>
