<?xml version="1.0" encoding="UTF-8"?>
<svg xmlns="http://www.w3.org/2000/svg" xmlns:xlink="http://www.w3.org/1999/xlink" width="374" height="268" viewBox="0 0 374 268">
<path fill="none" stroke-width="11.9553" stroke-linecap="butt" stroke-linejoin="miter" stroke="rgb(0%, 0%, 0%)" stroke-opacity="1" stroke-miterlimit="10" d="M 116.015623 319.60937 L 1016.992172 950.507798 " transform="matrix(0.2, 0, 0, -0.2, 0, 268)"/>
<path fill="none" stroke-width="11.9553" stroke-linecap="butt" stroke-linejoin="miter" stroke="rgb(0%, 0%, 0%)" stroke-opacity="1" stroke-miterlimit="10" d="M 116.015623 319.60937 L 445.195306 1224.062482 " transform="matrix(0.2, 0, 0, -0.2, 0, 268)"/>
<path fill="none" stroke-width="11.9553" stroke-linecap="butt" stroke-linejoin="miter" stroke="rgb(0%, 0%, 0%)" stroke-opacity="1" stroke-miterlimit="10" d="M 116.015623 319.60937 L 193.47656 1205.312482 " transform="matrix(0.2, 0, 0, -0.2, 0, 268)"/>
<path fill="none" stroke-width="11.9553" stroke-linecap="butt" stroke-linejoin="miter" stroke="rgb(0%, 0%, 0%)" stroke-opacity="1" stroke-miterlimit="10" d="M 619.999991 1192.578107 L 589.492179 1200.781232 L 558.867179 1207.851545 L 528.203117 1213.749982 L 497.578118 1218.515607 L 466.992181 1222.148419 L 436.523431 1224.687482 L 406.171869 1226.093732 L 376.054682 1226.445294 L 346.132807 1225.742169 L 316.523433 1223.984357 L 287.187496 1221.210919 L 258.203121 1217.460919 L 229.609372 1212.773419 L 201.445309 1207.109357 L 173.749997 1200.546857 L 146.523435 1193.124982 L 119.765623 1184.843732 L 93.593749 1175.781232 L 67.929686 1165.937483 L 42.890624 1155.312483 " transform="matrix(0.2, 0, 0, -0.2, 0, 268)"/>
<path fill-rule="nonzero" fill="rgb(0%, 0%, 0%)" fill-opacity="1" d="M 88.773438 12.714844 C 87.898438 14.152344 87.054688 14.464844 86.085938 14.527344 C 85.835938 14.558594 85.617188 14.558594 85.617188 14.964844 C 85.617188 15.121094 85.742188 15.214844 85.929688 15.214844 C 86.492188 15.214844 87.179688 15.152344 87.804688 15.152344 C 88.523438 15.152344 89.273438 15.214844 89.960938 15.214844 C 90.117188 15.214844 90.398438 15.214844 90.398438 14.808594 C 90.398438 14.558594 90.179688 14.527344 90.023438 14.527344 C 89.523438 14.496094 89.023438 14.308594 89.023438 13.777344 C 89.023438 13.527344 89.148438 13.277344 89.304688 12.964844 L 90.960938 10.183594 L 96.460938 10.183594 C 96.492188 10.621094 96.804688 13.589844 96.804688 13.808594 C 96.804688 14.464844 95.679688 14.527344 95.242188 14.527344 C 94.929688 14.527344 94.710938 14.527344 94.710938 14.964844 C 94.710938 15.214844 94.960938 15.214844 95.023438 15.214844 C 95.898438 15.214844 96.835938 15.152344 97.742188 15.152344 C 98.273438 15.152344 99.648438 15.214844 100.210938 15.214844 C 100.335938 15.214844 100.585938 15.214844 100.585938 14.777344 C 100.585938 14.527344 100.367188 14.527344 100.085938 14.527344 C 98.742188 14.527344 98.742188 14.371094 98.679688 13.746094 L 97.335938 0.121094 C 97.304688 -0.316406 97.304688 -0.410156 96.929688 -0.410156 C 96.585938 -0.410156 96.492188 -0.253906 96.367188 -0.0351562 Z M 91.398438 9.496094 L 95.679688 2.308594 L 96.398438 9.496094 Z M 91.398438 9.496094 "/>
<path fill-rule="nonzero" fill="rgb(0%, 0%, 0%)" fill-opacity="1" d="M 33.316406 17.277344 C 33.097656 18.121094 33.035156 18.277344 31.316406 18.277344 C 30.941406 18.277344 30.722656 18.277344 30.722656 18.714844 C 30.722656 18.964844 30.941406 18.964844 31.316406 18.964844 L 39.097656 18.964844 C 42.566406 18.964844 45.128906 16.402344 45.128906 14.246094 C 45.128906 12.683594 43.878906 11.402344 41.753906 11.183594 C 44.003906 10.777344 46.316406 9.152344 46.316406 7.089844 C 46.316406 5.464844 44.878906 4.058594 42.253906 4.058594 L 34.910156 4.058594 C 34.503906 4.058594 34.285156 4.058594 34.285156 4.496094 C 34.285156 4.746094 34.472656 4.746094 34.910156 4.746094 C 34.941406 4.746094 35.347656 4.746094 35.722656 4.777344 C 36.128906 4.839844 36.316406 4.839844 36.316406 5.121094 C 36.316406 5.214844 36.285156 5.277344 36.222656 5.558594 Z M 36.597656 10.996094 L 37.941406 5.558594 C 38.160156 4.808594 38.191406 4.746094 39.128906 4.746094 L 41.941406 4.746094 C 43.878906 4.746094 44.316406 6.027344 44.316406 6.996094 C 44.316406 8.902344 42.441406 10.996094 39.785156 10.996094 Z M 35.628906 18.277344 C 35.316406 18.277344 35.253906 18.277344 35.128906 18.277344 C 34.910156 18.246094 34.847656 18.214844 34.847656 18.058594 C 34.847656 17.996094 34.847656 17.933594 34.972656 17.558594 L 36.472656 11.464844 L 40.597656 11.464844 C 42.691406 11.464844 43.097656 13.089844 43.097656 14.027344 C 43.097656 16.183594 41.160156 18.277344 38.597656 18.277344 Z M 35.628906 18.277344 "/>
<path fill-rule="nonzero" fill="rgb(0%, 0%, 0%)" fill-opacity="1" d="M 123.496094 126.214844 C 123.621094 126.527344 123.808594 126.996094 123.902344 127.089844 C 124.121094 127.402344 124.496094 127.433594 124.746094 127.246094 C 124.996094 127.089844 125.183594 126.714844 125.058594 126.246094 C 125.027344 126.152344 123.933594 123.308594 123.808594 122.933594 C 123.558594 122.246094 122.964844 120.777344 122.746094 120.214844 C 122.652344 119.933594 122.589844 118.714844 122.714844 118.027344 C 122.777344 117.839844 122.964844 116.996094 123.746094 116.464844 C 124.214844 116.121094 124.621094 116.152344 124.652344 116.152344 C 124.183594 116.621094 124.058594 117.308594 124.402344 117.777344 C 124.589844 118.089844 125.027344 118.246094 125.527344 117.902344 C 125.996094 117.589844 126.183594 116.839844 125.746094 116.214844 C 125.308594 115.558594 124.371094 115.402344 123.464844 116.058594 C 122.308594 116.871094 122.121094 118.308594 122.152344 119.027344 C 121.433594 118.339844 120.371094 118.214844 119.558594 118.777344 C 118.714844 119.371094 118.871094 120.308594 118.933594 120.746094 C 119.027344 121.558594 119.558594 122.839844 119.589844 122.871094 C 119.714844 123.058594 119.902344 122.933594 119.964844 122.871094 C 120.121094 122.746094 120.089844 122.714844 119.964844 122.277344 C 119.371094 120.777344 119.121094 119.683594 119.777344 119.246094 C 120.058594 119.027344 120.433594 118.964844 120.902344 119.652344 C 121.183594 120.027344 121.246094 120.246094 121.683594 121.371094 Z M 123.496094 126.214844 "/>
<path fill="none" stroke-width="11.9553" stroke-linecap="butt" stroke-linejoin="miter" stroke="rgb(0%, 0%, 0%)" stroke-opacity="1" stroke-miterlimit="10" d="M 238.671871 656.640615 L 237.929684 656.914053 L 237.187496 657.148428 L 235.703121 657.695303 L 234.999996 657.929678 L 233.515622 658.476553 L 232.773434 658.710928 L 232.031247 658.984365 L 231.289059 659.21874 L 230.546872 659.492178 L 229.062497 659.960928 L 228.320309 660.234365 L 224.609372 661.40624 L 223.867184 661.679678 L 223.085934 661.914053 L 222.343747 662.109365 L 219.374997 663.046865 L 218.593747 663.28124 L 217.851559 663.476553 L 216.367184 663.945303 L 215.624997 664.140615 L 214.843747 664.37499 L 214.101559 664.570303 L 213.359372 664.804678 L 212.617184 664.99999 L 211.835934 665.195303 L 211.093747 665.429678 L 210.351559 665.62499 L 209.570309 665.859365 L 208.828122 666.015615 L 208.046872 666.24999 L 205.820309 666.835928 L 205.039059 667.03124 L 204.296872 667.226553 L 203.515622 667.421865 L 202.031247 667.81249 L 201.249997 667.96874 L 200.468747 668.164053 L 199.72656 668.359365 L 198.984372 668.515615 L 197.421872 668.90624 L 196.679685 669.06249 L 195.898435 669.257803 L 195.156247 669.414053 L 194.374997 669.570303 L 193.63281 669.765615 L 192.85156 669.921865 L 192.109372 670.078115 L 191.328122 670.273428 L 190.546872 670.429678 L 189.804685 670.585928 L 189.023435 670.742178 L 188.281247 670.898428 L 187.499997 671.054678 L 186.75781 671.210927 L 185.19531 671.523427 L 184.453122 671.679677 L 183.671872 671.796865 L 182.890622 671.953115 L 182.148435 672.109365 L 181.367185 672.265615 L 180.585935 672.382802 L 179.804685 672.539052 L 179.062497 672.65624 L 178.281247 672.81249 L 177.499997 672.929677 L 176.75781 673.085927 L 175.97656 673.203115 L 175.19531 673.359365 L 174.41406 673.476552 L 173.671872 673.59374 L 172.890622 673.710927 L 172.109372 673.867177 L 170.546872 674.101552 L 169.804685 674.179677 L 169.023435 674.335927 L 168.242185 674.414052 L 167.460935 674.570302 L 166.679685 674.648427 L 165.898435 674.765615 L 165.156248 674.882802 L 164.374998 674.960927 L 162.031248 675.31249 L 160.468748 675.46874 L 159.687498 675.585927 L 158.94531 675.703115 L 156.60156 675.93749 L 155.82031 676.054677 L 153.47656 676.289052 L 152.734373 676.367177 L 148.046873 676.835927 L 147.265623 676.87499 " transform="matrix(0.2, 0, 0, -0.2, 0, 268)"/>
<path fill-rule="nonzero" fill="rgb(0%, 0%, 0%)" fill-opacity="1" d="M 35.914062 114.40625 C 35.914062 114.40625 35.695312 114.3125 35.601562 114.5625 C 35.507812 114.875 34.976562 116.9375 34.882812 117.28125 C 34.851562 117.4375 34.914062 117.5625 35.195312 117.6875 C 35.414062 117.75 35.476562 117.59375 35.570312 117.28125 C 35.945312 116.28125 36.101562 116.3125 36.320312 116.375 L 36.695312 116.59375 L 41.101562 119.625 C 40.195312 119.6875 39.445312 120.0625 39.101562 121 C 38.226562 123.40625 40.320312 127.0625 43.320312 128.125 C 45.257812 128.84375 47.039062 128.21875 47.601562 126.59375 C 47.757812 126.1875 48.039062 125.125 47.007812 123.40625 C 47.945312 123.53125 48.914062 123.0625 49.257812 122.09375 C 49.507812 121.375 49.195312 120.71875 48.664062 120.125 C 48.039062 119.5 46.914062 118.78125 46.851562 118.78125 C 46.632812 118.6875 46.570312 118.90625 46.539062 118.9375 C 46.476562 119.15625 46.570312 119.1875 46.851562 119.40625 C 48.039062 120.1875 49.070312 121 48.757812 121.875 C 48.570312 122.40625 48.039062 122.28125 47.601562 122.125 C 47.101562 121.96875 47.039062 121.875 46.695312 121.65625 Z M 45.945312 122.875 C 46.257812 123.125 46.289062 123.125 46.539062 123.5625 C 47.320312 124.875 47.351562 125.8125 47.132812 126.375 C 46.757812 127.40625 45.539062 127.3125 44.726562 127.03125 C 43.726562 126.65625 41.445312 125.0625 40.695312 124.25 C 39.695312 123.15625 39.289062 121.96875 39.570312 121.15625 C 40.070312 119.84375 41.820312 120.125 41.945312 120.1875 C 42.070312 120.21875 42.195312 120.3125 42.289062 120.375 Z M 45.945312 122.875 "/>
<path fill-rule="nonzero" fill="rgb(0%, 0%, 0%)" fill-opacity="1" d="M 43.082031 106.402344 C 41.738281 105.902344 38.738281 105.246094 37.988281 107.339844 C 36.957031 110.183594 41.582031 115.464844 46.269531 117.183594 C 48.175781 117.871094 50.707031 118.089844 51.394531 116.246094 C 52.425781 113.371094 47.675781 108.058594 43.082031 106.402344 Z M 43.582031 113.714844 C 42.394531 112.902344 40.894531 111.902344 39.769531 110.527344 C 38.925781 109.621094 38.082031 108.433594 38.425781 107.527344 C 38.769531 106.527344 40.144531 106.839844 41.332031 107.277344 C 42.332031 107.652344 43.300781 108.214844 45.144531 109.433594 Z M 45.738281 109.871094 C 46.582031 110.433594 48.175781 111.464844 49.363281 112.839844 C 50.519531 114.027344 51.207031 115.183594 50.894531 116.058594 C 50.644531 116.714844 49.925781 116.964844 48.019531 116.277344 C 47.144531 115.964844 45.988281 115.371094 44.207031 114.121094 Z M 45.738281 109.871094 "/>
<path fill="none" stroke-width="11.9553" stroke-linecap="butt" stroke-linejoin="miter" stroke="rgb(0%, 0%, 0%)" stroke-opacity="1" stroke-miterlimit="10" d="M 295.312496 319.60937 L 295.312496 322.343745 L 295.273433 323.242183 L 295.273433 324.14062 L 295.234371 325.07812 L 295.195308 325.976558 L 295.195308 326.914058 L 295.117183 328.710933 L 295.039058 329.648433 L 294.999996 330.54687 L 294.921871 331.445308 L 294.882808 332.382808 L 294.726558 334.179683 L 294.648433 335.117183 L 294.414058 337.812495 L 294.296871 338.749995 L 294.218746 339.648432 L 293.867183 342.343745 L 293.749996 343.281245 L 293.515621 345.07812 L 293.359371 345.976557 L 293.242183 346.874995 L 293.085933 347.773432 L 292.968746 348.67187 L 292.499996 351.367182 L 292.304683 352.26562 L 291.992183 354.062495 L 291.796871 354.960932 L 291.640621 355.85937 L 291.249996 357.656245 L 291.054683 358.51562 L 290.859371 359.45312 L 290.624996 360.312495 L 290.234371 362.10937 L 289.999996 362.968745 L 289.765621 363.867182 L 289.570308 364.76562 L 289.335933 365.624995 L 289.062496 366.523432 L 288.828121 367.382807 L 288.593746 368.281245 L 288.359371 369.140619 L 288.085933 370.039057 L 287.812496 370.898432 L 287.578121 371.796869 L 287.031246 373.515619 L 286.757808 374.414057 L 286.484371 375.273432 L 286.171871 376.132807 L 285.898433 376.992182 L 285.585933 377.851557 L 285.312496 378.710932 L 283.437496 383.867182 L 283.085933 384.726557 L 282.773433 385.546869 L 282.070308 387.265619 L 281.718746 388.085932 L 281.015621 389.804682 L 280.312496 391.445307 L 279.921871 392.304682 L 279.570308 393.124994 L 279.179683 393.984369 L 276.445308 399.726557 L 275.585933 401.367182 L 275.195308 402.187494 L 274.765621 402.968744 L 273.906246 404.609369 L 273.476558 405.390619 L 273.046871 406.210931 L 272.578121 406.992181 L 272.148433 407.773431 L 271.679683 408.593744 L 271.249996 409.374994 L 270.312496 410.937494 L 269.843746 411.757806 L 268.906246 413.320306 L 268.437496 414.062494 L 267.929684 414.843744 L 267.460934 415.624994 L 266.953121 416.406244 L 266.484371 417.148431 L 265.976559 417.929681 L 265.468746 418.671869 L 264.960934 419.453119 L 264.453121 420.195306 L 263.945309 420.976556 L 263.437496 421.718744 L 262.890621 422.460931 " transform="matrix(0.2, 0, 0, -0.2, 0, 268)"/>
<path fill-rule="nonzero" fill="rgb(0%, 0%, 0%)" fill-opacity="1" d="M 71.328125 186.082031 C 71.328125 184.644531 70.921875 181.613281 68.703125 181.613281 C 65.671875 181.613281 62.296875 187.769531 62.296875 192.769531 C 62.296875 194.800781 62.953125 197.238281 64.921875 197.238281 C 67.984375 197.238281 71.328125 190.957031 71.328125 186.082031 Z M 64.609375 189.082031 C 64.984375 187.675781 65.421875 185.925781 66.296875 184.394531 C 66.890625 183.300781 67.703125 182.082031 68.671875 182.082031 C 69.734375 182.082031 69.890625 183.488281 69.890625 184.738281 C 69.890625 185.800781 69.703125 186.925781 69.171875 189.082031 Z M 68.984375 189.769531 C 68.734375 190.769531 68.296875 192.613281 67.453125 194.207031 C 66.703125 195.675781 65.859375 196.738281 64.921875 196.738281 C 64.203125 196.738281 63.734375 196.113281 63.734375 194.082031 C 63.734375 193.175781 63.890625 191.894531 64.453125 189.769531 Z M 68.984375 189.769531 "/>
<path fill-rule="nonzero" fill="rgb(100%, 100%, 100%)" fill-opacity="1" d="M -6.101562 204.101562 L 23.179688 204.101562 L 23.179688 230.984375 L -6.101562 230.984375 Z M -6.101562 204.101562 "/>
<path fill-rule="nonzero" fill="rgb(0%, 0%, 0%)" fill-opacity="1" d="M 16.078125 215.460938 C 16.078125 211.929688 13.765625 209.585938 10.515625 209.585938 C 5.796875 209.585938 0.984375 214.523438 0.984375 219.617188 C 0.984375 223.242188 3.421875 225.429688 6.578125 225.429688 C 11.203125 225.429688 16.078125 220.648438 16.078125 215.460938 Z M 6.703125 224.867188 C 4.546875 224.867188 3.015625 223.117188 3.015625 220.242188 C 3.015625 219.273438 3.328125 216.085938 5.015625 213.523438 C 6.515625 211.273438 8.640625 210.117188 10.359375 210.117188 C 12.171875 210.117188 14.109375 211.335938 14.109375 214.585938 C 14.109375 216.179688 13.546875 219.585938 11.359375 222.242188 C 10.328125 223.585938 8.546875 224.867188 6.703125 224.867188 Z M 6.703125 224.867188 "/>
<path fill-rule="nonzero" fill="rgb(100%, 100%, 100%)" fill-opacity="1" d="M 348.953125 204.101562 L 380.875 204.101562 L 380.875 230.984375 L 348.953125 230.984375 Z M 348.953125 204.101562 "/>
<path fill-rule="nonzero" fill="rgb(0%, 0%, 0%)" fill-opacity="1" d="M 365.574219 215.992188 L 363.730469 211.648438 C 363.667969 211.492188 363.605469 211.398438 363.605469 211.367188 C 363.605469 211.242188 363.980469 210.835938 364.917969 210.742188 C 365.136719 210.710938 365.355469 210.710938 365.355469 210.335938 C 365.355469 210.054688 365.074219 210.054688 365.011719 210.054688 C 364.105469 210.054688 363.167969 210.117188 362.261719 210.117188 C 361.730469 210.117188 360.355469 210.054688 359.824219 210.054688 C 359.699219 210.054688 359.417969 210.054688 359.417969 210.492188 C 359.417969 210.742188 359.636719 210.742188 359.917969 210.742188 C 361.230469 210.742188 361.386719 210.960938 361.574219 211.429688 L 364.136719 217.523438 L 359.542969 222.460938 L 359.261719 222.710938 C 358.199219 223.867188 357.167969 224.210938 356.042969 224.273438 C 355.761719 224.304688 355.574219 224.304688 355.574219 224.710938 C 355.574219 224.742188 355.574219 224.960938 355.855469 224.960938 C 356.511719 224.960938 357.230469 224.898438 357.917969 224.898438 C 358.699219 224.898438 359.574219 224.960938 360.355469 224.960938 C 360.480469 224.960938 360.730469 224.960938 360.730469 224.523438 C 360.730469 224.304688 360.511719 224.273438 360.480469 224.273438 C 360.292969 224.273438 359.605469 224.210938 359.605469 223.617188 C 359.605469 223.273438 359.917969 222.898438 360.199219 222.617188 L 362.417969 220.273438 L 364.386719 218.148438 L 366.574219 223.335938 C 366.667969 223.585938 366.699219 223.617188 366.699219 223.648438 C 366.699219 223.835938 366.292969 224.210938 365.417969 224.273438 C 365.199219 224.304688 364.980469 224.335938 364.980469 224.710938 C 364.980469 224.960938 365.230469 224.960938 365.324219 224.960938 C 365.917969 224.960938 367.449219 224.898438 368.074219 224.898438 C 368.605469 224.898438 369.949219 224.960938 370.480469 224.960938 C 370.636719 224.960938 370.917969 224.960938 370.917969 224.554688 C 370.917969 224.273438 370.699219 224.273438 370.511719 224.273438 C 369.042969 224.273438 369.011719 224.210938 368.636719 223.335938 C 367.792969 221.304688 366.324219 217.898438 365.824219 216.585938 C 367.292969 215.054688 369.605469 212.460938 370.292969 211.867188 C 370.917969 211.335938 371.761719 210.804688 373.074219 210.742188 C 373.355469 210.710938 373.542969 210.710938 373.542969 210.304688 C 373.542969 210.273438 373.542969 210.054688 373.261719 210.054688 C 372.605469 210.054688 371.886719 210.117188 371.199219 210.117188 C 370.386719 210.117188 369.574219 210.054688 368.792969 210.054688 C 368.667969 210.054688 368.386719 210.054688 368.386719 210.492188 C 368.386719 210.648438 368.480469 210.710938 368.636719 210.742188 C 368.824219 210.773438 369.511719 210.804688 369.511719 211.429688 C 369.511719 211.710938 369.261719 211.992188 369.105469 212.210938 Z M 365.574219 215.992188 "/>
<path fill="none" stroke-width="11.9553" stroke-linecap="butt" stroke-linejoin="miter" stroke="rgb(0%, 0%, 0%)" stroke-opacity="1" stroke-miterlimit="10" d="M 116.015623 319.60937 L 1844.02341 319.60937 " transform="matrix(0.2, 0, 0, -0.2, 0, 268)"/>
<path fill-rule="nonzero" fill="rgb(0%, 0%, 0%)" fill-opacity="1" d="M 151.597656 260.699219 C 152.785156 260.292969 154.785156 259.699219 154.785156 257.761719 C 154.785156 255.449219 152.066406 254.386719 150.097656 254.386719 C 149.160156 254.386719 148.191406 254.605469 147.347656 255.105469 C 147.222656 255.167969 147.066406 255.355469 146.910156 255.355469 C 146.597656 255.355469 146.035156 254.386719 145.722656 254.386719 C 145.535156 254.386719 145.503906 254.605469 145.503906 254.699219 L 145.503906 258.261719 C 145.503906 258.386719 145.597656 258.542969 145.785156 258.542969 C 146.097656 258.542969 146.066406 257.917969 146.160156 257.574219 C 146.628906 255.855469 148.191406 255.105469 149.691406 255.011719 L 150.097656 255.011719 C 151.441406 255.011719 153.003906 255.886719 153.003906 257.761719 C 153.003906 259.574219 151.222656 260.511719 149.566406 260.511719 C 149.253906 260.511719 148.941406 260.511719 148.628906 260.511719 L 148.472656 260.511719 C 148.285156 260.511719 148.066406 260.511719 148.066406 260.730469 L 148.066406 260.761719 C 148.097656 260.949219 148.285156 260.980469 148.472656 260.980469 L 150.316406 260.980469 C 151.878906 261.105469 153.316406 262.136719 153.472656 263.761719 L 153.472656 263.980469 C 153.472656 265.824219 151.753906 266.980469 150.003906 266.980469 C 148.097656 266.980469 146.128906 266.355469 145.816406 263.980469 C 145.816406 263.824219 145.753906 263.636719 145.535156 263.636719 C 145.316406 263.667969 145.285156 263.824219 145.285156 263.980469 C 145.285156 266.574219 147.878906 267.605469 150.128906 267.605469 C 152.191406 267.605469 155.066406 266.636719 155.316406 264.167969 L 155.316406 264.042969 C 155.316406 262.074219 153.253906 261.105469 151.597656 260.699219 Z M 151.597656 260.699219 "/>
<path fill-rule="nonzero" fill="rgb(0%, 0%, 0%)" fill-opacity="1" d="M 163.695312 254.386719 C 160.320312 254.792969 157.632812 257.449219 157.632812 261.042969 C 157.632812 264.324219 160.226562 267.574219 164.101562 267.574219 C 167.601562 267.574219 170.570312 264.667969 170.570312 261.042969 C 170.570312 257.855469 168.070312 254.386719 164.132812 254.386719 C 164.007812 254.386719 163.851562 254.386719 163.695312 254.386719 Z M 159.507812 261.261719 L 159.507812 260.917969 C 159.507812 258.417969 160.414062 255.480469 163.570312 254.949219 C 163.757812 254.917969 163.914062 254.917969 164.101562 254.917969 C 166.914062 254.917969 168.664062 257.636719 168.664062 260.667969 C 168.664062 263.074219 167.945312 266.136719 164.976562 266.917969 C 164.695312 266.980469 164.414062 267.011719 164.132812 267.011719 L 163.945312 267.011719 C 161.351562 266.917969 159.945312 264.449219 159.601562 262.042969 Z M 159.507812 261.261719 "/>
<path fill-rule="nonzero" fill="rgb(0%, 0%, 0%)" fill-opacity="1" d="M 173.027344 254.730469 L 173.027344 255.324219 L 173.464844 255.324219 C 174.058594 255.324219 174.683594 255.417969 174.683594 256.292969 L 174.683594 265.761719 C 174.683594 266.605469 173.964844 266.636719 173.308594 266.636719 L 173.027344 266.636719 L 173.027344 267.230469 L 178.808594 267.230469 C 179.214844 267.230469 179.589844 267.261719 179.996094 267.261719 C 181.996094 267.261719 184.339844 266.324219 184.558594 263.917969 L 184.558594 263.730469 C 184.558594 261.199219 181.683594 260.167969 179.777344 260.167969 C 178.527344 260.167969 177.339844 260.292969 176.152344 260.386719 L 176.152344 256.167969 C 176.152344 255.730469 176.214844 255.324219 176.996094 255.324219 L 179.308594 255.324219 C 180.277344 255.324219 181.371094 255.386719 182.089844 256.105469 C 182.777344 256.824219 182.871094 258.042969 182.964844 258.980469 L 183.496094 258.980469 L 183.027344 254.730469 Z M 176.152344 261.011719 C 176.402344 261.011719 176.652344 260.949219 176.902344 260.917969 L 178.277344 260.855469 C 178.558594 260.824219 178.839844 260.792969 179.152344 260.792969 C 180.714844 260.792969 182.683594 261.792969 182.683594 263.636719 C 182.683594 265.386719 181.339844 266.667969 179.339844 266.667969 C 179.058594 266.667969 178.746094 266.636719 178.496094 266.636719 L 176.964844 266.636719 C 176.496094 266.636719 176.246094 266.605469 176.152344 265.980469 Z M 176.152344 261.011719 "/>
<path fill-rule="nonzero" fill="rgb(0%, 0%, 0%)" fill-opacity="1" d="M 186.90625 254.730469 L 186.90625 255.324219 L 187.375 255.324219 C 187.96875 255.324219 188.5625 255.417969 188.5625 256.292969 L 188.5625 265.761719 C 188.5625 266.605469 187.875 266.636719 187.1875 266.636719 L 186.90625 266.636719 L 186.90625 267.230469 L 191.8125 267.230469 L 191.8125 266.636719 L 191.375 266.636719 C 190.75 266.636719 190.15625 266.574219 190.15625 265.699219 L 190.15625 261.511719 L 193.875 261.511719 C 195.65625 261.386719 197.9375 260.199219 197.9375 258.167969 C 197.9375 255.949219 195.59375 254.886719 193.6875 254.730469 Z M 190.125 260.980469 L 190.125 255.980469 C 190.21875 255.386719 190.46875 255.324219 190.875 255.324219 L 192.3125 255.324219 C 193.9375 255.324219 196.0625 255.386719 196.0625 258.167969 C 196.0625 258.824219 195.96875 259.511719 195.5625 260.011719 C 194.90625 260.792969 193.8125 260.980469 192.84375 260.980469 Z M 190.125 260.980469 "/>
<path fill-rule="nonzero" fill="rgb(0%, 0%, 0%)" fill-opacity="1" d="M 202.632812 264.949219 C 202.132812 265.042969 201.632812 265.480469 201.632812 266.074219 C 201.632812 266.699219 202.164062 267.230469 202.789062 267.230469 C 203.414062 267.230469 203.976562 266.761719 203.976562 266.105469 C 203.976562 265.480469 203.445312 264.917969 202.820312 264.917969 C 202.757812 264.917969 202.695312 264.949219 202.632812 264.949219 Z M 202.632812 264.949219 "/>
<path fill-rule="nonzero" fill="rgb(0%, 0%, 0%)" fill-opacity="1" d="M 218.535156 259.605469 C 218.535156 257.355469 218.628906 254.792969 220.316406 253.105469 C 220.972656 252.449219 221.816406 251.980469 222.785156 251.917969 L 223.003906 251.917969 C 223.847656 251.917969 224.722656 252.167969 225.253906 252.886719 C 225.191406 252.855469 225.128906 252.855469 225.035156 252.855469 C 224.503906 252.855469 224.035156 253.261719 224.035156 253.855469 C 224.035156 254.417969 224.441406 254.886719 225.035156 254.886719 C 225.566406 254.886719 226.066406 254.480469 226.066406 253.886719 C 226.066406 252.136719 224.535156 251.355469 222.941406 251.355469 C 218.941406 251.355469 216.566406 255.730469 216.566406 259.480469 C 216.566406 262.699219 217.222656 267.730469 221.753906 267.730469 C 223.660156 267.730469 225.128906 266.542969 226.035156 265.011719 C 226.472656 264.167969 226.628906 263.230469 226.628906 262.324219 C 226.628906 259.792969 224.816406 257.042969 221.910156 257.042969 C 220.660156 257.042969 219.660156 257.636719 219.035156 258.636719 C 218.847656 258.917969 218.628906 259.261719 218.535156 259.605469 Z M 218.566406 261.917969 L 218.566406 261.730469 C 218.566406 259.855469 219.628906 257.542969 221.785156 257.542969 C 223.503906 257.542969 224.472656 259.167969 224.628906 260.699219 C 224.660156 261.324219 224.660156 261.949219 224.660156 262.574219 C 224.660156 264.042969 224.535156 265.792969 223.160156 266.667969 C 222.722656 266.949219 222.222656 267.105469 221.691406 267.105469 C 219.410156 267.105469 218.722656 264.761719 218.597656 262.667969 C 218.597656 262.417969 218.597656 262.167969 218.566406 261.917969 Z M 218.566406 261.917969 "/>
<path fill-rule="nonzero" fill="rgb(0%, 0%, 0%)" fill-opacity="1" d="M 230.527344 252.855469 L 230.527344 253.574219 C 231.621094 253.574219 232.652344 253.386719 233.683594 252.917969 L 233.683594 265.480469 C 233.683594 266.417969 232.777344 266.574219 231.808594 266.574219 C 231.402344 266.574219 230.996094 266.542969 230.652344 266.542969 L 230.652344 267.230469 L 238.371094 267.230469 L 238.371094 266.542969 C 237.996094 266.542969 237.558594 266.574219 237.152344 266.574219 C 236.214844 266.574219 235.339844 266.417969 235.339844 265.511719 L 235.339844 251.699219 C 235.339844 251.542969 235.308594 251.355469 235.058594 251.355469 C 234.746094 251.355469 234.402344 251.792969 234.089844 251.980469 C 233.027344 252.667969 231.746094 252.855469 230.527344 252.855469 Z M 230.527344 252.855469 "/>
<path fill-rule="nonzero" fill="rgb(0%, 0%, 0%)" fill-opacity="1" d="M 244.140625 264.949219 C 243.640625 265.042969 243.140625 265.480469 243.140625 266.074219 C 243.140625 266.699219 243.671875 267.230469 244.296875 267.230469 C 244.921875 267.230469 245.484375 266.761719 245.484375 266.105469 C 245.484375 265.480469 244.953125 264.917969 244.328125 264.917969 C 244.265625 264.917969 244.203125 264.949219 244.140625 264.949219 Z M 244.140625 264.949219 "/>
</svg>
