<?xml version="1.0" encoding="UTF-8"?>
<svg xmlns="http://www.w3.org/2000/svg" xmlns:xlink="http://www.w3.org/1999/xlink" width="316" height="346" viewBox="0 0 316 346">
<path fill="none" stroke-width="7.9701" stroke-linecap="butt" stroke-linejoin="miter" stroke="rgb(0%, 0%, 0%)" stroke-opacity="1" stroke-miterlimit="10" d="M 1107.304671 921.601549 L 1107.304671 949.960923 " transform="matrix(0.2, 0, 0, -0.2, 0, 346)"/>
<path fill="none" stroke-width="7.9701" stroke-linecap="butt" stroke-linejoin="miter" stroke="rgb(0%, 0%, 0%)" stroke-opacity="1" stroke-miterlimit="10" d="M 1107.304671 1006.64061 L 1107.304671 1034.960922 " transform="matrix(0.2, 0, 0, -0.2, 0, 346)"/>
<path fill="none" stroke-width="7.9701" stroke-linecap="butt" stroke-linejoin="miter" stroke="rgb(0%, 0%, 0%)" stroke-opacity="1" stroke-miterlimit="10" d="M 1107.304671 1034.960922 L 1107.304671 1063.320297 " transform="matrix(0.2, 0, 0, -0.2, 0, 346)"/>
<path fill="none" stroke-width="7.9701" stroke-linecap="butt" stroke-linejoin="miter" stroke="rgb(0%, 0%, 0%)" stroke-opacity="1" stroke-miterlimit="10" d="M 1107.304671 1119.999983 L 1107.304671 1148.359358 " transform="matrix(0.2, 0, 0, -0.2, 0, 346)"/>
<path fill="none" stroke-width="7.9701" stroke-linecap="butt" stroke-linejoin="miter" stroke="rgb(0%, 0%, 0%)" stroke-opacity="1" stroke-miterlimit="10" d="M 1107.304671 1148.359358 L 1107.304671 1176.67967 " transform="matrix(0.2, 0, 0, -0.2, 0, 346)"/>
<path fill="none" stroke-width="7.9701" stroke-linecap="butt" stroke-linejoin="miter" stroke="rgb(0%, 0%, 0%)" stroke-opacity="1" stroke-miterlimit="10" d="M 1107.304671 1233.398419 L 1107.304671 1261.718731 " transform="matrix(0.2, 0, 0, -0.2, 0, 346)"/>
<path fill="none" stroke-width="7.9701" stroke-linecap="butt" stroke-linejoin="miter" stroke="rgb(0%, 0%, 0%)" stroke-opacity="1" stroke-miterlimit="10" d="M 1107.304671 1261.718731 L 1107.304671 1290.078106 " transform="matrix(0.2, 0, 0, -0.2, 0, 346)"/>
<path fill="none" stroke-width="7.9701" stroke-linecap="butt" stroke-linejoin="miter" stroke="rgb(0%, 0%, 0%)" stroke-opacity="1" stroke-miterlimit="10" d="M 1107.304671 1346.757792 L 1107.304671 1375.117167 " transform="matrix(0.2, 0, 0, -0.2, 0, 346)"/>
<path fill="none" stroke-width="7.9701" stroke-linecap="butt" stroke-linejoin="miter" stroke="rgb(0%, 0%, 0%)" stroke-opacity="1" stroke-miterlimit="10" d="M 1107.304671 1375.117167 L 1107.304671 1403.437479 " transform="matrix(0.2, 0, 0, -0.2, 0, 346)"/>
<path fill="none" stroke-width="7.9701" stroke-linecap="butt" stroke-linejoin="miter" stroke="rgb(0%, 0%, 0%)" stroke-opacity="1" stroke-miterlimit="10" d="M 1107.304671 1460.117166 L 1107.304671 1488.47654 " transform="matrix(0.2, 0, 0, -0.2, 0, 346)"/>
<path fill="none" stroke-width="11.9553" stroke-linecap="butt" stroke-linejoin="miter" stroke="rgb(0%, 0%, 0%)" stroke-opacity="1" stroke-miterlimit="10" d="M 1009.101547 1137.617171 L 1074.531234 1137.617171 " transform="matrix(0.2, 0, 0, -0.2, 0, 346)"/>
<path fill-rule="nonzero" fill="rgb(0%, 0%, 0%)" fill-opacity="1" d="M 213.046875 118.476562 L 207.4375 123.460938 L 214.90625 118.476562 L 207.4375 113.492188 L 213.046875 118.476562 "/>
<path fill="none" stroke-width="11.9553" stroke-linecap="butt" stroke-linejoin="miter" stroke="rgb(0%, 0%, 0%)" stroke-opacity="1" stroke-miterlimit="10" d="M 1065.234359 1137.617171 L 1037.187485 1112.695296 L 1074.531234 1137.617171 L 1037.187485 1162.539045 Z M 1065.234359 1137.617171 " transform="matrix(0.2, 0, 0, -0.2, 0, 346)"/>
<path fill="none" stroke-width="11.9553" stroke-linecap="butt" stroke-linejoin="miter" stroke="rgb(0%, 0%, 0%)" stroke-opacity="1" stroke-miterlimit="10" d="M 1205.468732 1137.617171 L 1140.039046 1137.617171 " transform="matrix(0.2, 0, 0, -0.2, 0, 346)"/>
<path fill-rule="nonzero" fill="rgb(0%, 0%, 0%)" fill-opacity="1" d="M 229.867188 118.476562 L 235.476562 113.492188 L 228.007812 118.476562 L 235.476562 123.460938 L 229.867188 118.476562 "/>
<path fill="none" stroke-width="11.9553" stroke-linecap="butt" stroke-linejoin="miter" stroke="rgb(0%, 0%, 0%)" stroke-opacity="1" stroke-miterlimit="10" d="M 1149.33592 1137.617171 L 1177.382795 1162.539045 L 1140.039046 1137.617171 L 1177.382795 1112.695296 Z M 1149.33592 1137.617171 " transform="matrix(0.2, 0, 0, -0.2, 0, 346)"/>
<path fill-rule="nonzero" fill="rgb(0%, 0%, 0%)" fill-opacity="1" d="M 194.433594 77.292969 C 194.433594 77.292969 194.433594 77.074219 194.152344 77.074219 C 193.839844 77.074219 191.746094 77.261719 191.371094 77.292969 C 191.214844 77.324219 191.089844 77.417969 191.089844 77.730469 C 191.089844 77.980469 191.277344 77.980469 191.589844 77.980469 C 192.652344 77.980469 192.683594 78.136719 192.683594 78.355469 L 192.621094 78.792969 L 191.308594 83.949219 C 190.933594 83.136719 190.308594 82.542969 189.308594 82.542969 C 186.746094 82.542969 184.058594 85.761719 184.058594 88.949219 C 184.058594 91.011719 185.246094 92.449219 186.964844 92.449219 C 187.402344 92.449219 188.496094 92.355469 189.777344 90.792969 C 189.964844 91.730469 190.746094 92.449219 191.777344 92.449219 C 192.527344 92.449219 193.027344 91.949219 193.402344 91.230469 C 193.777344 90.449219 194.058594 89.136719 194.058594 89.074219 C 194.058594 88.855469 193.839844 88.855469 193.777344 88.855469 C 193.558594 88.855469 193.558594 88.949219 193.464844 89.261719 C 193.121094 90.667969 192.714844 91.949219 191.808594 91.949219 C 191.246094 91.949219 191.152344 91.386719 191.152344 90.949219 C 191.152344 90.417969 191.214844 90.292969 191.308594 89.917969 Z M 189.902344 89.605469 C 189.777344 90.011719 189.777344 90.042969 189.464844 90.417969 C 188.496094 91.605469 187.621094 91.949219 186.996094 91.949219 C 185.902344 91.949219 185.589844 90.761719 185.589844 89.917969 C 185.589844 88.824219 186.308594 86.136719 186.808594 85.136719 C 187.496094 83.855469 188.464844 83.042969 189.339844 83.042969 C 190.746094 83.042969 191.058594 84.824219 191.058594 84.949219 C 191.058594 85.074219 191.027344 85.230469 190.996094 85.324219 Z M 189.902344 89.605469 "/>
<path fill-rule="nonzero" fill="rgb(0%, 0%, 0%)" fill-opacity="1" d="M 201.742188 85.605469 C 201.867188 85.042969 202.367188 83.042969 203.898438 83.042969 C 204.023438 83.042969 204.523438 83.042969 204.992188 83.324219 C 204.398438 83.417969 203.960938 83.980469 203.960938 84.511719 C 203.960938 84.855469 204.179688 85.261719 204.773438 85.261719 C 205.273438 85.261719 205.960938 84.855469 205.960938 84.011719 C 205.960938 82.855469 204.679688 82.542969 203.929688 82.542969 C 202.648438 82.542969 201.898438 83.699219 201.648438 84.230469 C 201.085938 82.761719 199.898438 82.542969 199.273438 82.542969 C 197.023438 82.542969 195.773438 85.386719 195.773438 85.917969 C 195.773438 86.136719 195.992188 86.136719 196.023438 86.136719 C 196.210938 86.136719 196.273438 86.105469 196.304688 85.886719 C 197.054688 83.574219 198.492188 83.042969 199.242188 83.042969 C 199.648438 83.042969 200.429688 83.230469 200.429688 84.511719 C 200.429688 85.167969 200.054688 86.636719 199.242188 89.699219 C 198.898438 91.042969 198.117188 91.949219 197.179688 91.949219 C 197.023438 91.949219 196.523438 91.949219 196.085938 91.667969 C 196.617188 91.574219 197.085938 91.105469 197.085938 90.511719 C 197.085938 89.917969 196.617188 89.730469 196.304688 89.730469 C 195.648438 89.730469 195.085938 90.292969 195.085938 91.011719 C 195.085938 92.011719 196.179688 92.449219 197.148438 92.449219 C 198.585938 92.449219 199.367188 90.917969 199.429688 90.792969 C 199.710938 91.574219 200.492188 92.449219 201.804688 92.449219 C 204.023438 92.449219 205.273438 89.636719 205.273438 89.074219 C 205.273438 88.855469 205.085938 88.855469 205.023438 88.855469 C 204.835938 88.855469 204.773438 88.949219 204.742188 89.105469 C 204.023438 91.449219 202.523438 91.949219 201.835938 91.949219 C 200.992188 91.949219 200.648438 91.261719 200.648438 90.511719 C 200.648438 90.042969 200.773438 89.574219 200.992188 88.605469 Z M 201.742188 85.605469 "/>
<path fill-rule="nonzero" fill="rgb(0%, 0%, 0%)" fill-opacity="1" d="M 246.566406 83.847656 C 246.660156 83.535156 246.660156 83.503906 246.660156 83.347656 C 246.660156 82.941406 246.347656 82.753906 246.035156 82.753906 C 245.816406 82.753906 245.472656 82.878906 245.253906 83.222656 C 245.222656 83.316406 245.035156 84.003906 244.972656 84.410156 C 244.816406 84.972656 244.660156 85.566406 244.535156 86.128906 L 243.535156 90.066406 C 243.441406 90.378906 242.503906 91.910156 241.066406 91.910156 C 239.972656 91.910156 239.722656 90.972656 239.722656 90.160156 C 239.722656 89.160156 240.097656 87.785156 240.847656 85.878906 C 241.191406 84.972656 241.285156 84.753906 241.285156 84.316406 C 241.285156 83.316406 240.566406 82.503906 239.472656 82.503906 C 237.410156 82.503906 236.597656 85.691406 236.597656 85.878906 C 236.597656 86.097656 236.816406 86.097656 236.878906 86.097656 C 237.097656 86.097656 237.097656 86.066406 237.222656 85.691406 C 237.816406 83.660156 238.691406 83.003906 239.410156 83.003906 C 239.597656 83.003906 239.972656 83.003906 239.972656 83.691406 C 239.972656 84.253906 239.753906 84.816406 239.597656 85.222656 C 238.722656 87.535156 238.316406 88.785156 238.316406 89.816406 C 238.316406 91.753906 239.691406 92.410156 241.003906 92.410156 C 241.847656 92.410156 242.566406 92.035156 243.191406 91.410156 C 242.910156 92.566406 242.660156 93.628906 241.785156 94.785156 C 241.222656 95.503906 240.378906 96.160156 239.378906 96.160156 C 239.066406 96.160156 238.097656 96.097656 237.722656 95.222656 C 238.066406 95.222656 238.347656 95.222656 238.660156 94.972656 C 238.878906 94.785156 239.097656 94.503906 239.097656 94.066406 C 239.097656 93.410156 238.503906 93.316406 238.285156 93.316406 C 237.785156 93.316406 237.066406 93.660156 237.066406 94.722656 C 237.066406 95.816406 238.035156 96.628906 239.378906 96.628906 C 241.628906 96.628906 243.878906 94.660156 244.472656 92.191406 Z M 246.566406 83.847656 "/>
<path fill-rule="nonzero" fill="rgb(100%, 100%, 100%)" fill-opacity="1" d="M 176.460938 131.21875 L 200.9375 131.21875 L 200.9375 152.578125 L 176.460938 152.578125 Z M 176.460938 131.21875 "/>
<path fill-rule="nonzero" fill="rgb(0%, 0%, 0%)" fill-opacity="1" d="M 189.769531 139.960938 C 189.894531 139.398438 190.394531 137.398438 191.925781 137.398438 C 192.050781 137.398438 192.550781 137.398438 193.019531 137.679688 C 192.425781 137.773438 191.988281 138.335938 191.988281 138.867188 C 191.988281 139.210938 192.207031 139.617188 192.800781 139.617188 C 193.300781 139.617188 193.988281 139.210938 193.988281 138.367188 C 193.988281 137.210938 192.707031 136.898438 191.957031 136.898438 C 190.675781 136.898438 189.925781 138.054688 189.675781 138.585938 C 189.113281 137.117188 187.925781 136.898438 187.300781 136.898438 C 185.050781 136.898438 183.800781 139.742188 183.800781 140.273438 C 183.800781 140.492188 184.019531 140.492188 184.050781 140.492188 C 184.238281 140.492188 184.300781 140.460938 184.332031 140.242188 C 185.082031 137.929688 186.519531 137.398438 187.269531 137.398438 C 187.675781 137.398438 188.457031 137.585938 188.457031 138.867188 C 188.457031 139.523438 188.082031 140.992188 187.269531 144.054688 C 186.925781 145.398438 186.144531 146.304688 185.207031 146.304688 C 185.050781 146.304688 184.550781 146.304688 184.113281 146.023438 C 184.644531 145.929688 185.113281 145.460938 185.113281 144.867188 C 185.113281 144.273438 184.644531 144.085938 184.332031 144.085938 C 183.675781 144.085938 183.113281 144.648438 183.113281 145.367188 C 183.113281 146.367188 184.207031 146.804688 185.175781 146.804688 C 186.613281 146.804688 187.394531 145.273438 187.457031 145.148438 C 187.738281 145.929688 188.519531 146.804688 189.832031 146.804688 C 192.050781 146.804688 193.300781 143.992188 193.300781 143.429688 C 193.300781 143.210938 193.113281 143.210938 193.050781 143.210938 C 192.863281 143.210938 192.800781 143.304688 192.769531 143.460938 C 192.050781 145.804688 190.550781 146.304688 189.863281 146.304688 C 189.019531 146.304688 188.675781 145.617188 188.675781 144.867188 C 188.675781 144.398438 188.800781 143.929688 189.019531 142.960938 Z M 189.769531 139.960938 "/>
<path fill-rule="nonzero" fill="rgb(0%, 0%, 0%)" fill-opacity="1" d="M 219.460938 157.695312 L 219.367188 157.5 L 219.257812 157.3125 L 219.140625 157.132812 L 219.023438 156.960938 L 218.898438 156.796875 L 218.773438 156.640625 L 218.640625 156.492188 L 218.492188 156.351562 L 218.351562 156.21875 L 218.203125 156.09375 L 218.046875 155.96875 L 217.890625 155.851562 L 217.5625 155.648438 L 217.21875 155.460938 L 217.039062 155.382812 L 216.851562 155.304688 L 216.65625 155.234375 L 216.46875 155.164062 L 216.273438 155.101562 L 216.070312 155.046875 L 215.867188 155 L 215.65625 154.953125 L 215.445312 154.914062 L 215.007812 154.835938 L 214.554688 154.789062 L 214.320312 154.765625 L 214.09375 154.75 L 213.851562 154.734375 L 213.617188 154.726562 L 213.375 154.71875 L 213.125 154.71875 L 212.875 154.710938 L 212.625 154.71875 L 211.59375 154.75 L 211.320312 154.765625 L 211.054688 154.78125 L 210.78125 154.804688 L 210.507812 154.820312 L 209.960938 154.867188 L 209.679688 154.882812 L 209.398438 154.914062 L 209.117188 154.9375 L 208.828125 154.960938 L 208.539062 154.992188 L 208.257812 155.015625 L 207.960938 155.046875 L 207.671875 155.070312 L 207.375 155.09375 L 207.078125 155.125 L 206.789062 155.148438 L 206.492188 155.179688 L 206.1875 155.203125 L 205.890625 155.226562 L 205.585938 155.25 L 205.289062 155.273438 L 204.984375 155.296875 L 203.765625 155.359375 L 203.453125 155.375 L 202.84375 155.390625 L 202.53125 155.398438 L 201.609375 155.398438 L 201.296875 155.390625 L 200.992188 155.382812 L 200.679688 155.367188 L 200.375 155.351562 L 200.0625 155.328125 L 199.757812 155.304688 L 199.445312 155.28125 L 199.140625 155.25 L 198.828125 155.210938 L 198.523438 155.171875 L 198.21875 155.125 L 197.609375 155.015625 L 197.3125 154.953125 L 197.007812 154.890625 L 196.703125 154.820312 L 196.109375 154.664062 L 195.804688 154.570312 L 195.507812 154.476562 L 195.21875 154.375 L 194.921875 154.273438 L 194.632812 154.15625 L 194.335938 154.039062 L 194.046875 153.914062 L 193.765625 153.773438 L 193.476562 153.632812 L 193.195312 153.492188 L 192.914062 153.335938 L 192.632812 153.171875 L 192.359375 153 L 192.078125 152.820312 L 191.804688 152.632812 L 191.539062 152.445312 L 191.265625 152.234375 L 191 152.03125 L 190.742188 151.804688 L 190.476562 151.578125 L 190.21875 151.34375 L 189.960938 151.09375 L 189.710938 150.84375 L 189.460938 150.578125 L 189.210938 150.304688 L 188.96875 150.015625 L 188.726562 149.71875 L 188.492188 150.015625 L 188.242188 150.304688 L 188 150.578125 L 187.75 150.84375 L 187.492188 151.09375 L 187.242188 151.34375 L 186.984375 151.578125 L 186.71875 151.804688 L 186.460938 152.03125 L 186.195312 152.234375 L 185.921875 152.445312 L 185.65625 152.632812 L 185.382812 152.820312 L 185.101562 153 L 184.828125 153.171875 L 184.546875 153.335938 L 184.265625 153.492188 L 183.984375 153.632812 L 183.40625 153.914062 L 183.117188 154.039062 L 182.539062 154.273438 L 181.945312 154.476562 L 181.351562 154.664062 L 180.757812 154.820312 L 180.453125 154.890625 L 179.84375 155.015625 L 179.546875 155.070312 L 179.234375 155.125 L 178.929688 155.171875 L 178.320312 155.25 L 178.015625 155.28125 L 177.703125 155.304688 L 177.398438 155.328125 L 177.085938 155.351562 L 176.78125 155.367188 L 176.46875 155.382812 L 176.164062 155.390625 L 175.851562 155.398438 L 174.929688 155.398438 L 174.617188 155.390625 L 174.007812 155.375 L 173.695312 155.359375 L 172.476562 155.296875 L 171.867188 155.25 L 171.273438 155.203125 L 170.96875 155.179688 L 170.671875 155.148438 L 170.375 155.125 L 170.078125 155.09375 L 169.789062 155.070312 L 169.492188 155.046875 L 169.203125 155.015625 L 168.914062 154.992188 L 168.632812 154.960938 L 168.34375 154.9375 L 168.0625 154.914062 L 167.78125 154.882812 L 167.5 154.867188 L 167.226562 154.84375 L 166.945312 154.820312 L 166.679688 154.804688 L 166.40625 154.78125 L 166.132812 154.765625 L 165.875 154.75 L 165.34375 154.734375 L 165.085938 154.726562 L 164.835938 154.71875 L 164.578125 154.710938 L 164.335938 154.71875 L 164.085938 154.71875 L 163.601562 154.734375 L 163.132812 154.765625 L 162.898438 154.789062 L 162.671875 154.8125 L 162.453125 154.835938 L 162.015625 154.914062 L 161.804688 154.953125 L 161.59375 155 L 161.390625 155.046875 L 161.1875 155.101562 L 160.992188 155.164062 L 160.796875 155.234375 L 160.609375 155.304688 L 160.421875 155.382812 L 160.242188 155.460938 L 159.898438 155.648438 L 159.726562 155.75 L 159.5625 155.851562 L 159.40625 155.96875 L 159.257812 156.09375 L 159.101562 156.21875 L 158.960938 156.351562 L 158.820312 156.492188 L 158.6875 156.640625 L 158.5625 156.796875 L 158.4375 156.960938 L 158.320312 157.132812 L 158.203125 157.3125 L 158.09375 157.5 L 157.992188 157.695312 L 158.125 157.4375 L 158.265625 157.195312 L 158.398438 156.960938 L 158.546875 156.734375 L 158.695312 156.523438 L 158.851562 156.320312 L 159.007812 156.125 L 159.171875 155.9375 L 159.335938 155.757812 L 159.507812 155.585938 L 159.679688 155.429688 L 159.859375 155.273438 L 160.21875 154.992188 L 160.40625 154.867188 L 160.796875 154.632812 L 160.992188 154.53125 L 161.203125 154.429688 L 161.40625 154.335938 L 161.617188 154.25 L 161.828125 154.179688 L 162.039062 154.101562 L 162.265625 154.039062 L 162.484375 153.976562 L 162.710938 153.929688 L 162.9375 153.875 L 163.164062 153.835938 L 163.398438 153.796875 L 163.640625 153.765625 L 163.875 153.742188 L 164.117188 153.71875 L 164.359375 153.703125 L 164.609375 153.6875 L 164.859375 153.679688 L 165.625 153.679688 L 165.882812 153.6875 L 166.140625 153.703125 L 166.40625 153.710938 L 166.664062 153.734375 L 166.9375 153.75 L 167.203125 153.773438 L 167.476562 153.804688 L 167.742188 153.828125 L 168.023438 153.859375 L 168.296875 153.890625 L 168.578125 153.929688 L 168.851562 153.960938 L 169.414062 154.039062 L 169.703125 154.078125 L 169.984375 154.125 L 170.273438 154.164062 L 170.554688 154.203125 L 170.84375 154.25 L 171.140625 154.296875 L 171.429688 154.335938 L 171.71875 154.382812 L 172.007812 154.421875 L 172.304688 154.46875 L 172.59375 154.507812 L 172.890625 154.554688 L 173.78125 154.671875 L 174.078125 154.703125 L 174.375 154.742188 L 174.671875 154.773438 L 174.976562 154.804688 L 175.570312 154.867188 L 175.867188 154.890625 L 176.171875 154.914062 L 177.0625 154.960938 L 177.367188 154.96875 L 177.664062 154.976562 L 178.554688 154.976562 L 178.851562 154.960938 L 179.148438 154.953125 L 179.742188 154.90625 L 180.03125 154.875 L 180.328125 154.84375 L 180.617188 154.804688 L 180.914062 154.765625 L 181.492188 154.65625 L 182.070312 154.53125 L 182.359375 154.453125 L 182.640625 154.375 L 182.929688 154.289062 L 183.210938 154.195312 L 183.492188 154.09375 L 183.773438 153.984375 L 184.046875 153.867188 L 184.328125 153.742188 L 184.875 153.476562 L 185.148438 153.328125 L 185.414062 153.171875 L 185.6875 153.007812 L 185.953125 152.835938 L 186.210938 152.65625 L 186.476562 152.460938 L 186.734375 152.265625 L 186.992188 152.054688 L 187.25 151.835938 L 187.5 151.609375 L 187.75 151.375 L 188 151.125 L 188.25 150.867188 L 188.492188 150.601562 L 188.726562 150.320312 L 188.96875 150.601562 L 189.210938 150.867188 L 189.460938 151.125 L 189.703125 151.375 L 189.953125 151.609375 L 190.210938 151.835938 L 190.46875 152.054688 L 190.726562 152.265625 L 191.242188 152.65625 L 191.507812 152.835938 L 191.773438 153.007812 L 192.039062 153.171875 L 192.3125 153.328125 L 192.585938 153.476562 L 193.132812 153.742188 L 193.40625 153.867188 L 193.6875 153.984375 L 193.96875 154.09375 L 194.25 154.195312 L 194.53125 154.289062 L 194.820312 154.375 L 195.101562 154.453125 L 195.390625 154.53125 L 195.96875 154.65625 L 196.546875 154.765625 L 196.835938 154.804688 L 197.132812 154.84375 L 197.421875 154.875 L 197.71875 154.90625 L 198.3125 154.953125 L 198.609375 154.960938 L 198.90625 154.976562 L 199.796875 154.976562 L 200.390625 154.960938 L 200.695312 154.945312 L 201.289062 154.914062 L 201.59375 154.890625 L 201.890625 154.867188 L 202.78125 154.773438 L 203.085938 154.742188 L 203.382812 154.703125 L 203.679688 154.671875 L 204.273438 154.59375 L 204.5625 154.554688 L 204.859375 154.507812 L 205.15625 154.46875 L 205.453125 154.421875 L 205.742188 154.382812 L 206.03125 154.335938 L 206.320312 154.296875 L 206.898438 154.203125 L 207.476562 154.125 L 207.757812 154.078125 L 208.039062 154.039062 L 208.328125 154 L 208.601562 153.960938 L 208.882812 153.929688 L 209.164062 153.890625 L 209.710938 153.828125 L 209.984375 153.804688 L 210.257812 153.773438 L 210.523438 153.75 L 210.789062 153.734375 L 211.054688 153.710938 L 211.320312 153.703125 L 211.578125 153.6875 L 211.84375 153.679688 L 212.601562 153.679688 L 212.851562 153.6875 L 213.09375 153.703125 L 213.34375 153.71875 L 213.578125 153.742188 L 213.820312 153.765625 L 214.054688 153.796875 L 214.523438 153.875 L 214.75 153.929688 L 214.976562 153.976562 L 215.414062 154.101562 L 215.632812 154.179688 L 215.84375 154.25 L 216.054688 154.335938 L 216.257812 154.429688 L 216.460938 154.53125 L 216.65625 154.632812 L 216.859375 154.75 L 217.046875 154.867188 L 217.234375 154.992188 L 217.421875 155.132812 L 217.601562 155.273438 L 217.78125 155.429688 L 217.953125 155.585938 L 218.125 155.757812 L 218.289062 155.9375 L 218.453125 156.125 L 218.609375 156.320312 L 218.765625 156.523438 L 218.914062 156.734375 L 219.054688 156.960938 L 219.195312 157.195312 L 219.328125 157.4375 L 219.460938 157.695312 "/>
<path fill="none" stroke-width="3.985" stroke-linecap="butt" stroke-linejoin="miter" stroke="rgb(0%, 0%, 0%)" stroke-opacity="1" stroke-miterlimit="10" d="M 1097.304671 941.523423 L 1096.835921 942.499986 L 1096.289046 943.437486 L 1095.703109 944.335923 L 1095.117171 945.195298 L 1094.492171 946.015611 L 1093.867171 946.796861 L 1093.203109 947.539048 L 1092.460921 948.242173 L 1091.757796 948.906236 L 1091.015609 949.531236 L 1090.234359 950.156236 L 1089.453109 950.742173 L 1087.812484 951.757798 L 1086.093734 952.695298 L 1085.195296 953.085923 L 1084.257796 953.476548 L 1083.281234 953.828111 L 1082.343734 954.179673 L 1081.367171 954.492173 L 1080.351546 954.765611 L 1079.335921 954.999986 L 1078.281234 955.234361 L 1077.226546 955.429673 L 1075.039046 955.820298 L 1072.773422 956.054673 L 1071.601547 956.171861 L 1070.468734 956.249986 L 1069.257797 956.328111 L 1068.085922 956.367173 L 1066.874984 956.406236 L 1065.624984 956.406236 L 1064.374984 956.445298 L 1063.124984 956.406236 L 1057.968734 956.249986 L 1056.601547 956.171861 L 1055.273422 956.093736 L 1053.906234 955.976548 L 1052.539047 955.898423 L 1049.804672 955.664048 L 1048.398422 955.585923 L 1046.992172 955.429673 L 1045.585922 955.312486 L 1044.140609 955.195298 L 1042.695297 955.039048 L 1041.289047 954.921861 L 1039.804672 954.765611 L 1038.35936 954.648423 L 1036.874985 954.531236 L 1035.39061 954.374986 L 1033.945297 954.257798 L 1032.460922 954.101548 L 1030.937485 953.984361 L 1029.45311 953.867173 L 1027.929672 953.749986 L 1026.445297 953.632798 L 1024.92186 953.515611 L 1018.82811 953.203111 L 1017.26561 953.124986 L 1014.218735 953.046861 L 1012.656235 953.007798 L 1008.04686 953.007798 L 1006.48436 953.046861 L 1004.960923 953.085923 L 1003.398423 953.164048 L 1001.874985 953.242173 L 1000.312485 953.359361 L 998.789048 953.476548 L 997.226548 953.593736 L 995.70311 953.749986 L 994.14061 953.945298 L 992.617173 954.140611 L 991.093735 954.374986 L 988.04686 954.921861 L 986.562485 955.234361 L 985.039048 955.546861 L 983.51561 955.898423 L 980.54686 956.679673 L 979.023423 957.148423 L 977.539048 957.617173 L 976.093735 958.124986 L 974.60936 958.632798 L 973.164048 959.218736 L 971.679673 959.804673 L 970.234361 960.429673 L 968.828111 961.132798 L 967.382798 961.835923 L 965.976548 962.539048 L 964.570298 963.320298 L 963.164048 964.140611 L 961.796861 964.999986 L 960.390611 965.898423 L 959.023423 966.835923 L 957.695298 967.773423 L 956.328111 968.828111 L 954.999986 969.843736 L 953.710923 970.976548 L 952.382798 972.109361 L 951.093736 973.281235 L 949.804673 974.531235 L 948.554673 975.781235 L 947.304673 977.10936 L 946.054673 978.476548 L 944.843736 979.92186 L 943.632798 981.406235 L 942.460923 979.92186 L 941.210923 978.476548 L 939.999986 977.10936 L 938.749986 975.781235 L 937.460924 974.531235 L 936.210924 973.281235 L 934.921861 972.109361 L 933.593736 970.976548 L 932.304674 969.843736 L 930.976549 968.828111 L 929.609361 967.773423 L 928.281236 966.835923 L 926.914049 965.898423 L 925.507799 964.999986 L 924.140611 964.140611 L 922.734361 963.320298 L 921.328111 962.539048 L 919.921861 961.835923 L 917.031236 960.429673 L 915.585924 959.804673 L 912.695299 958.632798 L 909.726549 957.617173 L 906.757799 956.679673 L 903.789049 955.898423 L 902.265612 955.546861 L 899.218737 954.921861 L 897.734362 954.648423 L 896.171862 954.374986 L 894.648424 954.140611 L 891.601549 953.749986 L 890.078112 953.593736 L 888.515612 953.476548 L 886.992174 953.359361 L 885.429674 953.242173 L 883.906237 953.164048 L 882.343737 953.085923 L 880.820299 953.046861 L 879.257799 953.007798 L 874.648424 953.007798 L 873.085924 953.046861 L 870.03905 953.124986 L 868.47655 953.203111 L 862.3828 953.515611 L 859.335925 953.749986 L 856.367175 953.984361 L 854.843737 954.101548 L 853.359362 954.257798 L 851.874987 954.374986 L 850.390612 954.531236 L 848.9453 954.648423 L 847.460925 954.765611 L 846.015612 954.921861 L 844.5703 955.039048 L 843.16405 955.195298 L 841.718737 955.312486 L 840.312487 955.429673 L 838.906237 955.585923 L 837.499988 955.664048 L 836.1328 955.781236 L 834.72655 955.898423 L 833.398425 955.976548 L 832.031238 956.093736 L 830.66405 956.171861 L 829.374988 956.249986 L 826.718738 956.328111 L 825.429675 956.367173 L 824.179675 956.406236 L 822.890613 956.445298 L 821.679675 956.406236 L 820.429675 956.406236 L 818.0078 956.328111 L 815.66405 956.171861 L 814.492175 956.054673 L 813.359363 955.937486 L 812.265613 955.820298 L 810.078113 955.429673 L 809.023425 955.234361 L 807.968738 954.999986 L 806.953113 954.765611 L 805.937488 954.492173 L 804.960926 954.179673 L 803.984363 953.828111 L 803.046863 953.476548 L 802.109363 953.085923 L 801.210926 952.695298 L 799.492176 951.757798 L 798.632801 951.249986 L 797.812488 950.742173 L 797.031238 950.156236 L 796.289051 949.531236 L 795.507801 948.906236 L 794.804676 948.242173 L 794.101551 947.539048 L 793.437488 946.796861 L 792.812488 946.015611 L 792.187488 945.195298 L 791.601551 944.335923 L 791.015613 943.437486 L 790.468738 942.499986 L 789.960926 941.523423 L 790.624988 942.812486 L 791.328113 944.023423 L 791.992176 945.195298 L 792.734363 946.328111 L 793.476551 947.382798 L 794.257801 948.398423 L 795.039051 949.374986 L 795.859363 950.312486 L 796.679676 951.210923 L 797.539051 952.070298 L 798.398426 952.851548 L 799.296863 953.632798 L 801.093738 955.039048 L 802.031238 955.664048 L 803.984363 956.835923 L 804.960926 957.343736 L 806.015613 957.851548 L 807.031238 958.320298 L 808.085925 958.749986 L 809.140613 959.101548 L 810.1953 959.492173 L 811.328113 959.804673 L 812.421863 960.117173 L 813.554675 960.351548 L 814.687488 960.624986 L 815.8203 960.820298 L 816.992175 961.015611 L 818.203113 961.171861 L 819.374988 961.289048 L 820.585925 961.406236 L 821.796863 961.484361 L 823.046863 961.562486 L 824.296863 961.601548 L 828.124988 961.601548 L 829.41405 961.562486 L 830.703113 961.484361 L 832.031238 961.445298 L 833.3203 961.328111 L 834.687488 961.249986 L 836.015613 961.132798 L 837.3828 960.976548 L 838.710925 960.859361 L 840.117175 960.703111 L 841.484362 960.546861 L 842.890612 960.351548 L 844.2578 960.195298 L 847.0703 959.804673 L 848.515612 959.609361 L 849.921862 959.374986 L 851.367175 959.179673 L 852.773425 958.984361 L 854.218737 958.749986 L 855.703112 958.515611 L 857.148425 958.320298 L 858.593737 958.085923 L 860.03905 957.890611 L 861.523425 957.656236 L 862.968737 957.460923 L 864.453112 957.226548 L 868.906237 956.640611 L 870.390612 956.484361 L 871.874987 956.289048 L 873.359362 956.132798 L 874.882799 955.976548 L 877.851549 955.664048 L 879.335924 955.546861 L 880.859362 955.429673 L 885.312487 955.195298 L 886.835924 955.156236 L 888.320299 955.117173 L 892.773424 955.117173 L 894.257799 955.195298 L 895.742174 955.234361 L 898.710924 955.468736 L 900.156237 955.624986 L 901.640612 955.781236 L 903.085924 955.976548 L 904.570299 956.171861 L 907.460924 956.718736 L 910.351549 957.343736 L 911.796861 957.734361 L 913.203111 958.124986 L 914.648424 958.554673 L 916.054674 959.023423 L 917.460924 959.531236 L 918.867174 960.078111 L 920.234361 960.664048 L 921.640611 961.289048 L 924.374986 962.617173 L 925.742174 963.359361 L 927.070299 964.140611 L 928.437486 964.960923 L 929.765611 965.820298 L 931.054674 966.718736 L 932.382799 967.695298 L 933.671861 968.671861 L 934.960924 969.726548 L 936.249986 970.820298 L 937.499986 971.953111 L 938.749986 973.124985 L 939.999986 974.374985 L 941.249986 975.664048 L 942.460923 976.992173 L 943.632798 978.398423 L 944.843736 976.992173 L 946.054673 975.664048 L 947.304673 974.374985 L 948.515611 973.124985 L 949.765611 971.953111 L 951.054673 970.820298 L 952.343736 969.726548 L 953.632798 968.671861 L 956.210923 966.718736 L 957.539048 965.820298 L 958.867173 964.960923 L 960.195298 964.140611 L 961.562486 963.359361 L 962.929673 962.617173 L 965.664048 961.289048 L 967.031236 960.664048 L 968.437486 960.078111 L 969.843736 959.531236 L 971.249986 959.023423 L 972.656236 958.554673 L 974.101548 958.124986 L 975.507798 957.734361 L 976.95311 957.343736 L 979.843735 956.718736 L 982.73436 956.171861 L 984.179673 955.976548 L 985.664048 955.781236 L 987.10936 955.624986 L 988.593735 955.468736 L 991.562485 955.234361 L 993.04686 955.195298 L 994.531235 955.117173 L 998.98436 955.117173 L 1001.95311 955.195298 L 1003.476548 955.273423 L 1006.445298 955.429673 L 1007.968735 955.546861 L 1009.45311 955.664048 L 1013.906235 956.132798 L 1015.429672 956.289048 L 1016.914047 956.484361 L 1018.398422 956.640611 L 1021.367172 957.031236 L 1022.812485 957.226548 L 1024.29686 957.460923 L 1025.781235 957.656236 L 1027.26561 957.890611 L 1028.710922 958.085923 L 1030.156235 958.320298 L 1031.601547 958.515611 L 1034.492172 958.984361 L 1037.382797 959.374986 L 1038.789047 959.609361 L 1040.195297 959.804673 L 1041.640609 959.999986 L 1043.007797 960.195298 L 1044.414047 960.351548 L 1045.820297 960.546861 L 1048.554672 960.859361 L 1049.921859 960.976548 L 1051.289047 961.132798 L 1052.617172 961.249986 L 1053.945297 961.328111 L 1055.273422 961.445298 L 1056.601547 961.484361 L 1057.890609 961.562486 L 1059.218734 961.601548 L 1063.007797 961.601548 L 1064.257797 961.562486 L 1065.468734 961.484361 L 1066.718734 961.406236 L 1067.890609 961.289048 L 1069.101547 961.171861 L 1070.273422 961.015611 L 1072.617172 960.624986 L 1073.749984 960.351548 L 1074.882796 960.117173 L 1077.070296 959.492173 L 1078.164046 959.101548 L 1079.218734 958.749986 L 1080.273421 958.320298 L 1081.289046 957.851548 L 1082.304671 957.343736 L 1083.281234 956.835923 L 1084.296859 956.249986 L 1085.234359 955.664048 L 1086.171859 955.039048 L 1087.109359 954.335923 L 1088.007796 953.632798 L 1088.906234 952.851548 L 1089.765609 952.070298 L 1090.624984 951.210923 L 1091.445296 950.312486 L 1092.265609 949.374986 L 1093.046859 948.398423 L 1093.828109 947.382798 L 1094.570296 946.328111 L 1095.273421 945.195298 L 1095.976546 944.023423 L 1096.640609 942.812486 Z M 1097.304671 941.523423 " transform="matrix(0.2, 0, 0, -0.2, 0, 346)"/>
<path fill="none" stroke-width="11.9553" stroke-linecap="butt" stroke-linejoin="miter" stroke="rgb(0%, 0%, 0%)" stroke-opacity="1" stroke-miterlimit="10" d="M 1434.570291 921.601549 L 1433.671854 955.859361 L 1430.976541 990.039048 L 1426.523416 1023.98436 L 1420.273416 1057.695297 L 1412.265604 1091.015609 L 1402.539042 1123.867171 L 1391.093729 1156.171858 L 1377.968729 1187.851545 L 1363.242167 1218.789044 L 1346.87498 1248.906231 L 1328.984355 1278.124981 L 1309.570293 1306.328106 L 1288.671856 1333.554668 L 1266.445294 1359.609355 L 1242.851544 1384.453104 L 1218.007794 1408.046854 L 1191.953107 1430.273416 L 1164.726545 1451.171853 L 1136.523421 1470.585916 L 1107.304671 1488.47654 L 1077.187484 1504.804665 L 1046.249984 1519.57029 L 1014.570297 1532.69529 L 982.26561 1544.140602 L 949.414048 1553.867164 L 916.093736 1561.874977 L 882.382799 1568.124977 L 848.437487 1572.578102 L 814.2578 1575.273414 L 779.999988 1576.171852 L 745.742176 1575.273414 L 711.601552 1572.578102 L 677.617177 1568.124977 L 643.90624 1561.874977 L 610.585928 1553.867164 L 577.734366 1544.140602 L 545.429679 1532.69529 L 513.789055 1519.57029 L 482.851555 1504.804665 L 452.734368 1488.47654 L 423.515619 1470.585916 L 395.273432 1451.171853 L 368.085932 1430.273416 L 342.031245 1408.046854 L 317.187495 1384.453104 L 293.593746 1359.609355 L 271.328121 1333.554668 L 250.468746 1306.328106 L 231.054684 1278.124981 L 213.164059 1248.906231 L 196.796872 1218.789044 L 182.031247 1187.851545 L 168.94531 1156.171858 L 157.499998 1123.867171 L 147.773435 1091.015609 L 139.765623 1057.695297 L 133.515623 1023.98436 L 129.023436 990.039048 L 126.367186 955.859361 L 125.468748 921.601549 L 126.367186 887.343737 L 129.023436 853.203112 L 133.515623 819.218738 L 139.765623 785.507801 L 147.773435 752.187489 L 157.499998 719.335927 L 168.94531 687.03124 L 182.031247 655.390615 L 196.796872 624.453116 L 213.164059 594.335929 L 231.054684 565.117179 L 250.468746 536.874992 L 271.328121 509.687492 L 293.593746 483.632805 L 317.187495 458.789056 L 342.031245 435.195306 L 368.085932 412.929681 L 395.273432 392.070307 L 423.515619 372.656244 L 452.734368 354.76562 L 482.851555 338.398432 L 513.789055 323.632808 L 545.429679 310.54687 L 577.734366 299.101558 L 610.585928 289.374996 L 643.90624 281.367183 L 677.617177 275.117183 L 711.601552 270.624996 L 745.742176 267.929684 L 779.999988 267.070309 L 814.2578 267.929684 L 848.437487 270.624996 L 882.382799 275.117183 L 916.093736 281.367183 L 949.414048 289.374996 L 982.26561 299.101558 L 1014.570297 310.54687 L 1046.249984 323.632808 L 1077.187484 338.398432 L 1107.304671 354.76562 L 1136.523421 372.656244 L 1164.726545 392.070307 L 1191.953107 412.929681 L 1218.007794 435.195306 L 1242.851544 458.789056 L 1266.445294 483.632805 L 1288.671856 509.687492 L 1309.570293 536.874992 L 1328.984355 565.117179 L 1346.87498 594.335929 L 1363.242167 624.453116 L 1377.968729 655.390615 L 1391.093729 687.03124 L 1402.539042 719.335927 L 1412.265604 752.187489 L 1420.273416 785.507801 L 1426.523416 819.218738 L 1430.976541 853.203112 L 1433.671854 887.343737 Z M 1434.570291 921.601549 " transform="matrix(0.2, 0, 0, -0.2, 0, 346)"/>
<path fill="none" stroke-width="11.9553" stroke-linecap="butt" stroke-linejoin="miter" stroke="rgb(0%, 0%, 0%)" stroke-opacity="1" stroke-miterlimit="10" d="M 1074.531234 337.070307 L 1074.531234 1506.13279 " transform="matrix(0.2, 0, 0, -0.2, 0, 346)"/>
<path fill="none" stroke-width="11.9553" stroke-linecap="butt" stroke-linejoin="miter" stroke="rgb(0%, 0%, 0%)" stroke-opacity="1" stroke-miterlimit="10" d="M 1140.039046 374.960932 L 1140.039046 1468.281228 " transform="matrix(0.2, 0, 0, -0.2, 0, 346)"/>
<path fill-rule="nonzero" fill="rgb(0%, 0%, 0%)" fill-opacity="1" d="M 150.890625 171.042969 C 150.890625 167.511719 148.578125 165.167969 145.328125 165.167969 C 140.609375 165.167969 135.796875 170.105469 135.796875 175.199219 C 135.796875 178.824219 138.234375 181.011719 141.390625 181.011719 C 146.015625 181.011719 150.890625 176.230469 150.890625 171.042969 Z M 141.515625 180.449219 C 139.359375 180.449219 137.828125 178.699219 137.828125 175.824219 C 137.828125 174.855469 138.140625 171.667969 139.828125 169.105469 C 141.328125 166.855469 143.453125 165.699219 145.171875 165.699219 C 146.984375 165.699219 148.921875 166.917969 148.921875 170.167969 C 148.921875 171.761719 148.359375 175.167969 146.171875 177.824219 C 145.140625 179.167969 143.359375 180.449219 141.515625 180.449219 Z M 141.515625 180.449219 "/>
<path fill-rule="nonzero" fill="rgb(0%, 0%, 0%)" fill-opacity="1" d="M 311.269531 168.429688 C 311.394531 167.867188 311.894531 165.867188 313.425781 165.867188 C 313.550781 165.867188 314.050781 165.867188 314.519531 166.148438 C 313.925781 166.242188 313.488281 166.804688 313.488281 167.335938 C 313.488281 167.679688 313.707031 168.085938 314.300781 168.085938 C 314.800781 168.085938 315.488281 167.679688 315.488281 166.835938 C 315.488281 165.679688 314.207031 165.367188 313.457031 165.367188 C 312.175781 165.367188 311.425781 166.523438 311.175781 167.054688 C 310.613281 165.585938 309.425781 165.367188 308.800781 165.367188 C 306.550781 165.367188 305.300781 168.210938 305.300781 168.742188 C 305.300781 168.960938 305.519531 168.960938 305.550781 168.960938 C 305.738281 168.960938 305.800781 168.929688 305.832031 168.710938 C 306.582031 166.398438 308.019531 165.867188 308.769531 165.867188 C 309.175781 165.867188 309.957031 166.054688 309.957031 167.335938 C 309.957031 167.992188 309.582031 169.460938 308.769531 172.523438 C 308.425781 173.867188 307.644531 174.773438 306.707031 174.773438 C 306.550781 174.773438 306.050781 174.773438 305.613281 174.492188 C 306.144531 174.398438 306.613281 173.929688 306.613281 173.335938 C 306.613281 172.742188 306.144531 172.554688 305.832031 172.554688 C 305.175781 172.554688 304.613281 173.117188 304.613281 173.835938 C 304.613281 174.835938 305.707031 175.273438 306.675781 175.273438 C 308.113281 175.273438 308.894531 173.742188 308.957031 173.617188 C 309.238281 174.398438 310.019531 175.273438 311.332031 175.273438 C 313.550781 175.273438 314.800781 172.460938 314.800781 171.898438 C 314.800781 171.679688 314.613281 171.679688 314.550781 171.679688 C 314.363281 171.679688 314.300781 171.773438 314.269531 171.929688 C 313.550781 174.273438 312.050781 174.773438 311.363281 174.773438 C 310.519531 174.773438 310.175781 174.085938 310.175781 173.335938 C 310.175781 172.867188 310.300781 172.398438 310.519531 171.429688 Z M 311.269531 168.429688 "/>
<path fill-rule="nonzero" fill="rgb(0%, 0%, 0%)" fill-opacity="1" d="M 151.089844 1.300781 C 151.183594 0.988281 151.183594 0.957031 151.183594 0.800781 C 151.183594 0.394531 150.871094 0.207031 150.558594 0.207031 C 150.339844 0.207031 149.996094 0.332031 149.777344 0.675781 C 149.746094 0.769531 149.558594 1.457031 149.496094 1.863281 C 149.339844 2.425781 149.183594 3.019531 149.058594 3.582031 L 148.058594 7.519531 C 147.964844 7.832031 147.027344 9.363281 145.589844 9.363281 C 144.496094 9.363281 144.246094 8.425781 144.246094 7.613281 C 144.246094 6.613281 144.621094 5.238281 145.371094 3.332031 C 145.714844 2.425781 145.808594 2.207031 145.808594 1.769531 C 145.808594 0.769531 145.089844 -0.0429688 143.996094 -0.0429688 C 141.933594 -0.0429688 141.121094 3.144531 141.121094 3.332031 C 141.121094 3.550781 141.339844 3.550781 141.402344 3.550781 C 141.621094 3.550781 141.621094 3.519531 141.746094 3.144531 C 142.339844 1.113281 143.214844 0.457031 143.933594 0.457031 C 144.121094 0.457031 144.496094 0.457031 144.496094 1.144531 C 144.496094 1.707031 144.277344 2.269531 144.121094 2.675781 C 143.246094 4.988281 142.839844 6.238281 142.839844 7.269531 C 142.839844 9.207031 144.214844 9.863281 145.527344 9.863281 C 146.371094 9.863281 147.089844 9.488281 147.714844 8.863281 C 147.433594 10.019531 147.183594 11.082031 146.308594 12.238281 C 145.746094 12.957031 144.902344 13.613281 143.902344 13.613281 C 143.589844 13.613281 142.621094 13.550781 142.246094 12.675781 C 142.589844 12.675781 142.871094 12.675781 143.183594 12.425781 C 143.402344 12.238281 143.621094 11.957031 143.621094 11.519531 C 143.621094 10.863281 143.027344 10.769531 142.808594 10.769531 C 142.308594 10.769531 141.589844 11.113281 141.589844 12.175781 C 141.589844 13.269531 142.558594 14.082031 143.902344 14.082031 C 146.152344 14.082031 148.402344 12.113281 148.996094 9.644531 Z M 151.089844 1.300781 "/>
<path fill="none" stroke-width="11.9553" stroke-linecap="butt" stroke-linejoin="miter" stroke="rgb(0%, 0%, 0%)" stroke-opacity="1" stroke-miterlimit="10" d="M 8.320312 921.601549 L 1551.718727 921.601549 " transform="matrix(0.2, 0, 0, -0.2, 0, 346)"/>
<path fill="none" stroke-width="11.9553" stroke-linecap="butt" stroke-linejoin="miter" stroke="rgb(0%, 0%, 0%)" stroke-opacity="1" stroke-miterlimit="10" d="M 779.999988 149.921873 L 779.999988 1693.281225 " transform="matrix(0.2, 0, 0, -0.2, 0, 346)"/>
<path fill-rule="nonzero" fill="rgb(0%, 0%, 0%)" fill-opacity="1" d="M 111.597656 338.386719 C 112.785156 337.980469 114.785156 337.386719 114.785156 335.449219 C 114.785156 333.136719 112.066406 332.074219 110.097656 332.074219 C 109.160156 332.074219 108.191406 332.292969 107.347656 332.792969 C 107.222656 332.855469 107.066406 333.042969 106.910156 333.042969 C 106.597656 333.042969 106.035156 332.074219 105.722656 332.074219 C 105.535156 332.074219 105.503906 332.292969 105.503906 332.386719 L 105.503906 335.949219 C 105.503906 336.074219 105.597656 336.230469 105.785156 336.230469 C 106.097656 336.230469 106.066406 335.605469 106.160156 335.261719 C 106.628906 333.542969 108.191406 332.792969 109.691406 332.699219 L 110.097656 332.699219 C 111.441406 332.699219 113.003906 333.574219 113.003906 335.449219 C 113.003906 337.261719 111.222656 338.199219 109.566406 338.199219 C 109.253906 338.199219 108.941406 338.199219 108.628906 338.199219 L 108.472656 338.199219 C 108.285156 338.199219 108.066406 338.199219 108.066406 338.417969 L 108.066406 338.449219 C 108.097656 338.636719 108.285156 338.667969 108.472656 338.667969 L 110.316406 338.667969 C 111.878906 338.792969 113.316406 339.824219 113.472656 341.449219 L 113.472656 341.667969 C 113.472656 343.511719 111.753906 344.667969 110.003906 344.667969 C 108.097656 344.667969 106.128906 344.042969 105.816406 341.667969 C 105.816406 341.511719 105.753906 341.324219 105.535156 341.324219 C 105.316406 341.355469 105.285156 341.511719 105.285156 341.667969 C 105.285156 344.261719 107.878906 345.292969 110.128906 345.292969 C 112.191406 345.292969 115.066406 344.324219 115.316406 341.855469 L 115.316406 341.730469 C 115.316406 339.761719 113.253906 338.792969 111.597656 338.386719 Z M 111.597656 338.386719 "/>
<path fill-rule="nonzero" fill="rgb(0%, 0%, 0%)" fill-opacity="1" d="M 123.695312 332.074219 C 120.320312 332.480469 117.632812 335.136719 117.632812 338.730469 C 117.632812 342.011719 120.226562 345.261719 124.101562 345.261719 C 127.601562 345.261719 130.570312 342.355469 130.570312 338.730469 C 130.570312 335.542969 128.070312 332.074219 124.132812 332.074219 C 124.007812 332.074219 123.851562 332.074219 123.695312 332.074219 Z M 119.507812 338.949219 L 119.507812 338.605469 C 119.507812 336.105469 120.414062 333.167969 123.570312 332.636719 C 123.757812 332.605469 123.914062 332.605469 124.101562 332.605469 C 126.914062 332.605469 128.664062 335.324219 128.664062 338.355469 C 128.664062 340.761719 127.945312 343.824219 124.976562 344.605469 C 124.695312 344.667969 124.414062 344.699219 124.132812 344.699219 L 123.945312 344.699219 C 121.351562 344.605469 119.945312 342.136719 119.601562 339.730469 Z M 119.507812 338.949219 "/>
<path fill-rule="nonzero" fill="rgb(0%, 0%, 0%)" fill-opacity="1" d="M 133.027344 332.417969 L 133.027344 333.011719 L 133.464844 333.011719 C 134.058594 333.011719 134.683594 333.105469 134.683594 333.980469 L 134.683594 343.449219 C 134.683594 344.292969 133.964844 344.324219 133.308594 344.324219 L 133.027344 344.324219 L 133.027344 344.917969 L 138.808594 344.917969 C 139.214844 344.917969 139.589844 344.949219 139.996094 344.949219 C 141.996094 344.949219 144.339844 344.011719 144.558594 341.605469 L 144.558594 341.417969 C 144.558594 338.886719 141.683594 337.855469 139.777344 337.855469 C 138.527344 337.855469 137.339844 337.980469 136.152344 338.074219 L 136.152344 333.855469 C 136.152344 333.417969 136.214844 333.011719 136.996094 333.011719 L 139.308594 333.011719 C 140.277344 333.011719 141.371094 333.074219 142.089844 333.792969 C 142.777344 334.511719 142.871094 335.730469 142.964844 336.667969 L 143.496094 336.667969 L 143.027344 332.417969 Z M 136.152344 338.699219 C 136.402344 338.699219 136.652344 338.636719 136.902344 338.605469 L 138.277344 338.542969 C 138.558594 338.511719 138.839844 338.480469 139.152344 338.480469 C 140.714844 338.480469 142.683594 339.480469 142.683594 341.324219 C 142.683594 343.074219 141.339844 344.355469 139.339844 344.355469 C 139.058594 344.355469 138.746094 344.324219 138.496094 344.324219 L 136.964844 344.324219 C 136.496094 344.324219 136.246094 344.292969 136.152344 343.667969 Z M 136.152344 338.699219 "/>
<path fill-rule="nonzero" fill="rgb(0%, 0%, 0%)" fill-opacity="1" d="M 146.90625 332.417969 L 146.90625 333.011719 L 147.375 333.011719 C 147.96875 333.011719 148.5625 333.105469 148.5625 333.980469 L 148.5625 343.449219 C 148.5625 344.292969 147.875 344.324219 147.1875 344.324219 L 146.90625 344.324219 L 146.90625 344.917969 L 151.8125 344.917969 L 151.8125 344.324219 L 151.375 344.324219 C 150.75 344.324219 150.15625 344.261719 150.15625 343.386719 L 150.15625 339.199219 L 153.875 339.199219 C 155.65625 339.074219 157.9375 337.886719 157.9375 335.855469 C 157.9375 333.636719 155.59375 332.574219 153.6875 332.417969 Z M 150.125 338.667969 L 150.125 333.667969 C 150.21875 333.074219 150.46875 333.011719 150.875 333.011719 L 152.3125 333.011719 C 153.9375 333.011719 156.0625 333.074219 156.0625 335.855469 C 156.0625 336.511719 155.96875 337.199219 155.5625 337.699219 C 154.90625 338.480469 153.8125 338.667969 152.84375 338.667969 Z M 150.125 338.667969 "/>
<path fill-rule="nonzero" fill="rgb(0%, 0%, 0%)" fill-opacity="1" d="M 162.632812 342.636719 C 162.132812 342.730469 161.632812 343.167969 161.632812 343.761719 C 161.632812 344.386719 162.164062 344.917969 162.789062 344.917969 C 163.414062 344.917969 163.976562 344.449219 163.976562 343.792969 C 163.976562 343.167969 163.445312 342.605469 162.820312 342.605469 C 162.757812 342.605469 162.695312 342.636719 162.632812 342.636719 Z M 162.632812 342.636719 "/>
<path fill-rule="nonzero" fill="rgb(0%, 0%, 0%)" fill-opacity="1" d="M 178.535156 337.292969 C 178.535156 335.042969 178.628906 332.480469 180.316406 330.792969 C 180.972656 330.136719 181.816406 329.667969 182.785156 329.605469 L 183.003906 329.605469 C 183.847656 329.605469 184.722656 329.855469 185.253906 330.574219 C 185.191406 330.542969 185.128906 330.542969 185.035156 330.542969 C 184.503906 330.542969 184.035156 330.949219 184.035156 331.542969 C 184.035156 332.105469 184.441406 332.574219 185.035156 332.574219 C 185.566406 332.574219 186.066406 332.167969 186.066406 331.574219 C 186.066406 329.824219 184.535156 329.042969 182.941406 329.042969 C 178.941406 329.042969 176.566406 333.417969 176.566406 337.167969 C 176.566406 340.386719 177.222656 345.417969 181.753906 345.417969 C 183.660156 345.417969 185.128906 344.230469 186.035156 342.699219 C 186.472656 341.855469 186.628906 340.917969 186.628906 340.011719 C 186.628906 337.480469 184.816406 334.730469 181.910156 334.730469 C 180.660156 334.730469 179.660156 335.324219 179.035156 336.324219 C 178.847656 336.605469 178.628906 336.949219 178.535156 337.292969 Z M 178.566406 339.605469 L 178.566406 339.417969 C 178.566406 337.542969 179.628906 335.230469 181.785156 335.230469 C 183.503906 335.230469 184.472656 336.855469 184.628906 338.386719 C 184.660156 339.011719 184.660156 339.636719 184.660156 340.261719 C 184.660156 341.730469 184.535156 343.480469 183.160156 344.355469 C 182.722656 344.636719 182.222656 344.792969 181.691406 344.792969 C 179.410156 344.792969 178.722656 342.449219 178.597656 340.355469 C 178.597656 340.105469 178.597656 339.855469 178.566406 339.605469 Z M 178.566406 339.605469 "/>
<path fill-rule="nonzero" fill="rgb(0%, 0%, 0%)" fill-opacity="1" d="M 190.246094 332.417969 C 190.652344 330.855469 192.058594 329.730469 193.683594 329.730469 C 195.933594 329.730469 197.183594 331.699219 197.183594 333.636719 C 197.183594 335.324219 196.246094 336.824219 195.214844 338.074219 C 193.527344 340.167969 191.496094 342.042969 189.714844 344.011719 C 189.558594 344.199219 189.402344 344.355469 189.402344 344.605469 C 189.402344 344.699219 189.433594 344.824219 189.433594 344.917969 L 198.558594 344.917969 L 199.183594 340.917969 L 198.652344 340.917969 C 198.464844 341.886719 198.527344 343.167969 197.527344 343.167969 C 197.308594 343.199219 197.121094 343.199219 196.933594 343.199219 L 196.339844 343.199219 C 195.996094 343.230469 195.621094 343.230469 195.308594 343.230469 L 191.152344 343.230469 C 192.652344 341.730469 194.277344 340.261719 195.902344 338.886719 C 197.433594 337.574219 199.027344 336.042969 199.183594 333.917969 L 199.183594 333.605469 C 199.183594 330.886719 196.839844 329.042969 193.996094 329.042969 C 191.652344 329.042969 189.433594 330.949219 189.433594 333.386719 C 189.433594 334.199219 189.902344 334.667969 190.589844 334.667969 C 191.214844 334.667969 191.714844 334.199219 191.714844 333.511719 C 191.714844 332.886719 191.246094 332.386719 190.527344 332.386719 C 190.433594 332.386719 190.339844 332.386719 190.246094 332.417969 Z M 190.246094 332.417969 "/>
<path fill-rule="nonzero" fill="rgb(0%, 0%, 0%)" fill-opacity="1" d="M 204.140625 342.636719 C 203.640625 342.730469 203.140625 343.167969 203.140625 343.761719 C 203.140625 344.386719 203.671875 344.917969 204.296875 344.917969 C 204.921875 344.917969 205.484375 344.449219 205.484375 343.792969 C 205.484375 343.167969 204.953125 342.605469 204.328125 342.605469 C 204.265625 342.605469 204.203125 342.636719 204.140625 342.636719 Z M 204.140625 342.636719 "/>
</svg>
